g Armor_Color_06
v 794.1536 -36.93504 722.6382
v 744.4794 -32.85317 722.6382
v 766.5811 37.24892 722.6382
v 855.5573 37.24892 722.6382
v 833.1605 -11.85396 722.6382
v 766.5811 37.24892 722.6382
v 833.1605 -11.85396 722.6382
v 794.1536 -36.93504 722.6382
v 766.5811 37.24892 722.6382
v 794.1536 -36.93498 -538.9164
v 766.5811 37.24898 -538.9164
v 744.4794 -32.85312 -538.9164
v 855.5573 37.24898 -538.9164
v 766.5811 37.24898 -538.9164
v 833.1605 -11.8539 -538.9165
v 833.1605 -11.8539 -538.9165
v 766.5811 37.24898 -538.9164
v 794.1536 -36.93498 -538.9164
v -789.5654 -36.93503 722.6382
v -761.993 37.24892 722.6382
v -739.8912 -32.85317 722.6382
v -850.9691 37.24892 722.6382
v -761.993 37.24892 722.6382
v -828.5723 -11.85396 722.6382
v -828.5723 -11.85396 722.6382
v -761.993 37.24892 722.6382
v -789.5654 -36.93503 722.6382
v -789.5654 -36.93497 -538.9164
v -739.8912 -32.85312 -538.9164
v -761.993 37.24899 -538.9164
v -850.9691 37.24899 -538.9164
v -828.5723 -11.8539 -538.9164
v -761.993 37.24899 -538.9164
v -828.5723 -11.8539 -538.9164
v -789.5654 -36.93497 -538.9164
v -761.993 37.24899 -538.9164
v 754.5645 50.57893 702.6837
v 766.5811 37.24892 722.6382
v 744.4794 -32.85317 722.6382
v 724.52 -44.71627 702.6838
v 724.52 -44.71627 702.6838
v 744.4794 -32.85317 722.6382
v 794.1536 -36.93504 722.6382
v 792.046 -50.26506 702.6838
v 875.5168 50.57893 702.6837
v 855.5573 37.24892 722.6382
v 766.5811 37.24892 722.6382
v 754.5645 50.57893 702.6837
v 845.071 -16.1704 702.6838
v 833.1605 -11.85396 722.6382
v 855.5573 37.24892 722.6382
v 875.5168 50.57893 702.6837
v 792.046 -50.26506 702.6838
v 794.1536 -36.93504 722.6382
v 833.1605 -11.85396 722.6382
v 845.071 -16.1704 702.6838
v 754.5645 50.57893 702.6837
v 754.5645 50.57898 -518.9619
v 875.5168 50.57898 -518.9619
v 875.5168 50.57893 702.6837
v 724.52 -44.71627 702.6838
v 724.52 -44.71622 -518.962
v 754.5645 50.57898 -518.9619
v 754.5645 50.57893 702.6837
v 792.046 -50.26506 702.6838
v 724.52 -44.71622 -518.962
v 724.52 -44.71627 702.6838
v 792.046 -50.265 -518.962
v 845.071 -16.1704 702.6838
v 845.071 -16.17035 -518.962
v 875.5168 50.57893 702.6837
v 875.5168 50.57898 -518.9619
v 754.5645 50.57898 -518.9619
v 724.52 -44.71622 -518.962
v 744.4794 -32.85312 -538.9164
v 766.5811 37.24898 -538.9164
v 724.52 -44.71622 -518.962
v 792.046 -50.265 -518.962
v 794.1536 -36.93498 -538.9164
v 744.4794 -32.85312 -538.9164
v 875.5168 50.57898 -518.9619
v 754.5645 50.57898 -518.9619
v 766.5811 37.24898 -538.9164
v 855.5573 37.24898 -538.9164
v 845.071 -16.17035 -518.962
v 875.5168 50.57898 -518.9619
v 855.5573 37.24898 -538.9164
v 833.1605 -11.8539 -538.9165
v 792.046 -50.265 -518.962
v 845.071 -16.17035 -518.962
v 833.1605 -11.8539 -538.9165
v 794.1536 -36.93498 -538.9164
v -749.9763 50.57893 702.6838
v -719.9318 -44.71627 702.6838
v -739.8912 -32.85317 722.6382
v -761.993 37.24892 722.6382
v -719.9318 -44.71627 702.6838
v -787.4577 -50.26505 702.6838
v -789.5654 -36.93503 722.6382
v -739.8912 -32.85317 722.6382
v -870.9286 50.57893 702.6838
v -749.9763 50.57893 702.6838
v -761.993 37.24892 722.6382
v -850.9691 37.24892 722.6382
v -840.4828 -16.1704 702.6838
v -870.9286 50.57893 702.6838
v -850.9691 37.24892 722.6382
v -828.5723 -11.85396 722.6382
v -787.4577 -50.26505 702.6838
v -840.4828 -16.1704 702.6838
v -828.5723 -11.85396 722.6382
v -789.5654 -36.93503 722.6382
v -749.9763 50.57898 -518.9619
v -761.993 37.24899 -538.9164
v -739.8912 -32.85312 -538.9164
v -719.9318 -44.71621 -518.962
v -719.9318 -44.71621 -518.962
v -739.8912 -32.85312 -538.9164
v -789.5654 -36.93497 -538.9164
v -787.4577 -50.265 -518.962
v -870.9286 50.57898 -518.9619
v -850.9691 37.24899 -538.9164
v -761.993 37.24899 -538.9164
v -749.9763 50.57898 -518.9619
v -840.4828 -16.17035 -518.962
v -828.5723 -11.8539 -538.9164
v -850.9691 37.24899 -538.9164
v -870.9286 50.57898 -518.9619
v -787.4577 -50.265 -518.962
v -789.5654 -36.93497 -538.9164
v -828.5723 -11.8539 -538.9164
v -840.4828 -16.17035 -518.962
v -749.9763 50.57898 -518.9619
v -719.9318 -44.71621 -518.962
v -719.9318 -44.71627 702.6838
v -749.9763 50.57893 702.6838
v -749.9763 50.57898 -518.9619
v -749.9763 50.57893 702.6838
v -870.9286 50.57893 702.6838
v -870.9286 50.57898 -518.9619
v -840.4828 -16.17035 -518.962
v -870.9286 50.57898 -518.9619
v -870.9286 50.57893 702.6838
v -840.4828 -16.1704 702.6838
v -787.4577 -50.26505 702.6838
v -787.4577 -50.265 -518.962
v -719.9318 -44.71621 -518.962
v -719.9318 -44.71627 702.6838
vt 0.7219685 0.09907445
vt 0.7221199 0.09847751
vt 0.721212 0.09845506
vt 0.7212324 0.09916049
vt 0.7215388 0.09856822
vt 0.7205535 0.09829574
vt 0.7217895 0.0990743
vt 0.7219898 0.09853744
vt 0.7210214 0.09839965
vt 0.7221685 0.09845973
vt 0.7211921 0.09851579
vt 0.7219399 0.09903152
vt 0.7208543 0.09824234
vt 0.7209803 0.09933443
vt 0.7214889 0.09844766
vt 0.7217407 0.09824725
vt 0.7210571 0.0990072
vt 0.7220023 0.09875697
vt 0.7221685 0.09845973
vt 0.7211921 0.09851579
vt 0.7219399 0.09903152
vt 0.7208543 0.09824234
vt 0.7209803 0.09933443
vt 0.7214889 0.09844766
vt 0.7217407 0.09824725
vt 0.7210571 0.0990072
vt 0.7220023 0.09875697
vt 0.7219685 0.09907445
vt 0.7221199 0.09847751
vt 0.721212 0.09845506
vt 0.7212324 0.09916049
vt 0.7215388 0.09856822
vt 0.7205535 0.09829574
vt 0.7217895 0.0990743
vt 0.7219898 0.09853744
vt 0.7210214 0.09839965
vt 0.7193686 0.07278912
vt 0.7198044 0.07391882
vt 0.7231199 0.07384508
vt 0.7238756 0.07268888
vt 0.7208018 0.07480595
vt 0.7220268 0.07416766
vt 0.7224424 0.07195769
vt 0.7213668 0.07180176
vt 0.7210174 0.07603143
vt 0.722123 0.07515925
vt 0.7222269 0.07114625
vt 0.7211586 0.07057627
vt 0.7232734 0.07372525
vt 0.7232472 0.07265918
vt 0.7208178 0.07282342
vt 0.7199709 0.07394852
vt 0.7230442 0.07380077
vt 0.7226344 0.07279414
vt 0.7205422 0.07280353
vt 0.7202001 0.07381356
vt 0.7224737 0.100814
vt 0.7183734 0.09665749
vt 0.7230769 0.09882458
vt 0.7172953 0.09808166
vt 0.7200816 0.09554169
vt 0.7206277 0.1012728
vt 0.7183734 0.09665749
vt 0.7224737 0.100814
vt 0.7188371 0.1011057
vt 0.7206277 0.1012728
vt 0.7200816 0.09554169
vt 0.7217014 0.09614962
vt 0.7230284 0.09720957
vt 0.7178915 0.09983785
vt 0.7172953 0.09808166
vt 0.7230769 0.09882458
vt 0.7193681 0.0738734
vt 0.7238761 0.0738734
vt 0.7230949 0.0727343
vt 0.7197787 0.0727343
vt 0.7208018 0.07180175
vt 0.7213668 0.07480595
vt 0.7224424 0.07465
vt 0.7220268 0.07244004
vt 0.7210174 0.07057627
vt 0.7211586 0.07603143
vt 0.7222269 0.07546145
vt 0.722123 0.07144845
vt 0.7232751 0.07285336
vt 0.7199692 0.07268797
vt 0.7208357 0.07379806
vt 0.7232676 0.07391973
vt 0.7230441 0.07278322
vt 0.7202002 0.07282066
vt 0.7205601 0.07382449
vt 0.7226522 0.07379693
vt 0.7193681 0.0738734
vt 0.7238761 0.0738734
vt 0.7230949 0.0727343
vt 0.7197787 0.0727343
vt 0.7208018 0.07180176
vt 0.7213668 0.07480595
vt 0.7224424 0.07465001
vt 0.7220268 0.07244003
vt 0.7210174 0.07057627
vt 0.7211586 0.07603143
vt 0.7222269 0.07546143
vt 0.722123 0.07144845
vt 0.7232751 0.07285336
vt 0.7199692 0.07268797
vt 0.7208357 0.07379806
vt 0.7232676 0.07391973
vt 0.7230441 0.07278322
vt 0.7202001 0.07282066
vt 0.7205601 0.07382448
vt 0.7226522 0.07379693
vt 0.7193686 0.07278912
vt 0.7198044 0.07391882
vt 0.7231199 0.07384508
vt 0.7238756 0.07268888
vt 0.7208018 0.07480595
vt 0.7220268 0.07416767
vt 0.7224424 0.07195769
vt 0.7213668 0.07180176
vt 0.7210174 0.07603143
vt 0.722123 0.07515924
vt 0.7222269 0.07114625
vt 0.7211586 0.07057627
vt 0.7232734 0.07372525
vt 0.7232472 0.07265918
vt 0.7208178 0.07282342
vt 0.7199709 0.07394852
vt 0.7230442 0.07380077
vt 0.7226344 0.07279414
vt 0.7205422 0.07280354
vt 0.7202001 0.07381357
vt 0.7224738 0.100814
vt 0.7200816 0.09554169
vt 0.7206277 0.1012728
vt 0.7183734 0.09665749
vt 0.7224738 0.100814
vt 0.7183734 0.09665749
vt 0.7230769 0.09882458
vt 0.7172953 0.09808165
vt 0.7230284 0.09720957
vt 0.7172953 0.09808165
vt 0.7230769 0.09882458
vt 0.7178915 0.09983785
vt 0.7217016 0.09614962
vt 0.718837 0.1011057
vt 0.7200816 0.09554169
vt 0.7206277 0.1012728
vn 0 0 1
vn 0 0 1
vn 0 0 1
vn 0 0 1
vn 0 0 1
vn 0 0 1
vn 0 0 1
vn 0 0 1
vn 0 0 1
vn 0 0 -1
vn 0 0 -1
vn 0 0 -1
vn 0 0 -1
vn 0 0 -1
vn 0 0 -1
vn 0 0 -1
vn 0 0 -1
vn 0 0 -1
vn 0 0 1
vn 0 0 1
vn 0 0 1
vn 0 0 1
vn 0 0 1
vn 0 0 1
vn 0 0 1
vn 0 0 1
vn 0 0 1
vn 0 0 -1
vn 0 0 -1
vn 0 0 -1
vn 0 0 -1
vn 0 0 -1
vn 0 0 -1
vn 0 0 -1
vn 0 0 -1
vn 0 0 -1
vn -0.9146049 0.2883556 0.2834587
vn -0.7537633 0.2376457 0.6126707
vn -0.7537633 0.2376457 0.6126707
vn -0.9243286 0.2914212 0.2463541
vn -0.08001819 -0.9737822 0.2129441
vn -0.06789785 -0.8262826 0.5591483
vn 0.2511128 -0.8169277 0.5192026
vn 0.217859 -0.9395446 0.2641847
vn 0 0.9782974 0.2072056
vn 0 0.83153 0.55548
vn 0 0.83153 0.55548
vn 0 0.9708776 0.239576
vn 0.739383 -0.6230254 0.2552493
vn 0.6299013 -0.5910771 0.5038376
vn 0.7688129 -0.3506713 0.534749
vn 0.8921825 -0.4069439 0.1959779
vn 0.217859 -0.9395446 0.2641847
vn 0.2511128 -0.8169277 0.5192026
vn 0.6299013 -0.5910771 0.5038376
vn 0.739383 -0.6230254 0.2552493
vn 0 0.9708776 0.239576
vn 0 0.9708776 -0.2395757
vn 0 0.9782974 -0.2072054
vn 0 0.9782974 0.2072056
vn -0.9243286 0.2914212 0.2463541
vn -0.9243286 0.2914213 -0.2463543
vn -0.9146048 0.2883557 -0.2834589
vn -0.9146049 0.2883556 0.2834587
vn 0.217859 -0.9395446 0.2641847
vn -0.08001807 -0.9737822 -0.2129443
vn -0.08001819 -0.9737822 0.2129441
vn 0.2178589 -0.9395446 -0.2641847
vn 0.739383 -0.6230254 0.2552493
vn 0.739383 -0.6230254 -0.2552496
vn 0.8921825 -0.4069439 0.1959779
vn 0.8921825 -0.4069436 -0.1959779
vn -0.9146048 0.2883557 -0.2834589
vn -0.9243286 0.2914213 -0.2463543
vn -0.7537628 0.2376458 -0.6126712
vn -0.7537628 0.2376458 -0.6126713
vn -0.08001807 -0.9737822 -0.2129443
vn 0.2178589 -0.9395446 -0.2641847
vn 0.2511127 -0.8169277 -0.5192029
vn -0.06789749 -0.8262824 -0.5591488
vn 0 0.9782974 -0.2072054
vn 0 0.9708776 -0.2395757
vn 0 0.8315301 -0.5554796
vn 0 0.8315302 -0.5554796
vn 0.739383 -0.6230254 -0.2552496
vn 0.8921825 -0.4069436 -0.1959779
vn 0.768813 -0.3506708 -0.5347493
vn 0.6299011 -0.591077 -0.5038378
vn 0.2178589 -0.9395446 -0.2641847
vn 0.739383 -0.6230254 -0.2552496
vn 0.6299011 -0.591077 -0.5038378
vn 0.2511127 -0.8169277 -0.5192029
vn 0.9146047 0.2883556 0.2834596
vn 0.9243286 0.2914213 0.2463543
vn 0.7537624 0.2376455 0.6126719
vn 0.7537624 0.2376455 0.6126719
vn 0.08001822 -0.9737822 0.2129442
vn -0.2178587 -0.9395446 0.2641847
vn -0.2511124 -0.8169279 0.5192028
vn 0.06789778 -0.8262827 0.5591483
vn 0 0.9782973 0.2072063
vn 0 0.9708774 0.2395766
vn 0 0.8315283 0.5554824
vn 0 0.8315283 0.5554824
vn -0.7393826 -0.6230257 0.2552495
vn -0.8921822 -0.4069439 0.1959782
vn -0.7688121 -0.3506715 0.5347499
vn -0.6299006 -0.5910773 0.5038381
vn -0.2178587 -0.9395446 0.2641847
vn -0.7393826 -0.6230257 0.2552495
vn -0.6299006 -0.5910773 0.5038381
vn -0.2511124 -0.8169279 0.5192028
vn 0.9146048 0.2883559 -0.2834591
vn 0.7537628 0.2376463 -0.6126711
vn 0.7537628 0.2376463 -0.6126711
vn 0.9243284 0.2914215 -0.2463542
vn 0.08001812 -0.9737822 -0.2129445
vn 0.06789748 -0.8262824 -0.5591487
vn -0.2511122 -0.8169274 -0.5192035
vn -0.2178587 -0.9395446 -0.264185
vn 0 0.9782975 -0.2072052
vn 0 0.8315305 -0.555479
vn 0 0.8315305 -0.555479
vn 0 0.9708779 -0.2395752
vn -0.7393827 -0.6230253 -0.2552501
vn -0.6299004 -0.5910769 -0.5038389
vn -0.7688121 -0.3506709 -0.5347503
vn -0.8921824 -0.4069438 -0.1959784
vn -0.2178587 -0.9395446 -0.264185
vn -0.2511122 -0.8169274 -0.5192035
vn -0.6299004 -0.5910769 -0.5038389
vn -0.7393827 -0.6230253 -0.2552501
vn 0.9146048 0.2883559 -0.2834591
vn 0.9243284 0.2914215 -0.2463542
vn 0.9243286 0.2914213 0.2463543
vn 0.9146047 0.2883556 0.2834596
vn 0 0.9708779 -0.2395752
vn 0 0.9708774 0.2395766
vn 0 0.9782973 0.2072063
vn 0 0.9782975 -0.2072052
vn -0.7393827 -0.6230253 -0.2552501
vn -0.8921824 -0.4069438 -0.1959784
vn -0.8921822 -0.4069439 0.1959782
vn -0.7393826 -0.6230257 0.2552495
vn -0.2178587 -0.9395446 0.2641847
vn -0.2178587 -0.9395446 -0.264185
vn 0.08001812 -0.9737822 -0.2129445
vn 0.08001822 -0.9737822 0.2129442
g Armor_Color_06_0
f 3/3/3 2/2/2 1/1/1
f 6/6/6 5/5/5 4/4/4
f 9/9/9 8/8/8 7/7/7
f 12/12/12 11/11/11 10/10/10
f 15/15/15 14/14/14 13/13/13
f 18/18/18 17/17/17 16/16/16
f 21/21/21 20/20/20 19/19/19
f 24/24/24 23/23/23 22/22/22
f 27/27/27 26/26/26 25/25/25
f 30/30/30 29/29/29 28/28/28
f 33/33/33 32/32/32 31/31/31
f 36/36/36 35/35/35 34/34/34
f 39/39/39 38/38/38 37/37/37
f 40/40/40 39/39/39 37/37/37
f 43/43/43 42/42/42 41/41/41
f 44/44/44 43/43/43 41/41/41
f 47/47/47 46/46/46 45/45/45
f 48/48/48 47/47/47 45/45/45
f 51/51/51 50/50/50 49/49/49
f 52/52/52 51/51/51 49/49/49
f 55/55/55 54/54/54 53/53/53
f 56/56/56 55/55/55 53/53/53
f 59/59/59 58/58/58 57/57/57
f 60/60/60 59/59/59 57/57/57
f 63/63/63 62/62/62 61/61/61
f 64/64/64 63/63/63 61/61/61
f 67/67/67 66/66/66 65/65/65
f 66/66/66 68/68/68 65/65/65
f 69/69/69 65/65/65 68/68/68
f 70/70/70 69/69/69 68/68/68
f 69/69/69 70/70/70 71/71/71
f 70/70/70 72/72/72 71/71/71
f 75/75/75 74/74/74 73/73/73
f 76/76/76 75/75/75 73/73/73
f 79/79/79 78/78/78 77/77/77
f 80/80/80 79/79/79 77/77/77
f 83/83/83 82/82/82 81/81/81
f 84/84/84 83/83/83 81/81/81
f 87/87/87 86/86/86 85/85/85
f 88/88/88 87/87/87 85/85/85
f 91/91/91 90/90/90 89/89/89
f 92/92/92 91/91/91 89/89/89
f 95/95/95 94/94/94 93/93/93
f 96/96/96 95/95/95 93/93/93
f 99/99/99 98/98/98 97/97/97
f 100/100/100 99/99/99 97/97/97
f 103/103/103 102/102/102 101/101/101
f 104/104/104 103/103/103 101/101/101
f 107/107/107 106/106/106 105/105/105
f 108/108/108 107/107/107 105/105/105
f 111/111/111 110/110/110 109/109/109
f 112/112/112 111/111/111 109/109/109
f 115/115/115 114/114/114 113/113/113
f 116/116/116 115/115/115 113/113/113
f 119/119/119 118/118/118 117/117/117
f 120/120/120 119/119/119 117/117/117
f 123/123/123 122/122/122 121/121/121
f 124/124/124 123/123/123 121/121/121
f 127/127/127 126/126/126 125/125/125
f 128/128/128 127/127/127 125/125/125
f 131/131/131 130/130/130 129/129/129
f 132/132/132 131/131/131 129/129/129
f 135/135/135 134/134/134 133/133/133
f 136/136/136 135/135/135 133/133/133
f 139/139/139 138/138/138 137/137/137
f 140/140/140 139/139/139 137/137/137
f 143/143/143 142/142/142 141/141/141
f 144/144/144 143/143/143 141/141/141
f 144/144/144 141/141/141 145/145/145
f 141/141/141 146/146/146 145/145/145
f 145/145/145 146/146/146 147/147/147
f 148/148/148 145/145/145 147/147/147
