g Armor_Color_16
v -61.16278 307.3764 269.5416
v -73.92337 349.638 211.8389
v -59.953 352.6353 189.5062
v -38.96326 303.6285 250.2077
v -28.19299 241.6964 392.1609
v 14.66177 226.7555 374.012
v 54.16528 187.9023 503.7188
v -20.15756 208.1241 526.1945
v 74.33179 172.8552 645.3879
v -29.86807 192.2034 667.7166
v 67.32346 177.3004 807.7249
v -46.28348 184.4254 794.0012
v -236.8502 -90.97002 143.846
v 20.73932 -159.6868 232.3742
v -148.5266 -107.6168 3.489624
v -139.7243 -119.4189 361.3475
v 88.72412 -137.6114 478.4849
v -79.51062 -107.9879 542.2181
v 67.47742 185.9128 222.8774
v 21.58432 236.7708 113.3748
v 0 7.629395E-06 0
v 124.2772 -11.8422 219.6443
v 153.6278 -4.920631 420.0927
v 116.2698 138.7811 364.3027
v 142.6918 28.40218 565.9883
v 124.2448 132.6473 509.3398
v 113.1115 79.00426 703.2426
v 105.8973 147.3192 655.8892
v 63.7699 150.1888 845.2004
v 67.32346 177.3004 807.7249
v -131.9263 25.68616 256.9687
v -73.92337 349.638 211.8389
v -61.16278 307.3764 269.5416
v -103.3328 27.74143 352.4655
v -236.8502 -90.97002 143.846
v -139.7243 -119.4189 361.3475
v -79.51062 -107.9879 542.2181
v -65.70319 34.69939 487.3709
v -28.19299 241.6964 392.1609
v -54.62766 60.03152 610.1158
v -63.46915 -61.24903 657.1115
v -20.15756 208.1241 526.1945
v -79.51062 -107.9879 542.2181
v 89.7876 -76.67976 634.2603
v 88.72412 -137.6114 478.4849
v -63.46915 -61.24903 657.1115
v -59.47903 11.00829 754.4432
v 70.58008 16.44952 762.4755
v 43.32358 94.79894 815.8217
v -62.81952 101.5256 819.1057
v 124.2772 -11.8422 219.6443
v 0 7.629395E-06 0
v -148.5266 -107.6168 3.489624
v 20.73932 -159.6868 232.3742
v 88.72412 -137.6114 478.4849
v 153.6278 -4.920631 420.0927
v 142.6918 28.40218 565.9883
v 89.7876 -76.67976 634.2603
v 70.58008 16.44952 762.4755
v 113.1115 79.00426 703.2426
v 63.7699 150.1888 845.2004
v 43.32358 94.79894 815.8217
v -59.953 352.6353 189.5062
v 21.58432 236.7708 113.3748
v 67.47742 185.9128 222.8774
v -38.96326 303.6285 250.2077
v 116.2698 138.7811 364.3027
v 14.66177 226.7555 374.012
v 54.16528 187.9023 503.7188
v 124.2448 132.6473 509.3398
v 105.8973 147.3192 655.8892
v 74.33179 172.8552 645.3879
v 67.32346 177.3004 807.7249
v -55.73782 159.6763 837.8338
v -46.28348 184.4254 794.0012
v 67.32346 177.3004 807.7249
v 63.7699 150.1888 845.2004
v -29.86807 192.2034 667.7166
v -46.28348 184.4254 794.0012
v -55.73782 159.6763 837.8338
v -55.245 102.9549 729.2267
v -54.62766 60.03152 610.1158
v -20.15756 208.1241 526.1945
v -63.46915 -61.24903 657.1115
v -59.47903 11.00829 754.4432
v -62.81952 101.5256 819.1057
v -62.81952 101.5256 819.1057
v -55.73782 159.6763 837.8338
v 63.7699 150.1888 845.2004
v 43.32358 94.79894 815.8217
v -586.915 307.3764 269.5416
v -588.1248 352.6353 189.5062
v -574.1544 349.638 211.8389
v -609.1145 303.6285 250.2077
v -619.8848 241.6964 392.1609
v -662.7395 226.7555 374.012
v -702.243 187.9023 503.7188
v -627.9202 208.1241 526.1945
v -722.4095 172.8552 645.3879
v -618.2097 192.2034 667.7166
v -715.4012 177.3004 807.7249
v -601.7943 184.4254 794.0012
v -411.2275 -90.97002 143.846
v -499.5511 -107.6168 3.489624
v -668.8171 -159.6868 232.3742
v -508.3535 -119.4189 361.3475
v -736.8019 -137.6114 478.4849
v -568.5671 -107.9879 542.2181
v -715.5552 185.9128 222.8774
v -648.0778 7.629395E-06 0
v -669.6621 236.7708 113.3748
v -772.3549 -11.8422 219.6443
v -801.7056 -4.920631 420.0927
v -764.3475 138.7811 364.3027
v -790.7695 28.40218 565.9883
v -772.3225 132.6473 509.3398
v -761.1892 79.00426 703.2426
v -753.9751 147.3192 655.8892
v -711.8477 150.1888 845.2004
v -715.4012 177.3004 807.7249
v -516.1514 25.68616 256.9687
v -586.915 307.3764 269.5416
v -574.1544 349.638 211.8389
v -544.7449 27.74143 352.4655
v -411.2275 -90.97002 143.846
v -508.3535 -119.4189 361.3475
v -568.5671 -107.9879 542.2181
v -582.3746 34.69939 487.3709
v -619.8848 241.6964 392.1609
v -593.4501 60.03152 610.1158
v -584.6086 -61.24903 657.1115
v -627.9202 208.1241 526.1945
v -568.5671 -107.9879 542.2181
v -736.8019 -137.6114 478.4849
v -737.8654 -76.67976 634.2603
v -584.6086 -61.24903 657.1115
v -588.5988 11.00829 754.4432
v -718.6578 16.44952 762.4755
v -691.4014 94.79894 815.8217
v -585.2582 101.5256 819.1057
v -772.3549 -11.8422 219.6443
v -499.5511 -107.6168 3.489624
v -648.0778 7.629395E-06 0
v -668.8171 -159.6868 232.3742
v -736.8019 -137.6114 478.4849
v -801.7056 -4.920631 420.0927
v -790.7695 28.40218 565.9883
v -737.8654 -76.67976 634.2603
v -718.6578 16.44952 762.4755
v -761.1892 79.00426 703.2426
v -711.8477 150.1888 845.2004
v -691.4014 94.79894 815.8217
v -588.1248 352.6353 189.5062
v -715.5552 185.9128 222.8774
v -669.6621 236.7708 113.3748
v -609.1145 303.6285 250.2077
v -764.3475 138.7811 364.3027
v -662.7395 226.7555 374.012
v -702.243 187.9023 503.7188
v -772.3225 132.6473 509.3398
v -753.9751 147.3192 655.8892
v -722.4095 172.8552 645.3879
v -715.4012 177.3004 807.7249
v -592.34 159.6763 837.8338
v -711.8477 150.1888 845.2004
v -715.4012 177.3004 807.7249
v -601.7943 184.4254 794.0012
v -618.2097 192.2034 667.7166
v -592.34 159.6763 837.8338
v -601.7943 184.4254 794.0012
v -592.8328 102.9549 729.2267
v -593.4501 60.03152 610.1158
v -627.9202 208.1241 526.1945
v -584.6086 -61.24903 657.1115
v -588.5988 11.00829 754.4432
v -585.2582 101.5256 819.1057
v -585.2582 101.5256 819.1057
v -691.4014 94.79894 815.8217
v -711.8477 150.1888 845.2004
v -592.34 159.6763 837.8338
vt 0.6259987 0.09982432
vt 0.6252512 0.1009892
vt 0.6259282 0.1009013
vt 0.6265302 0.09972425
vt 0.6261853 0.09933028
vt 0.6271039 0.09903246
vt 0.6273381 0.09782031
vt 0.6252602 0.09848548
vt 0.6270573 0.09716341
vt 0.6244459 0.0981231
vt 0.625971 0.09662113
vt 0.6234471 0.09780782
vt 0.6250955 0.1236984
vt 0.6250715 0.1236463
vt 0.6254318 0.1237656
vt 0.6248034 0.1236127
vt 0.6248015 0.1235857
vt 0.6246563 0.1235695
vt 0.6257773 0.09880003
vt 0.6260709 0.09926655
vt 0.6262617 0.09835021
vt 0.6258311 0.09814168
vt 0.6255051 0.09803597
vt 0.625516 0.09861727
vt 0.6251888 0.09801669
vt 0.6251802 0.0984456
vt 0.6248784 0.09802767
vt 0.6249167 0.09836203
vt 0.6245234 0.0981326
vt 0.624635 0.09835286
vt 0.6245668 0.1227153
vt 0.6256039 0.1231013
vt 0.6256777 0.1225773
vt 0.6247839 0.1222548
vt 0.6239908 0.1225686
vt 0.6242846 0.1220527
vt 0.6244255 0.1217925
vt 0.6248929 0.1220213
vt 0.6256218 0.1223125
vt 0.6251509 0.1215879
vt 0.6247744 0.1214079
vt 0.625648 0.1217786
vt 0.6246563 0.1235695
vt 0.6245479 0.1236451
vt 0.6248015 0.1235857
vt 0.6243939 0.1236304
vt 0.624238 0.1237056
vt 0.6243291 0.1237243
vt 0.6241313 0.1238916
vt 0.624111 0.1238684
vt 0.6254318 0.1243966
vt 0.6238201 0.1250838
vt 0.6222823 0.1251508
vt 0.6239173 0.1244423
vt 0.6238169 0.1239116
vt 0.6253197 0.1238767
vt 0.6250417 0.1233719
vt 0.6235131 0.1234132
vt 0.623052 0.122983
vt 0.6240702 0.1228766
vt 0.6226535 0.1223103
vt 0.6220371 0.1225941
vt 0.6258045 0.09959362
vt 0.6260709 0.09926655
vt 0.6257773 0.09880003
vt 0.6254675 0.09922204
vt 0.625516 0.09861727
vt 0.625435 0.09893195
vt 0.6251309 0.09859085
vt 0.6251802 0.0984456
vt 0.6249167 0.09836203
vt 0.6249163 0.09846105
vt 0.624635 0.09835286
vt 0.6252826 0.09795989
vt 0.6263238 0.0980088
vt 0.6268986 0.09958392
vt 0.6258675 0.09965043
vt 0.6247469 0.1236749
vt 0.6244429 0.122547
vt 0.6238148 0.1219669
vt 0.6233586 0.1233251
vt 0.623214 0.1245644
vt 0.6250877 0.1247337
vt 0.6217307 0.1244207
vt 0.6221064 0.1234205
vt 0.6227917 0.1225754
vt 0.6238864 0.1217295
vt 0.6252826 0.1216617
vt 0.6258675 0.1233523
vt 0.6241993 0.123183
vt 0.6259987 0.09982432
vt 0.6259282 0.1009013
vt 0.6252512 0.1009892
vt 0.6265302 0.09972425
vt 0.6261853 0.09933028
vt 0.6271039 0.09903246
vt 0.6273381 0.09782031
vt 0.6252602 0.09848548
vt 0.6270573 0.09716341
vt 0.6244459 0.0981231
vt 0.625971 0.09662113
vt 0.6234471 0.09780782
vt 0.6250955 0.1236984
vt 0.6254318 0.1237656
vt 0.6250715 0.1236463
vt 0.6248034 0.1236127
vt 0.6248015 0.1235857
vt 0.6246563 0.1235695
vt 0.6257773 0.09880003
vt 0.6262617 0.09835021
vt 0.6260709 0.09926655
vt 0.6258311 0.09814168
vt 0.6255051 0.09803597
vt 0.625516 0.09861727
vt 0.6251888 0.09801669
vt 0.6251802 0.0984456
vt 0.6248784 0.09802767
vt 0.6249167 0.09836203
vt 0.6245234 0.0981326
vt 0.624635 0.09835286
vt 0.6245668 0.1227153
vt 0.6256777 0.1225773
vt 0.6256039 0.1231013
vt 0.6247839 0.1222548
vt 0.6239908 0.1225686
vt 0.6242846 0.1220527
vt 0.6244255 0.1217925
vt 0.6248929 0.1220213
vt 0.6256218 0.1223125
vt 0.6251509 0.1215879
vt 0.6247744 0.1214079
vt 0.625648 0.1217786
vt 0.6246563 0.1235695
vt 0.6248015 0.1235857
vt 0.6245479 0.1236451
vt 0.6243939 0.1236304
vt 0.624238 0.1237056
vt 0.6243291 0.1237243
vt 0.6241313 0.1238916
vt 0.624111 0.1238684
vt 0.6254318 0.1243966
vt 0.6222823 0.1251508
vt 0.6238201 0.1250838
vt 0.6239173 0.1244423
vt 0.6238169 0.1239116
vt 0.6253197 0.1238767
vt 0.6250417 0.1233719
vt 0.6235131 0.1234132
vt 0.623052 0.122983
vt 0.6240702 0.1228766
vt 0.6226535 0.1223103
vt 0.6220371 0.1225941
vt 0.6258045 0.09959362
vt 0.6257773 0.09880003
vt 0.6260709 0.09926655
vt 0.6254675 0.09922204
vt 0.625516 0.09861727
vt 0.625435 0.09893195
vt 0.6251309 0.09859085
vt 0.6251802 0.0984456
vt 0.6249167 0.09836203
vt 0.6249163 0.09846105
vt 0.624635 0.09835286
vt 0.6252826 0.09795989
vt 0.6258675 0.09965043
vt 0.6268986 0.09958392
vt 0.6263238 0.0980088
vt 0.6247469 0.1236749
vt 0.6238148 0.1219669
vt 0.6244429 0.122547
vt 0.6233586 0.1233251
vt 0.623214 0.1245644
vt 0.6250877 0.1247337
vt 0.6217307 0.1244207
vt 0.6221064 0.1234205
vt 0.6227917 0.1225754
vt 0.6238864 0.1217295
vt 0.6241993 0.123183
vt 0.6258675 0.1233523
vt 0.6252826 0.1216617
vn 0.4645431 0.8035716 0.372119
vn 0.5099522 0.7454487 0.4292495
vn 0.6928783 0.6884632 0.2143314
vn 0.6375341 0.7365546 0.225915
vn 0.3862444 0.8854153 0.2585633
vn 0.5557375 0.8183699 0.1463779
vn 0.4843427 0.8717945 0.07339284
vn 0.2836773 0.9490098 0.1375051
vn 0.4337696 0.9005032 0.03062439
vn 0.1699104 0.9840626 0.05245277
vn 0.2004302 0.9795162 0.01938697
vn 0.1214589 0.9923676 0.02131652
vn -0.2493839 -0.9680613 -0.02579237
vn -0.203639 -0.978399 0.03558927
vn -0.2493839 -0.9680613 -0.02579237
vn -0.1852122 -0.980877 0.05980636
vn -0.09504107 -0.9696163 0.225414
vn -0.0803453 -0.9624089 0.2594491
vn 0.9180096 0.2046897 -0.3396478
vn 0.8868627 0.1854392 -0.4231866
vn 0.8868627 0.1854392 -0.4231866
vn 0.9290516 0.212441 -0.3028729
vn 0.9708664 0.2237717 -0.08570095
vn 0.9648062 0.2282824 -0.1305229
vn 0.9748506 0.2146129 0.06006251
vn 0.9759949 0.2149329 0.03518075
vn 0.9614392 0.2184251 0.1671078
vn 0.9647142 0.2168035 0.1494077
vn 0.952482 0.2219633 0.2085915
vn 0.952482 0.2219633 0.2085915
vn -0.8948692 0.2780716 0.3491209
vn -0.9260489 0.2189116 0.3074265
vn -0.9229014 0.2306798 0.3082852
vn -0.9127253 0.2568678 0.3177287
vn -0.8703664 0.3175065 0.3763666
vn -0.9051165 0.2710164 0.3275884
vn -0.9712886 0.1657591 0.1706523
vn -0.9596781 0.2120787 0.1845008
vn -0.9340513 0.2572503 0.2477308
vn -0.9882177 0.1520422 0.01757856
vn -0.995372 0.08884808 0.03661294
vn -0.9726437 0.2290061 0.03899335
vn -0.0803453 -0.9624089 0.2594491
vn -0.01646266 -0.8836203 0.4679146
vn -0.09504107 -0.9696163 0.225414
vn -0.01295389 -0.8706635 0.4917087
vn -0.008135221 -0.705337 0.7088254
vn -0.007682153 -0.7100263 0.7041333
vn -0.03167123 -0.48361 0.8747104
vn -0.03223806 -0.479113 0.8771611
vn 0.7435396 -0.592221 -0.3105209
vn 0.6062933 -0.6291158 -0.4864377
vn 0.6062933 -0.6291158 -0.4864377
vn 0.7242847 -0.60011 -0.3395285
vn 0.8894658 -0.456875 0.01075913
vn 0.8798714 -0.4747049 -0.02194403
vn 0.9164119 -0.3369002 0.216073
vn 0.9155716 -0.3240792 0.2381204
vn 0.8555613 -0.2851595 0.4320866
vn 0.8720794 -0.2830134 0.3992255
vn 0.7948519 -0.289421 0.5333347
vn 0.7948519 -0.289421 0.5333347
vn 0.6928783 0.6884632 0.2143314
vn 0.7887108 0.6127603 0.04959907
vn 0.7402461 0.6701682 0.05394787
vn 0.6375341 0.7365546 0.225915
vn 0.6702484 0.7414021 0.03301364
vn 0.5557375 0.8183699 0.1463779
vn 0.4843427 0.8717945 0.07339284
vn 0.6315771 0.7752905 0.005917357
vn 0.6251791 0.78048 0.001491275
vn 0.4337696 0.9005032 0.03062439
vn 0.2004302 0.9795162 0.01938697
vn 0.01125611 0.8422307 0.5389997
vn 0.01125611 0.8422307 0.5389998
vn 0.01125611 0.8422307 0.5389997
vn 0.01125611 0.8422307 0.5389998
vn -0.9758529 0.2052966 -0.07459582
vn -0.9744572 0.1953136 -0.1108412
vn -0.9850442 0.1412488 -0.09867391
vn -0.9890142 0.1304328 -0.06955673
vn -0.9882177 0.1520422 0.01757856
vn -0.9726437 0.2290061 0.03899335
vn -0.995372 0.08884808 0.03661294
vn -0.9974867 0.06109242 -0.03588697
vn -0.9940211 0.07136644 -0.08263598
vn -0.03223806 -0.479113 0.8771611
vn -0.04406469 -0.3806691 0.9236608
vn -0.04406469 -0.3806691 0.9236608
vn -0.03167123 -0.48361 0.8747104
vn -0.4645431 0.8035716 0.372119
vn -0.6928784 0.6884632 0.2143314
vn -0.5099521 0.7454487 0.4292494
vn -0.6375342 0.7365546 0.2259149
vn -0.3862444 0.8854153 0.2585633
vn -0.5557375 0.8183699 0.1463779
vn -0.4843427 0.8717945 0.07339284
vn -0.2836773 0.9490098 0.1375051
vn -0.4337697 0.9005032 0.03062439
vn -0.1699103 0.9840626 0.05245277
vn -0.2004302 0.9795162 0.01938697
vn -0.1214589 0.9923676 0.02131652
vn 0.2493839 -0.9680613 -0.02579237
vn 0.2493839 -0.9680613 -0.02579237
vn 0.203639 -0.978399 0.03558927
vn 0.1852122 -0.980877 0.05980635
vn 0.09504107 -0.9696163 0.225414
vn 0.0803453 -0.9624089 0.2594491
vn -0.9180096 0.2046897 -0.3396477
vn -0.8868627 0.1854392 -0.4231865
vn -0.8868627 0.1854392 -0.4231865
vn -0.9290515 0.212441 -0.3028729
vn -0.9708664 0.2237717 -0.08570096
vn -0.9648062 0.2282824 -0.1305229
vn -0.9748506 0.2146129 0.0600625
vn -0.9759949 0.2149329 0.03518074
vn -0.9614392 0.2184251 0.1671078
vn -0.9647142 0.2168035 0.1494076
vn -0.952482 0.2219633 0.2085915
vn -0.952482 0.2219633 0.2085915
vn 0.8948692 0.2780715 0.3491208
vn 0.9229014 0.2306798 0.3082852
vn 0.9260489 0.2189117 0.3074266
vn 0.9127253 0.2568678 0.3177287
vn 0.8703665 0.3175064 0.3763666
vn 0.9051166 0.2710164 0.3275884
vn 0.9712886 0.1657591 0.1706523
vn 0.9596781 0.2120788 0.1845008
vn 0.9340512 0.2572504 0.2477308
vn 0.9882177 0.1520422 0.01757856
vn 0.995372 0.08884808 0.03661294
vn 0.9726437 0.229006 0.03899335
vn 0.0803453 -0.9624089 0.2594491
vn 0.09504107 -0.9696163 0.225414
vn 0.01646266 -0.8836203 0.4679146
vn 0.0129539 -0.8706635 0.4917087
vn 0.008135214 -0.705337 0.7088254
vn 0.007682147 -0.7100263 0.7041333
vn 0.03167123 -0.48361 0.8747104
vn 0.03223805 -0.479113 0.8771611
vn -0.7435396 -0.592221 -0.3105209
vn -0.6062933 -0.6291158 -0.4864377
vn -0.6062933 -0.6291158 -0.4864377
vn -0.7242847 -0.60011 -0.3395285
vn -0.8894658 -0.456875 0.01075914
vn -0.8798714 -0.4747049 -0.02194402
vn -0.9164118 -0.3369002 0.216073
vn -0.9155716 -0.3240792 0.2381204
vn -0.8555613 -0.2851595 0.4320866
vn -0.8720794 -0.2830134 0.3992255
vn -0.7948519 -0.289421 0.5333347
vn -0.7948519 -0.289421 0.5333347
vn -0.6928784 0.6884632 0.2143314
vn -0.7402461 0.6701681 0.05394787
vn -0.7887108 0.6127603 0.04959907
vn -0.6375342 0.7365546 0.2259149
vn -0.6702484 0.7414021 0.03301364
vn -0.5557375 0.8183699 0.1463779
vn -0.4843427 0.8717945 0.07339284
vn -0.6315771 0.7752905 0.005917357
vn -0.6251791 0.78048 0.001491275
vn -0.4337697 0.9005032 0.03062439
vn -0.2004302 0.9795162 0.01938697
vn -0.01125611 0.8422307 0.5389998
vn -0.01125611 0.8422307 0.5389999
vn -0.01125611 0.8422307 0.5389997
vn -0.01125611 0.8422307 0.5389998
vn 0.9758529 0.2052966 -0.07459582
vn 0.9850442 0.1412488 -0.0986739
vn 0.9744572 0.1953136 -0.1108412
vn 0.9890142 0.1304328 -0.06955673
vn 0.9882177 0.1520422 0.01757856
vn 0.9726437 0.229006 0.03899335
vn 0.995372 0.08884808 0.03661294
vn 0.9974867 0.06109241 -0.03588696
vn 0.9940211 0.07136644 -0.08263597
vn 0.03223805 -0.479113 0.8771611
vn 0.03167123 -0.48361 0.8747104
vn 0.04406469 -0.3806691 0.9236608
vn 0.04406469 -0.3806691 0.9236608
g Armor_Color_16_0
f 3/3/3 2/2/2 1/1/1
f 4/4/4 3/3/3 1/1/1
f 4/4/4 1/1/1 5/5/5
f 6/6/6 4/4/4 5/5/5
f 6/6/6 5/5/5 7/7/7
f 5/5/5 8/8/8 7/7/7
f 9/9/9 7/7/7 8/8/8
f 10/10/10 9/9/9 8/8/8
f 9/9/9 10/10/10 11/11/11
f 10/10/10 12/12/12 11/11/11
f 15/15/15 14/14/14 13/13/13
f 14/14/14 16/16/16 13/13/13
f 14/14/14 17/17/17 16/16/16
f 17/17/17 18/18/18 16/16/16
f 21/21/21 20/20/20 19/19/19
f 22/22/22 21/21/21 19/19/19
f 22/22/22 19/19/19 23/23/23
f 19/19/19 24/24/24 23/23/23
f 23/23/23 24/24/24 25/25/25
f 24/24/24 26/26/26 25/25/25
f 27/27/27 25/25/25 26/26/26
f 28/28/28 27/27/27 26/26/26
f 27/27/27 28/28/28 29/29/29
f 28/28/28 30/30/30 29/29/29
f 33/33/33 32/32/32 31/31/31
f 34/34/34 33/33/33 31/31/31
f 34/34/34 31/31/31 35/35/35
f 36/36/36 34/34/34 35/35/35
f 36/36/36 37/37/37 34/34/34
f 34/34/34 38/38/38 33/33/33
f 37/37/37 38/38/38 34/34/34
f 38/38/38 39/39/39 33/33/33
f 38/38/38 37/37/37 40/40/40
f 38/38/38 40/40/40 39/39/39
f 37/37/37 41/41/41 40/40/40
f 40/40/40 42/42/42 39/39/39
f 45/45/45 44/44/44 43/43/43
f 44/44/44 46/46/46 43/43/43
f 47/47/47 46/46/46 44/44/44
f 48/48/48 47/47/47 44/44/44
f 48/48/48 49/49/49 47/47/47
f 49/49/49 50/50/50 47/47/47
f 53/53/53 52/52/52 51/51/51
f 54/54/54 53/53/53 51/51/51
f 54/54/54 51/51/51 55/55/55
f 51/51/51 56/56/56 55/55/55
f 56/56/56 57/57/57 55/55/55
f 57/57/57 58/58/58 55/55/55
f 59/59/59 58/58/58 57/57/57
f 60/60/60 59/59/59 57/57/57
f 60/60/60 61/61/61 59/59/59
f 61/61/61 62/62/62 59/59/59
f 65/65/65 64/64/64 63/63/63
f 66/66/66 65/65/65 63/63/63
f 67/67/67 65/65/65 66/66/66
f 68/68/68 67/67/67 66/66/66
f 68/68/68 69/69/69 67/67/67
f 69/69/69 70/70/70 67/67/67
f 71/71/71 70/70/70 69/69/69
f 72/72/72 71/71/71 69/69/69
f 72/72/72 73/73/73 71/71/71
f 76/76/76 75/75/75 74/74/74
f 77/77/77 76/76/76 74/74/74
f 80/80/80 79/79/79 78/78/78
f 81/81/81 80/80/80 78/78/78
f 81/81/81 78/78/78 82/82/82
f 78/78/78 83/83/83 82/82/82
f 81/81/81 82/82/82 84/84/84
f 85/85/85 81/81/81 84/84/84
f 81/81/81 85/85/85 80/80/80
f 85/85/85 86/86/86 80/80/80
f 89/89/89 88/88/88 87/87/87
f 90/90/90 89/89/89 87/87/87
f 93/93/93 92/92/92 91/91/91
f 92/92/92 94/94/94 91/91/91
f 91/91/91 94/94/94 95/95/95
f 94/94/94 96/96/96 95/95/95
f 95/95/95 96/96/96 97/97/97
f 98/98/98 95/95/95 97/97/97
f 97/97/97 99/99/99 98/98/98
f 99/99/99 100/100/100 98/98/98
f 100/100/100 99/99/99 101/101/101
f 102/102/102 100/100/100 101/101/101
f 105/105/105 104/104/104 103/103/103
f 106/106/106 105/105/105 103/103/103
f 107/107/107 105/105/105 106/106/106
f 108/108/108 107/107/107 106/106/106
f 111/111/111 110/110/110 109/109/109
f 110/110/110 112/112/112 109/109/109
f 109/109/109 112/112/112 113/113/113
f 114/114/114 109/109/109 113/113/113
f 114/114/114 113/113/113 115/115/115
f 116/116/116 114/114/114 115/115/115
f 115/115/115 117/117/117 116/116/116
f 117/117/117 118/118/118 116/116/116
f 118/118/118 117/117/117 119/119/119
f 120/120/120 118/118/118 119/119/119
f 123/123/123 122/122/122 121/121/121
f 122/122/122 124/124/124 121/121/121
f 121/121/121 124/124/124 125/125/125
f 124/124/124 126/126/126 125/125/125
f 127/127/127 126/126/126 124/124/124
f 128/128/128 124/124/124 122/122/122
f 128/128/128 127/127/127 124/124/124
f 129/129/129 128/128/128 122/122/122
f 127/127/127 128/128/128 130/130/130
f 130/130/130 128/128/128 129/129/129
f 131/131/131 127/127/127 130/130/130
f 132/132/132 130/130/130 129/129/129
f 135/135/135 134/134/134 133/133/133
f 136/136/136 135/135/135 133/133/133
f 136/136/136 137/137/137 135/135/135
f 137/137/137 138/138/138 135/135/135
f 139/139/139 138/138/138 137/137/137
f 140/140/140 139/139/139 137/137/137
f 143/143/143 142/142/142 141/141/141
f 142/142/142 144/144/144 141/141/141
f 141/141/141 144/144/144 145/145/145
f 146/146/146 141/141/141 145/145/145
f 147/147/147 146/146/146 145/145/145
f 148/148/148 147/147/147 145/145/145
f 148/148/148 149/149/149 147/147/147
f 149/149/149 150/150/150 147/147/147
f 151/151/151 150/150/150 149/149/149
f 152/152/152 151/151/151 149/149/149
f 155/155/155 154/154/154 153/153/153
f 154/154/154 156/156/156 153/153/153
f 154/154/154 157/157/157 156/156/156
f 157/157/157 158/158/158 156/156/156
f 159/159/159 158/158/158 157/157/157
f 160/160/160 159/159/159 157/157/157
f 160/160/160 161/161/161 159/159/159
f 161/161/161 162/162/162 159/159/159
f 163/163/163 162/162/162 161/161/161
f 166/166/166 165/165/165 164/164/164
f 167/167/167 166/166/166 164/164/164
f 170/170/170 169/169/169 168/168/168
f 169/169/169 171/171/171 168/168/168
f 168/168/168 171/171/171 172/172/172
f 173/173/173 168/168/168 172/172/172
f 172/172/172 171/171/171 174/174/174
f 171/171/171 175/175/175 174/174/174
f 175/175/175 171/171/171 169/169/169
f 176/176/176 175/175/175 169/169/169
f 179/179/179 178/178/178 177/177/177
f 180/180/180 179/179/179 177/177/177
