g BarBaseMDL
v 0.3467091 0.6005177 -0.2311394
v 0 1.734659E-07 -0.2311395
v 0.6005177 0.3467091 -0.2311394
v 0 0.6934182 -0.2311394
v 0 1.734659E-07 -0.2311395
v 0.3467091 0.6005177 -0.2311394
v -0.3467091 0.6005177 -0.2311394
v 0 1.734659E-07 -0.2311395
v 0 0.6934182 -0.2311394
v -0.6005177 0.3467091 -0.2311394
v 0 1.734659E-07 -0.2311395
v -0.3467091 0.6005177 -0.2311394
v -0.6934181 -6.495266E-08 -0.2311394
v 0 1.734659E-07 -0.2311395
v -0.6005177 0.3467091 -0.2311394
v -0.6005177 -0.3467091 -0.2311394
v 0 1.734659E-07 -0.2311395
v -0.6934181 -6.495266E-08 -0.2311394
v -0.3467091 -0.6005177 -0.2311394
v 0 1.734659E-07 -0.2311395
v -0.6005177 -0.3467091 -0.2311394
v 0 -0.6934181 -0.2311394
v 0 1.734659E-07 -0.2311395
v -0.3467091 -0.6005177 -0.2311394
v 0.3467091 -0.6005177 -0.2311394
v 0 1.734659E-07 -0.2311395
v 0 -0.6934181 -0.2311394
v 0.6005177 -0.3467091 -0.2311394
v 0 1.734659E-07 -0.2311395
v 0.3467091 -0.6005177 -0.2311394
v 0.6934181 -6.495266E-08 -0.2311394
v 0 1.734659E-07 -0.2311395
v 0.6005177 -0.3467091 -0.2311394
v 0.6005177 0.3467091 -0.2311394
v 0 1.734659E-07 -0.2311395
v 0.6934181 -6.495266E-08 -0.2311394
v 0.6005177 0.3467091 -0.03182399
v 0.6934181 -5.348016E-09 -0.03182399
v 0.663991 -5.348016E-09 0
v 0.575033 0.3319954 0
v 0.575033 0.3319954 0
v 0.3319955 0.5750331 0
v 0.3467091 0.6005178 -0.03182399
v 0.6005177 0.3467091 -0.03182399
v 0.3319955 0.5750331 0
v 0 0.6639909 0
v 0 0.6934182 -0.03182399
v 0.3467091 0.6005178 -0.03182399
v 0 0.6639909 0
v -0.3319955 0.5750331 0
v -0.3467091 0.6005178 -0.03182399
v 0 0.6934182 -0.03182399
v -0.3319955 0.5750331 0
v -0.575033 0.3319954 0
v -0.6005177 0.3467091 -0.03182399
v -0.3467091 0.6005178 -0.03182399
v -0.575033 0.3319954 0
v -0.663991 -5.348016E-09 0
v -0.6934181 -5.348016E-09 -0.03182399
v -0.6005177 0.3467091 -0.03182399
v -0.663991 -5.348016E-09 0
v -0.575033 -0.3319955 0
v -0.6005177 -0.3467091 -0.03182399
v -0.6934181 -5.348016E-09 -0.03182399
v -0.575033 -0.3319955 0
v -0.3319955 -0.575033 0
v -0.3467091 -0.6005177 -0.03182399
v -0.6005177 -0.3467091 -0.03182399
v -0.3319955 -0.575033 0
v 0 -0.663991 0
v 0 -0.6934181 -0.03182399
v -0.3467091 -0.6005177 -0.03182399
v 0 -0.663991 0
v 0.3319955 -0.575033 0
v 0.3467091 -0.6005177 -0.03182399
v 0 -0.6934181 -0.03182399
v 0.3319955 -0.575033 0
v 0.575033 -0.3319955 0
v 0.6005177 -0.3467091 -0.03182399
v 0.3467091 -0.6005177 -0.03182399
v 0.575033 -0.3319955 0
v 0.663991 -5.348016E-09 0
v 0.6934181 -5.348016E-09 -0.03182399
v 0.6005177 -0.3467091 -0.03182399
v 0.6005177 0.3467091 -0.2311394
v 0.6005177 0.3467091 -0.03182399
v 0.3467091 0.6005178 -0.03182399
v 0.3467091 0.6005177 -0.2311394
v 0 0.6934182 -0.03182399
v 0 0.6934182 -0.2311394
v -0.3467091 0.6005178 -0.03182399
v -0.3467091 0.6005177 -0.2311394
v -0.6005177 0.3467091 -0.03182399
v -0.6005177 0.3467091 -0.2311394
v -0.6934181 -5.348016E-09 -0.03182399
v -0.6934181 -6.495266E-08 -0.2311394
v -0.6005177 -0.3467091 -0.03182399
v -0.6005177 -0.3467091 -0.2311394
v -0.3467091 -0.6005177 -0.03182399
v -0.3467091 -0.6005177 -0.2311394
v 0 -0.6934181 -0.03182399
v 0 -0.6934181 -0.2311394
v 0.3467091 -0.6005177 -0.03182399
v 0.3467091 -0.6005177 -0.2311394
v 0.6005177 -0.3467091 -0.03182399
v 0.6005177 -0.3467091 -0.2311394
v 0.6934181 -5.348016E-09 -0.03182399
v 0.6934181 -6.495266E-08 -0.2311394
v 0.6005177 0.3467091 -0.03182399
v 0.6005177 0.3467091 -0.2311394
v 0.575033 0.3319954 0
v 0 -5.348016E-09 0
v 0.3319955 0.5750331 0
v 0.663991 -5.348016E-09 0
v 0 0.6639909 0
v 0.575033 -0.3319955 0
v -0.3319955 0.5750331 0
v 0.3319955 -0.575033 0
v -0.575033 0.3319954 0
v 0 -0.663991 0
v -0.663991 -5.348016E-09 0
v -0.3319955 -0.575033 0
v -0.575033 -0.3319955 0
vt 0.2287113 0.3750408
vt 0.2327896 0.3831974
vt 0.2368679 0.3750408
vt 0.2287113 0.3750408
vt 0.2327896 0.3831974
vt 0.2368679 0.3750408
vt 0.2287113 0.3750408
vt 0.2327896 0.3831974
vt 0.2368679 0.3750408
vt 0.2287113 0.3750408
vt 0.2327896 0.3831974
vt 0.2368679 0.3750408
vt 0.2287113 0.3750408
vt 0.2327896 0.3831974
vt 0.2368679 0.3750408
vt 0.2287113 0.3750408
vt 0.2327896 0.3831974
vt 0.2368679 0.3750408
vt 0.2287113 0.3750408
vt 0.2327896 0.3831974
vt 0.2368679 0.3750408
vt 0.2287113 0.3750408
vt 0.2327896 0.3831974
vt 0.2368679 0.3750408
vt 0.2287113 0.3750408
vt 0.2327896 0.3831974
vt 0.2368679 0.3750408
vt 0.2287113 0.3750408
vt 0.2327896 0.3831974
vt 0.2368679 0.3750408
vt 0.2287113 0.3750408
vt 0.2327896 0.3831974
vt 0.2368679 0.3750408
vt 0.2287113 0.3750408
vt 0.2327896 0.3831974
vt 0.2368679 0.3750408
vt 0.2201304 0.6513427
vt 0.2182952 0.6513427
vt 0.2183901 0.6612769
vt 0.2200354 0.6612769
vt 0.1982022 0.6612769
vt 0.1998475 0.6612769
vt 0.1999425 0.6513427
vt 0.1981072 0.6513427
vt 0.2000375 0.6612769
vt 0.2016828 0.6612769
vt 0.2017778 0.6513427
vt 0.1999425 0.6513427
vt 0.2018728 0.6612769
vt 0.2035181 0.6612769
vt 0.203613 0.6513427
vt 0.2017778 0.6513427
vt 0.203708 0.6612769
vt 0.2053533 0.6612769
vt 0.2054483 0.6513427
vt 0.203613 0.6513427
vt 0.2055433 0.6612769
vt 0.2071886 0.6612769
vt 0.2072836 0.6513427
vt 0.2054483 0.6513427
vt 0.2073786 0.6612769
vt 0.2090238 0.6612769
vt 0.2091188 0.6513427
vt 0.2072836 0.6513427
vt 0.2092138 0.6612769
vt 0.2108591 0.6612769
vt 0.2109541 0.6513427
vt 0.2091188 0.6513427
vt 0.2110491 0.6612769
vt 0.2126944 0.6612769
vt 0.2127894 0.6513427
vt 0.2109541 0.6513427
vt 0.2128844 0.6612769
vt 0.2145296 0.6612769
vt 0.2146246 0.6513427
vt 0.2127894 0.6513427
vt 0.2147196 0.6612769
vt 0.2163649 0.6612769
vt 0.2164599 0.6513427
vt 0.2146246 0.6513427
vt 0.2165548 0.6612769
vt 0.2182002 0.6612769
vt 0.2182952 0.6513427
vt 0.2164599 0.6513427
vt 0.3539873 0.3502046
vt 0.3539873 0.3733878
vt 0.3558226 0.3733878
vt 0.3558226 0.3502046
vt 0.3576579 0.3733878
vt 0.3576579 0.3502046
vt 0.3594932 0.3733878
vt 0.3594932 0.3502046
vt 0.3613284 0.3733878
vt 0.3613284 0.3502046
vt 0.3631637 0.3733878
vt 0.3631637 0.3502046
vt 0.3649989 0.3733878
vt 0.3649989 0.3502046
vt 0.3668342 0.3733878
vt 0.3668342 0.3502046
vt 0.3686695 0.3733878
vt 0.3686695 0.3502046
vt 0.3705047 0.3733878
vt 0.3705047 0.3502046
vt 0.37234 0.3733878
vt 0.37234 0.3502046
vt 0.3741753 0.3733878
vt 0.3741753 0.3502046
vt 0.3760105 0.3733878
vt 0.3760105 0.3502046
vt 0.09021815 0.5791769
vt 0.07953172 0.5791769
vt 0.08570153 0.5791769
vt 0.09187129 0.5791769
vt 0.07953172 0.5791769
vt 0.09021814 0.5791769
vt 0.07336193 0.5791769
vt 0.08570153 0.5791769
vt 0.06884533 0.5791769
vt 0.07953172 0.5791769
vt 0.06719213 0.5791769
vt 0.07336193 0.5791769
vt 0.06884533 0.5791769
vn 0 0 -1
vn 0 0 -1
vn 0 0 -1
vn 0 0 -1
vn 0 0 -1
vn 0 0 -1
vn 0 0 -1
vn 0 0 -1
vn 0 0 -1
vn 0 0 -1
vn 0 0 -1
vn 0 0 -1
vn 0 0 -1
vn 0 0 -1
vn 0 0 -1
vn 0 0 -1
vn 0 0 -1
vn 0 0 -1
vn 0 0 -1
vn 0 0 -1
vn 0 0 -1
vn 0 0 -1
vn 0 0 -1
vn 0 0 -1
vn 0 0 -1
vn 0 0 -1
vn 0 0 -1
vn 0 0 -1
vn 0 0 -1
vn 0 0 -1
vn 0 0 -1
vn 0 0 -1
vn 0 0 -1
vn 0 0 -1
vn 0 0 -1
vn 0 0 -1
vn 0.6358485 0.3671074 0.6789175
vn 0.734215 0 0.678917
vn 0.734215 0 0.6789171
vn 0.6358486 0.3671071 0.6789175
vn 0.6358486 0.3671071 0.6789175
vn 0.3671072 0.6358486 0.6789174
vn 0.3671074 0.6358485 0.6789174
vn 0.6358485 0.3671074 0.6789175
vn 0.3671072 0.6358486 0.6789174
vn 0 0.7342151 0.6789168
vn 0 0.7342151 0.6789168
vn 0.3671074 0.6358485 0.6789174
vn 0 0.7342151 0.6789168
vn -0.3671072 0.6358486 0.6789173
vn -0.3671074 0.6358485 0.6789174
vn 0 0.7342151 0.6789168
vn -0.3671072 0.6358486 0.6789173
vn -0.6358485 0.3671071 0.6789176
vn -0.6358483 0.3671073 0.6789176
vn -0.3671074 0.6358485 0.6789174
vn -0.6358485 0.3671071 0.6789176
vn -0.7342148 0 0.6789172
vn -0.7342148 0 0.6789172
vn -0.6358483 0.3671073 0.6789176
vn -0.7342148 0 0.6789172
vn -0.6358493 -0.367107 0.6789169
vn -0.6358492 -0.367107 0.6789169
vn -0.7342148 0 0.6789172
vn -0.6358493 -0.367107 0.6789169
vn -0.3671079 -0.6358483 0.6789173
vn -0.3671079 -0.6358483 0.6789173
vn -0.6358492 -0.367107 0.6789169
vn -0.3671079 -0.6358483 0.6789173
vn 0 -0.7342145 0.6789176
vn 0 -0.7342145 0.6789176
vn -0.3671079 -0.6358483 0.6789173
vn 0 -0.7342145 0.6789176
vn 0.3671079 -0.6358483 0.6789173
vn 0.3671078 -0.6358483 0.6789173
vn 0 -0.7342145 0.6789176
vn 0.3671079 -0.6358483 0.6789173
vn 0.6358492 -0.367107 0.6789169
vn 0.6358492 -0.367107 0.6789169
vn 0.3671078 -0.6358483 0.6789173
vn 0.6358492 -0.367107 0.6789169
vn 0.734215 0 0.6789171
vn 0.734215 0 0.678917
vn 0.6358492 -0.367107 0.6789169
vn 0.8660253 0.5000001 0
vn 0.8660253 0.5000001 0
vn 0.5000001 0.8660253 0
vn 0.5000002 0.8660253 0
vn 0 1 0
vn 0 1 0
vn -0.5000001 0.8660253 0
vn -0.5000002 0.8660253 0
vn -0.8660254 0.5 0
vn -0.8660254 0.5 0
vn -1 0 0
vn -1 0 0
vn -0.8660253 -0.5000002 0
vn -0.8660253 -0.5000002 0
vn -0.5 -0.8660254 0
vn -0.5 -0.8660254 0
vn 0 -1 0
vn 0 -1 0
vn 0.5 -0.8660254 0
vn 0.5 -0.8660254 0
vn 0.8660253 -0.5000002 0
vn 0.8660253 -0.5000002 0
vn 1 0 0
vn 1 0 0
vn 0.8660253 0.5000001 0
vn 0.8660253 0.5000001 0
vn 0 0 1
vn 0 0 1
vn 0 0 1
vn 0 0 1
vn 0 0 1
vn 0 0 1
vn 0 0 1
vn 0 0 1
vn 0 0 1
vn 0 0 1
vn 0 0 1
vn 0 0 1
vn 0 0 1
g BarBaseMDL_0
f 3/3/3 2/2/2 1/1/1
f 6/6/6 5/5/5 4/4/4
f 9/9/9 8/8/8 7/7/7
f 12/12/12 11/11/11 10/10/10
f 15/15/15 14/14/14 13/13/13
f 18/18/18 17/17/17 16/16/16
f 21/21/21 20/20/20 19/19/19
f 24/24/24 23/23/23 22/22/22
f 27/27/27 26/26/26 25/25/25
f 30/30/30 29/29/29 28/28/28
f 33/33/33 32/32/32 31/31/31
f 36/36/36 35/35/35 34/34/34
f 39/39/39 38/38/38 37/37/37
f 40/40/40 39/39/39 37/37/37
f 43/43/43 42/42/42 41/41/41
f 44/44/44 43/43/43 41/41/41
f 47/47/47 46/46/46 45/45/45
f 48/48/48 47/47/47 45/45/45
f 51/51/51 50/50/50 49/49/49
f 52/52/52 51/51/51 49/49/49
f 55/55/55 54/54/54 53/53/53
f 56/56/56 55/55/55 53/53/53
f 59/59/59 58/58/58 57/57/57
f 60/60/60 59/59/59 57/57/57
f 63/63/63 62/62/62 61/61/61
f 64/64/64 63/63/63 61/61/61
f 67/67/67 66/66/66 65/65/65
f 68/68/68 67/67/67 65/65/65
f 71/71/71 70/70/70 69/69/69
f 72/72/72 71/71/71 69/69/69
f 75/75/75 74/74/74 73/73/73
f 76/76/76 75/75/75 73/73/73
f 79/79/79 78/78/78 77/77/77
f 80/80/80 79/79/79 77/77/77
f 83/83/83 82/82/82 81/81/81
f 84/84/84 83/83/83 81/81/81
f 87/87/87 86/86/86 85/85/85
f 88/88/88 87/87/87 85/85/85
f 89/89/89 87/87/87 88/88/88
f 90/90/90 89/89/89 88/88/88
f 91/91/91 89/89/89 90/90/90
f 92/92/92 91/91/91 90/90/90
f 93/93/93 91/91/91 92/92/92
f 94/94/94 93/93/93 92/92/92
f 95/95/95 93/93/93 94/94/94
f 96/96/96 95/95/95 94/94/94
f 97/97/97 95/95/95 96/96/96
f 98/98/98 97/97/97 96/96/96
f 99/99/99 97/97/97 98/98/98
f 100/100/100 99/99/99 98/98/98
f 101/101/101 99/99/99 100/100/100
f 102/102/102 101/101/101 100/100/100
f 103/103/103 101/101/101 102/102/102
f 104/104/104 103/103/103 102/102/102
f 105/105/105 103/103/103 104/104/104
f 106/106/106 105/105/105 104/104/104
f 107/107/107 105/105/105 106/106/106
f 108/108/108 107/107/107 106/106/106
f 109/109/109 107/107/107 108/108/108
f 110/110/110 109/109/109 108/108/108
f 113/113/113 112/112/112 111/111/111
f 111/111/111 112/112/112 114/114/114
f 115/115/115 112/112/112 113/113/113
f 114/114/114 112/112/112 116/116/116
f 117/117/117 112/112/112 115/115/115
f 116/116/116 112/112/112 118/118/118
f 119/119/119 112/112/112 117/117/117
f 118/118/118 112/112/112 120/120/120
f 121/121/121 112/112/112 119/119/119
f 120/120/120 112/112/112 122/122/122
f 123/123/123 112/112/112 121/121/121
f 122/122/122 112/112/112 123/123/123
