g Boss_Color_133
v 15.57037 4.851401E-05 -2.787137
v 9.636212 1.268662 1.125407
v 15.03981 4.029957 -2.364403
v 13.48432 7.785234 -3.342846
v 7.710876 5.916809 -0.4680794
v 11.00989 11.00995 -1.294473
v 7.785154 13.48437 -1.59355
v 3.719415 8.979546 0.6779813
v 4.029867 15.03985 -3.992949
v -4.154366E-05 15.57039 -5.085411
v -1.268662 9.636232 -3.850026
v -4.029949 15.03983 -0.1070139
v -7.785225 13.48434 -1.527384
v -5.916806 7.710895 0.1037927
v -11.00995 11.00991 -3.377531
v -13.48436 7.785175 -1.728214
v -8.979547 3.71944 -2.087484
v -15.03984 4.029889 0.4906087
v -15.57038 -8.635705E-06 -5.978258
v -9.636229 -1.268632 -5.473991
v -15.03983 -4.029929 0.1431131
v -13.48434 -7.785202 0.1010813
v -7.710897 -5.916776 -4.825161
v -11.00991 -11.00992 -1.964906
v -7.78517 -13.48434 -1.797059
v -3.719435 -8.979523 -3.529092
v -4.029889 -15.03983 1.035666
v 1.914431E-05 -15.57036 -1.060699
v 1.268639 -9.636209 -1.602089
v 4.029924 -15.03981 -0.07758766
v 7.785203 -13.48431 -3.411155
v 5.916784 -7.710877 -0.8465492
v 11.00993 -11.00988 -3.472295
v 13.48435 -7.785156 -1.447273
v 8.979527 -3.719416 -2.574333
v 15.03983 -4.029875 -1.390242
v 15.03981 4.029957 -2.364403
v 15.57036 8.587942E-05 -16.6724
v 15.57037 4.851401E-05 -2.787137
v 15.0398 4.029995 -16.67239
v 13.48432 7.785234 -3.342846
v 13.48431 7.78527 -16.67238
v 11.00989 11.00995 -1.294473
v 11.00988 11.00999 -16.67237
v 13.48431 7.78527 -16.67238
v 13.48432 7.785234 -3.342846
v 7.785154 13.48437 -1.59355
v 7.78515 13.48441 -16.67236
v 11.00988 11.00999 -16.67237
v 11.00989 11.00995 -1.294473
v 4.029867 15.03985 -3.992949
v 7.78515 13.48441 -16.67236
v 7.785154 13.48437 -1.59355
v 4.029863 15.03989 -16.67236
v -4.154366E-05 15.57039 -5.085411
v -4.558414E-05 15.57042 -16.67236
v -4.029949 15.03983 -0.1070139
v -4.558414E-05 15.57042 -16.67236
v -4.154366E-05 15.57039 -5.085411
v -4.029953 15.03987 -16.67235
v -7.785225 13.48434 -1.527384
v -7.785227 13.48438 -16.67236
v -11.00995 11.00991 -3.377531
v -11.00995 11.00995 -16.67237
v -13.48436 7.785175 -1.728214
v -13.48437 7.785213 -16.67237
v -15.03984 4.029889 0.4906087
v -13.48437 7.785213 -16.67237
v -13.48436 7.785175 -1.728214
v -15.03985 4.029932 -16.67238
v -15.57038 -8.635705E-06 -5.978258
v -15.57039 2.368925E-05 -16.6724
v -15.03983 -4.029929 0.1431131
v -15.03983 -4.029884 -16.67241
v -15.57039 2.368925E-05 -16.6724
v -15.57038 -8.635705E-06 -5.978258
v -13.48434 -7.785202 0.1010813
v -15.03983 -4.029884 -16.67241
v -15.03983 -4.029929 0.1431131
v -13.48434 -7.78516 -16.67242
v -11.00991 -11.00992 -1.964906
v -11.00991 -11.00988 -16.67243
v -7.78517 -13.48434 -1.797059
v -7.785176 -13.4843 -16.67244
v -4.029889 -15.03983 1.035666
v -4.029892 -15.03978 -16.67244
v 1.914431E-05 -15.57036 -1.060699
v -4.029892 -15.03978 -16.67244
v -4.029889 -15.03983 1.035666
v 1.665725E-05 -15.57032 -16.67245
v 4.029924 -15.03981 -0.07758766
v 4.029921 -15.03977 -16.67244
v 7.785203 -13.48431 -3.411155
v 7.785197 -13.48427 -16.67244
v 11.00993 -11.00988 -3.472295
v 7.785197 -13.48427 -16.67244
v 7.785203 -13.48431 -3.411155
v 11.00993 -11.00985 -16.67243
v 13.48435 -7.785156 -1.447273
v 13.48434 -7.785116 -16.67242
v 15.03983 -4.029875 -1.390242
v 13.48434 -7.785116 -16.67242
v 13.48435 -7.785156 -1.447273
v 15.03982 -4.029837 -16.67241
v 15.57037 4.851401E-05 -2.787137
v 15.57036 8.587942E-05 -16.6724
v 15.03981 4.029957 -2.364403
v 9.636212 1.268662 1.125407
v 7.710876 5.916809 -0.4680794
v 13.48432 7.785234 -3.342846
v 11.00989 11.00995 -1.294473
v 7.710876 5.916809 -0.4680794
v 3.719415 8.979546 0.6779813
v 7.785154 13.48437 -1.59355
v 4.029867 15.03985 -3.992949
v 3.719415 8.979546 0.6779813
v -1.268662 9.636232 -3.850026
v -4.154366E-05 15.57039 -5.085411
v -4.029949 15.03983 -0.1070139
v -1.268662 9.636232 -3.850026
v -5.916806 7.710895 0.1037927
v -7.785225 13.48434 -1.527384
v -11.00995 11.00991 -3.377531
v -5.916806 7.710895 0.1037927
v -8.979547 3.71944 -2.087484
v -13.48436 7.785175 -1.728214
v -15.03984 4.029889 0.4906087
v -8.979547 3.71944 -2.087484
v -9.636229 -1.268632 -5.473991
v -15.57038 -8.635705E-06 -5.978258
v -15.03983 -4.029929 0.1431131
v -9.636229 -1.268632 -5.473991
v -7.710897 -5.916776 -4.825161
v -13.48434 -7.785202 0.1010813
v -11.00991 -11.00992 -1.964906
v -7.710897 -5.916776 -4.825161
v -3.719435 -8.979523 -3.529092
v -7.78517 -13.48434 -1.797059
v -4.029889 -15.03983 1.035666
v -3.719435 -8.979523 -3.529092
v 1.268639 -9.636209 -1.602089
v 1.914431E-05 -15.57036 -1.060699
v 4.029924 -15.03981 -0.07758766
v 1.268639 -9.636209 -1.602089
v 5.916784 -7.710877 -0.8465492
v 7.785203 -13.48431 -3.411155
v 11.00993 -11.00988 -3.472295
v 5.916784 -7.710877 -0.8465492
v 8.979527 -3.719416 -2.574333
v 13.48435 -7.785156 -1.447273
v 15.03983 -4.029875 -1.390242
v 8.979527 -3.719416 -2.574333
v 9.636212 1.268662 1.125407
v 15.57037 4.851401E-05 -2.787137
v 9.636212 1.268662 1.125407
v 11.24357 2.172103 -20.14155
v 9.31823 6.820247 -20.14154
v 7.710876 5.916809 -0.4680794
v 7.710876 5.916809 -0.4680794
v 9.31823 6.820247 -20.14154
v 5.326769 9.882987 -20.14154
v 3.719415 8.979546 0.6779813
v 3.719415 8.979546 0.6779813
v 5.326769 9.882987 -20.14154
v 0.3386921 10.53967 -20.14154
v -1.268662 9.636232 -3.850026
v -1.268662 9.636232 -3.850026
v 0.3386921 10.53967 -20.14154
v -4.309452 8.614336 -20.14154
v -5.916806 7.710895 0.1037927
v -5.916806 7.710895 0.1037927
v -4.309452 8.614336 -20.14154
v -7.372191 4.622876 -20.14155
v -8.979547 3.71944 -2.087484
v -8.979547 3.71944 -2.087484
v -7.372191 4.622876 -20.14155
v -8.028875 -0.365201 -20.14155
v -9.636229 -1.268632 -5.473991
v -9.636229 -1.268632 -5.473991
v -8.028875 -0.365201 -20.14155
v -6.103544 -5.013343 -20.14156
v -7.710897 -5.916776 -4.825161
v -7.710897 -5.916776 -4.825161
v -6.103544 -5.013343 -20.14156
v -2.112081 -8.076087 -20.14157
v -3.719435 -8.979523 -3.529092
v -3.719435 -8.979523 -3.529092
v -2.112081 -8.076087 -20.14157
v 2.875994 -8.732773 -20.14157
v 1.268639 -9.636209 -1.602089
v 1.268639 -9.636209 -1.602089
v 2.875994 -8.732773 -20.14157
v 7.524139 -6.807438 -20.14156
v 5.916784 -7.710877 -0.8465492
v 5.916784 -7.710877 -0.8465492
v 7.524139 -6.807438 -20.14156
v 10.58688 -2.81598 -20.14156
v 8.979527 -3.719416 -2.574333
v 8.979527 -3.719416 -2.574333
v 10.58688 -2.81598 -20.14156
v 11.24357 2.172103 -20.14155
v 9.636212 1.268662 1.125407
vt 0.01139951 0.03680475
vt 0.01137737 0.03680475
vt 0.01135522 0.03680475
vt 0.01051228 0.03641671
vt 0.01019901 0.03616686
vt 0.009885745 0.035917
vt 0.01074754 0.03680475
vt 0.01059015 0.03680475
vt 0.01043277 0.03680475
vt 0.01009529 0.03680475
vt 0.009926552 0.03680475
vt 0.009757819 0.03680475
vt 0.009443315 0.03680475
vt 0.009308213 0.03680475
vt 0.009173112 0.03680475
vt 0.008965747 0.03680475
vt 0.008900555 0.03680475
vt 0.008835362 0.03680475
vt 0.008791061 0.03680475
vt 0.008813212 0.03680475
vt 0.008835362 0.03680475
vt 0.008965747 0.03680475
vt 0.00906943 0.03680475
vt 0.009173112 0.03680475
vt 0.009443315 0.03680475
vt 0.009600567 0.03680475
vt 0.009757819 0.03680475
vt 0.01009529 0.03680475
vt 0.01026403 0.03680475
vt 0.01043277 0.03680475
vt 0.01074754 0.03680475
vt 0.01088251 0.03680475
vt 0.01101747 0.03680475
vt 0.01122482 0.03680475
vt 0.01129002 0.03680475
vt 0.01135522 0.03680475
vt 0.01135522 0.01185223
vt 0.01139951 0.01057645
vt 0.01139951 0.01185223
vt 0.01135522 0.01057645
vt 0.01122482 0.01185223
vt 0.01122482 0.01057645
vt 0.009885745 0.01096448
vt 0.009885745 0.01096448
vt 0.01051228 0.01146419
vt 0.01051228 0.01146419
vt 0.01074754 0.01185223
vt 0.01074754 0.01057645
vt 0.01101747 0.01057645
vt 0.01101747 0.01185223
vt 0.01043277 0.01185223
vt 0.01074754 0.01057645
vt 0.01074754 0.01185223
vt 0.01043277 0.01057645
vt 0.01009529 0.01185223
vt 0.01009529 0.01057645
vt 0.009757819 0.01185223
vt 0.01009529 0.01057645
vt 0.01009529 0.01185223
vt 0.009757819 0.01057645
vt 0.009443315 0.01185223
vt 0.009443315 0.01057645
vt 0.009173112 0.01185223
vt 0.009173112 0.01057645
vt 0.008965747 0.01185223
vt 0.008965747 0.01057645
vt 0.008835362 0.01185223
vt 0.008965747 0.01057645
vt 0.008965747 0.01185223
vt 0.008835362 0.01057645
vt 0.008791061 0.01185223
vt 0.008791061 0.01057645
vt 0.008835362 0.01185223
vt 0.008835362 0.01057645
vt 0.008791061 0.01057645
vt 0.008791061 0.01185223
vt 0.008965747 0.01185223
vt 0.008835362 0.01057645
vt 0.008835362 0.01185223
vt 0.008965747 0.01057645
vt 0.009173112 0.01185223
vt 0.009173112 0.01057645
vt 0.009443315 0.01185223
vt 0.009443315 0.01057645
vt 0.009757819 0.01185223
vt 0.009757819 0.01057645
vt 0.01009529 0.01185223
vt 0.009757819 0.01057645
vt 0.009757819 0.01185223
vt 0.01009529 0.01057645
vt 0.01043277 0.01185223
vt 0.01043277 0.01057645
vt 0.01074754 0.01185223
vt 0.01074754 0.01057645
vt 0.01101747 0.01185223
vt 0.01074754 0.01057645
vt 0.01074754 0.01185223
vt 0.01101747 0.01057645
vt 0.01122482 0.01185223
vt 0.01122482 0.01057645
vt 0.01135522 0.01185223
vt 0.01122482 0.01057645
vt 0.01122482 0.01185223
vt 0.01135522 0.01057645
vt 0.01139951 0.01185223
vt 0.01139951 0.01057645
vt 0.01135522 0.03680475
vt 0.01137737 0.03680475
vt 0.01122482 0.03680475
vt 0.01122482 0.03680475
vt 0.01101747 0.03680475
vt 0.01101747 0.03680475
vt 0.01059015 0.03680475
vt 0.01074754 0.03680475
vt 0.01043277 0.03680475
vt 0.01059015 0.03680475
vt 0.009926552 0.03680475
vt 0.01009529 0.03680475
vt 0.009757819 0.03680475
vt 0.009926552 0.03680475
vt 0.009308213 0.03680475
vt 0.009443315 0.03680475
vt 0.009173112 0.03680475
vt 0.009308213 0.03680475
vt 0.008900555 0.03680475
vt 0.008965747 0.03680475
vt 0.008835362 0.03680475
vt 0.008900555 0.03680475
vt 0.008813212 0.03680475
vt 0.008791061 0.03680475
vt 0.008835362 0.03680475
vt 0.008813212 0.03680475
vt 0.00906943 0.03680475
vt 0.008965747 0.03680475
vt 0.009173112 0.03680475
vt 0.00906943 0.03680475
vt 0.009600567 0.03680475
vt 0.009443315 0.03680475
vt 0.009757819 0.03680475
vt 0.009600567 0.03680475
vt 0.01026403 0.03680475
vt 0.01009529 0.03680475
vt 0.01043277 0.03680475
vt 0.01026403 0.03680475
vt 0.01088251 0.03680475
vt 0.01074754 0.03680475
vt 0.01101747 0.03680475
vt 0.01088251 0.03680475
vt 0.01129002 0.03680475
vt 0.01122482 0.03680475
vt 0.01135522 0.03680475
vt 0.01129002 0.03680475
vt 0.01137737 0.03680475
vt 0.01139951 0.03680475
vt 0.03743888 0.03717442
vt 0.03743888 0.03717442
vt 0.03728634 0.03717442
vt 0.03728634 0.03717442
vt 0.03707899 0.03717442
vt 0.03707899 0.03717442
vt 0.03665167 0.03717442
vt 0.03665167 0.03717442
vt 0.03665167 0.03717442
vt 0.03665167 0.03717442
vt 0.03598807 0.03717442
vt 0.03598807 0.03717442
vt 0.03598807 0.03717442
vt 0.03598807 0.03717442
vt 0.03536973 0.03717442
vt 0.03536973 0.03717442
vt 0.03536973 0.03717442
vt 0.03536973 0.03717442
vt 0.03496207 0.03717442
vt 0.03496207 0.03717442
vt 0.03496207 0.03717442
vt 0.03496207 0.03717442
vt 0.03487473 0.03717442
vt 0.03487473 0.03717442
vt 0.03487473 0.03717442
vt 0.03487473 0.03717442
vt 0.03513095 0.03717442
vt 0.03513095 0.03717442
vt 0.03513095 0.03717442
vt 0.03513095 0.03717442
vt 0.03566208 0.03717442
vt 0.03566208 0.03717442
vt 0.03566208 0.03717442
vt 0.03566208 0.03717442
vt 0.03632554 0.03717442
vt 0.03632554 0.03717442
vt 0.03632554 0.03717442
vt 0.03632554 0.03717442
vt 0.03694402 0.03717442
vt 0.03694402 0.03717442
vt 0.03694402 0.03717442
vt 0.03694402 0.03717442
vt 0.03735154 0.03717442
vt 0.03735154 0.03717442
vt 0.03735154 0.03717442
vt 0.03735154 0.03717442
vt 0.03743888 0.03717442
vt 0.03743888 0.03717442
vn 0.548061 -0.01557145 0.8362934
vn 0.548061 -0.01557145 0.8362934
vn 0.548061 -0.01557145 0.8362935
vn 0.4834719 -0.1739625 0.8578997
vn 0.4834718 -0.1739624 0.8578997
vn 0.4834719 -0.1739625 0.8578997
vn -0.238903 0.6004335 0.7631546
vn -0.238903 0.6004335 0.7631546
vn -0.238903 0.6004335 0.7631546
vn 0.7786319 -0.03604356 0.6264449
vn 0.778632 -0.03604356 0.6264449
vn 0.7786319 -0.03604356 0.6264449
vn -0.5338706 0.06540991 0.8430324
vn -0.5338706 0.06540992 0.8430324
vn -0.5338706 0.06540991 0.8430324
vn 0.3820632 0.3476615 0.8562472
vn 0.3820631 0.3476614 0.8562472
vn 0.3820632 0.3476615 0.8562472
vn 0.1324755 0.8331208 0.5369916
vn 0.1324755 0.8331208 0.5369916
vn 0.1324755 0.8331208 0.5369916
vn 0.647454 0.008583941 0.7620563
vn 0.6474539 0.008583942 0.7620563
vn 0.6474539 0.008583941 0.7620563
vn -0.3238497 0.5797514 0.7476696
vn -0.3238497 0.5797514 0.7476696
vn -0.3238497 0.5797514 0.7476695
vn -0.2521391 0.1412427 0.9573277
vn -0.2521391 0.1412427 0.9573277
vn -0.2521391 0.1412427 0.9573277
vn 0.2624422 -0.3195237 0.9105102
vn 0.2624422 -0.3195237 0.9105102
vn 0.2624422 -0.3195237 0.9105102
vn -0.1882625 0.06309579 0.9800899
vn -0.1882625 0.0630958 0.9800899
vn -0.1882625 0.0630958 0.9800899
vn 0.9675193 0.2527975 0
vn 1 0 0
vn 0.999965 -0.008368863 0
vn 0.9659254 0.258821 0
vn 0.8620497 0.5068237 0
vn 0.8660244 0.5000019 0
vn 0.6928915 0.7210419 0
vn 0.7071052 0.7071084 0
vn 0.8660244 0.5000019 0
vn 0.8620497 0.5068237 0
vn 0.5255589 0.8507573 0
vn 0.4999979 0.8660267 0
vn 0.7071052 0.7071084 0
vn 0.6928915 0.7210419 0
vn 0.2883383 0.9575285 0
vn 0.4999979 0.8660267 0
vn 0.5255589 0.8507573 0
vn 0.2588159 0.9659267 0
vn -0.01913197 0.999817 0
vn 0 1 0
vn -0.2950462 0.955483 0
vn 0 1 0
vn -0.01913197 0.999817 0
vn -0.2588202 0.9659255 0
vn -0.4712174 0.8820171 0
vn -0.5000017 0.8660244 0
vn -0.7061263 0.7080859 0
vn -0.7071082 0.7071053 0
vn -0.8833565 0.4687017 0
vn -0.8660262 0.4999985 0
vn -0.9544688 0.2983107 0
vn -0.8660262 0.4999985 0
vn -0.8833565 0.4687017 0
vn -0.9659264 0.2588169 0
vn -0.9999999 0.0006426477 0
vn -1 0 0
vn -0.9487678 -0.3159744 0
vn -0.9659255 -0.2588204 0
vn -1 0 0
vn -0.9999999 0.0006426477 0
vn -0.8775771 -0.4794356 0
vn -0.9659255 -0.2588204 0
vn -0.9487678 -0.3159744 0
vn -0.8660246 -0.5000016 0
vn -0.7179512 -0.6960934 0
vn -0.7071055 -0.7071081 0
vn -0.4798919 -0.8773277 0
vn -0.4999984 -0.8660263 0
vn -0.250617 -0.9680864 0
vn -0.2588171 -0.9659264 0
vn -0.008154909 -0.9999667 0
vn -0.2588171 -0.9659264 0
vn -0.250617 -0.9680864 0
vn 0 -1 0
vn 0.232954 -0.9724877 0
vn 0.2588204 -0.9659255 0
vn 0.4788736 -0.8778839 0
vn 0.5000007 -0.866025 0
vn 0.7185159 -0.6955106 0
vn 0.5000007 -0.866025 0
vn 0.4788736 -0.8778839 0
vn 0.707108 -0.7071056 0
vn 0.8774277 -0.479709 0
vn 0.8660264 -0.4999982 0
vn 0.9619567 -0.2732017 0
vn 0.8660264 -0.4999982 0
vn 0.8774277 -0.479709 0
vn 0.9659263 -0.2588175 0
vn 0.999965 -0.008368863 0
vn 1 0 0
vn 0.3243799 0.3971221 0.8585287
vn 0.3243799 0.3971221 0.8585289
vn 0.3243799 0.3971221 0.8585287
vn 0.3243799 0.3971222 0.8585287
vn 0.221679 0.141316 0.9648255
vn 0.221679 0.141316 0.9648255
vn 0.221679 0.141316 0.9648255
vn 0.221679 0.141316 0.9648255
vn -0.4312418 0.4436347 0.7856328
vn -0.4312417 0.4436347 0.7856328
vn -0.4312418 0.4436347 0.7856328
vn -0.4312418 0.4436347 0.7856328
vn 0.3079206 -0.05194991 0.9499927
vn 0.3079206 -0.05194991 0.9499927
vn 0.3079206 -0.05194991 0.9499927
vn 0.3079206 -0.05194991 0.9499927
vn -0.232976 0.1061679 0.9666698
vn -0.232976 0.1061678 0.9666698
vn -0.232976 0.1061679 0.9666698
vn -0.232976 0.1061679 0.9666698
vn 0.0192195 -0.7387708 0.6736826
vn 0.0192195 -0.7387708 0.6736826
vn 0.0192195 -0.7387708 0.6736826
vn 0.0192195 -0.7387708 0.6736826
vn 0.5870076 0.2975156 0.7529318
vn 0.5870077 0.2975156 0.7529318
vn 0.5870076 0.2975156 0.7529318
vn 0.5870076 0.2975156 0.7529318
vn 0.09558883 0.3689944 0.9245031
vn 0.09558884 0.3689945 0.9245031
vn 0.09558883 0.3689945 0.9245031
vn 0.09558885 0.3689945 0.9245031
vn 0.06775204 0.3832286 0.9211652
vn 0.06775204 0.3832286 0.9211652
vn 0.06775203 0.3832285 0.9211652
vn 0.06775204 0.3832285 0.9211652
vn 0.2826205 0.02783983 0.9588277
vn 0.2826204 0.02783983 0.9588278
vn 0.2826204 0.02783982 0.9588277
vn 0.2826204 0.02783983 0.9588278
vn 0.07775126 -0.1005169 0.9918927
vn 0.07775126 -0.1005169 0.9918927
vn 0.07775126 -0.1005169 0.9918927
vn 0.07775126 -0.1005169 0.9918927
vn 0.1804641 -0.2655961 0.9470436
vn 0.1804641 -0.2655961 0.9470436
vn 0.1804641 -0.2655961 0.9470436
vn 0.1804641 -0.2655961 0.9470436
vn -0.9146945 -0.3941746 -0.08921997
vn -0.9146945 -0.3941746 -0.08921997
vn -0.9146945 -0.3941746 -0.08921997
vn -0.9146945 -0.3941745 -0.08921997
vn -0.6141616 -0.7847213 -0.0837737
vn -0.6141615 -0.7847214 -0.08377371
vn -0.6141615 -0.7847214 -0.08377371
vn -0.6141616 -0.7847214 -0.08377371
vn -0.1046539 -0.9928505 -0.05740587
vn -0.1046539 -0.9928505 -0.05740586
vn -0.1046539 -0.9928505 -0.05740586
vn -0.1046539 -0.9928505 -0.05740586
vn 0.3781092 -0.9256765 -0.0125099
vn 0.3781092 -0.9256765 -0.0125099
vn 0.3781093 -0.9256765 -0.0125099
vn 0.3781093 -0.9256765 -0.0125099
vn 0.7878594 -0.6147349 0.03712822
vn 0.7878594 -0.6147349 0.03712822
vn 0.7878595 -0.6147348 0.03712822
vn 0.7878594 -0.6147348 0.03712822
vn 0.983323 -0.1592636 0.0878113
vn 0.983323 -0.1592636 0.08781131
vn 0.983323 -0.1592636 0.0878113
vn 0.983323 -0.1592636 0.0878113
vn 0.9140322 0.3870736 0.1213227
vn 0.9140322 0.3870737 0.1213227
vn 0.9140322 0.3870737 0.1213227
vn 0.9140322 0.3870737 0.1213227
vn 0.5946129 0.7971293 0.1049775
vn 0.5946129 0.7971293 0.1049775
vn 0.5946129 0.7971293 0.1049775
vn 0.5946129 0.7971293 0.1049775
vn 0.1185362 0.9910259 0.06178083
vn 0.1185362 0.9910259 0.06178083
vn 0.1185362 0.9910259 0.06178083
vn 0.1185362 0.9910259 0.06178083
vn -0.3834586 0.9234861 0.01152168
vn -0.3834586 0.9234861 0.01152168
vn -0.3834586 0.9234861 0.01152168
vn -0.3834586 0.9234861 0.01152168
vn -0.7968781 0.6028181 -0.03994644
vn -0.7968781 0.602818 -0.03994643
vn -0.7968781 0.602818 -0.03994643
vn -0.7968781 0.602818 -0.03994643
vn -0.9847799 0.1571678 -0.07420783
vn -0.9847799 0.1571678 -0.07420783
vn -0.9847799 0.1571678 -0.07420783
vn -0.9847799 0.1571678 -0.07420783
g Boss_Color_133_0
f 3/3/3 2/2/2 1/1/1
f 6/6/6 5/5/5 4/4/4
f 9/9/9 8/8/8 7/7/7
f 12/12/12 11/11/11 10/10/10
f 15/15/15 14/14/14 13/13/13
f 18/18/18 17/17/17 16/16/16
f 21/21/21 20/20/20 19/19/19
f 24/24/24 23/23/23 22/22/22
f 27/27/27 26/26/26 25/25/25
f 30/30/30 29/29/29 28/28/28
f 33/33/33 32/32/32 31/31/31
f 36/36/36 35/35/35 34/34/34
f 39/39/39 38/38/38 37/37/37
f 38/38/38 40/40/40 37/37/37
f 37/37/37 40/40/40 41/41/41
f 40/40/40 42/42/42 41/41/41
f 45/45/45 44/44/44 43/43/43
f 46/46/46 45/45/45 43/43/43
f 49/49/49 48/48/48 47/47/47
f 50/50/50 49/49/49 47/47/47
f 53/53/53 52/52/52 51/51/51
f 52/52/52 54/54/54 51/51/51
f 51/51/51 54/54/54 55/55/55
f 54/54/54 56/56/56 55/55/55
f 59/59/59 58/58/58 57/57/57
f 58/58/58 60/60/60 57/57/57
f 57/57/57 60/60/60 61/61/61
f 60/60/60 62/62/62 61/61/61
f 61/61/61 62/62/62 63/63/63
f 62/62/62 64/64/64 63/63/63
f 63/63/63 64/64/64 65/65/65
f 64/64/64 66/66/66 65/65/65
f 69/69/69 68/68/68 67/67/67
f 68/68/68 70/70/70 67/67/67
f 67/67/67 70/70/70 71/71/71
f 70/70/70 72/72/72 71/71/71
f 75/75/75 74/74/74 73/73/73
f 76/76/76 75/75/75 73/73/73
f 79/79/79 78/78/78 77/77/77
f 78/78/78 80/80/80 77/77/77
f 77/77/77 80/80/80 81/81/81
f 80/80/80 82/82/82 81/81/81
f 81/81/81 82/82/82 83/83/83
f 82/82/82 84/84/84 83/83/83
f 83/83/83 84/84/84 85/85/85
f 84/84/84 86/86/86 85/85/85
f 89/89/89 88/88/88 87/87/87
f 88/88/88 90/90/90 87/87/87
f 87/87/87 90/90/90 91/91/91
f 90/90/90 92/92/92 91/91/91
f 91/91/91 92/92/92 93/93/93
f 92/92/92 94/94/94 93/93/93
f 97/97/97 96/96/96 95/95/95
f 96/96/96 98/98/98 95/95/95
f 95/95/95 98/98/98 99/99/99
f 98/98/98 100/100/100 99/99/99
f 103/103/103 102/102/102 101/101/101
f 102/102/102 104/104/104 101/101/101
f 101/101/101 104/104/104 105/105/105
f 104/104/104 106/106/106 105/105/105
f 109/109/109 108/108/108 107/107/107
f 110/110/110 109/109/109 107/107/107
f 113/113/113 112/112/112 111/111/111
f 114/114/114 113/113/113 111/111/111
f 117/117/117 116/116/116 115/115/115
f 118/118/118 117/117/117 115/115/115
f 121/121/121 120/120/120 119/119/119
f 122/122/122 121/121/121 119/119/119
f 125/125/125 124/124/124 123/123/123
f 126/126/126 125/125/125 123/123/123
f 129/129/129 128/128/128 127/127/127
f 130/130/130 129/129/129 127/127/127
f 133/133/133 132/132/132 131/131/131
f 134/134/134 133/133/133 131/131/131
f 137/137/137 136/136/136 135/135/135
f 138/138/138 137/137/137 135/135/135
f 141/141/141 140/140/140 139/139/139
f 142/142/142 141/141/141 139/139/139
f 145/145/145 144/144/144 143/143/143
f 146/146/146 145/145/145 143/143/143
f 149/149/149 148/148/148 147/147/147
f 150/150/150 149/149/149 147/147/147
f 153/153/153 152/152/152 151/151/151
f 154/154/154 153/153/153 151/151/151
f 157/157/157 156/156/156 155/155/155
f 158/158/158 157/157/157 155/155/155
f 161/161/161 160/160/160 159/159/159
f 162/162/162 161/161/161 159/159/159
f 165/165/165 164/164/164 163/163/163
f 166/166/166 165/165/165 163/163/163
f 169/169/169 168/168/168 167/167/167
f 170/170/170 169/169/169 167/167/167
f 173/173/173 172/172/172 171/171/171
f 174/174/174 173/173/173 171/171/171
f 177/177/177 176/176/176 175/175/175
f 178/178/178 177/177/177 175/175/175
f 181/181/181 180/180/180 179/179/179
f 182/182/182 181/181/181 179/179/179
f 185/185/185 184/184/184 183/183/183
f 186/186/186 185/185/185 183/183/183
f 189/189/189 188/188/188 187/187/187
f 190/190/190 189/189/189 187/187/187
f 193/193/193 192/192/192 191/191/191
f 194/194/194 193/193/193 191/191/191
f 197/197/197 196/196/196 195/195/195
f 198/198/198 197/197/197 195/195/195
f 201/201/201 200/200/200 199/199/199
f 202/202/202 201/201/201 199/199/199
