g Boss_Color_02
v 4.326447 -32.55875 -37.23355
v 3.181398E-06 -0.759751 0.6375072
v 2.30968E-06 0.7723392 -0.6480697
v 4.326446 -31.02666 -38.51912
v 2.30968E-06 0.7723392 -0.6480697
v 3.181398E-06 -0.759751 0.6375072
v 4.326447 -32.55875 -37.23355
v 4.326446 -31.02666 -38.51912
vt 0.2929651 0.03650183
vt 0.2929651 0.03722664
vt 0.2928267 0.03722664
vt 0.2928267 0.03650183
vt 0.2928267 0.03722664
vt 0.2929651 0.03722664
vt 0.2929651 0.03650183
vt 0.2928267 0.03650183
vn 0.9961946 0.05602351 0.06676571
vn 0.9961946 0.05602351 0.06676572
vn 0.9961946 0.05602351 0.06676571
vn 0.9961946 0.05602351 0.06676571
vn -0.9961946 -0.05602353 -0.0667657
vn -0.9961946 -0.05602354 -0.06676571
vn -0.9961946 -0.05602353 -0.0667657
vn -0.9961946 -0.05602354 -0.0667657
g Boss_Color_02_0
f 3/3/3 2/2/2 1/1/1
f 4/4/4 3/3/3 1/1/1
f 7/7/7 6/6/6 5/5/5
f 8/8/8 7/7/7 5/5/5
