g Boss_Color_131
v -8.730653 -23.40645 9.367533
v -8.852419 -16.2325 2.869229
v 1.952878 -11.13114 9.367579
v -8.730665 -10.84576 -1.927679
v 1.952879 -10.84578 8.961299
v -8.730665 -10.84576 -1.927679
v 1.952875 -10.84574 -1.927676
v 1.952879 -10.84578 8.961299
v 2.318149 5.214473 -1.016634
v 1.952857 5.214474 -0.6103534
v 2.318148 5.499826 -2.099873
v 2.318169 -11.13113 8.961298
v 1.952878 -11.13114 9.367579
v 1.952879 -10.84578 8.961299
v -9.400958 5.330554 -3.358761
v -9.583607 5.47322 -1.984781
v -9.218307 5.214447 -1.86669
v -8.730653 -23.40645 9.367533
v -9.095942 -23.40644 8.961254
v -8.852419 -16.2325 2.869229
v -8.852419 -16.2325 2.869229
v 1.952879 -10.84578 8.961299
v 1.952878 -11.13114 9.367579
v -9.095956 -11.0851 -2.148916
v -8.730665 -10.84576 -1.927679
v -8.852419 -16.2325 2.869229
v -9.095992 16.62859 -8.599371
v -9.400958 5.330554 -3.358761
v -8.714571 5.606697 -8.280609
v -9.095943 -23.40639 -7.445098
v -9.095956 -11.0851 -2.148916
v -8.852419 -16.2325 2.869229
v -9.095992 16.62859 -8.599371
v -8.965646 16.62857 0.1915794
v -9.095988 16.52811 0.02889479
v -8.730653 -23.40645 9.367533
v 1.952878 -11.13114 9.367579
v 1.952889 -23.40644 9.367538
v -9.095943 -23.40639 -7.445098
v -8.852419 -16.2325 2.869229
v -9.095942 -23.40644 8.961254
v 2.318148 5.49981 2.687182
v -0.2308489 10.0754 3.908885
v 2.318138 16.34323 4.349067
v -9.218307 5.214447 -1.86669
v -0.2308489 10.0754 3.908885
v 1.952857 5.214458 2.687181
v -9.095988 16.52811 0.02889479
v -0.2308489 10.0754 3.908885
v -9.583607 5.47322 -1.984781
v 2.318138 16.34323 4.349067
v -0.2308489 10.0754 3.908885
v 1.948636 16.62857 4.158992
v 1.952857 5.214458 2.687181
v -0.2308489 10.0754 3.908885
v 2.318148 5.49981 2.687182
v -9.583607 5.47322 -1.984781
v -0.2308489 10.0754 3.908885
v -9.218307 5.214447 -1.86669
v 1.948636 16.62857 4.158992
v -0.2308489 10.0754 3.908885
v -8.965646 16.62857 0.1915794
v -8.965646 16.62857 0.1915794
v -0.2308489 10.0754 3.908885
v -9.095988 16.52811 0.02889479
v -8.487712 5.655816 -11.45297
v -8.714571 5.606697 -8.280609
v -8.39729 5.505095 -8.446086
v -8.232514 5.12389 -3.801362
v -8.730665 -10.84576 -1.927679
v -9.095956 -11.0851 -2.148916
v 1.952857 5.214474 -0.6103534
v -8.232514 5.12389 -3.801362
v -9.400958 5.330554 -3.358761
v 2.318148 5.499826 -2.099873
v 2.318139 16.34324 1.138329
v 15.87375 16.34326 -0.6103135
v 15.87375 5.49984 0.1577693
v -9.095992 16.62859 -8.599371
v -9.095995 16.6286 -11.45294
v 15.87375 16.62865 -11.45293
v 15.87375 16.62864 -7.444972
v 2.318154 5.214506 -11.45297
v 2.318181 -23.40636 -11.45306
v 2.318182 -23.40637 -7.445102
v 2.318152 5.214494 -7.445006
v 15.87376 5.214514 -7.445011
v 15.87376 5.214526 -11.45297
v 2.318154 5.214506 -11.45297
v 2.318152 5.214494 -7.445006
v 1.952875 -10.84574 -1.927676
v -8.730665 -10.84576 -1.927679
v -8.232514 5.12389 -3.801362
v 1.952857 5.214474 -0.6103534
v -9.095992 16.62859 -8.599371
v -8.714571 5.606697 -8.280609
v -8.487712 5.655816 -11.45297
v -9.095995 16.6286 -11.45294
v 2.318138 16.34323 4.349067
v 2.318139 16.34324 1.138329
v 2.318148 5.499826 -2.099873
v 2.318148 5.49981 2.687182
v 1.952857 5.214458 2.687181
v 1.952857 5.214474 -0.6103534
v -9.400958 5.330554 -3.358761
v -9.218307 5.214447 -1.86669
v -9.400958 5.330554 -3.358761
v -9.095992 16.62859 -8.599371
v -9.095988 16.52811 0.02889479
v -9.583607 5.47322 -1.984781
v 2.318167 -11.08508 -2.148914
v 2.318181 -23.40642 8.961259
v 2.318169 -11.13113 8.961298
v 2.318182 -23.40637 -7.445102
v 2.318152 5.214494 -7.445006
v 2.318149 5.214473 -1.016634
v 2.318139 16.34324 1.138329
v 1.944423 16.62859 1.082863
v 15.87374 16.62861 -1.016594
v 15.87375 16.34326 -0.6103135
v 1.952857 5.214474 -0.6103534
v 2.318149 5.214473 -1.016634
v 2.318167 -11.08508 -2.148914
v 1.952875 -10.84574 -1.927676
v 15.87375 5.49984 0.1577693
v 15.87376 5.214489 -0.2485126
v 2.318149 5.214473 -1.016634
v 2.318148 5.499826 -2.099873
v 1.948636 16.62857 4.158992
v 1.944423 16.62859 1.082863
v 2.318139 16.34324 1.138329
v 2.318138 16.34323 4.349067
v 2.318148 5.49981 2.687182
v 2.318148 5.499826 -2.099873
v 1.952857 5.214474 -0.6103534
v 1.952857 5.214458 2.687181
v 1.952878 -11.13114 9.367579
v 2.318169 -11.13113 8.961298
v 2.318181 -23.40642 8.961259
v 1.952889 -23.40644 9.367538
v 1.952875 -10.84574 -1.927676
v 2.318167 -11.08508 -2.148914
v 2.318169 -11.13113 8.961298
v 1.952879 -10.84578 8.961299
v 15.87375 16.62864 -7.444972
v 15.87374 16.62861 -1.016594
v 1.944423 16.62859 1.082863
v -9.095992 16.62859 -8.599371
v 15.87376 5.214514 -7.445011
v 2.318152 5.214494 -7.445006
v 2.318149 5.214473 -1.016634
v 15.87376 5.214489 -0.2485126
v -8.965646 16.62857 0.1915794
v -9.095992 16.62859 -8.599371
v 1.944423 16.62859 1.082863
v 1.948636 16.62857 4.158992
v -8.39729 5.505095 -8.446086
v -8.714571 5.606697 -8.280609
v -9.400958 5.330554 -3.358761
v -8.232514 5.12389 -3.801362
v -9.095942 -23.40637 -11.45306
v -8.487712 5.655816 -11.45297
v -8.39729 5.505095 -8.446086
v -9.095943 -23.40639 -7.445098
v -8.39729 5.505095 -8.446086
v -8.232514 5.12389 -3.801362
v -9.095956 -11.0851 -2.148916
v -9.095943 -23.40639 -7.445098
vt 0.7682423 0.01975773
vt 0.7682423 0.01997989
vt 0.7680562 0.01997989
vt 0.7684335 0.02009733
vt 0.7680562 0.01980094
vt 0.7960883 0.03631438
vt 0.7957551 0.03635759
vt 0.795711 0.03601799
vt 0.8168807 0.04054261
vt 0.8168926 0.04054261
vt 0.8168807 0.04054975
vt 0.8168807 0.04013314
vt 0.8168926 0.04013314
vt 0.8168926 0.04014029
vt 0.8172465 0.04054552
vt 0.8172525 0.04054908
vt 0.8172405 0.04054261
vt 0.8172405 0.03982564
vt 0.8172525 0.03982564
vt 0.8172445 0.04013553
vt 0.7684081 0.01976011
vt 0.7680562 0.01976488
vt 0.7680562 0.01975773
vt 0.8172525 0.04013429
vt 0.8172405 0.04014029
vt 0.8172445 0.04013553
vt 0.793521 0.03709322
vt 0.7935897 0.03689085
vt 0.79354 0.0369148
vt 0.7935897 0.03644713
vt 0.7935897 0.03659165
vt 0.7935897 0.03659082
vt 0.8171241 0.04082854
vt 0.8171657 0.04082854
vt 0.8171693 0.04082602
vt 0.7935833 0.03636866
vt 0.7933972 0.03659082
vt 0.7933972 0.03636866
vt 0.7935897 0.03644713
vt 0.7935897 0.03659082
vt 0.7935897 0.03636866
vt 0.7678829 0.01428926
vt 0.7678707 0.01445933
vt 0.7678584 0.01462939
vt 0.7681917 0.01421312
vt 0.768025 0.01423474
vt 0.7678584 0.01425637
vt 0.7678584 0.01452794
vt 0.7678807 0.01442791
vt 0.7679029 0.01432787
vt 0.7678584 0.01825793
vt 0.7678645 0.01826151
vt 0.7678705 0.01826508
vt 0.7678704 0.01797915
vt 0.7678644 0.01798272
vt 0.7678584 0.01798629
vt 0.7678704 0.01798563
vt 0.7678644 0.01798239
vt 0.7678584 0.01797915
vt 0.7678584 0.01452976
vt 0.7679314 0.01452976
vt 0.7680044 0.01452976
vt 0.7678584 0.01826508
vt 0.7678603 0.01826382
vt 0.7678621 0.01826256
vt 0.7694533 0.01030755
vt 0.7692293 0.0103985
vt 0.7692338 0.0103562
vt 0.8172464 0.04051489
vt 0.8172405 0.04014029
vt 0.8172525 0.04013429
vt 0.7692482 0.01036178
vt 0.7694343 0.01034427
vt 0.7694343 0.01036178
vt 0.7687194 0.04204911
vt 0.7687194 0.04224536
vt 0.7684833 0.04224536
vt 0.7684833 0.04204911
vt 0.5529684 0.03645821
vt 0.5532779 0.0364582
vt 0.5513165 0.03645821
vt 0.5513165 0.03645821
vt 0.5523813 0.03552653
vt 0.5523813 0.03319035
vt 0.5523813 0.03354427
vt 0.5523813 0.03552653
vt 0.5510195 0.03577038
vt 0.5510195 0.03577038
vt 0.5520843 0.03577038
vt 0.5520843 0.03577038
vt 0.7687258 0.04175329
vt 0.7689119 0.04175329
vt 0.7689119 0.04202644
vt 0.7687258 0.04204395
vt 0.5529684 0.03645821
vt 0.5530539 0.0356535
vt 0.5532779 0.03556255
vt 0.5532779 0.0364582
vt 0.7954563 0.03719285
vt 0.7952856 0.03718054
vt 0.7953101 0.0368404
vt 0.7954808 0.03685272
vt 0.795733 0.03681982
vt 0.795711 0.03665002
vt 0.7960442 0.03660678
vt 0.7960663 0.03677658
vt 0.7935897 0.03689085
vt 0.793521 0.03709322
vt 0.7935452 0.0370914
vt 0.7935897 0.03689133
vt 0.7933909 0.03659165
vt 0.7933909 0.03636866
vt 0.7933909 0.03659082
vt 0.7933909 0.03644713
vt 0.7933909 0.03688665
vt 0.7933909 0.03688665
vt 0.8168807 0.04082139
vt 0.8168929 0.04082854
vt 0.8164393 0.04082854
vt 0.8164393 0.04082139
vt 0.8168926 0.04054261
vt 0.8168807 0.04054261
vt 0.8168807 0.04013429
vt 0.8168926 0.04014029
vt 0.8164393 0.04054975
vt 0.8164393 0.04054261
vt 0.8168807 0.04054261
vt 0.8168807 0.04054975
vt 0.8168927 0.04082854
vt 0.8168929 0.04082854
vt 0.8168807 0.04082139
vt 0.8168807 0.04082139
vt 0.8168807 0.04054975
vt 0.8168807 0.04054975
vt 0.8168926 0.04054261
vt 0.8168926 0.04054261
vt 0.8168926 0.04013314
vt 0.8168807 0.04013314
vt 0.8168807 0.03982564
vt 0.8168926 0.03982564
vt 0.8168926 0.04014029
vt 0.8168807 0.04013429
vt 0.8168807 0.04013314
vt 0.8168926 0.04014029
vt 0.7931548 0.03709322
vt 0.7931548 0.03709322
vt 0.7933974 0.03709322
vt 0.793521 0.03709322
vt 0.7931548 0.03688665
vt 0.7933909 0.03688665
vt 0.7933909 0.03688665
vt 0.7931548 0.03688665
vt 0.7935432 0.03709321
vt 0.793521 0.03709322
vt 0.7933974 0.03709322
vt 0.7933973 0.03709322
vt 0.7693174 0.010369
vt 0.7693165 0.01037837
vt 0.7693661 0.01035442
vt 0.7693661 0.01032769
vt 0.5532779 0.03319035
vt 0.5532779 0.03556255
vt 0.5530584 0.0356112
vt 0.5532779 0.03354427
vt 0.793541 0.03690542
vt 0.7935897 0.03686411
vt 0.7935897 0.03659165
vt 0.7935897 0.03644713
vn -0.3640229 0.3168156 0.8758512
vn -0.6066759 0.5280041 0.5942693
vn -0.3194785 0.2780473 0.9058825
vn -0.601277 0.538928 0.5899343
vn -0.601277 0.538928 0.5899344
vn 0 1 0
vn 0 1 0
vn 0 1 0
vn 0.2725923 0.9303896 0.2450889
vn 0.2725923 0.9303896 0.2450889
vn 0.2725923 0.9303896 0.2450889
vn 0.538602 0.6894862 0.4842691
vn 0.538602 0.6894862 0.4842691
vn 0.538602 0.6894862 0.4842691
vn -0.5796551 -0.8148269 0.007550881
vn -0.5796551 -0.8148269 0.007550881
vn -0.5796551 -0.8148269 0.007550882
vn -0.6396116 0.5100698 0.5750877
vn -0.6396116 0.5100698 0.5750877
vn -0.6396116 0.5100697 0.5750876
vn -0.5906669 0.6603177 0.4637811
vn -0.590667 0.6603178 0.4637811
vn -0.590667 0.6603178 0.4637811
vn -0.664508 0.50529 0.5505552
vn -0.664508 0.50529 0.5505552
vn -0.664508 0.50529 0.5505552
vn -0.9972959 -0.04404308 -0.05883108
vn -0.7630932 -0.6315841 -0.1370774
vn -0.7769228 -0.6220869 -0.09694815
vn -0.9993287 -0.01446839 0.03365761
vn -0.9993287 -0.01446838 0.0336576
vn -0.9993287 -0.01446839 0.03365761
vn -0.6175743 0.7864593 0.009158341
vn -0.6175743 0.7864593 0.009158341
vn -0.6175743 0.7864593 0.009158341
vn -0.3640229 0.3168156 0.8758512
vn -0.3194785 0.2780473 0.9058825
vn 0 0 1
vn -0.9994243 0.03392612 0
vn -0.9994243 0.03392612 0
vn -0.9994243 0.03392612 0
vn 0.1978287 -0.148499 0.968923
vn 0.1978287 -0.148499 0.968923
vn 0.1978287 -0.148499 0.968923
vn -0.3502061 -0.3732418 0.8590961
vn -0.350206 -0.3732419 0.8590961
vn -0.3502061 -0.3732419 0.8590961
vn -0.4790601 -0.1368055 0.8670557
vn -0.4790601 -0.1368055 0.8670557
vn -0.4790601 -0.1368055 0.8670557
vn -0.3952896 0.09660416 0.9134625
vn -0.3952896 0.09660416 0.9134625
vn -0.3952897 0.09660416 0.9134625
vn 0.1414404 -0.1810666 0.9732469
vn 0.1414404 -0.1810666 0.9732469
vn 0.1414404 -0.1810666 0.9732469
vn -0.4390354 -0.2225266 0.8704768
vn -0.4390355 -0.2225266 0.8704768
vn -0.4390354 -0.2225266 0.8704768
vn -0.3406073 0.07751918 0.9370045
vn -0.3406073 0.07751918 0.9370045
vn -0.3406073 0.07751918 0.9370045
vn -0.5902579 -0.3839945 0.7100309
vn -0.5902579 -0.3839945 0.7100308
vn -0.5902579 -0.3839945 0.7100308
vn -0.9989265 -0.04417749 -0.01393809
vn -0.7769228 -0.6220869 -0.09694815
vn -0.8080333 -0.5880316 -0.03606951
vn -0.5679924 0.1133621 0.8151892
vn -0.5679924 0.1133621 0.8151892
vn -0.5679924 0.1133621 0.8151894
vn -0.1526093 -0.02318845 0.9880145
vn -0.1288038 -0.7233173 0.6783965
vn -0.07243682 -0.9632766 0.2585556
vn -0.01865052 -0.1131481 0.993403
vn -0.01865052 -0.1131481 0.993403
vn -0.01865052 -0.1131481 0.993403
vn -0.01865052 -0.1131481 0.993403
vn 0 1 0
vn 0 1 0
vn 0 1 0
vn 0 1 0
vn 1 0 0
vn 1 0 0
vn 1 0 0
vn 1 0 0
vn 0 -1 0
vn 0 -1 0
vn 0 -1 0
vn 0 -1 0
vn -0.1512046 0.01951854 0.9883097
vn -0.1512046 0.01951854 0.9883097
vn -0.1288038 -0.7233173 0.6783965
vn -0.1526093 -0.02318845 0.9880145
vn -0.9972959 -0.04404308 -0.05883108
vn -0.7769228 -0.6220869 -0.09694815
vn -0.9989265 -0.04417749 -0.01393809
vn -0.9982446 -0.04546841 -0.03795132
vn 1 0 0
vn 1 0 0
vn 1 0 0
vn 1 0 0
vn 0.002740022 -0.9997 -0.02434225
vn 0.002740022 -0.9997 -0.02434225
vn 0.002740022 -0.9997 -0.02434225
vn 0.002740021 -0.9997 -0.02434225
vn -0.9992936 0.03277848 -0.01838575
vn -0.9992936 0.03277848 -0.01838575
vn -0.9992936 0.03277848 -0.01838575
vn -0.9992936 0.03277848 -0.01838575
vn 1 0 0
vn 1 0 0
vn 1 0 0
vn 1 0 0
vn 1 0 0
vn 1 0 0
vn 0.1034679 0.6656854 0.7390246
vn 0.1034679 0.6656854 0.7390246
vn 0.1034679 0.6656854 0.7390246
vn 0.1034679 0.6656854 0.7390246
vn 0.6394653 -0.05803217 0.7666267
vn 0.6394653 -0.05803217 0.7666267
vn 0.6394653 -0.05803216 0.7666267
vn 0.6394653 -0.05803217 0.7666267
vn -0.07175146 0.762587 0.6428942
vn -0.07175146 0.762587 0.6428941
vn -0.07175146 0.762587 0.6428942
vn -0.07175146 0.762587 0.6428941
vn 0.6091201 0.7930779 -0.0004044718
vn 0.6091201 0.7930779 -0.0004044718
vn 0.6091201 0.7930779 -0.0004044718
vn 0.6091201 0.7930779 -0.0004044718
vn 0.6155984 -0.78806 0
vn 0.6155984 -0.78806 0
vn 0.6155984 -0.7880601 0
vn 0.6155984 -0.7880601 0
vn 0.7436227 0 0.6685995
vn 0.7436227 0 0.6685995
vn 0.7436227 0 0.6685995
vn 0.7436227 0 0.6685995
vn 0.5836657 0.8119922 0.001701305
vn 0.5836658 0.8119922 0.001701305
vn 0.5836658 0.8119922 0.001701305
vn 0.5836658 0.8119922 0.001701305
vn 0 1 0
vn 0 1 0
vn 0 1 0
vn 0 1 0
vn 0 -1 0
vn 0 -1 0
vn 0 -1 0
vn 0 -1 0
vn 0 1 0
vn 0 1 0
vn 0 1 0
vn 0 1 0
vn -0.8080333 -0.5880316 -0.03606951
vn -0.7769228 -0.6220869 -0.09694815
vn -0.7630932 -0.6315841 -0.1370774
vn -0.7773114 -0.6254941 -0.06740957
vn -0.9996514 0.02276576 0.01337459
vn -0.9989265 -0.04417749 -0.01393809
vn -0.8080333 -0.5880316 -0.03606951
vn -0.9996715 0.02510133 0.005183689
vn -0.8080333 -0.5880316 -0.03606951
vn -0.7773114 -0.6254941 -0.06740957
vn -0.9991755 0.03321945 -0.02333946
vn -0.9996715 0.02510133 0.005183689
g Boss_Color_131_0
f 3/3/3 2/2/2 1/1/1
f 2/2/2 5/5/5 4/4/4
f 8/8/8 7/7/7 6/6/6
f 11/11/11 10/10/10 9/9/9
f 14/14/14 13/13/13 12/12/12
f 17/17/17 16/16/16 15/15/15
f 20/20/20 19/19/19 18/18/18
f 23/23/23 22/22/22 21/21/21
f 26/26/26 25/25/25 24/24/24
f 29/29/29 28/28/28 27/27/27
f 32/32/32 31/31/31 30/30/30
f 35/35/35 34/34/34 33/33/33
f 38/38/38 37/37/37 36/36/36
f 41/41/41 40/40/40 39/39/39
f 44/44/44 43/43/43 42/42/42
f 47/47/47 46/46/46 45/45/45
f 50/50/50 49/49/49 48/48/48
f 53/53/53 52/52/52 51/51/51
f 56/56/56 55/55/55 54/54/54
f 59/59/59 58/58/58 57/57/57
f 62/62/62 61/61/61 60/60/60
f 65/65/65 64/64/64 63/63/63
f 68/68/68 67/67/67 66/66/66
f 71/71/71 70/70/70 69/69/69
f 74/74/74 73/73/73 72/72/72
f 77/77/77 76/76/76 75/75/75
f 78/78/78 77/77/77 75/75/75
f 81/81/81 80/80/80 79/79/79
f 82/82/82 81/81/81 79/79/79
f 85/85/85 84/84/84 83/83/83
f 86/86/86 85/85/85 83/83/83
f 89/89/89 88/88/88 87/87/87
f 90/90/90 89/89/89 87/87/87
f 93/93/93 92/92/92 91/91/91
f 94/94/94 93/93/93 91/91/91
f 97/97/97 96/96/96 95/95/95
f 98/98/98 97/97/97 95/95/95
f 101/101/101 100/100/100 99/99/99
f 102/102/102 101/101/101 99/99/99
f 105/105/105 104/104/104 103/103/103
f 106/106/106 105/105/105 103/103/103
f 109/109/109 108/108/108 107/107/107
f 110/110/110 109/109/109 107/107/107
f 113/113/113 112/112/112 111/111/111
f 112/112/112 114/114/114 111/111/111
f 111/111/111 114/114/114 115/115/115
f 116/116/116 111/111/111 115/115/115
f 119/119/119 118/118/118 117/117/117
f 120/120/120 119/119/119 117/117/117
f 123/123/123 122/122/122 121/121/121
f 124/124/124 123/123/123 121/121/121
f 127/127/127 126/126/126 125/125/125
f 128/128/128 127/127/127 125/125/125
f 131/131/131 130/130/130 129/129/129
f 132/132/132 131/131/131 129/129/129
f 135/135/135 134/134/134 133/133/133
f 136/136/136 135/135/135 133/133/133
f 139/139/139 138/138/138 137/137/137
f 140/140/140 139/139/139 137/137/137
f 143/143/143 142/142/142 141/141/141
f 144/144/144 143/143/143 141/141/141
f 147/147/147 146/146/146 145/145/145
f 148/148/148 147/147/147 145/145/145
f 151/151/151 150/150/150 149/149/149
f 152/152/152 151/151/151 149/149/149
f 155/155/155 154/154/154 153/153/153
f 156/156/156 155/155/155 153/153/153
f 159/159/159 158/158/158 157/157/157
f 160/160/160 159/159/159 157/157/157
f 163/163/163 162/162/162 161/161/161
f 164/164/164 163/163/163 161/161/161
f 167/167/167 166/166/166 165/165/165
f 168/168/168 167/167/167 165/165/165
