g Boss_Color_143
v -3.775971 0.3213575 18.57866
v -8.943112 5.4183 17.74417
v -8.051336 5.918837 17.93752
v -8.943063 -4.775564 17.74414
v -3.775971 0.3213575 18.57866
v -3.775953 -5.746175 18.57865
v 3.775981 0.3213799 17.85202
v 8.295599 5.918899 16.8516
v 9.14279 5.418368 16.58722
v 8.295599 5.918899 16.8516
v 3.775981 0.3213799 17.85202
v 2.131911 0.3213837 19.8939
v 3.434393 -11.41467 15.93598
v 9.14279 5.418368 16.58722
v 9.263663 -9.854138 15.73466
v 9.14279 5.418368 16.58722
v 3.434393 -11.41467 15.93598
v 3.775981 0.3213799 17.85202
v 3.434393 -11.41467 15.93598
v 9.263663 -9.854138 15.73466
v 5.192169 -11.16952 15.44572
v -3.775971 0.3213575 18.57866
v -8.943063 -4.775564 17.74414
v -8.943112 5.4183 17.74417
v -8.943063 -4.775564 17.74414
v -5.361184 -5.918907 18.25867
v -8.27389 -5.633072 17.49157
v -8.27389 -5.633072 17.49157
v -5.361184 -5.918907 18.25867
v -7.113167 -5.918902 16.87263
v -5.361184 -5.918907 18.25867
v -8.943063 -4.775564 17.74414
v -3.775953 -5.746175 18.57865
v -5.361184 -5.918907 18.25867
v -3.775953 -5.746175 18.57865
v -4.046169 -5.918903 18.51309
v 3.434393 -11.41467 15.93598
v 5.192169 -11.16952 15.44572
v 3.737895 -11.45536 15.73876
v 5.192169 -11.16952 15.44572
v 8.48827 -10.22158 14.88327
v 7.107836 -10.42015 14.67748
v 5.192169 -11.16952 15.44572
v 9.263663 -9.854138 15.73466
v 8.48827 -10.22158 14.88327
v 7.135756 -5.9188 -2.538252E-06
v 1.559898E-05 -5.918826 -2.538269E-06
v 1.486799E-05 -5.918865 3.038921
v 5.377771 -5.918833 2.202682
v 1.375196E-05 -5.918884 3.900718
v 5.377771 -5.918833 2.202682
v 4.055849 -5.918838 3.064477
v -9.042917 -4.775513 -1.311083E-06
v -8.943063 -4.775564 17.74414
v -8.27389 -5.633072 17.49157
v -8.351891 -5.633022 -6.046188E-06
v -7.113167 -5.918902 16.87263
v -7.135713 -5.918854 -2.53829E-06
v -5.377733 -5.91887 3.038924
v -5.361184 -5.918907 18.25867
v -4.05581 -5.918869 3.900722
v -4.046169 -5.918903 18.51309
v 1.486799E-05 -5.918865 3.038921
v 1.559898E-05 -5.918826 -2.538269E-06
v -7.135713 -5.918854 -2.53829E-06
v -5.377733 -5.91887 3.038924
v 1.375196E-05 -5.918884 3.900718
v -4.05581 -5.918869 3.900722
v -8.17347 5.918888 2.924123E-05
v 8.173429 5.91895 -0.8362134
v 8.295599 5.918899 16.8516
v -8.051336 5.918837 17.93752
v 8.173429 5.91895 -0.8362134
v 9.14279 5.418368 16.58722
v 8.295599 5.918899 16.8516
v 9.042915 5.418418 -0.8362139
v 9.042952 -4.775443 -1.311033E-06
v 9.263663 -9.854138 15.73466
v 8.882275E-06 0.3213822 4.14951
v -3.775971 0.3213875 4.149514
v -3.775971 0.3213575 18.57866
v 2.131911 0.3213837 19.8939
v 3.775981 0.3213799 17.85202
v 3.775981 0.3214028 3.313265
v -3.775956 -5.740258 4.149505
v -3.775971 0.3213875 4.149514
v 8.882275E-06 0.3213822 4.14951
v 1.42091E-05 -5.752041 4.149499
v 3.775989 -5.752015 3.313259
v 3.775981 0.3214028 3.313265
v -3.775971 0.3213575 18.57866
v -3.775971 0.3213875 4.149514
v -3.775956 -5.740258 4.149505
v -3.775953 -5.746175 18.57865
v -3.775956 -5.740258 4.149505
v -4.05581 -5.918869 3.900722
v -4.046169 -5.918903 18.51309
v -3.775953 -5.746175 18.57865
v -4.05581 -5.918869 3.900722
v -3.775956 -5.740258 4.149505
v 1.42091E-05 -5.752041 4.149499
v 1.375196E-05 -5.918884 3.900718
v 1.42091E-05 -5.752041 4.149499
v 3.775989 -5.752015 3.313259
v 4.055849 -5.918838 3.064477
v 1.375196E-05 -5.918884 3.900718
v -9.042953 5.41835 2.870398E-05
v -8.943063 -4.775564 17.74414
v -9.042917 -4.775513 -1.311083E-06
v -8.943112 5.4183 17.74417
v -8.17347 5.918888 2.924123E-05
v -8.051336 5.918837 17.93752
v 3.775981 0.3214028 3.313265
v 3.775981 0.3213799 17.85202
v 3.434393 -11.41467 15.93598
v 3.775989 -5.752015 3.313259
v 3.775989 -5.752015 3.313259
v 3.434393 -11.41467 15.93598
v 3.737895 -11.45536 15.73876
v 4.055849 -5.918838 3.064477
v 4.055849 -5.918838 3.064477
v 3.737895 -11.45536 15.73876
v 5.192169 -11.16952 15.44572
v 5.377771 -5.918833 2.202682
v 5.377771 -5.918833 2.202682
v 5.192169 -11.16952 15.44572
v 7.107836 -10.42015 14.67748
v 7.135756 -5.9188 -2.538252E-06
v 8.48827 -10.22158 14.88327
v 8.351929 -5.632958 -2.231446E-06
v 9.042952 -4.775443 -1.311033E-06
v 9.263663 -9.854138 15.73466
v 2.131911 0.3213837 19.8939
v -3.775971 0.3213575 18.57866
v -8.051336 5.918837 17.93752
v 8.295599 5.918899 16.8516
vt 0.7133843 0.03209495
vt 0.7132749 0.0321622
vt 0.713279 0.03216197
vt 0.7134174 0.02989749
vt 0.7132155 0.03195401
vt 0.7148874 0.03171315
vt 0.7132155 0.0321622
vt 0.7141281 0.03199051
vt 0.7141269 0.03199038
vt 0.7141281 0.03199051
vt 0.7132155 0.0321622
vt 0.7132365 0.0321622
vt 0.7133049 0.03140343
vt 0.7132155 0.02987592
vt 0.7150021 0.0321622
vt 0.7141269 0.03199038
vt 0.7141469 0.03202055
vt 0.7132155 0.0321622
vt 0.7133049 0.03140343
vt 0.7150021 0.0321622
vt 0.714977 0.03192206
vt 0.7133843 0.03209495
vt 0.7132155 0.0321622
vt 0.7132749 0.0321622
vt 0.7134174 0.02989749
vt 0.7149221 0.03194365
vt 0.7148792 0.0321622
vt 0.7132155 0.0321622
vt 0.7138629 0.03146322
vt 0.7135909 0.03146322
vt 0.7149221 0.03194365
vt 0.7134174 0.02989749
vt 0.7148874 0.03171315
vt 0.7138629 0.03146322
vt 0.7133386 0.03072599
vt 0.7140682 0.03146322
vt 0.7133049 0.03140343
vt 0.714977 0.03192206
vt 0.7149821 0.0316837
vt 0.7132155 0.03139417
vt 0.7136757 0.03141719
vt 0.7134875 0.03139417
vt 0.7132155 0.03139417
vt 0.7135954 0.0321622
vt 0.7136757 0.03141719
vt 0.7952288 0.01619658
vt 0.7949568 0.01619658
vt 0.7949568 0.01619658
vt 0.7949568 0.01619658
vt 0.7947531 0.01619658
vt 0.7949568 0.01619658
vt 0.7947524 0.01619658
vt 0.7925384 0.0169646
vt 0.7925384 0.0169646
vt 0.7926453 0.01689555
vt 0.7926453 0.01689555
vt 0.7930207 0.01619658
vt 0.7930207 0.01619658
vt 0.7932928 0.01619658
vt 0.7932928 0.01619658
vt 0.7934973 0.01619658
vt 0.793498 0.01619658
vt 0.7932928 0.01619658
vt 0.7931567 0.01619658
vt 0.7930207 0.01619658
vt 0.7932928 0.01619658
vt 0.7934965 0.01619658
vt 0.7934973 0.01619658
vt 0.7694274 0.007936061
vt 0.7684374 0.007936095
vt 0.7684374 0.009674593
vt 0.7694274 0.009674565
vt 0.7684374 0.007936095
vt 0.7683628 0.00965231
vt 0.7684374 0.009674593
vt 0.7683628 0.007936106
vt 0.7672904 0.007936114
vt 0.7672904 0.009556804
vt 0.708548 0.03746749
vt 0.7089793 0.03746749
vt 0.7089793 0.03746749
vt 0.7082171 0.03746749
vt 0.7067932 0.03746749
vt 0.7067932 0.03746749
vt 0.7697129 0.01453781
vt 0.7697129 0.0162297
vt 0.7692816 0.0162297
vt 0.7692816 0.01453781
vt 0.7675268 0.01453781
vt 0.7675268 0.0162297
vt 0.7675268 0.0162297
vt 0.7675268 0.0162297
vt 0.7675268 0.01453781
vt 0.7675268 0.01453781
vt 0.7927685 0.01545935
vt 0.7926875 0.01543421
vt 0.792689 0.01543421
vt 0.7927685 0.01545935
vt 0.7930778 0.01618044
vt 0.7931392 0.01610399
vt 0.793082 0.01618057
vt 0.7930788 0.01619658
vt 0.7931353 0.01610399
vt 0.793083 0.01618057
vt 0.7930816 0.01619658
vt 0.793079 0.01618044
vt 0.7695019 0.007936054
vt 0.7705745 0.009652245
vt 0.7705745 0.007936043
vt 0.7695019 0.009652254
vt 0.7694274 0.007936061
vt 0.7694274 0.009674565
vt 0.7697129 0.0162297
vt 0.7697129 0.0162297
vt 0.7697129 0.01453782
vt 0.7697129 0.01453782
vt 0.7949545 0.01545935
vt 0.7949545 0.01545935
vt 0.7950342 0.01543421
vt 0.7950356 0.01543421
vt 0.7947524 0.01619658
vt 0.7947516 0.01619658
vt 0.7949568 0.01619658
vt 0.7949568 0.01619658
vt 0.7949568 0.01619658
vt 0.7949568 0.01619658
vt 0.7952288 0.01619658
vt 0.7952288 0.01619658
vt 0.7954171 0.0162196
vt 0.7954171 0.0162196
vt 0.7953367 0.0169646
vt 0.7953367 0.0169646
vt 0.7132365 0.0321622
vt 0.7141145 0.032031
vt 0.7141427 0.03199051
vt 0.7141281 0.03199051
vn -0.1929338 -0.03504709 0.9805856
vn -0.1929338 -0.03504709 0.9805856
vn -0.1929338 -0.03504709 0.9805856
vn -0.1594371 0 0.9872081
vn -0.1594371 0 0.9872081
vn -0.1594371 0 0.9872081
vn 0.2717934 -0.04766835 0.9611744
vn 0.2717934 -0.04766835 0.9611744
vn 0.2717934 -0.04766836 0.9611744
vn 0.6919495 -0.4591268 0.5571431
vn 0.6919495 -0.4591268 0.5571432
vn 0.6919495 -0.4591267 0.5571432
vn 0.04923891 -0.05528013 0.9972561
vn 0.04923892 -0.05528014 0.9972561
vn 0.04923891 -0.05528013 0.9972561
vn 0.3680382 -0.1602433 0.9158984
vn 0.3680382 -0.1602433 0.9158984
vn 0.3680382 -0.1602433 0.9158984
vn 0.2453596 -0.8584146 0.4504699
vn 0.2453595 -0.8584145 0.4504699
vn 0.2453595 -0.8584145 0.4504699
vn -0.159436 0 0.9872083
vn -0.159436 0 0.9872083
vn -0.159436 0 0.9872083
vn -0.2681265 -0.4587621 0.8471397
vn -0.2681265 -0.4587621 0.8471397
vn -0.2681265 -0.4587621 0.8471397
vn -0.1431353 -0.9730258 0.180923
vn -0.1431353 -0.9730258 0.180923
vn -0.1431353 -0.9730258 0.180923
vn -0.1822293 -0.1324399 0.9742957
vn -0.1822293 -0.1324398 0.9742957
vn -0.1822293 -0.1324399 0.9742957
vn -0.1894097 -0.07527289 0.9790086
vn -0.1894097 -0.07527289 0.9790086
vn -0.1894097 -0.07527289 0.9790086
vn 0.2676517 -0.7754391 0.5718887
vn 0.2676517 -0.7754391 0.5718888
vn 0.2676517 -0.7754391 0.5718887
vn 0.1888662 -0.8956414 -0.4026861
vn 0.1888662 -0.8956414 -0.4026861
vn 0.1888662 -0.8956414 -0.4026861
vn 0.2955174 -0.9452024 0.1387869
vn 0.2955174 -0.9452024 0.1387869
vn 0.2955174 -0.9452024 0.1387869
vn 0.08423267 -0.9713824 -0.2220832
vn 0 -1 -1.120475E-05
vn 0 -1 -1.113943E-05
vn -0.03769654 -0.9852272 -0.1670519
vn 0 -1 0
vn -0.04687968 -0.9598039 -0.2767289
vn -0.02879881 -0.9850202 -0.1700176
vn -0.9443644 -0.3288617 0.005073005
vn -0.9527345 -0.3037605 0.0051385
vn -0.6059008 -0.795535 0.002857849
vn -0.5384646 -0.8426445 0.002453908
vn -0.1123256 -0.9936714 0.0003259094
vn -0.1177514 -0.9930431 0.000339344
vn 0 -1 0
vn 0 -1 0
vn 0 -1 0
vn 0 -1 0
vn 0 -1 -1.113943E-05
vn 0 -1 -1.120475E-05
vn -0.1177514 -0.9930431 0.000339344
vn 0 -1 0
vn 0 -1 0
vn 0 -1 0
vn -0.2526229 0.9675636 0.001574311
vn 0.2639247 0.9645419 -0.001666306
vn 0.2326302 0.9725642 -0.001468377
vn -0.2438879 0.9698023 0.001519978
vn 0.2639247 0.9645419 -0.001666306
vn 0.8377923 0.5459484 -0.006660224
vn 0.2326302 0.9725642 -0.001468377
vn 0.857574 0.5143145 -0.006885663
vn 0.9497824 -0.2952897 -0.1035251
vn 0.9462304 -0.3053933 -0.1066907
vn 0 -1 0
vn 0 -1 0
vn 0 -1 0
vn 0 -1 0
vn 0 -1 0
vn 0 -1 0
vn 0.74955 -0.5060257 0.4267468
vn 0.707108 0 0.7071055
vn 0.1087584 0 0.9940683
vn 0.1088663 0 0.9940563
vn -0.8502452 -0.4606013 0.2548129
vn -0.6290956 0.01611918 0.7771608
vn 1 0 0
vn 0.707108 0 0.7071055
vn 0.74955 -0.5060257 0.4267468
vn 0.8944153 -0.4472375 -0.0001866253
vn 0.74955 -0.5060257 0.4267468
vn 0.5384288 -0.8426709 -0.0003515097
vn 0.5384288 -0.8426709 -0.0003515097
vn 0.8944153 -0.4472375 -0.0001866253
vn -0.001236274 -0.8211033 0.5707783
vn -0.001236274 -0.8211033 0.5707783
vn -0.001236274 -0.8211033 0.5707783
vn -0.001236274 -0.8211033 0.5707782
vn 0.1283828 -0.788756 0.6011505
vn 0.1283829 -0.788756 0.6011505
vn 0.1283828 -0.788756 0.6011504
vn 0.1283829 -0.788756 0.6011505
vn -0.8648497 0.5020056 0.005037576
vn -0.9527345 -0.3037605 0.0051385
vn -0.9443644 -0.3288617 0.005073005
vn -0.8470969 0.5314155 0.004947697
vn -0.2526229 0.9675636 0.001574311
vn -0.2438879 0.9698023 0.001519978
vn -0.6290956 0.01611918 0.7771608
vn -0.9997632 0.02007755 -0.008387664
vn -0.904896 -0.3822062 -0.1873007
vn -0.8502452 -0.4606013 0.2548129
vn -0.8502452 -0.4606013 0.2548129
vn -0.904896 -0.3822062 -0.1873007
vn -0.540956 -0.7637458 -0.3522199
vn -0.540956 -0.7637458 -0.3522199
vn -0.02879881 -0.9850202 -0.1700176
vn -0.06514414 -0.9208139 -0.3845231
vn -0.06514414 -0.9208139 -0.3845231
vn -0.04687968 -0.9598039 -0.2767289
vn -0.03769654 -0.9852272 -0.1670519
vn -0.07432422 -0.9412823 -0.329338
vn 0.04905093 -0.9481668 -0.3139646
vn 0.08423267 -0.9713824 -0.2220832
vn 0.5184041 -0.814826 -0.2594529
vn 0.4891722 -0.8313472 -0.2637658
vn 0.9497824 -0.2952897 -0.1035251
vn 0.9462304 -0.3053933 -0.1066907
vn -0.009783656 0.3140153 0.9493675
vn -0.009783656 0.3140153 0.9493675
vn -0.009783657 0.3140153 0.9493675
vn -0.009783656 0.3140153 0.9493675
g Boss_Color_143_0
f 3/3/3 2/2/2 1/1/1
f 6/6/6 5/5/5 4/4/4
f 9/9/9 8/8/8 7/7/7
f 12/12/12 11/11/11 10/10/10
f 15/15/15 14/14/14 13/13/13
f 18/18/18 17/17/17 16/16/16
f 21/21/21 20/20/20 19/19/19
f 24/24/24 23/23/23 22/22/22
f 27/27/27 26/26/26 25/25/25
f 30/30/30 29/29/29 28/28/28
f 33/33/33 32/32/32 31/31/31
f 36/36/36 35/35/35 34/34/34
f 39/39/39 38/38/38 37/37/37
f 42/42/42 41/41/41 40/40/40
f 45/45/45 44/44/44 43/43/43
f 48/48/48 47/47/47 46/46/46
f 49/49/49 48/48/48 46/46/46
f 48/48/48 51/51/51 50/50/50
f 51/51/51 52/52/52 50/50/50
f 55/55/55 54/54/54 53/53/53
f 56/56/56 55/55/55 53/53/53
f 57/57/57 55/55/55 56/56/56
f 58/58/58 57/57/57 56/56/56
f 57/57/57 58/58/58 59/59/59
f 60/60/60 57/57/57 59/59/59
f 59/59/59 61/61/61 60/60/60
f 61/61/61 62/62/62 60/60/60
f 65/65/65 64/64/64 63/63/63
f 66/66/66 65/65/65 63/63/63
f 63/63/63 67/67/67 66/66/66
f 67/67/67 68/68/68 66/66/66
f 71/71/71 70/70/70 69/69/69
f 72/72/72 71/71/71 69/69/69
f 75/75/75 74/74/74 73/73/73
f 74/74/74 76/76/76 73/73/73
f 76/76/76 74/74/74 77/77/77
f 74/74/74 78/78/78 77/77/77
f 81/81/81 80/80/80 79/79/79
f 82/82/82 81/81/81 79/79/79
f 82/82/82 79/79/79 83/83/83
f 79/79/79 84/84/84 83/83/83
f 87/87/87 86/86/86 85/85/85
f 88/88/88 87/87/87 85/85/85
f 87/87/87 88/88/88 89/89/89
f 90/90/90 87/87/87 89/89/89
f 93/93/93 92/92/92 91/91/91
f 94/94/94 93/93/93 91/91/91
f 97/97/97 96/96/96 95/95/95
f 98/98/98 97/97/97 95/95/95
f 101/101/101 100/100/100 99/99/99
f 102/102/102 101/101/101 99/99/99
f 105/105/105 104/104/104 103/103/103
f 106/106/106 105/105/105 103/103/103
f 109/109/109 108/108/108 107/107/107
f 108/108/108 110/110/110 107/107/107
f 107/107/107 110/110/110 111/111/111
f 110/110/110 112/112/112 111/111/111
f 115/115/115 114/114/114 113/113/113
f 116/116/116 115/115/115 113/113/113
f 119/119/119 118/118/118 117/117/117
f 120/120/120 119/119/119 117/117/117
f 123/123/123 122/122/122 121/121/121
f 124/124/124 123/123/123 121/121/121
f 127/127/127 126/126/126 125/125/125
f 128/128/128 127/127/127 125/125/125
f 129/129/129 127/127/127 128/128/128
f 130/130/130 129/129/129 128/128/128
f 130/130/130 131/131/131 129/129/129
f 131/131/131 132/132/132 129/129/129
f 135/135/135 134/134/134 133/133/133
f 136/136/136 135/135/135 133/133/133
