g Boss_Color_105
v 13.99266 -4.708273 13.47488
v 13.04707 -9.845083 16.43431
v 12.38166 -9.645512 16.48612
v 11.31536 -3.252012 14.33339
v 11.02908 -8.189251 18.15019
v 11.18042 -7.835361 18.73082
v 0.3854308 9.679496 6.39684
v -3.242572 13.11961 10.08492
v -4.068941 11.96733 13.0126
v 12.58168 -10.15265 16.32519
v 19.76148 -17.76929 7.660376
v 12.70557 -16.10896 7.533311
v 8.070406 -11.00502 13.40427
v 8.664616 -5.714977 10.02512
v 13.99266 -4.708273 13.47488
v 12.38166 -9.645512 16.48612
v 7.870386 -10.49789 13.5652
v 19.76148 -17.76929 7.660376
v 20.78501 -18.46326 6.488438
v 12.45228 -16.27615 6.674469
v 12.70557 -16.10896 7.533311
v 20.29791 -17.6517 7.51372
v 21.28633 -13.65724 4.821493
v 21.35934 -16.14225 4.924091
v 20.78501 -18.46326 6.488438
v 21.26106 -16.47299 4.935911
v 20.73888 -17.35703 4.963099
v 13.04707 -9.845083 16.43431
v 12.58168 -10.15265 16.32519
v 12.38166 -9.645512 16.48612
v 20.29791 -17.6517 7.51372
v 19.76148 -17.76929 7.660376
v 20.78501 -18.46326 6.488438
v 8.070406 -11.00502 13.40427
v 12.38166 -9.645512 16.48612
v 12.58168 -10.15265 16.32519
v 7.870386 -10.49789 13.5652
v 7.71904 -10.85178 12.98456
v 8.664616 -5.714977 10.02512
v 12.70557 -16.10896 7.533311
v 12.28317 -15.76575 7.369388
v 12.45228 -16.27615 6.674469
v 10.71503 -8.142922 18.6217
v 6.203757 -8.995298 15.70077
v 1.389241 -3.925247 21.45561
v 3.714573 -0.4923992 27.40263
v 0.654053 -3.487687 21.8349
v 2.79514 0.2258644 28.13077
v 1.814998 0.5198364 28.20708
v 0.5601046 0.4536972 27.64823
v -0.2456872 -3.434893 21.5829
v -7.26313 -1.0743 22.50894
v -4.541573 -4.206001 18.86163
v -3.296563 0.5816469 14.9822
v 0.9591901 1.391378 17.73985
v 2.490874 0.9319887 17.6206
v 7.312021 -4.258707 11.68919
v 4.846556 -0.9108764 4.022316
v 8.664616 -5.714977 10.02512
v 13.1117 -10.50291 4.553964
v 11.31536 -3.252012 14.33339
v 13.99266 -4.708273 13.47488
v 8.664616 -5.714977 10.02512
v 7.312021 -4.258707 11.68919
v 2.490874 0.9319887 17.6206
v 5.852391 -8.842056 15.28107
v 7.312021 -4.258707 11.68919
v 1.288259 -3.928091 20.89625
v 0.6004765 -3.515922 21.25555
v 0.9591901 1.391378 17.73985
v -0.2434263 -3.468701 21.0155
v 7.312021 -4.258707 11.68919
v 6.517801 -9.041627 15.22926
v 11.02908 -8.189251 18.15019
v 11.31536 -3.252012 14.33339
v 11.31536 -3.252012 14.33339
v 11.18042 -7.835361 18.73082
v 2.604875 -0.02874851 26.84586
v 7.052398 12.59138 19.14556
v 7.052398 12.59138 19.14556
v 2.604875 -0.02874851 26.84586
v 2.988731 0.6970797 28.38291
v 6.111553 13.31721 19.87705
v 1.949039 1.008904 28.46386
v 5.071859 13.62903 19.958
v 3.794693 13.56844 19.39919
v 0.6718678 0.9483147 27.90505
v 7.052398 12.59138 19.14556
v 15.32772 4.41198 3.983262
v 19.16257 -0.4470344 4.246599
v 6.476889 13.93754 14.86684
v 6.111553 13.31721 19.87705
v 4.398221 14.56098 15.02868
v 5.071859 13.62903 19.958
v 3.794693 13.56844 19.39919
v -4.068941 11.96733 13.0126
v -3.242572 13.11961 10.08492
v 6.476889 13.93754 14.86684
v 8.521516 22.20038 9.297749
v 13.30367 17.00196 3.435359
v 15.32772 4.41198 3.983262
v 11.18042 -7.835361 18.73082
v 11.02908 -8.189251 18.15019
v 10.71503 -8.142922 18.6217
v 2.604875 -0.02874851 26.84586
v 3.714573 -0.4923992 27.40263
v 2.988731 0.6970797 28.38291
v 2.79514 0.2258644 28.13077
v 1.949039 1.008904 28.46386
v 1.814998 0.5198364 28.20708
v 0.5601046 0.4536972 27.64823
v 0.6718678 0.9483147 27.90505
v 6.203757 -8.995298 15.70077
v 10.71503 -8.142922 18.6217
v 11.02908 -8.189251 18.15019
v 6.517801 -9.041627 15.22926
v 5.852391 -8.842056 15.28107
v 7.312021 -4.258707 11.68919
v 1.389241 -3.925247 21.45561
v 1.288259 -3.928091 20.89625
v 0.654053 -3.487687 21.8349
v 0.6004765 -3.515922 21.25555
v -0.2434263 -3.468701 21.0155
v -0.2456872 -3.434893 21.5829
v -4.541573 -4.206001 18.86163
v -4.296165 -4.234439 18.39147
v 6.476889 13.93754 14.86684
v 4.398221 14.56098 15.02868
v 6.442839 22.82382 9.459589
v 8.521516 22.20038 9.297749
v 0.9591901 1.391378 17.73985
v -3.296563 0.5816469 14.9822
v -4.296165 -4.234439 18.39147
v -0.2434263 -3.468701 21.0155
v -7.345097 5.966653 16.99705
v -4.068941 11.96733 13.0126
v 3.794693 13.56844 19.39919
v 0.6718678 0.9483147 27.90505
v -7.464228 -0.5889454 22.63716
v -3.242572 13.11961 10.08492
v -1.197954 21.38246 4.515827
v 4.398221 14.56098 15.02868
v 6.442839 22.82382 9.459589
v 0.5601046 0.4536972 27.64823
v -7.26313 -1.0743 22.50894
v -7.464228 -0.5889454 22.63716
v 0.6718678 0.9483147 27.90505
v 13.99266 -4.708273 13.47488
v 20.29791 -17.6517 7.51372
v 13.04707 -9.845083 16.43431
v 21.28633 -13.65724 4.821493
v 19.8801 -4.91016 4.440829
v 19.16257 -0.4470344 4.246599
v 11.31536 -3.252012 14.33339
v 7.052398 12.59138 19.14556
v -4.541573 -4.206001 18.86163
v -3.296563 0.5816469 14.9822
v -7.345097 5.966653 16.99705
v -7.26313 -1.0743 22.50894
v 0.3854308 9.679496 6.39684
v 2.444359 10.11808 3.531659
v -1.197954 21.38246 4.515827
v -3.242572 13.11961 10.08492
v -4.068941 11.96733 13.0126
v -7.345097 5.966653 16.99705
v -3.296563 0.5816469 14.9822
v 0.3854308 9.679496 6.39684
v 0.3854308 9.679496 6.39684
v 4.846556 -0.9108764 4.022316
v 2.444359 10.11808 3.531659
v -3.296563 0.5816469 14.9822
v 13.1117 -10.50291 4.553964
v 8.664616 -5.714977 10.02512
v 7.71904 -10.85178 12.98456
v 12.28317 -15.76575 7.369388
v 12.45228 -16.27615 6.674469
v 20.73888 -17.35703 4.963099
v 13.1117 -10.50291 4.553964
v 12.45228 -16.27615 6.674469
v 20.78501 -18.46326 6.488438
vt 0.05882987 0.01399068
vt 0.05888619 0.01525705
vt 0.05882987 0.01525705
vt 0.06075073 0.01399068
vt 0.06075073 0.01525705
vt 0.06069441 0.01525705
vt 0.02697577 0.0423451
vt 0.02638374 0.0423657
vt 0.02638374 0.0423657
vt 0.03599808 0.01566361
vt 0.03745516 0.01567521
vt 0.03696907 0.0150685
vt 0.03599808 0.0150801
vt 0.01075085 0.01709564
vt 0.01075085 0.01709564
vt 0.01075085 0.01781578
vt 0.01075085 0.01781578
vt 0.03745516 0.01567521
vt 0.0376778 0.01556965
vt 0.03706267 0.01503233
vt 0.03696907 0.0150685
vt 0.01199124 0.01781578
vt 0.01199124 0.0172239
vt 0.01216335 0.01747186
vt 0.01217555 0.01781578
vt 0.01217555 0.01750736
vt 0.01218309 0.01781578
vt 0.05888619 0.01525705
vt 0.05888619 0.01531708
vt 0.05882987 0.01525705
vt 0.06047499 0.01525705
vt 0.06043978 0.01531708
vt 0.06071945 0.01525705
vt 0.05888619 0.01531708
vt 0.05882987 0.01525705
vt 0.05888619 0.01531708
vt 0.05882987 0.01525705
vt 0.05888619 0.01525705
vt 0.05882987 0.01399068
vt 0.0599215 0.01531708
vt 0.05988628 0.01525705
vt 0.0600213 0.01531708
vt 0.03770556 0.01566361
vt 0.03770556 0.0150801
vt 0.03673457 0.0150685
vt 0.03624848 0.01567521
vt 0.03664096 0.01503233
vt 0.03610364 0.01564745
vt 0.03602584 0.01556965
vt 0.03599808 0.01542481
vt 0.03660479 0.01493872
vt 0.03600618 0.01440782
vt 0.03659821 0.01438722
vt 0.00914578 0.03626835
vt 0.009145778 0.03626835
vt 0.009229384 0.03626835
vt 0.009910651 0.03626835
vt 0.009483939 0.03626835
vt 0.01029285 0.03607728
vt 0.01064484 0.03607728
vt 0.03675625 0.04219158
vt 0.03694738 0.04219158
vt 0.03694738 0.04219158
vt 0.03675625 0.04219158
vt 0.03581219 0.03314568
vt 0.03656624 0.03386582
vt 0.0366087 0.03314568
vt 0.03581219 0.03386582
vt 0.0357414 0.03386584
vt 0.03571444 0.03314568
vt 0.03571444 0.03386582
vt 0.01052738 0.01709564
vt 0.01052738 0.01781578
vt 0.01052738 0.01781578
vt 0.01052738 0.01709564
vt 0.01052738 0.01709564
vt 0.01048492 0.01781578
vt 0.009286988 0.01781578
vt 0.009886833 0.01746752
vt 0.009445348 0.01609259
vt 0.009286988 0.01781578
vt 0.00916903 0.01781578
vt 0.00916903 0.01594579
vt 0.009102681 0.01781578
vt 0.009102681 0.01594579
vt 0.00907909 0.01594579
vt 0.00907909 0.01781578
vt 0.06059147 0.04500137
vt 0.06134614 0.0442896
vt 0.06153076 0.04500137
vt 0.06065987 0.0442896
vt 0.06053609 0.04500137
vt 0.0605976 0.0442896
vt 0.06050494 0.04500137
vt 0.06049386 0.04500137
vt 0.06049386 0.04500137
vt 0.06059745 0.0442896
vt 0.01001381 0.01754873
vt 0.01001381 0.01754873
vt 0.0104571 0.01754891
vt 0.01077147 0.01754888
vt 0.06069441 0.01525705
vt 0.06075073 0.01525705
vt 0.06069441 0.01531708
vt 0.0591056 0.01525704
vt 0.05914082 0.01531708
vt 0.05894916 0.01525705
vt 0.05898638 0.01531708
vt 0.05886115 0.01525705
vt 0.05890342 0.01531708
vt 0.05887382 0.01531708
vt 0.05882987 0.01525704
vt 0.06069441 0.01531708
vt 0.06069441 0.01531708
vt 0.06075073 0.01525705
vt 0.06075073 0.01525705
vt 0.06069441 0.01525705
vt 0.06075073 0.01399068
vt 0.0596591 0.01531708
vt 0.05969432 0.01525705
vt 0.05955929 0.01531708
vt 0.05960044 0.01525708
vt 0.05956467 0.01525705
vt 0.05952072 0.01531708
vt 0.0595137 0.01531708
vt 0.05956467 0.01525705
vt 0.01001381 0.01754873
vt 0.009945017 0.01738678
vt 0.009945055 0.01748257
vt 0.01001381 0.01754873
vt 0.03571444 0.03314568
vt 0.03571444 0.03314568
vt 0.03571444 0.03386582
vt 0.03571444 0.03386582
vt 0.00907909 0.01680026
vt 0.009079091 0.01594579
vt 0.00907909 0.01594579
vt 0.00907909 0.01781578
vt 0.00907909 0.01781578
vt 0.0099449 0.01708635
vt 0.0099449 0.01708635
vt 0.009945017 0.01738678
vt 0.009945055 0.01748257
vt 0.05887382 0.01531708
vt 0.05888246 0.01531708
vt 0.05882987 0.01525704
vt 0.05882987 0.01525704
vt 0.01075085 0.01709564
vt 0.01199124 0.01781578
vt 0.01079331 0.01781578
vt 0.01199124 0.0172239
vt 0.01152542 0.01637761
vt 0.01128774 0.01594579
vt 0.01052738 0.01709564
vt 0.009445348 0.01609259
vt 0.02697577 0.0423451
vt 0.02697577 0.0423451
vt 0.02638374 0.0423657
vt 0.02638374 0.0423657
vt 0.02697577 0.0423451
vt 0.02658778 0.0423586
vt 0.02638374 0.0423657
vt 0.02638374 0.0423657
vt 0.02638374 0.0423657
vt 0.02638374 0.0423657
vt 0.02697577 0.0423451
vt 0.02697577 0.0423451
vt 0.00914578 0.03626835
vt 0.009483939 0.03626835
vt 0.00914578 0.03626835
vt 0.00914578 0.03626835
vt 0.03762868 0.03325797
vt 0.03683217 0.03314568
vt 0.03687463 0.03386582
vt 0.03762868 0.03386582
vt 0.03769947 0.03386584
vt 0.01007678 0.03740107
vt 0.009471104 0.03686265
vt 0.009452779 0.03691007
vt 0.01006791 0.03744739
vn 0.20521 0.4599431 0.8639104
vn 0.2114377 -0.1500014 0.9658124
vn -0.112716 -0.07277599 0.9909585
vn 0.973784 -0.1717606 -0.1491405
vn 0.6413462 -0.7607368 0.09977213
vn 0.9960024 0.004676075 0.08920453
vn -0.8110556 -0.4289338 -0.3977494
vn -0.8110556 -0.4289338 -0.3977493
vn -0.8110556 -0.4289338 -0.3977494
vn -0.2010044 -0.8123115 0.5474918
vn -0.2010044 -0.8123115 0.5474917
vn -0.2010044 -0.8123115 0.5474918
vn -0.2010044 -0.8123115 0.5474917
vn -0.5217993 0.5617946 0.6419599
vn -0.5217993 0.5617946 0.6419599
vn -0.5217992 0.5617946 0.6419599
vn -0.5217993 0.5617946 0.6419598
vn -0.2299163 -0.9242689 0.3047385
vn -0.2299163 -0.9242689 0.3047385
vn -0.2299163 -0.9242689 0.3047385
vn -0.2299163 -0.9242689 0.3047385
vn 0.8764307 0.1005243 0.4709182
vn 0.8482803 0.1351806 0.5120026
vn 0.9457449 -0.01527757 0.3245507
vn 0.9617276 -0.06475208 0.2662466
vn 0.9329363 -0.331935 -0.1394597
vn 0.7940008 -0.4804555 -0.3724584
vn 0.2114377 -0.1500014 0.9658124
vn -0.0638201 -0.4773445 0.8763956
vn -0.112716 -0.07277599 0.9909585
vn 0.313548 -0.6378188 0.7034733
vn 0.2949822 -0.6138682 0.7322236
vn 0.3293776 -0.6579044 0.6772533
vn -0.6318237 -0.5843352 0.5092654
vn -0.112716 -0.07277599 0.9909585
vn -0.0638201 -0.4773445 0.8763956
vn -0.8208668 -0.2065775 0.5324504
vn -0.8996693 -0.3598875 0.2471361
vn -0.9652618 0.2387892 0.1060622
vn -0.6496775 -0.7154877 0.2568976
vn -0.6414376 -0.7315612 0.2310323
vn -0.6691266 -0.6672267 0.3272277
vn -0.2010043 -0.8123117 0.5474916
vn -0.2010043 -0.8123117 0.5474916
vn -0.2010043 -0.8123118 0.5474915
vn -0.2010043 -0.8123117 0.5474916
vn -0.2010028 -0.8123125 0.547491
vn -0.2010028 -0.8123125 0.547491
vn -0.2010058 -0.8123117 0.547491
vn -0.2010045 -0.8123115 0.5474917
vn -0.2010045 -0.8123115 0.5474917
vn -0.2010045 -0.8123115 0.5474917
vn -0.2010045 -0.8123115 0.5474917
vn -0.3950093 -0.9157284 0.07354713
vn -0.3950093 -0.9157283 0.07354713
vn -0.3950093 -0.9157283 0.07354713
vn -0.5671046 -0.8233048 0.02369788
vn -0.5892522 -0.807777 0.01667661
vn -0.7557191 -0.6535252 -0.04235033
vn -0.7557188 -0.6535255 -0.04235081
vn -0.2077486 -0.7886506 0.5786801
vn -0.2077486 -0.7886506 0.5786801
vn -0.2077486 -0.7886506 0.5786801
vn -0.2077486 -0.7886506 0.5786801
vn -0.5871572 -0.3746325 -0.7175632
vn -0.8290501 -0.1566437 -0.5367855
vn -0.8290501 -0.1566437 -0.5367854
vn -0.7209218 -0.2557324 -0.6441062
vn -0.2183752 -0.5125241 -0.8304404
vn 0.1773953 -0.6040844 -0.7769253
vn 0.363305 -0.581008 -0.7283125
vn 0.5386853 -0.5457065 -0.6418899
vn 0.5386853 -0.5457065 -0.6418899
vn 0.5386853 -0.5457065 -0.6418899
vn 0.5386853 -0.5457065 -0.6418899
vn 0.8043614 0.1760227 0.567467
vn 0.795437 0.407214 0.4488394
vn 0.9060185 0.02475375 0.4225137
vn 0.8942184 -0.009855348 0.4475223
vn 0.8942184 -0.009855348 0.4475223
vn 0.9060185 0.02475375 0.4225137
vn 0.6825082 0.2578308 0.6838901
vn 0.6971287 0.2459834 0.6734267
vn -0.06886502 0.5692331 0.8192871
vn -0.06886552 0.5692332 0.8192869
vn -0.4471525 0.5928555 0.6697589
vn -0.4375676 0.5744951 0.6917297
vn 0.7154667 0.6881888 0.1204307
vn 0.7791848 0.6201979 0.09069587
vn 0.7791848 0.6201979 0.09069587
vn 0.6030259 0.7889514 0.1179639
vn 0.4485898 0.882391 0.1419625
vn -0.07176136 0.9796449 0.1874733
vn 0.1331066 0.9770117 0.1665254
vn -0.2086658 0.9564204 0.2042515
vn -0.3310817 0.9208931 0.2057688
vn -0.3310817 0.9208931 0.2057688
vn 0.8288822 0.1567368 0.5370175
vn 0.8288509 0.1568568 0.5370309
vn 0.8288878 0.1567159 0.5370151
vn 0.8289099 0.1566308 0.5370057
vn 0.9960024 0.004676075 0.08920453
vn 0.6413462 -0.7607368 0.09977213
vn 0.724608 -0.6049614 0.3300982
vn 0.7461876 0.6603838 -0.08424597
vn 0.7472395 0.6637986 -0.0316935
vn 0.2774536 -0.2194154 0.9353482
vn 0.7742683 0.3186199 0.5467998
vn -0.1938517 -0.4160249 0.8884507
vn -0.2327461 -0.4041546 0.8845837
vn -0.4261945 -0.360565 0.8296693
vn -0.3952034 -0.3599499 0.8451334
vn -0.2891715 -0.9532511 0.08770499
vn 0.724608 -0.6049614 0.3300982
vn 0.6413462 -0.7607368 0.09977213
vn -0.1382622 -0.9415005 -0.307344
vn -0.4551834 -0.8384413 -0.2997067
vn -0.2285718 -0.5543646 -0.8002717
vn -0.5283893 -0.8409345 0.1167647
vn -0.5661834 -0.8126768 0.1378139
vn -0.281155 -0.9567646 0.07452086
vn -0.2811546 -0.9567648 0.07452083
vn 0.05024711 -0.9957342 0.07738648
vn -0.003035167 -0.9976268 0.06878658
vn 0.1248653 -0.988166 0.08908855
vn 0.1248653 -0.988166 0.08908856
vn 0.2172596 0.5080121 0.8334999
vn 0.2172596 0.5080121 0.8334999
vn 0.2172596 0.5080121 0.8334998
vn 0.2172596 0.5080121 0.8334998
vn 0.1773953 -0.6040844 -0.7769253
vn 0.5221008 -0.5620245 -0.6415132
vn 0.5221008 -0.5620245 -0.6415132
vn 0.363305 -0.581008 -0.7283125
vn -0.5333016 0.5899259 0.6062812
vn -0.5549836 0.6487437 0.5206963
vn -0.4471525 0.5928555 0.6697589
vn -0.4375676 0.5744951 0.6917297
vn -0.5217985 0.561794 0.6419609
vn -0.5214838 0.5618531 0.6421648
vn -0.5214834 0.5618535 0.6421649
vn -0.5214834 0.5618534 0.6421648
vn -0.5214831 0.5618538 0.6421649
vn -0.4261945 -0.360565 0.8296693
vn -0.4598469 -0.3607415 0.8114225
vn -0.4598469 -0.3607416 0.8114225
vn -0.3952034 -0.3599499 0.8451334
vn 0.8047489 0.1332304 0.5784712
vn 0.8764307 0.1005243 0.4709182
vn 0.8290496 0.1566431 0.5367863
vn 0.8482803 0.1351806 0.5120026
vn 0.8072518 0.1355596 0.5744287
vn 0.7812918 0.1121731 0.6140034
vn 0.8043614 0.1760227 0.567467
vn 0.8942184 -0.009855348 0.4475223
vn -0.8096833 -0.3140187 -0.4957874
vn -0.8096833 -0.3140187 -0.4957874
vn -0.8096833 -0.3140187 -0.4957874
vn -0.8096833 -0.3140187 -0.4957874
vn -0.7835319 -0.2005354 -0.5881014
vn -0.7835319 -0.2005354 -0.5881014
vn -0.783532 -0.2005354 -0.5881014
vn -0.783532 -0.2005354 -0.5881014
vn -0.7703189 -0.1590773 -0.6174975
vn -0.7703189 -0.1590773 -0.6174975
vn -0.7703189 -0.1590773 -0.6174975
vn -0.7703189 -0.1590773 -0.6174975
vn -0.7817159 -0.1965938 -0.591837
vn -0.7817159 -0.1965938 -0.591837
vn -0.7817159 -0.1965938 -0.5918371
vn -0.7983004 -0.2096923 -0.5645756
vn -0.8438125 -0.1437498 -0.5170265
vn -0.8290495 -0.1566447 -0.5367861
vn -0.8290495 -0.1566447 -0.5367861
vn -0.9190313 -0.06344246 -0.3890456
vn -0.9681846 0.01893775 -0.2495194
vn -0.2362753 -0.4384792 -0.8671275
vn -0.2362753 -0.4384792 -0.8671274
vn -0.2362753 -0.4384792 -0.8671274
vn -0.2362753 -0.4384792 -0.8671275
g Boss_Color_105_0
f 3/3/3 2/2/2 1/1/1
f 6/6/6 5/5/5 4/4/4
f 9/9/9 8/8/8 7/7/7
f 12/12/12 11/11/11 10/10/10
f 13/13/13 12/12/12 10/10/10
f 16/16/16 15/15/15 14/14/14
f 17/17/17 16/16/16 14/14/14
f 20/20/20 19/19/19 18/18/18
f 21/21/21 20/20/20 18/18/18
f 24/24/24 23/23/23 22/22/22
f 25/25/25 24/24/24 22/22/22
f 25/25/25 26/26/26 24/24/24
f 25/25/25 27/27/27 26/26/26
f 30/30/30 29/29/29 28/28/28
f 31/31/31 28/28/28 29/29/29
f 32/32/32 31/31/31 29/29/29
f 33/33/33 31/31/31 32/32/32
f 36/36/36 35/35/35 34/34/34
f 35/35/35 37/37/37 34/34/34
f 38/38/38 34/34/34 37/37/37
f 38/38/38 37/37/37 39/39/39
f 34/34/34 38/38/38 40/40/40
f 38/38/38 41/41/41 40/40/40
f 40/40/40 41/41/41 42/42/42
f 45/45/45 44/44/44 43/43/43
f 46/46/46 45/45/45 43/43/43
f 47/47/47 45/45/45 46/46/46
f 48/48/48 47/47/47 46/46/46
f 49/49/49 47/47/47 48/48/48
f 47/47/47 49/49/49 50/50/50
f 51/51/51 47/47/47 50/50/50
f 50/50/50 52/52/52 51/51/51
f 52/52/52 53/53/53 51/51/51
f 56/56/56 55/55/55 54/54/54
f 57/57/57 56/56/56 54/54/54
f 54/54/54 58/58/58 57/57/57
f 57/57/57 58/58/58 59/59/59
f 59/59/59 58/58/58 60/60/60
f 63/63/63 62/62/62 61/61/61
f 64/64/64 63/63/63 61/61/61
f 67/67/67 66/66/66 65/65/65
f 66/66/66 68/68/68 65/65/65
f 68/68/68 69/69/69 65/65/65
f 69/69/69 70/70/70 65/65/65
f 69/69/69 71/71/71 70/70/70
f 74/74/74 73/73/73 72/72/72
f 75/75/75 74/74/74 72/72/72
f 78/78/78 77/77/77 76/76/76
f 79/79/79 78/78/78 76/76/76
f 82/82/82 81/81/81 80/80/80
f 83/83/83 82/82/82 80/80/80
f 82/82/82 83/83/83 84/84/84
f 83/83/83 85/85/85 84/84/84
f 85/85/85 86/86/86 84/84/84
f 86/86/86 87/87/87 84/84/84
f 90/90/90 89/89/89 88/88/88
f 89/89/89 91/91/91 88/88/88
f 88/88/88 91/91/91 92/92/92
f 91/91/91 93/93/93 92/92/92
f 93/93/93 94/94/94 92/92/92
f 93/93/93 95/95/95 94/94/94
f 96/96/96 95/95/95 93/93/93
f 97/97/97 96/96/96 93/93/93
f 100/100/100 99/99/99 98/98/98
f 101/101/101 100/100/100 98/98/98
f 104/104/104 103/103/103 102/102/102
f 102/102/102 105/105/105 104/104/104
f 105/105/105 106/106/106 104/104/104
f 105/105/105 107/107/107 106/106/106
f 107/107/107 108/108/108 106/106/106
f 107/107/107 109/109/109 108/108/108
f 109/109/109 110/110/110 108/108/108
f 110/110/110 109/109/109 111/111/111
f 109/109/109 112/112/112 111/111/111
f 115/115/115 114/114/114 113/113/113
f 116/116/116 115/115/115 113/113/113
f 113/113/113 117/117/117 116/116/116
f 116/116/116 117/117/117 118/118/118
f 117/117/117 113/113/113 119/119/119
f 120/120/120 117/117/117 119/119/119
f 120/120/120 119/119/119 121/121/121
f 122/122/122 120/120/120 121/121/121
f 123/123/123 122/122/122 121/121/121
f 124/124/124 123/123/123 121/121/121
f 123/123/123 124/124/124 125/125/125
f 126/126/126 123/123/123 125/125/125
f 129/129/129 128/128/128 127/127/127
f 130/130/130 129/129/129 127/127/127
f 133/133/133 132/132/132 131/131/131
f 134/134/134 133/133/133 131/131/131
f 137/137/137 136/136/136 135/135/135
f 137/137/137 135/135/135 138/138/138
f 138/138/138 135/135/135 139/139/139
f 142/142/142 141/141/141 140/140/140
f 142/142/142 143/143/143 141/141/141
f 146/146/146 145/145/145 144/144/144
f 147/147/147 146/146/146 144/144/144
f 150/150/150 149/149/149 148/148/148
f 149/149/149 151/151/151 148/148/148
f 151/151/151 152/152/152 148/148/148
f 148/148/148 152/152/152 153/153/153
f 153/153/153 154/154/154 148/148/148
f 153/153/153 155/155/155 154/154/154
f 158/158/158 157/157/157 156/156/156
f 159/159/159 158/158/158 156/156/156
f 162/162/162 161/161/161 160/160/160
f 163/163/163 162/162/162 160/160/160
f 166/166/166 165/165/165 164/164/164
f 167/167/167 166/166/166 164/164/164
f 170/170/170 169/169/169 168/168/168
f 171/171/171 168/168/168 169/169/169
f 174/174/174 173/173/173 172/172/172
f 175/175/175 174/174/174 172/172/172
f 175/175/175 172/172/172 176/176/176
f 179/179/179 178/178/178 177/177/177
f 180/180/180 179/179/179 177/177/177
