g Boss_Color_03
v 0.7723371 -3.72529E-06 -0.6480718
v -0.7597493 -5.327165E-06 0.637508
v -32.6198 4.334724 -37.3061
v -31.0877 4.334724 -38.59166
v -32.6198 4.334724 -37.3061
v -0.7597493 -5.334616E-06 0.6375082
v 0.7723371 -3.71784E-06 -0.6480718
v -31.0877 4.334724 -38.59166
vt 0.2928267 0.03722664
vt 0.2929651 0.03722664
vt 0.2929651 0.03650183
vt 0.2928267 0.03650183
vt 0.2929651 0.03650183
vt 0.2929651 0.03722664
vt 0.2928267 0.03722664
vt 0.2928267 0.03650183
vn 0.05602268 0.9961946 0.06676616
vn 0.05602268 0.9961946 0.06676617
vn 0.05602268 0.9961946 0.06676617
vn 0.05602268 0.9961946 0.06676617
vn -0.05602269 -0.9961946 -0.06676617
vn -0.05602269 -0.9961946 -0.06676618
vn -0.05602269 -0.9961946 -0.06676617
vn -0.05602269 -0.9961946 -0.06676617
g Boss_Color_03_0
f 3/3/3 2/2/2 1/1/1
f 4/4/4 3/3/3 1/1/1
f 7/7/7 6/6/6 5/5/5
f 8/8/8 7/7/7 5/5/5
