g Boss_Color_04
v 3.25474 -1.070532 3.543481
v 0.8894155 0.449182 4.827295
v 2.381629 1.202804 4.144478
v 1.762525 -1.824153 4.226295
v 3.455662 -2.956053 1.90153
v 1.963447 -3.709674 2.584343
v 2.930562 -3.948534 -0.3414203
v 1.438348 -4.702156 0.3413937
v 1.820137 -3.782046 -2.584369
v 0.3279247 -4.535666 -1.901556
v 0.4219303 -2.501191 -4.226318
v -1.070289 -3.254816 -3.543502
v -0.8894167 -0.4491847 -4.827309
v -2.381632 -1.202806 -4.144495
v 2.381629 1.202804 4.144478
v 0.8894155 0.449182 4.827295
v -0.4219289 2.501193 4.226301
v 1.070283 3.254812 3.543489
v -1.820141 3.782041 2.584353
v -0.3279233 4.535665 1.901538
v -2.930559 3.948533 0.3414059
v -1.438344 4.702154 -0.3414085
v -3.455658 2.95605 -1.901543
v -1.963443 3.709672 -2.584358
v -3.254741 1.070527 -3.543494
v -1.762525 1.824149 -4.226309
v -2.381632 -1.202806 -4.144495
v -0.8894167 -0.4491847 -4.827309
v 2.381629 1.202804 4.144478
v 2.475017 1.249968 3.332164
v 3.219756 -0.6891253 2.81953
v 3.25474 -1.070532 3.543481
v 3.391139 -2.297423 1.418989
v 3.455662 -2.956053 1.90153
v 2.943243 -3.143983 -0.4941862
v 2.930562 -3.948534 -0.3414203
v 1.99608 -3.001973 -2.407361
v 1.820137 -3.782046 -2.584369
v 0.8034487 -1.909438 -3.807898
v 0.4219303 -2.501191 -4.226318
v -0.3150959 -0.1591327 -4.320526
v -0.8894167 -0.4491847 -4.827309
v 1.070283 3.254812 3.543489
v 2.475017 1.249968 3.332164
v 2.381629 1.202804 4.144478
v 1.356474 3.000276 2.819535
v -0.3279233 4.535665 1.901538
v 0.1638432 4.092808 1.418996
v -1.438344 4.702154 -0.3414085
v -0.7833166 4.234819 -0.4941766
v -1.963443 3.709672 -2.584358
v -1.231211 3.388258 -2.40735
v -1.762525 1.824149 -4.226309
v -1.059832 1.779959 -3.807891
v -0.8894167 -0.4491847 -4.827309
v -0.3150959 -0.1591327 -4.320526
vt 0.2064018 0.0133504
vt 0.2104953 0.01351437
vt 0.2064018 0.01351437
vt 0.2104953 0.0133504
vt 0.2064018 0.01290235
vt 0.2104953 0.01290235
vt 0.2064018 0.0122903
vt 0.2104953 0.0122903
vt 0.2064018 0.01167825
vt 0.2104953 0.01167825
vt 0.2064018 0.01123023
vt 0.2104953 0.01123023
vt 0.2064018 0.01106623
vt 0.2104953 0.01106623
vt 0.2064018 0.01351437
vt 0.2104953 0.01351437
vt 0.2104953 0.0133504
vt 0.2064018 0.0133504
vt 0.2104953 0.01290235
vt 0.2064018 0.01290235
vt 0.2104953 0.0122903
vt 0.2064018 0.0122903
vt 0.2104953 0.01167825
vt 0.2064018 0.01167825
vt 0.2104953 0.01123023
vt 0.2064018 0.01123023
vt 0.2104953 0.01106623
vt 0.2064018 0.01106623
vt 0.1800539 0.01228336
vt 0.1791381 0.01210338
vt 0.1791381 0.01196352
vt 0.1800539 0.01211939
vt 0.1791381 0.01158134
vt 0.1800539 0.01167134
vt 0.1791381 0.01105929
vt 0.1800539 0.01105929
vt 0.1791381 0.01053724
vt 0.1800539 0.01044724
vt 0.1791381 0.01015506
vt 0.1800539 0.009999219
vt 0.1791381 0.01001519
vt 0.1800539 0.009835217
vt 0.1800539 0.01211939
vt 0.1791381 0.01210338
vt 0.1800539 0.01228336
vt 0.1791381 0.01196352
vt 0.1800539 0.01167134
vt 0.1791381 0.01158134
vt 0.1800539 0.01105929
vt 0.1791381 0.01105929
vt 0.1800539 0.01044724
vt 0.1791381 0.01053724
vt 0.1800539 0.009999219
vt 0.1791381 0.01015506
vt 0.1800539 0.009835217
vt 0.1791381 0.01001519
vn 0.8455135 -0.06731843 0.5296935
vn 0.3375232 0.1704601 0.9257545
vn 0.686501 0.346707 0.6391484
vn 0.517706 -0.298688 0.8017269
vn 0.8821058 -0.4107149 0.2306573
vn 0.5591702 -0.6878036 0.4628767
vn 0.7864734 -0.591468 -0.1778345
vn 0.4508056 -0.8926222 0
vn 0.5842401 -0.5611467 -0.5863257
vn 0.2216476 -0.8582633 -0.4628785
vn 0.3295952 -0.3278735 -0.885362
vn -0.06690075 -0.5939332 -0.8017279
vn 0.0907692 0.04584359 -0.9948162
vn -0.3375229 -0.1704593 -0.9257547
vn 0.686501 0.346707 0.6391484
vn 0.3375232 0.1704601 0.9257545
vn 0.06690037 0.5939339 0.8017274
vn 0.4476751 0.7204239 0.5296947
vn -0.2216482 0.8582635 0.4628778
vn 0.19303 0.9536961 0.2306583
vn -0.4508056 0.8926222 0
vn -0.009202871 0.9840177 -0.1778328
vn -0.5591704 0.6878034 -0.4628769
vn -0.104835 0.8032641 -0.5863245
vn -0.517706 0.2986887 -0.8017266
vn -0.06824325 0.4598683 -0.885361
vn -0.3375229 -0.1704593 -0.9257547
vn 0.0907692 0.04584359 -0.9948162
vn 0.686501 0.346707 0.6391484
vn 0.8853093 0.4471132 0.1277393
vn 0.9741907 0.2156905 0.06655852
vn 0.8455135 -0.06731843 0.5296935
vn 0.9946446 0.02374594 -0.10059
vn 0.8821058 -0.4107149 0.2306573
vn 0.94119 -0.07728796 -0.3289196
vn 0.7864734 -0.591468 -0.1778345
vn 0.8281501 -0.06033951 -0.5572491
vn 0.5842401 -0.5611467 -0.5863257
vn 0.6858139 0.07005063 -0.7243978
vn 0.3295952 -0.3278735 -0.885362
vn 0.5523199 0.2789433 -0.7855783
vn 0.0907692 0.04584359 -0.9948162
vn 0.4476751 0.7204239 0.5296947
vn 0.8853093 0.4471132 0.1277393
vn 0.686501 0.346707 0.6391484
vn 0.751816 0.656005 0.0665594
vn 0.19303 0.9536961 0.2306583
vn 0.6094801 0.7863942 -0.1005889
vn -0.009202871 0.9840177 -0.1778328
vn 0.4964402 0.8033429 -0.3289185
vn -0.104835 0.8032641 -0.5863245
vn 0.4429854 0.702309 -0.5572487
vn -0.06824325 0.4598683 -0.885361
vn 0.4634387 0.510365 -0.7243977
vn 0.0907692 0.04584359 -0.9948162
vn 0.5523199 0.2789433 -0.7855783
g Boss_Color_04_0
f 3/3/3 2/2/2 1/1/1
f 2/2/2 4/4/4 1/1/1
f 1/1/1 4/4/4 5/5/5
f 4/4/4 6/6/6 5/5/5
f 5/5/5 6/6/6 7/7/7
f 6/6/6 8/8/8 7/7/7
f 7/7/7 8/8/8 9/9/9
f 8/8/8 10/10/10 9/9/9
f 9/9/9 10/10/10 11/11/11
f 10/10/10 12/12/12 11/11/11
f 11/11/11 12/12/12 13/13/13
f 12/12/12 14/14/14 13/13/13
f 17/17/17 16/16/16 15/15/15
f 18/18/18 17/17/17 15/15/15
f 19/19/19 17/17/17 18/18/18
f 20/20/20 19/19/19 18/18/18
f 21/21/21 19/19/19 20/20/20
f 22/22/22 21/21/21 20/20/20
f 23/23/23 21/21/21 22/22/22
f 24/24/24 23/23/23 22/22/22
f 25/25/25 23/23/23 24/24/24
f 26/26/26 25/25/25 24/24/24
f 27/27/27 25/25/25 26/26/26
f 28/28/28 27/27/27 26/26/26
f 31/31/31 30/30/30 29/29/29
f 32/32/32 31/31/31 29/29/29
f 33/33/33 31/31/31 32/32/32
f 34/34/34 33/33/33 32/32/32
f 35/35/35 33/33/33 34/34/34
f 36/36/36 35/35/35 34/34/34
f 37/37/37 35/35/35 36/36/36
f 38/38/38 37/37/37 36/36/36
f 39/39/39 37/37/37 38/38/38
f 40/40/40 39/39/39 38/38/38
f 41/41/41 39/39/39 40/40/40
f 42/42/42 41/41/41 40/40/40
f 45/45/45 44/44/44 43/43/43
f 44/44/44 46/46/46 43/43/43
f 43/43/43 46/46/46 47/47/47
f 46/46/46 48/48/48 47/47/47
f 47/47/47 48/48/48 49/49/49
f 48/48/48 50/50/50 49/49/49
f 49/49/49 50/50/50 51/51/51
f 50/50/50 52/52/52 51/51/51
f 51/51/51 52/52/52 53/53/53
f 52/52/52 54/54/54 53/53/53
f 53/53/53 54/54/54 55/55/55
f 54/54/54 56/56/56 55/55/55
