g Boss_Color_180
v -0.7199098 2.572642 -0.8819134
v -2.034823 0.2003289 1.932335
v -1.499247 1.970374 -1.33582
v -1.255486 0.8025975 2.386242
v 0.3240798 2.722714 -0.6295472
v -0.2114968 0.9526698 2.638607
v 1.352986 2.380378 -0.6463431
v 0.8174097 0.6103337 2.621811
v 2.091115 1.637361 -0.9278011
v 1.555539 -0.1326841 2.340354
v 2.340684 0.6927552 -1.398504
v 1.805108 -1.077289 1.869651
v 2.034822 -0.2003326 -1.932327
v 1.499246 -1.970377 1.335828
v -1.499247 1.970374 -1.33582
v -2.034823 0.2003289 1.932335
v -2.340684 -0.6927596 1.398511
v -1.805107 1.077285 -1.869644
v -2.091114 -1.637365 0.9278085
v -1.555538 0.1326798 -2.340346
v -1.352986 -2.380381 0.646351
v -0.8174097 -0.6103365 -2.621804
v -0.3240803 -2.722718 0.629555
v 0.2114961 -0.9526729 -2.638599
v 0.7199093 -2.572645 0.8819206
v 1.255486 -0.8026012 -2.386234
v 1.499246 -1.970377 1.335828
v 2.034822 -0.2003326 -1.932327
vt 0.4384481 0.03167823
vt 0.438051 0.03671118
vt 0.438051 0.03167823
vt 0.4384481 0.03671118
vt 0.439533 0.03167823
vt 0.439533 0.03671118
vt 0.4410149 0.03167823
vt 0.4410149 0.03671118
vt 0.4424969 0.03167823
vt 0.4424969 0.03671118
vt 0.4435817 0.03167823
vt 0.4435817 0.03671118
vt 0.4439788 0.03167823
vt 0.4439788 0.03671118
vt 0.438051 0.03167823
vt 0.438051 0.03671118
vt 0.4384481 0.03671118
vt 0.4384481 0.03167823
vt 0.439533 0.03671118
vt 0.439533 0.03167823
vt 0.4410149 0.03671118
vt 0.4410149 0.03167823
vt 0.4424969 0.03671118
vt 0.4424969 0.03167823
vt 0.4435817 0.03671118
vt 0.4435817 0.03167823
vt 0.4439788 0.03671118
vt 0.4439788 0.03167823
vn -0.4714372 0.8055164 0.3590128
vn -0.8434215 0.5180482 0.1423591
vn -0.8434215 0.5180482 0.1423591
vn -0.4714372 0.8055164 0.3590128
vn 0.0268683 0.8771473 0.4794693
vn 0.02686832 0.8771473 0.4794693
vn 0.5179749 0.713747 0.4714523
vn 0.5179749 0.713747 0.4714523
vn 0.8702902 0.3590986 0.3371099
vn 0.8702903 0.3590985 0.3371099
vn 0.9894118 -0.09176989 0.1124393
vn 0.9894118 -0.09176991 0.1124393
vn 0.8434215 -0.5180485 -0.1423593
vn 0.8434213 -0.5180485 -0.1423593
vn -0.8434215 0.5180482 0.1423591
vn -0.8434215 0.5180482 0.1423591
vn -0.9894118 0.09176913 -0.1124397
vn -0.9894118 0.0917692 -0.1124396
vn -0.87029 -0.359099 -0.3371101
vn -0.87029 -0.3590989 -0.3371101
vn -0.517975 -0.713747 -0.4714523
vn -0.517975 -0.7137469 -0.4714523
vn -0.02686865 -0.8771472 -0.4794694
vn -0.02686872 -0.8771471 -0.4794694
vn 0.471437 -0.8055165 -0.3590129
vn 0.4714369 -0.8055165 -0.3590129
vn 0.8434213 -0.5180485 -0.1423593
vn 0.8434215 -0.5180485 -0.1423593
g Boss_Color_180_0
f 3/3/3 2/2/2 1/1/1
f 2/2/2 4/4/4 1/1/1
f 1/1/1 4/4/4 5/5/5
f 4/4/4 6/6/6 5/5/5
f 5/5/5 6/6/6 7/7/7
f 6/6/6 8/8/8 7/7/7
f 7/7/7 8/8/8 9/9/9
f 8/8/8 10/10/10 9/9/9
f 9/9/9 10/10/10 11/11/11
f 10/10/10 12/12/12 11/11/11
f 11/11/11 12/12/12 13/13/13
f 12/12/12 14/14/14 13/13/13
f 17/17/17 16/16/16 15/15/15
f 18/18/18 17/17/17 15/15/15
f 19/19/19 17/17/17 18/18/18
f 20/20/20 19/19/19 18/18/18
f 21/21/21 19/19/19 20/20/20
f 22/22/22 21/21/21 20/20/20
f 23/23/23 21/21/21 22/22/22
f 24/24/24 23/23/23 22/22/22
f 25/25/25 23/23/23 24/24/24
f 26/26/26 25/25/25 24/24/24
f 27/27/27 25/25/25 26/26/26
f 28/28/28 27/27/27 26/26/26
