g Boss_Color_158
v -13.32072 -6.10776 20.68775
v -15.93141 -7.702044 22.94076
v -13.44727 -6.943321 20.16824
v -13.44727 -6.943321 20.16824
v -15.93141 -7.702044 22.94076
v -12.82221 -7.416116 20.77638
v -12.82221 -7.416116 20.77638
v -15.93141 -7.702044 22.94076
v -12.69565 -6.580555 21.2959
v -12.69565 -6.580555 21.2959
v -15.93141 -7.702044 22.94076
v -13.32072 -6.10776 20.68775
v -12.68922 -6.195784 20.29516
v -13.44727 -6.943321 20.16824
v -12.76496 -6.695803 19.98427
v -13.32072 -6.10776 20.68775
v -12.69565 -6.580555 21.2959
v -12.31517 -6.478715 20.65909
v -4.924304 -5.390913 13.18126
v -12.3909 -6.978735 20.3482
v -12.31517 -6.478715 20.65909
v -4.815022 -4.861089 13.4257
v -3.960754 -1.644868 4.997745
v -3.851474 -1.115044 5.24219
v -0.1499451 -0.2321528 -0.1506159
v -0.04066285 0.2976725 0.09382457
v -12.82221 -7.416116 20.77638
v -12.76496 -6.695803 19.98427
v -13.44727 -6.943321 20.16824
v -12.3909 -6.978735 20.3482
v -12.31517 -6.478715 20.65909
v -12.69565 -6.580555 21.2959
v -12.76496 -6.695803 19.98427
v -12.3909 -6.978735 20.3482
v -4.924304 -5.390913 13.18126
v -5.458713 -5.200187 13.00678
v -12.68922 -6.195784 20.29516
v -3.960754 -1.644868 4.997745
v -5.34943 -4.670362 13.25122
v -4.815022 -4.861089 13.4257
v -12.31517 -6.478715 20.65909
v -3.851474 -1.115044 5.24219
v -4.38588 -0.9243166 5.067704
v -0.04066285 0.2976725 0.09382457
v -0.5750724 0.488398 -0.08065529
v -4.495164 -1.454143 4.823265
v -0.6843539 -0.041427 -0.3250974
v -0.1499451 -0.2321528 -0.1506159
vt 0.05798172 0.01477811
vt 0.05906846 0.01477811
vt 0.0601552 0.01477811
vt 0.0601552 0.01477811
vt 0.05906846 0.01477811
vt 0.0601552 0.01477811
vt 0.0601552 0.01477811
vt 0.05906846 0.01477811
vt 0.05798172 0.01477811
vt 0.05798172 0.01477811
vt 0.05906846 0.01477811
vt 0.05798172 0.01477811
vt 0.01207 0.0109965
vt 0.0140965 0.01126515
vt 0.01394952 0.0109965
vt 0.01192302 0.01126515
vt 0.01192302 0.01126515
vt 0.01207 0.0109965
vt 0.03697887 0.009637648
vt 0.03697887 0.009825516
vt 0.03509935 0.009825516
vt 0.03509935 0.009637648
vt 0.03697887 0.009449779
vt 0.03509935 0.009449779
vt 0.03697887 0.009074042
vt 0.03509935 0.009074042
vt 0.0140965 0.01126515
vt 0.01394952 0.0109965
vt 0.0140965 0.01126515
vt 0.01394952 0.0109965
vt 0.01207 0.0109965
vt 0.01192302 0.01126515
vt 0.03697887 0.009825516
vt 0.03697887 0.009825516
vt 0.03697887 0.009637648
vt 0.03697887 0.009637648
vt 0.03509935 0.009825516
vt 0.03697887 0.009449779
vt 0.03509935 0.009637648
vt 0.03509935 0.009637648
vt 0.03509935 0.009825516
vt 0.03509935 0.009449779
vt 0.03509935 0.009449779
vt 0.03509935 0.009074042
vt 0.03509935 0.009074042
vt 0.03697887 0.009449779
vt 0.03697887 0.009074042
vt 0.03697887 0.009074042
vn -0.7254836 0.4392937 -0.5298062
vn -0.7254836 0.4392936 -0.5298062
vn -0.7254836 0.4392936 -0.5298062
vn -0.2273283 -0.8681136 -0.4412489
vn -0.2273283 -0.8681136 -0.4412489
vn -0.2273283 -0.8681136 -0.4412489
vn 0.5237539 -0.5056067 0.6855974
vn 0.5237539 -0.5056067 0.6855974
vn 0.5237539 -0.5056067 0.6855974
vn 0.02559756 0.8018044 0.597038
vn 0.02559755 0.8018044 0.5970381
vn 0.02559755 0.8018044 0.597038
vn -0.04108917 0.9588087 -0.2810651
vn -0.2082494 -0.1448733 -0.9672869
vn -0.2082513 -0.1448685 -0.9672872
vn -0.04108624 0.95881 -0.2810607
vn 0.784556 0.3343036 0.5222194
vn 0.7845534 0.3343104 0.522219
vn 0.5500441 -0.8349482 -0.01769105
vn 0.356713 -0.9189529 0.1681706
vn 0.6134374 0.3416082 0.7120382
vn 0.8024715 0.291098 0.520866
vn 0.4449378 -0.8832309 -0.1480999
vn 0.7220466 0.4984749 0.4797619
vn 0.4671211 -0.8779546 0.1048506
vn 0.7302712 0.287879 0.6195399
vn 0.6173933 -0.7693695 -0.1640004
vn -0.2082513 -0.1448685 -0.9672872
vn -0.2082494 -0.1448733 -0.9672869
vn 0.6173912 -0.7693705 -0.1640036
vn 0.7845534 0.3343104 0.522219
vn 0.784556 0.3343036 0.5222194
vn -0.6318944 -0.2813596 -0.7221816
vn 0.356713 -0.9189529 0.1681706
vn 0.5500441 -0.8349482 -0.01769105
vn -0.684145 -0.4961057 -0.5346258
vn -0.2816619 0.9556493 -0.0860298
vn 0.4449378 -0.8832309 -0.1480999
vn -0.381449 0.9149351 0.1318727
vn 0.8024715 0.291098 0.520866
vn 0.6134374 0.3416082 0.7120382
vn 0.7220466 0.4984749 0.4797619
vn -0.5683784 0.8194188 0.07415365
vn 0.7302712 0.287879 0.6195399
vn -0.3783031 0.9253134 -0.02611252
vn -0.8179185 -0.3438781 -0.4612561
vn -0.6638142 -0.4326287 -0.6100681
vn 0.4671211 -0.8779546 0.1048506
g Boss_Color_158_0
f 3/3/3 2/2/2 1/1/1
f 6/6/6 5/5/5 4/4/4
f 9/9/9 8/8/8 7/7/7
f 12/12/12 11/11/11 10/10/10
f 15/15/15 14/14/14 13/13/13
f 14/14/14 16/16/16 13/13/13
f 13/13/13 16/16/16 17/17/17
f 18/18/18 13/13/13 17/17/17
f 21/21/21 20/20/20 19/19/19
f 22/22/22 21/21/21 19/19/19
f 22/22/22 19/19/19 23/23/23
f 24/24/24 22/22/22 23/23/23
f 24/24/24 23/23/23 25/25/25
f 26/26/26 24/24/24 25/25/25
f 29/29/29 28/28/28 27/27/27
f 28/28/28 30/30/30 27/27/27
f 30/30/30 31/31/31 27/27/27
f 31/31/31 32/32/32 27/27/27
f 35/35/35 34/34/34 33/33/33
f 36/36/36 35/35/35 33/33/33
f 36/36/36 33/33/33 37/37/37
f 38/38/38 35/35/35 36/36/36
f 39/39/39 36/36/36 37/37/37
f 39/39/39 37/37/37 40/40/40
f 37/37/37 41/41/41 40/40/40
f 39/39/39 40/40/40 42/42/42
f 43/43/43 39/39/39 42/42/42
f 36/36/36 39/39/39 43/43/43
f 43/43/43 42/42/42 44/44/44
f 45/45/45 43/43/43 44/44/44
f 46/46/46 36/36/36 43/43/43
f 46/46/46 43/43/43 45/45/45
f 46/46/46 38/38/38 36/36/36
f 47/47/47 46/46/46 45/45/45
f 38/38/38 46/46/46 47/47/47
f 48/48/48 38/38/38 47/47/47
