g Boss_Color_01
v 0.7723391 -3.911555E-06 -0.6480722
v -0.7597502 -5.438924E-06 0.6375099
v -32.61979 -4.334649 -37.30611
v -31.08769 -4.334646 -38.59167
v -32.61979 -4.334649 -37.3061
v -0.7597504 -5.461276E-06 0.6375099
v 0.7723391 -3.926456E-06 -0.6480722
v -31.08769 -4.334646 -38.59167
vt 0.2928267 0.03722664
vt 0.2929651 0.03722664
vt 0.2929651 0.03650183
vt 0.2928267 0.03650183
vt 0.2929651 0.03650183
vt 0.2929651 0.03722664
vt 0.2928267 0.03722664
vt 0.2928267 0.03650183
vn -0.05602273 0.9961948 -0.06676387
vn -0.05602273 0.9961948 -0.06676386
vn -0.05602273 0.9961948 -0.06676387
vn -0.05602272 0.9961948 -0.06676386
vn 0.05602283 -0.9961948 0.06676383
vn 0.05602284 -0.9961948 0.06676383
vn 0.05602283 -0.9961948 0.06676383
vn 0.05602284 -0.9961948 0.06676383
g Boss_Color_01_0
f 3/3/3 2/2/2 1/1/1
f 4/4/4 3/3/3 1/1/1
f 7/7/7 6/6/6 5/5/5
f 8/8/8 7/7/7 5/5/5
