g Boss_Color_130
v -9.437543 6.079164 -7.380236
v -11.95559 4.141213E-05 -7.347721
v -12.81446 6.523739 -7.39059
v -18.03472 2.518081 -7.487629
v -18.47929 -0.8588258 -7.5339
v -5.876467 -2.518004 -7.454266
v -5.43189 0.8589112 -7.554481
v -6.735336 4.005694 -7.082488
v -11.95559 4.141213E-05 -7.347721
v -9.437543 6.079164 -7.380236
v -5.43189 0.8589112 -7.554481
v -11.95559 4.141213E-05 -7.347721
v -6.735336 4.005694 -7.082488
v -15.96125 5.220292 -7.108468
v -11.95559 4.141213E-05 -7.347721
v -18.03472 2.518081 -7.487629
v -12.81446 6.523739 -7.39059
v -11.95559 4.141213E-05 -7.347721
v -15.96125 5.220292 -7.108468
v -11.09672 -6.52366 -4.628304
v -11.95559 4.141213E-05 -7.347721
v -7.94994 -5.220213 -5.969418
v -7.94994 -5.220213 -5.969418
v -11.95559 4.141213E-05 -7.347721
v -5.876467 -2.518004 -7.454266
v -18.47929 -0.8588258 -7.5339
v -11.95559 4.141213E-05 -7.347721
v -17.17585 -4.00561 -6.398276
v -17.17585 -4.00561 -6.398276
v -11.95559 4.141213E-05 -7.347721
v -14.47365 -6.079083 -4.95589
v -14.47365 -6.079083 -4.95589
v -11.95559 4.141213E-05 -7.347721
v -11.09672 -6.52366 -4.628304
v -7.342399 11.13734 -24.34387
v -13.52908 11.95178 -6.44642
v -13.52908 11.95182 -24.34386
v -7.342398 11.1373 -6.686833
v -2.391818 7.33864 -24.34388
v -2.391819 7.338594 -5.528767
v -0.003841838 1.573575 -24.34391
v -2.391819 7.338594 -5.528767
v -2.391818 7.33864 -24.34388
v -0.003843681 1.57353 -5.56962
v -0.8183286 -4.613101 -24.34392
v -0.8183303 -4.613145 -6.411367
v -23.09286 4.613258 -24.34389
v -23.90734 -1.573448 -6.9941
v -23.90734 -1.573405 -24.34392
v -23.09286 4.613213 -5.385788
v -19.29415 9.563841 -24.34387
v -19.29415 9.563798 -5.016057
v -13.52908 11.95182 -24.34386
v -13.52908 11.95178 -6.44642
v -10.3821 -11.95166 -24.34394
v -10.3821 -11.9517 -5.859563
v -4.617034 -9.563724 -5.997452
v -4.61703 -9.563683 -24.34394
v -0.8183303 -4.613145 -6.411367
v -0.8183286 -4.613101 -24.34392
v -23.90734 -1.573405 -24.34392
v -23.90734 -1.573448 -6.9941
v -21.51937 -7.338512 -6.754436
v -21.51937 -7.338468 -24.34394
v -16.56879 -11.13721 -5.525628
v -16.56879 -11.13717 -24.34394
v -16.56879 -11.13717 -24.34394
v -16.56879 -11.13721 -5.525628
v -10.3821 -11.9517 -5.859563
v -10.3821 -11.95166 -24.34394
v -7.342398 11.1373 -6.686833
v -9.437543 6.079164 -7.380236
v -12.81446 6.523739 -7.39059
v -13.52908 11.95178 -6.44642
v -2.391819 7.338594 -5.528767
v -6.735336 4.005694 -7.082488
v -9.437543 6.079164 -7.380236
v -7.342398 11.1373 -6.686833
v -0.003843681 1.57353 -5.56962
v -5.43189 0.8589112 -7.554481
v -6.735336 4.005694 -7.082488
v -2.391819 7.338594 -5.528767
v -23.09286 4.613213 -5.385788
v -18.03472 2.518081 -7.487629
v -18.47929 -0.8588258 -7.5339
v -23.90734 -1.573448 -6.9941
v -19.29415 9.563798 -5.016057
v -15.96125 5.220292 -7.108468
v -18.03472 2.518081 -7.487629
v -23.09286 4.613213 -5.385788
v -13.52908 11.95178 -6.44642
v -12.81446 6.523739 -7.39059
v -15.96125 5.220292 -7.108468
v -19.29415 9.563798 -5.016057
v -10.3821 -11.9517 -5.859563
v -11.09672 -6.52366 -4.628304
v -7.94994 -5.220213 -5.969418
v -4.617034 -9.563724 -5.997452
v -4.617034 -9.563724 -5.997452
v -7.94994 -5.220213 -5.969418
v -5.876467 -2.518004 -7.454266
v -0.8183303 -4.613145 -6.411367
v -0.8183303 -4.613145 -6.411367
v -5.876467 -2.518004 -7.454266
v -5.43189 0.8589112 -7.554481
v -0.003843681 1.57353 -5.56962
v -23.90734 -1.573448 -6.9941
v -18.47929 -0.8588258 -7.5339
v -17.17585 -4.00561 -6.398276
v -21.51937 -7.338512 -6.754436
v -21.51937 -7.338512 -6.754436
v -17.17585 -4.00561 -6.398276
v -14.47365 -6.079083 -4.95589
v -16.56879 -11.13721 -5.525628
v -16.56879 -11.13721 -5.525628
v -14.47365 -6.079083 -4.95589
v -11.09672 -6.52366 -4.628304
v -10.3821 -11.9517 -5.859563
vt 0.01156086 0.0364113
vt 0.01124956 0.03655087
vt 0.01158859 0.03658612
vt 0.01138617 0.0368622
vt 0.01121306 0.0368912
vt 0.01111104 0.03623861
vt 0.01128325 0.03621288
vt 0.01144982 0.03627273
vt 0.01124956 0.03655087
vt 0.01156086 0.0364113
vt 0.01128325 0.03621288
vt 0.01124956 0.03655087
vt 0.01144982 0.03627273
vt 0.01152608 0.03675231
vt 0.01124956 0.03655087
vt 0.01138617 0.0368622
vt 0.01158859 0.03658612
vt 0.01124956 0.03655087
vt 0.01152608 0.03675231
vt 0.0108867 0.03651872
vt 0.01124956 0.03655087
vt 0.01095936 0.03635127
vt 0.01095936 0.03635127
vt 0.01124956 0.03655087
vt 0.01111104 0.03623861
vt 0.01121306 0.0368912
vt 0.01124956 0.03655087
vt 0.01103927 0.03682773
vt 0.01103927 0.03682773
vt 0.01124956 0.03655087
vt 0.01091496 0.03668633
vt 0.01091496 0.03668633
vt 0.01124956 0.03655087
vt 0.0108867 0.03651872
vt 0.01114498 0.009984126
vt 0.01120464 0.0106877
vt 0.01120464 0.009984126
vt 0.01114498 0.0106877
vt 0.01086674 0.009984126
vt 0.01086674 0.0106877
vt 0.01044446 0.009984126
vt 0.01086674 0.0106877
vt 0.01086674 0.009984126
vt 0.01044446 0.0106877
vt 0.009991312 0.009984126
vt 0.009991312 0.0106877
vt 0.01066711 0.009984126
vt 0.01021396 0.0106877
vt 0.01021396 0.009984126
vt 0.01066711 0.0106877
vt 0.01102974 0.009984126
vt 0.01102974 0.0106877
vt 0.01120464 0.009984126
vt 0.01120464 0.0106877
vt 0.009453783 0.009984126
vt 0.009453783 0.0106877
vt 0.009628689 0.0106877
vt 0.009628689 0.009984126
vt 0.009991312 0.0106877
vt 0.009991312 0.009984126
vt 0.01021396 0.009984126
vt 0.01021396 0.0106877
vt 0.009791681 0.0106877
vt 0.009791681 0.009984126
vt 0.009513441 0.0106877
vt 0.009513441 0.009984126
vt 0.009513441 0.009984126
vt 0.009513441 0.0106877
vt 0.009453783 0.0106877
vt 0.009453783 0.009984126
vt 0.03695738 0.03629436
vt 0.03669626 0.0364113
vt 0.03672399 0.03658612
vt 0.03701025 0.0366158
vt 0.0367563 0.03603127
vt 0.03658521 0.03627273
vt 0.03669626 0.0364113
vt 0.03695738 0.03629436
vt 0.0364512 0.03591429
vt 0.03641865 0.03621288
vt 0.03658521 0.03627273
vt 0.0367563 0.03603127
vt 0.03665135 0.03713565
vt 0.03652157 0.0368622
vt 0.03634845 0.0368912
vt 0.03631786 0.03717365
vt 0.03690676 0.03693278
vt 0.03666148 0.03675231
vt 0.03652157 0.0368622
vt 0.03665135 0.03713565
vt 0.03701025 0.0366158
vt 0.03672399 0.03658612
vt 0.03666148 0.03675231
vt 0.03690676 0.03693278
vt 0.03573897 0.03648081
vt 0.03602209 0.03651872
vt 0.03609476 0.03635127
vt 0.03586986 0.0361792
vt 0.03586986 0.0361792
vt 0.03609476 0.03635127
vt 0.03624643 0.03623861
vt 0.03612678 0.03597761
vt 0.03612678 0.03597761
vt 0.03624643 0.03623861
vt 0.03641865 0.03621288
vt 0.0364512 0.03591429
vt 0.03631786 0.03717365
vt 0.03634845 0.0368912
vt 0.03617466 0.03682773
vt 0.03601284 0.03706204
vt 0.03601284 0.03706204
vt 0.03617466 0.03682773
vt 0.03605035 0.03668633
vt 0.03579476 0.03680859
vt 0.03579476 0.03680859
vt 0.03605035 0.03668633
vt 0.03602209 0.03651872
vt 0.03573897 0.03648081
vn -0.002239909 0.006276323 0.9999778
vn -0.002239909 0.006276322 0.9999778
vn -0.002239909 0.006276323 0.9999778
vn -0.02719508 -0.01011597 0.999579
vn -0.02719508 -0.01011597 0.999579
vn 0.028256 0.02593469 0.9992642
vn 0.028256 0.02593469 0.9992642
vn -0.08017851 0.0385384 0.9960353
vn -0.08017849 0.03853839 0.9960353
vn -0.0801785 0.03853839 0.9960353
vn 0.04831838 -0.1285567 0.9905244
vn 0.04831838 -0.1285567 0.9905244
vn 0.04831838 -0.1285568 0.9905244
vn -0.06118696 -0.09249956 0.9938309
vn -0.06118696 -0.09249956 0.9938309
vn -0.06118696 -0.09249956 0.9938309
vn 0.08214567 0.01736293 0.9964691
vn 0.08214567 0.01736293 0.9964691
vn 0.08214566 0.01736293 0.9964691
vn 0.2142624 0.3997242 0.891242
vn 0.2142624 0.3997243 0.891242
vn 0.2142624 0.3997242 0.891242
vn 0.1698011 0.3713129 0.9128495
vn 0.1698011 0.3713129 0.9128495
vn 0.1698011 0.3713129 0.9128495
vn -0.0683045 0.3135095 0.9471253
vn -0.0683045 0.3135095 0.9471253
vn -0.0683045 0.3135095 0.9471253
vn -0.1574761 0.4173629 0.8949913
vn -0.1574761 0.4173629 0.8949913
vn -0.1574761 0.4173629 0.8949913
vn -0.03961861 0.3800107 0.9241332
vn -0.03961861 0.3800107 0.9241332
vn -0.03961861 0.3800106 0.9241332
vn 0.382682 0.9238801 0
vn -0.1515516 0.9884494 0
vn -0.1305275 0.9914446 0
vn 0.3933267 0.9193987 0
vn 0.7933525 0.6087624 0
vn 0.8030282 0.595941 0
vn 0.9914448 0.130527 0
vn 0.8030282 0.595941 0
vn 0.7933525 0.6087624 0
vn 0.9897356 0.1429107 0
vn 0.9238799 -0.3826824 0
vn 0.925948 -0.3776512 0
vn -0.9238803 0.3826816 0
vn -0.9934855 -0.1139586 0
vn -0.9914448 -0.1305273 0
vn -0.9126844 0.4086652 0
vn -0.6087627 0.7933524 0
vn -0.6210494 0.7837715 0
vn -0.1305275 0.9914446 0
vn -0.1515516 0.9884494 0
vn 0.1305272 -0.9914448 0
vn 0.1241985 -0.9922574 0
vn 0.6026825 -0.797981 0
vn 0.6087623 -0.7933527 0
vn 0.925948 -0.3776512 0
vn 0.9238799 -0.3826824 0
vn -0.9914448 -0.1305273 0
vn -0.9934855 -0.1139586 0
vn -0.7816963 -0.6236593 0
vn -0.793353 -0.6087619 0
vn -0.3705907 -0.9287964 0
vn -0.3826822 -0.92388 0
vn -0.3826822 -0.92388 0
vn -0.3705907 -0.9287964 0
vn 0.1241985 -0.9922574 0
vn 0.1305272 -0.9914448 0
vn 0.003395417 -0.1547303 0.9879509
vn 0.003395417 -0.1547303 0.9879509
vn 0.003395417 -0.1547303 0.9879509
vn 0.003395417 -0.1547303 0.9879509
vn -0.241022 -0.0742024 0.9676789
vn -0.241022 -0.0742024 0.9676789
vn -0.241022 -0.0742024 0.9676789
vn -0.241022 -0.0742024 0.9676789
vn -0.2734853 -0.1677857 0.9471292
vn -0.2734853 -0.1677857 0.9471292
vn -0.2734853 -0.1677857 0.9471292
vn -0.2734853 -0.1677857 0.9471292
vn 0.2155588 -0.193954 0.9570351
vn 0.2155588 -0.193954 0.9570351
vn 0.2155588 -0.193954 0.9570351
vn 0.2155588 -0.193954 0.9570351
vn 0.2478761 -0.2809325 0.9271647
vn 0.2478761 -0.2809325 0.9271647
vn 0.2478761 -0.2809325 0.9271647
vn 0.2478761 -0.2809325 0.9271647
vn 0.2595011 -0.1869458 0.9474759
vn 0.2595011 -0.1869458 0.9474759
vn 0.259501 -0.1869458 0.9474759
vn 0.2595011 -0.1869458 0.9474759
vn 0.1837875 -0.05038402 0.981674
vn 0.1837875 -0.05038402 0.981674
vn 0.1837875 -0.05038402 0.981674
vn 0.1837875 -0.05038401 0.981674
vn 0.04269322 0.2096112 0.9768523
vn 0.04269322 0.2096112 0.9768523
vn 0.04269322 0.2096112 0.9768523
vn 0.04269323 0.2096112 0.9768523
vn -0.2817368 -0.03724896 0.9587684
vn -0.2817368 -0.03724897 0.9587684
vn -0.2817368 -0.03724897 0.9587684
vn -0.2817368 -0.03724897 0.9587684
vn -0.03812849 0.1369604 0.9898425
vn -0.03812849 0.1369604 0.9898425
vn -0.0381285 0.1369604 0.9898425
vn -0.0381285 0.1369604 0.9898425
vn -0.2621544 0.09519278 0.9603194
vn -0.2621544 0.09519278 0.9603194
vn -0.2621544 0.09519278 0.9603194
vn -0.2621544 0.09519279 0.9603194
vn -0.02126716 -0.1665128 0.98581
vn -0.02126716 -0.1665128 0.98581
vn -0.02126716 -0.1665128 0.98581
vn -0.02126716 -0.1665128 0.98581
g Boss_Color_130_0
f 3/3/3 2/2/2 1/1/1
f 5/5/5 2/2/2 4/4/4
f 7/7/7 2/2/2 6/6/6
f 10/10/10 9/9/9 8/8/8
f 13/13/13 12/12/12 11/11/11
f 16/16/16 15/15/15 14/14/14
f 19/19/19 18/18/18 17/17/17
f 22/22/22 21/21/21 20/20/20
f 25/25/25 24/24/24 23/23/23
f 28/28/28 27/27/27 26/26/26
f 31/31/31 30/30/30 29/29/29
f 34/34/34 33/33/33 32/32/32
f 37/37/37 36/36/36 35/35/35
f 36/36/36 38/38/38 35/35/35
f 35/35/35 38/38/38 39/39/39
f 38/38/38 40/40/40 39/39/39
f 43/43/43 42/42/42 41/41/41
f 42/42/42 44/44/44 41/41/41
f 41/41/41 44/44/44 45/45/45
f 44/44/44 46/46/46 45/45/45
f 49/49/49 48/48/48 47/47/47
f 48/48/48 50/50/50 47/47/47
f 47/47/47 50/50/50 51/51/51
f 50/50/50 52/52/52 51/51/51
f 51/51/51 52/52/52 53/53/53
f 52/52/52 54/54/54 53/53/53
f 57/57/57 56/56/56 55/55/55
f 58/58/58 57/57/57 55/55/55
f 59/59/59 57/57/57 58/58/58
f 60/60/60 59/59/59 58/58/58
f 63/63/63 62/62/62 61/61/61
f 64/64/64 63/63/63 61/61/61
f 65/65/65 63/63/63 64/64/64
f 66/66/66 65/65/65 64/64/64
f 69/69/69 68/68/68 67/67/67
f 70/70/70 69/69/69 67/67/67
f 73/73/73 72/72/72 71/71/71
f 74/74/74 73/73/73 71/71/71
f 77/77/77 76/76/76 75/75/75
f 78/78/78 77/77/77 75/75/75
f 81/81/81 80/80/80 79/79/79
f 82/82/82 81/81/81 79/79/79
f 85/85/85 84/84/84 83/83/83
f 86/86/86 85/85/85 83/83/83
f 89/89/89 88/88/88 87/87/87
f 90/90/90 89/89/89 87/87/87
f 93/93/93 92/92/92 91/91/91
f 94/94/94 93/93/93 91/91/91
f 97/97/97 96/96/96 95/95/95
f 98/98/98 97/97/97 95/95/95
f 101/101/101 100/100/100 99/99/99
f 102/102/102 101/101/101 99/99/99
f 105/105/105 104/104/104 103/103/103
f 106/106/106 105/105/105 103/103/103
f 109/109/109 108/108/108 107/107/107
f 110/110/110 109/109/109 107/107/107
f 113/113/113 112/112/112 111/111/111
f 114/114/114 113/113/113 111/111/111
f 117/117/117 116/116/116 115/115/115
f 118/118/118 117/117/117 115/115/115
