g Boss_Color_04
v -0.9899073 3.280144 3.543501
v -0.8780899 0.4709089 4.827303
v -2.35132 1.261001 4.144492
v 0.4833221 2.490051 4.226309
v 0.439373 4.526224 1.901551
v 1.912603 3.736131 2.58436
v 1.553547 4.665359 -0.3414
v 3.026777 3.875265 0.3414092
v 2.054077 3.660264 -2.584353
v 3.527305 2.870171 -1.901545
v 1.806836 1.780256 -4.22631
v 3.280071 0.9901617 -3.543498
v 0.8780851 -0.4709172 -4.827307
v 2.351315 -1.261011 -4.144497
v -2.35132 1.261001 4.144492
v -0.8780899 0.4709089 4.827303
v -1.806845 -1.780265 4.226302
v -3.280072 -0.9901729 3.543495
v -2.054077 -3.660273 2.584349
v -3.527311 -2.870177 1.901538
v -1.553555 -4.665362 0.3413961
v -3.026785 -3.87527 -0.3414131
v -0.4393811 -4.526228 -1.901554
v -1.912611 -3.736135 -2.584363
v 0.9899044 -3.28015 -3.543503
v -0.4833264 -2.490057 -4.226313
v 2.351315 -1.261011 -4.144497
v 0.8780851 -0.4709172 -4.827307
v -2.35132 1.261001 4.144492
v -2.443521 1.310449 3.332178
v -1.282273 3.032723 2.819548
v -0.9899073 3.280144 3.543501
v -0.06313658 4.095596 1.419009
v 0.439373 4.526224 1.901551
v 0.8872228 4.214273 -0.4941666
v 1.553547 4.665359 -0.3414
v 1.314161 3.356955 -2.407344
v 2.054077 3.660264 -2.584353
v 1.103271 1.753361 -3.807889
v 1.806836 1.780256 -4.22631
v 0.3110728 -0.1668293 -4.320522
v 0.8780851 -0.4709172 -4.827307
v -3.280072 -0.9901729 3.543495
v -2.443521 1.310449 3.332178
v -2.35132 1.261001 4.144492
v -3.235721 -0.6097405 2.819544
v -3.527311 -2.870177 1.901538
v -3.44661 -2.213333 1.418998
v -3.026785 -3.87527 -0.3414131
v -3.019675 -3.07065 -0.4941781
v -1.912611 -3.736135 -2.584363
v -2.069315 -2.951971 -2.407353
v -0.4833264 -2.490057 -4.226313
v -0.8501747 -1.8891 -3.807891
v 0.8780851 -0.4709172 -4.827307
v 0.3110728 -0.1668293 -4.320522
vt 0.2064018 0.0133504
vt 0.2104953 0.01351437
vt 0.2064018 0.01351437
vt 0.2104953 0.0133504
vt 0.2064018 0.01290235
vt 0.2104953 0.01290235
vt 0.2064018 0.0122903
vt 0.2104953 0.0122903
vt 0.2064018 0.01167825
vt 0.2104953 0.01167825
vt 0.2064018 0.01123023
vt 0.2104953 0.01123023
vt 0.2064018 0.01106623
vt 0.2104953 0.01106623
vt 0.2064018 0.01351437
vt 0.2104953 0.01351437
vt 0.2104953 0.0133504
vt 0.2064018 0.0133504
vt 0.2104953 0.01290235
vt 0.2064018 0.01290235
vt 0.2104953 0.0122903
vt 0.2064018 0.0122903
vt 0.2104953 0.01167825
vt 0.2064018 0.01167825
vt 0.2104953 0.01123023
vt 0.2064018 0.01123023
vt 0.2104953 0.01106623
vt 0.2064018 0.01106623
vt 0.1800539 0.01228336
vt 0.1791381 0.01210338
vt 0.1791381 0.01196352
vt 0.1800539 0.01211939
vt 0.1791381 0.01158134
vt 0.1800539 0.01167134
vt 0.1791381 0.01105929
vt 0.1800539 0.01105929
vt 0.1791381 0.01053724
vt 0.1800539 0.01044724
vt 0.1791381 0.01015506
vt 0.1800539 0.009999219
vt 0.1791381 0.01001519
vt 0.1800539 0.009835217
vt 0.1800539 0.01211939
vt 0.1791381 0.01210338
vt 0.1800539 0.01228336
vt 0.1791381 0.01196352
vt 0.1800539 0.01167134
vt 0.1791381 0.01158134
vt 0.1800539 0.01105929
vt 0.1791381 0.01105929
vt 0.1800539 0.01044724
vt 0.1791381 0.01053724
vt 0.1800539 0.009999219
vt 0.1791381 0.01015506
vt 0.1800539 0.009835217
vt 0.1791381 0.01001519
vn -0.4298215 0.7312146 0.5296967
vn -0.3332266 0.1787077 0.9257557
vn -0.6777655 0.3634838 0.6391506
vn -0.05227176 0.5953978 0.8017288
vn -0.1695166 0.9581544 0.2306604
vn 0.2426897 0.852552 0.4628788
vn 0.03339949 0.9834939 -0.1778316
vn 0.4726221 0.8812652 0
vn 0.1245575 0.8004438 -0.5863234
vn 0.5759158 0.6738439 -0.4628774
vn 0.0795289 0.4580521 -0.8853605
vn 0.5248932 0.2858667 -0.8017278
vn -0.08961748 0.0480625 -0.9948159
vn 0.333226 -0.178708 -0.9257559
vn -0.6777655 0.3634838 0.6391506
vn -0.3332266 0.1787077 0.9257557
vn -0.5248934 -0.2858674 0.8017274
vn -0.8469118 -0.04650556 0.5296958
vn -0.5759156 -0.6738444 0.4628769
vn -0.8919394 -0.3888967 0.2306588
vn -0.4726219 -0.8812653 0
vn -0.8007821 -0.571947 -0.177833
vn -0.2426894 -0.8525521 -0.4628788
vn -0.5978658 -0.5466071 -0.586325
vn 0.05227136 -0.5953981 -0.8017286
vn -0.337561 -0.3196681 -0.8853615
vn 0.333226 -0.178708 -0.9257559
vn -0.08961748 0.0480625 -0.9948159
vn -0.6777655 0.3634838 0.6391506
vn -0.8740458 0.4687494 0.1277421
vn -0.7354558 0.6742955 0.06656193
vn -0.4298215 0.7312146 0.5296967
vn -0.5899562 0.8011454 -0.1005864
vn -0.1695166 0.9581544 0.2306604
vn -0.4765344 0.8153092 -0.3289163
vn 0.03339949 0.9834939 -0.1778316
vn -0.425581 0.7129921 -0.5572459
vn 0.1245575 0.8004438 -0.5863234
vn -0.4507498 0.5216093 -0.7243952
vn 0.0795289 0.4580521 -0.8853605
vn -0.5452958 0.2924419 -0.7855763
vn -0.08961748 0.0480625 -0.9948159
vn -0.8469118 -0.04650556 0.5296958
vn -0.8740458 0.4687494 0.1277421
vn -0.6777655 0.3634838 0.6391506
vn -0.9685914 0.2395831 0.06656156
vn -0.8919394 -0.3888967 0.2306588
vn -0.9937599 0.0482007 -0.1005869
vn -0.8007821 -0.571947 -0.177833
vn -0.9428071 -0.05411691 -0.3289167
vn -0.5978658 -0.5466071 -0.586325
vn -0.8293849 -0.03995281 -0.5572472
vn -0.337561 -0.3196681 -0.8853615
vn -0.6838854 0.08689667 -0.724396
vn -0.08961748 0.0480625 -0.9948159
vn -0.5452958 0.2924419 -0.7855763
g Boss_Color_04_0
f 3/3/3 2/2/2 1/1/1
f 2/2/2 4/4/4 1/1/1
f 1/1/1 4/4/4 5/5/5
f 4/4/4 6/6/6 5/5/5
f 5/5/5 6/6/6 7/7/7
f 6/6/6 8/8/8 7/7/7
f 7/7/7 8/8/8 9/9/9
f 8/8/8 10/10/10 9/9/9
f 9/9/9 10/10/10 11/11/11
f 10/10/10 12/12/12 11/11/11
f 11/11/11 12/12/12 13/13/13
f 12/12/12 14/14/14 13/13/13
f 17/17/17 16/16/16 15/15/15
f 18/18/18 17/17/17 15/15/15
f 19/19/19 17/17/17 18/18/18
f 20/20/20 19/19/19 18/18/18
f 21/21/21 19/19/19 20/20/20
f 22/22/22 21/21/21 20/20/20
f 23/23/23 21/21/21 22/22/22
f 24/24/24 23/23/23 22/22/22
f 25/25/25 23/23/23 24/24/24
f 26/26/26 25/25/25 24/24/24
f 27/27/27 25/25/25 26/26/26
f 28/28/28 27/27/27 26/26/26
f 31/31/31 30/30/30 29/29/29
f 32/32/32 31/31/31 29/29/29
f 33/33/33 31/31/31 32/32/32
f 34/34/34 33/33/33 32/32/32
f 35/35/35 33/33/33 34/34/34
f 36/36/36 35/35/35 34/34/34
f 37/37/37 35/35/35 36/36/36
f 38/38/38 37/37/37 36/36/36
f 39/39/39 37/37/37 38/38/38
f 40/40/40 39/39/39 38/38/38
f 41/41/41 39/39/39 40/40/40
f 42/42/42 41/41/41 40/40/40
f 45/45/45 44/44/44 43/43/43
f 44/44/44 46/46/46 43/43/43
f 43/43/43 46/46/46 47/47/47
f 46/46/46 48/48/48 47/47/47
f 47/47/47 48/48/48 49/49/49
f 48/48/48 50/50/50 49/49/49
f 49/49/49 50/50/50 51/51/51
f 50/50/50 52/52/52 51/51/51
f 51/51/51 52/52/52 53/53/53
f 52/52/52 54/54/54 53/53/53
f 53/53/53 54/54/54 55/55/55
f 54/54/54 56/56/56 55/55/55
