g Boss_Color_124
v -2.345667 -9.520876 21.87587
v -2.375159 -10.33157 25.5874
v -1.419422 -9.229793 22.07938
v -1.419422 -9.229793 22.07938
v -2.375159 -10.33157 25.5874
v -1.764255 -8.356629 22.39994
v -1.764255 -8.356629 22.39994
v -2.375159 -10.33157 25.5874
v -2.690501 -8.647711 22.19643
v -2.690501 -8.647711 22.19643
v -2.375159 -10.33157 25.5874
v -2.345667 -9.520876 21.87587
v -2.169432 -9.028312 21.34016
v -1.419422 -9.229793 22.07938
v -1.615144 -8.85412 21.46194
v -2.345667 -9.520876 21.87587
v -2.690501 -8.647711 22.19643
v -2.375789 -8.505789 21.53199
v -0.1008247 -5.627589 10.31183
v -1.821501 -8.3316 21.65378
v -2.375789 -8.505789 21.53199
v -0.6551118 -5.801779 10.19005
v 0.1739494 0.3483716 0.1568093
v -0.3803378 0.1741813 0.03502295
v 0.3803058 -0.1741527 -0.03502104
v -0.4487556 -6.324303 9.998216
v 0.1055319 -6.150113 10.12
v -0.1739815 -0.348343 -0.1568074
v -2.169432 -9.028312 21.34016
v -0.6551118 -5.801779 10.19005
v -2.375789 -8.505789 21.53199
v -1.615144 -8.85412 21.46194
v -0.1008247 -5.627589 10.31183
v -1.821501 -8.3316 21.65378
v -1.764255 -8.356629 22.39994
v -1.615144 -8.85412 21.46194
v -1.419422 -9.229793 22.07938
v -1.821501 -8.3316 21.65378
v -2.375789 -8.505789 21.53199
v -2.690501 -8.647711 22.19643
vt 0.05798172 0.01477811
vt 0.05906846 0.01477811
vt 0.0601552 0.01477811
vt 0.0601552 0.01477811
vt 0.05906846 0.01477811
vt 0.0601552 0.01477811
vt 0.0601552 0.01477811
vt 0.05906846 0.01477811
vt 0.05798172 0.01477811
vt 0.05798172 0.01477811
vt 0.05906846 0.01477811
vt 0.05798172 0.01477811
vt 0.01207 0.0109965
vt 0.0140965 0.01126515
vt 0.01394952 0.0109965
vt 0.01192302 0.01126515
vt 0.01192302 0.01126515
vt 0.01207 0.0109965
vt 0.03697887 0.009449779
vt 0.03697887 0.009825516
vt 0.03509935 0.009825516
vt 0.03509935 0.009449779
vt 0.03697887 0.009074042
vt 0.03509935 0.009074042
vt 0.03697887 0.009074042
vt 0.03509935 0.009449779
vt 0.03697887 0.009449779
vt 0.03509935 0.009074042
vt 0.03509935 0.009825516
vt 0.03509935 0.009449779
vt 0.03509935 0.009825516
vt 0.03697887 0.009825516
vt 0.03697887 0.009449779
vt 0.03697887 0.009825516
vt 0.0140965 0.01126515
vt 0.01394952 0.0109965
vt 0.0140965 0.01126515
vt 0.01394952 0.0109965
vt 0.01207 0.0109965
vt 0.01192302 0.01126515
vn 0.3332909 -0.9216555 -0.1986663
vn 0.3332909 -0.9216555 -0.1986663
vn 0.3332909 -0.9216555 -0.1986663
vn 0.9142863 0.2417498 0.3250193
vn 0.9142863 0.2417498 0.3250194
vn 0.9142863 0.2417498 0.3250193
vn -0.3558753 0.8234119 0.4419791
vn -0.3558754 0.8234119 0.4419792
vn -0.3558754 0.8234119 0.4419792
vn -0.9368708 -0.3399954 -0.08170859
vn -0.9368708 -0.3399953 -0.08170857
vn -0.9368708 -0.3399954 -0.08170858
vn -0.3517282 -0.6285834 -0.6936644
vn 0.871735 -0.2440938 -0.4248488
vn 0.8717332 -0.2440971 -0.4248502
vn -0.3517318 -0.6285816 -0.693664
vn -0.8072093 0.5247665 -0.2702468
vn -0.8072116 0.5247617 -0.270249
vn 0.4653291 0.80492 0.3682017
vn 0.3766758 0.8865758 0.2685119
vn -0.8690509 0.494526 -0.01394396
vn -0.9267164 0.370354 0.06351813
vn 0.3569628 0.8008111 0.4809147
vn -0.8901203 0.4028846 0.213002
vn 0.9304864 -0.3261668 -0.1667635
vn -0.3692683 -0.8493235 -0.377214
vn 0.8862976 -0.4521271 -0.100288
vn -0.4540868 -0.7624421 -0.4609634
vn -0.4716706 -0.8389168 -0.2715611
vn -0.9267164 0.370354 0.06351813
vn -0.8690509 0.494526 -0.01394396
vn 0.9112468 -0.4098617 0.04053026
vn 0.4653291 0.80492 0.3682017
vn 0.3766758 0.8865758 0.2685119
vn 0.416248 0.90925 -0.001433519
vn 0.8717332 -0.2440971 -0.4248502
vn 0.871735 -0.2440938 -0.4248488
vn 0.4162534 0.9092475 -0.001434016
vn -0.8072116 0.5247617 -0.270249
vn -0.8072093 0.5247665 -0.2702468
g Boss_Color_124_0
f 3/3/3 2/2/2 1/1/1
f 6/6/6 5/5/5 4/4/4
f 9/9/9 8/8/8 7/7/7
f 12/12/12 11/11/11 10/10/10
f 15/15/15 14/14/14 13/13/13
f 14/14/14 16/16/16 13/13/13
f 13/13/13 16/16/16 17/17/17
f 18/18/18 13/13/13 17/17/17
f 21/21/21 20/20/20 19/19/19
f 22/22/22 21/21/21 19/19/19
f 22/22/22 19/19/19 23/23/23
f 24/24/24 22/22/22 23/23/23
f 23/23/23 19/19/19 25/25/25
f 26/26/26 22/22/22 24/24/24
f 19/19/19 27/27/27 25/25/25
f 28/28/28 26/26/26 24/24/24
f 25/25/25 27/27/27 28/28/28
f 27/27/27 26/26/26 28/28/28
f 26/26/26 27/27/27 29/29/29
f 26/26/26 29/29/29 30/30/30
f 29/29/29 31/31/31 30/30/30
f 27/27/27 32/32/32 29/29/29
f 27/27/27 33/33/33 32/32/32
f 33/33/33 34/34/34 32/32/32
f 37/37/37 36/36/36 35/35/35
f 36/36/36 38/38/38 35/35/35
f 38/38/38 39/39/39 35/35/35
f 39/39/39 40/40/40 35/35/35
