g Boss_Color_128
v -8.480668 -2.982335 22.23909
v -9.374743 -4.188466 25.72899
v -8.740968 -3.907574 21.99363
v -8.740968 -3.907574 21.99363
v -9.374743 -4.188466 25.72899
v -7.839745 -4.230196 22.25401
v -7.839745 -4.230196 22.25401
v -9.374743 -4.188466 25.72899
v -7.579445 -3.304956 22.49948
v -7.579445 -3.304956 22.49948
v -9.374743 -4.188466 25.72899
v -8.480668 -2.982335 22.23909
v -8.126308 -3.124713 21.59503
v -8.740968 -3.907574 21.99363
v -8.282078 -3.678399 21.44814
v -8.480668 -2.982335 22.23909
v -7.579445 -3.304956 22.49948
v -7.586995 -3.317778 21.75085
v -7.742764 -3.871463 21.60395
v -7.586995 -3.317778 21.75085
v -0.01809596 0.3104554 0.0485306
v -0.173865 -0.2432299 -0.09836181
v -7.839745 -4.230196 22.25401
v -8.282078 -3.678399 21.44814
v -8.740968 -3.907574 21.99363
v -7.742764 -3.871463 21.60395
v -7.586995 -3.317778 21.75085
v -7.579445 -3.304956 22.49948
v -8.282078 -3.678399 21.44814
v -7.742764 -3.871463 21.60395
v -0.173865 -0.2432299 -0.09836181
v -0.7131798 -0.05016573 -0.2541796
v -8.126308 -3.124713 21.59503
v -0.5574108 0.5035197 -0.1072871
v -7.586995 -3.317778 21.75085
v -0.01809596 0.3104554 0.0485306
vt 0.05798172 0.01477811
vt 0.05906846 0.01477811
vt 0.0601552 0.01477811
vt 0.0601552 0.01477811
vt 0.05906846 0.01477811
vt 0.0601552 0.01477811
vt 0.0601552 0.01477811
vt 0.05906846 0.01477811
vt 0.05798172 0.01477811
vt 0.05798172 0.01477811
vt 0.05906846 0.01477811
vt 0.05798172 0.01477811
vt 0.01207 0.0109965
vt 0.0140965 0.01126515
vt 0.01394952 0.0109965
vt 0.01192302 0.01126515
vt 0.01192302 0.01126515
vt 0.01207 0.0109965
vt 0.03697887 0.009825516
vt 0.03509935 0.009825516
vt 0.03509935 0.009074042
vt 0.03697887 0.009074042
vt 0.0140965 0.01126515
vt 0.01394952 0.0109965
vt 0.0140965 0.01126515
vt 0.01394952 0.0109965
vt 0.01207 0.0109965
vt 0.01192302 0.01126515
vt 0.03697887 0.009825516
vt 0.03697887 0.009825516
vt 0.03697887 0.009074042
vt 0.03697887 0.009074042
vt 0.03509935 0.009825516
vt 0.03509935 0.009074042
vt 0.03509935 0.009825516
vt 0.03509935 0.009074042
vn -0.9434057 0.3018537 -0.1373678
vn -0.9434057 0.3018537 -0.1373678
vn -0.9434057 0.3018537 -0.1373678
vn -0.3029464 -0.9451055 -0.1224705
vn -0.3029464 -0.9451055 -0.1224705
vn -0.3029464 -0.9451055 -0.1224705
vn 0.8577375 -0.3429189 0.3830055
vn 0.8577375 -0.3429189 0.3830055
vn 0.8577374 -0.3429188 0.3830055
vn 0.2172763 0.9040404 0.3681059
vn 0.2172763 0.9040404 0.3681059
vn 0.2172763 0.9040404 0.3681059
vn -0.3009214 0.8827964 -0.3607172
vn -0.6447437 -0.3393409 -0.6849477
vn -0.6447455 -0.3393375 -0.6849477
vn -0.3009189 0.8827977 -0.3607161
vn 0.889488 0.4566498 -0.01679087
vn 0.8894851 0.4566556 -0.01679094
vn 0.4568545 -0.8894778 0.01062809
vn 0.8279377 0.4295491 0.3605644
vn 0.8279361 0.4295523 0.3605644
vn 0.4568511 -0.8894796 0.01062657
vn 0.5456641 -0.7654777 -0.3410197
vn -0.6447455 -0.3393375 -0.6849477
vn -0.6447437 -0.3393409 -0.6849477
vn 0.5456601 -0.7654799 -0.3410215
vn 0.8894851 0.4566556 -0.01679094
vn 0.889488 0.4566498 -0.01679087
vn -0.8279357 -0.4295532 -0.3605643
vn 0.4568545 -0.8894778 0.01062809
vn 0.4568511 -0.8894796 0.01062657
vn -0.8279373 -0.4295499 -0.3605643
vn -0.4568503 0.8894801 -0.01062617
vn -0.4568538 0.8894783 -0.01062768
vn 0.8279377 0.4295491 0.3605644
vn 0.8279361 0.4295523 0.3605644
g Boss_Color_128_0
f 3/3/3 2/2/2 1/1/1
f 6/6/6 5/5/5 4/4/4
f 9/9/9 8/8/8 7/7/7
f 12/12/12 11/11/11 10/10/10
f 15/15/15 14/14/14 13/13/13
f 14/14/14 16/16/16 13/13/13
f 13/13/13 16/16/16 17/17/17
f 18/18/18 13/13/13 17/17/17
f 21/21/21 20/20/20 19/19/19
f 22/22/22 21/21/21 19/19/19
f 25/25/25 24/24/24 23/23/23
f 24/24/24 26/26/26 23/23/23
f 26/26/26 27/27/27 23/23/23
f 27/27/27 28/28/28 23/23/23
f 31/31/31 30/30/30 29/29/29
f 32/32/32 31/31/31 29/29/29
f 32/32/32 29/29/29 33/33/33
f 34/34/34 32/32/32 33/33/33
f 34/34/34 33/33/33 35/35/35
f 36/36/36 34/34/34 35/35/35
