g Boss_Color_073
v 2.380445 -0.3462406 -1.458812
v 1.499584 1.399232 1.925605
v 2.131574 0.6801035 -1.705398
v 1.748455 0.3728876 2.172191
v 2.076149 -1.376155 -1.307799
v 1.444159 -0.6570265 2.323204
v 1.300221 -2.133674 -1.292824
v 0.6682307 -1.414546 2.338179
v 0.2605681 -2.415822 -1.417899
v -0.3714221 -1.696694 2.213104
v -0.7642315 -2.146997 -1.64951
v -1.396221 -1.427869 1.981493
v -1.499585 -1.399231 -1.925597
v -2.131575 -0.6801024 1.705406
v 2.131574 0.6801035 -1.705398
v 1.499584 1.399232 1.925605
v 0.7642292 2.146998 1.649518
v 1.396219 1.42787 -1.981485
v -0.2605706 2.415822 1.417907
v 0.3714194 1.696694 -2.213096
v -1.300221 2.133674 1.292832
v -0.6682315 1.414546 -2.338171
v -2.07615 1.376155 1.307808
v -1.44416 0.6570272 -2.323195
v -2.380446 0.3462415 1.45882
v -1.748456 -0.3728865 -2.172183
v -2.131575 -0.6801024 1.705406
v -1.499585 -1.399231 -1.925597
vt 0.4384481 0.03167823
vt 0.438051 0.03671118
vt 0.438051 0.03167823
vt 0.4384481 0.03671118
vt 0.439533 0.03167823
vt 0.439533 0.03671118
vt 0.4410149 0.03167823
vt 0.4410149 0.03671118
vt 0.4424969 0.03167823
vt 0.4424969 0.03671118
vt 0.4435817 0.03167823
vt 0.4435817 0.03671118
vt 0.4439788 0.03167823
vt 0.4439788 0.03671118
vt 0.438051 0.03167823
vt 0.438051 0.03671118
vt 0.4384481 0.03671118
vt 0.4384481 0.03167823
vt 0.439533 0.03671118
vt 0.439533 0.03167823
vt 0.4410149 0.03671118
vt 0.4410149 0.03167823
vt 0.4424969 0.03671118
vt 0.4424969 0.03167823
vt 0.4435817 0.03671118
vt 0.4435817 0.03167823
vt 0.4439788 0.03671118
vt 0.4439788 0.03167823
vn 0.9853805 0.006359335 0.1702498
vn 0.8665918 0.4962429 0.05255166
vn 0.8665919 0.4962427 0.05255172
vn 0.9853805 0.006359432 0.1702498
vn 0.8401369 -0.4852279 0.2423295
vn 0.8401369 -0.4852279 0.2423295
vn 0.4697795 -0.8467988 0.2494772
vn 0.4697794 -0.846799 0.2494773
vn -0.02645515 -0.9814705 0.1897777
vn -0.0264554 -0.9814705 0.1897777
vn -0.5156011 -0.853158 0.07922749
vn -0.5156012 -0.8531579 0.07922743
vn -0.866592 -0.4962426 -0.05255172
vn -0.8665921 -0.4962424 -0.05255177
vn 0.8665919 0.4962427 0.05255172
vn 0.8665918 0.4962429 0.05255166
vn 0.5156003 0.8531585 -0.07922766
vn 0.5156005 0.8531584 -0.07922761
vn 0.02645456 0.9814705 -0.1897778
vn 0.02645478 0.9814705 -0.1897778
vn -0.4697794 0.846799 -0.2494773
vn -0.4697793 0.846799 -0.2494772
vn -0.8401368 0.4852283 -0.2423296
vn -0.8401368 0.4852283 -0.2423296
vn -0.9853804 -0.006359009 -0.1702498
vn -0.9853804 -0.006359088 -0.1702498
vn -0.8665921 -0.4962424 -0.05255177
vn -0.866592 -0.4962426 -0.05255172
g Boss_Color_073_0
f 3/3/3 2/2/2 1/1/1
f 2/2/2 4/4/4 1/1/1
f 1/1/1 4/4/4 5/5/5
f 4/4/4 6/6/6 5/5/5
f 5/5/5 6/6/6 7/7/7
f 6/6/6 8/8/8 7/7/7
f 7/7/7 8/8/8 9/9/9
f 8/8/8 10/10/10 9/9/9
f 9/9/9 10/10/10 11/11/11
f 10/10/10 12/12/12 11/11/11
f 11/11/11 12/12/12 13/13/13
f 12/12/12 14/14/14 13/13/13
f 17/17/17 16/16/16 15/15/15
f 18/18/18 17/17/17 15/15/15
f 19/19/19 17/17/17 18/18/18
f 20/20/20 19/19/19 18/18/18
f 21/21/21 19/19/19 20/20/20
f 22/22/22 21/21/21 20/20/20
f 23/23/23 21/21/21 22/22/22
f 24/24/24 23/23/23 22/22/22
f 25/25/25 23/23/23 24/24/24
f 26/26/26 25/25/25 24/24/24
f 27/27/27 25/25/25 26/26/26
f 28/28/28 27/27/27 26/26/26
