g Boss_Color_160
v 5.707045 11.19283 8.023241
v -5.707077 11.1928 7.316688
v -5.707112 27.13362 -3.681649
v 5.707045 11.19283 8.023241
v -5.707112 27.13362 -3.681649
v 5.707012 27.13361 2.004059
v 5.707101 -18.6964 -1.287884
v 5.707113 -27.13357 -16.37496
v 5.707117 -27.13362 -2.407113
v 5.707007 27.13368 -16.37478
v 5.707066 -0.5828182 -2.221594
v 5.707078 -6.823921 4.507709
v 5.707095 -15.53791 2.915314
v 5.707045 11.19283 8.023241
v 5.707012 27.13361 2.004059
v 5.707056 5.422758 6.963423
v -5.707077 11.1928 7.316688
v -5.707118 27.13366 -16.37478
v -5.707112 27.13362 -3.681649
v -5.707058 -0.5828419 -2.574876
v -5.707066 5.18722 6.256871
v -5.707023 -18.51199 -1.969226
v -5.707044 -7.412731 3.918911
v -5.70703 -14.83139 2.20876
v -5.70701 -27.13359 -16.37496
v -5.707007 -27.13363 -2.407126
v 5.707056 5.422758 6.963423
v -5.707066 5.18722 6.256871
v -5.707077 11.1928 7.316688
v 5.707045 11.19283 8.023241
v 5.707066 -0.5828182 -2.221594
v -5.707058 -0.5828419 -2.574876
v -5.707066 5.18722 6.256871
v 5.707056 5.422758 6.963423
v 5.707078 -6.823921 4.507709
v -5.707044 -7.412731 3.918911
v -5.707058 -0.5828419 -2.574876
v 5.707066 -0.5828182 -2.221594
v 5.707095 -15.53791 2.915314
v -5.70703 -14.83139 2.20876
v -5.707044 -7.412731 3.918911
v 5.707078 -6.823921 4.507709
v 5.707101 -18.6964 -1.287884
v -5.707023 -18.51199 -1.969226
v -5.70703 -14.83139 2.20876
v 5.707095 -15.53791 2.915314
v 5.707117 -27.13362 -2.407113
v -5.707007 -27.13363 -2.407126
v -5.707023 -18.51199 -1.969226
v 5.707101 -18.6964 -1.287884
vt 0.7086074 0.03821016
vt 0.7086074 0.03821016
vt 0.7085904 0.03821016
vt 0.7086074 0.03821016
vt 0.7085904 0.03821016
vt 0.7085904 0.03821016
vt 0.7671388 0.03821016
vt 0.7671556 0.03821016
vt 0.7671556 0.03821016
vt 0.7670472 0.03821016
vt 0.7670986 0.03821016
vt 0.7671097 0.03821016
vt 0.7671294 0.03821016
vt 0.7670599 0.03821016
vt 0.7670306 0.03821016
vt 0.7670743 0.03821016
vt 0.7665669 0.03521943
vt 0.7662953 0.03458027
vt 0.7665576 0.03526882
vt 0.7666827 0.03492712
vt 0.7666383 0.03518156
vt 0.7669075 0.03491926
vt 0.7667753 0.0349867
vt 0.7668675 0.03497645
vt 0.76697 0.03450533
vt 0.7670011 0.03478529
vt 0.7086218 0.03821016
vt 0.7086218 0.03821016
vt 0.7086074 0.03821016
vt 0.7086074 0.03821016
vt 0.7086461 0.03821016
vt 0.7086461 0.03821016
vt 0.7086218 0.03821016
vt 0.7086218 0.03821016
vt 0.7086571 0.03821016
vt 0.7086571 0.03821016
vt 0.7086461 0.03821016
vt 0.7086461 0.03821016
vt 0.7086769 0.03821016
vt 0.7086769 0.03821016
vt 0.7086571 0.03821016
vt 0.7086571 0.03821016
vt 0.7086862 0.03821016
vt 0.7086862 0.03821016
vt 0.7086769 0.03821016
vt 0.7086769 0.03821016
vt 0.7087031 0.03821016
vt 0.7087031 0.03821016
vt 0.7086862 0.03821016
vt 0.7086862 0.03821016
vn -0.05088657 0.5671607 0.8220337
vn -0.05088656 0.5671607 0.8220336
vn -0.05088656 0.5671607 0.8220336
vn -0.4223996 0.3201904 0.8479721
vn -0.4223996 0.3201904 0.8479721
vn -0.4223996 0.3201904 0.8479722
vn 1 0 0
vn 1 0 0
vn 1 0 0
vn 1 0 0
vn 1 0 0
vn 1 0 0
vn 1 0 0
vn 1 0 0
vn 1 0 0
vn 1 0 0
vn -1 0 0
vn -1 0 0
vn -1 0 0
vn -1 0 0
vn -1 0 0
vn -1 0 0
vn -1 0 0
vn -1 0 0
vn -1 0 0
vn -1 0 0
vn -0.05727929 -0.1735015 0.9831665
vn -0.05727929 -0.1735015 0.9831665
vn -0.05727929 -0.1735015 0.9831665
vn -0.06077023 -0.1803192 0.9817291
vn -0.01676005 -0.8369489 0.5470243
vn -0.01676005 -0.8369489 0.5470243
vn -0.01676005 -0.8369489 0.5470243
vn -0.01676005 -0.8369489 0.5470243
vn -0.04730305 0.7103891 0.7022178
vn -0.04730305 0.710389 0.7022178
vn -0.04730305 0.710389 0.7022178
vn -0.04730305 0.710389 0.7022178
vn -0.05653401 -0.2002322 0.978116
vn -0.05653401 -0.2002322 0.978116
vn -0.056534 -0.2002322 0.978116
vn -0.056534 -0.2002322 0.978116
vn -0.06851408 -0.7729626 0.6307413
vn -0.06851408 -0.7729626 0.6307412
vn -0.06851408 -0.7729626 0.6307413
vn -0.06851408 -0.7729626 0.6307412
vn -0.03044353 -0.09085976 0.9953982
vn -0.03044353 -0.09085976 0.9953982
vn -0.03044353 -0.09085976 0.9953982
vn -0.03044352 -0.09085975 0.9953982
g Boss_Color_160_0
f 3/3/3 2/2/2 1/1/1
f 6/6/6 5/5/5 4/4/4
f 9/9/9 8/8/8 7/7/7
f 10/10/10 7/7/7 8/8/8
f 7/7/7 10/10/10 11/11/11
f 7/7/7 11/11/11 12/12/12
f 13/13/13 7/7/7 12/12/12
f 14/14/14 11/11/11 10/10/10
f 10/10/10 15/15/15 14/14/14
f 16/16/16 11/11/11 14/14/14
f 19/19/19 18/18/18 17/17/17
f 17/17/17 18/18/18 20/20/20
f 21/21/21 17/17/17 20/20/20
f 18/18/18 22/22/22 20/20/20
f 23/23/23 20/20/20 22/22/22
f 24/24/24 23/23/23 22/22/22
f 18/18/18 25/25/25 22/22/22
f 25/25/25 26/26/26 22/22/22
f 29/29/29 28/28/28 27/27/27
f 30/30/30 29/29/29 27/27/27
f 33/33/33 32/32/32 31/31/31
f 34/34/34 33/33/33 31/31/31
f 37/37/37 36/36/36 35/35/35
f 38/38/38 37/37/37 35/35/35
f 41/41/41 40/40/40 39/39/39
f 42/42/42 41/41/41 39/39/39
f 45/45/45 44/44/44 43/43/43
f 46/46/46 45/45/45 43/43/43
f 49/49/49 48/48/48 47/47/47
f 50/50/50 49/49/49 47/47/47
