g Boss_Color_03
v 0.1692383 3.022765 -1.585343
v -1.364811 2.702404 1.585359
v -1.364815 2.702412 -1.585342
v 0.1692424 3.022757 1.585359
v 1.657945 2.533171 -1.585345
v 1.657949 2.533164 1.585356
v 2.702405 1.364818 -1.58535
v 2.702409 1.36481 1.585351
v 3.022758 -0.1692378 -1.585354
v 3.022762 -0.1692455 1.585347
v 2.533164 -1.657943 -1.585358
v 2.533168 -1.65795 1.585343
v 1.36481 -2.702402 -1.585359
v 1.364814 -2.70241 1.585342
v -1.364815 2.702412 -1.585342
v -1.364811 2.702404 1.585359
v -2.533165 1.657944 1.585358
v -2.533169 1.657952 -1.585343
v -3.022758 0.1692388 1.585354
v -3.022762 0.1692465 -1.585347
v -2.702405 -1.364815 1.58535
v -2.702409 -1.364807 -1.585351
v -1.657945 -2.533168 1.585346
v -1.657949 -2.53316 -1.585355
v -0.1692396 -3.022761 1.585343
v -0.1692436 -3.022753 -1.585358
v 1.364814 -2.70241 1.585342
v 1.36481 -2.702402 -1.585359
vt 0.4384481 0.03167823
vt 0.438051 0.03671118
vt 0.438051 0.03167823
vt 0.4384481 0.03671118
vt 0.439533 0.03167823
vt 0.439533 0.03671118
vt 0.4410149 0.03167823
vt 0.4410149 0.03671118
vt 0.4424969 0.03167823
vt 0.4424969 0.03671118
vt 0.4435817 0.03167823
vt 0.4435817 0.03671118
vt 0.4439788 0.03167823
vt 0.4439788 0.03671118
vt 0.438051 0.03167823
vt 0.438051 0.03671118
vt 0.4384481 0.03671118
vt 0.4384481 0.03167823
vt 0.439533 0.03671118
vt 0.439533 0.03167823
vt 0.4410149 0.03671118
vt 0.4410149 0.03167823
vt 0.4424969 0.03671118
vt 0.4424969 0.03167823
vt 0.4435817 0.03671118
vt 0.4435817 0.03167823
vt 0.4439788 0.03671118
vt 0.4439788 0.03167823
vn 0.05590124 0.9984363 0
vn -0.4508062 0.8926219 0
vn -0.4508063 0.8926218 0
vn 0.05590129 0.9984363 0
vn 0.5476299 0.8367207 0
vn 0.5476299 0.8367207 0
vn 0.8926219 0.4508061 0
vn 0.8926219 0.4508062 0
vn 0.9984363 -0.05590177 0
vn 0.9984363 -0.05590167 0
vn 0.8367202 -0.5476305 0
vn 0.8367203 -0.5476305 0
vn 0.4508057 -0.8926221 0
vn 0.4508057 -0.8926221 0
vn -0.4508063 0.8926218 0
vn -0.4508062 0.8926219 0
vn -0.8367205 0.54763 0
vn -0.8367206 0.54763 0
vn -0.9984363 0.05590131 0
vn -0.9984363 0.0559012 0
vn -0.8926219 -0.4508061 0
vn -0.8926219 -0.4508062 0
vn -0.5476301 -0.8367205 0
vn -0.5476301 -0.8367205 0
vn -0.05590164 -0.9984363 0
vn -0.0559017 -0.9984363 0
vn 0.4508057 -0.8926221 0
vn 0.4508057 -0.8926221 0
g Boss_Color_03_0
f 3/3/3 2/2/2 1/1/1
f 2/2/2 4/4/4 1/1/1
f 1/1/1 4/4/4 5/5/5
f 4/4/4 6/6/6 5/5/5
f 5/5/5 6/6/6 7/7/7
f 6/6/6 8/8/8 7/7/7
f 7/7/7 8/8/8 9/9/9
f 8/8/8 10/10/10 9/9/9
f 9/9/9 10/10/10 11/11/11
f 10/10/10 12/12/12 11/11/11
f 11/11/11 12/12/12 13/13/13
f 12/12/12 14/14/14 13/13/13
f 17/17/17 16/16/16 15/15/15
f 18/18/18 17/17/17 15/15/15
f 19/19/19 17/17/17 18/18/18
f 20/20/20 19/19/19 18/18/18
f 21/21/21 19/19/19 20/20/20
f 22/22/22 21/21/21 20/20/20
f 23/23/23 21/21/21 22/22/22
f 24/24/24 23/23/23 22/22/22
f 25/25/25 23/23/23 24/24/24
f 26/26/26 25/25/25 24/24/24
f 27/27/27 25/25/25 26/26/26
f 28/28/28 27/27/27 26/26/26
