g Boss_Color_070
v 27.13363 5.707122 -12.36689
v -27.13366 5.707001 0.7518132
v -27.13365 5.707037 -12.36693
v 27.13362 5.707067 18.35216
v 13.97668 -5.707047 0.7067253
v 13.49824 5.707078 -0.06071403
v 13.97668 -5.707047 0.7067253
v 27.13362 5.707067 18.35216
v 27.13363 -5.707058 19.97663
v 13.49824 5.707078 -0.06071403
v 6.358488 -5.707068 3.004492
v 6.230339 5.70705 3.193341
v 6.358488 -5.707068 3.004492
v 13.49824 5.707078 -0.06071403
v 13.97668 -5.707047 0.7067253
v -7.509373 5.70701 9.635605
v -13.69476 -5.707122 11.71897
v -13.5651 5.706996 11.18175
v -13.69476 -5.707122 11.71897
v -7.509373 5.70701 9.635605
v -7.005712 -5.707105 9.035417
v -13.5651 5.706996 11.18175
v -15.11123 -5.707141 16.37485
v -13.5651 5.70698 16.37488
v -15.11123 -5.707141 16.37485
v -13.5651 5.706996 11.18175
v -13.69476 -5.707122 11.71897
v -16.88473 -5.707152 16.37484
v -13.5651 5.70698 16.37488
v -15.11123 -5.707141 16.37485
v -16.88475 5.706965 16.37487
v -27.13365 5.707049 -16.37488
v 27.13363 5.707122 -12.36689
v -27.13365 5.707037 -12.36693
v 27.13363 5.707132 -16.37483
v -27.13363 -5.70707 -16.37491
v -27.13364 -5.70712 0.7517841
v 27.13365 -5.706992 -16.37486
v -2.516357 -5.707063 -4.087315
v -7.005712 -5.707105 9.035417
v -21.67914 -5.707138 9.066424
v 13.97668 -5.707047 0.7067253
v 27.13363 -5.707058 19.97663
v 6.358488 -5.707068 3.004492
v -13.69476 -5.707122 11.71897
v -16.88473 -5.707152 16.37484
v -15.11123 -5.707141 16.37485
v -19.95367 -5.707142 11.69667
v -7.005712 -5.707105 9.035417
v -19.95367 -5.707142 11.69667
v -13.69476 -5.707122 11.71897
v -21.67914 -5.707138 9.066424
v -2.613253 5.707059 -4.021995
v 13.49824 5.707078 -0.06071403
v 6.230339 5.70705 3.193341
v 27.13363 5.707122 -12.36689
v 27.13362 5.707067 18.35216
v -27.13366 5.707001 0.7518132
v -7.509373 5.70701 9.635605
v -13.5651 5.706996 11.18175
v -16.88475 5.706965 16.37487
v -13.5651 5.70698 16.37488
v 6.230339 5.70705 3.193341
v -2.516357 -5.707063 -4.087315
v -2.613253 5.707059 -4.021995
v 6.358488 -5.707068 3.004492
v -2.613253 5.707059 -4.021995
v -7.005712 -5.707105 9.035417
v -7.509373 5.70701 9.635605
v -2.516357 -5.707063 -4.087315
vt 0.7670472 0.03821016
vt 0.7671556 0.03821016
vt 0.7671556 0.03821016
vt 0.7085411 0.03519168
vt 0.7085597 0.03519168
vt 0.7085597 0.03519168
vt 0.7085597 0.03519168
vt 0.7085411 0.03519168
vt 0.7085411 0.03519168
vt 0.7085597 0.03519168
vt 0.7085634 0.03519168
vt 0.7085634 0.03519168
vt 0.7085634 0.03519168
vt 0.7085597 0.03519168
vt 0.7085597 0.03519168
vt 0.7085862 0.03519168
vt 0.7086 0.03519168
vt 0.7086 0.03519168
vt 0.7086 0.03519168
vt 0.7085862 0.03519168
vt 0.7085862 0.03519168
vt 0.7086 0.03519168
vt 0.7085984 0.03519168
vt 0.7085984 0.03519168
vt 0.7085984 0.03519168
vt 0.7086 0.03519168
vt 0.7086 0.03519168
vt 0.7684513 0.04167075
vt 0.7681699 0.04187732
vt 0.7681968 0.04167075
vt 0.7684513 0.04187732
vt 0.7947469 0.03712595
vt 0.7942575 0.03712595
vt 0.7947469 0.03712595
vt 0.794108 0.03712595
vt 0.76697 0.03450533
vt 0.7670231 0.03498329
vt 0.7662953 0.03458027
vt 0.7665424 0.03489996
vt 0.7666389 0.03525999
vt 0.7669811 0.03522287
vt 0.7664109 0.03494174
vt 0.7663494 0.03506743
vt 0.7664807 0.03510717
vt 0.7670885 0.03821016
vt 0.7671289 0.03821016
vt 0.7670908 0.03821016
vt 0.7671393 0.03821016
vt 0.7943642 0.03712595
vt 0.7946733 0.03712595
vt 0.7944441 0.03712595
vt 0.7946948 0.03712595
vt 0.7085837 0.03519168
vt 0.7085597 0.03519168
vt 0.7085634 0.03519168
vt 0.7085547 0.03519168
vt 0.7085411 0.03519168
vt 0.7086632 0.03519168
vt 0.7085862 0.03519168
vt 0.7086 0.03519168
vt 0.7086365 0.03519168
vt 0.7085984 0.03519168
vt 0.7085634 0.03519168
vt 0.7085837 0.03519168
vt 0.7085837 0.03519168
vt 0.7085634 0.03519168
vt 0.7085837 0.03519168
vt 0.7085862 0.03519168
vt 0.7085862 0.03519168
vt 0.7085837 0.03519168
vn 0 1 0
vn 0 1 0
vn 0 1 0
vn -0.8036201 0.006327621 0.595109
vn -0.80362 0.006327621 0.595109
vn -0.80362 0.00632762 0.595109
vn -0.8232138 0.07999288 0.5620677
vn -0.8232139 0.07999288 0.5620677
vn -0.8232138 0.07999288 0.5620677
vn 0.4086182 -0.01051226 0.9126449
vn 0.4086183 -0.01051226 0.9126449
vn 0.4086182 -0.01051226 0.9126449
vn 0.2879258 0.07625312 0.9546121
vn 0.2879257 0.07625312 0.9546121
vn 0.2879258 0.07625312 0.9546121
vn 0.2471569 0.04275453 0.9680318
vn 0.2471569 0.04275453 0.9680318
vn 0.2471569 0.04275453 0.9680318
vn 0.3721451 -0.03235519 0.9276105
vn 0.3721452 -0.03235519 0.9276105
vn 0.3721452 -0.03235519 0.9276105
vn 0.9909499 -0.1342318 0
vn 0.9909499 -0.1342318 0
vn 0.9909499 -0.1342318 0
vn 0.9567004 0.002831864 0.2910607
vn 0.9567004 0.002831864 0.2910607
vn 0.9567004 0.002831864 0.2910607
vn 0 0 1
vn 0 0 1
vn 0 0 1
vn 0 0 1
vn 0 1 0
vn 0 1 0
vn 0 1 0
vn 0 1 0
vn 0 -1 0
vn 0 -1 0
vn 0 -1 0
vn 0 -1 0
vn 0 -1 0
vn 0 -1 0
vn 0 -1 0
vn 0 -1 0
vn 0 -1 0
vn 0 -1 0
vn 0 -1 0
vn 0 -1 0
vn 0 -1 0
vn 0 -1 0
vn 0 -1 0
vn 0 -1 0
vn 0 -1 0
vn 0 1 0
vn 0 1 0
vn 0 1 0
vn 0 1 0
vn 0 1 0
vn 0 1 0
vn 0 1 0
vn 0 1 0
vn 0 1 0
vn 0 1 0
vn -0.6321399 -0.009800294 0.7747924
vn -0.6321398 -0.009800293 0.7747924
vn -0.6321398 -0.009800293 0.7747924
vn -0.6241378 -0.01993012 0.78106
vn 0.941073 0.02378624 0.3373659
vn 0.941073 0.02378624 0.3373658
vn 0.941073 0.02378624 0.3373658
vn 0.9461459 0.006179616 0.3236815
g Boss_Color_070_0
f 3/3/3 2/2/2 1/1/1
f 6/6/6 5/5/5 4/4/4
f 9/9/9 8/8/8 7/7/7
f 12/12/12 11/11/11 10/10/10
f 15/15/15 14/14/14 13/13/13
f 18/18/18 17/17/17 16/16/16
f 21/21/21 20/20/20 19/19/19
f 24/24/24 23/23/23 22/22/22
f 27/27/27 26/26/26 25/25/25
f 30/30/30 29/29/29 28/28/28
f 31/31/31 28/28/28 29/29/29
f 34/34/34 33/33/33 32/32/32
f 35/35/35 32/32/32 33/33/33
f 38/38/38 37/37/37 36/36/36
f 38/38/38 39/39/39 37/37/37
f 37/37/37 39/39/39 40/40/40
f 41/41/41 37/37/37 40/40/40
f 42/42/42 39/39/39 38/38/38
f 43/43/43 42/42/42 38/38/38
f 44/44/44 39/39/39 42/42/42
f 47/47/47 46/46/46 45/45/45
f 48/48/48 45/45/45 46/46/46
f 51/51/51 50/50/50 49/49/49
f 52/52/52 49/49/49 50/50/50
f 55/55/55 54/54/54 53/53/53
f 54/54/54 56/56/56 53/53/53
f 57/57/57 56/56/56 54/54/54
f 56/56/56 58/58/58 53/53/53
f 53/53/53 58/58/58 59/59/59
f 59/59/59 58/58/58 60/60/60
f 58/58/58 61/61/61 60/60/60
f 61/61/61 62/62/62 60/60/60
f 65/65/65 64/64/64 63/63/63
f 66/66/66 63/63/63 64/64/64
f 69/69/69 68/68/68 67/67/67
f 70/70/70 67/67/67 68/68/68
