g Boss_Color_05
v 3.510899 3.510916 -0.6911566
v 1.285075 4.79599 0.6911679
v 1.285073 4.795995 -0.6911507
v 3.510901 3.510912 0.691162
v 4.795982 1.285092 -0.691164
v 4.795984 1.285089 0.6911547
v 4.795983 -1.285069 -0.6911709
v 4.795985 -1.285072 0.6911476
v 3.510902 -3.510897 -0.6911755
v 3.510904 -3.5109 0.6911431
v 1.285078 -4.795978 -0.6911767
v 1.28508 -4.795982 0.691142
v -1.285082 -4.795978 -0.6911739
v -1.28508 -4.795982 0.6911448
v 1.285073 4.795995 -0.6911507
v 1.285075 4.79599 0.6911679
v -1.285086 4.79599 0.6911706
v -1.285088 4.795993 -0.6911479
v -3.51091 3.510907 0.6911696
v -3.510912 3.510911 -0.6911491
v -4.795988 1.285082 0.691165
v -4.79599 1.285086 -0.6911536
v -4.795987 -1.285079 0.691158
v -4.795989 -1.285075 -0.6911606
v -3.510905 -3.510903 0.6911506
v -3.510907 -3.510899 -0.691168
v -1.28508 -4.795982 0.6911448
v -1.285082 -4.795978 -0.6911739
v 4.795985 -1.285072 0.6911476
v -1.474787E-06 4.488059E-06 0.6911563
v 4.795984 1.285089 0.6911547
v 3.510904 -3.5109 0.6911431
v 3.510901 3.510912 0.691162
v 1.28508 -4.795982 0.691142
v 1.285075 4.79599 0.6911679
v -1.28508 -4.795982 0.6911448
v -1.285086 4.79599 0.6911706
v -3.510905 -3.510903 0.6911506
v -3.51091 3.510907 0.6911696
v -4.795987 -1.285079 0.691158
v -4.795988 1.285082 0.691165
vt 0.4865145 0.0331387
vt 0.4862513 0.03525071
vt 0.4862513 0.0331387
vt 0.4865145 0.03525071
vt 0.4872333 0.0331387
vt 0.4872333 0.03525071
vt 0.4882152 0.0331387
vt 0.4882152 0.03525071
vt 0.489197 0.0331387
vt 0.489197 0.03525071
vt 0.4899159 0.0331387
vt 0.4899159 0.03525071
vt 0.490179 0.0331387
vt 0.490179 0.03525071
vt 0.4862513 0.0331387
vt 0.4862513 0.03525071
vt 0.4865145 0.03525071
vt 0.4865145 0.0331387
vt 0.4872333 0.03525071
vt 0.4872333 0.0331387
vt 0.4882152 0.03525071
vt 0.4882152 0.0331387
vt 0.489197 0.03525071
vt 0.489197 0.0331387
vt 0.4899159 0.03525071
vt 0.4899159 0.0331387
vt 0.490179 0.03525071
vt 0.490179 0.0331387
vt 0.4623854 0.01590808
vt 0.4623854 0.01218501
vt 0.460264 0.01539876
vt 0.4645067 0.01539876
vt 0.4587347 0.01402833
vt 0.466036 0.01402833
vt 0.4581835 0.01218501
vt 0.4665872 0.01218501
vt 0.4587346 0.01034169
vt 0.466036 0.01034169
vt 0.460264 0.008971278
vt 0.4645067 0.008971278
vt 0.4623854 0.008461941
vn 0.7071061 0.7071074 0
vn 0.2588184 0.9659259 0
vn 0.2588183 0.9659261 0
vn 0.7071061 0.7071074 0
vn 0.9659256 0.2588197 0
vn 0.9659256 0.2588197 0
vn 0.9659259 -0.2588185 0
vn 0.9659259 -0.2588184 0
vn 0.707107 -0.7071065 0
vn 0.7071072 -0.7071064 0
vn 0.2588192 -0.9659257 0
vn 0.2588191 -0.9659257 0
vn -0.2588188 -0.9659258 0
vn -0.2588188 -0.9659258 0
vn 0.2588183 0.9659261 0
vn 0.2588184 0.9659259 0
vn -0.2588197 0.9659256 0
vn -0.2588197 0.9659256 0
vn -0.7071074 0.7071062 0
vn -0.7071074 0.7071061 0
vn -0.9659259 0.2588185 0
vn -0.9659259 0.2588184 0
vn -0.9659256 -0.2588196 0
vn -0.9659256 -0.2588196 0
vn -0.7071064 -0.7071071 0
vn -0.7071063 -0.7071072 0
vn -0.2588188 -0.9659258 0
vn -0.2588188 -0.9659258 0
vn 0 0 1
vn 0 0 1
vn 0 0 1
vn 0 0 1
vn 0 0 1
vn 0 0 1
vn 0 0 1
vn 0 0 1
vn 0 0 1
vn 0 0 1
vn 0 0 1
vn 0 0 1
vn 0 0 1
g Boss_Color_05_0
f 3/3/3 2/2/2 1/1/1
f 2/2/2 4/4/4 1/1/1
f 1/1/1 4/4/4 5/5/5
f 4/4/4 6/6/6 5/5/5
f 5/5/5 6/6/6 7/7/7
f 6/6/6 8/8/8 7/7/7
f 7/7/7 8/8/8 9/9/9
f 8/8/8 10/10/10 9/9/9
f 9/9/9 10/10/10 11/11/11
f 10/10/10 12/12/12 11/11/11
f 11/11/11 12/12/12 13/13/13
f 12/12/12 14/14/14 13/13/13
f 17/17/17 16/16/16 15/15/15
f 18/18/18 17/17/17 15/15/15
f 19/19/19 17/17/17 18/18/18
f 20/20/20 19/19/19 18/18/18
f 21/21/21 19/19/19 20/20/20
f 22/22/22 21/21/21 20/20/20
f 23/23/23 21/21/21 22/22/22
f 24/24/24 23/23/23 22/22/22
f 25/25/25 23/23/23 24/24/24
f 26/26/26 25/25/25 24/24/24
f 27/27/27 25/25/25 26/26/26
f 28/28/28 27/27/27 26/26/26
f 31/31/31 30/30/30 29/29/29
f 29/29/29 30/30/30 32/32/32
f 33/33/33 30/30/30 31/31/31
f 32/32/32 30/30/30 34/34/34
f 35/35/35 30/30/30 33/33/33
f 34/34/34 30/30/30 36/36/36
f 37/37/37 30/30/30 35/35/35
f 36/36/36 30/30/30 38/38/38
f 39/39/39 30/30/30 37/37/37
f 38/38/38 30/30/30 40/40/40
f 41/41/41 30/30/30 39/39/39
f 40/40/40 30/30/30 41/41/41
