g Boss_Color_14
v 2.987769 -3.309335 5.429647
v 0.4951214 -6.9127 5.429635
v 0.3675637 -3.309345 5.429646
v 5.991453 -6.91268 5.429636
v 6.661139 -6.661139 5.429639
v 3.309317 -2.987784 5.429648
v 6.912675 -5.991452 5.429638
v 6.91266 -0.4951243 5.429657
v 3.309309 -0.367582 5.429657
v 2.987767 -3.309328 3.035808
v 0.3675637 -3.309345 5.429646
v 0.3675631 -3.309338 3.035808
v 2.987769 -3.309335 5.429647
v 3.309317 -2.987777 3.03581
v 3.309317 -2.987784 5.429648
v 3.309309 -0.367582 5.429657
v 3.309309 -0.3675736 3.035819
v 0.3675631 -3.309338 3.035808
v 0.4951214 -6.9127 5.429635
v 0.4951209 -6.912693 3.035796
v 0.3675637 -3.309345 5.429646
v 0.4951209 -6.912693 3.035796
v 0.4951214 -6.9127 5.429635
v 5.991453 -6.91268 5.429636
v 5.991454 -6.91266 -0.6134282
v -0.4950745 -6.912696 3.035796
v 6.661139 -6.661139 5.429639
v 6.661138 -6.661119 -0.6134271
v 6.912673 -5.991435 -0.6134251
v 6.912675 -5.991452 5.429638
v -5.991407 -6.9127 -0.6134288
v 6.912659 -0.4951163 3.035818
v 6.912656 0.4951463 3.035821
v 6.91266 -0.4951243 5.429657
v -5.991406 -6.91272 5.429635
v -0.4950742 -6.912703 5.429636
v -6.661093 -6.661185 5.429639
v -6.661093 -6.661165 -0.6134278
v -6.912632 -5.991481 -0.613426
v -6.912634 -5.991499 5.429638
v -6.912655 -0.4951638 3.035817
v -6.912654 -0.4951718 5.429656
v -6.912658 0.4950992 3.03582
v -6.912673 5.99144 -0.6133865
v -6.912673 5.99142 5.429677
v -6.912658 0.4950927 5.429659
v 0.3675631 -3.309338 3.035808
v 3.309317 -2.987777 3.03581
v 2.987767 -3.309328 3.035808
v 3.309309 -0.3675736 3.035819
v -3.309304 -0.3675963 3.035816
v -0.3675396 -3.30934 3.035807
v -0.4950745 -6.912696 3.035796
v 0.4951209 -6.912693 3.035796
v -3.309296 -2.987799 3.035808
v -2.987744 -3.309348 3.035806
v 0.367541 3.309322 3.03583
v 3.309307 0.367579 3.035821
v 6.912656 0.4951463 3.035821
v 6.912659 -0.4951163 3.035818
v 3.309297 2.987782 3.035829
v 2.987746 3.30933 3.035831
v -0.3675618 3.30932 3.035829
v -0.4951208 6.912675 3.035842
v 0.4950746 6.912678 3.035842
v -3.309306 0.3675567 3.035819
v -3.309315 2.98776 3.035828
v -2.987766 3.30931 3.03583
v -6.912658 0.4950992 3.03582
v -6.912655 -0.4951638 3.035817
v 3.309309 -0.3675736 3.035819
v 6.91266 -0.4951243 5.429657
v 3.309309 -0.367582 5.429657
v 6.912659 -0.4951163 3.035818
v 6.661138 -6.661119 -0.6134271
v 6.912673 -5.991435 -0.6134251
v 5.933608 -5.345783 -1.881797
v 5.3458 -5.933596 -1.881799
v 5.991454 -6.91266 -0.6134282
v -5.34576 -5.933631 -1.8818
v -5.991407 -6.9127 -0.6134288
v -6.661093 -6.661165 -0.6134278
v -5.933572 -5.345823 -1.881798
v -6.912632 -5.991481 -0.613426
v -6.912673 5.99144 -0.6133865
v -5.933608 5.345797 -1.881763
v -0.4950742 -6.912703 5.429636
v -2.987744 -3.309356 5.429646
v -0.3675396 -3.309347 5.429645
v -5.991406 -6.91272 5.429635
v -6.661093 -6.661185 5.429639
v -3.309296 -2.987807 5.429647
v -6.912634 -5.991499 5.429638
v -6.912654 -0.4951718 5.429656
v -3.309304 -0.3676045 5.429655
v -2.987744 -3.309348 3.035806
v -0.3675396 -3.309347 5.429645
v -2.987744 -3.309356 5.429646
v -0.3675396 -3.30934 3.035807
v -0.3675396 -3.30934 3.035807
v -0.4950742 -6.912703 5.429636
v -0.3675396 -3.309347 5.429645
v -0.4950745 -6.912696 3.035796
v -2.987744 -3.309356 5.429646
v -3.309296 -2.987799 3.035808
v -2.987744 -3.309348 3.035806
v -3.309296 -2.987807 5.429647
v -3.309304 -0.3676045 5.429655
v -3.309304 -0.3675963 3.035816
v -3.309304 -0.3675963 3.035816
v -6.912654 -0.4951718 5.429656
v -6.912655 -0.4951638 3.035817
v -3.309304 -0.3676045 5.429655
v 0.495075 6.91267 5.42968
v 2.987746 3.309323 5.429669
v 0.3675416 3.309314 5.429668
v 5.991406 6.912687 5.429681
v 6.661094 6.661152 5.429683
v 3.309297 2.987774 5.429668
v 6.912636 5.991468 5.429677
v 6.912657 0.4951395 5.42966
v 3.309307 0.3675715 5.429659
v 2.987746 3.30933 3.035831
v 0.3675416 3.309314 5.429668
v 2.987746 3.309323 5.429669
v 0.367541 3.309322 3.03583
v 0.367541 3.309322 3.03583
v 0.495075 6.91267 5.42968
v 0.3675416 3.309314 5.429668
v 0.4950746 6.912678 3.035842
v 2.987746 3.309323 5.429669
v 3.309297 2.987782 3.035829
v 2.987746 3.30933 3.035831
v 3.309297 2.987774 5.429668
v 3.309307 0.3675715 5.429659
v 3.309307 0.367579 3.035821
v 6.912673 -5.991435 -0.6134251
v 6.912656 0.4951463 3.035821
v 6.912634 5.991488 -0.6133856
v 6.912636 5.991468 5.429677
v 6.912657 0.4951395 5.42966
v 6.661094 6.661152 5.429683
v 6.661094 6.66117 -0.6133832
v 5.991408 6.912706 -0.6133823
v 5.991406 6.912687 5.429681
v 0.4950746 6.912678 3.035842
v 0.495075 6.91267 5.42968
v -0.4951208 6.912675 3.035842
v -5.991455 6.912666 -0.613383
v -5.991452 6.912646 5.42968
v -0.4951206 6.912667 5.42968
v -6.661137 6.661106 5.429683
v -6.661139 6.661125 -0.6133838
v -6.912673 5.99144 -0.6133865
v -6.912673 5.99142 5.429677
v 3.309307 0.367579 3.035821
v 6.912657 0.4951395 5.42966
v 6.912656 0.4951463 3.035821
v 3.309307 0.3675715 5.429659
v 6.912634 5.991488 -0.6133856
v 5.933608 -5.345783 -1.881797
v 6.912673 -5.991435 -0.6134251
v 5.933573 5.345837 -1.881762
v 6.661094 6.66117 -0.6133832
v 5.34576 5.933645 -1.88176
v 5.991408 6.912706 -0.6133823
v -5.345799 5.933609 -1.881761
v -5.991455 6.912666 -0.613383
v -6.661139 6.661125 -0.6133838
v -5.933608 5.345797 -1.881763
v -6.912673 5.99144 -0.6133865
v 5.933608 -5.345783 -1.881797
v 5.933572 5.345845 -5.429639
v 5.933607 -5.345768 -5.429676
v 5.933573 5.345837 -1.881762
v 5.34576 5.933645 -1.88176
v 5.345757 5.933656 -5.429637
v -5.345796 5.93362 -5.429638
v -5.345799 5.933609 -1.881761
v -5.933608 5.345797 -1.881763
v -5.933608 5.345805 -5.42964
v -2.987766 3.309303 5.429669
v -0.4951206 6.912667 5.42968
v -0.3675617 3.309313 5.429667
v -5.991452 6.912646 5.42968
v -6.661137 6.661106 5.429683
v -3.309315 2.987752 5.429667
v -6.912673 5.99142 5.429677
v -6.912658 0.4950927 5.429659
v -3.309307 0.3675494 5.429657
v -2.987766 3.30931 3.03583
v -0.3675617 3.309313 5.429667
v -0.3675618 3.30932 3.035829
v -2.987766 3.309303 5.429669
v -3.309315 2.98776 3.035828
v -3.309315 2.987752 5.429667
v -0.3675618 3.30932 3.035829
v -0.4951206 6.912667 5.42968
v -0.4951208 6.912675 3.035842
v -0.3675617 3.309313 5.429667
v -3.309315 2.98776 3.035828
v -3.309307 0.3675494 5.429657
v -3.309315 2.987752 5.429667
v -3.309306 0.3675567 3.035819
v -3.309306 0.3675567 3.035819
v -6.912658 0.4950927 5.429659
v -3.309307 0.3675494 5.429657
v -6.912658 0.4950992 3.03582
v -5.933608 5.345797 -1.881763
v -5.933572 -5.345809 -5.429676
v -5.933608 5.345805 -5.42964
v -5.933572 -5.345823 -1.881798
v -5.34576 -5.933631 -1.8818
v -5.345757 -5.93362 -5.429678
v 5.345796 -5.933585 -5.429677
v 5.3458 -5.933596 -1.881799
v 5.933608 -5.345783 -1.881797
v 5.933607 -5.345768 -5.429676
vt 0.03611252 0.01301928
vt 0.03586094 0.01301928
vt 0.03584807 0.01301928
vt 0.03641567 0.01301928
vt 0.03648327 0.01301928
vt 0.03614498 0.01301928
vt 0.03650866 0.01301928
vt 0.03650866 0.01301928
vt 0.03614498 0.01301928
vt 0.06109705 0.04333964
vt 0.06066043 0.04384667
vt 0.06066043 0.04333964
vt 0.06109705 0.04384667
vt 0.06115063 0.04333964
vt 0.06115063 0.04384667
vt 0.06115063 0.04384667
vt 0.06115063 0.04333964
vt 0.0608949 0.04333964
vt 0.06091616 0.04384667
vt 0.06091616 0.04333964
vt 0.0608949 0.04384667
vt 0.01068874 0.01466669
vt 0.01068874 0.01517373
vt 0.01160461 0.01517373
vt 0.01160461 0.01389375
vt 0.01052374 0.01466669
vt 0.0117162 0.01517373
vt 0.0117162 0.01389375
vt 0.01175812 0.01389375
vt 0.01175812 0.01517373
vt 0.009607865 0.01389375
vt 0.01175812 0.01466669
vt 0.01175812 0.01466669
vt 0.01175812 0.01517373
vt 0.009607865 0.01517373
vt 0.01052374 0.01517373
vt 0.009496273 0.01517373
vt 0.009496273 0.01389375
vt 0.009454358 0.01389375
vt 0.009454358 0.01517373
vt 0.009454357 0.01466669
vt 0.009454357 0.01517373
vt 0.009454357 0.01466669
vt 0.009454357 0.01389375
vt 0.009454357 0.01517373
vt 0.009454357 0.01517373
vt 0.03724074 0.04425476
vt 0.03744456 0.04425476
vt 0.03742228 0.04425476
vt 0.03744456 0.04425476
vt 0.03698599 0.04425476
vt 0.03717818 0.04425476
vt 0.03716531 0.04425476
vt 0.03726524 0.04425476
vt 0.03698599 0.04425476
vt 0.03700827 0.04425476
vt 0.03724074 0.04425476
vt 0.03744456 0.04425476
vt 0.03739712 0.04425476
vt 0.03739712 0.04425476
vt 0.03744456 0.04425476
vt 0.03742228 0.04425476
vt 0.03717818 0.04425476
vt 0.03716531 0.04425476
vt 0.03726524 0.04425476
vt 0.03698599 0.04425476
vt 0.03698599 0.04425476
vt 0.03700827 0.04425476
vt 0.03703344 0.04425476
vt 0.03703344 0.04425476
vt 0.06060531 0.04333964
vt 0.06120575 0.04384667
vt 0.06060531 0.04384667
vt 0.06120575 0.04333964
vt 0.0117162 0.01389375
vt 0.01175812 0.01389375
vt 0.01159497 0.01362509
vt 0.01149702 0.01362509
vt 0.01160461 0.01389375
vt 0.009715453 0.01362509
vt 0.009607865 0.01389375
vt 0.009496273 0.01389375
vt 0.009617504 0.01362509
vt 0.009454358 0.01389375
vt 0.009454357 0.01389375
vt 0.009617501 0.01362509
vt 0.03649579 0.01301928
vt 0.0362442 0.01301928
vt 0.03650866 0.01301928
vt 0.03594105 0.01301928
vt 0.03587345 0.01301928
vt 0.03621175 0.01301928
vt 0.03584807 0.01301928
vt 0.03584807 0.01301928
vt 0.03621175 0.01301928
vt 0.06071401 0.04333964
vt 0.06115063 0.04384667
vt 0.06071401 0.04384667
vt 0.06115063 0.04333964
vt 0.06091616 0.04333964
vt 0.06089491 0.04384667
vt 0.06091616 0.04384667
vt 0.06089491 0.04333964
vt 0.06071401 0.04384667
vt 0.06066043 0.04333964
vt 0.06071401 0.04333964
vt 0.06066043 0.04384667
vt 0.06066043 0.04384667
vt 0.06066043 0.04333964
vt 0.06120575 0.04333964
vt 0.06060531 0.04384667
vt 0.06060531 0.04333964
vt 0.06120575 0.04384667
vt 0.03586094 0.01301928
vt 0.03611252 0.01301928
vt 0.03584807 0.01301928
vt 0.03641567 0.01301928
vt 0.03648327 0.01301928
vt 0.03614498 0.01301928
vt 0.03650866 0.01301928
vt 0.03650866 0.01301928
vt 0.03614498 0.01301928
vt 0.06109705 0.04333964
vt 0.06066043 0.04384667
vt 0.06109705 0.04384667
vt 0.06066043 0.04333964
vt 0.06089491 0.04333964
vt 0.06091616 0.04384667
vt 0.06089491 0.04384667
vt 0.06091616 0.04333964
vt 0.06109705 0.04384667
vt 0.06115063 0.04333964
vt 0.06109705 0.04333964
vt 0.06115063 0.04384667
vt 0.06115063 0.04384667
vt 0.06115063 0.04333964
vt 0.01175812 0.01389375
vt 0.01175812 0.01466669
vt 0.01175812 0.01389375
vt 0.01175812 0.01517373
vt 0.01175812 0.01517373
vt 0.0117162 0.01517373
vt 0.0117162 0.01389375
vt 0.01160461 0.01389375
vt 0.01160461 0.01517373
vt 0.01068874 0.01466669
vt 0.01068874 0.01517373
vt 0.01052374 0.01466669
vt 0.009607863 0.01389375
vt 0.009607863 0.01517373
vt 0.01052374 0.01517373
vt 0.009496271 0.01517373
vt 0.009496272 0.01389375
vt 0.009454357 0.01389375
vt 0.009454357 0.01517373
vt 0.06060531 0.04333964
vt 0.06120575 0.04384667
vt 0.06120575 0.04333964
vt 0.06060531 0.04384667
vt 0.01175812 0.01389375
vt 0.01159497 0.01362509
vt 0.01175812 0.01389375
vt 0.01159497 0.01362509
vt 0.0117162 0.01389375
vt 0.01149702 0.01362509
vt 0.01160461 0.01389375
vt 0.009715451 0.01362509
vt 0.009607863 0.01389375
vt 0.009496272 0.01389375
vt 0.009617501 0.01362509
vt 0.009454357 0.01389375
vt 0.01159497 0.01362509
vt 0.01159497 0.01287362
vt 0.01159497 0.01287362
vt 0.01159497 0.01362509
vt 0.01149702 0.01362509
vt 0.01149702 0.01287362
vt 0.009715451 0.01287362
vt 0.009715451 0.01362509
vt 0.009617501 0.01362509
vt 0.009617502 0.01287362
vt 0.0362442 0.01301928
vt 0.03649579 0.01301928
vt 0.03650866 0.01301928
vt 0.03594105 0.01301928
vt 0.03587345 0.01301928
vt 0.03621175 0.01301928
vt 0.03584807 0.01301928
vt 0.03584807 0.01301928
vt 0.03621175 0.01301928
vt 0.06071401 0.04333964
vt 0.06115063 0.04384667
vt 0.06115063 0.04333964
vt 0.06071401 0.04384667
vt 0.06066043 0.04333964
vt 0.06066043 0.04384667
vt 0.06091616 0.04333964
vt 0.06089491 0.04384667
vt 0.06089491 0.04333964
vt 0.06091616 0.04384667
vt 0.06066043 0.04333964
vt 0.06066043 0.04384667
vt 0.06066043 0.04384667
vt 0.06066043 0.04333964
vt 0.06120575 0.04333964
vt 0.06060531 0.04384667
vt 0.06120575 0.04384667
vt 0.06060531 0.04333964
vt 0.009617501 0.01362509
vt 0.009617504 0.01287362
vt 0.009617502 0.01287362
vt 0.009617504 0.01362509
vt 0.009715453 0.01362509
vt 0.009715454 0.01287362
vt 0.01149702 0.01287362
vt 0.01149702 0.01362509
vt 0.01159497 0.01362509
vt 0.01159497 0.01287362
vn 0 0 1
vn 0 0 1
vn 0 0 1
vn 0 0 1
vn 0 0 1
vn 0 0 1
vn 0 0 1
vn 0 0 1
vn 0 0 1
vn -0.3826858 0.9238786 0
vn 0 1 0
vn 0 1 0
vn -0.3826873 0.923878 0
vn -0.9238805 0.3826813 0
vn -0.9238809 0.38268 0
vn -1 0 0
vn -1 0 0
vn -0.9993741 -0.03537756 0
vn -0.9993741 -0.03537757 0
vn -0.9993741 -0.03537758 0
vn -0.9993741 -0.03537755 0
vn 0 -1 0
vn 0 -1 0
vn 0.1786896 -0.9839055 0
vn 0.1786903 -0.9839054 0
vn 0 -1 0
vn 0.707109 -0.7071045 0
vn 0.7071095 -0.7071041 0
vn 0.9839066 -0.1786835 0
vn 0.9839066 -0.1786832 0
vn -0.1786829 -0.9839067 0
vn 1 0 0
vn 1 0 0
vn 1 0 0
vn -0.1786826 -0.9839067 0
vn 0 -1 0
vn -0.7071041 -0.7071094 0
vn -0.7071047 -0.7071089 0
vn -0.9839055 -0.1786894 0
vn -0.9839054 -0.1786899 0
vn -1 0 0
vn -1 0 0
vn -1 0 0
vn -0.9839067 0.178683 0
vn -0.9839065 0.1786839 0
vn -1 0 0
vn 0 0 1
vn 0 0 1
vn 0 0 1
vn 0 0 1
vn 0 0 1
vn 0 0 1
vn 0 0 1
vn 0 0 1
vn 0 0 1
vn 0 0 1
vn 0 0 1
vn 0 0 1
vn 0 0 1
vn 0 0 1
vn 0 0 1
vn 0 0 1
vn 0 0 1
vn 0 0 1
vn 0 0 1
vn 0 0 1
vn 0 0 1
vn 0 0 1
vn 0 0 1
vn 0 0 1
vn 0.03537336 0.9993742 0
vn 0.03537338 0.9993742 0
vn 0.03537333 0.9993742 0
vn 0.03537342 0.9993742 0
vn 0.4963493 -0.4963432 -0.7122365
vn 0.7418817 -0.1560773 -0.652113
vn 0.6884279 -0.2061826 -0.6953816
vn 0.2061899 -0.6884242 -0.6953832
vn 0.1560847 -0.7418786 -0.6521148
vn -0.2061848 -0.6884256 -0.6953833
vn -0.1560791 -0.7418798 -0.6521147
vn -0.4963457 -0.4963465 -0.7122367
vn -0.6884265 -0.2061873 -0.6953818
vn -0.741881 -0.1560819 -0.6521128
vn -0.7418816 0.1560813 -0.6521122
vn -0.6884276 0.2061872 -0.6953806
vn 0 0 1
vn 0 0 1
vn 0 0 1
vn 0 0 1
vn 0 0 1
vn 0 0 1
vn 0 0 1
vn 0 0 1
vn 0 0 1
vn 0 1 0
vn 0 1 0
vn 0 1 0
vn 0 1 0
vn 0.9993743 -0.03537118 0
vn 0.9993743 -0.03537118 0
vn 0.9993743 -0.03537117 0
vn 0.9993743 -0.0353712 0
vn 0.7071037 0.7071098 0
vn 0.9238782 0.3826867 0
vn 0.7071044 0.7071091 0
vn 0.9238781 0.382687 0
vn 1 0 0
vn 1 0 0
vn -0.03538028 0.999374 0
vn -0.03538029 0.999374 0
vn -0.03538031 0.999374 0
vn -0.03538025 0.999374 0
vn 0 0 1
vn 0 0 1
vn 0 0 1
vn 0 0 1
vn 0 0 1
vn 0 0 1
vn 0 0 1
vn 0 0 1
vn 0 0 1
vn 0 -1 0
vn 0 -1 0
vn 0 -1 0
vn 0 -1 0
vn -0.9993743 0.03537083 0
vn -0.9993743 0.03537085 0
vn -0.9993743 0.0353708 0
vn -0.9993743 0.03537087 0
vn -0.7071044 -0.7071091 0
vn -0.9238783 -0.3826865 0
vn -0.7071044 -0.7071091 0
vn -0.9238782 -0.3826867 0
vn -1 0 0
vn -1 0 0
vn 0.9839066 -0.1786835 0
vn 1 0 0
vn 0.9839055 0.1786897 0
vn 0.9839053 0.178691 0
vn 1 0 0
vn 0.707103 0.7071106 0
vn 0.7071043 0.7071093 0
vn 0.1786827 0.9839067 0
vn 0.1786822 0.9839069 0
vn 0 1 0
vn 0 1 0
vn 0 1 0
vn -0.1786901 0.9839054 0
vn -0.1786894 0.9839055 0
vn 0 1 0
vn -0.7071085 0.707105 0
vn -0.7071097 0.7071038 0
vn -0.9839067 0.178683 0
vn -0.9839065 0.1786839 0
vn 0.03538037 -0.999374 0
vn 0.03538032 -0.999374 0
vn 0.03538024 -0.999374 0
vn 0.03538044 -0.999374 0
vn 0.7418807 0.1560863 -0.6521119
vn 0.6884279 -0.2061826 -0.6953816
vn 0.7418817 -0.1560773 -0.652113
vn 0.6884263 0.206192 -0.6953806
vn 0.4963454 0.4963515 -0.7122335
vn 0.2061847 0.6884304 -0.6953787
vn 0.1560789 0.7418843 -0.6521098
vn -0.2061894 0.6884287 -0.695379
vn -0.1560843 0.7418826 -0.6521102
vn -0.4963489 0.4963477 -0.7122337
vn -0.6884276 0.2061872 -0.6953806
vn -0.7418816 0.1560813 -0.6521122
vn 0.9238808 -0.3826802 0
vn 0.9238784 0.3826862 0
vn 0.9238811 -0.3826797 0
vn 0.9238781 0.382687 0
vn 0.3826803 0.9238808 0
vn 0.3826801 0.9238809 0
vn -0.382686 0.9238785 0
vn -0.3826867 0.9238782 0
vn -0.9238808 0.3826806 0
vn -0.9238808 0.3826806 0
vn 0 0 1
vn 0 0 1
vn 0 0 1
vn 0 0 1
vn 0 0 1
vn 0 0 1
vn 0 0 1
vn 0 0 1
vn 0 0 1
vn 0.3826863 -0.9238783 0
vn 0 -1 0
vn 0 -1 0
vn 0.3826862 -0.9238784 0
vn 0.7071081 -0.7071054 0
vn 0.7071086 -0.7071049 0
vn 0.9993741 0.03537789 0
vn 0.9993741 0.0353779 0
vn 0.9993741 0.03537791 0
vn 0.9993741 0.03537788 0
vn 1 0 0
vn 1 0 0
vn 1 0 0
vn 1 0 0
vn -0.0353735 -0.9993742 0
vn -0.03537345 -0.9993742 0
vn -0.03537358 -0.9993742 0
vn -0.03537337 -0.9993742 0
vn -0.9238808 0.3826806 0
vn -0.9238783 -0.3826863 0
vn -0.9238808 0.3826806 0
vn -0.9238781 -0.3826868 0
vn -0.3826804 -0.9238808 0
vn -0.3826802 -0.9238808 0
vn 0.3826868 -0.9238782 0
vn 0.3826871 -0.923878 0
vn 0.9238808 -0.3826802 0
vn 0.9238811 -0.3826797 0
g Boss_Color_14_0
f 3/3/3 2/2/2 1/1/1
f 4/4/4 1/1/1 2/2/2
f 5/5/5 1/1/1 4/4/4
f 6/6/6 1/1/1 5/5/5
f 6/6/6 5/5/5 7/7/7
f 7/7/7 8/8/8 6/6/6
f 9/9/9 6/6/6 8/8/8
f 12/12/12 11/11/11 10/10/10
f 13/13/13 10/10/10 11/11/11
f 10/10/10 13/13/13 14/14/14
f 15/15/15 14/14/14 13/13/13
f 15/15/15 16/16/16 14/14/14
f 17/17/17 14/14/14 16/16/16
f 20/20/20 19/19/19 18/18/18
f 21/21/21 18/18/18 19/19/19
f 24/24/24 23/23/23 22/22/22
f 25/25/25 24/24/24 22/22/22
f 22/22/22 26/26/26 25/25/25
f 24/24/24 25/25/25 27/27/27
f 28/28/28 27/27/27 25/25/25
f 28/28/28 29/29/29 27/27/27
f 30/30/30 27/27/27 29/29/29
f 31/31/31 25/25/25 26/26/26
f 30/30/30 29/29/29 32/32/32
f 32/32/32 29/29/29 33/33/33
f 34/34/34 30/30/30 32/32/32
f 35/35/35 31/31/31 26/26/26
f 36/36/36 35/35/35 26/26/26
f 35/35/35 37/37/37 31/31/31
f 38/38/38 31/31/31 37/37/37
f 38/38/38 37/37/37 39/39/39
f 40/40/40 39/39/39 37/37/37
f 39/39/39 40/40/40 41/41/41
f 40/40/40 42/42/42 41/41/41
f 41/41/41 43/43/43 39/39/39
f 44/44/44 39/39/39 43/43/43
f 45/45/45 44/44/44 43/43/43
f 46/46/46 45/45/45 43/43/43
f 49/49/49 48/48/48 47/47/47
f 50/50/50 47/47/47 48/48/48
f 47/47/47 50/50/50 51/51/51
f 52/52/52 47/47/47 51/51/51
f 52/52/52 53/53/53 47/47/47
f 54/54/54 47/47/47 53/53/53
f 51/51/51 55/55/55 52/52/52
f 56/56/56 52/52/52 55/55/55
f 50/50/50 57/57/57 51/51/51
f 58/58/58 57/57/57 50/50/50
f 58/58/58 50/50/50 59/59/59
f 60/60/60 59/59/59 50/50/50
f 58/58/58 61/61/61 57/57/57
f 62/62/62 57/57/57 61/61/61
f 51/51/51 57/57/57 63/63/63
f 63/63/63 57/57/57 64/64/64
f 65/65/65 64/64/64 57/57/57
f 66/66/66 51/51/51 63/63/63
f 66/66/66 63/63/63 67/67/67
f 68/68/68 67/67/67 63/63/63
f 66/66/66 69/69/69 51/51/51
f 70/70/70 51/51/51 69/69/69
f 73/73/73 72/72/72 71/71/71
f 74/74/74 71/71/71 72/72/72
f 77/77/77 76/76/76 75/75/75
f 77/77/77 75/75/75 78/78/78
f 79/79/79 78/78/78 75/75/75
f 78/78/78 79/79/79 80/80/80
f 81/81/81 80/80/80 79/79/79
f 80/80/80 81/81/81 82/82/82
f 82/82/82 83/83/83 80/80/80
f 84/84/84 83/83/83 82/82/82
f 84/84/84 85/85/85 83/83/83
f 86/86/86 83/83/83 85/85/85
f 89/89/89 88/88/88 87/87/87
f 90/90/90 87/87/87 88/88/88
f 88/88/88 91/91/91 90/90/90
f 92/92/92 91/91/91 88/88/88
f 91/91/91 92/92/92 93/93/93
f 93/93/93 92/92/92 94/94/94
f 95/95/95 94/94/94 92/92/92
f 98/98/98 97/97/97 96/96/96
f 99/99/99 96/96/96 97/97/97
f 102/102/102 101/101/101 100/100/100
f 103/103/103 100/100/100 101/101/101
f 106/106/106 105/105/105 104/104/104
f 107/107/107 104/104/104 105/105/105
f 107/107/107 105/105/105 108/108/108
f 109/109/109 108/108/108 105/105/105
f 112/112/112 111/111/111 110/110/110
f 113/113/113 110/110/110 111/111/111
f 116/116/116 115/115/115 114/114/114
f 117/117/117 114/114/114 115/115/115
f 115/115/115 118/118/118 117/117/117
f 119/119/119 118/118/118 115/115/115
f 118/118/118 119/119/119 120/120/120
f 120/120/120 119/119/119 121/121/121
f 122/122/122 121/121/121 119/119/119
f 125/125/125 124/124/124 123/123/123
f 126/126/126 123/123/123 124/124/124
f 129/129/129 128/128/128 127/127/127
f 130/130/130 127/127/127 128/128/128
f 133/133/133 132/132/132 131/131/131
f 134/134/134 131/131/131 132/132/132
f 134/134/134 132/132/132 135/135/135
f 136/136/136 135/135/135 132/132/132
f 139/139/139 138/138/138 137/137/137
f 139/139/139 140/140/140 138/138/138
f 140/140/140 141/141/141 138/138/138
f 140/140/140 139/139/139 142/142/142
f 143/143/143 142/142/142 139/139/139
f 143/143/143 144/144/144 142/142/142
f 145/145/145 142/142/142 144/144/144
f 145/145/145 144/144/144 146/146/146
f 147/147/147 145/145/145 146/146/146
f 146/146/146 144/144/144 148/148/148
f 149/149/149 148/148/148 144/144/144
f 149/149/149 150/150/150 148/148/148
f 150/150/150 151/151/151 148/148/148
f 150/150/150 149/149/149 152/152/152
f 153/153/153 152/152/152 149/149/149
f 153/153/153 154/154/154 152/152/152
f 155/155/155 152/152/152 154/154/154
f 158/158/158 157/157/157 156/156/156
f 159/159/159 156/156/156 157/157/157
f 162/162/162 161/161/161 160/160/160
f 163/163/163 160/160/160 161/161/161
f 160/160/160 163/163/163 164/164/164
f 164/164/164 163/163/163 165/165/165
f 165/165/165 166/166/166 164/164/164
f 165/165/165 167/167/167 166/166/166
f 168/168/168 166/166/166 167/167/167
f 168/168/168 167/167/167 169/169/169
f 170/170/170 169/169/169 167/167/167
f 170/170/170 171/171/171 169/169/169
f 174/174/174 173/173/173 172/172/172
f 175/175/175 172/172/172 173/173/173
f 175/175/175 173/173/173 176/176/176
f 177/177/177 176/176/176 173/173/173
f 177/177/177 178/178/178 176/176/176
f 179/179/179 176/176/176 178/178/178
f 179/179/179 178/178/178 180/180/180
f 181/181/181 180/180/180 178/178/178
f 184/184/184 183/183/183 182/182/182
f 185/185/185 182/182/182 183/183/183
f 186/186/186 182/182/182 185/185/185
f 187/187/187 182/182/182 186/186/186
f 187/187/187 186/186/186 188/188/188
f 188/188/188 189/189/189 187/187/187
f 190/190/190 187/187/187 189/189/189
f 193/193/193 192/192/192 191/191/191
f 194/194/194 191/191/191 192/192/192
f 191/191/191 194/194/194 195/195/195
f 196/196/196 195/195/195 194/194/194
f 199/199/199 198/198/198 197/197/197
f 200/200/200 197/197/197 198/198/198
f 203/203/203 202/202/202 201/201/201
f 204/204/204 201/201/201 202/202/202
f 207/207/207 206/206/206 205/205/205
f 208/208/208 205/205/205 206/206/206
f 211/211/211 210/210/210 209/209/209
f 212/212/212 209/209/209 210/210/210
f 212/212/212 210/210/210 213/213/213
f 214/214/214 213/213/213 210/210/210
f 214/214/214 215/215/215 213/213/213
f 216/216/216 213/213/213 215/215/215
f 216/216/216 215/215/215 217/217/217
f 218/218/218 217/217/217 215/215/215
