g Boss_Color_11
v 5.214467 2.318162 -0.2485314
v 5.499819 2.318162 0.1577491
v 5.214468 1.952869 0.1577487
v 16.62861 -8.730669 11.04668
v 16.34326 -9.095962 11.04668
v 16.34326 -8.73067 11.45296
v 16.34324 2.318152 11.04672
v 16.6286 1.952863 11.04672
v 16.34324 1.952861 11.453
v 5.214472 1.952838 11.04672
v 5.499824 2.318131 11.04672
v 5.499826 1.952837 11.453
v 5.499853 -9.095985 11.04669
v 5.214498 -8.730694 11.04669
v 5.499851 -8.730694 11.45297
v -10.84572 -8.730725 11.0467
v -11.13108 -9.096016 11.0467
v -11.13108 -8.730726 11.45298
v -11.1311 2.318101 11.04673
v -10.84575 1.952813 11.04673
v -11.1311 1.952812 11.45301
v 16.6286 -9.09592 -7.445052
v 16.34326 -9.095962 11.04668
v 16.62861 -8.730669 11.04668
v 16.34326 -8.73067 11.45296
v 5.499851 -8.730694 11.45297
v 5.499826 1.952837 11.453
v 16.34324 1.952861 11.453
v 16.34321 15.87379 0.1577869
v 16.34324 2.318185 0.1577473
v 5.499819 2.318162 0.1577491
v 5.499789 15.87376 0.1577896
v 16.62856 15.87383 -11.45295
v 16.6286 -9.095911 -11.45303
v 16.6286 -9.09592 -7.445052
v 16.62856 15.87381 -7.44499
v -11.13108 -8.730726 11.45298
v -23.40637 -8.730755 11.45298
v -23.40639 1.952782 11.45301
v -11.1311 1.952812 11.45301
v 5.214459 2.318201 -11.45299
v 5.214462 2.318186 -7.445022
v -23.4064 2.318128 -7.445015
v -23.4064 2.318141 -11.45297
v 5.214459 2.318201 -11.45299
v 5.214434 15.8738 -11.45295
v 5.214435 15.87379 -7.444988
v 5.214462 2.318186 -7.445022
v 5.214491 -8.730661 0.1577162
v -10.84573 -8.730697 0.1577236
v -10.84575 1.952839 0.157756
v 5.214468 1.952869 0.1577487
v 16.6286 -9.095911 -11.45303
v -23.40638 -9.095979 -11.45301
v -23.40638 -9.095991 -7.445044
v 16.6286 -9.09592 -7.445052
v 16.34324 2.318185 0.1577473
v 16.34324 2.318152 11.04672
v 5.499824 2.318131 11.04672
v 5.499819 2.318162 0.1577491
v 5.214468 1.952869 0.1577487
v 5.214472 1.952838 11.04672
v 5.214498 -8.730694 11.04669
v 5.214491 -8.730661 0.1577162
v 5.446678 -9.095951 -0.07846737
v 5.499853 -9.095985 11.04669
v 16.34326 -9.095962 11.04668
v 16.6286 -9.09592 -7.445052
v -10.84573 -8.730697 0.1577236
v -10.84572 -8.730725 11.0467
v -10.84575 1.952813 11.04673
v -10.84575 1.952839 0.157756
v -11.08509 2.31813 -0.06347881
v -11.1311 2.318101 11.04673
v -23.40639 2.318074 11.04673
v -23.4064 2.318128 -7.445015
v 5.214462 2.318186 -7.445022
v 5.214467 2.318162 -0.2485314
v 16.34324 2.318185 0.1577473
v 16.34321 15.87379 0.1577869
v 16.62856 15.87379 -0.2484936
v 16.62859 1.944472 -0.2224077
v 5.214468 1.952869 0.1577487
v -10.84575 1.952839 0.157756
v -11.08509 2.31813 -0.06347881
v 5.214467 2.318162 -0.2485314
v 5.499789 15.87376 0.1577896
v 5.499819 2.318162 0.1577491
v 5.214467 2.318162 -0.2485314
v 5.214436 15.87376 -0.2484899
v -10.84573 -8.730697 0.1577236
v 5.214491 -8.730661 0.1577162
v 5.446678 -9.095951 -0.07846737
v -11.08506 -9.095984 -0.06351496
v 16.34326 -8.73067 11.45296
v 16.34324 1.952861 11.453
v 16.6286 1.952863 11.04672
v 16.62861 -8.730669 11.04668
v 16.34324 1.952861 11.453
v 5.499826 1.952837 11.453
v 5.499824 2.318131 11.04672
v 16.34324 2.318152 11.04672
v 5.499826 1.952837 11.453
v 5.499851 -8.730694 11.45297
v 5.214498 -8.730694 11.04669
v 5.214472 1.952838 11.04672
v 5.499851 -8.730694 11.45297
v 16.34326 -8.73067 11.45296
v 16.34326 -9.095962 11.04668
v 5.499853 -9.095985 11.04669
v 16.62859 1.944472 -0.2224077
v 16.6286 1.952863 11.04672
v 16.34324 2.318152 11.04672
v 16.34324 2.318185 0.1577473
v 5.499819 2.318162 0.1577491
v 5.499824 2.318131 11.04672
v 5.214472 1.952838 11.04672
v 5.214468 1.952869 0.1577487
v 5.214491 -8.730661 0.1577162
v 5.214498 -8.730694 11.04669
v 5.499853 -9.095985 11.04669
v 5.446678 -9.095951 -0.07846737
v -23.40637 -8.730755 11.45298
v -11.13108 -8.730726 11.45298
v -11.13108 -9.096016 11.0467
v -23.40637 -9.096041 11.0467
v -11.13108 -8.730726 11.45298
v -11.1311 1.952812 11.45301
v -10.84575 1.952813 11.04673
v -10.84572 -8.730725 11.0467
v -11.1311 1.952812 11.45301
v -23.40639 1.952782 11.45301
v -23.40639 2.318074 11.04673
v -11.1311 2.318101 11.04673
v -11.08506 -9.095984 -0.06351496
v -11.13108 -9.096016 11.0467
v -10.84572 -8.730725 11.0467
v -10.84573 -8.730697 0.1577236
v -10.84575 1.952839 0.157756
v -10.84575 1.952813 11.04673
v -11.1311 2.318101 11.04673
v -11.08509 2.31813 -0.06347881
v 16.62856 15.87381 -7.44499
v 16.6286 -9.09592 -7.445052
v 16.62859 1.944472 -0.2224077
v 16.62856 15.87379 -0.2484936
v 5.214467 2.318162 -0.2485314
v 5.214462 2.318186 -7.445022
v 5.214435 15.87379 -7.444988
v 5.214436 15.87376 -0.2484899
v 16.6286 -9.09592 -7.445052
v -23.40638 -9.095991 -7.445044
v -11.08506 -9.095984 -0.06351496
v 5.446678 -9.095951 -0.07846737
v -23.40638 -9.095991 -7.445044
v -23.40637 -9.096041 11.0467
v -11.13108 -9.096016 11.0467
v 16.62859 1.944472 -0.2224077
v 16.6286 -9.09592 -7.445052
v 16.62861 -8.730669 11.04668
v 16.6286 1.952863 11.04672
vt 0.8168807 0.04054261
vt 0.8168807 0.04054975
vt 0.8168926 0.04054261
vt 0.8172405 0.04082854
vt 0.8172525 0.04082139
vt 0.8172405 0.04082139
vt 0.8168807 0.04082139
vt 0.8168926 0.04082854
vt 0.8168926 0.04082139
vt 0.8168926 0.04054261
vt 0.8168807 0.04054975
vt 0.8168926 0.04054975
vt 0.8172525 0.04054975
vt 0.8172405 0.04054261
vt 0.8172405 0.04054975
vt 0.8172405 0.04014029
vt 0.8172525 0.04013314
vt 0.8172405 0.04013314
vt 0.8168807 0.04013314
vt 0.8168926 0.04014029
vt 0.8168926 0.04013314
vt 0.8171241 0.04082854
vt 0.8172525 0.04082139
vt 0.8172405 0.04082854
vt 0.7935833 0.03708806
vt 0.7935833 0.03689181
vt 0.7933972 0.03689181
vt 0.7933972 0.03708806
vt 0.7684833 0.04224536
vt 0.7687194 0.04224536
vt 0.7687194 0.04204911
vt 0.7684833 0.04204911
vt 0.5513165 0.03645821
vt 0.5532779 0.0364582
vt 0.5529684 0.03645821
vt 0.5513165 0.03645821
vt 0.7935833 0.03659082
vt 0.7935833 0.03636866
vt 0.7933972 0.03636866
vt 0.7933972 0.03659082
vt 0.5523813 0.03552653
vt 0.5523813 0.03552653
vt 0.5523813 0.03354427
vt 0.5523813 0.03319035
vt 0.5520843 0.03577038
vt 0.5510195 0.03577038
vt 0.5510195 0.03577038
vt 0.5520843 0.03577038
vt 0.7689119 0.04204395
vt 0.7689119 0.04175329
vt 0.7687258 0.04175329
vt 0.7687258 0.04204395
vt 0.5532779 0.0364582
vt 0.5532779 0.03319035
vt 0.5532779 0.03354427
vt 0.5529684 0.03645821
vt 0.7952856 0.03718054
vt 0.7956271 0.03720516
vt 0.7956516 0.03686504
vt 0.7953101 0.0368404
vt 0.795711 0.03665002
vt 0.7957551 0.03698963
vt 0.7960883 0.03694637
vt 0.7960442 0.03660678
vt 0.7935897 0.03689085
vt 0.7935897 0.03689181
vt 0.7935897 0.03708806
vt 0.793521 0.03709322
vt 0.7960883 0.03631438
vt 0.7960443 0.03597477
vt 0.795711 0.03601799
vt 0.7957551 0.03635759
vt 0.7933909 0.03659165
vt 0.7933909 0.03659082
vt 0.7933909 0.03636866
vt 0.7933909 0.03644713
vt 0.7933909 0.03688665
vt 0.7933909 0.03688665
vt 0.8168807 0.04082139
vt 0.8164393 0.04082139
vt 0.8164393 0.04082854
vt 0.8168929 0.04082854
vt 0.8168926 0.04054261
vt 0.8168926 0.04014029
vt 0.8168807 0.04013429
vt 0.8168807 0.04054261
vt 0.8164393 0.04054975
vt 0.8168807 0.04054975
vt 0.8168807 0.04054261
vt 0.8164393 0.04054261
vt 0.8172405 0.04014029
vt 0.8172405 0.04054261
vt 0.8172525 0.04054842
vt 0.8172525 0.04013429
vt 0.8172405 0.04082139
vt 0.8168926 0.04082139
vt 0.8168926 0.04082854
vt 0.8172405 0.04082854
vt 0.8168926 0.04082139
vt 0.8168926 0.04054975
vt 0.8168807 0.04054975
vt 0.8168807 0.04082139
vt 0.8168926 0.04054975
vt 0.8172405 0.04054975
vt 0.8172405 0.04054261
vt 0.8168926 0.04054261
vt 0.8172405 0.04054975
vt 0.8172405 0.04082139
vt 0.8172525 0.04082139
vt 0.8172525 0.04054975
vt 0.8168929 0.04082854
vt 0.8168926 0.04082854
vt 0.8168807 0.04082139
vt 0.8168807 0.04082139
vt 0.8168807 0.04054975
vt 0.8168807 0.04054975
vt 0.8168926 0.04054261
vt 0.8168926 0.04054261
vt 0.8172405 0.04054261
vt 0.8172405 0.04054261
vt 0.8172525 0.04054975
vt 0.8172525 0.04054842
vt 0.8172405 0.03982564
vt 0.8172405 0.04013314
vt 0.8172525 0.04013314
vt 0.8172525 0.03982564
vt 0.8172405 0.04013314
vt 0.8168926 0.04013314
vt 0.8168926 0.04014029
vt 0.8172405 0.04014029
vt 0.8168926 0.04013314
vt 0.8168926 0.03982564
vt 0.8168807 0.03982564
vt 0.8168807 0.04013314
vt 0.8172525 0.04013429
vt 0.8172525 0.04013314
vt 0.8172405 0.04014029
vt 0.8172405 0.04014029
vt 0.8168926 0.04014029
vt 0.8168926 0.04014029
vt 0.8168807 0.04013314
vt 0.8168807 0.04013429
vt 0.7931548 0.03709322
vt 0.793521 0.03709322
vt 0.7933974 0.03709322
vt 0.7931548 0.03709322
vt 0.7933909 0.03688665
vt 0.7933909 0.03688665
vt 0.7931548 0.03688665
vt 0.7931548 0.03688665
vt 0.793521 0.03709322
vt 0.7935897 0.03644713
vt 0.7935897 0.03659165
vt 0.7935897 0.03689085
vt 0.7935897 0.03644713
vt 0.7935897 0.03636866
vt 0.7935897 0.03659082
vt 0.7933974 0.03709322
vt 0.793521 0.03709322
vt 0.7935833 0.03709322
vt 0.7933972 0.03709322
vn -0.6894913 0.5385987 0.4842656
vn -0.6894913 0.5385988 0.4842656
vn -0.6894913 0.5385987 0.4842656
vn 0.68949 -0.5386012 0.4842647
vn 0.68949 -0.5386011 0.4842647
vn 0.68949 -0.5386012 0.4842648
vn 0.6894826 0.5386098 0.4842654
vn 0.6894826 0.5386098 0.4842654
vn 0.6894826 0.5386099 0.4842655
vn -0.6894903 0.5385966 0.4842695
vn -0.6894903 0.5385966 0.4842695
vn -0.6894903 0.5385966 0.4842695
vn -0.6894848 -0.5386079 0.4842647
vn -0.6894848 -0.5386079 0.4842647
vn -0.6894848 -0.5386079 0.4842647
vn 0.6894857 -0.5386066 0.484265
vn 0.6894857 -0.5386065 0.484265
vn 0.6894857 -0.5386066 0.4842649
vn 0.6894866 0.5386023 0.4842682
vn 0.6894866 0.5386023 0.4842682
vn 0.6894866 0.5386023 0.4842682
vn 0.7880017 -0.615553 0.01215765
vn 0.7880017 -0.615553 0.01215765
vn 0.7880017 -0.615553 0.01215765
vn 0 0 1
vn 0 0 1
vn 0 0 1
vn 0 0 1
vn 0 0 1
vn 0 0 1
vn 0 0 1
vn 0 0 1
vn 1 0 0
vn 1 0 0
vn 1 0 0
vn 1 0 0
vn 0 0 1
vn 0 0 1
vn 0 0 1
vn 0 0 1
vn 0 1 0
vn 0 1 0
vn 0 1 0
vn 0 1 0
vn -1 0 0
vn -1 0 0
vn -1 0 0
vn -1 0 0
vn 0 0 1
vn 0 0 1
vn 0 0 1
vn 0 0 1
vn 0 -1 0
vn 0 -1 0
vn 0 -1 0
vn 0 -1 0
vn 0 1 0
vn 0 1 0
vn 0 1 0
vn 0 1 0
vn -1 0 0
vn -1 0 0
vn -1 0 0
vn -1 0 0
vn 0 -1 0
vn 0 -1 0
vn 0 -1 0
vn 0 -1 0
vn 1 0 0
vn 1 0 0
vn 1 0 0
vn 1 0 0
vn 0 1 0
vn 0 1 0
vn 0 1 0
vn 0 1 0
vn 0 1 0
vn 0 1 0
vn 0.8094705 0.0005581119 0.5871603
vn 0.8094705 0.0005581118 0.5871603
vn 0.8094705 0.0005581119 0.5871603
vn 0.8094705 0.0005581119 0.5871603
vn 0.004332943 0.6523798 0.7578799
vn 0.004332943 0.6523797 0.7578799
vn 0.004332943 0.6523797 0.7578799
vn 0.004332944 0.6523797 0.75788
vn -0.8183261 0 0.5747542
vn -0.8183261 0 0.5747542
vn -0.8183261 0 0.5747542
vn -0.8183261 0 0.5747542
vn 0.0003901567 -0.5306783 0.8475733
vn 0.0003901567 -0.5306783 0.8475733
vn 0.0003901566 -0.5306782 0.8475733
vn 0.0003901567 -0.5306783 0.8475733
vn 0.818325 0 0.5747557
vn 0.8183251 0 0.5747557
vn 0.8183251 0 0.5747557
vn 0.8183251 0 0.5747557
vn 0 0.7436207 0.6686018
vn 0 0.7436207 0.6686018
vn 0 0.7436207 0.6686017
vn 0 0.7436206 0.6686018
vn -0.8183249 0 0.574756
vn -0.8183249 0 0.574756
vn -0.8183249 0 0.574756
vn -0.8183249 0 0.574756
vn 0 -0.7436228 0.6685993
vn 0 -0.7436228 0.6685993
vn 0 -0.7436228 0.6685993
vn 0 -0.7436228 0.6685993
vn 0.7914015 0.6112968 -0.0002309079
vn 0.7914015 0.6112968 -0.0002309079
vn 0.7914014 0.6112968 -0.0002309079
vn 0.7914014 0.6112968 -0.0002309079
vn -0.7880602 0.6155981 0
vn -0.7880603 0.6155981 0
vn -0.7880602 0.6155981 0
vn -0.7880603 0.6155981 0
vn -0.8156978 -0.5784748 0.001968806
vn -0.8156978 -0.5784748 0.001968806
vn -0.8156979 -0.5784748 0.001968806
vn -0.8156978 -0.5784748 0.001968806
vn 0 -0.7436252 0.6685967
vn 0 -0.7436252 0.6685967
vn 0 -0.7436252 0.6685967
vn 0 -0.7436252 0.6685968
vn 0.8183241 0 0.574757
vn 0.8183241 0 0.574757
vn 0.8183241 0 0.574757
vn 0.8183241 0 0.574757
vn 0 0.7436225 0.6685997
vn 0 0.7436225 0.6685997
vn 0 0.7436225 0.6685997
vn 0 0.7436225 0.6685997
vn 0.81199 -0.5836688 0.001696671
vn 0.81199 -0.5836688 0.001696671
vn 0.81199 -0.5836688 0.001696671
vn 0.81199 -0.5836688 0.001696671
vn 0.8119898 0.5836692 0.001699569
vn 0.8119898 0.5836692 0.001699569
vn 0.8119898 0.5836692 0.001699569
vn 0.8119898 0.5836691 0.001699569
vn 1 0 0
vn 1 0 0
vn 1 0 0
vn 1 0 0
vn -1 0 0
vn -1 0 0
vn -1 0 0
vn -1 0 0
vn 0 -1 0
vn 0 -1 0
vn 0 -1 0
vn 0 -1 0
vn 0 -1 0
vn 0 -1 0
vn 0 -1 0
vn 1 0 0
vn 1 0 0
vn 1 0 0
vn 1 0 0
g Boss_Color_11_0
f 3/3/3 2/2/2 1/1/1
f 6/6/6 5/5/5 4/4/4
f 9/9/9 8/8/8 7/7/7
f 12/12/12 11/11/11 10/10/10
f 15/15/15 14/14/14 13/13/13
f 18/18/18 17/17/17 16/16/16
f 21/21/21 20/20/20 19/19/19
f 24/24/24 23/23/23 22/22/22
f 27/27/27 26/26/26 25/25/25
f 28/28/28 27/27/27 25/25/25
f 31/31/31 30/30/30 29/29/29
f 32/32/32 31/31/31 29/29/29
f 35/35/35 34/34/34 33/33/33
f 36/36/36 35/35/35 33/33/33
f 39/39/39 38/38/38 37/37/37
f 40/40/40 39/39/39 37/37/37
f 43/43/43 42/42/42 41/41/41
f 44/44/44 43/43/43 41/41/41
f 47/47/47 46/46/46 45/45/45
f 48/48/48 47/47/47 45/45/45
f 51/51/51 50/50/50 49/49/49
f 52/52/52 51/51/51 49/49/49
f 55/55/55 54/54/54 53/53/53
f 56/56/56 55/55/55 53/53/53
f 59/59/59 58/58/58 57/57/57
f 60/60/60 59/59/59 57/57/57
f 63/63/63 62/62/62 61/61/61
f 64/64/64 63/63/63 61/61/61
f 67/67/67 66/66/66 65/65/65
f 68/68/68 67/67/67 65/65/65
f 71/71/71 70/70/70 69/69/69
f 72/72/72 71/71/71 69/69/69
f 75/75/75 74/74/74 73/73/73
f 76/76/76 75/75/75 73/73/73
f 77/77/77 76/76/76 73/73/73
f 78/78/78 77/77/77 73/73/73
f 81/81/81 80/80/80 79/79/79
f 82/82/82 81/81/81 79/79/79
f 85/85/85 84/84/84 83/83/83
f 86/86/86 85/85/85 83/83/83
f 89/89/89 88/88/88 87/87/87
f 90/90/90 89/89/89 87/87/87
f 93/93/93 92/92/92 91/91/91
f 94/94/94 93/93/93 91/91/91
f 97/97/97 96/96/96 95/95/95
f 98/98/98 97/97/97 95/95/95
f 101/101/101 100/100/100 99/99/99
f 102/102/102 101/101/101 99/99/99
f 105/105/105 104/104/104 103/103/103
f 106/106/106 105/105/105 103/103/103
f 109/109/109 108/108/108 107/107/107
f 110/110/110 109/109/109 107/107/107
f 113/113/113 112/112/112 111/111/111
f 114/114/114 113/113/113 111/111/111
f 117/117/117 116/116/116 115/115/115
f 118/118/118 117/117/117 115/115/115
f 121/121/121 120/120/120 119/119/119
f 122/122/122 121/121/121 119/119/119
f 125/125/125 124/124/124 123/123/123
f 126/126/126 125/125/125 123/123/123
f 129/129/129 128/128/128 127/127/127
f 130/130/130 129/129/129 127/127/127
f 133/133/133 132/132/132 131/131/131
f 134/134/134 133/133/133 131/131/131
f 137/137/137 136/136/136 135/135/135
f 138/138/138 137/137/137 135/135/135
f 141/141/141 140/140/140 139/139/139
f 142/142/142 141/141/141 139/139/139
f 145/145/145 144/144/144 143/143/143
f 146/146/146 145/145/145 143/143/143
f 149/149/149 148/148/148 147/147/147
f 150/150/150 149/149/149 147/147/147
f 153/153/153 152/152/152 151/151/151
f 154/154/154 153/153/153 151/151/151
f 156/156/156 155/155/155 153/153/153
f 157/157/157 156/156/156 153/153/153
f 160/160/160 159/159/159 158/158/158
f 161/161/161 160/160/160 158/158/158
