g Boss_Color_09
v 4.838836 -0.6355516 8.431043
v -0.7974768 -2.698735 9.350638
v 3.052262 1.151011 9.350652
v 0.9890981 -4.485298 8.43103
v 6.295265 -2.091967 6.702747
v 2.445527 -5.941713 6.702735
v 7.245881 -3.042571 4.374226
v 3.396143 -6.892317 4.374214
v 7.548628 -3.345308 1.852724
v 3.698889 -7.195056 1.852713
v 7.530631 -3.327293 -5.342705
v 3.680893 -7.177041 -5.342715
v 3.052262 1.151011 9.350652
v -0.7974768 -2.698735 9.350638
v -2.698679 -0.7975419 9.350579
v 1.151058 3.052204 9.35059
v -4.485276 0.9890458 8.43097
v -0.6355374 4.838792 8.430983
v -5.941714 2.445479 6.702764
v -2.091974 6.295226 6.702776
v -6.892329 3.396098 4.374249
v -3.042592 7.245844 4.374261
v -3.345339 7.548597 1.852763
v -7.195078 3.698852 1.85275
v -7.17709 3.680882 -5.34268
v -3.32735 7.530629 -5.34267
v 0.7748893 -4.978174 1.726328
v 2.973786 -7.177042 -5.342715
v 0.7748855 -4.978153 -5.342707
v 2.991994 -7.19527 1.835338
v 2.710357 -6.913639 4.203204
v 0.6014131 -4.804704 3.117674
v 1.821135 -6.024428 6.381341
v 0.1019083 -4.305205 4.341207
v 0.458768 -4.662074 7.998017
v -0.6633791 -3.539927 5.249345
v -1.212424 -2.990893 8.858234
v -1.602141 -2.60117 5.732557
v -2.990841 -1.212485 8.858172
v -2.601151 -1.602164 5.732561
v -4.662049 0.4587153 7.997959
v -3.539915 -0.6634053 5.249354
v -6.024429 1.82109 6.381368
v -4.3052 0.1018798 4.341222
v -6.913651 2.710314 4.203238
v -4.804707 0.6013865 3.117693
v -7.195291 2.99196 1.835373
v -4.978184 0.7748668 1.726348
v -7.177088 2.973776 -5.342682
v -4.978188 0.7748893 -5.342689
v 1.602139 2.601136 5.732574
v -2.601151 -1.602164 5.732561
v -1.602141 -2.60117 5.732557
v 2.60115 1.602131 5.732571
v -0.6633791 -3.539927 5.249345
v 3.539913 0.6633739 5.249357
v 0.1019083 -4.305205 4.341207
v 4.3052 -0.1019054 4.341219
v 0.6014131 -4.804704 3.117674
v 4.804705 -0.601404 3.117688
v 0.7748893 -4.978174 1.726328
v 4.97818 -0.774875 1.72634
v 0.7748855 -4.978153 -5.342707
v 4.978177 -0.7748528 -5.342699
v 0.6633763 3.539894 5.249368
v -2.601151 -1.602164 5.732561
v 1.602139 2.601136 5.732574
v -3.539915 -0.6634053 5.249354
v -0.1019097 4.30518 4.341234
v -4.3052 0.1018798 4.341222
v -0.6014156 4.804686 3.117706
v -4.804707 0.6013865 3.117693
v -0.7748924 4.978166 1.72636
v -4.978184 0.7748668 1.726348
v -0.7748957 4.978188 -5.34268
v -4.978188 0.7748893 -5.342689
v 3.676506 -7.172643 -9.350663
v 3.680893 -7.177041 -5.342715
v 7.530631 -3.327293 -5.342705
v 7.526244 -3.322895 -9.350651
v -3.322966 7.526257 -9.350611
v -3.32735 7.530629 -5.34267
v -7.17709 3.680882 -5.34268
v -7.172704 3.676509 -9.350625
v 0.7748851 -4.97814 -9.350656
v 0.7748855 -4.978153 -5.342707
v 2.973786 -7.177042 -5.342715
v 2.969398 -7.172644 -9.350662
v -4.978188 0.7749016 -9.350635
v -4.978188 0.7748893 -5.342689
v -0.7748957 4.978188 -5.34268
v -0.7748966 4.9782 -9.350621
v 4.978175 -0.7748404 -9.350638
v 4.978177 -0.7748528 -5.342699
v 0.7748855 -4.978153 -5.342707
v 0.7748851 -4.97814 -9.350656
v -7.172703 2.969403 -9.350628
v -7.177088 2.973776 -5.342682
v -4.978188 0.7748893 -5.342689
v -4.978188 0.7749016 -9.350635
v -7.195078 3.698852 1.85275
v -6.913651 2.710314 4.203238
v -7.195291 2.99196 1.835373
v -6.892329 3.396098 4.374249
v -6.024429 1.82109 6.381368
v -5.941714 2.445479 6.702764
v -4.662049 0.4587153 7.997959
v -4.485276 0.9890458 8.43097
v -2.990841 -1.212485 8.858172
v -2.698679 -0.7975419 9.350579
v -1.212424 -2.990893 8.858234
v -0.7974768 -2.698735 9.350638
v 0.458768 -4.662074 7.998017
v 0.9890981 -4.485298 8.43103
v 1.821135 -6.024428 6.381341
v 2.445527 -5.941713 6.702735
v 2.710357 -6.913639 4.203204
v 3.396143 -6.892317 4.374214
v 2.991994 -7.19527 1.835338
v 3.698889 -7.195056 1.852713
v 2.973786 -7.177042 -5.342715
v 3.680893 -7.177041 -5.342715
v -7.195291 2.99196 1.835373
v -7.177088 2.973776 -5.342682
v -7.17709 3.680882 -5.34268
v -7.195078 3.698852 1.85275
v 3.680893 -7.177041 -5.342715
v 3.676506 -7.172643 -9.350663
v 2.969398 -7.172644 -9.350662
v 2.973786 -7.177042 -5.342715
v -7.177088 2.973776 -5.342682
v -7.172703 2.969403 -9.350628
v -7.172704 3.676509 -9.350625
v -7.17709 3.680882 -5.34268
vt 0.7941135 0.03571042
vt 0.7940118 0.03572778
vt 0.7940813 0.03572778
vt 0.7940441 0.03571042
vt 0.7941397 0.0356778
vt 0.7940703 0.0356778
vt 0.7941569 0.03563385
vt 0.7940875 0.03563385
vt 0.7941623 0.03558625
vt 0.794093 0.03558625
vt 0.794162 0.03545042
vt 0.7940926 0.03545042
vt 0.7940813 0.03572778
vt 0.7940118 0.03572778
vt 0.7939776 0.03572778
vt 0.794047 0.03572778
vt 0.7939454 0.03571042
vt 0.7940148 0.03571042
vt 0.7939191 0.0356778
vt 0.7939885 0.0356778
vt 0.7939019 0.03563385
vt 0.7939714 0.03563385
vt 0.7939659 0.03558625
vt 0.7938965 0.03558625
vt 0.7938968 0.03545042
vt 0.7939662 0.03545042
vt 0.7940402 0.0355845
vt 0.7940798 0.03545042
vt 0.7940402 0.03545106
vt 0.7940802 0.03558592
vt 0.7940751 0.03563062
vt 0.794037 0.03561012
vt 0.7940591 0.03567173
vt 0.794028 0.03563322
vt 0.7940345 0.03570225
vt 0.7940143 0.03565037
vt 0.7940044 0.03571849
vt 0.7939973 0.03565948
vt 0.7939723 0.03571849
vt 0.7939793 0.03565948
vt 0.7939422 0.03570225
vt 0.7939624 0.03565037
vt 0.7939176 0.03567173
vt 0.7939486 0.03563322
vt 0.7939016 0.03563062
vt 0.7939395 0.03561013
vt 0.7938965 0.03558592
vt 0.7939364 0.03558386
vt 0.7938968 0.03545042
vt 0.7939364 0.03545042
vt 0.7940551 0.03565948
vt 0.7939793 0.03565948
vt 0.7939973 0.03565948
vt 0.7940731 0.03565948
vt 0.7940143 0.03565037
vt 0.7940901 0.03565037
vt 0.794028 0.03563322
vt 0.7941039 0.03563322
vt 0.794037 0.03561012
vt 0.7941129 0.03561013
vt 0.7940402 0.0355845
vt 0.794116 0.0355845
vt 0.7940402 0.03545106
vt 0.794116 0.03545106
vt 0.7940382 0.03565037
vt 0.7939793 0.03565948
vt 0.7940551 0.03565948
vt 0.7939624 0.03565037
vt 0.7940244 0.03563322
vt 0.7939486 0.03563322
vt 0.7940153 0.03561013
vt 0.7939395 0.03561013
vt 0.7940122 0.03558386
vt 0.7939364 0.03558386
vt 0.7940122 0.03545042
vt 0.7939364 0.03545042
vt 0.5534536 0.03416087
vt 0.553454 0.03416122
vt 0.5531515 0.03447546
vt 0.5531512 0.0344751
vt 0.552299 0.03358954
vt 0.5522987 0.03358918
vt 0.552601 0.03327495
vt 0.5526014 0.03327531
vt 0.5532812 0.03392403
vt 0.5532812 0.03392403
vt 0.553454 0.03410351
vt 0.5534536 0.03410315
vt 0.5491913 0.03779219
vt 0.5491913 0.03779219
vt 0.5491418 0.03784361
vt 0.5491418 0.03784361
vt 0.5492095 0.037914
vt 0.5492095 0.037914
vt 0.549259 0.03786258
vt 0.549259 0.03786258
vt 0.5526569 0.03327531
vt 0.5526566 0.03327495
vt 0.5528293 0.03345443
vt 0.5528293 0.03345443
vt 0.8166414 0.03564763
vt 0.8166527 0.03580005
vt 0.8166414 0.0356465
vt 0.8166535 0.03581115
vt 0.8166881 0.03594131
vt 0.8166915 0.03596215
vt 0.8167425 0.03604615
vt 0.8167495 0.03607423
vt 0.8168091 0.03610193
vt 0.8168207 0.03613387
vt 0.81688 0.03610194
vt 0.8168966 0.03613387
vt 0.8169466 0.03604615
vt 0.8169677 0.03607424
vt 0.8170009 0.03594131
vt 0.8170258 0.03596215
vt 0.8170364 0.03580005
vt 0.8170637 0.03581115
vt 0.8170476 0.0356465
vt 0.8170758 0.03564762
vt 0.8170469 0.03518099
vt 0.8170751 0.03518099
vt 0.8166414 0.0356465
vt 0.8166422 0.03518099
vt 0.8166422 0.03518099
vt 0.8166414 0.03564763
vt 0.5551378 0.03415888
vt 0.5551863 0.03415883
vt 0.5551863 0.03415026
vt 0.5551378 0.03415031
vt 0.5543416 0.03332179
vt 0.5543416 0.03327322
vt 0.554333 0.03327322
vt 0.554333 0.03332179
vn 0.3535538 -0.3535559 0.8660243
vn 0.122779 -0.1227819 0.9848096
vn 0.1227793 -0.1227822 0.9848095
vn 0.3535536 -0.3535557 0.8660244
vn 0.5416759 -0.5416768 0.6427857
vn 0.5416758 -0.5416767 0.6427859
vn 0.6652268 -0.6652265 0.3390383
vn 0.6652268 -0.6652265 0.3390384
vn 0.7047126 -0.7047111 0.08223385
vn 0.7047126 -0.7047111 0.08223383
vn 0.7071053 -0.7071037 -0.002544429
vn 0.7071053 -0.7071036 -0.002544429
vn 0.1227793 -0.1227822 0.9848095
vn 0.122779 -0.1227819 0.9848096
vn -0.1227965 0.1227933 0.984806
vn -0.1227962 0.122793 0.984806
vn -0.3535461 0.3535427 0.8660328
vn -0.3535458 0.3535424 0.866033
vn -0.5416701 0.5416669 0.642799
vn -0.5416699 0.5416667 0.6427991
vn -0.6652268 0.6652243 0.3390427
vn -0.6652267 0.6652242 0.3390428
vn -0.7047123 0.7047108 0.08223882
vn -0.7047123 0.7047108 0.08223877
vn -0.7071052 0.7071038 -0.002539345
vn -0.7071051 0.7071039 -0.002539345
vn -0.707105 -0.7071085 0
vn -0.7071051 -0.7071084 0
vn -0.7071051 -0.7071084 0
vn -0.707105 -0.7071085 0
vn -0.7071049 -0.7071086 0
vn -0.7071049 -0.7071086 0
vn -0.7071046 -0.7071089 0
vn -0.7071046 -0.7071089 0
vn -0.7071047 -0.7071088 0
vn -0.7071047 -0.7071087 0
vn -0.707105 -0.7071084 0
vn -0.707105 -0.7071085 0
vn -0.7071048 -0.7071087 0
vn -0.7071048 -0.7071087 0
vn -0.7071046 -0.7071089 0
vn -0.7071046 -0.7071089 0
vn -0.7071046 -0.7071089 0
vn -0.7071046 -0.7071089 0
vn -0.7071044 -0.7071091 0
vn -0.7071045 -0.707109 0
vn -0.7071045 -0.707109 0
vn -0.7071046 -0.707109 0
vn -0.7071045 -0.707109 0
vn -0.7071045 -0.707109 0
vn 0.1227877 -0.1227843 -0.9848082
vn 0.122788 -0.1227845 -0.9848082
vn -0.1227879 0.1227909 -0.9848074
vn -0.1227881 0.1227911 -0.9848073
vn -0.3535535 0.3535555 -0.8660244
vn -0.3535537 0.3535557 -0.8660243
vn -0.5416756 0.5416765 -0.6427861
vn -0.5416759 0.5416767 -0.6427859
vn -0.6644637 0.6644635 -0.3420178
vn -0.6644638 0.6644635 -0.3420177
vn -0.7044168 0.7044156 -0.08715323
vn -0.7044168 0.7044156 -0.08715321
vn -0.7071075 0.707106 0
vn -0.7071075 0.707106 0
vn 0.3535534 -0.35355 -0.8660268
vn 0.122788 -0.1227845 -0.9848082
vn 0.1227877 -0.1227843 -0.9848082
vn 0.3535537 -0.3535502 -0.8660267
vn 0.5416754 -0.5416724 -0.6427898
vn 0.5416756 -0.5416725 -0.6427897
vn 0.6644635 -0.6644612 -0.3420228
vn 0.6644635 -0.6644613 -0.3420226
vn 0.7044166 -0.7044151 -0.08715841
vn 0.7044166 -0.7044151 -0.08715838
vn 0.7071074 -0.7071062 0
vn 0.7071074 -0.7071062 0
vn 0.7071068 -0.7071051 -0.001550019
vn 0.7071053 -0.7071036 -0.002544429
vn 0.7071053 -0.7071037 -0.002544429
vn 0.7071068 -0.7071051 -0.001550019
vn -0.7071066 0.7071052 -0.001545043
vn -0.7071051 0.7071039 -0.002539345
vn -0.7071052 0.7071038 -0.002539345
vn -0.7071066 0.7071052 -0.001545043
vn -0.7071051 -0.7071084 0
vn -0.7071051 -0.7071084 0
vn -0.7071051 -0.7071084 0
vn -0.7071051 -0.7071084 0
vn 0.7071074 -0.7071062 0
vn 0.7071074 -0.7071062 0
vn 0.7071074 -0.7071062 0
vn 0.7071074 -0.7071062 0
vn -0.7071075 0.7071059 0
vn -0.7071075 0.707106 0
vn -0.7071075 0.707106 0
vn -0.7071075 0.7071059 0
vn -0.7071046 -0.7071089 0
vn -0.7071045 -0.707109 0
vn -0.7071045 -0.707109 0
vn -0.7071046 -0.707109 0
vn -0.9983857 -0.0002455105 0.05679752
vn -0.9705073 -0.03046293 0.2391394
vn -0.9982358 -0.0002640073 0.05937412
vn -0.9704109 -0.03055732 0.2395186
vn -0.8830174 -0.1169862 0.4545267
vn -0.8830179 -0.1169857 0.4545258
vn -0.7499922 -0.2500091 0.6123783
vn -0.7499936 -0.2500077 0.6123772
vn -0.5868294 -0.4131718 0.6963623
vn -0.5868275 -0.4131736 0.6963627
vn -0.413182 -0.5868209 0.6963633
vn -0.4131809 -0.586822 0.696363
vn -0.2499984 -0.7500026 0.61237
vn -0.2499983 -0.7500027 0.6123698
vn -0.1169764 -0.8830241 0.4545162
vn -0.1169764 -0.8830242 0.454516
vn -0.03046017 -0.9705083 0.2391356
vn -0.03055459 -0.9704118 0.2395149
vn -0.0002615425 -0.9982359 0.0593704
vn -0.0002430343 -0.9983859 0.05679379
vn 9.193763E-05 -0.9999983 -0.001808848
vn 9.21462E-05 -0.9999983 -0.001810486
vn -0.9982358 -0.0002640073 0.05937412
vn -0.9999985 8.88881E-05 -0.001805445
vn -0.9999985 8.909744E-05 -0.001807083
vn -0.9983857 -0.0002455105 0.05679752
vn 9.21462E-05 -0.9999983 -0.001810486
vn 0 -0.9999994 -0.001097407
vn 0 -0.9999994 -0.001097407
vn 9.193763E-05 -0.9999983 -0.001808848
vn -0.9999985 8.88881E-05 -0.001805445
vn -0.9999994 0 -0.001094191
vn -0.9999994 0 -0.001094192
vn -0.9999985 8.909744E-05 -0.001807083
g Boss_Color_09_0
f 3/3/3 2/2/2 1/1/1
f 2/2/2 4/4/4 1/1/1
f 1/1/1 4/4/4 5/5/5
f 4/4/4 6/6/6 5/5/5
f 5/5/5 6/6/6 7/7/7
f 6/6/6 8/8/8 7/7/7
f 7/7/7 8/8/8 9/9/9
f 8/8/8 10/10/10 9/9/9
f 11/11/11 9/9/9 10/10/10
f 12/12/12 11/11/11 10/10/10
f 15/15/15 14/14/14 13/13/13
f 16/16/16 15/15/15 13/13/13
f 17/17/17 15/15/15 16/16/16
f 18/18/18 17/17/17 16/16/16
f 19/19/19 17/17/17 18/18/18
f 20/20/20 19/19/19 18/18/18
f 21/21/21 19/19/19 20/20/20
f 22/22/22 21/21/21 20/20/20
f 21/21/21 22/22/22 23/23/23
f 24/24/24 21/21/21 23/23/23
f 25/25/25 24/24/24 23/23/23
f 26/26/26 25/25/25 23/23/23
f 29/29/29 28/28/28 27/27/27
f 28/28/28 30/30/30 27/27/27
f 27/27/27 30/30/30 31/31/31
f 32/32/32 27/27/27 31/31/31
f 32/32/32 31/31/31 33/33/33
f 34/34/34 32/32/32 33/33/33
f 34/34/34 33/33/33 35/35/35
f 36/36/36 34/34/34 35/35/35
f 36/36/36 35/35/35 37/37/37
f 38/38/38 36/36/36 37/37/37
f 38/38/38 37/37/37 39/39/39
f 40/40/40 38/38/38 39/39/39
f 40/40/40 39/39/39 41/41/41
f 42/42/42 40/40/40 41/41/41
f 42/42/42 41/41/41 43/43/43
f 44/44/44 42/42/42 43/43/43
f 44/44/44 43/43/43 45/45/45
f 46/46/46 44/44/44 45/45/45
f 46/46/46 45/45/45 47/47/47
f 48/48/48 46/46/46 47/47/47
f 47/47/47 49/49/49 48/48/48
f 49/49/49 50/50/50 48/48/48
f 53/53/53 52/52/52 51/51/51
f 54/54/54 53/53/53 51/51/51
f 55/55/55 53/53/53 54/54/54
f 56/56/56 55/55/55 54/54/54
f 57/57/57 55/55/55 56/56/56
f 58/58/58 57/57/57 56/56/56
f 59/59/59 57/57/57 58/58/58
f 60/60/60 59/59/59 58/58/58
f 61/61/61 59/59/59 60/60/60
f 62/62/62 61/61/61 60/60/60
f 63/63/63 61/61/61 62/62/62
f 64/64/64 63/63/63 62/62/62
f 67/67/67 66/66/66 65/65/65
f 66/66/66 68/68/68 65/65/65
f 65/65/65 68/68/68 69/69/69
f 68/68/68 70/70/70 69/69/69
f 69/69/69 70/70/70 71/71/71
f 70/70/70 72/72/72 71/71/71
f 71/71/71 72/72/72 73/73/73
f 72/72/72 74/74/74 73/73/73
f 75/75/75 73/73/73 74/74/74
f 76/76/76 75/75/75 74/74/74
f 79/79/79 78/78/78 77/77/77
f 80/80/80 79/79/79 77/77/77
f 83/83/83 82/82/82 81/81/81
f 84/84/84 83/83/83 81/81/81
f 87/87/87 86/86/86 85/85/85
f 88/88/88 87/87/87 85/85/85
f 91/91/91 90/90/90 89/89/89
f 92/92/92 91/91/91 89/89/89
f 95/95/95 94/94/94 93/93/93
f 96/96/96 95/95/95 93/93/93
f 99/99/99 98/98/98 97/97/97
f 100/100/100 99/99/99 97/97/97
f 103/103/103 102/102/102 101/101/101
f 102/102/102 104/104/104 101/101/101
f 102/102/102 105/105/105 104/104/104
f 105/105/105 106/106/106 104/104/104
f 105/105/105 107/107/107 106/106/106
f 107/107/107 108/108/108 106/106/106
f 107/107/107 109/109/109 108/108/108
f 109/109/109 110/110/110 108/108/108
f 109/109/109 111/111/111 110/110/110
f 111/111/111 112/112/112 110/110/110
f 111/111/111 113/113/113 112/112/112
f 113/113/113 114/114/114 112/112/112
f 113/113/113 115/115/115 114/114/114
f 115/115/115 116/116/116 114/114/114
f 115/115/115 117/117/117 116/116/116
f 117/117/117 118/118/118 116/116/116
f 117/117/117 119/119/119 118/118/118
f 119/119/119 120/120/120 118/118/118
f 119/119/119 121/121/121 120/120/120
f 121/121/121 122/122/122 120/120/120
f 125/125/125 124/124/124 123/123/123
f 126/126/126 125/125/125 123/123/123
f 129/129/129 128/128/128 127/127/127
f 130/130/130 129/129/129 127/127/127
f 133/133/133 132/132/132 131/131/131
f 134/134/134 133/133/133 131/131/131
