g Boss_Color_109
v -7.466074 -5.307221 -0.3869831
v -6.641366 -6.291453 -0.6070873
v -7.279953 -5.98968 -0.4935507
v 3.234987 -4.273222 4.744869
v 0.717265 -7.848156 5.024991
v 0.6927237 -4.260054 5.379061
v 6.050101 -7.87578 3.694662
v 6.706792 -7.628717 3.555137
v 3.555825 -3.954707 4.695884
v 6.969286 -6.96325 3.554319
v 7.120619 -1.491167 4.047307
v 3.627968 -1.346063 4.9309
v 3.001901 -3.880063 2.242371
v 0.6927237 -4.260054 5.379061
v 0.4114366 -3.67309 2.57722
v 3.234987 -4.273222 4.744869
v 3.349841 -3.58732 2.237013
v 3.555825 -3.954707 4.695884
v 0.4114366 -3.67309 2.57722
v 0.717265 -7.848156 5.024991
v 0.2009183 -7.248345 2.160475
v 0.6927237 -4.260054 5.379061
v 0.2009183 -7.248345 2.160475
v 0.717265 -7.848156 5.024991
v 6.050101 -7.87578 3.694662
v 5.205489 -7.238003 -2.138441
v -6.641366 -6.291453 -0.6070873
v 6.706792 -7.628717 3.555137
v 5.891071 -7.04203 -2.196069
v 6.202314 -6.39931 -2.153792
v 6.969286 -6.96325 3.554319
v 0.4114366 -3.67309 2.57722
v 3.349841 -3.58732 2.237013
v 3.001901 -3.880063 2.242371
v 3.594614 -0.9948767 2.5282
v -2.880201 0.2553052 3.455724
v 1.029735 2.87545 3.312761
v 0.3029759 2.933518 3.406703
v -2.635429 2.847749 3.74691
v -2.287489 3.140492 3.741552
v 3.663291 -0.2675126 2.609898
v 7.237659 -0.4259446 2.163582
v 7.14515 -1.405716 2.053533
v 3.908062 2.324931 2.901084
v 3.620201 2.668474 2.977911
v 3.349841 -3.58732 2.237013
v 3.627968 -1.346063 4.9309
v 3.555825 -3.954707 4.695884
v 3.594614 -0.9948767 2.5282
v 3.594614 -0.9948767 2.5282
v 7.120619 -1.491167 4.047307
v 3.627968 -1.346063 4.9309
v 7.14515 -1.405716 2.053533
v 5.891071 -7.04203 -2.196069
v 6.202314 -6.39931 -2.153792
v 5.145438 -5.528664 -3.206973
v 4.509387 -6.063815 -3.197177
v 5.205489 -7.238003 -2.138441
v -6.060822 -5.219266 -1.830846
v -6.641366 -6.291453 -0.6070873
v -7.279953 -5.98968 -0.4935507
v -6.58705 -4.591251 -1.690403
v -7.466074 -5.307221 -0.3869831
v 1.939075 6.244831 7.406733
v 4.155147 2.438263 5.921967
v 1.742742 2.68453 6.914505
v 7.249997 5.710629 6.095861
v 7.890936 5.425948 4.563337
v 4.417258 2.088302 5.797013
v 8.051846 4.736394 4.46149
v 7.471762 -0.7289739 4.407632
v 4.140721 -0.5171406 5.771338
v 3.620201 2.668474 2.977911
v 1.742742 2.68453 6.914505
v 4.155147 2.438263 5.921967
v 1.029735 2.87545 3.312761
v 1.029735 2.87545 3.312761
v 1.939075 6.244831 7.406733
v 1.742742 2.68453 6.914505
v 1.673705 6.420666 4.12676
v 4.155147 2.438263 5.921967
v 3.908062 2.324931 2.901084
v 3.620201 2.668474 2.977911
v 4.417258 2.088302 5.797013
v 4.140721 -0.5171406 5.771338
v 3.663291 -0.2675126 2.609898
v 3.663291 -0.2675126 2.609898
v 7.471762 -0.7289739 4.407632
v 7.237659 -0.4259446 2.163582
v 4.140721 -0.5171406 5.771338
v 7.237659 -0.4259446 2.163582
v 7.471762 -0.7289739 4.407632
v 8.051846 4.736394 4.46149
v 7.32173 5.45666 -0.8221151
v 7.890936 5.425948 4.563337
v 6.202314 -6.39931 -2.153792
v 5.620268 5.722058 -1.029073
v 7.14515 -1.405716 2.053533
v 6.969286 -6.96325 3.554319
v 7.120619 -1.491167 4.047307
v 5.832208 6.011444 0.2291766
v 7.249997 5.710629 6.095861
v 1.673705 6.420666 4.12676
v 1.939075 6.244831 7.406733
v 0.6870633 6.502156 4.107158
v -4.680933 7.398631 0.3778832
v -4.860792 6.663127 6.373324
v 0.6158144 6.210801 6.482131
v -5.548006 6.469431 6.328948
v -6.035418 7.191468 0.9869717
v -6.346661 6.548748 0.9446937
v -5.851707 5.827716 6.24111
v 7.32173 5.45666 -0.8221151
v 5.145438 -5.528664 -3.206973
v 6.202314 -6.39931 -2.153792
v 6.144223 5.049685 -2.0188
v 5.620268 5.722058 -1.029073
v 5.617996 5.677701 -1.878356
v 5.832208 6.011444 0.2291766
v -4.952214 6.522248 -0.5120253
v -4.680933 7.398631 0.3778832
v -6.035418 7.191468 0.9869717
v -5.588265 5.987097 -0.50223
v -6.346661 6.548748 0.9446937
v 5.145438 -5.528664 -3.206973
v 5.726768 5.481842 -5.515428
v 4.727984 -5.0965 -6.703601
v 6.144223 5.049685 -2.0188
v 5.617996 5.677701 -1.878356
v 5.200539 6.109859 -5.374984
v -5.369665 6.954407 -4.008654
v -4.952214 6.522248 -0.5120253
v -5.588265 5.987097 -0.50223
v -6.005719 6.419255 -3.998858
v -2.153422 2.851686 5.986968
v 0.6158144 6.210801 6.482131
v 0.4573795 2.636054 6.038837
v -4.860792 6.663127 6.373324
v -5.548006 6.469431 6.328948
v -2.499297 2.560087 5.940817
v -5.851707 5.827716 6.24111
v -6.28723 0.3910326 5.561087
v -2.706917 -0.03168023 5.616638
v 0.6870633 6.502156 4.107158
v 1.029735 2.87545 3.312761
v 0.3029759 2.933518 3.406703
v 1.673705 6.420666 4.12676
v -2.287489 3.140492 3.741552
v 0.4573795 2.636054 6.038837
v 0.3029759 2.933518 3.406703
v -2.153422 2.851686 5.986968
v -2.635429 2.847749 3.74691
v -2.499297 2.560087 5.940817
v 0.3029759 2.933518 3.406703
v 0.6158144 6.210801 6.482131
v 0.6870633 6.502156 4.107158
v 0.4573795 2.636054 6.038837
v -7.466074 -5.307221 -0.3869831
v -6.346661 6.548748 0.9446937
v -6.430738 0.6661445 3.930392
v -5.851707 5.827716 6.24111
v -6.28723 0.3910326 5.561087
v -2.635429 2.847749 3.74691
v -2.706917 -0.03168023 5.616638
v -2.499297 2.560087 5.940817
v -2.880201 0.2553052 3.455724
v -2.880201 0.2553052 3.455724
v -6.28723 0.3910326 5.561087
v -2.706917 -0.03168023 5.616638
v -6.430738 0.6661445 3.930392
v -6.346661 6.548748 0.9446937
v -6.58705 -4.591251 -1.690403
v -5.588265 5.987097 -0.50223
v -7.466074 -5.307221 -0.3869831
v -5.588265 5.987097 -0.50223
v -7.004504 -4.159088 -5.187031
v -6.005719 6.419255 -3.998858
v -6.58705 -4.591251 -1.690403
v -6.060822 -5.219266 -1.830846
v -6.478273 -4.787107 -5.327476
v 4.09193 -5.631655 -6.693805
v 4.509387 -6.063815 -3.197177
v 5.145438 -5.528664 -3.206973
v 4.727984 -5.0965 -6.703601
v -7.466074 -5.307221 -0.3869831
v -6.430738 0.6661445 3.930392
v -2.880201 0.2553052 3.455724
v 0.4114366 -3.67309 2.57722
v -6.641366 -6.291453 -0.6070873
v 0.2009183 -7.248345 2.160475
vt 0.03692111 0.01301928
vt 0.03701409 0.01301928
vt 0.0369465 0.01301928
vt 0.03718556 0.01301928
vt 0.03693398 0.01301928
vt 0.03692111 0.01301928
vt 0.03748871 0.01301928
vt 0.03755631 0.01301928
vt 0.03721802 0.01301928
vt 0.0375817 0.01301928
vt 0.0375817 0.01301928
vt 0.03721802 0.01301928
vt 0.06109705 0.04333964
vt 0.06066043 0.04384667
vt 0.06066043 0.04333964
vt 0.06109705 0.04384667
vt 0.06115063 0.04333964
vt 0.06115063 0.04384667
vt 0.0608949 0.04333964
vt 0.06091616 0.04384667
vt 0.06091616 0.04333964
vt 0.0608949 0.04384667
vt 0.01068874 0.01466669
vt 0.01068874 0.01517373
vt 0.01160461 0.01517373
vt 0.01160461 0.01389375
vt 0.009607864 0.01389375
vt 0.0117162 0.01517373
vt 0.0117162 0.01389375
vt 0.01175812 0.01389375
vt 0.01175812 0.01517373
vt 0.03724074 0.04425476
vt 0.03744456 0.04425476
vt 0.03742228 0.04425476
vt 0.03744456 0.04425476
vt 0.03698599 0.04425476
vt 0.03724074 0.04425476
vt 0.03718981 0.04425476
vt 0.03698599 0.04425476
vt 0.03700827 0.04425476
vt 0.03744456 0.04425476
vt 0.03739712 0.04425476
vt 0.03739712 0.04425476
vt 0.03744456 0.04425476
vt 0.03742228 0.04425476
vt 0.06115063 0.04333964
vt 0.06115063 0.04384667
vt 0.06115063 0.04384667
vt 0.06115063 0.04333964
vt 0.06060531 0.04333964
vt 0.06120575 0.04384667
vt 0.06060531 0.04384667
vt 0.06120575 0.04333964
vt 0.0117162 0.01389375
vt 0.01175812 0.01389375
vt 0.01159497 0.01362509
vt 0.01149702 0.01362509
vt 0.01160461 0.01389375
vt 0.009715452 0.01362509
vt 0.009607864 0.01389375
vt 0.009496273 0.01389375
vt 0.009617503 0.01362509
vt 0.009454357 0.01389375
vt 0.03693398 0.01301928
vt 0.03718556 0.01301928
vt 0.03692111 0.01301928
vt 0.03748871 0.01301928
vt 0.03755631 0.01301928
vt 0.03721802 0.01301928
vt 0.03758169 0.01301928
vt 0.0375817 0.01301928
vt 0.03721802 0.01301928
vt 0.06109705 0.04333964
vt 0.06066043 0.04384667
vt 0.06109705 0.04384667
vt 0.06066043 0.04333964
vt 0.06089491 0.04333964
vt 0.06091616 0.04384667
vt 0.06089491 0.04384667
vt 0.06091616 0.04333964
vt 0.06109705 0.04384667
vt 0.06115063 0.04333964
vt 0.06109705 0.04333964
vt 0.06115063 0.04384667
vt 0.06115063 0.04384667
vt 0.06115063 0.04333964
vt 0.06060531 0.04333964
vt 0.06120575 0.04384667
vt 0.06120575 0.04333964
vt 0.06060531 0.04384667
vt 0.01175812 0.01466669
vt 0.01175812 0.01517373
vt 0.01175811 0.01517373
vt 0.01175811 0.01389375
vt 0.0117162 0.01517373
vt 0.01175812 0.01389375
vt 0.0117162 0.01389375
vt 0.01175812 0.01466669
vt 0.01175812 0.01517373
vt 0.01175812 0.01517373
vt 0.01160461 0.01389375
vt 0.01160461 0.01517373
vt 0.01068873 0.01466669
vt 0.01068873 0.01517373
vt 0.01052374 0.01466669
vt 0.009607862 0.01389375
vt 0.009607862 0.01517373
vt 0.01052374 0.01517373
vt 0.009496269 0.01517373
vt 0.00949627 0.01389375
vt 0.009454356 0.01389375
vt 0.009454356 0.01517373
vt 0.01175811 0.01389375
vt 0.01159497 0.01362509
vt 0.01175812 0.01389375
vt 0.01159497 0.01362509
vt 0.0117162 0.01389375
vt 0.01149702 0.01362509
vt 0.01160461 0.01389375
vt 0.009715449 0.01362509
vt 0.009607862 0.01389375
vt 0.00949627 0.01389375
vt 0.0096175 0.01362509
vt 0.009454356 0.01389375
vt 0.01159497 0.01362509
vt 0.01159497 0.01287362
vt 0.01159497 0.01287362
vt 0.01159497 0.01362509
vt 0.01149702 0.01362509
vt 0.01149702 0.01287362
vt 0.00971545 0.01287362
vt 0.009715449 0.01362509
vt 0.0096175 0.01362509
vt 0.009617501 0.01287362
vt 0.03731724 0.01301928
vt 0.03756883 0.01301928
vt 0.0375817 0.01301928
vt 0.03701408 0.01301928
vt 0.03694649 0.01301928
vt 0.03728479 0.01301928
vt 0.03692111 0.01301928
vt 0.03692111 0.01301928
vt 0.03728479 0.01301928
vt 0.03716531 0.04425476
vt 0.03725238 0.04425476
vt 0.03717818 0.04425476
vt 0.03726525 0.04425476
vt 0.06071401 0.04333964
vt 0.06115063 0.04384667
vt 0.06115063 0.04333964
vt 0.06071401 0.04384667
vt 0.06066043 0.04333964
vt 0.06066043 0.04384667
vt 0.06091616 0.04333964
vt 0.0608949 0.04384667
vt 0.0608949 0.04333964
vt 0.06091616 0.04384667
vt 0.009454357 0.01389375
vt 0.009454356 0.01389375
vt 0.009454356 0.01466669
vt 0.009454356 0.01517373
vt 0.009454356 0.01517373
vt 0.06066043 0.04333964
vt 0.06066043 0.04384667
vt 0.06066043 0.04384667
vt 0.06066043 0.04333964
vt 0.06120575 0.04333964
vt 0.06060531 0.04384667
vt 0.06120575 0.04384667
vt 0.06060531 0.04333964
vt 0.009454356 0.01389375
vt 0.009617503 0.01362509
vt 0.0096175 0.01362509
vt 0.009454357 0.01389375
vt 0.0096175 0.01362509
vt 0.009617503 0.01287362
vt 0.009617501 0.01287362
vt 0.009617503 0.01362509
vt 0.009715452 0.01362509
vt 0.009715453 0.01287362
vt 0.01149702 0.01287362
vt 0.01149702 0.01362509
vt 0.01159497 0.01362509
vt 0.01159497 0.01287362
vt 0.0108139 0.02780566
vt 0.01081551 0.02780566
vt 0.01117878 0.02780566
vt 0.01151495 0.02780566
vt 0.01090688 0.02780566
vt 0.01151612 0.02780566
vn -0.7686298 -0.4182157 0.4840493
vn -0.2223338 -0.4758598 0.8509554
vn -0.6899923 -0.6495698 0.3193268
vn 0.2405198 -0.09369071 0.966112
vn 0.2405207 -0.09369006 0.9661118
vn 0.2405206 -0.09368998 0.9661118
vn 0.2405183 -0.09369214 0.9661122
vn 0.24052 -0.09369037 0.966112
vn 0.24052 -0.09369049 0.966112
vn 0.2405222 -0.0936884 0.9661116
vn 0.2405206 -0.09369002 0.9661118
vn 0.2405205 -0.09368978 0.9661118
vn -0.3076186 0.932485 0.1893215
vn 0.07372064 0.982115 0.1732491
vn -0.2196292 0.3298862 0.9181167
vn -0.3057184 0.9367237 0.1705436
vn -0.8945943 0.4287513 0.1259899
vn -0.8969425 0.4200909 0.1379056
vn -0.9907427 0.006913139 0.1355765
vn -0.9890569 0.01367511 0.1468995
vn -0.7889353 -0.02511164 0.6139629
vn -0.9951999 -0.01632845 0.0964911
vn -0.07982282 -0.9881935 -0.1307747
vn -0.05380474 -0.9792564 -0.1953512
vn 0.1136217 -0.9836263 -0.1398911
vn 0.08897839 -0.9887137 -0.120533
vn -0.2223338 -0.4758598 0.8509554
vn 0.6621517 -0.7301397 -0.1686746
vn 0.6271172 -0.7609068 -0.1665681
vn 0.9554429 -0.2514447 -0.1546107
vn 0.9670293 -0.2161799 -0.134613
vn 0.1176626 -0.1218084 0.9855548
vn 0.1176626 -0.1218091 0.9855547
vn 0.1176626 -0.1218111 0.9855545
vn 0.1176625 -0.1218083 0.9855548
vn -0.001409502 -0.3215635 0.946887
vn 0.1176625 -0.1218081 0.9855548
vn 0.1176622 -0.1218078 0.9855549
vn 0.1176625 -0.1218089 0.9855547
vn 0.1176626 -0.1218112 0.9855545
vn 0.1176625 -0.1218082 0.9855548
vn 0.117663 -0.1218082 0.9855548
vn 0.117663 -0.1218082 0.9855548
vn 0.1176628 -0.1218085 0.9855548
vn 0.1176625 -0.1218098 0.9855546
vn -0.8945943 0.4287513 0.1259899
vn -0.9968352 0.05657569 0.05584704
vn -0.8969425 0.4200909 0.1379056
vn -0.9954867 0.09094644 0.02711209
vn 0.09122387 0.9895632 0.1115487
vn 0.1051816 0.9912539 0.0797037
vn 0.07720599 0.9866856 0.1431455
vn 0.1206348 0.9917218 0.04398819
vn 0.3605429 -0.4435402 -0.820537
vn 0.6421507 -0.1335984 -0.7548469
vn 0.5795315 -0.1736802 -0.7962277
vn 0.05771539 -0.6127179 -0.7881914
vn 0.008276377 -0.6669181 -0.7450851
vn -0.3499783 -0.5801437 -0.7354921
vn -0.3003444 -0.6422595 -0.7051922
vn -0.6899923 -0.6495698 0.3193268
vn -0.7816954 -0.0649199 -0.6202725
vn -0.7686298 -0.4182157 0.4840493
vn 0.271156 -0.2086541 0.9396477
vn 0.3552198 -0.1904688 0.9151725
vn 0.3634494 -0.1472238 0.9199074
vn 0.5378386 -0.5429348 0.6449429
vn 0.565223 -0.3719018 0.7363505
vn 0.375747 -0.04900074 0.925426
vn 0.3757485 -0.04900273 0.9254252
vn 0.3757471 -0.04900068 0.9254259
vn 0.375747 -0.0490008 0.9254259
vn -0.09953421 -0.9940865 -0.0434157
vn -0.1054143 -0.9933535 -0.04622303
vn -0.1237662 -0.9907867 -0.05498597
vn -0.08423035 -0.9957918 -0.03610996
vn -0.9853336 0.08909573 0.1455325
vn -0.9854327 0.09274277 0.1425529
vn -0.9803309 0.02703154 0.1955007
vn -0.9834377 0.1584175 0.08805882
vn -0.7793574 -0.6205069 0.08702455
vn -0.9444029 -0.2987769 0.1372429
vn -0.7540801 -0.6511138 0.08610534
vn -0.9479058 -0.2844332 0.1434305
vn -0.9815969 0.08983191 0.1685169
vn -0.9850578 0.07562669 0.1547317
vn -0.07880096 -0.9930026 -0.08795581
vn -0.07328974 -0.9923388 -0.09946086
vn -0.05979765 -0.9900402 -0.1274537
vn -0.08977846 -0.9938439 -0.06491611
vn 0.9877939 -0.08762281 -0.1287838
vn 0.9877006 -0.1036793 -0.1170392
vn 0.9900446 0.06798545 -0.1232465
vn 0.7548367 0.6485834 -0.09778191
vn 0.6290064 0.7743424 -0.06888155
vn 0.9554429 -0.2514447 -0.1546107
vn 0.3154452 0.9457324 -0.07800407
vn 0.9935544 -0.06380527 -0.09369493
vn 0.9670293 -0.2161799 -0.134613
vn 0.9995285 -0.02863975 0.01107048
vn 0.5228211 0.8383148 -0.1545525
vn 0.1830565 0.9830363 0.01139704
vn 0.09817203 0.9951388 0.007811406
vn 0.110792 0.9928575 0.04426205
vn 0.1008149 0.9921443 0.0740678
vn 0.01476004 0.9934543 0.1132732
vn -0.1000818 0.987934 0.1181946
vn 0.07923799 0.9891481 0.1237231
vn -0.6199065 0.7721958 0.1393898
vn -0.5139614 0.8426102 0.1607844
vn -0.9589731 0.253149 0.1276181
vn -0.9622909 0.2427901 0.1226751
vn 0.5829622 0.3973016 -0.7087359
vn 0.5795315 -0.1736802 -0.7962277
vn 0.6421507 -0.1335984 -0.7548469
vn 0.6556287 0.4550607 -0.6025535
vn 0.9691274 -0.1817326 -0.1666292
vn 0.5146521 0.8513134 -0.1019736
vn 0.1095715 0.9708924 -0.2129837
vn -0.2484151 0.7122865 -0.6564584
vn -0.1423377 0.7265947 -0.6721607
vn -0.5916891 0.5502383 -0.5891874
vn -0.7431721 0.3430862 -0.5744449
vn -0.7956092 0.2924636 -0.5305384
vn 0.877644 -0.4516083 -0.160596
vn 0.9491426 0.30565 -0.07554009
vn 0.8776444 -0.4516074 -0.1605961
vn 0.9491425 0.3056505 -0.07554
vn 0.4646462 0.8838626 0.05376592
vn 0.4646459 0.8838627 0.05376593
vn -0.2920327 0.9443206 0.1515764
vn -0.2920335 0.9443204 0.1515764
vn -0.8776439 0.4516086 0.1605951
vn -0.8776439 0.4516087 0.1605952
vn -0.02976438 -0.1217116 0.9921191
vn -0.02976325 -0.1217106 0.9921193
vn -0.02976304 -0.1217107 0.9921193
vn -0.02976219 -0.1217096 0.9921194
vn -0.02976374 -0.1217112 0.9921192
vn -0.02976454 -0.1217118 0.9921191
vn -0.02976489 -0.1217123 0.9921191
vn -0.02976328 -0.1217106 0.9921193
vn -0.02976329 -0.1217106 0.9921193
vn -0.01913143 -0.2156535 0.9762825
vn 0.08578038 -0.2054387 0.9749034
vn 0.1095781 -0.202789 0.9730721
vn -0.03731722 -0.2171823 0.9754175
vn 0.2842681 -0.9492306 -0.1347331
vn -0.0866822 -0.9897204 -0.1137523
vn -0.09285505 -0.9899748 -0.1064327
vn 0.2884511 -0.947122 -0.140556
vn 0.638173 -0.7577879 -0.1359877
vn 0.6490963 -0.7480186 -0.1383553
vn 0.9973888 -0.06423666 -0.03300349
vn 0.9966152 -0.08077061 -0.01530566
vn 0.9937804 -0.1101584 0.01629935
vn 0.9973718 -0.03643819 -0.06262478
vn -0.7686298 -0.4182157 0.4840493
vn -0.9589731 0.253149 0.1276181
vn -0.9152783 -0.1324676 0.3804182
vn -0.9622909 0.2427901 0.1226751
vn -0.9928455 0.06718846 0.09871008
vn 0.9938806 -0.07644814 -0.07973141
vn 0.9935966 -0.07784364 -0.08189139
vn 0.9949574 -0.07082003 -0.07102282
vn 0.9923732 -0.08351327 -0.09066954
vn -0.1198996 -0.9841607 -0.1305827
vn -0.1272837 -0.9815475 -0.1427006
vn -0.1145158 -0.9859319 -0.1217561
vn -0.1337974 -0.9790639 -0.1534015
vn -0.7956092 0.2924636 -0.5305384
vn -0.7816954 -0.0649199 -0.6202725
vn -0.7431721 0.3430862 -0.5744449
vn -0.8545124 0.1369596 -0.5010496
vn -0.8776439 0.4516086 0.1605951
vn -0.9491426 -0.3056501 0.07553913
vn -0.8776439 0.4516087 0.1605952
vn -0.9491425 -0.3056507 0.07553897
vn -0.4646461 -0.8838627 -0.05376691
vn -0.464646 -0.8838627 -0.05376684
vn 0.2920336 -0.9443202 -0.1515773
vn 0.2920336 -0.9443202 -0.1515771
vn 0.877644 -0.4516083 -0.160596
vn 0.8776444 -0.4516074 -0.1605961
vn -0.7686298 -0.4182157 0.4840493
vn -0.9152783 -0.1324676 0.3804182
vn -0.001409502 -0.3215635 0.946887
vn -0.2196292 0.3298862 0.9181167
vn -0.2223338 -0.4758598 0.8509554
vn -0.7889353 -0.02511164 0.6139629
g Boss_Color_109_0
f 3/3/3 2/2/2 1/1/1
f 6/6/6 5/5/5 4/4/4
f 7/7/7 4/4/4 5/5/5
f 8/8/8 4/4/4 7/7/7
f 9/9/9 4/4/4 8/8/8
f 9/9/9 8/8/8 10/10/10
f 10/10/10 11/11/11 9/9/9
f 12/12/12 9/9/9 11/11/11
f 15/15/15 14/14/14 13/13/13
f 16/16/16 13/13/13 14/14/14
f 13/13/13 16/16/16 17/17/17
f 18/18/18 17/17/17 16/16/16
f 21/21/21 20/20/20 19/19/19
f 22/22/22 19/19/19 20/20/20
f 25/25/25 24/24/24 23/23/23
f 26/26/26 25/25/25 23/23/23
f 23/23/23 27/27/27 26/26/26
f 25/25/25 26/26/26 28/28/28
f 29/29/29 28/28/28 26/26/26
f 29/29/29 30/30/30 28/28/28
f 31/31/31 28/28/28 30/30/30
f 34/34/34 33/33/33 32/32/32
f 35/35/35 32/32/32 33/33/33
f 32/32/32 35/35/35 36/36/36
f 35/35/35 37/37/37 36/36/36
f 36/36/36 37/37/37 38/38/38
f 36/36/36 38/38/38 39/39/39
f 40/40/40 39/39/39 38/38/38
f 41/41/41 37/37/37 35/35/35
f 41/41/41 35/35/35 42/42/42
f 43/43/43 42/42/42 35/35/35
f 41/41/41 44/44/44 37/37/37
f 45/45/45 37/37/37 44/44/44
f 48/48/48 47/47/47 46/46/46
f 49/49/49 46/46/46 47/47/47
f 52/52/52 51/51/51 50/50/50
f 53/53/53 50/50/50 51/51/51
f 56/56/56 55/55/55 54/54/54
f 56/56/56 54/54/54 57/57/57
f 58/58/58 57/57/57 54/54/54
f 57/57/57 58/58/58 59/59/59
f 60/60/60 59/59/59 58/58/58
f 59/59/59 60/60/60 61/61/61
f 61/61/61 62/62/62 59/59/59
f 63/63/63 62/62/62 61/61/61
f 66/66/66 65/65/65 64/64/64
f 67/67/67 64/64/64 65/65/65
f 65/65/65 68/68/68 67/67/67
f 69/69/69 68/68/68 65/65/65
f 68/68/68 69/69/69 70/70/70
f 70/70/70 69/69/69 71/71/71
f 72/72/72 71/71/71 69/69/69
f 75/75/75 74/74/74 73/73/73
f 76/76/76 73/73/73 74/74/74
f 79/79/79 78/78/78 77/77/77
f 80/80/80 77/77/77 78/78/78
f 83/83/83 82/82/82 81/81/81
f 84/84/84 81/81/81 82/82/82
f 84/84/84 82/82/82 85/85/85
f 86/86/86 85/85/85 82/82/82
f 89/89/89 88/88/88 87/87/87
f 90/90/90 87/87/87 88/88/88
f 93/93/93 92/92/92 91/91/91
f 94/94/94 93/93/93 91/91/91
f 93/93/93 94/94/94 95/95/95
f 94/94/94 91/91/91 96/96/96
f 97/97/97 95/95/95 94/94/94
f 98/98/98 96/96/96 91/91/91
f 99/99/99 96/96/96 98/98/98
f 100/100/100 99/99/99 98/98/98
f 97/97/97 101/101/101 95/95/95
f 102/102/102 95/95/95 101/101/101
f 102/102/102 101/101/101 103/103/103
f 104/104/104 102/102/102 103/103/103
f 103/103/103 101/101/101 105/105/105
f 106/106/106 105/105/105 101/101/101
f 106/106/106 107/107/107 105/105/105
f 107/107/107 108/108/108 105/105/105
f 107/107/107 106/106/106 109/109/109
f 110/110/110 109/109/109 106/106/106
f 110/110/110 111/111/111 109/109/109
f 112/112/112 109/109/109 111/111/111
f 115/115/115 114/114/114 113/113/113
f 116/116/116 113/113/113 114/114/114
f 113/113/113 116/116/116 117/117/117
f 117/117/117 116/116/116 118/118/118
f 118/118/118 119/119/119 117/117/117
f 118/118/118 120/120/120 119/119/119
f 121/121/121 119/119/119 120/120/120
f 121/121/121 120/120/120 122/122/122
f 123/123/123 122/122/122 120/120/120
f 123/123/123 124/124/124 122/122/122
f 127/127/127 126/126/126 125/125/125
f 128/128/128 125/125/125 126/126/126
f 128/128/128 126/126/126 129/129/129
f 130/130/130 129/129/129 126/126/126
f 130/130/130 131/131/131 129/129/129
f 132/132/132 129/129/129 131/131/131
f 132/132/132 131/131/131 133/133/133
f 134/134/134 133/133/133 131/131/131
f 137/137/137 136/136/136 135/135/135
f 138/138/138 135/135/135 136/136/136
f 139/139/139 135/135/135 138/138/138
f 140/140/140 135/135/135 139/139/139
f 140/140/140 139/139/139 141/141/141
f 141/141/141 142/142/142 140/140/140
f 143/143/143 140/140/140 142/142/142
f 146/146/146 145/145/145 144/144/144
f 147/147/147 144/144/144 145/145/145
f 150/150/150 149/149/149 148/148/148
f 151/151/151 148/148/148 149/149/149
f 148/148/148 151/151/151 152/152/152
f 153/153/153 152/152/152 151/151/151
f 156/156/156 155/155/155 154/154/154
f 157/157/157 154/154/154 155/155/155
f 160/160/160 159/159/159 158/158/158
f 161/161/161 159/159/159 160/160/160
f 162/162/162 161/161/161 160/160/160
f 165/165/165 164/164/164 163/163/163
f 166/166/166 163/163/163 164/164/164
f 169/169/169 168/168/168 167/167/167
f 170/170/170 167/167/167 168/168/168
f 173/173/173 172/172/172 171/171/171
f 174/174/174 171/171/171 172/172/172
f 177/177/177 176/176/176 175/175/175
f 178/178/178 175/175/175 176/176/176
f 178/178/178 176/176/176 179/179/179
f 180/180/180 179/179/179 176/176/176
f 180/180/180 181/181/181 179/179/179
f 182/182/182 179/179/179 181/181/181
f 182/182/182 181/181/181 183/183/183
f 184/184/184 183/183/183 181/181/181
f 187/187/187 186/186/186 185/185/185
f 188/188/188 187/187/187 185/185/185
f 189/189/189 188/188/188 185/185/185
f 190/190/190 188/188/188 189/189/189
