g Boss_Color_16
v 6.170134 -6.848597 5.58499
v 6.848584 -6.170142 5.584992
v 10.45256 -9.211987 -5.662581
v 9.212059 -10.45249 -5.662586
v 3.730769 -11.88543 -5.662585
v -6.170089 -6.848638 5.58499
v -3.730704 -11.88545 -5.662588
v -9.212004 -10.45255 -5.66258
v -6.848545 -6.170189 5.584991
v -6.170089 -6.848638 5.58499
v -9.212004 -10.45255 -5.66258
v -10.45251 -9.212046 -5.662579
v -11.88546 -3.370733 -5.662556
v -11.88548 3.370694 -5.662533
v -6.848586 6.170105 5.585032
v -10.45257 9.212014 -5.662518
v 6.848544 6.170152 5.585033
v 9.212004 10.45257 -5.662517
v 10.45251 9.212068 -5.662519
v 6.170089 6.8486 5.585035
v 3.730705 11.88549 -5.662508
v -6.170135 6.848558 5.585035
v -3.730768 11.88546 -5.66251
v -9.212063 10.45252 -5.662513
v -10.45257 9.212014 -5.662518
v -6.848586 6.170105 5.585032
v 6.848544 6.170152 5.585033
v 10.45251 9.212068 -5.662519
v 11.88545 3.370769 -5.662536
v 6.848584 -6.170142 5.584992
v 11.88548 -3.370662 -5.662559
v 10.45256 -9.211987 -5.662581
v 6.848584 -6.170142 5.584992
v 5.032714 -5.032729 6.360803
v 5.03268 5.032719 6.360836
v 6.848544 6.170152 5.585033
v 6.170134 -6.848597 5.58499
v 5.032714 -5.032729 6.360803
v 6.848584 -6.170142 5.584992
v -6.170089 -6.848638 5.58499
v -5.032682 -5.032764 6.360802
v -6.848545 -6.170189 5.584991
v -5.032682 -5.032764 6.360802
v -6.170089 -6.848638 5.58499
v -5.032716 5.032686 6.360835
v -6.848586 6.170105 5.585032
v 6.848544 6.170152 5.585033
v 5.03268 5.032719 6.360836
v 6.170089 6.8486 5.585035
v -6.170135 6.848558 5.585035
v -5.032716 5.032686 6.360835
v -6.848586 6.170105 5.585032
v 8.63141 -9.902969 -5.164797
v 9.398296 -10.89935 -5.164801
v 3.75236 -12.3993 -5.164804
v 3.470547 -11.26323 -5.1648
v 9.904447 -8.628881 -5.16479
v -3.752291 -12.39932 -5.164805
v 10.90257 -9.392769 -5.164793
v -3.470484 -11.26325 -5.164802
v 11.26367 -3.137329 -5.164773
v -9.398243 -10.89941 -5.164801
v 12.4002 -3.394039 -5.164775
v -8.631356 -9.903018 -5.164796
v 11.26364 3.137427 -5.164751
v -10.90252 -9.39283 -5.164798
v 12.40017 3.394145 -5.164752
v -9.904408 -8.628937 -5.164794
v 9.904407 8.62896 -5.164733
v -12.40017 -3.394115 -5.164777
v 10.90252 9.392852 -5.164732
v -11.26364 -3.137398 -5.164776
v 8.631358 9.903037 -5.164731
v -12.4002 3.394066 -5.164754
v 9.398244 10.89943 -5.164728
v -11.26367 3.137356 -5.164754
v 3.470486 11.26328 -5.164725
v -10.90258 9.392793 -5.164735
v 3.752293 12.39935 -5.164723
v -9.904453 8.628905 -5.164736
v -3.470547 11.26325 -5.164727
v -9.398299 10.89938 -5.164727
v -3.752362 12.39933 -5.164725
v -8.631413 9.902993 -5.16473
v 9.398296 -10.89935 -5.164801
v 9.6735 -11.18928 -6.360844
v 3.864256 -12.73692 -6.36085
v 3.75236 -12.3993 -5.164804
v 10.90257 -9.392769 -5.164793
v -3.864185 -12.73695 -6.360849
v 11.19207 -9.668918 -6.360837
v -3.752291 -12.39932 -5.164805
v 12.4002 -3.394039 -5.164775
v -9.673435 -11.18933 -6.360847
v 12.738 -3.494707 -6.360818
v -9.398243 -10.89941 -5.164801
v 12.40017 3.394145 -5.164752
v -11.19201 -9.668985 -6.360842
v 12.73797 3.494823 -6.360794
v -10.90252 -9.39283 -5.164798
v 10.90252 9.392852 -5.164732
v -12.73798 -3.494785 -6.360821
v 11.19202 9.669015 -6.360773
v -12.40017 -3.394115 -5.164777
v 9.398244 10.89943 -5.164728
v -12.738 3.494742 -6.360797
v 9.673437 11.18936 -6.360768
v -12.4002 3.394066 -5.164754
v 3.752293 12.39935 -5.164723
v -11.19207 9.66895 -6.360778
v 3.864188 12.73698 -6.360765
v -10.90258 9.392793 -5.164735
v -3.752362 12.39933 -5.164725
v -9.673501 11.18931 -6.360771
v -3.864255 12.73695 -6.360765
v -9.398299 10.89938 -5.164727
vt 0.5768582 0.03464518
vt 0.5770777 0.03485654
vt 0.5782444 0.03390893
vt 0.5778428 0.03352248
vt 0.5760685 0.03307609
vt 0.5728635 0.03464518
vt 0.5736531 0.03307609
vt 0.5718788 0.03352247
vt 0.5726439 0.03485654
vt 0.5728635 0.03464518
vt 0.5718788 0.03352247
vt 0.5714773 0.03390892
vt 0.5710134 0.03572863
vt 0.5710134 0.03782874
vt 0.5726439 0.03870083
vt 0.5714773 0.03964844
vt 0.5770777 0.03870083
vt 0.5778428 0.0400349
vt 0.5782444 0.03964844
vt 0.5768582 0.03891219
vt 0.5760685 0.04048128
vt 0.5728635 0.03891218
vt 0.5736531 0.04048128
vt 0.5718788 0.04003489
vt 0.5714773 0.03964844
vt 0.5726439 0.03870083
vt 0.5770777 0.03870083
vt 0.5782444 0.03964844
vt 0.5787082 0.03782874
vt 0.5770777 0.03485654
vt 0.5787082 0.03572863
vt 0.5782444 0.03390893
vt 0.5311486 0.009691499
vt 0.5299745 0.01039919
vt 0.5299745 0.01666186
vt 0.5311486 0.01736956
vt 0.5307099 0.009269368
vt 0.5299745 0.01039919
vt 0.5311486 0.009691499
vt 0.5227315 0.00926936
vt 0.5234669 0.01039919
vt 0.5222929 0.009691488
vt 0.5234669 0.01039919
vt 0.5227315 0.00926936
vt 0.5234669 0.01666186
vt 0.5222929 0.01736956
vt 0.5311486 0.01736956
vt 0.5299745 0.01666186
vt 0.5307099 0.0177917
vt 0.5227315 0.01779168
vt 0.5234669 0.01666186
vt 0.5222929 0.01736956
vt 0.5278383 0.03412671
vt 0.5280199 0.03389969
vt 0.5266832 0.03355792
vt 0.5266164 0.03381678
vt 0.5281397 0.03441702
vt 0.5249063 0.03355792
vt 0.5283761 0.03424297
vt 0.524973 0.03381678
vt 0.5284616 0.03566828
vt 0.5235696 0.03389968
vt 0.5287307 0.03560979
vt 0.5237511 0.03412671
vt 0.5284616 0.037098
vt 0.5232134 0.03424296
vt 0.5287307 0.03715649
vt 0.5234497 0.03441701
vt 0.5281397 0.03834926
vt 0.5228589 0.03560978
vt 0.5283761 0.03852332
vt 0.5231279 0.03566828
vt 0.5278383 0.03863956
vt 0.5228589 0.03715649
vt 0.5280199 0.03886659
vt 0.5231279 0.03709799
vt 0.5266164 0.0389495
vt 0.5232134 0.03852331
vt 0.5266832 0.03920835
vt 0.5234497 0.03834926
vt 0.524973 0.0389495
vt 0.5235696 0.03886659
vt 0.5249063 0.03920835
vt 0.5237511 0.03863956
vt 0.5519245 0.03463151
vt 0.5519952 0.0345598
vt 0.5505019 0.03417697
vt 0.5504732 0.03426048
vt 0.5523111 0.03500419
vt 0.5485154 0.03417697
vt 0.5523854 0.03493588
vt 0.5485442 0.03426048
vt 0.552696 0.03648807
vt 0.5470222 0.03455979
vt 0.5527828 0.03646316
vt 0.5470929 0.03463151
vt 0.552696 0.03816723
vt 0.5466319 0.03493588
vt 0.5527828 0.03819213
vt 0.5467063 0.03500418
vt 0.5523111 0.0396511
vt 0.5462345 0.03646316
vt 0.5523854 0.03971941
vt 0.5463213 0.03648806
vt 0.5519245 0.04002378
vt 0.5462345 0.03819212
vt 0.5519952 0.0400955
vt 0.5463213 0.03816722
vt 0.5504732 0.04039481
vt 0.5466318 0.03971941
vt 0.5505019 0.04047833
vt 0.5467062 0.0396511
vt 0.5485442 0.04039481
vt 0.5470222 0.0400955
vt 0.5485154 0.04047833
vt 0.5470929 0.04002378
vn 0.3560027 -0.8377733 0.4140023
vn 0.8382083 -0.3559785 0.4131417
vn 0.8001918 -0.4627295 0.3815424
vn 0.4681191 -0.7968644 0.3819313
vn 0.1000019 -0.9160016 0.3885109
vn -0.3559979 -0.8377751 0.4140027
vn -0.09999575 -0.9160023 0.3885109
vn -0.4681147 -0.7968668 0.3819316
vn -0.8382064 -0.355983 0.4131418
vn -0.3559979 -0.8377751 0.4140027
vn -0.4681147 -0.7968668 0.3819316
vn -0.8001896 -0.4627329 0.3815426
vn -0.9171359 -0.09241773 0.3877122
vn -0.9171365 0.09240965 0.3877127
vn -0.8382083 0.355976 0.4131439
vn -0.800192 0.4627267 0.3815452
vn 0.8382065 0.3559807 0.4131437
vn 0.4681157 0.7968642 0.381936
vn 0.8001899 0.4627306 0.381545
vn 0.3559981 0.8377727 0.4140075
vn 0.09999652 0.9159998 0.3885165
vn -0.3560028 0.8377707 0.4140075
vn -0.1000019 0.9159992 0.3885166
vn -0.4681192 0.7968621 0.3819363
vn -0.800192 0.4627267 0.3815452
vn -0.8382083 0.355976 0.4131439
vn 0.8382065 0.3559807 0.4131437
vn 0.8001899 0.4627306 0.381545
vn 0.917136 0.09241512 0.3877125
vn 0.8382083 -0.3559785 0.4131417
vn 0.9171365 -0.09241222 0.387712
vn 0.8001918 -0.4627295 0.3815424
vn 0.3132999 -0.1404402 0.9392123
vn 0.2085109 -0.2085118 0.9555344
vn 0.2085094 0.2085067 0.9555358
vn 0.3132985 0.1404362 0.9392134
vn 0.1404385 -0.313302 0.9392118
vn 0.2085109 -0.2085118 0.9555344
vn 0.3132999 -0.1404402 0.9392123
vn -0.1404365 -0.313303 0.9392118
vn -0.2085096 -0.2085132 0.9555344
vn -0.3132992 -0.1404422 0.9392123
vn -0.2085096 -0.2085132 0.9555344
vn -0.1404365 -0.313303 0.9392118
vn -0.208511 0.2085054 0.9555358
vn -0.3132999 0.1404339 0.9392132
vn 0.3132985 0.1404362 0.9392134
vn 0.2085094 0.2085067 0.9555358
vn 0.1404359 0.3132968 0.9392139
vn -0.1404385 0.3132957 0.9392139
vn -0.208511 0.2085054 0.9555358
vn -0.3132999 0.1404339 0.9392132
vn 0 0 1
vn 0 0 1
vn 0 0 1
vn 0 0 1
vn 0 0 1
vn 0 0 1
vn 0 0 1
vn 0 0 1
vn 0 0 1
vn 0 0 1
vn 0 0 1
vn 0 0 1
vn 0 0 1
vn 0 0 1
vn 0 0 1
vn 0 0 1
vn 0 0 1
vn 0 0 1
vn 0 0 1
vn 0 0 1
vn 0 0 1
vn 0 0 1
vn 0 0 1
vn 0 0 1
vn 0 0 1
vn 0 0 1
vn 0 0 1
vn 0 0 1
vn 0 0 1
vn 0 0 1
vn 0 0 1
vn 0 0 1
vn 0.4641287 -0.8301297 0.3089808
vn 0.4842466 -0.8179494 0.3105863
vn 0.1285875 -0.9514253 0.2797414
vn 0.1201272 -0.9526451 0.2793507
vn 0.8345416 -0.4566212 0.3082815
vn -0.1285819 -0.9514261 0.279741
vn 0.8216439 -0.478287 0.3100691
vn -0.1201217 -0.9526459 0.2793504
vn 0.9537833 -0.1137936 0.2781157
vn -0.4842421 -0.8179526 0.3105852
vn 0.9528461 -0.1207695 0.2783864
vn -0.4641254 -0.8301319 0.3089798
vn 0.9537824 0.1137979 0.2781171
vn -0.8216416 -0.4782914 0.3100686
vn 0.9528452 0.1207736 0.2783879
vn -0.8345395 -0.4566252 0.3082811
vn 0.8345391 0.4566229 0.3082854
vn -0.9528453 -0.1207756 0.2783867
vn 0.8216411 0.4782891 0.3100731
vn -0.9537826 -0.1137998 0.278116
vn 0.4641255 0.8301293 0.3089869
vn -0.9528462 0.120768 0.278387
vn 0.4842418 0.8179501 0.3105921
vn -0.9537834 0.1137921 0.2781162
vn 0.1201221 0.9526438 0.2793573
vn -0.8216445 0.4782847 0.310071
vn 0.1285825 0.9514239 0.279748
vn -0.8345422 0.4566188 0.3082833
vn -0.1201276 0.9526434 0.2793563
vn -0.4842477 0.8179474 0.3105903
vn -0.1285875 0.9514236 0.2797469
vn -0.4641298 0.8301276 0.3089849
g Boss_Color_16_0
f 3/3/3 2/2/2 1/1/1
f 4/4/4 3/3/3 1/1/1
f 5/5/5 4/4/4 1/1/1
f 1/1/1 6/6/6 5/5/5
f 6/6/6 7/7/7 5/5/5
f 8/8/8 7/7/7 6/6/6
f 11/11/11 10/10/10 9/9/9
f 12/12/12 11/11/11 9/9/9
f 13/13/13 12/12/12 9/9/9
f 14/14/14 13/13/13 9/9/9
f 15/15/15 14/14/14 9/9/9
f 16/16/16 14/14/14 15/15/15
f 19/19/19 18/18/18 17/17/17
f 18/18/18 20/20/20 17/17/17
f 18/18/18 21/21/21 20/20/20
f 20/20/20 21/21/21 22/22/22
f 21/21/21 23/23/23 22/22/22
f 23/23/23 24/24/24 22/22/22
f 24/24/24 25/25/25 22/22/22
f 25/25/25 26/26/26 22/22/22
f 29/29/29 28/28/28 27/27/27
f 27/27/27 30/30/30 29/29/29
f 30/30/30 31/31/31 29/29/29
f 32/32/32 31/31/31 30/30/30
f 35/35/35 34/34/34 33/33/33
f 36/36/36 35/35/35 33/33/33
f 39/39/39 38/38/38 37/37/37
f 37/37/37 38/38/38 40/40/40
f 38/38/38 41/41/41 40/40/40
f 44/44/44 43/43/43 42/42/42
f 43/43/43 45/45/45 42/42/42
f 45/45/45 46/46/46 42/42/42
f 49/49/49 48/48/48 47/47/47
f 48/48/48 49/49/49 50/50/50
f 51/51/51 48/48/48 50/50/50
f 52/52/52 51/51/51 50/50/50
f 55/55/55 54/54/54 53/53/53
f 56/56/56 55/55/55 53/53/53
f 53/53/53 54/54/54 57/57/57
f 58/58/58 55/55/55 56/56/56
f 54/54/54 59/59/59 57/57/57
f 60/60/60 58/58/58 56/56/56
f 57/57/57 59/59/59 61/61/61
f 62/62/62 58/58/58 60/60/60
f 59/59/59 63/63/63 61/61/61
f 64/64/64 62/62/62 60/60/60
f 61/61/61 63/63/63 65/65/65
f 66/66/66 62/62/62 64/64/64
f 63/63/63 67/67/67 65/65/65
f 68/68/68 66/66/66 64/64/64
f 65/65/65 67/67/67 69/69/69
f 70/70/70 66/66/66 68/68/68
f 67/67/67 71/71/71 69/69/69
f 72/72/72 70/70/70 68/68/68
f 69/69/69 71/71/71 73/73/73
f 74/74/74 70/70/70 72/72/72
f 71/71/71 75/75/75 73/73/73
f 76/76/76 74/74/74 72/72/72
f 73/73/73 75/75/75 77/77/77
f 78/78/78 74/74/74 76/76/76
f 75/75/75 79/79/79 77/77/77
f 80/80/80 78/78/78 76/76/76
f 77/77/77 79/79/79 81/81/81
f 82/82/82 78/78/78 80/80/80
f 79/79/79 83/83/83 81/81/81
f 84/84/84 82/82/82 80/80/80
f 81/81/81 83/83/83 84/84/84
f 83/83/83 82/82/82 84/84/84
f 87/87/87 86/86/86 85/85/85
f 88/88/88 87/87/87 85/85/85
f 85/85/85 86/86/86 89/89/89
f 90/90/90 87/87/87 88/88/88
f 86/86/86 91/91/91 89/89/89
f 92/92/92 90/90/90 88/88/88
f 89/89/89 91/91/91 93/93/93
f 94/94/94 90/90/90 92/92/92
f 91/91/91 95/95/95 93/93/93
f 96/96/96 94/94/94 92/92/92
f 93/93/93 95/95/95 97/97/97
f 98/98/98 94/94/94 96/96/96
f 95/95/95 99/99/99 97/97/97
f 100/100/100 98/98/98 96/96/96
f 97/97/97 99/99/99 101/101/101
f 102/102/102 98/98/98 100/100/100
f 99/99/99 103/103/103 101/101/101
f 104/104/104 102/102/102 100/100/100
f 101/101/101 103/103/103 105/105/105
f 106/106/106 102/102/102 104/104/104
f 103/103/103 107/107/107 105/105/105
f 108/108/108 106/106/106 104/104/104
f 105/105/105 107/107/107 109/109/109
f 110/110/110 106/106/106 108/108/108
f 107/107/107 111/111/111 109/109/109
f 112/112/112 110/110/110 108/108/108
f 109/109/109 111/111/111 113/113/113
f 114/114/114 110/110/110 112/112/112
f 111/111/111 115/115/115 113/113/113
f 116/116/116 114/114/114 112/112/112
f 113/113/113 115/115/115 116/116/116
f 115/115/115 114/114/114 116/116/116
