g Boss_Color_153
v -10.93379 -20.70403 -5.147676
v -12.78994 -24.01887 -5.158452
v -10.45766 -21.12156 -4.384103
v -10.45766 -21.12156 -4.384103
v -12.78994 -24.01887 -5.158452
v -11.19762 -20.85764 -3.778382
v -11.19762 -20.85764 -3.778382
v -12.78994 -24.01887 -5.158452
v -11.67375 -20.44011 -4.541955
v -11.67375 -20.44011 -4.541955
v -12.78994 -24.01887 -5.158452
v -10.93379 -20.70403 -5.147676
v -10.66639 -20.13322 -4.743524
v -10.45766 -21.12156 -4.384103
v -10.38146 -20.38309 -4.286583
v -10.93379 -20.70403 -5.147676
v -11.67375 -20.44011 -4.541955
v -11.1092 -19.97529 -4.381045
v -3.951596 -11.70684 -3.663368
v -10.82427 -20.22515 -3.924105
v -11.1092 -19.97529 -4.381045
v -4.24115 -11.37018 -4.03893
v -3.466486 -2.686375 -0.211062
v -3.518924 -11.78387 -4.05309
v -3.760663 -2.262908 -0.5052477
v -3.808479 -11.44721 -4.428653
v -3.338132 -2.259054 -0.9222146
v -3.043953 -2.682516 -0.6280303
v -10.66639 -20.13322 -4.743524
v -4.24115 -11.37018 -4.03893
v -11.1092 -19.97529 -4.381045
v -10.38146 -20.38309 -4.286583
v -3.951596 -11.70684 -3.663368
v -10.82427 -20.22515 -3.924105
v -11.19762 -20.85764 -3.778382
v -10.38146 -20.38309 -4.286583
v -10.45766 -21.12156 -4.384103
v -10.82427 -20.22515 -3.924105
v -11.1092 -19.97529 -4.381045
v -11.67375 -20.44011 -4.541955
vt 0.05798172 0.01477811
vt 0.05906846 0.01477811
vt 0.0601552 0.01477811
vt 0.0601552 0.01477811
vt 0.05906846 0.01477811
vt 0.0601552 0.01477811
vt 0.0601552 0.01477811
vt 0.05906846 0.01477811
vt 0.05798172 0.01477811
vt 0.05798172 0.01477811
vt 0.05906846 0.01477811
vt 0.05798172 0.01477811
vt 0.01207 0.0109965
vt 0.0140965 0.01126515
vt 0.01394952 0.0109965
vt 0.01192302 0.01126515
vt 0.01192302 0.01126515
vt 0.01207 0.0109965
vt 0.03697887 0.009449779
vt 0.03697887 0.009825516
vt 0.03509935 0.009825516
vt 0.03509935 0.009449779
vt 0.03697887 0.009074042
vt 0.03697887 0.009449779
vt 0.03509935 0.009074042
vt 0.03509935 0.009449779
vt 0.03509935 0.009074042
vt 0.03697887 0.009074042
vt 0.03509935 0.009825516
vt 0.03509935 0.009449779
vt 0.03509935 0.009825516
vt 0.03697887 0.009825516
vt 0.03697887 0.009449779
vt 0.03697887 0.009825516
vt 0.0140965 0.01126515
vt 0.01394952 0.0109965
vt 0.0140965 0.01126515
vt 0.01394952 0.0109965
vt 0.01207 0.0109965
vt 0.01192302 0.01126515
vn 0.6786046 -0.3779376 -0.6298087
vn 0.6786047 -0.3779376 -0.6298087
vn 0.6786047 -0.3779376 -0.6298087
vn 0.4149809 -0.5314258 0.7384967
vn 0.4149809 -0.5314258 0.7384968
vn 0.4149809 -0.5314258 0.7384968
vn -0.8002248 0.1495399 0.5807565
vn -0.8002247 0.1495399 0.5807565
vn -0.8002248 0.1495399 0.5807565
vn -0.5365987 0.3030287 -0.7875503
vn -0.5365987 0.3030287 -0.7875503
vn -0.5365987 0.3030287 -0.7875503
vn 0.3479585 0.4276889 -0.8342704
vn 0.9768724 -0.1238189 0.1743246
vn 0.9768733 -0.1238184 0.1743203
vn 0.347956 0.4276903 -0.8342707
vn -0.629428 0.7763066 -0.03418232
vn -0.629427 0.7763072 -0.0341876
vn 0.03854005 -0.1879679 0.9814187
vn -0.1002911 0.0484749 0.9937766
vn -0.7803396 0.6225194 0.0594941
vn -0.9236633 0.3523586 -0.1506304
vn -0.353385 -0.3177429 0.8798628
vn 0.9232131 -0.383462 -0.02519028
vn -0.9705565 0.1291399 -0.20333
vn 0.2370381 0.1502965 -0.9598041
vn -0.1210244 0.3605917 -0.9248387
vn 0.9960474 -0.07196077 0.05206938
vn -0.01190078 0.04458112 -0.9989349
vn -0.9236633 0.3523586 -0.1506304
vn -0.7803396 0.6225194 0.0594941
vn 0.7761854 -0.6213309 0.1071636
vn 0.03854005 -0.1879679 0.9814187
vn -0.1002911 0.0484749 0.9937766
vn -0.0005145256 0.2248018 0.9744043
vn 0.9768733 -0.1238184 0.1743203
vn 0.9768724 -0.1238189 0.1743246
vn -0.0005105334 0.2247996 0.9744049
vn -0.629427 0.7763072 -0.0341876
vn -0.629428 0.7763066 -0.03418232
g Boss_Color_153_0
f 3/3/3 2/2/2 1/1/1
f 6/6/6 5/5/5 4/4/4
f 9/9/9 8/8/8 7/7/7
f 12/12/12 11/11/11 10/10/10
f 15/15/15 14/14/14 13/13/13
f 14/14/14 16/16/16 13/13/13
f 13/13/13 16/16/16 17/17/17
f 18/18/18 13/13/13 17/17/17
f 21/21/21 20/20/20 19/19/19
f 22/22/22 21/21/21 19/19/19
f 22/22/22 19/19/19 23/23/23
f 23/23/23 19/19/19 24/24/24
f 25/25/25 22/22/22 23/23/23
f 26/26/26 22/22/22 25/25/25
f 27/27/27 26/26/26 25/25/25
f 28/28/28 23/23/23 24/24/24
f 27/27/27 28/28/28 26/26/26
f 28/28/28 24/24/24 26/26/26
f 26/26/26 24/24/24 29/29/29
f 26/26/26 29/29/29 30/30/30
f 29/29/29 31/31/31 30/30/30
f 24/24/24 32/32/32 29/29/29
f 24/24/24 33/33/33 32/32/32
f 33/33/33 34/34/34 32/32/32
f 37/37/37 36/36/36 35/35/35
f 36/36/36 38/38/38 35/35/35
f 38/38/38 39/39/39 35/35/35
f 39/39/39 40/40/40 35/35/35
