g Boss_Color_069
v -8.730653 -23.40645 11.45292
v -8.852419 -16.23251 4.954619
v 1.952881 -11.13114 11.45297
v -8.730666 -10.84576 0.157712
v 1.952881 -10.84579 11.04669
v -8.730666 -10.84576 0.157712
v 1.952876 -10.84575 0.1577162
v 1.952881 -10.84579 11.04669
v 2.318148 5.214472 -0.2485145
v 1.952857 5.214473 0.157766
v 2.318148 5.499825 0.1577673
v 2.318138 16.3432 11.04677
v 1.95285 16.3432 11.45306
v 1.952848 16.62856 11.04678
v 1.952858 5.214435 11.04674
v 1.952858 5.499786 11.45302
v 2.318148 5.499788 11.04674
v -9.095969 5.499776 11.04674
v -8.730678 5.499775 11.45302
v -8.730679 5.214423 11.04674
v 2.318171 -11.13114 11.04669
v 1.952881 -11.13114 11.45297
v 1.952881 -10.84579 11.04669
v -8.730653 -23.40645 11.45292
v -9.095942 -23.40645 11.04664
v -8.852419 -16.23251 4.954619
v -8.852419 -16.23251 4.954619
v 1.952881 -10.84579 11.04669
v 1.952881 -11.13114 11.45297
v -9.095955 -11.0851 -0.06352553
v -8.730666 -10.84576 0.157712
v -8.852419 -16.23251 4.954619
v 1.952848 16.62856 11.04678
v -5.629548 16.62855 11.04677
v -8.835299 16.62855 5.75135
v -9.095945 -23.40639 -7.4451
v -9.095955 -11.0851 -0.06352553
v -8.852419 -16.23251 4.954619
v -9.095995 16.62859 -7.444963
v -9.09597 5.446645 -0.07841916
v -9.095945 -23.40639 -7.4451
v -9.095995 16.62859 -7.444963
v -8.835299 16.62855 5.75135
v -9.095984 16.42764 5.425982
v -8.730682 12.25324 11.45304
v -7.921414 14.96278 9.217271
v -5.601885 16.34319 11.45305
v -5.601885 16.34319 11.45305
v -7.921414 14.96278 9.217271
v -5.629548 16.62855 11.04677
v -5.629548 16.62855 11.04677
v -7.921414 14.96278 9.217271
v -8.835299 16.62855 5.75135
v -8.835299 16.62855 5.75135
v -7.921414 14.96278 9.217271
v -9.095984 16.42764 5.425982
v -9.095984 16.42764 5.425982
v -7.921414 14.96278 9.217271
v -9.095976 12.09725 10.89812
v -9.095976 12.09725 10.89812
v -7.921414 14.96278 9.217271
v -8.730682 12.25324 11.45304
v -8.730653 -23.40645 11.45292
v 1.952881 -11.13114 11.45297
v 1.952891 -23.40644 11.45293
v -9.095945 -23.40639 -7.4451
v -8.852419 -16.23251 4.954619
v -9.095942 -23.40645 11.04664
v 2.318148 5.499825 0.1577673
v 2.318138 16.34324 0.1578042
v 15.87375 16.34326 0.1578075
v 15.87375 5.499841 0.1577706
v -9.095995 16.62859 -7.444963
v -9.095999 16.62861 -11.45294
v 15.87375 16.62865 -11.45293
v 15.87375 16.62864 -7.44497
v 2.318153 5.214509 -11.45297
v 2.318181 -23.40636 -11.45306
v 2.318182 -23.40637 -7.445103
v 2.318151 5.214496 -7.445005
v 15.87376 5.214516 -7.445009
v 15.87376 5.214529 -11.45297
v 2.318153 5.214509 -11.45297
v 2.318151 5.214496 -7.445005
v 1.952876 -10.84575 0.1577162
v -8.730666 -10.84576 0.157712
v -8.73068 5.214458 0.1577637
v 1.952857 5.214473 0.157766
v -9.095945 -23.40639 -7.4451
v -9.095945 -23.40637 -11.45306
v -9.095999 16.62861 -11.45294
v -9.095995 16.62859 -7.444963
v 2.318138 16.34324 0.1578042
v 2.318148 5.499825 0.1577673
v 2.318148 5.499788 11.04674
v 2.318138 16.3432 11.04677
v 1.952857 5.214473 0.157766
v -8.73068 5.214458 0.1577637
v -8.730679 5.214423 11.04674
v 1.952858 5.214435 11.04674
v -9.095969 5.499776 11.04674
v -9.09597 5.446645 -0.07841916
v -9.095995 16.62859 -7.444963
v -9.095976 12.09725 10.89812
v -9.095984 16.42764 5.425982
v 2.318167 -11.08508 -0.06352133
v 2.318183 -23.40643 11.04665
v 2.318171 -11.13114 11.04669
v 2.318182 -23.40637 -7.445103
v 2.318151 5.214496 -7.445005
v 2.318148 5.214472 -0.2485145
v 2.318138 16.34324 0.1578042
v 1.944423 16.6286 -0.2223491
v 15.87375 16.62861 -0.2484726
v 15.87375 16.34326 0.1578075
v 1.952857 5.214473 0.157766
v 2.318148 5.214472 -0.2485145
v 2.318167 -11.08508 -0.06352133
v 1.952876 -10.84575 0.1577162
v 15.87375 5.499841 0.1577706
v 15.87376 5.21449 -0.2485112
v 2.318148 5.214472 -0.2485145
v 2.318148 5.499825 0.1577673
v -8.730666 -10.84576 0.157712
v -9.095955 -11.0851 -0.06352553
v -9.09597 5.446645 -0.07841916
v -8.73068 5.214458 0.1577637
v 1.95285 16.3432 11.45306
v 2.318138 16.3432 11.04677
v 2.318148 5.499788 11.04674
v 1.952858 5.499786 11.45302
v 1.952858 5.499786 11.45302
v 1.952858 5.214435 11.04674
v -8.730679 5.214423 11.04674
v -8.730678 5.499775 11.45302
v -8.730678 5.499775 11.45302
v -9.095969 5.499776 11.04674
v -9.095976 12.09725 10.89812
v -8.730682 12.25324 11.45304
v 1.944423 16.6286 -0.2223491
v 2.318138 16.34324 0.1578042
v 2.318138 16.3432 11.04677
v 1.952848 16.62856 11.04678
v 2.318148 5.499825 0.1577673
v 1.952857 5.214473 0.157766
v 1.952858 5.214435 11.04674
v 2.318148 5.499788 11.04674
v -8.73068 5.214458 0.1577637
v -9.09597 5.446645 -0.07841916
v -9.095969 5.499776 11.04674
v -8.730679 5.214423 11.04674
v 1.952881 -11.13114 11.45297
v 2.318171 -11.13114 11.04669
v 2.318183 -23.40643 11.04665
v 1.952891 -23.40644 11.45293
v 1.952876 -10.84575 0.1577162
v 2.318167 -11.08508 -0.06352133
v 2.318171 -11.13114 11.04669
v 1.952881 -10.84579 11.04669
v 15.87375 16.62864 -7.44497
v 15.87375 16.62861 -0.2484726
v 1.944423 16.6286 -0.2223491
v -9.095995 16.62859 -7.444963
v 15.87376 5.214516 -7.445009
v 2.318151 5.214496 -7.445005
v 2.318148 5.214472 -0.2485145
v 15.87376 5.21449 -0.2485112
v -8.835299 16.62855 5.75135
v -9.095995 16.62859 -7.444963
v 1.944423 16.6286 -0.2223491
v 1.952848 16.62856 11.04678
v 1.95285 16.3432 11.45306
v 1.952858 5.499786 11.45302
v -8.730678 5.499775 11.45302
v -5.601885 16.34319 11.45305
v -8.730682 12.25324 11.45304
v 1.95285 16.3432 11.45306
v -5.601885 16.34319 11.45305
v -5.629548 16.62855 11.04677
v 1.952848 16.62856 11.04678
vt 0.7682423 0.01975773
vt 0.7682423 0.01997989
vt 0.7680562 0.01997989
vt 0.7684335 0.02009733
vt 0.7680562 0.01980094
vt 0.7960883 0.03631438
vt 0.7957551 0.03635759
vt 0.795711 0.03601799
vt 0.8168807 0.04054261
vt 0.8168926 0.04054261
vt 0.8168807 0.04054975
vt 0.8168807 0.04082139
vt 0.8168926 0.04082139
vt 0.8168926 0.04082854
vt 0.8168926 0.04054261
vt 0.8168926 0.04054975
vt 0.8168807 0.04054975
vt 0.8172525 0.04054975
vt 0.8172405 0.04054975
vt 0.8172405 0.04054261
vt 0.8168807 0.04013314
vt 0.8168926 0.04013314
vt 0.8168926 0.04014029
vt 0.8172405 0.03982564
vt 0.8172525 0.03982564
vt 0.8172445 0.04013553
vt 0.7684081 0.01976011
vt 0.7680562 0.01976488
vt 0.7680562 0.01975773
vt 0.8172525 0.04013429
vt 0.8172405 0.04014029
vt 0.8172445 0.04013553
vt 0.7933972 0.03709322
vt 0.7935293 0.03709322
vt 0.7935655 0.03709321
vt 0.7935897 0.03644713
vt 0.7935897 0.03659165
vt 0.7935897 0.03659082
vt 0.793521 0.03709322
vt 0.7935897 0.03689085
vt 0.7935897 0.03644713
vt 0.8171241 0.04082854
vt 0.8172072 0.04082854
vt 0.8172144 0.0408235
vt 0.7681102 0.01976055
vt 0.7680976 0.01981369
vt 0.7680858 0.01983457
vt 0.7680858 0.01983457
vt 0.7680976 0.01981369
vt 0.7680562 0.01983973
vt 0.7680562 0.01983973
vt 0.7680976 0.01981369
vt 0.7681209 0.01985348
vt 0.7681209 0.01985348
vt 0.7680976 0.01981369
vt 0.7680962 0.0198361
vt 0.7680962 0.0198361
vt 0.7680976 0.01981369
vt 0.7681165 0.01975773
vt 0.7681165 0.01975773
vt 0.7680976 0.01981369
vt 0.7681102 0.01976055
vt 0.7935833 0.03636866
vt 0.7933972 0.03659082
vt 0.7933972 0.03636866
vt 0.7935897 0.03644713
vt 0.7935897 0.03659082
vt 0.7935897 0.03636866
vt 0.7687194 0.04204911
vt 0.7687194 0.04224536
vt 0.7684833 0.04224536
vt 0.7684833 0.04204911
vt 0.5529684 0.03645821
vt 0.5532779 0.0364582
vt 0.5513165 0.03645821
vt 0.5513165 0.03645821
vt 0.5523813 0.03552653
vt 0.5523813 0.03319035
vt 0.5523813 0.03354427
vt 0.5523813 0.03552653
vt 0.5510195 0.03577038
vt 0.5510195 0.03577038
vt 0.5520843 0.03577038
vt 0.5520843 0.03577038
vt 0.7687258 0.04175329
vt 0.7689119 0.04175329
vt 0.7689119 0.04204395
vt 0.7687258 0.04204395
vt 0.5532779 0.03354427
vt 0.5532779 0.03319035
vt 0.5532779 0.0364582
vt 0.5529684 0.03645821
vt 0.7952856 0.03718054
vt 0.7953101 0.0368404
vt 0.7956516 0.03686504
vt 0.7956271 0.03720516
vt 0.795711 0.03665002
vt 0.7960442 0.03660678
vt 0.7960883 0.03694637
vt 0.7957551 0.03698963
vt 0.7935897 0.03689181
vt 0.7935897 0.03689085
vt 0.793521 0.03709322
vt 0.7935897 0.03701121
vt 0.7935693 0.03708958
vt 0.7933909 0.03659165
vt 0.7933909 0.03636866
vt 0.7933909 0.03659082
vt 0.7933909 0.03644713
vt 0.7933909 0.03688665
vt 0.7933909 0.03688665
vt 0.8168807 0.04082139
vt 0.8168929 0.04082854
vt 0.8164393 0.04082854
vt 0.8164393 0.04082139
vt 0.8168926 0.04054261
vt 0.8168807 0.04054261
vt 0.8168807 0.04013429
vt 0.8168926 0.04014029
vt 0.8164393 0.04054975
vt 0.8164393 0.04054261
vt 0.8168807 0.04054261
vt 0.8168807 0.04054975
vt 0.8172405 0.04014029
vt 0.8172525 0.04013429
vt 0.8172525 0.04054842
vt 0.8172405 0.04054261
vt 0.8168926 0.04082139
vt 0.8168807 0.04082139
vt 0.8168807 0.04054975
vt 0.8168926 0.04054975
vt 0.8168926 0.04054975
vt 0.8168926 0.04054261
vt 0.8172405 0.04054261
vt 0.8172405 0.04054975
vt 0.8172405 0.04054975
vt 0.8172525 0.04054975
vt 0.8172525 0.04071502
vt 0.8172405 0.04071893
vt 0.8168929 0.04082854
vt 0.8168807 0.04082139
vt 0.8168807 0.04082139
vt 0.8168926 0.04082854
vt 0.8168807 0.04054975
vt 0.8168926 0.04054261
vt 0.8168926 0.04054261
vt 0.8168807 0.04054975
vt 0.8172405 0.04054261
vt 0.8172525 0.04054842
vt 0.8172525 0.04054975
vt 0.8172405 0.04054261
vt 0.8168926 0.04013314
vt 0.8168807 0.04013314
vt 0.8168807 0.03982564
vt 0.8168926 0.03982564
vt 0.8168926 0.04014029
vt 0.8168807 0.04013429
vt 0.8168807 0.04013314
vt 0.8168926 0.04014029
vt 0.7931548 0.03709322
vt 0.7931548 0.03709322
vt 0.7933974 0.03709322
vt 0.793521 0.03709322
vt 0.7931548 0.03688665
vt 0.7933909 0.03688665
vt 0.7933909 0.03688665
vt 0.7931548 0.03688665
vt 0.7935655 0.03709321
vt 0.793521 0.03709322
vt 0.7933974 0.03709322
vt 0.7933972 0.03709322
vt 0.7933972 0.03708806
vt 0.7933972 0.03689181
vt 0.7935833 0.03689181
vt 0.7935288 0.03708806
vt 0.7935833 0.03701403
vt 0.8168926 0.04082139
vt 0.8171387 0.04082139
vt 0.8171395 0.04082854
vt 0.8168926 0.04082854
vn -0.3640229 0.3168155 0.8758512
vn -0.6066757 0.5280041 0.5942696
vn -0.3194784 0.2780472 0.9058826
vn -0.6012768 0.5389281 0.5899344
vn -0.6012768 0.5389281 0.5899344
vn 0 1 0
vn 0 1 0
vn 0 1 0
vn 0.5386013 -0.6894903 0.4842644
vn 0.5386013 -0.6894903 0.4842644
vn 0.5386013 -0.6894902 0.4842644
vn 0.5386091 0.689481 0.4842688
vn 0.5386091 0.6894809 0.4842688
vn 0.5386091 0.6894809 0.4842688
vn 0.5386061 -0.6894873 0.4842629
vn 0.5386061 -0.6894873 0.4842629
vn 0.5386061 -0.6894873 0.4842629
vn -0.5386052 -0.6894874 0.4842639
vn -0.5386052 -0.6894874 0.4842639
vn -0.5386052 -0.6894874 0.4842639
vn 0.5386012 0.6894869 0.4842693
vn 0.5386012 0.6894868 0.4842693
vn 0.5386012 0.6894868 0.4842693
vn -0.6396132 0.5100688 0.5750868
vn -0.6396132 0.5100687 0.5750868
vn -0.6396132 0.5100688 0.5750868
vn -0.5906675 0.6603169 0.4637818
vn -0.5906675 0.6603168 0.4637818
vn -0.5906675 0.6603169 0.4637818
vn -0.66451 0.505289 0.550554
vn -0.66451 0.505289 0.550554
vn -0.66451 0.505289 0.550554
vn 0 1 0
vn 0 1 0
vn 0 1 0
vn -0.9993867 -0.01799756 0.03004016
vn -1 0 0
vn -0.9993867 -0.01799756 0.03004016
vn -1 0 0
vn -1 0 0
vn -1 0 0
vn -0.6199402 0.7845535 0.01224918
vn -0.6199402 0.7845535 0.01224918
vn -0.6199402 0.7845535 0.01224918
vn -0.7246001 0.5543153 0.4094988
vn -0.7246001 0.5543153 0.4094988
vn -0.7246001 0.5543153 0.4094988
vn -0.7292275 0.5356141 0.4258459
vn -0.7292275 0.5356141 0.4258458
vn -0.7292275 0.5356141 0.4258458
vn -0.7308866 0.5196429 0.442466
vn -0.7308865 0.5196429 0.442466
vn -0.7308866 0.5196429 0.442466
vn -0.8196294 0.4012119 0.408946
vn -0.8196293 0.4012119 0.4089459
vn -0.8196293 0.4012119 0.4089459
vn -0.7158022 0.5475844 0.4333343
vn -0.7158022 0.5475844 0.4333343
vn -0.7158022 0.5475844 0.4333343
vn -0.7705339 0.5265402 0.3592115
vn -0.7705339 0.5265401 0.3592115
vn -0.7705339 0.5265401 0.3592115
vn -0.3640229 0.3168155 0.8758512
vn -0.3194784 0.2780472 0.9058826
vn 0 0 1
vn -0.9994243 0.03392618 0
vn -0.9994243 0.03392617 0
vn -0.9994243 0.03392618 0
vn 0 0 1
vn 0 0 1
vn 0 0 1
vn 0 0 1
vn 0 1 0
vn 0 1 0
vn 0 1 0
vn 0 1 0
vn 1 0 0
vn 1 0 0
vn 1 0 0
vn 1 0 0
vn 0 -1 0
vn 0 -1 0
vn 0 -1 0
vn 0 -1 0
vn 0 0 1
vn 0 0 1
vn 0 0 1
vn 0 0 1
vn -1 0 0
vn -1 0 0
vn -1 0 0
vn -1 0 0
vn 1 0 0
vn 1 0 0
vn 1 0 0
vn 1 0 0
vn 0 -1 0
vn 0 -1 0
vn 0 -1 0
vn 0 -1 0
vn -1 0 0
vn -1 0 0
vn -1 0 0
vn -1 0 0
vn -1 0 0
vn 1 0 0
vn 1 0 0
vn 1 0 0
vn 1 0 0
vn 1 0 0
vn 1 0 0
vn 0.0005568262 0.8094704 0.5871604
vn 0.0005568262 0.8094704 0.5871605
vn 0.0005568262 0.8094704 0.5871605
vn 0.0005568262 0.8094704 0.5871604
vn 0.6523815 0.00433221 0.7578784
vn 0.6523815 0.00433221 0.7578784
vn 0.6523815 0.00433221 0.7578784
vn 0.6523814 0.00433221 0.7578784
vn 0 -0.8183277 0.5747519
vn 0 -0.8183277 0.574752
vn 0 -0.8183277 0.5747519
vn 0 -0.8183277 0.5747519
vn -0.5306758 0.0003855079 0.8475748
vn -0.5306758 0.0003855078 0.8475748
vn -0.5306758 0.0003855079 0.8475748
vn -0.5306758 0.0003855078 0.8475748
vn 0.7436246 0 0.6685974
vn 0.7436245 0 0.6685974
vn 0.7436246 0 0.6685974
vn 0.7436245 0 0.6685974
vn 0 -0.8183268 0.5747531
vn 0 -0.8183268 0.5747532
vn 0 -0.8183268 0.5747532
vn 0 -0.8183268 0.5747532
vn -0.79664 0.006726427 0.6044166
vn -0.79664 0.006726427 0.6044166
vn -0.79664 0.006726427 0.6044166
vn -0.79664 0.006726427 0.6044166
vn 0.6112932 0.7914042 -0.0002298385
vn 0.6112931 0.7914042 -0.0002298385
vn 0.6112932 0.7914042 -0.0002298385
vn 0.6112932 0.7914042 -0.0002298385
vn 0.6156026 -0.7880569 0
vn 0.6156026 -0.7880569 0
vn 0.6156026 -0.7880569 0
vn 0.6156026 -0.7880569 0
vn -0.578473 -0.8156991 0.001967467
vn -0.5784731 -0.8156991 0.001967468
vn -0.5784731 -0.8156991 0.001967468
vn -0.5784731 -0.8156991 0.001967468
vn 0.7436222 0 0.6685999
vn 0.7436222 0 0.6685999
vn 0.7436222 0 0.6685999
vn 0.7436222 0 0.6685999
vn 0.5836666 0.8119917 0.001701336
vn 0.5836666 0.8119917 0.001701336
vn 0.5836665 0.8119917 0.001701336
vn 0.5836666 0.8119917 0.001701336
vn 0 1 0
vn 0 1 0
vn 0 1 0
vn 0 1 0
vn 0 -1 0
vn 0 -1 0
vn 0 -1 0
vn 0 -1 0
vn 0 1 0
vn 0 1 0
vn 0 1 0
vn 0 1 0
vn 0 0 1
vn 0 0 1
vn 0 0 1
vn 0 0 1
vn 0 0 1
vn 0 0.8183213 0.5747611
vn 0 0.8183213 0.574761
vn 0 0.8183213 0.574761
vn 0 0.8183213 0.574761
g Boss_Color_069_0
f 3/3/3 2/2/2 1/1/1
f 2/2/2 5/5/5 4/4/4
f 8/8/8 7/7/7 6/6/6
f 11/11/11 10/10/10 9/9/9
f 14/14/14 13/13/13 12/12/12
f 17/17/17 16/16/16 15/15/15
f 20/20/20 19/19/19 18/18/18
f 23/23/23 22/22/22 21/21/21
f 26/26/26 25/25/25 24/24/24
f 29/29/29 28/28/28 27/27/27
f 32/32/32 31/31/31 30/30/30
f 35/35/35 34/34/34 33/33/33
f 38/38/38 37/37/37 36/36/36
f 37/37/37 40/40/40 39/39/39
f 41/41/41 37/37/37 39/39/39
f 44/44/44 43/43/43 42/42/42
f 47/47/47 46/46/46 45/45/45
f 50/50/50 49/49/49 48/48/48
f 53/53/53 52/52/52 51/51/51
f 56/56/56 55/55/55 54/54/54
f 59/59/59 58/58/58 57/57/57
f 62/62/62 61/61/61 60/60/60
f 65/65/65 64/64/64 63/63/63
f 68/68/68 67/67/67 66/66/66
f 71/71/71 70/70/70 69/69/69
f 72/72/72 71/71/71 69/69/69
f 75/75/75 74/74/74 73/73/73
f 76/76/76 75/75/75 73/73/73
f 79/79/79 78/78/78 77/77/77
f 80/80/80 79/79/79 77/77/77
f 83/83/83 82/82/82 81/81/81
f 84/84/84 83/83/83 81/81/81
f 87/87/87 86/86/86 85/85/85
f 88/88/88 87/87/87 85/85/85
f 91/91/91 90/90/90 89/89/89
f 92/92/92 91/91/91 89/89/89
f 95/95/95 94/94/94 93/93/93
f 96/96/96 95/95/95 93/93/93
f 99/99/99 98/98/98 97/97/97
f 100/100/100 99/99/99 97/97/97
f 103/103/103 102/102/102 101/101/101
f 101/101/101 104/104/104 103/103/103
f 104/104/104 105/105/105 103/103/103
f 108/108/108 107/107/107 106/106/106
f 107/107/107 109/109/109 106/106/106
f 106/106/106 109/109/109 110/110/110
f 111/111/111 106/106/106 110/110/110
f 114/114/114 113/113/113 112/112/112
f 115/115/115 114/114/114 112/112/112
f 118/118/118 117/117/117 116/116/116
f 119/119/119 118/118/118 116/116/116
f 122/122/122 121/121/121 120/120/120
f 123/123/123 122/122/122 120/120/120
f 126/126/126 125/125/125 124/124/124
f 127/127/127 126/126/126 124/124/124
f 130/130/130 129/129/129 128/128/128
f 131/131/131 130/130/130 128/128/128
f 134/134/134 133/133/133 132/132/132
f 135/135/135 134/134/134 132/132/132
f 138/138/138 137/137/137 136/136/136
f 139/139/139 138/138/138 136/136/136
f 142/142/142 141/141/141 140/140/140
f 143/143/143 142/142/142 140/140/140
f 146/146/146 145/145/145 144/144/144
f 147/147/147 146/146/146 144/144/144
f 150/150/150 149/149/149 148/148/148
f 151/151/151 150/150/150 148/148/148
f 154/154/154 153/153/153 152/152/152
f 155/155/155 154/154/154 152/152/152
f 158/158/158 157/157/157 156/156/156
f 159/159/159 158/158/158 156/156/156
f 162/162/162 161/161/161 160/160/160
f 163/163/163 162/162/162 160/160/160
f 166/166/166 165/165/165 164/164/164
f 167/167/167 166/166/166 164/164/164
f 170/170/170 169/169/169 168/168/168
f 168/168/168 171/171/171 170/170/170
f 174/174/174 173/173/173 172/172/172
f 172/172/172 175/175/175 174/174/174
f 175/175/175 176/176/176 174/174/174
f 179/179/179 178/178/178 177/177/177
f 180/180/180 179/179/179 177/177/177
