g Boss_Color_111
v -7.095454 -6.85065 4.346164
v -8.674713 -9.824712 -7.376051
v -10.53373 -4.474363 -7.501185
v -10.45896 3.520575 -4.682397
v -11.14334 2.960992 -7.36924
v -8.103666 5.446378 4.564384
v -9.69533 7.813953 -4.339173
v -8.432407 8.391415 -2.230891
v -7.490934 6.175373 4.681527
v -8.670906 8.952795 -3.981979
v -7.095454 -6.85065 4.346164
v -7.351671 -10.96413 -7.205738
v -8.674713 -9.824712 -7.376051
v -6.371861 -7.473812 4.439311
v -1.481863 -11.93645 -6.325803
v 5.157332 -11.41065 -5.281034
v 5.781292 -6.511333 6.351776
v 10.79298 -9.527156 -4.350427
v 11.91333 -8.194239 -4.13624
v 6.394023 -5.78234 6.468917
v -7.490934 6.175373 4.681527
v -8.432407 8.391415 -2.230891
v -4.824686 9.830864 -2.259151
v 4.662218 7.13785 6.593992
v -4.824686 9.830864 -2.259151
v -3.423972 11.75128 -5.905438
v 3.215222 12.27707 -4.86067
v 9.085026 11.30475 -3.980742
v 5.385811 6.514688 6.687139
v 10.40807 10.16534 -3.810428
v 5.385811 6.514688 6.687139
v 10.40807 10.16534 -3.810428
v 12.26709 4.814984 -3.68529
v 12.8767 -2.620369 -3.817235
v 6.394023 -5.78234 6.468917
v 11.91333 -8.194239 -4.13624
v -7.095454 -6.85065 4.346164
v -5.518788 -5.598924 5.414007
v -6.371861 -7.473812 4.439311
v 4.394016 -4.81387 6.973923
v 5.781292 -6.511333 6.351776
v 6.394023 -5.78234 6.468917
v -8.103666 5.446378 4.564384
v -5.518788 -5.598924 5.414007
v -7.095454 -6.85065 4.346164
v -6.341143 4.431241 5.592001
v -7.490934 6.175373 4.681527
v 5.385811 6.514688 6.687139
v 6.394023 -5.78234 6.468917
v 4.394016 -4.81387 6.973923
v 3.571661 5.216293 7.151916
v -7.490934 6.175373 4.681527
v 3.571661 5.216293 7.151916
v -6.341143 4.431241 5.592001
v 4.662218 7.13785 6.593992
v 5.385811 6.514688 6.687139
v -13.59762 7.220401 -7.579429
v -12.30792 10.21395 -9.586282
v -12.17564 10.49737 -8.364497
v -13.69518 7.215423 -8.836717
v -11.72737 2.927454 -6.956805
v -11.88596 3.048598 -8.188555
v -11.11423 -4.550928 -7.089514
v -11.25453 -4.652792 -8.325222
v -9.175766 -10.06012 -6.956904
v -9.255759 -10.321 -8.188105
v -7.569133 -11.44163 -6.750017
v -7.63439 -11.71568 -7.979336
v -1.539021 -12.46616 -5.846837
v -1.427507 -12.77466 -7.049815
v 5.146219 -11.93671 -4.794822
v 5.456024 -12.22951 -5.966596
v 10.9316 -9.97646 -3.838674
v 11.41028 -10.20743 -4.982398
v 12.29243 -8.359947 -3.578588
v 12.78351 -8.575593 -4.719923
v 13.30835 -2.616776 -3.246289
v 13.83306 -2.665974 -4.377347
v 12.69521 4.861608 -3.11358
v 13.20163 5.035414 -4.240679
v 10.75675 10.3708 -3.246191
v 11.20286 10.70363 -4.377796
v 9.150111 11.75231 -3.453079
v 9.581489 12.0983 -4.586566
v 3.362119 12.91473 -5.297446
v 3.616726 13.29518 -6.457273
v -3.238305 14.73765 -7.355611
v -2.479119 15.36424 -8.120978
v -12.38328 7.340851 -7.276512
v -12.17564 10.49737 -8.364497
v -11.06897 10.04966 -7.971303
v -13.59762 7.220401 -7.579429
v -10.5855 2.735238 -6.785724
v -11.72737 2.927454 -6.956805
v -10.0184 -4.181499 -6.908465
v -11.11423 -4.550928 -7.089514
v -8.257147 -9.218207 -6.788925
v -9.175766 -10.06012 -6.956904
v -6.898374 -10.38742 -6.613979
v -7.569133 -11.44163 -6.750017
v -1.379056 -11.31359 -5.786952
v -1.539021 -12.46616 -5.846837
v 4.80054 -10.82418 -4.814507
v 5.146219 -11.93671 -4.794822
v 10.09775 -9.041416 -3.939407
v 10.9316 -9.97646 -3.838674
v 11.2485 -7.673457 -3.719444
v 12.29243 -8.359947 -3.578588
v 12.16648 -2.424561 -3.41737
v 13.30835 -2.616776 -3.246289
v 11.59939 4.492177 -3.294628
v 12.69521 4.861608 -3.11358
v 9.838125 9.52889 -3.414169
v 10.75675 10.3708 -3.246191
v 8.479351 10.69811 -3.589113
v 9.150111 11.75231 -3.453079
v 3.202153 11.76216 -5.357328
v 3.362119 12.91473 -5.297446
v -2.93066 13.6165 -7.432929
v -3.238305 14.73765 -7.355611
vt 0.5768581 0.03464518
vt 0.5778428 0.03352248
vt 0.5760685 0.03307609
vt 0.5734754 0.03342937
vt 0.5736531 0.03307609
vt 0.5728635 0.03464518
vt 0.5721086 0.03378453
vt 0.5719437 0.03428781
vt 0.5726439 0.03485654
vt 0.5717663 0.03414374
vt 0.5768581 0.03464518
vt 0.5782444 0.03390892
vt 0.5778428 0.03352248
vt 0.5770777 0.03485654
vt 0.5787082 0.03572863
vt 0.5787082 0.03782874
vt 0.5770777 0.03870083
vt 0.5782444 0.03964844
vt 0.5778428 0.04003489
vt 0.5768581 0.03891218
vt 0.5726439 0.03485654
vt 0.5719437 0.03428781
vt 0.5715749 0.03542827
vt 0.5726439 0.03870083
vt 0.5715749 0.03542827
vt 0.5710133 0.03572863
vt 0.5710133 0.03782874
vt 0.5714772 0.03964844
vt 0.5728635 0.03891218
vt 0.5718788 0.04003489
vt 0.5728635 0.03891218
vt 0.5718788 0.04003489
vt 0.5736531 0.04048128
vt 0.5760685 0.04048128
vt 0.5768581 0.03891218
vt 0.5778428 0.04003489
vt 0.5307099 0.009269364
vt 0.5299745 0.01039919
vt 0.5311486 0.009691499
vt 0.5299745 0.01666186
vt 0.5311486 0.01736956
vt 0.5307099 0.0177917
vt 0.5227315 0.009269357
vt 0.5299745 0.01039919
vt 0.5307099 0.009269364
vt 0.5234669 0.01039918
vt 0.5222929 0.009691484
vt 0.5227315 0.01779168
vt 0.5307099 0.0177917
vt 0.5299745 0.01666186
vt 0.5234669 0.01666186
vt 0.5222929 0.009691484
vt 0.5234669 0.01666186
vt 0.5234669 0.01039918
vt 0.5222929 0.01736956
vt 0.5227315 0.01779168
vt 0.5470929 0.03463151
vt 0.5466318 0.03493587
vt 0.5467062 0.03500419
vt 0.5470222 0.03455979
vt 0.5485442 0.03426048
vt 0.5485154 0.03417696
vt 0.5504732 0.03426048
vt 0.5505019 0.03417697
vt 0.5519243 0.03463151
vt 0.5519952 0.03455979
vt 0.5523111 0.03500419
vt 0.5523854 0.03493588
vt 0.552696 0.03648807
vt 0.5527828 0.03646316
vt 0.552696 0.03816722
vt 0.5527828 0.03819213
vt 0.5523111 0.0396511
vt 0.5523854 0.03971941
vt 0.5519243 0.04002378
vt 0.5519952 0.04009549
vt 0.5504732 0.04039481
vt 0.5505019 0.04047833
vt 0.5485442 0.04039481
vt 0.5485154 0.04047833
vt 0.5470929 0.04002378
vt 0.5470222 0.04009549
vt 0.5467062 0.0396511
vt 0.5466318 0.03971941
vt 0.5463213 0.03816722
vt 0.5462345 0.03819213
vt 0.5463213 0.03648806
vt 0.5462345 0.03646316
vt 0.5237511 0.03412671
vt 0.5232134 0.03424296
vt 0.5234497 0.03441701
vt 0.5235695 0.03389968
vt 0.524973 0.03381678
vt 0.5249063 0.03355792
vt 0.5266164 0.03381678
vt 0.5266832 0.03355792
vt 0.5278383 0.03412671
vt 0.5280199 0.03389969
vt 0.5281397 0.03441702
vt 0.5283761 0.03424296
vt 0.5284616 0.03566828
vt 0.5287306 0.03560979
vt 0.5284616 0.037098
vt 0.5287306 0.03715649
vt 0.5281397 0.03834926
vt 0.5283761 0.03852331
vt 0.5278383 0.03863956
vt 0.5280199 0.03886659
vt 0.5266164 0.0389495
vt 0.5266832 0.03920835
vt 0.524973 0.0389495
vt 0.5249063 0.03920835
vt 0.5237511 0.03863956
vt 0.5235695 0.03886659
vt 0.5234497 0.03834926
vt 0.5232134 0.03852331
vt 0.5231279 0.03709799
vt 0.5228587 0.03715649
vt 0.5231279 0.03566828
vt 0.5228587 0.03560978
vn -0.8593478 -0.4325482 0.2728067
vn -0.8049909 -0.5401172 0.2454853
vn -0.9534031 -0.1827774 0.240031
vn -0.9681544 -0.01565475 0.249864
vn -0.9613792 -0.08347552 0.2622633
vn -0.9175193 0.2769601 0.2853972
vn -0.8864825 0.3826613 0.2602287
vn -0.6372406 0.7044105 0.3126186
vn -0.4822978 0.7950827 0.3677395
vn -0.754864 0.587684 0.291218
vn -0.8593478 -0.4325482 0.2728067
vn -0.4487337 -0.844956 0.2910108
vn -0.8049909 -0.5401172 0.2454853
vn -0.3453321 -0.8754643 0.3380947
vn -0.07542259 -0.9327953 0.3524264
vn 0.1066016 -0.9183798 0.3810703
vn 0.3558294 -0.8199356 0.4484319
vn 0.4626907 -0.7727761 0.4344357
vn 0.7645677 -0.4158164 0.4924764
vn 0.7907873 -0.3018653 0.5324779
vn -0.4822978 0.7950827 0.3677395
vn -0.6372406 0.7044105 0.3126186
vn -0.1920984 0.8968102 0.3985345
vn 0.2188651 0.8506117 0.4780771
vn -0.1371211 0.8971769 0.419847
vn -0.137121 0.8971769 0.419847
vn -0.0432603 0.9094728 0.4135067
vn 0.3319392 0.8220046 0.4627364
vn 0.7326166 0.4076436 0.5450684
vn 0.6880773 0.5171417 0.5090326
vn 0.7326166 0.4076436 0.5450684
vn 0.6880773 0.5171417 0.5090326
vn 0.8344749 0.1594065 0.5274858
vn 0.8508149 -0.03989198 0.523949
vn 0.7907873 -0.3018653 0.5324779
vn 0.7645677 -0.4158164 0.4924764
vn -0.4408255 -0.1926308 0.8766791
vn -0.3345613 -0.2527832 0.9078377
vn -0.2564628 -0.3514057 0.9004115
vn 0.07613244 -0.220258 0.9724661
vn 0.02015378 -0.3294984 0.9439411
vn 0.1762701 -0.143759 0.9737875
vn -0.4637738 0.08726096 0.8816459
vn -0.3345613 -0.2527832 0.9078377
vn -0.4408255 -0.1926308 0.8766791
vn -0.3686325 0.1627779 0.9152122
vn -0.3076571 0.2730003 0.9114922
vn 0.1533219 0.1361324 0.9787545
vn 0.1762701 -0.143759 0.9737875
vn 0.07613244 -0.220258 0.9724661
vn 0.04206124 0.1953031 0.9798406
vn -0.3076571 0.2730003 0.9114922
vn 0.04206124 0.1953031 0.9798406
vn -0.3686325 0.1627779 0.9152122
vn -0.03104061 0.2949072 0.9550216
vn 0.1533219 0.1361324 0.9787545
vn -0.997431 -0.03279026 0.06368776
vn -0.9088285 0.4156215 0.03590952
vn -0.9088285 0.4156214 0.03590952
vn -0.9961959 0.064324 0.05878881
vn -0.9702534 -0.2197047 0.1016766
vn -0.9619004 -0.2557583 0.09661984
vn -0.9711393 -0.2024071 0.1261739
vn -0.9693066 -0.2107545 0.1265993
vn -0.8269123 -0.5365406 0.1683452
vn -0.8135192 -0.5556859 0.1714628
vn -0.4286988 -0.8765057 0.2189868
vn -0.4513642 -0.8653962 0.2176231
vn -0.07671174 -0.9676853 0.2402096
vn -0.0836998 -0.9673035 0.2394125
vn 0.1474279 -0.949934 0.275482
vn 0.1541797 -0.9484642 0.2768472
vn 0.4706948 -0.8052781 0.3605185
vn 0.4907047 -0.7907895 0.36587
vn 0.8081681 -0.4070516 0.4256446
vn 0.797571 -0.4280963 0.424987
vn 0.905255 -0.05380589 0.4214478
vn 0.9046851 -0.06234363 0.421495
vn 0.8856265 0.1856029 0.4256961
vn 0.8836743 0.1939264 0.4260426
vn 0.7323292 0.517955 0.4420595
vn 0.7184445 0.5370041 0.4421133
vn 0.3342593 0.8576062 0.3908738
vn 0.3335454 0.8579564 0.390715
vn 0.09922397 0.9072002 0.4088307
vn 0.1017308 0.8990437 0.4258771
vn 0.1134203 0.8545984 0.5067519
vn 0.1134203 0.8545984 0.506752
vn -0.2150129 0.1946593 0.9570147
vn -0.2280387 0.330653 0.9157876
vn -0.2280387 0.330653 0.9157876
vn -0.2137041 0.1829197 0.9596202
vn -0.1686264 -0.004114415 0.9856715
vn -0.1796847 0.01448506 0.9836175
vn -0.1530552 -0.03007747 0.9877599
vn -0.1530553 -0.03007752 0.9877599
vn -0.1530563 -0.03007751 0.9877596
vn -0.1530564 -0.03007744 0.9877596
vn -0.1530564 -0.03007809 0.9877596
vn -0.1530565 -0.03007793 0.9877596
vn -0.1530555 -0.03007894 0.9877598
vn -0.1530556 -0.03007894 0.9877598
vn -0.1530553 -0.03007885 0.9877598
vn -0.1530553 -0.03007883 0.9877598
vn -0.1530546 -0.03007805 0.9877599
vn -0.1530546 -0.03007792 0.9877599
vn -0.1530543 -0.03007756 0.98776
vn -0.1530543 -0.03007751 0.98776
vn -0.1530542 -0.0300774 0.98776
vn -0.1530543 -0.03007746 0.98776
vn -0.1530542 -0.03007727 0.98776
vn -0.1530543 -0.0300773 0.98776
vn -0.1530551 -0.03007676 0.9877599
vn -0.1530553 -0.03007662 0.9877599
vn -0.2349088 0.002134781 0.9720151
vn -0.222385 -0.002840681 0.9749547
vn -0.3162694 -0.02091057 0.948439
vn -0.3174983 -0.02658434 0.9478862
vn -0.3281739 -0.07811972 0.9413815
vn -0.3281739 -0.07811973 0.9413815
g Boss_Color_111_0
f 3/3/3 2/2/2 1/1/1
f 1/1/1 4/4/4 3/3/3
f 4/4/4 5/5/5 3/3/3
f 6/6/6 4/4/4 1/1/1
f 7/7/7 4/4/4 6/6/6
f 7/7/7 6/6/6 8/8/8
f 8/8/8 6/6/6 9/9/9
f 10/10/10 7/7/7 8/8/8
f 13/13/13 12/12/12 11/11/11
f 12/12/12 14/14/14 11/11/11
f 12/12/12 15/15/15 14/14/14
f 14/14/14 15/15/15 16/16/16
f 17/17/17 14/14/14 16/16/16
f 16/16/16 18/18/18 17/17/17
f 18/18/18 19/19/19 17/17/17
f 19/19/19 20/20/20 17/17/17
f 23/23/23 22/22/22 21/21/21
f 21/21/21 24/24/24 23/23/23
f 24/24/24 25/25/25 23/23/23
f 23/23/23 25/25/25 26/26/26
f 25/25/25 27/27/27 26/26/26
f 27/27/27 25/25/25 24/24/24
f 28/28/28 27/27/27 24/24/24
f 28/28/28 24/24/24 29/29/29
f 30/30/30 28/28/28 29/29/29
f 33/33/33 32/32/32 31/31/31
f 34/34/34 33/33/33 31/31/31
f 35/35/35 34/34/34 31/31/31
f 36/36/36 34/34/34 35/35/35
f 39/39/39 38/38/38 37/37/37
f 40/40/40 38/38/38 39/39/39
f 41/41/41 40/40/40 39/39/39
f 42/42/42 40/40/40 41/41/41
f 45/45/45 44/44/44 43/43/43
f 44/44/44 46/46/46 43/43/43
f 43/43/43 46/46/46 47/47/47
f 50/50/50 49/49/49 48/48/48
f 51/51/51 50/50/50 48/48/48
f 54/54/54 53/53/53 52/52/52
f 53/53/53 55/55/55 52/52/52
f 55/55/55 53/53/53 56/56/56
f 59/59/59 58/58/58 57/57/57
f 58/58/58 60/60/60 57/57/57
f 57/57/57 60/60/60 61/61/61
f 60/60/60 62/62/62 61/61/61
f 61/61/61 62/62/62 63/63/63
f 62/62/62 64/64/64 63/63/63
f 63/63/63 64/64/64 65/65/65
f 64/64/64 66/66/66 65/65/65
f 65/65/65 66/66/66 67/67/67
f 66/66/66 68/68/68 67/67/67
f 67/67/67 68/68/68 69/69/69
f 68/68/68 70/70/70 69/69/69
f 69/69/69 70/70/70 71/71/71
f 70/70/70 72/72/72 71/71/71
f 71/71/71 72/72/72 73/73/73
f 72/72/72 74/74/74 73/73/73
f 73/73/73 74/74/74 75/75/75
f 74/74/74 76/76/76 75/75/75
f 75/75/75 76/76/76 77/77/77
f 76/76/76 78/78/78 77/77/77
f 77/77/77 78/78/78 79/79/79
f 78/78/78 80/80/80 79/79/79
f 79/79/79 80/80/80 81/81/81
f 80/80/80 82/82/82 81/81/81
f 81/81/81 82/82/82 83/83/83
f 82/82/82 84/84/84 83/83/83
f 83/83/83 84/84/84 85/85/85
f 84/84/84 86/86/86 85/85/85
f 85/85/85 86/86/86 87/87/87
f 86/86/86 88/88/88 87/87/87
f 91/91/91 90/90/90 89/89/89
f 90/90/90 92/92/92 89/89/89
f 89/89/89 92/92/92 93/93/93
f 92/92/92 94/94/94 93/93/93
f 93/93/93 94/94/94 95/95/95
f 94/94/94 96/96/96 95/95/95
f 95/95/95 96/96/96 97/97/97
f 96/96/96 98/98/98 97/97/97
f 97/97/97 98/98/98 99/99/99
f 98/98/98 100/100/100 99/99/99
f 99/99/99 100/100/100 101/101/101
f 100/100/100 102/102/102 101/101/101
f 101/101/101 102/102/102 103/103/103
f 102/102/102 104/104/104 103/103/103
f 103/103/103 104/104/104 105/105/105
f 104/104/104 106/106/106 105/105/105
f 105/105/105 106/106/106 107/107/107
f 106/106/106 108/108/108 107/107/107
f 107/107/107 108/108/108 109/109/109
f 108/108/108 110/110/110 109/109/109
f 109/109/109 110/110/110 111/111/111
f 110/110/110 112/112/112 111/111/111
f 111/111/111 112/112/112 113/113/113
f 112/112/112 114/114/114 113/113/113
f 113/113/113 114/114/114 115/115/115
f 114/114/114 116/116/116 115/115/115
f 115/115/115 116/116/116 117/117/117
f 116/116/116 118/118/118 117/117/117
f 117/117/117 118/118/118 119/119/119
f 118/118/118 120/120/120 119/119/119
