g Boss_Color_06
v 4.054385 4.054406 -3.163842
v 1.48401 5.538399 3.163863
v 1.484002 5.538414 -3.163835
v 4.054393 4.05439 3.163856
v 5.538399 1.484025 -3.16385
v 5.538406 1.484008 3.163847
v 5.538402 -1.483998 -3.163858
v 5.538408 -1.484013 3.163839
v 4.054389 -4.054383 -3.163864
v 4.054397 -4.054399 3.163834
v 1.484008 -5.538394 -3.163865
v 1.484016 -5.538411 3.163833
v -1.484013 -5.538395 -3.163862
v -1.484005 -5.538411 3.163836
v 1.484002 5.538414 -3.163835
v 1.48401 5.538399 3.163863
v -1.484012 5.538396 3.163866
v -1.48402 5.538412 -3.163832
v -4.054393 4.054384 3.163865
v -4.0544 4.054399 -3.163833
v -5.538402 1.484001 3.163859
v -5.538409 1.484017 -3.163838
v -5.538399 -1.48402 3.163851
v -5.538406 -1.484004 -3.163846
v -4.054388 -4.054401 3.163843
v -4.054396 -4.054386 -3.163855
v -1.484005 -5.538411 3.163836
v -1.484013 -5.538395 -3.163862
v 5.538408 -1.484013 3.163839
v 3.637881E-06 -6.412799E-06 3.163849
v 5.538406 1.484008 3.163847
v 4.054397 -4.054399 3.163834
v 4.054393 4.05439 3.163856
v 1.484016 -5.538411 3.163833
v 1.48401 5.538399 3.163863
v -1.484005 -5.538411 3.163836
v -1.484012 5.538396 3.163866
v -4.054388 -4.054401 3.163843
v -4.054393 4.054384 3.163865
v -5.538399 -1.48402 3.163851
v -5.538402 1.484001 3.163859
vt 0.4610275 0.03309857
vt 0.4608175 0.03529083
vt 0.4608175 0.03309857
vt 0.4610275 0.03529083
vt 0.4616014 0.03309857
vt 0.4616014 0.03529083
vt 0.4623854 0.03309857
vt 0.4623854 0.03529083
vt 0.4631693 0.03309857
vt 0.4631693 0.03529083
vt 0.4637432 0.03309857
vt 0.4637432 0.03529083
vt 0.4639532 0.03309857
vt 0.4639532 0.03529083
vt 0.4608175 0.03309857
vt 0.4608175 0.03529083
vt 0.4610275 0.03529083
vt 0.4610275 0.03309857
vt 0.4616014 0.03529083
vt 0.4616014 0.03309857
vt 0.4623854 0.03529083
vt 0.4623854 0.03309857
vt 0.4631693 0.03529083
vt 0.4631693 0.03309857
vt 0.4637432 0.03529083
vt 0.4637432 0.03309857
vt 0.4639532 0.03529083
vt 0.4639532 0.03309857
vt 0.4623854 0.0164844
vt 0.4623854 0.01218501
vt 0.4599356 0.01589625
vt 0.4648351 0.01589625
vt 0.4581696 0.01431366
vt 0.4666011 0.01431366
vt 0.4575331 0.01218501
vt 0.4672377 0.01218501
vt 0.4581696 0.01005637
vt 0.4666011 0.01005637
vt 0.4599356 0.008473787
vt 0.4648351 0.008473787
vt 0.4623854 0.007885624
vn 0.7071062 0.7071074 0
vn 0.2588183 0.9659261 0
vn 0.2588183 0.9659261 0
vn 0.7071062 0.7071074 0
vn 0.9659256 0.2588199 0
vn 0.9659256 0.2588199 0
vn 0.9659259 -0.2588185 0
vn 0.9659259 -0.2588184 0
vn 0.7071069 -0.7071066 0
vn 0.707107 -0.7071065 0
vn 0.2588192 -0.9659257 0
vn 0.2588193 -0.9659257 0
vn -0.2588187 -0.9659258 0
vn -0.2588187 -0.9659258 0
vn 0.2588183 0.9659261 0
vn 0.2588183 0.9659261 0
vn -0.2588198 0.9659256 0
vn -0.2588198 0.9659256 0
vn -0.7071072 0.7071063 0
vn -0.7071072 0.7071063 0
vn -0.9659259 0.2588184 0
vn -0.9659261 0.2588183 0
vn -0.9659257 -0.2588195 0
vn -0.9659256 -0.2588196 0
vn -0.7071066 -0.7071069 0
vn -0.7071065 -0.7071069 0
vn -0.2588187 -0.9659258 0
vn -0.2588187 -0.9659258 0
vn 0 0 1
vn 0 0 1
vn 0 0 1
vn 0 0 1
vn 0 0 1
vn 0 0 1
vn 0 0 1
vn 0 0 1
vn 0 0 1
vn 0 0 1
vn 0 0 1
vn 0 0 1
vn 0 0 1
g Boss_Color_06_0
f 3/3/3 2/2/2 1/1/1
f 2/2/2 4/4/4 1/1/1
f 1/1/1 4/4/4 5/5/5
f 4/4/4 6/6/6 5/5/5
f 5/5/5 6/6/6 7/7/7
f 6/6/6 8/8/8 7/7/7
f 7/7/7 8/8/8 9/9/9
f 8/8/8 10/10/10 9/9/9
f 9/9/9 10/10/10 11/11/11
f 10/10/10 12/12/12 11/11/11
f 11/11/11 12/12/12 13/13/13
f 12/12/12 14/14/14 13/13/13
f 17/17/17 16/16/16 15/15/15
f 18/18/18 17/17/17 15/15/15
f 19/19/19 17/17/17 18/18/18
f 20/20/20 19/19/19 18/18/18
f 21/21/21 19/19/19 20/20/20
f 22/22/22 21/21/21 20/20/20
f 23/23/23 21/21/21 22/22/22
f 24/24/24 23/23/23 22/22/22
f 25/25/25 23/23/23 24/24/24
f 26/26/26 25/25/25 24/24/24
f 27/27/27 25/25/25 26/26/26
f 28/28/28 27/27/27 26/26/26
f 31/31/31 30/30/30 29/29/29
f 29/29/29 30/30/30 32/32/32
f 33/33/33 30/30/30 31/31/31
f 32/32/32 30/30/30 34/34/34
f 35/35/35 30/30/30 33/33/33
f 34/34/34 30/30/30 36/36/36
f 37/37/37 30/30/30 35/35/35
f 36/36/36 30/30/30 38/38/38
f 39/39/39 30/30/30 37/37/37
f 38/38/38 30/30/30 40/40/40
f 41/41/41 30/30/30 39/39/39
f 40/40/40 30/30/30 41/41/41
