g Boss_Color_10
v -3.575507 3.57544 -1.995047
v -3.578452 3.578375 1.973043
v 3.57841 -3.578411 1.973021
v 3.575464 -3.575456 -1.995069
v -4.054089 3.096854 -1.995049
v 3.096883 -4.054042 -1.99507
v 3.093938 -4.051089 -4.343743
v -4.051144 3.093917 -4.343721
v 3.584302 -3.58432 7.923468
v 3.581356 -3.581365 4.36574
v -3.581397 3.581312 4.365763
v -3.584341 3.584247 7.923496
v 3.102775 -4.059951 4.36574
v 3.099829 -4.056998 1.97302
v -4.057034 3.099789 1.973042
v -4.059978 3.102726 4.365762
v -3.569618 3.569569 -7.923472
v -3.572563 3.572504 -4.343721
v 3.572519 -3.572502 -4.343742
v 3.569573 -3.569547 -7.923497
v 3.575464 -3.575456 -1.995069
v 3.096883 -4.054042 -1.99507
v -4.054089 3.096854 -1.995049
v -3.575507 3.57544 -1.995047
v -3.572563 3.572504 -4.343721
v -4.051144 3.093917 -4.343721
v 3.093938 -4.051089 -4.343743
v 3.572519 -3.572502 -4.343742
v 3.581356 -3.581365 4.36574
v 3.102775 -4.059951 4.36574
v -4.059978 3.102726 4.365762
v -3.581397 3.581312 4.365763
v -3.578452 3.578375 1.973043
v -4.057034 3.099789 1.973042
v 3.099829 -4.056998 1.97302
v 3.57841 -3.578411 1.973021
vt 0.4655874 0.03944667
vt 0.4656576 0.04044105
vt 0.4688327 0.04021272
vt 0.46876 0.03921853
vt 0.6576057 0.01380828
vt 0.6628025 0.01427574
vt 0.6616414 0.01621907
vt 0.6574907 0.01584574
vt 0.4689783 0.04220108
vt 0.4689055 0.0412069
vt 0.4663613 0.04138988
vt 0.465798 0.0424298
vt 0.663041 0.01020162
vt 0.6629217 0.01223868
vt 0.6577207 0.01177083
vt 0.6588734 0.009826694
vt 0.465447 0.03745792
vt 0.4655172 0.0384523
vt 0.4680511 0.0382701
vt 0.4686143 0.03723017
vt 0.6861507 0.01427574
vt 0.6861507 0.01427574
vt 0.6809539 0.01380828
vt 0.6809539 0.01380828
vt 0.6808389 0.01584574
vt 0.6808389 0.01584574
vt 0.6849895 0.01621907
vt 0.6849895 0.01621907
vt 0.6863891 0.01020162
vt 0.6863891 0.01020162
vt 0.6822215 0.009826694
vt 0.6822215 0.009826694
vt 0.6810689 0.01177083
vt 0.6810689 0.01177083
vt 0.6862699 0.01223868
vt 0.6862699 0.01223868
vn -0.707103 -0.7071105 0
vn -0.707103 -0.7071105 0
vn -0.707103 -0.7071105 0
vn -0.707103 -0.7071105 0
vn -0.707103 -0.7071105 0
vn -0.707103 -0.7071105 0
vn -0.707103 -0.7071105 0
vn -0.707103 -0.7071105 0
vn -0.707103 -0.7071105 0
vn -0.7071031 -0.7071105 0
vn -0.707103 -0.7071105 0
vn -0.707103 -0.7071105 0
vn -0.707103 -0.7071105 0
vn -0.707103 -0.7071106 0
vn -0.707103 -0.7071105 0
vn -0.707103 -0.7071105 0
vn -0.707103 -0.7071105 0
vn -0.707103 -0.7071105 0
vn -0.707103 -0.7071105 0
vn -0.707103 -0.7071105 0
vn 0 0 1
vn 0 0 1
vn 0 0 1
vn 0 0 1
vn 0 0 -1
vn 0 0 -1
vn 0 0 -1
vn 0 0 -1
vn 0 0 1
vn 0 0 1
vn 0 0 1
vn 0 0 1
vn 0 0 -1
vn 0 0 -1
vn 0 0 -1
vn 0 0 -1
g Boss_Color_10_0
f 3/3/3 2/2/2 1/1/1
f 4/4/4 3/3/3 1/1/1
f 7/7/7 6/6/6 5/5/5
f 8/8/8 7/7/7 5/5/5
f 11/11/11 10/10/10 9/9/9
f 12/12/12 11/11/11 9/9/9
f 15/15/15 14/14/14 13/13/13
f 16/16/16 15/15/15 13/13/13
f 19/19/19 18/18/18 17/17/17
f 20/20/20 19/19/19 17/17/17
f 23/23/23 22/22/22 21/21/21
f 24/24/24 23/23/23 21/21/21
f 27/27/27 26/26/26 25/25/25
f 28/28/28 27/27/27 25/25/25
f 31/31/31 30/30/30 29/29/29
f 32/32/32 31/31/31 29/29/29
f 35/35/35 34/34/34 33/33/33
f 36/36/36 35/35/35 33/33/33
