g Boss_Color_01
v 1.54697 4.703241 5.120541
v -0.6490905 1.285225 6.975702
v -1.738113 3.441551 5.989008
v 2.635992 2.546913 6.107234
v 4.27164 4.99359 2.747839
v 5.36066 2.837263 3.734529
v 5.705822 4.234805 -0.4933379
v 6.794845 2.078478 0.4933546
v 5.465235 2.630196 -3.734517
v 6.554255 0.4738708 -2.747826
v 3.614333 0.6097255 -6.107223
v 4.70336 -1.546608 -5.120527
v 0.6490796 -1.285233 -6.97569
v 1.7381 -3.441563 -5.988997
v -1.738113 3.441551 5.989008
v -0.6490905 1.285225 6.975702
v -3.614349 -0.6097298 6.107231
v -4.70337 1.546594 5.120542
v -5.465241 -2.630209 3.734529
v -6.554266 -0.473875 2.747834
v -5.705834 -4.234806 0.4933503
v -6.794856 -2.078479 -0.4933422
v -4.271651 -4.993591 -2.747825
v -5.360673 -2.837263 -3.734518
v -1.546978 -4.703248 -5.120526
v -2.636001 -2.546919 -6.10722
v 1.7381 -3.441563 -5.988997
v 0.6490796 -1.285233 -6.97569
v -1.738113 3.441551 5.989008
v -1.806268 3.576504 4.815172
v 0.9958174 4.652691 4.074394
v 1.54697 4.703241 5.120541
v 3.319885 4.900353 2.050544
v 4.27164 4.99359 2.747839
v 4.543203 4.253129 -0.7140925
v 5.705822 4.234805 -0.4933379
v 4.33799 2.884441 -3.478729
v 5.465235 2.630196 -3.734517
v 2.75922 1.161037 -5.502583
v 3.614333 0.6097255 -6.107223
v 0.2299404 -0.4553127 -6.243361
v 0.6490796 -1.285233 -6.97569
v -4.70337 1.546594 5.120542
v -1.806268 3.576504 4.815172
v -1.738113 3.441551 5.989008
v -4.335552 1.960157 4.074395
v -6.554266 -0.473875 2.747834
v -5.914317 0.2367539 2.050538
v -6.794856 -2.078479 -0.4933422
v -6.119534 -1.131929 -0.7140956
v -5.360673 -2.837263 -3.734518
v -4.896214 -1.779153 -3.47873
v -2.636001 -2.546919 -6.10722
v -2.572144 -1.531494 -5.50258
v 0.6490796 -1.285233 -6.97569
v 0.2299404 -0.4553127 -6.243361
vt 0.2064018 0.0133504
vt 0.2104953 0.01351437
vt 0.2064018 0.01351437
vt 0.2104953 0.0133504
vt 0.2064018 0.01290235
vt 0.2104953 0.01290235
vt 0.2064018 0.0122903
vt 0.2104953 0.0122903
vt 0.2064018 0.01167825
vt 0.2104953 0.01167825
vt 0.2064018 0.01123023
vt 0.2104953 0.01123023
vt 0.2064018 0.01106623
vt 0.2104953 0.01106623
vt 0.2064018 0.01351437
vt 0.2104953 0.01351437
vt 0.2104953 0.0133504
vt 0.2064018 0.0133504
vt 0.2104953 0.01290235
vt 0.2064018 0.01290235
vt 0.2104953 0.0122903
vt 0.2064018 0.0122903
vt 0.2104953 0.01167825
vt 0.2064018 0.01167825
vt 0.2104953 0.01123023
vt 0.2064018 0.01123023
vt 0.2104953 0.01106623
vt 0.2064018 0.01106623
vt 0.1800539 0.01228336
vt 0.1791381 0.01210338
vt 0.1791381 0.01196352
vt 0.1800539 0.01211939
vt 0.1791381 0.01158134
vt 0.1800539 0.01167134
vt 0.1791381 0.01105929
vt 0.1800539 0.01105929
vt 0.1791381 0.01053724
vt 0.1800539 0.01044724
vt 0.1791381 0.01015506
vt 0.1800539 0.009999219
vt 0.1791381 0.01001519
vt 0.1800539 0.009835217
vt 0.1800539 0.01211939
vt 0.1791381 0.01210338
vt 0.1800539 0.01228336
vt 0.1791381 0.01196352
vt 0.1800539 0.01167134
vt 0.1791381 0.01158134
vt 0.1800539 0.01105929
vt 0.1791381 0.01105929
vt 0.1800539 0.01044724
vt 0.1791381 0.01053724
vt 0.1800539 0.009999219
vt 0.1791381 0.01015506
vt 0.1800539 0.009835217
vt 0.1791381 0.01001519
vn 0.0673189 0.8455117 0.5296962
vn -0.1704596 0.3375197 0.9257559
vn -0.3467067 0.6864987 0.6391509
vn 0.2986887 0.5177033 0.8017284
vn 0.4107154 0.8821048 0.2306598
vn 0.687804 0.5591687 0.4628779
vn 0.5914681 0.7864739 -0.1778323
vn 0.8926222 0.4508056 0
vn 0.5611464 0.584242 -0.5863241
vn 0.8582628 0.2216493 -0.4628785
vn 0.3278732 0.3295983 -0.885361
vn 0.5939327 -0.06689777 -0.8017286
vn -0.04584378 0.09077273 -0.9948159
vn 0.1704589 -0.3375195 -0.925756
vn -0.3467067 0.6864987 0.6391509
vn -0.1704596 0.3375197 0.9257559
vn -0.5939334 0.06689736 0.8017281
vn -0.7204236 0.4476732 0.5296966
vn -0.8582631 -0.2216497 0.4628778
vn -0.9536958 0.1930293 0.2306598
vn -0.8926222 -0.4508055 0
vn -0.9840178 -0.009202096 -0.1778319
vn -0.6878037 -0.5591689 -0.462878
vn -0.8032646 -0.1048329 -0.5863242
vn -0.2986889 -0.5177032 -0.8017282
vn -0.4598687 -0.06824009 -0.885361
vn 0.1704589 -0.3375195 -0.925756
vn -0.04584378 0.09077273 -0.9948159
vn -0.3467067 0.6864987 0.6391509
vn -0.4471131 0.8853089 0.1277423
vn -0.2156902 0.9741906 0.06656176
vn 0.0673189 0.8455117 0.5296962
vn -0.02374552 0.9946449 -0.1005867
vn 0.4107154 0.8821048 0.2306598
vn 0.07728816 0.941191 -0.3289166
vn 0.5914681 0.7864739 -0.1778323
vn 0.06033954 0.8281521 -0.5572463
vn 0.5611464 0.584242 -0.5863241
vn -0.07005055 0.6858163 -0.7243955
vn 0.3278732 0.3295983 -0.885361
vn -0.2789432 0.5523226 -0.7855765
vn -0.04584378 0.09077273 -0.9948159
vn -0.7204236 0.4476732 0.5296966
vn -0.4471131 0.8853089 0.1277423
vn -0.3467067 0.6864987 0.6391509
vn -0.6560047 0.7518159 0.06656232
vn -0.9536958 0.1930293 0.2306598
vn -0.7863943 0.6094805 -0.1005861
vn -0.9840178 -0.009202096 -0.1778319
vn -0.8033431 0.4964415 -0.3289159
vn -0.8032646 -0.1048329 -0.5863242
vn -0.7023091 0.4429877 -0.5572467
vn -0.4598687 -0.06824009 -0.885361
vn -0.5103651 0.4634415 -0.7243959
vn -0.04584378 0.09077273 -0.9948159
vn -0.2789432 0.5523226 -0.7855765
g Boss_Color_01_0
f 3/3/3 2/2/2 1/1/1
f 2/2/2 4/4/4 1/1/1
f 1/1/1 4/4/4 5/5/5
f 4/4/4 6/6/6 5/5/5
f 5/5/5 6/6/6 7/7/7
f 6/6/6 8/8/8 7/7/7
f 7/7/7 8/8/8 9/9/9
f 8/8/8 10/10/10 9/9/9
f 9/9/9 10/10/10 11/11/11
f 10/10/10 12/12/12 11/11/11
f 11/11/11 12/12/12 13/13/13
f 12/12/12 14/14/14 13/13/13
f 17/17/17 16/16/16 15/15/15
f 18/18/18 17/17/17 15/15/15
f 19/19/19 17/17/17 18/18/18
f 20/20/20 19/19/19 18/18/18
f 21/21/21 19/19/19 20/20/20
f 22/22/22 21/21/21 20/20/20
f 23/23/23 21/21/21 22/22/22
f 24/24/24 23/23/23 22/22/22
f 25/25/25 23/23/23 24/24/24
f 26/26/26 25/25/25 24/24/24
f 27/27/27 25/25/25 26/26/26
f 28/28/28 27/27/27 26/26/26
f 31/31/31 30/30/30 29/29/29
f 32/32/32 31/31/31 29/29/29
f 33/33/33 31/31/31 32/32/32
f 34/34/34 33/33/33 32/32/32
f 35/35/35 33/33/33 34/34/34
f 36/36/36 35/35/35 34/34/34
f 37/37/37 35/35/35 36/36/36
f 38/38/38 37/37/37 36/36/36
f 39/39/39 37/37/37 38/38/38
f 40/40/40 39/39/39 38/38/38
f 41/41/41 39/39/39 40/40/40
f 42/42/42 41/41/41 40/40/40
f 45/45/45 44/44/44 43/43/43
f 44/44/44 46/46/46 43/43/43
f 43/43/43 46/46/46 47/47/47
f 46/46/46 48/48/48 47/47/47
f 47/47/47 48/48/48 49/49/49
f 48/48/48 50/50/50 49/49/49
f 49/49/49 50/50/50 51/51/51
f 50/50/50 52/52/52 51/51/51
f 51/51/51 52/52/52 53/53/53
f 52/52/52 54/54/54 53/53/53
f 53/53/53 54/54/54 55/55/55
f 54/54/54 56/56/56 55/55/55
