g Boss_Color_25
v -16.88475 5.706969 16.37487
v 27.1336 5.707039 16.3749
v 27.13362 -5.707078 16.37488
v -16.88473 -5.707148 16.37484
v -27.13364 5.707046 -16.37488
v 27.13363 5.707128 -16.37484
v 27.13363 5.707119 -12.36689
v -27.13365 5.707035 -12.36693
v -27.13366 5.707002 0.7518145
v 27.1336 5.707039 16.3749
v -16.88475 5.706969 16.37487
v 27.13363 5.707119 -12.36689
v -27.13365 5.707035 -12.36693
v -27.13363 -5.707073 -16.37491
v -27.13364 -5.707119 0.7517862
v 27.13365 -5.706995 -16.37486
v 27.13362 -5.707057 9.011403
v -21.67914 -5.707135 9.066426
v -19.95367 -5.707139 11.69667
v -16.88473 -5.707148 16.37484
v 27.13362 -5.707078 16.37488
v 27.13362 -5.707063 11.75168
v -21.67914 -5.707135 9.066426
v -19.95367 -5.707139 11.69667
v 27.13362 -5.707063 11.75168
v 27.13362 -5.707057 9.011403
vt 0.7684513 0.04187732
vt 0.7676846 0.04187732
vt 0.7676846 0.04167075
vt 0.7684513 0.04167075
vt 0.7947469 0.03712595
vt 0.794108 0.03712595
vt 0.7942575 0.03712595
vt 0.7947469 0.03712595
vt 0.7671556 0.03821016
vt 0.767014 0.03821016
vt 0.7671289 0.03821016
vt 0.7670472 0.03821016
vt 0.7671556 0.03821016
vt 0.76697 0.03450533
vt 0.7670231 0.03498329
vt 0.7662953 0.03458027
vt 0.766374 0.03528874
vt 0.7669811 0.03522287
vt 0.7671393 0.03821016
vt 0.7671289 0.03821016
vt 0.767014 0.03821016
vt 0.767014 0.03821016
vt 0.7946948 0.03712595
vt 0.7946733 0.03712595
vt 0.794108 0.03712595
vt 0.794108 0.03712595
vn 0 0 1
vn 0 0 1
vn 0 0 1
vn 0 0 1
vn 0 1 0
vn 0 1 0
vn 0 1 0
vn 0 1 0
vn 0 1 0
vn 0 1 0
vn 0 1 0
vn 0 1 0
vn 0 1 0
vn 0 -1 0
vn 0 -1 0
vn 0 -1 0
vn 0 -1 0
vn 0 -1 0
vn 0 -1 0
vn 0 -1 0
vn 0 -1 0
vn 0 -1 0
vn 0 -1 0
vn 0 -1 0
vn 0 -1 0
vn 0 -1 0
g Boss_Color_25_0
f 3/3/3 2/2/2 1/1/1
f 4/4/4 3/3/3 1/1/1
f 7/7/7 6/6/6 5/5/5
f 8/8/8 7/7/7 5/5/5
f 11/11/11 10/10/10 9/9/9
f 10/10/10 12/12/12 9/9/9
f 13/13/13 9/9/9 12/12/12
f 16/16/16 15/15/15 14/14/14
f 15/15/15 16/16/16 17/17/17
f 18/18/18 15/15/15 17/17/17
f 21/21/21 20/20/20 19/19/19
f 22/22/22 21/21/21 19/19/19
f 25/25/25 24/24/24 23/23/23
f 26/26/26 25/25/25 23/23/23
