g Boss_Color_01
v -4.326329 -32.55876 -37.23354
v 3.732741E-06 -0.7597513 0.6375063
v 1.713634E-06 0.7723388 -0.64807
v -4.32633 -31.02666 -38.51911
v 1.713634E-06 0.7723389 -0.6480699
v 3.72529E-06 -0.7597515 0.6375065
v -4.32633 -32.55876 -37.23355
v -4.32633 -31.02667 -38.51911
vt 0.2929651 0.03650183
vt 0.2929651 0.03722664
vt 0.2928267 0.03722664
vt 0.2928267 0.03650183
vt 0.2928267 0.03722664
vt 0.2929651 0.03722664
vt 0.2929651 0.03650183
vt 0.2928267 0.03650183
vn 0.9961948 -0.05602115 -0.06676486
vn 0.9961948 -0.05602115 -0.06676486
vn 0.9961948 -0.05602114 -0.06676486
vn 0.9961948 -0.05602115 -0.06676486
vn -0.9961948 0.05602112 0.06676483
vn -0.9961948 0.05602111 0.06676483
vn -0.9961948 0.05602111 0.06676483
vn -0.9961948 0.05602112 0.06676482
g Boss_Color_01_0
f 3/3/3 2/2/2 1/1/1
f 4/4/4 3/3/3 1/1/1
f 7/7/7 6/6/6 5/5/5
f 8/8/8 7/7/7 5/5/5
