g Boss_Color_181
v 1.191256 4.147002 -1.385988
v -0.6358627 3.322478 3.015713
v -0.8546977 4.270278 -1.253755
v 1.410091 3.199203 2.883481
v 2.888696 3.039523 -1.718846
v 3.10753 2.091722 2.550622
v 3.782793 1.244586 -2.16314
v 4.001627 0.2967854 2.106328
v 3.633974 -0.7568583 -2.599823
v 3.85281 -1.704659 1.669646
v 2.482117 -2.428519 -2.911884
v 2.700952 -3.376319 1.357585
v 0.6358605 -3.32248 -3.015707
v 0.8546955 -4.270279 1.253761
v -0.8546977 4.270278 -1.253755
v -0.6358627 3.322478 3.015713
v -2.482119 2.428516 2.911889
v -2.700954 3.376316 -1.357579
v -3.633975 0.756855 2.599828
v -3.852811 1.704655 -1.669641
v -3.782793 -1.244586 2.163146
v -4.001627 -0.296786 -2.106323
v -2.888696 -3.039523 1.718852
v -3.107531 -2.091722 -2.550617
v -1.191258 -4.147003 1.385994
v -1.410093 -3.199204 -2.883475
v 0.8546955 -4.270279 1.253761
v 0.6358605 -3.32248 -3.015707
v 4.001627 0.2967854 2.106328
v 0.1094174 -0.4739006 2.134737
v 3.10753 2.091722 2.550622
v 3.85281 -1.704659 1.669646
v 1.410091 3.199203 2.883481
v 2.700952 -3.376319 1.357585
v -0.6358627 3.322478 3.015713
v 0.8546955 -4.270279 1.253761
v -2.482119 2.428516 2.911889
v -1.191258 -4.147003 1.385994
v -3.633975 0.756855 2.599828
v -2.888696 -3.039523 1.718852
v -3.782793 -1.244586 2.163146
vt 0.4610275 0.03309857
vt 0.4608175 0.03529083
vt 0.4608175 0.03309857
vt 0.4610275 0.03529083
vt 0.4616014 0.03309857
vt 0.4616014 0.03529083
vt 0.4623854 0.03309857
vt 0.4623854 0.03529083
vt 0.4631693 0.03309857
vt 0.4631693 0.03529083
vt 0.4637432 0.03309857
vt 0.4637432 0.03529083
vt 0.4639532 0.03309857
vt 0.4639532 0.03529083
vt 0.4608175 0.03309857
vt 0.4608175 0.03529083
vt 0.4610275 0.03529083
vt 0.4610275 0.03309857
vt 0.4616014 0.03529083
vt 0.4616014 0.03309857
vt 0.4623854 0.03529083
vt 0.4623854 0.03309857
vt 0.4631693 0.03529083
vt 0.4631693 0.03309857
vt 0.4637432 0.03529083
vt 0.4637432 0.03309857
vt 0.4639532 0.03529083
vt 0.4639532 0.03309857
vt 0.4623854 0.0164844
vt 0.4623854 0.01218501
vt 0.4599356 0.01589625
vt 0.4648351 0.01589625
vt 0.4581696 0.01431366
vt 0.4666011 0.01431366
vt 0.4575331 0.01218501
vt 0.4672377 0.01218501
vt 0.4581696 0.01005637
vt 0.4666011 0.01005637
vt 0.4599356 0.008473787
vt 0.4648351 0.008473787
vt 0.4623854 0.007885624
vn 0.3278003 0.9257099 0.1887011
vn -0.1878285 0.9567782 0.222027
vn -0.1878287 0.9567782 0.222027
vn 0.3278004 0.9257099 0.1887011
vn 0.7555956 0.6465985 0.104813
vn 0.7555956 0.6465984 0.1048129
vn 0.9809297 0.1942309 -0.007159983
vn 0.9809297 0.1942309 -0.007159991
vn 0.943424 -0.3101806 -0.1172145
vn 0.943424 -0.3101806 -0.1172145
vn 0.6531284 -0.731479 -0.1958612
vn 0.6531286 -0.7314789 -0.1958612
vn 0.1878281 -0.9567783 -0.222027
vn 0.1878282 -0.9567783 -0.222027
vn -0.1878287 0.9567782 0.222027
vn -0.1878285 0.9567782 0.222027
vn -0.6531289 0.7314786 0.1958611
vn -0.653129 0.7314786 0.1958611
vn -0.9434242 0.3101802 0.1172144
vn -0.9434242 0.3101802 0.1172144
vn -0.9809296 -0.1942311 0.007159971
vn -0.9809296 -0.194231 0.007159973
vn -0.7555959 -0.6465981 -0.1048128
vn -0.7555959 -0.646598 -0.1048128
vn -0.3278009 -0.9257098 -0.1887009
vn -0.327801 -0.9257098 -0.1887009
vn 0.1878282 -0.9567783 -0.222027
vn 0.1878281 -0.9567783 -0.222027
vn 0.0499748 -0.216448 0.9750142
vn 0.04997485 -0.2164481 0.9750142
vn 0.04997488 -0.2164481 0.9750142
vn 0.04997477 -0.2164481 0.9750142
vn 0.04997478 -0.2164482 0.9750142
vn 0.04997483 -0.2164481 0.9750142
vn 0.04997485 -0.2164481 0.9750142
vn 0.04997479 -0.2164481 0.9750142
vn 0.04997492 -0.2164481 0.9750142
vn 0.04997483 -0.2164481 0.9750142
vn 0.04997481 -0.2164481 0.9750142
vn 0.04997494 -0.2164481 0.9750142
vn 0.04997487 -0.216448 0.9750142
g Boss_Color_181_0
f 3/3/3 2/2/2 1/1/1
f 2/2/2 4/4/4 1/1/1
f 1/1/1 4/4/4 5/5/5
f 4/4/4 6/6/6 5/5/5
f 5/5/5 6/6/6 7/7/7
f 6/6/6 8/8/8 7/7/7
f 7/7/7 8/8/8 9/9/9
f 8/8/8 10/10/10 9/9/9
f 9/9/9 10/10/10 11/11/11
f 10/10/10 12/12/12 11/11/11
f 11/11/11 12/12/12 13/13/13
f 12/12/12 14/14/14 13/13/13
f 17/17/17 16/16/16 15/15/15
f 18/18/18 17/17/17 15/15/15
f 19/19/19 17/17/17 18/18/18
f 20/20/20 19/19/19 18/18/18
f 21/21/21 19/19/19 20/20/20
f 22/22/22 21/21/21 20/20/20
f 23/23/23 21/21/21 22/22/22
f 24/24/24 23/23/23 22/22/22
f 25/25/25 23/23/23 24/24/24
f 26/26/26 25/25/25 24/24/24
f 27/27/27 25/25/25 26/26/26
f 28/28/28 27/27/27 26/26/26
f 31/31/31 30/30/30 29/29/29
f 29/29/29 30/30/30 32/32/32
f 33/33/33 30/30/30 31/31/31
f 32/32/32 30/30/30 34/34/34
f 35/35/35 30/30/30 33/33/33
f 34/34/34 30/30/30 36/36/36
f 37/37/37 30/30/30 35/35/35
f 36/36/36 30/30/30 38/38/38
f 39/39/39 30/30/30 37/37/37
f 38/38/38 30/30/30 40/40/40
f 41/41/41 30/30/30 39/39/39
f 40/40/40 30/30/30 41/41/41
