g Boss_Color_150
v -11.84828 9.744251 -5.734034
v -11.89185 10.24235 -5.234032
v -11.36532 9.873664 -5.234034
v -10.64733 5.262312 -6.260293
v -10.16437 5.391725 -5.760293
v -10.43602 4.809156 -5.760293
v 5.262334 -10.64729 -6.260342
v 4.809181 -10.43598 -5.760341
v 5.391744 -10.16433 -5.760341
v 9.744279 -11.84821 -6.260345
v 9.873691 -11.36525 -5.760344
v 10.24238 -11.89179 -5.760346
v 9.744281 -11.84824 2.796974
v 10.24238 -11.89182 2.296974
v 9.873693 -11.36528 2.296975
v 8.865769 -11.24779 4.086033
v 10.58216 -5.365489 5.308824
v 9.744285 -11.84826 6.552173
v -11.89185 10.24235 -5.234032
v -11.89185 10.24234 -2.564774
v -11.36532 9.873664 -5.234034
v -10.16437 5.391725 -5.760293
v -10.43602 4.809148 -2.576931
v -10.43602 4.809156 -5.760293
v -9.113796 10.24234 -2.564774
v -5.597869 14.36666 -4.970961
v -6.650586 10.24235 -4.081923
v -3.886917 3.685094 -3.736444
v -7.539213 6.395401 -4.094078
v -5.636586 7.437253 -4.094077
v -7.539213 6.395401 -4.094078
v -7.749557 6.038775 -5.760291
v -8.950501 10.52072 -5.234032
v -9.113796 10.24234 -2.564774
v 10.52073 -8.950462 2.296982
v 10.52073 -8.950435 -5.760336
v 6.689811 -6.791908 -5.760332
v 6.689812 -6.791921 -2.322248
v 8.605273 -7.871199 1.706409
v 10.24238 -11.89182 2.296974
v 14.36667 -12.25261 -9.809719
v 10.24238 -11.89179 -5.760346
v 14.36668 -12.25266 10.35429
v 9.744285 -11.84826 6.552173
v 9.744281 -11.84824 2.796974
v 8.865769 -11.24779 4.086033
v 7.503308 -11.24778 2.206399
v 14.36668 -12.25266 10.35429
v 14.36667 -5.597835 10.35431
v 14.36666 -5.597772 -9.8097
v 14.36667 -12.25261 -9.809719
v -6.024922 -2.743877 -13.81764
v -8.686354 1.057023 -13.81763
v -8.686354 1.057011 -9.809677
v -6.024924 -2.74389 -9.809689
v -11.36532 9.873664 -5.234034
v -8.950501 10.52072 -5.234032
v -7.749557 6.038775 -5.760291
v -10.16437 5.391725 -5.760293
v 5.391744 -10.16433 -5.760341
v 6.689811 -6.791908 -5.760332
v 10.52073 -8.950435 -5.760336
v 9.873691 -11.36525 -5.760344
v 9.873691 -11.36525 -5.760344
v 10.52073 -8.950435 -5.760336
v 10.52073 -8.950462 2.296982
v 9.873693 -11.36528 2.296975
v 7.632719 -10.76482 1.706401
v 9.873693 -11.36528 2.296975
v 10.52073 -8.950462 2.296982
v 8.605273 -7.871199 1.706409
v 9.873691 -11.36525 -5.760344
v 9.873693 -11.36528 2.296975
v 10.24238 -11.89182 2.296974
v 10.24238 -11.89179 -5.760346
v -11.36532 9.873664 -5.234034
v -10.16437 5.391725 -5.760293
v -10.64733 5.262312 -6.260293
v -11.84828 9.744251 -5.734034
v 9.873693 -11.36528 2.296975
v 7.632719 -10.76482 1.706401
v 7.503308 -11.24778 2.206399
v 9.744281 -11.84824 2.796974
v 5.391744 -10.16433 -5.760341
v 9.873691 -11.36525 -5.760344
v 9.744279 -11.84821 -6.260345
v 5.262334 -10.64729 -6.260342
v 10.24238 -11.89179 -5.760346
v 14.36667 -12.25261 -9.809719
v 9.744277 -11.84821 -9.809716
v 9.744279 -11.84821 -6.260345
v 5.262333 -10.64728 -9.809712
v 5.262334 -10.64729 -6.260342
v 4.809181 -10.43598 -5.760341
v 1.05701 -8.686317 -9.809707
v 1.057011 -8.686303 -13.81766
v -0.2995539 -7.736444 -9.809704
v -0.5314611 -7.574048 -13.81765
v 5.262332 -10.64727 -13.81766
v 5.262333 -10.64728 -9.809712
v 9.744277 -11.84821 -9.809716
v 9.744278 -11.84819 -13.81767
v 14.36667 -12.25261 -9.809719
v 14.36667 -12.25259 -13.81767
v -11.84828 9.744276 -13.8176
v -12.2527 14.36667 -13.81759
v -12.2527 14.36666 -9.809637
v -11.84828 9.744266 -9.809651
v -10.64734 5.262324 -9.809665
v -10.64734 5.262336 -13.81761
v -8.686354 1.057011 -9.809677
v -8.686354 1.057023 -13.81763
v 14.36667 -12.25259 -13.81767
v 14.36667 -12.25261 -9.809719
v 14.36666 -5.597772 -9.8097
v 14.36666 -5.597761 -13.81765
v -5.597871 14.36668 -13.81759
v -5.59787 14.36668 -9.283394
v -12.2527 14.36666 -9.809637
v -12.2527 14.36667 -13.81759
v -0.2995539 -7.736444 -9.809704
v 3.142133 -9.284408 -6.344173
v 1.05701 -8.686317 -9.809707
v 4.809181 -10.43598 -5.760341
v 3.24588 -9.519908 -3.975112
v 4.809183 -10.436 -2.322258
v -6.024924 -2.74389 -9.809689
v -1.381333 1.725953 -9.809685
v -1.38133 1.725964 -13.81763
v -6.024922 -2.743877 -13.81764
v -7.797437 -0.2124955 -7.238601
v -2.903476 2.498934 -7.516932
v -1.381333 1.725953 -9.809685
v -6.024924 -2.74389 -9.809689
v -0.5314611 -7.574048 -13.81765
v 3.22268 -2.630986 -13.81765
v 3.454587 -2.793383 -9.809699
v -0.2995539 -7.736444 -9.809704
v -0.2995539 -7.736444 -9.809704
v 3.454587 -2.793383 -9.809699
v 6.716179 -4.217025 -6.344168
v 3.142133 -9.284408 -6.344173
v 3.142133 -9.284408 -6.344173
v 6.716179 -4.217025 -6.344168
v 6.401196 -4.359502 -4.743198
v 3.24588 -9.519908 -3.975112
v 9.744285 -11.84826 6.552173
v 10.58216 -5.365489 5.308824
v 14.36667 -5.597835 10.35431
v 14.36668 -12.25266 10.35429
v -8.686354 1.057011 -9.809677
v -7.797437 -0.2124955 -7.238601
v -6.024924 -2.74389 -9.809689
v -8.686352 1.056991 -3.736447
v 5.391744 -10.16433 -5.760341
v 5.391745 -10.16434 -2.322257
v 6.689812 -6.791921 -2.322248
v 6.689811 -6.791908 -5.760332
v 4.809181 -10.43598 -5.760341
v 4.809183 -10.436 -2.322258
v 5.391745 -10.16434 -2.322257
v 5.391744 -10.16433 -5.760341
v 7.503308 -11.24778 2.206399
v 10.58216 -5.365489 5.308824
v 8.865769 -11.24779 4.086033
v 7.632719 -10.76482 1.706401
v 8.605273 -7.871199 1.706409
v 6.689812 -6.791921 -2.322248
v 6.401196 -4.359502 -4.743198
v 5.391745 -10.16434 -2.322257
v 4.809183 -10.436 -2.322258
v 3.24588 -9.519908 -3.975112
v -5.597869 14.36666 -4.970961
v -12.2527 14.36664 -3.481951
v -12.2527 14.36666 -9.809637
v -5.59787 14.36668 -9.283394
v -12.2527 14.36664 -3.481951
v -11.89185 10.24234 -2.564774
v -11.89185 10.24235 -5.234032
v -12.2527 14.36666 -9.809637
v -11.84828 9.744266 -9.809651
v -11.84828 9.744251 -5.734034
v -10.64733 5.262312 -6.260293
v -10.64734 5.262324 -9.809665
v -10.43602 4.809156 -5.760293
v -8.686354 1.057011 -9.809677
v -8.686352 1.056991 -3.736447
v -10.43602 4.809148 -2.576931
v -11.89185 10.24234 -2.564774
v -9.113796 10.24234 -2.564774
v -8.950501 10.52072 -5.234032
v -11.36532 9.873664 -5.234034
v -7.539213 6.395401 -4.094078
v -10.43602 4.809148 -2.576931
v -10.16437 5.391725 -5.760293
v -7.749557 6.038775 -5.760291
v -8.686352 1.056991 -3.736447
v -3.886917 3.685094 -3.736444
v -2.903476 2.498934 -7.516932
v -7.797437 -0.2124955 -7.238601
v -12.2527 14.36664 -3.481951
v -5.597869 14.36666 -4.970961
v -9.113796 10.24234 -2.564774
v -11.89185 10.24234 -2.564774
v -10.43602 4.809148 -2.576931
v -7.539213 6.395401 -4.094078
v -3.886917 3.685094 -3.736444
v -8.686352 1.056991 -3.736447
v -6.650586 10.24235 -4.081923
v -5.636586 7.437253 -4.094077
v -7.539213 6.395401 -4.094078
v -9.113796 10.24234 -2.564774
vt 0.816174 0.03563221
vt 0.8161722 0.03566464
vt 0.8161933 0.03566464
vt 0.8162219 0.03563221
vt 0.8162411 0.03566464
vt 0.8162304 0.03566464
vt 0.8168561 0.03563221
vt 0.8168381 0.03566464
vt 0.8168614 0.03566464
vt 0.8170348 0.03563221
vt 0.81704 0.03566464
vt 0.8170547 0.03566464
vt 0.8170348 0.03621959
vt 0.8170547 0.03618716
vt 0.81704 0.03618716
vt 0.7698327 0.01032022
vt 0.7698327 0.0103348
vt 0.7698327 0.0103348
vt 0.8161722 0.03566464
vt 0.8161933 0.03590173
vt 0.8161933 0.03566464
vt 0.8162411 0.03566464
vt 0.8162304 0.03587108
vt 0.8162304 0.03566464
vt 0.7698327 0.01020871
vt 0.7698326 0.01020687
vt 0.7698327 0.01020871
vt 0.7698399 0.01028819
vt 0.7698399 0.01028831
vt 0.7698399 0.01028831
vt 0.766269 0.03654999
vt 0.7662689 0.03613635
vt 0.7660875 0.03613635
vt 0.7660875 0.0367393
vt 0.7946838 0.03740979
vt 0.7946838 0.03687265
vt 0.7946836 0.03687265
vt 0.7946836 0.03714122
vt 0.7946837 0.03740979
vt 0.794692 0.03682411
vt 0.794692 0.03672772
vt 0.794692 0.03675996
vt 0.794692 0.03688826
vt 0.794692 0.03687192
vt 0.794692 0.03682809
vt 0.794692 0.03686458
vt 0.794692 0.03682809
vt 0.794692 0.03688826
vt 0.794692 0.03688826
vt 0.794692 0.03672772
vt 0.794692 0.03672772
vt 0.5531887 0.03328271
vt 0.5528902 0.03306548
vt 0.5528099 0.03302656
vt 0.5531887 0.03328271
vt 0.794228 0.03586919
vt 0.7942715 0.03586919
vt 0.7942932 0.03586919
vt 0.7942496 0.03586919
vt 0.7945302 0.03586919
vt 0.7945409 0.03586919
vt 0.7946218 0.03586919
vt 0.794611 0.03586919
vt 0.794611 0.03586919
vt 0.7946218 0.03586919
vt 0.7946218 0.03602128
vt 0.794611 0.03602128
vt 0.7945706 0.03602128
vt 0.794611 0.03602128
vt 0.7946218 0.03602128
vt 0.7945814 0.03602128
vt 0.81704 0.03566464
vt 0.81704 0.03618716
vt 0.8170547 0.03618716
vt 0.8170547 0.03566464
vt 0.8161933 0.03566464
vt 0.8162411 0.03566464
vt 0.8162219 0.03563221
vt 0.816174 0.03563221
vt 0.81704 0.03618716
vt 0.8169507 0.03618716
vt 0.8169455 0.03621959
vt 0.8170348 0.03621959
vt 0.8168614 0.03566464
vt 0.81704 0.03566464
vt 0.8170348 0.03563221
vt 0.8168561 0.03563221
vt 0.794692 0.03675996
vt 0.794692 0.03672772
vt 0.794692 0.03672772
vt 0.794692 0.03675598
vt 0.794692 0.03672772
vt 0.794692 0.03675598
vt 0.794692 0.03675996
vt 0.7946148 0.0359128
vt 0.7946148 0.0359128
vt 0.7946148 0.0358661
vt 0.7946148 0.03585811
vt 0.7946149 0.03605759
vt 0.7946149 0.03605759
vt 0.7946149 0.0362119
vt 0.7946149 0.0362119
vt 0.7946149 0.03633236
vt 0.7946149 0.03637105
vt 0.5522078 0.03280738
vt 0.5518447 0.03277437
vt 0.5518447 0.03277437
vt 0.5522078 0.03280738
vt 0.5525598 0.03290541
vt 0.5525598 0.03290541
vt 0.5528099 0.03302656
vt 0.5528902 0.03306548
vt 0.7946149 0.03637105
vt 0.7946149 0.03633236
vt 0.7946147 0.03637105
vt 0.7946147 0.03637105
vt 0.5518447 0.03331757
vt 0.5518447 0.03331757
vt 0.5518447 0.03277437
vt 0.5518447 0.03277437
vt 0.794692 0.03672772
vt 0.794692 0.03678746
vt 0.794692 0.03672772
vt 0.794692 0.03675996
vt 0.794692 0.03681826
vt 0.794692 0.03679204
vt 0.7698327 0.01020779
vt 0.7698327 0.01020779
vt 0.7698327 0.01020779
vt 0.7698327 0.01020779
vt 0.7698327 0.01021949
vt 0.7698327 0.01021949
vt 0.7698327 0.01019609
vt 0.7698327 0.01019609
vt 0.7698327 0.01019986
vt 0.7698327 0.01019986
vt 0.7698327 0.01021572
vt 0.7698327 0.01021572
vt 0.7698324 0.01004831
vt 0.7698324 0.01004831
vt 0.7698324 0.010167
vt 0.7698324 0.010167
vt 0.7698324 0.010167
vt 0.7698324 0.010167
vt 0.7698324 0.0102282
vt 0.7698324 0.0102282
vt 0.7698327 0.0103348
vt 0.7698327 0.0103348
vt 0.7698329 0.01036727
vt 0.7698329 0.01036727
vt 0.7946919 0.03672772
vt 0.7946919 0.03678858
vt 0.7946919 0.03672772
vt 0.7946919 0.03678467
vt 0.7945302 0.03586919
vt 0.7945302 0.03594524
vt 0.7945409 0.03594524
vt 0.7945409 0.03586919
vt 0.8168381 0.03566464
vt 0.8168381 0.0359259
vt 0.8168614 0.0359259
vt 0.8168614 0.03566464
vt 0.7698327 0.01024773
vt 0.7698327 0.0103348
vt 0.7698327 0.01032022
vt 0.7698327 0.01023427
vt 0.7698327 0.01023982
vt 0.7698326 0.01017609
vt 0.7698324 0.0102282
vt 0.7698326 0.01017609
vt 0.7698326 0.01017609
vt 0.7698324 0.0102282
vt 0.7946919 0.03676297
vt 0.7946919 0.0367781
vt 0.7946919 0.03672772
vt 0.7946919 0.03672772
vt 0.7946919 0.0367781
vt 0.7946919 0.03678767
vt 0.7946919 0.03675996
vt 0.7946919 0.03672772
vt 0.7946919 0.03672772
vt 0.7946919 0.03675598
vt 0.7946919 0.03675598
vt 0.7946919 0.03672772
vt 0.7946919 0.03675996
vt 0.7946919 0.03672772
vt 0.7946919 0.03678467
vt 0.7946919 0.0367853
vt 0.794228 0.0359382
vt 0.7942715 0.0359412
vt 0.7942715 0.03586919
vt 0.794228 0.03586919
vt 0.7942932 0.03591859
vt 0.7942496 0.0359297
vt 0.7942496 0.03586919
vt 0.7942932 0.03586919
vt 0.7698399 0.01028819
vt 0.7698399 0.01028819
vt 0.7698399 0.01028894
vt 0.7698399 0.01028894
vt 0.7698326 0.01020687
vt 0.7698326 0.01020687
vt 0.7698327 0.01020871
vt 0.7698327 0.01020871
vt 0.7698399 0.01028831
vt 0.7698399 0.01028831
vt 0.7698399 0.01028819
vt 0.7698399 0.01028819
vt 0.7698383 0.01030522
vt 0.7698399 0.01028894
vt 0.7698399 0.01027716
vt 0.7698254 0.01011036
vn -0.4553294 -0.6502805 0.6081206
vn -0.4553294 -0.6502805 0.6081206
vn -0.4553293 -0.6502805 0.6081206
vn -0.7194709 0.3354884 0.6081194
vn -0.7194709 0.3354884 0.6081194
vn -0.7194709 0.3354884 0.6081194
vn 0.3354965 -0.719467 0.6081195
vn 0.3354965 -0.719467 0.6081195
vn 0.3354965 -0.719467 0.6081195
vn -0.6502769 -0.4553319 0.6081223
vn -0.6502769 -0.4553319 0.6081223
vn -0.6502769 -0.455332 0.6081223
vn -0.6502772 -0.4553295 -0.6081238
vn -0.6502772 -0.4553295 -0.6081239
vn -0.6502772 -0.4553296 -0.6081239
vn -0.9097112 0.1885353 0.3699729
vn -0.9097112 0.1885353 0.3699729
vn -0.9097112 0.1885353 0.3699729
vn -0.5735766 -0.8191519 0
vn -0.5735766 -0.8191519 0
vn -0.5735766 -0.8191519 0
vn -0.9063106 0.4226122 0
vn -0.9063106 0.4226122 0
vn -0.9063106 0.4226122 0
vn 0.5237842 0.04961934 0.8504046
vn 0.5237842 0.04961934 0.8504046
vn 0.5237842 0.04961934 0.8504046
vn -0.04142188 0.07564317 0.9962742
vn -0.04142188 0.07564317 0.9962742
vn -0.04142188 0.07564317 0.9962742
vn -0.6699297 -0.3607857 0.6488668
vn -0.9473923 -0.3196718 0.01605108
vn -0.9473923 -0.3196718 0.01605108
vn -0.6030493 -0.3525551 0.7155674
vn -0.4908885 -0.8712224 0
vn -0.4908885 -0.8712224 0
vn -0.4908885 -0.8712224 0
vn -0.8387551 -0.3416413 0.4239942
vn -0.9797451 -0.1926332 0.05469965
vn -0.0871538 -0.9961948 0
vn -0.08715418 -0.9961948 0
vn -0.0871544 -0.9961948 0
vn -0.08715346 -0.996195 0
vn -0.1437195 -0.9894772 0.01671495
vn -0.2490657 -0.9672915 0.04809843
vn -0.7219012 -0.5869331 0.3665624
vn -0.8525466 -0.4989801 -0.1555092
vn 1 0 0
vn 1 0 0
vn 1 0 0
vn 1 0 0
vn -0.8191509 -0.573578 0
vn -0.8660243 -0.500002 0
vn -0.8660244 -0.5000019 0
vn -0.819151 -0.5735781 0
vn 0.02916677 -0.1088544 0.9936296
vn 0.02916676 -0.1088544 0.9936296
vn 0.02916677 -0.1088544 0.9936296
vn 0.02916677 -0.1088544 0.9936296
vn 0 0 1
vn 0 0 1
vn 0 0 1
vn 0 0 1
vn -0.9659264 0.2588169 0
vn -0.9659264 0.2588169 0
vn -0.9659264 0.2588169 0
vn -0.9659264 0.2588169 0
vn -0.6630044 -0.08483294 -0.7437934
vn 0.244572 -0.07461595 -0.9667559
vn 0.244572 -0.07461593 -0.9667559
vn -0.9797451 -0.1926332 0.05469965
vn -0.8191513 -0.5735774 0
vn -0.8191513 -0.5735774 0
vn -0.8191513 -0.5735775 0
vn -0.8191513 -0.5735775 0
vn -0.6601369 -0.2596458 0.7048427
vn -0.660137 -0.2596458 0.7048427
vn -0.6601369 -0.2596458 0.7048427
vn -0.6601369 -0.2596458 0.7048427
vn -0.009001112 -0.718058 -0.6959251
vn -0.6630044 -0.08483294 -0.7437934
vn -0.8525466 -0.4989801 -0.1555092
vn -0.00900111 -0.718058 -0.695925
vn -0.1830108 -0.6830131 0.7071068
vn -0.1830108 -0.6830132 0.7071068
vn -0.1830108 -0.6830131 0.7071068
vn -0.1830108 -0.6830131 0.7071068
vn -0.0871544 -0.9961948 0
vn -0.08715418 -0.9961948 0
vn -0.1736465 -0.9848081 0
vn -0.1563906 -0.9876952 0
vn -0.3420183 -0.9396933 0
vn -0.358406 -0.9335658 0
vn -0.4987135 -0.8665624 0.0188298
vn -0.519116 -0.8512287 0.07699508
vn -0.4999982 -0.8660264 0
vn -0.5724148 -0.8174967 0.06356465
vn -0.5735748 -0.8191533 0
vn -0.3420184 -0.9396933 0
vn -0.3420183 -0.9396933 0
vn -0.1736465 -0.9848081 0
vn -0.1736464 -0.9848081 0
vn -0.08715418 -0.9961948 0
vn -0.08715399 -0.9961948 0
vn -0.9848073 -0.1736507 0
vn -0.9961945 -0.08715869 0
vn -0.9961945 -0.08715887 0
vn -0.9848073 -0.1736507 0
vn -0.9396918 -0.3420223 0
vn -0.9396918 -0.3420225 0
vn -0.8660244 -0.5000019 0
vn -0.8660243 -0.500002 0
vn 1 0 0
vn 1 0 0
vn 1 0 0
vn 1 0 0
vn 0 1 0
vn 0 1 0
vn 0 1 0
vn 0 1 0
vn -0.5724148 -0.8174967 0.06356465
vn -0.5835109 -0.7977229 0.152162
vn -0.519116 -0.8512287 0.07699508
vn -0.4987135 -0.8665624 0.0188298
vn -0.7706637 -0.482655 0.4160788
vn -0.2529187 -0.591025 0.7659775
vn 0.6934996 -0.7204571 0
vn 0.6934996 -0.7204571 0
vn 0.6934996 -0.7204571 0
vn 0.6934996 -0.7204571 0
vn 0.4482032 -0.5685284 0.6898474
vn 0.4482032 -0.5685285 0.6898474
vn 0.4482032 -0.5685284 0.6898473
vn 0.4482032 -0.5685285 0.6898474
vn -0.7943864 0.603318 0.07041035
vn -0.7943864 0.603318 0.07041034
vn -0.7943864 0.603318 0.07041035
vn -0.7943864 0.603318 0.07041034
vn -0.5610502 0.4107186 0.7187021
vn -0.5610502 0.4107186 0.7187022
vn -0.5610502 0.4107186 0.7187022
vn -0.5610502 0.4107186 0.7187022
vn -0.8350962 0.5500466 0.007935044
vn -0.8350962 0.5500466 0.007935044
vn -0.8350962 0.5500466 0.007935043
vn -0.8350962 0.5500466 0.007935044
vn -0.7164645 0.1108764 0.6887562
vn -0.7164644 0.1108764 0.6887562
vn -0.7164644 0.1108764 0.6887562
vn -0.7164644 0.1108764 0.6887562
vn -0.8660244 -0.5000019 0
vn -0.819151 -0.5735779 0
vn -0.819151 -0.5735781 0
vn -0.892284 -0.4514746 0
vn 0.9332544 -0.3592159 0
vn 0.5079818 -0.367041 0.7792531
vn -0.8387551 -0.3416413 0.4239942
vn 0.9332544 -0.3592159 0
vn 0.4226222 -0.9063059 0
vn -0.2529187 -0.591025 0.7659775
vn 0.5079818 -0.367041 0.7792531
vn 0.4226222 -0.9063059 0
vn -0.8525466 -0.4989801 -0.1555092
vn -0.8855839 0.2246644 0.4065306
vn -0.7219012 -0.5869331 0.3665624
vn -0.6630044 -0.08483294 -0.7437934
vn -0.9797451 -0.1926332 0.05469965
vn -0.8387551 -0.3416413 0.4239942
vn -0.7870098 0.310062 0.5333639
vn 0.5079818 -0.367041 0.7792531
vn -0.2529187 -0.591025 0.7659775
vn -0.7706637 -0.482655 0.4160788
vn 0 1 0
vn 0 1 0
vn 0 1 0
vn 0 1 0
vn -0.9961944 -0.08715939 0
vn -0.9961944 -0.08715937 0
vn -0.9961944 -0.08715912 0
vn -0.9961945 -0.08715887 0
vn -0.9848073 -0.1736507 0
vn -0.9881759 -0.1533251 0
vn -0.9346119 -0.3556694 0
vn -0.9396918 -0.3420223 0
vn -0.9063069 -0.4226203 0
vn -0.8660244 -0.5000019 0
vn -0.892284 -0.4514746 0
vn -0.9063069 -0.4226201 0
vn 0.1235819 -0.9917939 0.03274566
vn 0.1235819 -0.9917939 0.03274566
vn 0.1235819 -0.9917939 0.03274566
vn 0.1235819 -0.9917939 0.03274566
vn -0.3779844 0.9250186 0.03831991
vn -0.3779844 0.9250186 0.03831992
vn -0.3779844 0.9250186 0.03831992
vn -0.3779844 0.9250186 0.03831992
vn 0.4533439 -0.8028149 0.3872565
vn 0.4533438 -0.8028149 0.3872565
vn 0.4533438 -0.8028149 0.3872565
vn 0.4533439 -0.8028149 0.3872565
vn 0.1476971 0.3204862 0.9356677
vn 0.1476971 0.3204862 0.9356677
vn 0.1476971 0.3204862 0.9356678
vn 0.1476971 0.3204862 0.9356677
vn 0.1788395 0.02745662 0.9834951
vn 0.1788395 0.02745662 0.9834951
vn 0.1788395 0.02745662 0.9834951
vn 0.1788395 0.02745662 0.9834951
vn 0.3446525 -0.08256783 0.9350922
vn 0.3446525 -0.08256783 0.9350922
vn -0.6699297 -0.3607857 0.6488668
vn -0.6030493 -0.3525551 0.7155674
g Boss_Color_150_0
f 3/3/3 2/2/2 1/1/1
f 6/6/6 5/5/5 4/4/4
f 9/9/9 8/8/8 7/7/7
f 12/12/12 11/11/11 10/10/10
f 15/15/15 14/14/14 13/13/13
f 18/18/18 17/17/17 16/16/16
f 21/21/21 20/20/20 19/19/19
f 24/24/24 23/23/23 22/22/22
f 27/27/27 26/26/26 25/25/25
f 30/30/30 29/29/29 28/28/28
f 33/33/33 32/32/32 31/31/31
f 34/34/34 33/33/33 31/31/31
f 37/37/37 36/36/36 35/35/35
f 35/35/35 38/38/38 37/37/37
f 35/35/35 39/39/39 38/38/38
f 42/42/42 41/41/41 40/40/40
f 41/41/41 43/43/43 40/40/40
f 40/40/40 43/43/43 44/44/44
f 45/45/45 40/40/40 44/44/44
f 44/44/44 46/46/46 45/45/45
f 46/46/46 47/47/47 45/45/45
f 50/50/50 49/49/49 48/48/48
f 51/51/51 50/50/50 48/48/48
f 54/54/54 53/53/53 52/52/52
f 55/55/55 54/54/54 52/52/52
f 58/58/58 57/57/57 56/56/56
f 59/59/59 58/58/58 56/56/56
f 62/62/62 61/61/61 60/60/60
f 63/63/63 62/62/62 60/60/60
f 66/66/66 65/65/65 64/64/64
f 67/67/67 66/66/66 64/64/64
f 70/70/70 69/69/69 68/68/68
f 71/71/71 70/70/70 68/68/68
f 74/74/74 73/73/73 72/72/72
f 75/75/75 74/74/74 72/72/72
f 78/78/78 77/77/77 76/76/76
f 79/79/79 78/78/78 76/76/76
f 82/82/82 81/81/81 80/80/80
f 83/83/83 82/82/82 80/80/80
f 86/86/86 85/85/85 84/84/84
f 87/87/87 86/86/86 84/84/84
f 90/90/90 89/89/89 88/88/88
f 91/91/91 90/90/90 88/88/88
f 90/90/90 91/91/91 92/92/92
f 91/91/91 93/93/93 92/92/92
f 93/93/93 94/94/94 92/92/92
f 94/94/94 95/95/95 92/92/92
f 95/95/95 97/97/97 96/96/96
f 97/97/97 98/98/98 96/96/96
f 95/95/95 96/96/96 99/99/99
f 100/100/100 95/95/95 99/99/99
f 101/101/101 100/100/100 99/99/99
f 102/102/102 101/101/101 99/99/99
f 103/103/103 101/101/101 102/102/102
f 104/104/104 103/103/103 102/102/102
f 107/107/107 106/106/106 105/105/105
f 108/108/108 107/107/107 105/105/105
f 109/109/109 108/108/108 105/105/105
f 110/110/110 109/109/109 105/105/105
f 111/111/111 109/109/109 110/110/110
f 112/112/112 111/111/111 110/110/110
f 115/115/115 114/114/114 113/113/113
f 116/116/116 115/115/115 113/113/113
f 119/119/119 118/118/118 117/117/117
f 120/120/120 119/119/119 117/117/117
f 123/123/123 122/122/122 121/121/121
f 123/123/123 124/124/124 122/122/122
f 125/125/125 122/122/122 124/124/124
f 126/126/126 125/125/125 124/124/124
f 129/129/129 128/128/128 127/127/127
f 130/130/130 129/129/129 127/127/127
f 133/133/133 132/132/132 131/131/131
f 134/134/134 133/133/133 131/131/131
f 137/137/137 136/136/136 135/135/135
f 138/138/138 137/137/137 135/135/135
f 141/141/141 140/140/140 139/139/139
f 142/142/142 141/141/141 139/139/139
f 145/145/145 144/144/144 143/143/143
f 146/146/146 145/145/145 143/143/143
f 149/149/149 148/148/148 147/147/147
f 150/150/150 149/149/149 147/147/147
f 153/153/153 152/152/152 151/151/151
f 151/151/151 152/152/152 154/154/154
f 157/157/157 156/156/156 155/155/155
f 158/158/158 157/157/157 155/155/155
f 161/161/161 160/160/160 159/159/159
f 162/162/162 161/161/161 159/159/159
f 165/165/165 164/164/164 163/163/163
f 164/164/164 166/166/166 163/163/163
f 167/167/167 166/166/166 164/164/164
f 168/168/168 167/167/167 164/164/164
f 169/169/169 168/168/168 164/164/164
f 170/170/170 168/168/168 169/169/169
f 171/171/171 170/170/170 169/169/169
f 172/172/172 171/171/171 169/169/169
f 175/175/175 174/174/174 173/173/173
f 176/176/176 175/175/175 173/173/173
f 179/179/179 178/178/178 177/177/177
f 180/180/180 179/179/179 177/177/177
f 179/179/179 180/180/180 181/181/181
f 182/182/182 179/179/179 181/181/181
f 183/183/183 182/182/182 181/181/181
f 184/184/184 183/183/183 181/181/181
f 183/183/183 184/184/184 185/185/185
f 184/184/184 186/186/186 185/185/185
f 186/186/186 187/187/187 185/185/185
f 187/187/187 188/188/188 185/185/185
f 191/191/191 190/190/190 189/189/189
f 192/192/192 191/191/191 189/189/189
f 195/195/195 194/194/194 193/193/193
f 196/196/196 195/195/195 193/193/193
f 199/199/199 198/198/198 197/197/197
f 200/200/200 199/199/199 197/197/197
f 203/203/203 202/202/202 201/201/201
f 204/204/204 203/203/203 201/201/201
f 207/207/207 206/206/206 205/205/205
f 208/208/208 207/207/207 205/205/205
f 211/211/211 210/210/210 209/209/209
f 212/212/212 211/211/211 209/209/209
