g Boss_Color_22
v -27.13363 2.89105 6.245918
v 27.13362 2.89115 6.245951
v 27.13363 -2.391076 6.245936
v -27.13363 -2.391181 6.245896
v 27.13364 -2.891055 -0.9505914
v 27.13365 -2.891038 -6.24591
v -27.13362 -2.891134 -6.245951
v -27.13363 -2.891152 -0.9505736
v 27.13363 -2.391076 6.245936
v 27.13363 -2.891076 5.745934
v -27.13363 -2.891178 5.745895
v -27.13363 -2.391181 6.245896
v 27.13364 -2.891055 -0.9505914
v -27.13363 -2.891152 -0.9505736
v -27.13363 -2.891178 5.745895
v 27.13363 -2.891076 5.745934
vt 0.7939956 0.0373543
vt 0.7930504 0.0373543
vt 0.7930504 0.0372587
vt 0.7939956 0.0372587
vt 0.548288 0.0388166
vt 0.548288 0.0388166
vt 0.5489269 0.0388166
vt 0.5489269 0.0388166
vt 0.8157274 0.04034239
vt 0.8157274 0.04032987
vt 0.8174946 0.04032987
vt 0.8174946 0.04034239
vt 0.7923737 0.0375339
vt 0.7925153 0.0375339
vt 0.7925153 0.0375339
vt 0.7923737 0.0375339
vn 0 0 1
vn 0 0 1
vn 0 0 1
vn 0 0 1
vn 0 -1 0
vn 0 -1 0
vn 0 -1 0
vn 0 -1 0
vn 0 -0.7071087 0.7071047
vn 0 -0.7071088 0.7071047
vn 0 -0.7071087 0.7071047
vn 0 -0.7071088 0.7071047
vn 0 -1 0
vn 0 -1 0
vn 0 -1 0
vn 0 -1 0
g Boss_Color_22_0
f 3/3/3 2/2/2 1/1/1
f 4/4/4 3/3/3 1/1/1
f 7/7/7 6/6/6 5/5/5
f 8/8/8 7/7/7 5/5/5
f 11/11/11 10/10/10 9/9/9
f 12/12/12 11/11/11 9/9/9
f 15/15/15 14/14/14 13/13/13
f 16/16/16 15/15/15 13/13/13
