g Boss_Color_186
v 17.30162 -7.485957 2.941258
v 17.18634 -7.485961 2.941293
v 17.62929 -7.485958 2.441277
v -17.29916 -7.486005 2.941262
v -17.62924 -7.486006 2.441281
v -17.18551 -7.486009 2.941296
v -8.62076 -7.486001 2.935489
v -17.29916 -7.486005 2.941262
v -17.18551 -7.486009 2.941296
v 8.708308 -17.52875 2.941215
v 8.398983 -23.29028 3.922505
v 8.398757 -23.29027 2.98925
v -10.54607 -17.515 1.882984
v -19.39764 -17.78404 1.296765
v -18.5521 -15.06211 1.882939
v 17.18634 -7.485948 -2.941322
v 17.30162 -7.485944 -2.94133
v 17.62929 -7.485946 -2.441328
v -17.29916 -7.485991 -2.941335
v -17.18551 -7.485996 -2.941326
v -17.62924 -7.485995 -2.441333
v -8.62076 -7.48599 -2.94133
v -17.18551 -7.485996 -2.941326
v -17.29916 -7.485991 -2.941335
v -10.38958 -17.05768 -3.968579
v -18.39561 -14.60478 -3.968624
v -19.15447 -17.07341 -4.537613
v 8.398753 -23.29027 -3.007099
v 8.39905 -23.29027 -2.073843
v 8.708308 -17.52874 -2.941327
v 17.62932 -15.28127 2.441227
v 16.66173 -17.5283 2.941213
v 17.38894 -15.24871 2.941223
v 17.38696 -15.07208 -2.941327
v 16.59587 -17.52829 -2.025785
v 17.62932 -15.13499 -2.441326
v -18.74742 -14.95835 1.38567
v -19.59462 -17.33689 0.8324351
v -19.39667 -16.75841 -4.0109
v -18.61755 -14.5788 -3.471161
v -19.59462 -17.33689 0.8324351
v -18.74742 -14.95835 1.38567
v -18.5521 -15.06211 1.882939
v -19.39764 -17.78404 1.296765
v 17.12927 1.306453 2.941343
v -17.12927 1.306386 2.941347
v -17.62927 1.806386 2.44135
v 17.62927 1.806456 2.441345
v 17.62929 -7.485958 2.441277
v 17.62929 -7.485946 -2.441328
v 17.62932 -15.13499 -2.441326
v 17.62932 -15.28127 2.441227
v 17.38894 -15.24871 2.941223
v 17.30162 -7.485957 2.941258
v 17.62929 -7.485958 2.441277
v 17.62932 -15.28127 2.441227
v 17.62929 -7.485958 2.441277
v 17.18634 -7.485961 2.941293
v 17.12927 1.306453 2.941343
v 17.62927 1.806456 2.441345
v -17.12927 1.306386 2.941347
v -17.18551 -7.486009 2.941296
v -17.62924 -7.486006 2.441281
v -17.62927 1.806386 2.44135
v -17.62924 -7.486006 2.441281
v -17.29916 -7.486005 2.941262
v -18.5521 -15.06211 1.882939
v -18.74742 -14.95835 1.38567
v -8.704252 -17.52973 2.941216
v -8.62076 -7.486001 2.935489
v 0.002028461 -17.52924 2.941215
v 17.18634 -7.485961 2.941293
v 8.708308 -17.52875 2.941215
v 16.66173 -17.5283 2.941213
v 17.30162 -7.485957 2.941258
v 17.38894 -15.24871 2.941223
v -17.29916 -7.486005 2.941262
v -10.54607 -17.515 1.882984
v -18.5521 -15.06211 1.882939
v -18.74742 -14.95835 1.38567
v -18.61755 -14.5788 -3.471161
v -17.62924 -7.485995 -2.441333
v -17.62924 -7.486006 2.441281
v 16.66173 -17.5283 2.941213
v 17.10859 -22.20906 3.856736
v 8.708308 -17.52875 2.941215
v 9.274879 -24.00188 3.856734
v 8.398983 -23.29028 3.922505
v -8.118161 -23.08686 3.913557
v 0.2503546 -18.96644 2.941198
v 0.3600305 -20.91917 3.913551
v -8.704252 -17.52973 2.941216
v 0.002028461 -17.52924 2.941215
v 8.708308 -17.52875 2.941215
v 3.865112 -24.17321 2.411113
v 1.886424 -27.64061 1.881045
v 8.398757 -23.29027 2.98925
v 7.973045 -27.72408 2.941175
v -8.118161 -23.08686 3.913557
v -8.337509 -24.05008 -1.885425
v -8.704252 -17.52972 -2.941329
v -8.704252 -17.52973 2.941216
v 0.3600305 -20.91917 3.913551
v 0.140684 -21.88237 -1.88542
v -8.337509 -24.05008 -1.885425
v -8.118161 -23.08686 3.913557
v 0.2503546 -18.96644 2.941198
v 0.2503546 -18.96643 -2.941325
v 0.140684 -21.88237 -1.88542
v 0.3600305 -20.91917 3.913551
v 1.886424 -27.64061 1.881045
v 1.804115 -26.24136 -3.832018
v 0.2503546 -18.96643 -2.941325
v 0.2503546 -18.96644 2.941198
v 3.865112 -24.17321 2.411113
v 7.973045 -27.72408 2.941175
v 7.973045 -27.72407 -2.941329
v 3.823958 -23.47358 -3.386671
v -19.39764 -17.78404 1.296765
v -10.54607 -17.515 1.882984
v -10.38958 -17.05768 -3.968579
v -19.15447 -17.07341 -4.537613
v -19.39667 -16.75841 -4.0109
v -19.59462 -17.33689 0.8324351
v -19.39764 -17.78404 1.296765
v -19.15447 -17.07341 -4.537613
v -19.39667 -16.75841 -4.0109
v -19.15447 -17.07341 -4.537613
v -18.39561 -14.60478 -3.968624
v -18.61755 -14.5788 -3.471161
v 17.12927 1.306466 -2.941338
v 17.62927 1.806467 -2.441338
v -17.62927 1.806397 -2.441343
v -17.12927 1.306399 -2.941343
v -17.62924 -7.486006 2.441281
v -17.62924 -7.485995 -2.441333
v -17.62927 1.806397 -2.441343
v -17.62927 1.806386 2.44135
v 17.62929 -7.485946 -2.441328
v 17.30162 -7.485944 -2.94133
v 17.38696 -15.07208 -2.941327
v 17.62932 -15.13499 -2.441326
v 17.62929 -7.485946 -2.441328
v 17.62927 1.806467 -2.441338
v 17.12927 1.306466 -2.941338
v 17.18634 -7.485948 -2.941322
v -17.62924 -7.485995 -2.441333
v -17.18551 -7.485996 -2.941326
v -17.12927 1.306399 -2.941343
v -17.62927 1.806397 -2.441343
v -17.62924 -7.485995 -2.441333
v -18.61755 -14.5788 -3.471161
v -18.39561 -14.60478 -3.968624
v -17.29916 -7.485991 -2.941335
v -8.704252 -17.52972 -2.941329
v 0.002028395 -17.52923 -2.941328
v -8.62076 -7.48599 -2.94133
v 17.18634 -7.485948 -2.941322
v 8.708308 -17.52874 -2.941327
v 8.708315 -17.52874 -2.941327
v 17.30162 -7.485944 -2.94133
v 17.38696 -15.07208 -2.941327
v 17.38696 -15.07208 -2.941327
v 16.59587 -17.52829 -2.025785
v -10.38958 -17.05768 -3.968579
v -17.29916 -7.485991 -2.941335
v -18.39561 -14.60478 -3.968624
v 17.62927 1.806456 2.441345
v -17.62927 1.806386 2.44135
v -17.62927 1.806397 -2.441343
v 17.62927 1.806467 -2.441338
v 17.62929 -7.485958 2.441277
v 17.62927 1.806456 2.441345
v 17.62927 1.806467 -2.441338
v 17.62929 -7.485946 -2.441328
v -8.337509 -24.05008 -1.885425
v 0.140684 -21.88237 -1.88542
v 0.2503546 -18.96643 -2.941325
v -8.704252 -17.52972 -2.941329
v 0.002028395 -17.52923 -2.941328
v 8.708308 -17.52874 -2.941327
v 3.823958 -23.47358 -3.386671
v 1.804115 -26.24136 -3.832018
v 8.398753 -23.29027 -3.007099
v 7.973045 -27.72407 -2.941329
v -10.38958 -17.05768 -3.968579
v -10.54607 -17.515 1.882984
v -8.62076 -7.486001 2.935489
v -8.62076 -7.48599 -2.94133
v -8.704252 -17.52973 2.941216
v -8.704252 -17.52972 -2.941329
v -8.62076 -7.48599 -2.94133
v -8.62076 -7.486001 2.935489
v 17.04356 -22.16193 -2.025786
v 16.59587 -17.52829 -2.025785
v 8.708315 -17.52874 -2.941327
v 8.708308 -17.52874 -2.941327
v 9.275457 -24.00321 -2.025788
v 8.39905 -23.29027 -2.073843
v 8.398757 -23.29027 2.98925
v 8.39905 -23.29027 -2.073843
v 7.973045 -27.72408 2.941175
v 7.973045 -27.72407 -2.941329
v 8.398753 -23.29027 -3.007099
v 17.10859 -22.20906 3.856736
v 17.04356 -22.16193 -2.025786
v 9.275457 -24.00321 -2.025788
v 9.274879 -24.00188 3.856734
v 16.66173 -17.5283 2.941213
v 16.59587 -17.52829 -2.025785
v 17.04356 -22.16193 -2.025786
v 17.10859 -22.20906 3.856736
v 17.62932 -15.13499 -2.441326
v 16.59587 -17.52829 -2.025785
v 16.66173 -17.5283 2.941213
v 17.62932 -15.28127 2.441227
v 9.275457 -24.00321 -2.025788
v 8.39905 -23.29027 -2.073843
v 8.398757 -23.29027 2.98925
v 9.274879 -24.00188 3.856734
v 8.398983 -23.29028 3.922505
v 1.886424 -27.64061 1.881045
v 3.865112 -24.17321 2.411113
v 3.823958 -23.47358 -3.386671
v 1.804115 -26.24136 -3.832018
v 17.12927 1.306453 2.941343
v 17.18634 -7.485961 2.941293
v -8.62076 -7.486001 2.935489
v -17.12927 1.306386 2.941347
v -17.18551 -7.486009 2.941296
v 17.18634 -7.485948 -2.941322
v 17.12927 1.306466 -2.941338
v -8.62076 -7.48599 -2.94133
v -17.12927 1.306399 -2.941343
v -17.18551 -7.485996 -2.941326
vt 0.7480168 0.03699023
vt 0.7480009 0.03894807
vt 0.748069 0.03799944
vt 0.7428728 0.03699008
vt 0.7428203 0.03799941
vt 0.7428885 0.03894801
vt 0.7441617 0.0376428
vt 0.7428732 0.03699016
vt 0.7428885 0.03894801
vt 0.438575 0.03644661
vt 0.4385697 0.03751106
vt 0.4386332 0.03751954
vt 0.4638698 0.03922259
vt 0.4647889 0.03987828
vt 0.4649374 0.03850639
vt 0.7467281 0.03764286
vt 0.7480168 0.03699023
vt 0.748069 0.03799944
vt 0.7428728 0.03699008
vt 0.7428885 0.03894801
vt 0.7428203 0.03799941
vt 0.7441594 0.03699018
vt 0.7428885 0.03894801
vt 0.7428732 0.03699016
vt 0.4638698 0.03922259
vt 0.4649374 0.03850639
vt 0.4647889 0.03987828
vt 0.4386336 0.03752684
vt 0.4385502 0.03751423
vt 0.438575 0.03644661
vt 0.7480668 0.03567199
vt 0.7480276 0.03571869
vt 0.7480276 0.03571869
vt 0.7480274 0.03574566
vt 0.7480668 0.03569491
vt 0.7480668 0.03569491
vt 0.4408872 0.03848571
vt 0.440729 0.03987345
vt 0.440729 0.03987345
vt 0.4408872 0.03848571
vt 0.4858408 0.04005673
vt 0.4856827 0.04144448
vt 0.4857194 0.04149523
vt 0.485868 0.04012334
vt 0.4908525 0.04142392
vt 0.485757 0.04142392
vt 0.4856827 0.04149547
vt 0.4909269 0.04149547
vt 0.7480668 0.0368937
vt 0.7480668 0.0368937
vt 0.7480668 0.03569491
vt 0.7480668 0.03567199
vt 0.7480276 0.03571869
vt 0.7480178 0.03690384
vt 0.7480668 0.0368937
vt 0.7480668 0.03567199
vt 0.4909269 0.04044613
vt 0.490861 0.04040181
vt 0.4908525 0.04142392
vt 0.4909269 0.04149547
vt 0.485757 0.04142392
vt 0.4857486 0.04040175
vt 0.4856827 0.04044613
vt 0.4856827 0.04149547
vt 0.7428225 0.0368937
vt 0.7428718 0.03690368
vt 0.7428592 0.03537043
vt 0.7428225 0.03531968
vt 0.7441521 0.03537049
vt 0.7441583 0.03690372
vt 0.7454449 0.03537055
vt 0.7456208 0.03690377
vt 0.7467377 0.03537061
vt 0.7479187 0.03537067
vt 0.7480178 0.03690384
vt 0.7480276 0.03571869
vt 0.7428718 0.03690368
vt 0.7441038 0.03537049
vt 0.7428592 0.03537043
vt 0.7428225 0.03531968
vt 0.7428225 0.03531968
vt 0.7428225 0.0368937
vt 0.7428225 0.0368937
vt 0.4598779 0.03850616
vt 0.4600963 0.03966036
vt 0.4610589 0.03850621
vt 0.4607254 0.03952685
vt 0.4610536 0.03957066
vt 0.4635762 0.03990602
vt 0.4623154 0.0395947
vt 0.4623148 0.03996778
vt 0.4636446 0.03850633
vt 0.4623518 0.03850627
vt 0.4610589 0.03850621
vt 0.461622 0.04074848
vt 0.4620777 0.04101203
vt 0.4611171 0.03957913
vt 0.4611663 0.04048492
vt 0.4397693 0.03335626
vt 0.4397693 0.03335626
vt 0.439833 0.03097686
vt 0.439833 0.03097686
vt 0.4385955 0.03346125
vt 0.4385955 0.03346125
vt 0.4397693 0.03335626
vt 0.4397693 0.03335626
vt 0.4385961 0.03282705
vt 0.4385961 0.03282705
vt 0.4385955 0.03346125
vt 0.4385955 0.03346125
vt 0.4383748 0.03523645
vt 0.4375848 0.03516605
vt 0.4385961 0.03282705
vt 0.4385961 0.03282705
vt 0.4379508 0.03478841
vt 0.4375268 0.03434037
vt 0.4375268 0.03434037
vt 0.4375558 0.03475321
vt 0.4408978 0.03330912
vt 0.4400425 0.03219447
vt 0.4400425 0.03219447
vt 0.4408978 0.03330912
vt 0.4404669 0.04835806
vt 0.4404669 0.04835806
vt 0.4404669 0.04835806
vt 0.4404669 0.04835806
vt 0.4858408 0.04005673
vt 0.485868 0.04012334
vt 0.4857194 0.04149523
vt 0.4856827 0.04144448
vt 0.4908525 0.04142392
vt 0.4909269 0.04149547
vt 0.4856827 0.04149547
vt 0.485757 0.04142392
vt 0.4408872 0.04149547
vt 0.4408872 0.04149547
vt 0.4408872 0.04044613
vt 0.4408872 0.04044613
vt 0.7480668 0.0368937
vt 0.7480178 0.03690384
vt 0.7480274 0.03574566
vt 0.7480668 0.03569491
vt 0.4909269 0.04044613
vt 0.4909269 0.04149547
vt 0.4908525 0.04142392
vt 0.490861 0.04040181
vt 0.4856827 0.04044613
vt 0.4857486 0.04040175
vt 0.485757 0.04142392
vt 0.4856827 0.04149547
vt 0.7428225 0.0368937
vt 0.7428225 0.03531968
vt 0.7428592 0.03537043
vt 0.7428718 0.03690368
vt 0.7441521 0.03537049
vt 0.7454449 0.03537055
vt 0.7441583 0.03690372
vt 0.7467313 0.0369038
vt 0.7467377 0.03537061
vt 0.7467377 0.03537061
vt 0.7480178 0.03690384
vt 0.7480274 0.03574566
vt 0.7480274 0.03574566
vt 0.7479089 0.03537067
vt 0.7441038 0.03537049
vt 0.7428718 0.03690368
vt 0.7428592 0.03537043
vt 0.4356429 0.04044613
vt 0.4408872 0.04044613
vt 0.4408872 0.04044613
vt 0.4356429 0.04044613
vt 0.4356429 0.04149547
vt 0.4356429 0.04044613
vt 0.4356429 0.04044613
vt 0.4356429 0.04149547
vt 0.4635762 0.03990602
vt 0.4623148 0.03996778
vt 0.4623154 0.0395947
vt 0.4636446 0.03850633
vt 0.4623518 0.03850627
vt 0.4610589 0.03850621
vt 0.4611975 0.04072777
vt 0.4612286 0.04097062
vt 0.4611176 0.03958644
vt 0.4611663 0.04048492
vt 0.6619207 0.01309845
vt 0.6619207 0.01309845
vt 0.6619713 0.01570486
vt 0.6619713 0.01570486
vt 0.6619655 0.01309845
vt 0.6619655 0.01309845
vt 0.6619713 0.01570486
vt 0.6619713 0.01570486
vt 0.460106 0.03964874
vt 0.4598877 0.03850616
vt 0.4610589 0.03850621
vt 0.4610589 0.03850621
vt 0.4607253 0.03952712
vt 0.4610342 0.03957383
vt 0.4386332 0.03751954
vt 0.4386332 0.03751954
vt 0.4386824 0.03842532
vt 0.4386824 0.03842532
vt 0.4386332 0.03751954
vt 0.4376124 0.03760076
vt 0.4376124 0.03760076
vt 0.4382414 0.03746726
vt 0.4382414 0.03746726
vt 0.4373939 0.03644656
vt 0.4373939 0.03644656
vt 0.4376124 0.03760076
vt 0.4376124 0.03760076
vt 0.6628472 0.01425597
vt 0.6628472 0.01425597
vt 0.6628472 0.01423304
vt 0.6628472 0.01423304
vt 0.4382414 0.03746726
vt 0.4385565 0.0375093
vt 0.438563 0.03751018
vt 0.4382414 0.03746726
vt 0.4385697 0.03751106
vt 0.4383748 0.03523645
vt 0.4379508 0.03478841
vt 0.4375558 0.03475321
vt 0.4375848 0.03516605
vt 0.4598041 0.04047331
vt 0.4597956 0.04149541
vt 0.4636298 0.04149546
vt 0.4648996 0.04047331
vt 0.4649079 0.04149547
vt 0.4610737 0.04149543
vt 0.4598041 0.04047331
vt 0.4636298 0.04149546
vt 0.4648996 0.04047331
vt 0.4649079 0.04149547
vn 0.5102698 0.8097283 0.289767
vn 0.6399133 0.4745477 0.6044133
vn 0.8030757 0.04998121 0.5937771
vn -0.4561763 0.8557165 0.2442385
vn -0.8130077 0.08259067 0.5763656
vn -0.6398246 0.4741636 0.6048084
vn -0.003746241 -0.02641695 0.999644
vn -0.01672 -0.1166449 0.9930329
vn 0.0002835714 -0.9088672 0.4170855
vn -0.03585175 0.03154792 0.998859
vn -0.4116279 0.1744485 0.8945
vn -0.5405443 0.03103915 0.8407428
vn -0.02459422 -0.1303546 0.9911623
vn -0.05901569 -0.1926048 0.9795002
vn -0.03707645 -0.1529799 0.9875335
vn 0.6398475 0.4747008 -0.6043626
vn 0.5099382 0.8096766 -0.2904941
vn 0.802668 0.04998615 -0.5943277
vn -0.4695677 0.8429261 -0.2626439
vn -0.6397577 0.47432 -0.6047566
vn -0.7957351 0.1441264 -0.588246
vn 0.003989898 0.02718392 -0.9996225
vn 0 0.998024 -0.06283388
vn 0.01752616 0.1191911 -0.9927166
vn 0.02543956 0.1342976 -0.9906145
vn 0.03934334 0.160778 -0.9862061
vn 0.0630324 0.2057133 -0.9765803
vn 0.506955 -0.02855395 -0.8614994
vn 0.5012646 -0.1550793 -0.8512838
vn 0.0453479 -0.01559008 -0.9988496
vn 0.8596153 -0.2742308 0.4311138
vn 0.8596153 -0.2742308 0.4311138
vn 0.8596153 -0.2742308 0.4311138
vn 0.7950696 -0.4193917 -0.4381494
vn 0.7950696 -0.4193917 -0.4381494
vn 0.7950696 -0.4193917 -0.4381494
vn -0.9719516 0.2351562 -0.003417677
vn -0.9419457 0.3357626 0.001328286
vn -0.9419457 0.3357626 0.001328286
vn -0.9689153 0.2473762 -0.002849688
vn -0.8681856 0.1852943 0.4603474
vn -0.8749279 0.1313055 0.4661116
vn -0.8753445 0.1270705 0.4665031
vn -0.8681856 0.1852943 0.4603474
vn 0 0.7071043 0.7071092
vn 0 0.7071043 0.7071092
vn 0 0.7071043 0.7071092
vn 0 0.7071043 0.7071092
vn 1 0 0
vn 1 0 0
vn 1 0 0
vn 1 0 0
vn 0.8695603 0.004879335 0.4938027
vn 0.5102698 0.8097283 0.289767
vn 0.8030757 0.04998121 0.5937771
vn 0.8695603 0.004879335 0.4938027
vn 0.8030757 0.04998121 0.5937771
vn 0.6399133 0.4745477 0.6044133
vn 0.7269847 0.002290614 0.6866497
vn 0.7269847 0.002290614 0.6866497
vn -0.7267131 0.002254363 0.6869374
vn -0.6398246 0.4741636 0.6048084
vn -0.8130077 0.08259067 0.5763656
vn -0.7267131 0.002254364 0.6869374
vn -0.8130077 0.08259067 0.5763656
vn -0.4561763 0.8557165 0.2442385
vn -0.8753445 0.1270705 0.4665031
vn -0.8749279 0.1313055 0.4661116
vn 0.01219561 0.07630005 0.9970104
vn -0.003746241 -0.02641695 0.999644
vn -6.261081E-05 0.0001765559 1
vn -9.802276E-05 3.558931E-05 1
vn -0.03585175 0.03154792 0.998859
vn 0 0.09055708 0.9958912
vn 0 0 1
vn 0 0 1
vn -0.01672 -0.1166449 0.9930329
vn -0.02459422 -0.1303546 0.9911623
vn -0.03707645 -0.1529799 0.9875335
vn -0.9719516 0.2351562 -0.003417677
vn -0.9689153 0.2473762 -0.002849688
vn -0.9971433 0.07542829 -0.003962856
vn -0.997614 0.06894304 -0.003622147
vn 0 0.09055708 0.9958912
vn -0.0136623 0.1682818 0.9856442
vn -0.03585175 0.03154792 0.998859
vn 0.0525695 0.144356 0.9881284
vn -0.4116279 0.1744485 0.8945
vn 0.005602151 0.2188816 0.9757353
vn -0.01861369 0.0767406 0.9968773
vn -0.1119596 0.4378943 0.8920278
vn 0.01219561 0.07630005 0.9970104
vn -6.261081E-05 0.0001765559 1
vn -0.03585175 0.03154792 0.998859
vn -0.05590558 -0.07302324 0.9957621
vn -0.04000276 -0.1286505 0.9908828
vn -0.5405443 0.03103915 0.8407428
vn -0.1282634 0.009246243 0.9916971
vn -0.996913 -0.07447494 0.02486023
vn -0.996913 -0.07447494 0.02486023
vn -0.996913 -0.07447494 0.02486023
vn -0.996913 -0.07447494 0.02486023
vn 0.2449141 -0.9578957 0.1498427
vn 0.2449141 -0.9578957 0.1498427
vn 0.2449141 -0.9578957 0.1498427
vn 0.2449141 -0.9578957 0.1498427
vn 0.9998067 -0.007560215 -0.01815027
vn 0.9998067 -0.007560215 -0.01815027
vn 0.9998067 -0.007560215 -0.01815027
vn 0.9998067 -0.007560215 -0.01815027
vn -0.9808331 -0.1941532 -0.01646654
vn -0.9808331 -0.1941532 -0.01646654
vn -0.9808331 -0.1941532 -0.01646654
vn -0.9808331 -0.1941532 -0.01646654
vn -0.6836043 -0.7286869 -0.04123918
vn -0.6836043 -0.7286868 -0.04123918
vn -0.6836043 -0.7286869 -0.04123918
vn -0.6836043 -0.7286868 -0.04123917
vn 0.02255222 -0.9948656 -0.09866041
vn 0.02255222 -0.9948656 -0.09866041
vn 0.02255222 -0.9948656 -0.09866042
vn 0.02255222 -0.9948656 -0.09866041
vn -0.8658657 -0.4911606 -0.0950684
vn -0.8658657 -0.4911605 -0.0950684
vn -0.8658657 -0.4911606 -0.0950684
vn -0.8658657 -0.4911606 -0.0950684
vn -0.7901145 0.3767573 -0.4835009
vn -0.7901145 0.3767573 -0.4835008
vn -0.824416 0.2940749 -0.4835889
vn -0.8294371 0.2802169 -0.4832315
vn 0 0.7071073 -0.7071062
vn 0 0.7071073 -0.7071062
vn 0 0.7071074 -0.7071062
vn 0 0.7071074 -0.7071062
vn -0.997614 0.06894304 -0.003622147
vn -0.9971433 0.07542829 -0.003962856
vn -1 0 0
vn -1 0 0
vn 0.802668 0.04998615 -0.5943277
vn 0.5099382 0.8096766 -0.2904941
vn 0.8688875 0.004868232 -0.4949857
vn 0.8688875 0.004868232 -0.4949857
vn 0.802668 0.04998615 -0.5943277
vn 0.7269772 0.002294148 -0.6866577
vn 0.7269772 0.002294148 -0.6866577
vn 0.6398475 0.4747008 -0.6043626
vn -0.7957351 0.1441264 -0.588246
vn -0.6397577 0.47432 -0.6047566
vn -0.7267056 0.002257908 -0.6869454
vn -0.7267056 0.002257908 -0.6869454
vn -0.7957351 0.1441264 -0.588246
vn -0.8294371 0.2802169 -0.4832315
vn -0.824416 0.2940749 -0.4835889
vn -0.4695677 0.8429261 -0.2626439
vn -0.01144573 -0.07133985 -0.9973864
vn 0 0 -1
vn 0.003989898 0.02718392 -0.9996225
vn 0 0 -1
vn 0.0453479 -0.01559008 -0.9988496
vn 0.06182768 -0.01281136 -0.9980046
vn 0 0 -1
vn 0.02850422 -0.1006994 -0.9945084
vn 0 0 -1
vn 0.113084 -0.1955861 -0.9741448
vn 0.02543956 0.1342976 -0.9906145
vn 0.01752616 0.1191911 -0.9927166
vn 0.03934334 0.160778 -0.9862061
vn 0 1 0
vn 0 1 0
vn 0 1 0
vn 0 1 0
vn 1 0 0
vn 1 0 0
vn 1 0 0
vn 1 0 0
vn -0.001122348 -0.2015468 -0.9794782
vn 0.08746371 -0.3420808 -0.9355912
vn 0.01205648 -0.05055256 -0.9986487
vn -0.01144573 -0.07133985 -0.9973864
vn 0 0 -1
vn 0.0453479 -0.01559008 -0.9988496
vn 0.03979202 0.07142387 -0.9966521
vn 0.04040198 0.1299237 -0.9907005
vn 0.506955 -0.02855395 -0.8614994
vn 0.08292248 -0.005979984 -0.996538
vn 0.9825689 -0.1858065 0.005864542
vn 0.9825689 -0.1858065 0.005864541
vn 0.9825689 -0.1858065 0.005864541
vn 0.9825689 -0.1858065 0.005864541
vn -0.9999654 0.008312589 0
vn -0.9999654 0.008312589 0
vn -0.9999654 0.008312589 0
vn -0.9999654 0.008312589 0
vn 0.07961814 -0.05345854 -0.9953909
vn 0.113084 -0.1955861 -0.9741448
vn 0.06182768 -0.01281136 -0.9980046
vn 0.0453479 -0.01559008 -0.9988496
vn -0.002235882 -0.1402062 -0.9901198
vn 0.5012646 -0.1550793 -0.8512838
vn 0.9954222 -0.09557597 5.759722E-05
vn 0.9954222 -0.09557597 5.759722E-05
vn 0.9954222 -0.09557598 5.759722E-05
vn 0.9954217 -0.09557933 -0.0003169425
vn 0.9954217 -0.09557933 -0.0003169425
vn 0.2268523 -0.9739162 -0.005032954
vn 0.2268523 -0.9739162 -0.005032953
vn 0.2268523 -0.9739162 -0.005032953
vn 0.2268523 -0.9739162 -0.005032953
vn 0.9954607 0.09446436 -0.01159833
vn 0.9954607 0.09446436 -0.01159833
vn 0.9954607 0.09446436 -0.01159833
vn 0.9954607 0.09446435 -0.01159833
vn 0.9173269 -0.3979528 -0.0120441
vn 0.9173269 -0.3979528 -0.0120441
vn 0.9173269 -0.3979528 -0.0120441
vn 0.9173269 -0.3979528 -0.0120441
vn -0.6307529 -0.7759838 5.242373E-05
vn -0.6307529 -0.7759838 5.242373E-05
vn -0.6307529 -0.7759838 5.242373E-05
vn -0.6307529 -0.7759838 5.242373E-05
vn -0.6307529 -0.7759838 5.242373E-05
vn 0.8445134 -0.5251765 -0.104818
vn 0.8445134 -0.5251765 -0.104818
vn 0.8445134 -0.5251764 -0.104818
vn 0.8445134 -0.5251764 -0.104818
vn -0.0001779378 -0.0001446681 1
vn -9.802276E-05 3.558931E-05 1
vn -0.003746241 -0.02641695 0.999644
vn 0.0003333562 -0.0003436587 0.9999999
vn 0.0002835714 -0.9088672 0.4170855
vn 0 0 -1
vn 0 0 -1
vn 0.003989898 0.02718392 -0.9996225
vn 0 0 -1
vn 0 0.998024 -0.06283388
g Boss_Color_186_0
f 3/3/3 2/2/2 1/1/1
f 6/6/6 5/5/5 4/4/4
f 9/9/9 8/8/8 7/7/7
f 12/12/12 11/11/11 10/10/10
f 15/15/15 14/14/14 13/13/13
f 18/18/18 17/17/17 16/16/16
f 21/21/21 20/20/20 19/19/19
f 24/24/24 23/23/23 22/22/22
f 27/27/27 26/26/26 25/25/25
f 30/30/30 29/29/29 28/28/28
f 33/33/33 32/32/32 31/31/31
f 36/36/36 35/35/35 34/34/34
f 39/39/39 38/38/38 37/37/37
f 40/40/40 39/39/39 37/37/37
f 43/43/43 42/42/42 41/41/41
f 44/44/44 43/43/43 41/41/41
f 47/47/47 46/46/46 45/45/45
f 48/48/48 47/47/47 45/45/45
f 51/51/51 50/50/50 49/49/49
f 52/52/52 51/51/51 49/49/49
f 55/55/55 54/54/54 53/53/53
f 56/56/56 55/55/55 53/53/53
f 59/59/59 58/58/58 57/57/57
f 60/60/60 59/59/59 57/57/57
f 63/63/63 62/62/62 61/61/61
f 64/64/64 63/63/63 61/61/61
f 67/67/67 66/66/66 65/65/65
f 68/68/68 67/67/67 65/65/65
f 71/71/71 70/70/70 69/69/69
f 72/72/72 70/70/70 71/71/71
f 73/73/73 72/72/72 71/71/71
f 72/72/72 73/73/73 74/74/74
f 75/75/75 72/72/72 74/74/74
f 74/74/74 76/76/76 75/75/75
f 78/78/78 70/70/70 77/77/77
f 79/79/79 78/78/78 77/77/77
f 82/82/82 81/81/81 80/80/80
f 83/83/83 82/82/82 80/80/80
f 86/86/86 85/85/85 84/84/84
f 87/87/87 85/85/85 86/86/86
f 87/87/87 86/86/86 88/88/88
f 91/91/91 90/90/90 89/89/89
f 92/92/92 89/89/89 90/90/90
f 93/93/93 92/92/92 90/90/90
f 94/94/94 93/93/93 90/90/90
f 95/95/95 94/94/94 90/90/90
f 96/96/96 95/95/95 90/90/90
f 97/97/97 94/94/94 95/95/95
f 98/98/98 97/97/97 95/95/95
f 101/101/101 100/100/100 99/99/99
f 102/102/102 101/101/101 99/99/99
f 105/105/105 104/104/104 103/103/103
f 106/106/106 105/105/105 103/103/103
f 109/109/109 108/108/108 107/107/107
f 110/110/110 109/109/109 107/107/107
f 113/113/113 112/112/112 111/111/111
f 114/114/114 113/113/113 111/111/111
f 117/117/117 116/116/116 115/115/115
f 118/118/118 117/117/117 115/115/115
f 121/121/121 120/120/120 119/119/119
f 122/122/122 121/121/121 119/119/119
f 125/125/125 124/124/124 123/123/123
f 126/126/126 125/125/125 123/123/123
f 129/129/129 128/128/128 127/127/127
f 130/130/130 129/129/129 127/127/127
f 133/133/133 132/132/132 131/131/131
f 134/134/134 133/133/133 131/131/131
f 137/137/137 136/136/136 135/135/135
f 138/138/138 137/137/137 135/135/135
f 141/141/141 140/140/140 139/139/139
f 142/142/142 141/141/141 139/139/139
f 145/145/145 144/144/144 143/143/143
f 146/146/146 145/145/145 143/143/143
f 149/149/149 148/148/148 147/147/147
f 150/150/150 149/149/149 147/147/147
f 153/153/153 152/152/152 151/151/151
f 154/154/154 153/153/153 151/151/151
f 157/157/157 156/156/156 155/155/155
f 158/158/158 156/156/156 157/157/157
f 158/158/158 159/159/159 156/156/156
f 160/160/160 159/159/159 158/158/158
f 160/160/160 158/158/158 161/161/161
f 162/162/162 160/160/160 161/161/161
f 161/161/161 163/163/163 162/162/162
f 160/160/160 162/162/162 164/164/164
f 166/166/166 157/157/157 165/165/165
f 167/167/167 166/166/166 165/165/165
f 170/170/170 169/169/169 168/168/168
f 171/171/171 170/170/170 168/168/168
f 174/174/174 173/173/173 172/172/172
f 175/175/175 174/174/174 172/172/172
f 178/178/178 177/177/177 176/176/176
f 176/176/176 179/179/179 178/178/178
f 179/179/179 180/180/180 178/178/178
f 180/180/180 181/181/181 178/178/178
f 181/181/181 182/182/182 178/178/178
f 182/182/182 183/183/183 178/178/178
f 182/182/182 181/181/181 184/184/184
f 185/185/185 182/182/182 184/184/184
f 188/188/188 187/187/187 186/186/186
f 189/189/189 188/188/188 186/186/186
f 192/192/192 191/191/191 190/190/190
f 193/193/193 192/192/192 190/190/190
f 196/196/196 195/195/195 194/194/194
f 197/197/197 196/196/196 194/194/194
f 197/197/197 194/194/194 198/198/198
f 198/198/198 199/199/199 197/197/197
f 202/202/202 201/201/201 200/200/200
f 203/203/203 201/201/201 202/202/202
f 204/204/204 201/201/201 203/203/203
f 207/207/207 206/206/206 205/205/205
f 208/208/208 207/207/207 205/205/205
f 211/211/211 210/210/210 209/209/209
f 212/212/212 211/211/211 209/209/209
f 215/215/215 214/214/214 213/213/213
f 216/216/216 215/215/215 213/213/213
f 219/219/219 218/218/218 217/217/217
f 217/217/217 220/220/220 219/219/219
f 220/220/220 221/221/221 219/219/219
f 224/224/224 223/223/223 222/222/222
f 225/225/225 224/224/224 222/222/222
f 228/228/228 227/227/227 226/226/226
f 229/229/229 228/228/228 226/226/226
f 230/230/230 228/228/228 229/229/229
f 233/233/233 232/232/232 231/231/231
f 234/234/234 232/232/232 233/233/233
f 235/235/235 234/234/234 233/233/233
