g Boss_Color_107
v -4.648791 0.1664249 3.968927
v -6.620359 1.92652 5.726372
v -6.598027 2.576839 6.003111
v 3.21048 -6.848009 2.624878
v 0.8945902 -4.781344 2.168253
v 3.912488 -6.804331 2.697528
v -2.972914 6.638809 6.001786
v -6.598027 2.576839 6.003111
v -7.402265 3.293777 3.539672
v -3.777154 7.355746 3.538347
v -3.88606 7.452105 0.9848934
v -7.511173 3.390136 0.9862171
v -6.897152 2.839816 -6.161859
v -3.272038 6.901786 -6.163186
v -7.372658 2.597153 3.422033
v -6.620359 1.92652 5.726372
v -4.648791 0.1664249 3.968927
v -5.071383 0.5431426 2.674502
v -7.472138 2.685151 1.024577
v -5.138213 0.6023232 1.264515
v -6.85933 2.135919 -6.106198
v -4.553514 0.07821178 -5.760777
v 3.912488 -6.804331 2.697528
v 7.537601 -2.74236 2.696203
v 8.113888 -3.259006 -4.457525
v 4.488775 -7.320976 -4.456199
v 0.8945902 -4.781344 2.168253
v 3.21048 -6.848009 2.624878
v 3.785106 -7.363167 -4.511616
v 1.479289 -5.305457 -4.857037
v -1.113348 4.978155 2.673055
v -4.648791 0.1664249 3.968927
v -0.6907566 4.601438 3.96748
v -5.071383 0.5431426 2.674502
v -1.180176 5.037336 1.263068
v -5.138213 0.6023232 1.264515
v -0.5954766 4.513223 -5.762227
v -4.553514 0.07821178 -5.760777
v 4.852626 -0.3463323 2.166806
v 0.8945902 -4.781344 2.168253
v 1.479289 -5.305457 -4.857037
v 5.437325 -0.8704441 -4.858487
v 4.815685 -7.614029 -8.440033
v 4.488775 -7.320976 -4.456199
v 8.113888 -3.259006 -4.457525
v 8.440797 -3.552058 -8.441358
v -2.935931 6.600527 -10.14564
v -3.272038 6.901786 -6.163186
v -6.897152 2.839816 -6.161859
v -6.561043 2.538555 -10.14431
v 1.810799 -5.602613 -8.840182
v 1.479289 -5.305457 -4.857037
v 3.785106 -7.363167 -4.511616
v 4.112016 -7.65622 -8.495449
v -4.222004 -0.218945 -9.74392
v -4.553514 0.07821178 -5.760777
v -0.5954766 4.513223 -5.762227
v -0.2639676 4.216067 -9.745367
v 5.768833 -1.167601 -8.841625
v 5.437325 -0.8704441 -4.858487
v 1.479289 -5.305457 -4.857037
v 1.810799 -5.602613 -8.840182
v -6.523222 1.834659 -10.08865
v -6.85933 2.135919 -6.106198
v -4.553514 0.07821178 -5.760777
v -4.222004 -0.218945 -9.74392
v -7.402265 3.293777 3.539672
v -6.598027 2.576839 6.003111
v -6.620359 1.92652 5.726372
v -7.372658 2.597153 3.422033
v -7.511173 3.390136 0.9862171
v -7.472138 2.685151 1.024577
v 3.912488 -6.804331 2.697528
v 4.488775 -7.320976 -4.456199
v 3.785106 -7.363167 -4.511616
v 3.21048 -6.848009 2.624878
v -7.472138 2.685151 1.024577
v -6.85933 2.135919 -6.106198
v -6.897152 2.839816 -6.161859
v -7.511173 3.390136 0.9862171
v 4.488775 -7.320976 -4.456199
v 4.815685 -7.614029 -8.440033
v 4.112016 -7.65622 -8.495449
v 3.785106 -7.363167 -4.511616
v -6.85933 2.135919 -6.106198
v -6.523222 1.834659 -10.08865
v -6.561043 2.538555 -10.14431
v -6.897152 2.839816 -6.161859
v -0.6907566 4.601438 3.96748
v -4.648791 0.1664249 3.968927
v -6.598027 2.576839 6.003111
v -2.972914 6.638809 6.001786
v 4.852626 -0.3463323 2.166806
v 7.537601 -2.74236 2.696203
v 3.912488 -6.804331 2.697528
v 0.8945902 -4.781344 2.168253
vt 0.7613391 0.003626995
vt 0.761381 0.003885172
vt 0.761339 0.003627516
vt 0.7613389 0.003941309
vt 0.7608965 0.00254865
vt 0.7613812 0.003993016
vt 0.7939885 0.0356778
vt 0.7939191 0.0356778
vt 0.7939019 0.03563385
vt 0.7939714 0.03563385
vt 0.7939659 0.03558625
vt 0.7938965 0.03558625
vt 0.7938968 0.03545042
vt 0.7939662 0.03545042
vt 0.7939016 0.03563062
vt 0.7939176 0.03567173
vt 0.7939486 0.03563322
vt 0.7939395 0.03561013
vt 0.7938965 0.03558592
vt 0.7939364 0.03558386
vt 0.7938968 0.03545042
vt 0.7939364 0.03545042
vt 0.794093 0.03558625
vt 0.7941623 0.03558625
vt 0.794162 0.03545042
vt 0.7940926 0.03545042
vt 0.7940402 0.0355845
vt 0.7940802 0.03558592
vt 0.7940798 0.03545042
vt 0.7940402 0.03545106
vt 0.7940153 0.03561013
vt 0.7939486 0.03563322
vt 0.7940244 0.03563322
vt 0.7939395 0.03561013
vt 0.7940122 0.03558386
vt 0.7939364 0.03558386
vt 0.7940122 0.03545042
vt 0.7939364 0.03545042
vt 0.794116 0.0355845
vt 0.7940402 0.0355845
vt 0.7940402 0.03545106
vt 0.794116 0.03545106
vt 0.5534536 0.03416087
vt 0.553454 0.03416122
vt 0.5531515 0.03447546
vt 0.5531512 0.0344751
vt 0.552299 0.03358954
vt 0.5522987 0.03358918
vt 0.552601 0.03327495
vt 0.5526014 0.03327531
vt 0.5532812 0.03392403
vt 0.5532812 0.03392403
vt 0.553454 0.03410351
vt 0.5534536 0.03410315
vt 0.5491913 0.03779219
vt 0.5491913 0.03779219
vt 0.5491418 0.03784361
vt 0.5491418 0.03784361
vt 0.5492095 0.037914
vt 0.5492095 0.037914
vt 0.549259 0.03786258
vt 0.549259 0.03786258
vt 0.5526569 0.03327531
vt 0.5526566 0.03327495
vt 0.5528293 0.03345443
vt 0.5528293 0.03345443
vt 0.8166535 0.03581115
vt 0.8166915 0.03596215
vt 0.8166881 0.03594131
vt 0.8166527 0.03580005
vt 0.8166414 0.03564763
vt 0.8166414 0.0356465
vt 0.8170758 0.03564762
vt 0.8170751 0.03518099
vt 0.8170469 0.03518099
vt 0.8170476 0.0356465
vt 0.8166414 0.0356465
vt 0.8166422 0.03518099
vt 0.8166422 0.03518099
vt 0.8166414 0.03564763
vt 0.5551378 0.03415888
vt 0.5551863 0.03415883
vt 0.5551863 0.03415026
vt 0.5551378 0.03415031
vt 0.5543416 0.03332179
vt 0.5543416 0.03327322
vt 0.554333 0.03327322
vt 0.554333 0.03332179
vt 0.7608967 0.002656493
vt 0.7613394 0.003473811
vt 0.761339 0.003627516
vt 0.7613394 0.00358763
vt 0.7608969 0.002747118
vt 0.761339 0.003941584
vt 0.7613387 0.003981471
vt 0.7608965 0.00254865
vn 0.413256 -0.3685423 0.832704
vn 0.413256 -0.3685423 0.832704
vn 0.413256 -0.3685423 0.832704
vn -0.1084286 0.09709064 0.9893516
vn -0.1084286 0.09709064 0.9893516
vn -0.1084286 0.09709065 0.9893516
vn -0.6835049 0.6101257 0.4007092
vn -0.6835048 0.6101257 0.4007092
vn -0.725615 0.647652 0.232443
vn -0.7256148 0.6476521 0.2324432
vn -0.7457792 0.6655627 -0.02897454
vn -0.7457793 0.6655628 -0.02897462
vn -0.7412761 0.6615162 -0.113604
vn -0.7412761 0.6615162 -0.113604
vn -0.6658456 -0.7460895 0.0002438204
vn -0.6658455 -0.7460896 0.00024398
vn -0.6658455 -0.7460896 0.00024398
vn -0.6658456 -0.7460896 0.00024382
vn -0.6658458 -0.7460895 0.0002438694
vn -0.6658457 -0.7460893 0.0002438565
vn -0.6658458 -0.7460893 0.0002439486
vn -0.6658457 -0.7460893 0.0002439484
vn 0.7417767 -0.6619649 0.1075631
vn 0.7417767 -0.6619649 0.1075631
vn 0.7416967 -0.6618931 0.1085517
vn 0.7416967 -0.6618931 0.1085517
vn -0.6658463 -0.7460889 0.0002440418
vn -0.6658463 -0.7460889 0.0002440418
vn -0.6658463 -0.7460889 0.0002439411
vn -0.6658463 -0.7460888 0.000243941
vn 0.7250609 -0.6471589 -0.2355246
vn 0.6835046 -0.6101257 -0.4007096
vn 0.6835045 -0.6101257 -0.4007096
vn 0.7250611 -0.647159 -0.2355243
vn 0.7458761 -0.6656508 0.02403899
vn 0.7458761 -0.6656508 0.02403905
vn 0.7414886 -0.661707 0.1110783
vn 0.7414886 -0.661707 0.1110783
vn -0.7414888 0.661707 -0.1110782
vn -0.7414888 0.6617069 -0.1110782
vn -0.7414889 0.6617069 -0.1110782
vn -0.7414888 0.6617069 -0.1110782
vn 0.741616 -0.6618207 0.1095402
vn 0.7416967 -0.6618931 0.1085517
vn 0.7416967 -0.6618931 0.1085517
vn 0.741616 -0.6618207 0.1095402
vn -0.7413599 0.6615914 -0.112616
vn -0.7412761 0.6615162 -0.113604
vn -0.7412761 0.6615162 -0.113604
vn -0.7413599 0.6615914 -0.112616
vn -0.6658464 -0.7460887 0.0002438402
vn -0.6658463 -0.7460888 0.000243941
vn -0.6658463 -0.7460889 0.0002439411
vn -0.6658464 -0.7460887 0.0002438402
vn 0.7414886 -0.661707 0.1110784
vn 0.7414886 -0.661707 0.1110783
vn 0.7414886 -0.661707 0.1110783
vn 0.7414886 -0.661707 0.1110784
vn -0.7414889 0.6617069 -0.1110783
vn -0.7414888 0.6617069 -0.1110782
vn -0.7414889 0.6617069 -0.1110782
vn -0.7414889 0.6617069 -0.1110783
vn -0.6658458 -0.7460893 0.0002438308
vn -0.6658458 -0.7460893 0.0002439486
vn -0.6658457 -0.7460893 0.0002439484
vn -0.6658458 -0.7460893 0.0002438308
vn -0.9838688 -0.07055992 0.1643884
vn -0.9542035 -0.08879758 0.2856759
vn -0.9542035 -0.08879758 0.2856759
vn -0.9839385 -0.07049982 0.1639965
vn -0.9982154 -0.05560274 -0.02178044
vn -0.9982783 -0.05542114 -0.01920661
vn 0.05387592 -0.9956339 0.07622731
vn 0.05372734 -0.9955881 0.0769275
vn 0.053727 -0.9955879 0.07692911
vn 0.05387592 -0.9956339 0.07622731
vn -0.9982783 -0.05542114 -0.01920661
vn -0.9949908 -0.0597116 -0.08017331
vn -0.9949906 -0.05971151 -0.08017495
vn -0.9982154 -0.05560274 -0.02178044
vn 0.05372734 -0.9955881 0.0769275
vn 0.05357839 -0.9955416 0.07762922
vn 0.05357839 -0.9955416 0.07762922
vn 0.053727 -0.9955879 0.07692911
vn -0.9949908 -0.0597116 -0.08017331
vn -0.9950458 -0.05974944 -0.0794593
vn -0.9950458 -0.05974944 -0.07945931
vn -0.9949906 -0.05971151 -0.08017495
vn 0.4132577 -0.368541 0.8327038
vn 0.4132577 -0.368541 0.8327038
vn 0.4132577 -0.3685409 0.8327038
vn 0.4132577 -0.3685409 0.8327038
vn -0.1084289 0.09709035 0.9893516
vn -0.1084289 0.09709035 0.9893516
vn -0.1084289 0.09709035 0.9893516
vn -0.1084289 0.09709035 0.9893516
g Boss_Color_107_0
f 3/3/3 2/2/2 1/1/1
f 6/6/6 5/5/5 4/4/4
f 9/9/9 8/8/8 7/7/7
f 10/10/10 9/9/9 7/7/7
f 9/9/9 10/10/10 11/11/11
f 12/12/12 9/9/9 11/11/11
f 13/13/13 12/12/12 11/11/11
f 14/14/14 13/13/13 11/11/11
f 17/17/17 16/16/16 15/15/15
f 18/18/18 17/17/17 15/15/15
f 18/18/18 15/15/15 19/19/19
f 20/20/20 18/18/18 19/19/19
f 19/19/19 21/21/21 20/20/20
f 21/21/21 22/22/22 20/20/20
f 25/25/25 24/24/24 23/23/23
f 26/26/26 25/25/25 23/23/23
f 29/29/29 28/28/28 27/27/27
f 30/30/30 29/29/29 27/27/27
f 33/33/33 32/32/32 31/31/31
f 32/32/32 34/34/34 31/31/31
f 31/31/31 34/34/34 35/35/35
f 34/34/34 36/36/36 35/35/35
f 37/37/37 35/35/35 36/36/36
f 38/38/38 37/37/37 36/36/36
f 41/41/41 40/40/40 39/39/39
f 42/42/42 41/41/41 39/39/39
f 45/45/45 44/44/44 43/43/43
f 46/46/46 45/45/45 43/43/43
f 49/49/49 48/48/48 47/47/47
f 50/50/50 49/49/49 47/47/47
f 53/53/53 52/52/52 51/51/51
f 54/54/54 53/53/53 51/51/51
f 57/57/57 56/56/56 55/55/55
f 58/58/58 57/57/57 55/55/55
f 61/61/61 60/60/60 59/59/59
f 62/62/62 61/61/61 59/59/59
f 65/65/65 64/64/64 63/63/63
f 66/66/66 65/65/65 63/63/63
f 69/69/69 68/68/68 67/67/67
f 70/70/70 69/69/69 67/67/67
f 70/70/70 67/67/67 71/71/71
f 72/72/72 70/70/70 71/71/71
f 75/75/75 74/74/74 73/73/73
f 76/76/76 75/75/75 73/73/73
f 79/79/79 78/78/78 77/77/77
f 80/80/80 79/79/79 77/77/77
f 83/83/83 82/82/82 81/81/81
f 84/84/84 83/83/83 81/81/81
f 87/87/87 86/86/86 85/85/85
f 88/88/88 87/87/87 85/85/85
f 91/91/91 90/90/90 89/89/89
f 92/92/92 91/91/91 89/89/89
f 95/95/95 94/94/94 93/93/93
f 96/96/96 95/95/95 93/93/93
