g Boss_Color_24
v 2.318148 5.214472 -0.248515
v 1.952857 5.214472 0.1577655
v 2.318148 5.499824 0.1577668
v -8.730688 16.62854 11.04677
v -8.730686 16.34319 11.45305
v -9.095979 16.34319 11.04677
v 2.318137 16.3432 11.04677
v 1.952848 16.3432 11.45305
v 1.952847 16.62856 11.04678
v 1.952857 5.214436 11.04674
v 1.952857 5.499788 11.45302
v 2.318147 5.499789 11.04674
v -9.09597 5.499778 11.04674
v -8.730679 5.499777 11.45302
v -8.730679 5.214425 11.04674
v -8.730662 -10.8458 11.04669
v -8.730661 -11.13116 11.45297
v -9.095952 -11.13116 11.04669
v 2.318169 -11.13113 11.04669
v 1.952878 -11.13114 11.45297
v 1.952879 -10.84578 11.04669
v -9.095992 16.62859 -7.444964
v -8.730688 16.62854 11.04677
v -9.095979 16.34319 11.04677
v -8.730686 16.34319 11.45305
v 1.952848 16.3432 11.45305
v 1.952857 5.499788 11.45302
v -8.730679 5.499777 11.45302
v 2.318148 5.499824 0.1577668
v 2.318139 16.34324 0.157803
v 15.87375 16.34326 0.1578054
v 15.87375 5.49984 0.1577693
v -9.095992 16.62859 -7.444964
v -9.095995 16.6286 -11.45294
v 15.87375 16.62865 -11.45293
v 15.87375 16.62864 -7.444972
v 1.952889 -23.40644 11.45293
v -8.730654 -23.40645 11.45292
v -8.730661 -11.13116 11.45297
v 1.952878 -11.13114 11.45297
v 2.318154 5.214506 -11.45297
v 2.318181 -23.40636 -11.45306
v 2.318182 -23.40637 -7.445102
v 2.318152 5.214494 -7.445006
v 15.87376 5.214514 -7.445011
v 15.87376 5.214526 -11.45297
v 2.318154 5.214506 -11.45297
v 2.318152 5.214494 -7.445006
v 1.952875 -10.84574 0.1577168
v -8.730665 -10.84576 0.1577133
v -8.730678 5.214457 0.1577639
v 1.952857 5.214472 0.1577655
v -9.095943 -23.40639 -7.445098
v -9.095942 -23.40637 -11.45306
v -9.095995 16.6286 -11.45294
v -9.095992 16.62859 -7.444964
v 2.318139 16.34324 0.157803
v 2.318148 5.499824 0.1577668
v 2.318147 5.499789 11.04674
v 2.318137 16.3432 11.04677
v 1.952857 5.214472 0.1577655
v -8.730678 5.214457 0.1577639
v -8.730679 5.214425 11.04674
v 1.952857 5.214436 11.04674
v -9.095969 5.446644 -0.07841895
v -9.095992 16.62859 -7.444964
v -9.095979 16.34319 11.04677
v -9.09597 5.499778 11.04674
v -8.730665 -10.84576 0.1577133
v 1.952875 -10.84574 0.1577168
v 1.952879 -10.84578 11.04669
v -8.730662 -10.8458 11.04669
v 2.318167 -11.08508 -0.06352073
v 2.31818 -23.40643 11.04665
v 2.318169 -11.13113 11.04669
v 2.318182 -23.40637 -7.445102
v 2.318152 5.214494 -7.445006
v 2.318148 5.214472 -0.248515
v 2.318139 16.34324 0.157803
v 1.944423 16.62859 -0.2223503
v 15.87374 16.62861 -0.2484747
v 15.87375 16.34326 0.1578054
v 1.952857 5.214472 0.1577655
v 2.318148 5.214472 -0.248515
v 2.318167 -11.08508 -0.06352073
v 1.952875 -10.84574 0.1577168
v 15.87375 5.49984 0.1577693
v 15.87376 5.214489 -0.2485126
v 2.318148 5.214472 -0.248515
v 2.318148 5.499824 0.1577668
v -8.730665 -10.84576 0.1577133
v -9.095955 -11.0851 -0.06352421
v -9.095969 5.446644 -0.07841895
v -8.730678 5.214457 0.1577639
v -8.730686 16.34319 11.45305
v -8.730688 16.62854 11.04677
v 1.952847 16.62856 11.04678
v 1.952848 16.3432 11.45305
v 1.952848 16.3432 11.45305
v 2.318137 16.3432 11.04677
v 2.318147 5.499789 11.04674
v 1.952857 5.499788 11.45302
v 1.952857 5.499788 11.45302
v 1.952857 5.214436 11.04674
v -8.730679 5.214425 11.04674
v -8.730679 5.499777 11.45302
v -8.730679 5.499777 11.45302
v -9.09597 5.499778 11.04674
v -9.095979 16.34319 11.04677
v -8.730686 16.34319 11.45305
v 1.944423 16.62859 -0.2223503
v 2.318139 16.34324 0.157803
v 2.318137 16.3432 11.04677
v 1.952847 16.62856 11.04678
v 2.318148 5.499824 0.1577668
v 1.952857 5.214472 0.1577655
v 1.952857 5.214436 11.04674
v 2.318147 5.499789 11.04674
v -8.730678 5.214457 0.1577639
v -9.095969 5.446644 -0.07841895
v -9.09597 5.499778 11.04674
v -8.730679 5.214425 11.04674
v -8.730654 -23.40645 11.45292
v -9.095942 -23.40644 11.04665
v -9.095952 -11.13116 11.04669
v -8.730661 -11.13116 11.45297
v -8.730661 -11.13116 11.45297
v -8.730662 -10.8458 11.04669
v 1.952879 -10.84578 11.04669
v 1.952878 -11.13114 11.45297
v 1.952878 -11.13114 11.45297
v 2.318169 -11.13113 11.04669
v 2.31818 -23.40643 11.04665
v 1.952889 -23.40644 11.45293
v -9.095955 -11.0851 -0.06352421
v -8.730665 -10.84576 0.1577133
v -8.730662 -10.8458 11.04669
v -9.095952 -11.13116 11.04669
v 1.952875 -10.84574 0.1577168
v 2.318167 -11.08508 -0.06352073
v 2.318169 -11.13113 11.04669
v 1.952879 -10.84578 11.04669
v 15.87375 16.62864 -7.444972
v 15.87374 16.62861 -0.2484747
v 1.944423 16.62859 -0.2223503
v -9.095992 16.62859 -7.444964
v 15.87376 5.214514 -7.445011
v 2.318152 5.214494 -7.445006
v 2.318148 5.214472 -0.248515
v 15.87376 5.214489 -0.2485126
v -9.095992 16.62859 -7.444964
v -9.095969 5.446644 -0.07841895
v -9.095955 -11.0851 -0.06352421
v -9.095943 -23.40639 -7.445098
v -9.095942 -23.40644 11.04665
v -9.095943 -23.40639 -7.445098
v -9.095952 -11.13116 11.04669
v -8.730688 16.62854 11.04677
v -9.095992 16.62859 -7.444964
v 1.944423 16.62859 -0.2223503
v 1.952847 16.62856 11.04678
vt 0.8168807 0.04054261
vt 0.8168926 0.04054261
vt 0.8168807 0.04054975
vt 0.8172405 0.04082854
vt 0.8172405 0.04082139
vt 0.8172525 0.04082139
vt 0.8168807 0.04082139
vt 0.8168926 0.04082139
vt 0.8168926 0.04082854
vt 0.8168926 0.04054261
vt 0.8168926 0.04054975
vt 0.8168807 0.04054975
vt 0.8172525 0.04054975
vt 0.8172405 0.04054975
vt 0.8172405 0.04054261
vt 0.8172405 0.04014029
vt 0.8172405 0.04013314
vt 0.8172525 0.04013314
vt 0.8168807 0.04013314
vt 0.8168926 0.04013314
vt 0.8168926 0.04014029
vt 0.8171241 0.04082854
vt 0.8172405 0.04082854
vt 0.8172525 0.04082139
vt 0.7935833 0.03708806
vt 0.7933972 0.03708806
vt 0.7933972 0.03689181
vt 0.7935833 0.03689181
vt 0.7687194 0.04204911
vt 0.7687194 0.04224536
vt 0.7684833 0.04224536
vt 0.7684833 0.04204911
vt 0.5529684 0.03645821
vt 0.5532779 0.0364582
vt 0.5513165 0.03645821
vt 0.5513165 0.03645821
vt 0.7933972 0.03636866
vt 0.7935833 0.03636866
vt 0.7935833 0.03659082
vt 0.7933972 0.03659082
vt 0.5523813 0.03552653
vt 0.5523813 0.03319035
vt 0.5523813 0.03354427
vt 0.5523813 0.03552653
vt 0.5510195 0.03577038
vt 0.5510195 0.03577038
vt 0.5520843 0.03577038
vt 0.5520843 0.03577038
vt 0.7687258 0.04175329
vt 0.7689119 0.04175329
vt 0.7689119 0.04204395
vt 0.7687258 0.04204395
vt 0.5532779 0.03354427
vt 0.5532779 0.03319035
vt 0.5532779 0.0364582
vt 0.5529684 0.03645821
vt 0.7952856 0.03718054
vt 0.7953101 0.0368404
vt 0.7956516 0.03686504
vt 0.7956271 0.03720516
vt 0.795711 0.03665002
vt 0.7960442 0.03660678
vt 0.7960883 0.03694637
vt 0.7957551 0.03698963
vt 0.7935897 0.03689085
vt 0.793521 0.03709322
vt 0.7935897 0.03708806
vt 0.7935897 0.03689181
vt 0.7960883 0.03631438
vt 0.7957551 0.03635759
vt 0.795711 0.03601799
vt 0.7960443 0.03597477
vt 0.7933909 0.03659165
vt 0.7933909 0.03636866
vt 0.7933909 0.03659082
vt 0.7933909 0.03644713
vt 0.7933909 0.03688665
vt 0.7933909 0.03688665
vt 0.8168807 0.04082139
vt 0.8168929 0.04082854
vt 0.8164393 0.04082854
vt 0.8164393 0.04082139
vt 0.8168926 0.04054261
vt 0.8168807 0.04054261
vt 0.8168807 0.04013429
vt 0.8168926 0.04014029
vt 0.8164393 0.04054975
vt 0.8164393 0.04054261
vt 0.8168807 0.04054261
vt 0.8168807 0.04054975
vt 0.8172405 0.04014029
vt 0.8172525 0.04013429
vt 0.8172525 0.04054842
vt 0.8172405 0.04054261
vt 0.8172405 0.04082139
vt 0.8172405 0.04082854
vt 0.8168926 0.04082854
vt 0.8168926 0.04082139
vt 0.8168926 0.04082139
vt 0.8168807 0.04082139
vt 0.8168807 0.04054975
vt 0.8168926 0.04054975
vt 0.8168926 0.04054975
vt 0.8168926 0.04054261
vt 0.8172405 0.04054261
vt 0.8172405 0.04054975
vt 0.8172405 0.04054975
vt 0.8172525 0.04054975
vt 0.8172525 0.04082139
vt 0.8172405 0.04082139
vt 0.8168929 0.04082854
vt 0.8168807 0.04082139
vt 0.8168807 0.04082139
vt 0.8168926 0.04082854
vt 0.8168807 0.04054975
vt 0.8168926 0.04054261
vt 0.8168926 0.04054261
vt 0.8168807 0.04054975
vt 0.8172405 0.04054261
vt 0.8172525 0.04054842
vt 0.8172525 0.04054975
vt 0.8172405 0.04054261
vt 0.8172405 0.03982564
vt 0.8172525 0.03982564
vt 0.8172525 0.04013314
vt 0.8172405 0.04013314
vt 0.8172405 0.04013314
vt 0.8172405 0.04014029
vt 0.8168926 0.04014029
vt 0.8168926 0.04013314
vt 0.8168926 0.04013314
vt 0.8168807 0.04013314
vt 0.8168807 0.03982564
vt 0.8168926 0.03982564
vt 0.8172525 0.04013429
vt 0.8172405 0.04014029
vt 0.8172405 0.04014029
vt 0.8172525 0.04013314
vt 0.8168926 0.04014029
vt 0.8168807 0.04013429
vt 0.8168807 0.04013314
vt 0.8168926 0.04014029
vt 0.7931548 0.03709322
vt 0.7931548 0.03709322
vt 0.7933974 0.03709322
vt 0.793521 0.03709322
vt 0.7931548 0.03688665
vt 0.7933909 0.03688665
vt 0.7933909 0.03688665
vt 0.7931548 0.03688665
vt 0.793521 0.03709322
vt 0.7935897 0.03689085
vt 0.7935897 0.03659165
vt 0.7935897 0.03644713
vt 0.7935897 0.03636866
vt 0.7935897 0.03644713
vt 0.7935897 0.03659082
vt 0.7935833 0.03709322
vt 0.793521 0.03709322
vt 0.7933974 0.03709322
vt 0.7933972 0.03709322
vn 0.5386015 -0.6894905 0.4842638
vn 0.5386015 -0.6894905 0.4842638
vn 0.5386015 -0.6894905 0.4842638
vn -0.5386013 0.6894882 0.4842673
vn -0.5386013 0.6894882 0.4842673
vn -0.5386012 0.6894882 0.4842673
vn 0.5386065 0.6894843 0.4842668
vn 0.5386065 0.6894843 0.4842669
vn 0.5386065 0.6894843 0.4842668
vn 0.538606 -0.6894876 0.4842629
vn 0.5386059 -0.6894876 0.4842628
vn 0.538606 -0.6894876 0.4842629
vn -0.5386038 -0.6894889 0.4842633
vn -0.5386037 -0.6894889 0.4842633
vn -0.5386038 -0.6894889 0.4842633
vn -0.5386106 0.6894791 0.4842699
vn -0.5386106 0.689479 0.4842699
vn -0.5386106 0.689479 0.4842699
vn 0.5386011 0.6894868 0.4842694
vn 0.538601 0.6894868 0.4842694
vn 0.5386011 0.6894868 0.4842694
vn -0.615555 0.788 0.01216223
vn -0.615555 0.788 0.01216223
vn -0.615555 0.7880001 0.01216223
vn 0 0 1
vn 0 0 1
vn 0 0 1
vn 0 0 1
vn 0 0 1
vn 0 0 1
vn 0 0 1
vn 0 0 1
vn 0 1 0
vn 0 1 0
vn 0 1 0
vn 0 1 0
vn 0 0 1
vn 0 0 1
vn 0 0 1
vn 0 0 1
vn 1 0 0
vn 1 0 0
vn 1 0 0
vn 1 0 0
vn 0 -1 0
vn 0 -1 0
vn 0 -1 0
vn 0 -1 0
vn 0 0 1
vn 0 0 1
vn 0 0 1
vn 0 0 1
vn -1 0 0
vn -1 0 0
vn -1 0 0
vn -1 0 0
vn 1 0 0
vn 1 0 0
vn 1 0 0
vn 1 0 0
vn 0 -1 0
vn 0 -1 0
vn 0 -1 0
vn 0 -1 0
vn -1 0 0
vn -1 0 0
vn -1 0 0
vn -1 0 0
vn 0 1 0
vn 0 1 0
vn 0 1 0
vn 0 1 0
vn 1 0 0
vn 1 0 0
vn 1 0 0
vn 1 0 0
vn 1 0 0
vn 1 0 0
vn 0.0005568065 0.8094713 0.5871591
vn 0.0005568065 0.8094713 0.5871592
vn 0.0005568065 0.8094713 0.5871591
vn 0.0005568065 0.8094713 0.5871592
vn 0.6523815 0.004332241 0.7578784
vn 0.6523815 0.004332241 0.7578784
vn 0.6523815 0.004332241 0.7578783
vn 0.6523814 0.004332241 0.7578784
vn 0 -0.8183282 0.5747512
vn 0 -0.8183282 0.5747512
vn 0 -0.8183282 0.5747513
vn 0 -0.8183282 0.5747513
vn -0.5306748 0.0003855964 0.8475754
vn -0.5306748 0.0003855964 0.8475755
vn -0.5306747 0.0003855964 0.8475755
vn -0.5306747 0.0003855964 0.8475755
vn 0 0.818324 0.574757
vn 0 0.818324 0.574757
vn 0 0.818324 0.574757
vn 0 0.818324 0.574757
vn 0.7436246 0 0.6685973
vn 0.7436247 0 0.6685973
vn 0.7436246 0 0.6685973
vn 0.7436246 0 0.6685973
vn 0 -0.818327 0.5747529
vn 0 -0.818327 0.5747529
vn 0 -0.818327 0.5747529
vn 0 -0.818327 0.5747529
vn -0.7436221 0 0.6686002
vn -0.7436221 0 0.6686002
vn -0.743622 0 0.6686002
vn -0.7436221 0 0.6686002
vn 0.6112905 0.7914063 -0.0002299013
vn 0.6112905 0.7914063 -0.0002299013
vn 0.6112905 0.7914063 -0.0002299013
vn 0.6112905 0.7914063 -0.0002299013
vn 0.6156023 -0.788057 0
vn 0.6156024 -0.7880569 0
vn 0.6156024 -0.7880569 0
vn 0.6156024 -0.7880569 0
vn -0.5784724 -0.8156996 0.001967528
vn -0.5784724 -0.8156996 0.001967528
vn -0.5784724 -0.8156996 0.001967528
vn -0.5784725 -0.8156996 0.001967528
vn -0.7436234 0 0.6685987
vn -0.7436234 0 0.6685987
vn -0.7436234 0 0.6685987
vn -0.7436234 0 0.6685987
vn 0 0.8183218 0.5747604
vn 0 0.8183218 0.5747604
vn 0 0.8183218 0.5747604
vn 0 0.8183218 0.5747604
vn 0.743622 0 0.6686002
vn 0.7436221 0 0.6686002
vn 0.743622 0 0.6686002
vn 0.7436221 0 0.6686002
vn -0.5836763 0.8119847 0.001701503
vn -0.5836763 0.8119847 0.001701503
vn -0.5836762 0.8119847 0.001701503
vn -0.5836763 0.8119847 0.001701503
vn 0.5836664 0.8119918 0.001701272
vn 0.5836664 0.8119918 0.001701272
vn 0.5836664 0.8119918 0.001701272
vn 0.5836664 0.8119918 0.001701272
vn 0 1 0
vn 0 1 0
vn 0 1 0
vn 0 1 0
vn 0 -1 0
vn 0 -1 0
vn 0 -1 0
vn 0 -1 0
vn -1 0 0
vn -1 0 0
vn -1 0 0
vn -1 0 0
vn -1 0 0
vn -1 0 0
vn -1 0 0
vn 0 1 0
vn 0 1 0
vn 0 1 0
vn 0 1 0
g Boss_Color_24_0
f 3/3/3 2/2/2 1/1/1
f 6/6/6 5/5/5 4/4/4
f 9/9/9 8/8/8 7/7/7
f 12/12/12 11/11/11 10/10/10
f 15/15/15 14/14/14 13/13/13
f 18/18/18 17/17/17 16/16/16
f 21/21/21 20/20/20 19/19/19
f 24/24/24 23/23/23 22/22/22
f 27/27/27 26/26/26 25/25/25
f 28/28/28 27/27/27 25/25/25
f 31/31/31 30/30/30 29/29/29
f 32/32/32 31/31/31 29/29/29
f 35/35/35 34/34/34 33/33/33
f 36/36/36 35/35/35 33/33/33
f 39/39/39 38/38/38 37/37/37
f 40/40/40 39/39/39 37/37/37
f 43/43/43 42/42/42 41/41/41
f 44/44/44 43/43/43 41/41/41
f 47/47/47 46/46/46 45/45/45
f 48/48/48 47/47/47 45/45/45
f 51/51/51 50/50/50 49/49/49
f 52/52/52 51/51/51 49/49/49
f 55/55/55 54/54/54 53/53/53
f 56/56/56 55/55/55 53/53/53
f 59/59/59 58/58/58 57/57/57
f 60/60/60 59/59/59 57/57/57
f 63/63/63 62/62/62 61/61/61
f 64/64/64 63/63/63 61/61/61
f 67/67/67 66/66/66 65/65/65
f 68/68/68 67/67/67 65/65/65
f 71/71/71 70/70/70 69/69/69
f 72/72/72 71/71/71 69/69/69
f 75/75/75 74/74/74 73/73/73
f 74/74/74 76/76/76 73/73/73
f 73/73/73 76/76/76 77/77/77
f 78/78/78 73/73/73 77/77/77
f 81/81/81 80/80/80 79/79/79
f 82/82/82 81/81/81 79/79/79
f 85/85/85 84/84/84 83/83/83
f 86/86/86 85/85/85 83/83/83
f 89/89/89 88/88/88 87/87/87
f 90/90/90 89/89/89 87/87/87
f 93/93/93 92/92/92 91/91/91
f 94/94/94 93/93/93 91/91/91
f 97/97/97 96/96/96 95/95/95
f 98/98/98 97/97/97 95/95/95
f 101/101/101 100/100/100 99/99/99
f 102/102/102 101/101/101 99/99/99
f 105/105/105 104/104/104 103/103/103
f 106/106/106 105/105/105 103/103/103
f 109/109/109 108/108/108 107/107/107
f 110/110/110 109/109/109 107/107/107
f 113/113/113 112/112/112 111/111/111
f 114/114/114 113/113/113 111/111/111
f 117/117/117 116/116/116 115/115/115
f 118/118/118 117/117/117 115/115/115
f 121/121/121 120/120/120 119/119/119
f 122/122/122 121/121/121 119/119/119
f 125/125/125 124/124/124 123/123/123
f 126/126/126 125/125/125 123/123/123
f 129/129/129 128/128/128 127/127/127
f 130/130/130 129/129/129 127/127/127
f 133/133/133 132/132/132 131/131/131
f 134/134/134 133/133/133 131/131/131
f 137/137/137 136/136/136 135/135/135
f 138/138/138 137/137/137 135/135/135
f 141/141/141 140/140/140 139/139/139
f 142/142/142 141/141/141 139/139/139
f 145/145/145 144/144/144 143/143/143
f 146/146/146 145/145/145 143/143/143
f 149/149/149 148/148/148 147/147/147
f 150/150/150 149/149/149 147/147/147
f 153/153/153 152/152/152 151/151/151
f 154/154/154 153/153/153 151/151/151
f 153/153/153 156/156/156 155/155/155
f 157/157/157 153/153/153 155/155/155
f 160/160/160 159/159/159 158/158/158
f 161/161/161 160/160/160 158/158/158
