g Boss_Color_157
v -18.32203 7.26856 -5.517668
v -22.0832 7.518579 -5.991613
v -18.47097 6.349077 -5.858904
v -18.47097 6.349077 -5.858904
v -22.0832 7.518579 -5.991613
v -18.73598 6.054496 -4.949466
v -18.73598 6.054496 -4.949466
v -22.0832 7.518579 -5.991613
v -18.58704 6.97398 -4.608228
v -18.58704 6.97398 -4.608228
v -22.0832 7.518579 -5.991613
v -18.32203 7.26856 -5.517668
v -17.74475 6.865544 -5.262729
v -18.47097 6.349077 -5.858904
v -17.83388 6.315304 -5.466934
v -18.32203 7.26856 -5.517668
v -18.58704 6.97398 -4.608228
v -17.90334 6.68926 -4.718498
v -11.4102 -0.9131223 -1.86046
v -17.99247 6.139019 -4.922703
v -17.90334 6.68926 -4.718498
v -11.32107 -0.3628806 -1.656255
v -0.01921079 -0.2434098 -0.198612
v 0.06992093 0.3068309 0.005592519
v -18.73598 6.054496 -4.949466
v -17.83388 6.315304 -5.466934
v -18.47097 6.349077 -5.858904
v -17.99247 6.139019 -4.922703
v -17.90334 6.68926 -4.718498
v -18.58704 6.97398 -4.608228
v -17.83388 6.315304 -5.466934
v -17.99247 6.139019 -4.922703
v -11.4102 -0.9131223 -1.86046
v -11.25161 -0.7368374 -2.404691
v -17.74475 6.865544 -5.262729
v 0.1393742 -0.06712476 -0.7428429
v -0.01921079 -0.2434098 -0.198612
v 0.2285058 0.483116 -0.5386383
v -11.16248 -0.186596 -2.200486
v 0.06992093 0.3068309 0.005592519
v -11.32107 -0.3628806 -1.656255
v -17.90334 6.68926 -4.718498
vt 0.05798172 0.01477811
vt 0.05906846 0.01477811
vt 0.0601552 0.01477811
vt 0.0601552 0.01477811
vt 0.05906846 0.01477811
vt 0.0601552 0.01477811
vt 0.0601552 0.01477811
vt 0.05906846 0.01477811
vt 0.05798172 0.01477811
vt 0.05798172 0.01477811
vt 0.05906846 0.01477811
vt 0.05798172 0.01477811
vt 0.01207 0.0109965
vt 0.0140965 0.01126515
vt 0.01394952 0.0109965
vt 0.01192302 0.01126515
vt 0.01192302 0.01126515
vt 0.01207 0.0109965
vt 0.03697887 0.009449779
vt 0.03697887 0.009825516
vt 0.03509935 0.009825516
vt 0.03509935 0.009449779
vt 0.03697887 0.009074042
vt 0.03509935 0.009074042
vt 0.0140965 0.01126515
vt 0.01394952 0.0109965
vt 0.0140965 0.01126515
vt 0.01394952 0.0109965
vt 0.01207 0.0109965
vt 0.01192302 0.01126515
vt 0.03697887 0.009825516
vt 0.03697887 0.009825516
vt 0.03697887 0.009449779
vt 0.03697887 0.009449779
vt 0.03509935 0.009825516
vt 0.03697887 0.009074042
vt 0.03697887 0.009074042
vt 0.03509935 0.009074042
vt 0.03509935 0.009449779
vt 0.03509935 0.009074042
vt 0.03509935 0.009449779
vt 0.03509935 0.009825516
vn 0.1394613 0.3245955 -0.935515
vn 0.1394613 0.3245955 -0.935515
vn 0.1394613 0.3245955 -0.935515
vn -0.2741834 -0.8885946 -0.367727
vn -0.2741834 -0.8885946 -0.367727
vn -0.2741834 -0.8885946 -0.367727
vn -0.3901601 -0.2641442 0.8820447
vn -0.3901601 -0.2641442 0.8820447
vn -0.3901601 -0.2641442 0.8820447
vn 0.02348735 0.9490482 0.3142544
vn 0.02348735 0.9490482 0.3142544
vn 0.02348735 0.9490482 0.3142544
vn 0.6314852 0.7154673 -0.298886
vn 0.4347478 -0.499067 -0.7496175
vn 0.4347496 -0.4990622 -0.7496198
vn 0.6314849 0.7154697 -0.298881
vn 0.281446 0.3263556 0.9023747
vn 0.281448 0.3263617 0.9023719
vn -0.4030829 -0.8447564 0.3520097
vn -0.7593303 -0.5850649 0.2848096
vn 0.2192663 0.5535351 0.8034433
vn -0.1805171 0.2790192 0.9431659
vn -0.01844674 -0.8771211 0.479915
vn -0.1513586 0.5693843 0.8080173
vn 0.08471118 -0.8881682 0.4516429
vn 0.4347496 -0.4990622 -0.7496198
vn 0.4347478 -0.499067 -0.7496175
vn 0.0847118 -0.8881716 0.4516362
vn 0.281448 0.3263617 0.9023719
vn 0.281446 0.3263556 0.9023747
vn 0.2057492 -0.2218359 -0.9531296
vn -0.7593303 -0.5850649 0.2848096
vn -0.4030829 -0.8447564 0.3520097
vn -0.03017054 -0.5715588 -0.8200063
vn 0.758489 0.6174895 -0.2083295
vn 0.1552691 -0.3335922 -0.9298428
vn -0.01844674 -0.8771211 0.479915
vn 0.008345586 0.9063458 -0.4224544
vn 0.4576305 0.7886315 -0.4106514
vn -0.1513586 0.5693843 0.8080173
vn -0.1805171 0.2790192 0.9431659
vn 0.2192663 0.5535351 0.8034433
g Boss_Color_157_0
f 3/3/3 2/2/2 1/1/1
f 6/6/6 5/5/5 4/4/4
f 9/9/9 8/8/8 7/7/7
f 12/12/12 11/11/11 10/10/10
f 15/15/15 14/14/14 13/13/13
f 14/14/14 16/16/16 13/13/13
f 13/13/13 16/16/16 17/17/17
f 18/18/18 13/13/13 17/17/17
f 21/21/21 20/20/20 19/19/19
f 22/22/22 21/21/21 19/19/19
f 22/22/22 19/19/19 23/23/23
f 24/24/24 22/22/22 23/23/23
f 27/27/27 26/26/26 25/25/25
f 26/26/26 28/28/28 25/25/25
f 28/28/28 29/29/29 25/25/25
f 29/29/29 30/30/30 25/25/25
f 33/33/33 32/32/32 31/31/31
f 34/34/34 33/33/33 31/31/31
f 34/34/34 31/31/31 35/35/35
f 33/33/33 34/34/34 36/36/36
f 37/37/37 33/33/33 36/36/36
f 36/36/36 34/34/34 38/38/38
f 34/34/34 39/39/39 38/38/38
f 39/39/39 34/34/34 35/35/35
f 38/38/38 39/39/39 40/40/40
f 39/39/39 41/41/41 40/40/40
f 39/39/39 35/35/35 41/41/41
f 35/35/35 42/42/42 41/41/41
