g Boss_Color_116
v -6.915023 -0.01309534 4.574798
v -4.418817 3.587808 4.574806
v -3.497105 1.135073 4.574798
v -8.848475 5.131938 4.574811
v -7.744321 5.513525 4.574817
v -3.12666 3.668136 4.574808
v -7.205921 5.984564 4.574814
v -2.060885 7.918024 4.574819
v -0.6739246 4.589852 4.574809
v -3.497105 1.135073 4.574798
v -3.309338 2.987738 3.035825
v -3.309335 0.367537 1.414408
v -4.418817 3.587808 4.574806
v -2.987787 3.309288 3.035827
v -3.12666 3.668136 4.574808
v -3.309335 0.367537 1.414408
v -6.915023 -0.01309534 4.574798
v -3.497105 1.135073 4.574798
v -6.912693 0.4950735 3.035818
v -6.912693 0.4950735 3.035818
v -8.848475 5.131938 4.574811
v -6.915023 -0.01309534 4.574798
v -6.9127 5.991413 -0.6133916
v -7.744321 5.513525 4.574817
v -6.661163 6.661098 -0.6133895
v -5.991478 6.912637 -0.6133888
v -7.205921 5.984564 4.574814
v -6.912679 -5.991439 -0.6134238
v -6.91269 -0.4951216 3.87499
v -6.91268 -5.991453 3.808229
v -6.91269 -0.4951279 5.429654
v -6.661141 -6.661137 3.808229
v -6.661139 -6.661122 -0.6134252
v -5.991453 -6.912659 -0.6134261
v -5.991454 -6.912674 3.808226
v -0.4951194 -6.912662 1.888629
v -0.4951201 -6.912669 5.429638
v 5.991478 -6.912637 -0.6134224
v 0.4951443 -6.912661 3.0358
v 5.991476 -6.912652 4.255424
v 0.4951443 -6.912666 5.429638
v -2.987787 3.309288 3.035827
v -3.309335 0.367537 1.414408
v -3.309338 2.987738 3.035825
v -0.3675837 3.309296 1.414417
v -0.3675712 -3.309314 3.035808
v -3.309332 -0.3675653 1.414405
v -2.987775 -3.309319 3.035807
v -3.309328 -2.987768 1.414398
v 3.309331 0.3675481 3.035821
v 0.36757 3.309297 1.414418
v 2.987775 3.309299 3.035829
v 3.309326 2.98775 3.035828
v 3.309334 -0.3675544 3.035818
v 0.3675827 -3.309312 3.035809
v 2.987788 -3.309308 3.035809
v 3.309338 -2.987757 3.035811
v 0.4951443 -6.912661 3.0358
v -0.3675712 -3.309314 3.035808
v -0.4951194 -6.912662 1.888629
v 3.309331 0.3675481 3.035821
v 6.912693 -0.4950943 3.035819
v 6.91269 0.4951001 3.035822
v -2.987787 3.309288 3.035827
v -0.6739246 4.589852 4.574809
v -0.3675837 3.309296 1.414417
v -3.12666 3.668136 4.574808
v -0.3675837 3.309296 1.414417
v -2.060885 7.918024 4.574819
v -0.4951446 6.912641 3.035837
v -0.6739246 4.589852 4.574809
v -6.661163 6.661098 -0.6133895
v -5.345825 5.933579 -1.881765
v -5.991478 6.912637 -0.6133888
v -5.933634 5.345767 -1.881767
v -6.9127 5.991413 -0.6133916
v -5.933615 -5.345784 -1.881796
v -6.912679 -5.991439 -0.6134238
v -6.661139 -6.661122 -0.6134252
v -5.345803 -5.933593 -1.881797
v -5.991453 -6.912659 -0.6134261
v 5.991478 -6.912637 -0.6134224
v 5.345827 -5.933572 -1.881794
v -3.309327 -2.987776 5.429647
v -6.91269 -0.4951279 5.429654
v -3.309333 -0.3675739 5.429653
v -6.91268 -5.991453 3.808229
v -6.661141 -6.661137 3.808229
v -2.987776 -3.309325 5.429646
v -5.991454 -6.912674 3.808226
v -0.4951201 -6.912669 5.429638
v -0.3675719 -3.309321 5.429646
v -3.309335 0.367537 1.414408
v -6.91269 -0.4951216 3.87499
v -6.912693 0.4950735 3.035818
v -3.309332 -0.3675653 1.414405
v -3.309328 -2.987768 1.414398
v -3.309333 -0.3675739 5.429653
v -3.309332 -0.3675653 1.414405
v -3.309327 -2.987776 5.429647
v -3.309332 -0.3675653 1.414405
v -6.91269 -0.4951279 5.429654
v -6.91269 -0.4951216 3.87499
v -3.309333 -0.3675739 5.429653
v -2.987775 -3.309319 3.035807
v -3.309327 -2.987776 5.429647
v -3.309328 -2.987768 1.414398
v -2.987776 -3.309325 5.429646
v -0.3675719 -3.309321 5.429646
v -0.3675712 -3.309314 3.035808
v -0.3675712 -3.309314 3.035808
v -0.4951201 -6.912669 5.429638
v -0.3675719 -3.309321 5.429646
v -0.4951194 -6.912662 1.888629
v 3.309326 2.987744 5.429666
v 6.912689 0.4950941 5.42966
v 3.309331 0.3675416 5.429658
v 6.912677 5.991421 5.429675
v 6.661138 6.661106 5.42968
v 2.987775 3.309293 5.429667
v 5.991452 6.912644 5.429677
v 0.4951185 6.912638 4.357545
v 0.3675697 3.30929 4.357535
v 3.309326 2.98775 3.035828
v 3.309331 0.3675416 5.429658
v 3.309331 0.3675481 3.035821
v 3.309326 2.987744 5.429666
v 3.309331 0.3675481 3.035821
v 6.912689 0.4950941 5.42966
v 6.91269 0.4951001 3.035822
v 3.309331 0.3675416 5.429658
v 2.987775 3.309299 3.035829
v 3.309326 2.987744 5.429666
v 3.309326 2.98775 3.035828
v 2.987775 3.309293 5.429667
v 0.3675697 3.30929 4.357535
v 0.36757 3.309297 1.414418
v 0.4951183 6.912645 1.414427
v -0.3675837 3.309296 1.414417
v -0.4951446 6.912641 3.035837
v 0.36757 3.309297 1.414418
v 0.36757 3.309297 1.414418
v 0.4951185 6.912638 4.357545
v 0.3675697 3.30929 4.357535
v 0.4951183 6.912645 1.414427
v 0.4951183 6.912645 1.414427
v 5.991452 6.912644 5.429677
v 0.4951185 6.912638 4.357545
v 5.991454 6.91266 -0.613385
v 6.661138 6.661106 5.42968
v -5.991478 6.912637 -0.6133888
v 6.661139 6.661123 -0.6133853
v -0.4951446 6.912641 3.035837
v -7.205921 5.984564 4.574814
v -2.060885 7.918024 4.574819
v 6.912679 5.99144 -0.6133869
v 6.912677 5.991421 5.429675
v 6.91269 0.4951001 3.035822
v 6.912689 0.4950941 5.42966
v 6.912693 -0.4950943 3.035819
v 6.912699 -5.991413 -0.6134191
v 6.912699 -5.991428 4.255428
v 6.912692 -0.4951012 5.429657
v 6.661162 -6.661113 4.255429
v 6.661162 -6.661097 -0.613421
v 5.991478 -6.912637 -0.6134224
v 5.991476 -6.912652 4.255424
v -5.345825 5.933579 -1.881765
v 5.991454 6.91266 -0.613385
v -5.991478 6.912637 -0.6133888
v 5.345804 5.9336 -1.881762
v 6.661139 6.661123 -0.6133853
v 5.933616 5.34579 -1.881763
v 6.912679 5.99144 -0.6133869
v 5.933636 -5.34576 -1.881792
v 6.912699 -5.991413 -0.6134191
v 6.661162 -6.661097 -0.613421
v 5.345827 -5.933572 -1.881794
v 5.991478 -6.912637 -0.6134224
v 5.345802 5.933609 -5.429639
v -5.345825 5.933579 -1.881765
v -5.345821 5.933589 -5.429643
v 5.345804 5.9336 -1.881762
v 5.933616 5.34579 -1.881763
v 5.933617 5.345797 -5.42964
v 5.933636 -5.345747 -5.429669
v 5.933636 -5.34576 -1.881792
v 5.345827 -5.933572 -1.881794
v 5.345824 -5.933562 -5.429671
v 6.912692 -0.4951012 5.429657
v 3.309337 -2.987763 5.42965
v 3.309333 -0.3675611 5.429655
v 6.912699 -5.991428 4.255428
v 6.661162 -6.661113 4.255429
v 2.987787 -3.309314 5.429648
v 5.991476 -6.912652 4.255424
v 0.4951443 -6.912666 5.429638
v 0.3675823 -3.309319 5.429646
v 3.309333 -0.3675611 5.429655
v 3.309338 -2.987757 3.035811
v 3.309334 -0.3675544 3.035818
v 3.309337 -2.987763 5.42965
v 2.987788 -3.309308 3.035809
v 2.987787 -3.309314 5.429648
v 3.309334 -0.3675544 3.035818
v 6.912692 -0.4951012 5.429657
v 3.309333 -0.3675611 5.429655
v 6.912693 -0.4950943 3.035819
v 2.987788 -3.309308 3.035809
v 0.3675823 -3.309319 5.429646
v 0.3675827 -3.309312 3.035809
v 2.987787 -3.309314 5.429648
v 0.3675827 -3.309312 3.035809
v 0.4951443 -6.912666 5.429638
v 0.4951443 -6.912661 3.0358
v 0.3675823 -3.309319 5.429646
v -5.345799 -5.933582 -5.429674
v 5.345827 -5.933572 -1.881794
v 5.345824 -5.933562 -5.429671
v -5.345803 -5.933593 -1.881797
v -5.933615 -5.345784 -1.881796
v -5.933614 -5.34577 -5.429673
v -5.933635 5.345774 -5.429645
v -5.933634 5.345767 -1.881767
v -5.345825 5.933579 -1.881765
v -5.345821 5.933589 -5.429643
vt 0.03693398 0.01301928
vt 0.03718556 0.01301928
vt 0.03692111 0.01301928
vt 0.03748871 0.01301928
vt 0.03755631 0.01301928
vt 0.03721802 0.01301928
vt 0.0375817 0.01301928
vt 0.0375817 0.01301928
vt 0.03721802 0.01301928
vt 0.06066043 0.04384667
vt 0.06109705 0.04333964
vt 0.06066043 0.04333964
vt 0.06109705 0.04384667
vt 0.06115063 0.04333964
vt 0.06115063 0.04384667
vt 0.0608949 0.04333964
vt 0.06091616 0.04384667
vt 0.0608949 0.04384667
vt 0.06091616 0.04333964
vt 0.01068874 0.01466669
vt 0.01160461 0.01517373
vt 0.01068874 0.01517373
vt 0.01160461 0.01389375
vt 0.0117162 0.01517373
vt 0.0117162 0.01389375
vt 0.01175812 0.01389375
vt 0.01175812 0.01517373
vt 0.009607864 0.01389375
vt 0.01052374 0.01466669
vt 0.009607864 0.01517373
vt 0.01052374 0.01517373
vt 0.009496273 0.01517373
vt 0.009496273 0.01389375
vt 0.009454357 0.01389375
vt 0.009454357 0.01517373
vt 0.009454356 0.01466669
vt 0.009454356 0.01517373
vt 0.009454356 0.01389375
vt 0.009454356 0.01466669
vt 0.009454356 0.01517373
vt 0.009454356 0.01517373
vt 0.03744456 0.04425476
vt 0.03724074 0.04425476
vt 0.03742228 0.04425476
vt 0.03744456 0.04425476
vt 0.03698599 0.04425476
vt 0.03718981 0.04425476
vt 0.03698599 0.04425476
vt 0.03700827 0.04425476
vt 0.03724074 0.04425476
vt 0.03744456 0.04425476
vt 0.03744456 0.04425476
vt 0.03742228 0.04425476
vt 0.03717818 0.04425476
vt 0.03698599 0.04425476
vt 0.03698599 0.04425476
vt 0.03700827 0.04425476
vt 0.03703343 0.04425476
vt 0.03739712 0.04425476
vt 0.03703343 0.04425476
vt 0.03725238 0.04425476
vt 0.03716531 0.04425476
vt 0.03726525 0.04425476
vt 0.06115063 0.04333964
vt 0.06115063 0.04384667
vt 0.06115063 0.04333964
vt 0.06115063 0.04384667
vt 0.06060531 0.04333964
vt 0.06120575 0.04384667
vt 0.06120575 0.04333964
vt 0.06060531 0.04384667
vt 0.0117162 0.01389375
vt 0.01159497 0.01362509
vt 0.01175812 0.01389375
vt 0.01149702 0.01362509
vt 0.01160461 0.01389375
vt 0.009715452 0.01362509
vt 0.009607864 0.01389375
vt 0.009496273 0.01389375
vt 0.009617503 0.01362509
vt 0.009454357 0.01389375
vt 0.009454356 0.01389375
vt 0.0096175 0.01362509
vt 0.03731724 0.01301928
vt 0.03756883 0.01301928
vt 0.0375817 0.01301928
vt 0.03701409 0.01301928
vt 0.03694649 0.01301928
vt 0.03728479 0.01301928
vt 0.03692111 0.01301928
vt 0.03692111 0.01301928
vt 0.03728479 0.01301928
vt 0.03725236 0.04425476
vt 0.03716531 0.04425476
vt 0.03726524 0.04425476
vt 0.03717818 0.04425476
vt 0.06071401 0.04333964
vt 0.06115063 0.04384667
vt 0.06115063 0.04333964
vt 0.06071401 0.04384667
vt 0.06091616 0.04333964
vt 0.06089491 0.04384667
vt 0.06089491 0.04333964
vt 0.06091616 0.04384667
vt 0.06066043 0.04333964
vt 0.06071401 0.04384667
vt 0.06071401 0.04333964
vt 0.06066043 0.04384667
vt 0.06066043 0.04384667
vt 0.06066043 0.04333964
vt 0.06120575 0.04333964
vt 0.06060531 0.04384667
vt 0.06120575 0.04384667
vt 0.06060531 0.04333964
vt 0.03718556 0.01301928
vt 0.03693398 0.01301928
vt 0.03692111 0.01301928
vt 0.03748871 0.01301928
vt 0.03755631 0.01301928
vt 0.03721802 0.01301928
vt 0.03758169 0.01301928
vt 0.0375817 0.01301928
vt 0.03721802 0.01301928
vt 0.06109705 0.04333964
vt 0.06066043 0.04384667
vt 0.06066043 0.04333964
vt 0.06109705 0.04384667
vt 0.06089491 0.04333964
vt 0.06091616 0.04384667
vt 0.06091616 0.04333964
vt 0.06089491 0.04384667
vt 0.06115063 0.04333964
vt 0.06109705 0.04384667
vt 0.06109705 0.04333964
vt 0.06115063 0.04384667
vt 0.06115063 0.04384667
vt 0.06115063 0.04333964
vt 0.03739712 0.04425476
vt 0.03703344 0.04425476
vt 0.03739712 0.04425476
vt 0.03703344 0.04425476
vt 0.06060531 0.04333964
vt 0.06120575 0.04384667
vt 0.06060531 0.04384667
vt 0.06120575 0.04333964
vt 0.01175812 0.01466669
vt 0.01175811 0.01517373
vt 0.01175812 0.01517373
vt 0.01175811 0.01389375
vt 0.0117162 0.01517373
vt 0.01175812 0.01389375
vt 0.0117162 0.01389375
vt 0.01175812 0.01466669
vt 0.01175812 0.01517373
vt 0.01175812 0.01517373
vt 0.01160461 0.01389375
vt 0.01160461 0.01517373
vt 0.01068873 0.01466669
vt 0.01068873 0.01517373
vt 0.01052374 0.01466669
vt 0.009607862 0.01389375
vt 0.009607862 0.01517373
vt 0.01052374 0.01517373
vt 0.009496269 0.01517373
vt 0.00949627 0.01389375
vt 0.009454356 0.01389375
vt 0.009454356 0.01517373
vt 0.01159497 0.01362509
vt 0.01175811 0.01389375
vt 0.01175812 0.01389375
vt 0.01159497 0.01362509
vt 0.0117162 0.01389375
vt 0.01149702 0.01362509
vt 0.01160461 0.01389375
vt 0.009715449 0.01362509
vt 0.009607862 0.01389375
vt 0.00949627 0.01389375
vt 0.0096175 0.01362509
vt 0.009454356 0.01389375
vt 0.01159497 0.01287362
vt 0.01159497 0.01362509
vt 0.01159497 0.01287362
vt 0.01159497 0.01362509
vt 0.01149702 0.01362509
vt 0.01149702 0.01287362
vt 0.00971545 0.01287362
vt 0.009715449 0.01362509
vt 0.0096175 0.01362509
vt 0.009617501 0.01287362
vt 0.03756883 0.01301928
vt 0.03731724 0.01301928
vt 0.0375817 0.01301928
vt 0.03701408 0.01301928
vt 0.03694649 0.01301928
vt 0.03728479 0.01301928
vt 0.03692111 0.01301928
vt 0.03692111 0.01301928
vt 0.03728479 0.01301928
vt 0.06115063 0.04384667
vt 0.06071401 0.04333964
vt 0.06115063 0.04333964
vt 0.06071401 0.04384667
vt 0.06066043 0.04333964
vt 0.06066043 0.04384667
vt 0.06091616 0.04333964
vt 0.0608949 0.04384667
vt 0.06091616 0.04384667
vt 0.0608949 0.04333964
vt 0.06066043 0.04333964
vt 0.06066043 0.04384667
vt 0.06066043 0.04333964
vt 0.06066043 0.04384667
vt 0.06120575 0.04333964
vt 0.06060531 0.04384667
vt 0.06060531 0.04333964
vt 0.06120575 0.04384667
vt 0.009617503 0.01287362
vt 0.0096175 0.01362509
vt 0.009617501 0.01287362
vt 0.009617503 0.01362509
vt 0.009715452 0.01362509
vt 0.009715453 0.01287362
vt 0.01149702 0.01287362
vt 0.01149702 0.01362509
vt 0.01159497 0.01362509
vt 0.01159497 0.01287362
vn 0 0 1
vn 0 0 1
vn 0 0 1
vn 0 0 1
vn 0 0 1
vn 0 0 1
vn 0 0 1
vn 0 0 1
vn 0 0 1
vn 0.9621512 0.1097062 0.2494583
vn 0.8663478 -0.1695746 0.4697723
vn 0.9966365 -0.04312183 0.06968638
vn 0.7148172 -0.4101306 0.5664179
vn 0.3422097 -0.8462056 0.4084464
vn 0.1995787 -0.9501476 0.2395574
vn 0.1882815 -0.9773028 0.09710547
vn 0.05424735 -0.996832 -0.05816608
vn 0.3089938 -0.9198264 0.2417485
vn -0.1721902 -0.9353117 -0.3090993
vn -0.9856136 -0.1391194 -0.0959764
vn -0.9084864 0.342521 -0.2394407
vn -0.9296824 -0.3493652 -0.1167676
vn -0.9686983 0.1839321 -0.1667116
vn -0.4876609 0.8729415 0.01264604
vn -0.6502449 0.7590446 0.03213851
vn -0.2014633 0.9731578 0.1112482
vn -0.4646853 0.8850151 -0.02856688
vn -0.9839056 -0.1786887 0
vn -1 0 0
vn -0.9865072 -0.1637183 0
vn -1 0 0
vn -0.7071056 -0.707108 0
vn -0.7071047 -0.7071089 0
vn -0.1786844 -0.9839064 0
vn -0.1637153 -0.9865077 0
vn 0 -1 0
vn 0 -1 0
vn 0.1786887 -0.9839056 0
vn 0 -1 0
vn 0.1674578 -0.9858792 0
vn 0 -1 0
vn 0.4656719 -0.4656742 0.7525272
vn -0.1066443 -0.01468985 0.9941887
vn 0.4656702 -0.4656745 0.7525281
vn 0.01468609 0.10664 0.9941893
vn -0.1255625 0.2396904 0.9626955
vn -0.5160165 0.0966545 0.851108
vn -0.4240492 0.4011647 0.8119416
vn -0.9808971 0 0.1945278
vn -0.2356862 0.1117445 0.9653835
vn -0.132818 0.3732509 0.9181738
vn -0.3856115 -0.04215289 0.9216979
vn 0 0 1
vn 0 0 1
vn 0 0 1
vn 0 0 1
vn 0 0 1
vn -0.6797123 -0.1627388 0.7151974
vn -0.1862569 -0.04459601 0.9814885
vn -0.7448437 -0.1783325 0.642966
vn 0 0 1
vn 0 0 1
vn 0 0 1
vn 0.3422097 -0.8462056 0.4084464
vn 0.2757268 -0.9009349 0.3350987
vn 0.2379172 -0.8919516 0.3844708
vn 0.1995787 -0.9501476 0.2395574
vn 0.9499778 0.1688712 0.2627254
vn 0.9092918 0.05084451 0.4130414
vn 0.5470932 -0.3273069 0.770428
vn 0.9210274 0.3838232 -0.06624464
vn -0.4963476 0.4963484 -0.7122341
vn -0.2061885 0.6884286 -0.6953794
vn -0.1560826 0.7418831 -0.6521102
vn -0.6884269 0.2061877 -0.6953813
vn -0.7418806 0.1560823 -0.6521131
vn -0.6884258 -0.2061868 -0.6953825
vn -0.7418799 -0.1560817 -0.652114
vn -0.4963458 -0.4963464 -0.7122367
vn -0.2061856 -0.688426 -0.6953828
vn -0.1560801 -0.7418802 -0.6521142
vn 0.1560838 -0.7418791 -0.6521145
vn 0.2061891 -0.6884249 -0.6953829
vn -0.1616053 -0.1837784 0.9695923
vn -0.1184615 -0.1712501 0.9780799
vn 0 0 1
vn -0.283337 -0.1696235 0.9439004
vn -0.2234437 -0.2234472 0.9487593
vn -0.1837751 -0.1616087 0.9695924
vn -0.1696198 -0.2833407 0.9439
vn -0.1712471 -0.1184643 0.9780802
vn 0 0 1
vn 0.5428112 0.1082239 0.8328527
vn 0.384006 0.537464 0.7507809
vn 0.3438358 0.6071133 0.716373
vn 0.5639234 0 0.8258271
vn 1 0 0
vn 1 0 0
vn 1 0 0
vn 1 0 0
vn -0.03537599 0.9993741 0
vn -0.03537553 0.9993741 0
vn -0.03537441 0.9993742 0
vn -0.0353765 0.9993741 0
vn 0.4909404 0.8711931 0
vn 0.7071046 0.707109 0
vn 0.7071019 0.7071116 0
vn 0.3826815 0.9238803 0
vn 0 1 0
vn 0 1 0
vn 0.9993741 -0.03537499 0
vn 0.9993741 -0.035375 0
vn 0.9993741 -0.03537497 0
vn 0.9993741 -0.03537502 0
vn 0 0 1
vn 0 0 1
vn 0 0 1
vn 0 0 1
vn 0 0 1
vn -0.1557162 0.05692916 0.98616
vn -0.06063829 0.050544 0.9968793
vn -0.2703399 0.09795902 0.9577684
vn -0.3786684 0.01340127 0.9254354
vn -1 0 0
vn -1 0 0
vn -1 0 0
vn -1 0 0
vn 0.03537602 -0.9993741 0
vn 0.03537598 -0.9993741 0
vn 0.03537593 -0.9993741 0
vn 0.03537607 -0.9993741 0
vn -0.3246763 -0.9458252 0
vn -0.7071045 -0.707109 0
vn -0.7071052 -0.7071083 0
vn -0.4359224 -0.8999843 0
vn 0 -1 0
vn 0 -1 0
vn 0.7764572 -0.1858985 0.6021262
vn 0.2525671 -0.06047141 0.9656879
vn 0.8361468 -0.2001889 0.5106692
vn 0 0 1
vn -0.9993741 0.0353751 0
vn -0.9993741 0.03537509 0
vn -0.9993741 0.03537516 0
vn -0.9993741 0.03537503 0
vn 0 1 0
vn 0.1903451 0.9817172 0
vn 0 1 0
vn 0.1786847 0.9839064 0
vn 0.7071062 0.7071073 0
vn -0.2014633 0.9731578 0.1112482
vn 0.7071048 0.7071087 0
vn -0.09618245 0.984962 -0.1435231
vn -0.4646853 0.8850151 -0.02856688
vn -0.2525731 0.6721119 -0.6960406
vn 0.9839056 0.1786892 0
vn 0.9839057 0.1786881 0
vn 1 0 0
vn 1 0 0
vn 1 0 0
vn 0.9839063 -0.178685 0
vn 0.9858797 -0.1674548 0
vn 1 0 0
vn 0.7071078 -0.7071058 0
vn 0.7071081 -0.7071053 0
vn 0.1786887 -0.9839056 0
vn 0.1674578 -0.9858792 0
vn -0.2061885 0.6884286 -0.6953794
vn 0.1560807 0.7418832 -0.6521105
vn -0.1560826 0.7418831 -0.6521102
vn 0.206186 0.6884294 -0.6953793
vn 0.4963463 0.4963501 -0.7122338
vn 0.6884266 0.2061906 -0.6953807
vn 0.7418805 0.1560854 -0.6521124
vn 0.6884279 -0.2061841 -0.6953813
vn 0.7418818 -0.1560788 -0.6521127
vn 0.4963488 -0.4963442 -0.7122362
vn 0.2061891 -0.6884249 -0.6953829
vn 0.1560838 -0.7418791 -0.6521145
vn 0.382681 0.9238805 0
vn -0.3826856 0.9238786 0
vn -0.3826846 0.9238791 0
vn 0.3826818 0.9238802 0
vn 0.9238787 0.3826855 0
vn 0.9238786 0.3826857 0
vn 0.9238803 -0.3826815 0
vn 0.9238802 -0.3826816 0
vn 0.3826856 -0.9238787 0
vn 0.3826849 -0.9238789 0
vn 0.08719923 -0.1260567 0.9881832
vn 0.1195085 -0.1357406 0.9835101
vn 0 0 1
vn 0.2103638 -0.1265999 0.9693914
vn 0.1657972 -0.1658007 0.9721221
vn 0.1357366 -0.1195126 0.9835103
vn 0.1265968 -0.2103672 0.9693909
vn 0.1260542 -0.08720142 0.9881833
vn 0 0 1
vn -1 0 0
vn -0.9238798 0.3826827 0
vn -1 0 0
vn -0.9238802 0.3826818 0
vn -0.7071074 0.7071062 0
vn -0.7071081 0.7071055 0
vn 0.03537261 0.9993742 0
vn 0.0353726 0.9993742 0
vn 0.03537264 0.9993742 0
vn 0.03537258 0.9993742 0
vn 0 1 0
vn 0 1 0
vn 0 1 0
vn 0 1 0
vn -0.999374 -0.03537877 0
vn -0.999374 -0.03537874 0
vn -0.999374 -0.03537868 0
vn -0.999374 -0.03537883 0
vn -0.3826817 -0.9238802 0
vn 0.3826856 -0.9238787 0
vn 0.3826849 -0.9238789 0
vn -0.3826817 -0.9238802 0
vn -0.9238787 -0.3826856 0
vn -0.923879 -0.3826848 0
vn -0.9238801 0.3826818 0
vn -0.9238803 0.3826815 0
vn -0.3826856 0.9238786 0
vn -0.3826846 0.9238791 0
g Boss_Color_116_0
f 3/3/3 2/2/2 1/1/1
f 4/4/4 1/1/1 2/2/2
f 2/2/2 5/5/5 4/4/4
f 2/2/2 6/6/6 5/5/5
f 5/5/5 6/6/6 7/7/7
f 7/7/7 6/6/6 8/8/8
f 9/9/9 8/8/8 6/6/6
f 12/12/12 11/11/11 10/10/10
f 13/13/13 10/10/10 11/11/11
f 11/11/11 14/14/14 13/13/13
f 15/15/15 13/13/13 14/14/14
f 18/18/18 17/17/17 16/16/16
f 19/19/19 16/16/16 17/17/17
f 22/22/22 21/21/21 20/20/20
f 21/21/21 23/23/23 20/20/20
f 21/21/21 24/24/24 23/23/23
f 25/25/25 23/23/23 24/24/24
f 25/25/25 24/24/24 26/26/26
f 27/27/27 26/26/26 24/24/24
f 23/23/23 28/28/28 20/20/20
f 29/29/29 20/20/20 28/28/28
f 28/28/28 30/30/30 29/29/29
f 30/30/30 31/31/31 29/29/29
f 30/30/30 28/28/28 32/32/32
f 33/33/33 32/32/32 28/28/28
f 33/33/33 34/34/34 32/32/32
f 35/35/35 32/32/32 34/34/34
f 35/35/35 34/34/34 36/36/36
f 37/37/37 35/35/35 36/36/36
f 34/34/34 38/38/38 36/36/36
f 39/39/39 36/36/36 38/38/38
f 38/38/38 40/40/40 39/39/39
f 40/40/40 41/41/41 39/39/39
f 44/44/44 43/43/43 42/42/42
f 45/45/45 42/42/42 43/43/43
f 43/43/43 46/46/46 45/45/45
f 47/47/47 46/46/46 43/43/43
f 46/46/46 47/47/47 48/48/48
f 49/49/49 48/48/48 47/47/47
f 45/45/45 46/46/46 50/50/50
f 51/51/51 45/45/45 50/50/50
f 51/51/51 50/50/50 52/52/52
f 53/53/53 52/52/52 50/50/50
f 50/50/50 46/46/46 54/54/54
f 46/46/46 55/55/55 54/54/54
f 55/55/55 56/56/56 54/54/54
f 57/57/57 54/54/54 56/56/56
f 55/55/55 59/59/59 58/58/58
f 60/60/60 58/58/58 59/59/59
f 54/54/54 62/62/62 61/61/61
f 63/63/63 61/61/61 62/62/62
f 66/66/66 65/65/65 64/64/64
f 67/67/67 64/64/64 65/65/65
f 70/70/70 69/69/69 68/68/68
f 71/71/71 68/68/68 69/69/69
f 74/74/74 73/73/73 72/72/72
f 72/72/72 73/73/73 75/75/75
f 75/75/75 76/76/76 72/72/72
f 75/75/75 77/77/77 76/76/76
f 78/78/78 76/76/76 77/77/77
f 78/78/78 77/77/77 79/79/79
f 80/80/80 79/79/79 77/77/77
f 80/80/80 81/81/81 79/79/79
f 81/81/81 80/80/80 82/82/82
f 83/83/83 82/82/82 80/80/80
f 86/86/86 85/85/85 84/84/84
f 87/87/87 84/84/84 85/85/85
f 88/88/88 84/84/84 87/87/87
f 88/88/88 89/89/89 84/84/84
f 89/89/89 88/88/88 90/90/90
f 90/90/90 91/91/91 89/89/89
f 92/92/92 89/89/89 91/91/91
f 95/95/95 94/94/94 93/93/93
f 96/96/96 93/93/93 94/94/94
f 99/99/99 98/98/98 97/97/97
f 100/100/100 97/97/97 98/98/98
f 103/103/103 102/102/102 101/101/101
f 104/104/104 101/101/101 102/102/102
f 107/107/107 106/106/106 105/105/105
f 108/108/108 105/105/105 106/106/106
f 108/108/108 109/109/109 105/105/105
f 110/110/110 105/105/105 109/109/109
f 113/113/113 112/112/112 111/111/111
f 114/114/114 111/111/111 112/112/112
f 117/117/117 116/116/116 115/115/115
f 118/118/118 115/115/115 116/116/116
f 119/119/119 115/115/115 118/118/118
f 119/119/119 120/120/120 115/115/115
f 120/120/120 119/119/119 121/121/121
f 121/121/121 122/122/122 120/120/120
f 123/123/123 120/120/120 122/122/122
f 126/126/126 125/125/125 124/124/124
f 127/127/127 124/124/124 125/125/125
f 130/130/130 129/129/129 128/128/128
f 131/131/131 128/128/128 129/129/129
f 134/134/134 133/133/133 132/132/132
f 135/135/135 132/132/132 133/133/133
f 135/135/135 136/136/136 132/132/132
f 137/137/137 132/132/132 136/136/136
f 140/140/140 139/139/139 138/138/138
f 141/141/141 138/138/138 139/139/139
f 144/144/144 143/143/143 142/142/142
f 145/145/145 142/142/142 143/143/143
f 148/148/148 147/147/147 146/146/146
f 147/147/147 149/149/149 146/146/146
f 147/147/147 150/150/150 149/149/149
f 149/149/149 151/151/151 146/146/146
f 152/152/152 149/149/149 150/150/150
f 153/153/153 146/146/146 151/151/151
f 151/151/151 154/154/154 153/153/153
f 154/154/154 155/155/155 153/153/153
f 152/152/152 150/150/150 156/156/156
f 157/157/157 156/156/156 150/150/150
f 156/156/156 157/157/157 158/158/158
f 157/157/157 159/159/159 158/158/158
f 158/158/158 160/160/160 156/156/156
f 161/161/161 156/156/156 160/160/160
f 162/162/162 161/161/161 160/160/160
f 163/163/163 162/162/162 160/160/160
f 162/162/162 164/164/164 161/161/161
f 165/165/165 161/161/161 164/164/164
f 165/165/165 164/164/164 166/166/166
f 167/167/167 166/166/166 164/164/164
f 170/170/170 169/169/169 168/168/168
f 171/171/171 168/168/168 169/169/169
f 171/171/171 169/169/169 172/172/172
f 171/171/171 172/172/172 173/173/173
f 174/174/174 173/173/173 172/172/172
f 173/173/173 174/174/174 175/175/175
f 176/176/176 175/175/175 174/174/174
f 175/175/175 176/176/176 177/177/177
f 177/177/177 178/178/178 175/175/175
f 179/179/179 178/178/178 177/177/177
f 182/182/182 181/181/181 180/180/180
f 183/183/183 180/180/180 181/181/181
f 183/183/183 184/184/184 180/180/180
f 185/185/185 180/180/180 184/184/184
f 185/185/185 184/184/184 186/186/186
f 187/187/187 186/186/186 184/184/184
f 187/187/187 188/188/188 186/186/186
f 189/189/189 186/186/186 188/188/188
f 192/192/192 191/191/191 190/190/190
f 193/193/193 190/190/190 191/191/191
f 191/191/191 194/194/194 193/193/193
f 191/191/191 195/195/195 194/194/194
f 194/194/194 195/195/195 196/196/196
f 196/196/196 195/195/195 197/197/197
f 198/198/198 197/197/197 195/195/195
f 201/201/201 200/200/200 199/199/199
f 202/202/202 199/199/199 200/200/200
f 200/200/200 203/203/203 202/202/202
f 204/204/204 202/202/202 203/203/203
f 207/207/207 206/206/206 205/205/205
f 208/208/208 205/205/205 206/206/206
f 211/211/211 210/210/210 209/209/209
f 212/212/212 209/209/209 210/210/210
f 215/215/215 214/214/214 213/213/213
f 216/216/216 213/213/213 214/214/214
f 219/219/219 218/218/218 217/217/217
f 220/220/220 217/217/217 218/218/218
f 220/220/220 221/221/221 217/217/217
f 222/222/222 217/217/217 221/221/221
f 222/222/222 221/221/221 223/223/223
f 224/224/224 223/223/223 221/221/221
f 224/224/224 225/225/225 223/223/223
f 226/226/226 223/223/223 225/225/225
