g Box018
v 1.004314E-05 -2.429274 8.907806
v 23.2571 2.706072E-05 -4.86926
v 4.779433E-05 -22.90375 -8.907812
v 23.2571 2.706072E-05 -4.86926
v 1.004314E-05 -2.429274 8.907806
v -2.972035E-05 22.90375 -0.8307096
v 1.004314E-05 -2.429274 8.907806
v 4.779433E-05 -22.90375 -8.907812
v -23.25709 -2.808521E-05 -4.869268
v -2.972035E-05 22.90375 -0.8307096
v 1.004314E-05 -2.429274 8.907806
v -23.25709 -2.808521E-05 -4.869268
vt 0.9438274 0.137141
vt 0.9039093 0.1770593
vt 0.9837458 0.1770593
vt 0.9039093 0.1770593
vt 0.9438274 0.137141
vt 0.9039093 0.09722292
vt 0.9438274 0.137141
vt 0.9837458 0.1770593
vt 0.9837458 0.09722292
vt 0.9039093 0.09722292
vt 0.9438274 0.137141
vt 0.9837458 0.09722292
vn 0.458169 -0.5834725 0.6705527
vn 0.4581691 -0.5834725 0.6705527
vn 0.458169 -0.5834725 0.6705527
vn 0.4581677 0.3189436 0.829673
vn 0.4581678 0.3189436 0.829673
vn 0.4581678 0.3189436 0.829673
vn -0.4581678 -0.583474 0.6705523
vn -0.4581678 -0.583474 0.6705523
vn -0.4581678 -0.583474 0.6705523
vn -0.458169 0.318942 0.8296729
vn -0.458169 0.318942 0.8296729
vn -0.458169 0.318942 0.8296729
g Box018_0
f 3/3/3 2/2/2 1/1/1
f 6/6/6 5/5/5 4/4/4
f 9/9/9 8/8/8 7/7/7
f 12/12/12 11/11/11 10/10/10
