g Card_Color_05_Frame_Back_Inner
v 32.39785 0.7500075 -46.36633
v 29.11647 0.7500075 -46.3493
v 31.94739 0.7500077 -47.7177
v 31.33085 0.7500079 -48.58085
v 30.4677 0.750008 -49.1974
v 29.3818 0.7500075 -45.73544
v 28.57981 0.7500077 -46.60035
v 32.58923 0.7500072 -44.26116
v 29.16352 0.7500082 -49.63212
v 29.52845 0.7500072 -44.12233
v 25.547 0.7500075 -46.77845
v 32.58923 0.7499928 44.26116
v 25.63679 0.7500079 -49.83923
v 29.52845 0.7499928 44.12233
v -26.87232 0.7500076 -46.77845
v 32.39785 0.7499925 46.36633
v -27.01116 0.7500081 -49.83923
v 29.3818 0.7499926 45.73544
v -28.48545 0.7500076 -46.6318
v 31.94739 0.7499923 47.7177
v -29.11633 0.750008 -49.64785
v 29.05548 0.7499924 46.3276
v -29.07814 0.7500076 -46.27984
v 31.33085 0.7499921 48.58085
v 30.4677 0.749992 49.1974
v 29.11633 0.749992 49.64785
v 28.48544 0.7499924 46.6318
v 27.01116 0.7499919 49.83923
v 26.87232 0.7499924 46.77845
v -27.01116 0.7499919 49.83923
v -26.87232 0.7499924 46.77845
v -29.11633 0.749992 49.64785
v -28.48545 0.7499924 46.6318
v -30.4677 0.749992 49.1974
v -30.4677 0.750008 -49.1974
v -31.33085 0.7500079 -48.58085
v -31.94739 0.7500077 -47.7177
v -29.3818 0.7500075 -45.73544
v -32.39785 0.7500075 -46.36633
v -29.52845 0.7500072 -44.12232
v -32.58923 0.7500072 -44.26116
v -29.52845 0.7499928 44.12232
v -32.58923 0.7499928 44.26116
v -29.3818 0.7499926 45.73544
v -32.39785 0.7499925 46.36633
v -29.0543 0.7499924 46.33054
v -31.33085 0.7499921 48.58085
v -31.94739 0.7499923 47.7177
vt 0.9970639 0.03484097
vt 0.9467193 0.03501177
vt 0.9901527 0.02128372
vt 0.9806935 0.01262432
vt 0.9674505 0.006439
vt 0.9507902 0.04117018
vt 0.9384855 0.03249323
vt 1 0.05596057
vt 0.9474411 0.002077729
vt 0.9530401 0.05735341
vt 0.8919547 0.03070644
vt 1 0.9440395
vt 0.8933324 0
vt 0.9530401 0.9426466
vt 0.08771154 0.03070644
vt 0.9970639 0.9651591
vt 0.08558136 0
vt 0.9507902 0.9588298
vt 0.0629622 0.03217769
vt 0.9901527 0.9787163
vt 0.0532828 0.001919955
vt 0.9457836 0.9647704
vt 0.05386877 0.03570864
vt 0.9806935 0.9873757
vt 0.9674504 0.993561
vt 0.9467172 0.99808
vt 0.9370378 0.9678223
vt 0.9144186 1
vt 0.9122884 0.9692936
vt 0.08558136 1
vt 0.08771154 0.9692936
vt 0.0532828 0.99808
vt 0.0629622 0.9678223
vt 0.03254953 0.993561
vt 0.03254953 0.006439
vt 0.01930657 0.01262432
vt 0.009847313 0.02128372
vt 0.04920983 0.04117024
vt 0.002936214 0.03484097
vt 0.04695991 0.05735344
vt 0 0.05596057
vt 0.04695991 0.9426466
vt 0 0.9440395
vt 0.04920983 0.9588298
vt 0.002936214 0.9651591
vt 0.05423456 0.9648
vt 0.01930657 0.9873757
vt 0.009847313 0.9787163
vn 0 1 0
vn 0 1 0
vn 0 1 0
vn 0 1 0
vn 0 1 0
vn 0 1 0
vn 0 1 0
vn 0 1 0
vn 0 1 0
vn 0 1 0
vn 0 1 0
vn 0 1 0
vn 0 1 0
vn 0 1 0
vn 0 1 0
vn 0 1 0
vn 0 1 0
vn 0 1 0
vn 0 1 0
vn 0 1 0
vn 0 1 0
vn 0 1 0
vn 0 1 0
vn 0 1 0
vn 0 1 0
vn 0 1 0
vn 0 1 0
vn 0 1 0
vn 0 1 0
vn 0 1 0
vn 0 1 0
vn 0 1 0
vn 0 1 0
vn 0 1 0
vn 0 1 0
vn 0 1 0
vn 0 1 0
vn 0 1 0
vn 0 1 0
vn 0 1 0
vn 0 1 0
vn 0 1 0
vn 0 1 0
vn 0 1 0
vn 0 1 0
vn 0 1 0
vn 0 1 0
vn 0 1 0
g Card_Color_05_Frame_Back_Inner_0
f 3/3/3 2/2/2 1/1/1
f 4/4/4 2/2/2 3/3/3
f 5/5/5 2/2/2 4/4/4
f 2/2/2 6/6/6 1/1/1
f 7/7/7 2/2/2 5/5/5
f 1/1/1 6/6/6 8/8/8
f 9/9/9 7/7/7 5/5/5
f 6/6/6 10/10/10 8/8/8
f 11/11/11 7/7/7 9/9/9
f 8/8/8 10/10/10 12/12/12
f 13/13/13 11/11/11 9/9/9
f 10/10/10 14/14/14 12/12/12
f 15/15/15 11/11/11 13/13/13
f 12/12/12 14/14/14 16/16/16
f 17/17/17 15/15/15 13/13/13
f 14/14/14 18/18/18 16/16/16
f 19/19/19 15/15/15 17/17/17
f 16/16/16 18/18/18 20/20/20
f 21/21/21 19/19/19 17/17/17
f 18/18/18 22/22/22 20/20/20
f 23/23/23 19/19/19 21/21/21
f 20/20/20 22/22/22 24/24/24
f 24/24/24 22/22/22 25/25/25
f 25/25/25 22/22/22 26/26/26
f 22/22/22 27/27/27 26/26/26
f 26/26/26 27/27/27 28/28/28
f 27/27/27 29/29/29 28/28/28
f 28/28/28 29/29/29 30/30/30
f 29/29/29 31/31/31 30/30/30
f 30/30/30 31/31/31 32/32/32
f 31/31/31 33/33/33 32/32/32
f 32/32/32 33/33/33 34/34/34
f 35/35/35 23/23/23 21/21/21
f 36/36/36 23/23/23 35/35/35
f 37/37/37 23/23/23 36/36/36
f 38/38/38 23/23/23 37/37/37
f 39/39/39 38/38/38 37/37/37
f 40/40/40 38/38/38 39/39/39
f 41/41/41 40/40/40 39/39/39
f 42/42/42 40/40/40 41/41/41
f 43/43/43 42/42/42 41/41/41
f 44/44/44 42/42/42 43/43/43
f 45/45/45 44/44/44 43/43/43
f 33/33/33 46/46/46 34/34/34
f 46/46/46 44/44/44 45/45/45
f 34/34/34 46/46/46 47/47/47
f 48/48/48 46/46/46 45/45/45
f 47/47/47 46/46/46 48/48/48
