g Card_Color_03_Card_Front
v 32.45273 -0.7499922 -47.97503
v 33.15 -0.7499928 -44.2866
v 32.95043 -0.7499924 -46.48192
v 0.5675812 -0.7500001 0.8596267
v 31.73285 -0.749992 -48.98285
v 33.15 -0.7500072 44.2866
v 30.72503 -0.7499919 -49.70273
v 32.95043 -0.7500076 46.48192
v 32.45273 -0.7500078 47.97503
v 31.73285 -0.750008 48.98285
v 30.72503 -0.7500081 49.70273
v 29.23192 -0.7500082 50.20043
v 27.0366 -0.7500082 50.4
v -27.0366 -0.7500082 50.4
v -29.23192 -0.7500082 50.20043
v -30.72503 -0.7500081 49.70273
v -31.73285 -0.750008 48.98285
v 29.23192 -0.7499918 -50.20043
v -32.45273 -0.7500078 47.97503
v 26.4739 -0.7499921 -48.55699
v 28.37856 -0.7499918 -50.278
v 24.9011 -0.7499921 -48.75577
v -31.96559 -0.7500071 43.26163
v -32.95043 -0.7500076 46.48192
v -33.04338 -0.7500074 45.45938
v -32.04223 -0.7500069 42.03348
v -33.15 -0.7499928 -44.2866
v -32.95043 -0.7499924 -46.48192
v -33.15 -0.7500066 40.45057
v -31.73285 -0.749992 -48.98285
v -32.45273 -0.7499922 -47.97503
v -30.72503 -0.7499919 -49.70273
v -29.23192 -0.7499918 -50.20043
v -27.0366 -0.7499918 -50.4
v 14.35066 -0.7499921 -48.83829
v 13.47234 -0.7499918 -50.4
v 15.96386 -0.7499921 -48.58946
v 17.69419 -0.7499918 -50.4
v 23.1886 -0.7499918 -50.4
vt 0.9894831 0.02405727
vt 0.9999999 0.06064883
vt 0.9969898 0.03886986
vt 0.5085608 0.5085279
vt 0.9786251 0.01405901
vt 0.9999999 0.9393511
vt 0.9634241 0.006917357
vt 0.9969898 0.9611299
vt 0.9894829 0.9759424
vt 0.9786251 0.9859409
vt 0.9634241 0.9930825
vt 0.9409037 0.9980201
vt 0.9077918 1
vt 0.09220818 1
vt 0.05909624 0.9980201
vt 0.03657581 0.9930823
vt 0.02137489 0.9859407
vt 0.9409038 0.001979828
vt 0.010517 0.9759424
vt 0.8993047 0.01828381
vt 0.9280326 0.001210183
vt 0.8755822 0.01631185
vt 0.01786441 0.9291825
vt 0.003010249 0.9611297
vt 0.001608187 0.9509856
vt 0.01670847 0.9169985
vt 3.72529E-08 0.06064871
vt 0.003010156 0.03886986
vt 6.705523E-08 0.901295
vt 0.0213748 0.01405901
vt 0.0105169 0.02405727
vt 0.03657579 0.006917357
vt 0.05909625 0.001979917
vt 0.09220829 2.980232E-08
vt 0.7164505 0.01549324
vt 0.7032028 2.980232E-08
vt 0.7407822 0.01796174
vt 0.7668808 2.980232E-08
vt 0.8497527 2.980232E-08
vn 0 -1 0
vn 0 -1 0
vn 0 -1 0
vn 0 -1 0
vn 0 -1 0
vn 0 -1 0
vn 0 -1 0
vn 0 -1 0
vn 0 -1 0
vn 0 -1 0
vn 0 -1 0
vn 0 -1 0
vn 0 -1 0
vn 0 -1 0
vn 0 -1 0
vn 0 -1 0
vn 0 -1 0
vn 0 -1 0
vn 0 -1 0
vn 0 -1 0
vn 0 -1 0
vn 0 -1 0
vn 0 -1 0
vn 0 -1 0
vn 0 -1 0
vn 0 -1 0
vn 0 -1 0
vn 0 -1 0
vn 0 -1 0
vn 0 -1 0
vn 0 -1 0
vn 0 -1 0
vn 0 -1 0
vn 0 -1 0
vn 0 -1 0
vn 0 -1 0
vn 0 -1 0
vn 0 -1 0
vn 0 -1 0
g Card_Color_03_Card_Front_0
f 3/3/3 2/2/2 1/1/1
f 2/2/2 4/4/4 1/1/1
f 5/5/5 1/1/1 4/4/4
f 6/6/6 4/4/4 2/2/2
f 7/7/7 5/5/5 4/4/4
f 8/8/8 4/4/4 6/6/6
f 9/9/9 4/4/4 8/8/8
f 10/10/10 4/4/4 9/9/9
f 11/11/11 4/4/4 10/10/10
f 12/12/12 4/4/4 11/11/11
f 13/13/13 4/4/4 12/12/12
f 14/14/14 4/4/4 13/13/13
f 15/15/15 4/4/4 14/14/14
f 16/16/16 4/4/4 15/15/15
f 17/17/17 4/4/4 16/16/16
f 18/18/18 7/7/7 4/4/4
f 19/19/19 4/4/4 17/17/17
f 18/18/18 4/4/4 20/20/20
f 21/21/21 18/18/18 20/20/20
f 22/22/22 20/20/20 4/4/4
f 4/4/4 19/19/19 23/23/23
f 23/23/23 19/19/19 24/24/24
f 25/25/25 23/23/23 24/24/24
f 26/26/26 4/4/4 23/23/23
f 27/27/27 4/4/4 26/26/26
f 28/28/28 4/4/4 27/27/27
f 29/29/29 27/27/27 26/26/26
f 30/30/30 4/4/4 28/28/28
f 31/31/31 30/30/30 28/28/28
f 30/30/30 32/32/32 4/4/4
f 32/32/32 33/33/33 4/4/4
f 33/33/33 34/34/34 4/4/4
f 34/34/34 35/35/35 4/4/4
f 36/36/36 35/35/35 34/34/34
f 35/35/35 37/37/37 4/4/4
f 37/37/37 22/22/22 4/4/4
f 22/22/22 37/37/37 38/38/38
f 39/39/39 22/22/22 38/38/38
