g Color_04
v -2.419569 -4.333508 8.686745
v -2.29826 -4.19028 8.870777
v -0.1592436 -1.665143 8.870776
v 4.989699 -8.458393 6.36979
v 4.992456 -8.318165 8.870797
v 5.138783 -8.602633 8.635696
v 8.289702 -9.326815 8.606332
v 8.334402 -9.065277 8.870778
v 8.937761 -5.937762 8.870776
v -6.123217 0.446434 6.397302
v -5.991693 0.4892931 8.870776
v -6.041071 0.2391663 8.683292
v 1.657656 -3.112403 8.762488
v -0.5090885 -5.535442 8.870778
v -0.8609648 -5.590092 8.412789
v -0.5090885 -5.535442 8.870778
v 3.742674 -7.97986 8.762489
v -0.8609648 -5.590092 8.412789
v -8.265961 7.463397 8.870774
v -6.956957 2.138913 8.780833
v -8.40694 7.257455 8.687905
v -5.019106 9.098016 6.453155
v -5.093012 9.092017 -9.536743E-07
v -4.919489 7.62571 6.453156
v -3.921406 3.726019 6.453157
v -4.919489 7.625712 8.870773
v -3.921406 3.72602 8.870775
v -3.3974 2.540656 9.536743E-07
v -2.991421 1.910901 6.453157
v -0.1592445 -1.665144 6.453158
v -2.991421 1.910902 8.870775
v -0.1592436 -1.665143 8.870776
v 0.3607492 -2.2046 2.861023E-06
v 1.558575 -3.059338 6.453159
v 4.90996 -4.854716 6.453158
v 1.657656 -3.112403 8.762488
v 4.910273 -4.854868 8.870776
v 5.217634 -4.948627 2.861023E-06
v 6.079747 -5.296473 6.441898
v 8.937761 -5.937763 6.453158
v 8.937759 -5.937766 2.861023E-06
v 8.937761 -5.937762 8.870776
v 6.079536 -5.296427 8.870796
v -4.919489 7.62571 6.453156
v -8.267233 7.463336 6.453156
v -8.356388 8.827823 6.453156
v -5.019106 9.098016 6.453155
v -8.434622 7.374573 6.364131
v -8.618349 8.806599 0
v -8.52829 8.813906 6.365562
v -7.038683 2.096179 6.453158
v -6.550159 0.9911137 2.384186E-06
v -8.40694 7.257455 8.687905
v -6.956957 2.138913 8.780833
v -6.123217 0.446434 6.397302
v -6.041071 0.2391663 8.683292
v -2.41957 -4.333509 6.45316
v -2.419569 -4.333508 8.686745
v -2.991421 1.910901 6.453157
v -6.123217 0.446434 6.397302
v -7.038683 2.096179 6.453158
v -3.921406 3.726019 6.453157
v 1.558575 -3.059338 6.453159
v -0.8609657 -5.590092 6.45316
v -2.41957 -4.333509 6.45316
v -0.1592445 -1.665144 6.453158
v -2.41957 -4.333509 6.45316
v -6.550159 0.9911137 2.384186E-06
v -6.123217 0.446434 6.397302
v -1.934802 -4.836411 4.768372E-06
v -0.8609657 -5.590092 6.45316
v 3.704421 -8.082342 6.464097
v 4.033055 -8.194193 4.768372E-06
v -7.038683 2.096179 6.453158
v -6.956957 2.138913 8.780833
v -3.921406 3.72602 8.870775
v -3.921406 3.726019 6.453157
v 3.704421 -8.082342 6.464097
v 4.90996 -4.854716 6.453158
v 6.079747 -5.296473 6.441898
v 4.989699 -8.458393 6.36979
v 6.079536 -5.296427 8.870796
v 8.937761 -5.937762 8.870776
v 8.334402 -9.065277 8.870778
v 4.992456 -8.318165 8.870797
v 4.989699 -8.458393 6.36979
v 6.079747 -5.296473 6.441898
v 6.079536 -5.296427 8.870796
v 4.992456 -8.318165 8.870797
v 8.372653 -9.269554 6.453161
v 8.289064 -9.322519 4.768372E-06
v 8.205452 -9.375011 6.449627
v 8.289702 -9.326815 8.606332
v 8.937761 -5.937763 6.453158
v 8.937759 -5.937766 2.861023E-06
v 8.289064 -9.322519 4.768372E-06
v 8.372653 -9.269554 6.453161
v 8.937761 -5.937762 8.870776
v 8.289702 -9.326815 8.606332
v 4.992456 -8.318165 8.870797
v 8.334402 -9.065277 8.870778
v 8.289702 -9.326815 8.606332
v 5.138783 -8.602633 8.635696
v 5.138783 -8.602633 8.635696
v 8.289702 -9.326815 8.606332
v 8.205452 -9.375011 6.449627
v 4.989699 -8.458393 6.36979
v 8.289064 -9.322519 4.768372E-06
v 4.033055 -8.194193 4.768372E-06
v 3.704421 -8.082342 6.464097
v -0.8609657 -5.590092 6.45316
v 3.742674 -7.97986 8.762489
v -0.8609648 -5.590092 8.412789
v -5.991693 0.4892931 8.870776
v -2.29826 -4.19028 8.870777
v -2.419569 -4.333508 8.686745
v -6.041071 0.2391663 8.683292
v -0.1592436 -1.665143 8.870776
v -2.29826 -4.19028 8.870777
v -5.991693 0.4892931 8.870776
v -2.991421 1.910902 8.870775
v -2.991421 1.910901 6.453157
v -2.991421 1.910902 8.870775
v -5.991693 0.4892931 8.870776
v -6.123217 0.446434 6.397302
v -2.41957 -4.333509 6.45316
v -2.419569 -4.333508 8.686745
v -0.1592436 -1.665143 8.870776
v -0.1592445 -1.665144 6.453158
v 3.742674 -7.97986 8.762489
v 4.910273 -4.854868 8.870776
v 4.90996 -4.854716 6.453158
v 3.704421 -8.082342 6.464097
v 1.558575 -3.059338 6.453159
v 1.657656 -3.112403 8.762488
v -0.8609648 -5.590092 8.412789
v -0.8609657 -5.590092 6.45316
v 4.910273 -4.854868 8.870776
v 3.742674 -7.97986 8.762489
v -0.5090885 -5.535442 8.870778
v 1.657656 -3.112403 8.762488
v -8.267233 7.463336 6.453156
v -8.265961 7.463397 8.870774
v -8.40694 7.257455 8.687905
v -8.434622 7.374573 6.364131
v -8.434622 7.374573 6.364131
v -8.52829 8.813906 6.365562
v -8.356388 8.827823 6.453156
v -8.267233 7.463336 6.453156
v -3.921406 3.72602 8.870775
v -6.956957 2.138913 8.780833
v -8.265961 7.463397 8.870774
v -4.919489 7.625712 8.870773
v -4.919489 7.62571 6.453156
v -4.919489 7.625712 8.870773
v -8.265961 7.463397 8.870774
v -8.267233 7.463336 6.453156
vt 0.05967243 0.01313532
vt 0.0596516 0.01305006
vt 0.05907375 0.01263724
vt 0.0105111 0.01325926
vt 0.01052308 0.01354884
vt 0.01055259 0.01336527
vt 0.05994742 0.01249661
vt 0.0599582 0.01251429
vt 0.06007831 0.01249612
vt 0.06095198 0.01239799
vt 0.06057905 0.01187508
vt 0.06058086 0.01198849
vt 0.06061852 0.01203165
vt 0.06023438 0.01279949
vt 0.06026728 0.01297876
vt 0.06023438 0.01279949
vt 0.0594072 0.01257555
vt 0.06026728 0.01297876
vt 0.06026302 0.01198583
vt 0.05929512 0.01206378
vt 0.06023505 0.01207619
vt 0.009841666 0.01344667
vt 0.009880841 0.01200047
vt 0.009905368 0.01344667
vt 0.01003811 0.01344668
vt 0.009905368 0.01415424
vt 0.01003809 0.01415424
vt 0.0100807 0.01200047
vt 0.01010527 0.01344668
vt 0.01025631 0.01344669
vt 0.01010527 0.01415424
vt 0.01025254 0.01415425
vt 0.01028103 0.01200048
vt 0.01032943 0.0134467
vt 0.01045527 0.01344671
vt 0.01034419 0.01415385
vt 0.01044297 0.01417417
vt 0.01046588 0.01200048
vt 0.01049647 0.01344341
vt 0.01059267 0.01344671
vt 0.01059267 0.01200048
vt 0.01059267 0.01415427
vt 0.01049645 0.01415427
vt 0.009905368 0.01344667
vt 0.009894818 0.01349851
vt 0.009852976 0.01349851
vt 0.009841666 0.01344667
vt 0.009887144 0.01325926
vt 0.009852454 0.01240354
vt 0.009825781 0.01325926
vt 0.01004471 0.01325926
vt 0.01006009 0.01240354
vt 0.009912983 0.01380197
vt 0.01006044 0.01369653
vt 0.01009031 0.01325925
vt 0.01011935 0.01365818
vt 0.01026958 0.01325925
vt 0.0102915 0.01364025
vt 0.03555009 0.01249319
vt 0.03553742 0.01251132
vt 0.03550038 0.01251722
vt 0.03548293 0.01249319
vt 0.03555307 0.01249399
vt 0.03553897 0.01251642
vt 0.03549182 0.01251482
vt 0.03547995 0.01249399
vt 0.01026958 0.01325925
vt 0.01006009 0.01240354
vt 0.01009031 0.01325925
vt 0.01027085 0.01240354
vt 0.01032598 0.01325925
vt 0.01047371 0.01325926
vt 0.01046541 0.01240354
vt 0.01005556 0.01349902
vt 0.01005763 0.01418723
vt 0.01003809 0.01415424
vt 0.01003811 0.01344668
vt 0.03551018 0.01251714
vt 0.03549591 0.01249478
vt 0.03553711 0.01249326
vt 0.03552479 0.01251492
vt 0.03548969 0.01268081
vt 0.0355746 0.01268081
vt 0.0355746 0.0123296
vt 0.03545842 0.01235477
vt 0.01048414 0.01349057
vt 0.01049647 0.01344341
vt 0.01049645 0.01415427
vt 0.01049112 0.01415427
vt 0.06001702 0.01251683
vt 0.0600026 0.01246933
vt 0.06001589 0.01251798
vt 0.06002313 0.01254108
vt 0.01059267 0.01344671
vt 0.01059267 0.01200048
vt 0.01060756 0.01200048
vt 0.01060943 0.01346764
vt 0.01059267 0.01415427
vt 0.01062338 0.01411668
vt 0.06011614 0.01321563
vt 0.05999075 0.01179478
vt 0.05990958 0.01181558
vt 0.06003533 0.01315459
vt 0.01055259 0.01336527
vt 0.01063927 0.0133501
vt 0.01063773 0.01325926
vt 0.0105111 0.01325926
vt 0.01063927 0.01240354
vt 0.01046541 0.01240354
vt 0.01047371 0.01325926
vt 0.01032598 0.01325925
vt 0.01048431 0.01345621
vt 0.01033509 0.01347854
vt 0.06057905 0.01187508
vt 0.0596516 0.01305006
vt 0.05967243 0.01313532
vt 0.06058086 0.01198849
vt 0.0356153 0.01262021
vt 0.03557944 0.01239019
vt 0.03541772 0.01244424
vt 0.03541803 0.01262021
vt 0.01010527 0.01344668
vt 0.01010527 0.01415424
vt 0.01009859 0.01415424
vt 0.0100926 0.01348616
vt 0.01026818 0.01349205
vt 0.01027121 0.01415272
vt 0.01025254 0.01415425
vt 0.01025631 0.01344669
vt 0.01046275 0.01420505
vt 0.01044297 0.01417417
vt 0.01045527 0.01344671
vt 0.01046954 0.01349541
vt 0.01032943 0.0134467
vt 0.01034419 0.01415385
vt 0.01031445 0.01418109
vt 0.01031533 0.01349554
vt 0.03558803 0.01268948
vt 0.03558013 0.01232092
vt 0.03544499 0.01235181
vt 0.03546272 0.01268948
vt 0.06042971 0.01274271
vt 0.06026302 0.01198583
vt 0.06023505 0.01207619
vt 0.06040539 0.01279632
vt 0.06040539 0.01279632
vt 0.06073035 0.01302459
vt 0.06073061 0.01295472
vt 0.06042971 0.01274271
vt 0.03559178 0.01263432
vt 0.03559259 0.01237609
vt 0.03544137 0.01244038
vt 0.03544043 0.01263432
vt 0.009905368 0.01344667
vt 0.009905368 0.01415424
vt 0.009894818 0.01410239
vt 0.009894818 0.01349851
vn 0.763036 -0.646356 2.30286E-05
vn 0.7630343 -0.6463581 7.486971E-05
vn 0.7630367 -0.6463552 0
vn -0.8794467 -0.4751958 0.02761311
vn -0.8794467 -0.4751958 0.02761311
vn -0.8794467 -0.4751957 0.02761311
vn 0.9832155 -0.181619 0.01737379
vn 0.9816706 -0.1893836 0.02136754
vn 0.9837649 -0.1787558 0.01590259
vn -0.986277 0.1574359 0.04971576
vn -0.986277 0.1574359 0.04971576
vn -0.986277 0.1574359 0.04971576
vn -0.7133614 0.6979413 0.06319282
vn -0.6613683 0.6108643 0.4352432
vn -0.7088354 0.6823758 0.17865
vn -0.4410401 -0.7863026 0.4326798
vn -0.4711867 -0.8805681 0.05082141
vn -0.4692494 -0.8639218 0.1828775
vn -0.3088684 -0.08750204 0.9470711
vn -0.7284848 -0.2049424 0.6536884
vn -0.8649505 -0.2325917 0.4447041
vn 0.9976531 0.06750177 -0.01148855
vn 0.9742655 0.2239455 0.02559474
vn 0.9802281 0.197674 0.008824696
vn 0.9504426 0.3107816 0.008588306
vn 0.9687737 0.247947 0
vn 0.9687737 0.247947 0
vn 0.8924307 0.4508131 0.01830609
vn 0.8200595 0.572278 0.000483378
vn 0.740214 0.6723714 -0.0003358637
vn 0.7839241 0.6208567 0
vn 0.783924 0.6208567 0
vn 0.6499751 0.7598653 0.01171298
vn 0.52417 0.8516086 0.002928653
vn 0.4389246 0.898494 0.007322678
vn 0.47222 0.8814808 0
vn 0.47222 0.8814808 0
vn 0.3682559 0.9296234 0.01371321
vn 0.2681797 0.9633576 0.004664031
vn 0.229734 0.9732404 0.005037703
vn 0.2405477 0.9705848 0.01009929
vn 0.218939 0.9757386 0
vn 0.218939 0.9757386 0
vn 0 0 1
vn -0.2575856 -0.01705309 0.9661049
vn -0.2314885 -0.0153253 0.972717
vn 0 0 1
vn -0.9789764 -0.2039685 -0.001390269
vn -0.9730674 -0.2293332 -0.02336749
vn -0.9977877 -0.06494749 0.01419115
vn -0.9449207 -0.3272996 0.0002027885
vn -0.8909489 -0.4538778 -0.0143153
vn -0.8649505 -0.2325917 0.4447041
vn -0.7284848 -0.2049424 0.6536884
vn -0.8172343 -0.5763047 -0.0009693147
vn -0.7871519 -0.616601 -0.01397009
vn -0.7416297 -0.670805 -0.002462651
vn -0.7871519 -0.616601 -0.01397009
vn -0.000756089 -0.0165214 0.9998633
vn -0.0007560891 -0.0165214 0.9998633
vn -0.0007560891 -0.0165214 0.9998633
vn -0.000756089 -0.0165214 0.9998633
vn 0 0 1
vn 0 0 1
vn 0 0 1
vn 0 0 1
vn -0.7416297 -0.670805 -0.002462651
vn -0.8909489 -0.4538778 -0.0143153
vn -0.8172343 -0.5763047 -0.0009693147
vn -0.6514284 -0.7586664 -0.008141487
vn -0.5236953 -0.8518799 0.006628756
vn -0.4186314 -0.9081476 0.003954981
vn -0.3746976 -0.9270931 -0.01000656
vn 0.4633331 -0.8861842 0
vn 0.463333 -0.8861842 0
vn 0.463333 -0.8861842 0
vn 0.463333 -0.8861842 0
vn 0.03552418 -0.02232781 0.9991193
vn 0.03552418 -0.02232781 0.9991193
vn 0.03552418 -0.02232781 0.9991193
vn 0.03552418 -0.02232781 0.9991193
vn 0 0 1
vn 0 0 1
vn -0.08343615 -0.3760915 0.9228184
vn -0.0678115 -0.3056684 0.9497201
vn -0.943175 0.3321753 -0.008964375
vn -0.943175 0.3321753 -0.008964375
vn -0.943175 0.3321753 -0.008964375
vn -0.943175 0.3321753 -0.008964375
vn 0.5334886 -0.8458067 -0.0009552086
vn 0.533474 -0.8458164 3.19939E-05
vn 0.5334883 -0.8458069 -0.000932899
vn 0.5335028 -0.845796 -0.001939625
vn 0.9840119 -0.178033 0.004989875
vn 0.9840441 -0.1778349 -0.005643531
vn 0.9840441 -0.1778349 -0.005643531
vn 0.9840112 -0.1780343 0.005064597
vn 0.9837649 -0.1787558 0.01590259
vn 0.9832155 -0.181619 0.01737379
vn -0.0678115 -0.3056684 0.9497201
vn -0.08343615 -0.3760915 0.9228184
vn -0.151404 -0.6824316 0.7150971
vn -0.151404 -0.6824316 0.7150971
vn -0.2494964 -0.9683437 -0.007865578
vn -0.2494964 -0.9683437 -0.007865578
vn -0.2565587 -0.9665042 -0.006881919
vn -0.264735 -0.9643133 -0.003891526
vn -0.2639186 -0.9645272 -0.00585433
vn -0.3746976 -0.9270931 -0.01000656
vn -0.4186314 -0.9081476 0.003954981
vn -0.5236953 -0.8518799 0.006628756
vn -0.4711867 -0.8805681 0.05082141
vn -0.4692494 -0.8639218 0.1828775
vn -0.2558996 -0.2021933 0.9453218
vn -0.3298592 -0.2606308 0.9073392
vn -0.5501539 -0.4346919 0.7130033
vn -0.5501539 -0.434692 0.7130033
vn 0 0 1
vn -0.3298592 -0.2606308 0.9073392
vn -0.2558996 -0.2021933 0.9453218
vn 0 0 1
vn -0.4258686 0.9047782 0.00352329
vn -0.4258685 0.9047781 0.003523289
vn -0.4258686 0.9047781 0.00352329
vn -0.4258685 0.9047781 0.00352329
vn 0.7630368 -0.646355 0
vn 0.763036 -0.646356 2.30286E-05
vn 0.7630367 -0.6463552 0
vn 0.7630368 -0.6463552 0
vn 0.9367697 -0.3499465 -6.721765E-05
vn 0.9367697 -0.3499465 -6.721765E-05
vn 0.9367697 -0.3499465 -6.721766E-05
vn 0.9367697 -0.3499465 -6.721765E-05
vn -0.7127393 0.7009742 0.02525605
vn -0.7133614 0.6979413 0.06319282
vn -0.7088354 0.6823758 0.17865
vn -0.7127393 0.7009742 0.02525605
vn 0 0 1
vn 0 0 1
vn 0 0 1
vn 0 0 1
vn -0.4433366 0.896259 0.01313527
vn -0.3113929 0.9502413 0.008714952
vn -0.700761 0.7130604 0.02188347
vn -0.700761 0.7130604 0.02188347
vn -0.4543521 -0.03008028 0.8903143
vn -0.4543521 -0.03008028 0.8903142
vn -0.2314885 -0.0153253 0.972717
vn -0.2575856 -0.01705309 0.9661049
vn -0.01068596 -0.01242176 0.9998658
vn -0.7284848 -0.2049424 0.6536884
vn -0.3088684 -0.08750204 0.9470711
vn -0.01068596 -0.01242176 0.9998658
vn -0.04844601 0.9988257 0
vn -0.04844601 0.9988257 0
vn -0.3113929 0.9502413 0.008714952
vn -0.4433366 0.896259 0.01313527
g Color_04_0
f 3/3/3 2/2/2 1/1/1
f 6/6/6 5/5/5 4/4/4
f 9/9/9 8/8/8 7/7/7
f 12/12/12 11/11/11 10/10/10
f 15/15/15 14/14/14 13/13/13
f 18/18/18 17/17/17 16/16/16
f 21/21/21 20/20/20 19/19/19
f 24/24/24 23/23/23 22/22/22
f 23/23/23 24/24/24 25/25/25
f 24/24/24 26/26/26 25/25/25
f 26/26/26 27/27/27 25/25/25
f 28/28/28 23/23/23 25/25/25
f 29/29/29 28/28/28 25/25/25
f 28/28/28 29/29/29 30/30/30
f 29/29/29 31/31/31 30/30/30
f 31/31/31 32/32/32 30/30/30
f 33/33/33 28/28/28 30/30/30
f 34/34/34 33/33/33 30/30/30
f 33/33/33 34/34/34 35/35/35
f 34/34/34 36/36/36 35/35/35
f 36/36/36 37/37/37 35/35/35
f 38/38/38 33/33/33 35/35/35
f 39/39/39 38/38/38 35/35/35
f 39/39/39 40/40/40 38/38/38
f 40/40/40 41/41/41 38/38/38
f 42/42/42 40/40/40 39/39/39
f 43/43/43 42/42/42 39/39/39
f 46/46/46 45/45/45 44/44/44
f 47/47/47 46/46/46 44/44/44
f 50/50/50 49/49/49 48/48/48
f 48/48/48 49/49/49 51/51/51
f 49/49/49 52/52/52 51/51/51
f 48/48/48 51/51/51 53/53/53
f 51/51/51 54/54/54 53/53/53
f 51/51/51 52/52/52 55/55/55
f 55/55/55 57/57/57 56/56/56
f 57/57/57 58/58/58 56/56/56
f 61/61/61 60/60/60 59/59/59
f 62/62/62 61/61/61 59/59/59
f 65/65/65 64/64/64 63/63/63
f 66/66/66 65/65/65 63/63/63
f 69/69/69 68/68/68 67/67/67
f 68/68/68 70/70/70 67/67/67
f 67/67/67 70/70/70 71/71/71
f 71/71/71 70/70/70 72/72/72
f 70/70/70 73/73/73 72/72/72
f 76/76/76 75/75/75 74/74/74
f 77/77/77 76/76/76 74/74/74
f 80/80/80 79/79/79 78/78/78
f 81/81/81 80/80/80 78/78/78
f 84/84/84 83/83/83 82/82/82
f 85/85/85 84/84/84 82/82/82
f 88/88/88 87/87/87 86/86/86
f 89/89/89 88/88/88 86/86/86
f 92/92/92 91/91/91 90/90/90
f 90/90/90 93/93/93 92/92/92
f 96/96/96 95/95/95 94/94/94
f 97/97/97 96/96/96 94/94/94
f 94/94/94 98/98/98 97/97/97
f 98/98/98 99/99/99 97/97/97
f 102/102/102 101/101/101 100/100/100
f 103/103/103 102/102/102 100/100/100
f 106/106/106 105/105/105 104/104/104
f 107/107/107 106/106/106 104/104/104
f 108/108/108 106/106/106 107/107/107
f 109/109/109 108/108/108 107/107/107
f 110/110/110 109/109/109 107/107/107
f 110/110/110 112/112/112 111/111/111
f 112/112/112 113/113/113 111/111/111
f 116/116/116 115/115/115 114/114/114
f 117/117/117 116/116/116 114/114/114
f 120/120/120 119/119/119 118/118/118
f 121/121/121 120/120/120 118/118/118
f 124/124/124 123/123/123 122/122/122
f 125/125/125 124/124/124 122/122/122
f 128/128/128 127/127/127 126/126/126
f 129/129/129 128/128/128 126/126/126
f 132/132/132 131/131/131 130/130/130
f 133/133/133 132/132/132 130/130/130
f 136/136/136 135/135/135 134/134/134
f 137/137/137 136/136/136 134/134/134
f 140/140/140 139/139/139 138/138/138
f 141/141/141 140/140/140 138/138/138
f 144/144/144 143/143/143 142/142/142
f 145/145/145 144/144/144 142/142/142
f 148/148/148 147/147/147 146/146/146
f 149/149/149 148/148/148 146/146/146
f 152/152/152 151/151/151 150/150/150
f 153/153/153 152/152/152 150/150/150
f 156/156/156 155/155/155 154/154/154
f 157/157/157 156/156/156 154/154/154
