g Color_Boss_38
v 0.3890042 0.3952035 -1.031006
v 0.9520054 0.3925852 -1.024157
v 0.9519739 0.9461 -0.4235108
v 0.3889718 0.9523113 -0.4263048
v 0.9519758 0.9461 0.4234933
v 0.3889747 0.9523113 0.4263214
v 0.9520082 0.3925848 1.02414
v 0.3890057 0.3952029 1.031018
v 0.3890057 0.3952029 1.031018
v 0.9520082 0.3925848 1.02414
v 0.9520092 -0.3925842 1.024141
v 0.3890076 -0.3951748 1.03102
v 0.3889928 -0.6828335 0.7188548
v 0.3890076 -0.3951748 1.03102
v 0.9520092 -0.3925842 1.024141
v 0.9519806 -0.9460986 0.4234945
v 0.3889794 -0.9524 0.4263228
v 0.3889794 -0.9524 0.4263228
v 0.9519806 -0.9460986 0.4234945
v 0.9519806 -0.9460986 -0.423495
v 0.388978 -0.9524 -0.4262934
v 0.9520073 -0.3925841 -1.024159
v 0.3890042 -0.3951747 -1.031008
v 0.3890042 -0.3951747 -1.031008
v 0.9520073 -0.3925841 -1.024159
v 0.9520054 0.3925852 -1.024157
v 0.3890042 0.3952035 -1.031006
v 1.451992 -0.4803795 1.265952
v 1.319664 -1.159739 0.5243679
v 1.258893 -0.4656504 1.227104
v 1.451992 0.480346 1.265952
v 1.258893 0.4656181 1.227139
v 1.319664 1.159739 0.5243682
v -1.825078 0.3732892 0.9836397
v 0.3359675 0.884681 0.4000288
v 0.3359675 0.3664988 0.9657998
v -1.825078 0.9007895 0.4073642
v 0.3359675 0.884681 -0.400012
v -1.825078 0.9007895 -0.4072577
v 0.3359675 0.3664991 -0.9657877
v -1.825078 0.3732895 -0.9835509
v -1.825078 -0.3731927 0.9836392
v -1.825078 0.3732892 0.9836397
v 0.3359675 0.3664988 0.9657998
v 0.3359675 -0.3664721 0.9657998
v -1.825078 -0.9011142 0.407364
v -1.825078 -0.6408408 0.6914767
v 0.3359675 -0.6361879 0.6713794
v 0.3359675 -0.8847716 0.4000286
v -1.825078 -0.9011137 -0.4072581
v 0.3359675 -0.8847711 -0.3999996
v -1.825078 -0.3731921 -0.9835511
v 0.3359675 -0.3664716 -0.9657879
v -1.825078 0.3732895 -0.9835509
v -1.825078 -0.3731921 -0.9835511
v 0.3359675 -0.3664716 -0.9657879
v 0.3359675 0.3664991 -0.9657877
v 0.3359675 0.3664988 0.9657998
v 0.3890076 -0.3951748 1.03102
v 0.3359675 -0.3664721 0.9657998
v 0.3890057 0.3952029 1.031018
v 0.3359675 0.884681 0.4000288
v 0.3889747 0.9523113 0.4263214
v 0.3359675 0.884681 -0.400012
v 0.3889718 0.9523113 -0.4263048
v 0.3359675 0.3664991 -0.9657877
v 0.3890042 0.3952035 -1.031006
v 0.3359675 -0.3664716 -0.9657879
v 0.3890042 -0.3951747 -1.031008
v 0.3359675 -0.8847711 -0.3999996
v 0.388978 -0.9524 -0.4262934
v 0.3359675 -0.8847716 0.4000286
v 0.3889794 -0.9524 0.4263228
v 1.00349 -0.3638815 0.958921
v 0.9520092 -0.3925842 1.024141
v 0.9520082 0.3925848 1.02414
v 1.00349 0.3638812 0.9589214
v 0.9519758 0.9461 0.4234933
v 1.00349 0.8784695 0.3972007
v 0.9519739 0.9461 -0.4235108
v 1.00349 0.8784695 -0.3972182
v 0.9520054 0.3925852 -1.024157
v 1.00349 0.3638815 -0.9589389
v 0.9520073 -0.3925841 -1.024159
v 1.00349 -0.3638809 -0.9589391
v 0.9519806 -0.9460986 -0.423495
v 1.00349 -0.8784692 -0.3972009
v 0.9519806 -0.9460986 0.4234945
v 1.00349 -0.8784697 0.3972005
v 0.3889928 -0.6828335 0.7188548
v 0.3889794 -0.9524 0.4263228
v 0.3359675 -0.8847716 0.4000286
v 0.3359675 -0.6361879 0.6713794
v 0.3359675 -0.3664721 0.9657998
v 0.3890076 -0.3951748 1.03102
v 0.9519806 -0.9460986 0.4234945
v 0.9520092 -0.3925842 1.024141
v 1.00349 -0.3638815 0.958921
v 1.00349 -0.8784697 0.3972005
v 1.782977 0.471674 -0.2132151
v 1.794788 0.468694 0.2242531
v 1.816361 0.5370308 -0.2427667
v 1.783813 0.1954976 -0.514673
v 1.8168 0.2214884 -0.5831776
v 1.783814 -0.195257 -0.5146741
v 1.8168 -0.2212489 -0.5831729
v 1.783007 -0.4713753 -0.2131208
v 1.816508 -0.5359996 -0.2423413
v 1.783188 -0.4708031 0.2141588
v 1.816406 -0.5366605 0.2426559
v 1.795465 -0.204969 0.5401212
v -1.825078 -0.6408408 0.6914767
v -1.825078 -0.3731927 0.9836392
v 0.3359675 -0.3664721 0.9657998
v 0.3359675 -0.6361879 0.6713794
v 1.719486 -0.4803795 1.265952
v 1.719486 -1.159739 0.5243679
v 1.319664 -1.159739 0.5243679
v 1.719486 -1.159738 -0.5243689
v 1.451992 -0.4803795 1.265952
v 1.451992 0.480346 1.265952
v 1.719486 0.480346 1.265952
v 1.319664 1.159739 0.5243682
v 1.719486 1.159739 0.5243682
v 1.319664 -1.159738 -0.5243689
v 1.719486 -0.4803789 -1.265952
v 1.319664 1.159739 -0.5243684
v 1.719486 1.159739 -0.5243684
v 1.00349 -0.8784697 0.3972005
v 1.258893 -0.4656504 1.227104
v 1.00349 -0.3638815 0.958921
v 1.00349 0.3638812 0.9589214
v 1.258893 0.4656181 1.227139
v 1.00349 0.8784695 0.3972007
v 1.00349 0.8784695 -0.3972182
v 1.00349 -0.8784692 -0.3972009
v 1.00349 0.3638815 -0.9589389
v 1.319664 0.4803466 -1.265952
v 1.719486 0.4803466 -1.265952
v 1.00349 -0.3638809 -0.9589391
v 1.319664 -0.4803789 -1.265952
v 1.825078 0.1994663 0.5249351
v 0.9322586 -1.632314E-05 9.059906E-06
v 1.795465 -0.204969 0.5401212
v 1.794788 0.468694 0.2242531
v 1.783188 -0.4708031 0.2141588
v 1.782977 0.471674 -0.2132151
v 1.783007 -0.4713753 -0.2131208
v 1.783813 0.1954976 -0.514673
v 1.783814 -0.195257 -0.5146741
v 1.719486 1.159739 0.5243682
v 1.794788 0.468694 0.2242531
v 1.825078 0.1994663 0.5249351
v 1.719486 0.480346 1.265952
v 1.719486 1.159739 -0.5243684
v 1.795465 -0.204969 0.5401212
v 1.816361 0.5370308 -0.2427667
v 1.719486 -0.4803795 1.265952
v 1.719486 0.4803466 -1.265952
v 1.816406 -0.5366605 0.2426559
v 1.8168 0.2214884 -0.5831776
v 1.719486 -1.159739 0.5243679
v 1.719486 -0.4803789 -1.265952
v 1.816508 -0.5359996 -0.2423413
v 1.8168 -0.2212489 -0.5831729
v 1.719486 -1.159738 -0.5243689
vt 0.5255385 0.03531365
vt 0.5254989 0.03660364
vt 0.5273982 0.03665331
vt 0.5274457 0.03536534
vt 0.5292867 0.03670651
vt 0.5293416 0.03542498
vt 0.5311889 0.03677464
vt 0.5312504 0.03550877
vt 0.5312504 0.03550877
vt 0.5311889 0.03677464
vt 0.5330666 0.0369212
vt 0.5332304 0.03557459
vt 0.523949 0.03586655
vt 0.5238178 0.03864179
vt 0.5288972 0.03879216
vt 0.5291496 0.03345212
vt 0.5240719 0.03326584
vt 0.5198346 0.03515452
vt 0.5197379 0.03651105
vt 0.5216871 0.03651394
vt 0.521702 0.03525051
vt 0.5235884 0.03656234
vt 0.5236171 0.03527907
vt 0.5236171 0.03527907
vt 0.5235884 0.03656234
vt 0.5254989 0.03660364
vt 0.5255385 0.03531365
vt 0.6608863 0.03572813
vt 0.6604303 0.03530807
vt 0.6607395 0.03581131
vt 0.6612319 0.03621412
vt 0.6610745 0.03628238
vt 0.6614556 0.03674992
vt 0.661103 0.01208107
vt 0.6613221 0.01176789
vt 0.6611001 0.01207147
vt 0.6613289 0.0117718
vt 0.6613221 0.01133852
vt 0.6613289 0.01133464
vt 0.6611001 0.0110349
vt 0.661103 0.01102537
vt 0.6607832 0.01208107
vt 0.661103 0.01208107
vt 0.6611001 0.01207147
vt 0.660786 0.01207147
vt 0.660557 0.0117718
vt 0.6606685 0.01192426
vt 0.6606705 0.01191349
vt 0.660564 0.01176789
vt 0.660557 0.01133464
vt 0.660564 0.01133852
vt 0.6607832 0.01102537
vt 0.660786 0.0110349
vt 0.661103 0.01102537
vt 0.6607832 0.01102537
vt 0.660786 0.0110349
vt 0.6611001 0.0110349
vt 0.531262 0.03533843
vt 0.5332304 0.03557459
vt 0.5331498 0.0353948
vt 0.5312504 0.03550877
vt 0.5293618 0.03524177
vt 0.5293416 0.03542498
vt 0.5274464 0.03518423
vt 0.5274457 0.03536534
vt 0.5255369 0.0351399
vt 0.5255385 0.03531365
vt 0.5236353 0.03510864
vt 0.5236171 0.03527907
vt 0.521733 0.03506863
vt 0.521702 0.03525051
vt 0.5199236 0.03497204
vt 0.5198346 0.03515452
vt 0.5329633 0.03708595
vt 0.5330666 0.0369212
vt 0.5311889 0.03677464
vt 0.5311728 0.03694448
vt 0.5292867 0.03670651
vt 0.5292835 0.03688522
vt 0.5273982 0.03665331
vt 0.527379 0.03683507
vt 0.5254989 0.03660364
vt 0.525481 0.03677191
vt 0.5235884 0.03656234
vt 0.5235921 0.03673366
vt 0.5216871 0.03651394
vt 0.5217014 0.03669272
vt 0.5197379 0.03651105
vt 0.5198166 0.03669843
vt 0.523949 0.03586655
vt 0.5240719 0.03326584
vt 0.5233484 0.03345417
vt 0.5232409 0.03585967
vt 0.5231242 0.03846966
vt 0.5238178 0.03864179
vt 0.5291496 0.03345212
vt 0.5288972 0.03879216
vt 0.5295954 0.03866611
vt 0.529844 0.03368742
vt 0.6624302 0.0355454
vt 0.6624208 0.03664907
vt 0.6626364 0.03547085
vt 0.661559 0.03478485
vt 0.6616411 0.03461201
vt 0.6603264 0.03478485
vt 0.6602444 0.03461202
vt 0.6594554 0.03554562
vt 0.6592515 0.03547191
vt 0.6594571 0.03662362
vt 0.6592495 0.0366955
vt 0.6602958 0.03744598
vt 0.6609358 0.03503936
vt 0.6605694 0.03508868
vt 0.6609473 0.03701863
vt 0.6613165 0.03696892
vt 0.6607372 0.01223258
vt 0.660446 0.01183463
vt 0.660446 0.01183463
vt 0.660446 0.01127183
vt 0.6607372 0.01223258
vt 0.6611487 0.01223258
vt 0.6611487 0.01223258
vt 0.6614398 0.01183463
vt 0.6614398 0.01183463
vt 0.660446 0.01127183
vt 0.6607372 0.01087386
vt 0.6614398 0.01127183
vt 0.6614398 0.01127183
vt 0.6605666 0.01176638
vt 0.6607434 0.01221173
vt 0.660787 0.01206785
vt 0.6610988 0.01206785
vt 0.6611423 0.01221176
vt 0.6613193 0.01176638
vt 0.6613193 0.01134006
vt 0.6605666 0.01134007
vt 0.6610988 0.01103861
vt 0.6611487 0.01087386
vt 0.6611487 0.01087386
vt 0.660787 0.01103861
vt 0.6607372 0.01087386
vt 0.6843823 0.01304018
vt 0.6842225 0.01288678
vt 0.6838599 0.01301727
vt 0.6847845 0.01297141
vt 0.683571 0.01291959
vt 0.6848752 0.01285588
vt 0.6836604 0.01280688
vt 0.6845843 0.01276194
vt 0.6840803 0.01274164
vt 0.6614398 0.01183463
vt 0.6611555 0.01167356
vt 0.6610284 0.01183493
vt 0.6611487 0.01223258
vt 0.6614398 0.01127183
vt 0.6608551 0.01184306
vt 0.661173 0.01142294
vt 0.6607372 0.01223258
vt 0.6611487 0.01087386
vt 0.660713 0.01168345
vt 0.6610378 0.01124026
vt 0.660446 0.01183463
vt 0.6607372 0.01087386
vt 0.6607133 0.01142316
vt 0.6608481 0.01124026
vt 0.660446 0.01127183
vn 0.01156897 0.7353644 -0.6775733
vn 0.01156896 0.7353644 -0.6775733
vn 0.01213105 0.9314892 -0.3635666
vn 0.01213125 0.9313898 -0.3638213
vn 0.01215151 0.9314932 0.363556
vn 0.01215175 0.9313846 0.3638338
vn 0.01160711 0.7353624 0.6775746
vn 0.01160711 0.7353625 0.6775746
vn 0.01221641 0 0.9999254
vn 0.01221641 0 0.9999254
vn 0.01221641 0 0.9999254
vn 0.01221641 0 0.9999254
vn 0.01164911 -0.7353272 0.6776122
vn 0.01166214 -0.7353329 0.6776056
vn 0.01165125 -0.7353281 0.6776111
vn 0.01225718 -0.9314772 0.3635931
vn 0.01225735 -0.9313779 0.3638474
vn 0.01225735 -0.9313779 0.3638474
vn 0.01225718 -0.9314772 0.3635931
vn 0.01224043 -0.9314765 -0.3635955
vn 0.01224058 -0.9313852 -0.3638294
vn 0.0116125 -0.7353367 -0.6776025
vn 0.0116125 -0.7353367 -0.6776025
vn 0.01216412 0 -0.9999261
vn 0.01216412 0 -0.9999261
vn 0.01216412 0 -0.9999261
vn 0.01216412 0 -0.9999261
vn -0.098818 -0.3948554 0.9134135
vn -0.3507006 -0.872493 0.3402427
vn -0.4732039 -0.3497433 0.8085529
vn -0.09879042 0.3948498 0.9134189
vn -0.4731756 0.3497169 0.8085808
vn -0.3506974 0.8724915 0.3402497
vn 0.007840838 0.7375152 0.675285
vn 0.008204516 0.9320852 0.3621462
vn 0.007840838 0.7375152 0.675285
vn 0.00820463 0.9320077 0.3623455
vn 0.008190562 0.9320839 -0.3621498
vn 0.008190661 0.9320129 -0.3623325
vn 0.007814842 0.7375222 -0.6752777
vn 0.007814842 0.7375222 -0.6752777
vn 0.008254827 0 0.9999659
vn 0.008254827 0 0.9999659
vn 0.008254826 0 0.9999659
vn 0.008254827 0 0.9999659
vn 0.008278306 -0.9319641 0.3624562
vn 0.007869155 -0.7373419 0.6754739
vn 0.007869154 -0.7373418 0.675474
vn 0.008278224 -0.9320349 0.3622742
vn 0.008265355 -0.9319696 -0.3624423
vn 0.008265285 -0.9320349 -0.3622745
vn 0.007845031 -0.7373523 -0.6754628
vn 0.007845032 -0.7373523 -0.6754628
vn 0.008219444 0 -0.9999663
vn 0.008219443 0 -0.9999663
vn 0.008219444 0 -0.9999663
vn 0.008219444 0 -0.9999663
vn -0.8047323 0.237384 0.5441092
vn -0.8035015 -0.2388684 0.5452771
vn -0.8035001 -0.2386514 0.5453743
vn -0.8047349 0.2375925 0.5440143
vn -0.8049955 0.5523298 0.2165967
vn -0.804998 0.5524001 0.2164079
vn -0.8050018 0.552324 -0.2165881
vn -0.8050042 0.5523942 -0.2164003
vn -0.8047449 0.2373785 -0.5440928
vn -0.8047475 0.2375872 -0.5439979
vn -0.8047309 -0.2373619 -0.544121
vn -0.8047335 -0.2375778 -0.5440229
vn -0.8049802 -0.5523415 -0.2166232
vn -0.8049828 -0.5524141 -0.2164287
vn -0.8062736 -0.5509364 0.2153878
vn -0.8062749 -0.5510101 0.2151947
vn 0.8129813 -0.2328362 0.5337121
vn 0.8129839 -0.2330558 0.5336123
vn 0.8129759 0.2330696 0.5336185
vn 0.8129733 0.2328442 0.5337209
vn 0.8130625 0.5420695 0.2123441
vn 0.81306 0.5419928 0.2125497
vn 0.8130561 0.5420762 -0.2123519
vn 0.8130535 0.5419996 -0.2125568
vn 0.8129624 0.233077 -0.5336359
vn 0.8129597 0.2328516 -0.5337384
vn 0.8129754 -0.2330614 -0.5336229
vn 0.8129728 -0.2328413 -0.5337229
vn 0.8130799 -0.5420446 -0.2123409
vn 0.8130774 -0.5419708 -0.2125386
vn 0.813083 -0.5420401 0.2123408
vn 0.8130805 -0.5419658 0.21254
vn -0.7815477 -0.4593533 0.4221112
vn -0.8062749 -0.5510101 0.2151947
vn -0.8062736 -0.5509364 0.2153878
vn -0.781685 -0.4592263 0.4219949
vn -0.8035001 -0.2386514 0.5453743
vn -0.8035015 -0.2388684 0.5452771
vn 0.813083 -0.5420401 0.2123408
vn 0.8129839 -0.2330558 0.5336123
vn 0.8129813 -0.2328362 0.5337121
vn 0.8130805 -0.5419658 0.21254
vn 0.7776071 -0.5912101 0.2140043
vn 0.940906 -0.3094423 -0.1376272
vn 0.9970011 -0.06895765 0.03512033
vn 0.7967238 -0.2442756 0.5527754
vn 0.997366 -0.02554753 0.06788544
vn 0.7962015 0.2450975 0.5531641
vn 0.9973455 0.02592012 0.06804592
vn 0.7780769 0.5858136 0.2267569
vn 0.9966653 0.07454419 0.03318556
vn 0.7753875 0.5913441 -0.2215542
vn 0.9968281 0.07553695 -0.02505253
vn 0.9570325 0.1050993 -0.2702648
vn 0.007869155 -0.7373419 0.6754739
vn 0.0078692 -0.7373424 0.6754735
vn 0.007869199 -0.7373424 0.6754735
vn 0.007869154 -0.7373418 0.675474
vn 0 -0.4028063 0.9152853
vn 0 -0.9320315 0.3623774
vn -0.3507006 -0.872493 0.3402427
vn 0 -0.9320311 -0.3623781
vn -0.098818 -0.3948554 0.9134135
vn -0.09879042 0.3948498 0.9134189
vn 0 0.4027946 0.9152904
vn -0.3506974 0.8724915 0.3402497
vn 0 0.9320269 0.3623891
vn -0.3495208 -0.8723317 -0.3418664
vn 0 -0.4028056 -0.9152855
vn -0.3495146 0.8723311 -0.3418743
vn 0 0.932027 -0.362389
vn -0.7030833 -0.6678928 0.2441175
vn -0.4732039 -0.3497433 0.8085529
vn -0.7396679 -0.2863628 0.6090056
vn -0.7396701 0.2863646 0.6090021
vn -0.4731756 0.3497169 0.8085808
vn -0.7030833 0.6678925 0.2441179
vn -0.6978043 0.6705093 -0.2519651
vn -0.6978127 -0.6705076 -0.2519464
vn -0.7196171 0.2880706 -0.6317963
vn -0.3590588 0.373536 -0.8553056
vn 0 0.4027949 -0.9152903
vn -0.7196294 -0.2880592 -0.6317874
vn -0.3590643 -0.3735486 -0.8552977
vn 0.9515789 -0.1267359 -0.2800634
vn 0.9999945 -0.003284573 0.0004933029
vn 0.9570325 0.1050993 -0.2702648
vn 0.940906 -0.3094423 -0.1376272
vn 0.7753875 0.5913441 -0.2215542
vn 0.7776071 -0.5912101 0.2140043
vn 0.7780769 0.5858136 0.2267569
vn 0.7967238 -0.2442756 0.5527754
vn 0.7962015 0.2450975 0.5531641
vn 0.991818 0.1190708 0.0460345
vn 0.940906 -0.3094423 -0.1376272
vn 0.9515789 -0.1267359 -0.2800634
vn 0.9943052 0.04167846 0.09808186
vn 0.9919811 0.1189959 -0.04258354
vn 0.9570325 0.1050993 -0.2702648
vn 0.9970011 -0.06895765 0.03512033
vn 0.992583 -0.04903563 0.1112401
vn 0.9912224 0.0520809 -0.1215145
vn 0.9968281 0.07553695 -0.02505253
vn 0.997366 -0.02554753 0.06788544
vn 0.991947 -0.1157295 0.05145752
vn 0.9912238 -0.05208312 -0.1215019
vn 0.9966653 0.07454419 0.03318556
vn 0.9973455 0.02592012 0.06804592
vn 0.9900841 -0.1304537 -0.05211009
g Color_Boss_38_0
f 3/3/3 2/2/2 1/1/1
f 4/4/4 3/3/3 1/1/1
f 5/5/5 3/3/3 4/4/4
f 6/6/6 5/5/5 4/4/4
f 7/7/7 5/5/5 6/6/6
f 8/8/8 7/7/7 6/6/6
f 11/11/11 10/10/10 9/9/9
f 12/12/12 11/11/11 9/9/9
f 15/15/15 14/14/14 13/13/13
f 16/16/16 15/15/15 13/13/13
f 17/17/17 16/16/16 13/13/13
f 20/20/20 19/19/19 18/18/18
f 21/21/21 20/20/20 18/18/18
f 22/22/22 20/20/20 21/21/21
f 23/23/23 22/22/22 21/21/21
f 26/26/26 25/25/25 24/24/24
f 27/27/27 26/26/26 24/24/24
f 30/30/30 29/29/29 28/28/28
f 30/30/30 28/28/28 31/31/31
f 32/32/32 30/30/30 31/31/31
f 33/33/33 32/32/32 31/31/31
f 36/36/36 35/35/35 34/34/34
f 35/35/35 37/37/37 34/34/34
f 35/35/35 38/38/38 37/37/37
f 38/38/38 39/39/39 37/37/37
f 38/38/38 40/40/40 39/39/39
f 40/40/40 41/41/41 39/39/39
f 44/44/44 43/43/43 42/42/42
f 45/45/45 44/44/44 42/42/42
f 48/48/48 47/47/47 46/46/46
f 49/49/49 48/48/48 46/46/46
f 49/49/49 46/46/46 50/50/50
f 51/51/51 49/49/49 50/50/50
f 51/51/51 50/50/50 52/52/52
f 53/53/53 51/51/51 52/52/52
f 56/56/56 55/55/55 54/54/54
f 57/57/57 56/56/56 54/54/54
f 60/60/60 59/59/59 58/58/58
f 59/59/59 61/61/61 58/58/58
f 58/58/58 61/61/61 62/62/62
f 61/61/61 63/63/63 62/62/62
f 62/62/62 63/63/63 64/64/64
f 63/63/63 65/65/65 64/64/64
f 64/64/64 65/65/65 66/66/66
f 65/65/65 67/67/67 66/66/66
f 66/66/66 67/67/67 68/68/68
f 67/67/67 69/69/69 68/68/68
f 68/68/68 69/69/69 70/70/70
f 69/69/69 71/71/71 70/70/70
f 70/70/70 71/71/71 72/72/72
f 71/71/71 73/73/73 72/72/72
f 76/76/76 75/75/75 74/74/74
f 77/77/77 76/76/76 74/74/74
f 78/78/78 76/76/76 77/77/77
f 79/79/79 78/78/78 77/77/77
f 80/80/80 78/78/78 79/79/79
f 81/81/81 80/80/80 79/79/79
f 82/82/82 80/80/80 81/81/81
f 83/83/83 82/82/82 81/81/81
f 84/84/84 82/82/82 83/83/83
f 85/85/85 84/84/84 83/83/83
f 86/86/86 84/84/84 85/85/85
f 87/87/87 86/86/86 85/85/85
f 88/88/88 86/86/86 87/87/87
f 89/89/89 88/88/88 87/87/87
f 92/92/92 91/91/91 90/90/90
f 93/93/93 92/92/92 90/90/90
f 93/93/93 90/90/90 94/94/94
f 90/90/90 95/95/95 94/94/94
f 98/98/98 97/97/97 96/96/96
f 99/99/99 98/98/98 96/96/96
f 102/102/102 101/101/101 100/100/100
f 102/102/102 100/100/100 103/103/103
f 104/104/104 102/102/102 103/103/103
f 103/103/103 105/105/105 104/104/104
f 105/105/105 106/106/106 104/104/104
f 106/106/106 105/105/105 107/107/107
f 108/108/108 106/106/106 107/107/107
f 108/108/108 107/107/107 109/109/109
f 110/110/110 108/108/108 109/109/109
f 110/110/110 109/109/109 111/111/111
f 114/114/114 113/113/113 112/112/112
f 115/115/115 114/114/114 112/112/112
f 118/118/118 117/117/117 116/116/116
f 117/117/117 118/118/118 119/119/119
f 120/120/120 118/118/118 116/116/116
f 121/121/121 120/120/120 116/116/116
f 122/122/122 121/121/121 116/116/116
f 123/123/123 121/121/121 122/122/122
f 124/124/124 123/123/123 122/122/122
f 118/118/118 125/125/125 119/119/119
f 119/119/119 125/125/125 126/126/126
f 127/127/127 123/123/123 124/124/124
f 128/128/128 127/127/127 124/124/124
f 118/118/118 129/129/129 125/125/125
f 118/118/118 130/130/130 129/129/129
f 130/130/130 131/131/131 129/129/129
f 132/132/132 131/131/131 130/130/130
f 133/133/133 132/132/132 130/130/130
f 132/132/132 133/133/133 123/123/123
f 134/134/134 132/132/132 123/123/123
f 135/135/135 134/134/134 123/123/123
f 127/127/127 135/135/135 123/123/123
f 129/129/129 136/136/136 125/125/125
f 137/137/137 135/135/135 127/127/127
f 138/138/138 127/127/127 128/128/128
f 138/138/138 137/137/137 127/127/127
f 139/139/139 138/138/138 128/128/128
f 140/140/140 137/137/137 138/138/138
f 125/125/125 136/136/136 141/141/141
f 136/136/136 140/140/140 141/141/141
f 141/141/141 140/140/140 138/138/138
f 141/141/141 138/138/138 139/139/139
f 125/125/125 141/141/141 126/126/126
f 126/126/126 141/141/141 139/139/139
f 144/144/144 143/143/143 142/142/142
f 142/142/142 143/143/143 145/145/145
f 146/146/146 143/143/143 144/144/144
f 145/145/145 143/143/143 147/147/147
f 148/148/148 143/143/143 146/146/146
f 147/147/147 143/143/143 149/149/149
f 150/150/150 143/143/143 148/148/148
f 149/149/149 143/143/143 150/150/150
f 153/153/153 152/152/152 151/151/151
f 154/154/154 153/153/153 151/151/151
f 151/151/151 152/152/152 155/155/155
f 156/156/156 153/153/153 154/154/154
f 152/152/152 157/157/157 155/155/155
f 158/158/158 156/156/156 154/154/154
f 155/155/155 157/157/157 159/159/159
f 160/160/160 156/156/156 158/158/158
f 157/157/157 161/161/161 159/159/159
f 162/162/162 160/160/160 158/158/158
f 159/159/159 161/161/161 163/163/163
f 164/164/164 160/160/160 162/162/162
f 161/161/161 165/165/165 163/163/163
f 166/166/166 164/164/164 162/162/162
f 163/163/163 165/165/165 166/166/166
f 165/165/165 164/164/164 166/166/166
