g Color_Boss_56
v -7.755001 0.1313114 0.1313133
v -4.401011 -3.483331E-08 0.2656268
v -7.755001 -3.133971E-08 0.1857032
v -4.401011 0.1878266 0.1878261
v -7.755001 0.1857023 1.877546E-06
v 9.858049E-07 -3.483331E-08 0.2656268
v -4.401011 0.2656269 1.877546E-06
v -7.755001 0.1313114 -0.1313133
v 9.858049E-07 0.1878266 0.1878261
v -4.401011 0.1878266 -0.1878262
v -7.755001 -1.5105E-08 -0.1857014
v -4.401011 -1.161141E-08 -0.2656269
v 9.858049E-07 0.2656269 1.877546E-06
v 9.858049E-07 0.1878266 -0.1878262
v 9.858049E-07 -1.161141E-08 -0.2656269
v 4.40101 -1.161141E-08 -0.2656269
v 4.40101 0.1878266 -0.1878262
v 7.755001 -1.5105E-08 -0.1857014
v 7.755001 0.1313114 -0.1313133
v 4.40101 0.2656269 1.877546E-06
v 7.755001 0.1857023 1.877546E-06
v 4.40101 0.1878266 0.1878261
v 7.755001 0.1313114 0.1313133
v 4.40101 -3.483331E-08 0.2656268
v 7.755001 -3.133971E-08 0.1857032
v -7.755001 -0.1313114 -0.1313133
v -4.401011 -1.161141E-08 -0.2656269
v -7.755001 -1.5105E-08 -0.1857014
v -4.401011 -0.1878266 -0.1878262
v -7.755001 -0.1857023 1.877546E-06
v 9.858049E-07 -1.161141E-08 -0.2656269
v -4.401011 -0.2656269 1.877546E-06
v -7.755001 -0.1313114 0.1313133
v 9.858049E-07 -0.1878266 -0.1878262
v -4.401011 -0.1878266 0.1878261
v -7.755001 -3.133971E-08 0.1857032
v -4.401011 -3.483331E-08 0.2656268
v 9.858049E-07 -0.2656269 1.877546E-06
v 9.858049E-07 -0.1878266 0.1878261
v 9.858049E-07 -3.483331E-08 0.2656268
v 4.40101 -3.483331E-08 0.2656268
v 4.40101 -0.1878266 0.1878261
v 7.755001 -3.133971E-08 0.1857032
v 7.755001 -0.1313114 0.1313133
v 4.40101 -0.2656269 1.877546E-06
v 7.755001 -0.1857023 1.877546E-06
v 4.40101 -0.1878266 -0.1878262
v 7.755001 -0.1313114 -0.1313133
v 4.40101 -1.161141E-08 -0.2656269
v 7.755001 -1.5105E-08 -0.1857014
v -7.755001 -0.03782703 -0.01130679
v -7.755001 -0.1313114 -0.1313133
v -7.755001 -1.5105E-08 -0.1857014
v -7.755001 0.1313114 -0.1313133
v -7.755001 -0.1857023 1.877546E-06
v -7.755001 0.1857023 1.877546E-06
v -7.755001 -0.1313114 0.1313133
v -7.755001 0.1313114 0.1313133
v -7.755001 -3.133971E-08 0.1857032
v 7.755001 -0.03782703 -0.01130679
v 7.755001 0.1313114 -0.1313133
v 7.755001 -1.5105E-08 -0.1857014
v 7.755001 -0.1313114 -0.1313133
v 7.755001 0.1857023 1.877546E-06
v 7.755001 -0.1857023 1.877546E-06
v 7.755001 0.1313114 0.1313133
v 7.755001 -0.1313114 0.1313133
v 7.755001 -3.133971E-08 0.1857032
vt 0.4625181 0.09804393
vt 0.4636217 0.09912352
vt 0.4625181 0.0984811
vt 0.4636217 0.09849818
vt 0.4625181 0.09698853
vt 0.4650697 0.09912352
vt 0.4636217 0.09698853
vt 0.4625181 0.09593305
vt 0.4650697 0.09849818
vt 0.4636217 0.09547879
vt 0.4625181 0.09549589
vt 0.4636217 0.09485345
vt 0.4650697 0.09698853
vt 0.4650697 0.09547879
vt 0.4650697 0.09485345
vt 0.4665178 0.09485345
vt 0.4665178 0.09547879
vt 0.4676213 0.09549589
vt 0.4676213 0.09593305
vt 0.4665178 0.09698853
vt 0.4676213 0.09698853
vt 0.4665178 0.09849818
vt 0.4676213 0.09804393
vt 0.4665178 0.09912352
vt 0.4676213 0.0984811
vt 0.4625181 0.09593305
vt 0.4636217 0.09485345
vt 0.4625181 0.09549589
vt 0.4636217 0.09547879
vt 0.4625181 0.09698853
vt 0.4650697 0.09485345
vt 0.4636217 0.09698853
vt 0.4625181 0.09804393
vt 0.4650697 0.09547879
vt 0.4636217 0.09849818
vt 0.4625181 0.0984811
vt 0.4636217 0.09912352
vt 0.4650697 0.09698853
vt 0.4650697 0.09849818
vt 0.4650697 0.09912352
vt 0.4665178 0.09912352
vt 0.4665178 0.09849818
vt 0.4676213 0.0984811
vt 0.4676213 0.09804393
vt 0.4665178 0.09698853
vt 0.4676213 0.09698853
vt 0.4665178 0.09547879
vt 0.4676213 0.09593305
vt 0.4665178 0.09485345
vt 0.4676213 0.09549589
vt 0.4650674 0.09698479
vt 0.4650619 0.09694573
vt 0.4650698 0.09692802
vt 0.4650776 0.09694573
vt 0.4650586 0.09698845
vt 0.4650809 0.09698845
vt 0.4650619 0.09703122
vt 0.4650776 0.09703122
vt 0.4650698 0.09704895
vt 0.4650674 0.09698479
vt 0.4650776 0.09694573
vt 0.4650698 0.09692802
vt 0.4650619 0.09694573
vt 0.4650809 0.09698845
vt 0.4650586 0.09698845
vt 0.4650776 0.09703122
vt 0.4650619 0.09703122
vt 0.4650698 0.09704895
vn -0.0238226 0.7069045 0.7069076
vn -0.01187764 0 0.9999294
vn -0.02382242 0 0.9997162
vn -0.01187772 0.7070557 0.707058
vn -0.02382277 0.9997162 0
vn 0 0 1
vn -0.01187781 0.9999294 0
vn -0.02382281 0.7069058 -0.7069063
vn 0 0.7071059 0.7071076
vn -0.01187782 0.7070577 -0.707056
vn -0.02382265 0 -0.9997162
vn -0.01187777 0 -0.9999294
vn 0 1 0
vn 0 0.7071085 -0.707105
vn 0 0 -1
vn 0.01187777 0 -0.9999294
vn 0.01187781 0.7070577 -0.707056
vn 0.02382265 0 -0.9997162
vn 0.02382281 0.7069058 -0.7069063
vn 0.01187781 0.9999294 0
vn 0.02382276 0.9997162 0
vn 0.01187772 0.7070558 0.707058
vn 0.0238226 0.7069046 0.7069075
vn 0.01187764 0 0.9999294
vn 0.02382241 0 0.9997162
vn -0.02382281 -0.7069057 -0.7069065
vn -0.01187777 0 -0.9999294
vn -0.02382265 0 -0.9997162
vn -0.01187781 -0.7070576 -0.7070561
vn -0.02382276 -0.9997162 0
vn 0 0 -1
vn -0.01187781 -0.9999294 0
vn -0.0238226 -0.7069045 0.7069076
vn 0 -0.7071084 -0.7071051
vn -0.01187772 -0.7070559 0.7070579
vn -0.02382242 0 0.9997162
vn -0.01187764 0 0.9999294
vn 0 -1 0
vn 0 -0.707106 0.7071075
vn 0 0 1
vn 0.01187764 0 0.9999294
vn 0.01187772 -0.7070559 0.7070579
vn 0.02382241 0 0.9997162
vn 0.0238226 -0.7069046 0.7069075
vn 0.01187781 -0.9999294 0
vn 0.02382276 -0.9997162 0
vn 0.01187781 -0.7070577 -0.707056
vn 0.02382281 -0.7069057 -0.7069064
vn 0.01187777 0 -0.9999294
vn 0.02382265 0 -0.9997162
vn -1 0 0
vn -1 0 0
vn -1 0 0
vn -1 0 0
vn -1 0 0
vn -1 0 0
vn -1 0 0
vn -1 0 0
vn -1 0 0
vn 1 0 0
vn 1 0 0
vn 1 0 0
vn 1 0 0
vn 1 0 0
vn 1 0 0
vn 1 0 0
vn 1 0 0
vn 1 0 0
g Color_Boss_56_0
f 3/3/3 2/2/2 1/1/1
f 2/2/2 4/4/4 1/1/1
f 1/1/1 4/4/4 5/5/5
f 4/4/4 2/2/2 6/6/6
f 4/4/4 7/7/7 5/5/5
f 5/5/5 7/7/7 8/8/8
f 9/9/9 4/4/4 6/6/6
f 7/7/7 4/4/4 9/9/9
f 7/7/7 10/10/10 8/8/8
f 8/8/8 10/10/10 11/11/11
f 10/10/10 12/12/12 11/11/11
f 10/10/10 7/7/7 13/13/13
f 13/13/13 7/7/7 9/9/9
f 10/10/10 14/14/14 12/12/12
f 14/14/14 10/10/10 13/13/13
f 14/14/14 15/15/15 12/12/12
f 15/15/15 14/14/14 16/16/16
f 14/14/14 17/17/17 16/16/16
f 17/17/17 14/14/14 13/13/13
f 16/16/16 17/17/17 18/18/18
f 17/17/17 19/19/19 18/18/18
f 20/20/20 17/17/17 13/13/13
f 17/17/17 20/20/20 19/19/19
f 20/20/20 13/13/13 9/9/9
f 20/20/20 21/21/21 19/19/19
f 22/22/22 20/20/20 9/9/9
f 20/20/20 22/22/22 21/21/21
f 22/22/22 9/9/9 6/6/6
f 22/22/22 23/23/23 21/21/21
f 24/24/24 22/22/22 6/6/6
f 22/22/22 24/24/24 23/23/23
f 24/24/24 25/25/25 23/23/23
f 28/28/28 27/27/27 26/26/26
f 27/27/27 29/29/29 26/26/26
f 26/26/26 29/29/29 30/30/30
f 29/29/29 27/27/27 31/31/31
f 29/29/29 32/32/32 30/30/30
f 30/30/30 32/32/32 33/33/33
f 34/34/34 29/29/29 31/31/31
f 32/32/32 29/29/29 34/34/34
f 32/32/32 35/35/35 33/33/33
f 33/33/33 35/35/35 36/36/36
f 35/35/35 37/37/37 36/36/36
f 35/35/35 32/32/32 38/38/38
f 38/38/38 32/32/32 34/34/34
f 37/37/37 35/35/35 39/39/39
f 39/39/39 35/35/35 38/38/38
f 40/40/40 37/37/37 39/39/39
f 41/41/41 40/40/40 39/39/39
f 42/42/42 41/41/41 39/39/39
f 42/42/42 39/39/39 38/38/38
f 41/41/41 42/42/42 43/43/43
f 42/42/42 44/44/44 43/43/43
f 45/45/45 42/42/42 38/38/38
f 42/42/42 45/45/45 44/44/44
f 45/45/45 38/38/38 34/34/34
f 45/45/45 46/46/46 44/44/44
f 47/47/47 45/45/45 34/34/34
f 45/45/45 47/47/47 46/46/46
f 47/47/47 34/34/34 31/31/31
f 47/47/47 48/48/48 46/46/46
f 49/49/49 47/47/47 31/31/31
f 47/47/47 49/49/49 48/48/48
f 49/49/49 50/50/50 48/48/48
f 53/53/53 52/52/52 51/51/51
f 54/54/54 53/53/53 51/51/51
f 55/55/55 51/51/51 52/52/52
f 56/56/56 54/54/54 51/51/51
f 55/55/55 57/57/57 51/51/51
f 58/58/58 56/56/56 51/51/51
f 57/57/57 59/59/59 51/51/51
f 58/58/58 51/51/51 59/59/59
f 62/62/62 61/61/61 60/60/60
f 63/63/63 62/62/62 60/60/60
f 61/61/61 64/64/64 60/60/60
f 60/60/60 65/65/65 63/63/63
f 64/64/64 66/66/66 60/60/60
f 67/67/67 65/65/65 60/60/60
f 60/60/60 66/66/66 68/68/68
f 68/68/68 67/67/67 60/60/60
