g Color_04
v 3.333987 -9.722378 3.472603
v 3.333987 -4.275393 3.773273
v 3.49346 -9.919612 3.773273
v 9.962433 -2.913913 1.744272
v 9.718963 -2.715868 1.945088
v 9.962433 2.715865 1.945087
v 3.562189 -9.919612 1.716833
v -3.333985 -9.919613 1.945088
v 3.333987 -9.653638 1.945088
v -3.333985 -9.919612 3.773273
v -9.46297 -9.919612 3.488647
v -9.134121 -9.710599 3.773273
v -9.962432 -9.420068 3.486798
v -9.962432 -2.715867 3.773273
v -9.657323 -9.193147 3.773273
v 9.962433 -2.913913 1.744272
v 9.962433 -2.715868 3.773273
v 9.718963 -2.715868 1.945088
v 5.81866 9.919613 3.773275
v 6.640777 8.064252 3.773275
v 4.307641 4.275393 3.773273
v 9.473219 -9.919612 -0.04005575
v 8.01698 -9.919612 0.2673998
v 9.962434 -9.431341 0.2821274
v 6.620318 9.919613 3.115065
v 7.134718 9.919613 3.773275
v 6.640777 8.064252 3.773275
v -9.962432 8.049 0.4643211
v -9.476198 9.919612 0.2386317
v -9.962432 9.43026 0.7540216
v 9.962434 -9.431341 0.2821274
v 8.01698 -9.919612 0.2673998
v 9.483903 -9.919612 0.7117143
v -9.476198 9.919612 0.2386317
v -9.962432 8.049 0.4643211
v -9.962432 9.444074 0.01113462
v 6.620318 9.919613 3.115065
v 6.640777 8.064252 3.773275
v 5.81866 9.919613 3.773275
v 4.307641 -4.275393 3.773273
v 9.962433 -9.419612 3.773273
v 9.462433 -9.919612 3.773273
v -4.307639 4.275393 3.773273
v -9.962432 9.419613 3.773275
v -9.462432 9.919613 3.773275
v -4.307638 -4.275395 3.773273
v -3.333985 -4.275395 3.773273
v -3.333985 -9.919612 3.773273
v -9.134121 -9.710599 3.773273
v -9.657323 -9.193147 3.773273
v -9.962432 -2.715867 3.773273
v -4.307638 -2.715868 3.773273
v 4.307641 -4.275393 3.773273
v 4.307641 -2.715868 3.773273
v 9.962433 -2.715868 3.773273
v 9.962433 -9.419612 3.773273
v -4.307639 4.275393 3.773273
v -4.307638 2.715865 3.773275
v -9.962432 2.715866 3.773275
v -9.962432 9.419613 3.773275
v -3.333984 9.919613 3.773275
v -3.333984 4.275393 3.773273
v -4.307639 4.275393 3.773273
v -9.462432 9.919613 3.773275
v 9.962433 2.715865 3.773275
v 4.307641 2.715865 3.773275
v 4.307641 4.275393 3.773273
v 9.962433 9.419613 3.773275
v 9.462433 9.919613 3.773275
v 6.640777 8.064252 3.773275
v 7.134718 9.919613 3.773275
v -9.962433 2.715866 1.945087
v -4.307638 2.715865 1.945087
v -4.307638 -2.715868 1.945088
v -9.962433 -2.715867 1.945088
v -3.333985 -9.919613 1.945088
v -3.333985 -4.275394 1.945088
v 3.333987 -4.275393 1.945088
v 3.333987 -9.653638 1.945088
v 3.333987 9.919613 1.945087
v 3.333987 4.275393 1.945087
v -3.333984 4.275393 1.945087
v -3.333984 9.919613 1.945087
v 4.30764 4.275393 -0.5447891
v 4.307641 -4.275393 -0.5447879
v -4.307638 -4.275394 -0.5447879
v -4.307638 4.275393 -0.5447891
v -3.333985 -9.919613 1.945088
v -3.333985 -9.919612 3.773273
v -3.333985 -4.275395 3.773273
v -3.333985 -4.275394 1.945088
v -3.333985 -4.275394 1.945088
v -3.333985 -4.275395 3.773273
v -4.307638 -4.275395 3.773273
v -4.307638 -4.275394 -0.5447879
v 4.307641 -4.275393 -0.5447879
v 3.333987 -4.275393 1.945088
v 3.333987 -4.275393 3.773273
v 4.307641 -4.275393 3.773273
v -4.307638 -4.275394 -0.5447879
v -4.307638 -4.275395 3.773273
v -4.307638 -2.715868 3.773273
v -4.307638 -2.715868 1.945088
v -4.307638 2.715865 1.945087
v -4.307638 4.275393 -0.5447891
v -4.307639 4.275393 3.773273
v -4.307638 2.715865 3.773275
v -4.307638 -2.715868 1.945088
v -4.307638 -2.715868 3.773273
v -9.962432 -2.715867 3.773273
v -9.962433 -2.715867 1.945088
v 4.307641 -2.715868 1.945088
v 4.307641 -2.715868 3.773273
v 4.307641 -4.275393 3.773273
v 4.307641 -4.275393 -0.5447879
v 4.30764 4.275393 -0.5447891
v 4.307641 2.715865 1.945087
v 4.307641 2.715865 3.773275
v 4.307641 4.275393 3.773273
v 3.333987 -4.275393 1.945088
v 3.333987 -4.275393 3.773273
v 3.333987 -9.722378 3.472603
v 3.333987 -9.653638 1.945088
v 3.333987 -9.653638 1.945088
v 3.333987 -9.722378 3.472603
v 3.49346 -9.919612 3.773273
v 3.562189 -9.919612 1.716833
v 9.462434 9.919611 -3.059961
v 9.462433 9.919613 3.773275
v 7.134718 9.919613 3.773275
v 6.620318 9.919613 3.115065
v 3.333987 9.919613 1.945087
v 3.333987 9.919613 3.773275
v 5.81866 9.919613 3.773275
v -3.333984 9.919613 1.945087
v -9.462431 9.919611 -3.059961
v -9.476198 9.919612 0.2386317
v -3.333984 9.919613 3.773275
v -9.462432 9.919613 3.773275
v 3.333987 9.919613 1.945087
v 3.333987 9.919613 3.773275
v 3.333987 4.275393 3.773273
v 3.333987 4.275393 1.945087
v 3.333987 4.275393 1.945087
v 3.333987 4.275393 3.773273
v 4.307641 4.275393 3.773273
v 4.30764 4.275393 -0.5447891
v -4.307638 4.275393 -0.5447891
v -3.333984 4.275393 1.945087
v -3.333984 4.275393 3.773273
v -4.307639 4.275393 3.773273
v 4.307641 2.715865 1.945087
v 4.307641 2.715865 3.773275
v 9.962433 2.715865 3.773275
v 9.962433 2.715865 1.945087
v 9.962433 2.715865 1.945087
v 9.962433 2.715865 3.773275
v 9.962433 9.419613 3.773275
v 9.962434 9.419611 -3.059961
v 9.962434 -9.419612 -3.059961
v 9.962433 -2.913913 1.744272
v 9.962434 -9.431341 0.2821274
v 9.962433 -9.419612 3.773273
v 9.962433 -2.715868 3.773273
v -9.962433 2.715866 1.945087
v -9.962432 2.715866 3.773275
v -4.307638 2.715865 3.773275
v -4.307638 2.715865 1.945087
v -3.333984 4.275393 1.945087
v -3.333984 4.275393 3.773273
v -3.333984 9.919613 3.773275
v -3.333984 9.919613 1.945087
v -9.962433 -2.715867 1.945088
v -9.962432 -2.715867 3.773273
v -9.962432 -9.420068 3.486798
v -9.962431 -9.419612 -3.059961
v -9.962431 9.419611 -3.059961
v -9.962433 2.715866 1.945087
v -9.962432 9.444074 0.01113462
v -9.962432 8.049 0.4643211
v -9.962432 9.419613 3.773275
v -9.962432 2.715866 3.773275
v -9.962432 9.43026 0.7540216
v -9.476198 9.919612 0.2386317
v -9.462432 9.919613 3.773275
v -9.462431 -9.919612 -3.059961
v -9.46297 -9.919612 3.488647
v -3.333985 -9.919612 3.773273
v -3.333985 -9.919613 1.945088
v 9.462434 -9.919612 -3.059961
v 3.562189 -9.919612 1.716833
v 8.01698 -9.919612 0.2673998
v 9.473219 -9.919612 -0.04005575
v 3.49346 -9.919612 3.773273
v 9.462433 -9.919612 3.773273
v 9.483903 -9.919612 0.7117143
v 9.962433 -9.419612 3.773273
v 9.962434 -9.431341 0.2821274
v 3.49346 -9.919612 3.773273
v 3.333987 -4.275393 3.773273
v 4.307641 -4.275393 3.773273
v 9.462433 -9.919612 3.773273
v 4.307641 2.715865 1.945087
v 9.962433 2.715865 1.945087
v 9.718963 -2.715868 1.945088
v 4.307641 -2.715868 1.945088
v 9.718963 -2.715868 1.945088
v 9.962433 -2.715868 3.773273
v 4.307641 -2.715868 3.773273
v 4.307641 -2.715868 1.945088
v 4.307641 4.275393 3.773273
v 3.333987 9.919613 3.773275
v 5.81866 9.919613 3.773275
v 3.333987 4.275393 3.773273
v -9.962431 -9.419612 -3.059961
v -9.962432 -9.420068 3.486798
v -9.46297 -9.919612 3.488647
v -9.462431 -9.919612 -3.059961
v 9.462434 -9.919612 -3.059961
v 9.473219 -9.919612 -0.04005575
v 9.962434 -9.431341 0.2821274
v 9.962434 -9.419612 -3.059961
v 9.962434 9.419611 -3.059961
v 9.962433 9.419613 3.773275
v 9.462433 9.919613 3.773275
v 9.462434 9.919611 -3.059961
v -9.462431 9.919611 -3.059961
v -9.476198 9.919612 0.2386317
v -9.962432 9.444074 0.01113462
v -9.962431 9.419611 -3.059961
v -9.962432 -9.420068 3.486798
v -9.657323 -9.193147 3.773273
v -9.134121 -9.710599 3.773273
v -9.46297 -9.919612 3.488647
v -9.962431 9.419611 -3.059961
v -9.962431 -9.419612 -3.059961
v -7.499282 -7.355031 -3.773275
v -9.462431 -9.919612 -3.059961
v -7.49928 7.355028 -3.773275
v -9.462431 9.919611 -3.059961
v 9.462434 9.919611 -3.059961
v 7.499283 -7.355031 -3.773275
v 9.462434 -9.919612 -3.059961
v 9.962434 -9.419612 -3.059961
v 7.499281 7.355028 -3.773275
v 9.962434 9.419611 -3.059961
vt 0.03843528 0.01273547
vt 0.0381425 0.01274759
vt 0.03844589 0.01274759
vt 0.03806931 0.0126658
vt 0.03805867 0.0126739
vt 0.03776671 0.0126739
vt 0.03844589 0.0126647
vt 0.03844589 0.0126739
vt 0.03843158 0.0126739
vt 0.03844589 0.01274759
vt 0.03844589 0.01273612
vt 0.03843466 0.01274759
vt 0.03841904 0.01273604
vt 0.03805867 0.01274759
vt 0.03840685 0.01274759
vt 0.03806931 0.0126658
vt 0.03805867 0.01274759
vt 0.03805867 0.0126739
vt 0.03581129 0.01233161
vt 0.0368888 0.01280905
vt 0.03595285 0.01448459
vt 0.03844589 0.01259387
vt 0.03844589 0.01260627
vt 0.03842563 0.01260295
vt 0.009298071 0.01293188
vt 0.009298071 0.01299774
vt 0.009545609 0.01299774
vt 0.009547636 0.01266664
vt 0.009298071 0.01266658
vt 0.009363357 0.01269563
vt 0.01188003 0.01264841
vt 0.01194517 0.01264694
vt 0.01194517 0.0126914
vt 0.0373795 0.01260511
vt 0.03748003 0.01261421
vt 0.03740506 0.01259594
vt 0.0373795 0.01272106
vt 0.03747922 0.01274759
vt 0.0373795 0.01274759
vt 0.03789854 0.01491376
vt 0.03792181 0.01491207
vt 0.03792553 0.01493203
vt 0.03687282 0.014947
vt 0.03687236 0.01491448
vt 0.03685914 0.01493203
vt 0.03958203 0.01112519
vt 0.03680884 0.0147147
vt 0.04008311 0.01456047
vt 0.03980339 0.01120146
vt 0.03948891 0.01091209
vt 0.03572302 0.01091209
vt 0.03587756 0.01419249
vt 0.03982953 0.01443236
vt 0.03576574 0.01146743
vt 0.0358585 0.01475016
vt 0.03975013 0.0146402
vt 0.0360164 0.01109416
vt 0.03999487 0.01417268
vt 0.03999487 0.01088864
vt 0.03610164 0.01088864
vt 0.03581127 0.01473814
vt 0.03908916 0.01473814
vt 0.0360164 0.01109416
vt 0.03581127 0.01117902
vt 0.03999484 0.01473815
vt 0.03999489 0.01145411
vt 0.03595285 0.01448459
vt 0.03610162 0.0147381
vt 0.03581126 0.01444772
vt 0.0368888 0.01280905
vt 0.03581132 0.01309589
vt 0.03737 0.01248066
vt 0.03737 0.01336621
vt 0.03836467 0.01336621
vt 0.03836467 0.01248066
vt 0.03836345 0.012396
vt 0.03732993 0.01240647
vt 0.0373444 0.01345063
vt 0.03832921 0.01344064
vt 0.03735055 0.01344555
vt 0.03838413 0.01344555
vt 0.03838413 0.01240132
vt 0.03735055 0.01240132
vt 0.7080694 0.0369042
vt 0.7126635 0.0369042
vt 0.7126635 0.0369042
vt 0.7080694 0.0369042
vt 0.01201479 0.01221549
vt 0.01201479 0.01309625
vt 0.009228453 0.01309625
vt 0.009228453 0.01221549
vt 0.7126635 0.01143962
vt 0.7126635 0.01230364
vt 0.7126635 0.01230364
vt 0.7126635 0.01026289
vt 0.7126635 0.01026289
vt 0.7126635 0.01143962
vt 0.7126635 0.01230364
vt 0.7126635 0.01230364
vt 0.7126635 0.01026289
vt 0.7126635 0.01230364
vt 0.7118257 0.01230364
vt 0.7118257 0.01143962
vt 0.7089074 0.01143962
vt 0.7080694 0.01026289
vt 0.7080694 0.01230364
vt 0.7089074 0.01230364
vt 0.01062162 0.01221549
vt 0.01062162 0.01309625
vt 0.01062162 0.01309625
vt 0.01062162 0.01221549
vt 0.7118257 0.01143962
vt 0.7118257 0.01230364
vt 0.7126635 0.01230364
vt 0.7126635 0.01026289
vt 0.7080694 0.01026289
vt 0.7089074 0.01143962
vt 0.7089074 0.01230364
vt 0.7080694 0.01230364
vt 0.00927712 0.01221549
vt 0.00927712 0.01309625
vt 0.01196612 0.0129514
vt 0.01193215 0.01221549
vt 0.03843158 0.0126739
vt 0.03843528 0.01273547
vt 0.03844589 0.01274759
vt 0.03844589 0.0126647
vt 0.009298071 0.012314
vt 0.009298071 0.01299774
vt 0.009298071 0.01299774
vt 0.009298071 0.01293188
vt 0.009298071 0.01281481
vt 0.009298071 0.01299774
vt 0.009298071 0.01299774
vt 0.009298071 0.01281481
vt 0.009298071 0.01234415
vt 0.009298071 0.01266658
vt 0.009298071 0.01299774
vt 0.009298071 0.01299774
vt 0.009228453 0.01221549
vt 0.009228453 0.01309625
vt 0.01201479 0.01309625
vt 0.01201479 0.01221549
vt 0.7080694 0.01143962
vt 0.7080694 0.01230364
vt 0.7080694 0.01230364
vt 0.7080694 0.01026289
vt 0.7080694 0.01026289
vt 0.7080694 0.01143962
vt 0.7080694 0.01230364
vt 0.7080694 0.01230364
vt 0.01062162 0.01221549
vt 0.01062162 0.01309625
vt 0.01062162 0.01309625
vt 0.01062162 0.01221549
vt 0.01025926 0.01281481
vt 0.01025926 0.01299774
vt 0.009364784 0.01299774
vt 0.009352859 0.01234255
vt 0.01187846 0.012314
vt 0.01101039 0.01279472
vt 0.01189487 0.0126387
vt 0.01193593 0.01294819
vt 0.01098399 0.01299774
vt 0.01062162 0.01221549
vt 0.01062162 0.01309625
vt 0.01062162 0.01309625
vt 0.01062162 0.01221549
vt 0.01201479 0.01221549
vt 0.01201479 0.01309625
vt 0.009228453 0.01309625
vt 0.009228453 0.01221549
vt 0.01098399 0.01281481
vt 0.01098399 0.01299774
vt 0.01187852 0.01296907
vt 0.01189038 0.01234255
vt 0.009364784 0.012314
vt 0.01025926 0.01281481
vt 0.009361513 0.01262129
vt 0.009547636 0.01266664
vt 0.009330899 0.01295419
vt 0.01025926 0.01299774
vt 0.009363357 0.01269563
vt 0.009298071 0.01266658
vt 0.009298071 0.01299774
vt 0.01194517 0.012314
vt 0.01194517 0.01296926
vt 0.01194517 0.01299774
vt 0.01194517 0.01281481
vt 0.01194517 0.01234392
vt 0.01194517 0.01279197
vt 0.01194517 0.01264694
vt 0.01194517 0.01261617
vt 0.01194517 0.01299774
vt 0.01194517 0.01299774
vt 0.01194517 0.0126914
vt 0.01193593 0.01294819
vt 0.01189487 0.0126387
vt 0.03993428 0.01087662
vt 0.03665509 0.01087663
vt 0.03982953 0.01443236
vt 0.04003219 0.01434174
vt 0.03737561 0.01248554
vt 0.03736421 0.01337104
vt 0.0383593 0.01334227
vt 0.03837021 0.0124949
vt 0.01062162 0.01221549
vt 0.01062162 0.01309625
vt 0.01062162 0.01309625
vt 0.01062162 0.01221549
vt 0.03595285 0.01448459
vt 0.03581129 0.01088863
vt 0.03581129 0.01233161
vt 0.03908918 0.01088863
vt 0.01189038 0.01234255
vt 0.01187852 0.01296907
vt 0.01194517 0.01296926
vt 0.01194517 0.012314
vt 0.01194517 0.01234392
vt 0.01194517 0.01261617
vt 0.01189487 0.0126387
vt 0.01187846 0.012314
vt 0.009352859 0.01234255
vt 0.009364784 0.01299774
vt 0.009298071 0.01299774
vt 0.009298071 0.012314
vt 0.009298071 0.01234415
vt 0.009298071 0.01266658
vt 0.009361513 0.01262129
vt 0.009364784 0.012314
vt 0.03841904 0.01273604
vt 0.03840685 0.01274759
vt 0.03843466 0.01274759
vt 0.03844589 0.01273612
vt 0.7098348 0.03702369
vt 0.7108983 0.03702369
vt 0.7107816 0.03678471
vt 0.7109265 0.03702369
vt 0.7099513 0.03678471
vt 0.7098065 0.03702369
vt 0.7098065 0.03702369
vt 0.7107816 0.03678471
vt 0.7109265 0.03702369
vt 0.7108983 0.03702369
vt 0.7099513 0.03678471
vt 0.7098348 0.03702369
vn -0.9643403 -0.01458718 0.2642631
vn -0.9998381 -0.0009914881 0.01796185
vn -0.8898836 -0.02514303 0.4554942
vn 0.6224434 -0.02790006 0.7821674
vn 0.6224434 -0.02790006 0.7821674
vn 0.6224434 -0.02790006 0.7821674
vn 0.02546341 -0.6383657 0.769312
vn 0.02546341 -0.6383656 0.7693119
vn 0.02546341 -0.6383656 0.7693119
vn -0.02845829 -0.7897211 0.6128057
vn -0.02845829 -0.789721 0.6128057
vn -0.02845829 -0.789721 0.6128057
vn -0.543233 -0.2686131 0.7954527
vn -0.6715478 -0.03163292 0.7402856
vn -0.5757627 -0.2169807 0.7882998
vn 0.5893214 0.8040774 -0.0784834
vn 0.5893214 0.8040774 -0.07848339
vn 0.5893215 0.8040774 -0.0784834
vn 0 0 1
vn 0 0 1
vn 0 0 1
vn 0.1571974 -0.648791 0.744553
vn 0.1571974 -0.648791 0.744553
vn 0.1571974 -0.648791 0.744553
vn -0.7711406 0.205296 0.6026571
vn -0.7711406 0.205296 0.6026571
vn -0.7711406 0.205296 0.6026571
vn -0.7793943 0.1286087 -0.6131918
vn -0.7793943 0.1286087 -0.6131918
vn -0.7793943 0.1286087 -0.6131918
vn 0.5451002 -0.789656 -0.2816187
vn 0.1924794 -0.7477422 -0.6354788
vn 0.1924794 -0.7477423 -0.6354788
vn -0.5985353 0.2475028 0.7619041
vn -0.5985354 0.2475028 0.7619041
vn -0.5985352 0.2475028 0.7619041
vn 0.6108803 0.2706833 0.7440133
vn 0.6108803 0.2706833 0.7440133
vn 0.6108803 0.2706833 0.7440133
vn 0 0 1
vn 0 0 1
vn 0 0 1
vn 0 0 1
vn 0 0 1
vn 0 0 1
vn 0 0 1
vn 0 0 1
vn 0 0 1
vn 0 0 1
vn 0 0 1
vn 0 0 1
vn 0 0 1
vn 0 0 1
vn 0 0 1
vn 0 0 1
vn 0 0 1
vn 0 0 1
vn 0 0 1
vn 0 0 1
vn 0 0 1
vn 0 0 1
vn 0 0 1
vn 0 0 1
vn 0 0 1
vn 0 0 1
vn 0 0 1
vn 0 0 1
vn 0 0 1
vn 0 0 1
vn 0 0 1
vn 0 0 1
vn 0 0 1
vn 0 0 1
vn 0 0 1
vn 0 0 1
vn 0 0 1
vn 0 0 1
vn 0 0 1
vn 0 0 1
vn 0 0 1
vn 0 0 1
vn 0 0 1
vn 0 0 1
vn 0 0 1
vn 0 0 1
vn 0 0 1
vn 0 0 1
vn 1 0 0
vn 1 0 0
vn 1 0 0
vn 1 0 0
vn 0 1 0
vn 0 1 0
vn 0 1 0
vn 0 1 0
vn 0 1 0
vn 0 1 0
vn 0 1 0
vn 0 1 0
vn 1 0 0
vn 1 0 0
vn 1 0 0
vn 1 0 0
vn 1 0 0
vn 1 0 0
vn 1 0 0
vn 1 0 0
vn 0 1 0
vn 0 1 0
vn 0 1 0
vn 0 1 0
vn -1 0 0
vn -1 0 0
vn -1 0 0
vn -1 0 0
vn -1 0 0
vn -1 0 0
vn -1 0 0
vn -1 0 0
vn -1 0 0
vn -0.9998381 -0.0009914881 0.01796185
vn -0.9643403 -0.01458718 0.2642631
vn -1 0 0
vn -0.7644985 -0.6440593 -0.0270137
vn -0.7644985 -0.6440593 -0.02701371
vn -0.7644984 -0.6440593 -0.02701371
vn -0.7644984 -0.6440592 -0.0270137
vn 0 1 0
vn 0 1 0
vn 0 1 0
vn 0 1 0
vn 0 1 0
vn 0 1 0
vn 0 1 0
vn 0 1 0
vn 0 1 0
vn 0 1 0
vn 0 1 0
vn 0 1 0
vn -1 0 0
vn -1 0 0
vn -1 0 0
vn -1 0 0
vn 0 -1 0
vn 0 -1 0
vn 0 -1 0
vn 0 -1 0
vn 0 -1 0
vn 0 -1 0
vn 0 -1 0
vn 0 -1 0
vn 0 -1 0
vn 0 -1 0
vn 0 -1 0
vn 0 -1 0
vn 1 0 0
vn 1 0 0
vn 1 0 0
vn 1 0 0
vn 1 0 0
vn 1 0 0
vn 1 0 0
vn 1 0 0
vn 1 0 0
vn 0 -1 0
vn 0 -1 0
vn 0 -1 0
vn 0 -1 0
vn 1 0 0
vn 1 0 0
vn 1 0 0
vn 1 0 0
vn -1 0 0
vn -1 0 0
vn -1 0 0
vn -1 0 0
vn -1 0 0
vn -1 0 0
vn -1 0 0
vn -1 0 0
vn -0.9242977 0.3816695 0.001422693
vn -1 0 0
vn -0.9055538 0.4242286 0.001581262
vn -0.7075332 0.7066752 0.002634049
vn -0.7075332 0.7066752 0.002634049
vn 0 -1 0
vn 0 -1 0
vn 0 -1 0
vn 0 -1 0
vn 0 -1 0
vn 0 -1 0
vn 0 -1 0
vn 0 -1 0
vn 0 -1 0
vn 0.3840109 -0.9233266 0.001937367
vn 0.4122102 -0.9110863 0.002079635
vn 0.7113748 -0.7028037 0.003588946
vn 0.7113748 -0.7028037 0.003588945
vn 0 0 1
vn 0 0 1
vn 0 0 1
vn 0 0 1
vn 0 0 1
vn 0 0 1
vn 0 0 1
vn 0 0 1
vn 0 1 0
vn 0 1 0
vn 0 1 0
vn 0 1 0
vn 0 0 1
vn 0 0 1
vn 0 0 1
vn 0 0 1
vn -0.7071357 -0.7070777 -5.376162E-05
vn -0.7071357 -0.7070778 -5.376163E-05
vn -0.7071357 -0.7070778 -5.376162E-05
vn -0.7071357 -0.7070777 -5.376162E-05
vn 0.7071747 -0.7070345 -0.002502349
vn 0.7071747 -0.7070346 -0.002502349
vn 0.5451002 -0.789656 -0.2816187
vn 0.7071747 -0.7070345 -0.002502349
vn 0.7071068 0.7071068 0
vn 0.7071068 0.7071068 0
vn 0.7071068 0.7071068 0
vn 0.7071068 0.7071068 0
vn -0.702739 0.711435 -0.004251345
vn -0.702739 0.711435 -0.004251344
vn -0.702739 0.711435 -0.004251344
vn -0.702739 0.711435 -0.004251344
vn -0.543233 -0.2686131 0.7954527
vn -0.5757627 -0.2169807 0.7882998
vn -0.4256248 -0.4265456 0.7980617
vn -0.4256248 -0.4265456 0.7980617
vn -0.2014136 0.09647761 -0.9747433
vn -0.2014136 -0.09647767 -0.9747433
vn -0.143601 -0.1361232 -0.9802291
vn -0.09368149 -0.1995843 -0.9753922
vn -0.143601 0.1361232 -0.9802291
vn -0.0936814 0.1995842 -0.9753922
vn 0.0936814 0.1995841 -0.9753922
vn 0.143601 -0.1361232 -0.9802291
vn 0.09368145 -0.1995843 -0.9753922
vn 0.2014136 -0.09647764 -0.9747433
vn 0.143601 0.1361232 -0.9802291
vn 0.2014135 0.09647758 -0.9747433
g Color_04_0
f 3/3/3 2/2/2 1/1/1
f 6/6/6 5/5/5 4/4/4
f 9/9/9 8/8/8 7/7/7
f 12/12/12 11/11/11 10/10/10
f 15/15/15 14/14/14 13/13/13
f 18/18/18 17/17/17 16/16/16
f 21/21/21 20/20/20 19/19/19
f 24/24/24 23/23/23 22/22/22
f 27/27/27 26/26/26 25/25/25
f 30/30/30 29/29/29 28/28/28
f 33/33/33 32/32/32 31/31/31
f 36/36/36 35/35/35 34/34/34
f 39/39/39 38/38/38 37/37/37
f 42/42/42 41/41/41 40/40/40
f 45/45/45 44/44/44 43/43/43
f 48/48/48 47/47/47 46/46/46
f 49/49/49 48/48/48 46/46/46
f 46/46/46 50/50/50 49/49/49
f 50/50/50 46/46/46 51/51/51
f 46/46/46 52/52/52 51/51/51
f 55/55/55 54/54/54 53/53/53
f 56/56/56 55/55/55 53/53/53
f 59/59/59 58/58/58 57/57/57
f 60/60/60 59/59/59 57/57/57
f 63/63/63 62/62/62 61/61/61
f 64/64/64 63/63/63 61/61/61
f 67/67/67 66/66/66 65/65/65
f 68/68/68 67/67/67 65/65/65
f 67/67/67 68/68/68 69/69/69
f 69/69/69 70/70/70 67/67/67
f 71/71/71 70/70/70 69/69/69
f 74/74/74 73/73/73 72/72/72
f 75/75/75 74/74/74 72/72/72
f 78/78/78 77/77/77 76/76/76
f 79/79/79 78/78/78 76/76/76
f 82/82/82 81/81/81 80/80/80
f 83/83/83 82/82/82 80/80/80
f 86/86/86 85/85/85 84/84/84
f 87/87/87 86/86/86 84/84/84
f 90/90/90 89/89/89 88/88/88
f 91/91/91 90/90/90 88/88/88
f 94/94/94 93/93/93 92/92/92
f 95/95/95 94/94/94 92/92/92
f 96/96/96 95/95/95 92/92/92
f 97/97/97 96/96/96 92/92/92
f 97/97/97 98/98/98 96/96/96
f 98/98/98 99/99/99 96/96/96
f 102/102/102 101/101/101 100/100/100
f 103/103/103 102/102/102 100/100/100
f 103/103/103 100/100/100 104/104/104
f 100/100/100 105/105/105 104/104/104
f 105/105/105 106/106/106 104/104/104
f 106/106/106 107/107/107 104/104/104
f 110/110/110 109/109/109 108/108/108
f 111/111/111 110/110/110 108/108/108
f 114/114/114 113/113/113 112/112/112
f 115/115/115 114/114/114 112/112/112
f 116/116/116 115/115/115 112/112/112
f 117/117/117 116/116/116 112/112/112
f 117/117/117 118/118/118 116/116/116
f 118/118/118 119/119/119 116/116/116
f 122/122/122 121/121/121 120/120/120
f 123/123/123 122/122/122 120/120/120
f 126/126/126 125/125/125 124/124/124
f 127/127/127 126/126/126 124/124/124
f 130/130/130 129/129/129 128/128/128
f 131/131/131 130/130/130 128/128/128
f 132/132/132 131/131/131 128/128/128
f 131/131/131 132/132/132 133/133/133
f 134/134/134 131/131/131 133/133/133
f 135/135/135 132/132/132 128/128/128
f 136/136/136 135/135/135 128/128/128
f 136/136/136 137/137/137 135/135/135
f 138/138/138 135/135/135 137/137/137
f 139/139/139 138/138/138 137/137/137
f 142/142/142 141/141/141 140/140/140
f 143/143/143 142/142/142 140/140/140
f 146/146/146 145/145/145 144/144/144
f 147/147/147 146/146/146 144/144/144
f 148/148/148 147/147/147 144/144/144
f 149/149/149 148/148/148 144/144/144
f 149/149/149 150/150/150 148/148/148
f 150/150/150 151/151/151 148/148/148
f 154/154/154 153/153/153 152/152/152
f 155/155/155 154/154/154 152/152/152
f 158/158/158 157/157/157 156/156/156
f 159/159/159 158/158/158 156/156/156
f 159/159/159 156/156/156 160/160/160
f 156/156/156 161/161/161 160/160/160
f 161/161/161 162/162/162 160/160/160
f 163/163/163 162/162/162 161/161/161
f 164/164/164 163/163/163 161/161/161
f 167/167/167 166/166/166 165/165/165
f 168/168/168 167/167/167 165/165/165
f 171/171/171 170/170/170 169/169/169
f 172/172/172 171/171/171 169/169/169
f 175/175/175 174/174/174 173/173/173
f 176/176/176 175/175/175 173/173/173
f 176/176/176 173/173/173 177/177/177
f 173/173/173 178/178/178 177/177/177
f 179/179/179 177/177/177 178/178/178
f 180/180/180 179/179/179 178/178/178
f 181/181/181 180/180/180 178/178/178
f 182/182/182 181/181/181 178/178/178
f 183/183/183 180/180/180 181/181/181
f 183/183/183 181/181/181 184/184/184
f 181/181/181 185/185/185 184/184/184
f 188/188/188 187/187/187 186/186/186
f 189/189/189 188/188/188 186/186/186
f 186/186/186 190/190/190 189/189/189
f 190/190/190 191/191/191 189/189/189
f 192/192/192 191/191/191 190/190/190
f 193/193/193 192/192/192 190/190/190
f 194/194/194 191/191/191 192/192/192
f 195/195/195 194/194/194 192/192/192
f 196/196/196 195/195/195 192/192/192
f 197/197/197 195/195/195 196/196/196
f 198/198/198 197/197/197 196/196/196
f 201/201/201 200/200/200 199/199/199
f 202/202/202 201/201/201 199/199/199
f 205/205/205 204/204/204 203/203/203
f 206/206/206 205/205/205 203/203/203
f 209/209/209 208/208/208 207/207/207
f 210/210/210 209/209/209 207/207/207
f 213/213/213 212/212/212 211/211/211
f 212/212/212 214/214/214 211/211/211
f 217/217/217 216/216/216 215/215/215
f 218/218/218 217/217/217 215/215/215
f 221/221/221 220/220/220 219/219/219
f 222/222/222 221/221/221 219/219/219
f 225/225/225 224/224/224 223/223/223
f 226/226/226 225/225/225 223/223/223
f 229/229/229 228/228/228 227/227/227
f 230/230/230 229/229/229 227/227/227
f 233/233/233 232/232/232 231/231/231
f 234/234/234 233/233/233 231/231/231
f 237/237/237 236/236/236 235/235/235
f 236/236/236 237/237/237 238/238/238
f 239/239/239 237/237/237 235/235/235
f 240/240/240 239/239/239 235/235/235
f 239/239/239 240/240/240 241/241/241
f 237/237/237 242/242/242 238/238/238
f 242/242/242 243/243/243 238/238/238
f 243/243/243 242/242/242 244/244/244
f 245/245/245 239/239/239 241/241/241
f 242/242/242 245/245/245 244/244/244
f 246/246/246 245/245/245 241/241/241
f 245/245/245 246/246/246 244/244/244
