g Color_Cloth_01
v 4.10408 -1.079801 31.39345
v 4.389295 -1.358317 30.82229
v 3.519009 -1.319642 30.49459
v 3.301928 -1.075023 30.92208
v 4.069153 -0.8176383 31.969
v 2.21456 -0.8783724 30.43211
v 3.301928 -0.8298696 31.54557
v 4.176307 -0.6001489 32.55652
v 2.21456 -0.6538919 30.83904
v 1.127193 -0.2590468 30.61772
v 3.301929 -0.6459785 32.21745
v 4.389297 -0.4353184 33.15815
v 3.304622 -0.5909526 32.65685
v 2.214561 -0.4342392 31.58721
v 2.214561 -0.4069066 32.32769
v 2.214561 -0.4343054 32.77443
v 1.127193 -0.0627234 31.12093
v 1.127194 -0.1456502 32.43474
v 1.127194 -0.2568532 33.09319
v 1.127193 -0.03369996 31.75895
v 0.5373616 0.1309517 31.06903
v 0.0398252 -0.03186122 30.46687
v 0.7168497 0.09206539 31.72525
v 0.5373625 -0.006020099 32.39732
v 0.03982711 -0.06592622 33.05917
vt 0.06998454 0.3113706
vt 0.06998454 0.3709841
vt 0.1532303 0.3709841
vt 0.1532303 0.3113706
vt 0.06998454 0.2517568
vt 0.2364761 0.3709841
vt 0.1532303 0.2517568
vt 0.06998454 0.192143
vt 0.2364761 0.3113706
vt 0.3197218 0.3709841
vt 0.1532303 0.192143
vt 0.06998454 0.1325296
vt 0.1532303 0.1325296
vt 0.2364761 0.2517568
vt 0.2364761 0.192143
vt 0.2364761 0.1325296
vt 0.3197218 0.3113706
vt 0.3197218 0.192143
vt 0.3197218 0.1325296
vt 0.3197218 0.2517568
vt 0.4029676 0.3113706
vt 0.4029676 0.3709841
vt 0.4029676 0.2517568
vt 0.4029676 0.192143
vt 0.4029676 0.1325296
vn -0.2064172 -0.9039313 0.3745665
vn -0.2017249 -0.905654 0.3729585
vn -0.2528182 -0.8887776 0.3823053
vn -0.2804089 -0.8878936 0.3647133
vn -0.1451925 -0.9315105 0.3334776
vn -0.3538961 -0.8491769 0.3919897
vn -0.2437862 -0.9245758 0.2927932
vn -0.02583071 -0.9708948 0.2381091
vn -0.3617485 -0.8736715 0.3253246
vn -0.337212 -0.8574467 0.3886814
vn -0.1467636 -0.972282 0.1820112
vn 0.01315292 -0.9788811 0.2040066
vn -0.0733512 -0.9892666 0.1263766
vn -0.3266108 -0.9345169 0.1414341
vn -0.241311 -0.9704444 -0.002547219
vn -0.2003655 -0.9782453 -0.05375652
vn -0.3521726 -0.9089345 0.2231874
vn -0.2375851 -0.9631715 -0.125913
vn -0.202593 -0.9665696 -0.1571597
vn -0.3071527 -0.9514246 -0.02117563
vn -0.286103 -0.9165711 0.2793612
vn -0.2415558 -0.8678151 0.4342209
vn -0.28547 -0.9545077 -0.08615012
vn -0.2048008 -0.9608523 -0.1865993
vn -0.1627333 -0.9641498 -0.2096016
g Color_Cloth_01_0
f 3/3/3 2/2/2 1/1/1
f 4/4/4 3/3/3 1/1/1
f 4/4/4 1/1/1 5/5/5
f 6/6/6 3/3/3 4/4/4
f 7/7/7 4/4/4 5/5/5
f 7/7/7 5/5/5 8/8/8
f 9/9/9 6/6/6 4/4/4
f 9/9/9 4/4/4 7/7/7
f 10/10/10 6/6/6 9/9/9
f 11/11/11 7/7/7 8/8/8
f 11/11/11 8/8/8 12/12/12
f 13/13/13 11/11/11 12/12/12
f 14/14/14 9/9/9 7/7/7
f 14/14/14 7/7/7 11/11/11
f 15/15/15 11/11/11 13/13/13
f 15/15/15 14/14/14 11/11/11
f 16/16/16 15/15/15 13/13/13
f 17/17/17 10/10/10 9/9/9
f 17/17/17 9/9/9 14/14/14
f 18/18/18 15/15/15 16/16/16
f 19/19/19 18/18/18 16/16/16
f 20/20/20 14/14/14 15/15/15
f 20/20/20 17/17/17 14/14/14
f 18/18/18 20/20/20 15/15/15
f 17/17/17 21/21/21 10/10/10
f 20/20/20 21/21/21 17/17/17
f 21/21/21 22/22/22 10/10/10
f 23/23/23 21/21/21 20/20/20
f 24/24/24 23/23/23 20/20/20
f 18/18/18 24/24/24 20/20/20
f 19/19/19 24/24/24 18/18/18
f 25/25/25 24/24/24 19/19/19
