g Color_Guns_04
v 1.783102 -1.541178 0.6383771
v 1.68058 -1.541177 -0.638376
v 1.591734 -1.493911 0.6187986
v 1.68058 0.7108698 1.468684
v 1.783102 -0.6383774 1.541178
v 1.591734 -0.618799 1.493911
v -2.328186 1.541178 0.638376
v -2.328185 1.541178 -0.6383774
v 1.381821 1.411129 -0.5845076
v 1.381819 1.411128 0.5845098
v 1.680578 1.541176 0.638378
v 1.68058 1.541177 -0.6383752
v 2.328187 1.541176 0.6383784
v 2.328188 1.541177 -0.6383747
v -2.328185 0.6383765 1.541176
v -2.328186 1.541178 0.638376
v 1.381819 1.411128 0.5845098
v 1.38182 0.5845074 1.41113
v 1.68058 0.7108698 1.468684
v 1.680578 1.541176 0.638378
v 2.328187 0.6383751 1.541179
v 2.328187 1.541176 0.6383784
v -2.328187 -0.6383762 1.541175
v -2.328185 0.6383765 1.541176
v 1.38182 0.5845074 1.41113
v 1.381818 -0.5845094 1.411129
v 1.591734 -0.618799 1.493911
v 1.68058 0.7108698 1.468684
v 2.328187 -0.6383776 1.541178
v 1.783102 -0.6383774 1.541178
v 2.328187 0.6383751 1.541179
v -2.328186 -1.541177 0.6383747
v -2.328187 -0.6383762 1.541175
v 1.381818 -0.5845094 1.411129
v 1.381819 -1.41113 0.584509
v 1.591734 -1.493911 0.6187986
v 1.591734 -0.618799 1.493911
v -2.328187 -1.541176 -0.638378
v -2.328186 -1.541177 0.6383747
v 1.381819 -1.41113 0.584509
v 1.381819 -1.411129 -0.5845088
v 1.68058 -1.541177 -0.638376
v 1.591734 -1.493911 0.6187986
v -2.328186 -0.638375 -1.541179
v -2.328187 -1.541176 -0.638378
v 1.381819 -1.411129 -0.5845088
v 1.381819 -0.5845085 -1.411129
v 1.68058 -0.6383759 -1.541177
v 1.68058 -1.541177 -0.638376
v 2.328188 -0.6383764 -1.541176
v 2.328188 -1.541177 -0.6383756
v -2.328185 0.6383778 -1.541178
v -2.328186 -0.638375 -1.541179
v 1.381819 -0.5845085 -1.411129
v 1.381821 0.5845093 -1.411128
v -2.328185 1.541178 -0.6383774
v 1.381821 1.411129 -0.5845076
v 1.68058 1.541177 -0.6383752
v 1.680582 0.6383766 -1.541176
v 2.328188 1.541177 -0.6383747
v 1.68058 -0.6383759 -1.541177
v 2.328189 0.6383764 -1.541175
v 2.328188 -0.6383764 -1.541176
v 2.328188 -1.541178 0.6383774
v 1.783102 -1.541178 0.6383771
v 1.783102 -0.6383774 1.541178
v 2.328187 -0.6383776 1.541178
v 2.328188 -1.541178 0.6383774
v 2.328188 -1.541177 -0.6383756
v 1.68058 -1.541177 -0.638376
v 1.783102 -1.541178 0.6383771
v 1.783102 -0.6383774 1.541178
v 1.783102 -1.541178 0.6383771
v 1.591734 -1.493911 0.6187986
v 1.591734 -0.618799 1.493911
v 2.32819 0.4095224 -0.9886739
v 1.005611 -8.9884E-08 1.109357E-06
v 2.328189 0.988675 -0.4095212
v 2.328189 -0.4095226 -0.9886745
v 2.328188 0.9886748 0.4095245
v 2.328189 -0.9886757 -0.4095218
v 2.328188 0.4095217 0.988677
v 2.328189 -0.9886762 0.4095238
v 2.328188 -0.4095236 0.9886765
v 2.328189 0.6383764 -1.541175
v 2.32819 0.4095224 -0.9886739
v 2.328189 0.988675 -0.4095212
v 2.328188 1.541177 -0.6383747
v 2.328188 -0.6383764 -1.541176
v 2.328188 0.9886748 0.4095245
v 2.328189 -0.4095226 -0.9886745
v 2.328187 1.541176 0.6383784
v 2.328188 -1.541177 -0.6383756
v 2.328188 0.4095217 0.988677
v 2.328189 -0.9886757 -0.4095218
v 2.328187 0.6383751 1.541179
v 2.328188 -1.541178 0.6383774
v 2.328188 -0.4095236 0.9886765
v 2.328189 -0.9886762 0.4095238
v 2.328187 -0.6383776 1.541178
vt 0.2319391 0.07301199
vt 0.2316036 0.07337506
vt 0.2318109 0.0736897
vt 0.233796 0.0736897
vt 0.2297468 0.07301199
vt 0.2297468 0.0736897
vt 0.2298792 0.09654266
vt 0.2298792 0.09819967
vt 0.2346676 0.09785646
vt 0.2346676 0.09654266
vt 0.2355105 0.09654266
vt 0.2355105 0.09819967
vt 0.2364203 0.09654266
vt 0.2364203 0.09819966
vt 0.2298792 0.09654266
vt 0.2298792 0.09819966
vt 0.2346677 0.09819966
vt 0.2346677 0.09688585
vt 0.2353858 0.09659348
vt 0.2355105 0.09819966
vt 0.2364203 0.09654266
vt 0.2364203 0.09819966
vt 0.2323212 0.1006417
vt 0.2339782 0.1006417
vt 0.2336351 0.09585322
vt 0.2323212 0.09585322
vt 0.2323212 0.09513517
vt 0.2339274 0.09513517
vt 0.2323212 0.09410062
vt 0.2323212 0.09486634
vt 0.2339782 0.09410062
vt 0.235903 0.09819967
vt 0.235903 0.09654266
vt 0.2311145 0.09654266
vt 0.2311145 0.09785646
vt 0.2303964 0.09814885
vt 0.2303964 0.09654266
vt 0.2364203 0.09819967
vt 0.2364203 0.09654266
vt 0.2316318 0.09688585
vt 0.2316318 0.09819966
vt 0.2307889 0.09667571
vt 0.2309137 0.09659347
vt 0.2364203 0.09819967
vt 0.2364203 0.09654267
vt 0.2316318 0.09654266
vt 0.2316318 0.09785646
vt 0.2307889 0.09819967
vt 0.2307889 0.09654266
vt 0.2298792 0.09819967
vt 0.2298792 0.09654266
vt 0.2364203 0.09737115
vt 0.2364203 0.09571415
vt 0.2316318 0.09605735
vt 0.2316318 0.09737115
vt 0.2364203 0.09902816
vt 0.2316318 0.09868496
vt 0.2307889 0.09902816
vt 0.2307889 0.09737115
vt 0.2298792 0.09902816
vt 0.2307889 0.09571415
vt 0.2298792 0.09737115
vt 0.2298792 0.09571415
vt 0.2327669 0.09819967
vt 0.2335326 0.09819967
vt 0.2335326 0.09654266
vt 0.2327669 0.09654266
vt 0.2298792 0.09654266
vt 0.2298792 0.09819966
vt 0.2307889 0.09667571
vt 0.2306449 0.09654266
vt 0.23386 0.07301199
vt 0.2296827 0.07301199
vt 0.2298108 0.0736897
vt 0.23386 0.0736897
vt 0.2363441 0.1204259
vt 0.232531 0.121658
vt 0.2341104 0.1186834
vt 0.2363441 0.1228902
vt 0.2309515 0.1186834
vt 0.2341104 0.1246327
vt 0.2287179 0.1204259
vt 0.2309515 0.1246327
vt 0.2287179 0.1228902
vt 0.2302951 0.07273935
vt 0.2302951 0.07273935
vt 0.2311598 0.07187454
vt 0.2311598 0.07187454
vt 0.2302951 0.07396238
vt 0.2323828 0.07187454
vt 0.2302951 0.07396238
vt 0.2323828 0.07187454
vt 0.2311598 0.07482715
vt 0.2332477 0.07273935
vt 0.2311598 0.07482715
vt 0.2332477 0.07273935
vt 0.2323828 0.07482715
vt 0.2332477 0.07396238
vt 0.2323828 0.07482715
vt 0.2332477 0.07396238
vn -0.2582203 -0.8845816 0.3883781
vn -0.2416129 -0.9701788 0.01940062
vn -0.258227 -0.8851086 0.3871711
vn -0.2363461 0.03421558 0.9710664
vn -0.2582707 -0.3655396 0.8942466
vn -0.2582617 -0.3609323 0.8961186
vn 0.03791434 0.923215 0.3824087
vn 0.03791464 0.9232153 -0.3824079
vn -0.2121592 0.9028475 -0.3739716
vn -0.2121601 0.9028472 0.373972
vn -0.2078219 0.903708 0.3743285
vn -0.2078206 0.9037085 -0.3743282
vn 0 0.9238794 0.3826839
vn 0 0.9238796 -0.3826833
vn 0.03791388 0.3824078 0.9232154
vn 0.03791434 0.923215 0.3824087
vn -0.2121601 0.9028472 0.373972
vn -0.164802 0.3479435 0.9229169
vn -0.1956977 0.4384779 0.8771771
vn -0.2078219 0.903708 0.3743285
vn -0.03457886 0.362463 0.9313565
vn 0 0.9238794 0.3826839
vn 0.03791358 -0.3824087 0.923215
vn 0.03791388 0.3824078 0.9232154
vn -0.164802 0.3479435 0.9229169
vn -0.1637795 -0.3694763 0.9146932
vn -0.3419498 -0.3373432 0.8770804
vn -0.1956977 0.4384779 0.8771771
vn -0.03217986 -0.3711286 0.9280236
vn -0.03293562 -0.3617276 0.9317018
vn -0.03457886 0.362463 0.9313565
vn 0.03791365 -0.9232154 0.3824079
vn 0.03791358 -0.3824087 0.923215
vn -0.1637795 -0.3694763 0.9146932
vn -0.1976217 -0.9049427 0.3768611
vn -0.4024864 -0.8483122 0.3440511
vn -0.3419498 -0.3373432 0.8770804
vn 0.03791397 -0.923215 -0.3824088
vn 0.03791365 -0.9232154 0.3824079
vn -0.1976217 -0.9049427 0.3768611
vn -0.2082699 -0.9042505 -0.3727663
vn -0.2040989 -0.9006763 -0.38357
vn -0.4024864 -0.8483122 0.3440511
vn 0.03791445 -0.382408 -0.9232154
vn 0.03791397 -0.923215 -0.3824088
vn -0.2082699 -0.9042505 -0.3727663
vn -0.2121573 -0.3739713 -0.9028482
vn -0.2078194 -0.3743277 -0.9037089
vn -0.2040989 -0.9006763 -0.38357
vn 0 -0.3826831 -0.9238796
vn 0 -0.9238794 -0.3826835
vn 0.0379147 0.3824086 -0.923215
vn 0.03791445 -0.382408 -0.9232154
vn -0.2121573 -0.3739713 -0.9028482
vn -0.2121578 0.3739724 -0.9028476
vn 0.03791464 0.9232153 -0.3824079
vn -0.2121592 0.9028475 -0.3739716
vn -0.2078206 0.9037085 -0.3743282
vn -0.2078194 0.3743287 -0.9037085
vn 0 0.9238796 -0.3826833
vn -0.2078194 -0.3743277 -0.9037089
vn 0 0.3826838 -0.9238794
vn 0 -0.3826831 -0.9238796
vn 0 -0.9238796 0.3826831
vn 0 -0.9277728 0.3731456
vn -0.03293562 -0.3617276 0.9317018
vn -0.03217986 -0.3711286 0.9280236
vn 0 -0.9238796 0.3826831
vn 0 -0.9238794 -0.3826835
vn -0.2040989 -0.9006763 -0.38357
vn 0 -0.9277728 0.3731456
vn -0.2582707 -0.3655396 0.8942466
vn -0.2582203 -0.8845816 0.3883781
vn -0.258227 -0.8851086 0.3871711
vn -0.2582617 -0.3609323 0.8961186
vn 0.6290119 -0.2974967 0.7182198
vn 1 0 0
vn 0.6290122 -0.7182195 0.2974971
vn 0.6290123 0.2974955 0.7182199
vn 0.6290125 -0.7182195 -0.2974961
vn 0.6290124 0.7182195 0.2974966
vn 0.6290126 -0.2974958 -0.7182195
vn 0.6290125 0.7182197 -0.2974955
vn 0.6290128 0.2974969 -0.718219
vn 1 0 0
vn 1 0 0
vn 1 0 0
vn 1 0 0
vn 1 0 0
vn 1 0 0
vn 1 0 0
vn 1 0 0
vn 1 0 0
vn 1 0 0
vn 1 0 0
vn 1 0 0
vn 1 0 0
vn 1 0 0
vn 1 0 0
vn 1 0 0
g Color_Guns_04_0
f 3/3/3 2/2/2 1/1/1
f 6/6/6 5/5/5 4/4/4
f 9/9/9 8/8/8 7/7/7
f 10/10/10 9/9/9 7/7/7
f 9/9/9 10/10/10 11/11/11
f 12/12/12 9/9/9 11/11/11
f 12/12/12 11/11/11 13/13/13
f 14/14/14 12/12/12 13/13/13
f 17/17/17 16/16/16 15/15/15
f 18/18/18 17/17/17 15/15/15
f 17/17/17 18/18/18 19/19/19
f 20/20/20 17/17/17 19/19/19
f 20/20/20 19/19/19 21/21/21
f 22/22/22 20/20/20 21/21/21
f 25/25/25 24/24/24 23/23/23
f 26/26/26 25/25/25 23/23/23
f 25/25/25 26/26/26 27/27/27
f 28/28/28 25/25/25 27/27/27
f 28/28/28 30/30/30 29/29/29
f 31/31/31 28/28/28 29/29/29
f 34/34/34 33/33/33 32/32/32
f 35/35/35 34/34/34 32/32/32
f 34/34/34 35/35/35 36/36/36
f 37/37/37 34/34/34 36/36/36
f 40/40/40 39/39/39 38/38/38
f 41/41/41 40/40/40 38/38/38
f 40/40/40 41/41/41 42/42/42
f 43/43/43 40/40/40 42/42/42
f 46/46/46 45/45/45 44/44/44
f 47/47/47 46/46/46 44/44/44
f 46/46/46 47/47/47 48/48/48
f 49/49/49 46/46/46 48/48/48
f 49/49/49 48/48/48 50/50/50
f 51/51/51 49/49/49 50/50/50
f 54/54/54 53/53/53 52/52/52
f 55/55/55 54/54/54 52/52/52
f 55/55/55 52/52/52 56/56/56
f 57/57/57 55/55/55 56/56/56
f 55/55/55 57/57/57 58/58/58
f 54/54/54 55/55/55 59/59/59
f 59/59/59 55/55/55 58/58/58
f 59/59/59 58/58/58 60/60/60
f 61/61/61 54/54/54 59/59/59
f 62/62/62 59/59/59 60/60/60
f 61/61/61 59/59/59 62/62/62
f 63/63/63 61/61/61 62/62/62
f 66/66/66 65/65/65 64/64/64
f 67/67/67 66/66/66 64/64/64
f 70/70/70 69/69/69 68/68/68
f 71/71/71 70/70/70 68/68/68
f 74/74/74 73/73/73 72/72/72
f 75/75/75 74/74/74 72/72/72
f 78/78/78 77/77/77 76/76/76
f 76/76/76 77/77/77 79/79/79
f 80/80/80 77/77/77 78/78/78
f 79/79/79 77/77/77 81/81/81
f 82/82/82 77/77/77 80/80/80
f 81/81/81 77/77/77 83/83/83
f 84/84/84 77/77/77 82/82/82
f 83/83/83 77/77/77 84/84/84
f 87/87/87 86/86/86 85/85/85
f 88/88/88 87/87/87 85/85/85
f 85/85/85 86/86/86 89/89/89
f 90/90/90 87/87/87 88/88/88
f 86/86/86 91/91/91 89/89/89
f 92/92/92 90/90/90 88/88/88
f 89/89/89 91/91/91 93/93/93
f 94/94/94 90/90/90 92/92/92
f 91/91/91 95/95/95 93/93/93
f 96/96/96 94/94/94 92/92/92
f 93/93/93 95/95/95 97/97/97
f 98/98/98 94/94/94 96/96/96
f 95/95/95 99/99/99 97/97/97
f 100/100/100 98/98/98 96/96/96
f 97/97/97 99/99/99 100/100/100
f 99/99/99 98/98/98 100/100/100
