g Color_Boss_01
v 3.081641 -3.970353 -0.8382382
v 3.081641 -3.970352 -2.868337
v 4.81478E-07 -3.970353 -2.868337
v 4.81478E-07 -3.970353 -0.8382382
v 4.471011E-07 -3.77374 -0.01336336
v 3.040625 -3.563995 0.774318
v -3.08164 -3.970354 -0.8382382
v -3.08164 -3.970353 -2.868337
v -3.08164 -3.970354 -0.8382382
v 4.471011E-07 -3.77374 -0.01336336
v -3.040624 -3.563996 0.774318
v 3.08164 3.970352 -0.8382368
v 3.08164 3.970354 -2.868335
v 3.081641 8.282951E-07 -2.868335
v 3.081641 -2.141177E-07 -0.838237
v 3.040506 3.56449 0.7731225
v 3.081641 -3.970352 -2.868337
v 3.08164 2.425198 2.068639
v 3.081641 -3.970353 -0.8382382
v 3.081641 0.8658061 2.787748
v 3.040625 -3.563995 0.774318
v 3.081641 -0.8658001 2.787748
v 3.081641 -2.425198 2.068638
v -1.256762 -3.541882 0.6568692
v 1.256763 -3.541882 0.6568692
v 4.471011E-07 -3.77374 -0.01336336
v 3.040625 -3.563995 0.774318
v 1.316483 -2.475476 2.1342
v 3.001053 -2.475506 2.134157
v 1.316483 -2.475476 2.1342
v 1.313773 -0.8834879 2.868337
v 3.001054 -0.883487 2.868337
v 1.313773 0.8834872 2.868337
v 3.001054 0.8834882 2.868337
v 1.316453 2.475493 2.134177
v 3.001053 2.475475 2.134203
v 1.21538 3.614022 0.5550678
v 3.040506 3.56449 0.7731225
v -8.725424E-07 3.773741 -0.01336193
v -1.215382 3.614021 0.5550687
v 3.040625 -3.563995 0.774318
v 3.001053 -2.475506 2.134157
v 3.081641 -2.425198 2.068638
v 3.081641 -0.8658001 2.787748
v 3.001054 -0.883487 2.868337
v 3.081641 0.8658061 2.787748
v 3.001054 0.8834882 2.868337
v 3.08164 2.425198 2.068639
v 3.001053 2.475475 2.134203
v 3.040506 3.56449 0.7731225
v 4.471011E-07 -3.77374 -0.01336336
v -3.040624 -3.563996 0.774318
v -1.256762 -3.541882 0.6568692
v -1.316483 -2.475476 2.1342
v -3.001052 -2.475507 2.134157
v -9.069186E-07 3.970352 -0.8382368
v -3.081641 3.970351 -0.8382368
v -3.081641 3.970352 -2.868335
v -9.06919E-07 3.970353 -2.868335
v 3.08164 3.970354 -2.868335
v 3.08164 3.970352 -0.8382368
v 3.040506 3.56449 0.7731225
v -8.725424E-07 3.773741 -0.01336193
v -3.040507 3.564489 0.7731225
v -3.081641 3.970351 -0.8382368
v -8.725424E-07 3.773741 -0.01336193
v -3.040507 3.564489 0.7731225
v -1.215382 3.614021 0.5550687
v -3.001055 2.475474 2.134202
v -1.316187 2.475474 2.134203
v -3.001054 0.8834863 2.868337
v -1.313774 0.8834872 2.868337
v -3.001054 -0.8834889 2.868337
v -1.313773 -0.8834879 2.868337
v -3.001052 -2.475507 2.134157
v -1.316483 -2.475476 2.1342
v -3.081641 3.970351 -0.8382368
v -3.081641 -1.079053E-06 -2.868335
v -3.081641 3.970352 -2.868335
v -3.081641 -1.167792E-06 -0.838237
v -3.040507 3.564489 0.7731225
v -3.08164 -3.970353 -2.868337
v -3.081641 2.425197 2.068639
v -3.08164 -3.970354 -0.8382382
v -3.081641 0.8658042 2.787748
v -3.040624 -3.563996 0.774318
v -3.081641 -0.865802 2.787748
v -3.08164 -2.425199 2.068638
v -3.040624 -3.563996 0.774318
v -3.08164 -2.425199 2.068638
v -3.001052 -2.475507 2.134157
v -3.081641 -0.865802 2.787748
v -3.001054 -0.8834889 2.868337
v -3.081641 0.8658042 2.787748
v -3.001054 0.8834863 2.868337
v -3.081641 2.425197 2.068639
v -3.001055 2.475474 2.134202
v -3.040507 3.564489 0.7731225
v -1.256762 -3.541882 0.6568692
v 1.195557 -2.42127 2.09619
v 1.256763 -3.541882 0.6568692
v -1.195557 -2.42127 2.09619
v 1.189931 -0.8616326 2.814791
v -1.189931 -0.8616326 2.814791
v 1.18993 0.8616347 2.814791
v -1.189932 0.8616347 2.814791
v 1.19554 2.421248 2.096175
v -1.196653 2.433048 2.082839
v -1.215382 3.614021 0.5550687
v 1.21538 3.614022 0.5550678
v 1.21538 3.614022 0.5550678
v 1.316453 2.475493 2.134177
v 1.19554 2.421248 2.096175
v 1.18993 0.8616347 2.814791
v 1.313773 0.8834872 2.868337
v 1.189931 -0.8616326 2.814791
v 1.313773 -0.8834879 2.868337
v 1.195557 -2.42127 2.09619
v 1.316483 -2.475476 2.1342
v 1.256763 -3.541882 0.6568692
v -1.215382 3.614021 0.5550687
v -1.196653 2.433048 2.082839
v -1.316187 2.475474 2.134203
v -1.313774 0.8834872 2.868337
v -1.189932 0.8616347 2.814791
v -1.313773 -0.8834879 2.868337
v -1.189931 -0.8616326 2.814791
v -1.316483 -2.475476 2.1342
v -1.195557 -2.42127 2.09619
v -1.256762 -3.541882 0.6568692
vt 0.4650612 0.03416422
vt 0.4661506 0.03416422
vt 0.4661506 0.03416422
vt 0.4650612 0.03416422
vt 0.4646185 0.03424844
vt 0.464193 0.03432962
vt 0.4650612 0.03416422
vt 0.4661506 0.03416422
vt 0.4650612 0.03416422
vt 0.4646185 0.03424844
vt 0.464193 0.03432962
vt 0.4408236 0.03555564
vt 0.4408236 0.0347682
vt 0.4394939 0.0347682
vt 0.4394939 0.03555564
vt 0.4406882 0.03617579
vt 0.4381642 0.03476819
vt 0.4403061 0.03668319
vt 0.4381642 0.03555564
vt 0.4397839 0.03696213
vt 0.4382995 0.03617585
vt 0.439204 0.03696213
vt 0.4386817 0.03668319
vt 0.4642549 0.0343326
vt 0.4642549 0.0343326
vt 0.4646185 0.03424844
vt 0.464193 0.03432962
vt 0.463466 0.03480464
vt 0.4634661 0.03480461
vt 0.463466 0.03480464
vt 0.4630721 0.03548667
vt 0.4630721 0.03548667
vt 0.4630721 0.03624365
vt 0.4630721 0.03624365
vt 0.4634661 0.03692567
vt 0.463466 0.03692567
vt 0.4643129 0.0374217
vt 0.4641941 0.03740108
vt 0.4646185 0.0374819
vt 0.4643129 0.0374217
vt 0.466361 0.0105141
vt 0.4640873 0.01115342
vt 0.4641968 0.01118299
vt 0.4629945 0.01209884
vt 0.4628597 0.01208847
vt 0.4629945 0.01311591
vt 0.4628597 0.01312628
vt 0.4641968 0.01403179
vt 0.4640872 0.01406132
vt 0.466363 0.01470094
vt 0.4646185 0.03424844
vt 0.464193 0.03432962
vt 0.4642549 0.0343326
vt 0.463466 0.03480464
vt 0.4634661 0.03480461
vt 0.4650612 0.0375661
vt 0.4650612 0.0375661
vt 0.4661506 0.0375661
vt 0.4661506 0.0375661
vt 0.4661506 0.0375661
vt 0.4650612 0.0375661
vt 0.4641941 0.03740108
vt 0.4646185 0.0374819
vt 0.4641941 0.03740108
vt 0.4650612 0.0375661
vt 0.4646185 0.0374819
vt 0.4641941 0.03740108
vt 0.4643129 0.0374217
vt 0.463466 0.03692567
vt 0.463466 0.03692567
vt 0.4630721 0.03624365
vt 0.4630721 0.03624365
vt 0.4630721 0.03548667
vt 0.4630721 0.03548667
vt 0.4634661 0.03480461
vt 0.463466 0.03480464
vt 0.4408236 0.03555564
vt 0.4394939 0.0347682
vt 0.4408236 0.0347682
vt 0.4394939 0.03555564
vt 0.4406882 0.03617579
vt 0.4381642 0.03476819
vt 0.4403061 0.03668319
vt 0.4381642 0.03555564
vt 0.4397839 0.03696213
vt 0.4382995 0.03617585
vt 0.439204 0.03696213
vt 0.4386817 0.03668319
vt 0.466361 0.0105141
vt 0.4641968 0.01118299
vt 0.4640873 0.01115342
vt 0.4629945 0.01209884
vt 0.4628597 0.01208847
vt 0.4629945 0.01311591
vt 0.4628597 0.01312628
vt 0.4641968 0.01403179
vt 0.4640872 0.01406132
vt 0.466363 0.01470094
vt 0.4386885 0.0351868
vt 0.4402842 0.03539849
vt 0.4402992 0.0351868
vt 0.4387036 0.03539849
vt 0.4402805 0.03569499
vt 0.4387074 0.03569499
vt 0.4402805 0.0360226
vt 0.4387074 0.0360226
vt 0.4402842 0.03631907
vt 0.4387029 0.03632132
vt 0.438693 0.03654351
vt 0.4402948 0.0365435
vt 0.4620318 0.01251898
vt 0.4628527 0.01275564
vt 0.4628918 0.01247252
vt 0.4640161 0.01245935
vt 0.4640004 0.01274938
vt 0.4652585 0.01245935
vt 0.4652743 0.01274938
vt 0.466383 0.01247255
vt 0.466422 0.0127557
vt 0.4671909 0.01261584
vt 0.4620318 0.01269609
vt 0.4628832 0.01273996
vt 0.4628527 0.01246003
vt 0.4640004 0.01246569
vt 0.4640161 0.0127557
vt 0.4652743 0.01246569
vt 0.4652585 0.0127557
vt 0.466422 0.01245935
vt 0.466383 0.01274253
vt 0.4671909 0.01259921
vn 0.6831139 -0.7240449 0.09546848
vn 0.7071068 -0.7071067 0
vn 0 -1 0
vn 0 -0.9926553 0.1209774
vn 0 -0.9595102 0.2816738
vn 0.647255 -0.6814674 0.3415599
vn -0.6831138 -0.7240451 0.09546851
vn -0.7071065 -0.7071069 0
vn -0.6831138 -0.7240451 0.09546851
vn 0 -0.9595102 0.2816738
vn -0.6472548 -0.6814675 0.3415599
vn 0.6831307 0.7240295 0.09546532
vn 0.7071065 0.707107 0
vn 1 0 0
vn 0.9999993 0 0.001229509
vn 0.6477011 0.6811531 0.341341
vn 0.7071068 -0.7071067 0
vn 0.9089414 0.2571984 0.3281378
vn 0.6831139 -0.7240449 0.09546848
vn 0.9075495 0.09002353 0.4101824
vn 0.647255 -0.6814674 0.3415599
vn 0.9075396 -0.09003133 0.4102027
vn 0.9089371 -0.2571225 0.3282092
vn 0.02783801 -0.8676736 0.4963545
vn -0.02783774 -0.8676735 0.4963546
vn 0 -0.9595102 0.2816738
vn 0.647255 -0.6814674 0.3415599
vn -0.2355759 -0.6160636 0.7516446
vn 0.3612315 -0.5772137 0.7323498
vn -0.2355759 -0.6160636 0.7516446
vn -0.2091923 -0.2137897 0.9542183
vn 0.3703332 -0.1991298 0.907304
vn -0.2092066 0.2137864 0.9542159
vn 0.3703496 0.1991207 0.9072993
vn -0.2342616 0.6148422 0.7530541
vn 0.3610848 0.5774676 0.7322219
vn -0.01516129 0.8940185 0.4477734
vn 0.6477011 0.6811531 0.341341
vn 0 0.9672555 0.2538049
vn 0.01518623 0.8940193 0.447771
vn 0.647255 -0.6814674 0.3415599
vn 0.3612315 -0.5772137 0.7323498
vn 0.9089371 -0.2571225 0.3282092
vn 0.9075396 -0.09003133 0.4102027
vn 0.3703332 -0.1991298 0.907304
vn 0.9075495 0.09002353 0.4101824
vn 0.3703496 0.1991207 0.9072993
vn 0.9089414 0.2571984 0.3281378
vn 0.3610848 0.5774676 0.7322219
vn 0.6477011 0.6811531 0.341341
vn 0 -0.9595102 0.2816738
vn -0.6472548 -0.6814675 0.3415599
vn 0.02783801 -0.8676736 0.4963545
vn 0.2355763 -0.6160634 0.7516446
vn -0.361232 -0.5772138 0.7323495
vn 0 0.99266 0.1209391
vn -0.683131 0.7240293 0.09546523
vn -0.7071069 0.7071066 0
vn 0 1 0
vn 0.7071065 0.707107 0
vn 0.6831307 0.7240295 0.09546532
vn 0.6477011 0.6811531 0.341341
vn 0 0.9672555 0.2538049
vn -0.6477019 0.6811529 0.3413402
vn -0.683131 0.7240293 0.09546523
vn 0 0.9672555 0.2538049
vn -0.6477019 0.6811529 0.3413402
vn 0.01518623 0.8940193 0.447771
vn -0.3610877 0.5774678 0.7322204
vn 0.2380558 0.6080636 0.757356
vn -0.3703513 0.1991192 0.907299
vn 0.2158045 0.2133568 0.9528417
vn -0.3703338 -0.1991301 0.9073038
vn 0.2091926 -0.2137896 0.9542183
vn -0.361232 -0.5772138 0.7323495
vn 0.2355763 -0.6160634 0.7516446
vn -0.683131 0.7240293 0.09546523
vn -1 0 0
vn -0.7071069 0.7071066 0
vn -0.9999993 0 0.001229538
vn -0.6477019 0.6811529 0.3413402
vn -0.7071065 -0.7071069 0
vn -0.9089419 0.2571975 0.3281376
vn -0.6831138 -0.7240451 0.09546851
vn -0.9075498 0.0900232 0.4101818
vn -0.6472548 -0.6814675 0.3415599
vn -0.9075399 -0.09003149 0.4102019
vn -0.9089374 -0.2571224 0.3282084
vn -0.6472548 -0.6814675 0.3415599
vn -0.9089374 -0.2571224 0.3282084
vn -0.361232 -0.5772138 0.7323495
vn -0.9075399 -0.09003149 0.4102019
vn -0.3703338 -0.1991301 0.9073038
vn -0.9075498 0.0900232 0.4101818
vn -0.3703513 0.1991192 0.907299
vn -0.9089419 0.2571975 0.3281376
vn -0.3610877 0.5774678 0.7322204
vn -0.6477019 0.6811529 0.3413402
vn 0.02783801 -0.8676736 0.4963545
vn -0.2439767 -0.5975224 0.7638339
vn -0.02783774 -0.8676735 0.4963546
vn 0.243977 -0.5975223 0.7638339
vn -0.2204274 -0.2041404 0.953802
vn 0.2204276 -0.2041403 0.953802
vn -0.220828 0.2046309 0.9536043
vn 0.2265034 0.2042783 0.9523479
vn -0.2459752 0.5960523 0.7643415
vn 0.2528442 0.6038265 0.755952
vn 0.01518623 0.8940193 0.447771
vn -0.01516129 0.8940185 0.4477734
vn -0.01516129 0.8940185 0.4477734
vn -0.2342616 0.6148422 0.7530541
vn -0.2459752 0.5960523 0.7643415
vn -0.220828 0.2046309 0.9536043
vn -0.2092066 0.2137864 0.9542159
vn -0.2204274 -0.2041404 0.953802
vn -0.2091923 -0.2137897 0.9542183
vn -0.2439767 -0.5975224 0.7638339
vn -0.2355759 -0.6160636 0.7516446
vn -0.02783774 -0.8676735 0.4963546
vn 0.01518623 0.8940193 0.447771
vn 0.2528442 0.6038265 0.755952
vn 0.2380558 0.6080636 0.757356
vn 0.2158045 0.2133568 0.9528417
vn 0.2265034 0.2042783 0.9523479
vn 0.2091926 -0.2137896 0.9542183
vn 0.2204276 -0.2041403 0.953802
vn 0.2355763 -0.6160634 0.7516446
vn 0.243977 -0.5975223 0.7638339
vn 0.02783801 -0.8676736 0.4963545
g Color_Boss_01_0
f 3/3/3 2/2/2 1/1/1
f 4/4/4 3/3/3 1/1/1
f 5/5/5 4/4/4 1/1/1
f 6/6/6 5/5/5 1/1/1
f 3/3/3 4/4/4 7/7/7
f 8/8/8 3/3/3 7/7/7
f 4/4/4 10/10/10 9/9/9
f 10/10/10 11/11/11 9/9/9
f 14/14/14 13/13/13 12/12/12
f 15/15/15 14/14/14 12/12/12
f 16/16/16 15/15/15 12/12/12
f 17/17/17 14/14/14 15/15/15
f 18/18/18 15/15/15 16/16/16
f 19/19/19 17/17/17 15/15/15
f 20/20/20 15/15/15 18/18/18
f 19/19/19 15/15/15 21/21/21
f 22/22/22 15/15/15 20/20/20
f 21/21/21 15/15/15 23/23/23
f 23/23/23 15/15/15 22/22/22
f 26/26/26 25/25/25 24/24/24
f 27/27/27 25/25/25 26/26/26
f 28/28/28 25/25/25 27/27/27
f 29/29/29 28/28/28 27/27/27
f 31/31/31 30/30/30 29/29/29
f 32/32/32 31/31/31 29/29/29
f 33/33/33 31/31/31 32/32/32
f 34/34/34 33/33/33 32/32/32
f 35/35/35 33/33/33 34/34/34
f 36/36/36 35/35/35 34/34/34
f 37/37/37 35/35/35 36/36/36
f 38/38/38 37/37/37 36/36/36
f 39/39/39 37/37/37 38/38/38
f 39/39/39 40/40/40 37/37/37
f 43/43/43 42/42/42 41/41/41
f 43/43/43 44/44/44 42/42/42
f 44/44/44 45/45/45 42/42/42
f 44/44/44 46/46/46 45/45/45
f 46/46/46 47/47/47 45/45/45
f 46/46/46 48/48/48 47/47/47
f 48/48/48 49/49/49 47/47/47
f 48/48/48 50/50/50 49/49/49
f 53/53/53 52/52/52 51/51/51
f 53/53/53 54/54/54 52/52/52
f 54/54/54 55/55/55 52/52/52
f 58/58/58 57/57/57 56/56/56
f 59/59/59 58/58/58 56/56/56
f 60/60/60 59/59/59 56/56/56
f 61/61/61 60/60/60 56/56/56
f 61/61/61 56/56/56 62/62/62
f 56/56/56 63/63/63 62/62/62
f 56/56/56 65/65/65 64/64/64
f 66/66/66 56/56/56 64/64/64
f 68/68/68 63/63/63 67/67/67
f 68/68/68 67/67/67 69/69/69
f 70/70/70 68/68/68 69/69/69
f 70/70/70 69/69/69 71/71/71
f 72/72/72 70/70/70 71/71/71
f 72/72/72 71/71/71 73/73/73
f 74/74/74 72/72/72 73/73/73
f 74/74/74 73/73/73 75/75/75
f 76/76/76 74/74/74 75/75/75
f 79/79/79 78/78/78 77/77/77
f 78/78/78 80/80/80 77/77/77
f 80/80/80 81/81/81 77/77/77
f 78/78/78 82/82/82 80/80/80
f 80/80/80 83/83/83 81/81/81
f 82/82/82 84/84/84 80/80/80
f 80/80/80 85/85/85 83/83/83
f 80/80/80 84/84/84 86/86/86
f 80/80/80 87/87/87 85/85/85
f 80/80/80 86/86/86 88/88/88
f 80/80/80 88/88/88 87/87/87
f 91/91/91 90/90/90 89/89/89
f 92/92/92 90/90/90 91/91/91
f 93/93/93 92/92/92 91/91/91
f 94/94/94 92/92/92 93/93/93
f 95/95/95 94/94/94 93/93/93
f 96/96/96 94/94/94 95/95/95
f 97/97/97 96/96/96 95/95/95
f 98/98/98 96/96/96 97/97/97
f 101/101/101 100/100/100 99/99/99
f 100/100/100 102/102/102 99/99/99
f 102/102/102 100/100/100 103/103/103
f 104/104/104 102/102/102 103/103/103
f 104/104/104 103/103/103 105/105/105
f 106/106/106 104/104/104 105/105/105
f 106/106/106 105/105/105 107/107/107
f 108/108/108 106/106/106 107/107/107
f 108/108/108 107/107/107 109/109/109
f 107/107/107 110/110/110 109/109/109
f 113/113/113 112/112/112 111/111/111
f 113/113/113 114/114/114 112/112/112
f 114/114/114 115/115/115 112/112/112
f 114/114/114 116/116/116 115/115/115
f 116/116/116 117/117/117 115/115/115
f 116/116/116 118/118/118 117/117/117
f 118/118/118 119/119/119 117/117/117
f 118/118/118 120/120/120 119/119/119
f 123/123/123 122/122/122 121/121/121
f 123/123/123 124/124/124 122/122/122
f 124/124/124 125/125/125 122/122/122
f 124/124/124 126/126/126 125/125/125
f 126/126/126 127/127/127 125/125/125
f 126/126/126 128/128/128 127/127/127
f 128/128/128 129/129/129 127/127/127
f 128/128/128 130/130/130 129/129/129
