g Color_02
v 1.735782 -12.39037 2.363154
v -1.735778 -12.39037 2.363157
v -1.735778 -12.21449 2.576196
v 1.735784 -10.634 5.15239
v 1.026031 -8.233136 5.160334
v 1.735784 -8.233134 5.15239
v 1.735783 -11.65282 3.651252
v -1.735778 -11.47695 3.864295
v 1.735783 -11.47695 3.864292
v -1.735777 -10.634 5.152393
v -1.735777 -8.233134 5.152392
v -1.026024 -8.233136 5.160336
v -1.03311 -12.64283 1.288096
v -0.8169811 -13.12998 1.288096
v -1.03311 -13.12998 0.3451645
v -1.03311 -12.64283 1.288096
v -1.03311 -13.12998 0.3451645
v -1.261433 -13.12998 1.288096
v 1.735784 -8.233134 5.15239
v 1.735786 -8.233135 8.496189
v 1.735787 -2.296068 8.49619
v 1.735781 -2.296067 -1.08751E-06
v 1.735784 -10.634 5.15239
v 1.735783 -10.80987 3.864291
v 1.735784 -10.80987 4.939352
v 1.735783 -11.47695 3.864292
v 1.735783 -11.65282 3.651252
v 1.735782 -11.65282 2.576193
v 1.735781 -12.39036 1.288095
v 1.735782 -12.39037 2.363154
v 1.73578 -13.11023 -3.579978E-06
v 1.735781 -13.11023 1.288095
v -1.026024 -8.233136 5.160336
v 1.735784 -10.634 5.15239
v -1.735777 -10.634 5.152393
v 1.026031 -8.233136 5.160334
v -1.026024 -2.315734 5.160337
v 1.026031 -2.315734 5.160335
v -1.735778 -11.65282 2.576196
v 1.735782 -11.65282 2.576193
v 1.735782 -12.39037 2.363154
v -1.735778 -12.21449 2.576196
v 1.735784 -8.233134 5.15239
v 1.026031 -8.233136 5.160334
v 1.026033 -8.233136 7.080225
v 1.735786 -8.233135 8.496189
v -1.735775 -8.233135 8.496191
v -1.026023 -8.233136 7.080226
v -1.735777 -8.233134 5.152392
v -1.026024 -8.233136 5.160336
v 1.735784 -10.634 5.15239
v 1.735784 -10.80987 4.939352
v -1.735777 -10.80987 4.939354
v -1.735777 -10.634 5.152393
v 1.026031 -8.233136 5.160334
v 1.026031 -2.315734 5.160335
v 1.026033 -2.315734 7.080226
v 1.026033 -8.233136 7.080225
v 1.735781 -13.11023 1.288095
v 1.73578 -13.11023 -3.579978E-06
v 1.73578 -13.11023 -3.579977E-06
v -1.03311 -13.12998 0.3451645
v -0.8169811 -13.12998 1.288096
v -1.73578 -13.11023 -1.15203E-06
v -1.261433 -13.12998 1.288096
v -1.735779 -13.11023 1.288097
v 1.735782 -11.65282 2.576193
v -1.735778 -11.65282 2.576196
v -1.735778 -11.47695 3.864295
v 1.735783 -11.65282 3.651252
v 1.735783 -10.80987 3.864291
v -1.735778 -10.80987 3.864293
v -1.735777 -10.80987 4.939354
v 1.735784 -10.80987 4.939352
v -1.735775 -2.296068 8.496192
v 1.735787 -2.296068 8.49619
v 1.735786 -8.233135 8.496189
v -1.735775 -8.233135 8.496191
v -1.735777 -8.233134 5.152392
v -1.735775 -2.296068 8.496192
v -1.735775 -8.233135 8.496191
v -1.735781 -2.296067 1.340439E-06
v -1.735777 -10.634 5.152393
v -1.735778 -10.80987 3.864293
v -1.735777 -10.80987 4.939354
v -1.735778 -11.65282 2.576196
v -1.735778 -11.47695 3.864295
v -1.735778 -12.21449 2.576196
v -1.735779 -12.39036 1.288097
v -1.735778 -12.39037 2.363157
v -1.73578 -13.11023 -1.15203E-06
v -1.735779 -13.11023 1.288097
v -1.735778 -11.47695 3.864295
v -1.735778 -10.80987 3.864293
v 1.735783 -10.80987 3.864291
v 1.735783 -11.47695 3.864292
v -1.026024 -8.233136 5.160336
v -1.026023 -8.233136 7.080226
v -1.026023 -2.315734 7.080227
v -1.026024 -2.315734 5.160337
v 1.735782 -12.39037 2.363154
v 1.735781 -12.39036 1.288095
v -1.735779 -12.39036 1.288097
v -1.735778 -12.39037 2.363157
v -1.735779 -13.11023 1.288097
v -1.03311 -12.64283 1.288096
v -1.261433 -13.12998 1.288096
v -1.735779 -12.39036 1.288097
v 1.735781 -12.39036 1.288095
v -0.8169811 -13.12998 1.288096
v 1.735781 -13.11023 1.288095
vt 0.4638835 0.9506721
vt 0.4632669 0.9506721
vt 0.4632669 0.9506899
vt 0.4856486 0.9737909
vt 0.4855225 0.9737917
vt 0.4856486 0.9737909
vt 0.4638835 0.9506721
vt 0.4632669 0.9506898
vt 0.4638835 0.9506898
vt 0.4850319 0.9737909
vt 0.4850319 0.9737909
vt 0.485158 0.9737917
vt 0.4816402 0.974396
vt 0.4816785 0.974396
vt 0.4816402 0.9743177
vt 0.4449864 0.9749222
vt 0.4449864 0.9748439
vt 0.4449458 0.9749222
vt 0.4640683 0.9798116
vt 0.4640683 0.9800894
vt 0.4640683 0.9800894
vt 0.4640683 0.9793838
vt 0.4640683 0.9798116
vt 0.4640683 0.9797047
vt 0.4640683 0.979794
vt 0.4640683 0.9797047
vt 0.4640683 0.979687
vt 0.4640683 0.9795977
vt 0.4640683 0.9794907
vt 0.4640683 0.97958
vt 0.4640683 0.9793838
vt 0.4640683 0.9794907
vt 0.4881954 0.9754634
vt 0.488686 0.9754627
vt 0.4880694 0.9754627
vt 0.4885599 0.9754634
vt 0.4881954 0.9754634
vt 0.4885599 0.9754634
vt 0.4880694 0.9754719
vt 0.488686 0.9754719
vt 0.488686 0.9754543
vt 0.4880694 0.9754719
vt 0.4642526 0.9734402
vt 0.4641265 0.9734409
vt 0.4641265 0.9736003
vt 0.4642526 0.9737179
vt 0.4636359 0.9737179
vt 0.463762 0.9736003
vt 0.4636359 0.9734402
vt 0.463762 0.9734409
vt 0.4638835 0.9506898
vt 0.4638835 0.9506721
vt 0.4632669 0.9506721
vt 0.4632669 0.9506898
vt 0.4391115 0.9517003
vt 0.4391115 0.9517003
vt 0.4391115 0.9518597
vt 0.4391115 0.9518597
vt 0.4454873 0.9674943
vt 0.4454873 0.9673874
vt 0.4454873 0.9673874
vt 0.4449954 0.967416
vt 0.4450338 0.9674943
vt 0.4448706 0.9673874
vt 0.4449549 0.9674943
vt 0.4448706 0.9674943
vt 0.4454873 0.9673874
vt 0.4448706 0.9673874
vt 0.4448706 0.9674944
vt 0.4454873 0.9674767
vt 0.4454873 0.9673962
vt 0.4448706 0.9673962
vt 0.4448706 0.9674855
vt 0.4454873 0.9674855
vt 0.4393086 0.981181
vt 0.4399252 0.981181
vt 0.4399252 0.981181
vt 0.4393086 0.981181
vt 0.4640683 0.9798116
vt 0.4640683 0.9800894
vt 0.4640683 0.9800894
vt 0.4640683 0.9793838
vt 0.4640683 0.9798116
vt 0.4640683 0.9797047
vt 0.4640683 0.979794
vt 0.4640683 0.9795977
vt 0.4640683 0.9797047
vt 0.4640683 0.9795977
vt 0.4640683 0.9794907
vt 0.4640683 0.97958
vt 0.4640683 0.9793838
vt 0.4640683 0.9794907
vt 0.4880694 0.9754631
vt 0.4880694 0.9754631
vt 0.488686 0.9754631
vt 0.488686 0.9754631
vt 0.4391115 0.9517003
vt 0.4391115 0.9518597
vt 0.4391115 0.9518597
vt 0.4391115 0.9517003
vt 0.4454873 0.9674855
vt 0.4454873 0.9673962
vt 0.4448706 0.9673962
vt 0.4448706 0.9674855
vt 0.4880694 0.9754631
vt 0.4881942 0.9754631
vt 0.4881536 0.9754631
vt 0.4880694 0.9754631
vt 0.488686 0.9754631
vt 0.4882326 0.9754631
vt 0.488686 0.9754631
vn 0 -0.7711714 0.6366276
vn 0 -0.7711714 0.6366276
vn 0 -0.7711714 0.6366276
vn 0.002048647 -0.002703113 0.9999943
vn 0.003048471 -0.001304728 0.9999945
vn 0.01119141 0 0.9999374
vn 0 -0.7711715 0.6366275
vn 0 -0.7711715 0.6366275
vn 0 -0.7711715 0.6366275
vn -0.002047378 -0.002703076 0.9999943
vn -0.0111914 0 0.9999374
vn -0.003047238 -0.001304675 0.9999945
vn -0.8946543 -0.3969165 0.2050635
vn -0.8946543 -0.3969165 0.2050635
vn -0.8946543 -0.3969165 0.2050635
vn 0.8844716 -0.4145387 0.2141672
vn 0.8844716 -0.4145387 0.2141672
vn 0.8844716 -0.4145387 0.2141672
vn 1 0 0
vn 1 0 0
vn 1 0 0
vn 1 0 0
vn 1 0 0
vn 1 0 0
vn 1 0 0
vn 1 0 0
vn 1 0 0
vn 1 0 0
vn 1 0 0
vn 1 0 0
vn 1 0 0
vn 1 0 0
vn -0.003047238 -0.001304675 0.9999945
vn 0.002048647 -0.002703113 0.9999943
vn -0.002047378 -0.002703076 0.9999943
vn 0.003048471 -0.001304728 0.9999945
vn 0 0 1
vn 0 0 1
vn 0.02617207 -0.1617575 0.9864834
vn 0.02617207 -0.1617575 0.9864834
vn 0.02617207 -0.1617575 0.9864834
vn 0.02617207 -0.1617575 0.9864834
vn 0 -1 0
vn 0 -1 0
vn 0 -1 0
vn 0 -1 0
vn 0 -1 0
vn 0 -1 0
vn 0 -1 0
vn 0 -1 0
vn 0 -0.7711711 0.636628
vn 0 -0.771171 0.636628
vn 0 -0.7711711 0.636628
vn 0 -0.771171 0.636628
vn -1 0 0
vn -1 0 0
vn -1 0 0
vn -1 0 0
vn 0.007375973 -0.9999726 -0.0007149725
vn 0.007375973 -0.9999726 -0.0007149725
vn 0.007084756 -0.9999706 -0.002945723
vn -0.008156767 -0.9996195 -0.02635103
vn 0.007375973 -0.9999726 -0.0007149725
vn -0.02309931 -0.9995528 -0.01899182
vn -0.03256424 -0.9994641 -0.003333026
vn -0.03256424 -0.9994641 -0.003333026
vn -0.02297714 -0.9969789 0.07419757
vn -0.02297714 -0.9969789 0.07419757
vn -0.02297714 -0.9969789 0.07419757
vn -0.02297714 -0.9969789 0.07419758
vn 0 -1 0
vn 0 -1 0
vn 0 -1 0
vn 0 -1 0
vn 0 0 1
vn 0 0 1
vn 0 0 1
vn 0 0 1
vn -1 0 0
vn -1 0 0
vn -1 0 0
vn -1 0 0
vn -1 0 0
vn -1 0 0
vn -1 0 0
vn -1 0 0
vn -1 0 0
vn -1 0 0
vn -1 0 0
vn -1 0 0
vn -1 0 0
vn -1 0 0
vn 0 0 1
vn 0 0 1
vn 0 0 1
vn 0 0 1
vn 1 0 0
vn 1 0 0
vn 1 0 0
vn 1 0 0
vn 0 -1 0
vn 0 -1 0
vn 0 -1 0
vn 0 -1 0
vn 0 0 1
vn 0 0 1
vn 0 0 1
vn 0 0 1
vn 0 0 1
vn 0 0 1
vn 0 0 1
g Color_02_0
f 3/3/3 2/2/2 1/1/1
f 6/6/6 5/5/5 4/4/4
f 9/9/9 8/8/8 7/7/7
f 12/12/12 11/11/11 10/10/10
f 15/15/15 14/14/14 13/13/13
f 18/18/18 17/17/17 16/16/16
f 21/21/21 20/20/20 19/19/19
f 22/22/22 21/21/21 19/19/19
f 22/22/22 19/19/19 23/23/23
f 24/24/24 22/22/22 23/23/23
f 23/23/23 25/25/25 24/24/24
f 22/22/22 24/24/24 26/26/26
f 22/22/22 26/26/26 27/27/27
f 27/27/27 28/28/28 22/22/22
f 29/29/29 22/22/22 28/28/28
f 30/30/30 29/29/29 28/28/28
f 31/31/31 22/22/22 29/29/29
f 32/32/32 31/31/31 29/29/29
f 35/35/35 34/34/34 33/33/33
f 34/34/34 36/36/36 33/33/33
f 37/37/37 33/33/33 36/36/36
f 38/38/38 37/37/37 36/36/36
f 41/41/41 40/40/40 39/39/39
f 42/42/42 41/41/41 39/39/39
f 45/45/45 44/44/44 43/43/43
f 46/46/46 45/45/45 43/43/43
f 45/45/45 46/46/46 47/47/47
f 48/48/48 45/45/45 47/47/47
f 48/48/48 47/47/47 49/49/49
f 50/50/50 48/48/48 49/49/49
f 53/53/53 52/52/52 51/51/51
f 54/54/54 53/53/53 51/51/51
f 57/57/57 56/56/56 55/55/55
f 58/58/58 57/57/57 55/55/55
f 61/61/61 60/60/60 59/59/59
f 59/59/59 62/62/62 61/61/61
f 59/59/59 63/63/63 62/62/62
f 64/64/64 61/61/61 62/62/62
f 64/64/64 62/62/62 65/65/65
f 66/66/66 64/64/64 65/65/65
f 69/69/69 68/68/68 67/67/67
f 70/70/70 69/69/69 67/67/67
f 73/73/73 72/72/72 71/71/71
f 74/74/74 73/73/73 71/71/71
f 77/77/77 76/76/76 75/75/75
f 78/78/78 77/77/77 75/75/75
f 81/81/81 80/80/80 79/79/79
f 80/80/80 82/82/82 79/79/79
f 83/83/83 79/79/79 82/82/82
f 83/83/83 82/82/82 84/84/84
f 84/84/84 85/85/85 83/83/83
f 84/84/84 82/82/82 86/86/86
f 87/87/87 84/84/84 86/86/86
f 88/88/88 86/86/86 82/82/82
f 88/88/88 82/82/82 89/89/89
f 89/89/89 90/90/90 88/88/88
f 89/89/89 82/82/82 91/91/91
f 92/92/92 89/89/89 91/91/91
f 95/95/95 94/94/94 93/93/93
f 96/96/96 95/95/95 93/93/93
f 99/99/99 98/98/98 97/97/97
f 100/100/100 99/99/99 97/97/97
f 103/103/103 102/102/102 101/101/101
f 104/104/104 103/103/103 101/101/101
f 107/107/107 106/106/106 105/105/105
f 106/106/106 108/108/108 105/105/105
f 106/106/106 109/109/109 108/108/108
f 109/109/109 106/106/106 110/110/110
f 111/111/111 109/109/109 110/110/110
