g Color_10
v 4.963624 4.963624 1.815197
v 1.78589 6.605978 1.839987
v 1.844411 6.883444 1.573291
v -4.963627 4.963624 1.815197
v -6.513915 1.745398 1.839989
v -6.883444 1.844413 1.573293
v -5.039032 -5.039027 1.573296
v -4.768517 -4.768513 1.839993
v -1.816814 -6.780433 1.815203
v 1.816811 -6.780434 1.815203
v 4.768514 -4.768516 1.839993
v 5.039029 -5.03903 1.573296
v 6.780437 1.816813 1.815199
v 6.883445 -1.844415 1.573295
v 6.513916 -1.7454 1.839991
v -1.844415 6.883441 1.573291
v 1.844411 6.883444 1.573291
v 1.78589 6.605978 1.839987
v 2.99054 6.481529 -0.03558532
v 1.904699 7.108442 0.2227364
v 0.7851279 7.108441 0.002698292
v -5.412074 -4.68054 5.272185E-06
v -5.134594 -5.13459 0.2227385
v -3.978075 -5.806313 -0.03640033
v 3.497207 -6.189005 0.01007835
v 5.203739 -5.20374 0.2227385
v 5.469933 -4.74268 5.283214E-06
v 2.99054 6.481529 -0.03558532
v 0.7851279 7.108441 0.002698292
v 1.904699 7.108441 -0.22273
v -5.412074 -4.68054 5.272185E-06
v -3.978075 -5.806313 -0.03640033
v -5.134595 -5.134591 -0.2227279
v 3.497207 -6.189005 0.01007835
v 5.469933 -4.74268 5.283214E-06
v 5.203739 -5.203741 -0.2227278
v 1.816811 6.780435 -1.815203
v -1.816815 6.780432 -1.815203
v -1.396859 5.213141 -2.008966
v 1.396857 5.21314 -2.008966
v 4.963624 4.963622 -1.815202
v 3.816287 3.816285 -2.008966
v 6.780437 1.816811 -1.8152
v 5.213145 1.396856 -2.008965
v 6.780439 -1.816816 -1.815199
v 5.213146 -1.396861 -2.008963
v 4.963623 -4.963626 -1.815197
v 3.816286 -3.816288 -2.008962
v 1.816811 -6.780436 -1.815196
v 1.396857 -5.213144 -2.008961
v -1.816815 6.780432 -1.815203
v -3.816288 3.816283 -2.008966
v -1.396859 5.213141 -2.008966
v -4.963627 4.963622 -1.815202
v -5.213144 1.396854 -2.008965
v -6.780438 1.816811 -1.8152
v -5.213143 -1.396858 -2.008963
v -6.780437 -1.816814 -1.815199
v -3.816286 -3.816287 -2.008962
v -4.963625 -4.963624 -1.815197
v -1.396859 -5.213144 -2.008961
v -1.816814 -6.780435 -1.815196
v 1.396857 -5.213144 -2.008961
v 1.816811 -6.780436 -1.815196
v 1.904699 7.108439 -1.044891
v 2.99054 6.481529 -0.03558532
v 1.904699 7.108441 -0.22273
v 5.203739 5.203738 -1.044891
v 4.963624 4.963622 -1.815202
v 1.816811 6.780435 -1.815203
v 5.203739 5.203739 1.044894
v 1.904699 7.108442 0.2227364
v 1.904699 7.108441 1.044893
v 4.963624 4.963624 1.815197
v 1.844411 6.883444 1.573291
v -5.134594 -5.134592 -1.044886
v -5.412074 -4.68054 5.272185E-06
v -5.134595 -5.134591 -0.2227279
v -7.108441 -1.904702 -1.044887
v -6.780437 -1.816814 -1.815199
v -4.963625 -4.963624 -1.815197
v -7.108441 -1.904701 1.044897
v -5.134594 -5.13459 0.2227385
v -5.134594 -5.134589 1.044899
v -5.039032 -5.039027 1.573296
v -6.883443 -1.844412 1.573295
v 5.203739 -5.203741 -1.044886
v 3.497207 -6.189005 0.01007835
v 5.203739 -5.203741 -0.2227278
v 1.904699 -7.108439 -1.044885
v 1.816811 -6.780436 -1.815196
v 4.963623 -4.963626 -1.815197
v 1.904699 -7.108438 1.044899
v 5.203739 -5.20374 0.2227385
v 5.203739 -5.20374 1.044899
v 1.816811 -6.780434 1.815203
v 5.039029 -5.03903 1.573296
v 1.78589 6.605978 1.839987
v -1.258642 4.697308 2.008962
v -1.844415 6.883441 1.573291
v 1.258639 4.697309 2.008962
v 4.963624 4.963624 1.815197
v 3.438667 3.438668 2.008962
v 6.780437 1.816813 1.815199
v 4.697308 1.25864 2.008963
v 4.697308 -1.258641 2.008965
v 6.513916 -1.7454 1.839991
v 4.768514 -4.768516 1.839993
v 3.438667 -3.438668 2.008965
v 1.816811 -6.780434 1.815203
v 1.258638 -4.697306 2.008966
v -1.844415 6.883441 1.573291
v -1.258642 4.697308 2.008962
v -3.43867 3.438668 2.008962
v -4.963627 4.963624 1.815197
v -4.697309 1.25864 2.008963
v -6.513915 1.745398 1.839989
v -4.697309 -1.258639 2.008965
v -6.513914 -1.745397 1.839991
v -3.438668 -3.438666 2.008965
v -4.768517 -4.768513 1.839993
v -1.816814 -6.780433 1.815203
v -1.258641 -4.697305 2.008966
v 1.258638 -4.697306 2.008966
v 1.816811 -6.780434 1.815203
v 4.963624 4.963624 1.815197
v 7.108441 1.904701 1.044895
v 6.780437 1.816813 1.815199
v 5.203739 5.203739 1.044894
v 7.108441 1.9047 -1.044889
v 5.203739 5.203738 -1.044891
v 6.780437 1.816811 -1.8152
v 4.963624 4.963622 -1.815202
v -1.844415 6.883441 1.573291
v 1.904699 7.108441 1.044893
v 1.844411 6.883444 1.573291
v -1.904703 7.108438 1.044893
v 0.7851279 7.108441 0.002698292
v 1.904699 7.108442 0.2227364
v -1.904703 7.108437 -1.044891
v 1.904699 7.108441 -0.22273
v 1.904699 7.108439 -1.044891
v 1.816811 6.780435 -1.815203
v -1.816815 6.780432 -1.815203
v -4.963627 4.963624 1.815197
v -1.904703 7.108438 1.044893
v -1.844415 6.883441 1.573291
v -5.203743 5.20374 1.044894
v -1.904703 7.108437 -1.044891
v -5.203742 5.203738 -1.044891
v -1.816815 6.780432 -1.815203
v -4.963627 4.963622 -1.815202
v -7.108442 1.904701 1.044895
v -4.963627 4.963624 1.815197
v -6.883444 1.844413 1.573293
v -5.203743 5.20374 1.044894
v -5.203742 5.203738 -1.044891
v -7.108442 1.9047 -1.044889
v -4.963627 4.963622 -1.815202
v -6.780438 1.816811 -1.8152
v -6.883443 -1.844412 1.573295
v -7.108442 1.904701 1.044895
v -6.883444 1.844413 1.573293
v -7.108441 -1.904701 1.044897
v -7.108442 1.9047 -1.044889
v -7.108441 -1.904702 -1.044887
v -6.780438 1.816811 -1.8152
v -6.780437 -1.816814 -1.815199
v -1.816814 -6.780433 1.815203
v -5.134594 -5.134589 1.044899
v -5.039032 -5.039027 1.573296
v -1.904703 -7.108438 1.044899
v -3.978075 -5.806313 -0.03640033
v -5.134594 -5.13459 0.2227385
v -1.904703 -7.108439 -1.044885
v -5.134595 -5.134591 -0.2227279
v -5.134594 -5.134592 -1.044886
v -4.963625 -4.963624 -1.815197
v -1.816814 -6.780435 -1.815196
v 1.816811 -6.780434 1.815203
v -1.904703 -7.108438 1.044899
v -1.816814 -6.780433 1.815203
v 1.904699 -7.108438 1.044899
v -1.904703 -7.108439 -1.044885
v 1.904699 -7.108439 -1.044885
v -1.816814 -6.780435 -1.815196
v 1.816811 -6.780436 -1.815196
v 6.883445 -1.844415 1.573295
v 5.203739 -5.20374 1.044899
v 5.039029 -5.03903 1.573296
v 7.108442 -1.904703 1.044897
v 5.469933 -4.74268 5.283214E-06
v 5.203739 -5.20374 0.2227385
v 7.108442 -1.904704 -1.044887
v 5.203739 -5.203741 -0.2227278
v 5.203739 -5.203741 -1.044886
v 4.963623 -4.963626 -1.815197
v 6.780439 -1.816816 -1.815199
v 6.780437 1.816813 1.815199
v 7.108442 -1.904703 1.044897
v 6.883445 -1.844415 1.573295
v 7.108441 1.904701 1.044895
v 7.108442 -1.904704 -1.044887
v 7.108441 1.9047 -1.044889
v 6.780439 -1.816816 -1.815199
v 6.780437 1.816811 -1.8152
v -6.883443 -1.844412 1.573295
v -6.883444 1.844413 1.573293
v -6.513915 1.745398 1.839989
v -6.513914 -1.745397 1.839991
v -5.039032 -5.039027 1.573296
v -6.883443 -1.844412 1.573295
v -6.513914 -1.745397 1.839991
v -4.768517 -4.768513 1.839993
v 6.883445 -1.844415 1.573295
v 5.039029 -5.03903 1.573296
v 4.768514 -4.768516 1.839993
v 6.513916 -1.7454 1.839991
vt 0.1439599 0.01226416
vt 0.144117 0.01246446
vt 0.1441823 0.01212251
vt 0.1439411 0.0123177
vt 0.1441488 0.01252523
vt 0.1442011 0.01206173
vt 0.1426136 0.01212251
vt 0.1426788 0.01246445
vt 0.1455286 0.01226415
vt 0.1439633 0.01226785
vt 0.1441168 0.01246076
vt 0.1441789 0.01212621
vt 0.14441 0.01278457
vt 0.1446016 0.01204635
vt 0.1439904 0.0124398
vt 0.1442885 0.01260992
vt 0.1438537 0.01197705
vt 0.1438861 0.01260992
vt 0.145761 0.03440822
vt 0.1432873 0.03296137
vt 0.1408135 0.03465597
vt 0.1457795 0.03440826
vt 0.1432873 0.03296137
vt 0.140795 0.03465594
vt 0.145761 0.03440822
vt 0.1432873 0.03296137
vt 0.1408135 0.03465597
vt 0.146107 0.01085243
vt 0.1415698 0.01107964
vt 0.1438385 0.0124065
vt 0.146124 0.01085246
vt 0.1415529 0.01107961
vt 0.1438385 0.0124065
vt 0.146107 0.01085243
vt 0.1415698 0.01107964
vt 0.1438385 0.0124065
vt 0.1446914 0.03781708
vt 0.145125 0.03781708
vt 0.145125 0.03410995
vt 0.1446914 0.03410995
vt 0.1442435 0.03781708
vt 0.1442435 0.03410995
vt 0.1437913 0.03781708
vt 0.1437913 0.03410995
vt 0.143339 0.03781708
vt 0.143339 0.03410995
vt 0.1428904 0.03781708
vt 0.1428904 0.03410995
vt 0.1424562 0.03781708
vt 0.1424562 0.03410995
vt 0.1424562 0.03781708
vt 0.1428904 0.03410995
vt 0.1424562 0.03410995
vt 0.1428904 0.03781708
vt 0.143339 0.03410995
vt 0.143339 0.03781708
vt 0.1437913 0.03410995
vt 0.1437913 0.03781708
vt 0.1442435 0.03410995
vt 0.1442435 0.03781708
vt 0.1446914 0.03410995
vt 0.1446914 0.03781708
vt 0.145125 0.03410995
vt 0.145125 0.03781708
vt 0.09758259 0.009614276
vt 0.0971752 0.01019746
vt 0.09758259 0.009904912
vt 0.0946676 0.009614276
vt 0.0946676 0.009082617
vt 0.09758259 0.009082617
vt 0.0946676 0.01078064
vt 0.09758259 0.01049001
vt 0.09758259 0.01078064
vt 0.09736024 0.01123168
vt 0.09758259 0.01109003
vt 0.1227462 0.03374732
vt 0.1222632 0.03480125
vt 0.1227462 0.03427256
vt 0.1193104 0.03374732
vt 0.1193104 0.03278651
vt 0.1227462 0.03278651
vt 0.1193104 0.03585517
vt 0.1227462 0.03532994
vt 0.1227462 0.03585517
vt 0.1227462 0.0364143
vt 0.1193104 0.0364143
vt 0.09753813 0.009614276
vt 0.09714316 0.01019746
vt 0.09753813 0.009904912
vt 0.09471206 0.009614276
vt 0.09471206 0.009082617
vt 0.09753813 0.009082617
vt 0.09471206 0.01078064
vt 0.09753813 0.01049001
vt 0.09753813 0.01078064
vt 0.09732257 0.01123168
vt 0.09753813 0.01109003
vt 0.09717084 0.01616708
vt 0.09757321 0.01381715
vt 0.09757321 0.01616708
vt 0.09717084 0.01381715
vt 0.09713914 0.01651185
vt 0.09675525 0.01381715
vt 0.09633563 0.01651185
vt 0.09633563 0.01381715
vt 0.09591602 0.01381715
vt 0.09591602 0.01616708
vt 0.0954998 0.01616708
vt 0.0954998 0.01381715
vt 0.09546907 0.01651185
vt 0.09509684 0.01381715
vt 0.09509684 0.01616708
vt 0.09509684 0.01381715
vt 0.0954998 0.01381715
vt 0.09588428 0.01651185
vt 0.09591602 0.01381715
vt 0.09591602 0.01616708
vt 0.09633563 0.01381715
vt 0.09633563 0.01616708
vt 0.09675525 0.01381715
vt 0.09675525 0.01616708
vt 0.09717084 0.01651185
vt 0.09717084 0.01381715
vt 0.09757321 0.01381715
vt 0.09757321 0.01651185
vt 0.1227462 0.03667027
vt 0.1193104 0.03585517
vt 0.1193104 0.03667027
vt 0.1227462 0.03585517
vt 0.1193104 0.03374732
vt 0.1227462 0.03374732
vt 0.1193104 0.03278651
vt 0.1227462 0.03278651
vt 0.1226756 0.0364143
vt 0.119381 0.03585517
vt 0.119381 0.0364143
vt 0.1226756 0.03585517
vt 0.1198414 0.03480124
vt 0.119381 0.03532994
vt 0.1226756 0.03374732
vt 0.119381 0.03427255
vt 0.119381 0.03374732
vt 0.119381 0.03278651
vt 0.1226756 0.03278651
vt 0.09753813 0.01123167
vt 0.09471206 0.01078065
vt 0.09477417 0.01142459
vt 0.09753813 0.01078065
vt 0.09471206 0.009614279
vt 0.09753813 0.009614279
vt 0.09471206 0.009082617
vt 0.09753813 0.009082617
vt 0.1227325 0.03585517
vt 0.1224725 0.03667027
vt 0.1227325 0.0364143
vt 0.1193241 0.03585517
vt 0.1193241 0.03374732
vt 0.1227325 0.03374732
vt 0.1193241 0.03278651
vt 0.1227325 0.03278651
vt 0.09759657 0.01109003
vt 0.09465362 0.01078065
vt 0.09465362 0.01109003
vt 0.09759657 0.01078065
vt 0.09465362 0.009614279
vt 0.09759657 0.009614279
vt 0.09465362 0.009082617
vt 0.09759657 0.009082617
vt 0.09758259 0.01123167
vt 0.0946676 0.01078065
vt 0.0946676 0.01109003
vt 0.09758259 0.01078065
vt 0.09507738 0.01019746
vt 0.0946676 0.01049001
vt 0.09758259 0.009614279
vt 0.0946676 0.009904915
vt 0.0946676 0.009614279
vt 0.0946676 0.009082617
vt 0.09758259 0.009082617
vt 0.1226756 0.03667027
vt 0.119381 0.03585517
vt 0.119381 0.03667027
vt 0.1226756 0.03585517
vt 0.119381 0.03374732
vt 0.1226756 0.03374732
vt 0.119381 0.03278651
vt 0.1226756 0.03278651
vt 0.1227325 0.0364143
vt 0.1193241 0.03585517
vt 0.1193241 0.0364143
vt 0.1227325 0.03585517
vt 0.1198004 0.03480124
vt 0.1193241 0.03532994
vt 0.1227325 0.03374732
vt 0.1193241 0.03427255
vt 0.1193241 0.03374732
vt 0.1193241 0.03278651
vt 0.1227325 0.03278651
vt 0.09759657 0.01123168
vt 0.09465362 0.01078064
vt 0.09465362 0.01109003
vt 0.09759657 0.01078064
vt 0.09465362 0.009614276
vt 0.09759657 0.009614276
vt 0.09465362 0.009082617
vt 0.09759657 0.009082617
vt 0.1441049 0.01197422
vt 0.1436177 0.01197423
vt 0.1436515 0.01261274
vt 0.1440711 0.01261274
vt 0.1445245 0.01197424
vt 0.1440373 0.01197424
vt 0.1440711 0.01261274
vt 0.1444907 0.01261274
vt 0.1440239 0.0118024
vt 0.1435406 0.0118024
vt 0.1435741 0.0124398
vt 0.1439904 0.0124398
vn 0.4479217 0.448132 0.7736562
vn 0.1016709 0.4365633 0.8939103
vn 0.2078825 0.8027591 0.5588942
vn -0.441539 0.4540367 0.7738824
vn -0.3638865 0.08472925 0.9275815
vn -0.7673836 0.1981091 0.6098157
vn -0.5813934 -0.5711564 0.5794498
vn -0.2727706 -0.2553204 0.9275817
vn -0.1729321 -0.6229376 0.7629175
vn 0.1648366 -0.6117073 0.7737203
vn 0.2727703 -0.2553206 0.9275815
vn 0.5655189 -0.5552595 0.6098157
vn 0.6121728 0.1631015 0.7737198
vn 0.7636284 -0.2121243 0.6098155
vn 0.3574998 -0.1085656 0.9275815
vn -0.1724991 0.6450151 0.7444458
vn 0.2078825 0.8027591 0.5588942
vn 0.1016709 0.4365633 0.8939103
vn 0.1551423 0.59398 -0.7893786
vn 0.1551423 0.5939801 -0.7893786
vn 0.1551423 0.5939801 -0.7893786
vn -0.8288582 -0.5594586 -0.0002951757
vn -0.661975 -0.699981 -0.2679846
vn -0.5246323 -0.8513284 0.000958058
vn 0.503379 -0.8640657 -1.818546E-05
vn 0.6473238 -0.6978188 -0.3066281
vn 0.8385583 -0.5448119 7.200818E-05
vn 0.1666689 0.5357764 0.827747
vn 0.1666689 0.5357764 0.827747
vn 0.1666689 0.5357764 0.827747
vn -0.8288582 -0.5594586 -0.0002951757
vn -0.5246323 -0.8513284 0.000958058
vn -0.6514794 -0.701045 0.290018
vn 0.503379 -0.8640657 -1.818546E-05
vn 0.8385583 -0.5448119 7.200818E-05
vn 0.6496799 -0.697603 0.3021028
vn 0.03068938 0.1145341 -0.9929451
vn -0.03068946 0.1145341 -0.9929451
vn -0.03068943 0.1145341 -0.9929451
vn 0.03068941 0.1145341 -0.9929451
vn 0.08384516 0.08384473 -0.9929451
vn 0.08384515 0.08384473 -0.9929451
vn 0.1145347 0.03068904 -0.9929451
vn 0.1145347 0.03068904 -0.9929451
vn 0.1145346 -0.03068998 -0.9929451
vn 0.1145346 -0.03068998 -0.9929451
vn 0.08384512 -0.08384572 -0.992945
vn 0.08384511 -0.08384574 -0.992945
vn 0.03068945 -0.1145352 -0.992945
vn 0.03068944 -0.1145352 -0.992945
vn -0.03068946 0.1145341 -0.9929451
vn -0.08384509 0.08384463 -0.9929451
vn -0.03068943 0.1145341 -0.9929451
vn -0.0838451 0.08384463 -0.9929451
vn -0.1145345 0.03068889 -0.9929451
vn -0.1145345 0.03068895 -0.9929451
vn -0.1145345 -0.03068992 -0.9929451
vn -0.1145345 -0.03068992 -0.9929451
vn -0.08384512 -0.08384563 -0.992945
vn -0.08384514 -0.08384559 -0.992945
vn -0.03068949 -0.1145352 -0.992945
vn -0.0306895 -0.1145352 -0.992945
vn 0.03068944 -0.1145352 -0.992945
vn 0.03068945 -0.1145352 -0.992945
vn 0.253612 0.946494 -0.1995744
vn 0.5000002 0.8660253 0
vn 0.2550679 0.9669232 0
vn 0.6928817 0.6928819 -0.1995737
vn 0.647028 0.6470278 -0.4033732
vn 0.2368283 0.8838564 -0.4033736
vn 0.6928815 0.6928818 0.1995746
vn 0.2594858 0.9657469 0
vn 0.253612 0.946494 0.1995747
vn 0.4479217 0.448132 0.7736562
vn 0.2078825 0.8027591 0.5588942
vn -0.6960453 -0.6978604 -0.168855
vn -0.8288582 -0.5594586 -0.0002951757
vn -0.6514794 -0.701045 0.290018
vn -0.9461987 -0.2642693 -0.1867344
vn -0.8916774 -0.247791 -0.3788285
vn -0.6618981 -0.6618986 -0.3518255
vn -0.9471658 -0.2650854 0.180573
vn -0.661975 -0.699981 -0.2679846
vn -0.6968396 -0.6988916 0.1611375
vn -0.5813934 -0.5711564 0.5794498
vn -0.7731792 -0.2129043 0.5973825
vn 0.6928813 -0.6928824 -0.1995732
vn 0.503379 -0.8640657 -1.818546E-05
vn 0.6496799 -0.697603 0.3021028
vn 0.2536121 -0.9464943 -0.199573
vn 0.2368283 -0.8838568 -0.4033725
vn 0.6470273 -0.6470288 -0.4033726
vn 0.253612 -0.9464938 0.1995757
vn 0.6473238 -0.6978188 -0.3066281
vn 0.692881 -0.692882 0.1995756
vn 0.1648366 -0.6117073 0.7737203
vn 0.5655189 -0.5552595 0.6098157
vn 0.1016709 0.4365633 0.8939103
vn -0.03883487 0.1448252 0.9886948
vn -0.1724991 0.6450151 0.7444458
vn 0.004930441 0.1117444 0.9937248
vn 0.4479217 0.448132 0.7736562
vn 0.06338093 0.06187414 0.9960694
vn 0.6121728 0.1631015 0.7737198
vn 0.08643693 0.02316123 0.9959881
vn 0.08643695 -0.02316027 0.9959881
vn 0.3574998 -0.1085656 0.9275815
vn 0.2727703 -0.2553206 0.9275815
vn 0.06327622 -0.06327588 0.9959881
vn 0.1648366 -0.6117073 0.7737203
vn 0.02316067 -0.08643653 0.9959881
vn -0.1724991 0.6450151 0.7444458
vn -0.03883487 0.1448252 0.9886948
vn -0.06086046 0.09537535 0.9935791
vn -0.441539 0.4540367 0.7738824
vn -0.086437 0.02316118 0.9959881
vn -0.3638865 0.08472925 0.9275815
vn -0.08643703 -0.02316027 0.9959881
vn -0.3658454 -0.09802765 0.9254985
vn -0.06327628 -0.06327585 0.9959881
vn -0.2727706 -0.2553204 0.9275817
vn -0.1729321 -0.6229376 0.7629175
vn -0.02316072 -0.08643652 0.9959881
vn 0.02316067 -0.08643653 0.9959881
vn 0.1648366 -0.6117073 0.7737203
vn 0.4479217 0.448132 0.7736562
vn 0.9464937 0.2536126 0.1995749
vn 0.6121728 0.1631015 0.7737198
vn 0.6928815 0.6928818 0.1995746
vn 0.9464941 0.2536126 -0.1995734
vn 0.6928817 0.6928819 -0.1995737
vn 0.8838566 0.2368288 -0.4033729
vn 0.647028 0.6470278 -0.4033732
vn -0.1724991 0.6450151 0.7444458
vn 0.253612 0.946494 0.1995747
vn 0.2078825 0.8027591 0.5588942
vn -0.2536125 0.9464939 0.1995746
vn 0 1 0
vn 0.2594858 0.9657469 0
vn -0.2536125 0.9464939 -0.1995743
vn 0.2550679 0.9669232 0
vn 0.253612 0.946494 -0.1995744
vn 0.2368283 0.8838564 -0.4033736
vn -0.2368287 0.8838562 -0.4033739
vn -0.441539 0.4540367 0.7738824
vn -0.2536125 0.9464939 0.1995746
vn -0.1724991 0.6450151 0.7444458
vn -0.6928815 0.6928818 0.1995749
vn -0.2536125 0.9464939 -0.1995743
vn -0.6928816 0.6928818 -0.1995741
vn -0.2368287 0.8838562 -0.4033739
vn -0.6470277 0.6470276 -0.4033737
vn -0.9464939 0.2536121 0.1995751
vn -0.441539 0.4540367 0.7738824
vn -0.7673836 0.1981091 0.6098157
vn -0.6928815 0.6928818 0.1995749
vn -0.6928816 0.6928818 -0.1995741
vn -0.9464942 0.2536121 -0.1995737
vn -0.6470277 0.6470276 -0.4033737
vn -0.8838566 0.2368283 -0.4033732
vn -0.7731792 -0.2129043 0.5973825
vn -0.9464939 0.2536121 0.1995751
vn -0.7673836 0.1981091 0.6098157
vn -0.9471658 -0.2650854 0.180573
vn -0.9464942 0.2536121 -0.1995737
vn -0.9461987 -0.2642693 -0.1867344
vn -0.8838566 0.2368283 -0.4033732
vn -0.8916774 -0.247791 -0.3788285
vn -0.1729321 -0.6229376 0.7629175
vn -0.6968396 -0.6988916 0.1611375
vn -0.5813934 -0.5711564 0.5794498
vn -0.2661093 -0.9464588 0.1827614
vn -0.5246323 -0.8513284 0.000958058
vn -0.661975 -0.699981 -0.2679846
vn -0.2663507 -0.9458912 -0.1853298
vn -0.6514794 -0.701045 0.290018
vn -0.6960453 -0.6978604 -0.168855
vn -0.6618981 -0.6618986 -0.3518255
vn -0.2477907 -0.8916776 -0.3788283
vn 0.1648366 -0.6117073 0.7737203
vn -0.2661093 -0.9464588 0.1827614
vn -0.1729321 -0.6229376 0.7629175
vn 0.253612 -0.9464938 0.1995757
vn -0.2663507 -0.9458912 -0.1853298
vn 0.2536121 -0.9464943 -0.199573
vn -0.2477907 -0.8916776 -0.3788283
vn 0.2368283 -0.8838568 -0.4033725
vn 0.7636284 -0.2121243 0.6098155
vn 0.692881 -0.692882 0.1995756
vn 0.5655189 -0.5552595 0.6098157
vn 0.9464937 -0.2536124 0.1995753
vn 0.8385583 -0.5448119 7.200818E-05
vn 0.6473238 -0.6978188 -0.3066281
vn 0.9464941 -0.2536127 -0.1995733
vn 0.6496799 -0.697603 0.3021028
vn 0.6928813 -0.6928824 -0.1995732
vn 0.6470273 -0.6470288 -0.4033726
vn 0.8838565 -0.2368291 -0.4033729
vn 0.6121728 0.1631015 0.7737198
vn 0.9464937 -0.2536124 0.1995753
vn 0.7636284 -0.2121243 0.6098155
vn 0.9464937 0.2536126 0.1995749
vn 0.9464941 -0.2536127 -0.1995733
vn 0.9464941 0.2536126 -0.1995734
vn 0.8838565 -0.2368291 -0.4033729
vn 0.8838566 0.2368288 -0.4033729
vn -0.7731792 -0.2129043 0.5973825
vn -0.7673836 0.1981091 0.6098157
vn -0.3638865 0.08472925 0.9275815
vn -0.3658454 -0.09802765 0.9254985
vn -0.5813934 -0.5711564 0.5794498
vn -0.7731792 -0.2129043 0.5973825
vn -0.3658454 -0.09802765 0.9254985
vn -0.2727706 -0.2553204 0.9275817
vn 0.7636284 -0.2121243 0.6098155
vn 0.5655189 -0.5552595 0.6098157
vn 0.2727703 -0.2553206 0.9275815
vn 0.3574998 -0.1085656 0.9275815
g Color_10_0
f 3/3/3 2/2/2 1/1/1
f 6/6/6 5/5/5 4/4/4
f 9/9/9 8/8/8 7/7/7
f 12/12/12 11/11/11 10/10/10
f 15/15/15 14/14/14 13/13/13
f 18/18/18 17/17/17 16/16/16
f 21/21/21 20/20/20 19/19/19
f 24/24/24 23/23/23 22/22/22
f 27/27/27 26/26/26 25/25/25
f 30/30/30 29/29/29 28/28/28
f 33/33/33 32/32/32 31/31/31
f 36/36/36 35/35/35 34/34/34
f 39/39/39 38/38/38 37/37/37
f 40/40/40 39/39/39 37/37/37
f 40/40/40 37/37/37 41/41/41
f 42/42/42 40/40/40 41/41/41
f 42/42/42 41/41/41 43/43/43
f 44/44/44 42/42/42 43/43/43
f 44/44/44 43/43/43 45/45/45
f 46/46/46 44/44/44 45/45/45
f 46/46/46 45/45/45 47/47/47
f 48/48/48 46/46/46 47/47/47
f 48/48/48 47/47/47 49/49/49
f 50/50/50 48/48/48 49/49/49
f 53/53/53 52/52/52 51/51/51
f 52/52/52 54/54/54 51/51/51
f 52/52/52 55/55/55 54/54/54
f 55/55/55 56/56/56 54/54/54
f 55/55/55 57/57/57 56/56/56
f 57/57/57 58/58/58 56/56/56
f 57/57/57 59/59/59 58/58/58
f 59/59/59 60/60/60 58/58/58
f 59/59/59 61/61/61 60/60/60
f 61/61/61 62/62/62 60/60/60
f 61/61/61 63/63/63 62/62/62
f 63/63/63 64/64/64 62/62/62
f 67/67/67 66/66/66 65/65/65
f 66/66/66 68/68/68 65/65/65
f 65/65/65 68/68/68 69/69/69
f 70/70/70 65/65/65 69/69/69
f 71/71/71 68/68/68 66/66/66
f 71/71/71 66/66/66 72/72/72
f 73/73/73 71/71/71 72/72/72
f 74/74/74 71/71/71 73/73/73
f 75/75/75 74/74/74 73/73/73
f 78/78/78 77/77/77 76/76/76
f 77/77/77 79/79/79 76/76/76
f 76/76/76 79/79/79 80/80/80
f 81/81/81 76/76/76 80/80/80
f 82/82/82 79/79/79 77/77/77
f 82/82/82 77/77/77 83/83/83
f 84/84/84 82/82/82 83/83/83
f 82/82/82 84/84/84 85/85/85
f 86/86/86 82/82/82 85/85/85
f 89/89/89 88/88/88 87/87/87
f 88/88/88 90/90/90 87/87/87
f 87/87/87 90/90/90 91/91/91
f 92/92/92 87/87/87 91/91/91
f 93/93/93 90/90/90 88/88/88
f 93/93/93 88/88/88 94/94/94
f 95/95/95 93/93/93 94/94/94
f 96/96/96 93/93/93 95/95/95
f 97/97/97 96/96/96 95/95/95
f 100/100/100 99/99/99 98/98/98
f 99/99/99 101/101/101 98/98/98
f 98/98/98 101/101/101 102/102/102
f 101/101/101 103/103/103 102/102/102
f 102/102/102 103/103/103 104/104/104
f 103/103/103 105/105/105 104/104/104
f 105/105/105 106/106/106 104/104/104
f 106/106/106 107/107/107 104/104/104
f 107/107/107 106/106/106 108/108/108
f 106/106/106 109/109/109 108/108/108
f 108/108/108 109/109/109 110/110/110
f 109/109/109 111/111/111 110/110/110
f 114/114/114 113/113/113 112/112/112
f 115/115/115 114/114/114 112/112/112
f 116/116/116 114/114/114 115/115/115
f 117/117/117 116/116/116 115/115/115
f 118/118/118 116/116/116 117/117/117
f 119/119/119 118/118/118 117/117/117
f 120/120/120 118/118/118 119/119/119
f 121/121/121 120/120/120 119/119/119
f 120/120/120 121/121/121 122/122/122
f 123/123/123 120/120/120 122/122/122
f 124/124/124 123/123/123 122/122/122
f 125/125/125 124/124/124 122/122/122
f 128/128/128 127/127/127 126/126/126
f 127/127/127 129/129/129 126/126/126
f 127/127/127 130/130/130 129/129/129
f 130/130/130 131/131/131 129/129/129
f 131/131/131 130/130/130 132/132/132
f 133/133/133 131/131/131 132/132/132
f 136/136/136 135/135/135 134/134/134
f 135/135/135 137/137/137 134/134/134
f 138/138/138 137/137/137 135/135/135
f 139/139/139 138/138/138 135/135/135
f 137/137/137 138/138/138 140/140/140
f 138/138/138 141/141/141 140/140/140
f 141/141/141 142/142/142 140/140/140
f 140/140/140 142/142/142 143/143/143
f 144/144/144 140/140/140 143/143/143
f 147/147/147 146/146/146 145/145/145
f 146/146/146 148/148/148 145/145/145
f 146/146/146 149/149/149 148/148/148
f 149/149/149 150/150/150 148/148/148
f 150/150/150 149/149/149 151/151/151
f 152/152/152 150/150/150 151/151/151
f 155/155/155 154/154/154 153/153/153
f 154/154/154 156/156/156 153/153/153
f 156/156/156 157/157/157 153/153/153
f 157/157/157 158/158/158 153/153/153
f 158/158/158 157/157/157 159/159/159
f 160/160/160 158/158/158 159/159/159
f 163/163/163 162/162/162 161/161/161
f 162/162/162 164/164/164 161/161/161
f 162/162/162 165/165/165 164/164/164
f 165/165/165 166/166/166 164/164/164
f 166/166/166 165/165/165 167/167/167
f 168/168/168 166/166/166 167/167/167
f 171/171/171 170/170/170 169/169/169
f 170/170/170 172/172/172 169/169/169
f 173/173/173 172/172/172 170/170/170
f 174/174/174 173/173/173 170/170/170
f 172/172/172 173/173/173 175/175/175
f 173/173/173 176/176/176 175/175/175
f 176/176/176 177/177/177 175/175/175
f 175/175/175 177/177/177 178/178/178
f 179/179/179 175/175/175 178/178/178
f 182/182/182 181/181/181 180/180/180
f 181/181/181 183/183/183 180/180/180
f 181/181/181 184/184/184 183/183/183
f 184/184/184 185/185/185 183/183/183
f 185/185/185 184/184/184 186/186/186
f 187/187/187 185/185/185 186/186/186
f 190/190/190 189/189/189 188/188/188
f 189/189/189 191/191/191 188/188/188
f 192/192/192 191/191/191 189/189/189
f 193/193/193 192/192/192 189/189/189
f 191/191/191 192/192/192 194/194/194
f 192/192/192 195/195/195 194/194/194
f 195/195/195 196/196/196 194/194/194
f 194/194/194 196/196/196 197/197/197
f 198/198/198 194/194/194 197/197/197
f 201/201/201 200/200/200 199/199/199
f 200/200/200 202/202/202 199/199/199
f 200/200/200 203/203/203 202/202/202
f 203/203/203 204/204/204 202/202/202
f 204/204/204 203/203/203 205/205/205
f 206/206/206 204/204/204 205/205/205
f 209/209/209 208/208/208 207/207/207
f 210/210/210 209/209/209 207/207/207
f 213/213/213 212/212/212 211/211/211
f 214/214/214 213/213/213 211/211/211
f 217/217/217 216/216/216 215/215/215
f 218/218/218 217/217/217 215/215/215
