g Color_Boss_44
v 3.591587 0.2187718 -0.06909901
v 3.197855 0.6252335 0.5653051
v 3.685124 0.411929 0.5005945
v 3.099465 0.4220532 -0.03394848
v 3.071207 0.3637008 -0.7465706
v 3.564724 0.1632967 -0.7465706
v 3.656576 1.572519 -0.03394747
v 3.684834 1.630872 -0.7465705
v 4.148084 1.367964 -0.7465705
v 4.121218 1.31249 -0.06909895
v 4.027682 1.119331 0.5005945
v 3.558186 1.36934 0.5653052
v 3.900931 0.8575828 0.6697143
v 3.422549 1.089238 0.7465719
v 3.811875 0.6736773 0.6697143
v 3.333493 0.9053323 0.7465729
v 3.422549 1.089238 0.7465719
v 3.900931 0.8575828 0.6697143
v 3.685124 0.411929 0.5005945
v 3.197855 0.6252335 0.5653051
v 3.333493 0.9053323 0.7465729
v 3.811875 0.6736773 0.6697143
v 4.121218 1.31249 -0.06909895
v 4.148084 1.367964 -0.7465705
v 3.856404 0.7656305 -0.7465705
v 3.856404 0.7656305 -0.06909895
v 4.027682 1.119331 0.5005945
v 3.564724 0.1632967 -0.7465706
v 3.900931 0.8575828 0.6697143
v 3.591587 0.2187718 -0.06909901
v 3.811875 0.6736773 0.6697143
v 3.685124 0.411929 0.5005945
v 3.099465 0.4220532 -0.03394848
v 3.071207 0.3637008 -0.7465706
v 3.378021 0.9972866 -0.7465705
v 3.378021 0.9972866 -0.06909895
v 3.197855 0.6252335 0.5653051
v 3.684834 1.630872 -0.7465705
v 3.333493 0.9053323 0.7465729
v 3.656576 1.572519 -0.03394747
v 3.422549 1.089238 0.7465719
v 3.558186 1.36934 0.5653052
v 1.453554 -1.59951 -0.06909955
v 1.350316 -1.043113 0.5653051
v 1.63831 -1.490313 0.5005944
v 1.155972 -1.157975 -0.03394854
v 1.100157 -1.190962 -0.7465711
v 1.400492 -1.630872 -0.7465711
v 2.256401 -0.5075884 -0.03394848
v 2.312216 -0.4745989 -0.7465711
v 2.552764 -0.9498424 -0.7465711
v 2.499702 -0.981203 -0.06909955
v 2.314946 -1.090401 0.5005945
v 2.062058 -0.6224499 0.5653051
v 2.064582 -1.238375 0.6697143
v 1.79414 -0.780798 0.7465719
v 1.888674 -1.34234 0.6697143
v 1.618233 -0.8847656 0.7465729
v 1.79414 -0.780798 0.7465719
v 2.064582 -1.238375 0.6697143
v 1.63831 -1.490313 0.5005944
v 1.350316 -1.043113 0.5653051
v 1.618233 -0.8847656 0.7465729
v 1.888674 -1.34234 0.6697143
v 2.499702 -0.981203 -0.06909955
v 2.552764 -0.9498424 -0.7465711
v 1.976628 -1.290357 -0.7465711
v 1.976628 -1.290357 -0.06909955
v 2.314946 -1.090401 0.5005945
v 1.400492 -1.630872 -0.7465711
v 2.064582 -1.238375 0.6697143
v 1.453554 -1.59951 -0.06909955
v 1.888674 -1.34234 0.6697143
v 1.63831 -1.490313 0.5005944
v 1.155972 -1.157975 -0.03394854
v 1.100157 -1.190962 -0.7465711
v 1.706187 -0.8327808 -0.7465711
v 1.706187 -0.8327808 -0.06909955
v 1.350316 -1.043113 0.5653051
v 2.312216 -0.4745989 -0.7465711
v 1.618233 -0.8847656 0.7465729
v 2.256401 -0.5075884 -0.03394848
v 1.79414 -0.780798 0.7465719
v 2.062058 -0.6224499 0.5653051
v -3.591587 0.2187718 -0.06909901
v -3.685125 0.411929 0.5005945
v -3.197856 0.6252335 0.5653051
v -3.099466 0.4220532 -0.03394848
v -3.071207 0.3637008 -0.7465706
v -3.564724 0.1632967 -0.7465706
v -3.656577 1.572519 -0.03394747
v -4.148084 1.367964 -0.7465705
v -3.684835 1.630872 -0.7465705
v -4.121218 1.31249 -0.06909895
v -4.027682 1.119331 0.5005945
v -3.558187 1.36934 0.5653052
v -3.900932 0.8575828 0.6697143
v -3.422549 1.089238 0.7465719
v -3.811876 0.6736773 0.6697143
v -3.900932 0.8575828 0.6697143
v -3.422549 1.089238 0.7465719
v -3.333494 0.9053323 0.7465729
v -3.685125 0.411929 0.5005945
v -3.811876 0.6736773 0.6697143
v -3.333494 0.9053323 0.7465729
v -3.197856 0.6252335 0.5653051
v -4.121218 1.31249 -0.06909895
v -3.856404 0.7656305 -0.7465705
v -4.148084 1.367964 -0.7465705
v -3.856404 0.7656305 -0.06909895
v -4.027682 1.119331 0.5005945
v -3.564724 0.1632967 -0.7465706
v -3.900932 0.8575828 0.6697143
v -3.591587 0.2187718 -0.06909901
v -3.811876 0.6736773 0.6697143
v -3.685125 0.411929 0.5005945
v -3.099466 0.4220532 -0.03394848
v -3.378022 0.9972866 -0.7465705
v -3.071207 0.3637008 -0.7465706
v -3.378022 0.9972866 -0.06909895
v -3.197856 0.6252335 0.5653051
v -3.684835 1.630872 -0.7465705
v -3.333494 0.9053323 0.7465729
v -3.656577 1.572519 -0.03394747
v -3.422549 1.089238 0.7465719
v -3.558187 1.36934 0.5653052
v -1.453554 -1.59951 -0.06909955
v -1.638311 -1.490313 0.5005944
v -1.350317 -1.043113 0.5653051
v -1.155973 -1.157975 -0.03394854
v -1.100158 -1.190962 -0.7465711
v -1.400493 -1.630872 -0.7465711
v -2.256401 -0.5075884 -0.03394848
v -2.552765 -0.9498424 -0.7465711
v -2.312216 -0.4745989 -0.7465711
v -2.499703 -0.981203 -0.06909955
v -2.314946 -1.090401 0.5005945
v -2.062059 -0.6224499 0.5653051
v -2.064582 -1.238375 0.6697143
v -1.794141 -0.780798 0.7465719
v -1.888674 -1.34234 0.6697143
v -2.064582 -1.238375 0.6697143
v -1.794141 -0.780798 0.7465719
v -1.618233 -0.8847656 0.7465729
v -1.638311 -1.490313 0.5005944
v -1.888674 -1.34234 0.6697143
v -1.618233 -0.8847656 0.7465729
v -1.350317 -1.043113 0.5653051
v -2.499703 -0.981203 -0.06909955
v -1.976629 -1.290357 -0.7465711
v -2.552765 -0.9498424 -0.7465711
v -1.976629 -1.290357 -0.06909955
v -2.314946 -1.090401 0.5005945
v -1.400493 -1.630872 -0.7465711
v -2.064582 -1.238375 0.6697143
v -1.453554 -1.59951 -0.06909955
v -1.888674 -1.34234 0.6697143
v -1.638311 -1.490313 0.5005944
v -1.155973 -1.157975 -0.03394854
v -1.706187 -0.8327808 -0.7465711
v -1.100158 -1.190962 -0.7465711
v -1.706187 -0.8327808 -0.06909955
v -1.350317 -1.043113 0.5653051
v -2.312216 -0.4745989 -0.7465711
v -1.618233 -0.8847656 0.7465729
v -2.256401 -0.5075884 -0.03394848
v -1.794141 -0.780798 0.7465719
v -2.062059 -0.6224499 0.5653051
vt 0.6013667 0.01163371
vt 0.600505 0.01400515
vt 0.6015714 0.0137633
vt 0.6002896 0.01176511
vt 0.6002278 0.009101292
vt 0.6013079 0.009101292
vt 0.6006179 0.01142631
vt 0.6006798 0.008762484
vt 0.6016936 0.008762484
vt 0.6016348 0.01129491
vt 0.6014301 0.01342449
vt 0.6004025 0.01366634
vt 0.6011527 0.01405663
vt 0.6001057 0.01434395
vt 0.6008667 0.01157795
vt 0.6009659 0.0116192
vt 0.6010447 0.0116192
vt 0.6009455 0.01157795
vt 0.6007546 0.01148724
vt 0.600846 0.01152193
vt 0.6009659 0.0116192
vt 0.6008667 0.01157795
vt 0.5504357 0.01152535
vt 0.5506239 0.0101028
vt 0.5489414 0.01007529
vt 0.5489081 0.01150038
vt 0.5498681 0.01271488
vt 0.547259 0.01004778
vt 0.5491287 0.01305865
vt 0.5473807 0.0114754
vt 0.548615 0.01305028
vt 0.5478922 0.01268258
vt 0.5498348 0.01149053
vt 0.5498537 0.01071281
vt 0.5489414 0.0107666
vt 0.5490033 0.01150132
vt 0.549597 0.01215765
vt 0.5480291 0.01082048
vt 0.5492103 0.01237798
vt 0.5481783 0.01158831
vt 0.5489455 0.01239363
vt 0.5485256 0.01222084
vt 0.6010842 0.01163371
vt 0.6008583 0.01400515
vt 0.6014885 0.0137633
vt 0.6004329 0.01176511
vt 0.6003107 0.009101292
vt 0.6009681 0.009101292
vt 0.6010812 0.01142631
vt 0.6012033 0.008762484
vt 0.6017298 0.008762484
vt 0.6016136 0.01129491
vt 0.6012093 0.01342449
vt 0.6006559 0.01366634
vt 0.6006613 0.01405663
vt 0.6000695 0.01434395
vt 0.6008111 0.01157795
vt 0.601007 0.0116192
vt 0.6010516 0.0116192
vt 0.6008555 0.01157795
vt 0.6007476 0.01148724
vt 0.6009392 0.01152193
vt 0.601007 0.0116192
vt 0.6008111 0.01157795
vt 0.5505407 0.01152732
vt 0.5507463 0.01000159
vt 0.5489414 0.009969046
vt 0.5489021 0.01149779
vt 0.5499288 0.01280238
vt 0.5471366 0.009936532
vt 0.5491347 0.01316991
vt 0.5472635 0.01146825
vt 0.5485836 0.01315998
vt 0.5478092 0.01276424
vt 0.5501982 0.01146469
vt 0.5502236 0.01037163
vt 0.5489415 0.01044822
vt 0.5490295 0.01148064
vt 0.5498649 0.01240248
vt 0.5476593 0.01052476
vt 0.5493217 0.01271257
vt 0.54787 0.01160375
vt 0.5489495 0.01273481
vt 0.548359 0.01249242
vt 0.6013667 0.01163371
vt 0.6015714 0.0137633
vt 0.600505 0.01400515
vt 0.6002896 0.01176511
vt 0.6002278 0.009101292
vt 0.6013079 0.009101292
vt 0.6006179 0.01142631
vt 0.6016936 0.008762484
vt 0.6006798 0.008762484
vt 0.6016348 0.01129491
vt 0.6014301 0.01342449
vt 0.6004025 0.01366634
vt 0.6011527 0.01405663
vt 0.6001057 0.01434395
vt 0.6008667 0.01157795
vt 0.6009455 0.01157795
vt 0.6010447 0.0116192
vt 0.6009659 0.0116192
vt 0.6007546 0.01148724
vt 0.6008667 0.01157795
vt 0.6009659 0.0116192
vt 0.600846 0.01152193
vt 0.5504357 0.01152535
vt 0.5489414 0.01007529
vt 0.5506239 0.0101028
vt 0.5489081 0.01150038
vt 0.5498681 0.01271488
vt 0.547259 0.01004778
vt 0.5491287 0.01305865
vt 0.5473807 0.0114754
vt 0.548615 0.01305028
vt 0.5478922 0.01268258
vt 0.5498348 0.01149053
vt 0.5489414 0.0107666
vt 0.5498537 0.01071281
vt 0.5490033 0.01150132
vt 0.549597 0.01215765
vt 0.5480291 0.01082048
vt 0.5492103 0.01237798
vt 0.5481783 0.01158831
vt 0.5489455 0.01239363
vt 0.5485256 0.01222084
vt 0.6010842 0.01163371
vt 0.6014885 0.0137633
vt 0.6008583 0.01400515
vt 0.6004329 0.01176511
vt 0.6003107 0.009101292
vt 0.6009681 0.009101292
vt 0.6010812 0.01142631
vt 0.6017298 0.008762484
vt 0.6012033 0.008762484
vt 0.6016136 0.01129491
vt 0.6012093 0.01342449
vt 0.6006559 0.01366634
vt 0.6006613 0.01405663
vt 0.6000695 0.01434395
vt 0.6008111 0.01157795
vt 0.6008555 0.01157795
vt 0.6010516 0.0116192
vt 0.601007 0.0116192
vt 0.6007476 0.01148724
vt 0.6008111 0.01157795
vt 0.601007 0.0116192
vt 0.6009392 0.01152193
vt 0.5505407 0.01152732
vt 0.5489414 0.009969046
vt 0.5507463 0.01000159
vt 0.5489021 0.01149779
vt 0.5499288 0.01280238
vt 0.5471366 0.009936532
vt 0.5491347 0.01316991
vt 0.5472635 0.01146825
vt 0.5485836 0.01315998
vt 0.5478092 0.01276424
vt 0.5501982 0.01146469
vt 0.5489415 0.01044822
vt 0.5502236 0.01037163
vt 0.5490295 0.01148064
vt 0.5498649 0.01240248
vt 0.5476593 0.01052476
vt 0.5493217 0.01271257
vt 0.54787 0.01160375
vt 0.5489495 0.01273481
vt 0.548359 0.01249242
vn -0.359151 -0.9072859 0.2187303
vn -0.229382 -0.7222539 0.6524824
vn -0.2392902 -0.7382442 0.6306629
vn -0.3578901 -0.9056993 0.2272082
vn -0.3746951 -0.9227289 0.09041531
vn -0.3746951 -0.9227289 0.09041531
vn 0.4886207 0.842393 0.2272089
vn 0.4915597 0.8661374 0.09041546
vn 0.4915597 0.8661374 0.09041546
vn 0.4890835 0.8443663 0.2187303
vn 0.4307901 0.6455093 0.6306644
vn 0.4243893 0.6278208 0.6524836
vn 0.2392404 0.1776132 0.9545771
vn 0.2344861 0.1667426 0.9577124
vn 0.009009948 -0.2978269 0.9545773
vn 0.01459013 -0.287356 0.9577127
vn 0.2344861 0.1667426 0.9577124
vn 0.2392404 0.1776132 0.9545771
vn -0.2392902 -0.7382442 0.6306629
vn -0.229382 -0.7222539 0.6524824
vn 0.01459013 -0.287356 0.9577127
vn 0.009009948 -0.2978269 0.9545773
vn 0.9000264 -0.4358354 0
vn 0.900026 -0.4358362 0
vn 0.9000257 -0.4358367 0
vn 0.9000259 -0.4358364 0
vn 0.9000264 -0.4358353 0
vn 0.9000255 -0.4358372 0
vn 0.9000262 -0.4358356 0
vn 0.9000254 -0.4358375 0
vn 0.9000262 -0.4358357 0
vn 0.9000257 -0.4358369 0
vn -0.9000257 0.4358369 0
vn -0.9000254 0.4358374 0
vn -0.9000257 0.4358367 0
vn -0.9000259 0.4358363 0
vn -0.9000257 0.4358369 0
vn -0.900026 0.4358361 0
vn -0.9000262 0.4358356 0
vn -0.9000261 0.4358361 0
vn -0.9000271 0.4358338 0
vn -0.900027 0.4358341 0
vn -0.8010061 -0.5572669 0.2187299
vn -0.5905564 -0.4748786 0.6524826
vn -0.6076553 -0.4827212 0.6306626
vn -0.7990781 -0.5566424 0.227208
vn -0.8224976 -0.5615361 0.09041472
vn -0.8224976 -0.5615361 0.09041471
vn 0.8729833 0.4315978 0.227208
vn 0.8885639 0.4497546 0.0904154
vn 0.8885639 0.4497546 0.0904154
vn 0.8744603 0.4329858 0.2187298
vn 0.7159142 0.2995493 0.630664
vn 0.7007986 0.2883522 0.6524832
vn 0.2975519 0.01566306 0.9545771
vn 0.287579 0.009235927 0.9577124
vn -0.1572092 -0.2531151 0.9545773
vn -0.1467689 -0.2474775 0.9577128
vn 0.287579 0.009235927 0.9577124
vn 0.2975519 0.01566306 0.9545771
vn -0.6076553 -0.4827212 0.6306626
vn -0.5905564 -0.4748786 0.6524826
vn -0.1467689 -0.2474775 0.9577128
vn -0.1572092 -0.2531151 0.9545773
vn 0.5088075 -0.8608803 0
vn 0.5088073 -0.8608804 0
vn 0.5088077 -0.8608803 0
vn 0.5088076 -0.8608803 0
vn 0.5088088 -0.8608796 0
vn 0.5088077 -0.8608801 0
vn 0.5088056 -0.8608814 0
vn 0.5088077 -0.8608802 0
vn 0.508805 -0.8608818 0
vn 0.5088079 -0.8608801 0
vn -0.508807 0.8608807 0
vn -0.5088066 0.8608809 0
vn -0.5088065 0.8608809 0
vn -0.5088069 0.8608807 0
vn -0.5088079 0.86088 0
vn -0.5088065 0.8608809 0
vn -0.5088093 0.8608794 0
vn -0.5088061 0.8608811 0
vn -0.508809 0.8608794 0
vn -0.5088068 0.8608807 0
vn 0.359151 -0.9072859 0.2187303
vn 0.2392902 -0.7382442 0.6306629
vn 0.229382 -0.7222539 0.6524825
vn 0.3578901 -0.9056993 0.2272082
vn 0.3746951 -0.9227289 0.09041531
vn 0.3746951 -0.9227288 0.09041531
vn -0.4886211 0.8423928 0.2272089
vn -0.4915602 0.8661372 0.09041543
vn -0.4915602 0.8661372 0.09041543
vn -0.4890839 0.844366 0.2187303
vn -0.4307903 0.6455091 0.6306645
vn -0.4243896 0.6278207 0.6524834
vn -0.2392405 0.1776132 0.9545771
vn -0.2344862 0.1667427 0.9577124
vn -0.009009943 -0.2978269 0.9545773
vn -0.2392405 0.1776132 0.9545771
vn -0.2344862 0.1667427 0.9577124
vn -0.01459013 -0.287356 0.9577127
vn 0.2392902 -0.7382442 0.6306629
vn -0.009009943 -0.2978269 0.9545773
vn -0.01459013 -0.287356 0.9577127
vn 0.229382 -0.7222539 0.6524825
vn -0.9000267 -0.4358348 0
vn -0.9000259 -0.4358364 0
vn -0.9000263 -0.4358355 0
vn -0.9000261 -0.4358361 0
vn -0.900027 -0.4358343 0
vn -0.9000255 -0.4358372 0
vn -0.9000265 -0.4358351 0
vn -0.9000254 -0.4358375 0
vn -0.9000262 -0.4358357 0
vn -0.9000257 -0.4358369 0
vn 0.9000257 0.4358369 0
vn 0.9000257 0.4358367 0
vn 0.9000254 0.4358373 0
vn 0.9000259 0.4358363 0
vn 0.9000257 0.4358369 0
vn 0.900026 0.4358361 0
vn 0.9000262 0.4358356 0
vn 0.9000261 0.4358361 0
vn 0.9000271 0.4358338 0
vn 0.900027 0.4358341 0
vn 0.8010061 -0.5572669 0.2187299
vn 0.6076553 -0.4827212 0.6306626
vn 0.5905564 -0.4748786 0.6524826
vn 0.799078 -0.5566424 0.227208
vn 0.8224976 -0.5615362 0.09041473
vn 0.8224976 -0.5615362 0.09041473
vn -0.8729833 0.4315978 0.2272081
vn -0.8885639 0.4497546 0.0904154
vn -0.8885639 0.4497546 0.0904154
vn -0.8744603 0.4329858 0.2187298
vn -0.7159142 0.2995493 0.630664
vn -0.7007985 0.2883522 0.6524832
vn -0.2975519 0.01566308 0.9545771
vn -0.287579 0.009235947 0.9577124
vn 0.1572092 -0.2531151 0.9545773
vn -0.2975519 0.01566308 0.9545771
vn -0.287579 0.009235947 0.9577124
vn 0.1467689 -0.2474775 0.9577128
vn 0.6076553 -0.4827212 0.6306626
vn 0.1572092 -0.2531151 0.9545773
vn 0.1467689 -0.2474775 0.9577128
vn 0.5905564 -0.4748786 0.6524826
vn -0.5088075 -0.8608803 0
vn -0.5088077 -0.8608803 0
vn -0.5088073 -0.8608804 0
vn -0.5088076 -0.8608803 0
vn -0.5088088 -0.8608796 0
vn -0.5088077 -0.8608801 0
vn -0.5088056 -0.8608814 0
vn -0.5088077 -0.8608802 0
vn -0.508805 -0.8608818 0
vn -0.5088079 -0.8608801 0
vn 0.508807 0.8608807 0
vn 0.5088065 0.8608809 0
vn 0.5088065 0.8608809 0
vn 0.5088069 0.8608807 0
vn 0.5088079 0.86088 0
vn 0.5088065 0.8608809 0
vn 0.5088093 0.8608794 0
vn 0.5088061 0.8608811 0
vn 0.508809 0.8608794 0
vn 0.5088068 0.8608807 0
g Color_Boss_44_0
f 3/3/3 2/2/2 1/1/1
f 2/2/2 4/4/4 1/1/1
f 4/4/4 5/5/5 1/1/1
f 5/5/5 6/6/6 1/1/1
f 9/9/9 8/8/8 7/7/7
f 10/10/10 9/9/9 7/7/7
f 10/10/10 7/7/7 11/11/11
f 7/7/7 12/12/12 11/11/11
f 11/11/11 12/12/12 13/13/13
f 12/12/12 14/14/14 13/13/13
f 17/17/17 16/16/16 15/15/15
f 18/18/18 17/17/17 15/15/15
f 21/21/21 20/20/20 19/19/19
f 22/22/22 21/21/21 19/19/19
f 25/25/25 24/24/24 23/23/23
f 26/26/26 25/25/25 23/23/23
f 27/27/27 26/26/26 23/23/23
f 28/28/28 25/25/25 26/26/26
f 29/29/29 26/26/26 27/27/27
f 30/30/30 28/28/28 26/26/26
f 31/31/31 26/26/26 29/29/29
f 30/30/30 26/26/26 32/32/32
f 32/32/32 26/26/26 31/31/31
f 35/35/35 34/34/34 33/33/33
f 36/36/36 35/35/35 33/33/33
f 37/37/37 36/36/36 33/33/33
f 38/38/38 35/35/35 36/36/36
f 39/39/39 36/36/36 37/37/37
f 40/40/40 38/38/38 36/36/36
f 41/41/41 36/36/36 39/39/39
f 40/40/40 36/36/36 42/42/42
f 42/42/42 36/36/36 41/41/41
f 45/45/45 44/44/44 43/43/43
f 44/44/44 46/46/46 43/43/43
f 46/46/46 47/47/47 43/43/43
f 47/47/47 48/48/48 43/43/43
f 51/51/51 50/50/50 49/49/49
f 52/52/52 51/51/51 49/49/49
f 52/52/52 49/49/49 53/53/53
f 49/49/49 54/54/54 53/53/53
f 53/53/53 54/54/54 55/55/55
f 54/54/54 56/56/56 55/55/55
f 59/59/59 58/58/58 57/57/57
f 60/60/60 59/59/59 57/57/57
f 63/63/63 62/62/62 61/61/61
f 64/64/64 63/63/63 61/61/61
f 67/67/67 66/66/66 65/65/65
f 68/68/68 67/67/67 65/65/65
f 69/69/69 68/68/68 65/65/65
f 70/70/70 67/67/67 68/68/68
f 71/71/71 68/68/68 69/69/69
f 72/72/72 70/70/70 68/68/68
f 73/73/73 68/68/68 71/71/71
f 72/72/72 68/68/68 74/74/74
f 74/74/74 68/68/68 73/73/73
f 77/77/77 76/76/76 75/75/75
f 78/78/78 77/77/77 75/75/75
f 79/79/79 78/78/78 75/75/75
f 80/80/80 77/77/77 78/78/78
f 81/81/81 78/78/78 79/79/79
f 82/82/82 80/80/80 78/78/78
f 83/83/83 78/78/78 81/81/81
f 82/82/82 78/78/78 84/84/84
f 84/84/84 78/78/78 83/83/83
f 87/87/87 86/86/86 85/85/85
f 88/88/88 87/87/87 85/85/85
f 89/89/89 88/88/88 85/85/85
f 90/90/90 89/89/89 85/85/85
f 93/93/93 92/92/92 91/91/91
f 92/92/92 94/94/94 91/91/91
f 91/91/91 94/94/94 95/95/95
f 96/96/96 91/91/91 95/95/95
f 96/96/96 95/95/95 97/97/97
f 98/98/98 96/96/96 97/97/97
f 101/101/101 100/100/100 99/99/99
f 102/102/102 101/101/101 99/99/99
f 105/105/105 104/104/104 103/103/103
f 106/106/106 105/105/105 103/103/103
f 109/109/109 108/108/108 107/107/107
f 108/108/108 110/110/110 107/107/107
f 110/110/110 111/111/111 107/107/107
f 108/108/108 112/112/112 110/110/110
f 110/110/110 113/113/113 111/111/111
f 112/112/112 114/114/114 110/110/110
f 110/110/110 115/115/115 113/113/113
f 110/110/110 114/114/114 116/116/116
f 110/110/110 116/116/116 115/115/115
f 119/119/119 118/118/118 117/117/117
f 118/118/118 120/120/120 117/117/117
f 120/120/120 121/121/121 117/117/117
f 118/118/118 122/122/122 120/120/120
f 120/120/120 123/123/123 121/121/121
f 122/122/122 124/124/124 120/120/120
f 120/120/120 125/125/125 123/123/123
f 120/120/120 124/124/124 126/126/126
f 120/120/120 126/126/126 125/125/125
f 129/129/129 128/128/128 127/127/127
f 130/130/130 129/129/129 127/127/127
f 131/131/131 130/130/130 127/127/127
f 132/132/132 131/131/131 127/127/127
f 135/135/135 134/134/134 133/133/133
f 134/134/134 136/136/136 133/133/133
f 133/133/133 136/136/136 137/137/137
f 138/138/138 133/133/133 137/137/137
f 138/138/138 137/137/137 139/139/139
f 140/140/140 138/138/138 139/139/139
f 143/143/143 142/142/142 141/141/141
f 144/144/144 143/143/143 141/141/141
f 147/147/147 146/146/146 145/145/145
f 148/148/148 147/147/147 145/145/145
f 151/151/151 150/150/150 149/149/149
f 150/150/150 152/152/152 149/149/149
f 152/152/152 153/153/153 149/149/149
f 150/150/150 154/154/154 152/152/152
f 152/152/152 155/155/155 153/153/153
f 154/154/154 156/156/156 152/152/152
f 152/152/152 157/157/157 155/155/155
f 152/152/152 156/156/156 158/158/158
f 152/152/152 158/158/158 157/157/157
f 161/161/161 160/160/160 159/159/159
f 160/160/160 162/162/162 159/159/159
f 162/162/162 163/163/163 159/159/159
f 160/160/160 164/164/164 162/162/162
f 162/162/162 165/165/165 163/163/163
f 164/164/164 166/166/166 162/162/162
f 162/162/162 167/167/167 165/165/165
f 162/162/162 166/166/166 168/168/168
f 162/162/162 168/168/168 167/167/167
