g Color_Boss_34
v 5.691423 -0.8005009 -0.3120733
v 5.502891 -1.588184 -0.2055354
v 5.686735 -0.9254863 0.2339054
v 5.691423 -1.25187 0.7794733
v 5.691423 -1.25187 0.7794733
v 5.502891 -1.588184 -0.2055354
v 5.691423 -1.890438 0.8790706
v 5.709636 -2.269917 0.2711957
v 5.691423 -2.417809 -0.3120673
v 5.691423 -1.890437 -0.7642772
v 5.691423 -1.251869 -0.8341961
v 5.691423 -0.8005009 -0.3120733
v 5.594355 1.684304 0.8477408
v 5.591226 1.361208 0.000366807
v 5.665423 1.14089 0.5820959
v 5.433113 2.238084 0.3595874
v 5.594355 2.139867 -0.3150443
v 5.44316 1.900446 -0.8314164
v 5.598572 1.123809 -0.7840883
v 5.956257 0.6094436 -0.3150382
v 5.665423 1.14089 0.5820959
v 5.591226 1.361208 0.000366807
v 5.517581 0.692612 0.5913241
v 5.956257 0.6094436 -0.3150382
v 5.686735 -0.9254863 0.2339054
v 5.258323 -0.7046583 -0.3504816
v 5.691423 -0.8005009 -0.3120733
v 5.306432 -0.6044155 0.4865212
v 5.691423 -1.25187 0.7794733
v 5.258323 -1.207852 0.8663957
v 5.691423 -1.890438 0.8790706
v 5.258323 -1.91974 0.9774287
v 5.258323 -1.207852 0.8663957
v 5.691423 -1.25187 0.7794733
v 5.709636 -2.269917 0.2711957
v 5.258323 -1.91974 0.9774287
v 5.691423 -1.890438 0.8790706
v 5.258323 -2.423166 0.3622792
v 5.691423 -2.417809 -0.3120673
v 5.258323 -2.513652 -0.3504748
v 5.691423 -1.890437 -0.7642772
v 5.258323 -2.513652 -0.3504748
v 5.691423 -2.417809 -0.3120673
v 5.258323 -1.91974 -0.854607
v 5.691423 -1.251869 -0.8341961
v 5.258323 -1.207852 -0.932554
v 5.691423 -0.8005009 -0.3120733
v 5.258323 -0.7046583 -0.3504816
v 5.258323 -1.207852 -0.932554
v 5.691423 -1.251869 -0.8341961
v 5.594355 1.684304 0.8477408
v 5.251215 1.74262 1.023909
v 5.027256 2.513652 0.4343131
v 5.433113 2.238084 0.3595874
v 5.251215 2.292853 -0.3805134
v 5.594355 2.139867 -0.3150443
v 5.241305 2.003677 -1.004192
v 5.44316 1.900446 -0.8314164
v 5.665423 1.14089 0.5820959
v 5.207934 0.9895962 1.018209
v 5.251215 1.74262 1.023909
v 5.594355 1.684304 0.8477408
v 5.517581 0.692612 0.5913241
v 5.207934 0.9895962 1.018209
v 5.665423 1.14089 0.5820959
v 5.207934 0.3191319 0.3988789
v 5.956257 0.6094436 -0.3150382
v 5.207934 0.4391114 -0.380506
v 5.598572 1.123809 -0.7840883
v 5.207934 0.4391114 -0.380506
v 5.956257 0.6094436 -0.3150382
v 5.251215 0.9641806 -1.023908
v 5.44316 1.900446 -0.8314164
v 5.241305 2.003677 -1.004192
v -5.691423 -0.8005009 -0.3120733
v -5.686735 -0.9254863 0.2339054
v -5.502891 -1.588184 -0.2055354
v -5.691423 -1.25187 0.7794733
v -5.691423 -1.25187 0.7794733
v -5.691423 -1.890438 0.8790706
v -5.502891 -1.588184 -0.2055354
v -5.709636 -2.269917 0.2711957
v -5.691423 -2.417809 -0.3120673
v -5.691423 -1.890437 -0.7642772
v -5.691423 -1.251869 -0.8341961
v -5.691423 -0.8005009 -0.3120733
v -5.594355 1.684304 0.8477408
v -5.665423 1.14089 0.5820959
v -5.591226 1.361208 0.000366807
v -5.433113 2.238084 0.3595874
v -5.594355 2.139867 -0.3150443
v -5.44316 1.900446 -0.8314164
v -5.598572 1.123809 -0.7840883
v -5.956257 0.6094436 -0.3150382
v -5.665423 1.14089 0.5820959
v -5.517581 0.692612 0.5913241
v -5.591226 1.361208 0.000366807
v -5.956257 0.6094436 -0.3150382
v -5.686735 -0.9254863 0.2339054
v -5.691423 -0.8005009 -0.3120733
v -5.258323 -0.7046583 -0.3504816
v -5.306432 -0.6044155 0.4865212
v -5.691423 -1.25187 0.7794733
v -5.258323 -1.207852 0.8663957
v -5.691423 -1.890438 0.8790706
v -5.691423 -1.25187 0.7794733
v -5.258323 -1.207852 0.8663957
v -5.258323 -1.91974 0.9774287
v -5.709636 -2.269917 0.2711957
v -5.691423 -1.890438 0.8790706
v -5.258323 -1.91974 0.9774287
v -5.258323 -2.423166 0.3622792
v -5.691423 -2.417809 -0.3120673
v -5.258323 -2.513652 -0.3504748
v -5.691423 -1.890437 -0.7642772
v -5.691423 -2.417809 -0.3120673
v -5.258323 -2.513652 -0.3504748
v -5.258323 -1.91974 -0.854607
v -5.691423 -1.251869 -0.8341961
v -5.258323 -1.207852 -0.932554
v -5.691423 -0.8005009 -0.3120733
v -5.691423 -1.251869 -0.8341961
v -5.258323 -1.207852 -0.932554
v -5.258323 -0.7046583 -0.3504816
v -5.594355 1.684304 0.8477408
v -5.027256 2.513652 0.4343131
v -5.251215 1.74262 1.023909
v -5.433113 2.238084 0.3595874
v -5.251215 2.292853 -0.3805134
v -5.594355 2.139867 -0.3150443
v -5.241305 2.003677 -1.004192
v -5.44316 1.900446 -0.8314164
v -5.665423 1.14089 0.5820959
v -5.594355 1.684304 0.8477408
v -5.251215 1.74262 1.023909
v -5.207934 0.9895962 1.018209
v -5.517581 0.692612 0.5913241
v -5.665423 1.14089 0.5820959
v -5.207934 0.9895962 1.018209
v -5.207934 0.3191319 0.3988789
v -5.956257 0.6094436 -0.3150382
v -5.207934 0.4391114 -0.380506
v -5.598572 1.123809 -0.7840883
v -5.956257 0.6094436 -0.3150382
v -5.207934 0.4391114 -0.380506
v -5.251215 0.9641806 -1.023908
v -5.44316 1.900446 -0.8314164
v -5.241305 2.003677 -1.004192
vt 0.4396812 0.03568222
vt 0.4392494 0.03550312
vt 0.4394413 0.03587417
vt 0.4391022 0.03601104
vt 0.462014 0.03804603
vt 0.464682 0.03629184
vt 0.4614246 0.0353488
vt 0.4631951 0.03309041
vt 0.4654511 0.03232902
vt 0.467336 0.03455198
vt 0.4678069 0.03724885
vt 0.4661236 0.03946605
vt 0.4614685 0.03437284
vt 0.4645974 0.03561151
vt 0.4629282 0.03220925
vt 0.4614241 0.03786176
vt 0.4637025 0.03923395
vt 0.4657251 0.03954098
vt 0.4677937 0.03675467
vt 0.4672795 0.03377938
vt 0.4397144 0.03606249
vt 0.4399775 0.03576797
vt 0.4393912 0.03598007
vt 0.4395452 0.03539195
vt 0.4394413 0.03587417
vt 0.4398856 0.03582053
vt 0.4396812 0.03568222
vt 0.4395564 0.0361335
vt 0.4391022 0.03601104
vt 0.4391493 0.0362272
vt 0.4614246 0.0353488
vt 0.4602478 0.03502184
vt 0.4608711 0.03893051
vt 0.462014 0.03804603
vt 0.4631951 0.03309041
vt 0.4602478 0.03502184
vt 0.4614246 0.0353488
vt 0.4625115 0.0316869
vt 0.4654511 0.03232902
vt 0.4657796 0.03093442
vt 0.467336 0.03455198
vt 0.4657796 0.03093442
vt 0.4654511 0.03232902
vt 0.4685456 0.033802
vt 0.4678069 0.03724885
vt 0.4689749 0.03766248
vt 0.4661236 0.03946605
vt 0.4667691 0.04079589
vt 0.4689749 0.03766248
vt 0.4678069 0.03724885
vt 0.4614685 0.03437284
vt 0.4600566 0.03374386
vt 0.4601664 0.03868389
vt 0.4614241 0.03786176
vt 0.4632674 0.04094142
vt 0.4637025 0.03923395
vt 0.4663301 0.04107019
vt 0.4657251 0.03954098
vt 0.4629282 0.03220925
vt 0.462277 0.03066012
vt 0.4600566 0.03374386
vt 0.4614685 0.03437284
vt 0.4393912 0.03598007
vt 0.4394073 0.03633837
vt 0.4397144 0.03606249
vt 0.4390303 0.03590394
vt 0.4395452 0.03539195
vt 0.4390103 0.03544066
vt 0.4677937 0.03675467
vt 0.4685814 0.03290692
vt 0.4672795 0.03377938
vt 0.4691661 0.03716299
vt 0.4657251 0.03954098
vt 0.4663301 0.04107019
vt 0.4396812 0.03568222
vt 0.4394413 0.03587417
vt 0.4392494 0.03550312
vt 0.4391022 0.03601104
vt 0.462014 0.03804603
vt 0.4614246 0.0353488
vt 0.464682 0.03629184
vt 0.4631951 0.03309041
vt 0.4654511 0.03232902
vt 0.467336 0.03455198
vt 0.4678069 0.03724885
vt 0.4661236 0.03946605
vt 0.4614685 0.03437284
vt 0.4629282 0.03220925
vt 0.4645974 0.03561151
vt 0.4614241 0.03786176
vt 0.4637025 0.03923395
vt 0.4657251 0.03954098
vt 0.4677937 0.03675467
vt 0.4672795 0.03377938
vt 0.4397144 0.03606249
vt 0.4393912 0.03598007
vt 0.4399775 0.03576797
vt 0.4395452 0.03539195
vt 0.4394413 0.03587417
vt 0.4396812 0.03568222
vt 0.4398856 0.03582053
vt 0.4395564 0.0361335
vt 0.4391022 0.03601104
vt 0.4391493 0.0362272
vt 0.4614246 0.0353488
vt 0.462014 0.03804603
vt 0.4608711 0.03893051
vt 0.4602478 0.03502184
vt 0.4631951 0.03309041
vt 0.4614246 0.0353488
vt 0.4602478 0.03502184
vt 0.4625115 0.0316869
vt 0.4654511 0.03232902
vt 0.4657796 0.03093442
vt 0.467336 0.03455198
vt 0.4654511 0.03232902
vt 0.4657796 0.03093442
vt 0.4685456 0.033802
vt 0.4678069 0.03724885
vt 0.4689749 0.03766248
vt 0.4661236 0.03946605
vt 0.4678069 0.03724885
vt 0.4689749 0.03766248
vt 0.4667691 0.04079589
vt 0.4614685 0.03437284
vt 0.4601664 0.03868389
vt 0.4600566 0.03374386
vt 0.4614241 0.03786176
vt 0.4632674 0.04094142
vt 0.4637025 0.03923395
vt 0.4663301 0.04107019
vt 0.4657251 0.03954098
vt 0.4629282 0.03220925
vt 0.4614685 0.03437284
vt 0.4600566 0.03374386
vt 0.462277 0.03066012
vt 0.4393912 0.03598007
vt 0.4397144 0.03606249
vt 0.4394073 0.03633837
vt 0.4390303 0.03590394
vt 0.4395452 0.03539195
vt 0.4390103 0.03544066
vt 0.4677937 0.03675467
vt 0.4672795 0.03377938
vt 0.4685814 0.03290692
vt 0.4691661 0.03716299
vt 0.4657251 0.03954098
vt 0.4663301 0.04107019
vn 0.9726974 -0.2252682 0.05580297
vn 0.9987066 0.004267907 0.05066447
vn 0.9734374 -0.2107946 -0.08935951
vn 0.9833877 -0.09060745 -0.1572857
vn 0.9833877 -0.09060745 -0.1572857
vn 0.9987066 0.004267907 0.05066447
vn 0.9856845 0.07746962 -0.1497483
vn 0.9694089 0.2243327 -0.09960613
vn 0.9754566 0.216554 0.03985998
vn 0.958455 0.1166646 0.2602946
vn 0.9664947 -0.09950452 0.2366153
vn 0.9726974 -0.2252682 0.05580297
vn 0.9786047 0.1910198 -0.07644833
vn 0.9850439 0.1716331 0.01518869
vn 0.9825975 -0.09325116 -0.1606435
vn 0.9863628 0.1517498 0.06372271
vn 0.999617 -0.01374597 -0.02401671
vn 0.98799 0.04184784 -0.1487429
vn 0.939177 0.3310504 -0.09139047
vn 0.9123359 0.387416 0.1324836
vn 0.9825975 -0.09325116 -0.1606435
vn 0.9850439 0.1716331 0.01518869
vn 0.9896735 0.01681014 0.142351
vn 0.9123359 0.387416 0.1324836
vn 0.5161808 0.80628 0.2889116
vn 0.3591903 0.8674664 -0.3442156
vn 0.3627432 0.8697442 -0.3346079
vn 0.5246807 0.7672877 0.3687542
vn 0.3881199 0.3936651 0.8333011
vn 0.3850081 0.3892987 0.8367887
vn 0.2092275 0.1506957 0.9661856
vn 0.2092275 0.1506957 0.9661856
vn 0.3850081 0.3892987 0.8367887
vn 0.3881199 0.3936651 0.8333011
vn 0.2853975 -0.8840059 0.3702457
vn 0.2811067 -0.7761161 0.5644668
vn 0.2811067 -0.7761161 0.5644668
vn 0.2855373 -0.8787863 0.382365
vn 0.2765214 -0.9458371 0.1700828
vn 0.2765214 -0.9458371 0.1700828
vn 0.2152941 -0.3906352 -0.8950154
vn 0.2025476 -0.6354772 -0.7450792
vn 0.2025476 -0.6354773 -0.7450792
vn 0.2153883 -0.3838575 -0.8979205
vn 0.2099078 -0.106418 -0.9719125
vn 0.2099078 -0.106418 -0.9719125
vn 0.3627432 0.8697442 -0.3346079
vn 0.3591903 0.8674664 -0.3442156
vn 0.2198907 0.7379889 -0.6379817
vn 0.2198907 0.7379889 -0.6379816
vn 0.4844088 0.632515 0.6043782
vn 0.4844088 0.632515 0.6043782
vn 0.5232462 0.8030159 0.2852696
vn 0.523018 0.7981213 0.2990897
vn 0.5211802 0.8212128 -0.2323374
vn 0.5213448 0.8206426 -0.233977
vn 0.5296057 0.7385184 -0.4172629
vn 0.5296057 0.7385184 -0.4172629
vn 0.5867833 -0.2884631 0.7566204
vn 0.5826095 -0.3064284 0.7527734
vn 0.6115423 -0.1495098 0.7769574
vn 0.6115423 -0.1495098 0.7769574
vn 0.5388816 -0.6581689 0.5257567
vn 0.5826095 -0.3064284 0.7527734
vn 0.5867833 -0.2884631 0.7566204
vn 0.4934149 -0.8243621 0.2774326
vn 0.4368755 -0.894581 0.09415198
vn 0.4368755 -0.894581 0.09415198
vn 0.5123016 -0.3362711 -0.7902334
vn 0.3782709 -0.620643 -0.686814
vn 0.3782709 -0.620643 -0.686814
vn 0.5116358 -0.3381694 -0.7898546
vn 0.5973322 0.04219845 -0.8008829
vn 0.5973322 0.04219845 -0.8008829
vn -0.9726974 -0.2252682 0.05580297
vn -0.9734374 -0.2107946 -0.08935951
vn -0.9987066 0.004267907 0.05066447
vn -0.9833877 -0.09060745 -0.1572857
vn -0.9833877 -0.09060745 -0.1572857
vn -0.9856845 0.07746962 -0.1497483
vn -0.9987066 0.004267907 0.05066447
vn -0.9694089 0.2243327 -0.09960613
vn -0.9754566 0.216554 0.03985998
vn -0.958455 0.1166646 0.2602946
vn -0.9664947 -0.09950452 0.2366153
vn -0.9726974 -0.2252682 0.05580297
vn -0.9786047 0.1910198 -0.07644833
vn -0.9825975 -0.09325116 -0.1606435
vn -0.9850439 0.1716331 0.01518869
vn -0.9863628 0.1517498 0.06372271
vn -0.999617 -0.01374597 -0.02401671
vn -0.98799 0.04184784 -0.1487429
vn -0.939177 0.3310504 -0.09139047
vn -0.9123359 0.387416 0.1324836
vn -0.9825975 -0.09325116 -0.1606435
vn -0.9896735 0.01681014 0.142351
vn -0.9850439 0.1716331 0.01518869
vn -0.9123359 0.387416 0.1324836
vn -0.5161808 0.80628 0.2889116
vn -0.3627432 0.8697441 -0.3346079
vn -0.3591903 0.8674664 -0.3442156
vn -0.5246807 0.7672877 0.3687542
vn -0.3881199 0.3936651 0.8333011
vn -0.3850081 0.3892987 0.8367887
vn -0.2092274 0.1506957 0.9661856
vn -0.3881199 0.3936651 0.8333011
vn -0.3850081 0.3892987 0.8367887
vn -0.2092274 0.1506957 0.9661856
vn -0.2853975 -0.8840059 0.3702457
vn -0.2811067 -0.7761161 0.5644668
vn -0.2811067 -0.7761161 0.5644668
vn -0.2855373 -0.8787863 0.382365
vn -0.2765214 -0.9458371 0.1700828
vn -0.2765214 -0.9458371 0.1700828
vn -0.2152941 -0.3906351 -0.8950154
vn -0.2025476 -0.6354773 -0.7450792
vn -0.2025476 -0.6354773 -0.7450792
vn -0.2153883 -0.3838575 -0.8979206
vn -0.2099078 -0.106418 -0.9719125
vn -0.2099078 -0.106418 -0.9719125
vn -0.3627432 0.8697441 -0.3346079
vn -0.2198907 0.7379889 -0.6379816
vn -0.2198907 0.7379889 -0.6379817
vn -0.3591903 0.8674664 -0.3442156
vn -0.4844087 0.632515 0.6043782
vn -0.5232462 0.8030159 0.2852696
vn -0.4844087 0.632515 0.6043782
vn -0.523018 0.7981213 0.2990897
vn -0.5211802 0.8212128 -0.2323375
vn -0.5213448 0.8206426 -0.233977
vn -0.5296058 0.7385183 -0.4172629
vn -0.5296059 0.7385183 -0.4172629
vn -0.5867834 -0.2884631 0.7566204
vn -0.6115422 -0.1495099 0.7769574
vn -0.6115422 -0.1495099 0.7769574
vn -0.5826096 -0.3064283 0.7527734
vn -0.5388817 -0.6581689 0.5257567
vn -0.5867834 -0.2884631 0.7566204
vn -0.5826096 -0.3064283 0.7527734
vn -0.493415 -0.8243621 0.2774326
vn -0.4368755 -0.894581 0.09415198
vn -0.4368755 -0.894581 0.09415198
vn -0.5123016 -0.3362711 -0.7902335
vn -0.3782709 -0.6206431 -0.686814
vn -0.3782709 -0.6206431 -0.686814
vn -0.5116358 -0.3381694 -0.7898546
vn -0.5973322 0.04219845 -0.800883
vn -0.5973321 0.04219845 -0.800883
g Color_Boss_34_0
f 3/3/3 2/2/2 1/1/1
f 4/4/4 2/2/2 3/3/3
f 7/7/7 6/6/6 5/5/5
f 8/8/8 6/6/6 7/7/7
f 9/9/9 6/6/6 8/8/8
f 10/10/10 6/6/6 9/9/9
f 11/11/11 6/6/6 10/10/10
f 12/12/12 6/6/6 11/11/11
f 15/15/15 14/14/14 13/13/13
f 13/13/13 14/14/14 16/16/16
f 16/16/16 14/14/14 17/17/17
f 17/17/17 14/14/14 18/18/18
f 18/18/18 14/14/14 19/19/19
f 19/19/19 14/14/14 20/20/20
f 23/23/23 22/22/22 21/21/21
f 24/24/24 22/22/22 23/23/23
f 27/27/27 26/26/26 25/25/25
f 26/26/26 28/28/28 25/25/25
f 25/25/25 28/28/28 29/29/29
f 28/28/28 30/30/30 29/29/29
f 33/33/33 32/32/32 31/31/31
f 34/34/34 33/33/33 31/31/31
f 37/37/37 36/36/36 35/35/35
f 36/36/36 38/38/38 35/35/35
f 35/35/35 38/38/38 39/39/39
f 38/38/38 40/40/40 39/39/39
f 43/43/43 42/42/42 41/41/41
f 42/42/42 44/44/44 41/41/41
f 41/41/41 44/44/44 45/45/45
f 44/44/44 46/46/46 45/45/45
f 49/49/49 48/48/48 47/47/47
f 50/50/50 49/49/49 47/47/47
f 53/53/53 52/52/52 51/51/51
f 54/54/54 53/53/53 51/51/51
f 55/55/55 53/53/53 54/54/54
f 56/56/56 55/55/55 54/54/54
f 57/57/57 55/55/55 56/56/56
f 58/58/58 57/57/57 56/56/56
f 61/61/61 60/60/60 59/59/59
f 62/62/62 61/61/61 59/59/59
f 65/65/65 64/64/64 63/63/63
f 64/64/64 66/66/66 63/63/63
f 63/63/63 66/66/66 67/67/67
f 66/66/66 68/68/68 67/67/67
f 71/71/71 70/70/70 69/69/69
f 70/70/70 72/72/72 69/69/69
f 69/69/69 72/72/72 73/73/73
f 72/72/72 74/74/74 73/73/73
f 77/77/77 76/76/76 75/75/75
f 77/77/77 78/78/78 76/76/76
f 81/81/81 80/80/80 79/79/79
f 81/81/81 82/82/82 80/80/80
f 81/81/81 83/83/83 82/82/82
f 81/81/81 84/84/84 83/83/83
f 81/81/81 85/85/85 84/84/84
f 81/81/81 86/86/86 85/85/85
f 89/89/89 88/88/88 87/87/87
f 89/89/89 87/87/87 90/90/90
f 89/89/89 90/90/90 91/91/91
f 89/89/89 91/91/91 92/92/92
f 89/89/89 92/92/92 93/93/93
f 89/89/89 93/93/93 94/94/94
f 97/97/97 96/96/96 95/95/95
f 97/97/97 98/98/98 96/96/96
f 101/101/101 100/100/100 99/99/99
f 102/102/102 101/101/101 99/99/99
f 102/102/102 99/99/99 103/103/103
f 104/104/104 102/102/102 103/103/103
f 107/107/107 106/106/106 105/105/105
f 108/108/108 107/107/107 105/105/105
f 111/111/111 110/110/110 109/109/109
f 112/112/112 111/111/111 109/109/109
f 112/112/112 109/109/109 113/113/113
f 114/114/114 112/112/112 113/113/113
f 117/117/117 116/116/116 115/115/115
f 118/118/118 117/117/117 115/115/115
f 118/118/118 115/115/115 119/119/119
f 120/120/120 118/118/118 119/119/119
f 123/123/123 122/122/122 121/121/121
f 124/124/124 123/123/123 121/121/121
f 127/127/127 126/126/126 125/125/125
f 126/126/126 128/128/128 125/125/125
f 126/126/126 129/129/129 128/128/128
f 129/129/129 130/130/130 128/128/128
f 129/129/129 131/131/131 130/130/130
f 131/131/131 132/132/132 130/130/130
f 135/135/135 134/134/134 133/133/133
f 136/136/136 135/135/135 133/133/133
f 139/139/139 138/138/138 137/137/137
f 140/140/140 139/139/139 137/137/137
f 140/140/140 137/137/137 141/141/141
f 142/142/142 140/140/140 141/141/141
f 145/145/145 144/144/144 143/143/143
f 146/146/146 145/145/145 143/143/143
f 146/146/146 143/143/143 147/147/147
f 148/148/148 146/146/146 147/147/147
