g Color_05
v 4.860477 1.123192 0.4896641
v 5.625462 0.5535526 -0.6612673
v 5.106594 0.8456745 0.2252979
v 5.60553 0.8242664 -0.7566252
v 5.146606 1.162859 0.2323351
v 5.997292 0.4247131 -1.821599
v 5.685635 1.030533 -0.6506863
v 5.9604 0.7164288 -1.874161
v 6.061047 0.9301224 -1.810387
v -4.765808 -1.940506 1.821587
v -5.511742 -1.280212 0.1034336
v -5.109528 -1.709692 1.422713
v -5.257111 -1.439734 -0.06904984
v -4.897484 -2.003307 1.331569
v -5.587036 -0.7405491 -1.510767
v -5.192867 -1.721748 -0.03363228
v -5.314289 -0.9315491 -1.625827
v -5.249149 -1.208401 -1.656
v 6.448029 1.171574 1.610365
v 5.816608 1.135359 0.1336851
v 6.1329 1.183258 1.235942
v 6.097855 1.028263 0.06274796
v 6.401634 0.9695034 1.249987
v 5.790604 1.200806 -1.181197
v 6.220722 0.813921 0.1548061
v 6.089352 1.085087 -1.201374
v 6.218803 0.8602104 -1.158815
v 2.765194 -0.8962116 0.2545338
v 2.031025 -0.773159 -0.5325804
v 2.48391 -0.7747955 0.06937122
v 2.158043 -1.012356 -0.5933542
v 2.570637 -1.108658 0.06937122
v 1.783775 -0.8047523 -1.29942
v 2.161446 -1.275211 -0.5325804
v 1.928696 -1.056236 -1.331757
v 1.921967 -1.336727 -1.29942
v -0.8271408 -0.7154884 1.028852
v -1.578079 -0.9784031 -0.1656837
v -1.111214 -0.7721462 0.756032
v -1.43927 -1.063663 -0.2726164
v -0.983036 -0.9346352 0.7470989
v -1.886909 -1.106411 -1.362464
v -1.385326 -1.222752 -0.1791162
v -1.727043 -1.191006 -1.42573
v -1.682678 -1.36532 -1.376698
v 0.5065498 -1.12183 0.371172
v 1.286003 -1.540615 -0.4787493
v 0.7681274 -1.348972 0.1712341
v 1.259865 -1.272476 -0.5443726
v 0.8353653 -1.012753 0.1712332
v 1.584938 -1.616066 -1.306777
v 1.387108 -1.035007 -0.4787493
v 1.544434 -1.329384 -1.341694
v 1.692074 -1.080326 -1.306777
v 0.8049736 -0.2022514 1.874167
v 1.306942 -0.9857559 0.3446913
v 0.9284706 -0.5647488 1.514368
v 1.422001 -0.667366 0.2265987
v 1.165054 -0.2042732 1.514368
v 1.543667 -1.188339 -1.145386
v 1.662701 -0.443676 0.3446922
v 1.65509 -0.8430653 -1.208222
v 1.920628 -0.6139526 -1.145386
v -6.377171 -0.934536 0.81462
v -5.90155 -1.527859 -0.3362675
v -6.3339 -1.25145 0.5739508
v -5.778255 -1.328827 -0.3430328
v -6.1637 -1.100403 0.6321821
v -5.684879 -1.395973 -1.363899
v -5.672295 -1.285801 -0.2195349
v -5.569046 -1.186958 -1.328222
v -5.441963 -1.139496 -1.240209
v -2.807209 -0.3282089 0.1631565
v -2.486633 -1.040531 -0.4203329
v -2.760738 -0.6118431 0.02740002
v -2.341606 -0.8783722 -0.4553995
v -2.536682 -0.4605865 0.06151962
v -2.240517 -1.289833 -1.028856
v -2.149696 -0.8130722 -0.3690233
v -2.097641 -1.107742 -1.040661
v -1.883499 -1.048811 -0.9744887
v 3.592319 0.8284607 0.9301853
v 2.640747 0.4066753 0.006552696
v 3.187996 0.759119 0.7224817
v 2.934021 0.22225 -0.07766724
v 3.505165 0.4497414 0.724124
v 2.327209 0.1383018 -0.943397
v 3.117702 -0.05855942 0.009019852
v 2.650627 -0.04518509 -0.9929447
v 2.832592 -0.3546638 -0.9407806
vt 0.4052679 0.0363408
vt 0.4060937 0.03510213
vt 0.4052679 0.03510213
vt 0.4060937 0.0363408
vt 0.4052679 0.03757958
vt 0.4069196 0.03510213
vt 0.4060937 0.03757958
vt 0.4069196 0.0363408
vt 0.4069196 0.03757958
vt 0.4052679 0.0363408
vt 0.4060937 0.03510213
vt 0.4052679 0.03510213
vt 0.4060937 0.0363408
vt 0.4052679 0.03757958
vt 0.4069196 0.03510213
vt 0.4060937 0.03757958
vt 0.4069196 0.0363408
vt 0.4069196 0.03757958
vt 0.4052679 0.0363408
vt 0.4060937 0.03510213
vt 0.4052679 0.03510213
vt 0.4060937 0.0363408
vt 0.4052679 0.03757958
vt 0.4069196 0.03510213
vt 0.4060937 0.03757958
vt 0.4069196 0.0363408
vt 0.4069196 0.03757958
vt 0.4052679 0.0363408
vt 0.4060937 0.03510213
vt 0.4052679 0.03510213
vt 0.4060937 0.0363408
vt 0.4052679 0.03757958
vt 0.4069196 0.03510213
vt 0.4060937 0.03757958
vt 0.4069196 0.0363408
vt 0.4069196 0.03757958
vt 0.4052679 0.0363408
vt 0.4060937 0.03510213
vt 0.4052679 0.03510213
vt 0.4060937 0.0363408
vt 0.4052679 0.03757958
vt 0.4069196 0.03510213
vt 0.4060937 0.03757958
vt 0.4069196 0.0363408
vt 0.4069196 0.03757958
vt 0.4052679 0.0363408
vt 0.4060937 0.03510213
vt 0.4052679 0.03510213
vt 0.4060937 0.0363408
vt 0.4052679 0.03757958
vt 0.4069196 0.03510213
vt 0.4060937 0.03757958
vt 0.4069196 0.0363408
vt 0.4069196 0.03757958
vt 0.4052679 0.0363408
vt 0.4060937 0.03510213
vt 0.4052679 0.03510213
vt 0.4060937 0.0363408
vt 0.4052679 0.03757958
vt 0.4069196 0.03510213
vt 0.4060937 0.03757958
vt 0.4069196 0.0363408
vt 0.4069196 0.03757958
vt 0.4052679 0.0363408
vt 0.4060937 0.03510213
vt 0.4052679 0.03510213
vt 0.4060937 0.0363408
vt 0.4052679 0.03757958
vt 0.4069196 0.03510213
vt 0.4060937 0.03757958
vt 0.4069196 0.0363408
vt 0.4069196 0.03757958
vt 0.4052679 0.0363408
vt 0.4060937 0.03510213
vt 0.4052679 0.03510213
vt 0.4060937 0.0363408
vt 0.4052679 0.03757958
vt 0.4069196 0.03510213
vt 0.4060937 0.03757958
vt 0.4069196 0.0363408
vt 0.4069196 0.03757958
vt 0.4052679 0.0363408
vt 0.4060937 0.03510213
vt 0.4052679 0.03510213
vt 0.4060937 0.0363408
vt 0.4052679 0.03757958
vt 0.4069196 0.03510213
vt 0.4060937 0.03757958
vt 0.4069196 0.0363408
vt 0.4069196 0.03757958
vn 0.8410422 -0.1507301 0.5195464
vn 0.9026548 0.2314754 0.3628131
vn 0.857373 0.2836754 0.4294644
vn 0.9033121 -0.1591922 0.398353
vn 0.6160336 -0.6123439 0.4955176
vn 0.9438164 0.1699037 0.2834489
vn 0.7038752 -0.5670568 0.4277923
vn 0.939054 -0.1438308 0.3122344
vn 0.8225784 -0.4783187 0.3075321
vn -0.815533 -0.5770404 0.04393668
vn -0.563513 -0.8114329 -0.1550153
vn -0.5158799 -0.8504623 -0.1028678
vn -0.8416838 -0.5358502 -0.06658041
vn -0.9727719 -0.0908597 0.213212
vn -0.6208873 -0.7516742 -0.2224518
vn -0.9823852 -0.1423431 0.1210689
vn -0.8381209 -0.5269231 -0.1410866
vn -0.973459 -0.22572 -0.0377872
vn -0.6417931 -0.7411274 0.1970578
vn -0.3096412 -0.949375 0.05300419
vn -0.2587687 -0.9565845 0.1341078
vn -0.6511053 -0.7564734 0.06172452
vn -0.9239991 -0.3120805 0.2209785
vn -0.363706 -0.9306862 -0.03925737
vn -0.9115517 -0.3898586 0.1307049
vn -0.6354874 -0.7715185 -0.03025072
vn -0.8647811 -0.5018752 -0.01657939
vn -0.7958148 -0.198151 0.5722018
vn -0.7400934 -0.5366065 0.4053582
vn -0.649291 -0.5562534 0.5186553
vn -0.8741769 -0.2231737 0.4312866
vn -0.8210137 0.1892275 0.5386366
vn -0.8149917 -0.5054489 0.2833899
vn -0.8958607 0.1267789 0.4258646
vn -0.9232979 -0.23836 0.3011735
vn -0.9543663 0.05610758 0.2933205
vn -0.6908059 -0.5603855 0.4568976
vn -0.2721546 -0.9216855 0.2764556
vn -0.1894914 -0.9271683 0.3231905
vn -0.7378739 -0.5893443 0.3289614
vn -0.9139923 0.04571061 0.4031482
vn -0.3967971 -0.8962674 0.1981335
vn -0.9355206 -0.03502448 0.3515314
vn -0.7526383 -0.6070437 0.2550169
vn -0.9513371 -0.1708921 0.2564249
vn 0.7641276 -0.152804 0.6267056
vn 0.862438 0.2363051 0.4476165
vn 0.7721522 0.2960803 0.5622433
vn 0.8589711 -0.1717695 0.4823526
vn 0.5989089 -0.5702542 0.562244
vn 0.9318032 0.1700343 0.3206728
vn 0.7052378 -0.5497965 0.4476198
vn 0.9213665 -0.1842474 0.3422523
vn 0.7947547 -0.5152971 0.3206772
vn 0.7596112 -0.5053537 0.4094002
vn 0.9393762 -0.1864814 0.2877448
vn 0.9241272 -0.1175989 0.3635374
vn 0.7979366 -0.5299345 0.2871699
vn 0.4509452 -0.8074567 0.3803447
vn 0.9442016 -0.2713064 0.1867518
vn 0.52468 -0.795436 0.3033024
vn 0.8178866 -0.5398257 0.1991222
vn 0.6147055 -0.7646186 0.1936375
vn 0.4561113 -0.7671106 0.4511139
vn 0.8369476 -0.4330605 0.3346304
vn 0.7871276 -0.3517722 0.5066424
vn 0.5755584 -0.7986454 0.1757787
vn -0.3443268 -0.9351779 0.08295424
vn 0.8539128 -0.5083225 0.1115396
vn -0.09809393 -0.9942836 0.04216092
vn 0.6812357 -0.730811 0.04281818
vn 0.396671 -0.9168669 -0.04480055
vn 0.2991259 -0.6088436 0.7347333
vn 0.6734943 -0.4137729 0.6125337
vn 0.6315952 -0.301011 0.7144789
vn 0.3784133 -0.6977518 0.6082318
vn -0.0948718 -0.7914318 0.60385
vn 0.6987979 -0.5171264 0.4942284
vn 0.01430742 -0.8587768 0.5121502
vn 0.4391418 -0.7589506 0.4807791
vn 0.1241146 -0.9050864 0.4067115
vn -0.5391123 -0.5373546 0.6485431
vn -0.3270502 -0.8100091 0.4867479
vn -0.2320993 -0.7720398 0.5916795
vn -0.6020961 -0.6090986 0.5162162
vn -0.7634446 -0.221546 0.6066875
vn -0.4149597 -0.8305863 0.3713959
vn -0.8022238 -0.3214633 0.5030887
vn -0.6445372 -0.6566344 0.3916672
vn -0.8240837 -0.4214281 0.3785293
g Color_05_0
f 3/3/3 2/2/2 1/1/1
f 2/2/2 4/4/4 1/1/1
f 1/1/1 4/4/4 5/5/5
f 2/2/2 6/6/6 4/4/4
f 4/4/4 7/7/7 5/5/5
f 6/6/6 8/8/8 4/4/4
f 4/4/4 8/8/8 7/7/7
f 8/8/8 9/9/9 7/7/7
f 12/12/12 11/11/11 10/10/10
f 11/11/11 13/13/13 10/10/10
f 10/10/10 13/13/13 14/14/14
f 11/11/11 15/15/15 13/13/13
f 13/13/13 16/16/16 14/14/14
f 15/15/15 17/17/17 13/13/13
f 13/13/13 17/17/17 16/16/16
f 17/17/17 18/18/18 16/16/16
f 21/21/21 20/20/20 19/19/19
f 20/20/20 22/22/22 19/19/19
f 19/19/19 22/22/22 23/23/23
f 20/20/20 24/24/24 22/22/22
f 22/22/22 25/25/25 23/23/23
f 24/24/24 26/26/26 22/22/22
f 22/22/22 26/26/26 25/25/25
f 26/26/26 27/27/27 25/25/25
f 30/30/30 29/29/29 28/28/28
f 29/29/29 31/31/31 28/28/28
f 28/28/28 31/31/31 32/32/32
f 29/29/29 33/33/33 31/31/31
f 31/31/31 34/34/34 32/32/32
f 33/33/33 35/35/35 31/31/31
f 31/31/31 35/35/35 34/34/34
f 35/35/35 36/36/36 34/34/34
f 39/39/39 38/38/38 37/37/37
f 38/38/38 40/40/40 37/37/37
f 37/37/37 40/40/40 41/41/41
f 38/38/38 42/42/42 40/40/40
f 40/40/40 43/43/43 41/41/41
f 42/42/42 44/44/44 40/40/40
f 40/40/40 44/44/44 43/43/43
f 44/44/44 45/45/45 43/43/43
f 48/48/48 47/47/47 46/46/46
f 47/47/47 49/49/49 46/46/46
f 46/46/46 49/49/49 50/50/50
f 47/47/47 51/51/51 49/49/49
f 49/49/49 52/52/52 50/50/50
f 51/51/51 53/53/53 49/49/49
f 49/49/49 53/53/53 52/52/52
f 53/53/53 54/54/54 52/52/52
f 57/57/57 56/56/56 55/55/55
f 56/56/56 58/58/58 55/55/55
f 55/55/55 58/58/58 59/59/59
f 56/56/56 60/60/60 58/58/58
f 58/58/58 61/61/61 59/59/59
f 60/60/60 62/62/62 58/58/58
f 58/58/58 62/62/62 61/61/61
f 62/62/62 63/63/63 61/61/61
f 66/66/66 65/65/65 64/64/64
f 65/65/65 67/67/67 64/64/64
f 64/64/64 67/67/67 68/68/68
f 65/65/65 69/69/69 67/67/67
f 67/67/67 70/70/70 68/68/68
f 69/69/69 71/71/71 67/67/67
f 67/67/67 71/71/71 70/70/70
f 71/71/71 72/72/72 70/70/70
f 75/75/75 74/74/74 73/73/73
f 74/74/74 76/76/76 73/73/73
f 73/73/73 76/76/76 77/77/77
f 74/74/74 78/78/78 76/76/76
f 76/76/76 79/79/79 77/77/77
f 78/78/78 80/80/80 76/76/76
f 76/76/76 80/80/80 79/79/79
f 80/80/80 81/81/81 79/79/79
f 84/84/84 83/83/83 82/82/82
f 83/83/83 85/85/85 82/82/82
f 82/82/82 85/85/85 86/86/86
f 83/83/83 87/87/87 85/85/85
f 85/85/85 88/88/88 86/86/86
f 87/87/87 89/89/89 85/85/85
f 85/85/85 89/89/89 88/88/88
f 89/89/89 90/90/90 88/88/88
