g Color_Cloth_01
v 7.368045 2.105288 4.323757
v 7.236268 1.112926 3.122484
v 5.537302 1.238191 4.26576
v 5.393531 0.2878761 3.145634
v 3.041365 0.521569 4.286613
v 7.141481 0.3529942 1.805304
v 2.938472 -0.3916028 3.202469
v 4.005964E-06 -0.6650534 3.232183
v 4.070869E-06 0.2310429 4.308626
v -2.938464 -0.3916032 3.202471
v -3.041357 0.5215681 4.286613
v -5.393524 0.2878747 3.145634
v -5.537295 1.23819 4.26576
v -7.23626 1.112924 3.12249
v -7.368037 2.105286 4.323761
v -7.141473 0.3529923 1.805305
v -5.304383 -0.4685798 1.890968
v -7.085146 -0.08347726 0.369627
v -2.879726 -1.145658 1.975466
v -5.270453 -0.9351265 0.5114231
v -7.052109 -0.1187856 -1.160927
v 3.899348E-06 -1.417549 2.01145
v -2.864203 -1.641818 0.6221199
v -5.280941 -1.028383 -0.9588318
v 2.879734 -1.145658 1.975462
v -5.316006 -0.7108221 -2.466299
v -7.01416 0.2783802 -2.742205
v 3.740339E-06 -1.926667 0.664772
v -2.886198 -1.793664 -0.8178253
v 5.304391 -0.4685786 1.890966
v -5.352008 -0.009541988 -3.952013
v -6.959046 1.076258 -4.323757
v -3.003655 -0.9634831 -3.718599
v 2.86421 -1.641817 0.622118
v 5.27046 -0.9351254 0.5114231
v 7.085154 -0.08347559 0.3696251
v 3.522997E-06 -2.105288 -0.7666645
v -2.936282 -1.559846 -2.286001
v 3.249816E-06 -1.91136 -2.223221
v 2.932806E-06 -1.367357 -3.639839
v 2.886204 -1.793663 -0.8178253
v 5.280949 -1.028382 -0.9588337
v 7.052117 -0.1187844 -1.160929
v 2.936288 -1.559845 -2.286003
v 3.003661 -0.9634824 -3.718601
v 5.316012 -0.7108209 -2.466299
v 7.014166 0.2783821 -2.742207
v 5.352014 -0.009541035 -3.952015
v 6.959052 1.07626 -4.323759
v -0.02191913 6.986011 7.027681
v 0.2052589 6.725225 6.670218
v -0.213151 6.135955 6.62084
v -0.1086117 6.308299 7.034029
v -0.439985 7.13287 7.392752
v 0.4933217 5.472798 6.682131
v -0.3154171 6.344119 7.413662
v -0.2579708 7.563866 7.744963
v -0.625182 6.195923 7.781389
v 0.2881227 5.72278 7.072878
v 0.6251895 4.92029 6.658123
v 0.1164723 5.732516 7.451635
v 0.06910435 5.54611 7.82683
v 0.4533326 5.178654 7.087582
v 0.3501447 4.391724 6.620649
v 0.3199145 5.163649 7.48917
v 0.2593668 4.947165 7.893099
v 0.281257 4.65907 7.081728
v 0.2079753 4.594368 7.512449
v 0.1423012 4.296101 7.975094
v -0.07572483 4.260823 7.077829
v -0.1001722 3.000772 6.474733
v -0.1044228 4.074901 7.502203
v -0.1208635 2.786655 8.161818
v 2.412376 -0.290818 3.675104
v 4.363171 0.02566266 3.552462
v 4.292336 -0.9646621 2.178244
v 2.3657 -1.260676 2.30584
v 0.07746506 -0.3742692 3.725046
v 4.265373 -1.577556 0.4858971
v 0.07746506 -1.335768 2.35343
v -2.25745 -0.2908189 3.675104
v 2.353363 -1.904824 0.6221981
v 4.273708 -1.667231 -1.406733
v -2.210775 -1.260677 2.30584
v -4.208242 0.02566266 3.552462
v -4.137411 -0.9646611 2.178244
v 0.07746506 -2.003143 0.6727905
v 2.370842 -2.075651 -1.265381
v 4.301571 -1.145045 -3.304478
v 2.410637 -1.678034 -3.170662
v -2.198442 -1.904824 0.6221981
v -4.110453 -1.577556 0.4858971
v 0.07746506 -2.215502 -1.214197
v 0.07746506 -1.873007 -3.125294
v -2.215918 -2.075651 -1.265381
v -4.118788 -1.667231 -1.406733
v -2.255716 -1.678034 -3.170662
v -4.146646 -1.145045 -3.304478
vt 0.9862067 0.99
vt 0.9862067 0.9101186
vt 0.8235053 0.99
vt 0.8235053 0.9101186
vt 0.6608046 0.99
vt 0.9862067 0.8302372
vt 0.6608046 0.9101186
vt 0.4981035 0.9101186
vt 0.4981035 0.99
vt 0.3354024 0.9101186
vt 0.3354024 0.99
vt 0.1727011 0.9101186
vt 0.1727011 0.99
vt 0.00999999 0.9101186
vt 0.00999999 0.99
vt 0.00999999 0.8302372
vt 0.1727011 0.8302372
vt 0.00999999 0.7503557
vt 0.3354024 0.8302372
vt 0.1727011 0.7503557
vt 0.00999999 0.6704741
vt 0.4981035 0.8302372
vt 0.3354024 0.7503557
vt 0.1727011 0.6704741
vt 0.6608046 0.8302372
vt 0.1727011 0.5905926
vt 0.00999999 0.5905926
vt 0.4981035 0.7503557
vt 0.3354024 0.6704741
vt 0.8235053 0.8302372
vt 0.1727011 0.5107112
vt 0.00999999 0.5107112
vt 0.3354024 0.5107112
vt 0.6608046 0.7503557
vt 0.8235053 0.7503557
vt 0.9862067 0.7503557
vt 0.4981035 0.6704741
vt 0.3354024 0.5905926
vt 0.4981035 0.5905926
vt 0.4981035 0.5107112
vt 0.6608046 0.6704741
vt 0.8235053 0.6704741
vt 0.9862067 0.6704741
vt 0.6608046 0.5905926
vt 0.6608046 0.5107112
vt 0.8235053 0.5905926
vt 0.9862067 0.5905926
vt 0.8235053 0.5107112
vt 0.9862067 0.5107112
vt 0.439172 0.2017401
vt 0.4348752 0.1236572
vt 0.3462827 0.1210377
vt 0.3533965 0.2069806
vt 0.4353923 0.2966684
vt 0.2572241 0.1187016
vt 0.3489161 0.2935897
vt 0.4345815 0.3666656
vt 0.3459287 0.3746244
vt 0.2600463 0.2010003
vt 0.1846404 0.1186244
vt 0.2600081 0.2909977
vt 0.2568104 0.3770237
vt 0.1896999 0.1915003
vt 0.1200723 0.114713
vt 0.1877441 0.2816408
vt 0.1784098 0.381566
vt 0.1206119 0.1921887
vt 0.119162 0.2891787
vt 0.1118853 0.3866849
vt 0.05215929 0.2174876
vt 0.04789323 0.1141061
vt 0.05076817 0.3125128
vt 0.04806148 0.3924197
vt 0.8792617 0.4946053
vt 0.9931784 0.4946053
vt 0.9931784 0.3721054
vt 0.8792617 0.3721054
vt 0.7559564 0.4946053
vt 0.9931784 0.2489207
vt 0.7559564 0.3721054
vt 0.6206748 0.4946053
vt 0.8792617 0.2489207
vt 0.9931784 0.1242762
vt 0.6206748 0.3721054
vt 0.5031782 0.4946053
vt 0.5031782 0.3721054
vt 0.7559564 0.2489207
vt 0.8792617 0.1242762
vt 0.9931784 0.004605315
vt 0.8792617 0.004605315
vt 0.6206748 0.2489207
vt 0.5031782 0.2489207
vt 0.7559564 0.1242762
vt 0.7559564 0.004605315
vt 0.6206748 0.1242762
vt 0.5031782 0.1242762
vt 0.6206748 0.004605315
vt 0.5031782 0.004605315
vn 0.3342083 -0.7443036 0.5782014
vn 0.3511258 -0.7745692 0.5260735
vn 0.291606 -0.7487283 0.5952915
vn 0.2969804 -0.7897388 0.5367637
vn 0.1591853 -0.762737 0.6268111
vn 0.3947574 -0.8415127 0.368813
vn 0.158398 -0.8073081 0.5684749
vn 0 -0.8138573 0.5810648
vn 0 -0.7685126 0.6398346
vn -0.1583977 -0.8073079 0.5684752
vn -0.1591852 -0.7627369 0.6268114
vn -0.2969798 -0.7897389 0.5367638
vn -0.291605 -0.7487282 0.595292
vn -0.3511245 -0.7745696 0.5260738
vn -0.3342068 -0.7443035 0.5782024
vn -0.3947568 -0.841513 0.3688128
vn -0.3295334 -0.8620977 0.3849613
vn -0.4320014 -0.8887723 0.1531618
vn -0.1751579 -0.889856 0.4212789
vn -0.3577676 -0.9167665 0.1775993
vn -0.4506332 -0.887577 -0.09558698
vn 0 -0.8999667 0.4359588
vn -0.1923323 -0.9569385 0.2174326
vn -0.3710917 -0.9270074 -0.0542968
vn 0.1751582 -0.8898562 0.4212786
vn -0.3711839 -0.8848487 -0.2815408
vn -0.4460713 -0.8319581 -0.3299485
vn 0 -0.9725198 0.2328198
vn -0.2042268 -0.9785873 -0.02565929
vn 0.3295336 -0.8620978 0.3849612
vn -0.3831194 -0.8334163 -0.3982923
vn -0.4408677 -0.7950966 -0.4164817
vn -0.2151643 -0.9032502 -0.3712728
vn 0.1923325 -0.9569385 0.2174325
vn 0.3577676 -0.9167665 0.1775995
vn 0.4320015 -0.8887722 0.1531619
vn 0 -0.9999224 -0.01245576
vn -0.2043404 -0.9444241 -0.2575036
vn 0 -0.9671361 -0.254259
vn 0 -0.9292899 -0.3693511
vn 0.204227 -0.9785872 -0.02565925
vn 0.3710917 -0.9270074 -0.05429689
vn 0.4506332 -0.887577 -0.09558728
vn 0.2043405 -0.944424 -0.2575037
vn 0.2151644 -0.9032502 -0.3712726
vn 0.371184 -0.8848487 -0.2815408
vn 0.4460715 -0.8319579 -0.3299488
vn 0.3831196 -0.8334164 -0.3982919
vn 0.440868 -0.7950965 -0.4164816
vn 0.8336496 -0.1235828 0.5382896
vn 0.8696311 -0.35823 0.339725
vn 0.9565906 0.2911568 -0.01273574
vn 0.9172401 0.2165008 0.3343621
vn 0.9271058 -0.05841477 0.3702196
vn 0.9155346 0.3822551 0.1252091
vn 0.8429907 0.254947 0.4736757
vn 0.9715177 -0.1036372 0.2131025
vn 0.8458379 0.3009298 0.4404537
vn 0.8589739 0.4937818 0.1354382
vn 0.8990554 -0.1713349 0.4029188
vn 0.7819756 0.4714172 0.4077745
vn 0.8046828 0.4355049 0.4035109
vn 0.9455827 0.0362861 0.3233522
vn 0.754819 -0.4139501 0.5088159
vn 0.9626253 0.09200536 0.2547303
vn 0.9921651 -0.01698871 0.1237739
vn 0.8519627 -0.44259 0.2797741
vn 0.9289742 -0.3701321 0.003031318
vn 0.9269654 -0.3107817 -0.2101193
vn 0.8016824 -0.5254947 0.2848873
vn 0.7390994 -0.3024221 0.6018912
vn 0.8772079 -0.4159143 -0.2398371
vn 0.9038258 -0.2041011 -0.3760875
vn 0.1042417 -0.8129257 0.572962
vn 0.1640201 -0.8059464 0.5688127
vn 0.1700189 -0.8704165 0.4620269
vn 0.1053374 -0.8783958 0.4661811
vn 0 -0.817765 0.5755522
vn 0.1856091 -0.9610516 0.2047662
vn 0 -0.8810871 0.4729542
vn -0.1042418 -0.8129257 0.572962
vn 0.1163815 -0.9680147 0.2222676
vn 0.2095854 -0.9737411 -0.08889426
vn -0.1053375 -0.8783958 0.4661812
vn -0.1640207 -0.8059463 0.5688127
vn -0.1700195 -0.8704163 0.4620269
vn 0 -0.9719331 0.2352573
vn 0.1338017 -0.9892475 -0.05904619
vn 0.2191758 -0.949226 -0.2256814
vn 0.1482073 -0.9665626 -0.2092641
vn -0.1163815 -0.9680147 0.2222676
vn -0.1856093 -0.9610515 0.2047662
vn 0 -0.999101 -0.04239147
vn 0 -0.9818403 -0.1897092
vn -0.1338014 -0.9892476 -0.05904616
vn -0.2095855 -0.9737411 -0.08889418
vn -0.1482073 -0.9665626 -0.2092641
vn -0.219176 -0.9492258 -0.2256813
g Color_Cloth_01_0
f 3/3/3 2/2/2 1/1/1
f 4/4/4 2/2/2 3/3/3
f 5/5/5 4/4/4 3/3/3
f 4/4/4 6/6/6 2/2/2
f 7/7/7 4/4/4 5/5/5
f 8/8/8 7/7/7 5/5/5
f 9/9/9 8/8/8 5/5/5
f 10/10/10 8/8/8 9/9/9
f 11/11/11 10/10/10 9/9/9
f 12/12/12 10/10/10 11/11/11
f 13/13/13 12/12/12 11/11/11
f 14/14/14 12/12/12 13/13/13
f 15/15/15 14/14/14 13/13/13
f 14/14/14 16/16/16 12/12/12
f 16/16/16 17/17/17 12/12/12
f 12/12/12 17/17/17 10/10/10
f 16/16/16 18/18/18 17/17/17
f 10/10/10 19/19/19 8/8/8
f 17/17/17 19/19/19 10/10/10
f 18/18/18 20/20/20 17/17/17
f 17/17/17 20/20/20 19/19/19
f 18/18/18 21/21/21 20/20/20
f 8/8/8 22/22/22 7/7/7
f 19/19/19 22/22/22 8/8/8
f 20/20/20 23/23/23 19/19/19
f 19/19/19 23/23/23 22/22/22
f 21/21/21 24/24/24 20/20/20
f 20/20/20 24/24/24 23/23/23
f 22/22/22 25/25/25 7/7/7
f 7/7/7 25/25/25 4/4/4
f 21/21/21 26/26/26 24/24/24
f 27/27/27 26/26/26 21/21/21
f 23/23/23 28/28/28 22/22/22
f 22/22/22 28/28/28 25/25/25
f 24/24/24 29/29/29 23/23/23
f 24/24/24 26/26/26 29/29/29
f 23/23/23 29/29/29 28/28/28
f 25/25/25 30/30/30 4/4/4
f 30/30/30 6/6/6 4/4/4
f 27/27/27 31/31/31 26/26/26
f 32/32/32 31/31/31 27/27/27
f 31/31/31 33/33/33 26/26/26
f 28/28/28 34/34/34 25/25/25
f 25/25/25 34/34/34 30/30/30
f 30/30/30 35/35/35 6/6/6
f 34/34/34 35/35/35 30/30/30
f 35/35/35 36/36/36 6/6/6
f 29/29/29 37/37/37 28/28/28
f 28/28/28 37/37/37 34/34/34
f 26/26/26 38/38/38 29/29/29
f 26/26/26 33/33/33 38/38/38
f 29/29/29 38/38/38 37/37/37
f 38/38/38 33/33/33 39/39/39
f 38/38/38 39/39/39 37/37/37
f 33/33/33 40/40/40 39/39/39
f 37/37/37 41/41/41 34/34/34
f 34/34/34 41/41/41 35/35/35
f 37/37/37 39/39/39 41/41/41
f 35/35/35 42/42/42 36/36/36
f 41/41/41 42/42/42 35/35/35
f 42/42/42 43/43/43 36/36/36
f 39/39/39 40/40/40 44/44/44
f 39/39/39 44/44/44 41/41/41
f 41/41/41 44/44/44 42/42/42
f 40/40/40 45/45/45 44/44/44
f 42/42/42 46/46/46 43/43/43
f 44/44/44 46/46/46 42/42/42
f 44/44/44 45/45/45 46/46/46
f 46/46/46 47/47/47 43/43/43
f 45/45/45 48/48/48 46/46/46
f 46/46/46 48/48/48 47/47/47
f 48/48/48 49/49/49 47/47/47
f 52/52/52 51/51/51 50/50/50
f 53/53/53 52/52/52 50/50/50
f 53/53/53 50/50/50 54/54/54
f 55/55/55 52/52/52 53/53/53
f 56/56/56 53/53/53 54/54/54
f 56/56/56 54/54/54 57/57/57
f 58/58/58 56/56/56 57/57/57
f 59/59/59 55/55/55 53/53/53
f 59/59/59 53/53/53 56/56/56
f 60/60/60 55/55/55 59/59/59
f 61/61/61 56/56/56 58/58/58
f 61/61/61 59/59/59 56/56/56
f 62/62/62 61/61/61 58/58/58
f 63/63/63 60/60/60 59/59/59
f 63/63/63 59/59/59 61/61/61
f 64/64/64 60/60/60 63/63/63
f 65/65/65 61/61/61 62/62/62
f 65/65/65 63/63/63 61/61/61
f 66/66/66 65/65/65 62/62/62
f 67/67/67 64/64/64 63/63/63
f 67/67/67 63/63/63 65/65/65
f 68/68/68 65/65/65 66/66/66
f 68/68/68 67/67/67 65/65/65
f 69/69/69 68/68/68 66/66/66
f 70/70/70 64/64/64 67/67/67
f 70/70/70 67/67/67 68/68/68
f 71/71/71 64/64/64 70/70/70
f 72/72/72 70/70/70 68/68/68
f 72/72/72 68/68/68 69/69/69
f 73/73/73 72/72/72 69/69/69
f 76/76/76 75/75/75 74/74/74
f 77/77/77 76/76/76 74/74/74
f 77/77/77 74/74/74 78/78/78
f 79/79/79 76/76/76 77/77/77
f 80/80/80 77/77/77 78/78/78
f 80/80/80 78/78/78 81/81/81
f 82/82/82 79/79/79 77/77/77
f 82/82/82 77/77/77 80/80/80
f 83/83/83 79/79/79 82/82/82
f 84/84/84 80/80/80 81/81/81
f 84/84/84 81/81/81 85/85/85
f 86/86/86 84/84/84 85/85/85
f 87/87/87 82/82/82 80/80/80
f 87/87/87 80/80/80 84/84/84
f 88/88/88 83/83/83 82/82/82
f 88/88/88 82/82/82 87/87/87
f 89/89/89 83/83/83 88/88/88
f 90/90/90 89/89/89 88/88/88
f 91/91/91 84/84/84 86/86/86
f 91/91/91 87/87/87 84/84/84
f 92/92/92 91/91/91 86/86/86
f 93/93/93 88/88/88 87/87/87
f 90/90/90 88/88/88 93/93/93
f 93/93/93 87/87/87 91/91/91
f 94/94/94 90/90/90 93/93/93
f 95/95/95 91/91/91 92/92/92
f 95/95/95 93/93/93 91/91/91
f 94/94/94 93/93/93 95/95/95
f 96/96/96 95/95/95 92/92/92
f 97/97/97 94/94/94 95/95/95
f 97/97/97 95/95/95 96/96/96
f 98/98/98 97/97/97 96/96/96
