g Color_Cloth_05
v -0.8532353 2.297509 0.1150342
v -0.475495 2.655758 -0.04606235
v -0.8502038 2.239759 -0.101467
v -0.8502038 2.239759 -0.101467
v -0.9565556 1.528919 -0.131874
v -0.9587362 1.627624 0.4003927
v -0.8532353 2.297509 0.1150342
v -0.9565556 1.528919 -0.131874
v -0.5366116 0.8050746 0.5018597
v -0.9587362 1.627624 0.4003927
v -0.5528686 0.7532367 -0.2529106
v -0.2243765 0.4170036 -0.4130783
v -0.1940298 0.4157113 0.4391613
v 0.6179574 -0.0679398 0.1695213
v 0.5761182 0.009136195 -0.6714935
v 0.9173304 -0.6283145 -0.7066021
v 0.9225535 -1.424644 0.4838008
v 0.9587362 -0.7142082 0.2360515
v 0.9135192 -1.371574 -0.69973
v 0.6693889 -2.093005 -0.6825677
v 0.6184724 -2.080186 0.6498736
v 0.2275294 -2.605021 0.7066001
v 0.3749212 -2.655758 -0.6259996
v 0.9173304 -0.6283145 -0.7066021
v 0.9587362 -0.7142082 0.2360515
v 0.6179574 -0.0679398 0.1695213
v 0.5761182 0.009136195 -0.6714935
vt 0.4264689 0.2714639
vt 0.4532145 0.2434849
vt 0.4221577 0.2338632
vt 0.4221577 0.2338632
vt 0.3690858 0.2285809
vt 0.3764532 0.3210227
vt 0.4264689 0.2714639
vt 0.3690858 0.2285809
vt 0.3150409 0.3386427
vt 0.3764532 0.3210227
vt 0.3111694 0.2075604
vt 0.2860677 0.1797441
vt 0.2859721 0.3277545
vt 0.2498613 0.2809254
vt 0.2556168 0.1348652
vt 0.2080215 0.1287689
vt 0.1485686 0.3355063
vt 0.2016103 0.2924802
vt 0.1525309 0.1299606
vt 0.09866679 0.1329438
vt 0.09962653 0.3643486
vt 0.06044089 0.3742005
vt 0.05665314 0.1298205
vt 0.2080215 0.1287689
vt 0.2016103 0.2924802
vt 0.2498613 0.2809254
vt 0.2556168 0.1348652
vn 0.7169735 -0.670985 0.1890184
vn 0.7169735 -0.670985 0.1890184
vn 0.7169735 -0.670985 0.1890184
vn 0.9887559 -0.1448509 0.03714909
vn 0.9887559 -0.1448509 0.03714909
vn 0.9887559 -0.1448509 0.03714908
vn 0.9887559 -0.1448509 0.03714908
vn 0.8863114 0.4587359 -0.06335109
vn 0.8172377 0.5737776 -0.05386826
vn 0.8863114 0.4587359 -0.06335109
vn 0.8009488 0.5964909 -0.05176513
vn 0.5934672 0.8048351 -0.006082071
vn 0.6288757 0.7773556 -0.01528822
vn 0.4886571 0.8722571 0.01953821
vn 0.4886571 0.8722571 0.01953821
vn 0.9991548 -0.0320068 -0.02579515
vn 0.9708601 -0.2396062 -0.004417689
vn 0.9991548 -0.0320068 -0.02579515
vn 0.980345 -0.1970901 -0.008902743
vn 0.8939638 -0.4462196 0.04143286
vn 0.8876582 -0.4581543 0.04645053
vn 0.8471236 -0.5259938 0.07557925
vn 0.8471236 -0.5259938 0.07557925
vn 0.8830934 0.4691944 0.001654638
vn 0.8830934 0.4691944 0.001654638
vn 0.8830934 0.4691944 0.001654638
vn 0.8830934 0.4691944 0.001654638
g Color_Cloth_05_0
f 3/3/3 2/2/2 1/1/1
f 6/6/6 5/5/5 4/4/4
f 7/7/7 6/6/6 4/4/4
f 10/10/10 9/9/9 8/8/8
f 9/9/9 11/11/11 8/8/8
f 11/11/11 9/9/9 12/12/12
f 9/9/9 13/13/13 12/12/12
f 13/13/13 14/14/14 12/12/12
f 14/14/14 15/15/15 12/12/12
f 18/18/18 17/17/17 16/16/16
f 17/17/17 19/19/19 16/16/16
f 19/19/19 17/17/17 20/20/20
f 17/17/17 21/21/21 20/20/20
f 21/21/21 22/22/22 20/20/20
f 22/22/22 23/23/23 20/20/20
f 26/26/26 25/25/25 24/24/24
f 27/27/27 26/26/26 24/24/24
