g Color_Cloth_01
v -0.02382907 1.967125 -0.3893623
v 0.2229681 1.683819 -0.8683281
v -0.2315757 1.043659 -0.9344864
v -0.1180085 1.230886 -0.3808594
v -0.4779992 2.126668 0.09978867
v 0.5359077 0.3232322 -0.8523674
v -0.3426737 1.269801 0.1278038
v -0.2802663 2.594885 0.5717163
v -0.6791899 1.108808 0.6205254
v 0.3129878 0.5948024 -0.3288078
v 0.6791636 -0.2769909 -0.8845348
v 0.1265136 0.6053801 0.1786919
v 0.07505479 0.4028759 0.6814098
v 0.4924651 0.003685951 -0.3091068
v 0.3803659 -0.8512039 -0.9347458
v 0.3475249 -0.01261568 0.228981
v 0.2817482 -0.2477942 0.7702026
v 0.3055291 -0.5607691 -0.3169479
v 0.2259185 -0.6310587 0.2601719
v 0.1545728 -0.9550848 0.8800678
v -0.08228181 -0.9934096 -0.3221722
v -0.1088404 -2.362278 -1.130255
v -0.1134583 -1.195387 0.2464447
v -0.1313191 -2.594886 1.130255
v 5.960601 -3.386801 -3.361712
v 5.096944 -4.035795 -4.987596
v 4.161164 -4.01037 -3.545389
v 3.484592 -4.489422 -5.07114
v 2.095378 -4.449507 -3.656
v 4.5198 -4.408117 -6.672046
v 1.719662 -4.792043 -5.121269
v -0.132141 -4.898701 -5.13796
v -0.1321411 -4.60908 -3.692846
v -1.983944 -4.792043 -5.121269
v -2.35966 -4.449507 -3.656
v -3.748874 -4.489422 -5.07114
v -4.425447 -4.01037 -3.545389
v -5.361226 -4.035795 -4.987596
v -6.224883 -3.386801 -3.361712
v -4.784082 -4.408117 -6.672046
v -3.318512 -4.764725 -6.705371
v -4.629188 -4.474011 -8.43484
v -1.752873 -4.995942 -6.725435
v -3.203999 -4.809061 -8.439788
v -4.955316 -4.19694 -10.25742
v -0.132141 -5.076181 -6.732134
v -1.691794 -5.024399 -8.442966
v -3.43882 -4.590512 -10.23578
v 1.488591 -4.995942 -6.725435
v -4.011369 -4.076467 -12.03704
v -5.727115 -3.527067 -12.10239
v -0.1321409 -5.098779 -8.444066
v -1.815082 -4.845605 -10.22335
v 3.05423 -4.764725 -6.705371
v -4.856319 -3.242317 -13.78927
v -6.801521 -2.421265 -13.94023
v -2.59241 -3.818452 -13.70294
v 1.427513 -5.024399 -8.442966
v 2.939717 -4.809061 -8.439787
v 4.364906 -4.474011 -8.434839
v -0.1321408 -4.934123 -10.21931
v -2.121636 -4.442541 -11.99937
v -0.1321407 -4.571529 -11.98713
v -0.1321407 -4.027643 -13.67517
v 1.5508 -4.845605 -10.22335
v 3.174539 -4.590512 -10.23578
v 4.691034 -4.19694 -10.25742
v 1.857355 -4.442541 -11.99937
v 2.328129 -3.818452 -13.70294
v 3.747087 -4.076467 -12.03704
v 5.462833 -3.527067 -12.10239
v 4.592038 -3.242317 -13.78927
v 6.537239 -2.421265 -13.94023
v 2.112619 -4.810989 -5.028965
v 3.935536 -4.379189 -5.013576
v 3.993526 -4.517482 -6.37678
v 2.144621 -4.955437 -6.392387
v -0.1321299 -4.995793 -5.035551
v 4.025114 -4.559218 -8.061949
v -0.1321298 -5.142876 -6.399067
v -2.376885 -4.810991 -5.028965
v 2.162053 -5.000527 -8.077677
v 4.008227 -4.437633 -9.946675
v -2.408886 -4.95544 -6.392387
v -4.199808 -4.379193 -5.013577
v -4.257797 -4.517485 -6.37678
v -0.1321297 -5.189401 -8.084408
v 2.152734 -4.877148 -9.962339
v 3.935536 -4.136479 -11.82393
v 2.112619 -4.568278 -11.83932
v -2.426318 -5.00053 -8.077677
v -4.289385 -4.559222 -8.061949
v -0.1321297 -5.065255 -9.969043
v -0.1321299 -4.753082 -11.84591
v -2.416999 -4.877151 -9.962339
v -4.272498 -4.437636 -9.946675
v -2.376885 -4.568281 -11.83932
v -4.199808 -4.136482 -11.82394
vt 0.4455317 0.3014069
vt 0.4455317 0.3933164
vt 0.3651608 0.3933164
vt 0.3651608 0.3014069
vt 0.4455317 0.2094972
vt 0.2847897 0.3933164
vt 0.3651608 0.2094972
vt 0.4455317 0.1175874
vt 0.3651608 0.1175874
vt 0.2847897 0.3014069
vt 0.2044186 0.3933164
vt 0.2847897 0.2094972
vt 0.2847897 0.1175874
vt 0.2044186 0.3014069
vt 0.1240476 0.3933164
vt 0.2044186 0.2094972
vt 0.2044186 0.1175874
vt 0.1240476 0.3014069
vt 0.1240476 0.2094972
vt 0.1240476 0.1175874
vt 0.04367651 0.3014069
vt 0.04367651 0.3933164
vt 0.04367651 0.2094972
vt 0.04367651 0.1175874
vt 0.9862067 0.99
vt 0.9862067 0.9101185
vt 0.8235055 0.99
vt 0.8235055 0.9101185
vt 0.6608047 0.99
vt 0.9862067 0.830237
vt 0.6608047 0.9101185
vt 0.4981034 0.9101185
vt 0.4981034 0.99
vt 0.3354023 0.9101185
vt 0.3354023 0.99
vt 0.1727011 0.9101185
vt 0.1727011 0.99
vt 0.01000002 0.9101185
vt 0.01000002 0.99
vt 0.01000002 0.830237
vt 0.1727011 0.830237
vt 0.01000002 0.7503554
vt 0.3354023 0.830237
vt 0.1727011 0.7503554
vt 0.01000002 0.670474
vt 0.4981034 0.830237
vt 0.3354023 0.7503554
vt 0.1727011 0.670474
vt 0.6608047 0.830237
vt 0.1727011 0.5905925
vt 0.01000002 0.5905925
vt 0.4981034 0.7503554
vt 0.3354023 0.670474
vt 0.8235055 0.830237
vt 0.1727011 0.5107112
vt 0.01000002 0.5107112
vt 0.3354023 0.5107112
vt 0.6608047 0.7503554
vt 0.8235055 0.7503554
vt 0.9862067 0.7503554
vt 0.4981034 0.670474
vt 0.3354023 0.5905925
vt 0.4981034 0.5905925
vt 0.4981034 0.5107112
vt 0.6608047 0.670474
vt 0.8235055 0.670474
vt 0.9862067 0.670474
vt 0.6608047 0.5905925
vt 0.6608047 0.5107112
vt 0.8235055 0.5905925
vt 0.9862067 0.5905925
vt 0.8235055 0.5107112
vt 0.9862067 0.5107112
vt 0.8792617 0.4946053
vt 0.9931784 0.4946053
vt 0.9931784 0.3721054
vt 0.8792617 0.3721054
vt 0.7559564 0.4946053
vt 0.9931784 0.2489207
vt 0.7559564 0.3721054
vt 0.6206748 0.4946053
vt 0.8792617 0.2489207
vt 0.9931784 0.1242762
vt 0.6206748 0.3721054
vt 0.5031782 0.4946053
vt 0.5031782 0.3721054
vt 0.7559564 0.2489207
vt 0.8792617 0.1242762
vt 0.9931784 0.004605315
vt 0.8792617 0.004605315
vt 0.6206748 0.2489207
vt 0.5031782 0.2489207
vt 0.7559564 0.1242762
vt 0.7559564 0.004605315
vt 0.6206748 0.1242762
vt 0.5031782 0.1242762
vt 0.6206748 0.004605315
vt 0.5031782 0.004605315
vn 0.8785546 -0.1310508 0.459312
vn 0.8873529 -0.3655303 0.2810561
vn 0.9636002 0.2673436 0.001462552
vn 0.9343247 0.2230952 0.2779674
vn 0.9458156 -0.05549425 0.3199269
vn 0.9136742 0.3967356 0.0883198
vn 0.8746083 0.2707932 0.4021582
vn 0.9791656 -0.1044532 0.1741383
vn 0.8721537 0.3176327 0.3720985
vn 0.8637463 0.4895504 0.1195105
vn 0.9277979 -0.1659383 0.3341491
vn 0.8064842 0.4832907 0.3406071
vn 0.8233321 0.4535792 0.3411601
vn 0.9626918 0.02882707 0.2690601
vn 0.794939 -0.42161 0.4362534
vn 0.9743644 0.08879534 0.2067111
vn 0.9944823 -0.0076251 0.1046281
vn 0.861124 -0.4532277 0.2303263
vn 0.9279702 -0.3726536 0.0008052588
vn 0.9392899 -0.2959603 -0.1736144
vn 0.8093038 -0.53588 0.240541
vn 0.7897373 -0.3231408 0.5214356
vn 0.8817574 -0.4321035 -0.1891837
vn 0.9265563 -0.2092338 -0.3125935
vn 0.3006822 -0.9299788 0.2114937
vn 0.2738321 -0.9463859 0.1713765
vn 0.2512141 -0.9461267 0.2042936
vn 0.2093095 -0.9655617 0.154532
vn 0.1292895 -0.9709029 0.2015731
vn 0.2413125 -0.9679754 0.06922296
vn 0.1058414 -0.982205 0.1551481
vn 0 -0.9872262 0.159325
vn 0 -0.9788231 0.204708
vn -0.1058414 -0.982205 0.1551481
vn -0.1292896 -0.9709029 0.2015731
vn -0.2093095 -0.9655617 0.154532
vn -0.2512142 -0.9461267 0.2042936
vn -0.2738322 -0.9463859 0.1713764
vn -0.3006822 -0.9299788 0.2114936
vn -0.2413125 -0.9679754 0.06922296
vn -0.188873 -0.9801164 0.06081828
vn -0.2361113 -0.9707742 -0.04300049
vn -0.09815434 -0.9931203 0.06385721
vn -0.1878703 -0.9813399 -0.0409487
vn -0.2546669 -0.9535374 -0.1609697
vn 0 -0.9979382 0.06418101
vn -0.09580033 -0.9945803 -0.04039992
vn -0.1978361 -0.9689786 -0.148126
vn 0.09815436 -0.9931203 0.06385721
vn -0.2300476 -0.9383278 -0.2581066
vn -0.30418 -0.9101806 -0.2811508
vn 0 -0.9991907 -0.04022163
vn -0.1035852 -0.9831901 -0.150358
vn 0.188873 -0.9801164 0.06081828
vn -0.2877162 -0.9024861 -0.3205279
vn -0.3458426 -0.8794729 -0.3269867
vn -0.1473911 -0.9376082 -0.3149075
vn 0.09580034 -0.9945803 -0.04039992
vn 0.1878703 -0.9813399 -0.04094864
vn 0.2361113 -0.9707742 -0.04300041
vn 0 -0.9886377 -0.1503183
vn -0.116027 -0.9594284 -0.2569723
vn 0 -0.9652433 -0.2613528
vn 0 -0.9484246 -0.3170028
vn 0.1035852 -0.9831901 -0.150358
vn 0.1978361 -0.9689786 -0.1481259
vn 0.2546669 -0.9535374 -0.1609697
vn 0.116027 -0.9594284 -0.2569723
vn 0.1473911 -0.9376082 -0.3149075
vn 0.2300476 -0.9383278 -0.2581066
vn 0.30418 -0.9101806 -0.2811508
vn 0.2877162 -0.9024861 -0.3205279
vn 0.3458426 -0.8794729 -0.3269866
vn 0.1551623 -0.9820029 0.1076806
vn 0.2282873 -0.9675994 0.107871
vn 0.2294172 -0.9709489 0.0680145
vn 0.1559933 -0.9854343 0.06771555
vn 0 -0.9942322 0.1072482
vn 0.2306019 -0.9728779 -0.01820026
vn 0 -0.9977354 0.06726172
vn -0.1551611 -0.982003 0.1076807
vn 0.1568051 -0.9874528 -0.01868494
vn 0.2299081 -0.966544 -0.1137319
vn -0.1559921 -0.9854344 0.06771556
vn -0.2282863 -0.9675996 0.107871
vn -0.2294162 -0.9709491 0.06801453
vn 0 -0.9998171 -0.01912855
vn 0.1563319 -0.9810555 -0.1144144
vn 0.22872 -0.9597786 -0.1628259
vn 0.1554622 -0.974195 -0.1636326
vn -0.1568039 -0.987453 -0.01868493
vn -0.2306009 -0.9728782 -0.01820026
vn 0 -0.9933842 -0.1148385
vn 0 -0.9864483 -0.1640723
vn -0.1563307 -0.9810556 -0.1144144
vn -0.2299071 -0.9665442 -0.1137319
vn -0.1554611 -0.9741952 -0.1636325
vn -0.228719 -0.9597788 -0.1628259
g Color_Cloth_01_0
f 3/3/3 2/2/2 1/1/1
f 4/4/4 3/3/3 1/1/1
f 4/4/4 1/1/1 5/5/5
f 6/6/6 3/3/3 4/4/4
f 7/7/7 4/4/4 5/5/5
f 7/7/7 5/5/5 8/8/8
f 9/9/9 7/7/7 8/8/8
f 10/10/10 6/6/6 4/4/4
f 10/10/10 4/4/4 7/7/7
f 11/11/11 6/6/6 10/10/10
f 12/12/12 7/7/7 9/9/9
f 12/12/12 10/10/10 7/7/7
f 13/13/13 12/12/12 9/9/9
f 14/14/14 11/11/11 10/10/10
f 14/14/14 10/10/10 12/12/12
f 15/15/15 11/11/11 14/14/14
f 16/16/16 12/12/12 13/13/13
f 16/16/16 14/14/14 12/12/12
f 17/17/17 16/16/16 13/13/13
f 18/18/18 15/15/15 14/14/14
f 18/18/18 14/14/14 16/16/16
f 19/19/19 16/16/16 17/17/17
f 19/19/19 18/18/18 16/16/16
f 20/20/20 19/19/19 17/17/17
f 21/21/21 15/15/15 18/18/18
f 21/21/21 18/18/18 19/19/19
f 22/22/22 15/15/15 21/21/21
f 23/23/23 21/21/21 19/19/19
f 23/23/23 19/19/19 20/20/20
f 24/24/24 23/23/23 20/20/20
f 27/27/27 26/26/26 25/25/25
f 28/28/28 26/26/26 27/27/27
f 29/29/29 28/28/28 27/27/27
f 28/28/28 30/30/30 26/26/26
f 31/31/31 28/28/28 29/29/29
f 32/32/32 31/31/31 29/29/29
f 33/33/33 32/32/32 29/29/29
f 34/34/34 32/32/32 33/33/33
f 35/35/35 34/34/34 33/33/33
f 36/36/36 34/34/34 35/35/35
f 37/37/37 36/36/36 35/35/35
f 38/38/38 36/36/36 37/37/37
f 39/39/39 38/38/38 37/37/37
f 38/38/38 40/40/40 36/36/36
f 40/40/40 41/41/41 36/36/36
f 36/36/36 41/41/41 34/34/34
f 40/40/40 42/42/42 41/41/41
f 34/34/34 43/43/43 32/32/32
f 41/41/41 43/43/43 34/34/34
f 42/42/42 44/44/44 41/41/41
f 41/41/41 44/44/44 43/43/43
f 42/42/42 45/45/45 44/44/44
f 32/32/32 46/46/46 31/31/31
f 43/43/43 46/46/46 32/32/32
f 44/44/44 47/47/47 43/43/43
f 43/43/43 47/47/47 46/46/46
f 45/45/45 48/48/48 44/44/44
f 44/44/44 48/48/48 47/47/47
f 46/46/46 49/49/49 31/31/31
f 31/31/31 49/49/49 28/28/28
f 45/45/45 50/50/50 48/48/48
f 51/51/51 50/50/50 45/45/45
f 47/47/47 52/52/52 46/46/46
f 46/46/46 52/52/52 49/49/49
f 48/48/48 53/53/53 47/47/47
f 48/48/48 50/50/50 53/53/53
f 47/47/47 53/53/53 52/52/52
f 49/49/49 54/54/54 28/28/28
f 54/54/54 30/30/30 28/28/28
f 51/51/51 55/55/55 50/50/50
f 56/56/56 55/55/55 51/51/51
f 55/55/55 57/57/57 50/50/50
f 52/52/52 58/58/58 49/49/49
f 49/49/49 58/58/58 54/54/54
f 54/54/54 59/59/59 30/30/30
f 58/58/58 59/59/59 54/54/54
f 59/59/59 60/60/60 30/30/30
f 53/53/53 61/61/61 52/52/52
f 52/52/52 61/61/61 58/58/58
f 50/50/50 62/62/62 53/53/53
f 50/50/50 57/57/57 62/62/62
f 53/53/53 62/62/62 61/61/61
f 62/62/62 57/57/57 63/63/63
f 62/62/62 63/63/63 61/61/61
f 57/57/57 64/64/64 63/63/63
f 61/61/61 65/65/65 58/58/58
f 58/58/58 65/65/65 59/59/59
f 61/61/61 63/63/63 65/65/65
f 59/59/59 66/66/66 60/60/60
f 65/65/65 66/66/66 59/59/59
f 66/66/66 67/67/67 60/60/60
f 63/63/63 64/64/64 68/68/68
f 63/63/63 68/68/68 65/65/65
f 65/65/65 68/68/68 66/66/66
f 64/64/64 69/69/69 68/68/68
f 66/66/66 70/70/70 67/67/67
f 68/68/68 70/70/70 66/66/66
f 68/68/68 69/69/69 70/70/70
f 70/70/70 71/71/71 67/67/67
f 69/69/69 72/72/72 70/70/70
f 70/70/70 72/72/72 71/71/71
f 72/72/72 73/73/73 71/71/71
f 76/76/76 75/75/75 74/74/74
f 77/77/77 76/76/76 74/74/74
f 77/77/77 74/74/74 78/78/78
f 79/79/79 76/76/76 77/77/77
f 80/80/80 77/77/77 78/78/78
f 80/80/80 78/78/78 81/81/81
f 82/82/82 79/79/79 77/77/77
f 82/82/82 77/77/77 80/80/80
f 83/83/83 79/79/79 82/82/82
f 84/84/84 80/80/80 81/81/81
f 84/84/84 81/81/81 85/85/85
f 86/86/86 84/84/84 85/85/85
f 87/87/87 82/82/82 80/80/80
f 87/87/87 80/80/80 84/84/84
f 88/88/88 83/83/83 82/82/82
f 88/88/88 82/82/82 87/87/87
f 89/89/89 83/83/83 88/88/88
f 90/90/90 89/89/89 88/88/88
f 91/91/91 84/84/84 86/86/86
f 91/91/91 87/87/87 84/84/84
f 92/92/92 91/91/91 86/86/86
f 93/93/93 88/88/88 87/87/87
f 90/90/90 88/88/88 93/93/93
f 93/93/93 87/87/87 91/91/91
f 94/94/94 90/90/90 93/93/93
f 95/95/95 91/91/91 92/92/92
f 95/95/95 93/93/93 91/91/91
f 94/94/94 93/93/93 95/95/95
f 96/96/96 95/95/95 92/92/92
f 97/97/97 94/94/94 95/95/95
f 97/97/97 95/95/95 96/96/96
f 98/98/98 97/97/97 96/96/96
