g Color_04
v -0.6960526 0.8394184 1.607368
v -0.7750359 0.9290581 2.642372
v 0.145092 -0.1126385 2.553228
v 0.145092 -0.1126404 1.561949
v -0.7750359 0.9290581 0.5321789
v 0.145092 -0.1126404 0.4520779
v 0.8294868 -0.8944302 1.606958
v 0.8081703 -0.8770123 2.641563
v 0.851635 -0.9125233 0.5321789
v -0.987278 1.401766 0.0800972
v -1.309055 1.117544 0.08009911
v -0.01834488 -0.3436947 0
v 0.3034248 -0.05947304 -3.814697E-06
v 1.294521 -1.181503 0.0800972
v 1.005367 -1.394661 0.1006756
v -0.06136322 -0.2950001 0.4520779
v -0.9814873 0.7466984 0.5321789
v -0.7750359 0.9290581 0.5321789
v 0.145092 -0.1126404 0.4520779
v 0.851635 -0.9125233 0.5321789
v 0.6451797 -1.094883 0.5321789
v 0.8081703 -0.8770123 2.641563
v 0.6017189 -1.059372 2.641563
v 0.6230316 -1.07679 1.606958
v 0.8294868 -0.8944302 1.606958
v 0.851635 -0.9125233 0.5321789
v 0.6451797 -1.094883 0.5321789
v -0.7750359 0.9290581 2.642372
v -0.9814873 0.7466984 2.642372
v -0.06136322 -0.2949982 2.553228
v 0.145092 -0.1126385 2.553228
v 0.8081703 -0.8770123 2.641563
v 0.6017189 -1.059372 2.641563
v -0.9872742 1.401766 3.094452
v -1.274982 1.112986 3.038837
v -1.212708 1.025583 1.587645
v -0.9082947 1.312128 1.61598
v -0.987278 1.401766 0.0800972
v -1.309055 1.117544 0.08009911
v -0.9025078 0.6570606 1.607368
v -0.9814873 0.7466984 2.642372
v -0.7750359 0.9290581 2.642372
v -0.6960526 0.8394184 1.607368
v -0.7750359 0.9290581 0.5321789
v -0.9814873 0.7466984 0.5321789
v 1.005367 -1.394661 0.1006756
v 0.9459038 -1.386894 1.587061
v 0.8886642 -1.379417 3.017885
v 1.067558 -1.371885 3.118717
v 0.8886642 -1.379417 3.017885
v 0.100914 -0.2686501 3.005306
v 1.067558 -1.371885 3.118717
v -0.01634979 -0.3459549 2.914993
v -1.274982 1.112986 3.038837
v 0.6230316 -1.07679 1.606958
v 0.6017189 -1.059372 2.641563
v 0.8886642 -1.379417 3.017885
v 0.9459038 -1.386894 1.587061
v 1.005367 -1.394661 0.1006756
v 0.6451797 -1.094883 0.5321789
v -0.06136322 -0.2950001 0.4520779
v -0.01834488 -0.3436947 0
v -1.309055 1.117544 0.08009911
v -0.9814873 0.7466984 0.5321789
v -0.9025078 0.6570606 1.607368
v -1.212708 1.025583 1.587645
v -1.274982 1.112986 3.038837
v -0.9814873 0.7466984 2.642372
v -0.06136322 -0.2949982 2.553228
v -0.01634979 -0.3459549 2.914993
v 0.8886642 -1.379417 3.017885
v 0.6017189 -1.059372 2.641563
v 1.294521 -1.181503 0.0800972
v 1.005367 -1.394661 0.1006756
v 1.067558 -1.371885 3.118717
v 1.270081 -1.162708 3.118717
v 0.100914 -0.2686501 3.005306
v -1.274982 1.112986 3.038837
v -0.9872742 1.401766 3.094452
v 0.3034286 -0.05947113 3.005306
v 1.270081 -1.162708 3.118717
v 1.067558 -1.371885 3.118717
vt 0.007755771 0.03687274
vt 0.007755786 0.03805767
vt 0.01094502 0.03805767
vt 0.01093197 0.03687274
vt 0.007755771 0.03589469
vt 0.01091741 0.03589469
vt 0.01423611 0.03687274
vt 0.01423611 0.03805767
vt 0.01423611 0.03589469
vt 0.03451008 0.01224976
vt 0.03501183 0.01224645
vt 0.03499454 0.01169499
vt 0.03449279 0.01169831
vt 0.03447855 0.01124414
vt 0.03503162 0.01124049
vt 0.03617229 0.0358167
vt 0.03618966 0.03619831
vt 0.03664437 0.03619625
vt 0.03662699 0.03581462
vt 0.03661267 0.03550033
vt 0.03615798 0.03550239
vt 0.03657658 0.03470765
vt 0.0361219 0.03470971
vt 0.03614268 0.03516635
vt 0.03659737 0.03516428
vt 0.03661267 0.03550033
vt 0.03615798 0.03550239
vt 0.03666756 0.03670556
vt 0.03621285 0.03670764
vt 0.03624088 0.03732313
vt 0.03669557 0.03732106
vt 0.03672864 0.03804755
vt 0.03627394 0.03804961
vt 0.03453314 0.01298572
vt 0.03503489 0.0129824
vt 0.03502464 0.01265505
vt 0.03452288 0.01265837
vt 0.03451008 0.01224976
vt 0.03501183 0.01224645
vt 0.03620252 0.03648109
vt 0.03621285 0.03670764
vt 0.03666756 0.03670556
vt 0.03665723 0.03647903
vt 0.03664437 0.03619625
vt 0.03618966 0.03619831
vt 0.0599498 0.01375346
vt 0.06016313 0.01269241
vt 0.06001203 0.01125694
vt 0.0598626 0.0112591
vt 0.06025244 0.01461124
vt 0.05980116 0.01233051
vt 0.05983406 0.01461726
vt 0.06021954 0.01232449
vt 0.0597733 0.01039315
vt 0.03645977 0.01074537
vt 0.03643911 0.01008553
vt 0.03509384 0.01009442
vt 0.03524494 0.0107534
vt 0.03503162 0.01124049
vt 0.036475 0.01123096
vt 0.03648925 0.01168512
vt 0.03499454 0.01169499
vt 0.03501183 0.01224645
vt 0.03650653 0.01223658
vt 0.03651932 0.01264519
vt 0.03502464 0.01265505
vt 0.03503489 0.0129824
vt 0.0365296 0.01297253
vt 0.03655747 0.01386191
vt 0.03548115 0.01386902
vt 0.03551406 0.0149188
vt 0.03659037 0.01491168
vt 0.03447855 0.01124414
vt 0.03503162 0.01124049
vt 0.03494442 0.01009541
vt 0.03444263 0.01009872
vt 0.03506278 0.01387178
vt 0.03503489 0.0129824
vt 0.03453314 0.01298572
vt 0.03456101 0.0138751
vt 0.03459391 0.01492488
vt 0.03509568 0.01492156
vn -0.7494504 -0.6620606 0
vn -0.7494479 -0.6620634 7.625223E-05
vn -0.7516364 -0.6595767 -0.001110674
vn -0.7508665 -0.6604533 -0.001104062
vn -0.7494529 -0.6620576 -6.97156E-05
vn -0.7501471 -0.66127 -0.00109997
vn -0.7523344 -0.6587777 -0.002212396
vn -0.7537854 -0.6571168 -0.002281104
vn -0.7508477 -0.6604719 -0.002142168
vn -0.02718066 0.03076176 -0.9991571
vn -0.02718066 0.03076176 -0.9991571
vn -0.004285843 -0.01641747 -0.999856
vn -0.003919594 -0.01717163 -0.9998449
vn 0.01935273 -0.06505655 -0.9976938
vn 0.01935273 -0.06505654 -0.9976938
vn -0.005741164 0.006499964 0.9999624
vn 0.03809004 -0.04312254 0.9983435
vn 0.03809004 -0.04312254 0.9983435
vn -0.005741528 0.006500378 0.9999624
vn -0.04954752 0.05609433 0.9971952
vn -0.04954751 0.05609433 0.9971952
vn -0.6617914 0.7492284 -0.02624753
vn -0.6617914 0.7492284 -0.02624753
vn -0.6617898 0.7492298 -0.02624892
vn -0.6617897 0.7492298 -0.02624893
vn -0.661788 0.7492313 -0.0262503
vn -0.661788 0.7492313 -0.02625031
vn -0.04237339 0.04797183 -0.9979495
vn -0.04237339 0.04797183 -0.9979495
vn 0.007764378 -0.008790214 -0.9999312
vn 0.007480024 -0.008468294 -0.9999362
vn 0.05757511 -0.06518202 -0.9962111
vn 0.05757511 -0.06518202 -0.9962111
vn -0.689185 0.7205072 -0.07676958
vn -0.689185 0.7205071 -0.07676957
vn -0.6831115 0.7302828 0.00675432
vn -0.6838311 0.7296403 -0.0004912395
vn -0.6733791 0.7346652 0.08263001
vn -0.6733791 0.7346652 0.08263002
vn 0.6620162 -0.7494866 0.002129612
vn 0.6576508 -0.7445445 0.1146684
vn 0.6576508 -0.7445445 0.1146684
vn 0.6620162 -0.7494866 0.002129988
vn 0.6579683 -0.7449038 -0.1104358
vn 0.6579682 -0.7449039 -0.1104359
vn -0.03155569 -0.9992079 -0.02424731
vn -0.3549286 -0.9348833 -0.004344746
vn -0.3190369 -0.9477407 0.001776045
vn 0.4325945 -0.9015816 0.003547012
vn -0.4511097 -0.3104489 0.8367326
vn -0.2396071 -0.1848945 0.9531015
vn -0.2178663 -0.09149329 0.9716806
vn -0.4135628 -0.3584301 0.836955
vn -0.05356327 -0.09346534 0.9941806
vn -0.6938398 -0.7199764 -0.01483815
vn -0.7354684 -0.6775538 -0.00269225
vn -0.3190369 -0.9477407 0.001776045
vn -0.3549286 -0.9348833 -0.004344746
vn -0.03155569 -0.9992079 -0.02424731
vn -0.6991531 -0.7139893 -0.0374718
vn -0.7392117 -0.6728846 -0.02814939
vn -0.7372611 -0.6747883 -0.03326757
vn -0.7541536 -0.6566921 0.002799288
vn -0.7543525 -0.6564631 0.002919364
vn -0.7658944 -0.642957 0.003492371
vn -0.7655239 -0.6433973 0.00361465
vn -0.7636764 -0.6454728 0.01277772
vn -0.7623559 -0.6469957 0.01449313
vn -0.7532354 -0.6574703 0.01921241
vn -0.7534236 -0.6573163 0.01697775
vn -0.3190369 -0.9477407 0.001776045
vn -0.7354684 -0.6775538 -0.00269225
vn 0.6516166 -0.7585476 0.001144959
vn -0.03155569 -0.9992079 -0.02424731
vn 0.4325945 -0.9015816 0.003547012
vn 0.6516166 -0.7585476 0.001144959
vn -0.2396071 -0.1848945 0.9531015
vn -0.05356327 -0.09346534 0.9941806
vn -0.03552176 -0.07631847 0.9964505
vn -0.04513281 -0.01460444 0.9988742
vn -0.05556976 0.05380061 0.9970042
vn -0.2178663 -0.09149329 0.9716806
g Color_04_0
f 3/3/3 2/2/2 1/1/1
f 4/4/4 3/3/3 1/1/1
f 4/4/4 1/1/1 5/5/5
f 6/6/6 4/4/4 5/5/5
f 4/4/4 7/7/7 3/3/3
f 4/4/4 6/6/6 7/7/7
f 7/7/7 8/8/8 3/3/3
f 6/6/6 9/9/9 7/7/7
f 12/12/12 11/11/11 10/10/10
f 13/13/13 12/12/12 10/10/10
f 13/13/13 14/14/14 12/12/12
f 14/14/14 15/15/15 12/12/12
f 18/18/18 17/17/17 16/16/16
f 19/19/19 18/18/18 16/16/16
f 19/19/19 16/16/16 20/20/20
f 16/16/16 21/21/21 20/20/20
f 24/24/24 23/23/23 22/22/22
f 25/25/25 24/24/24 22/22/22
f 25/25/25 26/26/26 24/24/24
f 26/26/26 27/27/27 24/24/24
f 30/30/30 29/29/29 28/28/28
f 31/31/31 30/30/30 28/28/28
f 31/31/31 32/32/32 30/30/30
f 32/32/32 33/33/33 30/30/30
f 36/36/36 35/35/35 34/34/34
f 37/37/37 36/36/36 34/34/34
f 37/37/37 38/38/38 36/36/36
f 38/38/38 39/39/39 36/36/36
f 42/42/42 41/41/41 40/40/40
f 43/43/43 42/42/42 40/40/40
f 43/43/43 40/40/40 44/44/44
f 40/40/40 45/45/45 44/44/44
f 48/48/48 47/47/47 46/46/46
f 49/49/49 48/48/48 46/46/46
f 52/52/52 51/51/51 50/50/50
f 51/51/51 53/53/53 50/50/50
f 53/53/53 51/51/51 54/54/54
f 57/57/57 56/56/56 55/55/55
f 58/58/58 57/57/57 55/55/55
f 58/58/58 55/55/55 59/59/59
f 55/55/55 60/60/60 59/59/59
f 59/59/59 60/60/60 61/61/61
f 62/62/62 59/59/59 61/61/61
f 62/62/62 61/61/61 63/63/63
f 61/61/61 64/64/64 63/63/63
f 63/63/63 64/64/64 65/65/65
f 66/66/66 63/63/63 65/65/65
f 66/66/66 65/65/65 67/67/67
f 65/65/65 68/68/68 67/67/67
f 67/67/67 68/68/68 69/69/69
f 70/70/70 67/67/67 69/69/69
f 70/70/70 69/69/69 71/71/71
f 69/69/69 72/72/72 71/71/71
f 75/75/75 74/74/74 73/73/73
f 76/76/76 75/75/75 73/73/73
f 79/79/79 78/78/78 77/77/77
f 80/80/80 79/79/79 77/77/77
f 80/80/80 77/77/77 81/81/81
f 77/77/77 82/82/82 81/81/81
