g Color_Boss_07
v 0.8224642 1.306431 0.6136281
v -0.7747827 1.290573 0.6070037
v -0.8224645 1.290573 -0.6070538
v 0.8224642 1.306431 -0.6135977
v -0.8224645 0.4334797 -1.46574
v 0.8224645 0.4401659 -1.481782
v 0.8224645 0.4401653 1.481783
v -0.8224645 0.4334791 1.465671
v -0.7747827 1.290573 0.6070037
v 0.8224642 1.306431 0.6136281
v 0.8224647 -0.7857134 1.481783
v -0.8224645 -0.7790982 1.465671
v -0.8224645 0.4334791 1.465671
v 0.8224645 0.4401653 1.481783
v -0.7813439 -1.306431 0.9376111
v -0.8224645 -0.7790982 1.465671
v 0.8224647 -0.7857134 1.481783
v 0.8224652 -1.218378 1.048521
v -0.8224649 -0.8941741 0.4291921
v -0.8224645 -0.7790982 1.465671
v -0.7813439 -1.306431 0.9376111
v -0.8224645 -0.5097011 0.8141942
v -0.8224645 0.4334791 1.465671
v -0.8224645 0.1639073 0.8141944
v -0.7747827 1.290573 0.6070037
v -0.8224645 0.6400397 0.3371873
v -0.8224645 1.290573 -0.6070538
v -0.8224645 0.6400397 -0.3372445
v -0.8224645 0.4334797 -1.46574
v -0.8224645 0.1639077 -0.8142601
v -0.8224645 -0.53434 -1.46574
v -0.822464 -0.3525068 -0.8142602
v -0.8224645 -0.5097011 0.8141942
v -0.8224649 -0.8941741 0.4291921
v -0.8106194 -0.8694069 0.2877245
v -0.7399802 -0.1737448 -0.007264853
v -0.8224645 0.1639073 0.8141944
v -0.8010497 -0.7751613 -0.2515706
v -0.8224645 0.6400397 0.3371873
v -0.8050032 -0.4385823 -0.6434276
v -0.8224645 0.6400397 -0.3372445
v -0.822464 -0.3525068 -0.8142602
v -0.8224645 0.1639077 -0.8142601
v 0.8224645 0.4401659 -1.481782
v -0.8224645 0.4334797 -1.46574
v -0.8224645 -0.53434 -1.46574
v 0.8224642 -0.5830873 -1.481782
v -0.7813439 -1.306431 0.9376111
v 0.8224652 -1.218378 1.048521
v 0.6316938 -0.8817903 0.3584583
v -0.8224649 -0.8941741 0.4291921
v -0.8106194 -0.8694069 0.2877245
v 0.6471865 -0.775161 -0.2515706
v -0.8010497 -0.7751613 -0.2515706
v 0.6345022 -0.3955443 -0.7288439
v -0.8050032 -0.4385823 -0.6434276
v -0.822464 -0.3525068 -0.8142602
v 0.8224642 -0.5830873 -1.481782
v -0.8224645 -0.53434 -1.46574
vt 0.7082835 0.01123837
vt 0.7093564 0.01151608
vt 0.7099714 0.0116428
vt 0.7105417 0.01133402
vt 0.7097932 0.01179667
vt 0.7116797 0.01163632
vt 0.7061748 0.03552204
vt 0.7136772 0.03550787
vt 0.7136772 0.03732612
vt 0.7061748 0.03735979
vt 0.6588286 0.03425993
vt 0.6630572 0.034279
vt 0.6630572 0.03777874
vt 0.6588286 0.03779806
vt 0.7136772 0.03587448
vt 0.7136772 0.03699318
vt 0.7061748 0.03697914
vt 0.7061748 0.03606128
vt 0.7078375 0.0116977
vt 0.7074653 0.01157939
vt 0.7073627 0.01167308
vt 0.7079144 0.01162154
vt 0.7083204 0.01149078
vt 0.7084404 0.01156785
vt 0.7093564 0.01151608
vt 0.7090802 0.0115832
vt 0.7099714 0.0116428
vt 0.7094585 0.01166086
vt 0.7097932 0.01179667
vt 0.7093502 0.01175517
vt 0.7091022 0.01186807
vt 0.7089452 0.01179745
vt 0.7085078 0.03895517
vt 0.7070829 0.03776299
vt 0.7071747 0.03732523
vt 0.7097533 0.03641358
vt 0.7110044 0.03895517
vt 0.7075241 0.03565548
vt 0.712769 0.03747808
vt 0.7087715 0.03444196
vt 0.712769 0.03538964
vt 0.7090905 0.03391249
vt 0.7110044 0.03391249
vt 0.7079897 0.03778625
vt 0.7118624 0.03776859
vt 0.7118624 0.03521028
vt 0.7079896 0.03508141
vt 0.6616364 0.03731786
vt 0.6626557 0.0361658
vt 0.6619713 0.03578747
vt 0.6610404 0.03701421
vt 0.6609223 0.03693236
vt 0.6614404 0.03546046
vt 0.6604506 0.03664628
vt 0.6608987 0.03515766
vt 0.6599976 0.03638584
vt 0.6598201 0.03630108
vt 0.6602066 0.03474013
vt 0.6592302 0.0359563
vn -0.01063507 0.9240161 0.3822058
vn -0.01063507 0.9240217 0.3821922
vn -0.01054072 0.9220508 -0.3869254
vn -0.01054142 0.92406 -0.3821019
vn -0.009699605 0.7077929 -0.7063535
vn -0.009699605 0.7077928 -0.7063535
vn -0.009874962 0.7079179 0.7062258
vn -0.009874961 0.7079179 0.7062257
vn -0.01063507 0.9240217 0.3821922
vn -0.01063507 0.9240161 0.3822058
vn -0.009794245 0 0.9999521
vn -0.009794245 0 0.9999521
vn -0.009794245 0 0.9999521
vn -0.009794245 0 0.9999521
vn -0.009876332 -0.7077704 0.7063735
vn -0.009876332 -0.7077704 0.7063735
vn -0.009876332 -0.7077705 0.7063735
vn -0.009876332 -0.7077704 0.7063735
vn -0.9989457 0.02212877 -0.04022445
vn -0.9996752 -0.02533129 0.002812656
vn -0.9986994 -0.05067294 0.005626462
vn -0.9995356 -0.002578935 -0.03036297
vn -0.9997528 0.0218691 0.004002978
vn -0.9995622 0.0004097044 -0.02958296
vn -0.9990541 0.04018649 0.01661006
vn -0.99997 -0.007144768 -0.00301195
vn -0.9997531 0.01829861 0.0126068
vn -0.9995518 -0.02104357 0.02129085
vn -1 0 0
vn -0.9993788 -0.01352045 0.03254667
vn -1 0 0
vn -0.9985714 0 0.05343286
vn -0.9995356 -0.002578935 -0.03036297
vn -0.9989457 0.02212877 -0.04022445
vn -0.9955726 0.08055337 -0.04843919
vn -0.9999996 8.93999E-05 0.0008466858
vn -0.9995622 0.0004097044 -0.02958296
vn -0.9956034 0.08713176 0.03437708
vn -0.99997 -0.007144768 -0.00301195
vn -0.9954841 0.02345354 0.09198558
vn -0.9995518 -0.02104357 0.02129085
vn -0.9985714 0 0.05343286
vn -0.9993788 -0.01352045 0.03254667
vn -0.009752033 0 -0.9999524
vn -0.009752034 0 -0.9999524
vn -0.009752035 0 -0.9999524
vn -0.009752034 0 -0.9999524
vn 0.0347586 -0.8445153 -0.5344021
vn 0.0347586 -0.8445153 -0.5344021
vn 0.01834821 -0.9301224 -0.3667908
vn 0.01838247 -0.9299451 -0.3672388
vn 0 -0.985043 -0.1723086
vn -0.003786323 -0.9083622 -0.4181671
vn -0.003769474 -0.9088544 -0.4170965
vn -0.02334121 -0.9808761 -0.1932278
vn -0.003711687 -0.836986 -0.5472117
vn -0.01951317 -0.996476 -0.08157719
vn -0.03422256 -0.9676605 0.2499243
vn -0.03422256 -0.9676605 0.2499242
g Color_Boss_07_0
f 3/3/3 2/2/2 1/1/1
f 4/4/4 3/3/3 1/1/1
f 5/5/5 3/3/3 4/4/4
f 6/6/6 5/5/5 4/4/4
f 9/9/9 8/8/8 7/7/7
f 10/10/10 9/9/9 7/7/7
f 13/13/13 12/12/12 11/11/11
f 14/14/14 13/13/13 11/11/11
f 17/17/17 16/16/16 15/15/15
f 18/18/18 17/17/17 15/15/15
f 21/21/21 20/20/20 19/19/19
f 20/20/20 22/22/22 19/19/19
f 22/22/22 20/20/20 23/23/23
f 24/24/24 22/22/22 23/23/23
f 24/24/24 23/23/23 25/25/25
f 26/26/26 24/24/24 25/25/25
f 26/26/26 25/25/25 27/27/27
f 28/28/28 26/26/26 27/27/27
f 28/28/28 27/27/27 29/29/29
f 30/30/30 28/28/28 29/29/29
f 30/30/30 29/29/29 31/31/31
f 32/32/32 30/30/30 31/31/31
f 35/35/35 34/34/34 33/33/33
f 36/36/36 35/35/35 33/33/33
f 36/36/36 33/33/33 37/37/37
f 35/35/35 36/36/36 38/38/38
f 36/36/36 37/37/37 39/39/39
f 38/38/38 36/36/36 40/40/40
f 36/36/36 39/39/39 41/41/41
f 40/40/40 36/36/36 42/42/42
f 36/36/36 41/41/41 43/43/43
f 36/36/36 43/43/43 42/42/42
f 46/46/46 45/45/45 44/44/44
f 47/47/47 46/46/46 44/44/44
f 50/50/50 49/49/49 48/48/48
f 51/51/51 50/50/50 48/48/48
f 52/52/52 50/50/50 51/51/51
f 53/53/53 50/50/50 52/52/52
f 54/54/54 53/53/53 52/52/52
f 55/55/55 53/53/53 54/54/54
f 56/56/56 55/55/55 54/54/54
f 57/57/57 55/55/55 56/56/56
f 58/58/58 55/55/55 57/57/57
f 59/59/59 58/58/58 57/57/57
