g Color_10
v 4.068895 -3.137424 18.59031
v 4.068896 -3.137424 19.60397
v 3.784293 -2.450331 19.60397
v 3.784292 -2.450331 18.59031
v 3.097199 -2.165728 19.60397
v 3.097199 -2.165728 18.59031
v 2.410107 -2.450331 19.60397
v 2.410107 -2.450331 18.59031
v 2.125504 -3.137424 19.60397
v 2.125504 -3.137424 18.59031
v 2.125504 -3.137424 18.59031
v 2.125504 -3.137424 19.60397
v 2.410107 -3.824517 19.60397
v 2.410107 -3.824517 18.59031
v 3.097199 -4.109119 19.60397
v 3.097199 -4.10912 18.59031
v 3.784292 -3.824517 19.60397
v 3.784292 -3.824517 18.59031
v 4.068896 -3.137424 19.60397
v 4.068895 -3.137424 18.59031
v 4.068896 -3.137424 19.60397
v 4.068896 -3.137424 20.78204
v 3.784293 -2.450331 20.78204
v 3.784293 -2.450331 19.60397
v 3.097199 -2.165728 20.78204
v 3.097199 -2.165728 19.60397
v 2.410107 -2.450331 20.78204
v 2.410107 -2.450331 19.60397
v 2.125504 -3.137424 20.78204
v 2.125504 -3.137424 19.60397
v 2.125504 -3.137424 19.60397
v 2.125504 -3.137424 20.78204
v 2.410107 -3.824518 20.78204
v 2.410107 -3.824517 19.60397
v 3.097199 -4.109119 20.78204
v 3.097199 -4.109119 19.60397
v 3.784293 -3.824518 20.78204
v 3.784292 -3.824517 19.60397
v 4.068896 -3.137424 20.78204
v 4.068896 -3.137424 19.60397
v 4.068896 -3.137424 20.78204
v 4.068896 -3.137425 22.44037
v 3.784292 -2.450332 22.44037
v 3.784293 -2.450331 20.78204
v 3.097199 -2.165729 22.44037
v 3.097199 -2.165728 20.78204
v 2.410107 -2.450332 22.44037
v 2.410107 -2.450331 20.78204
v 2.125504 -3.137425 22.44037
v 2.125504 -3.137424 20.78204
v 2.125504 -3.137424 20.78204
v 2.125504 -3.137425 22.44037
v 2.410107 -3.824518 22.44037
v 2.410107 -3.824518 20.78204
v 3.097199 -4.109121 22.44037
v 3.097199 -4.109119 20.78204
v 3.784292 -3.824518 22.44037
v 3.784293 -3.824518 20.78204
v 4.068896 -3.137425 22.44037
v 4.068896 -3.137424 20.78204
vt 0.464207 0.9732329
vt 0.464207 0.97343
vt 0.46413 0.97343
vt 0.46413 0.9732329
vt 0.4639443 0.97343
vt 0.4639443 0.9732329
vt 0.4637585 0.97343
vt 0.4637585 0.9732329
vt 0.4636815 0.97343
vt 0.4636815 0.9732329
vt 0.4636815 0.9732329
vt 0.4636815 0.97343
vt 0.4637585 0.97343
vt 0.4637585 0.9732329
vt 0.4639443 0.97343
vt 0.4639443 0.9732329
vt 0.46413 0.97343
vt 0.46413 0.9732329
vt 0.464207 0.97343
vt 0.464207 0.9732329
vt 0.4398445 0.9711897
vt 0.4398445 0.9713879
vt 0.4397675 0.9713879
vt 0.4397675 0.9711897
vt 0.4395818 0.9713879
vt 0.4395818 0.9711897
vt 0.439396 0.9713879
vt 0.439396 0.9711897
vt 0.439319 0.9713879
vt 0.439319 0.9711897
vt 0.439319 0.9711897
vt 0.439319 0.9713879
vt 0.439396 0.9713879
vt 0.439396 0.9711897
vt 0.4395818 0.9713879
vt 0.4395818 0.9711897
vt 0.4397675 0.9713879
vt 0.4397675 0.9711897
vt 0.4398445 0.9713879
vt 0.4398445 0.9711897
vt 0.4395645 0.9545862
vt 0.4395645 0.9548833
vt 0.4394875 0.9548833
vt 0.4394875 0.9545862
vt 0.4393017 0.9548833
vt 0.4393017 0.9545862
vt 0.4391159 0.9548833
vt 0.4391159 0.9545862
vt 0.439039 0.9548833
vt 0.439039 0.9545862
vt 0.439039 0.9545862
vt 0.439039 0.9548833
vt 0.4391159 0.9548833
vt 0.4391159 0.9545862
vt 0.4393017 0.9548833
vt 0.4393017 0.9545862
vt 0.4394875 0.9548833
vt 0.4394875 0.9545862
vt 0.4395645 0.9548833
vt 0.4395645 0.9545862
vn 1 0 0
vn 1 0 0
vn 0.7071068 0.7071066 0
vn 0.7071066 0.7071069 0
vn 0 1 0
vn 0 1 0
vn -0.7071069 0.7071066 0
vn -0.7071068 0.7071068 0
vn -1 0 0
vn -1 0 0
vn -1 0 0
vn -1 0 0
vn -0.7071065 -0.707107 0
vn -0.7071066 -0.7071068 0
vn 0 -1 0
vn 0 -1 0
vn 0.7071064 -0.7071072 0
vn 0.7071065 -0.7071069 0
vn 1 0 0
vn 1 0 0
vn 1 0 0
vn 1 0 0
vn 0.7071068 0.7071068 0
vn 0.7071068 0.7071066 0
vn 0 1 0
vn 0 1 0
vn -0.7071068 0.7071067 0
vn -0.7071069 0.7071066 0
vn -1 0 0
vn -1 0 0
vn -1 0 0
vn -1 0 0
vn -0.7071064 -0.7071072 0
vn -0.7071065 -0.707107 0
vn 0 -1 0
vn 0 -1 0
vn 0.7071063 -0.7071072 0
vn 0.7071064 -0.7071072 0
vn 1 0 0
vn 1 0 0
vn 1 0 0
vn 1 0 0
vn 0.7071067 0.7071068 0
vn 0.7071068 0.7071068 0
vn 0 1 0
vn 0 1 0
vn -0.7071068 0.7071066 0
vn -0.7071068 0.7071067 0
vn -1 0 0
vn -1 0 0
vn -1 0 0
vn -1 0 0
vn -0.7071065 -0.7071069 0
vn -0.7071064 -0.7071072 0
vn 0 -1 0
vn 0 -1 0
vn 0.7071064 -0.7071071 0
vn 0.7071063 -0.7071072 0
vn 1 0 0
vn 1 0 0
g Color_10_0
f 3/3/3 2/2/2 1/1/1
f 4/4/4 3/3/3 1/1/1
f 5/5/5 3/3/3 4/4/4
f 6/6/6 5/5/5 4/4/4
f 7/7/7 5/5/5 6/6/6
f 8/8/8 7/7/7 6/6/6
f 9/9/9 7/7/7 8/8/8
f 10/10/10 9/9/9 8/8/8
f 13/13/13 12/12/12 11/11/11
f 14/14/14 13/13/13 11/11/11
f 15/15/15 13/13/13 14/14/14
f 16/16/16 15/15/15 14/14/14
f 17/17/17 15/15/15 16/16/16
f 18/18/18 17/17/17 16/16/16
f 19/19/19 17/17/17 18/18/18
f 20/20/20 19/19/19 18/18/18
f 23/23/23 22/22/22 21/21/21
f 24/24/24 23/23/23 21/21/21
f 25/25/25 23/23/23 24/24/24
f 26/26/26 25/25/25 24/24/24
f 27/27/27 25/25/25 26/26/26
f 28/28/28 27/27/27 26/26/26
f 29/29/29 27/27/27 28/28/28
f 30/30/30 29/29/29 28/28/28
f 33/33/33 32/32/32 31/31/31
f 34/34/34 33/33/33 31/31/31
f 35/35/35 33/33/33 34/34/34
f 36/36/36 35/35/35 34/34/34
f 37/37/37 35/35/35 36/36/36
f 38/38/38 37/37/37 36/36/36
f 39/39/39 37/37/37 38/38/38
f 40/40/40 39/39/39 38/38/38
f 43/43/43 42/42/42 41/41/41
f 44/44/44 43/43/43 41/41/41
f 45/45/45 43/43/43 44/44/44
f 46/46/46 45/45/45 44/44/44
f 47/47/47 45/45/45 46/46/46
f 48/48/48 47/47/47 46/46/46
f 49/49/49 47/47/47 48/48/48
f 50/50/50 49/49/49 48/48/48
f 53/53/53 52/52/52 51/51/51
f 54/54/54 53/53/53 51/51/51
f 55/55/55 53/53/53 54/54/54
f 56/56/56 55/55/55 54/54/54
f 57/57/57 55/55/55 56/56/56
f 58/58/58 57/57/57 56/56/56
f 59/59/59 57/57/57 58/58/58
f 60/60/60 59/59/59 58/58/58
