g Color_Boss_50
v -3.767464 4.879106 0.6288358
v -3.948411 4.879106 0.6288358
v -3.905822 6.086208 -0.6654041
v 3.725416 5.061092 -0.6654041
v 3.948411 4.300881 0.6272091
v 3.484777 4.347395 0.6271023
v 3.484777 4.347395 0.6271023
v 3.608655 1.309585 0.6654066
v 3.608652 1.249559 -0.665405
v 3.725416 5.061092 -0.6654041
v 3.608652 1.249559 -0.665405
v 3.608655 1.309585 0.6654066
v 3.501672 -1.460719 0.6272013
v 3.395901 -1.275169 -0.6654056
v 2.55268 -4.272257 -0.6654062
v 2.784007 -4.337798 0.5818483
v 1.318962 -5.597383 -0.6654062
v 1.382248 -5.597386 0.5818475
v -0.06882751 -6.086205 -0.6654065
v -0.06882751 -6.086208 0.5818464
v -1.519903 -5.597386 0.5818475
v -1.456617 -5.597383 -0.6654062
v -2.921662 -4.337798 0.5818483
v -2.690335 -4.272257 -0.6654062
v -3.639327 -1.460719 0.6272013
v -3.533556 -1.275169 -0.6654056
v -3.746307 1.249559 -0.665405
v -3.746311 1.309585 0.6654066
v -3.905822 6.086208 -0.6654041
v -3.746307 1.249559 -0.665405
v -3.746311 1.309585 0.6654066
v -3.767464 4.879106 0.6288358
vt 0.4395055 0.03628565
vt 0.4394823 0.03628565
vt 0.4394966 0.03544466
vt 0.4394939 0.03544518
vt 0.439513 0.03628513
vt 0.4394748 0.03628513
vt 0.4387553 0.03546914
vt 0.4388815 0.03582697
vt 0.4390408 0.03577854
vt 0.4389274 0.03544597
vt 0.4390408 0.03577854
vt 0.4388815 0.03582697
vt 0.4390378 0.03610857
vt 0.4391469 0.03600766
vt 0.439373 0.0362526
vt 0.4393002 0.03635718
vt 0.4395572 0.03632261
vt 0.4395387 0.03643952
vt 0.4397112 0.03631265
vt 0.4397535 0.0364265
vt 0.4399073 0.03633304
vt 0.4398339 0.03622331
vt 0.440066 0.03621008
vt 0.4399605 0.03612588
vt 0.4401901 0.0359322
vt 0.4400551 0.0358545
vt 0.440062 0.03562494
vt 0.4402325 0.03563757
vt 0.440035 0.03531198
vt 0.440062 0.03562494
vt 0.4402325 0.03563757
vt 0.4402081 0.03529079
vn 0 0.7312962 0.6820601
vn 0 0.7312962 0.6820601
vn 0 0.7312962 0.6820601
vn 0.08668697 0.865196 0.4938839
vn 0.08668698 0.865196 0.4938839
vn 0.08668697 0.865196 0.4938839
vn -0.9957829 -0.001547326 -0.0917284
vn -0.9992498 0.02835822 -0.02637325
vn -0.9992932 0.03014332 -0.02245763
vn -0.9957829 -0.001547326 -0.0917284
vn -0.9992932 0.03014332 -0.02245763
vn -0.9992498 0.02835822 -0.02637325
vn -0.9810971 0.164413 0.1020635
vn -0.9842831 0.1496616 0.09374532
vn -0.8528939 0.5055581 0.1303185
vn -0.861304 0.4906517 0.1319717
vn -0.5195171 0.8527018 0.05478787
vn -0.5296979 0.8462466 0.05733099
vn 0 0.9999619 0.008739267
vn 0 0.9999619 0.008739266
vn 0.5296978 0.8462466 0.05733099
vn 0.5195171 0.8527018 0.05478787
vn 0.8613039 0.4906517 0.1319716
vn 0.8528939 0.5055581 0.1303185
vn 0.9810971 0.164413 0.1020635
vn 0.9842831 0.1496616 0.09374532
vn 0.9991506 0.04119277 0.001103686
vn 0.9991964 0.04005815 -0.001434644
vn 0.9988335 0.02127857 -0.04334581
vn 0.9991506 0.04119277 0.001103686
vn 0.9991964 0.04005815 -0.001434644
vn 0.9988335 0.02127857 -0.04334582
g Color_Boss_50_0
f 3/3/3 2/2/2 1/1/1
f 6/6/6 5/5/5 4/4/4
f 9/9/9 8/8/8 7/7/7
f 10/10/10 9/9/9 7/7/7
f 13/13/13 12/12/12 11/11/11
f 14/14/14 13/13/13 11/11/11
f 14/14/14 15/15/15 13/13/13
f 15/15/15 16/16/16 13/13/13
f 15/15/15 17/17/17 16/16/16
f 17/17/17 18/18/18 16/16/16
f 18/18/18 17/17/17 19/19/19
f 20/20/20 18/18/18 19/19/19
f 21/21/21 20/20/20 19/19/19
f 22/22/22 21/21/21 19/19/19
f 21/21/21 22/22/22 23/23/23
f 22/22/22 24/24/24 23/23/23
f 23/23/23 24/24/24 25/25/25
f 24/24/24 26/26/26 25/25/25
f 25/25/25 26/26/26 27/27/27
f 28/28/28 25/25/25 27/27/27
f 31/31/31 30/30/30 29/29/29
f 32/32/32 31/31/31 29/29/29
