g Color_Boss_14
v -2.328958E-06 7.76268 -0.6197114
v 3.300833 7.628281 3.595273
v 3.247732 7.628284 -0.619709
v -2.328958E-06 7.762679 3.617494
v -3.300838 7.62828 3.595273
v -3.247738 7.628283 -0.619709
v 3.677482 -3.656909 -2.364629
v 3.594082 -0.916713 0.5508828
v 3.658312 -3.656901 0.494812
v 3.67748 -1.433862 -2.054747
v 3.67748 -1.433862 -3.61749
v 3.677481 -3.665552 -3.617495
v 3.677478 3.978858 -3.617488
v 3.518746 3.843494 -0.8368697
v 3.544438 -0.5323724 3.194862
v 3.300833 7.628281 3.595273
v 3.247732 7.628284 -0.619709
v -3.677483 -3.65691 -2.364629
v -3.658313 -3.656903 0.494812
v -3.594084 -0.9167144 0.5508828
v -3.677482 -1.433863 -2.054747
v -3.677482 -1.433863 -3.61749
v -3.677482 -3.665554 -3.617495
v -3.677482 3.978857 -3.617488
v -3.51875 3.843493 -0.8368697
v -3.54444 -0.5323738 3.194862
v -3.300838 7.62828 3.595273
v -3.247738 7.628283 -0.619709
v -3.677482 -3.665554 -3.617495
v -3.67748 -6.100162 -3.617495
v -3.677483 -6.864899 -2.323383
v -3.677483 -3.65691 -2.364629
v 3.677481 -3.665552 -3.617495
v 3.677482 -3.656909 -2.364629
v 3.57187 -7.762679 -2.325008
v 3.677481 -7.015649 -3.617495
v -3.67748 -6.100162 -3.617495
v -4.166844 -5.937963 -3.617495
v -4.166846 -6.649882 -2.323382
v -3.677483 -6.864899 -2.323383
v 3.57187 -7.762679 -2.325008
v 4.166846 -7.618702 -2.325115
v 4.166844 -7.015649 -3.617495
v 3.677481 -7.015649 -3.617495
vt 0.4393675 0.03538201
vt 0.4389188 0.03505301
vt 0.4391115 0.03536717
vt 0.439347 0.0349455
vt 0.4397737 0.03503727
vt 0.439621 0.03535905
vt 0.4387749 0.03642239
vt 0.4384606 0.03593428
vt 0.4383467 0.03624969
vt 0.4386854 0.03615836
vt 0.4388768 0.03622856
vt 0.4389612 0.03642798
vt 0.4388554 0.03589898
vt 0.4389591 0.03569921
vt 0.4382969 0.03567564
vt 0.4389188 0.03505301
vt 0.4391115 0.03536717
vt 0.4403313 0.03622406
vt 0.4406909 0.03597749
vt 0.4404485 0.0356983
vt 0.4403684 0.03590704
vt 0.4401616 0.03607158
vt 0.4401556 0.03628617
vt 0.4400941 0.03580198
vt 0.4398025 0.03568497
vt 0.4404879 0.03546575
vt 0.4397737 0.03503727
vt 0.439621 0.03535905
vt 0.4401556 0.03628617
vt 0.440185 0.03662775
vt 0.4403582 0.03660635
vt 0.4403313 0.03622406
vt 0.4389612 0.03642798
vt 0.4387749 0.03642239
vt 0.4389027 0.03678482
vt 0.4390749 0.03676138
vt 0.6842787 0.01268048
vt 0.6841676 0.01268048
vt 0.6841676 0.01310133
vt 0.6842787 0.01310133
vt 0.6841676 0.01310105
vt 0.6842787 0.01310105
vt 0.6842787 0.01268077
vt 0.6841676 0.01268077
vn 0 -1 0.0002573597
vn -0.04101067 -0.9991586 0.0002570855
vn -0.04101067 -0.9991586 0.0002570855
vn 0 -1 0.0002573597
vn 0.0410111 -0.9991586 0.0002572009
vn 0.0410111 -0.9991586 0.0002572009
vn -0.9998405 0.001120582 -0.0178267
vn -0.9996139 -0.01890946 -0.0203562
vn -0.9997763 -0.01163647 -0.01766255
vn -0.999747 -0.01061033 -0.01983555
vn -0.999816 -0.005321206 -0.01842852
vn -0.999799 0.007009112 -0.01879073
vn -0.9992642 -0.01063969 -0.03685063
vn -0.9993477 -0.02879252 -0.02179588
vn -0.9993564 -0.03121801 -0.01766943
vn -0.9990183 -0.04236958 -0.01293713
vn -0.9990183 -0.04236958 -0.01293713
vn 0.9999795 -0.003527237 -0.005353485
vn 0.9997763 -0.01163609 -0.01766259
vn 0.9996141 -0.01890907 -0.0203562
vn 0.999747 -0.01060994 -0.01983555
vn 0.9998161 -0.005320817 -0.01842852
vn 1 0 0
vn 0.9992642 -0.01063933 -0.03685062
vn 0.9993477 -0.02879216 -0.02179586
vn 0.9993564 -0.03121763 -0.0176694
vn 0.9990183 -0.04236922 -0.0129371
vn 0.9990183 -0.04236922 -0.0129371
vn 1 0 0
vn 1 0 0
vn 1 0 0
vn 0.9999795 -0.003527237 -0.005353485
vn -0.999799 0.007009112 -0.01879073
vn -0.9998405 0.001120582 -0.0178267
vn -0.9992025 0.0139549 -0.03740997
vn -0.9992025 0.0139549 -0.03740997
vn -0.317448 -0.8236527 -0.4699179
vn -0.317448 -0.8236527 -0.4699179
vn -0.317448 -0.8236527 -0.469918
vn -0.317448 -0.8236527 -0.4699179
vn 0.117097 -0.8822374 -0.4560104
vn 0.117097 -0.8822374 -0.4560104
vn 0.117097 -0.8822374 -0.4560104
vn 0.117097 -0.8822374 -0.4560104
g Color_Boss_14_0
f 3/3/3 2/2/2 1/1/1
f 2/2/2 4/4/4 1/1/1
f 4/4/4 5/5/5 1/1/1
f 5/5/5 6/6/6 1/1/1
f 9/9/9 8/8/8 7/7/7
f 8/8/8 10/10/10 7/7/7
f 10/10/10 11/11/11 7/7/7
f 11/11/11 12/12/12 7/7/7
f 13/13/13 11/11/11 10/10/10
f 14/14/14 13/13/13 10/10/10
f 10/10/10 8/8/8 14/14/14
f 8/8/8 15/15/15 14/14/14
f 14/14/14 15/15/15 16/16/16
f 17/17/17 14/14/14 16/16/16
f 20/20/20 19/19/19 18/18/18
f 21/21/21 20/20/20 18/18/18
f 22/22/22 21/21/21 18/18/18
f 23/23/23 22/22/22 18/18/18
f 22/22/22 24/24/24 21/21/21
f 24/24/24 25/25/25 21/21/21
f 21/21/21 25/25/25 20/20/20
f 25/25/25 26/26/26 20/20/20
f 26/26/26 25/25/25 27/27/27
f 25/25/25 28/28/28 27/27/27
f 31/31/31 30/30/30 29/29/29
f 32/32/32 31/31/31 29/29/29
f 35/35/35 34/34/34 33/33/33
f 36/36/36 35/35/35 33/33/33
f 39/39/39 38/38/38 37/37/37
f 40/40/40 39/39/39 37/37/37
f 43/43/43 42/42/42 41/41/41
f 44/44/44 43/43/43 41/41/41
