g Color_Boss_18
v -12.51652 0.131307 0.1313114
v -7.103203 -2.299809E-06 0.2656249
v -12.51652 -4.203664E-06 0.1857013
v -7.103204 0.1878242 0.1878261
v -12.51652 0.1856979 -2.980232E-08
v -3.835397E-07 1.43981E-07 0.2656249
v -7.103204 0.2656244 -2.980232E-08
v -12.51652 0.1313071 -0.1313133
v -4.49221E-07 0.1878267 0.1878261
v -7.103204 0.1878243 -0.1878262
v -12.51652 -4.127824E-06 -0.1857033
v -7.103203 -2.216983E-06 -0.2656269
v -4.76427E-07 0.2656269 -2.980232E-08
v -4.49221E-07 0.1878268 -0.1878262
v -3.835397E-07 2.864119E-07 -0.2656269
v 7.103202 2.730202E-06 -0.2656269
v 7.103202 0.1878293 -0.1878262
v 12.51652 4.634057E-06 -0.1857033
v 12.51652 0.1313159 -0.1313133
v 7.103202 0.2656294 -2.980232E-08
v 12.51652 0.1857066 -2.980232E-08
v 7.103202 0.1878292 0.1878261
v 12.51652 0.1313158 0.1313114
v 7.103202 2.647376E-06 0.2656249
v 12.51652 4.558218E-06 0.1857013
v -12.51652 -0.1313155 -0.1313133
v -7.103203 -2.216983E-06 -0.2656269
v -12.51652 -4.127824E-06 -0.1857033
v -7.103203 -0.1878289 -0.1878262
v -12.51652 -0.1857064 -2.980232E-08
v -3.835397E-07 2.864119E-07 -0.2656269
v -7.103203 -0.2656291 -2.980232E-08
v -12.51652 -0.1313156 0.1313114
v -3.178584E-07 -0.1878264 -0.1878262
v -7.103203 -0.187829 0.1878261
v -12.51652 -4.203664E-06 0.1857013
v -7.103203 -2.299809E-06 0.2656249
v -2.906524E-07 -0.2656266 -2.980232E-08
v -3.178584E-07 -0.1878265 0.1878261
v -3.835397E-07 1.43981E-07 0.2656249
v 7.103202 2.647376E-06 0.2656249
v 7.103202 -0.187824 0.1878261
v 12.51652 4.558218E-06 0.1857013
v 12.51652 -0.1313068 0.1313114
v 7.103202 -0.2656241 -2.980232E-08
v 12.51652 -0.1856977 -2.980232E-08
v 7.103202 -0.187824 -0.1878262
v 12.51652 -0.1313068 -0.1313133
v 7.103202 2.730202E-06 -0.2656269
v 12.51652 4.634057E-06 -0.1857033
v -12.51652 -0.03783121 -0.0113087
v -12.51652 -0.1313155 -0.1313133
v -12.51652 -4.127824E-06 -0.1857033
v -12.51652 0.1313071 -0.1313133
v -12.51652 -0.1857064 -2.980232E-08
v -12.51652 0.1856979 -2.980232E-08
v -12.51652 -0.1313156 0.1313114
v -12.51652 0.131307 0.1313114
v -12.51652 -4.203664E-06 0.1857013
v 12.51652 -0.0378225 -0.0113087
v 12.51652 0.1313159 -0.1313133
v 12.51652 4.634057E-06 -0.1857033
v 12.51652 -0.1313068 -0.1313133
v 12.51652 0.1857066 -2.980232E-08
v 12.51652 -0.1856977 -2.980232E-08
v 12.51652 0.1313158 0.1313114
v 12.51652 -0.1313068 0.1313114
v 12.51652 4.558218E-06 0.1857013
vt 0.438596 0.09749024
vt 0.4388029 0.09800346
vt 0.438596 0.09769808
vt 0.4388029 0.09770618
vt 0.438596 0.09698851
vt 0.4390744 0.09800346
vt 0.4388029 0.09698851
vt 0.438596 0.09648673
vt 0.4390744 0.09770618
vt 0.4388029 0.09627078
vt 0.438596 0.09627892
vt 0.4388029 0.09597351
vt 0.4390744 0.09698851
vt 0.4390744 0.09627078
vt 0.4390744 0.09597351
vt 0.4393457 0.09597351
vt 0.4393457 0.09627078
vt 0.4395526 0.09627892
vt 0.4395526 0.09648673
vt 0.4393457 0.09698851
vt 0.4395526 0.09698851
vt 0.4393457 0.09770618
vt 0.4395526 0.09749024
vt 0.4393457 0.09800346
vt 0.4395526 0.09769808
vt 0.438596 0.09648673
vt 0.4388029 0.09597351
vt 0.438596 0.09627892
vt 0.4388029 0.09627078
vt 0.438596 0.09698851
vt 0.4390744 0.09597351
vt 0.4388029 0.09698851
vt 0.438596 0.09749024
vt 0.4390744 0.09627078
vt 0.4388029 0.09770618
vt 0.438596 0.09769808
vt 0.4388029 0.09800346
vt 0.4390744 0.09698851
vt 0.4390744 0.09770618
vt 0.4390744 0.09800346
vt 0.4393457 0.09800346
vt 0.4393457 0.09770618
vt 0.4395526 0.09769808
vt 0.4395526 0.09749024
vt 0.4393457 0.09698851
vt 0.4395526 0.09698851
vt 0.4393457 0.09627078
vt 0.4395526 0.09648673
vt 0.4393457 0.09597351
vt 0.4395526 0.09627892
vt 0.439072 0.0969848
vt 0.4390665 0.09694573
vt 0.4390744 0.09692803
vt 0.4390822 0.09694573
vt 0.4390632 0.09698847
vt 0.4390855 0.09698847
vt 0.4390665 0.09703121
vt 0.4390822 0.09703121
vt 0.4390744 0.09704894
vt 0.439072 0.0969848
vt 0.4390822 0.09694573
vt 0.4390744 0.09692803
vt 0.4390665 0.09694573
vt 0.4390855 0.09698847
vt 0.4390632 0.09698847
vt 0.4390822 0.09703121
vt 0.4390665 0.09703121
vt 0.4390744 0.09704894
vn -0.01476302 0.7070274 0.707032
vn -0.007368283 0 0.9999729
vn -0.01476265 0 0.999891
vn -0.0073686 0.7070853 0.7070899
vn -0.01476312 0.999891 0
vn 0 0 1
vn -0.007368697 0.9999728 0
vn -0.01476289 0.7070301 -0.7070295
vn 0 0.7071043 0.7071092
vn -0.00736853 0.7070882 -0.7070869
vn -0.0147625 0 -0.999891
vn -0.007368215 0 -0.9999729
vn 0 1 0
vn 0 0.7071075 -0.7071061
vn 0 0 -1
vn 0.007368225 0 -0.9999729
vn 0.007368025 0.7070881 -0.707087
vn 0.0147625 0 -0.999891
vn 0.01476239 0.7070302 -0.7070293
vn 0.007368002 0.9999729 0
vn 0.01476242 0.999891 0
vn 0.007368096 0.7070853 0.7070899
vn 0.01476253 0.7070276 0.707032
vn 0.007368293 0 0.9999729
vn 0.01476265 0 0.999891
vn -0.01476239 -0.7070299 -0.7070296
vn -0.007368215 0 -0.9999729
vn -0.0147625 0 -0.999891
vn -0.007368027 -0.7070879 -0.7070872
vn -0.01476241 -0.999891 0
vn 0 0 -1
vn -0.007367996 -0.9999729 0
vn -0.01476252 -0.7070275 0.707032
vn 0 -0.7071072 -0.7071063
vn -0.0073681 -0.7070852 0.7070899
vn -0.01476265 0 0.999891
vn -0.007368283 0 0.9999729
vn 0 -1 0
vn 0 -0.7071044 0.7071092
vn 0 0 1
vn 0.007368293 0 0.9999729
vn 0.007368595 -0.7070853 0.7070898
vn 0.01476265 0 0.999891
vn 0.01476302 -0.7070274 0.707032
vn 0.007368695 -0.9999728 0
vn 0.01476311 -0.999891 0
vn 0.007368523 -0.7070879 -0.7070872
vn 0.01476289 -0.7070298 -0.7070297
vn 0.007368225 0 -0.9999729
vn 0.0147625 0 -0.999891
vn -1 0 0
vn -1 0 0
vn -1 0 0
vn -1 0 0
vn -1 0 0
vn -1 0 0
vn -1 0 0
vn -1 0 0
vn -1 0 0
vn 1 0 0
vn 1 0 0
vn 1 0 0
vn 1 0 0
vn 1 0 0
vn 1 0 0
vn 1 0 0
vn 1 0 0
vn 1 0 0
g Color_Boss_18_0
f 3/3/3 2/2/2 1/1/1
f 2/2/2 4/4/4 1/1/1
f 1/1/1 4/4/4 5/5/5
f 4/4/4 2/2/2 6/6/6
f 4/4/4 7/7/7 5/5/5
f 5/5/5 7/7/7 8/8/8
f 9/9/9 4/4/4 6/6/6
f 7/7/7 4/4/4 9/9/9
f 7/7/7 10/10/10 8/8/8
f 8/8/8 10/10/10 11/11/11
f 10/10/10 12/12/12 11/11/11
f 10/10/10 7/7/7 13/13/13
f 13/13/13 7/7/7 9/9/9
f 10/10/10 14/14/14 12/12/12
f 14/14/14 10/10/10 13/13/13
f 14/14/14 15/15/15 12/12/12
f 15/15/15 14/14/14 16/16/16
f 14/14/14 17/17/17 16/16/16
f 17/17/17 14/14/14 13/13/13
f 16/16/16 17/17/17 18/18/18
f 17/17/17 19/19/19 18/18/18
f 20/20/20 17/17/17 13/13/13
f 17/17/17 20/20/20 19/19/19
f 20/20/20 13/13/13 9/9/9
f 20/20/20 21/21/21 19/19/19
f 22/22/22 20/20/20 9/9/9
f 20/20/20 22/22/22 21/21/21
f 22/22/22 9/9/9 6/6/6
f 22/22/22 23/23/23 21/21/21
f 24/24/24 22/22/22 6/6/6
f 22/22/22 24/24/24 23/23/23
f 24/24/24 25/25/25 23/23/23
f 28/28/28 27/27/27 26/26/26
f 27/27/27 29/29/29 26/26/26
f 26/26/26 29/29/29 30/30/30
f 29/29/29 27/27/27 31/31/31
f 29/29/29 32/32/32 30/30/30
f 30/30/30 32/32/32 33/33/33
f 34/34/34 29/29/29 31/31/31
f 32/32/32 29/29/29 34/34/34
f 32/32/32 35/35/35 33/33/33
f 33/33/33 35/35/35 36/36/36
f 35/35/35 37/37/37 36/36/36
f 35/35/35 32/32/32 38/38/38
f 38/38/38 32/32/32 34/34/34
f 37/37/37 35/35/35 39/39/39
f 39/39/39 35/35/35 38/38/38
f 40/40/40 37/37/37 39/39/39
f 41/41/41 40/40/40 39/39/39
f 42/42/42 41/41/41 39/39/39
f 42/42/42 39/39/39 38/38/38
f 41/41/41 42/42/42 43/43/43
f 42/42/42 44/44/44 43/43/43
f 45/45/45 42/42/42 38/38/38
f 42/42/42 45/45/45 44/44/44
f 45/45/45 38/38/38 34/34/34
f 45/45/45 46/46/46 44/44/44
f 47/47/47 45/45/45 34/34/34
f 45/45/45 47/47/47 46/46/46
f 47/47/47 34/34/34 31/31/31
f 47/47/47 48/48/48 46/46/46
f 49/49/49 47/47/47 31/31/31
f 47/47/47 49/49/49 48/48/48
f 49/49/49 50/50/50 48/48/48
f 53/53/53 52/52/52 51/51/51
f 54/54/54 53/53/53 51/51/51
f 55/55/55 51/51/51 52/52/52
f 56/56/56 54/54/54 51/51/51
f 55/55/55 57/57/57 51/51/51
f 58/58/58 56/56/56 51/51/51
f 57/57/57 59/59/59 51/51/51
f 58/58/58 51/51/51 59/59/59
f 62/62/62 61/61/61 60/60/60
f 63/63/63 62/62/62 60/60/60
f 61/61/61 64/64/64 60/60/60
f 60/60/60 65/65/65 63/63/63
f 64/64/64 66/66/66 60/60/60
f 67/67/67 65/65/65 60/60/60
f 60/60/60 66/66/66 68/68/68
f 68/68/68 67/67/67 60/60/60
