g Color_03
v 1.836916 -5.084633 7.848049
v 2.978371 -4.629579 7.332055
v 0.7045404 -5.574304 7.332055
v -0.01392601 -5.917326 6.11653
v 3.717733 -4.366906 6.116529
v -0.2728837 -6.078654 4.612013
v 4.001591 -4.302709 4.612013
v -0.04611534 -6.181478 -1.314358
v 3.862545 -4.55752 -1.314358
vt 0.01099968 0.03732878
vt 0.01129872 0.03728906
vt 0.01069945 0.03728906
vt 0.01050594 0.03719549
vt 0.01148941 0.03719549
vt 0.01043269 0.0370797
vt 0.0115592 0.0370797
vt 0.01047404 0.03662359
vt 0.01150416 0.03662359
vn 0.383453 -0.922922 0.03433152
vn 0.3834589 -0.9229361 0.03388346
vn 0.3834589 -0.9229361 0.03388299
vn 0.3834668 -0.9229553 0.03326593
vn 0.3834668 -0.9229553 0.03326822
vn 0.3834855 -0.9230006 0.0317618
vn 0.3834853 -0.9230004 0.03176905
vn 0.3834983 -0.9230316 0.03068912
vn 0.3834983 -0.9230316 0.03068911
g Color_03_0
f 3/3/3 2/2/2 1/1/1
f 3/3/3 4/4/4 2/2/2
f 4/4/4 5/5/5 2/2/2
f 4/4/4 6/6/6 5/5/5
f 6/6/6 7/7/7 5/5/5
f 7/7/7 6/6/6 8/8/8
f 9/9/9 7/7/7 8/8/8
