g Color_032
v 4.688498 4.688498 0.8727428
v 1.6869 6.23982 0.8975331
v 1.742178 6.501905 0.6308366
v -4.6885 4.688497 0.8727428
v -6.152857 1.648653 0.8975353
v -6.501904 1.74218 0.6308391
v -4.759726 -4.759722 0.6308423
v -4.504204 -4.504202 0.8975385
v -1.716111 -6.404605 0.8727487
v 1.716108 -6.404603 0.8727487
v 4.504202 -4.504203 0.8975385
v 4.759722 -4.759723 0.6308423
v 6.404606 1.716109 0.8727444
v 6.501904 -1.742182 0.6308407
v 6.152858 -1.648655 0.8975369
v -1.742182 6.5019 0.6308367
v 1.742178 6.501905 0.6308366
v 1.6869 6.23982 0.8975331
v 2.824778 6.122266 -0.1507551
v 1.799124 6.714429 0.1703474
v 0.7416093 6.714428 -0.1124716
v -5.112089 -4.421104 -0.1151646
v -4.849992 -4.849987 0.1703531
v -3.757576 -5.484477 -0.1515703
v 3.303362 -5.845957 -0.1050916
v 4.915302 -4.915303 0.1703533
v 5.166743 -4.479799 -0.1151646
v 2.824778 6.122266 -0.1507551
v 0.7416093 6.714428 -0.1124716
v 1.799124 6.714427 -0.342628
v -5.112089 -4.421104 -0.1151646
v -3.757576 -5.484477 -0.1515703
v -4.849992 -4.849989 -0.3426224
v 3.303362 -5.845957 -0.1050916
v 5.166743 -4.479799 -0.1151646
v 4.915302 -4.915304 -0.3426223
v 1.716107 6.404603 -0.872749
v -1.716111 6.404601 -0.872749
v -1.319433 4.924182 -1.066513
v 1.319431 4.924181 -1.066513
v 4.688497 4.688494 -0.8727482
v 3.604755 3.604752 -1.066512
v 6.404606 1.716107 -0.8727466
v 4.924187 1.319429 -1.066511
v 6.404608 -1.716113 -0.8727449
v 4.924189 -1.319435 -1.066509
v 4.688495 -4.688498 -0.8727433
v 3.604754 -3.604757 -1.066509
v 1.716107 -6.404604 -0.8727425
v 1.319431 -4.924186 -1.066508
v -1.716111 6.404601 -0.872749
v -3.604755 3.604751 -1.066512
v -1.319433 4.924182 -1.066513
v -4.688499 4.688494 -0.8727482
v -4.924186 1.319428 -1.066511
v -6.404607 1.716107 -0.8727466
v -4.924185 -1.319432 -1.066509
v -6.404606 -1.71611 -0.8727449
v -3.604754 -3.604755 -1.066509
v -4.688498 -4.688497 -0.8727433
v -1.319433 -4.924185 -1.066508
v -1.71611 -6.404604 -0.8727425
v 1.319431 -4.924186 -1.066508
v 1.716107 -6.404604 -0.8727425
v 1.6869 6.23982 0.8975331
v -1.188877 4.436943 1.066507
v -1.742182 6.5019 0.6308367
v 1.188874 4.436941 1.066507
v 4.688498 4.688498 0.8727428
v 3.248065 3.248067 1.066508
v 6.404606 1.716109 0.8727444
v 4.436942 1.188875 1.066509
v 4.436942 -1.188877 1.06651
v 6.152858 -1.648655 0.8975369
v 4.504202 -4.504203 0.8975385
v 3.248067 -3.248068 1.066511
v 1.716108 -6.404603 0.8727487
v 1.188874 -4.436942 1.066512
v -1.742182 6.5019 0.6308367
v -1.188877 4.436943 1.066507
v -3.24807 3.248066 1.066508
v -4.6885 4.688497 0.8727428
v -4.436943 1.188875 1.066509
v -6.152857 1.648653 0.8975353
v -4.436943 -1.188875 1.06651
v -6.152856 -1.648653 0.8975369
v -3.248067 -3.248067 1.066511
v -4.504204 -4.504202 0.8975385
v -1.716111 -6.404605 0.8727487
v -1.188876 -4.43694 1.066512
v 1.188874 -4.436942 1.066512
v 1.716108 -6.404603 0.8727487
v 4.688498 4.688498 0.8727428
v 6.714429 1.799126 0.1703499
v 6.404606 1.716109 0.8727444
v 4.915302 4.915303 0.1703481
v 6.714429 1.799124 -0.3426256
v 4.915302 4.915302 -0.3426273
v 6.404606 1.716107 -0.8727466
v 4.688497 4.688494 -0.8727482
v 1.799124 6.714429 0.1703474
v 4.688498 4.688498 0.8727428
v 1.742178 6.501905 0.6308366
v 4.915302 4.915303 0.1703481
v 2.824778 6.122266 -0.1507551
v 4.915302 4.915302 -0.3426273
v 1.799124 6.714427 -0.342628
v 4.688497 4.688494 -0.8727482
v 1.716107 6.404603 -0.872749
v -1.742182 6.5019 0.6308367
v 1.799124 6.714429 0.1703474
v 1.742178 6.501905 0.6308366
v -1.799128 6.714426 0.1703474
v 0.7416093 6.714428 -0.1124716
v -1.799128 6.714425 -0.342628
v 1.799124 6.714427 -0.342628
v 1.716107 6.404603 -0.872749
v -1.716111 6.404601 -0.872749
v -4.6885 4.688497 0.8727428
v -1.799128 6.714426 0.1703474
v -1.742182 6.5019 0.6308367
v -4.915307 4.915302 0.1703481
v -1.799128 6.714425 -0.342628
v -4.915305 4.9153 -0.3426273
v -1.716111 6.404601 -0.872749
v -4.688499 4.688494 -0.8727482
v -6.71443 1.799127 0.1703499
v -4.6885 4.688497 0.8727428
v -6.501904 1.74218 0.6308391
v -4.915307 4.915302 0.1703481
v -4.915305 4.9153 -0.3426273
v -6.71443 1.799125 -0.3426256
v -4.688499 4.688494 -0.8727482
v -6.404607 1.716107 -0.8727466
v -6.501903 -1.74218 0.6308407
v -6.71443 1.799127 0.1703499
v -6.501904 1.74218 0.6308391
v -6.714429 -1.799126 0.1703517
v -6.71443 1.799125 -0.3426256
v -6.714429 -1.799126 -0.3426239
v -6.404607 1.716107 -0.8727466
v -6.404606 -1.71611 -0.8727449
v -4.759726 -4.759722 0.6308423
v -6.714429 -1.799126 0.1703517
v -6.501903 -1.74218 0.6308407
v -4.849992 -4.849987 0.1703531
v -5.112089 -4.421104 -0.1151646
v -6.714429 -1.799126 -0.3426239
v -4.849992 -4.849989 -0.3426224
v -6.404606 -1.71611 -0.8727449
v -4.688498 -4.688497 -0.8727433
v -1.716111 -6.404605 0.8727487
v -4.849992 -4.849987 0.1703531
v -4.759726 -4.759722 0.6308423
v -1.799128 -6.714429 0.1703542
v -3.757576 -5.484477 -0.1515703
v -1.799127 -6.714429 -0.3426214
v -4.849992 -4.849989 -0.3426224
v -4.688498 -4.688497 -0.8727433
v -1.71611 -6.404604 -0.8727425
v 1.716108 -6.404603 0.8727487
v -1.799128 -6.714429 0.1703542
v -1.716111 -6.404605 0.8727487
v 1.799124 -6.714428 0.1703542
v -1.799127 -6.714429 -0.3426214
v 1.799124 -6.714428 -0.3426214
v -1.71611 -6.404604 -0.8727425
v 1.716107 -6.404604 -0.8727425
v 4.915302 -4.915303 0.1703533
v 1.716108 -6.404603 0.8727487
v 4.759722 -4.759723 0.6308423
v 1.799124 -6.714428 0.1703542
v 3.303362 -5.845957 -0.1050916
v 1.799124 -6.714428 -0.3426214
v 4.915302 -4.915304 -0.3426223
v 1.716107 -6.404604 -0.8727425
v 4.688495 -4.688498 -0.8727433
v 6.501904 -1.742182 0.6308407
v 4.915302 -4.915303 0.1703533
v 4.759722 -4.759723 0.6308423
v 6.71443 -1.799129 0.1703517
v 5.166743 -4.479799 -0.1151646
v 6.71443 -1.799129 -0.3426239
v 4.915302 -4.915304 -0.3426223
v 4.688495 -4.688498 -0.8727433
v 6.404608 -1.716113 -0.8727449
v 6.404606 1.716109 0.8727444
v 6.71443 -1.799129 0.1703517
v 6.501904 -1.742182 0.6308407
v 6.714429 1.799126 0.1703499
v 6.71443 -1.799129 -0.3426239
v 6.714429 1.799124 -0.3426256
v 6.404608 -1.716113 -0.8727449
v 6.404606 1.716107 -0.8727466
v -6.501903 -1.74218 0.6308407
v -6.501904 1.74218 0.6308391
v -6.152857 1.648653 0.8975353
v -6.152856 -1.648653 0.8975369
v -4.759726 -4.759722 0.6308423
v -6.501903 -1.74218 0.6308407
v -6.152856 -1.648653 0.8975369
v -4.504204 -4.504202 0.8975385
v 6.501904 -1.742182 0.6308407
v 4.759722 -4.759723 0.6308423
v 4.504202 -4.504203 0.8975385
v 6.152858 -1.648655 0.8975369
vt 0.1439599 0.01226416
vt 0.144117 0.01246446
vt 0.1441823 0.01212251
vt 0.1439411 0.0123177
vt 0.1441488 0.01252523
vt 0.1442011 0.01206173
vt 0.1426136 0.01212251
vt 0.1426788 0.01246445
vt 0.1455286 0.01226415
vt 0.1439633 0.01226785
vt 0.1441168 0.01246076
vt 0.1441789 0.01212621
vt 0.14441 0.01278457
vt 0.1446016 0.01204635
vt 0.1439904 0.0124398
vt 0.1442885 0.01260992
vt 0.1438537 0.01197705
vt 0.1438861 0.01260992
vt 0.145761 0.03440822
vt 0.1432873 0.03296137
vt 0.1408135 0.03465597
vt 0.1457795 0.03440826
vt 0.1432873 0.03296137
vt 0.140795 0.03465594
vt 0.145761 0.03440822
vt 0.1432873 0.03296137
vt 0.1408135 0.03465597
vt 0.146107 0.01085243
vt 0.1415698 0.01107964
vt 0.1438385 0.0124065
vt 0.146124 0.01085246
vt 0.1415529 0.01107961
vt 0.1438385 0.0124065
vt 0.146107 0.01085243
vt 0.1415698 0.01107964
vt 0.1438385 0.0124065
vt 0.1446914 0.03781708
vt 0.145125 0.03781708
vt 0.145125 0.03410995
vt 0.1446914 0.03410995
vt 0.1442435 0.03781708
vt 0.1442435 0.03410995
vt 0.1437913 0.03781708
vt 0.1437913 0.03410995
vt 0.143339 0.03781708
vt 0.143339 0.03410995
vt 0.1428904 0.03781708
vt 0.1428904 0.03410995
vt 0.1424562 0.03781708
vt 0.1424562 0.03410995
vt 0.1424562 0.03781708
vt 0.1428904 0.03410995
vt 0.1424562 0.03410995
vt 0.1428904 0.03781708
vt 0.143339 0.03410995
vt 0.143339 0.03781708
vt 0.1437913 0.03410995
vt 0.1437913 0.03781708
vt 0.1442435 0.03410995
vt 0.1442435 0.03781708
vt 0.1446914 0.03410995
vt 0.1446914 0.03781708
vt 0.145125 0.03410995
vt 0.145125 0.03781708
vt 0.09717084 0.01616708
vt 0.09757321 0.01381715
vt 0.09757321 0.01616708
vt 0.09717084 0.01381715
vt 0.09713914 0.01651185
vt 0.09675525 0.01381715
vt 0.09633563 0.01651185
vt 0.09633563 0.01381715
vt 0.09591602 0.01381715
vt 0.09591602 0.01616708
vt 0.0954998 0.01616708
vt 0.0954998 0.01381715
vt 0.09546907 0.01651185
vt 0.09509684 0.01381715
vt 0.09509684 0.01616708
vt 0.09509684 0.01381715
vt 0.0954998 0.01381715
vt 0.09588428 0.01651185
vt 0.09591602 0.01381715
vt 0.09591602 0.01616708
vt 0.09633563 0.01381715
vt 0.09633563 0.01616708
vt 0.09675525 0.01381715
vt 0.09675525 0.01616708
vt 0.09717084 0.01651185
vt 0.09717084 0.01381715
vt 0.09757321 0.01381715
vt 0.09757321 0.01651185
vt 0.1227462 0.03667027
vt 0.1193104 0.03585517
vt 0.1193104 0.03667027
vt 0.1227462 0.03585517
vt 0.1193104 0.03374732
vt 0.1227462 0.03374732
vt 0.1193104 0.03278651
vt 0.1227462 0.03278651
vt 0.09758259 0.01078064
vt 0.09736024 0.01123168
vt 0.09758259 0.01109003
vt 0.0946676 0.01078064
vt 0.0971752 0.01019746
vt 0.0946676 0.009614276
vt 0.09758259 0.009904912
vt 0.0946676 0.009082617
vt 0.09758259 0.009082617
vt 0.1226756 0.0364143
vt 0.119381 0.03585517
vt 0.119381 0.0364143
vt 0.1226756 0.03585517
vt 0.1198414 0.03480124
vt 0.1226756 0.03374732
vt 0.119381 0.03427255
vt 0.119381 0.03278651
vt 0.1226756 0.03278651
vt 0.09753813 0.01123167
vt 0.09471206 0.01078065
vt 0.09477417 0.01142459
vt 0.09753813 0.01078065
vt 0.09471206 0.009614279
vt 0.09753813 0.009614279
vt 0.09471206 0.009082617
vt 0.09753813 0.009082617
vt 0.1227325 0.03585517
vt 0.1224725 0.03667027
vt 0.1227325 0.0364143
vt 0.1193241 0.03585517
vt 0.1193241 0.03374732
vt 0.1227325 0.03374732
vt 0.1193241 0.03278651
vt 0.1227325 0.03278651
vt 0.09759657 0.01109003
vt 0.09465362 0.01078065
vt 0.09465362 0.01109003
vt 0.09759657 0.01078065
vt 0.09465362 0.009614279
vt 0.09759657 0.009614279
vt 0.09465362 0.009082617
vt 0.09759657 0.009082617
vt 0.1227462 0.0364143
vt 0.1193104 0.03585517
vt 0.1193104 0.0364143
vt 0.1227462 0.03585517
vt 0.1222632 0.03480125
vt 0.1193104 0.03374732
vt 0.1227462 0.03427256
vt 0.1193104 0.03278651
vt 0.1227462 0.03278651
vt 0.09758259 0.01123167
vt 0.0946676 0.01078065
vt 0.0946676 0.01109003
vt 0.09758259 0.01078065
vt 0.09507738 0.01019746
vt 0.09758259 0.009614279
vt 0.0946676 0.009904915
vt 0.0946676 0.009082617
vt 0.09758259 0.009082617
vt 0.1226756 0.03667027
vt 0.119381 0.03585517
vt 0.119381 0.03667027
vt 0.1226756 0.03585517
vt 0.119381 0.03374732
vt 0.1226756 0.03374732
vt 0.119381 0.03278651
vt 0.1226756 0.03278651
vt 0.09753813 0.01078064
vt 0.09732257 0.01123168
vt 0.09753813 0.01109003
vt 0.09471206 0.01078064
vt 0.09714316 0.01019746
vt 0.09471206 0.009614276
vt 0.09753813 0.009904912
vt 0.09471206 0.009082617
vt 0.09753813 0.009082617
vt 0.1227325 0.0364143
vt 0.1193241 0.03585517
vt 0.1193241 0.0364143
vt 0.1227325 0.03585517
vt 0.1198004 0.03480124
vt 0.1227325 0.03374732
vt 0.1193241 0.03427255
vt 0.1193241 0.03278651
vt 0.1227325 0.03278651
vt 0.09759657 0.01123168
vt 0.09465362 0.01078064
vt 0.09465362 0.01109003
vt 0.09759657 0.01078064
vt 0.09465362 0.009614276
vt 0.09759657 0.009614276
vt 0.09465362 0.009082617
vt 0.09759657 0.009082617
vt 0.1441049 0.01197422
vt 0.1436177 0.01197423
vt 0.1436515 0.01261274
vt 0.1440711 0.01261274
vt 0.1445245 0.01197424
vt 0.1440373 0.01197424
vt 0.1440711 0.01261274
vt 0.1444907 0.01261274
vt 0.1440239 0.0118024
vt 0.1435406 0.0118024
vt 0.1435741 0.0124398
vt 0.1439904 0.0124398
vn 0.4443112 0.4449194 0.7775823
vn 0.1049793 0.4520555 0.8857907
vn 0.2074559 0.8022848 0.5597332
vn -0.4369699 0.4500833 0.7787699
vn -0.3793514 0.08840103 0.9210199
vn -0.7664798 0.1974719 0.6111575
vn -0.5819144 -0.5710432 0.5790382
vn -0.2843271 -0.2662324 0.9210203
vn -0.1721927 -0.6187524 0.7664824
vn 0.1638953 -0.6069586 0.77765
vn 0.2843275 -0.266233 0.9210199
vn 0.5650547 -0.5542558 0.6111576
vn 0.6075901 0.1615427 0.7776492
vn 0.7625272 -0.2122243 0.6111571
vn 0.372729 -0.1131181 0.9210197
vn -0.1706119 0.6387348 0.7502729
vn 0.2074559 0.8022848 0.5597332
vn 0.1049793 0.4520555 0.8857907
vn 0.1853233 0.6967497 -0.6929611
vn 0.1853233 0.6967497 -0.692961
vn 0.1853233 0.6967497 -0.692961
vn -0.8240544 -0.5665091 0.001354598
vn -0.6878452 -0.7255005 -0.02275509
vn -0.5279679 -0.8487363 0.02994478
vn 0.5041104 -0.8636392 2.588184E-05
vn 0.6790518 -0.7336217 -0.02622827
vn 0.8331295 -0.5530738 0.002097083
vn 0.1754504 0.5650995 0.8061512
vn 0.1754504 0.5650996 0.8061512
vn 0.1754504 0.5650995 0.8061512
vn -0.8240544 -0.5665091 0.001354598
vn -0.5279679 -0.8487363 0.02994478
vn -0.6790832 -0.7329452 0.0404627
vn 0.5041104 -0.8636392 2.588184E-05
vn 0.8331295 -0.5530738 0.002097083
vn 0.6779011 -0.7346178 0.02804914
vn 0.03246269 0.1211522 -0.992103
vn -0.03246278 0.1211522 -0.992103
vn -0.03246274 0.1211522 -0.992103
vn 0.03246273 0.1211522 -0.992103
vn 0.08868991 0.08868947 -0.9921029
vn 0.0886899 0.0886895 -0.992103
vn 0.1211528 0.03246233 -0.9921029
vn 0.1211528 0.03246234 -0.9921029
vn 0.1211529 -0.03246338 -0.9921029
vn 0.1211529 -0.03246339 -0.9921029
vn 0.08869009 -0.08869074 -0.9921028
vn 0.08869007 -0.08869076 -0.9921028
vn 0.03246281 -0.1211535 -0.9921028
vn 0.03246281 -0.1211535 -0.9921028
vn -0.03246278 0.1211522 -0.992103
vn -0.08868988 0.08868943 -0.992103
vn -0.03246274 0.1211522 -0.992103
vn -0.08868989 0.08868941 -0.992103
vn -0.1211527 0.03246219 -0.9921029
vn -0.1211526 0.03246225 -0.9921029
vn -0.1211528 -0.03246331 -0.9921029
vn -0.1211528 -0.03246331 -0.9921029
vn -0.08869005 -0.08869058 -0.9921029
vn -0.08869007 -0.08869056 -0.9921029
vn -0.03246283 -0.1211535 -0.9921028
vn -0.03246284 -0.1211535 -0.9921028
vn 0.03246281 -0.1211535 -0.9921028
vn 0.03246281 -0.1211535 -0.9921028
vn 0.1049793 0.4520555 0.8857907
vn -0.04105801 0.1531159 0.9873549
vn -0.1706119 0.6387348 0.7502729
vn 0.005234834 0.1181967 0.9929764
vn 0.4443112 0.4449194 0.7775823
vn 0.06706818 0.06547419 0.9955979
vn 0.6075901 0.1615427 0.7776492
vn 0.09146493 0.02450847 0.9955066
vn 0.09146495 -0.0245075 0.9955066
vn 0.372729 -0.1131181 0.9210197
vn 0.2843275 -0.266233 0.9210199
vn 0.06695703 -0.06695658 0.9955066
vn 0.1638953 -0.6069586 0.77765
vn 0.02450798 -0.09146456 0.9955066
vn -0.1706119 0.6387348 0.7502729
vn -0.04105801 0.1531159 0.9873549
vn -0.06439076 0.1008724 0.9928135
vn -0.4369699 0.4500833 0.7787699
vn -0.09146506 0.02450844 0.9955066
vn -0.3793514 0.08840103 0.9210199
vn -0.09146506 -0.02450749 0.9955066
vn -0.3813397 -0.1021791 0.9187706
vn -0.06695705 -0.0669565 0.9955066
vn -0.2843271 -0.2662324 0.9210203
vn -0.1721927 -0.6187524 0.7664824
vn -0.02450798 -0.09146449 0.9955066
vn 0.02450798 -0.09146456 0.9955066
vn 0.1638953 -0.6069586 0.77765
vn 0.4443112 0.4449194 0.7775823
vn 0.9449961 0.2530241 0.2072712
vn 0.6075901 0.1615427 0.7776492
vn 0.6916229 0.6918793 0.2072702
vn 0.9332475 0.2500629 -0.2579103
vn 0.6831843 0.6831845 -0.2579111
vn 0.8264258 0.22144 -0.5176723
vn 0.6049857 0.6049851 -0.517673
vn 0.2409786 0.8988473 0.3660638
vn 0.4443112 0.4449194 0.7775823
vn 0.2074559 0.8022848 0.5597332
vn 0.6916229 0.6918793 0.2072702
vn 0.5 0.8660254 0
vn 0.6831843 0.6831845 -0.2579111
vn 0.2247903 0.8561602 -0.4652515
vn 0.6049857 0.6049851 -0.517673
vn 0.2214397 0.8264251 -0.5176737
vn -0.1706119 0.6387348 0.7502729
vn 0.2409786 0.8988473 0.3660638
vn 0.2074559 0.8022848 0.5597332
vn -0.2529112 0.9441904 0.211046
vn 0 1 0
vn -0.2500631 0.9332469 -0.2579122
vn 0.2247903 0.8561602 -0.4652515
vn 0.2214397 0.8264251 -0.5176737
vn -0.2214402 0.8264252 -0.5176733
vn -0.4369699 0.4500833 0.7787699
vn -0.2529112 0.9441904 0.211046
vn -0.1706119 0.6387348 0.7502729
vn -0.6915023 0.6915023 0.2089239
vn -0.2500631 0.9332469 -0.2579122
vn -0.683184 0.6831844 -0.2579119
vn -0.2214402 0.8264252 -0.5176733
vn -0.6049858 0.6049854 -0.5176726
vn -0.94419 0.2529111 0.2110477
vn -0.4369699 0.4500833 0.7787699
vn -0.7664798 0.1974719 0.6111575
vn -0.6915023 0.6915023 0.2089239
vn -0.683184 0.6831844 -0.2579119
vn -0.9332474 0.2500625 -0.257911
vn -0.6049858 0.6049854 -0.5176726
vn -0.8264259 0.2214397 -0.5176723
vn -0.7713521 -0.2126411 0.599833
vn -0.94419 0.2529111 0.2110477
vn -0.7664798 0.1974719 0.6111575
vn -0.9447274 -0.2646692 0.1934949
vn -0.9332474 0.2500625 -0.257911
vn -0.9341866 -0.2617482 -0.2424528
vn -0.8264259 0.2214397 -0.5176723
vn -0.839645 -0.2351148 -0.4896093
vn -0.5819144 -0.5710432 0.5790382
vn -0.9447274 -0.2646692 0.1934949
vn -0.7713521 -0.2126411 0.599833
vn -0.6878452 -0.7255005 -0.02275509
vn -0.8240544 -0.5665091 0.001354598
vn -0.9341866 -0.2617482 -0.2424528
vn -0.6790832 -0.7329452 0.0404627
vn -0.839645 -0.2351148 -0.4896093
vn -0.6284132 -0.6284136 -0.4584684
vn -0.1721927 -0.6187524 0.7664824
vn -0.6878452 -0.7255005 -0.02275509
vn -0.5819144 -0.5710432 0.5790382
vn -0.2668946 -0.9449277 0.1894172
vn -0.5279679 -0.8487363 0.02994478
vn -0.2648689 -0.9337813 -0.2406178
vn -0.6790832 -0.7329452 0.0404627
vn -0.6284132 -0.6284136 -0.4584684
vn -0.2351144 -0.8396444 -0.4896107
vn 0.1638953 -0.6069586 0.77765
vn -0.2668946 -0.9449277 0.1894172
vn -0.1721927 -0.6187524 0.7664824
vn 0.2533731 -0.9449021 0.2072729
vn -0.2648689 -0.9337813 -0.2406178
vn 0.2500629 -0.9332475 -0.2579102
vn -0.2351144 -0.8396444 -0.4896107
vn 0.2214398 -0.8264252 -0.5176735
vn 0.6790518 -0.7336217 -0.02622827
vn 0.1638953 -0.6069586 0.77765
vn 0.5650547 -0.5542558 0.6111576
vn 0.2533731 -0.9449021 0.2072729
vn 0.5041104 -0.8636392 2.588184E-05
vn 0.2500629 -0.9332475 -0.2579102
vn 0.6779011 -0.7346178 0.02804914
vn 0.2214398 -0.8264252 -0.5176735
vn 0.6049848 -0.6049863 -0.5176727
vn 0.7625272 -0.2122243 0.6111571
vn 0.6790518 -0.7336217 -0.02622827
vn 0.5650547 -0.5542558 0.6111576
vn 0.9441478 -0.2530677 0.211049
vn 0.8331295 -0.5530738 0.002097083
vn 0.9332475 -0.2500633 -0.2579099
vn 0.6779011 -0.7346178 0.02804914
vn 0.6049848 -0.6049863 -0.5176727
vn 0.8264257 -0.2214406 -0.5176724
vn 0.6075901 0.1615427 0.7776492
vn 0.9441478 -0.2530677 0.211049
vn 0.7625272 -0.2122243 0.6111571
vn 0.9449961 0.2530241 0.2072712
vn 0.9332475 -0.2500633 -0.2579099
vn 0.9332475 0.2500629 -0.2579103
vn 0.8264257 -0.2214406 -0.5176724
vn 0.8264258 0.22144 -0.5176723
vn -0.7713521 -0.2126411 0.599833
vn -0.7664798 0.1974719 0.6111575
vn -0.3793514 0.08840103 0.9210199
vn -0.3813397 -0.1021791 0.9187706
vn -0.5819144 -0.5710432 0.5790382
vn -0.7713521 -0.2126411 0.599833
vn -0.3813397 -0.1021791 0.9187706
vn -0.2843271 -0.2662324 0.9210203
vn 0.7625272 -0.2122243 0.6111571
vn 0.5650547 -0.5542558 0.6111576
vn 0.2843275 -0.266233 0.9210199
vn 0.372729 -0.1131181 0.9210197
g Color_032_0
f 3/3/3 2/2/2 1/1/1
f 6/6/6 5/5/5 4/4/4
f 9/9/9 8/8/8 7/7/7
f 12/12/12 11/11/11 10/10/10
f 15/15/15 14/14/14 13/13/13
f 18/18/18 17/17/17 16/16/16
f 21/21/21 20/20/20 19/19/19
f 24/24/24 23/23/23 22/22/22
f 27/27/27 26/26/26 25/25/25
f 30/30/30 29/29/29 28/28/28
f 33/33/33 32/32/32 31/31/31
f 36/36/36 35/35/35 34/34/34
f 39/39/39 38/38/38 37/37/37
f 40/40/40 39/39/39 37/37/37
f 40/40/40 37/37/37 41/41/41
f 42/42/42 40/40/40 41/41/41
f 42/42/42 41/41/41 43/43/43
f 44/44/44 42/42/42 43/43/43
f 44/44/44 43/43/43 45/45/45
f 46/46/46 44/44/44 45/45/45
f 46/46/46 45/45/45 47/47/47
f 48/48/48 46/46/46 47/47/47
f 48/48/48 47/47/47 49/49/49
f 50/50/50 48/48/48 49/49/49
f 53/53/53 52/52/52 51/51/51
f 52/52/52 54/54/54 51/51/51
f 52/52/52 55/55/55 54/54/54
f 55/55/55 56/56/56 54/54/54
f 55/55/55 57/57/57 56/56/56
f 57/57/57 58/58/58 56/56/56
f 57/57/57 59/59/59 58/58/58
f 59/59/59 60/60/60 58/58/58
f 59/59/59 61/61/61 60/60/60
f 61/61/61 62/62/62 60/60/60
f 61/61/61 63/63/63 62/62/62
f 63/63/63 64/64/64 62/62/62
f 67/67/67 66/66/66 65/65/65
f 66/66/66 68/68/68 65/65/65
f 65/65/65 68/68/68 69/69/69
f 68/68/68 70/70/70 69/69/69
f 69/69/69 70/70/70 71/71/71
f 70/70/70 72/72/72 71/71/71
f 72/72/72 73/73/73 71/71/71
f 73/73/73 74/74/74 71/71/71
f 74/74/74 73/73/73 75/75/75
f 73/73/73 76/76/76 75/75/75
f 75/75/75 76/76/76 77/77/77
f 76/76/76 78/78/78 77/77/77
f 81/81/81 80/80/80 79/79/79
f 82/82/82 81/81/81 79/79/79
f 83/83/83 81/81/81 82/82/82
f 84/84/84 83/83/83 82/82/82
f 85/85/85 83/83/83 84/84/84
f 86/86/86 85/85/85 84/84/84
f 87/87/87 85/85/85 86/86/86
f 88/88/88 87/87/87 86/86/86
f 87/87/87 88/88/88 89/89/89
f 90/90/90 87/87/87 89/89/89
f 91/91/91 90/90/90 89/89/89
f 92/92/92 91/91/91 89/89/89
f 95/95/95 94/94/94 93/93/93
f 94/94/94 96/96/96 93/93/93
f 94/94/94 97/97/97 96/96/96
f 97/97/97 98/98/98 96/96/96
f 98/98/98 97/97/97 99/99/99
f 100/100/100 98/98/98 99/99/99
f 103/103/103 102/102/102 101/101/101
f 102/102/102 104/104/104 101/101/101
f 101/101/101 104/104/104 105/105/105
f 104/104/104 106/106/106 105/105/105
f 105/105/105 106/106/106 107/107/107
f 107/107/107 106/106/106 108/108/108
f 109/109/109 107/107/107 108/108/108
f 112/112/112 111/111/111 110/110/110
f 111/111/111 113/113/113 110/110/110
f 111/111/111 114/114/114 113/113/113
f 113/113/113 114/114/114 115/115/115
f 114/114/114 116/116/116 115/115/115
f 115/115/115 116/116/116 117/117/117
f 118/118/118 115/115/115 117/117/117
f 121/121/121 120/120/120 119/119/119
f 120/120/120 122/122/122 119/119/119
f 120/120/120 123/123/123 122/122/122
f 123/123/123 124/124/124 122/122/122
f 124/124/124 123/123/123 125/125/125
f 126/126/126 124/124/124 125/125/125
f 129/129/129 128/128/128 127/127/127
f 128/128/128 130/130/130 127/127/127
f 130/130/130 131/131/131 127/127/127
f 131/131/131 132/132/132 127/127/127
f 132/132/132 131/131/131 133/133/133
f 134/134/134 132/132/132 133/133/133
f 137/137/137 136/136/136 135/135/135
f 136/136/136 138/138/138 135/135/135
f 136/136/136 139/139/139 138/138/138
f 139/139/139 140/140/140 138/138/138
f 140/140/140 139/139/139 141/141/141
f 142/142/142 140/140/140 141/141/141
f 145/145/145 144/144/144 143/143/143
f 144/144/144 146/146/146 143/143/143
f 146/146/146 144/144/144 147/147/147
f 144/144/144 148/148/148 147/147/147
f 147/147/147 148/148/148 149/149/149
f 149/149/149 148/148/148 150/150/150
f 151/151/151 149/149/149 150/150/150
f 154/154/154 153/153/153 152/152/152
f 153/153/153 155/155/155 152/152/152
f 153/153/153 156/156/156 155/155/155
f 155/155/155 156/156/156 157/157/157
f 156/156/156 158/158/158 157/157/157
f 157/157/157 158/158/158 159/159/159
f 160/160/160 157/157/157 159/159/159
f 163/163/163 162/162/162 161/161/161
f 162/162/162 164/164/164 161/161/161
f 162/162/162 165/165/165 164/164/164
f 165/165/165 166/166/166 164/164/164
f 166/166/166 165/165/165 167/167/167
f 168/168/168 166/166/166 167/167/167
f 171/171/171 170/170/170 169/169/169
f 170/170/170 172/172/172 169/169/169
f 169/169/169 172/172/172 173/173/173
f 172/172/172 174/174/174 173/173/173
f 173/173/173 174/174/174 175/175/175
f 175/175/175 174/174/174 176/176/176
f 177/177/177 175/175/175 176/176/176
f 180/180/180 179/179/179 178/178/178
f 179/179/179 181/181/181 178/178/178
f 179/179/179 182/182/182 181/181/181
f 181/181/181 182/182/182 183/183/183
f 182/182/182 184/184/184 183/183/183
f 183/183/183 184/184/184 185/185/185
f 186/186/186 183/183/183 185/185/185
f 189/189/189 188/188/188 187/187/187
f 188/188/188 190/190/190 187/187/187
f 188/188/188 191/191/191 190/190/190
f 191/191/191 192/192/192 190/190/190
f 192/192/192 191/191/191 193/193/193
f 194/194/194 192/192/192 193/193/193
f 197/197/197 196/196/196 195/195/195
f 198/198/198 197/197/197 195/195/195
f 201/201/201 200/200/200 199/199/199
f 202/202/202 201/201/201 199/199/199
f 205/205/205 204/204/204 203/203/203
f 206/206/206 205/205/205 203/203/203
