g Color_Guns_007
v -1.591732 1.49391 0.6187991
v -1.7831 1.541177 0.6383777
v -1.680579 1.541177 -0.6383756
v -1.591734 -0.6187987 1.493912
v -1.680579 -1.541178 0.6383776
v -1.783102 -0.6383772 1.541178
v 2.328186 1.541178 0.6383756
v -1.353729 1.434774 -0.5943022
v 2.328186 1.541178 -0.6383778
v -1.353729 1.434773 0.5943037
v -1.591732 1.49391 0.6187991
v -1.680579 1.541177 -0.6383756
v 2.328186 0.6383768 1.541176
v -1.353729 1.434773 0.5943037
v 2.328186 1.541178 0.6383756
v -1.353729 0.594302 1.434775
v -1.591735 0.6187972 1.493912
v -1.591732 1.49391 0.6187991
v 2.328189 -0.638376 1.541176
v -1.353729 0.594302 1.434775
v 2.328186 0.6383768 1.541176
v -1.353727 -0.5943035 1.434775
v -1.591734 -0.6187987 1.493912
v -1.591735 0.6187972 1.493912
v 2.328186 -1.541177 0.6383752
v -1.353727 -0.5943035 1.434775
v 2.328189 -0.638376 1.541176
v -1.353729 -1.434775 0.5943037
v -1.680579 -1.541178 0.6383776
v -1.591734 -0.6187987 1.493912
v 2.328188 -1.541176 -0.6383776
v -1.353729 -1.434775 0.5943037
v 2.328186 -1.541177 0.6383752
v -1.353729 -1.434775 -0.5943025
v -1.680579 -1.541178 -0.6383756
v -1.680579 -1.541178 0.6383776
v -2.328186 -1.541178 -0.6383753
v -2.328188 -1.541178 0.6383779
v 2.328186 -0.6383756 -1.541179
v -1.353729 -1.434775 -0.5943025
v 2.328188 -1.541176 -0.6383776
v -1.353729 -0.5943035 -1.434774
v -1.680579 -0.6383766 -1.541177
v -1.680579 -1.541178 -0.6383756
v -2.328186 -0.638377 -1.541176
v -2.328186 -1.541178 -0.6383753
v 2.328186 0.6383773 -1.541178
v -1.353729 -0.5943035 -1.434774
v 2.328186 -0.6383756 -1.541179
v -1.353729 0.5943028 -1.434773
v 2.328186 1.541178 -0.6383778
v -1.353729 1.434774 -0.5943022
v -1.680579 1.541177 -0.6383756
v -1.680582 0.638376 -1.541176
v -2.328186 1.541177 -0.6383752
v -1.680579 -0.6383766 -1.541177
v -2.32819 0.6383758 -1.541176
v -2.328186 -0.638377 -1.541176
v -2.328186 1.541176 0.638378
v -2.328186 1.541177 -0.6383752
v -1.680579 1.541177 -0.6383756
v -1.7831 1.541177 0.6383777
v -2.328186 0.6383754 1.541179
v -2.328186 1.541176 0.638378
v -1.7831 1.541177 0.6383777
v -1.783102 0.6383756 1.541179
v -2.328186 -0.6383774 1.541178
v -2.328186 0.6383754 1.541179
v -1.783102 0.6383756 1.541179
v -1.783102 -0.6383772 1.541178
v -2.328188 -1.541178 0.6383779
v -2.328186 -0.6383774 1.541178
v -1.783102 -0.6383772 1.541178
v -1.680579 -1.541178 0.6383776
v -1.783102 0.6383756 1.541179
v -1.7831 1.541177 0.6383777
v -1.591732 1.49391 0.6187991
v -1.591735 0.6187972 1.493912
v -1.783102 -0.6383772 1.541178
v -1.783102 0.6383756 1.541179
v -1.591735 0.6187972 1.493912
v -1.591734 -0.6187987 1.493912
v -2.328186 0.409522 -0.988674
v -2.328186 0.9886748 -0.4095217
v -1.098383 -6.952209E-07 1.245687E-06
v -2.328186 -0.4095232 -0.9886746
v -2.328186 0.9886745 0.4095242
v -2.328186 -0.9886762 -0.4095215
v -2.328186 0.4095218 0.988677
v -2.328186 -0.9886762 0.4095242
v -2.328186 -0.4095237 0.9886768
v -2.328186 1.541177 -0.6383752
v -2.328186 0.9886748 -0.4095217
v -2.328186 0.409522 -0.988674
v -2.32819 0.6383758 -1.541176
v -2.328186 1.541176 0.638378
v -2.328186 -0.4095232 -0.9886746
v -2.328186 0.9886745 0.4095242
v -2.328186 -0.638377 -1.541176
v -2.328186 0.6383754 1.541179
v -2.328186 -0.9886762 -0.4095215
v -2.328186 0.4095218 0.988677
v -2.328186 -1.541178 -0.6383753
v -2.328186 -0.6383774 1.541178
v -2.328186 -0.9886762 0.4095242
v -2.328186 -0.4095237 0.9886768
v -2.328188 -1.541178 0.6383779
vt 0.537317 0.07126993
vt 0.537317 0.07143365
vt 0.5372359 0.07134594
vt 0.537781 0.07143365
vt 0.5367718 0.07135764
vt 0.537781 0.07126993
vt 0.5344875 0.09797213
vt 0.5374038 0.09877228
vt 0.5344875 0.09898128
vt 0.5374038 0.09797213
vt 0.5378411 0.09797213
vt 0.5379172 0.09805316
vt 0.5348026 0.09797215
vt 0.5377189 0.0989813
vt 0.5348026 0.0989813
vt 0.5377189 0.09818115
vt 0.5381562 0.09800308
vt 0.5381562 0.0989813
vt 0.5359749 0.1001535
vt 0.536775 0.09723722
vt 0.536984 0.1001535
vt 0.5359749 0.09723722
vt 0.5359749 0.0967999
vt 0.5369531 0.0967999
vt 0.5384712 0.0989813
vt 0.5355549 0.09797213
vt 0.5384712 0.09797213
vt 0.5355549 0.09877227
vt 0.5350416 0.0989813
vt 0.5351176 0.09797213
vt 0.5384712 0.09898128
vt 0.5355549 0.09818115
vt 0.5384712 0.09797213
vt 0.5355549 0.09898128
vt 0.5350416 0.09898128
vt 0.5350416 0.09797213
vt 0.5344875 0.09898128
vt 0.5344875 0.09797213
vt 0.5384712 0.09898128
vt 0.5355549 0.09797213
vt 0.5384712 0.09797215
vt 0.5355549 0.09877228
vt 0.5350416 0.09898128
vt 0.5350416 0.09797213
vt 0.5344875 0.09898128
vt 0.5344875 0.09797213
vt 0.5384712 0.0984767
vt 0.5355549 0.09767657
vt 0.5384712 0.09746756
vt 0.5355549 0.0984767
vt 0.5384712 0.09948587
vt 0.5355549 0.09927686
vt 0.5350416 0.09948587
vt 0.5350416 0.0984767
vt 0.5344875 0.09948587
vt 0.5350416 0.09746756
vt 0.5344875 0.0984767
vt 0.5344875 0.09746756
vt 0.5384712 0.09797213
vt 0.5384712 0.09898128
vt 0.5379172 0.09805316
vt 0.5380049 0.09797213
vt 0.5367126 0.09797215
vt 0.5367126 0.0989813
vt 0.5362462 0.0989813
vt 0.5362462 0.09797215
vt 0.5359749 0.09824354
vt 0.536984 0.09824354
vt 0.536984 0.09870987
vt 0.5359749 0.09870989
vt 0.5344876 0.0989813
vt 0.5344876 0.09797213
vt 0.5349539 0.09797213
vt 0.5350416 0.0989813
vt 0.537781 0.07143365
vt 0.5367718 0.07143365
vt 0.5367718 0.07126991
vt 0.5377501 0.07126993
vt 0.5367718 0.07126993
vt 0.537781 0.07126993
vt 0.5377501 0.07143365
vt 0.5367718 0.07143365
vt 0.5391282 0.1224504
vt 0.5384075 0.1230126
vt 0.5378979 0.1220529
vt 0.5391282 0.1216553
vt 0.5373884 0.1230126
vt 0.5384075 0.1210932
vt 0.5366678 0.1224504
vt 0.5373884 0.1210932
vt 0.5366678 0.1216553
vt 0.5372071 0.07275494
vt 0.5372071 0.07275494
vt 0.5369982 0.07254601
vt 0.5369982 0.07254601
vt 0.5375025 0.07275494
vt 0.5369982 0.07225057
vt 0.5375025 0.07275494
vt 0.5369982 0.07225057
vt 0.5377114 0.07254601
vt 0.5372071 0.07204164
vt 0.5377114 0.07254601
vt 0.5372071 0.07204164
vt 0.5377114 0.07225057
vt 0.5375025 0.07204164
vt 0.5377114 0.07225057
vt 0.5375025 0.07204164
vn 0.2582273 0.8851084 0.3871714
vn 0.2582206 0.8845814 0.3883786
vn 0.241613 0.9701788 0.01940117
vn 0.2582264 -0.3520948 0.8996379
vn 0.2416122 -0.6723012 0.699739
vn 0.2582197 -0.3508689 0.9001186
vn -0.0312647 0.9234279 0.3824963
vn 0.1522732 0.9143034 -0.3753162
vn -0.03126506 0.9234279 -0.3824963
vn 0.1310091 0.9146413 0.3824498
vn 0.2810509 0.8880556 0.3638234
vn 0.1546891 0.9095773 -0.3856688
vn -0.03126419 0.3824961 0.9234281
vn 0.1310091 0.9146413 0.3824498
vn -0.0312647 0.9234279 0.3824963
vn 0.1197873 0.3799278 0.9172273
vn 0.2597117 0.3695517 0.8921779
vn 0.2810509 0.8880556 0.3638234
vn -0.03126388 -0.3824965 0.9234279
vn 0.1197873 0.3799278 0.9172273
vn -0.03126419 0.3824961 0.9234281
vn 0.1310084 -0.3763163 0.917182
vn 0.2810492 -0.3706889 0.8852125
vn 0.2597117 0.3695517 0.8921779
vn -0.03126396 -0.9234279 0.3824963
vn 0.1310084 -0.3763163 0.917182
vn -0.03126388 -0.3824965 0.9234279
vn 0.1522739 -0.9118987 0.3811214
vn 0.1546897 -0.9158772 0.3704594
vn 0.2810492 -0.3706889 0.8852125
vn -0.03126432 -0.9234279 -0.3824965
vn 0.1522739 -0.9118987 0.3811214
vn -0.03126396 -0.9234279 0.3824963
vn 0.1604047 -0.9119166 -0.3777282
vn 0.1621298 -0.9116561 -0.3776204
vn 0.1546897 -0.9158772 0.3704594
vn 0 -0.9238797 -0.3826831
vn 0 -0.9238795 0.3826835
vn -0.03126483 -0.3824964 -0.9234279
vn 0.1604047 -0.9119166 -0.3777282
vn -0.03126432 -0.9234279 -0.3824965
vn 0.1604042 -0.3777281 -0.9119166
vn 0.1621293 -0.37762 -0.9116564
vn 0.1621298 -0.9116561 -0.3776204
vn 0 -0.3826831 -0.9238797
vn 0 -0.9238797 -0.3826831
vn -0.03126513 0.3824966 -0.9234278
vn 0.1604042 -0.3777281 -0.9119166
vn -0.03126483 -0.3824964 -0.9234279
vn 0.1604038 0.3777285 -0.9119166
vn -0.03126506 0.9234279 -0.3824963
vn 0.1522732 0.9143034 -0.3753162
vn 0.1546891 0.9095773 -0.3856688
vn 0.1621286 0.3776205 -0.9116562
vn 0 0.9238794 -0.3826838
vn 0.1621293 -0.37762 -0.9116564
vn 0 0.3826836 -0.9238794
vn 0 -0.3826831 -0.9238797
vn 0 0.9238794 0.3826837
vn 0 0.9238794 -0.3826838
vn 0.1546891 0.9095773 -0.3856688
vn 0 0.9277727 0.3731458
vn 0 0.3826831 0.9238796
vn 0 0.9238794 0.3826837
vn 0 0.9277727 0.3731458
vn 0 0.3826835 0.9238795
vn 0 -0.3826838 0.9238794
vn 0 0.3826831 0.9238796
vn 0 0.3826835 0.9238795
vn 0 -0.3921806 0.9198883
vn 0 -0.9238795 0.3826835
vn 0 -0.3826838 0.9238794
vn 0 -0.3921806 0.9198883
vn 0.1546897 -0.9158772 0.3704594
vn 0.2582736 0.369699 0.8925343
vn 0.2582206 0.8845814 0.3883786
vn 0.2582273 0.8851084 0.3871714
vn 0.2582736 0.3696995 0.8925341
vn 0.2582197 -0.3508689 0.9001186
vn 0.2582736 0.369699 0.8925343
vn 0.2582736 0.3696995 0.8925341
vn 0.2582264 -0.3520948 0.8996379
vn -0.6564375 -0.288689 0.6969566
vn -0.6564376 -0.6969566 0.2886889
vn -1 0 0
vn -0.6564376 0.2886886 0.6969566
vn -0.6564375 -0.6969566 -0.288689
vn -0.6564375 0.6969566 0.2886888
vn -0.6564376 -0.2886887 -0.6969566
vn -0.6564375 0.6969566 -0.2886888
vn -0.6564375 0.288689 -0.6969565
vn -1 0 0
vn -1 0 0
vn -1 0 0
vn -1 0 0
vn -1 0 0
vn -1 0 0
vn -1 0 0
vn -1 0 0
vn -1 0 0
vn -1 0 0
vn -1 0 0
vn -1 0 0
vn -1 0 0
vn -1 0 0
vn -1 0 0
vn -1 0 0
g Color_Guns_007_0
f 3/3/3 2/2/2 1/1/1
f 6/6/6 5/5/5 4/4/4
f 9/9/9 8/8/8 7/7/7
f 8/8/8 10/10/10 7/7/7
f 10/10/10 8/8/8 11/11/11
f 8/8/8 12/12/12 11/11/11
f 15/15/15 14/14/14 13/13/13
f 14/14/14 16/16/16 13/13/13
f 16/16/16 14/14/14 17/17/17
f 14/14/14 18/18/18 17/17/17
f 21/21/21 20/20/20 19/19/19
f 20/20/20 22/22/22 19/19/19
f 22/22/22 20/20/20 23/23/23
f 20/20/20 24/24/24 23/23/23
f 27/27/27 26/26/26 25/25/25
f 26/26/26 28/28/28 25/25/25
f 28/28/28 26/26/26 29/29/29
f 26/26/26 30/30/30 29/29/29
f 33/33/33 32/32/32 31/31/31
f 32/32/32 34/34/34 31/31/31
f 34/34/34 32/32/32 35/35/35
f 32/32/32 36/36/36 35/35/35
f 35/35/35 36/36/36 37/37/37
f 36/36/36 38/38/38 37/37/37
f 41/41/41 40/40/40 39/39/39
f 40/40/40 42/42/42 39/39/39
f 42/42/42 40/40/40 43/43/43
f 40/40/40 44/44/44 43/43/43
f 43/43/43 44/44/44 45/45/45
f 44/44/44 46/46/46 45/45/45
f 49/49/49 48/48/48 47/47/47
f 48/48/48 50/50/50 47/47/47
f 47/47/47 50/50/50 51/51/51
f 50/50/50 52/52/52 51/51/51
f 52/52/52 50/50/50 53/53/53
f 50/50/50 48/48/48 54/54/54
f 50/50/50 54/54/54 53/53/53
f 53/53/53 54/54/54 55/55/55
f 48/48/48 56/56/56 54/54/54
f 54/54/54 57/57/57 55/55/55
f 54/54/54 56/56/56 57/57/57
f 56/56/56 58/58/58 57/57/57
f 61/61/61 60/60/60 59/59/59
f 62/62/62 61/61/61 59/59/59
f 65/65/65 64/64/64 63/63/63
f 66/66/66 65/65/65 63/63/63
f 69/69/69 68/68/68 67/67/67
f 70/70/70 69/69/69 67/67/67
f 73/73/73 72/72/72 71/71/71
f 74/74/74 73/73/73 71/71/71
f 77/77/77 76/76/76 75/75/75
f 78/78/78 77/77/77 75/75/75
f 81/81/81 80/80/80 79/79/79
f 82/82/82 81/81/81 79/79/79
f 85/85/85 84/84/84 83/83/83
f 85/85/85 83/83/83 86/86/86
f 85/85/85 87/87/87 84/84/84
f 85/85/85 86/86/86 88/88/88
f 85/85/85 89/89/89 87/87/87
f 85/85/85 88/88/88 90/90/90
f 85/85/85 91/91/91 89/89/89
f 85/85/85 90/90/90 91/91/91
f 94/94/94 93/93/93 92/92/92
f 95/95/95 94/94/94 92/92/92
f 92/92/92 93/93/93 96/96/96
f 97/97/97 94/94/94 95/95/95
f 93/93/93 98/98/98 96/96/96
f 99/99/99 97/97/97 95/95/95
f 96/96/96 98/98/98 100/100/100
f 101/101/101 97/97/97 99/99/99
f 98/98/98 102/102/102 100/100/100
f 103/103/103 101/101/101 99/99/99
f 100/100/100 102/102/102 104/104/104
f 105/105/105 101/101/101 103/103/103
f 102/102/102 106/106/106 104/104/104
f 107/107/107 105/105/105 103/103/103
f 104/104/104 106/106/106 107/107/107
f 106/106/106 105/105/105 107/107/107
