g Color_Boss_54
v 0.2888474 0.003313866 1.159446
v 0.01688281 0.05663951 1.159446
v 0.2045221 0.2068928 1.159444
v 0.0009428178 0.3196567 -0.3041431
v -0.02937778 0.002102284 -0.2403871
v 0.2365367 0.2389087 -1.159443
v 0.2365367 0.2389087 -1.159443
v -0.02937778 0.002102284 -0.2403871
v 0.3140077 0.003314876 -0.1376477
v 0.2045221 -0.200265 1.159444
v 0.01688281 0.05663951 1.159446
v 0.2888474 0.003313866 1.159446
v 0.0009428178 -0.2845908 1.159444
v -0.2026365 -0.200265 1.159444
v -0.2869617 0.003313866 1.159444
v -0.2026365 0.2068928 1.159444
v 0.0009428178 0.2912181 1.159444
v 0.2045221 0.2068928 1.159444
v 0.3140077 0.003314876 -0.1376477
v 0.2888474 0.003313866 1.159446
v 0.2045221 0.2068928 1.159444
v 0.2365367 0.2389087 -1.159443
v 0.2045221 -0.200265 1.159444
v 0.2888474 0.003313866 1.159446
v 0.3140077 0.003314876 -0.1376477
v 0.2365101 -0.2322521 -1.15753
v 0.0009428178 -0.2845908 1.159444
v 0.0009428178 -0.3196569 -0.6408663
v -0.2026365 -0.200265 1.159444
v 0.0009428178 -0.2845908 1.159444
v 0.0009428178 -0.3196569 -0.6408663
v -0.2322565 -0.2298847 -0.9874191
v -0.2869617 0.003313866 1.159444
v -0.3140077 0.003314403 -0.2334338
v -0.2026365 0.2068928 1.159444
v -0.2301745 0.2344317 -0.8378553
v 0.0009428178 0.2912181 1.159444
v 0.0009428178 0.3196567 -0.3041431
v 0.2045221 0.2068928 1.159444
v 0.0009428178 0.2912181 1.159444
v 0.0009428178 0.3196567 -0.3041431
v 0.2365367 0.2389087 -1.159443
v 0.3140077 0.003314876 -0.1376477
v -0.02937778 0.002102284 -0.2403871
v 0.2365101 -0.2322521 -1.15753
v 0.0009428178 -0.3196569 -0.6408663
v 0.0009428178 -0.3196569 -0.6408663
v -0.02937778 0.002102284 -0.2403871
v -0.2322565 -0.2298847 -0.9874191
v -0.3140077 0.003314403 -0.2334338
v -0.3140077 0.003314403 -0.2334338
v -0.02937778 0.002102284 -0.2403871
v -0.2301745 0.2344317 -0.8378553
v 0.0009428178 0.3196567 -0.3041431
vt 0.4650904 0.1223769
vt 0.4650507 0.1223302
vt 0.465036 0.1223784
vt 0.6842244 0.01298133
vt 0.6841851 0.0128915
vt 0.6845293 0.01295849
vt 0.6845293 0.01295849
vt 0.6841851 0.0128915
vt 0.6846296 0.01289184
vt 0.4642429 0.1232836
vt 0.465005 0.1224107
vt 0.4639005 0.1225919
vt 0.4650698 0.1235702
vt 0.4658965 0.1232836
vt 0.466239 0.1225919
vt 0.4658965 0.1219001
vt 0.4650698 0.1216135
vt 0.4642429 0.1219001
vt 0.4651034 0.1226407
vt 0.4650904 0.1223769
vt 0.465036 0.1223784
vt 0.4650508 0.1228535
vt 0.4650121 0.1230241
vt 0.4650707 0.1230241
vt 0.4650707 0.1225437
vt 0.4650029 0.1221603
vt 0.4649879 0.1230241
vt 0.4649777 0.1223545
vt 0.4650121 0.1230241
vt 0.4649879 0.1230241
vt 0.4649777 0.1223545
vt 0.4650036 0.1222242
vt 0.4650707 0.1230241
vt 0.4650707 0.1225077
vt 0.4651293 0.1230241
vt 0.4651372 0.1222805
vt 0.4651535 0.1230241
vt 0.4651617 0.1224811
vt 0.4651293 0.1230241
vt 0.4651535 0.1230241
vt 0.4651617 0.1224811
vt 0.4651384 0.1221596
vt 0.6846296 0.01289184
vt 0.6841851 0.0128915
vt 0.6845293 0.01282521
vt 0.6842244 0.01280048
vt 0.6842244 0.01280048
vt 0.6841851 0.0128915
vt 0.6839224 0.01282588
vt 0.6838166 0.01289184
vt 0.6838166 0.01289184
vt 0.6841851 0.0128915
vt 0.6839252 0.01295723
vt 0.6842244 0.01298133
vn 0 0 1
vn 0 0 1
vn 0 9.367491E-06 1
vn -0.9624764 0.03795159 -0.2686988
vn -0.9624764 0.03795158 -0.2686988
vn -0.9624764 0.03795158 -0.2686988
vn 0.072025 -0.9706939 -0.2292723
vn 0.072025 -0.9706939 -0.2292723
vn 0.072025 -0.9706939 -0.2292723
vn 0 -6.988078E-06 1
vn 0 0 1
vn 0 0 1
vn 0 -5.587429E-06 1
vn 0 0 1
vn -6.243079E-06 0 1
vn -5.297201E-06 0 1
vn 0 8.124214E-06 1
vn 0 9.367491E-06 1
vn 0.9998105 2.988485E-05 0.01947099
vn 0.9998105 0 0.01947099
vn 0.7070032 0.706942 0.01948256
vn 0.6802203 0.732749 0.01946951
vn 0.707057 -0.7068879 0.01948945
vn 0.9998105 0 0.01947099
vn 0.9998105 2.988485E-05 0.01947099
vn 0.608726 -0.7931451 0.01932681
vn -2.716091E-05 -0.99981 0.01949492
vn 0.01370118 -0.9997161 0.01949321
vn -0.7070391 -0.7069061 0.0194831
vn -2.716091E-05 -0.99981 0.01949492
vn 0.01370118 -0.9997161 0.01949321
vn -0.6037504 -0.7969396 0.01930385
vn -0.9998106 2.564751E-05 0.01946347
vn -0.9997973 -0.005155979 0.01946326
vn -0.7069856 0.70696 0.01946578
vn -0.6899522 0.7235932 0.0194604
vn -5.313429E-05 0.9998104 0.01947302
vn 0.01106889 0.9997491 0.01947206
vn 0.7070032 0.706942 0.01948256
vn -5.313429E-05 0.9998104 0.01947302
vn 0.01106889 0.9997491 0.01947206
vn 0.6802203 0.732749 0.01946951
vn 0.0651669 0.971179 -0.2292697
vn -0.1720232 0.9413154 -0.2904022
vn -0.543964 0.761569 -0.3523011
vn -0.8754503 0.3422465 -0.3412538
vn 0.758765 0.5346255 -0.3720903
vn 0.216297 0.9142247 -0.3426496
vn 0.5229209 0.7634392 -0.3790967
vn -0.003157853 0.9552479 -0.2957897
vn -0.01273682 -0.9333777 -0.3586694
vn 0.5091164 -0.7304983 -0.4551625
vn 0.6097587 -0.6477135 -0.4567949
vn 0.9147344 -0.1616852 -0.3702956
g Color_Boss_54_0
f 3/3/3 2/2/2 1/1/1
f 6/6/6 5/5/5 4/4/4
f 9/9/9 8/8/8 7/7/7
f 12/12/12 11/11/11 10/10/10
f 10/10/10 11/11/11 13/13/13
f 13/13/13 11/11/11 14/14/14
f 14/14/14 11/11/11 15/15/15
f 15/15/15 11/11/11 16/16/16
f 16/16/16 11/11/11 17/17/17
f 17/17/17 11/11/11 18/18/18
f 21/21/21 20/20/20 19/19/19
f 22/22/22 21/21/21 19/19/19
f 25/25/25 24/24/24 23/23/23
f 26/26/26 25/25/25 23/23/23
f 26/26/26 23/23/23 27/27/27
f 28/28/28 26/26/26 27/27/27
f 31/31/31 30/30/30 29/29/29
f 32/32/32 31/31/31 29/29/29
f 32/32/32 29/29/29 33/33/33
f 34/34/34 32/32/32 33/33/33
f 34/34/34 33/33/33 35/35/35
f 36/36/36 34/34/34 35/35/35
f 36/36/36 35/35/35 37/37/37
f 38/38/38 36/36/36 37/37/37
f 41/41/41 40/40/40 39/39/39
f 42/42/42 41/41/41 39/39/39
f 45/45/45 44/44/44 43/43/43
f 46/46/46 44/44/44 45/45/45
f 49/49/49 48/48/48 47/47/47
f 50/50/50 48/48/48 49/49/49
f 53/53/53 52/52/52 51/51/51
f 54/54/54 52/52/52 53/53/53
