g Color_08
v -1.309688 -5.328516 12.60403
v -4.912284 -4.356556 13.97209
v -3.399157 -3.351244 13.38741
v -1.310374 -5.329765 12.60326
v -5.387484 -7.45876 13.90311
v -4.329479 -5.028318 13.19273
v -1.307117 -5.328486 12.6057
v -2.756585 -2.591841 14.59579
v -1.033496 -3.036104 14.32451
v -1.305525 -5.331765 12.60434
v 1.145539 -6.151563 15.48436
v 0.7424834 -7.090588 13.64073
v -1.309379 -5.332038 12.60271
v -3.085779 -8.838659 12.33389
v -3.374909 -7.121635 11.60866
v -4.624701 -8.517061 9.361952
v -4.360738 -10.27692 9.979021
v -5.144766 -9.404371 6.788938
v -0.7359023 -8.871807 13.99117
v -1.425192 -8.329773 12.59397
v -1.307509 -5.333177 12.60354
v -1.305673 -5.329473 12.60487
v 0.5717254 -2.518611 14.40689
v 1.262106 -4.181973 13.19487
v -1.309688 -5.328516 12.60403
v -3.399157 -3.351244 13.38741
v -2.793278 -2.446777 14.72254
v -4.496167 -1.718969 12.78329
v -4.515607 0.148303 13.7492
v -5.069785 -0.8762379 12.47053
v -6.19097 1.379601 10.66116
v -3.399157 -3.351244 13.38741
v -4.912284 -4.356556 13.97209
v -5.329012 -3.723145 13.73851
v -4.496167 -1.718969 12.78329
v -6.633683 -1.766745 13.01492
v -5.069785 -0.8762379 12.47053
v -6.19097 1.379601 10.66116
v -0.1490722 -0.9901047 -0.06634188
v 0.2293434 -0.7159452 -0.03168488
v 0.02951241 -0.1207552 0.07124805
v -0.6334929 -0.595355 -0.04166985
v -0.2237744 -1.445806 -0.1757908
v -0.7771945 -1.494781 -0.3123755
v -0.3883352 -2.27615 2.874092
v -0.268867 -1.513266 3.120206
v 0.2885656 -1.117271 3.240717
v -0.3402491 -2.560447 6.357384
v 0.1382322 -2.226891 6.488434
v -0.4417458 -3.21911 6.131142
v 0.01514769 -3.809586 5.951758
v 0.1389093 -2.953663 2.651578
v -0.4664273 -4.76914 9.207872
v -0.8271165 -4.296127 9.333081
v -1.207569 -5.848347 12.39798
v -1.450768 -5.520847 12.4686
v -0.7771945 -1.494781 -0.3123755
v -0.1630373 -2.282397 -0.5786715
v 0.05909967 -1.810165 -0.2940578
v 0.2293434 -0.7159452 -0.03168488
v 0.6840611 -0.7747135 -0.08907223
v 0.9024498 -0.2353268 6.67572E-06
v 0.02951241 -0.1207552 0.07124805
v 0.2885656 -1.117271 3.240717
v 1.035292 -1.218188 3.203588
v 0.1382322 -2.226891 6.488434
v 0.779676 -2.323298 6.485474
v -0.3821301 -3.526917 9.646881
v 0.1108565 -3.614126 9.67372
v -0.7497101 -3.776669 9.520915
v -0.3821301 -3.526917 9.646881
v -0.3402491 -2.560447 6.357384
v -0.8271165 -4.296127 9.333081
v -0.4417458 -3.21911 6.131142
v -1.450768 -5.520847 12.4686
v -1.39981 -5.170948 12.59646
v 0.6840611 -0.7747135 -0.08907223
v 0.9597042 -1.126872 -0.2032876
v 1.512332 -1.01538 -0.2635231
v 0.9024498 -0.2353268 6.67572E-06
v 1.035292 -1.218188 3.203588
v 1.563615 -1.896973 2.980988
v 0.779676 -2.323298 6.485474
v 1.237365 -2.915888 6.30598
v 0.1108565 -3.614126 9.67372
v 0.4695215 -4.089075 9.548773
v -0.8457518 -5.083847 12.72822
v -0.6071982 -5.412849 12.65797
v -0.6071982 -5.412849 12.65797
v 0.3906803 -4.60604 9.360054
v -0.6591296 -5.757699 12.53
v 0.4695215 -4.089075 9.548773
v 1.133878 -3.574717 6.078354
v 1.237365 -2.915888 6.30598
v 1.443104 -2.660782 2.733809
v 1.563615 -1.896973 2.980988
v 1.37789 -1.910456 -0.5331316
v 1.512332 -1.01538 -0.2635231
v 0.9597042 -1.126872 -0.2032876
v 0.9007237 -1.574301 -0.3102455
v -0.8907022 -5.911594 12.43489
v -0.4664273 -4.76914 9.207872
v -1.207569 -5.848347 12.39798
v 0.02491856 -4.85397 9.233865
v 0.01514769 -3.809586 5.951758
v 0.6547456 -3.906113 5.947507
v 0.1389093 -2.953663 2.651578
v 0.8845489 -3.055531 2.613425
v -0.1630373 -2.282397 -0.5786715
v 0.7188904 -2.392269 -0.6486521
v 0.5295382 -1.860657 -0.3489571
v 0.05909967 -1.810165 -0.2940578
v -0.6591296 -5.757699 12.53
v 0.02491856 -4.85397 9.233865
v 0.3906803 -4.60604 9.360054
v 0.6547456 -3.906113 5.947507
v 1.133878 -3.574717 6.078354
v 0.8845489 -3.055531 2.613425
v 1.443104 -2.660782 2.733809
v 0.7188904 -2.392269 -0.6486521
v 0.9007237 -1.574301 -0.3102455
v 1.37789 -1.910456 -0.5331316
v -1.39981 -5.170948 12.59646
v -0.7497101 -3.776669 9.520915
v -0.3821301 -3.526917 9.646881
v -1.164069 -5.01572 12.69119
v -1.164069 -5.01572 12.69119
v -0.3821301 -3.526917 9.646881
v 0.1108565 -3.614126 9.67372
v -0.8457518 -5.083847 12.72822
v -5.860367 -3.580584 12.98368
v -7.072936 -2.20695 13.1671
v -6.114067 -2.67768 13.58231
v -6.698617 -3.833065 11.27025
v -8.279957 -2.379641 8.16377
v -5.280211 -3.875148 13.46716
v -4.329479 -5.028318 13.19273
v -5.856885 -2.834454 14.17308
v -5.994615 -2.762547 14.05832
v -5.418512 -3.064777 14.53979
v -4.636754 -3.477751 15.19479
v -1.310374 -5.329765 12.60326
v -4.329479 -5.028318 13.19273
v -5.387484 -7.45876 13.90311
v -7.819771 -6.189611 11.8861
v -6.698617 -3.833065 11.27025
v -8.279957 -2.379641 8.16377
v 1.030961 -0.6005974 16.21748
v -0.6246223 -0.434248 15.62668
v -0.2118306 1.837285 16.39398
v 0.6046286 -3.312892 14.85883
v -1.033496 -3.036104 14.32451
v -1.307117 -5.328486 12.6057
v -1.033496 -3.036104 14.32451
v -2.756585 -2.591841 14.59579
v -2.329555 0.1224127 15.95136
v -0.6246223 -0.434248 15.62668
v -0.2118306 1.837285 16.39398
v 1.57152 -9.773771 13.30175
v 6.722384 -8.425192 11.62152
v 2.921585 -10.22744 13.0533
v 1.792228 -8.647499 13.35681
v 3.740013 -8.100712 13.08947
v 0.7424834 -7.090588 13.64073
v 1.097653 -9.614532 13.38896
v -0.209013 -9.175442 13.62943
v -1.305525 -5.331765 12.60434
v 0.7424834 -7.090588 13.64073
v 1.145539 -6.151563 15.48436
v 4.276133 -7.203566 14.90823
v 3.740013 -8.100712 13.08947
v 6.722384 -8.425192 11.62152
v -6.270457 -7.664925 9.62188
v -4.624701 -8.517061 9.361952
v -5.144766 -9.404371 6.788938
v -4.973705 -6.211532 11.96832
v -3.374909 -7.121635 11.60866
v -1.309379 -5.332038 12.60271
v -3.374909 -7.121635 11.60866
v -3.085779 -8.838659 12.33389
v -4.360738 -10.27692 9.979021
v -4.624701 -8.517061 9.361952
v 0.1434674 -11.60611 12.54023
v -0.4505463 -10.45336 12.53902
v -0.06537676 -10.95674 12.88482
v -0.5897832 -10.9554 11.21014
v 0.6694984 -12.81748 9.243126
v -0.8355165 -9.623276 12.48723
v -1.425192 -8.329773 12.59397
v -0.2144189 -10.49331 13.13073
v -0.2878394 -10.26501 13.25188
v -0.7359023 -8.871807 13.99117
v -0.476737 -9.677658 13.56355
v -2.256455 -11.55103 11.14659
v -0.5897832 -10.9554 11.21014
v 0.6694984 -12.81748 9.243126
v -3.13506 -8.816143 12.59709
v -1.425192 -8.329773 12.59397
v -1.307509 -5.333177 12.60354
v 1.262106 -4.181973 13.19487
v 0.5717254 -2.518611 14.40689
v 3.297739 -0.9390917 14.18299
v 3.873723 -2.669139 12.9813
v 5.972429 -1.230982 12.28624
v -1.305673 -5.329473 12.60487
v 1.262106 -4.181973 13.19487
v 2.455024 -5.977232 12.9372
v 3.873723 -2.669139 12.9813
v 5.181034 -4.397712 12.71329
v 5.972429 -1.230982 12.28624
vt 0.3575266 0.03578582
vt 0.357206 0.03505006
vt 0.357206 0.03652152
vt 0.3812886 0.03620907
vt 0.3809669 0.03547367
vt 0.3809669 0.03694483
vt 0.3812886 0.03620907
vt 0.3809669 0.03547367
vt 0.3809669 0.03694483
vt 0.4065182 0.03645071
vt 0.4061967 0.03571513
vt 0.4061967 0.03718629
vt 0.3572485 0.03578582
vt 0.3569279 0.03505006
vt 0.3569279 0.03652152
vt 0.3569278 0.03717169
vt 0.3569278 0.03589877
vt 0.3566497 0.03653535
vt 0.3809669 0.03547367
vt 0.3809669 0.03694483
vt 0.3812886 0.03620907
vt 0.3812886 0.03620907
vt 0.3809669 0.03547367
vt 0.3809669 0.03694483
vt 0.3812886 0.03738299
vt 0.3810103 0.03674647
vt 0.3810103 0.03801956
vt 0.380827 0.03674647
vt 0.3807323 0.03801956
vt 0.3807323 0.03674647
vt 0.380454 0.03738299
vt 0.357206 0.03632316
vt 0.357206 0.03505006
vt 0.3571373 0.03505006
vt 0.3570226 0.03632316
vt 0.3569278 0.03505006
vt 0.3569278 0.03632316
vt 0.3566497 0.03568664
vt 0.3566036 0.01157906
vt 0.3566616 0.01157906
vt 0.3566616 0.01157906
vt 0.3566036 0.01157906
vt 0.3566325 0.01152154
vt 0.3565461 0.01157906
vt 0.3566325 0.01140606
vt 0.3566036 0.01146355
vt 0.3566616 0.01146355
vt 0.3566036 0.01134806
vt 0.3566616 0.01134806
vt 0.3566325 0.01129055
vt 0.356575 0.01129055
vt 0.356575 0.01140606
vt 0.3565748 0.0113483
vt 0.3566328 0.0113483
vt 0.3565748 0.0113483
vt 0.3566328 0.0113483
vt 0.3566325 0.01152154
vt 0.356575 0.01152154
vt 0.356575 0.01152154
vt 0.3816221 0.0115793
vt 0.3816801 0.0115793
vt 0.3816801 0.0115793
vt 0.3816221 0.0115793
vt 0.3816221 0.0114638
vt 0.3816801 0.0114638
vt 0.3816221 0.0113483
vt 0.3816801 0.0113483
vt 0.3816221 0.0112328
vt 0.3816801 0.0112328
vt 0.3816509 0.01123306
vt 0.3817089 0.01123306
vt 0.3816509 0.01134806
vt 0.3815934 0.01123306
vt 0.3815934 0.01134806
vt 0.3815934 0.0113483
vt 0.3816514 0.0113483
vt 0.407965 0.01157906
vt 0.408023 0.01157906
vt 0.408023 0.01157906
vt 0.407965 0.01157906
vt 0.407965 0.01146355
vt 0.408023 0.01146355
vt 0.407965 0.01134806
vt 0.408023 0.01134806
vt 0.407965 0.01123306
vt 0.408023 0.01123306
vt 0.4079652 0.0113483
vt 0.4080227 0.0113483
vt 0.3815934 0.0113483
vt 0.3816509 0.01123306
vt 0.3816514 0.0113483
vt 0.3815934 0.01123306
vt 0.3816509 0.01134806
vt 0.3815934 0.01134806
vt 0.3816509 0.01146355
vt 0.3815934 0.01146355
vt 0.3816509 0.01157906
vt 0.3815934 0.01157906
vt 0.3815934 0.01157906
vt 0.3816509 0.01157906
vt 0.3566616 0.0113483
vt 0.3566325 0.01123279
vt 0.3566325 0.0113483
vt 0.356575 0.01123279
vt 0.3566325 0.0113483
vt 0.356575 0.0113483
vt 0.3566325 0.0114638
vt 0.356575 0.0114638
vt 0.3566325 0.0115793
vt 0.356575 0.0115793
vt 0.3566616 0.01157906
vt 0.3566325 0.0115793
vt 0.3566041 0.0113483
vt 0.3566616 0.01123306
vt 0.3566036 0.01123306
vt 0.3566616 0.01134806
vt 0.3566036 0.01134806
vt 0.3566616 0.01146355
vt 0.3566036 0.01146355
vt 0.3566616 0.01157906
vt 0.3566036 0.01157906
vt 0.3566036 0.01157906
vt 0.4079942 0.0113483
vt 0.4079942 0.0114638
vt 0.4080517 0.0114638
vt 0.4080517 0.0113483
vt 0.407965 0.0113483
vt 0.407965 0.0114638
vt 0.408023 0.0114638
vt 0.408023 0.0113483
vt 0.4060784 0.03640931
vt 0.4059619 0.03708726
vt 0.4060296 0.03708726
vt 0.4059619 0.03581416
vt 0.4056837 0.03645074
vt 0.4061461 0.03641492
vt 0.40624 0.03581416
vt 0.4061 0.03708726
vt 0.4060847 0.03708726
vt 0.4061506 0.03708726
vt 0.40624 0.03708726
vt 0.4065182 0.03645074
vt 0.3809669 0.03674647
vt 0.3809669 0.03547367
vt 0.3806889 0.03547367
vt 0.3806889 0.03674647
vt 0.3804106 0.03610989
vt 0.4059618 0.03708726
vt 0.4059618 0.03581416
vt 0.4056837 0.03645074
vt 0.4062401 0.03708726
vt 0.4062401 0.03581416
vt 0.4065182 0.03645074
vt 0.3809669 0.03674647
vt 0.3809669 0.03547367
vt 0.3806889 0.03547367
vt 0.3806889 0.03674647
vt 0.3804106 0.03610989
vt 0.3808523 0.03801956
vt 0.3807323 0.03738299
vt 0.3807323 0.03801956
vt 0.3808722 0.03738299
vt 0.3807323 0.03674647
vt 0.3810103 0.03674647
vt 0.3808947 0.03801956
vt 0.3810103 0.03801956
vt 0.3812886 0.03738299
vt 0.4061967 0.03698793
vt 0.4061967 0.03571513
vt 0.4059195 0.03571513
vt 0.4059195 0.03698793
vt 0.4056412 0.03635153
vt 0.3807323 0.03801956
vt 0.3807323 0.03674647
vt 0.380454 0.03738299
vt 0.3810103 0.03801956
vt 0.3810103 0.03674647
vt 0.3812886 0.03738299
vt 0.3569279 0.03632316
vt 0.3569279 0.03505006
vt 0.3566497 0.03505006
vt 0.3566497 0.03632316
vt 0.3806889 0.03547367
vt 0.3807746 0.03632506
vt 0.3808513 0.03631124
vt 0.3806889 0.03674647
vt 0.3804106 0.03610989
vt 0.3808513 0.03631124
vt 0.3809669 0.03674647
vt 0.3808025 0.03547367
vt 0.3808252 0.03547367
vt 0.3809669 0.03547367
vt 0.3808857 0.03547367
vt 0.3569278 0.03759589
vt 0.3569278 0.03632316
vt 0.3566497 0.03695967
vt 0.357206 0.03759589
vt 0.357206 0.03632316
vt 0.3574842 0.03695967
vt 0.3809669 0.03674647
vt 0.3809669 0.03547367
vt 0.3806889 0.03547367
vt 0.3806889 0.03674647
vt 0.3804106 0.03610989
vt 0.3574842 0.03695967
vt 0.357206 0.03632316
vt 0.357206 0.03759589
vt 0.3569278 0.03632316
vt 0.3569278 0.03759589
vt 0.3566497 0.03695967
vn 0.3565709 0.006660501 0.9342446
vn 0.1884188 0.2668431 0.9451418
vn 0.2376031 0.1962134 0.9513386
vn 0.2064155 0.1906516 0.9597107
vn -0.2419359 0.3655787 0.8987876
vn -0.1094218 0.3208606 0.9407843
vn -0.1880665 -0.5747218 0.7964457
vn 0.006426308 -0.5014977 0.865135
vn -0.1768322 -0.5077485 0.8431619
vn -0.5901097 -0.2313717 0.7734583
vn -0.3973888 -0.7794189 0.4843431
vn -0.3267535 -0.4251661 0.8440769
vn -0.5781474 0.2329337 0.7819767
vn -0.8079534 0.1030337 0.5801684
vn -0.735426 0.1512559 0.6605076
vn -0.9371242 -0.01394226 0.3487173
vn -0.9291308 -0.004651995 0.369722
vn -0.9730002 -0.06867911 0.2203495
vn -0.9007254 -0.2698798 0.3403801
vn -0.9087484 -0.1751828 0.3787974
vn -0.8910756 0.03354799 0.4526133
vn -0.02931418 -0.4044009 0.914112
vn 0.2458454 -0.5019736 0.8292059
vn 0.09401151 -0.3455608 0.9336753
vn -0.3948887 -0.6674323 0.6313455
vn -0.5849733 -0.5201455 0.6222982
vn -0.6606721 -0.4427692 0.6061914
vn -0.7680202 -0.3037692 0.563799
vn -0.8236214 -0.2176191 0.5237267
vn -0.8374478 -0.1929407 0.5113268
vn -0.8892557 -0.08087108 0.4502046
vn 0.2376031 0.1962134 0.9513386
vn 0.1884188 0.2668431 0.9451418
vn 0.08968164 0.3977384 0.9131053
vn 0.0898754 0.3980981 0.9129295
vn 0.03461741 0.4755376 0.8790141
vn 0.006126201 0.5131739 0.8582628
vn -0.06725118 0.6037168 0.7943572
vn 0.1127189 0.1977085 -0.9737586
vn -0.02261444 0.1592455 -0.98698
vn -0.2214426 0.880363 -0.4194332
vn -0.6794236 0.5371438 -0.4998601
vn 0.184297 0.34411 -0.9206643
vn -0.7456787 0.001835848 -0.6663031
vn -0.968746 -0.2476449 -0.01425523
vn -0.8505611 0.4903472 0.1900143
vn -0.2293384 0.9236905 0.3069199
vn -0.8514645 0.5111835 0.1170456
vn -0.2334832 0.9176214 0.3216464
vn -0.9685339 -0.2109138 -0.1321268
vn -0.5055736 -0.8185686 -0.2726552
vn -0.5018138 -0.8455494 -0.1822885
vn -0.5031559 -0.7920298 -0.3457208
vn -0.9587364 -0.1813141 -0.2189743
vn -0.512024 -0.7704663 -0.3797537
vn -0.9489164 -0.1800553 -0.2591095
vn -0.7456787 0.001835848 -0.6663031
vn -0.4173301 -0.4238528 -0.8038558
vn 0.0903659 0.4705624 -0.8777272
vn -0.02261444 0.1592455 -0.98698
vn -0.1106278 0.1913661 -0.9752643
vn 0.3553953 0.8103669 -0.4658323
vn -0.2214426 0.880363 -0.4194332
vn -0.2293384 0.9236905 0.3069199
vn 0.5217451 0.8092629 0.2699547
vn -0.2334832 0.9176214 0.3216464
vn 0.5146436 0.7777623 0.360871
vn -0.2407192 0.9028268 0.3563118
vn 0.4970438 0.7390274 0.4547372
vn -0.84944 0.5222848 0.07530025
vn -0.2407192 0.9028268 0.3563118
vn -0.8514645 0.5111835 0.1170456
vn -0.9587364 -0.1813141 -0.2189743
vn -0.9685339 -0.2109138 -0.1321268
vn -0.9489164 -0.1800553 -0.2591095
vn -0.8639584 0.5015541 0.04493671
vn -0.1106278 0.1913661 -0.9752643
vn -0.1671944 0.2495177 -0.9538276
vn 0.6991358 0.3682863 -0.6128412
vn 0.3553953 0.8103669 -0.4658323
vn 0.5217451 0.8092629 0.2699547
vn 0.9695359 0.2220672 0.1033748
vn 0.5146436 0.7777623 0.360871
vn 0.9584571 0.1832976 0.2185454
vn 0.4970438 0.7390274 0.4547372
vn 0.9343581 0.1443354 0.3257948
vn 0.4780918 0.7236279 0.497786
vn 0.922335 0.1157264 0.3686537
vn 0.922335 0.1157264 0.3686537
vn 0.8374496 -0.544367 0.04840083
vn 0.8161213 -0.574583 0.06164824
vn 0.9343581 0.1443354 0.3257948
vn 0.8525734 -0.5222582 -0.01910194
vn 0.9584571 0.1832976 0.2185454
vn 0.8619976 -0.4978579 -0.09538171
vn 0.9695359 0.2220672 0.1033748
vn 0.609543 -0.1821415 -0.7715451
vn 0.6991358 0.3682863 -0.6128412
vn -0.1671944 0.2495177 -0.9538276
vn -0.1835977 0.346274 -0.9199924
vn 0.2174301 -0.9436291 -0.2495762
vn -0.5031559 -0.7920298 -0.3457208
vn -0.512024 -0.7704663 -0.3797537
vn 0.2481539 -0.940911 -0.2304481
vn -0.5055736 -0.8185686 -0.2726552
vn 0.2539229 -0.9414446 -0.2218227
vn -0.5018138 -0.8455494 -0.1822885
vn 0.2594587 -0.9418255 -0.213649
vn -0.4173301 -0.4238528 -0.8038558
vn 0.1419064 -0.513473 -0.8462908
vn -0.09315858 0.4596351 -0.8832084
vn 0.0903659 0.4705624 -0.8777272
vn 0.8161213 -0.574583 0.06164824
vn 0.2481539 -0.940911 -0.2304481
vn 0.8374496 -0.544367 0.04840083
vn 0.2539229 -0.9414446 -0.2218227
vn 0.8525734 -0.5222582 -0.01910194
vn 0.2594587 -0.9418255 -0.213649
vn 0.8619976 -0.4978579 -0.09538171
vn 0.1419064 -0.513473 -0.8462908
vn -0.1835977 0.346274 -0.9199924
vn 0.609543 -0.1821415 -0.7715451
vn -0.8639584 0.5015541 0.04493671
vn -0.84944 0.5222848 0.07530025
vn -0.2407192 0.9028268 0.3563118
vn -0.2719176 0.8901888 0.3655474
vn -0.2719176 0.8901888 0.3655474
vn -0.2407192 0.9028268 0.3563118
vn 0.4970438 0.7390274 0.4547372
vn 0.4780918 0.7236279 0.497786
vn -0.6478224 -0.6294838 0.4290411
vn -0.7214465 -0.5723778 0.3897415
vn -0.6302796 -0.6189569 0.4686577
vn -0.7763737 -0.5402216 0.3246605
vn -0.8601631 -0.4585206 0.2233347
vn -0.6590543 -0.6357288 0.4018661
vn -0.313869 -0.7706531 0.554599
vn -0.6590266 -0.6362633 0.4010651
vn -0.6590266 -0.6362632 0.4010651
vn -0.6625819 -0.6373633 0.3933873
vn -0.462404 -0.7334985 0.4981592
vn 0.04166645 -0.7868195 0.6157751
vn -0.1094218 0.3208606 0.9407843
vn -0.2419359 0.3655787 0.8987876
vn -0.514123 0.4395883 0.736505
vn -0.584239 0.455082 0.671986
vn -0.6779233 0.4702073 0.5650886
vn -0.3466568 -0.3189742 0.882091
vn -0.1535823 -0.3661784 0.9177832
vn -0.1384194 -0.2942759 0.9456437
vn -0.3449835 -0.4346812 0.8318886
vn -0.1768322 -0.5077485 0.8431619
vn -0.1880665 -0.5747218 0.7964457
vn -0.1768322 -0.5077485 0.8431619
vn 0.006426308 -0.5014977 0.865135
vn 0.04461392 -0.3988495 0.9159305
vn -0.1535823 -0.3661784 0.9177832
vn -0.1384194 -0.2942759 0.9456437
vn 0.3021424 0.03296049 0.9526928
vn 0.2273192 -0.554714 0.8003864
vn 0.3021424 0.03296049 0.9526928
vn 0.2292224 -0.1494477 0.9618329
vn 0.09126227 -0.6964271 0.7118009
vn -0.3267535 -0.4251661 0.8440769
vn 0.1543788 -0.07653785 0.9850427
vn -0.01239499 -0.0002744964 0.9999231
vn -0.5901097 -0.2313717 0.7734583
vn -0.3267535 -0.4251661 0.8440769
vn -0.3973888 -0.7794189 0.4843431
vn -0.09336331 -0.8819171 0.4620665
vn 0.09126227 -0.6964271 0.7118009
vn 0.2273192 -0.554714 0.8003864
vn -0.3224454 -0.7857167 0.5278998
vn -0.3361216 -0.8015323 0.4945385
vn -0.3806377 -0.8477829 0.3692954
vn -0.2068863 -0.6503655 0.7309054
vn -0.162851 -0.5955694 0.7866235
vn -0.04934524 -0.4408596 0.8962187
vn -0.735426 0.1512559 0.6605076
vn -0.8079534 0.1030337 0.5801684
vn -0.9291308 -0.004651995 0.369722
vn -0.9371242 -0.01394226 0.3487173
vn -0.8267275 -0.5232632 0.2066814
vn -0.8667805 -0.4151822 0.2762521
vn -0.8565516 -0.4410977 0.267866
vn -0.8233015 -0.5352802 0.1888115
vn -0.7647935 -0.6346166 0.111142
vn -0.8722608 -0.4100451 0.2665035
vn -0.9087484 -0.1751828 0.3787974
vn -0.8672736 -0.3954384 0.3024317
vn -0.8672736 -0.3954384 0.3024318
vn -0.9007254 -0.2698798 0.3403801
vn -0.8679785 -0.4188583 0.2667794
vn 0.1537781 -0.5164913 0.842371
vn 0.1652059 -0.5469856 0.8206788
vn 0.20182 -0.6434903 0.738369
vn 0.0833861 -0.2918083 0.952835
vn 0.05937764 -0.2058249 0.9767858
vn 0.002768262 -0.003304578 0.9999907
vn 0.09401151 -0.3455608 0.9336753
vn 0.2458454 -0.5019736 0.8292059
vn 0.4050339 -0.4269163 0.808511
vn 0.3161034 -0.2200306 0.9228571
vn 0.4074995 -0.1601495 0.8990529
vn -0.02931418 -0.4044009 0.914112
vn 0.09401151 -0.3455608 0.9336753
vn 0.03683542 -0.1181302 0.9923148
vn 0.3161034 -0.2200306 0.9228571
vn 0.1809696 -0.01542727 0.9833677
vn 0.4074995 -0.1601495 0.8990529
g Color_08_0
f 3/3/3 2/2/2 1/1/1
f 6/6/6 5/5/5 4/4/4
f 9/9/9 8/8/8 7/7/7
f 12/12/12 11/11/11 10/10/10
f 15/15/15 14/14/14 13/13/13
f 18/18/18 17/17/17 16/16/16
f 21/21/21 20/20/20 19/19/19
f 24/24/24 23/23/23 22/22/22
f 27/27/27 26/26/26 25/25/25
f 28/28/28 26/26/26 27/27/27
f 27/27/27 29/29/29 28/28/28
f 29/29/29 30/30/30 28/28/28
f 31/31/31 30/30/30 29/29/29
f 34/34/34 33/33/33 32/32/32
f 35/35/35 34/34/34 32/32/32
f 36/36/36 34/34/34 35/35/35
f 37/37/37 36/36/36 35/35/35
f 38/38/38 36/36/36 37/37/37
f 41/41/41 40/40/40 39/39/39
f 42/42/42 41/41/41 39/39/39
f 42/42/42 39/39/39 43/43/43
f 44/44/44 42/42/42 43/43/43
f 42/42/42 44/44/44 45/45/45
f 41/41/41 42/42/42 46/46/46
f 46/46/46 42/42/42 45/45/45
f 47/47/47 41/41/41 46/46/46
f 47/47/47 46/46/46 48/48/48
f 49/49/49 47/47/47 48/48/48
f 48/48/48 46/46/46 50/50/50
f 46/46/46 45/45/45 50/50/50
f 50/50/50 45/45/45 51/51/51
f 45/45/45 52/52/52 51/51/51
f 50/50/50 51/51/51 53/53/53
f 54/54/54 50/50/50 53/53/53
f 54/54/54 53/53/53 55/55/55
f 56/56/56 54/54/54 55/55/55
f 45/45/45 57/57/57 52/52/52
f 57/57/57 58/58/58 52/52/52
f 58/58/58 57/57/57 59/59/59
f 57/57/57 43/43/43 59/59/59
f 62/62/62 61/61/61 60/60/60
f 63/63/63 62/62/62 60/60/60
f 62/62/62 63/63/63 64/64/64
f 65/65/65 62/62/62 64/64/64
f 65/65/65 64/64/64 66/66/66
f 67/67/67 65/65/65 66/66/66
f 67/67/67 66/66/66 68/68/68
f 69/69/69 67/67/67 68/68/68
f 71/71/71 66/66/66 70/70/70
f 66/66/66 72/72/72 70/70/70
f 70/70/70 72/72/72 73/73/73
f 72/72/72 74/74/74 73/73/73
f 70/70/70 73/73/73 75/75/75
f 76/76/76 70/70/70 75/75/75
f 79/79/79 78/78/78 77/77/77
f 80/80/80 79/79/79 77/77/77
f 79/79/79 80/80/80 81/81/81
f 82/82/82 79/79/79 81/81/81
f 82/82/82 81/81/81 83/83/83
f 84/84/84 82/82/82 83/83/83
f 84/84/84 83/83/83 85/85/85
f 86/86/86 84/84/84 85/85/85
f 86/86/86 85/85/85 87/87/87
f 88/88/88 86/86/86 87/87/87
f 91/91/91 90/90/90 89/89/89
f 90/90/90 92/92/92 89/89/89
f 90/90/90 93/93/93 92/92/92
f 93/93/93 94/94/94 92/92/92
f 93/93/93 95/95/95 94/94/94
f 95/95/95 96/96/96 94/94/94
f 95/95/95 97/97/97 96/96/96
f 97/97/97 98/98/98 96/96/96
f 98/98/98 97/97/97 99/99/99
f 97/97/97 100/100/100 99/99/99
f 103/103/103 102/102/102 101/101/101
f 102/102/102 104/104/104 101/101/101
f 102/102/102 105/105/105 104/104/104
f 105/105/105 106/106/106 104/104/104
f 105/105/105 107/107/107 106/106/106
f 107/107/107 108/108/108 106/106/106
f 107/107/107 109/109/109 108/108/108
f 109/109/109 110/110/110 108/108/108
f 110/110/110 109/109/109 111/111/111
f 109/109/109 112/112/112 111/111/111
f 101/101/101 114/114/114 113/113/113
f 114/114/114 115/115/115 113/113/113
f 114/114/114 116/116/116 115/115/115
f 116/116/116 117/117/117 115/115/115
f 116/116/116 118/118/118 117/117/117
f 118/118/118 119/119/119 117/117/117
f 118/118/118 120/120/120 119/119/119
f 120/120/120 111/111/111 121/121/121
f 120/120/120 122/122/122 119/119/119
f 122/122/122 120/120/120 121/121/121
f 125/125/125 124/124/124 123/123/123
f 126/126/126 125/125/125 123/123/123
f 129/129/129 128/128/128 127/127/127
f 130/130/130 129/129/129 127/127/127
f 133/133/133 132/132/132 131/131/131
f 132/132/132 134/134/134 131/131/131
f 135/135/135 134/134/134 132/132/132
f 136/136/136 131/131/131 134/134/134
f 137/137/137 136/136/136 134/134/134
f 136/136/136 138/138/138 131/131/131
f 138/138/138 139/139/139 131/131/131
f 140/140/140 136/136/136 137/137/137
f 141/141/141 140/140/140 137/137/137
f 142/142/142 141/141/141 137/137/137
f 145/145/145 144/144/144 143/143/143
f 146/146/146 145/145/145 143/143/143
f 147/147/147 145/145/145 146/146/146
f 150/150/150 149/149/149 148/148/148
f 148/148/148 149/149/149 151/151/151
f 149/149/149 152/152/152 151/151/151
f 151/151/151 152/152/152 153/153/153
f 156/156/156 155/155/155 154/154/154
f 157/157/157 156/156/156 154/154/154
f 158/158/158 156/156/156 157/157/157
f 161/161/161 160/160/160 159/159/159
f 160/160/160 162/162/162 159/159/159
f 160/160/160 163/163/163 162/162/162
f 163/163/163 164/164/164 162/162/162
f 165/165/165 162/162/162 164/164/164
f 166/166/166 165/165/165 164/164/164
f 167/167/167 166/166/166 164/164/164
f 170/170/170 169/169/169 168/168/168
f 171/171/171 170/170/170 168/168/168
f 172/172/172 170/170/170 171/171/171
f 175/175/175 174/174/174 173/173/173
f 173/173/173 174/174/174 176/176/176
f 174/174/174 177/177/177 176/176/176
f 176/176/176 177/177/177 178/178/178
f 181/181/181 180/180/180 179/179/179
f 182/182/182 181/181/181 179/179/179
f 185/185/185 184/184/184 183/183/183
f 184/184/184 186/186/186 183/183/183
f 186/186/186 187/187/187 183/183/183
f 184/184/184 188/188/188 186/186/186
f 188/188/188 189/189/189 186/186/186
f 184/184/184 190/190/190 188/188/188
f 190/190/190 191/191/191 188/188/188
f 192/192/192 189/189/189 188/188/188
f 193/193/193 192/192/192 188/188/188
f 196/196/196 195/195/195 194/194/194
f 194/194/194 195/195/195 197/197/197
f 195/195/195 198/198/198 197/197/197
f 197/197/197 198/198/198 199/199/199
f 202/202/202 201/201/201 200/200/200
f 203/203/203 202/202/202 200/200/200
f 204/204/204 202/202/202 203/203/203
f 207/207/207 206/206/206 205/205/205
f 208/208/208 206/206/206 207/207/207
f 209/209/209 208/208/208 207/207/207
f 210/210/210 208/208/208 209/209/209
