g Color_018
v 1.393687 -6.990755 18.20312
v 0.6968428 -6.990756 17.06227
v 9.343022E-09 -11.31652 18.20312
v 1.393687 -6.990755 18.20312
v 9.343022E-09 -11.31652 18.20312
v 0.6968434 -6.990756 19.34397
v 0.6968434 -6.990756 19.34397
v 9.343022E-09 -11.31652 18.20312
v -0.6968437 -6.990756 19.34397
v -0.6968437 -6.990756 19.34397
v 9.343022E-09 -11.31652 18.20312
v -1.393688 -6.990756 18.20312
v -1.393688 -6.990756 18.20312
v 9.343022E-09 -11.31652 18.20312
v -0.6968445 -6.990756 17.06228
v -0.6968445 -6.990756 17.06228
v 9.343022E-09 -11.31652 18.20312
v 0.6968428 -6.990756 17.06227
vt 0.32324 0.0347541
vt 0.3209303 0.03068058
vt 0.3187608 0.0347541
vt 0.296584 0.008419259
vt 0.2921048 0.008419259
vt 0.2942743 0.01249277
vt 0.3178793 0.01201104
vt 0.3157098 0.007937523
vt 0.3135402 0.01201104
vt 0.2899352 0.01249277
vt 0.2921048 0.008419259
vt 0.2876255 0.008419259
vt 0.3142815 0.0347541
vt 0.3187608 0.0347541
vt 0.3165912 0.0306806
vt 0.3165912 0.0306806
vt 0.3187608 0.0347541
vt 0.3209303 0.03068058
vn 0.8228588 -0.2651113 -0.5026125
vn 0.8228588 -0.2651112 -0.5026125
vn 0.8228588 -0.2651113 -0.5026126
vn 0.822859 -0.2651113 0.5026122
vn 0.822859 -0.2651113 0.5026123
vn 0.822859 -0.2651113 0.5026123
vn 0 -0.2550138 0.9669374
vn 0 -0.2550138 0.9669374
vn 0 -0.2550138 0.9669374
vn -0.8228588 -0.2651114 0.5026124
vn -0.8228588 -0.2651114 0.5026124
vn -0.8228588 -0.2651114 0.5026124
vn -0.8228588 -0.2651113 -0.5026127
vn -0.8228588 -0.2651114 -0.5026127
vn -0.8228588 -0.2651114 -0.5026127
vn 0 -0.2550136 -0.9669375
vn 0 -0.2550136 -0.9669375
vn 0 -0.2550136 -0.9669375
g Color_018_0
f 3/3/3 2/2/2 1/1/1
f 6/6/6 5/5/5 4/4/4
f 9/9/9 8/8/8 7/7/7
f 12/12/12 11/11/11 10/10/10
f 15/15/15 14/14/14 13/13/13
f 18/18/18 17/17/17 16/16/16
