g Color_Cloth_02
v -8.262089 0.1313085 0.1313114
v -4.688785 -1.465344E-06 0.2656268
v -8.262089 -2.892362E-06 0.1857013
v -4.688785 0.1878251 0.1878261
v -8.262089 0.1856989 1.877546E-06
v 7.268973E-07 -3.483268E-08 0.2656268
v -4.688785 0.2656254 1.877546E-06
v -8.262089 0.1313085 -0.1313133
v 6.612391E-07 0.1878266 0.1878261
v -4.688785 0.1878252 -0.1878262
v -8.262089 -2.876127E-06 -0.1857033
v -4.688785 -1.442122E-06 -0.2656269
v 6.337651E-07 0.2656269 1.877546E-06
v 6.612391E-07 0.1878266 -0.1878262
v 7.268973E-07 -1.161078E-08 -0.2656269
v 4.688787 1.895738E-06 -0.2656269
v 4.688787 0.1878285 -0.1878262
v 8.26209 2.845918E-06 -0.1857033
v 8.26209 0.1313142 -0.1313133
v 4.688787 0.2656288 1.877546E-06
v 8.26209 0.1857047 1.877546E-06
v 4.688787 0.187828 0.1878261
v 8.26209 0.1313142 0.1313114
v 4.688787 1.395679E-06 0.2656268
v 8.26209 2.829684E-06 0.1857013
v -8.262089 -0.1313148 -0.1313133
v -4.688785 -1.442122E-06 -0.2656269
v -8.262089 -2.876127E-06 -0.1857033
v -4.688785 -0.1878285 -0.1878262
v -8.262089 -0.1857052 1.877546E-06
v 7.268973E-07 -1.161078E-08 -0.2656269
v -4.688785 -0.2656288 1.877546E-06
v -8.262089 -0.1313148 0.1313114
v 7.925556E-07 -0.1878271 -0.1878262
v -4.688785 -0.1878285 0.1878261
v -8.262089 -2.892362E-06 0.1857013
v -4.688785 -1.465344E-06 0.2656268
v 8.195639E-07 -0.2656274 1.877546E-06
v 7.925556E-07 -0.1878271 0.1878261
v 7.268973E-07 -3.483268E-08 0.2656268
v 4.688787 1.395679E-06 0.2656268
v 4.688787 -0.1878257 0.1878261
v 8.26209 2.829684E-06 0.1857013
v 8.26209 -0.131309 0.1313114
v 4.688787 -0.2656254 1.877546E-06
v 8.26209 -0.1856995 1.877546E-06
v 4.688787 -0.1878252 -0.1878262
v 8.26209 -0.131309 -0.1313133
v 4.688787 1.895738E-06 -0.2656269
v 8.26209 2.845918E-06 -0.1857033
v -8.262089 -0.03782989 -0.01130679
v -8.262089 -0.1313148 -0.1313133
v -8.262089 -2.876127E-06 -0.1857033
v -8.262089 0.1313085 -0.1313133
v -8.262089 -0.1857052 1.877546E-06
v -8.262089 0.1856989 1.877546E-06
v -8.262089 -0.1313148 0.1313114
v -8.262089 0.1313085 0.1313114
v -8.262089 -2.892362E-06 0.1857013
v 8.26209 -0.03782417 -0.01130679
v 8.26209 0.1313142 -0.1313133
v 8.26209 2.845918E-06 -0.1857033
v 8.26209 -0.131309 -0.1313133
v 8.26209 0.1857047 1.877546E-06
v 8.26209 -0.1856995 1.877546E-06
v 8.26209 0.1313142 0.1313114
v 8.26209 -0.131309 0.1313114
v 8.26209 2.829684E-06 0.1857013
vt 0.4624622 0.09806703
vt 0.46359 0.09917028
vt 0.4624622 0.0985138
vt 0.46359 0.09853126
vt 0.4624622 0.0969885
vt 0.4650698 0.09917028
vt 0.46359 0.0969885
vt 0.4624622 0.09590992
vt 0.4650698 0.09853126
vt 0.46359 0.09544572
vt 0.4624622 0.09546316
vt 0.46359 0.09480669
vt 0.4650698 0.0969885
vt 0.4650698 0.09544572
vt 0.4650698 0.09480669
vt 0.4665495 0.09480669
vt 0.4665495 0.09544572
vt 0.4676772 0.09546316
vt 0.4676772 0.09590992
vt 0.4665495 0.0969885
vt 0.4676772 0.0969885
vt 0.4665495 0.09853126
vt 0.4676772 0.09806703
vt 0.4665495 0.09917028
vt 0.4676772 0.0985138
vt 0.4624622 0.09590992
vt 0.46359 0.09480669
vt 0.4624622 0.09546316
vt 0.46359 0.09544572
vt 0.4624622 0.0969885
vt 0.4650698 0.09480669
vt 0.46359 0.0969885
vt 0.4624622 0.09806703
vt 0.4650698 0.09544572
vt 0.46359 0.09853126
vt 0.4624622 0.0985138
vt 0.46359 0.09917028
vt 0.4650698 0.0969885
vt 0.4650698 0.09853126
vt 0.4650698 0.09917028
vt 0.4665495 0.09917028
vt 0.4665495 0.09853126
vt 0.4676772 0.0985138
vt 0.4676772 0.09806703
vt 0.4665495 0.0969885
vt 0.4676772 0.0969885
vt 0.4665495 0.09544572
vt 0.4676772 0.09590992
vt 0.4665495 0.09480669
vt 0.4676772 0.09546316
vt 0.4650674 0.09698467
vt 0.4650617 0.09694456
vt 0.4650697 0.09692638
vt 0.4650778 0.09694456
vt 0.4650583 0.09698848
vt 0.4650812 0.09698848
vt 0.4650617 0.09703238
vt 0.4650778 0.09703238
vt 0.4650697 0.09705059
vt 0.4650674 0.09698467
vt 0.4650778 0.09694456
vt 0.4650697 0.09692638
vt 0.4650617 0.09694456
vt 0.4650812 0.09698848
vt 0.4650583 0.09698848
vt 0.4650778 0.09703238
vt 0.4650617 0.09703238
vt 0.4650697 0.09705059
vn -0.02236187 0.7069281 0.7069318
vn -0.01115116 0 0.9999379
vn -0.02236159 0 0.99975
vn -0.0111514 0.7070615 0.7070641
vn -0.02236191 0.99975 5.330642E-06
vn 0 0 1
vn -0.01115147 0.9999379 0
vn -0.0223616 0.7069319 -0.7069281
vn 0 0.7071057 0.7071078
vn -0.01115126 0.7070648 -0.7070608
vn -0.02236106 0 -0.99975
vn -0.0111509 0 -0.9999379
vn 0 1 0
vn 0 0.7071085 -0.707105
vn 0 0 -1
vn 0.0111509 0 -0.9999379
vn 0.01115078 0.7070647 -0.7070609
vn 0.02236106 0 -0.99975
vn 0.02236113 0.706932 -0.706928
vn 0.01115079 0.9999379 5.055571E-06
vn 0.02236122 0.99975 6.025058E-06
vn 0.01115091 0.7070612 0.7070644
vn 0.02236134 0.7069278 0.7069321
vn 0.01115117 0 0.9999379
vn 0.0223616 0 0.99975
vn -0.02236103 -0.7069316 -0.7069283
vn -0.0111509 0 -0.9999379
vn -0.02236106 0 -0.99975
vn -0.01115076 -0.7070643 -0.7070613
vn -0.0223611 -0.99975 5.269371E-06
vn 0 0 -1
vn -0.01115077 -0.9999379 0
vn -0.02236131 -0.706928 0.706932
vn 0 -0.7071082 -0.7071053
vn -0.0111509 -0.7070613 0.7070643
vn -0.02236159 0 0.99975
vn -0.01115116 0 0.9999379
vn 0 -1 0
vn 0 -0.7071058 0.7071077
vn 0 0 1
vn 0.01115117 0 0.9999379
vn 0.0111514 -0.7070616 0.7070639
vn 0.0223616 0 0.99975
vn 0.02236185 -0.7069283 0.7069316
vn 0.01115146 -0.9999379 0
vn 0.0223618 -0.99975 0
vn 0.01115125 -0.7070643 -0.7070612
vn 0.02236151 -0.7069314 -0.7069285
vn 0.0111509 0 -0.9999379
vn 0.02236106 0 -0.99975
vn -1 0 0
vn -1 0 0
vn -1 0 0
vn -1 0 0
vn -1 0 0
vn -1 0 0
vn -1 0 0
vn -1 0 0
vn -1 0 0
vn 1 0 0
vn 1 0 0
vn 1 0 0
vn 1 0 0
vn 1 0 0
vn 1 0 0
vn 1 0 0
vn 1 0 0
vn 1 0 0
g Color_Cloth_02_0
f 3/3/3 2/2/2 1/1/1
f 2/2/2 4/4/4 1/1/1
f 1/1/1 4/4/4 5/5/5
f 4/4/4 2/2/2 6/6/6
f 4/4/4 7/7/7 5/5/5
f 5/5/5 7/7/7 8/8/8
f 9/9/9 4/4/4 6/6/6
f 7/7/7 4/4/4 9/9/9
f 7/7/7 10/10/10 8/8/8
f 8/8/8 10/10/10 11/11/11
f 10/10/10 12/12/12 11/11/11
f 10/10/10 7/7/7 13/13/13
f 13/13/13 7/7/7 9/9/9
f 10/10/10 14/14/14 12/12/12
f 14/14/14 10/10/10 13/13/13
f 14/14/14 15/15/15 12/12/12
f 15/15/15 14/14/14 16/16/16
f 14/14/14 17/17/17 16/16/16
f 17/17/17 14/14/14 13/13/13
f 16/16/16 17/17/17 18/18/18
f 17/17/17 19/19/19 18/18/18
f 20/20/20 17/17/17 13/13/13
f 17/17/17 20/20/20 19/19/19
f 20/20/20 13/13/13 9/9/9
f 20/20/20 21/21/21 19/19/19
f 22/22/22 20/20/20 9/9/9
f 20/20/20 22/22/22 21/21/21
f 22/22/22 9/9/9 6/6/6
f 22/22/22 23/23/23 21/21/21
f 24/24/24 22/22/22 6/6/6
f 22/22/22 24/24/24 23/23/23
f 24/24/24 25/25/25 23/23/23
f 28/28/28 27/27/27 26/26/26
f 27/27/27 29/29/29 26/26/26
f 26/26/26 29/29/29 30/30/30
f 29/29/29 27/27/27 31/31/31
f 29/29/29 32/32/32 30/30/30
f 30/30/30 32/32/32 33/33/33
f 34/34/34 29/29/29 31/31/31
f 32/32/32 29/29/29 34/34/34
f 32/32/32 35/35/35 33/33/33
f 33/33/33 35/35/35 36/36/36
f 35/35/35 37/37/37 36/36/36
f 35/35/35 32/32/32 38/38/38
f 38/38/38 32/32/32 34/34/34
f 37/37/37 35/35/35 39/39/39
f 39/39/39 35/35/35 38/38/38
f 40/40/40 37/37/37 39/39/39
f 41/41/41 40/40/40 39/39/39
f 42/42/42 41/41/41 39/39/39
f 42/42/42 39/39/39 38/38/38
f 41/41/41 42/42/42 43/43/43
f 42/42/42 44/44/44 43/43/43
f 45/45/45 42/42/42 38/38/38
f 42/42/42 45/45/45 44/44/44
f 45/45/45 38/38/38 34/34/34
f 45/45/45 46/46/46 44/44/44
f 47/47/47 45/45/45 34/34/34
f 45/45/45 47/47/47 46/46/46
f 47/47/47 34/34/34 31/31/31
f 47/47/47 48/48/48 46/46/46
f 49/49/49 47/47/47 31/31/31
f 47/47/47 49/49/49 48/48/48
f 49/49/49 50/50/50 48/48/48
f 53/53/53 52/52/52 51/51/51
f 54/54/54 53/53/53 51/51/51
f 55/55/55 51/51/51 52/52/52
f 56/56/56 54/54/54 51/51/51
f 55/55/55 57/57/57 51/51/51
f 58/58/58 56/56/56 51/51/51
f 57/57/57 59/59/59 51/51/51
f 58/58/58 51/51/51 59/59/59
f 62/62/62 61/61/61 60/60/60
f 63/63/63 62/62/62 60/60/60
f 61/61/61 64/64/64 60/60/60
f 60/60/60 65/65/65 63/63/63
f 64/64/64 66/66/66 60/60/60
f 67/67/67 65/65/65 60/60/60
f 60/60/60 66/66/66 68/68/68
f 68/68/68 67/67/67 60/60/60
