g Color_01
v 7.110051 1.905135 -9.0844E-07
v 5.099546 5.099548 2.178527
v 5.20492 5.204919 -2.4819E-06
v 6.966113 1.866565 2.178529
v 4.879174 4.87918 4.536656
v 7.110053 -1.905133 9.084374E-07
v 6.665079 1.785906 4.536657
v 6.966107 -1.866566 2.17853
v 5.20492 -5.204917 2.481897E-06
v 6.665081 -1.785901 4.53666
v 5.099547 -5.099547 2.178532
v 4.879172 -4.879173 4.536661
v 1.905134 7.110051 -0.01795535
v -1.866564 6.96611 2.178526
v -1.905134 7.11005 -0.01795535
v 1.866561 6.966109 2.178526
v 5.20492 5.204919 -2.4819E-06
v -1.785904 6.66508 4.536656
v 5.099546 5.099548 2.178527
v 1.785902 6.665083 4.536655
v 4.879174 4.87918 4.536656
v -1.905134 7.11005 -0.01795535
v -5.09955 5.099546 2.178527
v -5.204919 5.204917 -2.481897E-06
v -1.866564 6.96611 2.178526
v -4.879176 4.879179 4.536658
v -1.785904 6.66508 4.536656
v 5.20492 -5.204917 2.481897E-06
v 2.168314 -7.004597 0.002086522
v 2.107108 -6.78833 2.173625
v 5.099547 -5.099547 2.178532
v 4.879172 -4.879173 4.536661
v 2.928368 -6.216988 4.53666
v 1.973522 -6.592593 4.527887
v -5.09955 5.099546 2.178527
v -4.879176 4.879179 4.536658
v -6.665077 1.785906 4.536658
v -6.966112 1.866569 2.178529
v -5.204919 5.204917 -2.481897E-06
v -6.665076 -1.785898 4.536658
v -7.11005 1.905134 -9.084377E-07
v -6.966111 -1.86656 2.17853
v -7.110049 -1.905131 9.084381E-07
v -4.879177 -4.87917 4.53666
v -5.099549 -5.099544 2.178531
v -5.204918 -5.204915 2.481897E-06
v -2.168314 -7.004597 0.002085866
v -2.107107 -6.788329 2.173625
v -2.928371 -6.216985 4.536662
v -1.973526 -6.592591 4.52789
v -5.221376E-07 -6.97994 -0.04671526
v 1.899468 -6.496983 2.126907
v 1.954644 -6.71325 -0.0446316
v 2.92349E-06 -6.754181 2.131814
v 1.779045 -6.301246 4.481168
v -1.899467 -6.496982 2.126907
v -1.954641 -6.71325 -0.04463256
v -1.779048 -6.301246 4.481171
v -2.342488E-06 -6.534966 4.489943
v 1.568735 -6.130411 6.555491
v -1.568736 -6.130409 6.555491
v 0.5211734 -6.263853 7.026684
v -0.5211765 -6.263853 7.026684
v 2.928368 -6.216988 4.53666
v 1.973522 -6.592593 4.527887
v 1.740221 -6.424299 6.777936
v 2.503922 -6.09048 6.832074
v 1.839971 -6.282323 7.830203
v 0.5781462 -6.557741 7.249131
v 0.6133229 -6.412248 8.37767
v -0.5781503 -6.557741 7.249131
v -0.6133256 -6.412249 8.377672
v -1.740224 -6.424297 6.777936
v -1.839974 -6.282324 7.830204
v -2.503925 -6.090478 6.832074
v -1.973526 -6.592591 4.52789
v -2.928371 -6.216985 4.536662
v 6.665079 1.785906 4.536657
v 3.759584 3.759589 5.136116
v 4.879174 4.87918 4.536656
v 5.13569 1.376108 5.136117
v 6.665081 -1.785901 4.53666
v 5.135692 -1.376103 5.13612
v 4.879172 -4.879173 4.536661
v 3.71691 -3.80382 5.137
v 4.879174 4.87918 4.536656
v 3.759584 3.759589 5.136116
v 1.376104 5.135695 5.136117
v 1.785902 6.665083 4.536655
v -1.376105 5.135692 5.136117
v -1.785904 6.66508 4.536656
v -3.759586 3.75959 5.136118
v -4.879176 4.879179 4.536658
v -4.879176 4.879179 4.536658
v -3.759586 3.75959 5.136118
v -5.135689 1.376108 5.136117
v -6.665077 1.785906 4.536658
v -5.135688 -1.376099 5.136116
v -6.665076 -1.785898 4.536658
v -3.716914 -3.803818 5.137
v -4.879177 -4.87917 4.53666
v -4.879177 -4.87917 4.53666
v -3.716914 -3.803818 5.137
v -2.931115 -4.396478 5.13189
v -2.928371 -6.216985 4.536662
v 2.928368 -6.216988 4.53666
v 2.931301 -4.396441 5.132914
v 3.71691 -3.80382 5.137
v 4.879172 -4.879173 4.536661
v 2.503922 -6.09048 6.832074
v 2.931301 -4.396441 5.132914
v 2.928368 -6.216988 4.53666
v 2.514199 -4.511478 6.674075
v 1.839971 -6.282323 7.830203
v 1.812616 -4.590756 7.954987
v 0.6133229 -6.412248 8.37767
v 1.812616 -4.590756 7.954987
v 1.839971 -6.282323 7.830203
v 0.6045766 -4.688502 8.47056
v -0.6133256 -6.412249 8.377672
v -0.6003932 -4.687905 8.474745
v -1.839974 -6.282324 7.830204
v -1.822677 -4.587794 7.960156
v -2.503925 -6.090478 6.832074
v -2.514796 -4.510902 6.675513
v -2.928371 -6.216985 4.536662
v -2.931115 -4.396478 5.13189
v 2.168314 -7.004597 0.002086522
v 1.954644 -6.71325 -0.0446316
v 1.899468 -6.496983 2.126907
v 2.107108 -6.78833 2.173625
v 1.779045 -6.301246 4.481168
v 1.973522 -6.592593 4.527887
v 1.973522 -6.592593 4.527887
v 1.779045 -6.301246 4.481168
v 1.568735 -6.130411 6.555491
v 1.740221 -6.424299 6.777936
v 1.740221 -6.424299 6.777936
v 1.568735 -6.130411 6.555491
v 0.5211734 -6.263853 7.026684
v 0.5781462 -6.557741 7.249131
v 0.5781462 -6.557741 7.249131
v 0.5211734 -6.263853 7.026684
v -0.5211765 -6.263853 7.026684
v -0.5781503 -6.557741 7.249131
v -0.5781503 -6.557741 7.249131
v -0.5211765 -6.263853 7.026684
v -1.568736 -6.130409 6.555491
v -1.740224 -6.424297 6.777936
v -1.740224 -6.424297 6.777936
v -1.568736 -6.130409 6.555491
v -1.779048 -6.301246 4.481171
v -1.973526 -6.592591 4.52789
v -1.973526 -6.592591 4.52789
v -1.779048 -6.301246 4.481171
v -1.899467 -6.496982 2.126907
v -2.107107 -6.788329 2.173625
v -1.954641 -6.71325 -0.04463256
v -2.168314 -7.004597 0.002085866
v 6.459834E-06 -6.747168 4.007425
v 2.108509 -6.401752 4.516578
v 2.161511 -6.417186 4.006362
v -2.259718E-06 -6.708259 4.51848
v -2.108512 -6.401754 4.516578
v -2.16151 -6.417186 4.006362
v 2.161511 -6.417186 4.006362
v 2.161511 -5.31216 4.006362
v 6.266625E-06 -5.874802 4.007426
v 6.459834E-06 -6.747168 4.007425
v -2.259718E-06 -6.708259 4.51848
v -2.484453E-06 -5.655586 4.51848
v 2.108509 -5.116421 4.516577
v 2.108509 -6.401752 4.516578
v 6.459834E-06 -6.747168 4.007425
v 6.266625E-06 -5.874802 4.007426
v -2.16151 -5.31216 4.006362
v -2.16151 -6.417186 4.006362
v -2.108512 -6.401754 4.516578
v -2.108512 -5.116423 4.516578
v -2.484453E-06 -5.655586 4.51848
v -2.259718E-06 -6.708259 4.51848
v 7.078027E-06 -7.001735 1.339079
v 2.31029 -6.656318 1.848232
v 2.368363 -6.671753 1.338016
v -2.475969E-06 -6.962825 1.850134
v -2.310292 -6.656322 1.848232
v -2.368361 -6.671754 1.338016
v 2.368363 -6.671753 1.338016
v 2.368363 -5.566728 1.338016
v 6.866328E-06 -6.129369 1.33908
v 7.078027E-06 -7.001735 1.339079
v -2.475969E-06 -6.962825 1.850134
v -2.72221E-06 -5.910152 1.850134
v 2.310289 -5.370987 1.848231
v 2.31029 -6.656318 1.848232
v 7.078027E-06 -7.001735 1.339079
v 6.866328E-06 -6.129369 1.33908
v -2.368362 -5.566729 1.338016
v -2.368361 -6.671754 1.338016
v -2.310292 -6.656322 1.848232
v -2.310292 -5.37099 1.848231
v -2.72221E-06 -5.910152 1.850134
v -2.475969E-06 -6.962825 1.850134
vt 0.03537686 0.008515971
vt 0.03638935 0.009144509
vt 0.03638935 0.008515971
vt 0.03537686 0.009144509
vt 0.03638935 0.009712869
vt 0.03437451 0.008515971
vt 0.03537686 0.009712869
vt 0.03437451 0.009144509
vt 0.03328802 0.008515971
vt 0.03437451 0.009712869
vt 0.03328802 0.009144509
vt 0.03328802 0.009712869
vt 0.03437451 0.008515971
vt 0.03537686 0.009144509
vt 0.03537686 0.008515971
vt 0.03437451 0.009144509
vt 0.03328802 0.008515971
vt 0.03537686 0.009712869
vt 0.03328802 0.009144509
vt 0.03437451 0.009712869
vt 0.03328802 0.009712869
vt 0.03537686 0.008515971
vt 0.03638935 0.009144509
vt 0.03638935 0.008515971
vt 0.03537686 0.009144509
vt 0.03638935 0.009712869
vt 0.03537686 0.009712869
vt 0.03991549 0.008515971
vt 0.03891054 0.008515971
vt 0.03891385 0.009144509
vt 0.03991549 0.009144509
vt 0.03991549 0.009712869
vt 0.03919195 0.009712869
vt 0.03887856 0.009712869
vt 0.03328802 0.009144509
vt 0.03328802 0.009712869
vt 0.03437451 0.009712869
vt 0.03437451 0.009144509
vt 0.03328802 0.008515971
vt 0.03537686 0.009712869
vt 0.03437451 0.008515971
vt 0.03537686 0.009144509
vt 0.03537686 0.008515971
vt 0.03638935 0.009712869
vt 0.03638935 0.009144509
vt 0.03638935 0.008515971
vt 0.03748243 0.008515971
vt 0.03747906 0.009144509
vt 0.03720097 0.009712869
vt 0.0375144 0.009712869
vt 0.03561215 0.1553958
vt 0.06217732 0.1837684
vt 0.06294019 0.1558315
vt 0.03561249 0.1834483
vt 0.06047443 0.2139987
vt 0.009047653 0.1837688
vt 0.008284113 0.1558323
vt 0.01075125 0.2139995
vt 0.03561281 0.2137758
vt 0.05642708 0.2406362
vt 0.01479912 0.240637
vt 0.04246484 0.2464469
vt 0.02876144 0.2464473
vt 0.03919195 0.009712869
vt 0.03887856 0.009712869
vt 0.03868322 0.01090475
vt 0.03888425 0.01097068
vt 0.0386578 0.0112006
vt 0.03835271 0.01104139
vt 0.03834666 0.01133622
vt 0.03804046 0.01104142
vt 0.03804667 0.01133618
vt 0.03770991 0.01090479
vt 0.03773527 0.0112007
vt 0.0375088 0.01097068
vt 0.0375144 0.009712869
vt 0.03720097 0.009712869
vt 0.05954684 0.008821076
vt 0.06055933 0.009447603
vt 0.06055933 0.008821076
vt 0.05954684 0.009447603
vt 0.05854449 0.008821076
vt 0.05854449 0.009447603
vt 0.05745798 0.008821076
vt 0.05745798 0.009447603
vt 0.05745798 0.008821076
vt 0.05745798 0.009447603
vt 0.05854449 0.009447603
vt 0.05854449 0.008821076
vt 0.05954684 0.009447603
vt 0.05954684 0.008821076
vt 0.06055933 0.009447603
vt 0.06055933 0.008821076
vt 0.05745798 0.008821076
vt 0.05745798 0.009447603
vt 0.05854449 0.009447603
vt 0.05854449 0.008821076
vt 0.05954684 0.009447603
vt 0.05954684 0.008821076
vt 0.06055933 0.009447603
vt 0.06055933 0.008821076
vt 0.06064744 0.008821076
vt 0.06064744 0.009447603
vt 0.06096303 0.009447603
vt 0.06137095 0.008821076
vt 0.06336193 0.008821076
vt 0.06376982 0.009447603
vt 0.06408547 0.009447603
vt 0.06408547 0.008821076
vt 0.06305423 0.01007888
vt 0.06376982 0.009447603
vt 0.06336193 0.008821076
vt 0.06342988 0.01027207
vt 0.06282778 0.01030881
vt 0.06308429 0.01068656
vt 0.06251664 0.01044443
vt 0.06308429 0.01068656
vt 0.06282778 0.01030881
vt 0.06261255 0.01089429
vt 0.06221665 0.01044439
vt 0.06212236 0.01089484
vt 0.06190525 0.0103089
vt 0.06164734 0.01068692
vt 0.06167878 0.01007888
vt 0.06130306 0.01027227
vt 0.06137095 0.008821076
vt 0.06096303 0.009447603
vt 0.06082216 0.03329414
vt 0.0606633 0.03329414
vt 0.06065318 0.03395244
vt 0.06082562 0.03395244
vt 0.06061314 0.03454772
vt 0.06078866 0.03454772
vt 0.06078866 0.03454772
vt 0.06061314 0.03454772
vt 0.06049331 0.03568827
vt 0.06058408 0.03579604
vt 0.06058408 0.03579604
vt 0.06049331 0.03568827
vt 0.06021124 0.03580862
vt 0.06023793 0.03593915
vt 0.06023793 0.03593915
vt 0.06021124 0.03580862
vt 0.05993751 0.03580865
vt 0.05991088 0.03593918
vt 0.05991088 0.03593918
vt 0.05993751 0.03580865
vt 0.05965544 0.0356883
vt 0.05956466 0.03579608
vt 0.05956466 0.03579608
vt 0.05965544 0.0356883
vt 0.05953543 0.03454772
vt 0.05935991 0.03454772
vt 0.05935991 0.03454772
vt 0.05953543 0.03454772
vt 0.05949534 0.03395244
vt 0.05932291 0.03395244
vt 0.05948526 0.03329414
vt 0.05932641 0.03329414
vt 0.06014836 0.03484358
vt 0.05908234 0.03506093
vt 0.05916698 0.03530725
vt 0.06005913 0.03465223
vt 0.06100006 0.03416664
vt 0.06113435 0.03438981
vt 0.03295484 0.03406861
vt 0.03284545 0.03462553
vt 0.0339997 0.03457941
vt 0.03403658 0.03415775
vt 0.05952425 0.01065897
vt 0.05952427 0.01117479
vt 0.06062898 0.01135832
vt 0.06058227 0.01070137
vt 0.03403658 0.03415775
vt 0.0339997 0.03457941
vt 0.03512841 0.03482523
vt 0.03511737 0.03425778
vt 0.05846627 0.0107014
vt 0.05841957 0.01135835
vt 0.05952427 0.01117479
vt 0.05952425 0.01065897
vt 0.06014836 0.03484358
vt 0.05908234 0.03506093
vt 0.05916698 0.03530725
vt 0.06005913 0.03465223
vt 0.06100006 0.03416664
vt 0.06113435 0.03438981
vt 0.03295484 0.03406861
vt 0.03284545 0.03462553
vt 0.0339997 0.03457941
vt 0.03403658 0.03415775
vt 0.05952425 0.01065897
vt 0.05952427 0.01117479
vt 0.06062898 0.01135832
vt 0.06058227 0.01070137
vt 0.03403658 0.03415775
vt 0.0339997 0.03457941
vt 0.03512841 0.03482523
vt 0.03511737 0.03425778
vt 0.05846627 0.0107014
vt 0.05841957 0.01135835
vt 0.05952427 0.01117479
vt 0.05952425 0.01065897
vn 0.9636739 0.2582157 0.06824404
vn 0.7035968 0.7036552 0.09910048
vn 0.705122 0.7058077 0.06810604
vn 0.9611642 0.2575431 0.09917026
vn 0.7010108 0.7010117 0.1310201
vn 0.9636739 -0.2582155 0.06824441
vn 0.9575992 0.2565881 0.1310207
vn 0.9611641 -0.2575437 0.09917056
vn 0.7054374 -0.7045759 0.07701293
vn 0.957599 -0.2565881 0.1310209
vn 0.7086515 -0.6997089 0.0906672
vn 0.7122922 -0.6940157 0.1047956
vn 0.257754 0.9638271 0.06782563
vn -0.2575091 0.9611953 0.09895857
vn -0.2577541 0.9638271 0.06782497
vn 0.2575087 0.9611953 0.09895866
vn 0.705122 0.7058077 0.06810604
vn -0.2565881 0.9575993 0.1310196
vn 0.7035968 0.7036552 0.09910048
vn 0.2565877 0.9575995 0.1310192
vn 0.7010108 0.7010117 0.1310201
vn -0.2577541 0.9638271 0.06782497
vn -0.7035971 0.7036549 0.09910015
vn -0.7051221 0.7058079 0.06810451
vn -0.2575091 0.9611953 0.09895857
vn -0.7010109 0.7010117 0.131021
vn -0.2565881 0.9575993 0.1310196
vn 0.7054374 -0.7045759 0.07701293
vn 0.4990647 -0.8625913 0.08288944
vn 0.490207 -0.8676912 0.08251735
vn 0.7086515 -0.6997089 0.0906672
vn 0.7122922 -0.6940157 0.1047956
vn 0.4365242 -0.8947775 0.09391329
vn 0.3696864 -0.9230884 0.1060184
vn -0.7035971 0.7036549 0.09910015
vn -0.7010109 0.7010117 0.131021
vn -0.957599 0.2565878 0.1310222
vn -0.9611642 0.2575433 0.09917002
vn -0.7051221 0.7058079 0.06810451
vn -0.9575989 -0.2565878 0.1310224
vn -0.963674 0.2582156 0.06824215
vn -0.9611642 -0.257543 0.09917028
vn -0.963674 -0.2582157 0.06824246
vn -0.7122926 -0.6940153 0.1047957
vn -0.7086519 -0.6997086 0.09066682
vn -0.7054374 -0.7045759 0.07701211
vn -0.4990651 -0.862591 0.08288962
vn -0.4902073 -0.867691 0.08251709
vn -0.4365247 -0.8947773 0.0939129
vn -0.3696873 -0.9230881 0.1060182
vn 0 -0.9947029 0.1027914
vn 0.1330885 -0.9864258 0.09618581
vn 0.1340639 -0.9857234 0.1018633
vn 0 -0.995286 0.09698293
vn 0.1370613 -0.9866704 0.08772509
vn -0.1330885 -0.9864258 0.09618577
vn -0.1340639 -0.9857234 0.1018636
vn -0.1370617 -0.9866704 0.08772499
vn 0 -0.9959617 0.08977877
vn 0.1425132 -0.9861442 0.08490945
vn -0.142514 -0.9861441 0.08490973
vn 0.07135011 -0.992835 0.09585328
vn -0.07135046 -0.9928349 0.09585343
vn 0.4365242 -0.8947775 0.09391329
vn 0.3696864 -0.9230884 0.1060184
vn 0.3169252 -0.942363 0.1072867
vn 0.3826515 -0.9181032 0.1032683
vn 0.2267027 -0.9676581 0.1106509
vn 0.08663298 -0.9885394 0.123631
vn 0.06985728 -0.9897541 0.1245259
vn -0.08663283 -0.9885395 0.1236302
vn -0.06985696 -0.9897541 0.1245252
vn -0.3169257 -0.942363 0.1072855
vn -0.2267028 -0.9676583 0.1106491
vn -0.382652 -0.9181031 0.1032675
vn -0.3696873 -0.9230881 0.1060182
vn -0.4365247 -0.8947773 0.0939129
vn 0.3420122 0.09164266 0.9352162
vn 0.2503705 0.2503708 0.9352161
vn 0.2503704 0.2503708 0.9352161
vn 0.3420121 0.09164272 0.9352162
vn 0.3412793 -0.09163222 0.9354849
vn 0.3412443 -0.09175902 0.9354852
vn 0.2632978 -0.242072 0.9338498
vn 0.2638681 -0.2414271 0.9338558
vn 0.2503704 0.2503708 0.9352161
vn 0.2503705 0.2503708 0.9352161
vn 0.09164208 0.342013 0.9352159
vn 0.0916421 0.342013 0.9352159
vn -0.09164198 0.3420132 0.9352159
vn -0.09164196 0.3420132 0.9352159
vn -0.2503703 0.2503707 0.9352161
vn -0.2503704 0.2503706 0.9352162
vn -0.2503704 0.2503706 0.9352162
vn -0.2503703 0.2503707 0.9352161
vn -0.3420119 0.09164164 0.9352163
vn -0.342012 0.09164162 0.9352163
vn -0.341244 -0.09175881 0.9354853
vn -0.341279 -0.09163214 0.935485
vn -0.2636593 -0.2413689 0.9339297
vn -0.2630822 -0.2420182 0.9339245
vn -0.2630822 -0.2420182 0.9339245
vn -0.2636593 -0.2413689 0.9339297
vn -0.2099604 -0.3000979 0.9305148
vn -0.2099604 -0.3000979 0.9305148
vn 0.2103952 -0.3002076 0.9303813
vn 0.2103952 -0.3002076 0.9303813
vn 0.2638681 -0.2414271 0.9338558
vn 0.2632978 -0.242072 0.9338498
vn 0.9238506 -0.009190617 0.3826429
vn 0.976276 -0.03141257 0.2142387
vn 0.976276 -0.03141256 0.2142387
vn 0.9350497 -0.01306938 0.3542755
vn 0.8572569 0.009704485 0.5147974
vn 0.8572569 0.009704486 0.5147974
vn 0.2028366 -0.05567342 0.9776286
vn 0.4037937 -0.05393792 0.9132587
vn 0.4037937 -0.05393792 0.9132587
vn 0.2099135 -0.05565486 0.9761346
vn -0.2004338 -0.05728363 0.9780311
vn -0.2069689 -0.05731838 0.976667
vn -0.6511677 -0.02848521 0.7583991
vn -0.6637437 -0.02676783 0.7474809
vn -0.9247802 -0.01136715 0.380332
vn -0.9356926 -0.01486161 0.352503
vn -0.9763423 -0.03150924 0.2139225
vn -0.9763423 -0.03150924 0.2139225
vn -0.8125795 -0.5817274 0.03616029
vn -0.8125795 -0.5817275 0.03616029
vn -0.8125795 -0.5817275 0.03616029
vn -0.8125795 -0.5817276 0.0361603
vn -0.8232476 -0.5676756 0.002786038
vn -0.8232476 -0.5676756 0.002786039
vn -0.8380033 -0.5439438 -0.04330801
vn -0.8380033 -0.5439438 -0.04330802
vn -0.8380033 -0.5439438 -0.04330802
vn -0.8380033 -0.5439438 -0.04330801
vn -0.2334708 -0.6429058 -0.7294953
vn -0.2334708 -0.6429059 -0.7294953
vn -0.2334708 -0.6429059 -0.7294953
vn -0.2334708 -0.6429059 -0.7294953
vn 0 -0.6035197 -0.7973481
vn 0 -0.6035197 -0.7973481
vn 0 -0.6035197 -0.7973481
vn 0 -0.6035197 -0.7973481
vn 0.2334699 -0.6429068 -0.7294949
vn 0.2334699 -0.6429068 -0.7294949
vn 0.2334699 -0.6429067 -0.7294949
vn 0.2334699 -0.6429067 -0.7294949
vn 0.8380013 -0.543947 -0.04330799
vn 0.8380013 -0.543947 -0.04330799
vn 0.8380013 -0.5439469 -0.04330798
vn 0.8380013 -0.543947 -0.04330799
vn 0.8232467 -0.567677 0.002787736
vn 0.8232467 -0.567677 0.002787736
vn 0.8232467 -0.567677 0.002787736
vn 0.8232467 -0.567677 0.002787736
vn 0.8125781 -0.5817294 0.03616105
vn 0.8125781 -0.5817295 0.03616105
vn 0 -0.9981478 0.06083531
vn 0.1472049 -0.9872738 0.06017505
vn 0.1472049 -0.9872738 0.06017505
vn 0 -0.9981478 0.06083532
vn -0.147204 -0.9872743 0.0601701
vn -0.147204 -0.9872743 0.0601701
vn -0.0004920471 0 -0.9999999
vn -0.0004920471 0 -0.9999999
vn -0.0004920471 0 -0.9999999
vn -0.0004920471 0 -0.9999999
vn 0.000902405 0 0.9999996
vn 0.000902405 0 0.9999996
vn 0.0009024051 0 0.9999996
vn 0.0009024051 0 0.9999996
vn 0.0004920444 0 -0.9999999
vn 0.0004920444 0 -0.9999999
vn 0.0004920444 0 -0.9999999
vn 0.0004920444 0 -0.9999999
vn -0.0009021799 0 0.9999996
vn -0.00090218 0 0.9999996
vn -0.00090218 0 0.9999996
vn -0.0009021799 0 0.9999996
vn 0 -0.9981477 0.06083739
vn 0.134592 -0.9890655 0.06028656
vn 0.134592 -0.9890655 0.06028655
vn 0 -0.9981477 0.06083739
vn -0.1345906 -0.989066 0.06028112
vn -0.1345906 -0.989066 0.06028112
vn -0.0004490857 0 -0.9999999
vn -0.0004490856 0 -0.9999999
vn -0.0004490857 0 -0.9999999
vn -0.0004490857 0 -0.9999999
vn 0.0008235869 0 0.9999996
vn 0.0008235869 0 0.9999996
vn 0.0008235869 0 0.9999996
vn 0.0008235869 0 0.9999996
vn 0.0004490833 0 -0.9999999
vn 0.0004490833 0 -0.9999999
vn 0.0004490833 0 -0.9999999
vn 0.0004490833 0 -0.9999999
vn -0.0008233816 0 0.9999996
vn -0.0008233816 0 0.9999996
vn -0.0008233817 0 0.9999996
vn -0.0008233817 0 0.9999996
g Color_01_0
f 3/3/3 2/2/2 1/1/1
f 2/2/2 4/4/4 1/1/1
f 2/2/2 5/5/5 4/4/4
f 1/1/1 4/4/4 6/6/6
f 5/5/5 7/7/7 4/4/4
f 4/4/4 8/8/8 6/6/6
f 4/4/4 7/7/7 8/8/8
f 6/6/6 8/8/8 9/9/9
f 7/7/7 10/10/10 8/8/8
f 8/8/8 11/11/11 9/9/9
f 8/8/8 10/10/10 11/11/11
f 10/10/10 12/12/12 11/11/11
f 15/15/15 14/14/14 13/13/13
f 14/14/14 16/16/16 13/13/13
f 13/13/13 16/16/16 17/17/17
f 14/14/14 18/18/18 16/16/16
f 16/16/16 19/19/19 17/17/17
f 18/18/18 20/20/20 16/16/16
f 16/16/16 20/20/20 19/19/19
f 20/20/20 21/21/21 19/19/19
f 24/24/24 23/23/23 22/22/22
f 23/23/23 25/25/25 22/22/22
f 23/23/23 26/26/26 25/25/25
f 26/26/26 27/27/27 25/25/25
f 30/30/30 29/29/29 28/28/28
f 31/31/31 30/30/30 28/28/28
f 31/31/31 32/32/32 30/30/30
f 32/32/32 33/33/33 30/30/30
f 33/33/33 34/34/34 30/30/30
f 37/37/37 36/36/36 35/35/35
f 38/38/38 37/37/37 35/35/35
f 38/38/38 35/35/35 39/39/39
f 40/40/40 37/37/37 38/38/38
f 41/41/41 38/38/38 39/39/39
f 42/42/42 40/40/40 38/38/38
f 42/42/42 38/38/38 41/41/41
f 43/43/43 42/42/42 41/41/41
f 44/44/44 40/40/40 42/42/42
f 45/45/45 42/42/42 43/43/43
f 45/45/45 44/44/44 42/42/42
f 46/46/46 45/45/45 43/43/43
f 45/45/45 46/46/46 47/47/47
f 48/48/48 45/45/45 47/47/47
f 44/44/44 45/45/45 48/48/48
f 49/49/49 44/44/44 48/48/48
f 48/48/48 50/50/50 49/49/49
f 53/53/53 52/52/52 51/51/51
f 52/52/52 54/54/54 51/51/51
f 52/52/52 55/55/55 54/54/54
f 51/51/51 54/54/54 56/56/56
f 57/57/57 51/51/51 56/56/56
f 56/56/56 54/54/54 58/58/58
f 55/55/55 59/59/59 54/54/54
f 54/54/54 59/59/59 58/58/58
f 55/55/55 60/60/60 59/59/59
f 58/58/58 59/59/59 61/61/61
f 60/60/60 62/62/62 59/59/59
f 59/59/59 63/63/63 61/61/61
f 59/59/59 62/62/62 63/63/63
f 66/66/66 65/65/65 64/64/64
f 67/67/67 66/66/66 64/64/64
f 68/68/68 66/66/66 67/67/67
f 69/69/69 66/66/66 68/68/68
f 70/70/70 69/69/69 68/68/68
f 71/71/71 69/69/69 70/70/70
f 72/72/72 71/71/71 70/70/70
f 73/73/73 71/71/71 72/72/72
f 74/74/74 73/73/73 72/72/72
f 75/75/75 73/73/73 74/74/74
f 76/76/76 73/73/73 75/75/75
f 77/77/77 76/76/76 75/75/75
f 80/80/80 79/79/79 78/78/78
f 79/79/79 81/81/81 78/78/78
f 78/78/78 81/81/81 82/82/82
f 81/81/81 83/83/83 82/82/82
f 82/82/82 83/83/83 84/84/84
f 83/83/83 85/85/85 84/84/84
f 88/88/88 87/87/87 86/86/86
f 89/89/89 88/88/88 86/86/86
f 90/90/90 88/88/88 89/89/89
f 91/91/91 90/90/90 89/89/89
f 92/92/92 90/90/90 91/91/91
f 93/93/93 92/92/92 91/91/91
f 96/96/96 95/95/95 94/94/94
f 97/97/97 96/96/96 94/94/94
f 98/98/98 96/96/96 97/97/97
f 99/99/99 98/98/98 97/97/97
f 100/100/100 98/98/98 99/99/99
f 101/101/101 100/100/100 99/99/99
f 104/104/104 103/103/103 102/102/102
f 105/105/105 104/104/104 102/102/102
f 108/108/108 107/107/107 106/106/106
f 109/109/109 108/108/108 106/106/106
f 112/112/112 111/111/111 110/110/110
f 111/111/111 113/113/113 110/110/110
f 110/110/110 113/113/113 114/114/114
f 113/113/113 115/115/115 114/114/114
f 118/118/118 117/117/117 116/116/116
f 117/117/117 119/119/119 116/116/116
f 116/116/116 119/119/119 120/120/120
f 119/119/119 121/121/121 120/120/120
f 120/120/120 121/121/121 122/122/122
f 121/121/121 123/123/123 122/122/122
f 122/122/122 123/123/123 124/124/124
f 123/123/123 125/125/125 124/124/124
f 124/124/124 125/125/125 126/126/126
f 125/125/125 127/127/127 126/126/126
f 130/130/130 129/129/129 128/128/128
f 131/131/131 130/130/130 128/128/128
f 132/132/132 130/130/130 131/131/131
f 133/133/133 132/132/132 131/131/131
f 136/136/136 135/135/135 134/134/134
f 137/137/137 136/136/136 134/134/134
f 140/140/140 139/139/139 138/138/138
f 141/141/141 140/140/140 138/138/138
f 144/144/144 143/143/143 142/142/142
f 145/145/145 144/144/144 142/142/142
f 148/148/148 147/147/147 146/146/146
f 149/149/149 148/148/148 146/146/146
f 152/152/152 151/151/151 150/150/150
f 153/153/153 152/152/152 150/150/150
f 156/156/156 155/155/155 154/154/154
f 157/157/157 156/156/156 154/154/154
f 158/158/158 156/156/156 157/157/157
f 159/159/159 158/158/158 157/157/157
f 162/162/162 161/161/161 160/160/160
f 161/161/161 163/163/163 160/160/160
f 160/160/160 163/163/163 164/164/164
f 165/165/165 160/160/160 164/164/164
f 168/168/168 167/167/167 166/166/166
f 169/169/169 168/168/168 166/166/166
f 172/172/172 171/171/171 170/170/170
f 173/173/173 172/172/172 170/170/170
f 176/176/176 175/175/175 174/174/174
f 177/177/177 176/176/176 174/174/174
f 180/180/180 179/179/179 178/178/178
f 181/181/181 180/180/180 178/178/178
f 184/184/184 183/183/183 182/182/182
f 183/183/183 185/185/185 182/182/182
f 182/182/182 185/185/185 186/186/186
f 187/187/187 182/182/182 186/186/186
f 190/190/190 189/189/189 188/188/188
f 191/191/191 190/190/190 188/188/188
f 194/194/194 193/193/193 192/192/192
f 195/195/195 194/194/194 192/192/192
f 198/198/198 197/197/197 196/196/196
f 199/199/199 198/198/198 196/196/196
f 202/202/202 201/201/201 200/200/200
f 203/203/203 202/202/202 200/200/200
