g Color_Boss_39
v -0.7641542 1.044418 0.6359684
v 0.8718038 1.028561 -0.5847138
v 0.824121 1.028561 0.629344
v -0.7641542 1.044419 -0.5912576
v 0.8718038 0.1714671 -1.4434
v -0.8718042 0.1748101 -1.504123
v -0.7641542 0.1781525 1.504123
v -0.7641542 1.044418 0.6359684
v 0.824121 1.028561 0.629344
v 0.8718038 0.1714665 1.488012
v -0.7641542 -1.044419 1.496067
v -0.7641542 0.1781525 1.504123
v 0.8718038 0.1714665 1.488012
v 0.8718038 -1.041111 1.488012
v 0.8718038 0.1714665 1.488012
v 0.8718038 -0.7571664 0.8013573
v 0.8718038 -1.041111 1.488012
v 0.8718038 -0.112661 0.8013575
v 0.824121 1.028561 0.629344
v 0.8718038 0.3429018 0.3449587
v 0.8718038 1.028561 -0.5847138
v 0.8718038 0.3429019 -0.3003359
v 0.8718038 0.1714671 -1.4434
v 0.8718038 -0.1126607 -0.7567431
v 0.8718038 -0.112661 0.8013575
v 0.8540721 -0.7787613 0.01507509
v 0.8718038 -0.7571664 0.8013573
v 0.8718038 0.3429018 0.3449587
v 0.8718038 0.3429019 -0.3003359
v 0.8718038 -0.1126607 -0.7567431
v 0.8718038 -0.7571664 0.8013573
v -0.7641542 -1.044419 1.496067
v 0.8718038 -1.041111 1.488012
v -0.7641537 -0.7571664 0.8013573
v 0.8540721 -0.7787613 0.01507509
v -0.7641547 -0.7648455 0.01507509
v 0.8718038 -0.1126607 -0.7567431
v -0.7641537 -0.1126607 -0.7567431
v 0.8718038 0.1714671 -1.4434
v -0.8718042 0.1748101 -1.504123
v -0.7641542 1.044419 -0.5912576
v -0.7641542 -0.06488044 0.03096819
v -0.8718042 0.1748101 -1.504123
v -0.7641542 1.044418 0.6359684
v -0.7641537 -0.1126607 -0.7567431
v -0.7641542 0.1781525 1.504123
v -0.7641547 -0.7648455 0.01507509
v -0.7641542 -1.044419 1.496067
v -0.7641537 -0.7571664 0.8013573
vt 0.7082322 0.01127407
vt 0.70992 0.01167849
vt 0.7093052 0.01155178
vt 0.7104903 0.01136972
vt 0.709742 0.01183237
vt 0.7116284 0.01167202
vt 0.7061748 0.03552204
vt 0.7061748 0.03735979
vt 0.7136772 0.03732612
vt 0.7136772 0.03550787
vt 0.6588286 0.03425993
vt 0.6588286 0.03779806
vt 0.6630572 0.03777874
vt 0.6630572 0.034279
vt 0.708269 0.01152646
vt 0.707863 0.01165722
vt 0.7074139 0.01161508
vt 0.708389 0.01160353
vt 0.7093052 0.01155178
vt 0.7090288 0.01161888
vt 0.70992 0.01167849
vt 0.7094072 0.01169656
vt 0.709742 0.01183237
vt 0.709299 0.01179087
vt 0.7102919 0.03895517
vt 0.7090408 0.03641358
vt 0.7077954 0.03895517
vt 0.7120566 0.03747808
vt 0.7120566 0.03538964
vt 0.7102919 0.03391249
vt 0.6624352 0.03668905
vt 0.6595527 0.03727766
vt 0.6624352 0.03727081
vt 0.6595974 0.03668905
vt 0.6622884 0.03602285
vt 0.6594507 0.03602285
vt 0.6624352 0.0353689
vt 0.6595974 0.0353689
vt 0.6624352 0.03478713
vt 0.6595527 0.03478033
vt 0.6852725 0.01279336
vt 0.684158 0.01289164
vt 0.6843988 0.01265749
vt 0.6852725 0.0129872
vt 0.68411 0.01276722
vt 0.6844022 0.01312432
vt 0.6837854 0.01288913
vt 0.6831738 0.01312305
vt 0.6834624 0.01301332
vn 0.01069394 0.9240154 0.3822057
vn 0.01506499 0.9241552 -0.3817198
vn 0.01069394 0.9240211 0.382192
vn 0.01512532 0.9219788 -0.3869449
vn 0.01796622 0.7154518 -0.698431
vn 0.01796622 0.7154518 -0.698431
vn 0.009929678 0.7079182 0.7062246
vn 0.01069394 0.9240154 0.3822057
vn 0.01069394 0.9240211 0.382192
vn 0.009929678 0.7079182 0.7062246
vn 0.007382481 -0.003308274 0.9999673
vn 0.007382481 -0.003308274 0.9999673
vn 0.00738248 -0.003308273 0.9999673
vn 0.007382481 -0.003308274 0.9999673
vn 0.999767 0.02134729 0.00320167
vn 0.9999489 0 -0.0101191
vn 1 0 0
vn 0.9999373 0.01046566 -0.004000115
vn 0.9991215 0.03872904 0.01600652
vn 0.9997904 0.01888026 0.007928069
vn 0.9997672 0.01736227 0.01280516
vn 0.999934 0.005514684 0.01009032
vn 1 0 0
vn 0.9999716 -0.005336232 0.005326356
vn 0.9999373 0.01046566 -0.004000115
vn 0.9999336 -0.009651137 -0.006295605
vn 0.9999489 0 -0.0101191
vn 0.9997904 0.01888026 0.007928069
vn 0.999934 0.005514684 0.01009032
vn 0.9999716 -0.005336232 0.005326356
vn -0.002171234 -0.9823363 -0.1871115
vn -6.564187E-06 -0.9241119 -0.3821222
vn -6.564187E-06 -0.9241119 -0.3821222
vn -0.002186992 -0.9826168 -0.1856325
vn -0.004027382 -0.9417977 -0.336156
vn -0.004024618 -0.9411513 -0.3379616
vn 0.001286673 -0.8564958 -0.5161523
vn 0.001447207 -0.8594828 -0.5111627
vn 0.005740628 -0.9287627 -0.3706302
vn 0.005740629 -0.9287627 -0.3706303
vn -0.9988101 0.02385878 0.04253524
vn -0.9999194 -0.004879525 0.01172137
vn -0.9974945 -0.02558635 0.06595538
vn -1 0 0
vn -0.9701901 -0.2419005 0.01467239
vn -1 0 0
vn -1 0 0
vn -1 0 0
vn -1 0 0
g Color_Boss_39_0
f 3/3/3 2/2/2 1/1/1
f 2/2/2 4/4/4 1/1/1
f 2/2/2 5/5/5 4/4/4
f 5/5/5 6/6/6 4/4/4
f 9/9/9 8/8/8 7/7/7
f 10/10/10 9/9/9 7/7/7
f 13/13/13 12/12/12 11/11/11
f 14/14/14 13/13/13 11/11/11
f 17/17/17 16/16/16 15/15/15
f 16/16/16 18/18/18 15/15/15
f 15/15/15 18/18/18 19/19/19
f 18/18/18 20/20/20 19/19/19
f 19/19/19 20/20/20 21/21/21
f 20/20/20 22/22/22 21/21/21
f 21/21/21 22/22/22 23/23/23
f 22/22/22 24/24/24 23/23/23
f 27/27/27 26/26/26 25/25/25
f 25/25/25 26/26/26 28/28/28
f 28/28/28 26/26/26 29/29/29
f 29/29/29 26/26/26 30/30/30
f 33/33/33 32/32/32 31/31/31
f 32/32/32 34/34/34 31/31/31
f 31/31/31 34/34/34 35/35/35
f 34/34/34 36/36/36 35/35/35
f 35/35/35 36/36/36 37/37/37
f 36/36/36 38/38/38 37/37/37
f 37/37/37 38/38/38 39/39/39
f 38/38/38 40/40/40 39/39/39
f 43/43/43 42/42/42 41/41/41
f 41/41/41 42/42/42 44/44/44
f 45/45/45 42/42/42 43/43/43
f 44/44/44 42/42/42 46/46/46
f 47/47/47 42/42/42 45/45/45
f 46/46/46 42/42/42 48/48/48
f 49/49/49 42/42/42 47/47/47
f 48/48/48 42/42/42 49/49/49
