g Color_04
v -7.457547E-06 1.116879 2.266939E-19
v -7.457547E-06 1.116879 0.8720665
v -0.7897592 0.7897519 0.8720665
v -0.7897599 0.7897519 2.422329E-14
v 0.7897457 0.789753 -2.422286E-14
v -1.116885 -5.434087E-07 0.8720665
v 0.7897457 0.7897528 0.8720665
v -1.116885 -5.434088E-07 3.42568E-14
v 1.116872 7.818265E-07 -3.425639E-14
v -0.7897581 -0.7897535 0.8720665
v 1.116872 7.818265E-07 0.8720665
v -0.7897586 -0.7897535 2.422326E-14
v 0.7897473 -0.7897519 -2.422291E-14
v -5.417056E-06 -1.116879 0.8720665
v 0.7897473 -0.7897519 0.8720665
v -5.893893E-06 -1.116879 1.828177E-19
v -7.457547E-06 1.116879 0.8720665
v -7.695966E-06 1.116879 1.748999
v -0.7897595 0.7897519 1.748999
v -0.7897592 0.7897519 0.8720665
v 0.7897457 0.7897528 0.8720665
v -1.116885 -5.434088E-07 1.748999
v 0.7897457 0.7897533 1.748999
v -1.116885 -5.434087E-07 0.8720665
v 1.116872 7.818265E-07 0.8720665
v -0.7897584 -0.7897535 1.749001
v 1.116872 7.818265E-07 1.748999
v -0.7897581 -0.7897535 0.8720665
v 0.7897473 -0.7897519 0.8720665
v -5.893893E-06 -1.116879 1.748999
v 0.7897473 -0.7897519 1.748999
v -5.417056E-06 -1.116879 0.8720665
v -7.695966E-06 1.116879 1.748999
v -7.457547E-06 1.116879 3.063499
v -0.7897599 0.7897519 3.063499
v -0.7897595 0.7897519 1.748999
v 0.7897457 0.7897533 1.748999
v -1.116885 -5.434088E-07 3.063499
v 0.7897457 0.7897533 3.063499
v -1.116885 -5.434088E-07 1.748999
v 1.116872 7.818265E-07 1.748999
v -0.7897586 -0.7897535 3.063499
v 1.116872 7.818265E-07 3.063499
v -0.7897584 -0.7897535 1.749001
v 0.7897473 -0.7897519 1.748999
v -5.893893E-06 -1.116879 3.063499
v 0.7897473 -0.7897519 3.063499
v -5.893893E-06 -1.116879 1.748999
vt 0.4561508 0.9842985
vt 0.4561508 0.9842985
vt 0.4555372 0.9840218
vt 0.4555372 0.9840218
vt 0.4567644 0.9840218
vt 0.455283 0.9833539
vt 0.4567644 0.9840218
vt 0.455283 0.9833539
vt 0.4570186 0.9833539
vt 0.4555372 0.9826859
vt 0.4570186 0.9833539
vt 0.4555372 0.9826859
vt 0.4567644 0.9826859
vt 0.4561508 0.9824092
vt 0.4567644 0.9826859
vt 0.4561508 0.9824092
vt 0.4478674 0.9834357
vt 0.4478674 0.9834357
vt 0.4472538 0.983159
vt 0.4472538 0.983159
vt 0.448481 0.983159
vt 0.4469996 0.9824911
vt 0.448481 0.983159
vt 0.4469996 0.9824911
vt 0.4487351 0.9824911
vt 0.4472538 0.9818231
vt 0.4487351 0.9824911
vt 0.4472538 0.9818231
vt 0.448481 0.9818231
vt 0.4478674 0.9815464
vt 0.448481 0.9818231
vt 0.4478674 0.9815464
vt 0.4428628 0.953926
vt 0.4428628 0.953926
vt 0.4422492 0.9536493
vt 0.4422492 0.9536493
vt 0.4434764 0.9536493
vt 0.441995 0.9529814
vt 0.4434764 0.9536493
vt 0.441995 0.9529814
vt 0.4437306 0.9529814
vt 0.4422492 0.9523134
vt 0.4437306 0.9529814
vt 0.4422492 0.9523134
vt 0.4434764 0.9523134
vt 0.4428628 0.9520367
vt 0.4434764 0.9523134
vt 0.4428628 0.9520367
vn 0 1 0
vn 0 1 0
vn -0.7071072 0.7071062 0
vn -0.7071074 0.7071061 0
vn 0.7071063 0.7071072 0
vn -1 0 0
vn 0.7071064 0.7071071 0
vn -1 0 0
vn 1 0 0
vn -0.7071064 -0.7071071 0
vn 1 0 0
vn -0.7071065 -0.7071071 0
vn 0.7071077 -0.7071058 0
vn 0 -1 0
vn 0.7071078 -0.7071058 0
vn 0 -1 0
vn 0 1 0
vn 0 1 0
vn -0.7071074 0.7071062 0
vn -0.7071072 0.7071062 0
vn 0.7071064 0.7071071 0
vn -1 0 0
vn 0.7071064 0.7071071 0
vn -1 0 0
vn 1 0 0
vn -0.7071064 -0.7071071 0
vn 1 0 0
vn -0.7071064 -0.7071071 0
vn 0.7071078 -0.7071058 0
vn 0 -1 0
vn 0.7071077 -0.7071058 0
vn 0 -1 0
vn 0 1 0
vn 0 1 0
vn -0.7071074 0.7071061 0
vn -0.7071074 0.7071062 0
vn 0.7071064 0.7071071 0
vn -1 0 0
vn 0.7071064 0.7071071 0
vn -1 0 0
vn 1 0 0
vn -0.7071064 -0.7071071 0
vn 1 0 0
vn -0.7071064 -0.7071071 0
vn 0.7071077 -0.7071058 0
vn 0 -1 0
vn 0.7071076 -0.7071059 0
vn 0 -1 0
g Color_04_0
f 3/3/3 2/2/2 1/1/1
f 4/4/4 3/3/3 1/1/1
f 1/1/1 2/2/2 5/5/5
f 6/6/6 3/3/3 4/4/4
f 2/2/2 7/7/7 5/5/5
f 8/8/8 6/6/6 4/4/4
f 5/5/5 7/7/7 9/9/9
f 10/10/10 6/6/6 8/8/8
f 7/7/7 11/11/11 9/9/9
f 12/12/12 10/10/10 8/8/8
f 9/9/9 11/11/11 13/13/13
f 14/14/14 10/10/10 12/12/12
f 11/11/11 15/15/15 13/13/13
f 16/16/16 14/14/14 12/12/12
f 13/13/13 15/15/15 16/16/16
f 15/15/15 14/14/14 16/16/16
f 19/19/19 18/18/18 17/17/17
f 20/20/20 19/19/19 17/17/17
f 17/17/17 18/18/18 21/21/21
f 22/22/22 19/19/19 20/20/20
f 18/18/18 23/23/23 21/21/21
f 24/24/24 22/22/22 20/20/20
f 21/21/21 23/23/23 25/25/25
f 26/26/26 22/22/22 24/24/24
f 23/23/23 27/27/27 25/25/25
f 28/28/28 26/26/26 24/24/24
f 25/25/25 27/27/27 29/29/29
f 30/30/30 26/26/26 28/28/28
f 27/27/27 31/31/31 29/29/29
f 32/32/32 30/30/30 28/28/28
f 29/29/29 31/31/31 32/32/32
f 31/31/31 30/30/30 32/32/32
f 35/35/35 34/34/34 33/33/33
f 36/36/36 35/35/35 33/33/33
f 33/33/33 34/34/34 37/37/37
f 38/38/38 35/35/35 36/36/36
f 34/34/34 39/39/39 37/37/37
f 40/40/40 38/38/38 36/36/36
f 37/37/37 39/39/39 41/41/41
f 42/42/42 38/38/38 40/40/40
f 39/39/39 43/43/43 41/41/41
f 44/44/44 42/42/42 40/40/40
f 41/41/41 43/43/43 45/45/45
f 46/46/46 42/42/42 44/44/44
f 43/43/43 47/47/47 45/45/45
f 48/48/48 46/46/46 44/44/44
f 45/45/45 47/47/47 48/48/48
f 47/47/47 46/46/46 48/48/48
