g Color_Boss_42
v 0.5127015 0.130449 1.076003
v 0.4529586 0.1759965 0.9962947
v 0.6837194 0.3923708 0.961858
v 0.7205148 0.3253018 1.044988
v 0.7205148 0.3253018 1.044988
v 0.6837194 0.3923708 0.961858
v 0.9399946 0.289992 0.8140652
v 0.951304 0.2331063 0.9118931
v 0.5337205 -0.1599162 0.9737451
v 0.4762993 -0.1464332 0.8827465
v 0.4529586 0.1759965 0.9962947
v 0.5127015 0.130449 1.076003
v 0.951304 0.2331063 0.9118931
v 0.9399946 0.289992 0.8140652
v 0.9668696 -0.03244524 0.6989224
v 0.9755063 -0.05726462 0.8081992
v 0.9755063 -0.05726462 0.8081992
v 0.9668696 -0.03244524 0.6989224
v 0.7339954 -0.2523921 0.7331665
v 0.7657907 -0.255338 0.839041
v 0.7657907 -0.255338 0.839041
v 0.7339954 -0.2523921 0.7331665
v 0.4762993 -0.1464332 0.8827465
v 0.5337205 -0.1599162 0.9737451
v 0.3025293 -0.1251071 1.153523
v 0.2029452 -0.3429406 1.245236
v 0.1260192 -0.09057362 1.268152
v 0.3358238 -0.3254388 1.039588
v 0.1912916 -0.507499 1.037167
v 0.01240969 -0.4625599 1.155009
v -0.01963711 -0.25682 1.26999
v 0.1260192 -0.09057362 1.268152
v 0.2029452 -0.3429406 1.245236
v 0.01240969 -0.4625599 1.155009
v 0.1260192 -0.09057362 1.268152
v 0.09191442 -0.02819856 1.204096
v 0.2879159 -0.06654865 1.076809
v 0.3025293 -0.1251071 1.153523
v 0.3025293 -0.1251071 1.153523
v 0.2879159 -0.06654865 1.076809
v 0.324887 -0.2890017 0.9502904
v 0.3358238 -0.3254388 1.039588
v -0.01963711 -0.25682 1.26999
v -0.0698266 -0.212807 1.206135
v 0.09191442 -0.02819856 1.204096
v 0.1260192 -0.09057362 1.268152
v 0.3358238 -0.3254388 1.039588
v 0.324887 -0.2890017 0.9502904
v 0.1643949 -0.484091 0.9489048
v 0.1912916 -0.507499 1.037167
v 0.1912916 -0.507499 1.037167
v 0.1643949 -0.484091 0.9489048
v -0.0342412 -0.4380753 1.079044
v 0.01240969 -0.4625599 1.155009
v 0.01240969 -0.4625599 1.155009
v -0.0342412 -0.4380753 1.079044
v -0.0698266 -0.212807 1.206135
v -0.01963711 -0.25682 1.26999
v 0.2923279 -0.7788164 0.8740242
v 0.2392406 -0.7391045 0.7992184
v 0.4814179 -0.5332329 0.774935
v 0.5104239 -0.5938275 0.8518112
v 0.5104239 -0.5938275 0.8518112
v 0.4814179 -0.5332329 0.774935
v 0.731884 -0.6185553 0.6288831
v 0.7359831 -0.6707585 0.720206
v 0.2976615 -1.045322 0.7630818
v 0.2451618 -1.035572 0.6755779
v 0.2392406 -0.7391045 0.7992184
v 0.2923279 -0.7788164 0.8740242
v 0.7359831 -0.6707585 0.720206
v 0.731884 -0.6185553 0.6288831
v 0.7413366 -0.9160559 0.5027521
v 0.7444963 -0.9380924 0.6071045
v 0.7444963 -0.9380924 0.6071045
v 0.7413366 -0.9160559 0.5027521
v 0.4968567 -1.127133 0.5251496
v 0.5243275 -1.127603 0.6277573
v 0.5243275 -1.127603 0.6277573
v 0.4968567 -1.127133 0.5251496
v 0.2451618 -1.035572 0.6755779
v 0.2976615 -1.045322 0.7630818
v -1.074333 -0.07383095 2.081465
v -1.933549 0.7538943 2.85534
v -1.723894 0.9653535 3.012178
v -0.8837736 0.06134379 2.115954
v -0.7003751 -0.4921305 1.389027
v -0.2941136 -0.3728793 1.311549
v 0.4580638 -1.823628 0.3562648
v -0.4129651 -1.93787 0.3822005
v -0.4197628 -2.668655 0.04765391
v 0.5667915 -2.239715 0.1956055
v -1.147121 1.272311 -2.700425
v 1.52911 1.164915 -2.454237
v 0.8058512 2.772972 -2.14219
v -0.5934808 -0.03084482 -2.919104
v 1.514885 -0.03948798 -2.674711
v -0.3146174 -0.7783632 -3.012178
v -1.420312 1.006211 -0.8129106
v -1.933549 0.7538943 2.85534
v -1.074333 -0.07383095 2.081465
v -0.8404236 -0.04930803 -1.105151
v -1.147121 1.272311 -2.700425
v -0.5934808 -0.03084482 -2.919104
v -0.3146174 -0.7783632 -3.012178
v -0.548337 -0.6292583 -1.25561
v -0.7003751 -0.4921305 1.389027
v -0.4345148 -2.203704 -1.379956
v -0.2035594 -2.3967 -2.709009
v -0.4129651 -1.93787 0.3822005
v -0.3146174 -0.7783632 -3.012178
v 1.34646 -1.350859 -2.51903
v 1.514885 -0.03948798 -2.674711
v -0.2035594 -2.3967 -2.709009
v 1.265351 -1.915857 -2.384896
v -0.2282498 -2.772972 -2.600029
v 1.933549 1.061255 -0.6353049
v 1.197662 2.62081 -0.1455603
v 0.8058512 2.772972 -2.14219
v 1.52911 1.164915 -2.454237
v 1.514885 -0.03948798 -2.674711
v 1.925682 -0.1187164 -0.9452815
v 1.843458 -1.950771 -1.027023
v 1.34646 -1.350859 -2.51903
v 1.67589 -2.402567 -1.064899
v 1.265351 -1.915857 -2.384896
v 1.243875 -1.952841 -0.1150498
v 1.843458 -1.950771 -1.027023
v 1.67589 -2.402567 -1.064899
v 1.307228 -1.341473 -0.003263235
v 0.5667915 -2.239715 0.1956055
v 0.4580638 -1.823628 0.3562648
v 1.210953 -0.07940321 0.6364367
v -0.2941136 -0.3728793 1.311549
v 1.925682 -0.1187164 -0.9452815
v -0.8837736 0.06134379 2.115954
v 0.6913877 0.8670469 1.085933
v 1.933549 1.061255 -0.6353049
v -1.723894 0.9653535 3.012178
v 1.197662 2.62081 -0.1455603
v -0.3690877 1.930033 2.276551
v -0.4129651 -1.93787 0.3822005
v -0.4197628 -2.668655 0.04765391
v -0.4426892 -2.446559 -1.382107
v -0.4345148 -2.203704 -1.379956
v -0.2282498 -2.772972 -2.600029
v -0.2035594 -2.3967 -2.709009
v -0.2282498 -2.772972 -2.600029
v 0.4131446 -1.837646 -1.168677
v 1.265351 -1.915857 -2.384896
v -0.4426892 -2.446559 -1.382107
v -0.4197628 -2.668655 0.04765391
v 0.5667915 -2.239715 0.1956055
v 1.243875 -1.952841 -0.1150498
v 1.265351 -1.915857 -2.384896
v 0.4131446 -1.837646 -1.168677
v 1.67589 -2.402567 -1.064899
v 1.243875 -1.952841 -0.1150498
v 0.7937887 0.0001446489 1.058603
v 0.5127015 0.130449 1.076003
v 0.7205148 0.3253018 1.044988
v 0.5337205 -0.1599162 0.9737451
v 0.951304 0.2331063 0.9118931
v 0.7657907 -0.255338 0.839041
v 0.9755063 -0.05726462 0.8081992
v 0.5609438 -0.889311 0.8517969
v 0.2923279 -0.7788164 0.8740242
v 0.5104239 -0.5938275 0.8518112
v 0.2976615 -1.045322 0.7630818
v 0.7359831 -0.6707585 0.720206
v 0.5243275 -1.127603 0.6277573
v 0.7444963 -0.9380924 0.6071045
vt 0.6009178 0.01168845
vt 0.6009441 0.01165152
vt 0.6010365 0.0116151
vt 0.6010011 0.01165563
vt 0.6010011 0.01165563
vt 0.6010365 0.0116151
vt 0.6009981 0.01149896
vt 0.6009665 0.01155112
vt 0.6007986 0.01161668
vt 0.6008117 0.01157183
vt 0.6009441 0.01165152
vt 0.6009178 0.01168845
vt 0.6009665 0.01155112
vt 0.6009981 0.01149896
vt 0.6008658 0.01141799
vt 0.6008473 0.01147813
vt 0.6008473 0.01147813
vt 0.6008658 0.01141799
vt 0.6007719 0.01145438
vt 0.6007628 0.01151091
vt 0.6007628 0.01151091
vt 0.6007719 0.01145438
vt 0.6008117 0.01157183
vt 0.6007986 0.01161668
vt 0.6009579 0.01156338
vt 0.6008645 0.01162066
vt 0.6009727 0.01163947
vt 0.600872 0.01149996
vt 0.6007999 0.01151251
vt 0.6008145 0.01158943
vt 0.6009014 0.01165297
vt 0.6009727 0.01163947
vt 0.6008645 0.01162066
vt 0.6008145 0.01158943
vt 0.6009727 0.01163947
vt 0.6009994 0.01160838
vt 0.6009829 0.01152389
vt 0.6009579 0.01156338
vt 0.6009579 0.01156338
vt 0.6009829 0.01152389
vt 0.6008876 0.01145347
vt 0.600872 0.01149996
vt 0.6009014 0.01165297
vt 0.6009203 0.01162334
vt 0.6009994 0.01160838
vt 0.6009727 0.01163947
vt 0.600872 0.01149996
vt 0.6008876 0.01145347
vt 0.6008075 0.01146745
vt 0.6007999 0.01151251
vt 0.6007999 0.01151251
vt 0.6008075 0.01146745
vt 0.6008237 0.0115528
vt 0.6008145 0.01158943
vt 0.6008145 0.01158943
vt 0.6008237 0.0115528
vt 0.6009203 0.01162334
vt 0.6009014 0.01165297
vt 0.6009263 0.01166848
vt 0.6009527 0.0116351
vt 0.6010333 0.01162354
vt 0.6009989 0.01165802
vt 0.6009989 0.01165802
vt 0.6010333 0.01162354
vt 0.6009859 0.01152561
vt 0.6009563 0.01156986
vt 0.6008099 0.01159046
vt 0.6008235 0.01154847
vt 0.6009527 0.0116351
vt 0.6009263 0.01166848
vt 0.6009563 0.01156986
vt 0.6009859 0.01152561
vt 0.6008566 0.01143796
vt 0.6008398 0.01149098
vt 0.6008398 0.01149098
vt 0.6008566 0.01143796
vt 0.6007746 0.01144928
vt 0.600766 0.01150111
vt 0.600766 0.01150111
vt 0.6007746 0.01144928
vt 0.6008235 0.01154847
vt 0.6008099 0.01159046
vt 0.5745924 0.03712164
vt 0.573684 0.03945129
vt 0.5745066 0.03927542
vt 0.5752382 0.03692146
vt 0.5748191 0.03613354
vt 0.5759354 0.03553797
vt 0.57622 0.03311376
vt 0.5736949 0.03444405
vt 0.573313 0.03416429
vt 0.5760883 0.03260671
vt 0.5268907 0.03608787
vt 0.5268447 0.03598839
vt 0.5275336 0.03621641
vt 0.5263323 0.03592408
vt 0.5263287 0.03587249
vt 0.5260512 0.03584158
vt 0.5473202 0.03901177
vt 0.5536078 0.04151129
vt 0.5540549 0.03811833
vt 0.5486363 0.03603045
vt 0.5438279 0.03806179
vt 0.5456095 0.03472174
vt 0.5464638 0.03303687
vt 0.5492973 0.03451868
vt 0.5537163 0.03640398
vt 0.5508612 0.03171208
vt 0.5485786 0.0305467
vt 0.5538751 0.03294713
vt 0.5260512 0.03584158
vt 0.525844 0.03598595
vt 0.5263287 0.03587249
vt 0.5255497 0.0359579
vt 0.5256826 0.03604436
vt 0.5254347 0.03601342
vt 0.5519515 0.03647027
vt 0.5488709 0.03778369
vt 0.5459314 0.03791184
vt 0.5490566 0.03655756
vt 0.5488647 0.03554323
vt 0.5517371 0.03547649
vt 0.5512057 0.03451149
vt 0.548284 0.03459057
vt 0.550489 0.03414616
vt 0.5479438 0.03427317
vt 0.52559 0.03542115
vt 0.5257609 0.03480582
vt 0.5255751 0.03481238
vt 0.5257478 0.03547119
vt 0.5255427 0.03561883
vt 0.5256712 0.03569655
vt 0.5262688 0.03573753
vt 0.526143 0.03622569
vt 0.5262519 0.03483571
vt 0.5261933 0.03667571
vt 0.5266742 0.03602104
vt 0.5267574 0.03499974
vt 0.5267163 0.03725217
vt 0.5274255 0.03532322
vt 0.5271296 0.03674479
vt 0.5296925 0.03669704
vt 0.529441 0.03591595
vt 0.5262176 0.03545915
vt 0.526111 0.03637343
vt 0.523553 0.03536095
vt 0.5232758 0.03609885
vt 0.6836653 0.01273532
vt 0.6841692 0.01289661
vt 0.6846515 0.01276269
vt 0.6835237 0.01287409
vt 0.6835389 0.01303444
vt 0.6841903 0.01304649
vt 0.6846373 0.01301338
vt 0.6846515 0.01276269
vt 0.6841692 0.01289661
vt 0.6849226 0.01290976
vt 0.6846373 0.01301338
vt 0.6008579 0.01164261
vt 0.6009178 0.01168845
vt 0.6010011 0.01165563
vt 0.6007986 0.01161668
vt 0.6009665 0.01155112
vt 0.6007628 0.01151091
vt 0.6008473 0.01147813
vt 0.600859 0.01163313
vt 0.6009263 0.01166848
vt 0.6009989 0.01165802
vt 0.6008099 0.01159046
vt 0.6009563 0.01156986
vt 0.600766 0.01150111
vt 0.6008398 0.01149098
vn -0.4500781 0.5871022 0.6728601
vn -0.4500781 0.5871022 0.6728601
vn -0.4500781 0.5871022 0.6728601
vn -0.4500781 0.5871022 0.6728601
vn 0.5243016 0.7610673 0.3819481
vn 0.5243016 0.7610673 0.3819481
vn 0.5243016 0.7610673 0.3819481
vn 0.5243016 0.7610673 0.3819481
vn -0.8374324 -0.2344808 0.4936859
vn -0.8374324 -0.2344808 0.4936859
vn -0.8374324 -0.2344808 0.4936859
vn -0.8374324 -0.2344808 0.4936859
vn 0.9931992 0.1025009 -0.05521653
vn 0.9931992 0.1025009 -0.05521653
vn 0.9931992 0.1025009 -0.05521653
vn 0.9931992 0.1025009 -0.05521653
vn 0.6533616 -0.7254575 -0.2164024
vn 0.6533616 -0.7254575 -0.2164024
vn 0.6533616 -0.7254575 -0.2164023
vn 0.6533616 -0.7254575 -0.2164024
vn -0.3409612 -0.936974 0.07632226
vn -0.3409612 -0.936974 0.07632226
vn -0.3409612 -0.936974 0.07632226
vn -0.3409612 -0.936974 0.07632226
vn 0.7178338 -0.03541987 0.6953129
vn 0.6451867 -0.3927112 0.6553716
vn 0.7178339 -0.03541987 0.6953129
vn 0.6421796 -0.4011897 0.6531863
vn 0.4841709 -0.6992724 0.5259246
vn 0.4841709 -0.6992724 0.5259246
vn -0.005539651 -0.2894439 0.957179
vn -0.005539651 -0.2894439 0.957179
vn -0.005539651 -0.2894439 0.957179
vn -0.005539651 -0.2894439 0.957179
vn 0.4591004 0.7461711 0.4821364
vn 0.4591003 0.7461711 0.4821364
vn 0.4591004 0.7461711 0.4821364
vn 0.4591003 0.7461711 0.4821364
vn 0.981235 0.1878371 -0.04353303
vn 0.981235 0.1878371 -0.04353303
vn 0.981235 0.1878371 -0.04353303
vn 0.981235 0.1878371 -0.04353303
vn -0.5159425 0.4600214 0.7226229
vn -0.5159425 0.4600214 0.7226228
vn -0.5159425 0.4600214 0.7226229
vn -0.5159425 0.4600214 0.7226229
vn 0.7292305 -0.5862113 -0.3529577
vn 0.7292305 -0.5862113 -0.3529577
vn 0.7292305 -0.5862114 -0.3529577
vn 0.7292305 -0.5862114 -0.3529577
vn -0.3141166 -0.9399598 -0.1334407
vn -0.3141166 -0.9399598 -0.1334407
vn -0.3141166 -0.9399598 -0.1334407
vn -0.3141166 -0.9399598 -0.1334407
vn -0.8402321 -0.3597181 0.4057252
vn -0.840232 -0.3597181 0.4057252
vn -0.8402321 -0.3597181 0.4057252
vn -0.8402321 -0.3597181 0.4057252
vn -0.4531593 0.6108665 0.6492216
vn -0.4531593 0.6108665 0.6492217
vn -0.4531593 0.6108665 0.6492215
vn -0.4531593 0.6108665 0.6492217
vn 0.5000564 0.7615513 0.4122902
vn 0.5000564 0.7615513 0.4122902
vn 0.5000564 0.7615513 0.4122902
vn 0.5000564 0.7615513 0.4122902
vn -0.8470667 -0.2187666 0.4843751
vn -0.8470667 -0.2187666 0.4843751
vn -0.8470667 -0.2187666 0.4843751
vn -0.8470667 -0.2187666 0.4843751
vn 0.9989311 0.04089662 -0.02154067
vn 0.9989311 0.04089662 -0.02154068
vn 0.9989311 0.04089662 -0.02154068
vn 0.9989311 0.04089662 -0.02154068
vn 0.6334207 -0.7535971 -0.1756972
vn 0.6334207 -0.7535971 -0.1756972
vn 0.6334206 -0.7535971 -0.1756972
vn 0.6334207 -0.7535971 -0.1756972
vn -0.3005389 -0.9507912 0.07531627
vn -0.3005389 -0.9507912 0.07531626
vn -0.3005389 -0.9507912 0.07531626
vn -0.3005388 -0.9507912 0.07531625
vn 0.2490295 -0.6597821 0.7089936
vn 0.1508941 -0.6055154 0.7813975
vn 0.3900472 -0.4400751 0.8088245
vn 0.4276873 -0.4800074 0.7659481
vn 0.268751 -0.6292089 0.7292935
vn 0.3980581 -0.4379437 0.8060738
vn 0.3073756 -0.359742 0.8809687
vn 0.1078481 -0.4533631 0.8847772
vn 0.05422708 -0.3917639 0.9184664
vn 0.2621081 -0.312185 0.9131483
vn 0.09810986 0.2199695 -0.9705606
vn 0.1041863 0.2021497 -0.973797
vn 0.09810986 0.2199695 -0.9705606
vn 0.106929 0.1940454 -0.9751474
vn 0.1580727 0.05714783 -0.9857723
vn 0.1812232 -0.006754333 -0.9834187
vn -0.8592762 -0.4940854 -0.1323781
vn -0.8191406 -0.5625517 -0.1120013
vn -0.8262317 -0.554893 -0.09713344
vn -0.8774019 -0.4677909 -0.1064777
vn -0.9029502 -0.3997962 -0.1576193
vn -0.9129094 -0.3864801 -0.1312613
vn -0.9668832 -0.2211409 -0.1274111
vn -0.9574094 -0.2773168 -0.08038982
vn -0.9025582 -0.4287728 -0.03927576
vn -0.9959085 -0.04116522 -0.08044604
vn -0.9870471 -0.03071006 -0.157464
vn -0.9963846 -0.08453631 -0.008436943
vn 0.1812232 -0.006754333 -0.9834187
vn 0.2488963 -0.1877581 -0.9501565
vn 0.1580727 0.05714783 -0.9857723
vn 0.2717148 -0.2320104 -0.9339926
vn 0.2908549 -0.2697812 -0.9179442
vn 0.290855 -0.2697812 -0.9179442
vn 0.9640349 0.1957245 0.1798021
vn 0.9065126 0.3208486 0.2743924
vn 0.8819941 0.4453182 -0.1542015
vn 0.9516151 0.2383574 -0.1939445
vn 0.9667572 -0.0214431 -0.2547953
vn 0.994837 -0.03244469 0.09615978
vn 0.9735179 -0.2105079 0.08915946
vn 0.9361991 -0.1419261 -0.3215402
vn 0.9575422 -0.2837378 0.0510472
vn 0.8876661 -0.2534904 -0.3844368
vn 0.6679134 -0.2351491 0.7061136
vn 0.9735179 -0.2105079 0.08915946
vn 0.9575422 -0.2837378 0.0510472
vn 0.7176317 -0.2162121 0.6620098
vn 0.2621081 -0.312185 0.9131483
vn 0.3073756 -0.359742 0.8809687
vn 0.7284383 -0.1619505 0.6656949
vn 0.3980581 -0.4379437 0.8060738
vn 0.994837 -0.03244469 0.09615978
vn 0.4276873 -0.4800074 0.7659481
vn 0.7294688 -0.04758494 0.682357
vn 0.9640349 0.1957245 0.1798021
vn 0.3900472 -0.4400751 0.8088245
vn 0.9065126 0.3208486 0.2743924
vn 0.6769495 -0.1119544 0.7274652
vn -0.9963846 -0.08453631 -0.008436943
vn -0.9998487 0.0106077 0.01378649
vn -0.9962559 0.01645069 -0.0848745
vn -0.9959085 -0.04116522 -0.08044604
vn -0.9840553 0.02177716 -0.1765248
vn -0.9870471 -0.03071006 -0.157464
vn 0.4579601 -0.8241206 0.3333132
vn 0.479131 -0.877386 0.02504633
vn 0.4269958 -0.8326159 0.3527397
vn 0.5575675 -0.8226482 0.1112135
vn 0.4940659 -0.8373993 -0.2337976
vn 0.3450602 -0.8890491 -0.3008738
vn 0.2523787 -0.9200845 -0.2995824
vn -0.384568 -0.8984964 -0.2116875
vn -0.4072423 -0.9131844 -0.01574519
vn -0.4090709 -0.9124417 0.01054809
vn -0.4131286 -0.8813127 0.2293747
vn 0.3894559 -0.2714359 0.8801401
vn -0.005175601 -0.1433163 0.9896634
vn 0.3700376 -0.07566571 0.9259303
vn 0.2238233 -0.4262165 0.8764945
vn 0.6810194 0.0006850052 0.7322651
vn 0.3972777 -0.6227903 0.6740197
vn 0.5661531 -0.3484808 0.7470152
vn 0.373107 -0.3336836 0.8657057
vn 0.00156778 -0.1935464 0.9810899
vn 0.3707449 -0.1437525 0.917542
vn 0.2210449 -0.4760215 0.8512008
vn 0.6612553 -0.0805387 0.745825
vn 0.383506 -0.6632048 0.642715
vn 0.5477021 -0.4039327 0.7327079
g Color_Boss_42_0
f 3/3/3 2/2/2 1/1/1
f 4/4/4 3/3/3 1/1/1
f 7/7/7 6/6/6 5/5/5
f 8/8/8 7/7/7 5/5/5
f 11/11/11 10/10/10 9/9/9
f 12/12/12 11/11/11 9/9/9
f 15/15/15 14/14/14 13/13/13
f 16/16/16 15/15/15 13/13/13
f 19/19/19 18/18/18 17/17/17
f 20/20/20 19/19/19 17/17/17
f 23/23/23 22/22/22 21/21/21
f 24/24/24 23/23/23 21/21/21
f 27/27/27 26/26/26 25/25/25
f 26/26/26 28/28/28 25/25/25
f 29/29/29 28/28/28 26/26/26
f 30/30/30 29/29/29 26/26/26
f 33/33/33 32/32/32 31/31/31
f 34/34/34 33/33/33 31/31/31
f 37/37/37 36/36/36 35/35/35
f 38/38/38 37/37/37 35/35/35
f 41/41/41 40/40/40 39/39/39
f 42/42/42 41/41/41 39/39/39
f 45/45/45 44/44/44 43/43/43
f 46/46/46 45/45/45 43/43/43
f 49/49/49 48/48/48 47/47/47
f 50/50/50 49/49/49 47/47/47
f 53/53/53 52/52/52 51/51/51
f 54/54/54 53/53/53 51/51/51
f 57/57/57 56/56/56 55/55/55
f 58/58/58 57/57/57 55/55/55
f 61/61/61 60/60/60 59/59/59
f 62/62/62 61/61/61 59/59/59
f 65/65/65 64/64/64 63/63/63
f 66/66/66 65/65/65 63/63/63
f 69/69/69 68/68/68 67/67/67
f 70/70/70 69/69/69 67/67/67
f 73/73/73 72/72/72 71/71/71
f 74/74/74 73/73/73 71/71/71
f 77/77/77 76/76/76 75/75/75
f 78/78/78 77/77/77 75/75/75
f 81/81/81 80/80/80 79/79/79
f 82/82/82 81/81/81 79/79/79
f 85/85/85 84/84/84 83/83/83
f 86/86/86 85/85/85 83/83/83
f 86/86/86 83/83/83 87/87/87
f 88/88/88 86/86/86 87/87/87
f 88/88/88 87/87/87 89/89/89
f 87/87/87 90/90/90 89/89/89
f 89/89/89 90/90/90 91/91/91
f 92/92/92 89/89/89 91/91/91
f 95/95/95 94/94/94 93/93/93
f 94/94/94 96/96/96 93/93/93
f 94/94/94 97/97/97 96/96/96
f 97/97/97 98/98/98 96/96/96
f 101/101/101 100/100/100 99/99/99
f 102/102/102 101/101/101 99/99/99
f 102/102/102 99/99/99 103/103/103
f 104/104/104 102/102/102 103/103/103
f 104/104/104 105/105/105 102/102/102
f 102/102/102 106/106/106 101/101/101
f 105/105/105 106/106/106 102/102/102
f 106/106/106 107/107/107 101/101/101
f 106/106/106 105/105/105 108/108/108
f 106/106/106 108/108/108 107/107/107
f 105/105/105 109/109/109 108/108/108
f 108/108/108 110/110/110 107/107/107
f 113/113/113 112/112/112 111/111/111
f 112/112/112 114/114/114 111/111/111
f 112/112/112 115/115/115 114/114/114
f 115/115/115 116/116/116 114/114/114
f 119/119/119 118/118/118 117/117/117
f 120/120/120 119/119/119 117/117/117
f 120/120/120 117/117/117 121/121/121
f 117/117/117 122/122/122 121/121/121
f 122/122/122 123/123/123 121/121/121
f 123/123/123 124/124/124 121/121/121
f 123/123/123 125/125/125 124/124/124
f 125/125/125 126/126/126 124/124/124
f 129/129/129 128/128/128 127/127/127
f 128/128/128 130/130/130 127/127/127
f 131/131/131 127/127/127 130/130/130
f 132/132/132 131/131/131 130/130/130
f 133/133/133 130/130/130 128/128/128
f 132/132/132 130/130/130 133/133/133
f 134/134/134 132/132/132 133/133/133
f 135/135/135 133/133/133 128/128/128
f 134/134/134 133/133/133 136/136/136
f 137/137/137 133/133/133 135/135/135
f 133/133/133 137/137/137 136/136/136
f 138/138/138 137/137/137 135/135/135
f 136/136/136 137/137/137 139/139/139
f 138/138/138 140/140/140 137/137/137
f 137/137/137 141/141/141 139/139/139
f 140/140/140 141/141/141 137/137/137
f 144/144/144 143/143/143 142/142/142
f 145/145/145 144/144/144 142/142/142
f 144/144/144 145/145/145 146/146/146
f 145/145/145 147/147/147 146/146/146
f 150/150/150 149/149/149 148/148/148
f 148/148/148 149/149/149 151/151/151
f 151/151/151 149/149/149 152/152/152
f 152/152/152 149/149/149 153/153/153
f 153/153/153 149/149/149 154/154/154
f 157/157/157 156/156/156 155/155/155
f 158/158/158 156/156/156 157/157/157
f 161/161/161 160/160/160 159/159/159
f 160/160/160 162/162/162 159/159/159
f 163/163/163 161/161/161 159/159/159
f 162/162/162 164/164/164 159/159/159
f 165/165/165 163/163/163 159/159/159
f 164/164/164 165/165/165 159/159/159
f 168/168/168 167/167/167 166/166/166
f 167/167/167 169/169/169 166/166/166
f 170/170/170 168/168/168 166/166/166
f 169/169/169 171/171/171 166/166/166
f 172/172/172 170/170/170 166/166/166
f 171/171/171 172/172/172 166/166/166
