g Color_02
v -12.98742 -7.185772 7.598271
v -13.22583 -5.879372 7.950556
v -11.85476 -4.681751 8.413033
v -10.54662 -8.960587 7.027363
v -10.94802 -7.745853 5.911306
v -9.944233 -6.932972 7.166946
v -7.989689 -11.82637 6.226248
v -8.585888 -11.53172 6.219461
v -8.515541 -10.83511 6.22823
v -7.685127 -14.76231 5.298985
v -8.220482 -14.49768 5.275041
v -8.156311 -13.87082 5.27313
v -14.78658 -4.869442 3.719554
v -11.49247 -3.217583 3.714954
v -11.85476 -4.681751 8.413033
v -13.22583 -5.879372 7.950556
v -13.98723 -8.231499 3.414161
v -14.78658 -4.869442 3.719554
v -13.22583 -5.879372 7.950556
v -12.98742 -7.185772 7.598271
v -10.67385 -8.971039 3.592827
v -13.98723 -8.231499 3.414161
v -12.98742 -7.185772 7.598271
v -11.42955 -7.780655 7.070552
v -11.42955 -7.780655 7.070552
v -12.98742 -7.185772 7.598271
v -11.85476 -4.681751 8.413033
v -10.41375 -5.547939 7.617652
v -8.976154 -5.849747 3.663104
v -10.67385 -8.971039 3.592827
v -11.42955 -7.780655 7.070552
v -10.41375 -5.547939 7.617652
v -11.49247 -3.217583 3.714954
v -8.976154 -5.849747 3.663104
v -10.41375 -5.547939 7.617652
v -11.85476 -4.681751 8.413033
v -12.66129 -6.357586 3.719554
v -9.367184 -4.705727 3.714954
v -9.944233 -6.932972 7.166946
v -10.94802 -7.745853 5.911306
v -11.86194 -9.719643 3.414161
v -12.66129 -6.357586 3.719554
v -10.94802 -7.745853 5.911306
v -10.54662 -8.960587 7.027363
v -8.548565 -10.45918 3.592827
v -11.86194 -9.719643 3.414161
v -10.54662 -8.960587 7.027363
v -9.113308 -9.107441 6.807829
v -9.113308 -9.107441 6.807829
v -10.54662 -8.960587 7.027363
v -9.944233 -6.932972 7.166946
v -8.763489 -7.642723 6.955649
v -6.850864 -7.337887 3.663104
v -8.548565 -10.45918 3.592827
v -9.113308 -9.107441 6.807829
v -8.763489 -7.642723 6.955649
v -9.367184 -4.705727 3.714954
v -6.850864 -7.337887 3.663104
v -8.763489 -7.642723 6.955649
v -9.944233 -6.932972 7.166946
v -9.196926 -11.77525 4.064168
v -8.676048 -10.26538 4.046401
v -8.515541 -10.83511 6.22823
v -8.585888 -11.53172 6.219461
v -7.923264 -12.57797 4.050197
v -9.196926 -11.77525 4.064168
v -8.585888 -11.53172 6.219461
v -7.989689 -11.82637 6.226248
v -6.683014 -11.79793 4.213099
v -7.923264 -12.57797 4.050197
v -7.989689 -11.82637 6.226248
v -7.39933 -11.34894 6.312962
v -7.39933 -11.34894 6.312962
v -7.989689 -11.82637 6.226248
v -8.515541 -10.83511 6.22823
v -7.797985 -10.67073 6.153291
v -7.102036 -10.31668 4.154842
v -6.683014 -11.79793 4.213099
v -7.39933 -11.34894 6.312962
v -7.797985 -10.67073 6.153291
v -8.676048 -10.26538 4.046401
v -7.102036 -10.31668 4.154842
v -7.797985 -10.67073 6.153291
v -8.515541 -10.83511 6.22823
v -8.828396 -14.69003 4.020777
v -8.35944 -13.33044 4.005526
v -8.156311 -13.87082 5.27313
v -8.220482 -14.49768 5.275041
v -7.685699 -15.4109 4.057745
v -8.828396 -14.69003 4.020777
v -8.220482 -14.49768 5.275041
v -7.685127 -14.76231 5.298985
v -6.566471 -14.70965 4.175443
v -7.685699 -15.4109 4.057745
v -7.685127 -14.76231 5.298985
v -7.15202 -14.33312 5.358934
v -7.15202 -14.33312 5.358934
v -7.685127 -14.76231 5.298985
v -8.156311 -13.87082 5.27313
v -7.513706 -13.72115 5.247491
v -6.942829 -13.3763 4.111583
v -6.566471 -14.70965 4.175443
v -7.15202 -14.33312 5.358934
v -7.513706 -13.72115 5.247491
v -8.35944 -13.33044 4.005526
v -6.942829 -13.3763 4.111583
v -7.513706 -13.72115 5.247491
v -8.156311 -13.87082 5.27313
vt 0.01587227 0.01400581
vt 0.01666734 0.01271007
vt 0.01551683 0.01271007
vt 0.0156219 0.01463173
vt 0.01641697 0.01333598
vt 0.01526648 0.01333598
vt 0.01569107 0.01314687
vt 0.01589963 0.01291286
vt 0.01559779 0.01291286
vt 0.01569107 0.01314687
vt 0.01589963 0.01291286
vt 0.01559779 0.01291286
vt 0.01592536 0.01447853
vt 0.01482716 0.01268839
vt 0.01482716 0.01268839
vt 0.01592536 0.01447853
vt 0.01479807 0.01423234
vt 0.01595445 0.01293458
vt 0.01595445 0.01293458
vt 0.01479807 0.01423234
vt 0.01550384 0.01350786
vt 0.01524869 0.01344029
vt 0.01524869 0.01344029
vt 0.01550384 0.01350786
vt 0.01458591 0.01351086
vt 0.01587227 0.01400581
vt 0.01551683 0.01271007
vt 0.01458591 0.01190927
vt 0.01550384 0.01372664
vt 0.01550384 0.01350786
vt 0.01550384 0.01350786
vt 0.01550384 0.01372664
vt 0.01627456 0.01283066
vt 0.01447797 0.01433626
vt 0.01447797 0.01433626
vt 0.01627456 0.01283066
vt 0.01592536 0.01447853
vt 0.01482716 0.01268839
vt 0.01482716 0.01268839
vt 0.01592536 0.01447853
vt 0.01479807 0.01423234
vt 0.01595445 0.01293458
vt 0.01595445 0.01293458
vt 0.01479807 0.01423234
vt 0.01550384 0.01350786
vt 0.01524869 0.01344029
vt 0.01524869 0.01344029
vt 0.01550384 0.01350786
vt 0.01458591 0.01351086
vt 0.01587227 0.01400581
vt 0.01551683 0.01271007
vt 0.01458591 0.01190927
vt 0.01550384 0.01372664
vt 0.01550384 0.01350786
vt 0.01550384 0.01350786
vt 0.01550384 0.01372664
vt 0.01627456 0.01283066
vt 0.01447797 0.01433626
vt 0.01447797 0.01433626
vt 0.01627456 0.01283066
vt 0.01543315 0.01364728
vt 0.01531936 0.01351964
vt 0.01531936 0.01351964
vt 0.01543315 0.01364728
vt 0.01531939 0.01364728
vt 0.01543313 0.01351964
vt 0.01543313 0.01351964
vt 0.01531939 0.01364728
vt 0.01531492 0.01361978
vt 0.01543759 0.01365233
vt 0.01543759 0.01365233
vt 0.01531492 0.01361978
vt 0.01535362 0.01305746
vt 0.01569107 0.01314687
vt 0.01559779 0.01291286
vt 0.01535362 0.01276823
vt 0.01531492 0.0135146
vt 0.01531492 0.01361978
vt 0.01531492 0.01361978
vt 0.01531492 0.0135146
vt 0.01552965 0.01354284
vt 0.01522288 0.01362408
vt 0.01522288 0.01362408
vt 0.01552965 0.01354284
vt 0.01543315 0.01364728
vt 0.01531936 0.01351964
vt 0.01531936 0.01351964
vt 0.01543315 0.01364728
vt 0.01531939 0.01364728
vt 0.01543313 0.01351964
vt 0.01543313 0.01351964
vt 0.01531939 0.01364728
vt 0.01531492 0.01361978
vt 0.01543759 0.01365233
vt 0.01543759 0.01365233
vt 0.01531492 0.01361978
vt 0.01535362 0.01305746
vt 0.01569107 0.01314687
vt 0.01559779 0.01291286
vt 0.01535362 0.01276823
vt 0.01531492 0.0135146
vt 0.01531492 0.01361978
vt 0.01531492 0.01361978
vt 0.01531492 0.0135146
vt 0.01552965 0.01354284
vt 0.01522288 0.01362408
vt 0.01522288 0.01362408
vt 0.01552965 0.01354284
vn -0.08409703 -0.2737166 0.9581268
vn -0.08409704 -0.2737166 0.9581268
vn -0.08409704 -0.2737166 0.9581268
vn -0.8253683 0.2091063 0.5244442
vn -0.8253683 0.2091063 0.5244442
vn -0.8253683 0.2091063 0.5244442
vn -0.01676322 -0.01089154 0.9998001
vn -0.01676322 -0.01089154 0.9998001
vn -0.01676322 -0.01089154 0.9998001
vn -0.04110165 0.007252051 0.9991286
vn -0.04110165 0.00725205 0.9991286
vn -0.04110165 0.007252051 0.9991286
vn -0.519227 0.8031245 0.2922231
vn -0.519227 0.8031245 0.2922231
vn -0.519227 0.8031245 0.2922231
vn -0.519227 0.8031245 0.2922231
vn -0.9270118 -0.2459531 0.2831187
vn -0.9270118 -0.2459531 0.2831187
vn -0.9270118 -0.2459531 0.2831187
vn -0.9270118 -0.2459531 0.2831187
vn -0.2350359 -0.9310215 0.2792079
vn -0.2350359 -0.9310215 0.2792079
vn -0.2350359 -0.9310215 0.279208
vn -0.2350359 -0.9310215 0.279208
vn 0.2232525 -0.3615269 0.9052384
vn 0.2232525 -0.3615269 0.9052384
vn 0.2232525 -0.3615269 0.9052384
vn 0.2232525 -0.3615269 0.9052384
vn 0.8243399 -0.4564058 0.3348992
vn 0.8243399 -0.4564058 0.3348991
vn 0.8243399 -0.4564058 0.3348992
vn 0.8243399 -0.4564058 0.3348992
vn 0.6715707 0.7029758 0.2341323
vn 0.6715707 0.7029758 0.2341323
vn 0.6715707 0.7029758 0.2341323
vn 0.6715707 0.7029758 0.2341323
vn -0.5326717 0.6598532 0.5299569
vn -0.5326717 0.6598532 0.5299569
vn -0.5326717 0.6598532 0.5299569
vn -0.5326717 0.6598532 0.5299569
vn -0.8828577 -0.1529738 0.4440286
vn -0.8828577 -0.1529738 0.4440286
vn -0.8828577 -0.1529738 0.4440286
vn -0.8828577 -0.1529738 0.4440286
vn -0.1720685 -0.9356474 0.3081499
vn -0.1720685 -0.9356474 0.3081499
vn -0.1720685 -0.9356474 0.3081499
vn -0.1720685 -0.9356474 0.3081499
vn 0.1247041 -0.1151034 0.9854949
vn 0.1247041 -0.1151034 0.9854949
vn 0.1247041 -0.1151034 0.9854949
vn 0.1247041 -0.1151034 0.9854949
vn 0.8370875 -0.3918885 0.3817171
vn 0.8370875 -0.3918885 0.3817171
vn 0.8370875 -0.3918885 0.3817171
vn 0.8370875 -0.3918885 0.3817171
vn 0.6113899 0.6396824 0.465842
vn 0.6113899 0.6396824 0.465842
vn 0.6113899 0.6396824 0.465842
vn 0.6113899 0.6396824 0.465842
vn -0.9485268 0.2549252 0.1879099
vn -0.9485268 0.2549252 0.1879099
vn -0.9485268 0.2549252 0.1879099
vn -0.9485268 0.2549252 0.1879099
vn -0.4889231 -0.8347534 0.2532606
vn -0.4889231 -0.8347534 0.2532606
vn -0.4889231 -0.8347534 0.2532606
vn -0.4889232 -0.8347534 0.2532606
vn 0.5070292 -0.8012105 0.3177785
vn 0.5070293 -0.8012105 0.3177785
vn 0.5070292 -0.8012105 0.3177785
vn 0.5070293 -0.8012105 0.3177785
vn -0.04337704 0.07011199 0.9965956
vn -0.04337705 0.070112 0.9965956
vn -0.04337705 0.070112 0.9965956
vn -0.04337705 0.070112 0.9965956
vn 0.8830642 0.3642279 0.2958644
vn 0.8830642 0.3642279 0.2958643
vn 0.8830642 0.3642279 0.2958643
vn 0.8830642 0.3642279 0.2958644
vn -0.051251 0.9765218 0.209233
vn -0.051251 0.9765218 0.2092329
vn -0.051251 0.9765218 0.209233
vn -0.051251 0.9765218 0.209233
vn -0.9118705 0.2475576 0.3274252
vn -0.9118705 0.2475576 0.3274252
vn -0.9118705 0.2475576 0.3274252
vn -0.9118705 0.2475576 0.3274252
vn -0.4781058 -0.7904275 0.382935
vn -0.4781058 -0.7904275 0.382935
vn -0.4781058 -0.7904275 0.382935
vn -0.4781058 -0.7904275 0.382935
vn 0.4752581 -0.7634144 0.4374106
vn 0.4752581 -0.7634144 0.4374106
vn 0.4752582 -0.7634144 0.4374106
vn 0.4752581 -0.7634144 0.4374106
vn -0.05805581 0.05884742 0.9965773
vn -0.0580558 0.05884742 0.9965773
vn -0.05805581 0.05884741 0.9965773
vn -0.05805581 0.05884742 0.9965773
vn 0.8384547 0.3553411 0.4131905
vn 0.8384547 0.3553411 0.4131905
vn 0.8384547 0.3553411 0.4131905
vn 0.8384547 0.3553411 0.4131905
vn -0.06052004 0.9396258 0.3368096
vn -0.06052003 0.9396258 0.3368096
vn -0.06052003 0.9396258 0.3368095
vn -0.06052004 0.9396258 0.3368096
g Color_02_0
f 3/3/3 2/2/2 1/1/1
f 6/6/6 5/5/5 4/4/4
f 9/9/9 8/8/8 7/7/7
f 12/12/12 11/11/11 10/10/10
f 15/15/15 14/14/14 13/13/13
f 16/16/16 15/15/15 13/13/13
f 19/19/19 18/18/18 17/17/17
f 20/20/20 19/19/19 17/17/17
f 23/23/23 22/22/22 21/21/21
f 24/24/24 23/23/23 21/21/21
f 27/27/27 26/26/26 25/25/25
f 28/28/28 27/27/27 25/25/25
f 31/31/31 30/30/30 29/29/29
f 32/32/32 31/31/31 29/29/29
f 35/35/35 34/34/34 33/33/33
f 36/36/36 35/35/35 33/33/33
f 39/39/39 38/38/38 37/37/37
f 40/40/40 39/39/39 37/37/37
f 43/43/43 42/42/42 41/41/41
f 44/44/44 43/43/43 41/41/41
f 47/47/47 46/46/46 45/45/45
f 48/48/48 47/47/47 45/45/45
f 51/51/51 50/50/50 49/49/49
f 52/52/52 51/51/51 49/49/49
f 55/55/55 54/54/54 53/53/53
f 56/56/56 55/55/55 53/53/53
f 59/59/59 58/58/58 57/57/57
f 60/60/60 59/59/59 57/57/57
f 63/63/63 62/62/62 61/61/61
f 64/64/64 63/63/63 61/61/61
f 67/67/67 66/66/66 65/65/65
f 68/68/68 67/67/67 65/65/65
f 71/71/71 70/70/70 69/69/69
f 72/72/72 71/71/71 69/69/69
f 75/75/75 74/74/74 73/73/73
f 76/76/76 75/75/75 73/73/73
f 79/79/79 78/78/78 77/77/77
f 80/80/80 79/79/79 77/77/77
f 83/83/83 82/82/82 81/81/81
f 84/84/84 83/83/83 81/81/81
f 87/87/87 86/86/86 85/85/85
f 88/88/88 87/87/87 85/85/85
f 91/91/91 90/90/90 89/89/89
f 92/92/92 91/91/91 89/89/89
f 95/95/95 94/94/94 93/93/93
f 96/96/96 95/95/95 93/93/93
f 99/99/99 98/98/98 97/97/97
f 100/100/100 99/99/99 97/97/97
f 103/103/103 102/102/102 101/101/101
f 104/104/104 103/103/103 101/101/101
f 107/107/107 106/106/106 105/105/105
f 108/108/108 107/107/107 105/105/105
