g Color_02
v 5.569057 1.920828 2.61504
v 5.569057 -1.920755 2.615039
v 5.37444 -1.920755 2.850785
v 4.752898 1.920827 4.040432
v 4.558281 -1.920756 4.276179
v 4.55828 1.920827 4.27618
v 5.848425 -1.14319 1.425391
v 6.387507 -0.9040243 1.42539
v 6.387506 -1.143189 0.3819544
v 5.848425 -1.14319 1.425391
v 6.387506 -1.143189 0.3819544
v 6.387507 -1.395849 1.42539
v 0.9687223 1.920825 5.701576
v 0.9687265 1.920824 9.401779
v -6.387504 1.920821 9.401788
v -6.387516 1.920824 1.575703E-05
v 3.820102 1.920827 4.27618
v 3.820107 1.920826 5.465827
v 3.625488 1.920826 5.701573
v 4.752895 1.920828 2.850787
v 4.752898 1.920827 4.040432
v 4.55828 1.920827 4.27618
v 5.569052 1.920828 1.425393
v 5.569057 1.920828 2.61504
v 6.36565 1.920829 -9.513897E-07
v 6.365653 1.920828 1.425392
v 4.752897 -1.920755 2.850785
v 4.752895 1.920828 2.850787
v 5.569057 1.920828 2.61504
v 5.37444 -1.920755 2.850785
v 0.9687223 1.920825 5.701576
v 0.9687243 1.135422 5.710366
v 0.9687288 1.135422 7.834891
v 0.9687265 1.920824 9.401779
v 0.9687286 -1.920759 9.401777
v 0.968729 -1.135356 7.834891
v 0.9687244 -1.920758 5.701575
v 0.9687244 -1.135355 5.710366
v 3.625488 1.920826 5.701573
v 3.820107 1.920826 5.465827
v 3.820108 -1.920757 5.465826
v 3.62549 -1.920757 5.701572
v 3.625488 1.920826 5.701573
v 0.9687243 1.135422 5.710366
v 0.9687223 1.920825 5.701576
v 0.9687244 -1.135355 5.710366
v 3.62549 -1.920757 5.701572
v 0.9687244 -1.920758 5.701575
v -6.387508 -1.135359 5.710374
v -6.387509 1.135419 5.710375
v 0.9687243 1.135422 5.710366
v -6.387509 1.135419 5.710375
v -6.387506 1.135419 7.8349
v 0.9687288 1.135422 7.834891
v 6.365653 1.920828 1.425392
v 6.36565 1.920829 -9.513897E-07
v 6.36565 1.920829 -9.513897E-07
v 6.387507 -0.9040243 1.42539
v 6.387506 -1.143189 0.3819544
v 6.36565 -1.920754 -2.129713E-06
v 6.387507 -1.395849 1.42539
v 6.365653 -1.920754 1.425391
v 4.752895 1.920828 2.850787
v 4.752897 -1.920755 2.850785
v 4.558281 -1.920756 4.276179
v 4.752898 1.920827 4.040432
v 3.820102 1.920827 4.27618
v 3.820104 -1.920757 4.276178
v 3.820108 -1.920757 5.465826
v 3.820107 1.920826 5.465827
v -6.387503 -1.920764 9.401787
v -6.387504 1.920821 9.401788
v 0.9687265 1.920824 9.401779
v 0.9687286 -1.920759 9.401777
v 0.9687244 -1.920758 5.701575
v -6.387503 -1.920764 9.401787
v 0.9687286 -1.920759 9.401777
v -6.387515 -1.92076 1.539827E-05
v 3.820104 -1.920757 4.276178
v 3.820108 -1.920757 5.465826
v 3.62549 -1.920757 5.701572
v 4.752897 -1.920755 2.850785
v 4.558281 -1.920756 4.276179
v 5.569052 -1.920755 1.425392
v 6.36565 -1.920754 -2.129713E-06
v 6.365653 -1.920754 1.425391
v 5.569057 -1.920755 2.615039
v 5.37444 -1.920755 2.850785
v 4.558281 -1.920756 4.276179
v 3.820104 -1.920757 4.276178
v 3.820102 1.920827 4.27618
v 4.55828 1.920827 4.27618
v 0.9687244 -1.135355 5.710366
v 0.968729 -1.135356 7.834891
v -6.387505 -1.135359 7.834899
v -6.387508 -1.135359 5.710374
v 5.569057 1.920828 2.61504
v 5.569052 1.920828 1.425393
v 5.569052 -1.920755 1.425392
v 5.569057 -1.920755 2.615039
v 6.365653 -1.920754 1.425391
v 5.848425 -1.14319 1.425391
v 6.387507 -1.395849 1.42539
v 5.569052 -1.920755 1.425392
v 5.569052 1.920828 1.425393
v 6.387507 -0.9040243 1.42539
v 6.365653 1.920828 1.425392
v -6.387501 -0.03750231 11.52349
v 0.6407368 -0.03749952 11.58734
v 0.6528112 -0.4326053 11.47828
v -6.387501 -0.4326085 11.41443
v 1.35483 -2.55257 9.105072
v -6.387504 -2.552573 9.105081
v 1.216847 -2.232316 9.609097
v 0.6528112 -0.4326053 11.47828
v -6.387501 -0.4326085 11.41443
v 1.35483 -2.55257 9.105072
v 1.216847 -2.232316 9.609097
v 1.354828 2.552567 9.105075
v 0.8964728 1.224773 10.56819
v 0.6528112 -0.4326053 11.47828
v 0.6407368 -0.03749952 11.58734
v 1.354828 2.552567 9.105075
v 0.8964728 1.224773 10.56819
v -6.387505 2.552564 9.105083
v -6.387501 -0.03750231 11.52349
v 0.6407368 -0.03749952 11.58734
v 1.35483 -2.55257 9.105072
v 1.242035 -2.434786 8.816503
v -6.387504 -2.43479 8.816512
v -6.387504 -2.552573 9.105081
v 1.354828 2.552567 9.105075
v 1.242033 2.434785 8.816505
v 1.242035 -2.434786 8.816503
v 1.35483 -2.55257 9.105072
v -6.387505 2.552564 9.105083
v -6.387506 2.434782 8.816515
v 1.242033 2.434785 8.816505
v 1.354828 2.552567 9.105075
vt 0.4618936 0.9597802
vt 0.4618936 0.9584751
vt 0.4618329 0.9584751
vt 0.4616389 0.9597802
vt 0.4615782 0.9584751
vt 0.4615782 0.9597802
vt 0.4619808 0.9587392
vt 0.4621491 0.9588205
vt 0.4621491 0.9587392
vt 0.4619808 0.9587392
vt 0.4621491 0.9587392
vt 0.4621491 0.9586534
vt 0.4620818 0.9677936
vt 0.4620818 0.9677936
vt 0.459786 0.9677936
vt 0.459786 0.9677936
vt 0.4629717 0.9677936
vt 0.4629717 0.9677936
vt 0.4629109 0.9677936
vt 0.4632628 0.9677936
vt 0.4632628 0.9677936
vt 0.463202 0.9677936
vt 0.4635175 0.9677936
vt 0.4635175 0.9677936
vt 0.4637661 0.9677936
vt 0.4637661 0.9677936
vt 0.4632628 0.9664885
vt 0.4632628 0.9677936
vt 0.4635175 0.9677936
vt 0.4634567 0.9664885
vt 0.4474611 0.9690599
vt 0.4474611 0.9687932
vt 0.4474611 0.9687932
vt 0.4474611 0.9690599
vt 0.4474611 0.9677548
vt 0.4474611 0.9680217
vt 0.4474611 0.9677548
vt 0.4474611 0.9680217
vt 0.4612871 0.9597802
vt 0.4613478 0.9597802
vt 0.4613478 0.9584751
vt 0.4612871 0.9584751
vt 0.4629109 0.9677936
vt 0.4620818 0.9675268
vt 0.4620818 0.9677936
vt 0.4620818 0.9667553
vt 0.4629109 0.9664885
vt 0.4620818 0.9664885
vt 0.459786 0.9667553
vt 0.459786 0.9675268
vt 0.4344942 0.9604074
vt 0.4321984 0.9604074
vt 0.4321984 0.9604074
vt 0.4344942 0.9604074
vt 0.4352597 0.9676985
vt 0.4352597 0.9676985
vt 0.4352597 0.9676985
vt 0.4352665 0.9667388
vt 0.4352665 0.9666575
vt 0.4352597 0.9663934
vt 0.4352665 0.9665717
vt 0.4352597 0.9663934
vt 0.4347564 0.9676985
vt 0.4347564 0.9663934
vt 0.4346957 0.9663934
vt 0.4347564 0.9676985
vt 0.4344653 0.9676985
vt 0.4344653 0.9663934
vt 0.4344653 0.9663934
vt 0.4344653 0.9676985
vt 0.459786 0.9664885
vt 0.459786 0.9677936
vt 0.4620818 0.9677936
vt 0.4620818 0.9664885
vt 0.4620818 0.9664885
vt 0.459786 0.9664885
vt 0.4620818 0.9664885
vt 0.459786 0.9664885
vt 0.4629717 0.9664885
vt 0.4629717 0.9664885
vt 0.4629109 0.9664885
vt 0.4632628 0.9664885
vt 0.463202 0.9664885
vt 0.4635175 0.9664885
vt 0.4637661 0.9664885
vt 0.4637661 0.9664885
vt 0.4635175 0.9664885
vt 0.4634567 0.9664885
vt 0.463202 0.9664885
vt 0.4629717 0.9664885
vt 0.4629717 0.9677936
vt 0.463202 0.9677936
vt 0.4344942 0.959636
vt 0.4344942 0.959636
vt 0.4321984 0.959636
vt 0.4321984 0.959636
vt 0.4350111 0.9676985
vt 0.4350111 0.9676985
vt 0.4350111 0.9663934
vt 0.4350111 0.9663934
vt 0.4637661 0.9664885
vt 0.4636047 0.9667526
vt 0.4637729 0.9666668
vt 0.4635175 0.9664885
vt 0.4635175 0.9677936
vt 0.4637729 0.9668339
vt 0.4637661 0.9677936
vt 0.4783055 0.9667835
vt 0.4802205 0.9667835
vt 0.4802238 0.9666663
vt 0.4783055 0.9666663
vt 0.4804151 0.9660375
vt 0.4783055 0.9660375
vt 0.4803775 0.9661325
vt 0.4802238 0.9666663
vt 0.4783055 0.9666663
vt 0.4583094 0.9662878
vt 0.4582718 0.9663827
vt 0.4583094 0.967802
vt 0.4581845 0.9674082
vt 0.4581181 0.9669166
vt 0.4581148 0.9670338
vt 0.4804151 0.9675518
vt 0.4802902 0.9671579
vt 0.4783055 0.9675518
vt 0.4783055 0.9667835
vt 0.4802205 0.9667835
vt 0.445921 0.9742888
vt 0.4458903 0.9743237
vt 0.4438114 0.9743237
vt 0.4438114 0.9742888
vt 0.445921 0.975803
vt 0.4458903 0.9757681
vt 0.4458903 0.9743237
vt 0.445921 0.9742888
vt 0.4438114 0.975803
vt 0.4438114 0.9757681
vt 0.4458903 0.9757681
vt 0.445921 0.975803
vn 0.7711716 0 0.6366273
vn 0.7711716 0 0.6366273
vn 0.7711716 0 0.6366273
vn 0.7711704 0 0.6366287
vn 0.7711704 0 0.6366287
vn 0.7711704 0 0.6366287
vn 0.396917 -0.8946543 0.2050624
vn 0.396917 -0.8946543 0.2050624
vn 0.396917 -0.8946543 0.2050624
vn 0.4145385 0.8844715 0.214168
vn 0.4145385 0.8844715 0.214168
vn 0.4145385 0.8844715 0.214168
vn 0 1 0
vn 0 1 0
vn 0 1 0
vn 0 1 0
vn 0 1 0
vn 0 1 0
vn 0 1 0
vn 0 1 0
vn 0 1 0
vn 0 1 0
vn 0 1 0
vn 0 1 0
vn 0 1 0
vn 0 1 0
vn 0.1617585 0.02617111 0.9864833
vn 0.1617585 0.02617111 0.9864833
vn 0.1617585 0.02617111 0.9864833
vn 0.1617585 0.02617111 0.9864833
vn 1 0 0
vn 1 0 0
vn 1 0 0
vn 1 0 0
vn 1 0 0
vn 1 0 0
vn 1 0 0
vn 1 0 0
vn 0.7711683 0 0.6366314
vn 0.7711683 0 0.6366315
vn 0.7711683 0 0.6366314
vn 0.7711683 0 0.6366314
vn 0.002704324 0.002047928 0.9999943
vn 0.001305835 0.003047748 0.9999945
vn 0 0.01119163 0.9999374
vn 0.001305789 -0.003048243 0.9999945
vn 0.002704293 -0.002048292 0.9999943
vn 0 -0.01119224 0.9999374
vn 0 0 1
vn 0 0 1
vn 0 -1 0
vn 0 -1 0
vn 0 -1 0
vn 0 -1 0
vn 0.9999726 0.007375972 -0.0007156965
vn 0.9999726 0.007375973 -0.0007156965
vn 0.9999706 0.007084759 -0.002946468
vn 0.9999726 0.007375973 -0.0007156965
vn 0.9996195 -0.008156735 -0.02635209
vn 0.9995527 -0.02309929 -0.01899279
vn 0.9994641 -0.03256422 -0.003333791
vn 0.9994641 -0.03256422 -0.003333791
vn 0.996979 -0.02297686 0.07419603
vn 0.996979 -0.02297686 0.07419603
vn 0.996979 -0.02297686 0.07419603
vn 0.996979 -0.02297686 0.07419603
vn 1 0 0
vn 1 0 0
vn 1 0 0
vn 1 0 0
vn 0 0 1
vn 0 0 1
vn 0 0 1
vn 0 0 1
vn 0 -1 0
vn 0 -1 0
vn 0 -1 0
vn 0 -1 0
vn 0 -1 0
vn 0 -1 0
vn 0 -1 0
vn 0 -1 0
vn 0 -1 0
vn 0 -1 0
vn 0 -1 0
vn 0 -1 0
vn 0 -1 0
vn 0 -1 0
vn 0 0 1
vn 0 0 1
vn 0 0 1
vn 0 0 1
vn 0 1 0
vn 0 1 0
vn 0 1 0
vn 0 1 0
vn 1 0 0
vn 1 0 0
vn 1 0 0
vn 1 0 0
vn 0 0 1
vn 0 0 1
vn 0 0 1
vn 0 0 1
vn 0 0 1
vn 0 0 1
vn 0 0 1
vn -0.008749038 -0.2661775 0.9638843
vn -0.008749038 -0.2661776 0.9638843
vn -0.008749039 -0.2661776 0.9638843
vn -0.008749037 -0.2661776 0.9638843
vn 0 -0.8440321 0.5362927
vn -0.01001691 -0.7362967 0.6765847
vn -0.004809535 -0.7956234 0.6057724
vn -0.01053385 -0.7300062 0.6833593
vn -0.01053385 -0.7300062 0.6833593
vn 0.9645098 0 0.2640468
vn 0.9626842 0.002003668 0.2706197
vn 0.9546502 0.003829991 0.2977049
vn 0.9562612 0.005479752 0.2924629
vn 0.9623509 0.007713685 0.2717009
vn 0.9623509 0.007713685 0.2717009
vn 0 0.7405229 0.6720312
vn -0.005981525 0.6919391 0.721931
vn -0.01863755 0.6924676 0.7212082
vn -0.02027446 0.6750981 0.7374493
vn -0.007062129 0.6290439 0.7773376
vn 0 -0.9258473 -0.3778978
vn 0 -0.9258473 -0.3778978
vn 0 -0.9258473 -0.3778978
vn 0 -0.9258473 -0.3778977
vn 0.931378 0 -0.3640537
vn 0.931378 0 -0.3640537
vn 0.931378 0 -0.3640537
vn 0.931378 0 -0.3640537
vn 0 0.925849 -0.3778937
vn 0 0.925849 -0.3778937
vn 0 0.925849 -0.3778937
vn 0 0.925849 -0.3778937
g Color_02_0
f 3/3/3 2/2/2 1/1/1
f 6/6/6 5/5/5 4/4/4
f 9/9/9 8/8/8 7/7/7
f 12/12/12 11/11/11 10/10/10
f 15/15/15 14/14/14 13/13/13
f 16/16/16 15/15/15 13/13/13
f 17/17/17 16/16/16 13/13/13
f 13/13/13 18/18/18 17/17/17
f 13/13/13 19/19/19 18/18/18
f 20/20/20 16/16/16 17/17/17
f 17/17/17 21/21/21 20/20/20
f 17/17/17 22/22/22 21/21/21
f 23/23/23 16/16/16 20/20/20
f 24/24/24 23/23/23 20/20/20
f 25/25/25 16/16/16 23/23/23
f 26/26/26 25/25/25 23/23/23
f 29/29/29 28/28/28 27/27/27
f 30/30/30 29/29/29 27/27/27
f 33/33/33 32/32/32 31/31/31
f 34/34/34 33/33/33 31/31/31
f 33/33/33 34/34/34 35/35/35
f 36/36/36 33/33/33 35/35/35
f 36/36/36 35/35/35 37/37/37
f 38/38/38 36/36/36 37/37/37
f 41/41/41 40/40/40 39/39/39
f 42/42/42 41/41/41 39/39/39
f 45/45/45 44/44/44 43/43/43
f 43/43/43 44/44/44 46/46/46
f 47/47/47 43/43/43 46/46/46
f 46/46/46 48/48/48 47/47/47
f 49/49/49 46/46/46 44/44/44
f 50/50/50 49/49/49 44/44/44
f 53/53/53 52/52/52 51/51/51
f 54/54/54 53/53/53 51/51/51
f 57/57/57 56/56/56 55/55/55
f 57/57/57 55/55/55 58/58/58
f 58/58/58 59/59/59 57/57/57
f 60/60/60 57/57/57 59/59/59
f 60/60/60 59/59/59 61/61/61
f 62/62/62 60/60/60 61/61/61
f 65/65/65 64/64/64 63/63/63
f 66/66/66 65/65/65 63/63/63
f 69/69/69 68/68/68 67/67/67
f 70/70/70 69/69/69 67/67/67
f 73/73/73 72/72/72 71/71/71
f 74/74/74 73/73/73 71/71/71
f 77/77/77 76/76/76 75/75/75
f 76/76/76 78/78/78 75/75/75
f 75/75/75 78/78/78 79/79/79
f 79/79/79 80/80/80 75/75/75
f 80/80/80 81/81/81 75/75/75
f 79/79/79 78/78/78 82/82/82
f 83/83/83 79/79/79 82/82/82
f 82/82/82 78/78/78 84/84/84
f 84/84/84 78/78/78 85/85/85
f 86/86/86 84/84/84 85/85/85
f 84/84/84 87/87/87 82/82/82
f 87/87/87 88/88/88 82/82/82
f 91/91/91 90/90/90 89/89/89
f 92/92/92 91/91/91 89/89/89
f 95/95/95 94/94/94 93/93/93
f 96/96/96 95/95/95 93/93/93
f 99/99/99 98/98/98 97/97/97
f 100/100/100 99/99/99 97/97/97
f 103/103/103 102/102/102 101/101/101
f 102/102/102 104/104/104 101/101/101
f 102/102/102 105/105/105 104/104/104
f 105/105/105 102/102/102 106/106/106
f 107/107/107 105/105/105 106/106/106
f 110/110/110 109/109/109 108/108/108
f 111/111/111 110/110/110 108/108/108
f 114/114/114 113/113/113 112/112/112
f 113/113/113 114/114/114 115/115/115
f 116/116/116 113/113/113 115/115/115
f 119/119/119 118/118/118 117/117/117
f 120/120/120 118/118/118 119/119/119
f 121/121/121 118/118/118 120/120/120
f 122/122/122 121/121/121 120/120/120
f 125/125/125 124/124/124 123/123/123
f 126/126/126 124/124/124 125/125/125
f 127/127/127 124/124/124 126/126/126
f 130/130/130 129/129/129 128/128/128
f 131/131/131 130/130/130 128/128/128
f 134/134/134 133/133/133 132/132/132
f 135/135/135 134/134/134 132/132/132
f 138/138/138 137/137/137 136/136/136
f 139/139/139 138/138/138 136/136/136
