g Color_10
v -6.882691 -10.6347 0.7576404
v -6.88269 -10.6347 -2.562648
v -8.478779 -10.61239 -2.562651
v -8.478781 -10.61239 0.7576385
v -9.830282 -9.830247 -2.56265
v -9.830284 -9.830247 0.7576392
v -10.61242 -8.478744 -2.56265
v -10.61242 -8.478744 0.7576392
v -10.63474 -7.070203 -2.562651
v -10.63474 -7.070204 0.7576401
v -6.882687 10.63468 0.7576442
v -8.478776 10.61237 -2.562647
v -6.882686 10.63468 -2.562646
v -8.478777 10.61237 0.7576423
v -9.830279 9.83023 -2.562648
v -9.83028 9.83023 0.7576416
v -10.61242 8.478726 -2.562648
v -10.61242 8.478724 0.7576416
v -10.63474 7.070188 -2.562648
v -10.63474 7.070188 0.7576425
v 6.882612 -10.6347 0.7576461
v 8.478704 -10.61239 -2.562644
v 6.882614 -10.6347 -2.562644
v 8.478703 -10.61239 0.7576461
v 9.830208 -9.830251 -2.562643
v 9.830206 -9.830251 0.7576468
v 10.61235 -8.478747 -2.562643
v 10.61235 -8.478747 0.7576468
v 10.63466 -7.070208 -2.562641
v 10.63466 -7.070209 0.7576478
v 6.882617 10.63468 0.7576499
v 6.882618 10.63468 -2.562641
v 8.478708 10.61236 -2.56264
v 8.478706 10.61236 0.7576499
v 9.83021 9.830226 -2.562641
v 9.83021 9.830226 0.7576492
v 10.61235 8.478723 -2.56264
v 10.61235 8.478721 0.7576492
v 10.63466 7.070184 -2.562638
v 10.63466 7.070182 0.7576501
v -3.323819E-06 5.107265E-07 9.775162E-06
v -9.137936 -9.137921 1.192093E-06
v -9.137933 9.137925 8.821487E-06
v 9.137926 -9.137925 8.821487E-06
v 9.137929 9.137921 1.645088E-05
vt 0.5992168 0.03648792
vt 0.5992168 0.03515969
vt 0.5980695 0.03515969
vt 0.5980695 0.03648792
vt 0.5973313 0.03515969
vt 0.5973313 0.03648792
vt 0.596904 0.03515969
vt 0.596904 0.03648792
vt 0.5968919 0.03515969
vt 0.5968919 0.03648792
vt 0.5992168 0.03648792
vt 0.5980695 0.03515969
vt 0.5992168 0.03515969
vt 0.5980695 0.03648792
vt 0.5973313 0.03515969
vt 0.5973313 0.03648792
vt 0.596904 0.03515969
vt 0.596904 0.03648792
vt 0.5968919 0.03515969
vt 0.5968919 0.03648792
vt 0.5992168 0.03648792
vt 0.5980695 0.03515969
vt 0.5992168 0.03515969
vt 0.5980695 0.03648792
vt 0.5973313 0.03515969
vt 0.5973313 0.03648792
vt 0.596904 0.03515969
vt 0.596904 0.03648792
vt 0.5968919 0.03515969
vt 0.5968919 0.03648792
vt 0.5992168 0.03648792
vt 0.5992168 0.03515969
vt 0.5980695 0.03515969
vt 0.5980695 0.03648792
vt 0.5973313 0.03515969
vt 0.5973313 0.03648792
vt 0.596904 0.03515969
vt 0.596904 0.03648792
vt 0.5968919 0.03515969
vt 0.5968919 0.03648792
vt 0.5980543 0.0358238
vt 0.5956115 0.0358238
vt 0.5956115 0.0358238
vt 0.6004972 0.0358238
vt 0.6004972 0.0358238
vn -0.01398059 -0.9999022 0
vn -0.01398059 -0.9999022 0
vn -0.2660593 -0.9639568 0
vn -0.2660593 -0.9639567 0
vn -0.7071064 -0.7071071 0
vn -0.7071066 -0.7071069 0
vn -0.9637088 -0.2669557 0
vn -0.9637088 -0.2669556 0
vn -0.9998746 -0.01583966 0
vn -0.9998746 -0.01583966 0
vn -0.01398029 0.9999022 0
vn -0.2660587 0.9639568 0
vn -0.01398029 0.9999022 0
vn -0.2660585 0.9639568 0
vn -0.707106 0.7071075 0
vn -0.7071061 0.7071075 0
vn -0.9637087 0.2669562 0
vn -0.9637088 0.266956 0
vn -0.9998746 0.01584037 0
vn -0.9998746 0.01584037 0
vn 0.01397999 -0.9999022 0
vn 0.2660584 -0.9639568 0
vn 0.01397999 -0.9999022 0
vn 0.2660584 -0.9639568 0
vn 0.7071061 -0.7071075 0
vn 0.7071059 -0.7071075 0
vn 0.9637086 -0.2669567 0
vn 0.9637086 -0.2669566 0
vn 0.9998745 -0.01584136 0
vn 0.9998745 -0.01584136 0
vn 0.01398148 0.9999022 0
vn 0.01398148 0.9999022 0
vn 0.2660597 0.9639567 0
vn 0.2660595 0.9639567 0
vn 0.7071065 0.707107 0
vn 0.7071064 0.7071071 0
vn 0.9637088 0.2669556 0
vn 0.9637089 0.2669553 0
vn 0.9998746 0.01583934 0
vn 0.9998746 0.01583934 0
vn 0 0 1
vn 0 0 1
vn 0 0 1
vn 0 0 1
vn 0 0 1
g Color_10_0
f 3/3/3 2/2/2 1/1/1
f 4/4/4 3/3/3 1/1/1
f 5/5/5 3/3/3 4/4/4
f 6/6/6 5/5/5 4/4/4
f 7/7/7 5/5/5 6/6/6
f 8/8/8 7/7/7 6/6/6
f 9/9/9 7/7/7 8/8/8
f 10/10/10 9/9/9 8/8/8
f 13/13/13 12/12/12 11/11/11
f 12/12/12 14/14/14 11/11/11
f 12/12/12 15/15/15 14/14/14
f 15/15/15 16/16/16 14/14/14
f 15/15/15 17/17/17 16/16/16
f 17/17/17 18/18/18 16/16/16
f 17/17/17 19/19/19 18/18/18
f 19/19/19 20/20/20 18/18/18
f 23/23/23 22/22/22 21/21/21
f 22/22/22 24/24/24 21/21/21
f 22/22/22 25/25/25 24/24/24
f 25/25/25 26/26/26 24/24/24
f 25/25/25 27/27/27 26/26/26
f 27/27/27 28/28/28 26/26/26
f 27/27/27 29/29/29 28/28/28
f 29/29/29 30/30/30 28/28/28
f 33/33/33 32/32/32 31/31/31
f 34/34/34 33/33/33 31/31/31
f 35/35/35 33/33/33 34/34/34
f 36/36/36 35/35/35 34/34/34
f 37/37/37 35/35/35 36/36/36
f 38/38/38 37/37/37 36/36/36
f 39/39/39 37/37/37 38/38/38
f 40/40/40 39/39/39 38/38/38
f 43/43/43 42/42/42 41/41/41
f 42/42/42 44/44/44 41/41/41
f 45/45/45 43/43/43 41/41/41
f 44/44/44 45/45/45 41/41/41
