g Color_Cloth_01
v -8.009735 2.948818 4.387602
v -6.019554 2.20255 4.236229
v -7.86648 1.914249 3.015809
v -5.864079 1.185284 3.00134
v -5.863261 1.184611 3.000812
v -7.763439 1.187308 1.558308
v -3.306247 1.668641 4.196832
v -5.766358 0.4382454 1.638168
v -5.729471 0.05763291 0.1117451
v -7.702207 0.8512071 -0.04066389
v -5.740873 0.1331547 -1.571723
v -7.666293 0.9870043 -1.784975
v -5.778992 0.716186 -3.343655
v -7.625038 1.643313 -3.60958
v -5.81813 1.792736 -5.080095
v -7.565125 2.820123 -5.388886
v -3.265259 0.9747822 -4.900225
v -3.19202 -0.01251592 -3.173682
v -1.528859E-05 0.656194 -4.844302
v -3.137573 -0.5185109 -1.422896
v -1.549721E-05 -0.2898839 -3.115451
v 3.265229 0.9747855 -4.900225
v -3.113663 -0.5267738 0.2311525
v -1.469254E-05 -0.7558846 -1.368762
v 3.191988 -0.01251401 -3.173682
v -3.130539 -0.0993712 1.720783
v 5.778962 0.7161912 -3.343654
v 5.818098 1.792741 -5.080094
v -1.41263E-05 -0.723801 0.2772983
v 3.137544 -0.518508 -1.422896
v -3.194393 0.664027 3.03436
v 7.625006 1.643319 -3.609578
v 7.565093 2.82013 -5.388885
v 7.666262 0.9870134 -1.784974
v -1.516938E-05 -0.2630751 1.757154
v -1.633167E-05 0.5060866 3.058999
v -1.633167E-05 1.549626 4.207241
v 3.113633 -0.5267704 0.231152
v 5.74084 0.1331599 -1.571722
v 5.729442 0.05763816 0.1117474
v 7.702175 0.8512157 -0.04066485
v 3.130508 -0.09936929 1.720783
v 3.19436 0.6640294 3.03436
v 3.306213 1.668644 4.196833
v 5.766325 0.4382511 1.638169
v 7.763408 1.187318 1.55831
v 5.86323 1.184616 3.000813
v 6.019522 2.202555 4.236229
v 7.866449 1.914258 3.015811
v 8.009701 2.948828 4.387602
v 2.33491 0.7489817 3.518036
v 4.285707 1.100854 3.482933
v 4.214873 0.06221593 1.989661
v 2.288237 -0.3037427 2.076892
v -2.086162E-07 0.6541221 3.543086
v 4.187912 -0.4880543 0.3182276
v 1.221895E-06 -0.4065607 2.113708
v -2.33491 0.7489845 3.518036
v 2.275901 -0.9069456 0.4498941
v 4.196246 -0.4161788 -1.548391
v -2.288236 -0.3037408 2.07689
v -4.285706 1.100857 3.482933
v -4.214875 0.0622207 1.989662
v 3.576279E-07 -1.043272 0.4989759
v 2.29338 -0.9205051 -1.373245
v 4.22411 0.3555461 -3.543084
v 2.333176 -0.2619308 -3.32753
v -2.275906 -0.9069428 0.4498948
v -4.187914 -0.48805 0.3182266
v 4.470348E-07 -1.100857 -1.31097
v 8.642673E-07 -0.4924639 -3.253672
v -2.293382 -0.9205037 -1.373246
v -4.196249 -0.4161736 -1.54839
v -2.333178 -0.2619284 -3.32753
v -4.224109 0.3555513 -3.543084
vt 0.009999969 0.99
vt 0.1730697 0.99
vt 0.009999969 0.9096223
vt 0.1730075 0.9096529
vt 0.1730697 0.9096223
vt 0.009999969 0.8292446
vt 0.3361395 0.99
vt 0.1730697 0.8292446
vt 0.1730697 0.748867
vt 0.009999969 0.748867
vt 0.1730697 0.6684895
vt 0.009999969 0.6684895
vt 0.1730697 0.5881118
vt 0.009999969 0.5881118
vt 0.1730697 0.5077343
vt 0.009999969 0.5077343
vt 0.3361395 0.5077343
vt 0.3361395 0.5881118
vt 0.4999172 0.5077343
vt 0.3361395 0.6684895
vt 0.4999172 0.5881118
vt 0.6622896 0.5077343
vt 0.3361395 0.748867
vt 0.4999172 0.6684895
vt 0.6622896 0.5881118
vt 0.3361395 0.8292446
vt 0.8253592 0.5881118
vt 0.8253592 0.5077343
vt 0.4999172 0.748867
vt 0.6622896 0.6684895
vt 0.3361395 0.9096223
vt 0.988429 0.5881118
vt 0.988429 0.5077343
vt 0.988429 0.6684895
vt 0.4999172 0.8292446
vt 0.4999172 0.9096223
vt 0.4999172 0.99
vt 0.6622896 0.748867
vt 0.8253592 0.6684895
vt 0.8253592 0.748867
vt 0.988429 0.748867
vt 0.6622896 0.8292446
vt 0.6622896 0.9096223
vt 0.6622896 0.99
vt 0.8253592 0.8292446
vt 0.988429 0.8292446
vt 0.8253592 0.9096223
vt 0.8253592 0.99
vt 0.988429 0.9096223
vt 0.988429 0.99
vt 0.8792617 0.4946053
vt 0.9931784 0.4946053
vt 0.9931784 0.3721054
vt 0.8792617 0.3721054
vt 0.7559564 0.4946053
vt 0.9931784 0.2489207
vt 0.7559564 0.3721054
vt 0.6206748 0.4946053
vt 0.8792617 0.2489207
vt 0.9931784 0.1242762
vt 0.6206748 0.3721054
vt 0.5031782 0.4946053
vt 0.5031782 0.3721054
vt 0.7559564 0.2489207
vt 0.8792617 0.1242762
vt 0.9931784 0.004605315
vt 0.8792617 0.004605315
vt 0.6206748 0.2489207
vt 0.5031782 0.2489207
vt 0.7559564 0.1242762
vt 0.7559564 0.004605315
vt 0.6206748 0.1242762
vt 0.5031782 0.1242762
vt 0.6206748 0.004605315
vt 0.5031782 0.004605315
vn -0.2513856 -0.7851982 0.5659233
vn -0.2148229 -0.7726936 0.5973239
vn -0.2822131 -0.8141946 0.5073885
vn -0.2761283 -0.7699332 0.5752878
vn -0.2329552 -0.8174664 0.5267642
vn -0.3423179 -0.8840049 0.318361
vn -0.09894971 -0.7566016 0.6463459
vn -0.2733142 -0.8991776 0.3417296
vn -0.2982401 -0.9498812 0.09369345
vn -0.3777329 -0.9234284 0.06780852
vn -0.3030438 -0.9392272 -0.1612969
vn -0.3825643 -0.9030579 -0.1952715
vn -0.2928393 -0.8717941 -0.3927088
vn -0.3659922 -0.823858 -0.4327908
vn -0.3010747 -0.8063678 -0.5090433
vn -0.3615978 -0.7719901 -0.5227603
vn -0.1526455 -0.8582 -0.490094
vn -0.1470984 -0.9139069 -0.3783335
vn 0 -0.8733324 -0.4871246
vn -0.1510808 -0.9786088 -0.1396406
vn 0 -0.9265551 -0.3761592
vn 0.1526464 -0.8581997 -0.4900942
vn -0.1424924 -0.9808714 0.132617
vn 0 -0.9917188 -0.1284278
vn 0.1470993 -0.9139068 -0.3783335
vn -0.1255013 -0.9159391 0.381189
vn 0.2928404 -0.8717937 -0.3927086
vn 0.3010754 -0.8063674 -0.5090433
vn 0 -0.9888514 0.1489062
vn 0.1510818 -0.9786087 -0.1396405
vn -0.1056365 -0.8136369 0.5716956
vn 0.3659931 -0.8238577 -0.4327904
vn 0.3615981 -0.7719902 -0.5227599
vn 0.3825657 -0.9030575 -0.1952712
vn 0 -0.9175661 0.3975834
vn 0 -0.8109208 0.5851559
vn 0 -0.7491958 0.6623485
vn 0.1424934 -0.9808713 0.1326169
vn 0.3030451 -0.9392269 -0.1612967
vn 0.2982415 -0.9498808 0.09369354
vn 0.3777344 -0.9234276 0.06780838
vn 0.1255021 -0.915939 0.3811889
vn 0.1056371 -0.8136369 0.5716955
vn 0.09895018 -0.7566016 0.6463457
vn 0.2733153 -0.8991774 0.3417294
vn 0.3423192 -0.8840044 0.3183608
vn 0.2322837 -0.8157303 0.5297437
vn 0.214825 -0.7726961 0.5973198
vn 0.2822147 -0.8141959 0.5073853
vn 0.2513873 -0.785197 0.5659241
vn 0.1080145 -0.8071219 0.5804198
vn 0.1671357 -0.8060397 0.5677727
vn 0.188133 -0.8709323 0.4539636
vn 0.1187339 -0.8782001 0.4633217
vn 0 -0.8056143 0.5924403
vn 0.2242004 -0.962534 0.1525202
vn 0 -0.8780701 0.478532
vn -0.1080151 -0.8071219 0.5804195
vn 0.1424405 -0.9741631 0.1752623
vn 0.2386147 -0.9529364 -0.1870169
vn -0.1187347 -0.8781999 0.4633216
vn -0.167136 -0.8060397 0.5677724
vn -0.1881336 -0.8709322 0.4539636
vn 0 -0.9813212 0.1923768
vn 0.1548999 -0.9756595 -0.1552248
vn 0.2367913 -0.9147803 -0.3272717
vn 0.1639664 -0.9333125 -0.3194415
vn -0.1424416 -0.9741629 0.1752626
vn -0.2242016 -0.9625338 0.1525202
vn 0 -0.989818 -0.142338
vn 0 -0.9512281 -0.3084884
vn -0.1549009 -0.9756593 -0.1552247
vn -0.2386162 -0.952936 -0.1870169
vn -0.1639676 -0.9333122 -0.3194416
vn -0.2367929 -0.91478 -0.3272718
g Color_Cloth_01_0
f 3/3/3 2/2/2 1/1/1
f 2/2/2 3/3/3 4/4/4
f 5/5/5 4/4/4 3/3/3
f 5/5/5 2/2/2 4/4/4
f 6/6/6 5/5/5 3/3/3
f 5/5/5 7/7/7 2/2/2
f 8/8/8 5/5/5 6/6/6
f 9/9/9 8/8/8 6/6/6
f 10/10/10 9/9/9 6/6/6
f 11/11/11 9/9/9 10/10/10
f 12/12/12 11/11/11 10/10/10
f 13/13/13 11/11/11 12/12/12
f 14/14/14 13/13/13 12/12/12
f 15/15/15 13/13/13 14/14/14
f 16/16/16 15/15/15 14/14/14
f 15/15/15 17/17/17 13/13/13
f 17/17/17 18/18/18 13/13/13
f 13/13/13 18/18/18 11/11/11
f 17/17/17 19/19/19 18/18/18
f 11/11/11 20/20/20 9/9/9
f 18/18/18 20/20/20 11/11/11
f 19/19/19 21/21/21 18/18/18
f 18/18/18 21/21/21 20/20/20
f 19/19/19 22/22/22 21/21/21
f 9/9/9 23/23/23 8/8/8
f 20/20/20 23/23/23 9/9/9
f 21/21/21 24/24/24 20/20/20
f 20/20/20 24/24/24 23/23/23
f 22/22/22 25/25/25 21/21/21
f 21/21/21 25/25/25 24/24/24
f 23/23/23 26/26/26 8/8/8
f 8/8/8 26/26/26 5/5/5
f 22/22/22 27/27/27 25/25/25
f 28/28/28 27/27/27 22/22/22
f 24/24/24 29/29/29 23/23/23
f 23/23/23 29/29/29 26/26/26
f 25/25/25 30/30/30 24/24/24
f 25/25/25 27/27/27 30/30/30
f 24/24/24 30/30/30 29/29/29
f 26/26/26 31/31/31 5/5/5
f 31/31/31 7/7/7 5/5/5
f 28/28/28 32/32/32 27/27/27
f 33/33/33 32/32/32 28/28/28
f 32/32/32 34/34/34 27/27/27
f 29/29/29 35/35/35 26/26/26
f 26/26/26 35/35/35 31/31/31
f 31/31/31 36/36/36 7/7/7
f 35/35/35 36/36/36 31/31/31
f 36/36/36 37/37/37 7/7/7
f 30/30/30 38/38/38 29/29/29
f 29/29/29 38/38/38 35/35/35
f 27/27/27 39/39/39 30/30/30
f 27/27/27 34/34/34 39/39/39
f 30/30/30 39/39/39 38/38/38
f 39/39/39 34/34/34 40/40/40
f 39/39/39 40/40/40 38/38/38
f 34/34/34 41/41/41 40/40/40
f 38/38/38 42/42/42 35/35/35
f 35/35/35 42/42/42 36/36/36
f 38/38/38 40/40/40 42/42/42
f 36/36/36 43/43/43 37/37/37
f 42/42/42 43/43/43 36/36/36
f 43/43/43 44/44/44 37/37/37
f 40/40/40 41/41/41 45/45/45
f 40/40/40 45/45/45 42/42/42
f 42/42/42 45/45/45 43/43/43
f 41/41/41 46/46/46 45/45/45
f 43/43/43 47/47/47 44/44/44
f 45/45/45 47/47/47 43/43/43
f 45/45/45 46/46/46 47/47/47
f 47/47/47 48/48/48 44/44/44
f 46/46/46 49/49/49 47/47/47
f 47/47/47 49/49/49 48/48/48
f 49/49/49 50/50/50 48/48/48
f 53/53/53 52/52/52 51/51/51
f 54/54/54 53/53/53 51/51/51
f 54/54/54 51/51/51 55/55/55
f 56/56/56 53/53/53 54/54/54
f 57/57/57 54/54/54 55/55/55
f 57/57/57 55/55/55 58/58/58
f 59/59/59 56/56/56 54/54/54
f 59/59/59 54/54/54 57/57/57
f 60/60/60 56/56/56 59/59/59
f 61/61/61 57/57/57 58/58/58
f 61/61/61 58/58/58 62/62/62
f 63/63/63 61/61/61 62/62/62
f 64/64/64 59/59/59 57/57/57
f 64/64/64 57/57/57 61/61/61
f 65/65/65 60/60/60 59/59/59
f 65/65/65 59/59/59 64/64/64
f 66/66/66 60/60/60 65/65/65
f 67/67/67 66/66/66 65/65/65
f 68/68/68 61/61/61 63/63/63
f 68/68/68 64/64/64 61/61/61
f 69/69/69 68/68/68 63/63/63
f 70/70/70 65/65/65 64/64/64
f 67/67/67 65/65/65 70/70/70
f 70/70/70 64/64/64 68/68/68
f 71/71/71 67/67/67 70/70/70
f 72/72/72 68/68/68 69/69/69
f 72/72/72 70/70/70 68/68/68
f 71/71/71 70/70/70 72/72/72
f 73/73/73 72/72/72 69/69/69
f 74/74/74 71/71/71 72/72/72
f 74/74/74 72/72/72 73/73/73
f 75/75/75 74/74/74 73/73/73
