g Color_11
v 5.740662 5.452906 6.628622
v -0.02505087 0.01945145 6.628099
v 5.428207 5.843065 6.66984
v -5.807885 -5.33506 6.626862
v -5.407127 -5.740104 6.58563
v -6.471828 6.982457 5.581697
v 6.471817 6.982455 5.571245
v 6.370414 6.840731 5.92239
v -6.404375 6.819609 5.924147
v -6.404375 6.819609 5.924147
v -6.819553 6.404632 5.924145
v -6.982469 6.471817 5.581829
v -6.471828 6.982457 5.581697
v -6.819553 6.404632 5.924145
v -6.801218 -6.26295 5.872007
v -6.943869 -6.361659 5.521687
v -6.982469 6.471817 5.581829
v 6.471817 6.982455 5.571245
v 6.877165 6.475666 5.526114
v 6.736693 6.38336 5.874067
v 6.370414 6.840731 5.92239
v -6.801218 -6.26295 5.872007
v -6.331429 -6.737768 5.823671
v -6.428237 -6.877215 5.474476
v -6.943869 -6.361659 5.521687
v 6.877165 6.475666 5.526114
v 6.877044 -6.428159 5.481627
v 6.713196 -6.360293 5.823399
v 6.736693 6.38336 5.874067
v -6.331429 -6.737768 5.823671
v 6.360341 -6.713344 5.8234
v 6.428151 -6.877046 5.481754
v -6.428237 -6.877215 5.474476
v 6.360341 -6.713344 5.8234
v 6.713196 -6.360293 5.823399
v 6.877044 -6.428159 5.481627
v 6.428151 -6.877046 5.481754
v -6.982469 6.471817 5.581829
v -6.982466 6.471818 6.67572E-06
v -6.471826 6.982458 5.722046E-06
v -6.471828 6.982457 5.581697
v 6.471817 6.982455 5.571245
v 6.471819 6.982455 1.430511E-05
v 6.982459 6.471816 1.430511E-05
v 6.877165 6.475666 5.526114
v -6.982469 6.471817 5.581829
v -6.943869 -6.361659 5.521687
v -6.982468 -6.471815 9.536743E-07
v -6.982466 6.471818 6.67572E-06
v 6.471817 6.982455 5.571245
v -6.471828 6.982457 5.581697
v -6.471826 6.982458 5.722046E-06
v 6.471819 6.982455 1.430511E-05
v -6.428237 -6.877215 5.474476
v -6.471829 -6.982455 9.536743E-07
v -6.982468 -6.471815 9.536743E-07
v -6.943869 -6.361659 5.521687
v 6.877044 -6.428159 5.481627
v 6.982457 -6.471817 8.583069E-06
v 6.471816 -6.982457 9.536743E-06
v 6.428151 -6.877046 5.481754
v -6.428237 -6.877215 5.474476
v 6.428151 -6.877046 5.481754
v 6.471816 -6.982457 9.536743E-06
v -6.471829 -6.982455 9.536743E-07
v 6.877044 -6.428159 5.481627
v 6.877165 6.475666 5.526114
v 6.982459 6.471816 1.430511E-05
v 6.982457 -6.471817 8.583069E-06
v -6.404375 6.819609 5.924147
v -5.469356 5.825047 6.671339
v -5.823524 5.471051 6.671337
v -6.819553 6.404632 5.924145
v 6.370414 6.840731 5.92239
v 5.428207 5.843065 6.66984
v -5.469356 5.825047 6.671339
v -6.404375 6.819609 5.924147
v -6.819553 6.404632 5.924145
v -5.823524 5.471051 6.671337
v -5.807885 -5.33506 6.626862
v -6.801218 -6.26295 5.872007
v 6.736693 6.38336 5.874067
v 5.740662 5.452906 6.628622
v 5.428207 5.843065 6.66984
v 6.370414 6.840731 5.92239
v -6.801218 -6.26295 5.872007
v -5.807885 -5.33506 6.626862
v -5.407127 -5.740104 6.58563
v -6.331429 -6.737768 5.823671
v 6.360341 -6.713344 5.8234
v 5.419615 -5.719269 6.585394
v 5.720617 -5.418099 6.585402
v 6.713196 -6.360293 5.823399
v -6.331429 -6.737768 5.823671
v -5.407127 -5.740104 6.58563
v 5.419615 -5.719269 6.585394
v 6.360341 -6.713344 5.8234
v 6.713196 -6.360293 5.823399
v 5.720617 -5.418099 6.585402
v 5.740662 5.452906 6.628622
v 6.736693 6.38336 5.874067
v 5.428207 5.843065 6.66984
v -0.02505087 0.01945145 6.628099
v -5.469356 5.825047 6.671339
v -5.823524 5.471051 6.671337
v -5.807885 -5.33506 6.626862
v -5.407127 -5.740104 6.58563
v 5.419615 -5.719269 6.585394
v 5.720617 -5.418099 6.585402
v 5.740662 5.452906 6.628622
v -3.388316 3.216842 12.77793
v -3.388316 3.216843 11.89093
v -3.216859 -3.388307 11.89093
v -3.21686 -3.388308 12.77792
v -3.21686 -3.388308 12.77792
v -3.216859 -3.388307 11.89093
v 3.388295 -3.216851 11.89093
v 3.388294 -3.216851 12.77793
v 3.388294 -3.216851 12.77793
v 3.388295 -3.216851 11.89093
v 3.216839 3.388299 11.89093
v 3.216839 3.388299 12.77793
v 3.216839 3.388299 12.77793
v 3.216839 3.388299 11.89093
v -3.388316 3.216843 11.89093
v -3.388316 3.216842 12.77793
v 3.388295 -3.216851 11.89093
v -3.216859 -3.388307 11.89093
v -3.388316 3.216843 11.89093
v 3.216839 3.388299 11.89093
v -4.6028 5.253624 12.52119
v 4.60278 5.253623 12.52119
v 4.536751 5.09306 12.77793
v -4.53677 5.093061 12.77792
v -4.53677 5.093061 12.77792
v -4.93014 4.930123 12.77792
v -5.063014 5.062997 12.52119
v -4.6028 5.253624 12.52119
v -4.93014 4.930123 12.77792
v -5.09308 4.536754 12.77793
v -5.253641 4.602783 12.52119
v -5.063014 5.062997 12.52119
v -5.09308 4.536754 12.77793
v -5.093081 -4.536762 12.77792
v -5.253643 -4.60279 12.52118
v -5.253641 4.602783 12.52119
v -5.093081 -4.536762 12.77792
v -4.930142 -4.930131 12.77792
v -5.063016 -5.063004 12.52118
v -5.253643 -4.60279 12.52118
v -4.930142 -4.930131 12.77792
v -4.536773 -5.09307 12.77792
v -4.602802 -5.253631 12.52118
v -5.063016 -5.063004 12.52118
v -4.536773 -5.09307 12.77792
v 4.536748 -5.093071 12.77793
v 4.602778 -5.253633 12.52119
v -4.602802 -5.253631 12.52118
v 4.536748 -5.093071 12.77793
v 4.930118 -4.930132 12.77793
v 5.062993 -5.063006 12.52119
v 4.602778 -5.253633 12.52119
v 4.930118 -4.930132 12.77793
v 5.093058 -4.536763 12.77793
v 5.25362 -4.602792 12.52119
v 5.062993 -5.063006 12.52119
v 5.093058 -4.536763 12.77793
v 5.09306 4.536752 12.77793
v 5.253622 4.602782 12.52119
v 5.25362 -4.602792 12.52119
v 5.09306 4.536752 12.77793
v 4.93012 4.930121 12.77793
v 5.062994 5.062996 12.52119
v 5.253622 4.602782 12.52119
v 4.93012 4.930121 12.77793
v 4.536751 5.09306 12.77793
v 4.60278 5.253623 12.52119
v 5.062994 5.062996 12.52119
v -4.602799 5.253625 9.700424
v -4.6028 5.253624 12.52119
v -5.063014 5.062997 12.52119
v -5.063013 5.062999 9.700424
v -5.063013 5.062999 9.700424
v -5.063014 5.062997 12.52119
v -5.253641 4.602783 12.52119
v -5.25364 4.602785 9.700424
v -5.253642 -4.602789 9.70042
v -5.253643 -4.60279 12.52118
v -5.063016 -5.063004 12.52118
v -5.063015 -5.063004 9.70042
v -5.063015 -5.063004 9.70042
v -5.063016 -5.063004 12.52118
v -4.602802 -5.253631 12.52118
v -4.602801 -5.25363 9.70042
v 4.60278 -5.253632 9.700424
v 4.602778 -5.253633 12.52119
v 5.062993 -5.063006 12.52119
v 5.062994 -5.063005 9.700424
v 5.062994 -5.063005 9.700424
v 5.062993 -5.063006 12.52119
v 5.25362 -4.602792 12.52119
v 5.253622 -4.602791 9.700424
v 5.253623 4.602783 9.700428
v 5.253622 4.602782 12.52119
v 5.062994 5.062996 12.52119
v 5.062996 5.062997 9.700428
v 5.062996 5.062997 9.700428
v 5.062994 5.062996 12.52119
v 4.60278 5.253623 12.52119
v 4.602782 5.253623 9.700428
v -5.25364 4.602785 9.700424
v -5.253641 4.602783 12.52119
v -5.253643 -4.60279 12.52118
v -5.253642 -4.602789 9.70042
v -4.602801 -5.25363 9.70042
v -4.602802 -5.253631 12.52118
v 4.602778 -5.253633 12.52119
v 4.60278 -5.253632 9.700424
v 5.253622 -4.602791 9.700424
v 5.25362 -4.602792 12.52119
v 5.253622 4.602782 12.52119
v 5.253623 4.602783 9.700428
v 4.602782 5.253623 9.700428
v 4.60278 5.253623 12.52119
v -4.6028 5.253624 12.52119
v -4.602799 5.253625 9.700424
v -5.09308 4.536754 12.77793
v -3.21686 -3.388308 12.77792
v -5.093081 -4.536762 12.77792
v -4.930142 -4.930131 12.77792
v -4.536773 -5.09307 12.77792
v -3.388316 3.216842 12.77793
v 3.388294 -3.216851 12.77793
v -4.93014 4.930123 12.77792
v -4.53677 5.093061 12.77792
v 4.536751 5.09306 12.77793
v 4.536748 -5.093071 12.77793
v 4.930118 -4.930132 12.77793
v 5.093058 -4.536763 12.77793
v 3.216839 3.388299 12.77793
v 4.93012 4.930121 12.77793
v 5.09306 4.536752 12.77793
vt 0.6004359 0.03327033
vt 0.5980403 0.03581656
vt 0.6006078 0.03340831
vt 0.5956795 0.03837037
vt 0.5955009 0.03819339
vt 0.5964077 0.01001529
vt 0.5964044 0.01306477
vt 0.5964534 0.01303678
vt 0.5964592 0.01003458
vt 0.5964592 0.01003458
vt 0.596557 0.009935805
vt 0.5965379 0.009884433
vt 0.5964077 0.01001529
vt 0.596557 0.009935805
vt 0.5995352 0.009930001
vt 0.5995627 0.009881035
vt 0.5965379 0.009884433
vt 0.5964044 0.01306477
vt 0.5965334 0.01317223
vt 0.5965586 0.01312377
vt 0.5964534 0.01303678
vt 0.5995352 0.009930001
vt 0.599649 0.01004069
vt 0.5996974 0.01001462
vt 0.5995627 0.009881035
vt 0.5965334 0.01317223
vt 0.5995887 0.01317405
vt 0.59957 0.01312258
vt 0.5965586 0.01312377
vt 0.599649 0.01004069
vt 0.5996528 0.01303908
vt 0.5997043 0.01305872
vt 0.5996974 0.01001462
vt 0.5996528 0.01303908
vt 0.59957 0.01312258
vt 0.5995887 0.01317405
vt 0.5997043 0.01305872
vt 0.5961877 0.03627276
vt 0.5961877 0.03537485
vt 0.5963242 0.03537485
vt 0.5963242 0.03627273
vt 0.5997845 0.03627069
vt 0.5997845 0.03537485
vt 0.599921 0.03537485
vt 0.5999069 0.03626185
vt 0.5961877 0.03627276
vt 0.5961877 0.0362513
vt 0.5961877 0.03537485
vt 0.5961877 0.03537485
vt 0.5997845 0.03627069
vt 0.5963242 0.03627273
vt 0.5963242 0.03537485
vt 0.5997845 0.03537485
vt 0.5963242 0.03623236
vt 0.5963242 0.03537485
vt 0.5961877 0.03537485
vt 0.5961877 0.0362513
vt 0.5999209 0.03623373
vt 0.599921 0.03537485
vt 0.5997845 0.03537485
vt 0.5997845 0.03623375
vt 0.5963242 0.03623236
vt 0.5997845 0.03623375
vt 0.5997845 0.03537485
vt 0.5963242 0.03537485
vt 0.5999209 0.03623373
vt 0.5999069 0.03626185
vt 0.599921 0.03537485
vt 0.599921 0.03537485
vt 0.5461766 0.009496515
vt 0.5461766 0.009496515
vt 0.5463089 0.009364006
vt 0.5463089 0.009364006
vt 0.5461698 0.01357415
vt 0.5461698 0.01357415
vt 0.5461766 0.009496515
vt 0.5461766 0.009496515
vt 0.5463089 0.009364006
vt 0.5463089 0.009364006
vt 0.5503511 0.009370361
vt 0.5503511 0.009370361
vt 0.5463157 0.01369108
vt 0.5463157 0.01369108
vt 0.5461698 0.01357415
vt 0.5461698 0.01357415
vt 0.5503511 0.009370361
vt 0.5503511 0.009370361
vt 0.5504708 0.009533552
vt 0.5504708 0.009533552
vt 0.5504639 0.01355476
vt 0.5504639 0.01355476
vt 0.5503672 0.01365129
vt 0.5503672 0.01365129
vt 0.5504708 0.009533552
vt 0.5504708 0.009533552
vt 0.5504639 0.01355476
vt 0.5504639 0.01355476
vt 0.5503672 0.01365129
vt 0.5503672 0.01365129
vt 0.5463157 0.01369108
vt 0.5463157 0.01369108
vt 0.6006078 0.03340831
vt 0.5980403 0.03581656
vt 0.6005999 0.03822087
vt 0.6004439 0.03837728
vt 0.5956795 0.03837037
vt 0.5955009 0.03819339
vt 0.5955101 0.0334121
vt 0.5956429 0.03327915
vt 0.6004359 0.03327033
vt 0.6840677 0.01113769
vt 0.6840677 0.01113769
vt 0.6861597 0.01119199
vt 0.6861597 0.01119199
vt 0.6861597 0.01119199
vt 0.6861597 0.01119199
vt 0.6861053 0.01328401
vt 0.6861053 0.01328401
vt 0.6861053 0.01328401
vt 0.6861053 0.01328401
vt 0.6840133 0.01322971
vt 0.6840133 0.01322971
vt 0.6840133 0.01322971
vt 0.6840133 0.01322971
vt 0.6840677 0.01113769
vt 0.6840677 0.01113769
vt 0.6861053 0.01328401
vt 0.6861597 0.01119199
vt 0.6840677 0.01113769
vt 0.6840133 0.01322971
vt 0.5994404 0.01274211
vt 0.5994484 0.01032226
vt 0.5994077 0.01032974
vt 0.5993999 0.0127345
vt 0.5993999 0.0127345
vt 0.5993564 0.01283745
vt 0.5993862 0.01286734
vt 0.5994404 0.01274211
vt 0.5993564 0.01283745
vt 0.599252 0.01288087
vt 0.5992596 0.01292151
vt 0.5993862 0.01286734
vt 0.599252 0.01288087
vt 0.5968474 0.01287311
vt 0.5968398 0.01291365
vt 0.5992596 0.01292151
vt 0.5968474 0.01287311
vt 0.5967445 0.01282961
vt 0.5967146 0.01285947
vt 0.5968398 0.01291365
vt 0.5967445 0.01282961
vt 0.596701 0.01272533
vt 0.5966603 0.0127328
vt 0.5967146 0.01285947
vt 0.596701 0.01272533
vt 0.5967088 0.01032059
vt 0.5966683 0.01031296
vt 0.5966603 0.0127328
vt 0.5967088 0.01032059
vt 0.5967523 0.01021762
vt 0.5967224 0.01018773
vt 0.5966683 0.01031296
vt 0.5967523 0.01021762
vt 0.5968567 0.0101742
vt 0.5968491 0.01013358
vt 0.5967224 0.01018773
vt 0.5968567 0.0101742
vt 0.5992613 0.01018198
vt 0.5992689 0.01014142
vt 0.5968491 0.01013358
vt 0.5992613 0.01018198
vt 0.5993642 0.01022546
vt 0.5993941 0.0101956
vt 0.5992689 0.01014142
vt 0.5993642 0.01022546
vt 0.5994077 0.01032974
vt 0.5994484 0.01032226
vt 0.5993941 0.0101956
vt 0.5968239 0.03553281
vt 0.5968239 0.03611479
vt 0.5967008 0.03611479
vt 0.5967008 0.03553281
vt 0.5967008 0.03553281
vt 0.5967008 0.03611479
vt 0.5966498 0.03611479
vt 0.5966498 0.03553281
vt 0.5966498 0.03553281
vt 0.5966498 0.03611479
vt 0.5967008 0.03611479
vt 0.5967008 0.03553281
vt 0.5967008 0.03553281
vt 0.5967008 0.03611479
vt 0.5968239 0.03611479
vt 0.5968239 0.03553281
vt 0.5992849 0.03553281
vt 0.5992849 0.03611479
vt 0.599408 0.03611479
vt 0.599408 0.03553281
vt 0.599408 0.03553281
vt 0.599408 0.03611479
vt 0.5994589 0.03611479
vt 0.5994589 0.03553281
vt 0.5994589 0.03553281
vt 0.5994589 0.03611479
vt 0.599408 0.03611479
vt 0.599408 0.03553281
vt 0.599408 0.03553281
vt 0.599408 0.03611479
vt 0.5992849 0.03611479
vt 0.5992849 0.03553281
vt 0.5966498 0.03553281
vt 0.5966498 0.03611479
vt 0.5966498 0.03611479
vt 0.5966498 0.03553281
vt 0.5968239 0.03553281
vt 0.5968239 0.03611479
vt 0.5992849 0.03611479
vt 0.5992849 0.03553281
vt 0.5994589 0.03553281
vt 0.5994589 0.03611479
vt 0.5994589 0.03611479
vt 0.5994589 0.03553281
vt 0.5992849 0.03553281
vt 0.5992849 0.03611479
vt 0.5968239 0.03611479
vt 0.5968239 0.03553281
vt 0.5460584 0.008988304
vt 0.5499933 0.009939095
vt 0.5505821 0.008988304
vt 0.5507782 0.009069545
vt 0.5508595 0.009265659
vt 0.5467318 0.009854442
vt 0.5499087 0.01320067
vt 0.5458623 0.009069545
vt 0.5457811 0.009265659
vt 0.5457811 0.01378938
vt 0.5508595 0.01378938
vt 0.5507782 0.01398554
vt 0.5505821 0.01406678
vt 0.5466471 0.01311597
vt 0.5458623 0.01398554
vt 0.5460584 0.01406678
vn 0.05649227 -0.06004266 0.9965959
vn 0.05649227 -0.06004266 0.9965959
vn 0.05649227 -0.06004266 0.9965959
vn 0.04895014 -0.05309637 0.9973889
vn 0.04895014 -0.05309637 0.9973889
vn -0.0005610554 0.9156207 0.4020427
vn -0.0005610553 0.9156207 0.4020427
vn -0.0005610554 0.9156207 0.4020427
vn -0.0005610553 0.9156207 0.4020427
vn -0.6385086 0.6387082 0.42937
vn -0.6385086 0.6387082 0.42937
vn -0.6385086 0.6387082 0.42937
vn -0.6385086 0.6387082 0.42937
vn -0.9148509 -0.003820317 0.4037738
vn -0.9148509 -0.003820317 0.4037738
vn -0.9148509 -0.003820317 0.4037738
vn -0.9148509 -0.003820317 0.4037738
vn 0.7245016 0.5380704 0.4307873
vn 0.7245016 0.5380704 0.4307873
vn 0.7245016 0.5380704 0.4307873
vn 0.7245016 0.5380704 0.4307873
vn -0.6171258 -0.6559665 0.4345844
vn -0.6171259 -0.6559665 0.4345844
vn -0.6171258 -0.6559665 0.4345844
vn -0.6171258 -0.6559665 0.4345844
vn 0.9149314 -0.002339945 0.4036025
vn 0.9149314 -0.002339945 0.4036025
vn 0.9149314 -0.002339945 0.4036024
vn 0.9149314 -0.002339945 0.4036024
vn 0.0007712956 -0.9157279 0.4017982
vn 0.0007712956 -0.9157279 0.4017982
vn 0.0007712956 -0.9157279 0.4017982
vn 0.0007712956 -0.9157279 0.4017983
vn 0.6377621 -0.6375413 0.4322045
vn 0.6377621 -0.6375413 0.4322045
vn 0.6377621 -0.6375413 0.4322045
vn 0.6377621 -0.6375413 0.4322045
vn -0.7071066 0.7071069 0
vn -0.7071066 0.7071069 0
vn -0.7071066 0.7071069 0
vn -0.7071066 0.7071069 0
vn 0.7433178 0.6689037 0.00682085
vn 0.7433178 0.6689037 0.00682085
vn 0.7433178 0.6689037 0.00682085
vn 0.7433178 0.6689037 0.00682085
vn -0.9999928 -0.001505494 0.003490986
vn -0.9999928 -0.001505494 0.003490986
vn -0.9999928 -0.001505494 0.003490986
vn -0.9999928 -0.001505494 0.003490986
vn 0 1 0
vn 0 1 0
vn 0 1 0
vn 0 1 0
vn -0.7065112 -0.7074431 0.01913843
vn -0.7065111 -0.7074431 0.01913843
vn -0.7065111 -0.7074431 0.01913843
vn -0.7065112 -0.7074431 0.01913843
vn 0.7069746 -0.7069775 0.01922612
vn 0.7069746 -0.7069775 0.01922612
vn 0.7069746 -0.7069776 0.01922612
vn 0.7069746 -0.7069775 0.01922612
vn 0 -0.9998153 0.0192231
vn 0 -0.9998153 0.0192231
vn 0 -0.9998153 0.0192231
vn 0 -0.9998153 0.0192231
vn 0.9998168 -3.768423E-05 0.01913834
vn 0.9998168 -3.768423E-05 0.01913834
vn 0.9998168 -3.768423E-05 0.01913834
vn 0.9998168 -3.768423E-05 0.01913834
vn -0.339555 0.3397155 0.877095
vn -0.339555 0.3397155 0.877095
vn -0.339555 0.3397155 0.877095
vn -0.339555 0.3397155 0.877095
vn -0.000882222 0.600123 0.7999073
vn -0.0008822219 0.600123 0.7999073
vn -0.000882222 0.600123 0.7999073
vn -0.0008822219 0.600123 0.7999073
vn -0.602573 -0.004156732 0.7980529
vn -0.602573 -0.004156732 0.7980529
vn -0.602573 -0.004156732 0.7980529
vn -0.6025731 -0.004156732 0.7980529
vn 0.4259961 0.2492703 0.8697079
vn 0.4259961 0.2492703 0.8697078
vn 0.4259961 0.2492703 0.8697079
vn 0.4259961 0.2492703 0.8697078
vn -0.3011581 -0.3867005 0.8716459
vn -0.301158 -0.3867006 0.8716459
vn -0.301158 -0.3867005 0.8716459
vn -0.301158 -0.3867005 0.8716459
vn 0.3441631 -0.3439796 0.8736302
vn 0.3441631 -0.3439796 0.8736302
vn 0.3441631 -0.3439796 0.8736302
vn 0.3441632 -0.3439796 0.8736302
vn 0.001186524 -0.6076593 0.7941969
vn 0.001186524 -0.6076593 0.7941969
vn 0.001186524 -0.6076593 0.7941969
vn 0.001186524 -0.6076593 0.7941969
vn 0.6063826 -0.004279552 0.7951615
vn 0.6063826 -0.004279552 0.7951615
vn 0.6063826 -0.004279552 0.7951615
vn 0.6063827 -0.004279552 0.7951615
vn 0.000149648 -0.007307383 0.9999733
vn 0.003839755 -0.003847005 0.9999852
vn 0.003839755 -0.003847005 0.9999852
vn 0.003839755 -0.003847005 0.9999852
vn 0.003592005 -0.004110518 0.9999851
vn 3.609919E-05 -0.007407194 0.9999726
vn 0.003806689 -0.003829906 0.9999855
vn 0.003806689 -0.003829906 0.9999855
vn 0.003662319 -0.003982456 0.9999853
vn 0.9996632 0.02594927 0
vn 0.9996632 0.02594927 0
vn 0.9996632 0.02594927 0
vn 0.9996632 0.02594927 0
vn -0.02594918 0.9996632 0
vn -0.02594918 0.9996632 0
vn -0.02594918 0.9996632 0
vn -0.02594918 0.9996632 0
vn -0.9996632 -0.02594916 0
vn -0.9996632 -0.02594917 0
vn -0.9996632 -0.02594916 0
vn -0.9996632 -0.02594916 0
vn 0.02594918 -0.9996632 0
vn 0.02594918 -0.9996632 0
vn 0.02594918 -0.9996632 0
vn 0.02594918 -0.9996632 0
vn 0 0 1
vn 0 0 1
vn 0 0 1
vn 0 0 1
vn 0 0.8478457 0.5302429
vn 0 0.8478457 0.5302429
vn 0 0.8478457 0.5302429
vn 0 0.8478457 0.5302429
vn -0.3170075 0.765325 0.5601642
vn -0.3170075 0.765325 0.5601642
vn -0.3170075 0.765325 0.5601642
vn -0.3170075 0.765325 0.5601642
vn -0.7653269 0.3170103 0.56016
vn -0.7653269 0.3170103 0.56016
vn -0.7653269 0.3170104 0.56016
vn -0.7653269 0.3170103 0.56016
vn -0.84785 0 0.5302362
vn -0.84785 0 0.5302362
vn -0.84785 0 0.5302362
vn -0.84785 0 0.5302362
vn -0.7653286 -0.3170094 0.5601581
vn -0.7653286 -0.3170094 0.5601581
vn -0.7653286 -0.3170094 0.5601581
vn -0.7653286 -0.3170094 0.5601581
vn -0.3170094 -0.7653292 0.5601573
vn -0.3170094 -0.7653292 0.5601573
vn -0.3170094 -0.7653292 0.5601573
vn -0.3170095 -0.7653292 0.5601573
vn 0 -0.84785 0.5302362
vn 0 -0.84785 0.5302362
vn 0 -0.84785 0.5302362
vn 0 -0.84785 0.5302362
vn 0.3170089 -0.765328 0.5601591
vn 0.317009 -0.765328 0.5601591
vn 0.317009 -0.765328 0.5601591
vn 0.317009 -0.765328 0.5601591
vn 0.7653273 -0.3170104 0.5601594
vn 0.7653273 -0.3170104 0.5601594
vn 0.7653273 -0.3170104 0.5601594
vn 0.7653273 -0.3170104 0.5601594
vn 0.847848 0 0.5302393
vn 0.847848 0 0.5302393
vn 0.847848 0 0.5302393
vn 0.847848 0 0.5302393
vn 0.7653254 0.3170089 0.5601628
vn 0.7653254 0.3170089 0.5601627
vn 0.7653254 0.3170089 0.5601628
vn 0.7653254 0.3170089 0.5601628
vn 0.3170071 0.7653256 0.5601634
vn 0.3170072 0.7653257 0.5601634
vn 0.3170072 0.7653257 0.5601635
vn 0.3170071 0.7653257 0.5601634
vn -0.3826836 0.9238794 0
vn -0.3826837 0.9238794 0
vn -0.3826836 0.9238794 0
vn -0.3826836 0.9238794 0
vn -0.9238796 0.3826833 0
vn -0.9238796 0.3826833 0
vn -0.9238796 0.3826833 0
vn -0.9238796 0.3826833 0
vn -0.9238794 -0.3826837 0
vn -0.9238794 -0.3826837 0
vn -0.9238794 -0.3826837 0
vn -0.9238794 -0.3826837 0
vn -0.3826831 -0.9238797 0
vn -0.3826831 -0.9238797 0
vn -0.3826831 -0.9238797 0
vn -0.3826831 -0.9238797 0
vn 0.3826833 -0.9238795 0
vn 0.3826833 -0.9238796 0
vn 0.3826833 -0.9238796 0
vn 0.3826833 -0.9238795 0
vn 0.9238792 -0.3826841 0
vn 0.9238792 -0.3826841 0
vn 0.9238792 -0.3826841 0
vn 0.9238792 -0.3826841 0
vn 0.9238792 0.3826841 0
vn 0.9238792 0.3826841 0
vn 0.9238792 0.3826841 0
vn 0.9238792 0.3826841 0
vn 0.3826829 0.9238797 0
vn 0.3826829 0.9238797 0
vn 0.3826829 0.9238797 0
vn 0.3826829 0.9238797 0
vn -1 0 0
vn -1 0 0
vn -1 0 0
vn -1 0 0
vn 0 -1 0
vn 0 -1 0
vn 0 -1 0
vn 0 -1 0
vn 1 0 0
vn 1 0 0
vn 1 0 0
vn 1 0 0
vn 0 1 0
vn 0 1 0
vn 0 1 0
vn 0 1 0
vn 0 0 1
vn 0 0 1
vn 0 0 1
vn 0 0 1
vn 0 0 1
vn 0 0 1
vn 0 0 1
vn 0 0 1
vn 0 0 1
vn 0 0 1
vn 0 0 1
vn 0 0 1
vn 0 0 1
vn 0 0 1
vn 0 0 1
vn 0 0 1
g Color_11_0
f 3/3/3 2/2/2 1/1/1
f 5/5/5 2/2/2 4/4/4
f 8/8/8 7/7/7 6/6/6
f 9/9/9 8/8/8 6/6/6
f 12/12/12 11/11/11 10/10/10
f 13/13/13 12/12/12 10/10/10
f 16/16/16 15/15/15 14/14/14
f 17/17/17 16/16/16 14/14/14
f 20/20/20 19/19/19 18/18/18
f 21/21/21 20/20/20 18/18/18
f 24/24/24 23/23/23 22/22/22
f 25/25/25 24/24/24 22/22/22
f 28/28/28 27/27/27 26/26/26
f 29/29/29 28/28/28 26/26/26
f 32/32/32 31/31/31 30/30/30
f 33/33/33 32/32/32 30/30/30
f 36/36/36 35/35/35 34/34/34
f 37/37/37 36/36/36 34/34/34
f 40/40/40 39/39/39 38/38/38
f 41/41/41 40/40/40 38/38/38
f 44/44/44 43/43/43 42/42/42
f 45/45/45 44/44/44 42/42/42
f 48/48/48 47/47/47 46/46/46
f 49/49/49 48/48/48 46/46/46
f 52/52/52 51/51/51 50/50/50
f 53/53/53 52/52/52 50/50/50
f 56/56/56 55/55/55 54/54/54
f 57/57/57 56/56/56 54/54/54
f 60/60/60 59/59/59 58/58/58
f 61/61/61 60/60/60 58/58/58
f 64/64/64 63/63/63 62/62/62
f 65/65/65 64/64/64 62/62/62
f 68/68/68 67/67/67 66/66/66
f 69/69/69 68/68/68 66/66/66
f 72/72/72 71/71/71 70/70/70
f 73/73/73 72/72/72 70/70/70
f 76/76/76 75/75/75 74/74/74
f 77/77/77 76/76/76 74/74/74
f 80/80/80 79/79/79 78/78/78
f 81/81/81 80/80/80 78/78/78
f 84/84/84 83/83/83 82/82/82
f 85/85/85 84/84/84 82/82/82
f 88/88/88 87/87/87 86/86/86
f 89/89/89 88/88/88 86/86/86
f 92/92/92 91/91/91 90/90/90
f 93/93/93 92/92/92 90/90/90
f 96/96/96 95/95/95 94/94/94
f 97/97/97 96/96/96 94/94/94
f 100/100/100 99/99/99 98/98/98
f 101/101/101 100/100/100 98/98/98
f 104/104/104 103/103/103 102/102/102
f 105/105/105 103/103/103 104/104/104
f 106/106/106 103/103/103 105/105/105
f 108/108/108 103/103/103 107/107/107
f 109/109/109 103/103/103 108/108/108
f 110/110/110 103/103/103 109/109/109
f 113/113/113 112/112/112 111/111/111
f 114/114/114 113/113/113 111/111/111
f 117/117/117 116/116/116 115/115/115
f 118/118/118 117/117/117 115/115/115
f 121/121/121 120/120/120 119/119/119
f 122/122/122 121/121/121 119/119/119
f 125/125/125 124/124/124 123/123/123
f 126/126/126 125/125/125 123/123/123
f 129/129/129 128/128/128 127/127/127
f 130/130/130 129/129/129 127/127/127
f 133/133/133 132/132/132 131/131/131
f 134/134/134 133/133/133 131/131/131
f 137/137/137 136/136/136 135/135/135
f 138/138/138 137/137/137 135/135/135
f 141/141/141 140/140/140 139/139/139
f 142/142/142 141/141/141 139/139/139
f 145/145/145 144/144/144 143/143/143
f 146/146/146 145/145/145 143/143/143
f 149/149/149 148/148/148 147/147/147
f 150/150/150 149/149/149 147/147/147
f 153/153/153 152/152/152 151/151/151
f 154/154/154 153/153/153 151/151/151
f 157/157/157 156/156/156 155/155/155
f 158/158/158 157/157/157 155/155/155
f 161/161/161 160/160/160 159/159/159
f 162/162/162 161/161/161 159/159/159
f 165/165/165 164/164/164 163/163/163
f 166/166/166 165/165/165 163/163/163
f 169/169/169 168/168/168 167/167/167
f 170/170/170 169/169/169 167/167/167
f 173/173/173 172/172/172 171/171/171
f 174/174/174 173/173/173 171/171/171
f 177/177/177 176/176/176 175/175/175
f 178/178/178 177/177/177 175/175/175
f 181/181/181 180/180/180 179/179/179
f 182/182/182 181/181/181 179/179/179
f 185/185/185 184/184/184 183/183/183
f 186/186/186 185/185/185 183/183/183
f 189/189/189 188/188/188 187/187/187
f 190/190/190 189/189/189 187/187/187
f 193/193/193 192/192/192 191/191/191
f 194/194/194 193/193/193 191/191/191
f 197/197/197 196/196/196 195/195/195
f 198/198/198 197/197/197 195/195/195
f 201/201/201 200/200/200 199/199/199
f 202/202/202 201/201/201 199/199/199
f 205/205/205 204/204/204 203/203/203
f 206/206/206 205/205/205 203/203/203
f 209/209/209 208/208/208 207/207/207
f 210/210/210 209/209/209 207/207/207
f 213/213/213 212/212/212 211/211/211
f 214/214/214 213/213/213 211/211/211
f 217/217/217 216/216/216 215/215/215
f 218/218/218 217/217/217 215/215/215
f 221/221/221 220/220/220 219/219/219
f 222/222/222 221/221/221 219/219/219
f 225/225/225 224/224/224 223/223/223
f 226/226/226 225/225/225 223/223/223
f 229/229/229 228/228/228 227/227/227
f 230/230/230 228/228/228 229/229/229
f 231/231/231 228/228/228 230/230/230
f 228/228/228 232/232/232 227/227/227
f 233/233/233 228/228/228 231/231/231
f 227/227/227 232/232/232 234/234/234
f 234/234/234 232/232/232 235/235/235
f 235/235/235 232/232/232 236/236/236
f 237/237/237 233/233/233 231/231/231
f 238/238/238 233/233/233 237/237/237
f 239/239/239 233/233/233 238/238/238
f 232/232/232 240/240/240 236/236/236
f 240/240/240 233/233/233 239/239/239
f 236/236/236 240/240/240 241/241/241
f 242/242/242 240/240/240 239/239/239
f 241/241/241 240/240/240 242/242/242
