g Color_10
v -4.396415 -1.77059 10.99353
v -4.354212 -2.144136 11.15378
v -3.861902 -2.144135 10.51646
v -4.396415 -1.77059 10.99353
v -3.861902 -2.144135 10.51646
v -4.512417 -2.144136 10.85377
v 3.329045 -2.14413 4.200577
v 2.746789 -1.505936 3.91046
v 2.791662 -2.078616 4.337508
v 3.329045 -2.14413 4.200577
v 2.695504 -2.11231 3.72236
v 2.746789 -1.505936 3.91046
v 5.767834 2.144135 7.490057
v 5.767837 -2.144129 7.490056
v 5.145057 -2.103429 10.00596
v 5.145054 2.103434 10.00596
v 5.145054 2.103434 10.00596
v 5.145057 -2.103429 10.00596
v 3.574983 -2.10343 11.97477
v 3.57498 2.103432 11.97477
v 1.306162 -2.103432 13.06738
v 1.306159 2.10343 13.06738
v -1.283465 -2.144135 13.11328
v -1.283467 2.144131 13.11328
v -3.596188 -2.144136 11.99953
v -3.596191 2.144129 11.99953
v -4.354212 -2.144136 11.15378
v -4.396415 -1.77059 10.99353
v -5.196644 2.144128 9.992628
v -5.196641 -2.144137 9.992627
v -4.512417 -2.144136 10.85377
v -5.196644 2.144128 9.992628
v -5.196641 -2.144137 9.992627
v -5.767837 -2.144137 7.490057
v -5.76784 2.144128 7.490057
v 5.145054 2.103434 10.00596
v 2.474852 2.103432 8.908953
v 2.746787 2.144133 7.490056
v 5.767834 2.144135 7.490057
v 3.57498 2.103432 11.97477
v 2.474852 2.103432 8.908953
v 5.145054 2.103434 10.00596
v 1.727144 2.103431 9.846549
v 1.306159 2.10343 13.06738
v 0.6466738 2.10343 10.36688
v -1.283467 2.144131 13.11328
v 0.6466738 2.10343 10.36688
v 1.306159 2.10343 13.06738
v -0.6112211 2.144131 10.36053
v -3.596191 2.144129 11.99953
v -1.712598 2.14413 9.83013
v -5.196644 2.144128 9.992628
v -2.474776 2.14413 8.874392
v -5.76784 2.144128 7.490057
v -2.746793 2.14413 7.490057
v 5.767837 -2.144129 7.490056
v 2.74679 -2.144131 7.490056
v 2.474855 -2.10343 8.908952
v 5.145057 -2.103429 10.00596
v 1.727147 -2.103431 9.846548
v 3.574983 -2.10343 11.97477
v 0.6466765 -2.103431 10.36687
v 1.306162 -2.103432 13.06738
v 1.306162 -2.103432 13.06738
v 0.6466765 -2.103431 10.36687
v -0.6112183 -2.144134 10.36052
v -1.283465 -2.144135 13.11328
v -1.712595 -2.144134 9.83013
v -3.596188 -2.144136 11.99953
v -3.861902 -2.144135 10.51646
v -4.354212 -2.144136 11.15378
v -2.474772 -2.144135 8.874391
v -4.512417 -2.144136 10.85377
v -5.196641 -2.144137 9.992627
v -2.74679 -2.144135 7.490056
v -5.767837 -2.144137 7.490057
v 5.767837 -2.144129 7.490056
v 5.767834 2.144135 7.490057
v 5.767834 2.144137 9.536741E-07
v 5.767837 -2.144128 -1.769095E-13
v -5.767837 -2.144137 7.490057
v -5.767837 -2.144135 9.536745E-07
v -5.76784 2.14413 1.907349E-06
v -5.76784 2.144128 7.490057
v 2.746787 2.144133 7.490056
v 2.746787 2.144135 2.384186E-06
v 5.767834 2.144137 9.536741E-07
v 5.767834 2.144135 7.490057
v -5.76784 2.144128 7.490057
v -5.76784 2.14413 1.907349E-06
v -2.746793 2.144131 2.384186E-06
v -2.746793 2.14413 7.490057
v -2.74679 -2.144135 7.490056
v -2.74679 -2.144134 1.907349E-06
v -5.767837 -2.144135 9.536745E-07
v -5.767837 -2.144137 7.490057
v -2.74679 -2.144134 1.907349E-06
v -2.746793 2.14413 7.490057
v -2.746793 2.144131 2.384186E-06
v -2.74679 -2.144135 7.490056
v -2.474776 2.14413 8.874392
v -2.474772 -2.144135 8.874391
v -1.712598 2.14413 9.83013
v -1.712595 -2.144134 9.83013
v -0.6112211 2.144131 10.36053
v -0.6112183 -2.144134 10.36052
v 0.6466738 2.10343 10.36688
v 0.6466765 -2.103431 10.36687
v 1.727144 2.103431 9.846549
v 1.727147 -2.103431 9.846548
v 2.474852 2.103432 8.908953
v 2.474855 -2.10343 8.908952
v 2.746787 2.144133 7.490056
v 2.74679 -2.144131 7.490056
v 2.791662 -2.078616 4.337508
v 2.746789 -1.505936 3.91046
v 2.746787 2.144135 2.384186E-06
v 2.74679 -2.144131 -8.424876E-14
v 2.695504 -2.11231 3.72236
v 2.74679 -2.144131 7.490056
v 3.329045 -2.14413 4.200577
v 2.791662 -2.078616 4.337508
v 5.767837 -2.144129 7.490056
v 5.767837 -2.144128 -1.769095E-13
v 3.329045 -2.14413 4.200577
v 2.695504 -2.11231 3.72236
v 2.74679 -2.144131 -8.424876E-14
vt 0.4371839 0.9748214
vt 0.4371966 0.9743394
vt 0.4373451 0.9743394
vt 0.4584349 0.9573408
vt 0.4585961 0.9568587
vt 0.4584 0.9568587
vt 0.4395141 0.9743394
vt 0.4393384 0.975163
vt 0.439352 0.9744239
vt 0.4607651 0.9568587
vt 0.460574 0.9568998
vt 0.4605895 0.9576824
vt 0.4660806 0.9841284
vt 0.4660806 0.9785939
vt 0.4658928 0.9786465
vt 0.4658928 0.9840759
vt 0.4822386 0.9835952
vt 0.4822386 0.9781657
vt 0.481765 0.9781657
vt 0.481765 0.9835952
vt 0.4810807 0.9781657
vt 0.4810807 0.9835952
vt 0.4802996 0.9781132
vt 0.4802996 0.9836477
vt 0.479602 0.9781132
vt 0.479602 0.9836477
vt 0.4793734 0.9781132
vt 0.4793606 0.9785953
vt 0.4791193 0.9836477
vt 0.4791193 0.9781132
vt 0.4793257 0.9781132
vt 0.4660729 0.9841284
vt 0.4660729 0.9785939
vt 0.4659006 0.9785939
vt 0.4659006 0.9841284
vt 0.4638412 0.9822693
vt 0.4630358 0.9822693
vt 0.4631178 0.9823219
vt 0.464029 0.9823219
vt 0.4633676 0.9822693
vt 0.4630358 0.9822693
vt 0.4638412 0.9822693
vt 0.4628102 0.9822693
vt 0.4626833 0.9822693
vt 0.4624843 0.9822693
vt 0.4619021 0.9823219
vt 0.4624843 0.9822693
vt 0.4626833 0.9822693
vt 0.4621049 0.9823219
vt 0.4612046 0.9823219
vt 0.4617727 0.9823219
vt 0.4607219 0.9823219
vt 0.4615428 0.9823219
vt 0.4605495 0.9823219
vt 0.4614608 0.9823219
vt 0.464029 0.9822534
vt 0.4631178 0.9822534
vt 0.4630358 0.9823059
vt 0.4638412 0.9823059
vt 0.4628102 0.9823059
vt 0.4633676 0.9823059
vt 0.4624843 0.9823059
vt 0.4626833 0.9823059
vt 0.4626833 0.9823059
vt 0.4624843 0.9823059
vt 0.4621049 0.9822534
vt 0.4619021 0.9822534
vt 0.4617727 0.9822534
vt 0.4612046 0.9822534
vt 0.4611244 0.9822534
vt 0.4609759 0.9822534
vt 0.4615428 0.9822534
vt 0.4609282 0.9822534
vt 0.4607219 0.9822534
vt 0.4614608 0.9822534
vt 0.4605495 0.9822534
vt 0.4659867 0.9785939
vt 0.4659867 0.9841284
vt 0.4659867 0.9841284
vt 0.4659867 0.9785939
vt 0.4659867 0.9785939
vt 0.4659867 0.9785939
vt 0.4659867 0.9841284
vt 0.4659867 0.9841284
vt 0.4618337 0.9822956
vt 0.4618337 0.9822956
vt 0.4627449 0.9822956
vt 0.4627449 0.9822956
vt 0.4605495 0.9823219
vt 0.4605495 0.9823219
vt 0.4614608 0.9823219
vt 0.4614608 0.9823219
vt 0.4614608 0.9822534
vt 0.4614608 0.9822534
vt 0.4605495 0.9822534
vt 0.4605495 0.9822534
vt 0.4342539 0.9733111
vt 0.4342539 0.9788456
vt 0.4342539 0.9788456
vt 0.4342539 0.9733111
vt 0.4343359 0.9788456
vt 0.4343359 0.9733111
vt 0.4345658 0.9788456
vt 0.4345658 0.9733111
vt 0.434898 0.9788456
vt 0.434898 0.9733111
vt 0.4352774 0.9787931
vt 0.4352774 0.9733636
vt 0.4356034 0.9787931
vt 0.4356034 0.9733636
vt 0.4358289 0.9787931
vt 0.4358289 0.9733636
vt 0.4359109 0.9788456
vt 0.4359109 0.9733111
vt 0.4359244 0.9733956
vt 0.4359109 0.9741347
vt 0.4359109 0.9788456
vt 0.4359109 0.9733111
vt 0.4358954 0.9733521
vt 0.4631178 0.9822534
vt 0.4632934 0.9822534
vt 0.4631313 0.9823379
vt 0.464029 0.9822534
vt 0.464029 0.9822534
vt 0.4632934 0.9822534
vt 0.4631023 0.9822944
vt 0.4631178 0.9822534
vn -0.7465653 -0.3317518 -0.5766984
vn -0.7465653 -0.3317518 -0.5766984
vn -0.7465653 -0.3317518 -0.5766984
vn 0.4157786 -0.4291333 0.8018559
vn 0.4157785 -0.4291333 0.8018559
vn 0.4157786 -0.4291333 0.8018559
vn -0.2661963 -0.5895407 -0.7626148
vn -0.2661962 -0.5895407 -0.7626147
vn -0.2661962 -0.5895407 -0.7626148
vn -0.5974621 -0.1910579 0.7788042
vn -0.5974621 -0.1910579 0.7788042
vn -0.5974621 -0.1910579 0.7788042
vn 0.9927225 0 0.1204243
vn 0.9927225 0 0.1204242
vn 0.8974502 0 0.4411159
vn 0.8974502 0 0.4411158
vn 0.8974502 0 0.4411158
vn 0.8974502 0 0.4411159
vn 0.6234897 0 0.7818315
vn 0.6234898 0 0.7818315
vn 0.2300918 0 0.9731689
vn 0.2300917 0 0.9731689
vn -0.215039 0 0.9766054
vn -0.215039 0 0.9766054
vn -0.622305 0.007407939 0.7827399
vn -0.6232533 0.001329957 0.7820189
vn -0.7799 0.01444921 0.6257373
vn -0.7807076 0.006716241 0.6248603
vn -0.9009238 -9.254451E-05 0.4339774
vn -0.900745 0.0003697301 0.4343481
vn -0.781188 0.0007215366 0.6242954
vn -0.9009238 -9.254451E-05 0.4339774
vn -0.900745 0.0003697301 0.4343481
vn -0.9937122 0 0.1119645
vn -0.9937122 0 0.1119645
vn -0.002006466 0.9999439 0.01040615
vn -0.001866759 0.9999514 0.009681332
vn -0.002018933 0.9999431 0.0104711
vn -0.00175057 0.9999573 0.009078836
vn 0 1 0
vn -0.001866759 0.9999514 0.009681332
vn -0.002006466 0.9999439 0.01040615
vn 0 1 0
vn 0.01052775 0.9999446 2.474112E-05
vn 0.01067993 0.999943 2.509573E-05
vn 0.01038701 0.9999461 2.427354E-05
vn 0.01067993 0.999943 2.509573E-05
vn 0.01052775 0.9999446 2.474112E-05
vn 0.01065049 0.9999433 2.489093E-05
vn 0 1 0
vn 0 1 0
vn 0 1 0
vn 0 1 0
vn 0 1 0
vn 0 1 0
vn -0.007713865 -0.9999381 0.008023275
vn -0.01072573 -0.9999022 0.00897653
vn -0.001865462 -0.9999515 0.009681045
vn -0.002005178 -0.9999439 0.01040588
vn 0 -1 0
vn 0 -1 0
vn 0.01068112 -0.999943 2.46986E-05
vn 0.01052894 -0.9999446 2.434262E-05
vn 0.01052894 -0.9999446 2.434262E-05
vn 0.01068112 -0.999943 2.46986E-05
vn 0.01065169 -0.9999433 2.465103E-05
vn 0.01038821 -0.9999461 2.403522E-05
vn 0 -1 0
vn 0 -1 0
vn 0 -1 0
vn 0 -1 0
vn 0 -1 0
vn 0 -1 0
vn 0 -1 0
vn 0 -1 0
vn 0 -1 0
vn 0.9927225 0 0.1204242
vn 0.9927225 0 0.1204243
vn 1 0 0
vn 1 0 0
vn -0.9937122 0 0.1119645
vn -1 0 0
vn -1 0 0
vn -0.9937122 0 0.1119645
vn -0.002018933 0.9999431 0.0104711
vn 0 1 0
vn 0 1 0
vn -0.00175057 0.9999573 0.009078836
vn 0 1 0
vn 0 1 0
vn 0 1 0
vn 0 1 0
vn 0 -1 0
vn 0 -1 0
vn 0 -1 0
vn 0 -1 0
vn 1 0 0
vn 0.995298 0 -0.09686029
vn 1 0 0
vn 0.995298 0 -0.09686028
vn 0.9074541 0 -0.4201513
vn 0.9074541 0 -0.4201513
vn 0.6234894 0 -0.7818318
vn 0.6234894 0 -0.7818318
vn 0.2272673 0 -0.9738324
vn 0.2272673 0 -0.9738324
vn -0.2177631 0 -0.9760016
vn -0.2177631 0 -0.9760016
vn -0.6234897 0 -0.7818315
vn -0.6234897 0 -0.7818315
vn -0.9093469 0 -0.4160387
vn -0.9093469 0 -0.4160387
vn -0.9955603 -0.00234742 -0.09409682
vn -0.9954522 -0.004721588 -0.09514593
vn -0.9999547 -0.009378437 -0.001671919
vn -0.9999988 0.0009574036 -0.001190861
vn -0.9999845 0.00550217 -0.0008980841
vn -0.999943 0.01054274 -0.001720717
vn -0.999943 0.01054274 -0.001720717
vn -0.01072573 -0.9999022 0.00897653
vn -0.009122647 -0.999958 -0.0008610829
vn -0.01853353 -0.9998229 -0.003280753
vn -0.007713865 -0.9999381 0.008023275
vn -0.005897277 -0.9999824 0.0008174905
vn -0.009122647 -0.999958 -0.0008610829
vn -0.008866652 -0.9999599 0.001229148
vn -0.008866652 -0.9999599 0.001229148
g Color_10_0
f 3/3/3 2/2/2 1/1/1
f 6/6/6 5/5/5 4/4/4
f 9/9/9 8/8/8 7/7/7
f 12/12/12 11/11/11 10/10/10
f 15/15/15 14/14/14 13/13/13
f 16/16/16 15/15/15 13/13/13
f 19/19/19 18/18/18 17/17/17
f 20/20/20 19/19/19 17/17/17
f 21/21/21 19/19/19 20/20/20
f 22/22/22 21/21/21 20/20/20
f 23/23/23 21/21/21 22/22/22
f 24/24/24 23/23/23 22/22/22
f 25/25/25 23/23/23 24/24/24
f 26/26/26 25/25/25 24/24/24
f 27/27/27 25/25/25 26/26/26
f 28/28/28 27/27/27 26/26/26
f 29/29/29 28/28/28 26/26/26
f 28/28/28 29/29/29 30/30/30
f 31/31/31 28/28/28 30/30/30
f 34/34/34 33/33/33 32/32/32
f 35/35/35 34/34/34 32/32/32
f 38/38/38 37/37/37 36/36/36
f 39/39/39 38/38/38 36/36/36
f 42/42/42 41/41/41 40/40/40
f 41/41/41 43/43/43 40/40/40
f 40/40/40 43/43/43 44/44/44
f 43/43/43 45/45/45 44/44/44
f 48/48/48 47/47/47 46/46/46
f 47/47/47 49/49/49 46/46/46
f 46/46/46 49/49/49 50/50/50
f 49/49/49 51/51/51 50/50/50
f 50/50/50 51/51/51 52/52/52
f 51/51/51 53/53/53 52/52/52
f 52/52/52 53/53/53 54/54/54
f 53/53/53 55/55/55 54/54/54
f 58/58/58 57/57/57 56/56/56
f 59/59/59 58/58/58 56/56/56
f 60/60/60 58/58/58 59/59/59
f 61/61/61 60/60/60 59/59/59
f 62/62/62 60/60/60 61/61/61
f 63/63/63 62/62/62 61/61/61
f 66/66/66 65/65/65 64/64/64
f 67/67/67 66/66/66 64/64/64
f 68/68/68 66/66/66 67/67/67
f 69/69/69 68/68/68 67/67/67
f 70/70/70 68/68/68 69/69/69
f 71/71/71 70/70/70 69/69/69
f 72/72/72 68/68/68 70/70/70
f 72/72/72 70/70/70 73/73/73
f 74/74/74 72/72/72 73/73/73
f 75/75/75 72/72/72 74/74/74
f 76/76/76 75/75/75 74/74/74
f 79/79/79 78/78/78 77/77/77
f 80/80/80 79/79/79 77/77/77
f 83/83/83 82/82/82 81/81/81
f 84/84/84 83/83/83 81/81/81
f 87/87/87 86/86/86 85/85/85
f 88/88/88 87/87/87 85/85/85
f 91/91/91 90/90/90 89/89/89
f 92/92/92 91/91/91 89/89/89
f 95/95/95 94/94/94 93/93/93
f 96/96/96 95/95/95 93/93/93
f 99/99/99 98/98/98 97/97/97
f 98/98/98 100/100/100 97/97/97
f 98/98/98 101/101/101 100/100/100
f 101/101/101 102/102/102 100/100/100
f 101/101/101 103/103/103 102/102/102
f 103/103/103 104/104/104 102/102/102
f 103/103/103 105/105/105 104/104/104
f 105/105/105 106/106/106 104/104/104
f 105/105/105 107/107/107 106/106/106
f 107/107/107 108/108/108 106/106/106
f 107/107/107 109/109/109 108/108/108
f 109/109/109 110/110/110 108/108/108
f 109/109/109 111/111/111 110/110/110
f 111/111/111 112/112/112 110/110/110
f 111/111/111 113/113/113 112/112/112
f 113/113/113 114/114/114 112/112/112
f 114/114/114 113/113/113 115/115/115
f 113/113/113 116/116/116 115/115/115
f 113/113/113 117/117/117 116/116/116
f 116/116/116 117/117/117 118/118/118
f 119/119/119 116/116/116 118/118/118
f 122/122/122 121/121/121 120/120/120
f 121/121/121 123/123/123 120/120/120
f 125/125/125 124/124/124 123/123/123
f 124/124/124 125/125/125 126/126/126
f 127/127/127 124/124/124 126/126/126
