g Color_Cloth_01
v 7.88334E-06 14.2911 12.39394
v 7.913142E-06 16.69493 13.02343
v 7.88334E-06 14.2911 13.02343
v 7.88334E-06 12.29435 11.87105
v 7.88334E-06 12.29435 13.02343
v 7.88334E-06 10.2976 11.87105
v 7.88334E-06 10.2976 13.02343
v 7.853538E-06 8.300855 13.02343
v 7.853538E-06 8.300855 11.87105
v 7.853538E-06 6.304105 13.02343
v 7.853538E-06 6.304105 11.87105
v 7.853538E-06 4.307356 13.02343
v 7.853538E-06 4.307356 11.87105
v 7.853538E-06 4.307358 10.71868
v 7.853538E-06 6.304106 10.71868
v 7.853538E-06 8.300855 10.71867
v 7.88334E-06 10.2976 10.71868
v 7.88334E-06 12.29435 10.71867
v 7.88334E-06 14.2911 10.71867
v 7.88334E-06 14.2911 11.34817
v 7.913142E-06 16.69493 10.71867
v -8.009735 2.948818 4.387602
v -6.019554 2.20255 4.236229
v -7.86648 1.914249 3.015809
v -5.864079 1.185284 3.00134
v -5.863261 1.184611 3.000812
v -7.763439 1.187308 1.558308
v -3.306247 1.668641 4.196832
v -5.766358 0.4382454 1.638168
v -5.729471 0.05763291 0.1117451
v -7.702207 0.8512071 -0.04066389
v -5.740873 0.1331547 -1.571723
v -7.666293 0.9870043 -1.784975
v -5.778992 0.716186 -3.343655
v -7.625038 1.643313 -3.60958
v -5.81813 1.792736 -5.080095
v -7.565125 2.820123 -5.388886
v -3.265259 0.9747822 -4.900225
v -3.19202 -0.01251592 -3.173682
v -1.528859E-05 0.656194 -4.844302
v -3.137573 -0.5185109 -1.422896
v -1.549721E-05 -0.2898839 -3.115451
v 3.265229 0.9747855 -4.900225
v -3.113663 -0.5267738 0.2311525
v -1.469254E-05 -0.7558846 -1.368762
v 3.191988 -0.01251401 -3.173682
v -3.130539 -0.0993712 1.720783
v 5.778962 0.7161912 -3.343654
v 5.818098 1.792741 -5.080094
v -1.41263E-05 -0.723801 0.2772983
v 3.137544 -0.518508 -1.422896
v -3.194393 0.664027 3.03436
v 7.625006 1.643319 -3.609578
v 7.565093 2.82013 -5.388885
v 7.666262 0.9870134 -1.784974
v -1.516938E-05 -0.2630751 1.757154
v -1.633167E-05 0.5060866 3.058999
v -1.633167E-05 1.549626 4.207241
v 3.113633 -0.5267704 0.231152
v 5.74084 0.1331599 -1.571722
v 5.729442 0.05763816 0.1117474
v 7.702175 0.8512157 -0.04066485
v 3.130508 -0.09936929 1.720783
v 3.19436 0.6640294 3.03436
v 3.306213 1.668644 4.196833
v 5.766325 0.4382511 1.638169
v 7.763408 1.187318 1.55831
v 5.86323 1.184616 3.000813
v 6.019522 2.202555 4.236229
v 7.866449 1.914258 3.015811
v 8.009701 2.948828 4.387602
v 2.33491 0.7489817 3.518036
v 4.285707 1.100854 3.482933
v 4.214873 0.06221593 1.989661
v 2.288237 -0.3037427 2.076892
v -2.086162E-07 0.6541221 3.543086
v 4.187912 -0.4880543 0.3182276
v 1.221895E-06 -0.4065607 2.113708
v -2.33491 0.7489845 3.518036
v 2.275901 -0.9069456 0.4498941
v 4.196246 -0.4161788 -1.548391
v -2.288236 -0.3037408 2.07689
v -4.285706 1.100857 3.482933
v -4.214875 0.0622207 1.989662
v 3.576279E-07 -1.043272 0.4989759
v 2.29338 -0.9205051 -1.373245
v 4.22411 0.3555461 -3.543084
v 2.333176 -0.2619308 -3.32753
v -2.275906 -0.9069428 0.4498948
v -4.187914 -0.48805 0.3182266
v 4.470348E-07 -1.100857 -1.31097
v 8.642673E-07 -0.4924639 -3.253672
v -2.293382 -0.9205037 -1.373246
v -4.196249 -0.4161736 -1.54839
v -2.333178 -0.2619284 -3.32753
v -4.224109 0.3555513 -3.543084
vt 0.1167949 0.3014202
vt 0.0406969 0.3657644
vt 0.1167949 0.3657646
vt 0.180006 0.2479728
vt 0.180006 0.3657646
vt 0.243217 0.247973
vt 0.243217 0.3657647
vt 0.306428 0.3657647
vt 0.306428 0.2479728
vt 0.369639 0.3657646
vt 0.3696391 0.2479727
vt 0.4328501 0.3657647
vt 0.4328501 0.2479727
vt 0.4328501 0.1301811
vt 0.3696391 0.1301811
vt 0.306428 0.1301811
vt 0.243217 0.1301812
vt 0.1800059 0.1301808
vt 0.1167949 0.1301806
vt 0.1167949 0.1945249
vt 0.0406969 0.1301806
vt 0.009999969 0.99
vt 0.1730697 0.99
vt 0.009999969 0.9096223
vt 0.1730075 0.9096529
vt 0.1730697 0.9096223
vt 0.009999969 0.8292446
vt 0.3361395 0.99
vt 0.1730697 0.8292446
vt 0.1730697 0.748867
vt 0.009999969 0.748867
vt 0.1730697 0.6684895
vt 0.009999969 0.6684895
vt 0.1730697 0.5881118
vt 0.009999969 0.5881118
vt 0.1730697 0.5077343
vt 0.009999969 0.5077343
vt 0.3361395 0.5077343
vt 0.3361395 0.5881118
vt 0.4999172 0.5077343
vt 0.3361395 0.6684895
vt 0.4999172 0.5881118
vt 0.6622896 0.5077343
vt 0.3361395 0.748867
vt 0.4999172 0.6684895
vt 0.6622896 0.5881118
vt 0.3361395 0.8292446
vt 0.8253592 0.5881118
vt 0.8253592 0.5077343
vt 0.4999172 0.748867
vt 0.6622896 0.6684895
vt 0.3361395 0.9096223
vt 0.988429 0.5881118
vt 0.988429 0.5077343
vt 0.988429 0.6684895
vt 0.4999172 0.8292446
vt 0.4999172 0.9096223
vt 0.4999172 0.99
vt 0.6622896 0.748867
vt 0.8253592 0.6684895
vt 0.8253592 0.748867
vt 0.988429 0.748867
vt 0.6622896 0.8292446
vt 0.6622896 0.9096223
vt 0.6622896 0.99
vt 0.8253592 0.8292446
vt 0.988429 0.8292446
vt 0.8253592 0.9096223
vt 0.8253592 0.99
vt 0.988429 0.9096223
vt 0.988429 0.99
vt 0.8792617 0.4946053
vt 0.9931784 0.4946053
vt 0.9931784 0.3721054
vt 0.8792617 0.3721054
vt 0.7559564 0.4946053
vt 0.9931784 0.2489207
vt 0.7559564 0.3721054
vt 0.6206748 0.4946053
vt 0.8792617 0.2489207
vt 0.9931784 0.1242762
vt 0.6206748 0.3721054
vt 0.5031782 0.4946053
vt 0.5031782 0.3721054
vt 0.7559564 0.2489207
vt 0.8792617 0.1242762
vt 0.9931784 0.004605315
vt 0.8792617 0.004605315
vt 0.6206748 0.2489207
vt 0.5031782 0.2489207
vt 0.7559564 0.1242762
vt 0.7559564 0.004605315
vt 0.6206748 0.1242762
vt 0.5031782 0.1242762
vt 0.6206748 0.004605315
vt 0.5031782 0.004605315
vn -1 0 0
vn -1 0 0
vn -1 0 0
vn -1 0 0
vn -1 0 0
vn -1 0 0
vn -1 0 0
vn -1 0 0
vn -1 0 0
vn -1 0 0
vn -1 0 0
vn -1 0 0
vn -1 0 0
vn -1 0 0
vn -1 0 0
vn -1 0 0
vn -1 0 0
vn -1 0 0
vn -1 0 0
vn -1 0 0
vn -1 0 0
vn -0.2513856 -0.7851982 0.5659233
vn -0.2148229 -0.7726936 0.5973239
vn -0.2822131 -0.8141946 0.5073885
vn -0.2761283 -0.7699332 0.5752878
vn -0.2329552 -0.8174664 0.5267642
vn -0.3423179 -0.8840049 0.318361
vn -0.09894971 -0.7566016 0.6463459
vn -0.2733142 -0.8991776 0.3417296
vn -0.2982401 -0.9498812 0.09369345
vn -0.3777329 -0.9234284 0.06780852
vn -0.3030438 -0.9392272 -0.1612969
vn -0.3825643 -0.9030579 -0.1952715
vn -0.2928393 -0.8717941 -0.3927088
vn -0.3659922 -0.823858 -0.4327908
vn -0.3010747 -0.8063678 -0.5090433
vn -0.3615978 -0.7719901 -0.5227603
vn -0.1526455 -0.8582 -0.490094
vn -0.1470984 -0.9139069 -0.3783335
vn 0 -0.8733324 -0.4871246
vn -0.1510808 -0.9786088 -0.1396406
vn 0 -0.9265551 -0.3761592
vn 0.1526464 -0.8581997 -0.4900942
vn -0.1424924 -0.9808714 0.132617
vn 0 -0.9917188 -0.1284278
vn 0.1470993 -0.9139068 -0.3783335
vn -0.1255013 -0.9159391 0.381189
vn 0.2928404 -0.8717937 -0.3927086
vn 0.3010754 -0.8063674 -0.5090433
vn 0 -0.9888514 0.1489062
vn 0.1510818 -0.9786087 -0.1396405
vn -0.1056365 -0.8136369 0.5716956
vn 0.3659931 -0.8238577 -0.4327904
vn 0.3615981 -0.7719902 -0.5227599
vn 0.3825657 -0.9030575 -0.1952712
vn 0 -0.9175661 0.3975834
vn 0 -0.8109208 0.5851559
vn 0 -0.7491958 0.6623485
vn 0.1424934 -0.9808713 0.1326169
vn 0.3030451 -0.9392269 -0.1612967
vn 0.2982415 -0.9498808 0.09369354
vn 0.3777344 -0.9234276 0.06780838
vn 0.1255021 -0.915939 0.3811889
vn 0.1056371 -0.8136369 0.5716955
vn 0.09895018 -0.7566016 0.6463457
vn 0.2733153 -0.8991774 0.3417294
vn 0.3423192 -0.8840044 0.3183608
vn 0.2322837 -0.8157303 0.5297437
vn 0.214825 -0.7726961 0.5973198
vn 0.2822147 -0.8141959 0.5073853
vn 0.2513873 -0.785197 0.5659241
vn 0.1080145 -0.8071219 0.5804198
vn 0.1671357 -0.8060397 0.5677727
vn 0.188133 -0.8709323 0.4539636
vn 0.1187339 -0.8782001 0.4633217
vn 0 -0.8056143 0.5924403
vn 0.2242004 -0.962534 0.1525202
vn 0 -0.8780701 0.478532
vn -0.1080151 -0.8071219 0.5804195
vn 0.1424405 -0.9741631 0.1752623
vn 0.2386147 -0.9529364 -0.1870169
vn -0.1187347 -0.8781999 0.4633216
vn -0.167136 -0.8060397 0.5677724
vn -0.1881336 -0.8709322 0.4539636
vn 0 -0.9813212 0.1923768
vn 0.1548999 -0.9756595 -0.1552248
vn 0.2367913 -0.9147803 -0.3272717
vn 0.1639664 -0.9333125 -0.3194415
vn -0.1424416 -0.9741629 0.1752626
vn -0.2242016 -0.9625338 0.1525202
vn 0 -0.989818 -0.142338
vn 0 -0.9512281 -0.3084884
vn -0.1549009 -0.9756593 -0.1552247
vn -0.2386162 -0.952936 -0.1870169
vn -0.1639676 -0.9333122 -0.3194416
vn -0.2367929 -0.91478 -0.3272718
g Color_Cloth_01_0
f 3/3/3 2/2/2 1/1/1
f 1/1/1 4/4/4 3/3/3
f 4/4/4 5/5/5 3/3/3
f 4/4/4 6/6/6 5/5/5
f 6/6/6 7/7/7 5/5/5
f 7/7/7 6/6/6 8/8/8
f 6/6/6 9/9/9 8/8/8
f 8/8/8 9/9/9 10/10/10
f 9/9/9 11/11/11 10/10/10
f 10/10/10 11/11/11 12/12/12
f 11/11/11 13/13/13 12/12/12
f 13/13/13 11/11/11 14/14/14
f 11/11/11 15/15/15 14/14/14
f 11/11/11 9/9/9 15/15/15
f 9/9/9 16/16/16 15/15/15
f 9/9/9 6/6/6 16/16/16
f 6/6/6 17/17/17 16/16/16
f 17/17/17 6/6/6 18/18/18
f 6/6/6 4/4/4 18/18/18
f 18/18/18 4/4/4 19/19/19
f 4/4/4 20/20/20 19/19/19
f 19/19/19 20/20/20 21/21/21
f 24/24/24 23/23/23 22/22/22
f 23/23/23 24/24/24 25/25/25
f 26/26/26 25/25/25 24/24/24
f 26/26/26 23/23/23 25/25/25
f 27/27/27 26/26/26 24/24/24
f 26/26/26 28/28/28 23/23/23
f 29/29/29 26/26/26 27/27/27
f 30/30/30 29/29/29 27/27/27
f 31/31/31 30/30/30 27/27/27
f 32/32/32 30/30/30 31/31/31
f 33/33/33 32/32/32 31/31/31
f 34/34/34 32/32/32 33/33/33
f 35/35/35 34/34/34 33/33/33
f 36/36/36 34/34/34 35/35/35
f 37/37/37 36/36/36 35/35/35
f 36/36/36 38/38/38 34/34/34
f 38/38/38 39/39/39 34/34/34
f 34/34/34 39/39/39 32/32/32
f 38/38/38 40/40/40 39/39/39
f 32/32/32 41/41/41 30/30/30
f 39/39/39 41/41/41 32/32/32
f 40/40/40 42/42/42 39/39/39
f 39/39/39 42/42/42 41/41/41
f 40/40/40 43/43/43 42/42/42
f 30/30/30 44/44/44 29/29/29
f 41/41/41 44/44/44 30/30/30
f 42/42/42 45/45/45 41/41/41
f 41/41/41 45/45/45 44/44/44
f 43/43/43 46/46/46 42/42/42
f 42/42/42 46/46/46 45/45/45
f 44/44/44 47/47/47 29/29/29
f 29/29/29 47/47/47 26/26/26
f 43/43/43 48/48/48 46/46/46
f 49/49/49 48/48/48 43/43/43
f 45/45/45 50/50/50 44/44/44
f 44/44/44 50/50/50 47/47/47
f 46/46/46 51/51/51 45/45/45
f 46/46/46 48/48/48 51/51/51
f 45/45/45 51/51/51 50/50/50
f 47/47/47 52/52/52 26/26/26
f 52/52/52 28/28/28 26/26/26
f 49/49/49 53/53/53 48/48/48
f 54/54/54 53/53/53 49/49/49
f 53/53/53 55/55/55 48/48/48
f 50/50/50 56/56/56 47/47/47
f 47/47/47 56/56/56 52/52/52
f 52/52/52 57/57/57 28/28/28
f 56/56/56 57/57/57 52/52/52
f 57/57/57 58/58/58 28/28/28
f 51/51/51 59/59/59 50/50/50
f 50/50/50 59/59/59 56/56/56
f 48/48/48 60/60/60 51/51/51
f 48/48/48 55/55/55 60/60/60
f 51/51/51 60/60/60 59/59/59
f 60/60/60 55/55/55 61/61/61
f 60/60/60 61/61/61 59/59/59
f 55/55/55 62/62/62 61/61/61
f 59/59/59 63/63/63 56/56/56
f 56/56/56 63/63/63 57/57/57
f 59/59/59 61/61/61 63/63/63
f 57/57/57 64/64/64 58/58/58
f 63/63/63 64/64/64 57/57/57
f 64/64/64 65/65/65 58/58/58
f 61/61/61 62/62/62 66/66/66
f 61/61/61 66/66/66 63/63/63
f 63/63/63 66/66/66 64/64/64
f 62/62/62 67/67/67 66/66/66
f 64/64/64 68/68/68 65/65/65
f 66/66/66 68/68/68 64/64/64
f 66/66/66 67/67/67 68/68/68
f 68/68/68 69/69/69 65/65/65
f 67/67/67 70/70/70 68/68/68
f 68/68/68 70/70/70 69/69/69
f 70/70/70 71/71/71 69/69/69
f 74/74/74 73/73/73 72/72/72
f 75/75/75 74/74/74 72/72/72
f 75/75/75 72/72/72 76/76/76
f 77/77/77 74/74/74 75/75/75
f 78/78/78 75/75/75 76/76/76
f 78/78/78 76/76/76 79/79/79
f 80/80/80 77/77/77 75/75/75
f 80/80/80 75/75/75 78/78/78
f 81/81/81 77/77/77 80/80/80
f 82/82/82 78/78/78 79/79/79
f 82/82/82 79/79/79 83/83/83
f 84/84/84 82/82/82 83/83/83
f 85/85/85 80/80/80 78/78/78
f 85/85/85 78/78/78 82/82/82
f 86/86/86 81/81/81 80/80/80
f 86/86/86 80/80/80 85/85/85
f 87/87/87 81/81/81 86/86/86
f 88/88/88 87/87/87 86/86/86
f 89/89/89 82/82/82 84/84/84
f 89/89/89 85/85/85 82/82/82
f 90/90/90 89/89/89 84/84/84
f 91/91/91 86/86/86 85/85/85
f 88/88/88 86/86/86 91/91/91
f 91/91/91 85/85/85 89/89/89
f 92/92/92 88/88/88 91/91/91
f 93/93/93 89/89/89 90/90/90
f 93/93/93 91/91/91 89/89/89
f 92/92/92 91/91/91 93/93/93
f 94/94/94 93/93/93 90/90/90
f 95/95/95 92/92/92 93/93/93
f 95/95/95 93/93/93 94/94/94
f 96/96/96 95/95/95 94/94/94
