g Color_Boss_30
v -0.8176806 -1.043077 0.6176558
v -0.8176801 -0.1728093 1.477755
v 0.8176808 -0.1695016 1.469699
v 0.7508154 -1.026987 0.6110313
v -0.8176806 -1.043076 -0.6095704
v -0.8176806 -1.043077 0.6176558
v 0.7508154 -1.026987 0.6110313
v 0.8176808 -1.026987 -0.6030155
v -0.8176806 -0.1761164 -1.477755
v 0.8176808 -0.169501 -1.461713
v -0.8176801 0.5502053 -1.469734
v -0.8176806 -0.1761164 -1.477755
v 0.8176808 -0.169501 -1.461713
v 0.8176808 1.043077 -1.461712
v 0.8176808 -0.1695016 1.469699
v 0.8176808 0.114443 0.7830451
v 0.8176808 -0.3413286 0.3266462
v 0.7508154 -1.026987 0.6110313
v 0.8176808 -0.3413284 -0.3186419
v 0.8176808 -1.026987 -0.6030155
v 0.8176808 0.1144433 -0.7750555
v 0.8176808 -0.169501 -1.461713
v 0.8176808 0.7589487 -0.7750553
v 0.8176808 1.043077 -1.461712
v 0.8176808 0.114443 0.7830451
v 0.7980738 0.1067638 -0.003237009
v 0.8176808 -0.3413286 0.3266462
v 0.8176808 -0.3413284 -0.3186419
v 0.8176808 0.1144433 -0.7750555
v 0.8176808 0.7589487 -0.7750553
v 0.8176808 -0.1695016 1.469699
v -0.8176801 -0.1728093 1.477755
v -0.8176806 0.114443 0.7830451
v 0.8176808 0.114443 0.7830451
v -0.8176808 0.1067638 -0.003237009
v 0.7980738 0.1067638 -0.003237009
v -0.8176806 0.7589487 -0.7750553
v 0.8176808 0.7589487 -0.7750553
v -0.8176801 0.5502053 -1.469734
v 0.8176808 1.043077 -1.461712
v -0.8176806 -1.043077 0.6176558
v -0.8176806 0.08499993 -0.04193819
v -0.8176801 -0.1728093 1.477755
v -0.8176806 -1.043076 -0.6095704
v -0.8176806 0.114443 0.7830451
v -0.8176806 -0.1761164 -1.477755
v -0.8176808 0.1067638 -0.003237009
v -0.8176801 0.5502053 -1.469734
v -0.8176806 0.7589487 -0.7750553
vt 0.7061748 0.03550722
vt 0.7061748 0.0373464
vt 0.7136772 0.03736044
vt 0.7136772 0.03554134
vt 0.7096257 0.01183198
vt 0.707368 0.0117377
vt 0.7079363 0.01142682
vt 0.7085294 0.01155373
vt 0.7116743 0.01166369
vt 0.7095652 0.0115812
vt 0.7079896 0.03805405
vt 0.7079896 0.03481361
vt 0.7118623 0.03483107
vt 0.7118623 0.03803639
vt 0.7081031 0.01127446
vt 0.7085521 0.01131661
vt 0.7084569 0.01141098
vt 0.7079363 0.01142682
vt 0.7088238 0.01148921
vt 0.7085294 0.01155373
vt 0.7094597 0.01150538
vt 0.7095652 0.0115812
vt 0.7099881 0.01145024
vt 0.7104311 0.01149174
vt 0.7095605 0.03895517
vt 0.7108058 0.03641358
vt 0.707795 0.03747808
vt 0.707795 0.03538964
vt 0.7095605 0.03391249
vt 0.712057 0.03391249
vt 0.6628457 0.03761248
vt 0.6592283 0.03762119
vt 0.659221 0.03687064
vt 0.6628457 0.03687064
vt 0.65904 0.03602116
vt 0.6626647 0.03602116
vt 0.659221 0.03518729
vt 0.6628457 0.03518729
vt 0.6592283 0.03443681
vt 0.6628457 0.03444546
vt 0.6832114 0.01298497
vt 0.6843038 0.01288452
vt 0.6840541 0.01311596
vt 0.6832114 0.01279807
vt 0.6843324 0.01301016
vt 0.684051 0.01266585
vt 0.6846436 0.01289041
vt 0.6852349 0.01266707
vt 0.6849565 0.01277287
vn 0.007518235 -0.7053871 0.7087824
vn 0.007518235 -0.7053871 0.7087824
vn 0.007518235 -0.7053872 0.7087824
vn 0.007518235 -0.7053872 0.7087824
vn 0.01073445 -0.924019 -0.3821958
vn 0.01004314 -0.9999496 0.0002747846
vn 0.01004314 -0.9999496 0.0002747846
vn 0.01073174 -0.9211702 -0.3890119
vn 0.009793459 -0.7075717 -0.7065737
vn 0.009793459 -0.7075717 -0.7065738
vn 0.00672521 0.004137009 -0.9999689
vn 0.00672521 0.004137009 -0.9999689
vn 0.00672521 0.004137009 -0.9999689
vn 0.00672521 0.004137009 -0.9999689
vn 0.9981681 -0.05982842 0.008993577
vn 0.9993587 -0.03580076 -0.0006722547
vn 0.9997299 -0.02168916 0.008339674
vn 0.9982748 -0.05425904 0.02243801
vn 0.9998524 -0.002830391 0.01694249
vn 0.9995427 -0.0243362 0.01794881
vn 0.9999493 0.003167822 0.009552835
vn 1 0 0
vn 0.9999696 0 0.007795124
vn 1 0 0
vn 0.9993587 -0.03580076 -0.0006722547
vn 0.9996293 0.02679965 0.004821004
vn 0.9997299 -0.02168916 0.008339674
vn 0.9998524 -0.002830391 0.01694249
vn 0.9999493 0.003167822 0.009552835
vn 0.9999696 0 0.007795124
vn 6.595535E-06 0.9241119 0.3821221
vn 6.595534E-06 0.9241119 0.3821221
vn 0 0.981784 0.1900005
vn 0 0.9814731 0.1915998
vn 0 0.9407678 0.3390514
vn 0 0.9409862 0.3384449
vn -0.07873068 0.9258074 0.3697056
vn -0.07921976 0.9265397 0.3677613
vn -0.1489222 0.9873797 0.0538849
vn -0.1489222 0.9873797 0.0538849
vn -1 0 0
vn -1 0 0
vn -1 0 0
vn -1 0 0
vn -1 0 0
vn -1 0 0
vn -1 -9.321883E-06 0
vn -1 0 0
vn -1 0 0
g Color_Boss_30_0
f 3/3/3 2/2/2 1/1/1
f 4/4/4 3/3/3 1/1/1
f 7/7/7 6/6/6 5/5/5
f 8/8/8 7/7/7 5/5/5
f 8/8/8 5/5/5 9/9/9
f 10/10/10 8/8/8 9/9/9
f 13/13/13 12/12/12 11/11/11
f 14/14/14 13/13/13 11/11/11
f 17/17/17 16/16/16 15/15/15
f 18/18/18 17/17/17 15/15/15
f 19/19/19 17/17/17 18/18/18
f 20/20/20 19/19/19 18/18/18
f 21/21/21 19/19/19 20/20/20
f 22/22/22 21/21/21 20/20/20
f 23/23/23 21/21/21 22/22/22
f 24/24/24 23/23/23 22/22/22
f 27/27/27 26/26/26 25/25/25
f 28/28/28 26/26/26 27/27/27
f 29/29/29 26/26/26 28/28/28
f 30/30/30 26/26/26 29/29/29
f 33/33/33 32/32/32 31/31/31
f 34/34/34 33/33/33 31/31/31
f 35/35/35 33/33/33 34/34/34
f 36/36/36 35/35/35 34/34/34
f 37/37/37 35/35/35 36/36/36
f 38/38/38 37/37/37 36/36/36
f 39/39/39 37/37/37 38/38/38
f 40/40/40 39/39/39 38/38/38
f 43/43/43 42/42/42 41/41/41
f 41/41/41 42/42/42 44/44/44
f 45/45/45 42/42/42 43/43/43
f 44/44/44 42/42/42 46/46/46
f 47/47/47 42/42/42 45/45/45
f 46/46/46 42/42/42 48/48/48
f 49/49/49 42/42/42 47/47/47
f 48/48/48 42/42/42 49/49/49
