g Color_Boss_10
v 5.6196 0.8170474 -0.3115643
v 5.447056 0.003262921 -0.2044664
v 5.6196 0.8299799 0.3628675
v 5.6196 0.3409148 0.8398743
v 5.6196 -0.3326934 0.7345793
v 5.692526 -0.5714098 0.2095505
v 5.833483 -0.7497853 -0.3115579
v 5.6196 -0.3326931 -0.886776
v 5.6196 -0.3326931 -0.886776
v 5.447056 0.003262921 -0.2044664
v 5.6196 0.3409151 -0.7885798
v 5.6196 0.8170474 -0.3115643
v 5.6196 0.8299799 0.3628675
v 5.249814 0.9120722 0.3947834
v 5.249814 0.8856004 -0.338968
v 5.6196 0.8170474 -0.3115643
v 5.6196 0.3409148 0.8398743
v 5.249814 0.3675893 0.9137456
v 5.249814 0.9120722 0.3947834
v 5.6196 0.8299799 0.3628675
v 5.6196 -0.3326934 0.7345793
v 5.249814 0.3675893 0.9137456
v 5.6196 0.3409148 0.8398743
v 5.249814 -0.3652664 0.9647729
v 5.692526 -0.5714098 0.2095505
v 5.321053 -0.9120706 0.37686
v 5.833483 -0.7497853 -0.3115579
v 5.399984 -0.8835154 -0.3389612
v 5.6196 -0.3326931 -0.886776
v 5.249814 -0.365266 -0.9647728
v 5.399984 -0.8835154 -0.3389612
v 5.833483 -0.7497853 -0.3115579
v 5.6196 0.3409151 -0.7885798
v 5.249814 -0.365266 -0.9647728
v 5.6196 -0.3326931 -0.886776
v 5.249814 0.3675897 -0.8579396
v 5.6196 0.8170474 -0.3115643
v 5.249814 0.8856004 -0.338968
v -5.619601 0.8170455 -0.3115643
v -5.619601 0.8299778 0.3628675
v -5.447057 0.003261013 -0.2044664
v -5.619601 0.3409129 0.8398743
v -5.619601 -0.3326954 0.7345793
v -5.692527 -0.5714118 0.2095505
v -5.833483 -0.7497873 -0.3115579
v -5.619601 -0.332695 -0.886776
v -5.619601 -0.332695 -0.886776
v -5.619601 0.3409132 -0.7885798
v -5.447057 0.003261013 -0.2044664
v -5.619601 0.8170455 -0.3115643
v -5.619601 0.8299778 0.3628675
v -5.619601 0.8170455 -0.3115643
v -5.249815 0.8855985 -0.338968
v -5.249815 0.9120705 0.3947834
v -5.619601 0.3409129 0.8398743
v -5.619601 0.8299778 0.3628675
v -5.249815 0.9120705 0.3947834
v -5.249815 0.3675874 0.9137456
v -5.619601 -0.3326954 0.7345793
v -5.619601 0.3409129 0.8398743
v -5.249815 0.3675874 0.9137456
v -5.249815 -0.3652682 0.9647729
v -5.692527 -0.5714118 0.2095505
v -5.321053 -0.9120725 0.37686
v -5.833483 -0.7497873 -0.3115579
v -5.399984 -0.8835173 -0.3389612
v -5.619601 -0.332695 -0.886776
v -5.833483 -0.7497873 -0.3115579
v -5.399984 -0.8835173 -0.3389612
v -5.249815 -0.3652679 -0.9647728
v -5.619601 0.3409132 -0.7885798
v -5.619601 -0.332695 -0.886776
v -5.249815 -0.3652679 -0.9647728
v -5.249815 0.367588 -0.8579396
v -5.619601 0.8170455 -0.3115643
v -5.249815 0.8855985 -0.338968
vt 0.466038 0.03902382
vt 0.4646926 0.03567582
vt 0.4636946 0.03973854
vt 0.4618369 0.0372732
vt 0.4615752 0.03446302
vt 0.4633178 0.03198197
vt 0.4656847 0.03215027
vt 0.4677598 0.03404179
vt 0.4393773 0.03553609
vt 0.439094 0.03598148
vt 0.4395904 0.03590582
vt 0.4396065 0.03631087
vt 0.4636946 0.03973854
vt 0.4633432 0.04105043
vt 0.4666809 0.04037675
vt 0.466038 0.03902382
vt 0.4618369 0.0372732
vt 0.4606363 0.03790131
vt 0.4633432 0.04105043
vt 0.4636946 0.03973854
vt 0.4615752 0.03446302
vt 0.4606363 0.03790131
vt 0.4618369 0.0372732
vt 0.4604252 0.03393823
vt 0.4633178 0.03198197
vt 0.4628443 0.03071681
vt 0.4656847 0.03215027
vt 0.4661215 0.03067988
vt 0.4677598 0.03404179
vt 0.4687975 0.03344664
vt 0.4661215 0.03067988
vt 0.4656847 0.03215027
vt 0.4395904 0.03590582
vt 0.439621 0.03541944
vt 0.4393773 0.03553609
vt 0.4398518 0.03584344
vt 0.4396065 0.03631087
vt 0.4398938 0.0363108
vt 0.466038 0.03902382
vt 0.4636946 0.03973854
vt 0.4646926 0.03567582
vt 0.4618369 0.0372732
vt 0.4615752 0.03446302
vt 0.4633178 0.03198197
vt 0.4656847 0.03215027
vt 0.4677598 0.03404179
vt 0.4393773 0.03553609
vt 0.4395904 0.03590582
vt 0.439094 0.03598148
vt 0.4396065 0.03631087
vt 0.4636946 0.03973854
vt 0.466038 0.03902382
vt 0.4666809 0.04037675
vt 0.4633432 0.04105043
vt 0.4618369 0.0372732
vt 0.4636946 0.03973854
vt 0.4633432 0.04105043
vt 0.4606363 0.03790131
vt 0.4615752 0.03446302
vt 0.4618369 0.0372732
vt 0.4606363 0.03790131
vt 0.4604252 0.03393823
vt 0.4633178 0.03198197
vt 0.4628443 0.03071681
vt 0.4656847 0.03215027
vt 0.4661215 0.03067988
vt 0.4677598 0.03404179
vt 0.4656847 0.03215027
vt 0.4661215 0.03067988
vt 0.4687975 0.03344664
vt 0.4395904 0.03590582
vt 0.4393773 0.03553609
vt 0.439621 0.03541944
vt 0.4398518 0.03584344
vt 0.4396065 0.03631087
vt 0.4398938 0.0363108
vn 0.9775404 -0.1976342 0.07318081
vn 0.9943132 0.09642947 0.04519558
vn 0.9850804 -0.1565556 -0.07146239
vn 0.9878675 -0.04732876 -0.1479119
vn 0.9798241 0.1567885 -0.123944
vn 0.914616 0.4039063 0.01836314
vn 0.8913855 0.4509855 0.04520921
vn 0.9622805 0.2420815 0.1241481
vn 0.9622805 0.2420815 0.1241481
vn 0.9943132 0.09642947 0.04519558
vn 0.968746 -0.1133181 0.2206586
vn 0.9775404 -0.1976342 0.07318081
vn 0.199358 0.9795433 -0.02740992
vn 0.199358 0.9795433 -0.02740992
vn 0.2038659 0.899604 -0.3862012
vn 0.2038051 0.8986862 -0.3883638
vn 0.2008682 0.6797522 0.7053999
vn 0.2008682 0.6797522 0.7053999
vn 0.2008682 0.6797522 0.7053999
vn 0.2008682 0.6797522 0.7053999
vn 0.5393241 -0.4037645 0.7389882
vn 0.3802537 -0.03565954 0.9241946
vn 0.3802537 -0.03565954 0.9241946
vn 0.508515 -0.3164503 0.8007944
vn 0.5630465 -0.7520301 0.3426798
vn 0.5706506 -0.7283147 0.379362
vn 0.5228667 -0.8301614 0.1935007
vn 0.5228667 -0.8301614 0.1935007
vn 0.2353741 -0.7309281 -0.6405804
vn 0.2353741 -0.730928 -0.6405804
vn 0.2353741 -0.730928 -0.6405804
vn 0.2353741 -0.7309281 -0.6405804
vn 0.1960262 0.4438067 -0.8744194
vn 0.1923506 0.1415581 -0.9710626
vn 0.1923506 0.1415581 -0.9710626
vn 0.1961717 0.4369619 -0.8778275
vn 0.2038051 0.8986862 -0.3883638
vn 0.2038659 0.899604 -0.3862012
vn -0.9775404 -0.1976343 0.07318077
vn -0.9850804 -0.1565556 -0.07146242
vn -0.9943132 0.09642917 0.04519552
vn -0.9878675 -0.04732876 -0.1479119
vn -0.9798241 0.1567885 -0.123944
vn -0.9146162 0.403906 0.0183626
vn -0.891386 0.4509847 0.04520891
vn -0.9622806 0.2420808 0.1241485
vn -0.9622806 0.2420808 0.1241485
vn -0.968746 -0.1133181 0.2206586
vn -0.9943132 0.09642917 0.04519552
vn -0.9775404 -0.1976343 0.07318077
vn -0.1993586 0.9795432 -0.02740992
vn -0.2038055 0.8986862 -0.3883638
vn -0.2038663 0.899604 -0.3862012
vn -0.1993586 0.9795432 -0.02740992
vn -0.2008686 0.6797521 0.7053999
vn -0.2008687 0.6797522 0.7053998
vn -0.2008686 0.6797521 0.7053998
vn -0.2008686 0.6797521 0.7053998
vn -0.5393237 -0.4037651 0.7389882
vn -0.3802537 -0.03565954 0.9241946
vn -0.3802537 -0.03565954 0.9241946
vn -0.5085147 -0.3164508 0.8007945
vn -0.5630457 -0.7520307 0.3426795
vn -0.5706499 -0.7283155 0.3793618
vn -0.5228659 -0.8301619 0.1935002
vn -0.522866 -0.8301619 0.1935002
vn -0.2353741 -0.7309283 -0.6405802
vn -0.235374 -0.7309283 -0.6405801
vn -0.2353741 -0.7309283 -0.6405801
vn -0.2353741 -0.7309283 -0.6405801
vn -0.1960263 0.4438066 -0.8744194
vn -0.1923507 0.1415581 -0.9710626
vn -0.1923507 0.1415581 -0.9710626
vn -0.1961718 0.436962 -0.8778274
vn -0.2038055 0.8986862 -0.3883638
vn -0.2038663 0.899604 -0.3862012
g Color_Boss_10_0
f 3/3/3 2/2/2 1/1/1
f 4/4/4 2/2/2 3/3/3
f 5/5/5 2/2/2 4/4/4
f 6/6/6 2/2/2 5/5/5
f 7/7/7 2/2/2 6/6/6
f 8/8/8 2/2/2 7/7/7
f 11/11/11 10/10/10 9/9/9
f 12/12/12 10/10/10 11/11/11
f 15/15/15 14/14/14 13/13/13
f 16/16/16 15/15/15 13/13/13
f 19/19/19 18/18/18 17/17/17
f 20/20/20 19/19/19 17/17/17
f 23/23/23 22/22/22 21/21/21
f 22/22/22 24/24/24 21/21/21
f 21/21/21 24/24/24 25/25/25
f 24/24/24 26/26/26 25/25/25
f 25/25/25 26/26/26 27/27/27
f 26/26/26 28/28/28 27/27/27
f 31/31/31 30/30/30 29/29/29
f 32/32/32 31/31/31 29/29/29
f 35/35/35 34/34/34 33/33/33
f 34/34/34 36/36/36 33/33/33
f 33/33/33 36/36/36 37/37/37
f 36/36/36 38/38/38 37/37/37
f 41/41/41 40/40/40 39/39/39
f 41/41/41 42/42/42 40/40/40
f 41/41/41 43/43/43 42/42/42
f 41/41/41 44/44/44 43/43/43
f 41/41/41 45/45/45 44/44/44
f 41/41/41 46/46/46 45/45/45
f 49/49/49 48/48/48 47/47/47
f 49/49/49 50/50/50 48/48/48
f 53/53/53 52/52/52 51/51/51
f 54/54/54 53/53/53 51/51/51
f 57/57/57 56/56/56 55/55/55
f 58/58/58 57/57/57 55/55/55
f 61/61/61 60/60/60 59/59/59
f 62/62/62 61/61/61 59/59/59
f 62/62/62 59/59/59 63/63/63
f 64/64/64 62/62/62 63/63/63
f 64/64/64 63/63/63 65/65/65
f 66/66/66 64/64/64 65/65/65
f 69/69/69 68/68/68 67/67/67
f 70/70/70 69/69/69 67/67/67
f 73/73/73 72/72/72 71/71/71
f 74/74/74 73/73/73 71/71/71
f 74/74/74 71/71/71 75/75/75
f 76/76/76 74/74/74 75/75/75
