g Color_21
v -14.70069 -2.561181 2.813988
v -14.44679 -8.353204 2.81399
v -14.70069 -6.23395 2.813989
v -14.44679 -8.353204 2.81399
v -12.41559 -12.4156 2.813992
v -13.68509 -10.6383 2.813991
v -6.233942 -15.67855 6.079674E-06
v -2.560413 -15.67855 1.744164
v -2.560414 -15.67855 6.079674E-06
v -6.233942 -15.67855 1.744164
v -9.331061 -15.42466 6.079676E-06
v -9.331061 -15.42466 1.744164
v -11.61616 -14.66296 5.722048E-06
v -11.61616 -14.66296 1.744163
v -13.39345 -13.39346 5.245211E-06
v -13.39345 -13.39346 1.744163
v -14.66295 -11.61617 4.529955E-06
v -14.66295 -11.61617 1.744162
v -15.42465 -9.331072 3.69549E-06
v -15.42465 -9.331071 1.744161
v -15.67856 -6.23395 2.503397E-06
v -15.67856 -6.23395 1.74416
v -15.67856 -2.56118 9.536761E-07
v -15.67856 -2.561179 1.744158
v -2.560407 -2.561185 2.813988
v -2.560411 -14.70069 2.813993
v -14.70069 -2.561181 2.813988
v -8.353199 -14.44679 2.813992
v -14.44679 -8.353204 2.81399
v -12.41559 -12.4156 2.813992
v -6.233942 -14.70069 2.813993
v -2.560412 -15.24395 2.695123
v -6.233942 -15.24395 2.695123
v -8.896455 -14.99005 2.695123
v -11.18155 -14.22835 2.695122
v -10.6383 -13.68509 2.813992
v -12.95885 -12.95886 2.695122
v -14.22835 -11.18156 2.695121
v -13.68509 -10.6383 2.813991
v -14.99005 -8.896463 2.69512
v -14.44679 -8.353204 2.81399
v -15.24395 -6.23395 2.695119
v -14.70069 -6.23395 2.813989
v -15.24395 -2.561181 2.695118
v -15.24395 -6.23395 2.695119
v -15.56991 -2.56118 2.338508
v -15.24395 -2.561181 2.695118
v -15.56991 -6.23395 2.33851
v -14.99005 -8.896463 2.69512
v -15.316 -9.222419 2.338511
v -14.22835 -11.18156 2.695121
v -14.5543 -11.50751 2.338511
v -12.95885 -12.95886 2.695122
v -13.2848 -13.28481 2.338512
v -11.18155 -14.22835 2.695122
v -11.50751 -14.55431 2.338513
v -8.896455 -14.99005 2.695123
v -9.222411 -15.31601 2.338513
v -6.233942 -15.24395 2.695123
v -6.233942 -15.5699 2.338513
v -2.560412 -15.5699 2.338513
v -2.560412 -15.24395 2.695123
v -15.56991 -6.23395 2.33851
v -15.67856 -2.561179 1.744158
v -15.56991 -2.56118 2.338508
v -15.67856 -6.23395 1.74416
v -15.316 -9.222419 2.338511
v -15.42465 -9.331071 1.744161
v -14.5543 -11.50751 2.338511
v -14.66295 -11.61617 1.744162
v -13.2848 -13.28481 2.338512
v -13.39345 -13.39346 1.744163
v -11.50751 -14.55431 2.338513
v -11.61616 -14.66296 1.744163
v -9.222411 -15.31601 2.338513
v -9.331061 -15.42466 1.744164
v -6.233942 -15.5699 2.338513
v -6.233942 -15.67855 1.744164
v -2.560413 -15.67855 1.744164
v -2.560412 -15.5699 2.338513
v -2.560408 -2.561186 9.536748E-07
v -2.560411 -14.70069 2.813993
v -2.560407 -2.561185 2.813988
v -2.560411 -14.70069 5.722046E-06
v -2.560412 -15.24395 2.695123
v -2.560412 -15.5699 2.338513
v -2.560413 -15.67855 1.744164
v -2.560414 -15.67855 6.079674E-06
v -2.560407 -2.561185 2.813988
v -14.70069 -2.561182 9.536761E-07
v -2.560408 -2.561186 9.536748E-07
v -14.70069 -2.561181 2.813988
v -15.24395 -2.561181 2.695118
v -15.56991 -2.56118 2.338508
v -15.67856 -2.56118 9.536761E-07
v -15.67856 -2.561179 1.744158
vt 0.4796382 0.9851066
vt 0.4795987 0.9843802
vt 0.4796186 0.9847463
vt 0.4795987 0.9843802
vt 0.4795589 0.9836482
vt 0.4795788 0.9840142
vt 0.4294297 0.9675564
vt 0.4289046 0.9675452
vt 0.4289046 0.9675452
vt 0.4294297 0.9675564
vt 0.429832 0.9675651
vt 0.429832 0.9675651
vt 0.4302342 0.9675736
vt 0.4302342 0.9675736
vt 0.4306364 0.9675823
vt 0.4306364 0.9675823
vt 0.4306456 0.9679583
vt 0.4306456 0.9679583
vt 0.4306549 0.9683344
vt 0.4306549 0.9683344
vt 0.4306641 0.9687105
vt 0.4306641 0.9687105
vt 0.4306761 0.9692013
vt 0.4306761 0.9692013
vt 0.4779988 0.9851066
vt 0.4779988 0.9835739
vt 0.4796382 0.9851066
vt 0.4787758 0.9836109
vt 0.4795987 0.9843802
vt 0.4795589 0.9836482
vt 0.4783843 0.9835923
vt 0.4779988 0.9835053
vt 0.4784662 0.9835157
vt 0.4788681 0.9835246
vt 0.4792701 0.9835335
vt 0.4791674 0.9836295
vt 0.479672 0.9835424
vt 0.4796815 0.9839182
vt 0.4795788 0.9840142
vt 0.479691 0.9842939
vt 0.4795987 0.9843802
vt 0.4797006 0.9846697
vt 0.4796186 0.9847463
vt 0.4797116 0.9851066
vt 0.470701 0.9846697
vt 0.4707561 0.9851066
vt 0.4707121 0.9851066
vt 0.4707443 0.9846292
vt 0.4706915 0.9842939
vt 0.470735 0.9842532
vt 0.470682 0.9839182
vt 0.4707257 0.9838773
vt 0.4706725 0.9835424
vt 0.4707164 0.9835013
vt 0.4702705 0.9835335
vt 0.4703143 0.9834926
vt 0.4698686 0.9835246
vt 0.4699121 0.9834839
vt 0.4694667 0.9835157
vt 0.46951 0.9834752
vt 0.4689993 0.9834641
vt 0.4689993 0.9835053
vt 0.4707443 0.9846292
vt 0.4707708 0.9851066
vt 0.4707561 0.9851066
vt 0.4707588 0.9846157
vt 0.470735 0.9842532
vt 0.4707496 0.9842397
vt 0.4707257 0.9838773
vt 0.4707403 0.9838636
vt 0.4707164 0.9835013
vt 0.4707311 0.9834875
vt 0.4703143 0.9834926
vt 0.4703289 0.9834789
vt 0.4699121 0.9834839
vt 0.4699267 0.9834703
vt 0.46951 0.9834752
vt 0.4695244 0.9834617
vt 0.4689993 0.9834504
vt 0.4689993 0.9834641
vt 0.4289046 0.9692013
vt 0.4289046 0.9676687
vt 0.4289046 0.9692013
vt 0.4289046 0.9676687
vt 0.4289046 0.9676
vt 0.4289046 0.9675589
vt 0.4289046 0.9675452
vt 0.4289046 0.9675452
vt 0.4289046 0.9692013
vt 0.430544 0.9692013
vt 0.4289046 0.9692013
vt 0.430544 0.9692013
vt 0.4306174 0.9692013
vt 0.4306614 0.9692013
vt 0.4306761 0.9692013
vt 0.4306761 0.9692013
vn -0.1074992 0 0.9942052
vn -0.09929712 -0.01652637 0.9949206
vn -0.1115214 -0.00691797 0.9937379
vn -0.09929712 -0.01652637 0.9949206
vn -0.0598782 -0.05987779 0.9964082
vn -0.08078708 -0.03773433 0.9960168
vn -0.04088616 -0.9991637 0
vn 0 -0.9959163 0.09028164
vn 0 -1 0
vn -0.04062667 -0.995113 0.08999837
vn -0.2004063 -0.9797128 0
vn -0.2047532 -0.9731094 0.1055185
vn -0.4537773 -0.8911152 0
vn -0.4536005 -0.8832023 0.119166
vn -0.7071066 -0.7071069 0
vn -0.701602 -0.701602 0.1245353
vn -0.8911149 -0.4537777 0
vn -0.8832018 -0.4536007 0.1191671
vn -0.9797125 -0.2004081 0
vn -0.9731866 -0.2041984 0.1058806
vn -0.9991637 -0.04088792 0
vn -0.9950465 -0.04125619 0.09044603
vn -1 0 0
vn -0.9959163 0 0.09028184
vn 0 0 1
vn 0 -0.1074986 0.9942052
vn -0.1074992 0 0.9942052
vn -0.01777998 -0.09710009 0.9951158
vn -0.09929712 -0.01652637 0.9949206
vn -0.0598782 -0.05987779 0.9964082
vn -0.005602852 -0.1107008 0.993838
vn 0 -0.499348 0.8664014
vn -0.02234817 -0.5049298 0.8628711
vn -0.08737405 -0.4588426 0.8842111
vn -0.1890745 -0.3875027 0.9022707
vn -0.03773471 -0.0807866 0.9960169
vn -0.2945853 -0.294585 0.9090871
vn -0.3875035 -0.1890744 0.9022704
vn -0.08078708 -0.03773433 0.9960168
vn -0.4612842 -0.08473297 0.8831971
vn -0.09929712 -0.01652637 0.9949206
vn -0.5052426 -0.02530646 0.8626063
vn -0.1115214 -0.00691797 0.9937379
vn -0.4993479 0 0.8664016
vn -0.5052426 -0.02530646 0.8626063
vn -0.7381182 0 0.6746715
vn -0.4993479 0 0.8664016
vn -0.736061 -0.03388604 0.6760665
vn -0.4612842 -0.08473297 0.8831971
vn -0.6537581 -0.1562663 0.7403926
vn -0.3875035 -0.1890744 0.9022704
vn -0.5539427 -0.2969871 0.7777829
vn -0.2945853 -0.294585 0.9090871
vn -0.4326662 -0.4326656 0.790949
vn -0.1890745 -0.3875027 0.9022707
vn -0.2969869 -0.5539414 0.7777839
vn -0.08737405 -0.4588426 0.8842111
vn -0.1584496 -0.65412 0.7396085
vn -0.02234817 -0.5049298 0.8628711
vn -0.03072859 -0.7377705 0.6743518
vn 0 -0.7381191 0.6746704
vn 0 -0.499348 0.8664014
vn -0.9828357 -0.04188086 0.1796661
vn -0.9959163 0 0.09028184
vn -0.9836982 0 0.1798267
vn -0.9950465 -0.04125619 0.09044603
vn -0.9601965 -0.1858232 0.2085484
vn -0.9731866 -0.2041984 0.1058806
vn -0.8687871 -0.4341397 0.238184
vn -0.8832018 -0.4536007 0.1191671
vn -0.684599 -0.6845986 0.2502977
vn -0.701602 -0.701602 0.1245353
vn -0.43414 -0.8687876 0.2381815
vn -0.4536005 -0.8832023 0.119166
vn -0.1871724 -0.9596937 0.2096532
vn -0.2047532 -0.9731094 0.1055185
vn -0.04058095 -0.9827235 0.1805764
vn -0.04062667 -0.995113 0.08999837
vn 0 -0.9959163 0.09028164
vn 0 -0.9836986 0.1798252
vn 1 0 0
vn 1 0 0
vn 1 0 0
vn 1 0 0
vn 1 0 0
vn 1 0 0
vn 1 0 0
vn 1 0 0
vn 0 1 0
vn 0 1 0
vn 0 1 0
vn 0 1 0
vn 0 1 0
vn 0 1 0
vn 0 1 0
vn 1.246727E-05 1 0
g Color_21_0
f 3/3/3 2/2/2 1/1/1
f 6/6/6 5/5/5 4/4/4
f 9/9/9 8/8/8 7/7/7
f 10/10/10 7/7/7 8/8/8
f 7/7/7 10/10/10 11/11/11
f 12/12/12 11/11/11 10/10/10
f 11/11/11 12/12/12 13/13/13
f 14/14/14 13/13/13 12/12/12
f 13/13/13 14/14/14 15/15/15
f 16/16/16 15/15/15 14/14/14
f 15/15/15 16/16/16 17/17/17
f 18/18/18 17/17/17 16/16/16
f 17/17/17 18/18/18 19/19/19
f 20/20/20 19/19/19 18/18/18
f 19/19/19 20/20/20 21/21/21
f 22/22/22 21/21/21 20/20/20
f 21/21/21 22/22/22 23/23/23
f 24/24/24 23/23/23 22/22/22
f 27/27/27 26/26/26 25/25/25
f 28/28/28 26/26/26 27/27/27
f 29/29/29 28/28/28 27/27/27
f 30/30/30 28/28/28 29/29/29
f 31/31/31 26/26/26 28/28/28
f 26/26/26 31/31/31 32/32/32
f 33/33/33 32/32/32 31/31/31
f 33/33/33 31/31/31 34/34/34
f 28/28/28 34/34/34 31/31/31
f 34/34/34 28/28/28 35/35/35
f 36/36/36 35/35/35 28/28/28
f 36/36/36 28/28/28 30/30/30
f 35/35/35 36/36/36 37/37/37
f 30/30/30 37/37/37 36/36/36
f 37/37/37 30/30/30 38/38/38
f 39/39/39 38/38/38 30/30/30
f 38/38/38 39/39/39 40/40/40
f 41/41/41 40/40/40 39/39/39
f 40/40/40 41/41/41 42/42/42
f 43/43/43 42/42/42 41/41/41
f 42/42/42 43/43/43 44/44/44
f 27/27/27 44/44/44 43/43/43
f 47/47/47 46/46/46 45/45/45
f 48/48/48 45/45/45 46/46/46
f 45/45/45 48/48/48 49/49/49
f 50/50/50 49/49/49 48/48/48
f 49/49/49 50/50/50 51/51/51
f 52/52/52 51/51/51 50/50/50
f 51/51/51 52/52/52 53/53/53
f 54/54/54 53/53/53 52/52/52
f 53/53/53 54/54/54 55/55/55
f 56/56/56 55/55/55 54/54/54
f 55/55/55 56/56/56 57/57/57
f 58/58/58 57/57/57 56/56/56
f 57/57/57 58/58/58 59/59/59
f 60/60/60 59/59/59 58/58/58
f 60/60/60 61/61/61 59/59/59
f 62/62/62 59/59/59 61/61/61
f 65/65/65 64/64/64 63/63/63
f 66/66/66 63/63/63 64/64/64
f 63/63/63 66/66/66 67/67/67
f 68/68/68 67/67/67 66/66/66
f 67/67/67 68/68/68 69/69/69
f 70/70/70 69/69/69 68/68/68
f 69/69/69 70/70/70 71/71/71
f 72/72/72 71/71/71 70/70/70
f 71/71/71 72/72/72 73/73/73
f 74/74/74 73/73/73 72/72/72
f 73/73/73 74/74/74 75/75/75
f 76/76/76 75/75/75 74/74/74
f 75/75/75 76/76/76 77/77/77
f 78/78/78 77/77/77 76/76/76
f 78/78/78 79/79/79 77/77/77
f 80/80/80 77/77/77 79/79/79
f 83/83/83 82/82/82 81/81/81
f 84/84/84 81/81/81 82/82/82
f 84/84/84 82/82/82 85/85/85
f 84/84/84 85/85/85 86/86/86
f 86/86/86 87/87/87 84/84/84
f 88/88/88 84/84/84 87/87/87
f 91/91/91 90/90/90 89/89/89
f 92/92/92 89/89/89 90/90/90
f 90/90/90 93/93/93 92/92/92
f 90/90/90 94/94/94 93/93/93
f 90/90/90 95/95/95 94/94/94
f 96/96/96 94/94/94 95/95/95
