g Color_04
v -15.25282 -5.665158 14.90995
v -16.08111 -3.670241 16.52563
v -11.98664 -5.654522 14.78887
v -11.98664 -5.654522 14.78887
v -16.18699 -8.144619 16.09359
v -15.25282 -5.665158 14.90995
v -12.20188 -5.656821 14.78901
v -13.59596 -9.56702 15.14451
v -13.97528 -8.021952 13.94153
v -14.74106 -10.14795 11.82913
v -14.36508 -11.76525 12.9291
v -14.75432 -11.71984 9.356304
v -11.42575 -8.869839 17.15732
v -11.97381 -8.738552 15.5065
v -12.19995 -5.657511 14.79039
v -10.03937 -6.908328 16.55765
v -10.78404 -9.183516 16.93445
v -12.19818 -5.655592 14.79112
v -12.19818 -5.655592 14.79112
v -10.03339 -5.467678 18.25852
v -10.03937 -6.908328 16.55765
v -12.20044 -5.65217 14.79148
v -13.53771 -2.184248 15.94812
v -11.77402 -2.897158 16.01279
v -11.9862 -5.652966 14.78944
v -14.51317 -3.767856 14.81815
v -14.20884 -2.448157 16.03648
v -11.9862 -5.652966 14.78944
v -16.06398 -4.888472 15.45987
v -14.51317 -3.767856 14.81815
v -12.19869 -5.653149 14.79107
v -11.0966 -2.14874 16.49752
v -9.888678 -3.994482 15.86219
v -16.97513 -4.463726 14.13311
v -18.42307 -3.200611 13.81736
v -17.4416 -3.442775 14.48577
v -17.53379 -5.238626 12.33663
v -18.83171 -4.70041 8.598284
v -16.41844 -4.567183 14.77667
v -15.25282 -5.665158 14.90995
v -17.25383 -3.429458 15.16125
v -17.38622 -3.402873 15.00799
v -16.83252 -3.515233 15.65086
v -16.08111 -3.670241 16.52563
v -15.25282 -5.665158 14.90995
v -16.18699 -8.144619 16.09359
v -18.52648 -7.673655 13.39715
v -17.53379 -5.238626 12.33663
v -18.83171 -4.70041 8.598284
v -16.59097 -9.465128 11.66231
v -14.74106 -10.14795 11.82913
v -14.75432 -11.71984 9.356304
v -15.79958 -7.250093 13.86832
v -13.97528 -8.021952 13.94153
v -12.20188 -5.656821 14.78901
v -13.97528 -8.021952 13.94153
v -13.59596 -9.56702 15.14451
v -14.36508 -11.76525 12.9291
v -14.74106 -10.14795 11.82913
v -9.957421 -11.86233 16.47314
v -10.70725 -10.77416 16.10688
v -10.30614 -11.15163 16.63563
v -10.57475 -11.61129 14.85794
v -8.727909 -13.77355 13.48284
v -11.19441 -9.995793 15.79698
v -11.97381 -8.738552 15.5065
v -10.555 -10.64445 16.75159
v -10.6776 -10.39459 16.80871
v -11.42575 -8.869839 17.15732
v -10.99301 -9.751778 16.95568
v -12.22555 -12.48443 14.71692
v -10.57475 -11.61129 14.85794
v -8.727909 -13.77355 13.48284
v -13.69309 -9.491331 15.40061
v -11.97381 -8.738552 15.5065
v -12.19995 -5.657511 14.79039
v -8.812425 -9.602298 16.98748
v -3.344425 -7.835114 15.63229
v -7.317476 -9.919832 17.0277
v -8.722693 -8.406054 16.79446
v -6.71989 -7.616157 16.64804
v -10.03937 -6.908328 16.55765
v -9.337151 -9.490843 16.97337
v -10.78404 -9.183516 16.93445
v -10.03937 -6.908328 16.55765
v -10.03339 -5.467678 18.25852
v -6.566818 -6.203996 18.35177
v -6.71989 -7.616157 16.64804
v -3.344425 -7.835114 15.63229
v -9.477622 -0.1475514 17.61652
v -11.1203 0.04915211 16.75099
v -10.45308 2.518515 17.02627
v -10.15907 -3.219223 16.84575
v -11.77402 -2.897158 16.01279
v -12.20044 -5.65217 14.79148
v -11.77402 -2.897158 16.01279
v -13.53771 -2.184248 15.94812
v -12.85494 0.8885381 16.71536
v -11.1203 0.04915211 16.75099
v -10.45308 2.518515 17.02627
v -8.095784 -3.789112 4.316155
v -7.794875 -3.665213 0.6526829
v -7.790274 -4.741929 0.5789011
v -8.091654 -4.798399 4.229401
v -8.869575 -4.123087 7.940645
v -8.861938 -5.016737 7.841624
v -10.07199 -4.700239 11.45566
v -10.05924 -5.434376 11.3557
v -11.55233 -5.506213 14.81734
v -11.54016 -6.045554 14.73606
v -8.091654 -4.798399 4.229401
v -7.790274 -4.741929 0.5789011
v -8.456812 -5.411169 0.4873351
v -8.714076 -5.421578 4.11129
v -8.861938 -5.016737 7.841624
v -9.404457 -5.564084 7.690208
v -10.05924 -5.434376 11.3557
v -10.49038 -5.876592 11.18805
v -11.54016 -6.045554 14.73606
v -11.84586 -6.363562 14.58802
v -8.714076 -5.421578 4.11129
v -8.456812 -5.411169 0.4873351
v -9.470387 -5.412336 0.4089341
v -9.659677 -5.419881 4.006769
v -9.404457 -5.564084 7.690208
v -10.23118 -5.558328 7.550082
v -10.49038 -5.876592 11.18805
v -11.15365 -5.865792 11.02662
v -11.84586 -6.363562 14.58802
v -12.3221 -6.35027 14.43883
v -9.659677 -5.419881 4.006769
v -9.470387 -5.412336 0.4089341
v -10.29551 -4.587309 0.40102
v -10.43113 -4.646388 3.987943
v -10.23118 -5.558328 7.550082
v -10.91143 -4.872488 7.512709
v -11.15365 -5.865792 11.02662
v -11.71056 -5.297591 10.97313
v -12.3221 -6.35027 14.43883
v -12.73087 -5.925501 14.38089
v -10.43113 -4.646388 3.987943
v -10.29551 -4.587309 0.40102
v -10.29881 -3.510335 0.4750876
v -10.43643 -3.638479 4.074095
v -9.631776 -2.842166 0.5664332
v -10.91143 -4.872488 7.512709
v -9.815362 -3.013871 4.192001
v -10.92125 -3.979092 7.610788
v -11.71056 -5.297591 10.97313
v -10.37913 -3.429392 7.762158
v -11.72505 -4.560012 11.0726
v -12.73087 -5.925501 14.38089
v -11.29086 -4.116008 11.24063
v -12.74454 -5.379476 14.46226
v -12.43288 -5.060195 14.61122
v -9.815362 -3.013871 4.192001
v -9.631776 -2.842166 0.5664332
v -8.619154 -2.841606 0.6445068
v -8.868546 -3.014162 4.297083
v -10.37913 -3.429392 7.762158
v -9.55035 -3.434983 7.903121
v -11.29086 -4.116008 11.24063
v -10.62565 -4.130111 11.40251
v -12.43288 -5.060195 14.61122
v -11.95467 -5.079924 14.76034
v -8.868546 -3.014162 4.297083
v -8.619154 -2.841606 0.6445068
v -7.794875 -3.665213 0.6526829
v -8.095784 -3.789112 4.316155
v -9.55035 -3.434983 7.903121
v -8.869575 -4.123087 7.940645
v -10.62565 -4.130111 11.40251
v -10.07199 -4.700239 11.45566
v -11.95467 -5.079924 14.76034
v -11.55233 -5.506213 14.81734
v -14.20884 -2.448157 16.03648
v -14.51317 -3.767856 14.81815
v -15.74132 -2.402973 13.65116
v -16.1367 -0.2778604 14.17095
v -16.38277 -1.699571 13.04682
v -17.50957 0.02353788 10.49376
v -14.51317 -3.767856 14.81815
v -16.06398 -4.888472 15.45987
v -16.5314 -4.357284 15.00908
v -15.74132 -2.402973 13.65116
v -17.99294 -2.719727 13.61224
v -16.38277 -1.699571 13.04682
v -17.50957 0.02353788 10.49376
v -9.888678 -3.994482 15.86219
v -11.0966 -2.14874 16.49752
v -8.409612 -0.1763396 16.71021
v -7.314704 -2.105087 16.06698
v -5.101798 -0.4565412 15.66244
v -12.19869 -5.653149 14.79107
v -9.888678 -3.994482 15.86219
v -8.460156 -5.724298 16.34856
v -7.314704 -2.105087 16.06698
v -5.773164 -3.751898 16.56125
v -5.101798 -0.4565412 15.66244
vt 0.3528011 0.03511899
vt 0.3528011 0.03459128
vt 0.3524927 0.03485521
vt 0.3790066 0.03485508
vt 0.3793629 0.03516
vt 0.3793629 0.03455031
vt 0.4050328 0.03485521
vt 0.4053891 0.03516
vt 0.4053891 0.03455031
vt 0.405211 0.03459128
vt 0.405211 0.03511899
vt 0.4055193 0.03485508
vt 0.3793629 0.03516
vt 0.3793629 0.03455031
vt 0.3790066 0.03485508
vt 0.3794931 0.03511899
vt 0.3794931 0.03459128
vt 0.3791847 0.03485521
vt 0.3524687 0.03485521
vt 0.352825 0.03515999
vt 0.352825 0.03455031
vt 0.3790066 0.03485508
vt 0.3793629 0.03516
vt 0.3793629 0.03455031
vt 0.3790305 0.03485521
vt 0.379339 0.03511899
vt 0.379339 0.03459128
vt 0.4048787 0.03485521
vt 0.405235 0.03516
vt 0.405235 0.03455031
vt 0.3790066 0.03485508
vt 0.3793629 0.03516
vt 0.3793629 0.03455031
vt 0.3529803 0.03487156
vt 0.3531094 0.03459128
vt 0.3530347 0.03459128
vt 0.3531094 0.03511899
vt 0.3534178 0.03485521
vt 0.3529055 0.03487005
vt 0.3528011 0.03511899
vt 0.3529562 0.03459128
vt 0.3529737 0.03459128
vt 0.3529006 0.03459128
vt 0.3528011 0.03459128
vt 0.3793629 0.03463214
vt 0.3793629 0.03516
vt 0.3796712 0.03516
vt 0.3796712 0.03463214
vt 0.3799795 0.03489607
vt 0.3796473 0.03459128
vt 0.3796473 0.03511899
vt 0.3799556 0.03485521
vt 0.379339 0.03459128
vt 0.379339 0.03511899
vt 0.3790305 0.03485521
vt 0.4053891 0.03463229
vt 0.4053891 0.03516
vt 0.4056975 0.03516
vt 0.4056975 0.03463229
vt 0.3796712 0.03516
vt 0.379576 0.03480646
vt 0.3794913 0.03481245
vt 0.3796712 0.03463214
vt 0.3799795 0.03489607
vt 0.3794913 0.03481245
vt 0.3793629 0.03463214
vt 0.3795457 0.03516
vt 0.37952 0.03516
vt 0.3793629 0.03516
vt 0.3794538 0.03516
vt 0.4055194 0.03459128
vt 0.4055194 0.03511899
vt 0.4058277 0.03485506
vt 0.4052111 0.03459128
vt 0.4052111 0.03511899
vt 0.4049026 0.03485506
vt 0.3796685 0.03459128
vt 0.3798015 0.03485521
vt 0.3798015 0.03459128
vt 0.3796467 0.03485521
vt 0.3798015 0.03511899
vt 0.3794931 0.03511899
vt 0.3796218 0.03459128
vt 0.3794931 0.03459128
vt 0.352825 0.03463229
vt 0.352825 0.03515999
vt 0.3531333 0.03515999
vt 0.3531333 0.03463229
vt 0.3534417 0.03489619
vt 0.3531094 0.03459122
vt 0.3531094 0.03511905
vt 0.3534178 0.03485514
vt 0.352801 0.03459122
vt 0.352801 0.03511905
vt 0.3524927 0.03485514
vt 0.3793629 0.03463214
vt 0.3793629 0.03516
vt 0.3796712 0.03516
vt 0.3796712 0.03463214
vt 0.3799795 0.03489607
vt 0.4081096 0.0112741
vt 0.4081096 0.01101032
vt 0.407994 0.01101032
vt 0.407994 0.0112741
vt 0.4081096 0.01153802
vt 0.407994 0.01153802
vt 0.4081096 0.01180181
vt 0.407994 0.01180181
vt 0.4081096 0.01153797
vt 0.407994 0.01153797
vt 0.3816511 0.0112741
vt 0.3816511 0.01101032
vt 0.3815355 0.01101032
vt 0.3815355 0.0112741
vt 0.3816511 0.01153802
vt 0.3815355 0.01153802
vt 0.3816511 0.01180181
vt 0.3815355 0.01180181
vt 0.3816511 0.01153797
vt 0.3815355 0.01153797
vt 0.3566616 0.01127413
vt 0.3566616 0.01101023
vt 0.356546 0.01101023
vt 0.356546 0.01127413
vt 0.3566616 0.01153805
vt 0.356546 0.01153805
vt 0.3566616 0.01180186
vt 0.356546 0.01180186
vt 0.3566616 0.01153802
vt 0.356546 0.01153802
vt 0.356546 0.01140605
vt 0.356546 0.01166997
vt 0.3566616 0.01166997
vt 0.3566616 0.01140605
vt 0.356546 0.01114213
vt 0.3566616 0.01114213
vt 0.356546 0.01127416
vt 0.3566616 0.01127416
vt 0.356546 0.0112741
vt 0.3566616 0.0112741
vt 0.3567194 0.0112741
vt 0.3567194 0.01101032
vt 0.3566038 0.01101032
vt 0.3566038 0.0112741
vt 0.3564882 0.01101032
vt 0.3567194 0.01153802
vt 0.3564882 0.0112741
vt 0.3566038 0.01153802
vt 0.3567194 0.01180181
vt 0.3564882 0.01153802
vt 0.3566038 0.01180181
vt 0.3567194 0.01153797
vt 0.3564882 0.01180181
vt 0.3566037 0.01153797
vt 0.3564882 0.01153797
vt 0.356546 0.01153794
vt 0.356546 0.01180186
vt 0.3566616 0.01180186
vt 0.3566616 0.01153794
vt 0.356546 0.01127416
vt 0.3566616 0.01127416
vt 0.356546 0.01101023
vt 0.3566616 0.01101023
vt 0.356546 0.01127416
vt 0.3566616 0.01127416
vt 0.3817089 0.0112741
vt 0.3817089 0.01101032
vt 0.3815933 0.01101032
vt 0.3815933 0.0112741
vt 0.3817089 0.01153802
vt 0.3815933 0.01153802
vt 0.3817089 0.01180181
vt 0.3815933 0.01180181
vt 0.3817089 0.01153797
vt 0.3815933 0.01153797
vt 0.379339 0.03459128
vt 0.379339 0.03511899
vt 0.379542 0.03511899
vt 0.3796473 0.03459128
vt 0.3796473 0.03511899
vt 0.3799556 0.03485521
vt 0.405235 0.03463229
vt 0.405235 0.03516
vt 0.4053102 0.03516
vt 0.405438 0.03463229
vt 0.4055433 0.03516
vt 0.4055433 0.03463229
vt 0.4058516 0.03489622
vt 0.3793629 0.03463214
vt 0.3793629 0.03516
vt 0.3796712 0.03516
vt 0.3796712 0.03463214
vt 0.3799795 0.03489607
vt 0.4049026 0.03485506
vt 0.4052111 0.03511899
vt 0.4052111 0.03459128
vt 0.4055194 0.03511899
vt 0.4055194 0.03459128
vt 0.4058277 0.03485506
vn 0.03104943 -0.6212533 0.7829944
vn 0.03104943 -0.6212533 0.7829944
vn 0.03104943 -0.6212533 0.7829944
vn 0.03224023 0.4206631 0.9066439
vn 0.03224023 0.4206631 0.9066439
vn 0.03224023 0.4206631 0.9066439
vn -0.714904 0.311781 0.6258633
vn -0.8948476 0.1101055 0.432579
vn -0.8414416 0.1843289 0.5079359
vn -0.9727921 -0.07120004 0.2204678
vn -0.9692343 -0.05655616 0.2395542
vn -0.9820206 -0.1568831 0.1049916
vn -0.9077553 -0.315082 0.2769544
vn -0.9319793 -0.216445 0.2908025
vn -0.948971 0.003644083 0.3153422
vn -0.495374 0.297312 0.816217
vn -0.495374 0.297312 0.816217
vn -0.495374 0.297312 0.816217
vn -0.6971163 -0.5458741 0.4648122
vn -0.6971163 -0.5458741 0.4648123
vn -0.6971163 -0.5458741 0.4648122
vn -0.3391333 -0.3368868 0.8783485
vn -0.144365 -0.2695568 0.9521018
vn -0.3238128 -0.2619743 0.9091285
vn -0.4130128 -0.5645229 0.7146568
vn -0.4130128 -0.5645229 0.7146568
vn -0.4130128 -0.5645229 0.7146568
vn 0.203747 0.2587399 0.9442143
vn 0.008504156 0.4885715 0.8724824
vn 0.06355136 0.4286596 0.9012282
vn -0.2652419 -0.2345385 0.935221
vn 0.02939365 -0.3079087 0.9509618
vn -0.1580359 -0.1571406 0.9748495
vn -0.6339464 -0.6074377 0.4786768
vn -0.7063493 -0.571204 0.4180868
vn -0.62405 -0.5862241 0.5166265
vn -0.7536492 -0.5619869 0.3408574
vn -0.8290572 -0.5168275 0.2134325
vn -0.6400554 -0.6209325 0.4525174
vn -0.6400064 -0.6205029 0.4531756
vn -0.6398459 -0.6216166 0.4518739
vn -0.6398459 -0.6216167 0.4518738
vn -0.6420195 -0.6248426 0.4442777
vn -0.6420195 -0.6248427 0.4442777
vn -0.5992039 0.5148841 0.6130652
vn -0.5992039 0.5148841 0.6130653
vn -0.6675791 0.5106887 0.5417889
vn -0.7280549 0.5017751 0.4670737
vn -0.805024 0.4800114 0.348605
vn -0.3128294 -0.6908403 0.6518262
vn -0.3193262 -0.7152621 0.6216355
vn -0.3384514 -0.7932998 0.506089
vn -0.2458272 -0.4998554 0.8304899
vn -0.2172752 -0.4286406 0.87696
vn -0.1398512 -0.2394121 0.9607931
vn -0.8414416 0.1843289 0.5079359
vn -0.8948476 0.1101055 0.432579
vn -0.9692343 -0.05655616 0.2395542
vn -0.9727921 -0.07120004 0.2204678
vn -0.7865542 -0.5782217 0.2167764
vn -0.8485404 -0.4644771 0.2534568
vn -0.8343568 -0.4898704 0.2527364
vn -0.7790914 -0.5932026 0.2027993
vn -0.6986824 -0.6976291 0.1586081
vn -0.852963 -0.4623974 0.2421629
vn -0.9319793 -0.216445 0.2908025
vn -0.8552637 -0.4398224 0.274008
vn -0.8552637 -0.4398224 0.2740081
vn -0.9077553 -0.315082 0.2769544
vn -0.8478372 -0.4702446 0.2450351
vn 0.07622042 -0.2952726 0.9523679
vn 0.09415554 -0.3277927 0.940046
vn 0.153484 -0.4335943 0.8879406
vn -0.03467951 -0.06436046 0.9973239
vn -0.07138828 0.02046628 0.9972386
vn -0.1527363 0.2130857 0.9650213
vn 0.1445616 0.280402 0.9489344
vn 0.1388644 0.1516274 0.9786347
vn 0.1445616 0.280402 0.9489344
vn 0.09151037 0.09580803 0.9911844
vn 0.1195428 -0.1204191 0.9854993
vn 0.05057917 0.05290679 0.9973177
vn 0.006442901 0.160633 0.9869932
vn 0.006442901 0.160633 0.9869932
vn -0.1769117 -0.7503129 0.6369717
vn -0.1769117 -0.7503128 0.6369717
vn -0.06715515 -0.7654697 0.639958
vn -0.007994701 -0.7697253 0.6383253
vn 0.1381123 -0.7685945 0.6246498
vn -0.4703092 -0.05284566 0.880918
vn -0.2895563 -0.1095434 0.9508719
vn -0.2678652 -0.03495841 0.9628219
vn -0.4789688 -0.1769071 0.8598214
vn -0.3238128 -0.2619743 0.9091285
vn -0.3391333 -0.3368868 0.8783485
vn -0.3238128 -0.2619743 0.9091285
vn -0.144365 -0.2695568 0.9521018
vn -0.0981622 -0.1620697 0.9818847
vn -0.2895563 -0.1095434 0.9508719
vn -0.2678652 -0.03495841 0.9628219
vn 0.9134376 0.3752648 0.1575064
vn 0.9236398 0.372898 0.08852447
vn 0.9160659 -0.3949385 0.06961893
vn 0.9174084 -0.3795157 0.1197066
vn 0.8866324 0.3607033 0.289441
vn 0.8971086 -0.3875992 0.2120452
vn 0.8505614 0.3426501 0.3989186
vn 0.8738346 -0.3975351 0.2799622
vn 0.8345836 0.3242782 0.4453243
vn 0.8558726 -0.4221891 0.2987281
vn 0.9174084 -0.3795157 0.1197066
vn 0.9160659 -0.3949385 0.06961893
vn 0.3741934 -0.9270427 0.02390102
vn 0.3916917 -0.9195491 0.03173384
vn 0.8971086 -0.3875992 0.2120452
vn 0.3864954 -0.9214879 0.03848796
vn 0.8738346 -0.3975351 0.2799622
vn 0.3819859 -0.9237095 0.02911034
vn 0.8558726 -0.4221891 0.2987281
vn 0.3610613 -0.9324848 0.0103387
vn 0.3916917 -0.9195491 0.03173384
vn 0.3741934 -0.9270427 0.02390102
vn -0.382006 -0.923894 -0.02216423
vn -0.3711257 -0.9267691 -0.05800674
vn 0.3864954 -0.9214879 0.03848796
vn -0.3643723 -0.9213477 -0.1354666
vn 0.3819859 -0.9237095 0.02911034
vn -0.3529079 -0.911422 -0.2115797
vn 0.3610613 -0.9324848 0.0103387
vn -0.3554916 -0.9006869 -0.2497775
vn -0.3711257 -0.9267691 -0.05800674
vn -0.382006 -0.923894 -0.02216423
vn -0.919763 -0.3902836 -0.04140941
vn -0.9203146 -0.379517 -0.0948052
vn -0.3643723 -0.9213477 -0.1354666
vn -0.9070758 -0.3699778 -0.2008228
vn -0.3529079 -0.911422 -0.2115797
vn -0.8873026 -0.3584858 -0.2901417
vn -0.3554916 -0.9006869 -0.2497775
vn -0.8725409 -0.3621072 -0.3279493
vn -0.9203146 -0.379517 -0.0948052
vn -0.919763 -0.3902836 -0.04140941
vn -0.9279794 0.3719671 -0.02224413
vn -0.9175575 0.3938522 -0.05448483
vn -0.392073 0.9196268 0.02377906
vn -0.9070758 -0.3699778 -0.2008228
vn -0.3736158 0.9268542 0.03677789
vn -0.9100242 0.3983387 -0.1148148
vn -0.8873026 -0.3584858 -0.2901417
vn -0.3794418 0.9228891 0.06557109
vn -0.9025062 0.4008982 -0.1573637
vn -0.8725409 -0.3621072 -0.3279493
vn -0.3909529 0.9148318 0.1011859
vn -0.9074609 0.3790714 -0.1811616
vn -0.4166288 0.902204 0.1115725
vn -0.3736158 0.9268542 0.03677789
vn -0.392073 0.9196268 0.02377906
vn 0.3788935 0.9228193 0.0696003
vn 0.3828148 0.9154715 0.1239545
vn -0.3794418 0.9228891 0.06557109
vn 0.3637972 0.9023767 0.2310151
vn -0.3909529 0.9148318 0.1011859
vn 0.3351024 0.883193 0.328141
vn -0.4166288 0.902204 0.1115725
vn 0.312595 0.8744475 0.3709798
vn 0.3828148 0.9154715 0.1239545
vn 0.3788935 0.9228193 0.0696003
vn 0.9236398 0.372898 0.08852447
vn 0.9134376 0.3752648 0.1575064
vn 0.3637972 0.9023767 0.2310151
vn 0.8866324 0.3607033 0.289441
vn 0.3351024 0.883193 0.328141
vn 0.8505614 0.3426501 0.3989186
vn 0.312595 0.8744475 0.3709798
vn 0.8345836 0.3242782 0.4453243
vn -0.8085822 -0.2807518 0.5170815
vn -0.8085822 -0.2807518 0.5170815
vn -0.8085822 -0.2807517 0.5170815
vn -0.8663491 -0.2140691 0.4512357
vn -0.8806909 -0.1948677 0.4317524
vn -0.9342899 -0.1071512 0.3400309
vn 0.06355136 0.4286596 0.9012282
vn 0.008504156 0.4885715 0.8724824
vn -0.09775732 0.5940902 0.7984362
vn -0.09757911 0.5944265 0.7982077
vn -0.1550158 0.6540716 0.7403787
vn -0.1838712 0.6819064 0.7079512
vn -0.2558568 0.7451639 0.6158475
vn -0.1580359 -0.1571406 0.9748495
vn 0.02939365 -0.3079087 0.9509618
vn 0.1813426 -0.217095 0.9591584
vn 0.0470444 -0.006925163 0.9988688
vn 0.1364899 0.05944478 0.9888564
vn -0.2652419 -0.2345385 0.935221
vn -0.1580359 -0.1571406 0.9748495
vn -0.2473019 0.06734739 0.9665951
vn 0.0470444 -0.006925163 0.9988688
vn -0.1152821 0.1851886 0.9759177
vn 0.1364899 0.05944478 0.9888564
g Color_04_0
f 3/3/3 2/2/2 1/1/1
f 6/6/6 5/5/5 4/4/4
f 9/9/9 8/8/8 7/7/7
f 12/12/12 11/11/11 10/10/10
f 15/15/15 14/14/14 13/13/13
f 18/18/18 17/17/17 16/16/16
f 21/21/21 20/20/20 19/19/19
f 24/24/24 23/23/23 22/22/22
f 27/27/27 26/26/26 25/25/25
f 30/30/30 29/29/29 28/28/28
f 33/33/33 32/32/32 31/31/31
f 36/36/36 35/35/35 34/34/34
f 35/35/35 37/37/37 34/34/34
f 38/38/38 37/37/37 35/35/35
f 39/39/39 34/34/34 37/37/37
f 40/40/40 39/39/39 37/37/37
f 39/39/39 41/41/41 34/34/34
f 41/41/41 42/42/42 34/34/34
f 43/43/43 39/39/39 40/40/40
f 44/44/44 43/43/43 40/40/40
f 47/47/47 46/46/46 45/45/45
f 48/48/48 47/47/47 45/45/45
f 49/49/49 47/47/47 48/48/48
f 52/52/52 51/51/51 50/50/50
f 50/50/50 51/51/51 53/53/53
f 51/51/51 54/54/54 53/53/53
f 53/53/53 54/54/54 55/55/55
f 58/58/58 57/57/57 56/56/56
f 59/59/59 58/58/58 56/56/56
f 62/62/62 61/61/61 60/60/60
f 61/61/61 63/63/63 60/60/60
f 63/63/63 64/64/64 60/60/60
f 61/61/61 65/65/65 63/63/63
f 65/65/65 66/66/66 63/63/63
f 61/61/61 67/67/67 65/65/65
f 67/67/67 68/68/68 65/65/65
f 69/69/69 66/66/66 65/65/65
f 70/70/70 69/69/69 65/65/65
f 73/73/73 72/72/72 71/71/71
f 71/71/71 72/72/72 74/74/74
f 72/72/72 75/75/75 74/74/74
f 74/74/74 75/75/75 76/76/76
f 79/79/79 78/78/78 77/77/77
f 78/78/78 80/80/80 77/77/77
f 78/78/78 81/81/81 80/80/80
f 81/81/81 82/82/82 80/80/80
f 83/83/83 80/80/80 82/82/82
f 84/84/84 83/83/83 82/82/82
f 87/87/87 86/86/86 85/85/85
f 88/88/88 87/87/87 85/85/85
f 89/89/89 87/87/87 88/88/88
f 92/92/92 91/91/91 90/90/90
f 90/90/90 91/91/91 93/93/93
f 91/91/91 94/94/94 93/93/93
f 93/93/93 94/94/94 95/95/95
f 98/98/98 97/97/97 96/96/96
f 99/99/99 98/98/98 96/96/96
f 100/100/100 98/98/98 99/99/99
f 103/103/103 102/102/102 101/101/101
f 104/104/104 103/103/103 101/101/101
f 104/104/104 101/101/101 105/105/105
f 106/106/106 104/104/104 105/105/105
f 106/106/106 105/105/105 107/107/107
f 108/108/108 106/106/106 107/107/107
f 108/108/108 107/107/107 109/109/109
f 110/110/110 108/108/108 109/109/109
f 113/113/113 112/112/112 111/111/111
f 114/114/114 113/113/113 111/111/111
f 114/114/114 111/111/111 115/115/115
f 116/116/116 114/114/114 115/115/115
f 116/116/116 115/115/115 117/117/117
f 118/118/118 116/116/116 117/117/117
f 118/118/118 117/117/117 119/119/119
f 120/120/120 118/118/118 119/119/119
f 123/123/123 122/122/122 121/121/121
f 124/124/124 123/123/123 121/121/121
f 124/124/124 121/121/121 125/125/125
f 126/126/126 124/124/124 125/125/125
f 126/126/126 125/125/125 127/127/127
f 128/128/128 126/126/126 127/127/127
f 128/128/128 127/127/127 129/129/129
f 130/130/130 128/128/128 129/129/129
f 133/133/133 132/132/132 131/131/131
f 134/134/134 133/133/133 131/131/131
f 134/134/134 131/131/131 135/135/135
f 136/136/136 134/134/134 135/135/135
f 136/136/136 135/135/135 137/137/137
f 138/138/138 136/136/136 137/137/137
f 138/138/138 137/137/137 139/139/139
f 140/140/140 138/138/138 139/139/139
f 143/143/143 142/142/142 141/141/141
f 144/144/144 143/143/143 141/141/141
f 145/145/145 143/143/143 144/144/144
f 144/144/144 141/141/141 146/146/146
f 147/147/147 145/145/145 144/144/144
f 148/148/148 144/144/144 146/146/146
f 147/147/147 144/144/144 148/148/148
f 148/148/148 146/146/146 149/149/149
f 150/150/150 147/147/147 148/148/148
f 151/151/151 148/148/148 149/149/149
f 150/150/150 148/148/148 151/151/151
f 151/151/151 149/149/149 152/152/152
f 153/153/153 150/150/150 151/151/151
f 154/154/154 151/151/151 152/152/152
f 153/153/153 151/151/151 154/154/154
f 155/155/155 153/153/153 154/154/154
f 158/158/158 157/157/157 156/156/156
f 159/159/159 158/158/158 156/156/156
f 159/159/159 156/156/156 160/160/160
f 161/161/161 159/159/159 160/160/160
f 161/161/161 160/160/160 162/162/162
f 163/163/163 161/161/161 162/162/162
f 163/163/163 162/162/162 164/164/164
f 165/165/165 163/163/163 164/164/164
f 168/168/168 167/167/167 166/166/166
f 169/169/169 168/168/168 166/166/166
f 169/169/169 166/166/166 170/170/170
f 171/171/171 169/169/169 170/170/170
f 171/171/171 170/170/170 172/172/172
f 173/173/173 171/171/171 172/172/172
f 173/173/173 172/172/172 174/174/174
f 175/175/175 173/173/173 174/174/174
f 178/178/178 177/177/177 176/176/176
f 176/176/176 179/179/179 178/178/178
f 179/179/179 180/180/180 178/178/178
f 181/181/181 180/180/180 179/179/179
f 184/184/184 183/183/183 182/182/182
f 185/185/185 184/184/184 182/182/182
f 186/186/186 184/184/184 185/185/185
f 187/187/187 186/186/186 185/185/185
f 188/188/188 186/186/186 187/187/187
f 191/191/191 190/190/190 189/189/189
f 192/192/192 191/191/191 189/189/189
f 193/193/193 191/191/191 192/192/192
f 196/196/196 195/195/195 194/194/194
f 197/197/197 195/195/195 196/196/196
f 198/198/198 197/197/197 196/196/196
f 199/199/199 197/197/197 198/198/198
