g Color_09
v 5.766163 7.621043 0.9284468
v 6.420815 8.033798 -1.380083
v 6.039703 7.539299 0.2436161
v 6.315144 8.474981 -1.262545
v 6.073963 7.982914 0.5144339
v 6.420029 8.920981 -3.167825
v 6.472336 8.700904 -0.9728255
v 6.307777 9.350603 -2.968948
v 6.474625 9.627842 -2.736293
v -5.605202 -3.568042 0.484726
v -6.560303 -3.284854 -1.233428
v -6.014259 -3.504119 0.08585167
v -6.262112 -3.321817 -1.405911
v -5.698002 -3.680602 -0.005290985
v -6.856606 -2.827572 -2.847625
v -6.084702 -3.550257 -1.370492
v -6.528698 -2.885411 -2.962687
v -6.352657 -3.108792 -2.99286
v 7.348194 8.86768 2.090826
v 6.319691 8.808697 -0.3145008
v 6.834885 8.886709 1.480938
v 6.777813 8.634249 -0.430047
v 7.27261 8.538535 1.503812
v 6.277317 8.915292 -2.456278
v 6.977936 8.285114 -0.2800961
v 6.76395 8.726799 -2.489144
v 6.974808 8.360505 -2.419823
v -9.854301 2.295683 0.2545433
v -10.57169 2.096932 -0.5325718
v -10.16054 2.286846 0.06938076
v -10.35548 1.933824 -0.5933471
v -9.940834 2.020917 0.06937981
v -10.78241 1.963804 -1.299413
v -10.2413 1.697038 -0.5325718
v -10.54479 1.797127 -1.33175
v -10.43234 1.540073 -1.299414
v -1.650883 -2.230083 1.239936
v -1.121933 -0.8305588 -1.006303
v -1.389122 -1.75239 0.7269144
v -1.412518 -0.9274635 -1.207378
v -1.778133 -1.740622 0.710124
v -0.9330482 -0.2309837 -3.25676
v -1.706894 -0.8128777 -1.031561
v -1.248138 -0.3590231 -3.375726
v -1.552845 -0.2122383 -3.283526
v -11.80596 1.136653 0.3711786
v -10.92256 1.086517 -0.4787436
v -11.47291 1.041343 0.1712389
v -11.05957 1.31849 -0.5443668
v -11.55407 1.374475 0.1712389
v -10.61974 1.144472 -1.306772
v -11.0446 1.587481 -0.4787426
v -10.77761 1.387177 -1.341689
v -10.74906 1.675294 -1.306772
v -11.92413 2.09619 1.874176
v -11.13807 1.598244 0.3446989
v -11.659 1.819852 1.514376
v -11.16835 1.935427 0.2266054
v -11.59694 2.246537 1.514376
v -10.83791 1.51468 -1.145379
v -11.04474 2.239884 0.3447008
v -10.88284 1.874695 -1.208215
v -10.73901 2.194561 -1.14538
v -7.490734 -3.337311 -0.5222406
v -6.808929 -3.674033 -1.673126
v -7.317581 -3.606245 -0.7629094
v -6.781303 -3.441547 -1.679893
v -7.227165 -3.397418 -0.7046776
v -6.668293 -3.46294 -2.70076
v -6.703442 -3.357775 -1.556396
v -6.651657 -3.224553 -2.665082
v -6.556534 -3.127829 -2.577069
v 0.7546539 -0.6045141 -0.2085714
v -0.6589241 -0.2053041 -1.305771
v 0.2899132 -0.3286228 -0.4638472
v -0.6006393 -0.6102257 -1.371712
v 0.2369766 -0.8342085 -0.399683
v -1.315521 -0.2585154 -2.450059
v -0.7385445 -0.9655991 -1.209291
v -1.225922 -0.684412 -2.472258
v -1.399857 -1.064115 -2.347823
v -30.78762 13.77419 0.2545519
v -31.46491 14.08307 -0.5325632
v -31.02788 13.96426 0.06938839
v -31.40414 13.81914 -0.5933409
v -31.03051 13.61933 0.06938839
v -31.71192 14.11653 -1.299406
v -31.46888 13.56436 -0.5325642
v -31.63702 13.83612 -1.331743
v -31.71611 13.56692 -1.299406
v -33.02767 14.14083 0.3711863
v -32.38317 13.53458 -0.4787359
v -32.83381 13.85373 0.1712456
v -32.33901 13.80035 -0.5443611
v -32.68185 14.1611 0.1712446
v -32.11397 13.38433 -1.306767
v -32.15466 13.99679 -0.478735
v -32.07888 13.67173 -1.341684
v -31.87181 13.87408 -1.306767
v -32.5014 14.95183 1.874185
v -32.21933 14.06511 0.3447075
v -32.47593 14.56972 1.514383
v -32.0258 14.34287 0.226613
v -32.15414 14.85669 1.514383
v -32.04313 13.80816 -1.145372
v -31.73541 14.49665 0.3447094
v -31.84611 14.11282 -1.208208
v -31.53032 14.2654 -1.145372
vt 0.4052679 0.0363408
vt 0.4060937 0.03510213
vt 0.4052679 0.03510213
vt 0.4060937 0.0363408
vt 0.4052679 0.03757958
vt 0.4069196 0.03510213
vt 0.4060937 0.03757958
vt 0.4069196 0.0363408
vt 0.4069196 0.03757958
vt 0.4052679 0.0363408
vt 0.4060937 0.03510213
vt 0.4052679 0.03510213
vt 0.4060937 0.0363408
vt 0.4052679 0.03757958
vt 0.4069196 0.03510213
vt 0.4060937 0.03757958
vt 0.4069196 0.0363408
vt 0.4069196 0.03757958
vt 0.4052679 0.0363408
vt 0.4060937 0.03510213
vt 0.4052679 0.03510213
vt 0.4060937 0.0363408
vt 0.4052679 0.03757958
vt 0.4069196 0.03510213
vt 0.4060937 0.03757958
vt 0.4069196 0.0363408
vt 0.4069196 0.03757958
vt 0.4052679 0.0363408
vt 0.4060937 0.03510213
vt 0.4052679 0.03510213
vt 0.4060937 0.0363408
vt 0.4052679 0.03757958
vt 0.4069196 0.03510213
vt 0.4060937 0.03757958
vt 0.4069196 0.0363408
vt 0.4069196 0.03757958
vt 0.4052679 0.0363408
vt 0.4060937 0.03510213
vt 0.4052679 0.03510213
vt 0.4060937 0.0363408
vt 0.4052679 0.03757958
vt 0.4069196 0.03510213
vt 0.4060937 0.03757958
vt 0.4069196 0.0363408
vt 0.4069196 0.03757958
vt 0.4052679 0.0363408
vt 0.4060937 0.03510213
vt 0.4052679 0.03510213
vt 0.4060937 0.0363408
vt 0.4052679 0.03757958
vt 0.4069196 0.03510213
vt 0.4060937 0.03757958
vt 0.4069196 0.0363408
vt 0.4069196 0.03757958
vt 0.4052679 0.0363408
vt 0.4060937 0.03510213
vt 0.4052679 0.03510213
vt 0.4060937 0.0363408
vt 0.4052679 0.03757958
vt 0.4069196 0.03510213
vt 0.4060937 0.03757958
vt 0.4069196 0.0363408
vt 0.4069196 0.03757958
vt 0.4052679 0.0363408
vt 0.4060937 0.03510213
vt 0.4052679 0.03510213
vt 0.4060937 0.0363408
vt 0.4052679 0.03757958
vt 0.4069196 0.03510213
vt 0.4060937 0.03757958
vt 0.4069196 0.0363408
vt 0.4069196 0.03757958
vt 0.4052679 0.0363408
vt 0.4060937 0.03510213
vt 0.4052679 0.03510213
vt 0.4060937 0.0363408
vt 0.4052679 0.03757958
vt 0.4069196 0.03510213
vt 0.4060937 0.03757958
vt 0.4069196 0.0363408
vt 0.4069196 0.03757958
vt 0.4052679 0.0363408
vt 0.4060937 0.03510213
vt 0.4052679 0.03510213
vt 0.4060937 0.0363408
vt 0.4052679 0.03757958
vt 0.4069196 0.03510213
vt 0.4060937 0.03757958
vt 0.4069196 0.0363408
vt 0.4069196 0.03757958
vt 0.4052679 0.0363408
vt 0.4060937 0.03510213
vt 0.4052679 0.03510213
vt 0.4060937 0.0363408
vt 0.4052679 0.03757958
vt 0.4069196 0.03510213
vt 0.4060937 0.03757958
vt 0.4069196 0.0363408
vt 0.4069196 0.03757958
vt 0.4052679 0.0363408
vt 0.4060937 0.03510213
vt 0.4052679 0.03510213
vt 0.4060937 0.0363408
vt 0.4052679 0.03757958
vt 0.4069196 0.03510213
vt 0.4060937 0.03757958
vt 0.4069196 0.0363408
vt 0.4069196 0.03757958
vn 0.9683976 -0.2023547 0.1458031
vn 0.9550595 0.2103057 0.2088853
vn 0.9296954 0.2116079 0.3014772
vn 0.9902725 -0.1362129 0.02839803
vn 0.7753081 -0.6278435 -0.06862876
vn 0.9731252 0.2064988 0.1019089
vn 0.8348313 -0.5373182 -0.1197744
vn 0.9964607 -0.07303961 -0.04160695
vn 0.9046687 -0.377593 -0.1974792
vn -0.4952489 -0.8676396 0.04393164
vn -0.167789 -0.9735584 -0.1550184
vn -0.1081189 -0.988801 -0.1028732
vn -0.536361 -0.8413581 -0.06658372
vn -0.8432292 -0.4934632 0.2132105
vn -0.2450496 -0.9436451 -0.2224519
vn -0.8301831 -0.5441866 0.1210667
vn -0.536908 -0.8317596 -0.1410881
vn -0.7868544 -0.6159805 -0.03779142
vn -0.6417966 -0.7411256 0.1970533
vn -0.3096368 -0.9493765 0.05300393
vn -0.2587631 -0.9565867 0.1341028
vn -0.6511126 -0.7564669 0.06172649
vn -0.9240119 -0.312046 0.2209732
vn -0.3637025 -0.9306878 -0.03925108
vn -0.9115633 -0.3898317 0.1307041
vn -0.6354917 -0.7715153 -0.03024444
vn -0.8647895 -0.5018609 -0.01657362
vn -0.6375053 -0.5159183 0.5722023
vn -0.4439738 -0.7991075 0.4053571
vn -0.3533734 -0.778539 0.5186564
vn -0.6979493 -0.5717161 0.4312857
vn -0.8240533 -0.1755025 0.5386419
vn -0.5250239 -0.8025221 0.2833871
vn -0.8654961 -0.2637278 0.4258687
vn -0.736052 -0.6062369 0.3011715
vn -0.8886544 -0.3524998 0.2933212
vn 0.01476417 0.8893947 0.4569016
vn -0.5311269 0.8009236 0.2764517
vn -0.5884581 0.7411252 0.3231884
vn 0.02281728 0.9440687 0.3289584
vn 0.6225125 0.670779 0.4031546
vn -0.4315427 0.8800663 0.1981265
vn 0.5745048 0.7391678 0.3515325
vn 0.01875186 0.9667566 0.2550099
vn 0.4805923 0.8386186 0.2564176
vn 0.7571132 0.1844429 0.6267061
vn 0.6817724 0.5786391 0.4476197
vn 0.5746877 0.5946538 0.5622464
vn 0.8510855 0.2073364 0.4823537
vn 0.7837966 -0.2636982 0.5622511
vn 0.7726424 0.5478965 0.3206761
vn 0.871517 -0.2002334 0.4476213
vn 0.9129092 0.222396 0.3422526
vn 0.9380663 -0.1311485 0.3206741
vn 0.9020153 -0.1369691 0.4093995
vn 0.9301735 0.2279936 0.2877432
vn 0.8872402 0.2839849 0.3635349
vn 0.9471368 -0.1430571 0.2871696
vn 0.7499464 -0.5412188 0.3803454
vn 0.9703971 0.1531456 0.1867509
vn 0.8116903 -0.4991646 0.303304
vn 0.9693971 -0.1435948 0.1991227
vn 0.8802552 -0.4331911 0.1936399
vn 0.7375749 -0.5024744 0.4511127
vn 0.9415521 -0.03875482 0.3346306
vn 0.8620474 0.01385604 0.5066381
vn 0.859151 -0.4805861 0.175774
vn 0.0831528 -0.9930781 0.08295453
vn 0.9887365 -0.09978949 0.1115448
vn 0.331292 -0.9425862 0.04215214
vn 0.926262 -0.3744409 0.04281179
vn 0.7469628 -0.6633534 -0.04482052
vn -0.6586704 0.1622221 0.7347363
vn -0.7498826 -0.2499497 0.6125367
vn -0.6365668 -0.290335 0.7144846
vn -0.7777487 0.1586283 0.6082301
vn -0.5452873 0.5813959 0.6038548
vn -0.8453248 -0.202898 0.494225
vn -0.6670623 0.5410463 0.5121491
vn -0.8636687 0.1514409 0.4807722
vn -0.7731239 0.4866937 0.4067047
vn -0.8199828 0.0145732 0.5722026
vn -0.8537603 -0.3267615 0.4053643
vn -0.7711452 -0.369224 0.5186605
vn -0.9021524 0.0106726 0.4312854
vn -0.7440774 0.3952285 0.5386493
vn -0.9180383 -0.2772966 0.2833942
vn -0.8325346 0.3542898 0.4258696
vn -0.95353 0.008711376 0.301172
vn -0.9073353 0.3011796 0.2933148
vn 0.6985393 -0.345364 0.6267109
vn 0.8942099 0.005002134 0.4476201
vn 0.8224656 0.08610662 0.5622597
vn 0.785241 -0.3882462 0.4823499
vn 0.4309325 -0.7058062 0.5622588
vn 0.9440622 -0.07696155 0.320661
vn 0.5389167 -0.7135801 0.4476297
vn 0.8422797 -0.4164545 0.3422436
vn 0.6343017 -0.7034405 0.3206757
vn 0.6029645 -0.6847134 0.4093913
vn 0.859112 -0.4232438 0.2877347
vn 0.8622229 -0.3527403 0.3635187
vn 0.6336021 -0.7183888 0.2871689
vn 0.2266231 -0.8966488 0.3803455
vn 0.8418008 -0.506453 0.1867532
vn 0.3009463 -0.9041215 0.3033079
vn 0.6502948 -0.7331197 0.1991283
vn 0.3958679 -0.8976573 0.1936493
g Color_09_0
f 3/3/3 2/2/2 1/1/1
f 2/2/2 4/4/4 1/1/1
f 1/1/1 4/4/4 5/5/5
f 2/2/2 6/6/6 4/4/4
f 4/4/4 7/7/7 5/5/5
f 6/6/6 8/8/8 4/4/4
f 4/4/4 8/8/8 7/7/7
f 8/8/8 9/9/9 7/7/7
f 12/12/12 11/11/11 10/10/10
f 11/11/11 13/13/13 10/10/10
f 10/10/10 13/13/13 14/14/14
f 11/11/11 15/15/15 13/13/13
f 13/13/13 16/16/16 14/14/14
f 15/15/15 17/17/17 13/13/13
f 13/13/13 17/17/17 16/16/16
f 17/17/17 18/18/18 16/16/16
f 21/21/21 20/20/20 19/19/19
f 20/20/20 22/22/22 19/19/19
f 19/19/19 22/22/22 23/23/23
f 20/20/20 24/24/24 22/22/22
f 22/22/22 25/25/25 23/23/23
f 24/24/24 26/26/26 22/22/22
f 22/22/22 26/26/26 25/25/25
f 26/26/26 27/27/27 25/25/25
f 30/30/30 29/29/29 28/28/28
f 29/29/29 31/31/31 28/28/28
f 28/28/28 31/31/31 32/32/32
f 29/29/29 33/33/33 31/31/31
f 31/31/31 34/34/34 32/32/32
f 33/33/33 35/35/35 31/31/31
f 31/31/31 35/35/35 34/34/34
f 35/35/35 36/36/36 34/34/34
f 39/39/39 38/38/38 37/37/37
f 38/38/38 40/40/40 37/37/37
f 37/37/37 40/40/40 41/41/41
f 38/38/38 42/42/42 40/40/40
f 40/40/40 43/43/43 41/41/41
f 42/42/42 44/44/44 40/40/40
f 40/40/40 44/44/44 43/43/43
f 44/44/44 45/45/45 43/43/43
f 48/48/48 47/47/47 46/46/46
f 47/47/47 49/49/49 46/46/46
f 46/46/46 49/49/49 50/50/50
f 47/47/47 51/51/51 49/49/49
f 49/49/49 52/52/52 50/50/50
f 51/51/51 53/53/53 49/49/49
f 49/49/49 53/53/53 52/52/52
f 53/53/53 54/54/54 52/52/52
f 57/57/57 56/56/56 55/55/55
f 56/56/56 58/58/58 55/55/55
f 55/55/55 58/58/58 59/59/59
f 56/56/56 60/60/60 58/58/58
f 58/58/58 61/61/61 59/59/59
f 60/60/60 62/62/62 58/58/58
f 58/58/58 62/62/62 61/61/61
f 62/62/62 63/63/63 61/61/61
f 66/66/66 65/65/65 64/64/64
f 65/65/65 67/67/67 64/64/64
f 64/64/64 67/67/67 68/68/68
f 65/65/65 69/69/69 67/67/67
f 67/67/67 70/70/70 68/68/68
f 69/69/69 71/71/71 67/67/67
f 67/67/67 71/71/71 70/70/70
f 71/71/71 72/72/72 70/70/70
f 75/75/75 74/74/74 73/73/73
f 74/74/74 76/76/76 73/73/73
f 73/73/73 76/76/76 77/77/77
f 74/74/74 78/78/78 76/76/76
f 76/76/76 79/79/79 77/77/77
f 78/78/78 80/80/80 76/76/76
f 76/76/76 80/80/80 79/79/79
f 80/80/80 81/81/81 79/79/79
f 84/84/84 83/83/83 82/82/82
f 83/83/83 85/85/85 82/82/82
f 82/82/82 85/85/85 86/86/86
f 83/83/83 87/87/87 85/85/85
f 85/85/85 88/88/88 86/86/86
f 87/87/87 89/89/89 85/85/85
f 85/85/85 89/89/89 88/88/88
f 89/89/89 90/90/90 88/88/88
f 93/93/93 92/92/92 91/91/91
f 92/92/92 94/94/94 91/91/91
f 91/91/91 94/94/94 95/95/95
f 92/92/92 96/96/96 94/94/94
f 94/94/94 97/97/97 95/95/95
f 96/96/96 98/98/98 94/94/94
f 94/94/94 98/98/98 97/97/97
f 98/98/98 99/99/99 97/97/97
f 102/102/102 101/101/101 100/100/100
f 101/101/101 103/103/103 100/100/100
f 100/100/100 103/103/103 104/104/104
f 101/101/101 105/105/105 103/103/103
f 103/103/103 106/106/106 104/104/104
f 105/105/105 107/107/107 103/103/103
f 103/103/103 107/107/107 106/106/106
f 107/107/107 108/108/108 106/106/106
