g Color_05
v 1.18568 -1.244982 0.1006832
v 1.067989 -1.245751 3.017893
v 1.244195 -1.213963 3.118725
v -0.8037596 0.7369561 1.607374
v -0.8941975 0.8150206 2.642378
v 0.159049 -0.09186554 2.553234
v 0.159049 -0.09186649 0.4520836
v -0.8941975 0.8150196 0.5321846
v 0.9434023 -0.7733197 1.606966
v 0.9199157 -0.7589622 2.641571
v 0.967802 -0.7882323 0.5321865
v -1.168756 1.254473 0.08010292
v -1.44889 0.9291296 0.08010483
v 0.02854824 -0.3430004 7.629395E-06
v 0.3086815 -0.01765919 1.907349E-06
v 1.443156 -0.9944825 0.08010483
v 1.18568 -1.244982 0.1006832
v -0.0206852 -0.3006086 0.4520855
v -1.073932 0.6062784 0.5321846
v -0.8941975 0.8150196 0.5321846
v 0.159049 -0.09186649 0.4520836
v 0.967802 -0.7882323 0.5321865
v 0.788065 -0.9969749 0.5321865
v 0.9199157 -0.7589622 2.641571
v 0.74018 -0.9677043 2.641571
v 0.7636662 -0.9820614 1.606966
v 0.9434023 -0.7733197 1.606966
v 0.967802 -0.7882323 0.5321865
v 0.788065 -0.9969749 0.5321865
v -0.8941975 0.8150206 2.642378
v -1.073932 0.6062784 2.642378
v -0.0206852 -0.3006077 2.553236
v 0.159049 -0.09186554 2.553234
v 0.9199157 -0.7589622 2.641571
v 0.74018 -0.9677043 2.641571
v -1.168755 1.254474 3.094458
v -1.414512 0.9292483 3.038843
v -1.340935 0.8511262 1.58765
v -1.078318 1.176409 1.615986
v -1.168756 1.254473 0.08010292
v -1.44889 0.9291296 0.08010483
v -0.9834938 0.528214 1.607374
v -1.073932 0.6062784 2.642378
v -0.8941975 0.8150206 2.642378
v -0.8037596 0.7369561 1.607374
v -0.8941975 0.8150196 0.5321846
v -1.073932 0.6062784 0.5321846
v 1.067989 -1.245751 3.017893
v 0.1364918 -0.2524352 3.005314
v 1.244195 -1.213963 3.118725
v 0.03083801 -0.3449697 2.915001
v -1.414512 0.9292483 3.038843
v 0.7636662 -0.9820614 1.606966
v 0.74018 -0.9677043 2.641571
v 1.067989 -1.245751 3.017893
v 1.18568 -1.244982 0.1006832
v 0.788065 -0.9969749 0.5321865
v -0.0206852 -0.3006086 0.4520855
v 0.02854824 -0.3430004 7.629395E-06
v -1.44889 0.9291296 0.08010483
v -1.073932 0.6062784 0.5321846
v -0.9834938 0.528214 1.607374
v -1.340935 0.8511262 1.58765
v -1.414512 0.9292483 3.038843
v -1.073932 0.6062784 2.642378
v -0.0206852 -0.3006077 2.553236
v 0.03083801 -0.3449697 2.915001
v 1.067989 -1.245751 3.017893
v 0.74018 -0.9677043 2.641571
v 1.443156 -0.9944825 0.08010483
v 1.18568 -1.244982 0.1006832
v 1.244195 -1.213963 3.118725
v 1.416387 -0.9791851 3.118725
v 0.1364918 -0.2524352 3.005314
v -1.414512 0.9292483 3.038843
v -1.168755 1.254474 3.094458
v 1.416387 -0.9791851 3.118725
v 1.244195 -1.213963 3.118725
vt 0.06002535 0.01375346
vt 0.06008758 0.01125694
vt 0.05993815 0.0112591
vt 0.007755771 0.03687274
vt 0.007755786 0.03805767
vt 0.01093197 0.03687274
vt 0.01091741 0.03589469
vt 0.007755771 0.03589469
vt 0.01423611 0.03687274
vt 0.01423611 0.03805767
vt 0.01423611 0.03589469
vt 0.03451008 0.01224976
vt 0.03501183 0.01224645
vt 0.03499454 0.01169499
vt 0.03449279 0.01169831
vt 0.03447855 0.01124414
vt 0.03503162 0.01124049
vt 0.03617229 0.0358167
vt 0.03618966 0.03619831
vt 0.03664437 0.03619625
vt 0.03662699 0.03581462
vt 0.03661267 0.03550033
vt 0.03615798 0.03550239
vt 0.03657658 0.03470765
vt 0.0361219 0.03470971
vt 0.03614268 0.03516635
vt 0.03659737 0.03516428
vt 0.03661267 0.03550033
vt 0.03615798 0.03550239
vt 0.03666756 0.03670556
vt 0.03621285 0.03670764
vt 0.03624088 0.03732313
vt 0.03669557 0.03732106
vt 0.03672864 0.03804755
vt 0.03627394 0.03804961
vt 0.03456101 0.0138751
vt 0.03503489 0.0129824
vt 0.03502464 0.01265505
vt 0.03452288 0.01265837
vt 0.03451008 0.01224976
vt 0.03501183 0.01224645
vt 0.03620252 0.03648109
vt 0.03621285 0.03670764
vt 0.03666756 0.03670556
vt 0.03665723 0.03647903
vt 0.03664437 0.03619625
vt 0.03618966 0.03619831
vt 0.06025244 0.01461124
vt 0.05980116 0.01233051
vt 0.05983406 0.01461726
vt 0.06021954 0.01232449
vt 0.0597733 0.01039315
vt 0.03645977 0.01074537
vt 0.03643911 0.01008553
vt 0.03509384 0.01009442
vt 0.03503162 0.01124049
vt 0.036475 0.01123096
vt 0.03648925 0.01168512
vt 0.03499454 0.01169499
vt 0.03501183 0.01224645
vt 0.03650653 0.01223658
vt 0.03651932 0.01264519
vt 0.03502464 0.01265505
vt 0.03503489 0.0129824
vt 0.0365296 0.01297253
vt 0.03655747 0.01386191
vt 0.03548115 0.01386902
vt 0.03551406 0.0149188
vt 0.03659037 0.01491168
vt 0.03447855 0.01124414
vt 0.03503162 0.01124049
vt 0.03494442 0.01009541
vt 0.03444263 0.01009872
vt 0.03506278 0.01387178
vt 0.03503489 0.0129824
vt 0.03456101 0.0138751
vt 0.03459391 0.01492488
vt 0.03509568 0.01492156
vn 0.7334225 -0.6797718 0.00135909
vn 0.1737939 -0.9847589 0.006751718
vn 0.5511867 -0.8343744 0.003546706
vn -0.6524554 -0.7578271 0
vn -0.6524847 -0.7578018 0.0001430337
vn -0.6549402 -0.7556798 -0.001102999
vn -0.6532261 -0.757162 -0.001118511
vn -0.6524976 -0.7577908 -0.00013513
vn -0.65578 -0.7549489 -0.002195745
vn -0.6589499 -0.7521733 -0.004520673
vn -0.6522407 -0.7579999 -0.00428996
vn -0.03111263 0.0267776 -0.9991571
vn -0.03111263 0.0267776 -0.9991571
vn -0.002014614 -0.01684968 -0.999856
vn -0.001548867 -0.01754754 -0.9998448
vn 0.02801916 -0.06182265 -0.9976937
vn 0.02801915 -0.06182265 -0.9976937
vn -0.006570647 0.005662253 0.9999624
vn 0.04360237 -0.03753868 0.9983435
vn 0.04360237 -0.03753868 0.9983435
vn -0.006570494 0.005662119 0.9999624
vn -0.05671466 0.04883818 0.9971952
vn -0.05671465 0.04883818 0.9971952
vn -0.757533 0.6522689 -0.02624822
vn -0.757533 0.6522689 -0.02624822
vn -0.7575325 0.6522695 -0.02624801
vn -0.7575325 0.6522695 -0.02624801
vn -0.7575321 0.65227 -0.0262478
vn -0.7575321 0.65227 -0.0262478
vn -0.04850543 0.0417603 -0.9979495
vn -0.04850543 0.0417603 -0.9979495
vn 0.008886459 -0.007656229 -0.9999312
vn 0.008560359 -0.007375447 -0.9999362
vn 0.06590337 -0.05674987 -0.9962109
vn 0.06590337 -0.05674987 -0.9962109
vn -0.7807718 0.6200824 -0.07676854
vn -0.7807718 0.6200824 -0.07676855
vn -0.7760829 0.6305947 0.00675404
vn -0.7767084 0.6298602 -0.0004913842
vn -0.7670358 0.6362615 0.0826285
vn -0.7670358 0.6362615 0.0826285
vn 0.7577953 -0.6524889 0.002129741
vn 0.7527988 -0.6481861 0.114668
vn 0.7527989 -0.648186 0.114668
vn 0.7577953 -0.6524889 0.002130143
vn 0.7531615 -0.6484997 -0.1104352
vn 0.7531615 -0.6484997 -0.1104352
vn -0.4047053 -0.3689225 0.8367257
vn -0.2896013 -0.3173327 0.9030122
vn -0.2034021 -0.1202755 0.9716797
vn -0.3609838 -0.4113501 0.836948
vn -0.08177362 -0.135348 0.9874178
vn -0.5889999 -0.8078895 -0.01984259
vn -0.6513439 -0.7587773 0.002849257
vn -0.639088 -0.7691294 -0.002550964
vn -0.5901746 -0.8064945 -0.03550174
vn -0.5788366 -0.814868 -0.03063159
vn -0.6408346 -0.7671629 -0.0281472
vn -0.6386436 -0.7687832 -0.0332655
vn -0.6578372 -0.753155 0.002801746
vn -0.6580653 -0.7529553 0.002921675
vn -0.6713356 -0.7411453 0.003492746
vn -0.6709087 -0.7415312 0.003614942
vn -0.6687979 -0.7433345 0.01277868
vn -0.6672828 -0.7446635 0.01449393
vn -0.6568249 -0.7537983 0.01921474
vn -0.6570325 -0.7536711 0.01698082
vn -0.639088 -0.7691294 -0.002550964
vn -0.6513439 -0.7587773 0.002849257
vn 0.748726 -0.6628788 0.00114486
vn 0.7334225 -0.6797718 0.00135909
vn 0.5511867 -0.8343744 0.003546706
vn 0.7487259 -0.6628788 0.00114486
vn -0.2896013 -0.3173327 0.9030122
vn -0.08177362 -0.135348 0.9874178
vn -0.08453641 -0.1316514 0.987685
vn -0.08341781 0.008593663 0.9964775
vn -0.2034021 -0.1202755 0.9716797
g Color_05_0
f 3/3/3 2/2/2 1/1/1
f 6/6/6 5/5/5 4/4/4
f 6/6/6 4/4/4 7/7/7
f 7/7/7 4/4/4 8/8/8
f 6/6/6 7/7/7 9/9/9
f 9/9/9 10/10/10 6/6/6
f 7/7/7 11/11/11 9/9/9
f 14/14/14 13/13/13 12/12/12
f 15/15/15 14/14/14 12/12/12
f 15/15/15 16/16/16 14/14/14
f 16/16/16 17/17/17 14/14/14
f 20/20/20 19/19/19 18/18/18
f 21/21/21 20/20/20 18/18/18
f 21/21/21 18/18/18 22/22/22
f 18/18/18 23/23/23 22/22/22
f 26/26/26 25/25/25 24/24/24
f 27/27/27 26/26/26 24/24/24
f 27/27/27 28/28/28 26/26/26
f 28/28/28 29/29/29 26/26/26
f 32/32/32 31/31/31 30/30/30
f 33/33/33 32/32/32 30/30/30
f 33/33/33 34/34/34 32/32/32
f 34/34/34 35/35/35 32/32/32
f 38/38/38 37/37/37 36/36/36
f 39/39/39 38/38/38 36/36/36
f 39/39/39 40/40/40 38/38/38
f 40/40/40 41/41/41 38/38/38
f 44/44/44 43/43/43 42/42/42
f 45/45/45 44/44/44 42/42/42
f 45/45/45 42/42/42 46/46/46
f 42/42/42 47/47/47 46/46/46
f 50/50/50 49/49/49 48/48/48
f 49/49/49 51/51/51 48/48/48
f 51/51/51 49/49/49 52/52/52
f 55/55/55 54/54/54 53/53/53
f 55/55/55 53/53/53 56/56/56
f 53/53/53 57/57/57 56/56/56
f 56/56/56 57/57/57 58/58/58
f 59/59/59 56/56/56 58/58/58
f 59/59/59 58/58/58 60/60/60
f 58/58/58 61/61/61 60/60/60
f 60/60/60 61/61/61 62/62/62
f 63/63/63 60/60/60 62/62/62
f 63/63/63 62/62/62 64/64/64
f 62/62/62 65/65/65 64/64/64
f 64/64/64 65/65/65 66/66/66
f 67/67/67 64/64/64 66/66/66
f 67/67/67 66/66/66 68/68/68
f 66/66/66 69/69/69 68/68/68
f 72/72/72 71/71/71 70/70/70
f 73/73/73 72/72/72 70/70/70
f 76/76/76 75/75/75 74/74/74
f 76/76/76 74/74/74 77/77/77
f 74/74/74 78/78/78 77/77/77
