g Color_013
v -5.357331 -4.702346 18.20312
v -5.705753 -4.098861 17.06227
v -9.800397 -5.658259 18.20312
v -5.357331 -4.702346 18.20312
v -9.800397 -5.658259 18.20312
v -5.705753 -4.098861 19.34397
v -5.705753 -4.098861 19.34397
v -9.800397 -5.658259 18.20312
v -6.402597 -2.891893 19.34397
v -6.402597 -2.891893 19.34397
v -9.800397 -5.658259 18.20312
v -6.751019 -2.288409 18.20312
v -6.751019 -2.288409 18.20312
v -9.800397 -5.658259 18.20312
v -6.402597 -2.891893 17.06227
v -6.402597 -2.891893 17.06227
v -9.800397 -5.658259 18.20312
v -5.705753 -4.098861 17.06227
vt 0.32324 0.0347541
vt 0.3209303 0.03068058
vt 0.3187608 0.0347541
vt 0.296584 0.008419259
vt 0.2921048 0.008419259
vt 0.2942743 0.01249277
vt 0.3178793 0.01201104
vt 0.3157098 0.007937523
vt 0.3135402 0.01201104
vt 0.2899352 0.01249277
vt 0.2921048 0.008419259
vt 0.2876255 0.008419259
vt 0.3142815 0.0347541
vt 0.3187608 0.0347541
vt 0.3165911 0.03068058
vt 0.3165911 0.03068058
vt 0.3187608 0.0347541
vt 0.3209303 0.03068058
vn 0.1818363 -0.8451722 -0.5026127
vn 0.1818363 -0.8451723 -0.5026125
vn 0.1818363 -0.8451723 -0.5026126
vn 0.1818363 -0.8451722 0.5026127
vn 0.1818363 -0.8451723 0.5026126
vn 0.1818363 -0.8451723 0.5026125
vn -0.2208482 -0.1275069 0.9669375
vn -0.2208482 -0.1275069 0.9669375
vn -0.2208482 -0.1275069 0.9669375
vn -0.6410224 0.5800615 0.5026122
vn -0.6410224 0.5800614 0.5026122
vn -0.6410225 0.5800614 0.5026121
vn -0.6410227 0.5800616 -0.5026117
vn -0.6410227 0.5800616 -0.5026117
vn -0.6410227 0.5800616 -0.5026116
vn -0.2208482 -0.127507 -0.9669375
vn -0.2208482 -0.127507 -0.9669375
vn -0.2208482 -0.127507 -0.9669375
g Color_013_0
f 3/3/3 2/2/2 1/1/1
f 6/6/6 5/5/5 4/4/4
f 9/9/9 8/8/8 7/7/7
f 12/12/12 11/11/11 10/10/10
f 15/15/15 14/14/14 13/13/13
f 18/18/18 17/17/17 16/16/16
