g Color_Boss_23
v -8.262089 -0.03782989 -0.01130679
v -8.262089 -0.1313143 -0.1313124
v -8.262089 -2.876127E-06 -0.1857014
v -8.262089 0.131308 -0.1313124
v -8.262089 -0.1857052 2.831221E-06
v -8.262089 0.1856989 2.831221E-06
v -8.262089 -0.1313143 0.1313133
v -8.262089 0.131308 0.1313133
v -8.262089 -2.892362E-06 0.1857032
v 8.26209 -0.03782417 -0.01130679
v 8.26209 0.1313138 -0.1313124
v 8.26209 2.845918E-06 -0.1857014
v 8.26209 -0.1313086 -0.1313124
v 8.26209 0.1857047 2.831221E-06
v 8.26209 -0.1856995 2.831221E-06
v 8.26209 0.1313138 0.1313133
v 8.26209 -0.1313086 0.1313133
v 8.26209 2.829684E-06 0.1857032
v -8.262089 -2.876127E-06 -0.1857014
v -4.688785 -1.442122E-06 -0.265626
v -4.688785 0.1878252 -0.1878252
v -8.262089 0.131308 -0.1313124
v -8.262089 -0.1313143 -0.1313124
v -4.688785 0.265625 2.831221E-06
v -8.262089 0.1856989 2.831221E-06
v -4.688785 -0.187828 -0.1878252
v -8.262089 -0.1857052 2.831221E-06
v -4.688785 0.1878251 0.1878271
v -8.262089 0.131308 0.1313133
v -4.688785 -0.2656283 2.831221E-06
v -8.262089 -0.1313143 0.1313133
v -4.688785 -1.465344E-06 0.2656268
v -8.262089 -2.892362E-06 0.1857032
v -4.688785 -0.1878281 0.1878271
v 6.714835E-07 0.1878266 -0.1878252
v 6.440095E-07 0.2656264 2.831221E-06
v 7.371418E-07 -1.161081E-08 -0.265626
v 6.714835E-07 0.1878266 0.1878271
v 8.028E-07 -0.1878266 -0.1878252
v 7.371418E-07 -3.483268E-08 0.2656268
v 8.028E-07 -0.1878266 0.1878271
v 8.298084E-07 -0.2656269 2.831221E-06
v 4.688787 1.895738E-06 -0.265626
v 4.688787 0.1878285 -0.1878252
v 4.688787 0.2656283 2.831221E-06
v 4.688787 0.1878285 0.1878271
v 4.688787 -0.1878247 -0.1878252
v 4.688787 -0.265625 2.831221E-06
v 4.688787 1.872516E-06 0.2656268
v 4.688787 -0.1878247 0.1878271
v 8.26209 2.845918E-06 -0.1857014
v 8.26209 0.1313138 -0.1313124
v 8.26209 -0.1313086 -0.1313124
v 8.26209 0.1857047 2.831221E-06
v 8.26209 -0.1856995 2.831221E-06
v 8.26209 0.1313138 0.1313133
v 8.26209 -0.1313086 0.1313133
v 8.26209 2.829684E-06 0.1857032
vt 0.4650588 0.09698437
vt 0.4650319 0.09694116
vt 0.4650697 0.09692153
vt 0.4651076 0.09694116
vt 0.4650162 0.09698848
vt 0.4651232 0.09698848
vt 0.4650319 0.09703581
vt 0.4651076 0.09703581
vt 0.4650697 0.09705541
vt 0.4650588 0.09698437
vt 0.4651076 0.09694116
vt 0.4650697 0.09692153
vt 0.4650319 0.09694116
vt 0.4651232 0.09698848
vt 0.4650162 0.09698848
vt 0.4651076 0.09703581
vt 0.4650319 0.09703581
vt 0.4650697 0.09705541
vt 0.4650697 0.09692153
vt 0.4650697 0.09689276
vt 0.4651238 0.09692077
vt 0.4651076 0.09694116
vt 0.4650319 0.09694116
vt 0.4651462 0.09698848
vt 0.4651232 0.09698848
vt 0.4650156 0.09692077
vt 0.4650162 0.09698848
vt 0.4651238 0.09705617
vt 0.4651076 0.09703581
vt 0.4649933 0.09698848
vt 0.4650319 0.09703581
vt 0.4650697 0.09708421
vt 0.4650697 0.09705541
vt 0.4650156 0.09705617
vt 0.4651238 0.09692077
vt 0.4651462 0.09698848
vt 0.4650697 0.09689276
vt 0.4651238 0.09705617
vt 0.4650156 0.09692077
vt 0.4650697 0.09708421
vt 0.4650156 0.09705617
vt 0.4649933 0.09698848
vt 0.4650697 0.09689276
vt 0.4651238 0.09692077
vt 0.4651462 0.09698848
vt 0.4651238 0.09705617
vt 0.4650156 0.09692077
vt 0.4649933 0.09698848
vt 0.4650697 0.09708421
vt 0.4650156 0.09705617
vt 0.4650697 0.09692153
vt 0.4651076 0.09694116
vt 0.4650319 0.09694116
vt 0.4651232 0.09698848
vt 0.4650162 0.09698848
vt 0.4651076 0.09703581
vt 0.4650319 0.09703581
vt 0.4650697 0.09705541
vn -1 0 0
vn -1 0 0
vn -1 0 0
vn -1 0 0
vn -1 0 0
vn -1 0 0
vn -1 0 0
vn -1 0 0
vn -1 0 0
vn 1 0 0
vn 1 0 0
vn 1 0 0
vn 1 0 0
vn 1 0 0
vn 1 0 0
vn 1 0 0
vn 1 0 0
vn 1 0 0
vn -0.02236119 0 -0.99975
vn -0.01115097 0 -0.9999379
vn -0.0111513 0.7070647 -0.7070608
vn -0.02236168 0.7069312 -0.7069287
vn -0.02236107 -0.7069306 -0.7069293
vn -0.01115145 0.9999379 0
vn -0.02236187 0.99975 0
vn -0.01115078 -0.707064 -0.7070615
vn -0.02236102 -0.99975 0
vn -0.0111513 0.707061 0.7070646
vn -0.02236167 0.7069278 0.7069321
vn -0.01115073 -0.9999379 0
vn -0.02236105 -0.7069273 0.7069327
vn -0.01115096 0 0.9999379
vn -0.02236119 0 0.99975
vn -0.01115078 -0.7070604 0.7070652
vn 0 0.7071092 -0.7071043
vn 0 1 0
vn 0 0 -1
vn 0 0.7071052 0.7071084
vn 0 -0.7071085 -0.707105
vn 0 0 1
vn 0 -0.7071044 0.707109
vn 0 -1 0
vn 0.01115097 0 -0.9999379
vn 0.01115082 0.7070648 -0.7070609
vn 0.01115077 0.9999379 0
vn 0.01115082 0.7070611 0.7070646
vn 0.01115127 -0.707064 -0.7070616
vn 0.01115141 -0.9999379 0
vn 0.01115097 0 0.9999379
vn 0.01115127 -0.7070603 0.7070652
vn 0.02236119 0 -0.99975
vn 0.02236122 0.7069312 -0.7069287
vn 0.02236155 -0.7069305 -0.7069295
vn 0.02236121 0.99975 0
vn 0.02236169 -0.99975 0
vn 0.02236121 0.7069278 0.7069321
vn 0.02236153 -0.7069272 0.7069327
vn 0.02236119 0 0.99975
g Color_Boss_23_0
f 3/3/3 2/2/2 1/1/1
f 4/4/4 3/3/3 1/1/1
f 5/5/5 1/1/1 2/2/2
f 6/6/6 4/4/4 1/1/1
f 5/5/5 7/7/7 1/1/1
f 8/8/8 6/6/6 1/1/1
f 7/7/7 9/9/9 1/1/1
f 8/8/8 1/1/1 9/9/9
f 12/12/12 11/11/11 10/10/10
f 13/13/13 12/12/12 10/10/10
f 11/11/11 14/14/14 10/10/10
f 10/10/10 15/15/15 13/13/13
f 14/14/14 16/16/16 10/10/10
f 17/17/17 15/15/15 10/10/10
f 10/10/10 16/16/16 18/18/18
f 18/18/18 17/17/17 10/10/10
f 21/21/21 20/20/20 19/19/19
f 22/22/22 21/21/21 19/19/19
f 19/19/19 20/20/20 23/23/23
f 24/24/24 21/21/21 22/22/22
f 25/25/25 24/24/24 22/22/22
f 20/20/20 26/26/26 23/23/23
f 23/23/23 26/26/26 27/27/27
f 28/28/28 24/24/24 25/25/25
f 29/29/29 28/28/28 25/25/25
f 26/26/26 30/30/30 27/27/27
f 27/27/27 30/30/30 31/31/31
f 32/32/32 28/28/28 29/29/29
f 33/33/33 32/32/32 29/29/29
f 31/31/31 34/34/34 33/33/33
f 30/30/30 34/34/34 31/31/31
f 34/34/34 32/32/32 33/33/33
f 21/21/21 35/35/35 20/20/20
f 21/21/21 24/24/24 36/36/36
f 35/35/35 21/21/21 36/36/36
f 26/26/26 20/20/20 37/37/37
f 35/35/35 37/37/37 20/20/20
f 24/24/24 28/28/28 38/38/38
f 36/36/36 24/24/24 38/38/38
f 30/30/30 26/26/26 39/39/39
f 39/39/39 26/26/26 37/37/37
f 28/28/28 32/32/32 40/40/40
f 38/38/38 28/28/28 40/40/40
f 32/32/32 34/34/34 41/41/41
f 40/40/40 32/32/32 41/41/41
f 34/34/34 30/30/30 42/42/42
f 42/42/42 30/30/30 39/39/39
f 41/41/41 34/34/34 42/42/42
f 37/37/37 35/35/35 43/43/43
f 44/44/44 35/35/35 36/36/36
f 35/35/35 44/44/44 43/43/43
f 45/45/45 36/36/36 38/38/38
f 45/45/45 44/44/44 36/36/36
f 46/46/46 38/38/38 40/40/40
f 46/46/46 45/45/45 38/38/38
f 47/47/47 39/39/39 37/37/37
f 43/43/43 47/47/47 37/37/37
f 48/48/48 42/42/42 39/39/39
f 47/47/47 48/48/48 39/39/39
f 49/49/49 40/40/40 41/41/41
f 49/49/49 46/46/46 40/40/40
f 50/50/50 41/41/41 42/42/42
f 48/48/48 50/50/50 42/42/42
f 50/50/50 49/49/49 41/41/41
f 43/43/43 44/44/44 51/51/51
f 44/44/44 52/52/52 51/51/51
f 44/44/44 45/45/45 52/52/52
f 43/43/43 51/51/51 53/53/53
f 47/47/47 43/43/43 53/53/53
f 45/45/45 54/54/54 52/52/52
f 45/45/45 46/46/46 54/54/54
f 47/47/47 53/53/53 55/55/55
f 48/48/48 47/47/47 55/55/55
f 46/46/46 56/56/56 54/54/54
f 46/46/46 49/49/49 56/56/56
f 48/48/48 55/55/55 57/57/57
f 50/50/50 48/48/48 57/57/57
f 49/49/49 58/58/58 56/56/56
f 50/50/50 57/57/57 58/58/58
f 49/49/49 50/50/50 58/58/58
