g Color_Boss_09
v 0.3890042 0.3952028 -1.031006
v 0.9520059 0.3925849 -1.024157
v 0.9519734 0.9460995 -0.4235106
v 0.3889718 0.9523108 -0.4263045
v 0.9519753 0.9460993 0.4234934
v 0.3889747 0.9523106 0.4263213
v 0.9520087 0.3925846 1.024139
v 0.3890057 0.3952024 1.031018
v 0.3890057 0.3952024 1.031018
v 0.9520087 0.3925846 1.024139
v 0.9520097 -0.3925842 1.024141
v 0.3890076 -0.3951751 1.031019
v 0.3889928 -0.6828335 0.7188547
v 0.3890076 -0.3951751 1.031019
v 0.9520097 -0.3925842 1.024141
v 0.9519811 -0.9460983 0.4234946
v 0.3889799 -0.9524002 0.4263227
v 0.3889799 -0.9524002 0.4263227
v 0.9519811 -0.9460983 0.4234946
v 0.9519811 -0.9460992 -0.4234948
v 0.3889785 -0.9524006 -0.4262932
v 0.9520078 -0.3925843 -1.024158
v 0.3890042 -0.3951755 -1.031007
v 0.3890042 -0.3951755 -1.031007
v 0.9520078 -0.3925843 -1.024158
v 0.9520059 0.3925849 -1.024157
v 0.3890042 0.3952028 -1.031006
v 1.451993 -0.4803798 1.265951
v 1.319664 -1.159739 0.524368
v 1.258893 -0.4656508 1.227103
v 1.451993 0.4803455 1.265952
v 1.258893 0.4656177 1.227139
v 1.319664 1.159739 0.5243683
v -1.825078 0.3732885 0.9836395
v 0.3359675 0.8846803 0.4000289
v 0.3359675 0.3664985 0.9657998
v -1.825078 0.9007881 0.4073644
v 0.3359675 0.8846805 -0.4000117
v -1.825078 0.9007883 -0.4072575
v 0.3359675 0.3664989 -0.9657874
v -1.825078 0.3732888 -0.9835505
v -1.825078 -0.373193 0.9836392
v -1.825078 0.3732885 0.9836395
v 0.3359675 0.3664985 0.9657998
v 0.3359675 -0.3664724 0.9657996
v -1.825078 -0.9011149 0.4073641
v -1.825078 -0.6408413 0.6914766
v 0.3359675 -0.6361881 0.6713796
v 0.335968 -0.8847717 0.4000287
v -1.825078 -0.9011148 -0.4072579
v 0.335968 -0.8847716 -0.3999993
v -1.825078 -0.3731926 -0.9835507
v 0.3359675 -0.3664719 -0.9657875
v -1.825078 0.3732888 -0.9835505
v -1.825078 -0.3731926 -0.9835507
v 0.3359675 -0.3664719 -0.9657875
v 0.3359675 0.3664989 -0.9657874
v 0.3359675 0.3664985 0.9657998
v 0.3890076 -0.3951751 1.031019
v 0.3359675 -0.3664724 0.9657996
v 0.3890057 0.3952024 1.031018
v 0.3359675 0.8846803 0.4000289
v 0.3889747 0.9523106 0.4263213
v 0.3359675 0.8846805 -0.4000117
v 0.3889718 0.9523108 -0.4263045
v 0.3359675 0.3664989 -0.9657874
v 0.3890042 0.3952028 -1.031006
v 0.3359675 -0.3664719 -0.9657875
v 0.3890042 -0.3951755 -1.031007
v 0.335968 -0.8847716 -0.3999993
v 0.3889785 -0.9524006 -0.4262932
v 0.335968 -0.8847717 0.4000287
v 0.3889799 -0.9524002 0.4263227
v 1.003491 -0.3638816 0.958921
v 0.9520097 -0.3925842 1.024141
v 0.9520087 0.3925846 1.024139
v 1.003491 0.3638805 0.9589212
v 0.9519753 0.9460993 0.4234934
v 1.00349 0.878469 0.3972008
v 0.9519734 0.9460995 -0.4235106
v 1.00349 0.8784692 -0.3972179
v 0.9520059 0.3925849 -1.024157
v 1.003491 0.3638808 -0.9589385
v 0.9520078 -0.3925843 -1.024158
v 1.003491 -0.3638811 -0.9589387
v 0.9519811 -0.9460992 -0.4234948
v 1.003491 -0.8784697 -0.3972006
v 0.9519811 -0.9460983 0.4234946
v 1.003491 -0.8784698 0.3972006
v 0.3889928 -0.6828335 0.7188547
v 0.3889799 -0.9524002 0.4263227
v 0.335968 -0.8847717 0.4000287
v 0.3359675 -0.6361881 0.6713796
v 0.3359675 -0.3664724 0.9657996
v 0.3890076 -0.3951751 1.031019
v 0.9519811 -0.9460983 0.4234946
v 0.9520097 -0.3925842 1.024141
v 1.003491 -0.3638816 0.958921
v 1.003491 -0.8784698 0.3972006
v 1.782978 0.4716738 -0.2132149
v 1.794789 0.4686938 0.2242532
v 1.816362 0.5370303 -0.2427666
v 1.783813 0.1954979 -0.5146728
v 1.816801 0.2214881 -0.5831774
v 1.783815 -0.1952576 -0.5146737
v 1.816801 -0.22125 -0.5831726
v 1.783007 -0.4713756 -0.2131207
v 1.816509 -0.5359995 -0.2423412
v 1.783188 -0.470803 0.2141589
v 1.816407 -0.5366606 0.2426558
v 1.795465 -0.2049693 0.5401213
v -1.825078 -0.6408413 0.6914766
v -1.825078 -0.373193 0.9836392
v 0.3359675 -0.3664724 0.9657996
v 0.3359675 -0.6361881 0.6713796
v 1.719487 -0.4803797 1.265951
v 1.719487 -1.159739 0.524368
v 1.319664 -1.159739 0.524368
v 1.719487 -1.159738 -0.5243685
v 1.451993 -0.4803798 1.265951
v 1.451993 0.4803455 1.265952
v 1.719487 0.4803455 1.265952
v 1.319664 1.159739 0.5243683
v 1.719486 1.159739 0.5243683
v 1.319664 -1.159738 -0.5243685
v 1.719487 -0.4803792 -1.265951
v 1.319664 1.159739 -0.524368
v 1.719486 1.159739 -0.524368
v 1.003491 -0.8784698 0.3972006
v 1.258893 -0.4656508 1.227103
v 1.003491 -0.3638816 0.958921
v 1.003491 0.3638805 0.9589212
v 1.258893 0.4656177 1.227139
v 1.00349 0.878469 0.3972008
v 1.00349 0.8784692 -0.3972179
v 1.003491 -0.8784697 -0.3972006
v 1.003491 0.3638808 -0.9589385
v 1.319664 0.4803461 -1.265951
v 1.719487 0.4803461 -1.265951
v 1.003491 -0.3638811 -0.9589387
v 1.319664 -0.4803792 -1.265951
v 1.825078 0.1994665 0.5249352
v 0.9322591 -1.679997E-05 9.179115E-06
v 1.795465 -0.2049693 0.5401213
v 1.794789 0.4686938 0.2242532
v 1.783188 -0.470803 0.2141589
v 1.782978 0.4716738 -0.2132149
v 1.783007 -0.4713756 -0.2131207
v 1.783813 0.1954979 -0.5146728
v 1.783815 -0.1952576 -0.5146737
v 1.719486 1.159739 0.5243683
v 1.794789 0.4686938 0.2242532
v 1.825078 0.1994665 0.5249352
v 1.719487 0.4803455 1.265952
v 1.719486 1.159739 -0.524368
v 1.795465 -0.2049693 0.5401213
v 1.816362 0.5370303 -0.2427666
v 1.719487 -0.4803797 1.265951
v 1.719487 0.4803461 -1.265951
v 1.816407 -0.5366606 0.2426558
v 1.816801 0.2214881 -0.5831774
v 1.719487 -1.159739 0.524368
v 1.719487 -0.4803792 -1.265951
v 1.816509 -0.5359995 -0.2423412
v 1.816801 -0.22125 -0.5831726
v 1.719487 -1.159738 -0.5243685
vt 0.5255385 0.03531365
vt 0.5254989 0.03660364
vt 0.5273982 0.03665331
vt 0.5274457 0.03536534
vt 0.5292867 0.03670651
vt 0.5293416 0.03542498
vt 0.5311889 0.03677464
vt 0.5312504 0.03550877
vt 0.5312504 0.03550877
vt 0.5311889 0.03677464
vt 0.5330666 0.0369212
vt 0.5332304 0.03557459
vt 0.523949 0.03586655
vt 0.5238178 0.03864179
vt 0.5288972 0.03879216
vt 0.5291496 0.03345212
vt 0.5240719 0.03326584
vt 0.5198346 0.03515452
vt 0.5197379 0.03651105
vt 0.5216871 0.03651394
vt 0.521702 0.03525051
vt 0.5235884 0.03656234
vt 0.5236171 0.03527907
vt 0.5236171 0.03527907
vt 0.5235884 0.03656234
vt 0.5254989 0.03660364
vt 0.5255385 0.03531365
vt 0.6608863 0.03572813
vt 0.6604303 0.03530807
vt 0.6607395 0.03581131
vt 0.6612319 0.03621412
vt 0.6610745 0.03628238
vt 0.6614556 0.03674992
vt 0.661103 0.01208107
vt 0.6613221 0.01176786
vt 0.6611001 0.01207147
vt 0.6613289 0.0117718
vt 0.6613221 0.01133852
vt 0.6613289 0.01133464
vt 0.6611001 0.0110349
vt 0.661103 0.01102537
vt 0.6607832 0.01208107
vt 0.661103 0.01208107
vt 0.6611001 0.01207147
vt 0.660786 0.01207147
vt 0.660557 0.0117718
vt 0.6606685 0.01192426
vt 0.6606705 0.01191349
vt 0.660564 0.01176786
vt 0.660557 0.01133464
vt 0.660564 0.01133852
vt 0.6607832 0.01102537
vt 0.660786 0.0110349
vt 0.661103 0.01102537
vt 0.6607832 0.01102537
vt 0.660786 0.0110349
vt 0.6611001 0.0110349
vt 0.531262 0.03533843
vt 0.5332304 0.03557459
vt 0.5331498 0.0353948
vt 0.5312504 0.03550877
vt 0.5293618 0.03524177
vt 0.5293416 0.03542498
vt 0.5274464 0.03518423
vt 0.5274457 0.03536534
vt 0.5255369 0.0351399
vt 0.5255385 0.03531365
vt 0.5236353 0.03510864
vt 0.5236171 0.03527907
vt 0.521733 0.03506863
vt 0.521702 0.03525051
vt 0.5199236 0.03497204
vt 0.5198346 0.03515452
vt 0.5329633 0.03708595
vt 0.5330666 0.0369212
vt 0.5311889 0.03677464
vt 0.5311728 0.03694448
vt 0.5292867 0.03670651
vt 0.5292835 0.03688522
vt 0.5273982 0.03665331
vt 0.527379 0.03683507
vt 0.5254989 0.03660364
vt 0.525481 0.03677191
vt 0.5235884 0.03656234
vt 0.5235921 0.03673366
vt 0.5216871 0.03651394
vt 0.5217014 0.03669272
vt 0.5197379 0.03651105
vt 0.5198166 0.03669843
vt 0.523949 0.03586655
vt 0.5240719 0.03326584
vt 0.5233484 0.03345417
vt 0.5232409 0.03585967
vt 0.5231242 0.03846966
vt 0.5238178 0.03864179
vt 0.5291496 0.03345212
vt 0.5288972 0.03879216
vt 0.5295954 0.03866611
vt 0.529844 0.03368742
vt 0.6624302 0.0355454
vt 0.6624208 0.03664907
vt 0.6626364 0.03547085
vt 0.661559 0.03478485
vt 0.6616411 0.03461201
vt 0.6603264 0.03478485
vt 0.6602444 0.03461202
vt 0.6594554 0.03554562
vt 0.6592515 0.03547191
vt 0.6594571 0.03662362
vt 0.6592495 0.0366955
vt 0.6602958 0.03744598
vt 0.6609358 0.03503936
vt 0.6605694 0.03508868
vt 0.6609473 0.03701863
vt 0.6613165 0.03696892
vt 0.6607372 0.01223258
vt 0.660446 0.01183463
vt 0.660446 0.01183463
vt 0.660446 0.01127183
vt 0.6607372 0.01223258
vt 0.6611487 0.01223258
vt 0.6611487 0.01223258
vt 0.6614398 0.01183463
vt 0.6614398 0.01183463
vt 0.660446 0.01127183
vt 0.6607372 0.01087386
vt 0.6614398 0.01127183
vt 0.6614398 0.01127183
vt 0.6605666 0.01176638
vt 0.6607434 0.01221173
vt 0.660787 0.01206785
vt 0.6610988 0.01206785
vt 0.6611423 0.01221176
vt 0.6613193 0.01176638
vt 0.6613193 0.01134006
vt 0.6605666 0.01134007
vt 0.6610988 0.01103861
vt 0.6611487 0.01087386
vt 0.6611487 0.01087386
vt 0.660787 0.01103861
vt 0.6607372 0.01087386
vt 0.6843823 0.01304018
vt 0.6842225 0.01288678
vt 0.6838599 0.01301727
vt 0.6847845 0.01297141
vt 0.683571 0.01291959
vt 0.6848752 0.01285588
vt 0.6836604 0.01280688
vt 0.6845843 0.01276194
vt 0.6840803 0.01274164
vt 0.6614398 0.01183463
vt 0.6611555 0.01167356
vt 0.6610284 0.01183493
vt 0.6611487 0.01223258
vt 0.6614398 0.01127183
vt 0.6608551 0.01184306
vt 0.661173 0.01142294
vt 0.6607372 0.01223258
vt 0.6611487 0.01087386
vt 0.660713 0.01168345
vt 0.6610378 0.01124026
vt 0.660446 0.01183463
vt 0.6607372 0.01087386
vt 0.6607133 0.01142316
vt 0.6608481 0.01124026
vt 0.660446 0.01127183
vn 0.01156862 0.7353643 -0.6775734
vn 0.01156862 0.7353643 -0.6775734
vn 0.01213086 0.9314892 -0.3635667
vn 0.01213107 0.9313898 -0.3638213
vn 0.01215135 0.9314929 0.3635563
vn 0.01215158 0.9313846 0.3638339
vn 0.01160681 0.7353624 0.6775746
vn 0.01160681 0.7353624 0.6775746
vn 0.0122164 0 0.9999254
vn 0.0122164 0 0.9999254
vn 0.0122164 0 0.9999254
vn 0.0122164 0 0.9999254
vn 0.01164938 -0.735327 0.6776124
vn 0.01166249 -0.7353328 0.6776058
vn 0.01165153 -0.735328 0.6776113
vn 0.01225753 -0.931477 0.3635937
vn 0.0122577 -0.9313778 0.3638478
vn 0.0122577 -0.9313778 0.3638478
vn 0.01225753 -0.931477 0.3635937
vn 0.01224084 -0.9314766 -0.3635954
vn 0.01224098 -0.9313852 -0.3638292
vn 0.01161282 -0.7353366 -0.6776026
vn 0.01161282 -0.7353366 -0.6776026
vn 0.01216406 0 -0.9999261
vn 0.01216406 0 -0.9999261
vn 0.01216406 0 -0.9999261
vn 0.01216406 0 -0.9999261
vn -0.09881826 -0.3948552 0.9134135
vn -0.3507004 -0.872493 0.3402429
vn -0.4732041 -0.3497432 0.8085527
vn -0.09879053 0.3948497 0.9134189
vn -0.4731755 0.3497166 0.808581
vn -0.3506976 0.8724913 0.34025
vn 0.007840602 0.7375154 0.6752847
vn 0.00820421 0.9320852 0.3621462
vn 0.007840602 0.7375154 0.6752847
vn 0.008204324 0.9320077 0.3623455
vn 0.00819027 0.932084 -0.3621496
vn 0.008190367 0.932013 -0.3623323
vn 0.007814627 0.7375224 -0.6752775
vn 0.007814627 0.7375224 -0.6752775
vn 0.008254827 0 0.9999659
vn 0.008254827 0 0.9999659
vn 0.008254826 0 0.9999659
vn 0.008254827 0 0.9999659
vn 0.008278511 -0.9319639 0.3624567
vn 0.007869237 -0.7373417 0.6754741
vn 0.007869237 -0.7373417 0.6754742
vn 0.008278428 -0.9320347 0.3622744
vn 0.008265564 -0.9319695 -0.3624423
vn 0.008265494 -0.9320349 -0.3622745
vn 0.007845142 -0.7373519 -0.6754633
vn 0.007845141 -0.7373519 -0.6754632
vn 0.008219416 0 -0.9999663
vn 0.008219415 0 -0.9999663
vn 0.008219416 0 -0.9999663
vn 0.008219415 0 -0.9999663
vn -0.8047309 0.2373848 0.544111
vn -0.8035002 -0.2388692 0.5452787
vn -0.8034987 -0.2386517 0.5453761
vn -0.8047334 0.2375932 0.5440161
vn -0.8049948 0.5523303 0.2165976
vn -0.8049973 0.552401 0.2164082
vn -0.8050013 0.5523244 -0.2165885
vn -0.8050038 0.5523944 -0.2164007
vn -0.8047444 0.2373795 -0.5440933
vn -0.8047469 0.2375868 -0.543999
vn -0.804731 -0.2373612 -0.5441209
vn -0.8047338 -0.2375784 -0.5440222
vn -0.8049809 -0.5523409 -0.2166227
vn -0.8049833 -0.5524136 -0.2164281
vn -0.8062734 -0.5509366 0.2153883
vn -0.8062747 -0.5510106 0.2151941
vn 0.8129798 -0.2328368 0.5337142
vn 0.8129825 -0.2330567 0.5336142
vn 0.8129753 0.2330711 0.5336189
vn 0.8129726 0.2328437 0.5337222
vn 0.813062 0.5420704 0.2123439
vn 0.8130594 0.5419936 0.2125494
vn 0.8130557 0.5420768 -0.2123514
vn 0.8130532 0.5420004 -0.2125561
vn 0.8129627 0.233078 -0.5336348
vn 0.81296 0.232851 -0.5337381
vn 0.8129755 -0.2330612 -0.5336229
vn 0.8129729 -0.2328411 -0.5337228
vn 0.8130799 -0.5420448 -0.2123407
vn 0.8130774 -0.541971 -0.2125385
vn 0.8130819 -0.5420412 0.212342
vn 0.8130795 -0.541967 0.2125409
vn -0.7815467 -0.4593544 0.4221119
vn -0.8062747 -0.5510106 0.2151941
vn -0.8062734 -0.5509366 0.2153883
vn -0.781684 -0.4592275 0.4219955
vn -0.8034987 -0.2386517 0.5453761
vn -0.8035002 -0.2388692 0.5452787
vn 0.8130819 -0.5420412 0.212342
vn 0.8129825 -0.2330567 0.5336142
vn 0.8129798 -0.2328368 0.5337142
vn 0.8130795 -0.541967 0.2125409
vn 0.7776065 -0.5912109 0.2140041
vn 0.9409062 -0.3094417 -0.1376272
vn 0.9970012 -0.06895737 0.03512061
vn 0.7967238 -0.2442763 0.5527752
vn 0.997366 -0.02554707 0.0678856
vn 0.7962015 0.2450974 0.5531639
vn 0.9973455 0.02592024 0.06804552
vn 0.7780768 0.585814 0.2267565
vn 0.9966653 0.0745445 0.03318569
vn 0.7753872 0.5913444 -0.2215545
vn 0.9968281 0.07553715 -0.02505233
vn 0.9570325 0.1050993 -0.2702647
vn 0.007869237 -0.7373417 0.6754741
vn 0.00786926 -0.7373422 0.6754736
vn 0.00786926 -0.7373421 0.6754736
vn 0.007869237 -0.7373417 0.6754742
vn 0 -0.4028061 0.9152854
vn 0 -0.9320314 0.3623775
vn -0.3507004 -0.872493 0.3402429
vn 0 -0.9320312 -0.3623781
vn -0.09881826 -0.3948552 0.9134135
vn -0.09879053 0.3948497 0.9134189
vn 0 0.4027944 0.9152905
vn -0.3506976 0.8724913 0.34025
vn 0 0.9320267 0.3623894
vn -0.3495206 -0.8723317 -0.3418663
vn 0 -0.4028057 -0.9152855
vn -0.3495149 0.8723309 -0.3418745
vn 0 0.9320269 -0.3623891
vn -0.703083 -0.6678928 0.2441177
vn -0.4732041 -0.3497432 0.8085527
vn -0.7396676 -0.2863626 0.6090059
vn -0.7396698 0.2863641 0.6090026
vn -0.4731755 0.3497166 0.808581
vn -0.7030835 0.6678921 0.2441183
vn -0.6978043 0.6705091 -0.2519655
vn -0.6978126 -0.6705077 -0.2519464
vn -0.7196169 0.2880702 -0.6317967
vn -0.3590586 0.3735358 -0.8553057
vn 0 0.4027946 -0.9152904
vn -0.7196293 -0.2880591 -0.6317875
vn -0.3590643 -0.3735487 -0.8552977
vn 0.951579 -0.1267356 -0.2800632
vn 0.9999945 -0.003284546 0.0004929386
vn 0.9570325 0.1050993 -0.2702647
vn 0.9409062 -0.3094417 -0.1376272
vn 0.7753872 0.5913444 -0.2215545
vn 0.7776065 -0.5912109 0.2140041
vn 0.7780768 0.585814 0.2267565
vn 0.7967238 -0.2442763 0.5527752
vn 0.7962015 0.2450974 0.5531639
vn 0.9918178 0.119072 0.04603454
vn 0.9409062 -0.3094417 -0.1376272
vn 0.951579 -0.1267356 -0.2800632
vn 0.9943052 0.04167895 0.0980819
vn 0.991981 0.1189971 -0.04258353
vn 0.9570325 0.1050993 -0.2702647
vn 0.9970012 -0.06895737 0.03512061
vn 0.992583 -0.04903565 0.1112401
vn 0.9912224 0.05208139 -0.1215145
vn 0.9968281 0.07553715 -0.02505233
vn 0.997366 -0.02554707 0.0678856
vn 0.991947 -0.1157295 0.05145754
vn 0.9912238 -0.05208313 -0.1215019
vn 0.9966653 0.0745445 0.03318569
vn 0.9973455 0.02592024 0.06804552
vn 0.9900841 -0.1304538 -0.05211007
g Color_Boss_09_0
f 3/3/3 2/2/2 1/1/1
f 4/4/4 3/3/3 1/1/1
f 5/5/5 3/3/3 4/4/4
f 6/6/6 5/5/5 4/4/4
f 7/7/7 5/5/5 6/6/6
f 8/8/8 7/7/7 6/6/6
f 11/11/11 10/10/10 9/9/9
f 12/12/12 11/11/11 9/9/9
f 15/15/15 14/14/14 13/13/13
f 16/16/16 15/15/15 13/13/13
f 17/17/17 16/16/16 13/13/13
f 20/20/20 19/19/19 18/18/18
f 21/21/21 20/20/20 18/18/18
f 22/22/22 20/20/20 21/21/21
f 23/23/23 22/22/22 21/21/21
f 26/26/26 25/25/25 24/24/24
f 27/27/27 26/26/26 24/24/24
f 30/30/30 29/29/29 28/28/28
f 30/30/30 28/28/28 31/31/31
f 32/32/32 30/30/30 31/31/31
f 33/33/33 32/32/32 31/31/31
f 36/36/36 35/35/35 34/34/34
f 35/35/35 37/37/37 34/34/34
f 35/35/35 38/38/38 37/37/37
f 38/38/38 39/39/39 37/37/37
f 38/38/38 40/40/40 39/39/39
f 40/40/40 41/41/41 39/39/39
f 44/44/44 43/43/43 42/42/42
f 45/45/45 44/44/44 42/42/42
f 48/48/48 47/47/47 46/46/46
f 49/49/49 48/48/48 46/46/46
f 49/49/49 46/46/46 50/50/50
f 51/51/51 49/49/49 50/50/50
f 51/51/51 50/50/50 52/52/52
f 53/53/53 51/51/51 52/52/52
f 56/56/56 55/55/55 54/54/54
f 57/57/57 56/56/56 54/54/54
f 60/60/60 59/59/59 58/58/58
f 59/59/59 61/61/61 58/58/58
f 58/58/58 61/61/61 62/62/62
f 61/61/61 63/63/63 62/62/62
f 62/62/62 63/63/63 64/64/64
f 63/63/63 65/65/65 64/64/64
f 64/64/64 65/65/65 66/66/66
f 65/65/65 67/67/67 66/66/66
f 66/66/66 67/67/67 68/68/68
f 67/67/67 69/69/69 68/68/68
f 68/68/68 69/69/69 70/70/70
f 69/69/69 71/71/71 70/70/70
f 70/70/70 71/71/71 72/72/72
f 71/71/71 73/73/73 72/72/72
f 76/76/76 75/75/75 74/74/74
f 77/77/77 76/76/76 74/74/74
f 78/78/78 76/76/76 77/77/77
f 79/79/79 78/78/78 77/77/77
f 80/80/80 78/78/78 79/79/79
f 81/81/81 80/80/80 79/79/79
f 82/82/82 80/80/80 81/81/81
f 83/83/83 82/82/82 81/81/81
f 84/84/84 82/82/82 83/83/83
f 85/85/85 84/84/84 83/83/83
f 86/86/86 84/84/84 85/85/85
f 87/87/87 86/86/86 85/85/85
f 88/88/88 86/86/86 87/87/87
f 89/89/89 88/88/88 87/87/87
f 92/92/92 91/91/91 90/90/90
f 93/93/93 92/92/92 90/90/90
f 93/93/93 90/90/90 94/94/94
f 90/90/90 95/95/95 94/94/94
f 98/98/98 97/97/97 96/96/96
f 99/99/99 98/98/98 96/96/96
f 102/102/102 101/101/101 100/100/100
f 102/102/102 100/100/100 103/103/103
f 104/104/104 102/102/102 103/103/103
f 103/103/103 105/105/105 104/104/104
f 105/105/105 106/106/106 104/104/104
f 106/106/106 105/105/105 107/107/107
f 108/108/108 106/106/106 107/107/107
f 108/108/108 107/107/107 109/109/109
f 110/110/110 108/108/108 109/109/109
f 110/110/110 109/109/109 111/111/111
f 114/114/114 113/113/113 112/112/112
f 115/115/115 114/114/114 112/112/112
f 118/118/118 117/117/117 116/116/116
f 117/117/117 118/118/118 119/119/119
f 120/120/120 118/118/118 116/116/116
f 121/121/121 120/120/120 116/116/116
f 122/122/122 121/121/121 116/116/116
f 123/123/123 121/121/121 122/122/122
f 124/124/124 123/123/123 122/122/122
f 118/118/118 125/125/125 119/119/119
f 119/119/119 125/125/125 126/126/126
f 127/127/127 123/123/123 124/124/124
f 128/128/128 127/127/127 124/124/124
f 118/118/118 129/129/129 125/125/125
f 118/118/118 130/130/130 129/129/129
f 130/130/130 131/131/131 129/129/129
f 132/132/132 131/131/131 130/130/130
f 133/133/133 132/132/132 130/130/130
f 132/132/132 133/133/133 123/123/123
f 134/134/134 132/132/132 123/123/123
f 135/135/135 134/134/134 123/123/123
f 127/127/127 135/135/135 123/123/123
f 129/129/129 136/136/136 125/125/125
f 137/137/137 135/135/135 127/127/127
f 138/138/138 127/127/127 128/128/128
f 138/138/138 137/137/137 127/127/127
f 139/139/139 138/138/138 128/128/128
f 140/140/140 137/137/137 138/138/138
f 125/125/125 136/136/136 141/141/141
f 136/136/136 140/140/140 141/141/141
f 141/141/141 140/140/140 138/138/138
f 141/141/141 138/138/138 139/139/139
f 125/125/125 141/141/141 126/126/126
f 126/126/126 141/141/141 139/139/139
f 144/144/144 143/143/143 142/142/142
f 142/142/142 143/143/143 145/145/145
f 146/146/146 143/143/143 144/144/144
f 145/145/145 143/143/143 147/147/147
f 148/148/148 143/143/143 146/146/146
f 147/147/147 143/143/143 149/149/149
f 150/150/150 143/143/143 148/148/148
f 149/149/149 143/143/143 150/150/150
f 153/153/153 152/152/152 151/151/151
f 154/154/154 153/153/153 151/151/151
f 151/151/151 152/152/152 155/155/155
f 156/156/156 153/153/153 154/154/154
f 152/152/152 157/157/157 155/155/155
f 158/158/158 156/156/156 154/154/154
f 155/155/155 157/157/157 159/159/159
f 160/160/160 156/156/156 158/158/158
f 157/157/157 161/161/161 159/159/159
f 162/162/162 160/160/160 158/158/158
f 159/159/159 161/161/161 163/163/163
f 164/164/164 160/160/160 162/162/162
f 161/161/161 165/165/165 163/163/163
f 166/166/166 164/164/164 162/162/162
f 163/163/163 165/165/165 166/166/166
f 165/165/165 164/164/164 166/166/166
