g Color_BookCover_13
v 59.35676 50.24543 -2.165431
v 5.197193 50.24543 -2.165385
v 57.37967 56.70858 -2.165382
v 13.84569 -50.23357 -1.412851
v 50.84912 -50.23357 -1.412822
v 18.32273 -56.56428 -1.412853
v 52.2235 48.99635 1.388748
v 13.03678 48.99635 1.388793
v 50.07853 57.43343 1.388797
v 59.41925 37.73228 1.388746
v 67.48188 33.50681 1.388789
v 59.36763 -6.362984 1.388737
v 58.87862 -36.80317 -3.045338
v 58.93023 44.10878 -3.04524
v 66.92326 -35.74967 -3.045294
v 60.92452 -52.27527 4.999948
v 62.52452 -51.47527 4.999949
v 61.92452 -52.07527 4.999948
v 62.72452 0.0698204 4.999999
v 62.72452 -50.47527 4.999949
v 2.383485 0.0698204 4.999998
v 2.383487 -52.27527 4.999947
v 1.758714 -52.28457 5.3155
v 1.758713 0.06052399 5.315552
v 62.72452 50.61491 5.000048
v 2.383483 52.41491 5.00005
v 1.758711 52.40562 5.315603
v 61.92452 52.21491 5.00005
v 62.52452 51.61491 5.000049
v 60.92452 52.41491 5.00005
v 2.383487 -52.27527 -5.000051
v 59.66185 -52.27526 -2.500051
v 60.92452 -52.27527 -5.000051
v 1.120814 -52.27526 -2.500051
v 0.4559088 -52.28516 -2.718689
v 1.758714 -52.28456 -5.315604
v 9.536743E-07 -52.28568 -5.316734E-05
v 0.6999235 -52.27526 -5.221367E-05
v 59.24096 -52.27526 -5.244498E-05
v 0.4559083 -52.28517 2.718585
v 1.120814 -52.27528 2.499948
v 59.66185 -52.27528 2.499948
v 1.758714 -52.28457 5.3155
v 60.92452 -52.27527 4.999948
v 2.383487 -52.27527 4.999947
v 2.383483 52.41491 5.00005
v 59.66185 52.41492 2.500053
v 60.92452 52.41491 5.00005
v 1.120812 52.41492 2.500053
v 59.24096 52.41493 5.221367E-05
v 0.4557133 52.40502 2.718101
v 1.758711 52.40562 5.315603
v 9.536743E-07 52.40451 5.221367E-05
v 0.6999235 52.41493 5.221367E-05
v 0.4557133 52.40502 -2.717995
v 1.120812 52.41492 -2.499947
v 1.758711 52.40562 -5.315499
v 59.66185 52.41492 -2.499947
v 2.383483 52.41492 -4.999947
v 60.92452 52.41492 -4.999947
v 9.536743E-07 0.05941391 -4.768408E-07
v 0.4559083 -52.28517 2.718585
v 9.536743E-07 -52.28568 -5.316734E-05
v 0.4558108 0.05992508 2.718343
v 1.758714 -52.28457 5.3155
v 1.758713 0.06052399 5.315552
v 1.758711 52.40562 5.315603
v 0.4557133 52.40502 2.718101
v 9.536743E-07 52.40451 5.221367E-05
v 1.758711 52.40562 -5.315499
v 2.383485 0.06982422 -4.999999
v 2.383483 52.41492 -4.999947
v 1.758713 0.0605278 -5.315551
v 2.383487 -52.27527 -5.000051
v 1.758714 -52.28456 -5.315604
v 61.92452 -52.07527 4.999948
v 59.66185 -52.27528 2.499948
v 60.92452 -52.27527 4.999948
v 60.66185 -52.07528 2.499949
v 59.24096 -52.27526 -5.244498E-05
v 62.52452 -51.47527 4.999949
v 60.24096 -52.07526 -5.224897E-05
v 59.66185 -52.27526 -2.500051
v 61.26185 -51.47528 2.499949
v 62.72452 -50.47527 4.999949
v 60.66185 -52.07526 -2.500051
v 60.92452 -52.27527 -5.000051
v 61.92452 -52.07527 -5.000051
v 60.84095 -51.47526 -5.165148E-05
v 61.26184 -51.47527 -2.500051
v 62.52452 -51.47527 -5.00005
v 61.46185 -50.47528 2.49995
v 61.46185 -50.47527 -2.50005
v 62.72452 -50.47527 -5.000049
v 61.46185 0.06982803 -2.5
v 62.72452 0.06982422 -4.999999
v 62.72452 50.61492 -4.999949
v 61.04095 -50.47526 -5.065251E-05
v 61.46185 0.06982422 2.5
v 62.72452 0.0698204 4.999999
v 62.72452 50.61491 5.000048
v 61.04095 0.06983185 -1.192129E-07
v 61.46185 50.61492 2.500051
v 62.52452 51.61491 5.000049
v 61.04095 50.61493 5.041409E-05
v 61.26185 51.61492 2.500052
v 61.92452 52.21491 5.00005
v 61.46185 50.61492 -2.499949
v 60.66185 52.21492 2.500052
v 60.92452 52.41491 5.00005
v 59.66185 52.41492 2.500053
v 60.84095 51.61493 5.141386E-05
v 61.26184 51.61492 -2.499948
v 62.52452 51.61492 -4.999948
v 60.24096 52.21493 5.201371E-05
v 59.24096 52.41493 5.221367E-05
v 60.66185 52.21492 -2.499948
v 61.92452 52.21492 -4.999947
v 59.66185 52.41492 -2.499947
v 60.92452 52.41492 -4.999947
v 1.758711 52.40562 -5.315499
v 0.455811 0.05992889 -2.718342
v 1.758713 0.0605278 -5.315551
v 0.4557133 52.40502 -2.717995
v 1.758714 -52.28456 -5.315604
v 9.536743E-07 52.40451 5.221367E-05
v 0.4559088 -52.28516 -2.718689
v 9.536743E-07 0.05941391 -4.768408E-07
v 9.536743E-07 -52.28568 -5.316734E-05
vt 0.6508757 0.1976345
vt 0.1262317 0.02050166
vt 0.6508757 0.02050166
vt 0.6508757 0.1976345
vt 0.1262317 0.02050166
vt 0.6508757 0.02050166
vt 0.1263753 0.2223675
vt 0.6448996 0.2223675
vt 0.1263753 0.05069034
vt 0.1263753 0.2223675
vt 0.1263753 0.05069034
vt 0.6448996 0.2223675
vt 0.6508757 0.1976345
vt 0.1262317 0.02050166
vt 0.6508757 0.02050166
vt 0.09756017 0.9400184
vt 0.09757067 0.9400237
vt 0.09756673 0.9400197
vt 0.09757198 0.9403619
vt 0.09757198 0.9400302
vt 0.09717603 0.9403619
vt 0.09717603 0.9400184
vt 0.09717192 0.9400183
vt 0.09717192 0.9403618
vt 0.09757198 0.9406935
vt 0.09717603 0.9407053
vt 0.09717192 0.9407053
vt 0.09756673 0.940704
vt 0.09757067 0.9407001
vt 0.09756017 0.9407053
vt 0.1147697 0.8250979
vt 0.08584876 0.007186287
vt 0.1147697 0.007186287
vt 0.08584876 0.8250979
vt 0.08584876 0.8409153
vt 0.1147697 0.8409143
vt 0.05882987 0.8409153
vt 0.05882987 0.8250979
vt 0.05883077 0.007186287
vt 0.0318121 0.8409153
vt 0.0318121 0.8250979
vt 0.0318121 0.007186287
vt 0.00289008 0.8409153
vt 0.00289008 0.007186287
vt 0.00289008 0.8250979
vt 0.002890095 0.8250979
vt 0.0318121 0.007186287
vt 0.002890095 0.007186287
vt 0.0318121 0.8250979
vt 0.05883077 0.007186287
vt 0.0318121 0.8409153
vt 0.002890095 0.8409153
vt 0.05882987 0.8409153
vt 0.05882932 0.8250979
vt 0.08584876 0.8409153
vt 0.08584876 0.8250979
vt 0.1147697 0.8409143
vt 0.08584876 0.007186287
vt 0.1147697 0.8250979
vt 0.1147697 0.007186287
vt 0.09716038 0.9403618
vt 0.09716336 0.9400183
vt 0.09716038 0.9400183
vt 0.09716336 0.9403618
vt 0.09717192 0.9400183
vt 0.09717192 0.9403618
vt 0.09717192 0.9407053
vt 0.09716336 0.9407053
vt 0.09716038 0.9407053
vt 0.09717192 0.9407053
vt 0.09717603 0.9403619
vt 0.09717603 0.9407053
vt 0.09717192 0.9403618
vt 0.09717603 0.9400184
vt 0.09717192 0.9400183
vt 0.002890096 0.2778888
vt 0.03181211 0.007186287
vt 0.002890096 0.007186287
vt 0.03181211 0.2778888
vt 0.05883076 0.007186287
vt 0.002890096 0.5485911
vt 0.05883076 0.2778888
vt 0.08584876 0.007186287
vt 0.03181211 0.5485911
vt 0.002890096 0.8192936
vt 0.08584876 0.2778888
vt 0.1147697 0.007186287
vt 0.1147697 0.2778888
vt 0.05883076 0.5485911
vt 0.08584876 0.5485911
vt 0.1147697 0.5485911
vt 0.03181211 0.8192936
vt 0.08584876 0.8192936
vt 0.1147697 0.8192936
vt 0.08584876 0.8192936
vt 0.1147697 0.8192936
vt 0.1147697 0.8192936
vt 0.05883076 0.8192936
vt 0.03181211 0.8192936
vt 0.002890096 0.8192936
vt 0.002890096 0.8192936
vt 0.05883076 0.8192936
vt 0.03181211 0.8192936
vt 0.002890096 0.5485911
vt 0.05883076 0.8192936
vt 0.03181211 0.5485911
vt 0.002890096 0.2778888
vt 0.08584876 0.8192936
vt 0.03181211 0.2778888
vt 0.002890096 0.007186287
vt 0.03181211 0.007186287
vt 0.05883076 0.5485911
vt 0.08584876 0.5485911
vt 0.1147697 0.5485911
vt 0.05883076 0.2778888
vt 0.05883076 0.007186287
vt 0.08584876 0.2778888
vt 0.1147697 0.2778888
vt 0.08584876 0.007186287
vt 0.1147697 0.007186287
vt 0.09717192 0.9407053
vt 0.09716336 0.9403618
vt 0.09717192 0.9403618
vt 0.09716336 0.9407053
vt 0.09717192 0.9400183
vt 0.09716038 0.9407053
vt 0.09716336 0.9400183
vt 0.09716038 0.9403618
vt 0.09716038 0.9400183
vn 0 0 1
vn 0 0 1
vn 0 0 1
vn 0 0 1
vn 0 0 1
vn 0 0 1
vn 0 0 1
vn 0 0 1
vn 0 0 1
vn 0 0 1
vn 0 0 1
vn 0 0 1
vn 0 0 1
vn 0 0 1
vn 0 0 1
vn 0 0 1
vn 0 0 1
vn 0 0 1
vn 0 0 1
vn 0 0 1
vn 0.2317223 0 0.972782
vn 0.2326975 0 0.9725491
vn 0.4508304 0 0.8926097
vn 0.4508304 0 0.8926097
vn 0 0 1
vn 0.230738 0 0.973016
vn 0.4508304 0 0.8926097
vn 0 0 1
vn 0 0 1
vn 0 0 1
vn 0.00525821 -0.999983 0.002556802
vn 0.08906683 -0.9956681 0.02668769
vn 0.1271246 -0.9898064 0.06420822
vn 0.007405018 -0.9999698 0.002377922
vn 0.01339433 -0.9999012 0.004262516
vn 0.01196294 -0.9999118 0.005772369
vn 0.01481731 -0.9998902 6.96211E-05
vn 0.008199703 -0.9999664 5.084146E-05
vn 0.08815677 -0.9961066 0
vn 0.01353835 -0.9998991 -0.004290835
vn 0.007341261 -0.9999703 -0.002345325
vn 0.08906698 -0.9956679 -0.02668854
vn 0.01200701 -0.9999098 -0.006020502
vn 0.1271245 -0.9898066 -0.06420473
vn 0.005159521 -0.9999833 -0.00260439
vn -0.005258658 0.999983 0.002557826
vn 0.089067 0.9956682 -0.02668325
vn 0.1271246 0.9898067 -0.06420333
vn -0.00740714 0.9999697 0.002381182
vn 0.08815666 0.9961067 0
vn -0.0133987 0.9999012 0.004264515
vn -0.0119631 0.9999118 0.005772026
vn -0.01481755 0.9998902 7.146603E-05
vn -0.008199872 0.9999664 5.284138E-05
vn -0.01354368 0.999899 -0.004290615
vn -0.007343714 0.9999703 -0.002345981
vn -0.01200691 0.9999098 -0.006023182
vn 0.08906687 0.9956682 0.02668389
vn -0.005158992 0.9999833 -0.002607169
vn 0.1271247 0.9898065 0.06420522
vn -1 0 0
vn -0.9506258 0 0.3103394
vn -1 0 0
vn -0.9506251 0 0.3103414
vn -0.8938279 0 0.4484101
vn -0.8938348 0 0.4483964
vn -0.8938417 0 0.4483826
vn -0.9506246 0 0.3103431
vn -1 0 0
vn 0.4508293 0 -0.8926101
vn 0.4508293 0 -0.8926101
vn 0.4508293 0 -0.8926101
vn 0.4508293 0 -0.8926101
vn 0.4508293 0 -0.8926101
vn 0.4508293 0 -0.8926101
vn 0.5147121 -0.8170013 -0.2599624
vn 0.08906698 -0.9956679 -0.02668854
vn 0.1271245 -0.9898066 -0.06420473
vn 0.4426635 -0.8852891 -0.1425213
vn 0.08815677 -0.9961066 0
vn 0.8177575 -0.400857 -0.4130209
vn 0.4472779 -0.8943951 0
vn 0.08906683 -0.9956681 0.02668769
vn 0.8386477 -0.4658728 -0.2821925
vn 0.8893305 -0.08565723 -0.4491705
vn 0.4426632 -0.8852893 0.1425206
vn 0.1271246 -0.9898064 0.06420822
vn 0.5147111 -0.8170007 0.2599659
vn 0.8744671 -0.4850849 0
vn 0.8386477 -0.4658729 0.2821922
vn 0.8177558 -0.4008577 0.4130238
vn 0.9449189 -0.09441503 -0.3133913
vn 0.9449189 -0.09441552 0.3133911
vn 0.8893291 -0.0856582 0.4491729
vn 0.9500989 0 0.3119488
vn 0.89261 0 0.4508298
vn 0.8893294 0.08565708 0.4491726
vn 0.99503 -0.09957474 0
vn 0.9500989 0 -0.3119491
vn 0.892611 0 -0.4508277
vn 0.8893303 0.08565812 -0.4491707
vn 1 0 0
vn 0.9449189 0.09441552 -0.3133911
vn 0.8177572 0.4008579 -0.4130207
vn 0.99503 0.09957518 0
vn 0.8386483 0.465873 -0.2821904
vn 0.5147119 0.8170018 -0.2599612
vn 0.9449191 0.09441481 0.3133908
vn 0.442664 0.8852895 -0.1425169
vn 0.1271246 0.9898067 -0.06420333
vn 0.089067 0.9956682 -0.02668325
vn 0.8744665 0.4850859 0
vn 0.8386484 0.4658725 0.2821905
vn 0.8177568 0.4008564 0.4130231
vn 0.4472775 0.8943954 0
vn 0.08815666 0.9961067 0
vn 0.4426637 0.8852896 0.1425173
vn 0.5147121 0.8170007 0.259964
vn 0.08906687 0.9956682 0.02668389
vn 0.1271247 0.9898065 0.06420522
vn -0.8938418 0 -0.4483823
vn -0.9506251 0 -0.3103413
vn -0.8938349 0 -0.4483963
vn -0.9506248 0 -0.3103427
vn -0.893828 0 -0.4484101
vn -1 0 0
vn -0.9506257 0 -0.31034
vn -1 0 0
vn -1 0 0
g Color_BookCover_13_0
f 3/3/3 2/2/2 1/1/1
f 6/6/6 5/5/5 4/4/4
f 9/9/9 8/8/8 7/7/7
f 12/12/12 11/11/11 10/10/10
f 15/15/15 14/14/14 13/13/13
f 18/18/18 17/17/17 16/16/16
f 17/17/17 19/19/19 16/16/16
f 20/20/20 19/19/19 17/17/17
f 19/19/19 21/21/21 16/16/16
f 16/16/16 21/21/21 22/22/22
f 22/22/22 21/21/21 23/23/23
f 24/24/24 23/23/23 21/21/21
f 25/25/25 21/21/21 19/19/19
f 21/21/21 26/26/26 24/24/24
f 26/26/26 21/21/21 25/25/25
f 27/27/27 24/24/24 26/26/26
f 28/28/28 26/26/26 25/25/25
f 29/29/29 28/28/28 25/25/25
f 30/30/30 26/26/26 28/28/28
f 33/33/33 32/32/32 31/31/31
f 34/34/34 31/31/31 32/32/32
f 34/34/34 35/35/35 31/31/31
f 36/36/36 31/31/31 35/35/35
f 35/35/35 34/34/34 37/37/37
f 34/34/34 32/32/32 38/38/38
f 38/38/38 37/37/37 34/34/34
f 39/39/39 38/38/38 32/32/32
f 37/37/37 38/38/38 40/40/40
f 38/38/38 39/39/39 41/41/41
f 41/41/41 40/40/40 38/38/38
f 42/42/42 41/41/41 39/39/39
f 40/40/40 41/41/41 43/43/43
f 42/42/42 44/44/44 41/41/41
f 45/45/45 43/43/43 41/41/41
f 45/45/45 41/41/41 44/44/44
f 48/48/48 47/47/47 46/46/46
f 49/49/49 46/46/46 47/47/47
f 47/47/47 50/50/50 49/49/49
f 49/49/49 51/51/51 46/46/46
f 52/52/52 46/46/46 51/51/51
f 51/51/51 49/49/49 53/53/53
f 54/54/54 53/53/53 49/49/49
f 54/54/54 49/49/49 50/50/50
f 53/53/53 54/54/54 55/55/55
f 54/54/54 50/50/50 56/56/56
f 56/56/56 55/55/55 54/54/54
f 55/55/55 56/56/56 57/57/57
f 58/58/58 56/56/56 50/50/50
f 59/59/59 57/57/57 56/56/56
f 56/56/56 58/58/58 59/59/59
f 60/60/60 59/59/59 58/58/58
f 63/63/63 62/62/62 61/61/61
f 64/64/64 61/61/61 62/62/62
f 62/62/62 65/65/65 64/64/64
f 66/66/66 64/64/64 65/65/65
f 66/66/66 67/67/67 64/64/64
f 68/68/68 64/64/64 67/67/67
f 64/64/64 68/68/68 61/61/61
f 69/69/69 61/61/61 68/68/68
f 72/72/72 71/71/71 70/70/70
f 73/73/73 70/70/70 71/71/71
f 71/71/71 74/74/74 73/73/73
f 75/75/75 73/73/73 74/74/74
f 78/78/78 77/77/77 76/76/76
f 79/79/79 76/76/76 77/77/77
f 77/77/77 80/80/80 79/79/79
f 76/76/76 79/79/79 81/81/81
f 82/82/82 79/79/79 80/80/80
f 80/80/80 83/83/83 82/82/82
f 84/84/84 81/81/81 79/79/79
f 79/79/79 82/82/82 84/84/84
f 81/81/81 84/84/84 85/85/85
f 86/86/86 82/82/82 83/83/83
f 83/83/83 87/87/87 86/86/86
f 88/88/88 86/86/86 87/87/87
f 89/89/89 84/84/84 82/82/82
f 82/82/82 86/86/86 89/89/89
f 86/86/86 88/88/88 90/90/90
f 90/90/90 89/89/89 86/86/86
f 91/91/91 90/90/90 88/88/88
f 92/92/92 85/85/85 84/84/84
f 84/84/84 89/89/89 92/92/92
f 90/90/90 91/91/91 93/93/93
f 94/94/94 93/93/93 91/91/91
f 93/93/93 94/94/94 95/95/95
f 96/96/96 95/95/95 94/94/94
f 96/96/96 97/97/97 95/95/95
f 89/89/89 90/90/90 98/98/98
f 93/93/93 98/98/98 90/90/90
f 98/98/98 92/92/92 89/89/89
f 93/93/93 95/95/95 98/98/98
f 92/92/92 99/99/99 85/85/85
f 100/100/100 85/85/85 99/99/99
f 100/100/100 99/99/99 101/101/101
f 98/98/98 102/102/102 92/92/92
f 99/99/99 92/92/92 102/102/102
f 102/102/102 98/98/98 95/95/95
f 103/103/103 101/101/101 99/99/99
f 99/99/99 102/102/102 103/103/103
f 101/101/101 103/103/103 104/104/104
f 102/102/102 95/95/95 105/105/105
f 105/105/105 103/103/103 102/102/102
f 106/106/106 104/104/104 103/103/103
f 103/103/103 105/105/105 106/106/106
f 104/104/104 106/106/106 107/107/107
f 108/108/108 105/105/105 95/95/95
f 108/108/108 95/95/95 97/97/97
f 109/109/109 107/107/107 106/106/106
f 107/107/107 109/109/109 110/110/110
f 111/111/111 110/110/110 109/109/109
f 112/112/112 106/106/106 105/105/105
f 105/105/105 108/108/108 112/112/112
f 106/106/106 112/112/112 109/109/109
f 108/108/108 97/97/97 113/113/113
f 113/113/113 112/112/112 108/108/108
f 114/114/114 113/113/113 97/97/97
f 109/109/109 115/115/115 111/111/111
f 115/115/115 109/109/109 112/112/112
f 112/112/112 113/113/113 115/115/115
f 116/116/116 111/111/111 115/115/115
f 113/113/113 114/114/114 117/117/117
f 117/117/117 115/115/115 113/113/113
f 115/115/115 117/117/117 116/116/116
f 118/118/118 117/117/117 114/114/114
f 119/119/119 116/116/116 117/117/117
f 117/117/117 118/118/118 119/119/119
f 120/120/120 119/119/119 118/118/118
f 123/123/123 122/122/122 121/121/121
f 124/124/124 121/121/121 122/122/122
f 123/123/123 125/125/125 122/122/122
f 124/124/124 122/122/122 126/126/126
f 127/127/127 122/122/122 125/125/125
f 128/128/128 126/126/126 122/122/122
f 127/127/127 129/129/129 122/122/122
f 128/128/128 122/122/122 129/129/129
