g Color_11
v -2.8632 6.657424 8.377046
v -2.8632 6.657423 -0.2722263
v 2.863202 6.65742 -0.2722254
v 2.863202 6.657422 8.377046
v -6.657424 -2.8632 8.377046
v -6.657423 -2.8632 -0.2722263
v -6.65742 2.863202 -0.2722254
v -6.657422 2.863202 8.377046
v 2.863201 -7.121901 8.377045
v 2.863201 -7.1219 -0.2722263
v -2.863202 -7.121898 -0.2722254
v -2.863201 -7.121901 8.377045
vt 0.6614495 0.01225109
vt 0.6614456 0.01208484
vt 0.6616824 0.01208484
vt 0.6616787 0.01225275
vt 0.6614495 0.01225109
vt 0.6614456 0.01208484
vt 0.6616824 0.01208484
vt 0.6616787 0.01225275
vt 0.6614495 0.01225109
vt 0.6614456 0.01208484
vt 0.6616824 0.01208484
vt 0.6616787 0.01225275
vn 0 1 0
vn 0 1 0
vn 0 1 0
vn 0 1 0
vn -1 0 0
vn -1 0 0
vn -1 0 0
vn -1 0 0
vn 0 -1 0
vn 0 -1 0
vn 0 -1 0
vn 0 -1 0
g Color_11_0
f 3/3/3 2/2/2 1/1/1
f 4/4/4 3/3/3 1/1/1
f 7/7/7 6/6/6 5/5/5
f 8/8/8 7/7/7 5/5/5
f 11/11/11 10/10/10 9/9/9
f 12/12/12 11/11/11 9/9/9
