g Color_Boss_06
v -3.809996 -2.565988 -2.092707
v -3.809996 -4.121171 -2.092717
v -1.005664 -4.12117 -2.092717
v -1.005664 -2.565987 -2.092707
v -3.809997 0.5518478 -2.092695
v -1.005665 0.5518482 -2.092695
v 2.235609 -2.565987 -2.092707
v 2.235609 0.5518487 -2.092695
v 2.235609 -4.12117 -2.092717
v 2.996856 -2.565987 -2.092707
v 2.996856 0.5518487 -2.092695
v 3.788326 -1.121918 -2.092696
v 3.788326 -2.565986 -2.092707
v 2.996856 -4.121169 -2.092717
v 2.996856 -2.565987 -2.092707
v 4.023924 -3.999397 -2.092717
v 2.950825 -6.645755 -2.092723
v 3.958148 -6.620668 -2.092723
v 2.210902 -6.284624 -2.092723
v -0.7550127 -6.785265 -2.092723
v -4.023924 -5.583342 -2.092722
v -3.809996 -4.121171 -2.092717
v -3.809996 -4.156838 -0.4614532
v -1.005664 -4.156838 -1.27002
v -3.809996 -4.156838 -1.27002
v -1.005664 -4.156838 -0.4614532
v 2.235609 -4.156837 -1.27002
v 2.235609 -4.156837 -0.4614532
v 2.996856 -4.156837 -1.27002
v 2.996856 -4.156837 -0.4614532
v 3.788326 -4.156837 -0.4614532
v 3.877362 -4.120975 -1.27002
v -3.809996 -2.601656 -0.3187815
v -1.005664 -4.014166 -0.3187817
v -3.809996 -4.014167 -0.3187817
v -1.005664 -2.601655 -0.3187815
v 2.235609 -4.014166 -0.3187817
v 2.235609 -2.601654 -0.3187815
v 2.996856 -4.014166 -0.3187817
v 2.996856 -2.601654 -0.3187815
v 3.788326 -2.601654 -0.3187815
v 3.788326 -4.014166 -0.3187817
v -3.809996 -2.601656 0.5146596
v -1.005664 -2.601655 -0.3187815
v -3.809996 -2.601656 -0.3187815
v -1.005664 -2.601655 0.5146596
v 2.235609 -2.601654 -0.3187815
v 2.235609 -2.601655 0.5146596
v 2.996856 -2.601654 -0.3187815
v 2.996856 -2.601654 0.5146596
v 3.788326 -2.601654 0.5146596
v 3.788326 -2.601654 -0.3187815
v -3.809997 -1.157587 0.6573312
v -1.005664 -2.458984 0.6573312
v -3.809996 -2.458985 0.6573308
v -1.005664 -1.157587 0.6573312
v 2.235609 -2.458984 0.6573308
v 2.235609 -1.157586 0.6573312
v 2.996856 -2.458984 0.6573308
v 2.996856 -1.157586 0.6573312
v 3.788326 -1.157586 0.6573312
v 3.788326 -2.458983 0.6573308
v -3.809997 -1.157587 1.950041
v -1.005664 -1.157587 0.6573312
v -3.809997 -1.157587 0.6573312
v -1.005664 -1.157587 1.950041
v 2.235609 -1.157586 0.6573312
v 2.235609 -1.157586 1.950041
v 2.996856 -1.157586 0.6573312
v 2.996856 -1.157586 1.950041
v 3.788326 -1.157586 1.950041
v 3.788326 -1.157586 0.6573312
v -3.809998 6.333972 2.092721
v -1.005664 -1.014916 2.092712
v -3.809997 -1.014917 2.092712
v -1.005666 6.333973 2.092721
v 2.235609 -1.014915 2.092712
v -0.8529884 7.149283 2.092723
v -3.226938 7.149282 2.092723
v 1.890844 7.149283 2.092723
v 2.235607 6.333973 2.092721
v 2.996856 -1.014915 2.092712
v 2.996855 6.333973 2.092721
v 2.535262 7.149283 2.092723
v 3.205264 7.149284 2.092723
v 3.788324 6.333974 2.092721
v 3.788326 -1.014915 2.092712
v -3.809996 -4.014167 -0.3187817
v -1.005664 -4.156838 -0.4614532
v -3.809996 -4.156838 -0.4614532
v -1.005664 -4.014166 -0.3187817
v 2.235609 -4.014166 -0.3187817
v 2.235609 -4.156837 -0.4614532
v 2.996856 -4.156837 -0.4614532
v 2.996856 -4.014166 -0.3187817
v 3.788326 -4.156837 -0.4614532
v 3.788326 -4.014166 -0.3187817
v -3.809996 -2.458985 0.6573308
v -1.005664 -2.601655 0.5146596
v -3.809996 -2.601656 0.5146596
v -1.005664 -2.458984 0.6573312
v 2.235609 -2.458984 0.6573308
v 2.235609 -2.601655 0.5146596
v 2.996856 -2.601654 0.5146596
v 2.996856 -2.458984 0.6573308
v 3.788326 -2.601654 0.5146596
v 3.788326 -2.458983 0.6573308
v -3.809997 -1.014917 2.092712
v -1.005664 -1.157587 1.950041
v -3.809997 -1.157587 1.950041
v -1.005664 -1.014916 2.092712
v 2.235609 -1.014915 2.092712
v 2.235609 -1.157586 1.950041
v 2.996856 -1.157586 1.950041
v 2.996856 -1.014915 2.092712
v 3.788326 -1.157586 1.950041
v 3.788326 -1.014915 2.092712
v 3.877362 -4.120975 -1.27002
v 4.009569 -7.149284 -1.27002
v 2.950825 -7.127572 -1.27002
v 2.996856 -4.156837 -1.27002
v 2.210902 -6.284625 -1.27002
v 2.235609 -4.156837 -1.27002
v -1.27825 -6.913386 -1.27002
v -1.005664 -4.156838 -1.27002
v -4.023924 -6.105259 -1.27002
v -3.809996 -4.156838 -1.27002
v -4.023924 -6.105259 -1.27002
v -0.7550127 -6.785265 -2.092723
v -4.023924 -5.583342 -2.092722
v -1.27825 -6.913386 -1.27002
v 2.210902 -6.284624 -2.092723
v 2.210902 -6.284625 -1.27002
v 2.210902 -6.284625 -1.27002
v 2.950825 -6.645755 -2.092723
v 2.210902 -6.284624 -2.092723
v 2.950825 -7.127572 -1.27002
v 3.958148 -6.620668 -2.092723
v 4.009569 -7.149284 -1.27002
vt 0.369136 0.121485
vt 0.369136 0.1220317
vt 0.3664832 0.1220317
vt 0.3664832 0.121485
vt 0.369136 0.1215279
vt 0.3664832 0.1215279
vt 0.3634171 0.121485
vt 0.3634171 0.1215279
vt 0.3634171 0.1220317
vt 0.362697 0.1220317
vt 0.362697 0.1215279
vt 0.3619483 0.1215279
vt 0.3619483 0.121485
vt 0.362697 0.1220317
vt 0.362697 0.121485
vt 0.3619483 0.1220317
vt 0.3627118 0.1220317
vt 0.361967 0.1220317
vt 0.3634282 0.1220317
vt 0.3667481 0.1220317
vt 0.3691173 0.1220317
vt 0.369136 0.1215119
vt 0.3665691 0.1216274
vt 0.3658588 0.1220317
vt 0.3665691 0.1220317
vt 0.3658588 0.1216274
vt 0.3650379 0.1220317
vt 0.3650379 0.1216274
vt 0.3648451 0.1220317
vt 0.3648451 0.1216274
vt 0.3646446 0.1216274
vt 0.3646446 0.1220317
vt 0.369136 0.121485
vt 0.3664832 0.1220317
vt 0.369136 0.1220317
vt 0.3664832 0.121485
vt 0.3634171 0.1220317
vt 0.3634171 0.121485
vt 0.362697 0.1220317
vt 0.362697 0.121485
vt 0.3619483 0.121485
vt 0.3619483 0.1220317
vt 0.3665691 0.121615
vt 0.3658588 0.1220317
vt 0.3665691 0.1220317
vt 0.3658588 0.121615
vt 0.3650379 0.1220317
vt 0.3650379 0.121615
vt 0.3648451 0.1220317
vt 0.3648451 0.121615
vt 0.3646446 0.121615
vt 0.3646446 0.1220317
vt 0.369136 0.1215279
vt 0.3664832 0.1220317
vt 0.369136 0.1220317
vt 0.3664832 0.1215279
vt 0.3634171 0.1220317
vt 0.3634171 0.1215279
vt 0.362697 0.1220317
vt 0.362697 0.1215279
vt 0.3619483 0.1215279
vt 0.3619483 0.1220317
vt 0.3665691 0.1213853
vt 0.3658588 0.1220317
vt 0.3665691 0.1220317
vt 0.3658588 0.1213853
vt 0.3650379 0.1220317
vt 0.3650379 0.1213853
vt 0.3648451 0.1220317
vt 0.3648451 0.1213853
vt 0.3646446 0.1213853
vt 0.3646446 0.1220317
vt 0.369136 0.1191871
vt 0.3664832 0.1220317
vt 0.369136 0.1220317
vt 0.3664832 0.1191871
vt 0.3634171 0.1220317
vt 0.3663388 0.1188715
vt 0.3685845 0.1188715
vt 0.3637433 0.1188715
vt 0.3634171 0.1191871
vt 0.362697 0.1220317
vt 0.362697 0.1191871
vt 0.3631337 0.1188715
vt 0.3624999 0.1188715
vt 0.3619483 0.1191871
vt 0.3619483 0.1220317
vt 0.3654121 0.09503008
vt 0.3656334 0.09677713
vt 0.3656334 0.09503008
vt 0.3654121 0.09677713
vt 0.3654121 0.09879638
vt 0.3656334 0.09879638
vt 0.3656334 0.09927066
vt 0.3654121 0.09927066
vt 0.3656334 0.09976374
vt 0.3654121 0.09976374
vt 0.3654121 0.09503008
vt 0.3656334 0.09677713
vt 0.3656334 0.09503008
vt 0.3654121 0.09677713
vt 0.3654121 0.09879638
vt 0.3656334 0.09879638
vt 0.3656334 0.09927066
vt 0.3654121 0.09927066
vt 0.3656334 0.09976374
vt 0.3654121 0.09976374
vt 0.3654121 0.09503008
vt 0.3656335 0.09677713
vt 0.3656335 0.09503008
vt 0.3654121 0.09677713
vt 0.3654121 0.09879638
vt 0.3656335 0.09879638
vt 0.3656335 0.09927066
vt 0.3654121 0.09927066
vt 0.3656335 0.09976374
vt 0.3654121 0.09976374
vt 0.3619483 0.1215119
vt 0.361967 0.1220317
vt 0.3627118 0.1220317
vt 0.362697 0.1215119
vt 0.3634282 0.1220317
vt 0.3634171 0.1215119
vt 0.3667481 0.1220317
vt 0.3664832 0.1215119
vt 0.3691173 0.1220317
vt 0.369136 0.1215119
vt 0.6837189 0.01300307
vt 0.6841292 0.01277874
vt 0.6837189 0.01277874
vt 0.6840636 0.01300307
vt 0.6845016 0.01277874
vt 0.6845016 0.01300307
vt 0.6845016 0.01300307
vt 0.6845945 0.01277874
vt 0.6845016 0.01277874
vt 0.6845945 0.01300307
vt 0.6847209 0.01277874
vt 0.6847274 0.01300307
vn 0 5.174682E-06 -1
vn 0 0 -1
vn 0 0 -1
vn 0 5.174681E-06 -1
vn 0 0 -1
vn 0 0 -1
vn 0 5.174681E-06 -1
vn 0 0 -1
vn 0 0 -1
vn 0 5.555661E-06 -1
vn 0 0 -1
vn 5.12958E-06 5.32227E-06 -1
vn 0 5.966926E-06 -1
vn 0 0 -1
vn 0 5.555661E-06 -1
vn 0 0 -1
vn 0 0 -1
vn 0 0 -1
vn 0 0 -1
vn 0 0 -1
vn 0 0 -1
vn 0 0 -1
vn 0 -0.9238796 0.3826832
vn 0 -1 0
vn 0 -1 0
vn 0 -0.9238796 0.3826832
vn 0 -1 0
vn 0 -0.9238797 0.3826829
vn 0.01072096 -0.9998875 -0.01049426
vn 0.005814722 -0.925846 0.3778563
vn 0.01204619 -0.9330254 0.3596089
vn 0.0214392 -0.9995498 -0.02098587
vn 0 0 1
vn 0 0 1
vn 0 0 1
vn 0 0 1
vn 0 0 1
vn 0 0 1
vn 0 0 1
vn 0 0 1
vn 0 0 1
vn 0 0 1
vn 0 -0.9238799 0.3826826
vn 0 -1 0
vn 0 -1 0
vn 0 -0.9238799 0.3826826
vn 0 -1 0
vn 0 -0.9238799 0.3826825
vn 0 -1 0
vn 0 -0.9238799 0.3826826
vn 0 -0.9238799 0.3826826
vn 0 -1 0
vn 0 0 1
vn 0 0 1
vn 0 0 1
vn 0 0 1
vn 0 0 1
vn 0 0 1
vn 0 0 1
vn 0 0 1
vn 0 0 1
vn 0 0 1
vn 0 -0.9238797 0.3826829
vn 0 -1 0
vn 0 -1 0
vn 0 -0.9238797 0.3826831
vn 0 -1 0
vn 0 -0.9238796 0.3826833
vn 0 -1 0
vn 0 -0.9238796 0.3826832
vn 0 -0.9238796 0.3826833
vn 0 -1 0
vn 0 0 1
vn 0 -0.3826844 0.9238791
vn 0 -0.3826846 0.923879
vn 0 0 1
vn 0 -0.3826842 0.9238792
vn 0 0 1
vn 0 0 1
vn 0 0 1
vn 0 0 1
vn 0 -0.3826842 0.9238792
vn 0 0 1
vn 0 0 1
vn 0 0 1
vn 0 0 1
vn 0 -0.3826842 0.9238792
vn 0 -0.7071071 0.7071065
vn 0 -0.9238796 0.3826832
vn 0 -0.9238796 0.3826832
vn 0 -0.707107 0.7071065
vn 0 -0.7071073 0.7071062
vn 0 -0.9238797 0.3826829
vn 0.005814722 -0.925846 0.3778563
vn 0 -0.7071077 0.7071059
vn 0.01204619 -0.9330254 0.3596089
vn 0 -0.7071076 0.7071059
vn 0 -0.707108 0.7071055
vn 0 -0.9238799 0.3826826
vn 0 -0.9238799 0.3826826
vn 0 -0.7071079 0.7071056
vn 0 -0.707108 0.7071056
vn 0 -0.9238799 0.3826825
vn 0 -0.9238799 0.3826826
vn 0 -0.707108 0.7071056
vn 0 -0.9238799 0.3826826
vn 0 -0.707108 0.7071055
vn 0 -0.3826846 0.923879
vn 0 -0.9238797 0.3826831
vn 0 -0.9238797 0.3826829
vn 0 -0.3826844 0.9238791
vn 0 -0.3826842 0.9238792
vn 0 -0.9238796 0.3826833
vn 0 -0.9238796 0.3826832
vn 0 -0.3826842 0.9238792
vn 0 -0.9238796 0.3826833
vn 0 -0.3826842 0.9238792
vn 0 0 1
vn 0 0 1
vn 0 0 1
vn 0 0 1
vn 0 0 1
vn 0 0 1
vn 0 0 1
vn 0 0 1
vn 0 0 1
vn 0 0 1
vn -0.2862526 -0.8565407 -0.4294154
vn 0.01793741 -0.9857392 -0.1673215
vn -0.2862526 -0.8565407 -0.4294154
vn -0.1437082 -0.9395499 -0.3107956
vn 0.1723044 -0.9848006 -0.02188996
vn 0.1723044 -0.9848006 -0.02188996
vn -0.6154538 -0.7564099 -0.2214967
vn -0.3477732 -0.8540331 -0.3868867
vn -0.6154538 -0.7564099 -0.2214967
vn -0.2793254 -0.8635986 -0.4197318
vn 0.001391807 -0.8521284 -0.5233309
vn 0.001391807 -0.8521284 -0.5233309
g Color_Boss_06_0
f 3/3/3 2/2/2 1/1/1
f 4/4/4 3/3/3 1/1/1
f 4/4/4 1/1/1 5/5/5
f 6/6/6 4/4/4 5/5/5
f 7/7/7 4/4/4 6/6/6
f 8/8/8 7/7/7 6/6/6
f 9/9/9 3/3/3 4/4/4
f 7/7/7 9/9/9 4/4/4
f 7/7/7 8/8/8 10/10/10
f 8/8/8 11/11/11 10/10/10
f 10/10/10 11/11/11 12/12/12
f 13/13/13 10/10/10 12/12/12
f 9/9/9 7/7/7 14/14/14
f 7/7/7 15/15/15 14/14/14
f 14/14/14 15/15/15 13/13/13
f 16/16/16 14/14/14 13/13/13
f 17/17/17 14/14/14 16/16/16
f 18/18/18 17/17/17 16/16/16
f 14/14/14 17/17/17 19/19/19
f 9/9/9 14/14/14 19/19/19
f 19/19/19 20/20/20 9/9/9
f 20/20/20 3/3/3 9/9/9
f 20/20/20 21/21/21 3/3/3
f 21/21/21 22/22/22 3/3/3
f 25/25/25 24/24/24 23/23/23
f 24/24/24 26/26/26 23/23/23
f 24/24/24 27/27/27 26/26/26
f 27/27/27 28/28/28 26/26/26
f 28/28/28 27/27/27 29/29/29
f 30/30/30 28/28/28 29/29/29
f 30/30/30 29/29/29 31/31/31
f 29/29/29 32/32/32 31/31/31
f 35/35/35 34/34/34 33/33/33
f 34/34/34 36/36/36 33/33/33
f 34/34/34 37/37/37 36/36/36
f 37/37/37 38/38/38 36/36/36
f 38/38/38 37/37/37 39/39/39
f 40/40/40 38/38/38 39/39/39
f 40/40/40 39/39/39 41/41/41
f 39/39/39 42/42/42 41/41/41
f 45/45/45 44/44/44 43/43/43
f 44/44/44 46/46/46 43/43/43
f 44/44/44 47/47/47 46/46/46
f 47/47/47 48/48/48 46/46/46
f 48/48/48 47/47/47 49/49/49
f 50/50/50 48/48/48 49/49/49
f 50/50/50 49/49/49 51/51/51
f 49/49/49 52/52/52 51/51/51
f 55/55/55 54/54/54 53/53/53
f 54/54/54 56/56/56 53/53/53
f 54/54/54 57/57/57 56/56/56
f 57/57/57 58/58/58 56/56/56
f 58/58/58 57/57/57 59/59/59
f 60/60/60 58/58/58 59/59/59
f 60/60/60 59/59/59 61/61/61
f 59/59/59 62/62/62 61/61/61
f 65/65/65 64/64/64 63/63/63
f 64/64/64 66/66/66 63/63/63
f 64/64/64 67/67/67 66/66/66
f 67/67/67 68/68/68 66/66/66
f 68/68/68 67/67/67 69/69/69
f 70/70/70 68/68/68 69/69/69
f 70/70/70 69/69/69 71/71/71
f 69/69/69 72/72/72 71/71/71
f 75/75/75 74/74/74 73/73/73
f 74/74/74 76/76/76 73/73/73
f 74/74/74 77/77/77 76/76/76
f 73/73/73 76/76/76 78/78/78
f 79/79/79 73/73/73 78/78/78
f 78/78/78 76/76/76 80/80/80
f 77/77/77 81/81/81 76/76/76
f 76/76/76 81/81/81 80/80/80
f 81/81/81 77/77/77 82/82/82
f 80/80/80 81/81/81 83/83/83
f 83/83/83 81/81/81 82/82/82
f 84/84/84 80/80/80 83/83/83
f 84/84/84 83/83/83 85/85/85
f 83/83/83 86/86/86 85/85/85
f 83/83/83 82/82/82 86/86/86
f 82/82/82 87/87/87 86/86/86
f 90/90/90 89/89/89 88/88/88
f 89/89/89 91/91/91 88/88/88
f 91/91/91 89/89/89 92/92/92
f 89/89/89 93/93/93 92/92/92
f 92/92/92 93/93/93 94/94/94
f 95/95/95 92/92/92 94/94/94
f 95/95/95 94/94/94 96/96/96
f 97/97/97 95/95/95 96/96/96
f 100/100/100 99/99/99 98/98/98
f 99/99/99 101/101/101 98/98/98
f 101/101/101 99/99/99 102/102/102
f 99/99/99 103/103/103 102/102/102
f 102/102/102 103/103/103 104/104/104
f 105/105/105 102/102/102 104/104/104
f 105/105/105 104/104/104 106/106/106
f 107/107/107 105/105/105 106/106/106
f 110/110/110 109/109/109 108/108/108
f 109/109/109 111/111/111 108/108/108
f 111/111/111 109/109/109 112/112/112
f 109/109/109 113/113/113 112/112/112
f 112/112/112 113/113/113 114/114/114
f 115/115/115 112/112/112 114/114/114
f 115/115/115 114/114/114 116/116/116
f 117/117/117 115/115/115 116/116/116
f 120/120/120 119/119/119 118/118/118
f 121/121/121 120/120/120 118/118/118
f 120/120/120 121/121/121 122/122/122
f 121/121/121 123/123/123 122/122/122
f 124/124/124 122/122/122 123/123/123
f 125/125/125 124/124/124 123/123/123
f 126/126/126 124/124/124 125/125/125
f 127/127/127 126/126/126 125/125/125
f 130/130/130 129/129/129 128/128/128
f 129/129/129 131/131/131 128/128/128
f 129/129/129 132/132/132 131/131/131
f 132/132/132 133/133/133 131/131/131
f 136/136/136 135/135/135 134/134/134
f 135/135/135 137/137/137 134/134/134
f 135/135/135 138/138/138 137/137/137
f 138/138/138 139/139/139 137/137/137
