g Color_07
v -3.536602 -2.276409 0.7597294
v -4.204906 -1.665325 0.9469471
v -3.82262 -0.7896271 1.137374
v 1.592525 -2.050262 1.462028
v 0.3662262 -1.651283 1.766459
v 0.3330269 -0.3361626 1.745587
v -0.1369057 1.467857 1.703077
v -1.041222 2.395283 1.954108
v -0.4883614 3.580479 1.824468
v -5.358356 -1.118095 -1.410542
v -4.04612 0.650898 -1.108511
v -3.82262 -0.7896271 1.137374
v -4.204906 -1.665325 0.9469471
v -4.005554 -2.640274 -1.890502
v -5.358356 -1.118095 -1.410542
v -4.204906 -1.665325 0.9469471
v -3.536602 -2.276409 0.7597294
v -2.022259 -2.14542 -1.726097
v -4.005554 -2.640274 -1.890502
v -3.536602 -2.276409 0.7597294
v -2.547626 -1.905666 0.8777723
v -2.547626 -1.905666 0.8777723
v -3.536602 -2.276409 0.7597294
v -3.82262 -0.7896271 1.137374
v -2.812977 -0.8264771 0.9638033
v -1.97094 -0.04497528 -1.299461
v -2.022259 -2.14542 -1.726097
v -2.547626 -1.905666 0.8777723
v -2.812977 -0.8264771 0.9638033
v -4.04612 0.650898 -1.108511
v -1.97094 -0.04497528 -1.299461
v -2.812977 -0.8264771 0.9638033
v -3.82262 -0.7896271 1.137374
v -1.050293 -1.850613 -1.631598
v -0.4749985 1.138546 -1.346858
v 0.3330269 -0.3361626 1.745587
v 0.3662262 -1.651283 1.766459
v 1.569252 -2.996265 -1.9541
v -1.050293 -1.850613 -1.631598
v 0.3662262 -1.651283 1.766459
v 1.592525 -2.050262 1.462028
v 3.727108 -1.211555 -1.620161
v 1.569252 -2.996265 -1.9541
v 1.592525 -2.050262 1.462028
v 2.592514 -1.003078 1.660576
v 2.592514 -1.003078 1.660576
v 1.592525 -2.050262 1.462028
v 0.3330269 -0.3361626 1.745587
v 1.632877 0.1909294 1.604434
v 2.528526 1.465916 -1.324569
v 3.727108 -1.211555 -1.620161
v 2.592514 -1.003078 1.660576
v 1.632877 0.1909294 1.604434
v -0.4749985 1.138546 -1.346858
v 2.528526 1.465916 -1.324569
v 1.632877 0.1909294 1.604434
v 0.3330269 -0.3361626 1.745587
v -2.572319 2.580967 -1.06083
v -0.7163734 5.010487 -1.064107
v -0.4883614 3.580479 1.824468
v -1.041222 2.395283 1.954108
v -0.7538414 0.3643875 -1.278449
v -2.572319 2.580967 -1.06083
v -1.041222 2.395283 1.954108
v -0.1369057 1.467857 1.703077
v 1.985939 1.017563 -1.151136
v -0.7538414 0.3643875 -1.278449
v -0.1369057 1.467857 1.703077
v 1.232708 1.970184 1.782706
v 1.232708 1.970184 1.782706
v -0.1369057 1.467857 1.703077
v -0.4883614 3.580479 1.824468
v 0.9011688 3.458447 1.640712
v 2.117134 3.962475 -1.101057
v 1.985939 1.017563 -1.151136
v 1.232708 1.970184 1.782706
v 0.9011688 3.458447 1.640712
v -0.7163734 5.010487 -1.064107
v 2.117134 3.962475 -1.101057
v 0.9011688 3.458447 1.640712
v -0.4883614 3.580479 1.824468
vt 0.01569107 0.01314687
vt 0.01589963 0.01291286
vt 0.01559779 0.01291286
vt 0.01580441 0.01371607
vt 0.01637974 0.01277853
vt 0.0155471 0.01277853
vt 0.01580441 0.01371607
vt 0.01637974 0.01277853
vt 0.0155471 0.01277853
vt 0.01543315 0.01364728
vt 0.01531936 0.01351964
vt 0.01531936 0.01351964
vt 0.01543315 0.01364728
vt 0.01531939 0.01364728
vt 0.01543313 0.01351964
vt 0.01543313 0.01351964
vt 0.01531939 0.01364728
vt 0.01531492 0.01361978
vt 0.01543759 0.01365233
vt 0.01543759 0.01365233
vt 0.01531492 0.01361978
vt 0.01535362 0.01305746
vt 0.01569107 0.01314687
vt 0.01559779 0.01291286
vt 0.01535362 0.01276823
vt 0.01531492 0.0135146
vt 0.01531492 0.01361978
vt 0.01531492 0.01361978
vt 0.01531492 0.0135146
vt 0.01552965 0.01354284
vt 0.01522288 0.01362408
vt 0.01522288 0.01362408
vt 0.01552965 0.01354284
vt 0.01541853 0.01387222
vt 0.01533398 0.0132947
vt 0.01533398 0.0132947
vt 0.01541853 0.01387222
vt 0.01533401 0.01387222
vt 0.0154185 0.0132947
vt 0.0154185 0.0132947
vt 0.01533401 0.01387222
vt 0.01520622 0.01368418
vt 0.01554631 0.01377441
vt 0.01554631 0.01377441
vt 0.01520622 0.01368418
vt 0.0148735 0.01335785
vt 0.01580441 0.01371607
vt 0.0155471 0.01277853
vt 0.0148735 0.01219902
vt 0.01520622 0.01339252
vt 0.01520622 0.01368418
vt 0.01520622 0.01368418
vt 0.01520622 0.01339252
vt 0.01579939 0.01322896
vt 0.01495314 0.01393796
vt 0.01495314 0.01393796
vt 0.01579939 0.01322896
vt 0.01541853 0.01387222
vt 0.01533398 0.0132947
vt 0.01533398 0.0132947
vt 0.01541853 0.01387222
vt 0.01533401 0.01387222
vt 0.0154185 0.0132947
vt 0.0154185 0.0132947
vt 0.01533401 0.01387222
vt 0.01520622 0.01368418
vt 0.01554631 0.01377441
vt 0.01554631 0.01377441
vt 0.01520622 0.01368418
vt 0.0148735 0.01335785
vt 0.01580441 0.01371607
vt 0.0155471 0.01277853
vt 0.0148735 0.01219902
vt 0.01520622 0.01339252
vt 0.01520622 0.01368418
vt 0.01520622 0.01368418
vt 0.01520622 0.01339252
vt 0.01579939 0.01322896
vt 0.01495314 0.01393796
vt 0.01495314 0.01393796
vt 0.01579939 0.01322896
vn 0.0563751 -0.2355909 0.9702158
vn 0.0563751 -0.2355909 0.9702158
vn 0.0563751 -0.2355909 0.9702158
vn 0.2475024 0.02162058 0.968646
vn 0.2475024 0.02162058 0.9686461
vn 0.2475024 0.02162058 0.968646
vn 0.2549117 -0.01314913 0.966875
vn 0.2549117 -0.01314913 0.966875
vn 0.2549117 -0.01314913 0.966875
vn -0.7962552 0.4311645 0.4243524
vn -0.7962552 0.4311645 0.4243523
vn -0.7962552 0.4311645 0.4243524
vn -0.7962552 0.4311645 0.4243524
vn -0.6809002 -0.706009 0.1947466
vn -0.6809002 -0.706009 0.1947466
vn -0.6809002 -0.706009 0.1947466
vn -0.6809002 -0.706009 0.1947466
vn 0.2679277 -0.9568129 0.1128005
vn 0.2679277 -0.9568129 0.1128005
vn 0.2679277 -0.9568129 0.1128005
vn 0.2679277 -0.9568129 0.1128005
vn 0.0550991 -0.1660745 0.9845726
vn 0.05509911 -0.1660745 0.9845726
vn 0.05509911 -0.1660745 0.9845726
vn 0.0550991 -0.1660745 0.9845726
vn 0.9619133 0.02080302 0.2725619
vn 0.9619133 0.02080302 0.2725619
vn 0.9619133 0.02080302 0.2725619
vn 0.9619133 0.02080302 0.2725619
vn 0.2563248 0.8526309 0.4553221
vn 0.2563248 0.8526309 0.4553221
vn 0.2563247 0.8526309 0.455322
vn 0.2563248 0.8526309 0.4553221
vn -0.9355194 0.09699752 0.3396984
vn -0.9355194 0.09699752 0.3396983
vn -0.9355194 0.09699752 0.3396984
vn -0.9355194 0.09699751 0.3396983
vn -0.3315457 -0.9164396 0.2240892
vn -0.3315457 -0.9164396 0.2240892
vn -0.3315457 -0.9164396 0.2240892
vn -0.3315457 -0.9164396 0.2240892
vn 0.6273867 -0.7432684 0.2322454
vn 0.6273867 -0.7432684 0.2322454
vn 0.6273867 -0.7432684 0.2322454
vn 0.6273867 -0.7432684 0.2322454
vn 0.01872825 -0.06373734 0.9977909
vn 0.01872825 -0.06373735 0.9977909
vn 0.01872825 -0.06373734 0.9977909
vn 0.01872825 -0.06373733 0.9977909
vn 0.828308 0.4403267 0.3464363
vn 0.828308 0.4403268 0.3464363
vn 0.828308 0.4403267 0.3464363
vn 0.828308 0.4403267 0.3464363
vn -0.1670039 0.8977851 0.4075434
vn -0.1670039 0.8977851 0.4075434
vn -0.1670039 0.8977851 0.4075434
vn -0.1670039 0.8977851 0.4075434
vn -0.7661474 0.5242224 0.3717649
vn -0.7661474 0.5242223 0.3717649
vn -0.7661474 0.5242223 0.3717649
vn -0.7661474 0.5242223 0.3717649
vn -0.6839853 -0.6435545 0.3435138
vn -0.6839853 -0.6435545 0.3435138
vn -0.6839853 -0.6435546 0.3435138
vn -0.6839853 -0.6435546 0.3435138
vn 0.2409877 -0.9149941 0.3235905
vn 0.2409877 -0.9149941 0.3235905
vn 0.2409877 -0.9149941 0.3235905
vn 0.2409877 -0.9149941 0.3235905
vn 0.03598266 0.0125428 0.9992737
vn 0.03598266 0.0125428 0.9992737
vn 0.03598266 0.0125428 0.9992737
vn 0.03598266 0.0125428 0.9992737
vn 0.9448 0.049413 0.3239
vn 0.9448 0.049413 0.3239
vn 0.9448001 0.04941299 0.3239
vn 0.9448 0.049413 0.3239001
vn 0.2668165 0.896125 0.3546392
vn 0.2668165 0.896125 0.3546393
vn 0.2668165 0.896125 0.3546392
vn 0.2668166 0.896125 0.3546392
g Color_07_0
f 3/3/3 2/2/2 1/1/1
f 6/6/6 5/5/5 4/4/4
f 9/9/9 8/8/8 7/7/7
f 12/12/12 11/11/11 10/10/10
f 13/13/13 12/12/12 10/10/10
f 16/16/16 15/15/15 14/14/14
f 17/17/17 16/16/16 14/14/14
f 20/20/20 19/19/19 18/18/18
f 21/21/21 20/20/20 18/18/18
f 24/24/24 23/23/23 22/22/22
f 25/25/25 24/24/24 22/22/22
f 28/28/28 27/27/27 26/26/26
f 29/29/29 28/28/28 26/26/26
f 32/32/32 31/31/31 30/30/30
f 33/33/33 32/32/32 30/30/30
f 36/36/36 35/35/35 34/34/34
f 37/37/37 36/36/36 34/34/34
f 40/40/40 39/39/39 38/38/38
f 41/41/41 40/40/40 38/38/38
f 44/44/44 43/43/43 42/42/42
f 45/45/45 44/44/44 42/42/42
f 48/48/48 47/47/47 46/46/46
f 49/49/49 48/48/48 46/46/46
f 52/52/52 51/51/51 50/50/50
f 53/53/53 52/52/52 50/50/50
f 56/56/56 55/55/55 54/54/54
f 57/57/57 56/56/56 54/54/54
f 60/60/60 59/59/59 58/58/58
f 61/61/61 60/60/60 58/58/58
f 64/64/64 63/63/63 62/62/62
f 65/65/65 64/64/64 62/62/62
f 68/68/68 67/67/67 66/66/66
f 69/69/69 68/68/68 66/66/66
f 72/72/72 71/71/71 70/70/70
f 73/73/73 72/72/72 70/70/70
f 76/76/76 75/75/75 74/74/74
f 77/77/77 76/76/76 74/74/74
f 80/80/80 79/79/79 78/78/78
f 81/81/81 80/80/80 78/78/78
