g Color_16
v 0.2332517 -2.395368 5.72928
v -0.5842816 -2.03816 5.931208
v 0.2262033 -1.190114 6.451338
v 0.7527944 -0.1771688 6.564035
v -0.8630755 -0.8815174 6.485468
v -1.016107 0.4526187 6.6458
v 1.306308 2.668425 1.640799
v 1.284442 2.649089 1.599264
v 0.6205919 1.996889 0.6503105
v -0.8630755 -0.8815174 6.485468
v -0.5842816 -2.03816 5.931208
v -1.481783 -1.219507 6.124247
v -0.863995 -2.840461 4.974245
v -0.1864553 -2.614031 5.478109
v -1.298176 -2.513171 5.097734
v -1.481783 -1.219507 6.124247
v -0.5842816 -2.03816 5.931208
v -1.720414 -1.826032 5.609743
v -1.298176 -2.513171 5.097734
v -1.645257 -2.726979 4.574545
v -2.496317 -2.062969 4.590654
v 0.2262033 -1.190114 6.451338
v -0.5842816 -2.03816 5.931208
v -0.8630755 -0.8815174 6.485468
v 1.423977 -2.652455 4.87961
v 0.2332517 -2.395368 5.72928
v 1.722499 -2.104212 5.327421
v 0.2332517 -2.395368 5.72928
v 1.87396 -1.459115 5.775091
v 0.2262033 -1.190114 6.451338
v 0.7527944 -0.1771688 6.564035
v 0.2332517 -2.395368 5.72928
v -0.5842816 -2.03816 5.931208
v 0.2332517 -2.395368 5.72928
v -0.1864553 -2.614031 5.478109
v -0.5842816 -2.03816 5.931208
v -1.298176 -2.513171 5.097734
v -1.720414 -1.826032 5.609743
v 2.493399 0.1476622 0.9952221
v 2.892746 -0.9110822 1.723063
v 3.297536 0.9447938 3.244226
v 2.859801 1.249871 2.110197
v 2.634377 1.831205 3.754213
v 2.731697 1.274023 5.002897
v 3.288614 0.1673861 4.35721
v 2.092142 0.2470723 5.875925
v 2.609552 -0.753149 5.416235
v 1.797572 2.059978 5.427122
v 1.291588 0.9197503 6.361948
v 1.921152 2.691852 4.231852
v 1.750207 2.903607 2.914232
v -0.959963 1.551807 6.241823
v -0.7518016 2.734261 5.298052
v -1.016107 0.4526187 6.6458
v 0.7527944 -0.1771688 6.564035
v -2.508938 -0.2195996 5.754454
v -2.887592 0.8788262 5.014254
v -0.4323571 3.314912 4.113153
v -2.869279 1.780775 4.033747
v -3.19269 -0.04292957 4.222612
v -2.387493 2.434527 2.945784
v -3.129831 0.6935874 3.136724
v -3.297546 -0.3684987 2.327108
v -3.184364 -1.319387 3.595343
v -2.793586 0.5726548 1.41971
v -0.04708638 3.382721 2.813089
v -2.624643 1.454616 2.136686
v -1.539908 2.710509 1.921759
v 0.3453618 2.927359 1.595795
v -1.849982 1.288893 0.7565365
v -1.412753 -1.180047 0.4288826
v -0.7956566 -0.04936306 -1.907349E-06
v -0.4555694 2.566701 1.117571
v 0.6205919 1.996889 0.6503105
v -0.6219271 1.803976 0.4924145
v -0.05626183 1.085977 0.08651924
v 0.9230162 -0.6478938 0.01042557
v 0.9100678 0.8332921 0.1376534
v 1.306308 2.668425 1.640799
v 1.284442 2.649089 1.599264
v 1.86753 1.956073 1.238096
v 1.702484 1.199343 0.6178474
v 1.824881 1.96311 1.211472
v 1.66594 1.234401 0.6141815
v -1.016107 0.4526187 6.6458
v -0.8630755 -0.8815174 6.485468
v -1.481783 -1.219507 6.124247
v -2.508938 -0.2195996 5.754454
v -2.508938 -0.2195996 5.754454
v -1.481783 -1.219507 6.124247
v -1.720414 -1.826032 5.609743
v -2.496317 -2.062969 4.590654
v 0.9230162 -0.6478938 0.01042557
v 2.892746 -0.9110822 1.723063
v 2.493399 0.1476622 0.9952221
v 0.9461293 -1.796865 0.5537186
v -0.3218841 -1.622884 0.3661404
v -0.7956566 -0.04936306 -1.907349E-06
v -1.412753 -1.180047 0.4288826
v -0.5193586 -2.629946 1.25589
v -1.837392 -2.114049 1.224642
v -2.793586 0.5726548 1.41971
v -2.801032 -1.335241 1.637897
v -3.297546 -0.3684987 2.327108
v -2.659026 -2.184238 3.134348
v -3.184364 -1.319387 3.595343
v -0.8915466 -3.257061 2.379
v 0.7273904 -2.815789 1.441935
v -1.892626 -2.803011 2.718443
v 2.87351 -1.802903 2.74996
v 2.043271 -2.356358 2.039907
v 1.67157 -2.994257 3.152987
v 0.4196916 -3.37014 2.634539
v -0.04018347 -3.38272 3.51623
v -0.834111 -3.316558 3.35446
v -1.396332 -3.060681 3.581148
v -2.641639 -2.142639 3.574263
v -0.5996008 -3.087332 4.417543
v -1.645257 -2.726979 4.574545
v -2.496317 -2.062969 4.590654
v -2.508938 -0.2195996 5.754454
v -3.19269 -0.04292957 4.222612
v -2.887592 0.8788262 5.014254
v 0.4764013 -2.928691 4.571081
v 1.121055 -3.082817 3.871107
v 1.423977 -2.652455 4.87961
v 2.348474 -2.488545 3.85932
v 1.722499 -2.104212 5.327421
v 2.734445 -1.605275 4.555914
v 2.609552 -0.753149 5.416235
v 1.87396 -1.459115 5.775091
v 0.7527944 -0.1771688 6.564035
v 2.092142 0.2470723 5.875925
v 1.291588 0.9197503 6.361948
v 3.288614 0.1673861 4.35721
v 3.22913 -0.8659276 3.604948
v 3.297536 0.9447938 3.244226
v -0.5996008 -3.087332 4.417543
v -0.863995 -2.840461 4.974245
v -0.1864553 -2.614031 5.478109
v 0.4764013 -2.928691 4.571081
v -0.1864553 -2.614031 5.478109
v 1.423977 -2.652455 4.87961
v 0.2332517 -2.395368 5.72928
v -1.298176 -2.513171 5.097734
v -0.863995 -2.840461 4.974245
v -0.5996008 -3.087332 4.417543
v -1.645257 -2.726979 4.574545
vt 0.4909309 0.03684995
vt 0.4904647 0.03692931
vt 0.4909269 0.03713364
vt 0.4912022 0.03699787
vt 0.4902808 0.036967
vt 0.4901935 0.03703
vt 0.4664876 0.03644503
vt 0.4664751 0.0364287
vt 0.4660965 0.0360559
vt 0.4908423 0.03710066
vt 0.4910012 0.03688293
vt 0.4903944 0.03697361
vt 0.4905047 0.03680382
vt 0.490891 0.03700176
vt 0.4905431 0.03685984
vt 0.4903944 0.03712383
vt 0.4910012 0.03703314
vt 0.490434 0.03685975
vt 0.4910883 0.0370726
vt 0.4906737 0.03676445
vt 0.4903074 0.03686583
vt 0.4910084 0.03708725
vt 0.4905462 0.03688293
vt 0.4903873 0.03710066
vt 0.4909522 0.0368249
vt 0.4902732 0.03715869
vt 0.4910793 0.03690386
vt 0.49023 0.03706172
vt 0.4911677 0.03684581
vt 0.490228 0.03711149
vt 0.4905283 0.03715578
vt 0.490232 0.03682781
vt 0.4904647 0.0370808
vt 0.4909309 0.03700143
vt 0.4906916 0.03690279
vt 0.4909815 0.03715176
vt 0.490672 0.03683183
vt 0.4904142 0.03697837
vt 0.4671645 0.0361914
vt 0.4673923 0.03647735
vt 0.4676231 0.03707496
vt 0.4673735 0.03662946
vt 0.4672449 0.03727532
vt 0.4673004 0.0377659
vt 0.467618 0.03751222
vt 0.4669357 0.03810888
vt 0.4672308 0.03792829
vt 0.4667677 0.03793255
vt 0.4664792 0.03829982
vt 0.4668382 0.03746297
vt 0.4667407 0.03694532
vt 0.4651951 0.03825263
vt 0.4653139 0.03788184
vt 0.4651631 0.03841134
vt 0.4661719 0.03837923
vt 0.4643118 0.03806116
vt 0.4640959 0.03777037
vt 0.465496 0.03741633
vt 0.4641063 0.03738513
vt 0.4639219 0.03745935
vt 0.4643811 0.03695772
vt 0.4639578 0.03703273
vt 0.4638621 0.03671465
vt 0.4639266 0.03721292
vt 0.4641495 0.03635817
vt 0.4657157 0.03690559
vt 0.4642458 0.03663985
vt 0.4648644 0.03655542
vt 0.4659395 0.03642736
vt 0.4646876 0.03609764
vt 0.4649369 0.03596891
vt 0.4652888 0.0358004
vt 0.4654828 0.03623948
vt 0.4660965 0.0360559
vt 0.4653879 0.03599388
vt 0.4657105 0.03583441
vt 0.466269 0.03580452
vt 0.4662616 0.0358545
vt 0.4664876 0.03644503
vt 0.4664751 0.0364287
vt 0.4668076 0.03628684
vt 0.4667135 0.03604314
vt 0.4667833 0.03627635
vt 0.4666927 0.03604171
vt 0.4910798 0.03716688
vt 0.4911672 0.03710388
vt 0.4907193 0.03697683
vt 0.4902285 0.03681671
vt 0.4904326 0.03714036
vt 0.4909234 0.03730049
vt 0.490963 0.03703641
vt 0.4904399 0.0366831
vt 0.466269 0.03580452
vt 0.4673923 0.03647735
vt 0.4671645 0.0361914
vt 0.4662822 0.03601795
vt 0.465559 0.03594426
vt 0.4652888 0.0358004
vt 0.4649369 0.03596891
vt 0.4654464 0.03629381
vt 0.4646948 0.03628155
vt 0.4641495 0.03635817
vt 0.4642276 0.03649063
vt 0.4638621 0.03671465
vt 0.4642176 0.03700606
vt 0.4639266 0.03721292
vt 0.4652342 0.03673507
vt 0.4661574 0.0363669
vt 0.4646633 0.0368684
vt 0.4673813 0.03688078
vt 0.4669078 0.03660185
vt 0.4666959 0.03703914
vt 0.4659819 0.03683544
vt 0.4656743 0.03714062
vt 0.4652382 0.03706754
vt 0.4647884 0.03717642
vt 0.4642532 0.03719855
vt 0.4654007 0.03753591
vt 0.4646853 0.03750253
vt 0.464319 0.03760392
vt 0.4643118 0.03806116
vt 0.4639219 0.03745935
vt 0.4640959 0.03777037
vt 0.4660143 0.03759623
vt 0.4663213 0.03737072
vt 0.4665547 0.03771745
vt 0.4670819 0.03731663
vt 0.4667249 0.03789339
vt 0.467302 0.0375903
vt 0.4672308 0.03792829
vt 0.4668113 0.03806926
vt 0.4661719 0.03837923
vt 0.4669357 0.03810888
vt 0.4664792 0.03829982
vt 0.467618 0.03751222
vt 0.4675841 0.03721667
vt 0.4676231 0.03707496
vt 0.4904664 0.03678345
vt 0.4903156 0.03700219
vt 0.490702 0.03720014
vt 0.49108 0.03684377
vt 0.4902386 0.03712066
vt 0.491157 0.03688552
vt 0.490478 0.0372193
vt 0.4907548 0.03714587
vt 0.4909047 0.03708984
vt 0.4910555 0.03687109
vt 0.4903401 0.03683772
vn 0.2058843 -0.6326786 0.746545
vn -0.1753546 -0.5641322 0.8068491
vn 0.160131 -0.322349 0.9329787
vn 0.2041477 -0.04884944 0.9777206
vn -0.2195665 -0.1887541 0.9571638
vn -0.2751186 0.1618635 0.9476867
vn 0.4717062 0.7997049 -0.3714366
vn 0.2831412 0.6937596 -0.6622151
vn 0.1930785 0.5936049 -0.7812515
vn -0.2195665 -0.1887541 0.9571638
vn -0.1753546 -0.5641322 0.8068491
vn -0.5201042 -0.304927 0.7978165
vn -0.14299 -0.8787434 0.4553723
vn 0.0276011 -0.8687623 0.4944595
vn -0.4093527 -0.7220885 0.5576905
vn -0.5201042 -0.304927 0.7978165
vn -0.1753546 -0.5641322 0.8068491
vn -0.5799763 -0.4839067 0.6553334
vn -0.4093527 -0.7220885 0.5576905
vn -0.4802965 -0.8189216 0.314138
vn -0.7855254 -0.4213891 0.4531898
vn 0.160131 -0.322349 0.9329787
vn -0.1753546 -0.5641322 0.8068491
vn -0.2195665 -0.1887541 0.9571638
vn 0.4310756 -0.7956052 0.4256597
vn 0.2058843 -0.6326786 0.746545
vn 0.5616442 -0.6083815 0.5607385
vn 0.2058843 -0.6326786 0.746545
vn 0.4859588 -0.3479186 0.8017461
vn 0.160131 -0.322349 0.9329787
vn 0.2041477 -0.04884944 0.9777206
vn 0.2058843 -0.6326786 0.746545
vn -0.1753546 -0.5641322 0.8068491
vn 0.2058843 -0.6326786 0.746545
vn 0.0276011 -0.8687623 0.4944595
vn -0.1753546 -0.5641322 0.8068491
vn -0.4093527 -0.7220885 0.5576905
vn -0.5799763 -0.4839067 0.6553334
vn 0.7462085 -0.01679669 -0.6655003
vn 0.8373846 -0.2424312 -0.4899122
vn 0.9730114 0.2063218 -0.1033439
vn 0.8636854 0.3537226 -0.3590653
vn 0.8190381 0.5668173 0.08885226
vn 0.7967284 0.3529996 0.4905252
vn 0.9310676 0.07161565 0.357749
vn 0.6396425 0.06689933 0.7657558
vn 0.7504674 -0.1598113 0.6412947
vn 0.3609982 0.6710662 0.6475727
vn 0.2506775 0.4167301 0.8737831
vn 0.4631365 0.8452053 0.2667066
vn 0.5172854 0.8520728 -0.07992299
vn -0.2561248 0.5199165 0.8149152
vn -0.2095493 0.7847301 0.5833418
vn -0.2751186 0.1618635 0.9476867
vn 0.2041477 -0.04884944 0.9777206
vn -0.7198015 -0.03330043 0.6933808
vn -0.7412667 0.4031713 0.5366346
vn -0.1324034 0.9589916 0.2506077
vn -0.7471734 0.6024887 0.2806052
vn -0.9703712 -0.04563181 0.2372708
vn -0.6276163 0.7784413 0.01127115
vn -0.9724934 0.225974 -0.05650265
vn -0.9840868 -0.0423031 -0.1725791
vn -0.9609476 -0.241671 0.1348146
vn -0.7722116 0.1746257 -0.6108971
vn -0.03309929 0.9956114 -0.08753592
vn -0.8346696 0.4426298 -0.3277276
vn -0.4413952 0.8302415 -0.3403961
vn 0.06721658 0.9139854 -0.4001408
vn -0.5722885 0.319604 -0.7552081
vn -0.4519706 -0.2364058 -0.8601365
vn -0.3080464 -0.00622085 -0.9513509
vn -0.2404333 0.7780231 -0.5804067
vn 0.1930785 0.5936049 -0.7812515
vn -0.3062511 0.4871622 -0.8178529
vn -0.0949231 0.2238522 -0.9699896
vn 0.3479027 -0.1771534 -0.9206412
vn 0.2874195 0.1340809 -0.9483736
vn 0.4717062 0.7997049 -0.3714366
vn 0.2831412 0.6937596 -0.6622151
vn 0.6728799 0.5489424 -0.495878
vn 0.5864639 0.2562575 -0.7683699
vn 0.3633817 0.5963928 -0.7157299
vn 0.3410923 0.4902821 -0.802047
vn -0.2751186 0.1618635 0.9476867
vn -0.2195665 -0.1887541 0.9571638
vn -0.5201042 -0.304927 0.7978165
vn -0.7198015 -0.03330043 0.6933808
vn -0.7198015 -0.03330043 0.6933808
vn -0.5201042 -0.304927 0.7978165
vn -0.5799763 -0.4839067 0.6553334
vn -0.7855254 -0.4213891 0.4531898
vn 0.3479027 -0.1771534 -0.9206412
vn 0.8373846 -0.2424312 -0.4899122
vn 0.7462085 -0.01679669 -0.6655003
vn 0.4188026 -0.5000691 -0.7579811
vn -0.1066128 -0.4741886 -0.8739444
vn -0.3080464 -0.00622085 -0.9513509
vn -0.4519706 -0.2364058 -0.8601365
vn -0.1620159 -0.7636642 -0.6249542
vn -0.5484077 -0.5496429 -0.6301917
vn -0.7722116 0.1746257 -0.6108971
vn -0.7720042 -0.3587432 -0.5247027
vn -0.9840868 -0.0423031 -0.1725791
vn -0.7745256 -0.6097327 -0.1683334
vn -0.9609476 -0.241671 0.1348146
vn -0.2453392 -0.9029682 -0.3527848
vn 0.209915 -0.8142093 -0.5412936
vn -0.5638444 -0.7836056 -0.2608481
vn 0.8645914 -0.4422129 -0.2385988
vn 0.6015617 -0.6652711 -0.4421967
vn 0.4784668 -0.8722268 -0.1014396
vn 0.1825377 -0.9521757 -0.2450334
vn 0.07123323 -0.9871331 0.1431572
vn -0.2362765 -0.9714541 0.02122477
vn -0.4675137 -0.8766761 0.1134453
vn -0.6450877 -0.7519102 0.135989
vn -0.1218617 -0.9393064 0.3207076
vn -0.4802965 -0.8189216 0.314138
vn -0.7855254 -0.4213891 0.4531898
vn -0.7198015 -0.03330043 0.6933808
vn -0.9703712 -0.04563181 0.2372708
vn -0.7412667 0.4031713 0.5366346
vn 0.1160523 -0.9167087 0.382331
vn 0.2820952 -0.9347427 0.2160519
vn 0.4310756 -0.7956052 0.4256597
vn 0.7032466 -0.6966229 0.1419887
vn 0.5616442 -0.6083815 0.5607385
vn 0.8317465 -0.4451717 0.3316923
vn 0.7504674 -0.1598113 0.6412947
vn 0.4859588 -0.3479186 0.8017461
vn 0.2041477 -0.04884944 0.9777206
vn 0.6396425 0.06689933 0.7657558
vn 0.2506775 0.4167301 0.8737831
vn 0.9310676 0.07161565 0.357749
vn 0.9735799 -0.2273986 0.02078571
vn 0.9730114 0.2063218 -0.1033439
vn -0.1218617 -0.9393064 0.3207076
vn -0.14299 -0.8787434 0.4553723
vn 0.0276011 -0.8687623 0.4944595
vn 0.1160523 -0.9167087 0.382331
vn 0.0276011 -0.8687623 0.4944595
vn 0.4310756 -0.7956052 0.4256597
vn 0.2058843 -0.6326786 0.746545
vn -0.4093527 -0.7220885 0.5576905
vn -0.14299 -0.8787434 0.4553723
vn -0.1218617 -0.9393064 0.3207076
vn -0.4802965 -0.8189216 0.314138
g Color_16_0
f 3/3/3 2/2/2 1/1/1
f 5/5/5 3/3/3 4/4/4
f 6/6/6 5/5/5 4/4/4
f 9/9/9 8/8/8 7/7/7
f 12/12/12 11/11/11 10/10/10
f 14/14/14 11/11/11 13/13/13
f 15/15/15 13/13/13 11/11/11
f 18/18/18 17/17/17 16/16/16
f 20/20/20 19/19/19 18/18/18
f 21/21/21 20/20/20 18/18/18
f 24/24/24 23/23/23 22/22/22
f 27/27/27 26/26/26 25/25/25
f 27/27/27 29/29/29 28/28/28
f 29/29/29 31/31/31 30/30/30
f 32/32/32 29/29/29 30/30/30
f 35/35/35 34/34/34 33/33/33
f 38/38/38 37/37/37 36/36/36
f 41/41/41 40/40/40 39/39/39
f 42/42/42 41/41/41 39/39/39
f 43/43/43 41/41/41 42/42/42
f 43/43/43 44/44/44 41/41/41
f 44/44/44 45/45/45 41/41/41
f 44/44/44 46/46/46 45/45/45
f 46/46/46 47/47/47 45/45/45
f 44/44/44 48/48/48 46/46/46
f 48/48/48 49/49/49 46/46/46
f 43/43/43 50/50/50 44/44/44
f 50/50/50 48/48/48 44/44/44
f 42/42/42 51/51/51 43/43/43
f 51/51/51 50/50/50 43/43/43
f 52/52/52 49/49/49 48/48/48
f 53/53/53 48/48/48 50/50/50
f 53/53/53 52/52/52 48/48/48
f 52/52/52 54/54/54 49/49/49
f 54/54/54 55/55/55 49/49/49
f 56/56/56 54/54/54 52/52/52
f 57/57/57 56/56/56 52/52/52
f 57/57/57 52/52/52 53/53/53
f 58/58/58 53/53/53 50/50/50
f 58/58/58 50/50/50 51/51/51
f 59/59/59 57/57/57 53/53/53
f 59/59/59 53/53/53 58/58/58
f 60/60/60 57/57/57 59/59/59
f 61/61/61 59/59/59 58/58/58
f 62/62/62 60/60/60 59/59/59
f 62/62/62 59/59/59 61/61/61
f 62/62/62 63/63/63 60/60/60
f 63/63/63 64/64/64 60/60/60
f 65/65/65 63/63/63 62/62/62
f 66/66/66 58/58/58 51/51/51
f 61/61/61 58/58/58 66/66/66
f 67/67/67 62/62/62 61/61/61
f 67/67/67 65/65/65 62/62/62
f 67/67/67 61/61/61 68/68/68
f 68/68/68 61/61/61 66/66/66
f 65/65/65 67/67/67 68/68/68
f 69/69/69 66/66/66 51/51/51
f 68/68/68 66/66/66 69/69/69
f 70/70/70 65/65/65 68/68/68
f 71/71/71 65/65/65 70/70/70
f 72/72/72 71/71/71 70/70/70
f 70/70/70 68/68/68 73/73/73
f 73/73/73 68/68/68 69/69/69
f 69/69/69 74/74/74 73/73/73
f 75/75/75 70/70/70 73/73/73
f 72/72/72 70/70/70 75/75/75
f 73/73/73 74/74/74 75/75/75
f 76/76/76 72/72/72 75/75/75
f 75/75/75 74/74/74 76/76/76
f 77/77/77 72/72/72 76/76/76
f 78/78/78 77/77/77 76/76/76
f 76/76/76 74/74/74 78/78/78
f 39/39/39 77/77/77 78/78/78
f 79/79/79 69/69/69 51/51/51
f 79/79/79 51/51/51 42/42/42
f 80/80/80 74/74/74 69/69/69
f 79/79/79 80/80/80 69/69/69
f 81/81/81 42/42/42 39/39/39
f 81/81/81 79/79/79 42/42/42
f 82/82/82 39/39/39 78/78/78
f 82/82/82 81/81/81 39/39/39
f 79/79/79 81/81/81 83/83/83
f 83/83/83 74/74/74 79/79/79
f 83/83/83 81/81/81 82/82/82
f 78/78/78 74/74/74 84/84/84
f 82/82/82 78/78/78 84/84/84
f 82/82/82 84/84/84 83/83/83
f 84/84/84 74/74/74 83/83/83
f 87/87/87 86/86/86 85/85/85
f 88/88/88 87/87/87 85/85/85
f 91/91/91 90/90/90 89/89/89
f 92/92/92 91/91/91 89/89/89
f 95/95/95 94/94/94 93/93/93
f 94/94/94 96/96/96 93/93/93
f 93/93/93 96/96/96 97/97/97
f 93/93/93 97/97/97 98/98/98
f 97/97/97 99/99/99 98/98/98
f 97/97/97 100/100/100 99/99/99
f 97/97/97 96/96/96 100/100/100
f 100/100/100 101/101/101 99/99/99
f 99/99/99 101/101/101 102/102/102
f 101/101/101 103/103/103 102/102/102
f 103/103/103 104/104/104 102/102/102
f 103/103/103 105/105/105 104/104/104
f 103/103/103 101/101/101 105/105/105
f 105/105/105 106/106/106 104/104/104
f 100/100/100 107/107/107 101/101/101
f 96/96/96 108/108/108 100/100/100
f 100/100/100 108/108/108 107/107/107
f 101/101/101 109/109/109 105/105/105
f 107/107/107 109/109/109 101/101/101
f 94/94/94 110/110/110 96/96/96
f 111/111/111 108/108/108 96/96/96
f 110/110/110 111/111/111 96/96/96
f 111/111/111 112/112/112 108/108/108
f 111/111/111 110/110/110 112/112/112
f 108/108/108 113/113/113 107/107/107
f 112/112/112 113/113/113 108/108/108
f 107/107/107 113/113/113 114/114/114
f 114/114/114 113/113/113 112/112/112
f 107/107/107 115/115/115 109/109/109
f 115/115/115 107/107/107 114/114/114
f 105/105/105 109/109/109 116/116/116
f 115/115/115 116/116/116 109/109/109
f 105/105/105 117/117/117 106/106/106
f 117/117/117 105/105/105 116/116/116
f 115/115/115 118/118/118 116/116/116
f 115/115/115 114/114/114 118/118/118
f 116/116/116 118/118/118 119/119/119
f 117/117/117 116/116/116 119/119/119
f 117/117/117 119/119/119 120/120/120
f 117/117/117 120/120/120 106/106/106
f 106/106/106 120/120/120 121/121/121
f 122/122/122 106/106/106 121/121/121
f 122/122/122 121/121/121 123/123/123
f 124/124/124 118/118/118 114/114/114
f 125/125/125 124/124/124 114/114/114
f 125/125/125 114/114/114 112/112/112
f 125/125/125 126/126/126 124/124/124
f 125/125/125 112/112/112 126/126/126
f 112/112/112 127/127/127 126/126/126
f 128/128/128 126/126/126 127/127/127
f 110/110/110 127/127/127 112/112/112
f 129/129/129 128/128/128 127/127/127
f 129/129/129 127/127/127 110/110/110
f 129/129/129 130/130/130 128/128/128
f 130/130/130 131/131/131 128/128/128
f 132/132/132 131/131/131 130/130/130
f 133/133/133 132/132/132 130/130/130
f 133/133/133 134/134/134 132/132/132
f 135/135/135 130/130/130 129/129/129
f 136/136/136 129/129/129 110/110/110
f 136/136/136 135/135/135 129/129/129
f 136/136/136 110/110/110 94/94/94
f 137/137/137 135/135/135 136/136/136
f 137/137/137 136/136/136 94/94/94
f 140/140/140 139/139/139 138/138/138
f 141/141/141 140/140/140 138/138/138
f 141/141/141 143/143/143 142/142/142
f 143/143/143 144/144/144 142/142/142
f 147/147/147 146/146/146 145/145/145
f 148/148/148 147/147/147 145/145/145
