g Color_03
v -1.618086 -1.154786 28.21807
v -1.292717 -1.187498 28.46114
v -1.257107 -1.486384 28.21807
v 1.29272 1.1875 28.46113
v 1.292719 -1.187499 28.46113
v -1.292717 -1.187498 28.46114
v -1.292717 1.1875 28.46114
v 3.622573 4.6628 21.68789
v 4.377044 5.633916 22.08015
v -4.377044 5.633917 22.08015
v -3.622575 4.6628 21.68789
v -5.16101 5.161012 22.08015
v -4.662799 3.622576 21.68789
v -5.633915 4.377047 22.08015
v 4.377044 5.633916 22.08015
v 4.377044 5.633916 23.0702
v -4.377044 5.633917 23.07021
v -4.377044 5.633917 22.08015
v -5.16101 5.161012 22.08015
v -5.16101 5.161012 23.07021
v -5.633915 4.377047 22.08015
v -5.633915 4.377047 23.07021
v -4.377044 5.633917 23.07021
v 4.377044 5.633916 23.0702
v 4.175074 5.373951 23.17926
v -4.175075 5.373952 23.17926
v -5.16101 5.161012 23.07021
v -4.922865 4.922867 23.17926
v -5.37395 4.175076 23.17926
v -5.633915 4.377047 23.07021
v -4.662799 3.622576 21.68789
v -5.633915 4.377047 22.08015
v -5.633916 -4.377041 22.08015
v -4.6628 -3.622571 21.68789
v -5.161011 -5.161007 22.08015
v -3.622576 -4.662796 21.68789
v -4.377046 -5.633912 22.08015
v -5.633915 4.377047 22.08015
v -5.633915 4.377047 23.07021
v -5.633916 -4.377041 23.0702
v -5.633916 -4.377041 22.08015
v -5.161011 -5.161007 22.08015
v -5.161011 -5.161007 23.0702
v -4.377046 -5.633912 22.08015
v -4.377046 -5.633912 23.0702
v -5.633916 -4.377041 23.0702
v -5.633915 4.377047 23.07021
v -5.37395 4.175076 23.17926
v -5.37395 -4.175072 23.17926
v -5.161011 -5.161007 23.0702
v -4.922866 -4.922863 23.17926
v -4.175075 -5.373948 23.17926
v -4.377046 -5.633912 23.0702
v -3.622576 -4.662796 21.68789
v -4.377046 -5.633912 22.08015
v 4.377042 -5.633914 22.08014
v 3.622572 -4.662796 21.68788
v 5.161008 -5.161008 22.08014
v 4.662796 -3.622572 21.68788
v 5.633913 -4.377043 22.08014
v -4.377046 -5.633912 22.08015
v -4.377046 -5.633912 23.0702
v 4.377042 -5.633914 23.0702
v 4.377042 -5.633914 22.08014
v 5.161008 -5.161008 22.08014
v 5.161008 -5.161008 23.0702
v 5.633913 -4.377043 22.08014
v 5.633913 -4.377043 23.0702
v 4.377042 -5.633914 23.0702
v -4.377046 -5.633912 23.0702
v -4.175075 -5.373948 23.17926
v 4.175074 -5.373948 23.17926
v 5.161008 -5.161008 23.0702
v 4.922864 -4.922863 23.17926
v 5.373949 -4.175073 23.17926
v 5.633913 -4.377043 23.0702
v 4.662796 -3.622572 21.68788
v 5.633913 -4.377043 22.08014
v 5.633914 4.377045 22.08015
v 4.662797 3.622575 21.68788
v 5.161009 5.161011 22.08015
v 3.622573 4.6628 21.68789
v 4.377044 5.633916 22.08015
v 5.633913 -4.377043 22.08014
v 5.633913 -4.377043 23.0702
v 5.633914 4.377045 23.0702
v 5.633914 4.377045 22.08015
v 5.161009 5.161011 22.08015
v 5.161009 5.161011 23.0702
v 4.377044 5.633916 22.08015
v 4.377044 5.633916 23.0702
v 5.633914 4.377045 23.0702
v 5.633913 -4.377043 23.0702
v 5.373949 -4.175073 23.17926
v 5.37395 4.175076 23.17926
v 5.161009 5.161011 23.0702
v 4.922865 4.922867 23.17926
v 4.175074 5.373951 23.17926
v 4.377044 5.633916 23.0702
v 1.257109 1.486385 28.21807
v 2.427786 3.038947 26.23566
v 3.124769 2.360864 26.23621
v 1.618088 1.154787 28.21807
v 1.257109 1.486385 28.21807
v 1.29272 1.1875 28.46113
v -1.292717 1.1875 28.46114
v -1.257106 1.486386 28.21807
v -1.618086 1.154788 28.21807
v -1.618086 1.154788 28.21807
v -1.292717 1.1875 28.46114
v -1.292717 -1.187498 28.46114
v -1.618086 -1.154786 28.21807
v -1.257107 -1.486384 28.21807
v -1.292717 -1.187498 28.46114
v 1.292719 -1.187499 28.46113
v 1.257108 -1.486384 28.21807
v 1.618088 -1.154786 28.21807
v 1.618088 -1.154786 28.21807
v 1.292719 -1.187499 28.46113
v 1.29272 1.1875 28.46113
v 1.618088 1.154787 28.21807
v 1.257109 1.486385 28.21807
v -2.714432 3.422011 25.73425
v -4.175075 5.373952 23.17926
v 4.175074 5.373951 23.17926
v 2.714432 3.422009 25.73425
v -3.494088 -2.658758 25.73425
v -5.37395 -4.175072 23.17926
v -5.37395 4.175076 23.17926
v -3.494094 2.658766 25.73425
v 2.714433 -3.422009 25.73425
v 4.175074 -5.373948 23.17926
v -4.175075 -5.373948 23.17926
v -2.714431 -3.422006 25.73425
v 3.494089 2.658761 25.73425
v 5.37395 4.175076 23.17926
v 5.373949 -4.175073 23.17926
v 3.494087 -2.658758 25.73425
v -5.37395 4.175076 23.17926
v -4.922865 4.922867 23.17926
v -3.494094 2.658766 25.73425
v -2.714432 3.422011 25.73425
v -4.175075 5.373952 23.17926
v -4.175075 -5.373948 23.17926
v -4.922866 -4.922863 23.17926
v -2.714431 -3.422006 25.73425
v -3.494088 -2.658758 25.73425
v -5.37395 -4.175072 23.17926
v 5.373949 -4.175073 23.17926
v 4.922864 -4.922863 23.17926
v 3.494087 -2.658758 25.73425
v 2.714433 -3.422009 25.73425
v 4.175074 -5.373948 23.17926
v -1.257106 1.486386 28.21807
v -2.427786 3.038948 26.23566
v 2.427786 3.038947 26.23566
v 1.257109 1.486385 28.21807
v -1.618086 -1.154786 28.21807
v -3.124769 -2.360861 26.23621
v -3.124768 2.360864 26.23622
v -1.618086 1.154788 28.21807
v 1.257108 -1.486384 28.21807
v 2.427786 -3.038946 26.23566
v -2.427786 -3.038946 26.23566
v -1.257107 -1.486384 28.21807
v 1.618088 1.154787 28.21807
v 3.124769 2.360864 26.23621
v 3.124768 -2.360862 26.2362
v 1.618088 -1.154786 28.21807
v -3.124768 2.360864 26.23622
v -2.427786 3.038948 26.23566
v -1.257106 1.486386 28.21807
v -1.618086 1.154788 28.21807
v -2.427786 -3.038946 26.23566
v -3.124769 -2.360861 26.23621
v -1.618086 -1.154786 28.21807
v -1.257107 -1.486384 28.21807
v 3.124768 -2.360862 26.2362
v 2.427786 -3.038946 26.23566
v 1.257108 -1.486384 28.21807
v 1.618088 -1.154786 28.21807
v 3.494089 2.658761 25.73425
v 2.427786 3.038947 26.23566
v 2.714432 3.422009 25.73425
v 3.124769 2.360864 26.23621
v 3.124768 -2.360862 26.2362
v 3.494087 -2.658758 25.73425
v -2.714432 3.422011 25.73425
v 2.714432 3.422009 25.73425
v 2.427786 3.038947 26.23566
v -2.427786 3.038948 26.23566
v -3.494094 2.658766 25.73425
v -3.124768 2.360864 26.23622
v -3.494088 -2.658758 25.73425
v -3.494094 2.658766 25.73425
v -3.124768 2.360864 26.23622
v -3.124769 -2.360861 26.23621
v 2.714433 -3.422009 25.73425
v -2.714431 -3.422006 25.73425
v -2.427786 -3.038946 26.23566
v 2.427786 -3.038946 26.23566
v 3.494087 -2.658758 25.73425
v 3.124768 -2.360862 26.2362
v -2.714431 -3.422006 25.73425
v -3.494088 -2.658758 25.73425
v -3.124769 -2.360861 26.23621
v -2.427786 -3.038946 26.23566
v 3.494089 2.658761 25.73425
v 4.922865 4.922867 23.17926
v 5.37395 4.175076 23.17926
v 2.714432 3.422009 25.73425
v 4.175074 5.373951 23.17926
vt 0.4880269 0.9746032
vt 0.4881149 0.9746664
vt 0.4881245 0.9746032
vt 0.4639554 0.9513376
vt 0.4639554 0.9513376
vt 0.4632564 0.9513376
vt 0.4632564 0.9513376
vt 0.440091 0.951729
vt 0.440295 0.9518309
vt 0.4379279 0.9518309
vt 0.4381319 0.951729
vt 0.437716 0.9518309
vt 0.4378507 0.951729
vt 0.4375881 0.9518309
vt 0.440699 0.9743466
vt 0.440699 0.9746038
vt 0.438332 0.9746038
vt 0.438332 0.9743466
vt 0.43812 0.9743466
vt 0.43812 0.9746038
vt 0.4379921 0.9743466
vt 0.4379921 0.9746038
vt 0.4872808 0.9746206
vt 0.4896479 0.9746206
vt 0.4895933 0.9746489
vt 0.4873355 0.9746489
vt 0.4870689 0.9746206
vt 0.4871333 0.9746489
vt 0.4870113 0.9746489
vt 0.486941 0.9746206
vt 0.4378507 0.951729
vt 0.4375881 0.9518309
vt 0.4375881 0.9518309
vt 0.4378507 0.951729
vt 0.437716 0.9518309
vt 0.4381319 0.951729
vt 0.4379279 0.9518309
vt 0.4379921 0.9743466
vt 0.4379921 0.9746038
vt 0.4379921 0.9746038
vt 0.4379921 0.9743466
vt 0.43812 0.9743466
vt 0.43812 0.9746038
vt 0.438332 0.9743466
vt 0.438332 0.9746038
vt 0.486941 0.9746206
vt 0.486941 0.9746206
vt 0.4870113 0.9746489
vt 0.4870113 0.9746489
vt 0.4870689 0.9746206
vt 0.4871333 0.9746489
vt 0.4873355 0.9746489
vt 0.4872808 0.9746206
vt 0.4381319 0.951729
vt 0.4379279 0.9518309
vt 0.440295 0.9518309
vt 0.440091 0.951729
vt 0.440507 0.9518309
vt 0.4403722 0.951729
vt 0.4406348 0.9518309
vt 0.438332 0.9743466
vt 0.438332 0.9746038
vt 0.440699 0.9746038
vt 0.440699 0.9743466
vt 0.440911 0.9743466
vt 0.440911 0.9746038
vt 0.4410388 0.9743466
vt 0.4410388 0.9746038
vt 0.4896479 0.9746206
vt 0.4872808 0.9746206
vt 0.4873355 0.9746489
vt 0.4895933 0.9746489
vt 0.4898599 0.9746206
vt 0.4897955 0.9746489
vt 0.4899175 0.9746489
vt 0.4899877 0.9746206
vt 0.4403722 0.951729
vt 0.4406348 0.9518309
vt 0.4406348 0.9518309
vt 0.4403722 0.951729
vt 0.440507 0.9518309
vt 0.440091 0.951729
vt 0.440295 0.9518309
vt 0.4410388 0.9743466
vt 0.4410388 0.9746038
vt 0.4410388 0.9746038
vt 0.4410388 0.9743466
vt 0.440911 0.9743466
vt 0.440911 0.9746038
vt 0.440699 0.9743466
vt 0.440699 0.9746038
vt 0.4899877 0.9746206
vt 0.4899877 0.9746206
vt 0.4899175 0.9746489
vt 0.4899175 0.9746489
vt 0.4898599 0.9746206
vt 0.4897955 0.9746489
vt 0.4895933 0.9746489
vt 0.4896479 0.9746206
vt 0.464995 0.9751502
vt 0.4653116 0.9745999
vt 0.4655 0.9746
vt 0.4650926 0.9751502
vt 0.4888043 0.9746032
vt 0.4888139 0.9746664
vt 0.4881149 0.9746664
vt 0.4881245 0.9746032
vt 0.4880269 0.9746032
vt 0.4880269 0.9746032
vt 0.4881149 0.9746664
vt 0.4881149 0.9746664
vt 0.4880269 0.9746032
vt 0.4881245 0.9746032
vt 0.4881149 0.9746664
vt 0.4888139 0.9746664
vt 0.4888043 0.9746032
vt 0.4889019 0.9746032
vt 0.4889019 0.9746032
vt 0.4888139 0.9746664
vt 0.4888139 0.9746664
vt 0.4889019 0.9746032
vt 0.4888043 0.9746032
vt 0.4645828 0.9752336
vt 0.4641186 0.9745165
vt 0.4663764 0.9745165
vt 0.4659122 0.9752336
vt 0.4655463 0.9752335
vt 0.4649488 0.9745166
vt 0.4649488 0.9745166
vt 0.4655463 0.9752335
vt 0.4659122 0.9752336
vt 0.4663764 0.9745165
vt 0.4641186 0.9745165
vt 0.4645828 0.9752336
vt 0.4649487 0.9752335
vt 0.4655463 0.9745166
vt 0.4655463 0.9745166
vt 0.4649487 0.9752335
vt 0.4648533 0.9745165
vt 0.4649753 0.9745165
vt 0.4654508 0.9752334
vt 0.4656417 0.9752336
vt 0.4651775 0.9745165
vt 0.4651775 0.9745165
vt 0.4649753 0.9745165
vt 0.4656417 0.9752336
vt 0.4654508 0.9752334
vt 0.4648533 0.9745165
vt 0.4656417 0.9745165
vt 0.4655197 0.9745165
vt 0.4650442 0.9752334
vt 0.4648533 0.9752336
vt 0.4653175 0.9745165
vt 0.4649076 0.9751502
vt 0.4645911 0.9745999
vt 0.465904 0.9745999
vt 0.4655874 0.9751502
vt 0.4654512 0.9751501
vt 0.4650438 0.9745999
vt 0.4650438 0.9745999
vt 0.4654512 0.9751501
vt 0.4655874 0.9751502
vt 0.465904 0.9745999
vt 0.4645911 0.9745999
vt 0.4649076 0.9751502
vt 0.4650438 0.9751501
vt 0.4654512 0.9745999
vt 0.4654512 0.9745999
vt 0.4650438 0.9751501
vt 0.464995 0.9746
vt 0.4651835 0.9745999
vt 0.4655 0.9751502
vt 0.4654024 0.9751502
vt 0.4651835 0.9745999
vt 0.464995 0.9746
vt 0.4654024 0.9751502
vt 0.4655 0.9751502
vt 0.4655 0.9746
vt 0.4653116 0.9745999
vt 0.464995 0.9751502
vt 0.4650926 0.9751502
vt 0.48932 0.9746139
vt 0.4891209 0.9746556
vt 0.489129 0.974614
vt 0.4893093 0.9746557
vt 0.4893093 0.9746557
vt 0.48932 0.9746139
vt 0.4877997 0.974614
vt 0.489129 0.974614
vt 0.4891209 0.9746556
vt 0.487808 0.9746556
vt 0.4876088 0.9746139
vt 0.4876195 0.9746557
vt 0.4876088 0.9746139
vt 0.4876088 0.9746139
vt 0.4876195 0.9746557
vt 0.4876195 0.9746557
vt 0.489129 0.974614
vt 0.4877997 0.974614
vt 0.487808 0.9746556
vt 0.4891209 0.9746556
vt 0.48932 0.9746139
vt 0.4893093 0.9746557
vt 0.4877997 0.974614
vt 0.4876088 0.9746139
vt 0.4876195 0.9746557
vt 0.487808 0.9746556
vt 0.4650442 0.9752334
vt 0.4655197 0.9745165
vt 0.4656417 0.9745165
vt 0.4648533 0.9752336
vt 0.4653175 0.9745165
vn -0.5987902 -0.2069916 0.7736955
vn -0.3011951 -0.3206723 0.898026
vn -0.1970677 -0.632587 0.748998
vn 0.3011947 0.3206712 0.8980266
vn 0.3011947 -0.3206719 0.8980263
vn -0.3011951 -0.3206723 0.898026
vn -0.3011947 0.3206711 0.8980266
vn 0.07731076 0.3060393 -0.9488745
vn 0.1015461 0.3037584 -0.9473222
vn -0.1015466 0.3037592 -0.9473218
vn -0.07731163 0.3060394 -0.9488744
vn -0.2020593 0.2020593 -0.9583027
vn -0.30604 0.07731161 -0.9488742
vn -0.3037596 0.1015467 -0.9473218
vn 0.2680735 0.9633985 0
vn 0.2680734 0.9633985 0
vn -0.2680735 0.9633985 0
vn -0.2680733 0.9633986 0
vn -0.7071068 0.7071068 0
vn -0.7071068 0.7071068 0
vn -0.9633985 0.2680734 0
vn -0.9633985 0.2680735 0
vn -0.1049967 0.3142434 0.9435183
vn 0.1049974 0.3142437 0.9435181
vn 0.06563478 0.3422258 0.9373225
vn -0.06563418 0.3422256 0.9373227
vn -0.2178389 0.2178389 0.9513634
vn -0.2178389 0.2178389 0.9513634
vn -0.3422253 0.06563429 0.9373228
vn -0.3142431 0.104997 0.9435184
vn -0.30604 0.07731161 -0.9488742
vn -0.3037596 0.1015467 -0.9473218
vn -0.3037596 -0.1015465 -0.9473218
vn -0.30604 -0.0773113 -0.9488744
vn -0.2020593 -0.2020593 -0.9583027
vn -0.07731169 -0.3060394 -0.9488744
vn -0.1015468 -0.3037592 -0.9473218
vn -0.9633985 0.2680734 0
vn -0.9633985 0.2680735 0
vn -0.9633986 -0.2680734 0
vn -0.9633986 -0.2680733 0
vn -0.7071068 -0.7071068 0
vn -0.7071069 -0.7071066 0
vn -0.2680734 -0.9633985 0
vn -0.2680737 -0.9633985 0
vn -0.3142433 -0.1049968 0.9435184
vn -0.3142431 0.104997 0.9435184
vn -0.3422253 0.06563429 0.9373228
vn -0.3422251 -0.06563461 0.9373228
vn -0.2178392 -0.2178403 0.9513631
vn -0.2178391 -0.2178404 0.9513631
vn -0.06563447 -0.3422304 0.9373209
vn -0.1049974 -0.3142473 0.9435169
vn -0.07731169 -0.3060394 -0.9488744
vn -0.1015468 -0.3037592 -0.9473218
vn 0.101546 -0.3037584 -0.9473222
vn 0.07731085 -0.3060389 -0.9488747
vn 0.2020583 -0.2020583 -0.9583032
vn 0.3060389 -0.07731105 -0.9488748
vn 0.3037583 -0.1015461 -0.9473222
vn -0.2680734 -0.9633985 0
vn -0.2680737 -0.9633985 0
vn 0.2680734 -0.9633986 0
vn 0.2680733 -0.9633986 0
vn 0.7071068 -0.7071068 0
vn 0.7071068 -0.7071068 0
vn 0.9633985 -0.2680735 0
vn 0.9633985 -0.2680734 0
vn 0.1049983 -0.3142468 0.9435169
vn -0.1049974 -0.3142473 0.9435169
vn -0.06563447 -0.3422304 0.9373209
vn 0.06563559 -0.3422298 0.937321
vn 0.2178403 -0.2178401 0.9513629
vn 0.2178404 -0.21784 0.9513629
vn 0.3422264 -0.06563462 0.9373224
vn 0.3142439 -0.1049974 0.9435181
vn 0.3060389 -0.07731105 -0.9488748
vn 0.3037583 -0.1015461 -0.9473222
vn 0.303759 0.1015465 -0.947322
vn 0.3060389 0.07731161 -0.9488747
vn 0.2020585 0.2020589 -0.9583029
vn 0.07731076 0.3060393 -0.9488745
vn 0.1015461 0.3037584 -0.9473222
vn 0.9633985 -0.2680735 0
vn 0.9633985 -0.2680734 0
vn 0.9633985 0.2680734 0
vn 0.9633986 0.2680733 0
vn 0.7071068 0.7071068 0
vn 0.7071068 0.7071068 0
vn 0.2680735 0.9633985 0
vn 0.2680734 0.9633985 0
vn 0.314244 0.104997 0.9435181
vn 0.3142439 -0.1049974 0.9435181
vn 0.3422264 -0.06563462 0.9373224
vn 0.3422261 0.06563444 0.9373225
vn 0.2178393 0.2178393 0.9513633
vn 0.2178393 0.2178393 0.9513633
vn 0.06563478 0.3422258 0.9373225
vn 0.1049974 0.3142437 0.9435181
vn 0.2322479 0.6953165 0.6801441
vn 0.292416 0.6625323 0.6895969
vn 0.6549764 0.3105322 0.6888945
vn 0.69214 0.2471071 0.6781446
vn 0.197067 0.6325848 0.7490001
vn 0.3011947 0.3206712 0.8980266
vn -0.3011947 0.3206711 0.8980266
vn -0.1970662 0.6325848 0.7490003
vn -0.5987894 0.2069902 0.7736966
vn -0.5987894 0.2069902 0.7736966
vn -0.3011947 0.3206711 0.8980266
vn -0.3011951 -0.3206723 0.898026
vn -0.5987902 -0.2069916 0.7736955
vn -0.1970677 -0.632587 0.748998
vn -0.3011951 -0.3206723 0.898026
vn 0.3011947 -0.3206719 0.8980263
vn 0.1970667 -0.6325862 0.7489989
vn 0.598788 -0.2069905 0.7736975
vn 0.598788 -0.2069905 0.7736975
vn 0.3011947 -0.3206719 0.8980263
vn 0.3011947 0.3206712 0.8980266
vn 0.598788 0.2069902 0.7736977
vn 0.197067 0.6325848 0.7490001
vn -0.2237733 0.6961922 0.6820865
vn -0.2254876 0.7076967 0.6695677
vn 0.225488 0.7076966 0.6695677
vn 0.223775 0.6961911 0.682087
vn -0.7018377 -0.2269462 0.6752179
vn -0.713668 -0.2300647 0.6616253
vn -0.7136688 0.2300646 0.6616247
vn -0.7018371 0.2269474 0.6752181
vn 0.2237765 -0.6961903 0.6820872
vn 0.2254887 -0.7076964 0.6695676
vn -0.2254878 -0.7076966 0.6695676
vn -0.2237749 -0.6961911 0.6820871
vn 0.7018375 0.2269459 0.6752182
vn 0.713668 0.2300645 0.6616255
vn 0.7136678 -0.2300646 0.6616256
vn 0.7018385 -0.2269447 0.6752176
vn -0.7136688 0.2300646 0.6616247
vn -0.5045072 0.507035 0.6988477
vn -0.7018371 0.2269474 0.6752181
vn -0.2237733 0.6961922 0.6820865
vn -0.2254876 0.7076967 0.6695677
vn -0.2254878 -0.7076966 0.6695676
vn -0.5045071 -0.5070343 0.6988482
vn -0.2237749 -0.6961911 0.6820871
vn -0.7018377 -0.2269462 0.6752179
vn -0.713668 -0.2300647 0.6616253
vn 0.7136678 -0.2300646 0.6616256
vn 0.504508 -0.5070336 0.6988481
vn 0.7018385 -0.2269447 0.6752176
vn 0.2237765 -0.6961903 0.6820872
vn 0.2254887 -0.7076964 0.6695676
vn -0.2322453 0.6953167 0.6801447
vn -0.2924126 0.662533 0.6895975
vn 0.292416 0.6625323 0.6895969
vn 0.2322479 0.6953165 0.6801441
vn -0.6921387 -0.2471079 0.6781458
vn -0.6549752 -0.310533 0.6888953
vn -0.6549734 0.3105332 0.6888969
vn -0.6921377 0.2471074 0.6781471
vn 0.2322488 -0.695316 0.6801443
vn 0.2924178 -0.6625313 0.6895971
vn -0.2924159 -0.6625322 0.689597
vn -0.2322476 -0.6953165 0.6801441
vn 0.69214 0.2471071 0.6781446
vn 0.6549764 0.3105322 0.6888945
vn 0.654978 -0.3105308 0.6888937
vn 0.6921409 -0.2471066 0.678144
vn -0.6549734 0.3105332 0.6888969
vn -0.2924126 0.662533 0.6895975
vn -0.2322453 0.6953167 0.6801447
vn -0.6921377 0.2471074 0.6781471
vn -0.2924159 -0.6625322 0.689597
vn -0.6549752 -0.310533 0.6888953
vn -0.6921387 -0.2471079 0.6781458
vn -0.2322476 -0.6953165 0.6801441
vn 0.654978 -0.3105308 0.6888937
vn 0.2924178 -0.6625313 0.6895971
vn 0.2322488 -0.695316 0.6801443
vn 0.6921409 -0.2471066 0.678144
vn 0.6669043 0.3112521 0.6770235
vn 0.2410689 0.7005081 0.6716949
vn 0.2993375 0.6688268 0.6804908
vn 0.7044708 0.2461428 0.6656836
vn 0.7044716 -0.246142 0.6656829
vn 0.6669061 -0.3112502 0.6770226
vn -0.2993354 0.6688285 0.6804901
vn 0.2993375 0.6688268 0.6804908
vn 0.2410689 0.7005081 0.6716949
vn -0.2410674 0.7005093 0.6716943
vn -0.6669039 0.3112538 0.6770232
vn -0.7044706 0.246144 0.6656833
vn -0.6669045 -0.3112527 0.677023
vn -0.6669039 0.3112538 0.6770232
vn -0.7044706 0.246144 0.6656833
vn -0.7044711 -0.2461436 0.6656831
vn 0.2993397 -0.6688251 0.6804914
vn -0.2993374 -0.6688268 0.680491
vn -0.2410688 -0.7005081 0.6716951
vn 0.24107 -0.7005073 0.6716955
vn 0.6669061 -0.3112502 0.6770226
vn 0.7044716 -0.246142 0.6656829
vn -0.2993374 -0.6688268 0.680491
vn -0.6669045 -0.3112527 0.677023
vn -0.7044711 -0.2461436 0.6656831
vn -0.2410688 -0.7005081 0.6716951
vn 0.7018375 0.2269459 0.6752182
vn 0.5045071 0.5070345 0.6988482
vn 0.713668 0.2300645 0.6616255
vn 0.223775 0.6961911 0.682087
vn 0.225488 0.7076966 0.6695677
g Color_03_0
f 3/3/3 2/2/2 1/1/1
f 6/6/6 5/5/5 4/4/4
f 7/7/7 6/6/6 4/4/4
f 10/10/10 9/9/9 8/8/8
f 11/11/11 10/10/10 8/8/8
f 12/12/12 10/10/10 11/11/11
f 13/13/13 12/12/12 11/11/11
f 14/14/14 12/12/12 13/13/13
f 17/17/17 16/16/16 15/15/15
f 18/18/18 17/17/17 15/15/15
f 17/17/17 18/18/18 19/19/19
f 20/20/20 17/17/17 19/19/19
f 20/20/20 19/19/19 21/21/21
f 22/22/22 20/20/20 21/21/21
f 25/25/25 24/24/24 23/23/23
f 26/26/26 25/25/25 23/23/23
f 26/26/26 23/23/23 27/27/27
f 28/28/28 26/26/26 27/27/27
f 29/29/29 28/28/28 27/27/27
f 30/30/30 29/29/29 27/27/27
f 33/33/33 32/32/32 31/31/31
f 34/34/34 33/33/33 31/31/31
f 35/35/35 33/33/33 34/34/34
f 36/36/36 35/35/35 34/34/34
f 37/37/37 35/35/35 36/36/36
f 40/40/40 39/39/39 38/38/38
f 41/41/41 40/40/40 38/38/38
f 40/40/40 41/41/41 42/42/42
f 43/43/43 40/40/40 42/42/42
f 43/43/43 42/42/42 44/44/44
f 45/45/45 43/43/43 44/44/44
f 48/48/48 47/47/47 46/46/46
f 49/49/49 48/48/48 46/46/46
f 49/49/49 46/46/46 50/50/50
f 51/51/51 49/49/49 50/50/50
f 52/52/52 51/51/51 50/50/50
f 53/53/53 52/52/52 50/50/50
f 56/56/56 55/55/55 54/54/54
f 57/57/57 56/56/56 54/54/54
f 58/58/58 56/56/56 57/57/57
f 59/59/59 58/58/58 57/57/57
f 60/60/60 58/58/58 59/59/59
f 63/63/63 62/62/62 61/61/61
f 64/64/64 63/63/63 61/61/61
f 63/63/63 64/64/64 65/65/65
f 66/66/66 63/63/63 65/65/65
f 66/66/66 65/65/65 67/67/67
f 68/68/68 66/66/66 67/67/67
f 71/71/71 70/70/70 69/69/69
f 72/72/72 71/71/71 69/69/69
f 72/72/72 69/69/69 73/73/73
f 74/74/74 72/72/72 73/73/73
f 75/75/75 74/74/74 73/73/73
f 76/76/76 75/75/75 73/73/73
f 79/79/79 78/78/78 77/77/77
f 80/80/80 79/79/79 77/77/77
f 79/79/79 80/80/80 81/81/81
f 80/80/80 82/82/82 81/81/81
f 81/81/81 82/82/82 83/83/83
f 86/86/86 85/85/85 84/84/84
f 87/87/87 86/86/86 84/84/84
f 87/87/87 88/88/88 86/86/86
f 88/88/88 89/89/89 86/86/86
f 88/88/88 90/90/90 89/89/89
f 90/90/90 91/91/91 89/89/89
f 94/94/94 93/93/93 92/92/92
f 95/95/95 94/94/94 92/92/92
f 92/92/92 96/96/96 95/95/95
f 96/96/96 97/97/97 95/95/95
f 98/98/98 97/97/97 96/96/96
f 99/99/99 98/98/98 96/96/96
f 102/102/102 101/101/101 100/100/100
f 103/103/103 102/102/102 100/100/100
f 106/106/106 105/105/105 104/104/104
f 107/107/107 106/106/106 104/104/104
f 108/108/108 106/106/106 107/107/107
f 111/111/111 110/110/110 109/109/109
f 112/112/112 111/111/111 109/109/109
f 115/115/115 114/114/114 113/113/113
f 116/116/116 115/115/115 113/113/113
f 117/117/117 115/115/115 116/116/116
f 120/120/120 119/119/119 118/118/118
f 121/121/121 120/120/120 118/118/118
f 122/122/122 120/120/120 121/121/121
f 125/125/125 124/124/124 123/123/123
f 126/126/126 125/125/125 123/123/123
f 129/129/129 128/128/128 127/127/127
f 130/130/130 129/129/129 127/127/127
f 133/133/133 132/132/132 131/131/131
f 134/134/134 133/133/133 131/131/131
f 137/137/137 136/136/136 135/135/135
f 138/138/138 137/137/137 135/135/135
f 141/141/141 140/140/140 139/139/139
f 142/142/142 140/140/140 141/141/141
f 143/143/143 140/140/140 142/142/142
f 146/146/146 145/145/145 144/144/144
f 147/147/147 145/145/145 146/146/146
f 148/148/148 145/145/145 147/147/147
f 151/151/151 150/150/150 149/149/149
f 152/152/152 150/150/150 151/151/151
f 153/153/153 150/150/150 152/152/152
f 156/156/156 155/155/155 154/154/154
f 157/157/157 156/156/156 154/154/154
f 160/160/160 159/159/159 158/158/158
f 161/161/161 160/160/160 158/158/158
f 164/164/164 163/163/163 162/162/162
f 165/165/165 164/164/164 162/162/162
f 168/168/168 167/167/167 166/166/166
f 169/169/169 168/168/168 166/166/166
f 172/172/172 171/171/171 170/170/170
f 173/173/173 172/172/172 170/170/170
f 176/176/176 175/175/175 174/174/174
f 177/177/177 176/176/176 174/174/174
f 180/180/180 179/179/179 178/178/178
f 181/181/181 180/180/180 178/178/178
f 184/184/184 183/183/183 182/182/182
f 183/183/183 185/185/185 182/182/182
f 185/185/185 186/186/186 182/182/182
f 186/186/186 187/187/187 182/182/182
f 190/190/190 189/189/189 188/188/188
f 191/191/191 190/190/190 188/188/188
f 191/191/191 188/188/188 192/192/192
f 193/193/193 191/191/191 192/192/192
f 196/196/196 195/195/195 194/194/194
f 197/197/197 196/196/196 194/194/194
f 200/200/200 199/199/199 198/198/198
f 201/201/201 200/200/200 198/198/198
f 201/201/201 198/198/198 202/202/202
f 203/203/203 201/201/201 202/202/202
f 206/206/206 205/205/205 204/204/204
f 207/207/207 206/206/206 204/204/204
f 210/210/210 209/209/209 208/208/208
f 209/209/209 211/211/211 208/208/208
f 212/212/212 211/211/211 209/209/209
