g Color_Boss_55
v -7.607719 -0.03782703 -0.01130775
v -7.607719 -0.1313114 -0.1313133
v -7.607719 -1.510463E-08 -0.1857023
v -7.607719 0.1313114 -0.1313133
v -7.607719 -0.1857023 9.23872E-07
v -7.607719 0.1857023 9.23872E-07
v -7.607719 -0.1313114 0.1313123
v -7.607719 0.1313114 0.1313123
v -7.607719 -3.133923E-08 0.1857013
v 7.607719 -0.03782703 -0.01130775
v 7.607719 0.1313114 -0.1313133
v 7.607719 -1.510463E-08 -0.1857023
v 7.607719 -0.1313114 -0.1313133
v 7.607719 0.1857023 9.23872E-07
v 7.607719 -0.1857023 9.23872E-07
v 7.607719 0.1313114 0.1313123
v 7.607719 -0.1313114 0.1313123
v 7.607719 -3.133923E-08 0.1857013
v -7.607719 -1.510463E-08 -0.1857023
v -4.317427 -1.161101E-08 -0.2656269
v -4.317427 0.1878266 -0.1878271
v -7.607719 0.1313114 -0.1313133
v -7.607719 -0.1313114 -0.1313133
v -4.317427 0.2656269 9.23872E-07
v -7.607719 0.1857023 9.23872E-07
v -4.317427 -0.1878266 -0.1878271
v -7.607719 -0.1857023 9.23872E-07
v -4.317427 0.1878266 0.1878261
v -7.607719 0.1313114 0.1313123
v -4.317427 -0.2656269 9.23872E-07
v -7.607719 -0.1313114 0.1313123
v -4.317427 -3.483285E-08 0.2656259
v -7.607719 -3.133923E-08 0.1857013
v -4.317427 -0.1878266 0.1878261
v 2.207235E-07 0.1878266 -0.1878271
v 2.207235E-07 0.2656269 9.23872E-07
v 2.207235E-07 -1.161101E-08 -0.2656269
v 2.207235E-07 0.1878266 0.1878261
v 2.207235E-07 -0.1878266 -0.1878271
v 2.207235E-07 -3.483285E-08 0.2656259
v 2.207235E-07 -0.1878266 0.1878261
v 2.207235E-07 -0.2656269 9.23872E-07
v 4.317427 -1.161101E-08 -0.2656269
v 4.317427 0.1878266 -0.1878271
v 4.317427 0.2656269 9.23872E-07
v 4.317427 0.1878266 0.1878261
v 4.317427 -0.1878266 -0.1878271
v 4.317427 -0.2656269 9.23872E-07
v 4.317427 -3.483285E-08 0.2656259
v 4.317427 -0.1878266 0.1878261
v 7.607719 -1.510463E-08 -0.1857023
v 7.607719 0.1313114 -0.1313133
v 7.607719 -0.1313114 -0.1313133
v 7.607719 0.1857023 9.23872E-07
v 7.607719 -0.1857023 9.23872E-07
v 7.607719 0.1313114 0.1313123
v 7.607719 -0.1313114 0.1313123
v 7.607719 -3.133923E-08 0.1857013
vt 0.4650588 0.09698441
vt 0.465032 0.09694115
vt 0.4650698 0.09692157
vt 0.4651076 0.09694115
vt 0.4650164 0.09698849
vt 0.4651232 0.09698849
vt 0.465032 0.09703579
vt 0.4651076 0.09703579
vt 0.4650698 0.0970554
vt 0.4650588 0.09698441
vt 0.4651076 0.09694115
vt 0.4650698 0.09692157
vt 0.465032 0.09694115
vt 0.4651232 0.09698849
vt 0.4650164 0.09698849
vt 0.4651076 0.09703579
vt 0.465032 0.09703579
vt 0.4650698 0.0970554
vt 0.4650698 0.09692157
vt 0.4650698 0.09689275
vt 0.4651238 0.09692078
vt 0.4651076 0.09694115
vt 0.465032 0.09694115
vt 0.4651462 0.09698849
vt 0.4651232 0.09698849
vt 0.4650157 0.09692078
vt 0.4650164 0.09698849
vt 0.4651238 0.09705617
vt 0.4651076 0.09703579
vt 0.4649934 0.09698849
vt 0.465032 0.09703579
vt 0.4650698 0.09708422
vt 0.4650698 0.0970554
vt 0.4650157 0.09705617
vt 0.4651238 0.09692078
vt 0.4651462 0.09698849
vt 0.4650698 0.09689275
vt 0.4651238 0.09705617
vt 0.4650157 0.09692078
vt 0.4650698 0.09708422
vt 0.4650157 0.09705617
vt 0.4649934 0.09698849
vt 0.4650698 0.09689275
vt 0.4651238 0.09692078
vt 0.4651462 0.09698849
vt 0.4651238 0.09705617
vt 0.4650157 0.09692078
vt 0.4649934 0.09698849
vt 0.4650698 0.09708422
vt 0.4650157 0.09705617
vt 0.4650698 0.09692157
vt 0.4651076 0.09694115
vt 0.465032 0.09694115
vt 0.4651232 0.09698849
vt 0.4650164 0.09698849
vt 0.4651076 0.09703579
vt 0.465032 0.09703579
vt 0.4650698 0.0970554
vn -1 0 0
vn -1 0 0
vn -1 0 0
vn -1 0 0
vn -1 0 0
vn -1 0 0
vn -1 0 0
vn -1 0 0
vn -1 0 0
vn 1 0 0
vn 1 0 0
vn 1 0 0
vn 1 0 0
vn 1 0 0
vn 1 0 0
vn 1 0 0
vn 1 0 0
vn 1 0 0
vn -0.02428357 0 -0.999705
vn -0.01210693 0 -0.9999267
vn -0.012107 0.7070548 -0.707055
vn -0.02428376 0.7068976 -0.7068988
vn -0.02428376 -0.7068976 -0.7068989
vn -0.01210701 0.9999267 0
vn -0.02428375 0.999705 0
vn -0.01210701 -0.7070548 -0.7070551
vn -0.02428375 -0.999705 0
vn -0.01210699 0.7070527 0.7070572
vn -0.02428374 0.7068954 0.7069011
vn -0.01210701 -0.9999267 0
vn -0.02428374 -0.7068954 0.7069011
vn -0.01210693 0 0.9999267
vn -0.02428358 0 0.999705
vn -0.01210699 -0.7070527 0.7070572
vn 0 0.7071069 -0.7071065
vn 0 1 0
vn 0 0 -1
vn 0 0.707105 0.7071085
vn 0 -0.7071069 -0.7071065
vn 0 0 1
vn 0 -0.7071051 0.7071084
vn 0 -1 0
vn 0.01210693 0 -0.9999267
vn 0.012107 0.7070548 -0.707055
vn 0.01210701 0.9999267 0
vn 0.01210699 0.7070527 0.7070572
vn 0.012107 -0.7070548 -0.707055
vn 0.01210701 -0.9999267 0
vn 0.01210693 0 0.9999267
vn 0.01210699 -0.7070527 0.7070572
vn 0.02428357 0 -0.999705
vn 0.02428376 0.7068976 -0.7068988
vn 0.02428376 -0.7068976 -0.7068989
vn 0.02428374 0.999705 0
vn 0.02428374 -0.999705 0
vn 0.02428373 0.7068954 0.7069011
vn 0.02428373 -0.7068954 0.7069011
vn 0.02428357 0 0.999705
g Color_Boss_55_0
f 3/3/3 2/2/2 1/1/1
f 4/4/4 3/3/3 1/1/1
f 5/5/5 1/1/1 2/2/2
f 6/6/6 4/4/4 1/1/1
f 5/5/5 7/7/7 1/1/1
f 8/8/8 6/6/6 1/1/1
f 7/7/7 9/9/9 1/1/1
f 8/8/8 1/1/1 9/9/9
f 12/12/12 11/11/11 10/10/10
f 13/13/13 12/12/12 10/10/10
f 11/11/11 14/14/14 10/10/10
f 10/10/10 15/15/15 13/13/13
f 14/14/14 16/16/16 10/10/10
f 17/17/17 15/15/15 10/10/10
f 10/10/10 16/16/16 18/18/18
f 18/18/18 17/17/17 10/10/10
f 21/21/21 20/20/20 19/19/19
f 22/22/22 21/21/21 19/19/19
f 19/19/19 20/20/20 23/23/23
f 24/24/24 21/21/21 22/22/22
f 25/25/25 24/24/24 22/22/22
f 20/20/20 26/26/26 23/23/23
f 23/23/23 26/26/26 27/27/27
f 28/28/28 24/24/24 25/25/25
f 29/29/29 28/28/28 25/25/25
f 26/26/26 30/30/30 27/27/27
f 27/27/27 30/30/30 31/31/31
f 32/32/32 28/28/28 29/29/29
f 33/33/33 32/32/32 29/29/29
f 31/31/31 34/34/34 33/33/33
f 30/30/30 34/34/34 31/31/31
f 34/34/34 32/32/32 33/33/33
f 21/21/21 35/35/35 20/20/20
f 21/21/21 24/24/24 36/36/36
f 35/35/35 21/21/21 36/36/36
f 26/26/26 20/20/20 37/37/37
f 35/35/35 37/37/37 20/20/20
f 24/24/24 28/28/28 38/38/38
f 36/36/36 24/24/24 38/38/38
f 30/30/30 26/26/26 39/39/39
f 39/39/39 26/26/26 37/37/37
f 28/28/28 32/32/32 40/40/40
f 38/38/38 28/28/28 40/40/40
f 32/32/32 34/34/34 41/41/41
f 40/40/40 32/32/32 41/41/41
f 34/34/34 30/30/30 42/42/42
f 42/42/42 30/30/30 39/39/39
f 41/41/41 34/34/34 42/42/42
f 37/37/37 35/35/35 43/43/43
f 44/44/44 35/35/35 36/36/36
f 35/35/35 44/44/44 43/43/43
f 45/45/45 36/36/36 38/38/38
f 45/45/45 44/44/44 36/36/36
f 46/46/46 38/38/38 40/40/40
f 46/46/46 45/45/45 38/38/38
f 47/47/47 39/39/39 37/37/37
f 43/43/43 47/47/47 37/37/37
f 48/48/48 42/42/42 39/39/39
f 47/47/47 48/48/48 39/39/39
f 49/49/49 40/40/40 41/41/41
f 49/49/49 46/46/46 40/40/40
f 50/50/50 41/41/41 42/42/42
f 48/48/48 50/50/50 42/42/42
f 50/50/50 49/49/49 41/41/41
f 43/43/43 44/44/44 51/51/51
f 44/44/44 52/52/52 51/51/51
f 44/44/44 45/45/45 52/52/52
f 43/43/43 51/51/51 53/53/53
f 47/47/47 43/43/43 53/53/53
f 45/45/45 54/54/54 52/52/52
f 45/45/45 46/46/46 54/54/54
f 47/47/47 53/53/53 55/55/55
f 48/48/48 47/47/47 55/55/55
f 46/46/46 56/56/56 54/54/54
f 46/46/46 49/49/49 56/56/56
f 48/48/48 55/55/55 57/57/57
f 50/50/50 48/48/48 57/57/57
f 49/49/49 58/58/58 56/56/56
f 50/50/50 57/57/57 58/58/58
f 49/49/49 50/50/50 58/58/58
