g Color_01
v 0.09101105 -0.827343 8.495521
v 1.174709 -0.5639839 8.115273
v 1.979828 -0.3055305 6.676182
v 0.09101105 -0.827343 6.677238
v -1.051193 -0.5714951 8.240733
v -1.796009 -0.3531075 6.673649
v -2.104847 -0.4922523 -1.907349E-06
v 0.09081268 -0.8211479 0.03962088
v 2.063194 -0.2906113 0.002363682
v 1.992077 -0.6361046 6.676182
v 2.760822 -0.586647 0.003419399
v 2.074688 -0.6904335 0.002363682
v 2.71093 -0.5122032 6.788577
v 1.187809 -0.8945503 8.115273
v 1.648983 -0.8105698 8.703746
v 0.1041145 -1.157906 8.474009
v 0.101593 -1.07654 9.188414
v -1.029709 -0.9045563 8.236206
v -1.540691 -0.7659035 8.687381
v -1.783764 -0.6836815 6.673649
v -2.516556 -0.5690727 6.793073
v -2.104847 -0.4922523 -1.907349E-06
v -2.72197 -0.5684319 0.003589153
v -1.029709 -0.9045563 8.236206
v -1.051193 -0.5714951 8.240733
v -1.796009 -0.3531075 6.673649
v -1.783764 -0.6836815 6.673649
v -2.104847 -0.4922523 -1.907349E-06
v 0.1041145 -1.157906 8.474009
v -1.051193 -0.5714951 8.240733
v -1.029709 -0.9045563 8.236206
v 0.09101105 -0.827343 8.495521
v 1.187809 -0.8945503 8.115273
v 1.174709 -0.5639839 8.115273
v 1.992077 -0.6361046 6.676182
v 1.979828 -0.3055305 6.676182
v 2.074688 -0.6904335 0.002363682
v 2.063194 -0.2906113 0.002363682
v 2.71093 -0.5122032 6.788577
v 2.748516 0.5589828 0.003419399
v 2.760822 -0.586647 0.003419399
v 2.777367 0.5713272 6.808219
v 1.648983 -0.8105698 8.703746
v 1.700893 0.2677078 8.753052
v 0.101593 -1.07654 9.188414
v 0.09000015 0.002429962 9.284856
v -1.540691 -0.7659035 8.687381
v -1.644619 0.3198166 8.751658
v -2.72197 -0.5684319 0.003589153
v -2.811146 0.5147514 0.003588676
v -2.608963 0.5134583 6.808221
v -2.516556 -0.5690727 6.793073
v -1.644619 0.3198166 8.751658
v -1.540691 -0.7659035 8.687381
vt 0.0110496 0.03856416
vt 0.0121325 0.0384794
vt 0.01320109 0.03789249
vt 0.01103097 0.03789855
vt 0.009962171 0.03848546
vt 0.008860856 0.03790462
vt 0.008790806 0.03540033
vt 0.01096092 0.03539426
vt 0.01313099 0.0353882
vt 0.03532591 0.01127942
vt 0.03589359 0.009846683
vt 0.03537707 0.009842808
vt 0.03584288 0.01127082
vt 0.03529704 0.01209028
vt 0.03597157 0.01204351
vt 0.03528561 0.01241113
vt 0.03609042 0.0123988
vt 0.03527331 0.01275644
vt 0.0361087 0.01277478
vt 0.03525312 0.01332345
vt 0.03604209 0.01335436
vt 0.03492431 0.01516082
vt 0.03582756 0.0151676
vt 0.03664753 0.03655621
vt 0.03611803 0.03655695
vt 0.03609872 0.0369301
vt 0.03662723 0.0369486
vt 0.03629674 0.03822015
vt 0.03665988 0.03631723
vt 0.03611803 0.03655695
vt 0.03664753 0.03655621
vt 0.03613 0.03632535
vt 0.03667137 0.0360952
vt 0.03614113 0.03611032
vt 0.03670038 0.03553405
vt 0.03617087 0.03553528
vt 0.03675181 0.03453984
vt 0.03622249 0.03453711
vt 0.06055214 0.03552089
vt 0.06155704 0.03454026
vt 0.06060311 0.03453533
vt 0.06150699 0.03550831
vt 0.06068149 0.03605563
vt 0.06148338 0.03596475
vt 0.06080094 0.0363015
vt 0.0614673 0.03627558
vt 0.06081933 0.03656169
vt 0.06145032 0.03660371
vt 0.06053674 0.03821764
vt 0.06136663 0.03822192
vt 0.06142871 0.03702163
vt 0.06075238 0.03696279
vt 0.06145032 0.03660371
vt 0.06081933 0.03656169
vn -0.0005732203 -0.9999148 -0.01304329
vn 0.2536756 -0.9671874 -0.01404012
vn 0.2592869 -0.9657847 -0.005495417
vn 0.02317451 -0.9997273 -0.002846467
vn -0.2333717 -0.972321 -0.01137954
vn -0.2096003 -0.9777797 0.003823631
vn -0.1931433 -0.9810666 0.0142827
vn 0.03588488 -0.9993286 0.007391863
vn 0.2629545 -0.9648082 0.0001125432
vn 0.1820264 -0.9830602 -0.02142378
vn 0.1590937 -0.987202 0.01101162
vn 0.1590937 -0.987202 0.01101162
vn 0.1788796 -0.9837249 -0.01695062
vn 0.2073045 -0.9782763 -0.0005231847
vn 0.2073256 -0.978272 -0.0003165437
vn 0.002756452 -0.997626 0.06880898
vn -0.005654923 -0.9975637 0.06953276
vn -0.2142704 -0.9759145 0.04097451
vn -0.2124669 -0.976763 0.02813773
vn -0.1232157 -0.9922783 -0.01419292
vn -0.1119644 -0.9936126 -0.0140674
vn -0.0296467 -0.9994746 -0.01309949
vn -0.02964669 -0.9994746 -0.01309949
vn 0.903477 0.04882457 -0.425847
vn 0.903477 0.04882457 -0.425847
vn 0.9714692 0.04349466 -0.2331438
vn 0.9669033 0.04406192 -0.2513097
vn 0.9982119 0.03697593 -0.04696539
vn -0.06189056 0.03471024 -0.9974793
vn 0.2218907 0.04977463 -0.9738003
vn 0.2218907 0.04977462 -0.9738003
vn -0.04856844 0.03548719 -0.9981893
vn -0.6096674 -0.005521005 -0.7926382
vn -0.6696306 -0.01116999 -0.7426104
vn -0.962203 -0.03399983 -0.2702025
vn -0.9679002 -0.0339612 -0.2490301
vn -0.9993961 -0.03248694 -0.01233154
vn -0.9993961 -0.03248694 -0.01233154
vn 0.9657713 -0.04585639 0.2553097
vn 0.9997035 -0.02429074 0.001703006
vn 0.9997035 -0.02429074 0.001703006
vn 0.9707936 -0.04425554 0.2357992
vn 0.6113886 -0.07176729 0.7880693
vn 0.6705381 -0.0710659 0.7384636
vn 0.009439765 -0.0822631 0.996566
vn 0.001315081 -0.08248379 0.9965916
vn -0.3064482 -0.08673382 0.9479275
vn -0.3064482 -0.08673382 0.9479275
vn -0.9960419 -0.08372152 0.02985273
vn -0.9960419 -0.08372153 0.02985272
vn -0.9678963 -0.09220657 0.2338263
vn -0.9643471 -0.09265888 0.2478891
vn -0.892167 -0.09694657 0.4411796
vn -0.892167 -0.09694659 0.4411796
g Color_01_0
f 3/3/3 2/2/2 1/1/1
f 4/4/4 3/3/3 1/1/1
f 4/4/4 1/1/1 5/5/5
f 6/6/6 4/4/4 5/5/5
f 4/4/4 6/6/6 7/7/7
f 8/8/8 4/4/4 7/7/7
f 3/3/3 4/4/4 8/8/8
f 9/9/9 3/3/3 8/8/8
f 12/12/12 11/11/11 10/10/10
f 11/11/11 13/13/13 10/10/10
f 10/10/10 13/13/13 14/14/14
f 13/13/13 15/15/15 14/14/14
f 14/14/14 15/15/15 16/16/16
f 15/15/15 17/17/17 16/16/16
f 16/16/16 17/17/17 18/18/18
f 17/17/17 19/19/19 18/18/18
f 18/18/18 19/19/19 20/20/20
f 19/19/19 21/21/21 20/20/20
f 20/20/20 21/21/21 22/22/22
f 21/21/21 23/23/23 22/22/22
f 26/26/26 25/25/25 24/24/24
f 27/27/27 26/26/26 24/24/24
f 28/28/28 26/26/26 27/27/27
f 31/31/31 30/30/30 29/29/29
f 30/30/30 32/32/32 29/29/29
f 29/29/29 32/32/32 33/33/33
f 32/32/32 34/34/34 33/33/33
f 33/33/33 34/34/34 35/35/35
f 34/34/34 36/36/36 35/35/35
f 35/35/35 36/36/36 37/37/37
f 36/36/36 38/38/38 37/37/37
f 41/41/41 40/40/40 39/39/39
f 40/40/40 42/42/42 39/39/39
f 39/39/39 42/42/42 43/43/43
f 42/42/42 44/44/44 43/43/43
f 43/43/43 44/44/44 45/45/45
f 44/44/44 46/46/46 45/45/45
f 45/45/45 46/46/46 47/47/47
f 46/46/46 48/48/48 47/47/47
f 51/51/51 50/50/50 49/49/49
f 52/52/52 51/51/51 49/49/49
f 53/53/53 51/51/51 52/52/52
f 54/54/54 53/53/53 52/52/52
