g Color_Boss_57
v -0.5372592 0.1612885 -0.2179699
v -0.2791185 0.4505512 -0.07272723
v -0.2194234 0.4228755 -0.1101971
v -0.4684722 0.149122 -0.2478504
v -0.4777895 -0.1774814 -0.2122937
v -0.4140895 -0.1648791 -0.2449007
v -0.1754268 -0.3769257 -0.027917
v -0.1251737 -0.3559516 -0.07061109
v -0.1863145 0.4565126 -0.1661224
v -0.4516278 0.1594979 -0.3139153
v -0.3911675 -0.1735752 -0.3100643
v 0.3274902 0.3464247 0.1399488
v 0.2710427 0.3233105 0.1781282
v -0.0947684 -0.3825156 -0.1278
v 0.1036704 -0.46474 0.1614217
v 0.1525213 -0.4984753 0.1213998
v -0.188205 0.5275823 -0.2055416
v 0.3838604 0.4020339 0.1479177
v -0.4938815 0.1827147 -0.377883
v -0.4275219 -0.1993921 -0.3714743
v -0.1024389 -0.4412729 -0.1661111
v 0.5791607 0.07470149 0.2622404
v 0.5067608 0.05527038 0.240653
v 0.1842719 -0.5724165 0.1192932
v 0.3543075 -0.2922042 0.2464933
v 0.4160213 -0.3195265 0.2707281
v -0.5605187 0.2096812 -0.3977432
v -0.4916844 -0.2239983 -0.38902
v -0.1434161 -0.4977462 -0.1631013
v -0.2186299 0.5993826 -0.2023153
v 0.1805868 -0.6438767 0.1564302
v 0.4410604 -0.3392365 0.333825
v 0.1209079 -0.6315967 0.2189302
v 0.3786039 -0.326576 0.3952674
v 0.6126384 0.09539096 0.3228081
v 0.3946877 0.4602386 0.1940174
v 0.5551903 0.09083193 0.3881587
v 0.2935356 -0.2966016 0.4048766
v 0.467537 0.07022493 0.401616
v 0.3367081 0.4531342 0.2601108
v -0.2810475 0.5900652 -0.1358223
v 0.2666644 0.4013659 0.2889041
v -0.5605187 0.2096812 -0.3977432
v -0.2186299 0.5993826 -0.2023153
v -0.2810475 0.5900652 -0.1358223
v -0.6126384 0.211209 -0.3265228
v -0.4916844 -0.2239983 -0.38902
v -0.5397601 -0.2221134 -0.3156643
v -0.1434161 -0.4977462 -0.1631013
v -0.6079602 0.1897466 -0.2385779
v -0.1971594 -0.489454 -0.09269053
v 0.1805868 -0.6438767 0.1564302
v 0.1209079 -0.6315967 0.2189302
v -0.540599 -0.2018883 -0.229353
v -0.2162073 -0.4333322 -0.02483377
v 0.06373996 -0.5668457 0.2542886
v 0.3786039 -0.326576 0.3952674
v 0.2935356 -0.2966016 0.4048766
v -0.4777895 -0.1774814 -0.2122937
v -0.5372592 0.1612885 -0.2179699
v -0.1754268 -0.3769257 -0.027917
v -0.2791185 0.4505512 -0.07272723
v 0.0671098 -0.4942715 0.2168226
v -0.1251737 -0.3559516 -0.07061109
v 0.1036704 -0.46474 0.1614217
v 0.2642016 -0.2741478 0.3403023
v 0.467537 0.07022493 0.401616
v 0.2885517 -0.2709172 0.2742032
v 0.1525213 -0.4984753 0.1213998
v 0.3543075 -0.2922042 0.2464933
v 0.4281709 0.05335587 0.338991
v 0.2666644 0.4013659 0.2889041
v 0.4426666 0.04860133 0.2716598
v 0.5067608 0.05527038 0.240653
v 0.2481742 0.3453719 0.2404708
v 0.2710427 0.3233105 0.1781282
v 0.3274902 0.3464247 0.1399488
v -0.2194234 0.4228755 -0.1101971
v -0.316758 0.524214 -0.07113841
v 0.3367081 0.4531342 0.2601108
v -0.03048083 0.6722566 0.2433481
v -0.09862531 0.6922795 0.1370945
v 0.3803159 0.4683906 -0.2205191
v 0.4578351 0.4534356 -0.1236
v 0.5907205 -0.02687337 -0.335206
v 0.5178446 0.009172179 -0.4329948
v 0.2502131 -0.43418 -0.4585886
v 0.3384309 -0.465451 -0.3632279
v -0.09757341 -0.6865703 -0.1794892
v 0.01361266 -0.6922795 -0.09993654
v 0.4319299 0.4017035 -0.07763103
v 0.5500307 -0.04215696 -0.2749977
v 0.3244159 -0.4351332 -0.2993365
v 0.03404126 -0.6278273 -0.07116994
v -0.01959209 0.5902768 0.2474489
v -0.4778786 0.3452956 0.3601626
v -0.2212775 -0.5405829 0.328472
v -0.2739967 -0.5923879 0.3472928
v -0.4108991 0.3101222 0.3447455
v -0.4855998 -0.1266497 0.4585875
v -0.4165198 -0.1255081 0.4408845
v 0.4731219 -0.04059007 -0.2535591
v 0.3656553 0.3577692 -0.0691624
v 0.2752112 -0.392235 -0.2752333
v -0.03449638 0.5170504 0.2060861
v -0.3714451 0.2790252 0.2858734
v -0.06739587 0.4963323 0.1435298
v -0.3755394 -0.1262257 0.3785542
v -0.3857867 0.2760088 0.215413
v -0.1046305 0.5383641 0.1000108
v -0.4567226 0.2956015 0.1827917
v -0.387422 -0.1281951 0.3083676
v -0.4581116 -0.1365617 0.2795429
v -0.2081808 -0.4828126 0.2740211
v -0.2431886 -0.4529202 0.2160491
v -0.3063578 -0.4678266 0.188569
v 0.009846879 -0.5618555 -0.075533
v -0.04440459 -0.5333673 -0.1106463
v 0.2215635 -0.3635685 -0.3053894
v -0.4778786 0.3452956 0.3601626
v -0.09862531 0.6922795 0.1370945
v -0.03048083 0.6722566 0.2433481
v -0.5572689 0.3591491 0.2567415
v -0.4855998 -0.1266497 0.4585875
v -0.5651994 -0.1365774 0.3582
v -0.2739967 -0.5923879 0.3472928
v -0.3718471 -0.5765512 0.2614126
v 0.01361266 -0.6922795 -0.09993654
v -0.09757341 -0.6865703 -0.1794892
v -0.5252829 0.3301174 0.1990861
v -0.530144 -0.1399796 0.2997016
v -0.3598303 -0.5187437 0.2073793
v -0.1213498 -0.6208608 -0.1839257
v -0.1165186 0.6191117 0.09727567
v 0.3803159 0.4683906 -0.2205191
v 0.2032926 -0.393192 -0.4347554
v 0.2502131 -0.43418 -0.4585886
v 0.3253195 0.422403 -0.2155705
v 0.5178446 0.009172179 -0.4329948
v 0.4519228 0.007178999 -0.4145241
v -0.4581116 -0.1365617 0.2795429
v -0.4567226 0.2956015 0.1827917
v -0.3063578 -0.4678266 0.188569
v -0.1046305 0.5383641 0.1000108
v 0.2984774 0.3712408 -0.169426
v -0.06739587 0.4963323 0.1435298
v 0.413211 -0.008130336 -0.3550291
v 0.3105564 0.3459894 -0.1075144
v -0.03449638 0.5170504 0.2060861
v 0.3656553 0.3577692 -0.0691624
v 0.4198221 -0.02579572 -0.2881794
v 0.4731219 -0.04059007 -0.2535591
v 0.193419 -0.3651235 -0.3717108
v -0.0979166 -0.5582873 -0.1556988
v 0.2215635 -0.3635685 -0.3053894
v 0.2752112 -0.392235 -0.2752333
v -0.04440459 -0.5333673 -0.1106463
v -0.2431886 -0.4529202 0.2160491
vt 0.5123963 0.0969597
vt 0.5124263 0.09697857
vt 0.5124235 0.09697369
vt 0.512395 0.09695583
vt 0.5123612 0.09696045
vt 0.5123625 0.0969562
vt 0.5123405 0.09698438
vt 0.5123427 0.09697885
vt 0.5124269 0.09696645
vt 0.5123961 0.09694725
vt 0.5123616 0.09694775
vt 0.5124155 0.09700619
vt 0.5124131 0.09701116
vt 0.5123399 0.09697141
vt 0.5123314 0.09700898
vt 0.5123279 0.09700378
vt 0.5124343 0.09696131
vt 0.5124213 0.09700722
vt 0.5123985 0.09693893
vt 0.5123589 0.09693978
vt 0.5123339 0.09696645
vt 0.5123873 0.09702208
vt 0.5123853 0.09701928
vt 0.5123203 0.09700351
vt 0.5123493 0.09702002
vt 0.5123464 0.09702318
vt 0.5124013 0.09693637
vt 0.5123564 0.0969375
vt 0.512328 0.09696684
vt 0.5124418 0.09696173
vt 0.5123128 0.09700833
vt 0.5123444 0.09703136
vt 0.5123141 0.09701645
vt 0.5123457 0.09703935
vt 0.5123895 0.09702995
vt 0.5124273 0.09701321
vt 0.512389 0.09703843
vt 0.5123488 0.0970406
vt 0.5123869 0.09704017
vt 0.5124266 0.0970218
vt 0.5124408 0.09697037
vt 0.5124212 0.09702554
vt 0.5124013 0.09693637
vt 0.5124418 0.09696173
vt 0.5124408 0.09697037
vt 0.5124015 0.09694562
vt 0.5123564 0.0969375
vt 0.5123565 0.09694702
vt 0.512328 0.09696684
vt 0.5123993 0.09695704
vt 0.5123289 0.09697597
vt 0.5123128 0.09700833
vt 0.5123141 0.09701645
vt 0.5123587 0.09695823
vt 0.5123347 0.09698478
vt 0.5123208 0.09702105
vt 0.5123457 0.09703935
vt 0.5123488 0.0970406
vt 0.5123612 0.09696045
vt 0.5123963 0.0969597
vt 0.5123405 0.09698438
vt 0.5124263 0.09697857
vt 0.5123284 0.09701618
vt 0.5123427 0.09697885
vt 0.5123314 0.09700898
vt 0.5123512 0.09703221
vt 0.5123869 0.09704017
vt 0.5123515 0.09702363
vt 0.5123279 0.09700378
vt 0.5123493 0.09702002
vt 0.5123851 0.09703205
vt 0.5124212 0.09702554
vt 0.5123847 0.0970233
vt 0.5123853 0.09701928
vt 0.5124154 0.09701925
vt 0.5124131 0.09701116
vt 0.5124155 0.09700619
vt 0.5124235 0.09697369
vt 0.5124339 0.09697878
vt 0.5124266 0.0970218
vt 0.512447 0.09702009
vt 0.5124491 0.09700629
vt 0.5124259 0.09695984
vt 0.5124243 0.09697244
vt 0.5123745 0.09694496
vt 0.5123783 0.09693225
vt 0.5123323 0.09692892
vt 0.5123291 0.09694131
vt 0.5123062 0.09696518
vt 0.5123056 0.09697551
vt 0.512419 0.0969784
vt 0.512373 0.09695277
vt 0.5123322 0.09694961
vt 0.5123122 0.09697925
vt 0.5124385 0.09702063
vt 0.5124131 0.09703526
vt 0.5123213 0.09703115
vt 0.5123159 0.09703359
vt 0.5124094 0.09703326
vt 0.5123642 0.09704804
vt 0.5123643 0.09704575
vt 0.5123731 0.09695555
vt 0.5124144 0.09697951
vt 0.5123367 0.09695274
vt 0.5124309 0.09701525
vt 0.5124062 0.09702562
vt 0.5124288 0.09700713
vt 0.5123643 0.09703766
vt 0.5124059 0.09701645
vt 0.5124332 0.09700148
vt 0.512408 0.09701222
vt 0.512364 0.09702854
vt 0.5123632 0.0970248
vt 0.5123273 0.09702408
vt 0.5123304 0.09701654
vt 0.5123288 0.09701298
vt 0.5123191 0.09697868
vt 0.5123221 0.09697412
vt 0.5123396 0.09694883
vt 0.5124131 0.09703526
vt 0.5124491 0.09700629
vt 0.512447 0.09702009
vt 0.5124146 0.09702183
vt 0.5123642 0.09704804
vt 0.5123632 0.09703501
vt 0.5123159 0.09703359
vt 0.5123175 0.09702243
vt 0.5123056 0.09697551
vt 0.5123062 0.09696518
vt 0.5124116 0.09701434
vt 0.5123628 0.09702741
vt 0.5123235 0.09701541
vt 0.5123129 0.0969646
vt 0.5124415 0.09700112
vt 0.5124259 0.09695984
vt 0.5123366 0.09693201
vt 0.5123323 0.09692892
vt 0.5124211 0.09696048
vt 0.5123783 0.09693225
vt 0.5123781 0.09693465
vt 0.5123632 0.0970248
vt 0.512408 0.09701222
vt 0.5123288 0.09701298
vt 0.5124332 0.09700148
vt 0.5124158 0.09696648
vt 0.5124288 0.09700713
vt 0.5123765 0.09694238
vt 0.5124132 0.09697452
vt 0.5124309 0.09701525
vt 0.5124144 0.09697951
vt 0.5123746 0.09695105
vt 0.5123731 0.09695555
vt 0.5123395 0.09694022
vt 0.5123194 0.09696826
vt 0.5123396 0.09694883
vt 0.5123367 0.09695274
vt 0.5123221 0.09697412
vt 0.5123304 0.09701654
vn -0.0677668 -0.1707251 0.9829856
vn -0.2878723 -0.5115011 0.8096272
vn 0.2117735 -0.9636644 0.1627972
vn 0.6950983 -0.3112028 0.6480672
vn -0.06787617 0.2793961 0.9577738
vn 0.6158757 0.5786303 0.5346814
vn -0.2020206 0.6573159 0.7260326
vn 0.3442739 0.9100165 0.2309662
vn 0.5497634 -0.5990778 -0.582122
vn 0.9347211 -0.1956351 -0.2966872
vn 0.8500465 0.4221223 -0.3150139
vn 0.1631466 -0.481593 -0.8610757
vn -0.3976098 -0.8513581 -0.3421929
vn 0.6824531 0.6206447 -0.38608
vn -0.1157735 0.9798254 -0.1629066
vn 0.4686872 0.510738 -0.720749
vn 0.5239496 0.0492969 -0.8503215
vn 0.5952902 0.1127966 -0.7955542
vn 0.5066479 0.0292678 -0.8616561
vn 0.5216703 -0.0007552227 -0.8531469
vn 0.618833 -0.03007551 -0.7849465
vn 0.7012849 -0.09531888 -0.7064799
vn 0.06415267 -0.1767259 -0.9821672
vn 0.664292 -0.1947748 -0.7216502
vn 0.07130639 0.2014611 -0.9768976
vn 0.66448 -0.2364387 -0.7089167
vn -0.3801556 0.2720262 -0.8840155
vn -0.3027402 -0.4372769 -0.8468395
vn 0.03339709 -0.773887 -0.6324425
vn 0.09887031 0.8355586 -0.5404317
vn 0.4194993 -0.8955385 -0.1484284
vn 0.8342269 -0.5215173 0.1791228
vn -0.1355479 -0.8669086 0.4796835
vn 0.3396077 -0.4020583 0.8503034
vn 0.9823121 0.1258251 0.1386752
vn 0.6560997 0.7496046 -0.08732808
vn 0.4915018 0.1673075 0.8546544
vn -0.407581 0.01445322 0.9130547
vn -0.2684654 0.1257604 0.9550449
vn 0.1699159 0.754878 0.6334728
vn -0.4320216 0.8931859 0.1248054
vn -0.3830681 0.2568595 0.8872891
vn -0.3801556 0.2720262 -0.8840155
vn 0.09887031 0.8355586 -0.5404317
vn -0.4320216 0.8931859 0.1248054
vn -0.9199273 0.3012802 -0.2509264
vn -0.3027402 -0.4372769 -0.8468395
vn -0.8352177 -0.5129825 -0.1981426
vn 0.03339709 -0.773887 -0.6324425
vn -0.8408844 0.1118464 0.5295315
vn -0.5426123 -0.8395135 0.02809019
vn 0.4194993 -0.8955385 -0.1484284
vn -0.1355479 -0.8669086 0.4796835
vn -0.7788279 -0.283743 0.5593899
vn -0.6974086 -0.2520023 0.670907
vn -0.5719915 -0.3033919 0.7620886
vn 0.3396077 -0.4020583 0.8503034
vn -0.407581 0.01445322 0.9130547
vn -0.06787617 0.2793961 0.9577738
vn -0.0677668 -0.1707251 0.9829856
vn -0.2020206 0.6573159 0.7260326
vn -0.2878723 -0.5115011 0.8096272
vn -0.6031512 0.6137653 0.5094121
vn 0.3442739 0.9100165 0.2309662
vn -0.1157735 0.9798254 -0.1629066
vn -0.8402241 0.5019186 0.2051859
vn -0.2684654 0.1257604 0.9550449
vn -0.5979775 0.5585988 -0.5747959
vn 0.4686872 0.510738 -0.720749
vn 0.07130639 0.2014611 -0.9768976
vn -0.9702837 0.02585963 0.2405846
vn -0.3830681 0.2568595 0.8872891
vn -0.717002 -0.1421456 -0.6824244
vn 0.06415267 -0.1767259 -0.9821672
vn -0.6877525 -0.5647326 0.4561507
vn -0.3976098 -0.8513581 -0.3421929
vn 0.1631466 -0.481593 -0.8610757
vn 0.2117735 -0.9636644 0.1627972
vn -0.610307 0.3872992 0.6910316
vn 0.1699159 0.754878 0.6334728
vn 0.2318211 0.7445285 0.6260483
vn -0.2844776 0.9319226 -0.2249284
vn 0.2255945 0.712162 -0.6647798
vn 0.8272199 0.5385672 0.1601642
vn 0.9860423 -0.102037 -0.1315636
vn 0.3875681 0.1767807 -0.9047318
vn 0.06566629 -0.3981694 -0.9149585
vn 0.7123396 -0.6767639 -0.1859108
vn -0.4001818 -0.77099 -0.4954078
vn 0.3869505 -0.9136761 0.1243586
vn 0.6249551 -0.09162655 0.7752649
vn 0.6654723 -0.2807028 0.6916304
vn 0.6601717 -0.3356089 0.6719673
vn 0.7552299 -0.2156226 0.6189787
vn 0.4618843 -0.09843578 0.8814609
vn -0.3494822 0.4045092 0.8451239
vn 0.6953285 -0.1008577 0.7115799
vn 0.01324899 -0.6862432 0.7272515
vn 0.4573936 -0.0008960011 0.8892639
vn -0.3126956 -0.06346726 0.9477307
vn 0.5558898 0.0988219 0.825361
vn -0.03272815 -0.2433612 0.9693834
vn 0.08059362 -0.581714 0.8093909
vn 0.1330291 0.2426347 0.9609535
vn 0.3977539 -0.7143319 0.5757793
vn 0.8749908 -0.3706878 0.3114185
vn 0.05387622 -0.9771267 -0.2057201
vn 0.9492526 0.2085522 0.2354261
vn 0.5858063 -0.5073543 -0.6319988
vn -0.3325022 -0.4082736 -0.8501499
vn -0.05236146 -0.2228845 -0.9734377
vn 0.7546211 0.18218 -0.630363
vn -0.02424289 0.008604929 -0.9996691
vn 0.8371261 0.4561418 0.3019184
vn 0.4823912 0.800153 -0.3564463
vn -0.2767431 0.5405023 -0.7945253
vn 0.5414068 0.5855848 0.6032985
vn -0.05737852 0.9891565 0.1351929
vn -0.505458 0.6772037 0.5347031
vn -0.3494822 0.4045092 0.8451239
vn -0.2844776 0.9319226 -0.2249284
vn 0.2318211 0.7445285 0.6260483
vn -0.8917691 0.4520119 -0.02081022
vn -0.3126956 -0.06346726 0.9477307
vn -0.9699804 -0.1877734 0.1545288
vn 0.01324899 -0.6862432 0.7272515
vn -0.7364534 -0.6726994 0.07149709
vn 0.3869505 -0.9136761 0.1243586
vn -0.4001818 -0.77099 -0.4954078
vn -0.5975641 0.1067506 -0.7946832
vn -0.6780316 -0.1480594 -0.7199664
vn -0.7775 -0.07396284 -0.6245183
vn -0.7626671 0.05855872 -0.6441349
vn -0.4789466 0.3021587 -0.8242028
vn 0.2255945 0.712162 -0.6647798
vn -0.5998431 0.232011 -0.765741
vn 0.06566629 -0.3981694 -0.9149585
vn -0.5305815 0.2167884 -0.8194426
vn 0.3875681 0.1767807 -0.9047318
vn -0.5259315 0.2793759 -0.8033338
vn -0.02424289 0.008604929 -0.9996691
vn -0.05236146 -0.2228845 -0.9734377
vn -0.2767431 0.5405023 -0.7945253
vn -0.3325022 -0.4082736 -0.8501499
vn -0.8236194 -0.3318499 -0.4599203
vn 0.05387622 -0.9771267 -0.2057201
vn -0.9533814 0.2140424 -0.2127199
vn -0.5909834 -0.7626614 0.2628426
vn 0.3977539 -0.7143319 0.5757793
vn 0.08059362 -0.581714 0.8093909
vn -0.8140436 -0.02903158 0.5800776
vn -0.03272815 -0.2433612 0.9693834
vn -0.7554113 0.634186 -0.1648089
vn -0.5758622 0.7319179 -0.3642512
vn -0.505458 0.6772037 0.5347031
vn 0.1330291 0.2426347 0.9609535
vn -0.05737852 0.9891565 0.1351929
vn 0.4823912 0.800153 -0.3564463
g Color_Boss_57_0
f 3/3/3 2/2/2 1/1/1
f 4/4/4 3/3/3 1/1/1
f 4/4/4 1/1/1 5/5/5
f 6/6/6 4/4/4 5/5/5
f 6/6/6 5/5/5 7/7/7
f 8/8/8 6/6/6 7/7/7
f 9/9/9 3/3/3 4/4/4
f 10/10/10 4/4/4 6/6/6
f 10/10/10 9/9/9 4/4/4
f 11/11/11 6/6/6 8/8/8
f 11/11/11 10/10/10 6/6/6
f 9/9/9 12/12/12 3/3/3
f 12/12/12 13/13/13 3/3/3
f 14/14/14 11/11/11 8/8/8
f 14/14/14 8/8/8 15/15/15
f 16/16/16 14/14/14 15/15/15
f 17/17/17 9/9/9 10/10/10
f 18/18/18 12/12/12 9/9/9
f 17/17/17 18/18/18 9/9/9
f 19/19/19 10/10/10 11/11/11
f 19/19/19 17/17/17 10/10/10
f 20/20/20 11/11/11 14/14/14
f 20/20/20 19/19/19 11/11/11
f 21/21/21 14/14/14 16/16/16
f 21/21/21 20/20/20 14/14/14
f 18/18/18 22/22/22 12/12/12
f 22/22/22 23/23/23 12/12/12
f 24/24/24 21/21/21 16/16/16
f 24/24/24 16/16/16 25/25/25
f 26/26/26 25/25/25 23/23/23
f 22/22/22 26/26/26 23/23/23
f 26/26/26 24/24/24 25/25/25
f 27/27/27 19/19/19 20/20/20
f 28/28/28 27/27/27 20/20/20
f 28/28/28 20/20/20 21/21/21
f 29/29/29 28/28/28 21/21/21
f 29/29/29 21/21/21 24/24/24
f 27/27/27 30/30/30 19/19/19
f 31/31/31 29/29/29 24/24/24
f 31/31/31 24/24/24 26/26/26
f 30/30/30 17/17/17 19/19/19
f 32/32/32 31/31/31 26/26/26
f 32/32/32 26/26/26 22/22/22
f 33/33/33 31/31/31 32/32/32
f 34/34/34 33/33/33 32/32/32
f 35/35/35 32/32/32 22/22/22
f 34/34/34 32/32/32 35/35/35
f 35/35/35 22/22/22 18/18/18
f 36/36/36 18/18/18 17/17/17
f 30/30/30 36/36/36 17/17/17
f 36/36/36 35/35/35 18/18/18
f 37/37/37 34/34/34 35/35/35
f 37/37/37 35/35/35 36/36/36
f 34/34/34 37/37/37 38/38/38
f 37/37/37 39/39/39 38/38/38
f 40/40/40 36/36/36 30/30/30
f 40/40/40 37/37/37 36/36/36
f 37/37/37 40/40/40 39/39/39
f 41/41/41 40/40/40 30/30/30
f 40/40/40 42/42/42 39/39/39
f 45/45/45 44/44/44 43/43/43
f 46/46/46 45/45/45 43/43/43
f 46/46/46 43/43/43 47/47/47
f 48/48/48 46/46/46 47/47/47
f 48/48/48 47/47/47 49/49/49
f 46/46/46 50/50/50 45/45/45
f 46/46/46 48/48/48 50/50/50
f 51/51/51 48/48/48 49/49/49
f 51/51/51 49/49/49 52/52/52
f 53/53/53 51/51/51 52/52/52
f 48/48/48 51/51/51 54/54/54
f 48/48/48 54/54/54 50/50/50
f 51/51/51 53/53/53 55/55/55
f 51/51/51 55/55/55 54/54/54
f 53/53/53 56/56/56 55/55/55
f 53/53/53 57/57/57 56/56/56
f 57/57/57 58/58/58 56/56/56
f 59/59/59 54/54/54 55/55/55
f 59/59/59 60/60/60 54/54/54
f 60/60/60 50/50/50 54/54/54
f 61/61/61 59/59/59 55/55/55
f 61/61/61 55/55/55 56/56/56
f 60/60/60 62/62/62 50/50/50
f 63/63/63 61/61/61 56/56/56
f 63/63/63 56/56/56 58/58/58
f 64/64/64 61/61/61 63/63/63
f 65/65/65 64/64/64 63/63/63
f 66/66/66 63/63/63 58/58/58
f 65/65/65 63/63/63 66/66/66
f 66/66/66 58/58/58 67/67/67
f 68/68/68 65/65/65 66/66/66
f 69/69/69 65/65/65 68/68/68
f 70/70/70 69/69/69 68/68/68
f 71/71/71 66/66/66 67/67/67
f 68/68/68 66/66/66 71/71/71
f 71/71/71 67/67/67 72/72/72
f 70/70/70 68/68/68 73/73/73
f 73/73/73 68/68/68 71/71/71
f 74/74/74 70/70/70 73/73/73
f 73/73/73 71/71/71 75/75/75
f 75/75/75 71/71/71 72/72/72
f 74/74/74 73/73/73 76/76/76
f 76/76/76 73/73/73 75/75/75
f 77/77/77 74/74/74 76/76/76
f 76/76/76 75/75/75 62/62/62
f 78/78/78 76/76/76 62/62/62
f 62/62/62 75/75/75 79/79/79
f 75/75/75 72/72/72 79/79/79
f 62/62/62 79/79/79 50/50/50
f 50/50/50 79/79/79 45/45/45
f 45/45/45 79/79/79 72/72/72
f 80/80/80 45/45/45 72/72/72
f 83/83/83 82/82/82 81/81/81
f 84/84/84 83/83/83 81/81/81
f 84/84/84 85/85/85 83/83/83
f 85/85/85 86/86/86 83/83/83
f 87/87/87 86/86/86 85/85/85
f 88/88/88 87/87/87 85/85/85
f 89/89/89 87/87/87 88/88/88
f 90/90/90 89/89/89 88/88/88
f 91/91/91 84/84/84 81/81/81
f 92/92/92 85/85/85 84/84/84
f 91/91/91 92/92/92 84/84/84
f 93/93/93 88/88/88 85/85/85
f 92/92/92 93/93/93 85/85/85
f 94/94/94 90/90/90 88/88/88
f 93/93/93 94/94/94 88/88/88
f 95/95/95 91/91/91 81/81/81
f 95/95/95 81/81/81 96/96/96
f 94/94/94 97/97/97 90/90/90
f 97/97/97 98/98/98 90/90/90
f 99/99/99 95/95/95 96/96/96
f 99/99/99 96/96/96 100/100/100
f 101/101/101 100/100/100 98/98/98
f 97/97/97 101/101/101 98/98/98
f 101/101/101 99/99/99 100/100/100
f 102/102/102 92/92/92 91/91/91
f 103/103/103 102/102/102 91/91/91
f 103/103/103 91/91/91 95/95/95
f 102/102/102 104/104/104 92/92/92
f 104/104/104 93/93/93 92/92/92
f 105/105/105 103/103/103 95/95/95
f 105/105/105 95/95/95 99/99/99
f 106/106/106 105/105/105 99/99/99
f 106/106/106 99/99/99 101/101/101
f 107/107/107 105/105/105 106/106/106
f 108/108/108 101/101/101 97/97/97
f 108/108/108 106/106/106 101/101/101
f 109/109/109 107/107/107 106/106/106
f 109/109/109 106/106/106 108/108/108
f 110/110/110 107/107/107 109/109/109
f 111/111/111 110/110/110 109/109/109
f 111/111/111 109/109/109 112/112/112
f 112/112/112 109/109/109 108/108/108
f 113/113/113 111/111/111 112/112/112
f 114/114/114 108/108/108 97/97/97
f 112/112/112 108/108/108 114/114/114
f 114/114/114 97/97/97 94/94/94
f 113/113/113 112/112/112 115/115/115
f 115/115/115 112/112/112 114/114/114
f 116/116/116 113/113/113 115/115/115
f 117/117/117 114/114/114 94/94/94
f 115/115/115 114/114/114 117/117/117
f 117/117/117 94/94/94 93/93/93
f 118/118/118 115/115/115 117/117/117
f 104/104/104 117/117/117 93/93/93
f 118/118/118 117/117/117 104/104/104
f 119/119/119 118/118/118 104/104/104
f 122/122/122 121/121/121 120/120/120
f 121/121/121 123/123/123 120/120/120
f 120/120/120 123/123/123 124/124/124
f 123/123/123 125/125/125 124/124/124
f 124/124/124 125/125/125 126/126/126
f 125/125/125 127/127/127 126/126/126
f 126/126/126 127/127/127 128/128/128
f 127/127/127 129/129/129 128/128/128
f 123/123/123 121/121/121 130/130/130
f 125/125/125 123/123/123 131/131/131
f 123/123/123 130/130/130 131/131/131
f 127/127/127 125/125/125 132/132/132
f 125/125/125 131/131/131 132/132/132
f 129/129/129 127/127/127 133/133/133
f 127/127/127 132/132/132 133/133/133
f 121/121/121 134/134/134 130/130/130
f 121/121/121 135/135/135 134/134/134
f 129/129/129 133/133/133 136/136/136
f 137/137/137 129/129/129 136/136/136
f 135/135/135 138/138/138 134/134/134
f 135/135/135 139/139/139 138/138/138
f 139/139/139 137/137/137 140/140/140
f 137/137/137 136/136/136 140/140/140
f 139/139/139 140/140/140 138/138/138
f 131/131/131 130/130/130 141/141/141
f 130/130/130 142/142/142 141/141/141
f 130/130/130 134/134/134 142/142/142
f 131/131/131 141/141/141 143/143/143
f 134/134/134 144/144/144 142/142/142
f 134/134/134 138/138/138 144/144/144
f 132/132/132 131/131/131 143/143/143
f 138/138/138 145/145/145 144/144/144
f 138/138/138 140/140/140 145/145/145
f 144/144/144 145/145/145 146/146/146
f 140/140/140 136/136/136 147/147/147
f 140/140/140 147/147/147 145/145/145
f 145/145/145 148/148/148 146/146/146
f 145/145/145 147/147/147 148/148/148
f 146/146/146 148/148/148 149/149/149
f 148/148/148 150/150/150 149/149/149
f 148/148/148 151/151/151 150/150/150
f 147/147/147 151/151/151 148/148/148
f 151/151/151 152/152/152 150/150/150
f 136/136/136 153/153/153 147/147/147
f 147/147/147 153/153/153 151/151/151
f 136/136/136 133/133/133 153/153/153
f 133/133/133 132/132/132 154/154/154
f 133/133/133 154/154/154 153/153/153
f 132/132/132 143/143/143 154/154/154
f 151/151/151 155/155/155 152/152/152
f 153/153/153 155/155/155 151/151/151
f 153/153/153 154/154/154 155/155/155
f 155/155/155 156/156/156 152/152/152
f 154/154/154 157/157/157 155/155/155
f 154/154/154 143/143/143 157/157/157
f 143/143/143 158/158/158 157/157/157
