g Color_03
v 6.233697 -2.099978 13.33846
v 5.06022 -5.045386 10.28311
v 4.978779 -4.897951 13.07712
v 0.241666 -9.341141 5.586185
v -2.814391 -10.21603 3.214141
v -2.819282 -10.1894 5.558789
v -6.755628 -3.865678 3.396954
v -6.463179 -10.53235 3.39696
v -6.463675 -10.52102 2.643524
v 4.53639 -4.883414 13.07923
v 0.1108902 -2.312702 13.1744
v 4.815503 -4.814378 13.33963
v 6.128027 1.084187 16.4401
v 6.012703 1.372994 20.37972
v 6.126893 1.53349 20.23927
v 6.242596 1.222828 16.25793
v 6.242596 1.222828 16.25793
v 6.223691 -2.053728 16.35075
v 5.876127 -2.01786 16.42343
v 6.128027 1.084187 16.4401
v 6.223691 -2.053728 16.35075
v 6.233697 -2.099978 13.33846
v 5.911709 -2.013026 13.41707
v 5.876127 -2.01786 16.42343
v 5.06022 -5.045386 10.28311
v 3.049662 -7.71157 10.41999
v 2.745768 -7.618114 10.57928
v 4.731427 -4.984549 10.44631
v 3.049662 -7.71157 10.41999
v 2.914163 -7.646169 7.718155
v 2.715286 -7.577518 7.824105
v 2.745768 -7.618114 10.57928
v 2.914163 -7.646169 7.718155
v 0.3371603 -9.253843 7.739931
v 0.0634982 -9.099808 7.886307
v 2.715286 -7.577518 7.824105
v 0.3371603 -9.253843 7.739931
v 0.241666 -9.341141 5.586185
v 0.05035609 -9.28205 5.748535
v 0.0634982 -9.099808 7.886307
v 0.241666 -9.341141 5.586185
v -2.819282 -10.1894 5.558789
v -2.980904 -10.08306 5.702616
v 0.05035609 -9.28205 5.748535
v -2.819282 -10.1894 5.558789
v -2.814391 -10.21603 3.214141
v -2.991465 -10.06675 3.358963
v -2.980904 -10.08306 5.702616
v -2.814391 -10.21603 3.214141
v -6.312967 -10.65581 3.250206
v -6.463179 -10.53235 3.39696
v -2.991465 -10.06675 3.358963
v -6.312967 -10.65581 3.250206
v -6.463675 -10.52102 2.643524
v -6.463179 -10.53235 3.39696
v -6.3218 -10.65694 2.652219
v -6.463446 -10.52627 8.583069E-06
v -6.310748 -10.64991 9.059906E-06
v 6.012703 1.372994 20.37972
v 3.722882 8.352015 20.11365
v 6.126893 1.53349 20.23927
v 3.398763 8.035958 20.25362
v 0.02889162 11.2076 19.87762
v 0.4199098 10.11129 20.07805
v -1.807482 8.496656 20.01246
v -0.9017529 7.676509 19.82585
v 2.519757 1.415822 16.44703
v 6.128027 1.084187 16.4401
v 5.876127 -2.01786 16.42343
v 1.597476 -0.9955997 16.42479
v 1.138351 -0.8893499 13.50309
v 1.597476 -0.9955997 16.42479
v 5.876127 -2.01786 16.42343
v 5.911709 -2.013026 13.41707
v 0.0974431 -2.18145 10.46842
v 4.731427 -4.984549 10.44631
v 2.745768 -7.618114 10.57928
v -1.234217 -2.96987 10.44196
v -0.8913445 -3.272995 7.75879
v -1.234217 -2.96987 10.44196
v 2.745768 -7.618114 10.57928
v 2.715286 -7.577518 7.824105
v -0.8913445 -3.272995 7.75879
v 2.715286 -7.577518 7.824105
v 0.0634982 -9.099808 7.886307
v -2.047124 -3.99436 7.724094
v -2.231201 -3.64148 5.767844
v -2.047124 -3.99436 7.724094
v 0.0634982 -9.099808 7.886307
v 0.05035609 -9.28205 5.748535
v -2.231201 -3.64148 5.767844
v 0.05035609 -9.28205 5.748535
v -2.980904 -10.08306 5.702616
v -3.917028 -3.993058 5.726962
v -3.76762 -4.043143 3.358961
v -3.917028 -3.993058 5.726962
v -2.980904 -10.08306 5.702616
v -2.991465 -10.06675 3.358963
v -6.463179 -10.53235 3.39696
v -6.755628 -3.865678 3.396954
v -3.76762 -4.043143 3.358961
v -2.991465 -10.06675 3.358963
v 2.519757 1.415822 16.44703
v 2.52125 1.415691 20.2659
v 6.012703 1.372994 20.37972
v 6.128027 1.084187 16.4401
v 2.52125 1.415691 20.2659
v 3.398763 8.035958 20.25362
v 6.012703 1.372994 20.37972
v 1.976482 5.994094 19.87708
v 0.4199098 10.11129 20.07805
v -0.9017529 7.676509 19.82585
v -6.755628 -3.865678 3.396954
v -6.463675 -10.52102 2.643524
v -6.463446 -10.52627 8.583069E-06
v -6.755629 -3.865679 5.722046E-06
v 6.242596 1.222828 16.25793
v 6.299889 -0.4696217 0.002295971
v 6.233697 -2.099978 13.33846
v 6.223691 -2.053728 16.35075
v 0.241666 -9.341141 5.586185
v -1.371203 -9.82392 2.765656E-05
v -2.814391 -10.21603 3.214141
v 2.914163 -7.646169 7.718155
v 0.3371603 -9.253843 7.739931
v 3.825478 -6.340087 7.343292E-05
v 5.06022 -5.045386 10.28311
v 3.049662 -7.71157 10.41999
v 6.233697 -2.099978 13.33846
v 6.299889 -0.4696217 0.002295971
v 3.722882 8.352015 20.11365
v 0.02889162 11.2076 19.87762
v 0.1769198 9.767228 0.3616681
v 3.265657 7.381628 0.2703967
v 6.242596 1.222828 16.25793
v 6.126893 1.53349 20.23927
v 6.299889 -0.4696217 0.002295971
v 0.1769198 9.767228 0.3616681
v 0.02889162 11.2076 19.87762
v -1.807482 8.496656 20.01246
v -1.017838 7.752872 0.0001502037
v -2.814391 -10.21603 3.214141
v -6.3218 -10.65694 2.652219
v -6.312967 -10.65581 3.250206
v -6.310748 -10.64991 9.059906E-06
v -1.371203 -9.82392 2.765656E-05
v 4.978779 -4.897951 13.07712
v 4.53639 -4.883414 13.07923
v 4.815503 -4.814378 13.33963
v 4.731427 -4.984549 10.44631
v 5.06022 -5.045386 10.28311
v 6.233697 -2.099978 13.33846
v 4.978779 -4.897951 13.07712
v 4.815503 -4.814378 13.33963
v 5.911709 -2.013026 13.41707
v 0.1108902 -2.312702 13.1744
v 1.138351 -0.8893499 13.50309
v 5.911709 -2.013026 13.41707
v 4.815503 -4.814378 13.33963
v 0.0974431 -2.18145 10.46842
v 0.1108902 -2.312702 13.1744
v 4.53639 -4.883414 13.07923
v 4.731427 -4.984549 10.44631
vt 0.01047795 0.01317016
vt 0.01033171 0.01346382
vt 0.01044741 0.01347805
vt 0.01011325 0.01407024
vt 0.01003607 0.01436905
vt 0.010089 0.01438067
vt 0.06004423 0.01364906
vt 0.06000195 0.01136136
vt 0.0599815 0.01136136
vt 0.05999689 0.01136136
vt 0.05996826 0.01364906
vt 0.06005748 0.01136136
vt 0.0608108 0.01268754
vt 0.06091894 0.01268754
vt 0.06091894 0.01232287
vt 0.0608108 0.01232287
vt 0.0608108 0.01232287
vt 0.06046796 0.01232287
vt 0.06046796 0.01268754
vt 0.0608108 0.01268754
vt 0.06046796 0.01232287
vt 0.06027029 0.01232287
vt 0.06027029 0.01268754
vt 0.06046796 0.01268754
vt 0.05990767 0.01232287
vt 0.05966249 0.01232287
vt 0.05966249 0.01268754
vt 0.05990767 0.01268754
vt 0.05966249 0.01232287
vt 0.05953164 0.01232287
vt 0.05953164 0.01268754
vt 0.05966249 0.01268754
vt 0.05953164 0.01232287
vt 0.05931745 0.01232287
vt 0.05931745 0.01268754
vt 0.05953164 0.01268754
vt 0.05931745 0.01232287
vt 0.05914354 0.01232287
vt 0.05914354 0.01268754
vt 0.05931745 0.01268754
vt 0.05914354 0.01232287
vt 0.05900025 0.01232287
vt 0.05900025 0.01268754
vt 0.05914354 0.01268754
vt 0.05900025 0.01232287
vt 0.05889884 0.01232287
vt 0.05889621 0.01268754
vt 0.05900025 0.01268754
vt 0.05889884 0.01232287
vt 0.05868292 0.01232287
vt 0.05868317 0.01268754
vt 0.05889621 0.01268754
vt 0.05868292 0.01232287
vt 0.0585216 0.01268754
vt 0.05868317 0.01268754
vt 0.0585216 0.01232287
vt 0.05825683 0.01268754
vt 0.05825683 0.01232287
vt 0.06091894 0.01268754
vt 0.0611435 0.01232287
vt 0.06091894 0.01232287
vt 0.0611435 0.01268754
vt 0.06148218 0.01232287
vt 0.06148218 0.01268754
vt 0.06176889 0.01232287
vt 0.06176889 0.01268754
vt 0.03557432 0.01303032
vt 0.03558618 0.0119801
vt 0.03548026 0.0119801
vt 0.03544682 0.01303032
vt 0.01017581 0.01424661
vt 0.0102558 0.01424661
vt 0.01028924 0.01195891
vt 0.01023264 0.01195891
vt 0.03552717 0.01303032
vt 0.03557284 0.0119801
vt 0.03546017 0.0119801
vt 0.03546837 0.01303032
vt 0.01019534 0.01424661
vt 0.01026969 0.01424661
vt 0.01026149 0.01195891
vt 0.01021539 0.01195891
vt 0.03553821 0.01303032
vt 0.03555825 0.0119801
vt 0.03547476 0.0119801
vt 0.03548531 0.01303032
vt 0.01022269 0.01424661
vt 0.01026042 0.01424661
vt 0.01024987 0.01195891
vt 0.01020461 0.01195891
vt 0.03555681 0.01303032
vt 0.03553873 0.0119801
vt 0.03547621 0.0119801
vt 0.03551319 0.01303032
vt 0.01023318 0.01424661
vt 0.0102586 0.01424661
vt 0.01022162 0.01195891
vt 0.01020643 0.01195891
vt 0.03547338 0.0119801
vt 0.03551564 0.01303032
vt 0.03555965 0.01303032
vt 0.03553289 0.0119801
vt 0.01018877 0.01424661
vt 0.01027626 0.01424661
vt 0.01026304 0.01195891
vt 0.01020063 0.01195891
vt 0.03539576 0.01303032
vt 0.03554796 0.0119801
vt 0.03538254 0.0119801
vt 0.03558949 0.01303032
vt 0.0356406 0.0119801
vt 0.03565048 0.01303032
vt 0.01028337 0.01424661
vt 0.01022063 0.01195891
vt 0.01019396 0.01195891
vt 0.01018167 0.01424661
vt 0.01057787 0.01285
vt 0.009785637 0.01289239
vt 0.01047795 0.01317016
vt 0.01056866 0.01317512
vt 0.01011325 0.01407024
vt 0.009815648 0.0141852
vt 0.01003607 0.01436905
vt 0.01023138 0.01377934
vt 0.01021266 0.01407714
vt 0.009801343 0.01356928
vt 0.01033171 0.01346382
vt 0.01031651 0.0137922
vt 0.01047795 0.01317016
vt 0.009785637 0.01289239
vt 0.01069511 0.01228822
vt 0.01069915 0.01176616
vt 0.009760603 0.01181387
vt 0.009766966 0.01208779
vt 0.01057787 0.01285
vt 0.0106838 0.01285145
vt 0.009785637 0.01289239
vt 0.009760603 0.01181387
vt 0.01069915 0.01176616
vt 0.01070443 0.01149144
vt 0.009998351 0.01149597
vt 0.01003607 0.01436905
vt 0.009934261 0.01469734
vt 0.01001094 0.01471408
vt 0.009826928 0.01467149
vt 0.009815648 0.0141852
vt 0.06004833 0.01232287
vt 0.06002267 0.01268754
vt 0.06004997 0.01268754
vt 0.05990767 0.01268754
vt 0.05990767 0.01232287
vt 0.06027029 0.01232287
vt 0.06004833 0.01232287
vt 0.06004997 0.01268754
vt 0.06027029 0.01268754
vt 0.03544468 0.01303032
vt 0.03553149 0.01303032
vt 0.03558834 0.0119801
vt 0.03553389 0.0119801
vt 0.01017518 0.01424661
vt 0.01026122 0.01424661
vt 0.01028985 0.01195891
vt 0.01022086 0.01195891
vn 0.9900311 -0.1408478 -0.0004741102
vn 0.8901985 -0.4545935 -0.02985686
vn 0.9096739 -0.4125072 0.04828284
vn 0.4526295 -0.8889099 0.07046769
vn 0.2185507 -0.9757951 -0.007720623
vn 0.239133 -0.8902135 0.3877311
vn -0.9990392 -0.04382527 0
vn -0.9990392 -0.04382525 0
vn -0.9990392 -0.04382526 0
vn -0.3239543 -0.907012 0.2690406
vn -0.5097682 -0.8603106 0.001478971
vn -0.1878685 -0.8806828 0.4348598
vn 0.8258912 -0.5598987 0.0664623
vn 0.8258912 -0.5598987 0.0664623
vn 0.8258912 -0.5598987 0.0664623
vn 0.8258912 -0.5598987 0.0664623
vn 0.4846182 -0.01013292 0.8746671
vn 0.4846182 -0.01013292 0.8746671
vn 0.2648002 -0.008953732 0.9642618
vn 0.2897932 -0.009108678 0.9570459
vn -0.1792392 -0.9837907 0.005412056
vn -0.1792391 -0.9837907 0.005412055
vn -0.2029564 -0.9791855 0.002120623
vn -0.2070355 -0.9783321 0.001552705
vn 0.3907602 -0.2495359 0.8860239
vn 0.3907602 -0.2495359 0.8860239
vn 0.1967172 -0.1102134 0.974246
vn 0.2354043 -0.1378327 0.9620743
vn -0.311152 -0.9503176 -0.008994767
vn -0.311152 -0.9503176 -0.008994767
vn -0.5304219 -0.8476625 -0.01099585
vn -0.5935923 -0.8046837 -0.01149707
vn 0.2654109 -0.4201015 0.8677971
vn 0.2654109 -0.4201015 0.8677971
vn 0.1147611 -0.1740306 0.9780303
vn 0.1664286 -0.2582799 0.9516265
vn -0.3783077 -0.9232111 0.0675612
vn -0.3783078 -0.9232111 0.0675612
vn -0.3783077 -0.9232111 0.0675612
vn -0.3783078 -0.9232111 0.0675612
vn 0.4526295 -0.8889099 0.07046769
vn 0.239133 -0.8902135 0.3877311
vn 0.195619 -0.7506508 0.6310758
vn 0.195619 -0.7506508 0.6310758
vn -0.6010618 -0.7991987 0.002488596
vn -0.6010618 -0.7991986 0.002488596
vn -0.6010618 -0.7991986 0.002488596
vn -0.6010618 -0.7991986 0.002488596
vn 0.09503436 -0.6715373 0.7348509
vn 0.09503436 -0.6715373 0.7348509
vn 0.04822464 -0.2869666 0.956726
vn 0.06440879 -0.4174987 0.906392
vn -0.6642833 -0.7474802 -0.00105361
vn -0.6626289 -0.7489465 -0.001366709
vn -0.6642833 -0.7474802 -0.00105361
vn -0.6627285 -0.7488586 -0.001347904
vn -0.661072 -0.7503206 -0.001660808
vn -0.661072 -0.7503206 -0.001660808
vn 0.1417492 0.09088042 0.9857221
vn 0.243586 0.2079379 0.9473267
vn 0.3979834 0.1649837 0.9024354
vn 0.1209207 0.1026743 0.9873379
vn 0.03020829 0.08618286 0.9958212
vn 0.01711181 0.07420445 0.9970963
vn -0.02325508 -0.008526887 0.9996932
vn -0.06085207 -0.04945018 0.9969212
vn -0.0001558326 -0.007024578 0.9999753
vn 0.2897932 -0.009108678 0.9570459
vn 0.2648002 -0.008953732 0.9642618
vn -0.0001558326 -0.007024577 0.9999753
vn -0.2306896 -0.9730258 -0.00175118
vn -0.2306896 -0.9730258 -0.00175118
vn -0.2070355 -0.9783321 0.001552705
vn -0.2029564 -0.9791855 0.002120623
vn 0.007365451 0.0239714 0.9996855
vn 0.2354043 -0.1378327 0.9620743
vn 0.1967172 -0.1102134 0.974246
vn 0.007365451 0.0239714 0.9996855
vn -0.7627144 -0.6466128 -0.01259742
vn -0.7627144 -0.6466128 -0.01259742
vn -0.5935923 -0.8046837 -0.01149707
vn -0.5304219 -0.8476625 -0.01099585
vn -0.005171028 0.02103196 0.9997655
vn 0.1664286 -0.2582799 0.9516265
vn 0.1147611 -0.1740306 0.9780303
vn -0.005171028 0.02103196 0.9997655
vn -0.9254146 -0.3778579 0.02883066
vn -0.9254146 -0.3778579 0.02883066
vn -0.9254146 -0.3778579 0.02883065
vn -0.9254146 -0.3778579 0.02883066
vn -0.01639053 -0.008216705 0.9998319
vn -0.01639053 -0.008216705 0.9998319
vn -0.01639053 -0.008216705 0.9998319
vn -0.01639053 -0.008216705 0.9998319
vn -0.9897721 -0.1398494 -0.02816477
vn -0.9897721 -0.1398494 -0.02816478
vn -0.9897721 -0.1398494 -0.02816477
vn -0.9897721 -0.1398494 -0.02816477
vn 0.04822464 -0.2869666 0.956726
vn 0.01171876 0.0009874727 0.9999309
vn 0.01171876 0.0009874727 0.9999309
vn 0.06440879 -0.4174987 0.906392
vn -0.05316276 -0.997924 0.03635053
vn -0.05316276 -0.997924 0.03635053
vn -0.05316276 -0.997924 0.03635053
vn -0.05316276 -0.997924 0.03635053
vn -0.1056729 0.01585083 0.9942746
vn 0.1209207 0.1026743 0.9873379
vn 0.1417492 0.09088042 0.9857221
vn -0.1000923 -0.0247281 0.9946708
vn 0.01711181 0.07420445 0.9970963
vn -0.06085207 -0.04945018 0.9969212
vn -0.9990392 -0.04382527 0
vn -0.9990392 -0.04382526 0
vn -0.9990392 -0.04382526 0
vn -0.9990392 -0.04382527 0
vn 0.9711208 0.2380815 -0.01553882
vn 0.9990382 -0.007639785 -0.04317751
vn 0.9900311 -0.1408478 -0.0004741102
vn 0.9999782 -0.005673131 0.003408908
vn 0.4526295 -0.8889099 0.07046769
vn 0.3545913 -0.9340038 -0.04361103
vn 0.2185507 -0.9757951 -0.007720623
vn 0.7049539 -0.7083482 -0.03581714
vn 0.5293347 -0.8483429 0.01091576
vn 0.781742 -0.6205066 -0.06205715
vn 0.8901985 -0.4545935 -0.02985686
vn 0.7958931 -0.6029781 -0.05451055
vn 0.9900311 -0.1408478 -0.0004741102
vn 0.9990382 -0.007639785 -0.04317751
vn 0.8059402 0.5906196 -0.04035753
vn 0.6112922 0.7896171 -0.05316645
vn 0.6112922 0.7896171 -0.05316645
vn 0.807779 0.5876608 -0.04634503
vn 0.9711208 0.2380815 -0.01553882
vn 0.9430905 0.3325328 0.0014601
vn 0.9990382 -0.007639785 -0.04317751
vn -0.8395777 0.5409516 -0.04980672
vn -0.8395777 0.5409515 -0.04980672
vn -0.8395777 0.5409515 -0.04980673
vn -0.8395777 0.5409516 -0.04980673
vn 0.2185507 -0.9757951 -0.007720623
vn 0.1388208 -0.9901792 -0.01655539
vn 0.1247207 -0.9921919 2.956366E-05
vn 0.1502083 -0.9881991 -0.03000118
vn 0.3545913 -0.9340038 -0.04361103
vn -0.06629431 -0.9882922 0.137418
vn -0.3239543 -0.907012 0.2690406
vn -0.1878685 -0.8806828 0.4348598
vn -0.2695051 -0.9628776 0.01528586
vn -0.08846781 -0.9952317 0.04107754
vn 0.4934939 -0.2574804 0.8307632
vn 0.4934939 -0.2574804 0.8307632
vn 0.2555505 -0.1806426 0.9497696
vn 0.2598833 -0.1821065 0.9483132
vn -0.03771207 -0.0768251 0.9963312
vn -0.03771207 -0.0768251 0.9963312
vn 0.2598833 -0.1821065 0.9483132
vn 0.2555505 -0.1806426 0.9497696
vn -0.5102565 -0.8597355 -0.02220494
vn -0.5097682 -0.8603106 0.001478971
vn -0.3239543 -0.907012 0.2690406
vn -0.2695051 -0.9628776 0.01528586
g Color_03_0
f 3/3/3 2/2/2 1/1/1
f 6/6/6 5/5/5 4/4/4
f 9/9/9 8/8/8 7/7/7
f 12/12/12 11/11/11 10/10/10
f 15/15/15 14/14/14 13/13/13
f 16/16/16 15/15/15 13/13/13
f 19/19/19 18/18/18 17/17/17
f 20/20/20 19/19/19 17/17/17
f 23/23/23 22/22/22 21/21/21
f 24/24/24 23/23/23 21/21/21
f 27/27/27 26/26/26 25/25/25
f 28/28/28 27/27/27 25/25/25
f 31/31/31 30/30/30 29/29/29
f 32/32/32 31/31/31 29/29/29
f 35/35/35 34/34/34 33/33/33
f 36/36/36 35/35/35 33/33/33
f 39/39/39 38/38/38 37/37/37
f 40/40/40 39/39/39 37/37/37
f 43/43/43 42/42/42 41/41/41
f 44/44/44 43/43/43 41/41/41
f 47/47/47 46/46/46 45/45/45
f 48/48/48 47/47/47 45/45/45
f 51/51/51 50/50/50 49/49/49
f 52/52/52 51/51/51 49/49/49
f 55/55/55 54/54/54 53/53/53
f 54/54/54 56/56/56 53/53/53
f 54/54/54 57/57/57 56/56/56
f 57/57/57 58/58/58 56/56/56
f 61/61/61 60/60/60 59/59/59
f 60/60/60 62/62/62 59/59/59
f 60/60/60 63/63/63 62/62/62
f 63/63/63 64/64/64 62/62/62
f 63/63/63 65/65/65 64/64/64
f 65/65/65 66/66/66 64/64/64
f 69/69/69 68/68/68 67/67/67
f 70/70/70 69/69/69 67/67/67
f 73/73/73 72/72/72 71/71/71
f 74/74/74 73/73/73 71/71/71
f 77/77/77 76/76/76 75/75/75
f 78/78/78 77/77/77 75/75/75
f 81/81/81 80/80/80 79/79/79
f 82/82/82 81/81/81 79/79/79
f 85/85/85 84/84/84 83/83/83
f 86/86/86 85/85/85 83/83/83
f 89/89/89 88/88/88 87/87/87
f 90/90/90 89/89/89 87/87/87
f 93/93/93 92/92/92 91/91/91
f 94/94/94 93/93/93 91/91/91
f 97/97/97 96/96/96 95/95/95
f 98/98/98 97/97/97 95/95/95
f 101/101/101 100/100/100 99/99/99
f 102/102/102 101/101/101 99/99/99
f 105/105/105 104/104/104 103/103/103
f 106/106/106 105/105/105 103/103/103
f 109/109/109 108/108/108 107/107/107
f 108/108/108 110/110/110 107/107/107
f 108/108/108 111/111/111 110/110/110
f 111/111/111 112/112/112 110/110/110
f 115/115/115 114/114/114 113/113/113
f 116/116/116 115/115/115 113/113/113
f 119/119/119 118/118/118 117/117/117
f 120/120/120 119/119/119 117/117/117
f 123/123/123 122/122/122 121/121/121
f 121/121/121 122/122/122 124/124/124
f 125/125/125 121/121/121 124/124/124
f 122/122/122 126/126/126 124/124/124
f 124/124/124 126/126/126 127/127/127
f 128/128/128 124/124/124 127/127/127
f 127/127/127 126/126/126 129/129/129
f 126/126/126 130/130/130 129/129/129
f 133/133/133 132/132/132 131/131/131
f 134/134/134 133/133/133 131/131/131
f 134/134/134 131/131/131 135/135/135
f 136/136/136 135/135/135 131/131/131
f 137/137/137 134/134/134 135/135/135
f 140/140/140 139/139/139 138/138/138
f 141/141/141 140/140/140 138/138/138
f 144/144/144 143/143/143 142/142/142
f 143/143/143 145/145/145 142/142/142
f 145/145/145 146/146/146 142/142/142
f 149/149/149 148/148/148 147/147/147
f 148/148/148 150/150/150 147/147/147
f 150/150/150 151/151/151 147/147/147
f 154/154/154 153/153/153 152/152/152
f 155/155/155 154/154/154 152/152/152
f 158/158/158 157/157/157 156/156/156
f 159/159/159 158/158/158 156/156/156
f 162/162/162 161/161/161 160/160/160
f 163/163/163 162/162/162 160/160/160
