g Color_01
v -2.650877 -0.6090088 4.768372E-07
v -2.678915 -0.6866918 8.873442
v -2.470935 -0.8036656 9.536743E-07
v 0.1066728 -0.78405 11.60565
v 1.239219 -0.4309993 10.77228
v 2.371537 -0.078022 8.735558
v 0.106672 -0.7840514 8.735558
v -1.065746 -0.6031094 10.77228
v -2.237929 -0.4222045 8.735558
v -2.237931 -0.4222088 4.768372E-07
v 0.1066704 -0.7840557 0
v 2.371536 -0.07802629 -9.536743E-07
v 2.40786 -0.4280434 8.735558
v 2.837019 -0.3690071 -4.768372E-07
v 2.411597 -0.5016251 -4.768372E-07
v 2.866493 -0.2718716 8.86809
v 1.275541 -0.781023 10.77228
v 1.58709 -0.758646 11.04523
v 0.1429951 -1.134074 11.57876
v 0.1421227 -1.145883 12.01608
v -1.029424 -0.9531307 10.77228
v -1.349922 -0.9766684 11.05002
v -2.201608 -0.7722273 8.735558
v -2.678915 -0.6866918 8.873442
v -2.20161 -0.7722316 4.768372E-07
v -2.470935 -0.8036656 9.536743E-07
v 0.1429951 -1.134074 11.57876
v 0.1066728 -0.78405 11.60565
v -1.065746 -0.6031094 10.77228
v -1.029424 -0.9531307 10.77228
v -2.237929 -0.4222045 8.735558
v -2.201608 -0.7722273 8.735558
v -2.237931 -0.4222088 4.768372E-07
v -2.20161 -0.7722316 4.768372E-07
v 1.275541 -0.781023 10.77228
v 0.1066728 -0.78405 11.60565
v 0.1429951 -1.134074 11.57876
v 1.239219 -0.4309993 10.77228
v 2.40786 -0.4280434 8.735558
v 2.371537 -0.078022 8.735558
v 2.411597 -0.5016251 -4.768372E-07
v 2.371536 -0.07802629 -9.536743E-07
v 2.866493 -0.2718716 8.86809
v 2.746274 0.8463049 -1.430511E-06
v 2.837019 -0.3690071 -4.768372E-07
v 2.863547 0.882865 8.89147
v 1.706355 -0.5418348 11.16261
v 1.628717 0.497931 11.16261
v 0.1274853 -0.9498529 12.20938
v 0.04933786 0.09672976 12.20938
v -1.494472 -0.7808361 11.16261
v -1.57211 0.2589283 11.16261
v -2.678915 -0.6866918 8.873442
v -2.850415 0.4562116 8.891474
v -2.650877 -0.6090088 4.768372E-07
v -2.729016 0.4374738 0
v 1.706355 -0.5418348 11.16261
v 2.866493 -0.2718716 8.86809
v 1.58709 -0.758646 11.04523
v 0.1274853 -0.9498529 12.20938
v 0.1421227 -1.145883 12.01608
v -1.494472 -0.7808361 11.16261
v -1.349922 -0.9766684 11.05002
v -2.678915 -0.6866918 8.873442
vt 0.06009074 0.01448113
vt 0.06018184 0.01052928
vt 0.0598439 0.01447709
vt 0.0110496 0.03856416
vt 0.0121325 0.0384794
vt 0.01320109 0.03789249
vt 0.01103097 0.03789855
vt 0.009962171 0.03848546
vt 0.008860856 0.03790462
vt 0.008790806 0.03540033
vt 0.01096092 0.03539426
vt 0.01313099 0.0353882
vt 0.03522757 0.01127988
vt 0.03579524 0.009847145
vt 0.03527872 0.00984327
vt 0.03574452 0.01127129
vt 0.03519869 0.01209075
vt 0.03571653 0.01205779
vt 0.03518726 0.01241159
vt 0.03570428 0.01240152
vt 0.03517497 0.0127569
vt 0.03572968 0.01276769
vt 0.03515477 0.01332392
vt 0.03594375 0.01335482
vt 0.03508928 0.01516327
vt 0.03560579 0.01516714
vt 0.03669322 0.03631655
vt 0.03616333 0.03632466
vt 0.03615135 0.03655627
vt 0.03668085 0.03655552
vt 0.03613205 0.03692941
vt 0.03666055 0.03694792
vt 0.0360654 0.03821809
vt 0.03659472 0.03822083
vt 0.03670469 0.03609451
vt 0.03616333 0.03632466
vt 0.03669322 0.03631655
vt 0.03617445 0.03610964
vt 0.03673372 0.03553336
vt 0.03620419 0.03553459
vt 0.03678514 0.03453916
vt 0.03625581 0.03453643
vt 0.06054445 0.03552089
vt 0.06154934 0.03454026
vt 0.06059541 0.03453533
vt 0.06149928 0.03550831
vt 0.06083128 0.03604607
vt 0.06147568 0.03596475
vt 0.06108251 0.03629993
vt 0.0614596 0.03627558
vt 0.06109372 0.03656692
vt 0.06144263 0.03660371
vt 0.06074467 0.03696279
vt 0.06142101 0.03702163
vt 0.06065311 0.03821828
vt 0.06135893 0.03822192
vt 0.06004512 0.01188898
vt 0.05975975 0.01023591
vt 0.05973175 0.01194916
vt 0.06029508 0.01268805
vt 0.0597195 0.01269792
vt 0.06030624 0.01352843
vt 0.05974489 0.01349555
vt 0.05995896 0.0147745
vn -0.9095665 -0.4154622 -0.008942551
vn -0.7354392 -0.6577926 0.1625977
vn -0.4277426 -0.9038998 -0.001218267
vn 0.07446164 -0.997224 0
vn 0.2976067 -0.9546886 0
vn 0.2976065 -0.9546886 0
vn 0.07446145 -0.997224 0
vn -0.1525259 -0.9882995 0
vn -0.1525261 -0.9882994 0
vn -0.1525262 -0.9882994 0
vn 0.07446133 -0.997224 0
vn 0.2976063 -0.9546887 0
vn 0.2800891 -0.9597593 -0.0203044
vn 0.8182227 -0.5749014 0.0001943569
vn 0.3093169 -0.9509186 0.008769636
vn 0.8364538 -0.5239968 0.1605376
vn 0.2360319 -0.9694833 -0.06626505
vn 0.5067809 -0.8241357 0.2529297
vn 0.07442816 -0.9937021 -0.08376613
vn 0.06659362 -0.899352 0.4321242
vn -0.0890883 -0.9937919 -0.06664041
vn -0.3833939 -0.886919 0.2576503
vn -0.087102 -0.9959605 -0.02181324
vn -0.7354392 -0.6577926 0.1625977
vn -0.0712072 -0.9974447 0.005785095
vn -0.4277426 -0.9038998 -0.001218267
vn 0.5801312 0.09129074 -0.809391
vn 0.5801312 0.09129073 -0.809391
vn 0.756512 0.09266045 -0.647382
vn 0.724948 0.09281282 -0.6825219
vn 0.9648713 0.1001235 -0.2428962
vn 0.9594778 0.09956384 -0.2636085
vn 0.9946591 0.1032138 0
vn 0.9946591 0.1032138 0
vn -0.7272992 -0.05815208 -0.6838525
vn -0.5802358 -0.02894718 -0.813934
vn -0.5802358 -0.02894718 -0.813934
vn -0.7515715 -0.06334803 -0.6566028
vn -0.9597476 -0.09707476 -0.2635549
vn -0.9638664 -0.0973447 -0.2479631
vn -0.995161 -0.0982581 0.0002010721
vn -0.995161 -0.09825811 0.0002010721
vn 0.8364538 -0.5239968 0.1605376
vn 0.9991797 0.03958356 -0.008554176
vn 0.8182227 -0.5749014 0.0001943569
vn 0.9730244 0.03479601 0.228063
vn 0.7421622 -0.272136 0.6124845
vn 0.7521852 0.03462455 0.6580415
vn 0.02791615 -0.3787748 0.9250678
vn 0 0 1
vn -0.6951008 -0.3739449 0.6140034
vn -0.7489862 -0.07746945 0.6580411
vn -0.7354392 -0.6577926 0.1625977
vn -0.9673696 -0.1122314 0.227157
vn -0.9095665 -0.4154622 -0.008942551
vn -0.9935323 -0.1132132 -0.00873316
vn 0.7421622 -0.272136 0.6124845
vn 0.8364538 -0.5239968 0.1605376
vn 0.5067809 -0.8241357 0.2529297
vn 0.02791615 -0.3787748 0.9250678
vn 0.06659362 -0.899352 0.4321242
vn -0.6951008 -0.3739449 0.6140034
vn -0.3833939 -0.886919 0.2576503
vn -0.7354392 -0.6577926 0.1625977
g Color_01_0
f 3/3/3 2/2/2 1/1/1
f 6/6/6 5/5/5 4/4/4
f 7/7/7 6/6/6 4/4/4
f 7/7/7 4/4/4 8/8/8
f 9/9/9 7/7/7 8/8/8
f 7/7/7 9/9/9 10/10/10
f 11/11/11 7/7/7 10/10/10
f 6/6/6 7/7/7 11/11/11
f 12/12/12 6/6/6 11/11/11
f 15/15/15 14/14/14 13/13/13
f 14/14/14 16/16/16 13/13/13
f 13/13/13 16/16/16 17/17/17
f 16/16/16 18/18/18 17/17/17
f 17/17/17 18/18/18 19/19/19
f 18/18/18 20/20/20 19/19/19
f 19/19/19 20/20/20 21/21/21
f 20/20/20 22/22/22 21/21/21
f 21/21/21 22/22/22 23/23/23
f 22/22/22 24/24/24 23/23/23
f 23/23/23 24/24/24 25/25/25
f 24/24/24 26/26/26 25/25/25
f 29/29/29 28/28/28 27/27/27
f 30/30/30 29/29/29 27/27/27
f 31/31/31 29/29/29 30/30/30
f 32/32/32 31/31/31 30/30/30
f 33/33/33 31/31/31 32/32/32
f 34/34/34 33/33/33 32/32/32
f 37/37/37 36/36/36 35/35/35
f 36/36/36 38/38/38 35/35/35
f 35/35/35 38/38/38 39/39/39
f 38/38/38 40/40/40 39/39/39
f 39/39/39 40/40/40 41/41/41
f 40/40/40 42/42/42 41/41/41
f 45/45/45 44/44/44 43/43/43
f 44/44/44 46/46/46 43/43/43
f 43/43/43 46/46/46 47/47/47
f 46/46/46 48/48/48 47/47/47
f 47/47/47 48/48/48 49/49/49
f 48/48/48 50/50/50 49/49/49
f 49/49/49 50/50/50 51/51/51
f 50/50/50 52/52/52 51/51/51
f 51/51/51 52/52/52 53/53/53
f 52/52/52 54/54/54 53/53/53
f 53/53/53 54/54/54 55/55/55
f 54/54/54 56/56/56 55/55/55
f 59/59/59 58/58/58 57/57/57
f 59/59/59 57/57/57 60/60/60
f 61/61/61 59/59/59 60/60/60
f 60/60/60 62/62/62 61/61/61
f 62/62/62 63/63/63 61/61/61
f 63/63/63 62/62/62 64/64/64
