g Color_Boss_04
v 0.8154883 -0.6500829 -0.3692399
v -0.7625761 -0.6339942 0.8513615
v 0.8154883 -0.6500832 0.857986
v -0.8294406 -0.6339939 -0.362685
v 0.8154881 0.2168767 -1.237424
v -0.8294411 0.2234918 -1.221382
v -0.8294411 0.4682494 -1.221382
v -0.8294411 0.2234918 -1.221382
v 0.8154881 0.2168767 -1.237424
v 0.808881 0.4438759 -1.229403
v -0.7625761 -0.6339942 0.8513615
v -0.8294415 0.1084153 0.6735504
v -0.7883205 -0.3038417 1.181969
v -0.8294406 0.0165367 0.5815454
v -0.8294406 -0.6339939 -0.362685
v -0.8294406 0.01653684 -0.09287989
v -0.8294411 0.4928887 -0.5699019
v -0.8294411 0.2234918 -1.221382
v -0.8294406 0.6500827 -0.5699019
v -0.8294411 0.4682494 -1.221382
v -0.8294415 0.1084153 0.6735504
v -0.8294406 0.0165367 0.5815454
v -0.817596 0.1331825 0.5320828
v -0.8080263 0.2274282 -0.007212281
v -0.8294406 0.01653684 -0.09287989
v -0.8119798 0.5640071 -0.3990693
v -0.8294411 0.4928887 -0.5699019
v -0.8294406 0.6500827 -0.5699019
v 0.8154883 -0.6500832 0.857986
v -0.7625761 -0.6339942 0.8513615
v -0.7883205 -0.3038417 1.181969
v 0.8294411 -0.2598151 1.237425
v -0.8294415 0.1084153 0.6735504
v 0.8294411 -0.2598151 1.237425
v -0.7883205 -0.3038417 1.181969
v 0.8022735 0.1084156 0.6735504
v -0.817596 0.1331825 0.5320828
v 0.8141186 0.1331829 0.5320828
v -0.8080263 0.2274282 -0.007212281
v 0.8236883 0.2274284 -0.007212281
v -0.8119798 0.5640071 -0.3990693
v 0.8197351 0.5640073 -0.3990693
v -0.8294406 0.6500827 -0.5699019
v 0.8022745 0.6500829 -0.5699019
v -0.8294411 0.4682494 -1.221382
v 0.808881 0.4438759 -1.229403
v 0.8154883 -0.6500832 0.857986
v 0.8163178 0.07144678 -0.02581763
v 0.8154883 -0.6500829 -0.3692399
v 0.8294411 -0.2598151 1.237425
v 0.8154881 0.2168767 -1.237424
v 0.8022735 0.1084156 0.6735504
v 0.808881 0.4438759 -1.229403
v 0.8141186 0.1331829 0.5320828
v 0.8022745 0.6500829 -0.5699019
v 0.8236883 0.2274284 -0.007212281
v 0.8197351 0.5640073 -0.3990693
vt 0.7096257 0.01178513
vt 0.7079363 0.01137997
vt 0.707368 0.01169085
vt 0.7085294 0.01150688
vt 0.7116743 0.01161684
vt 0.7095652 0.01153435
vt 0.7118624 0.03676607
vt 0.7118624 0.03611906
vt 0.7079897 0.03610159
vt 0.7079896 0.03663719
vt 0.7079363 0.01137997
vt 0.7084752 0.01134592
vt 0.7080004 0.0113213
vt 0.7084569 0.01136413
vt 0.7085294 0.01150688
vt 0.7088238 0.01144236
vt 0.7094597 0.01145853
vt 0.7095652 0.01153435
vt 0.709583 0.01144567
vt 0.7097399 0.01151629
vt 0.7090925 0.03835908
vt 0.7087519 0.03807417
vt 0.7091843 0.03792132
vt 0.7095336 0.03625157
vt 0.7087519 0.03598573
vt 0.710781 0.03503805
vt 0.7105175 0.03450858
vt 0.7111 0.03450858
vt 0.7061748 0.03597318
vt 0.7136772 0.03600729
vt 0.7136772 0.03670769
vt 0.7061748 0.03689449
vt 0.6618083 0.03653752
vt 0.6602651 0.03719091
vt 0.6618212 0.03706715
vt 0.6602386 0.036647
vt 0.6617854 0.03642274
vt 0.6602157 0.03653219
vt 0.6617323 0.03598272
vt 0.6601627 0.03609214
vt 0.6616946 0.03556668
vt 0.660125 0.03567611
vt 0.6616962 0.03541153
vt 0.6601265 0.03552096
vt 0.661642 0.03486709
vt 0.6600646 0.03496524
vt 0.683731 0.0129668
vt 0.6842772 0.01288862
vt 0.683731 0.01285824
vt 0.6840264 0.01300037
vt 0.6843873 0.01278144
vt 0.6843051 0.01295049
vt 0.684559 0.01278216
vt 0.6843239 0.01293798
vt 0.6847152 0.01284049
vt 0.6843953 0.01289027
vt 0.68465 0.01285561
vn -0.01067126 -0.9240193 -0.3821968
vn -0.009983428 -0.9999502 0.0002732182
vn -0.009983428 -0.9999502 0.0002732182
vn -0.01066858 -0.9211705 -0.3890128
vn -0.00973641 -0.7075721 -0.7065741
vn -0.00973641 -0.7075721 -0.7065741
vn -0.007168363 0.01689943 -0.9998314
vn -0.007168364 0.01689943 -0.9998314
vn -0.007168364 0.01689943 -0.9998314
vn -0.007168364 0.01689943 -0.9998314
vn -0.997272 -0.06773459 0.02933476
vn -0.9995547 -0.02772245 -0.01104161
vn -0.9961814 -0.08413365 0.02333089
vn -0.9999375 -0.01003939 0.00492019
vn -0.9995148 -0.02564798 0.01767031
vn -0.9995639 0.01649882 0.02449011
vn -0.9993777 0.01351884 0.03257959
vn -1 0 0
vn -0.9989028 0 0.04683223
vn -1 0 0
vn -0.9995547 -0.02772245 -0.01104161
vn -0.9999375 -0.01003939 0.00492019
vn -0.9955453 0.0915738 -0.02244256
vn -0.9956021 0.08606672 0.03699837
vn -0.9995639 0.01649882 0.02449011
vn -0.9954545 0.05060462 0.08068046
vn -0.9993777 0.01351884 0.03257959
vn -0.9989028 0 0.04683223
vn -0.007696502 -0.7020033 0.7121321
vn -0.007696502 -0.7020033 0.7121321
vn -0.007696502 -0.7020032 0.7121321
vn -0.007696502 -0.7020033 0.712132
vn -0.01085066 0.9197232 0.3924176
vn -0.02099908 0.8076922 0.5892304
vn -0.02099908 0.8076922 0.5892304
vn -0.01064167 0.9214846 0.3882689
vn 0 0.9850438 0.172304
vn 0 0.9850455 0.1722944
vn 0 0.9045469 0.4263742
vn 0 0.9038122 0.4279292
vn 0 0.8340108 0.5517481
vn 0 0.8297524 0.5581316
vn 0.003572583 0.9969785 0.0775961
vn 0.003381965 0.9950531 0.09928743
vn 0.006450831 0.9588664 -0.2837846
vn 0.006450831 0.9588664 -0.2837846
vn 0.9998285 -0.01479704 -0.01114184
vn 0.9998765 -0.01433403 -0.006452765
vn 0.9999995 -0.0009562029 -0.0004062902
vn 0.9999393 0.006930533 -0.008570531
vn 0.9997892 0.02046 0.001771181
vn 0.9977211 0.06540302 0.01657841
vn 0.9996032 0.02805679 0.002505317
vn 0.9679025 -0.2493555 0.0314085
vn 0.999721 0.002147807 -0.02351954
vn 0.9987442 -0.04443232 -0.02314344
vn 0.9792396 -0.1266983 -0.1582317
g Color_Boss_04_0
f 3/3/3 2/2/2 1/1/1
f 2/2/2 4/4/4 1/1/1
f 1/1/1 4/4/4 5/5/5
f 4/4/4 6/6/6 5/5/5
f 9/9/9 8/8/8 7/7/7
f 10/10/10 9/9/9 7/7/7
f 13/13/13 12/12/12 11/11/11
f 12/12/12 14/14/14 11/11/11
f 11/11/11 14/14/14 15/15/15
f 14/14/14 16/16/16 15/15/15
f 16/16/16 17/17/17 15/15/15
f 17/17/17 18/18/18 15/15/15
f 17/17/17 19/19/19 18/18/18
f 19/19/19 20/20/20 18/18/18
f 23/23/23 22/22/22 21/21/21
f 23/23/23 24/24/24 22/22/22
f 24/24/24 25/25/25 22/22/22
f 24/24/24 26/26/26 25/25/25
f 26/26/26 27/27/27 25/25/25
f 26/26/26 28/28/28 27/27/27
f 31/31/31 30/30/30 29/29/29
f 32/32/32 31/31/31 29/29/29
f 35/35/35 34/34/34 33/33/33
f 34/34/34 36/36/36 33/33/33
f 33/33/33 36/36/36 37/37/37
f 36/36/36 38/38/38 37/37/37
f 37/37/37 38/38/38 39/39/39
f 38/38/38 40/40/40 39/39/39
f 39/39/39 40/40/40 41/41/41
f 40/40/40 42/42/42 41/41/41
f 41/41/41 42/42/42 43/43/43
f 42/42/42 44/44/44 43/43/43
f 43/43/43 44/44/44 45/45/45
f 44/44/44 46/46/46 45/45/45
f 49/49/49 48/48/48 47/47/47
f 47/47/47 48/48/48 50/50/50
f 51/51/51 48/48/48 49/49/49
f 50/50/50 48/48/48 52/52/52
f 53/53/53 48/48/48 51/51/51
f 52/52/52 48/48/48 54/54/54
f 55/55/55 48/48/48 53/53/53
f 54/54/54 48/48/48 56/56/56
f 57/57/57 48/48/48 55/55/55
f 56/56/56 48/48/48 57/57/57
