g Color_09
v -7.599792 19.01525 -0.7344279
v -7.550755 19.29833 0.08260822
v -5.898598 18.31015 0.452724
v -7.339073 20.30671 0.1828399
v -7.550755 19.29833 0.08260822
v -7.599792 19.01525 -0.7344279
v 13.89873 25.08834 -0.3953314
v 14.28695 25.86953 -0.3945765
v 15.14897 25.75946 -0.3704367
v -9.866653 21.50313 -0.4401593
v -10.41771 21.77551 -0.4648061
v -10.35166 22.42076 -0.4667716
v 22.00277 17.50342 -0.8393874
v 21.54184 17.73126 -0.8600025
v 21.59708 18.27099 -0.8616481
v 13.26018 21.8853 -0.8393869
v 13.18244 22.39356 -0.8600011
v 13.65625 22.65789 -0.8616471
v -5.094265 20.25892 -1.765359
v -5.033615 17.68541 -1.582287
v -5.898598 18.31015 0.452724
v -5.765297 19.57315 0.3719773
v -8.253834 21.46351 -1.797678
v -5.094265 20.25892 -1.765359
v -5.765297 19.57315 0.3719773
v -7.339073 20.30671 0.1828399
v -8.744823 18.68011 -1.816627
v -8.253834 21.46351 -1.797678
v -7.339073 20.30671 0.1828399
v -7.599792 19.01525 -0.7344279
v -7.550755 19.29833 0.08260822
v -7.339073 20.30671 0.1828399
v -5.765297 19.57315 0.3719773
v -5.898598 18.31015 0.452724
v -5.033615 17.68541 -1.582287
v -8.744823 18.68011 -1.816627
v -7.599792 19.01525 -0.7344279
v -5.898598 18.31015 0.452724
v 14.27948 26.34149 -2.546367
v 16.17431 25.72122 -2.204566
v 15.14897 25.75946 -0.3704367
v 14.28695 25.86953 -0.3945765
v 13.2608 24.74466 -2.37074
v 14.27948 26.34149 -2.546367
v 14.28695 25.86953 -0.3945765
v 13.89873 25.08834 -0.3953314
v 14.20728 23.34443 -2.037534
v 13.2608 24.74466 -2.37074
v 13.89873 25.08834 -0.3953314
v 14.48137 24.37623 -0.5189323
v 14.48137 24.37623 -0.5189323
v 13.89873 25.08834 -0.3953314
v 15.14897 25.75946 -0.3704367
v 15.35902 24.86259 -0.2383924
v 16.08044 23.7818 -1.729098
v 14.20728 23.34443 -2.037534
v 14.48137 24.37623 -0.5189323
v 15.35902 24.86259 -0.2383924
v 16.17431 25.72122 -2.204566
v 16.08044 23.7818 -1.729098
v 15.35902 24.86259 -0.2383924
v 15.14897 25.75946 -0.3704367
v -11.04345 21.57753 -1.755852
v -10.56075 22.97698 -1.771551
v -10.35166 22.42076 -0.4667716
v -10.41771 21.77551 -0.4648061
v -9.867245 20.83552 -1.717799
v -11.04345 21.57753 -1.755852
v -10.41771 21.77551 -0.4648061
v -9.866653 21.50313 -0.4401593
v -8.715195 21.55733 -1.596651
v -9.867245 20.83552 -1.717799
v -9.866653 21.50313 -0.4401593
v -9.317917 21.94491 -0.3784523
v -9.317917 21.94491 -0.3784523
v -9.866653 21.50313 -0.4401593
v -10.35166 22.42076 -0.4667716
v -9.690205 22.57481 -0.4931636
v -9.102577 22.92978 -1.662383
v -8.715195 21.55733 -1.596651
v -9.317917 21.94491 -0.3784523
v -9.690205 22.57481 -0.4931636
v -10.56075 22.97698 -1.771551
v -9.102577 22.92978 -1.662383
v -9.690205 22.57481 -0.4931636
v -10.35166 22.42076 -0.4667716
v 4.794884 6.249191 -2.185101
v 6.418327 5.036724 -2.130917
v 5.770546 4.824804 -0.7696433
v 5.024223 5.457233 -0.7940121
v 3.388592 4.806948 -2.126336
v 4.794884 6.249191 -2.185101
v 5.024223 5.457233 -0.7940121
v 4.264137 4.884308 -0.8793125
v 5.026222 3.614384 -2.193419
v 3.388592 4.806948 -2.126336
v 4.264137 4.884308 -0.8793125
v 4.779171 4.297714 -0.9910703
v 4.779171 4.297714 -0.9910703
v 4.264137 4.884308 -0.8793125
v 5.024223 5.457233 -0.7940121
v 5.770546 4.824804 -0.7696433
v 6.418327 5.036724 -2.130917
v 5.026222 3.614384 -2.193419
v 4.779171 4.297714 -0.9910703
v 5.770546 4.824804 -0.7696433
v 21.01841 17.56565 -1.939927
v 21.42219 18.73626 -1.953058
v 21.59708 18.27099 -0.8616481
v 21.54184 17.73126 -0.8600025
v 22.00228 16.94498 -1.908097
v 21.01841 17.56565 -1.939927
v 21.54184 17.73126 -0.8600025
v 22.00277 17.50342 -0.8393874
v 22.96593 17.54876 -1.806759
v 22.00228 16.94498 -1.908097
v 22.00277 17.50342 -0.8393874
v 22.46177 17.87295 -0.7877688
v 22.46177 17.87295 -0.7877688
v 22.00277 17.50342 -0.8393874
v 21.59708 18.27099 -0.8616481
v 22.15036 18.39986 -0.8837233
v 22.64189 18.69677 -1.861743
v 22.96593 17.54876 -1.806759
v 22.46177 17.87295 -0.7877688
v 22.15036 18.39986 -0.8837233
v 21.42219 18.73626 -1.953058
v 22.64189 18.69677 -1.861743
v 22.15036 18.39986 -0.8837233
v 21.59708 18.27099 -0.8616481
v 12.74656 22.72733 -1.939928
v 13.93706 23.06801 -1.953059
v 13.65625 22.65789 -0.8616471
v 13.18244 22.39356 -0.8600011
v 12.80245 21.56538 -1.908097
v 12.74656 22.72733 -1.939928
v 13.18244 22.39356 -0.8600011
v 13.26018 21.8853 -0.8393869
v 13.84977 21.12233 -1.80676
v 12.80245 21.56538 -1.908097
v 13.26018 21.8853 -0.8393869
v 13.82616 21.72126 -0.7877688
v 13.82616 21.72126 -0.7877688
v 13.26018 21.8853 -0.8393869
v 13.65625 22.65789 -0.8616471
v 14.07916 22.27858 -0.8837247
v 14.60431 22.04624 -1.861744
v 13.84977 21.12233 -1.80676
v 13.82616 21.72126 -0.7877688
v 14.07916 22.27858 -0.8837247
v 13.93706 23.06801 -1.953059
v 14.60431 22.04624 -1.861744
v 14.07916 22.27858 -0.8837247
v 13.65625 22.65789 -0.8616471
vt 0.0155271 0.01301626
vt 0.0155271 0.01301626
vt 0.01522288 0.01276823
vt 0.0153452 0.01276823
vt 0.01522288 0.01337554
vt 0.01522288 0.01337553
vt 0.01650923 0.01486477
vt 0.01730429 0.01356902
vt 0.0161538 0.01356902
vt 0.01556034 0.01314687
vt 0.0157689 0.01291286
vt 0.01546705 0.01291286
vt 0.01556034 0.01314687
vt 0.0157689 0.01291286
vt 0.01546705 0.01291286
vt 0.01556034 0.01314687
vt 0.0157689 0.01291286
vt 0.01546705 0.01291286
vt 0.01529893 0.01276823
vt 0.01522288 0.01283036
vt 0.01522288 0.01283036
vt 0.01529893 0.01276823
vt 0.01597987 0.01472083
vt 0.01522288 0.01276823
vt 0.01522288 0.01276823
vt 0.01597987 0.01472083
vt 0.01522288 0.01337554
vt 0.0153452 0.01276823
vt 0.0153452 0.01276823
vt 0.01522288 0.01337553
vt 0.01605538 0.01375401
vt 0.01688804 0.01276823
vt 0.01605538 0.01276823
vt 0.01522288 0.01276823
vt 0.01522288 0.01276823
vt 0.0155271 0.01301626
vt 0.0155271 0.01301626
vt 0.01522288 0.01276823
vt 0.01632108 0.01455836
vt 0.01522288 0.01276823
vt 0.01522288 0.01276823
vt 0.01632108 0.01455836
vt 0.01522288 0.01406598
vt 0.01637927 0.01276823
vt 0.01637927 0.01276823
vt 0.01522288 0.01406598
vt 0.01547803 0.0128358
vt 0.01522288 0.01276823
vt 0.01522288 0.01276823
vt 0.01547803 0.0128358
vt 0.01522288 0.01436981
vt 0.01650923 0.01486477
vt 0.0161538 0.01356902
vt 0.01522288 0.01276823
vt 0.01547803 0.01305457
vt 0.01547803 0.0128358
vt 0.01547803 0.0128358
vt 0.01547803 0.01305457
vt 0.01701947 0.01276823
vt 0.01522288 0.01427383
vt 0.01522288 0.01427383
vt 0.01701947 0.01276823
vt 0.01533666 0.01289587
vt 0.01522288 0.01276823
vt 0.01522288 0.01276823
vt 0.01533666 0.01289587
vt 0.01522288 0.01289587
vt 0.0153366 0.01276823
vt 0.0153366 0.01276823
vt 0.01522288 0.01289587
vt 0.01522288 0.01287341
vt 0.01534554 0.01290596
vt 0.01534554 0.01290596
vt 0.01522288 0.01287341
vt 0.01522288 0.01305746
vt 0.01556034 0.01314687
vt 0.01546705 0.01291286
vt 0.01522288 0.01276823
vt 0.01522288 0.01276823
vt 0.01522288 0.01287341
vt 0.01522288 0.01287341
vt 0.01522288 0.01276823
vt 0.01552965 0.01276823
vt 0.01522288 0.01284946
vt 0.01522288 0.01284946
vt 0.01552965 0.01276823
vt 0.01529893 0.01276823
vt 0.01522288 0.01283036
vt 0.01522288 0.01283036
vt 0.01529893 0.01276823
vt 0.01597987 0.01472083
vt 0.01522288 0.01276823
vt 0.01522288 0.01276823
vt 0.01597987 0.01472083
vt 0.01522288 0.01337554
vt 0.0153452 0.01276823
vt 0.0153452 0.01276823
vt 0.01522288 0.01337554
vt 0.01605538 0.01375401
vt 0.01688804 0.01276823
vt 0.01605538 0.01276823
vt 0.01522288 0.01276823
vt 0.01522288 0.01276823
vt 0.0155271 0.01301626
vt 0.0155271 0.01301626
vt 0.01522288 0.01276823
vt 0.01533666 0.01289587
vt 0.01522288 0.01276823
vt 0.01522288 0.01276823
vt 0.01533666 0.01289587
vt 0.01522288 0.01289587
vt 0.0153366 0.01276823
vt 0.0153366 0.01276823
vt 0.01522288 0.01289587
vt 0.01522288 0.01287341
vt 0.01534554 0.01290596
vt 0.01534554 0.01290596
vt 0.01522288 0.01287341
vt 0.01522288 0.01305746
vt 0.01556034 0.01314687
vt 0.01546705 0.01291286
vt 0.01522288 0.01276823
vt 0.01522288 0.01276823
vt 0.01522288 0.01287341
vt 0.01522288 0.01287341
vt 0.01522288 0.01276823
vt 0.01552965 0.01276823
vt 0.01522288 0.01284946
vt 0.01522288 0.01284946
vt 0.01552965 0.01276823
vt 0.01533666 0.01289587
vt 0.01522288 0.01276823
vt 0.01522288 0.01276823
vt 0.01533666 0.01289587
vt 0.01522288 0.01289587
vt 0.0153366 0.01276823
vt 0.0153366 0.01276823
vt 0.01522288 0.01289587
vt 0.01522288 0.01287341
vt 0.01534554 0.01290596
vt 0.01534554 0.01290596
vt 0.01522288 0.01287341
vt 0.01522288 0.01305746
vt 0.01556034 0.01314687
vt 0.01546705 0.01291286
vt 0.01522288 0.01276823
vt 0.01522288 0.01276823
vt 0.01522288 0.01287341
vt 0.01522288 0.01287341
vt 0.01522288 0.01276823
vt 0.01552965 0.01276823
vt 0.01522288 0.01284946
vt 0.01522288 0.01284946
vt 0.01552965 0.01276823
vn -0.5382476 -0.7858273 0.3045733
vn -0.5382476 -0.7858273 0.3045732
vn -0.5382476 -0.7858273 0.3045733
vn -0.9783294 0.2066537 -0.01288128
vn -0.9783294 0.2066537 -0.01288128
vn -0.9783294 0.2066537 -0.01288128
vn -0.02643758 0.01217246 0.9995764
vn -0.02643758 0.01217246 0.9995764
vn -0.02643758 0.01217246 0.9995764
vn -0.04110384 0.0072506 0.9991286
vn -0.04110384 0.0072506 0.9991286
vn -0.04110384 0.0072506 0.9991286
vn -0.04110084 0.00725304 0.9991288
vn -0.04110084 0.00725304 0.9991288
vn -0.04110084 0.007253041 0.9991288
vn -0.0176313 0.03782649 0.9991288
vn -0.0176313 0.03782649 0.9991288
vn -0.0176313 0.03782649 0.9991288
vn 0.9383829 0.005991598 0.3455454
vn 0.9383829 0.005991599 0.3455454
vn 0.9383829 0.005991599 0.3455455
vn 0.9383829 0.005991598 0.3455455
vn 0.3375919 0.8664883 0.3677358
vn 0.3375919 0.8664883 0.3677358
vn 0.3375919 0.8664883 0.3677358
vn 0.3375919 0.8664883 0.3677357
vn -0.8266602 0.02332604 0.5622178
vn -0.8266602 0.02332604 0.5622178
vn -0.8266602 0.02332604 0.5622178
vn -0.8266602 0.02332604 0.5622178
vn -0.1623909 0.01620075 0.9865935
vn -0.1623909 0.01620075 0.9865935
vn -0.1623909 0.01620075 0.9865935
vn -0.1623909 0.01620075 0.9865935
vn -0.3572116 -0.883153 0.3040405
vn -0.3572116 -0.883153 0.3040405
vn -0.3572116 -0.883153 0.3040406
vn -0.3572116 -0.883153 0.3040406
vn 0.2322759 0.9587852 0.1636422
vn 0.232276 0.9587852 0.1636422
vn 0.232276 0.9587852 0.1636422
vn 0.232276 0.9587852 0.1636422
vn -0.8463299 0.5116135 0.1482472
vn -0.8463299 0.5116135 0.1482472
vn -0.8463299 0.5116136 0.1482472
vn -0.8463299 0.5116135 0.1482472
vn -0.7608628 -0.5111144 0.3998123
vn -0.7608628 -0.5111144 0.3998123
vn -0.7608628 -0.5111144 0.3998123
vn -0.7608628 -0.5111144 0.3998123
vn -0.1145404 -0.05122396 0.992097
vn -0.1145404 -0.05122396 0.992097
vn -0.1145404 -0.05122397 0.992097
vn -0.1145404 -0.05122396 0.992097
vn 0.1437773 -0.7997732 0.5828302
vn 0.1437773 -0.7997732 0.5828302
vn 0.1437773 -0.7997732 0.5828302
vn 0.1437773 -0.7997732 0.5828302
vn 0.8950722 0.128145 0.4271122
vn 0.8950722 0.128145 0.4271122
vn 0.8950722 0.128145 0.4271121
vn 0.8950722 0.128145 0.4271121
vn -0.9118732 0.2475507 0.3274232
vn -0.9118732 0.2475506 0.3274232
vn -0.9118732 0.2475507 0.3274232
vn -0.9118732 0.2475506 0.3274232
vn -0.4781059 -0.7904263 0.3829374
vn -0.4781059 -0.7904263 0.3829374
vn -0.4781059 -0.7904263 0.3829375
vn -0.4781059 -0.7904263 0.3829374
vn 0.4752609 -0.7634115 0.4374126
vn 0.4752609 -0.7634115 0.4374126
vn 0.475261 -0.7634116 0.4374126
vn 0.4752609 -0.7634116 0.4374126
vn -0.05805467 0.05884817 0.9965773
vn -0.05805467 0.05884818 0.9965773
vn -0.05805467 0.05884818 0.9965773
vn -0.05805467 0.05884817 0.9965773
vn 0.838455 0.3553368 0.4131938
vn 0.838455 0.3553368 0.4131938
vn 0.838455 0.3553368 0.4131937
vn 0.838455 0.3553368 0.4131938
vn -0.06051604 0.9396269 0.336807
vn -0.06051603 0.9396269 0.336807
vn -0.06051603 0.9396269 0.336807
vn -0.06051603 0.9396269 0.3368069
vn 0.5664197 0.7427667 0.3570244
vn 0.5664197 0.7427667 0.3570244
vn 0.5664197 0.7427667 0.3570244
vn 0.5664197 0.7427667 0.3570244
vn -0.6158888 0.6563645 0.435737
vn -0.6158888 0.6563645 0.435737
vn -0.6158888 0.6563645 0.435737
vn -0.6158887 0.6563645 0.435737
vn -0.572309 -0.7300072 0.3735663
vn -0.572309 -0.7300073 0.3735662
vn -0.572309 -0.7300073 0.3735663
vn -0.572309 -0.7300072 0.3735663
vn -0.07771038 -0.1510549 0.9854661
vn -0.07771039 -0.1510549 0.9854661
vn -0.07771038 -0.1510549 0.9854661
vn -0.07771038 -0.1510549 0.9854661
vn 0.5716635 -0.7480436 0.337093
vn 0.5716636 -0.7480436 0.337093
vn 0.5716634 -0.7480436 0.3370929
vn 0.5716634 -0.7480436 0.337093
vn -0.9118704 0.2475548 0.327428
vn -0.9118704 0.2475548 0.327428
vn -0.9118704 0.2475548 0.327428
vn -0.9118704 0.2475548 0.3274281
vn -0.4781064 -0.7904257 0.3829381
vn -0.4781064 -0.7904257 0.3829381
vn -0.4781064 -0.7904257 0.382938
vn -0.4781064 -0.7904257 0.382938
vn 0.4752617 -0.7634109 0.437413
vn 0.4752617 -0.7634109 0.437413
vn 0.4752617 -0.7634109 0.4374129
vn 0.4752617 -0.7634109 0.437413
vn -0.05805825 0.05884749 0.9965772
vn -0.05805825 0.05884749 0.9965772
vn -0.05805825 0.05884749 0.9965772
vn -0.05805825 0.05884749 0.9965772
vn 0.8384562 0.355336 0.4131919
vn 0.8384562 0.355336 0.4131919
vn 0.8384562 0.355336 0.4131919
vn 0.8384562 0.355336 0.4131919
vn -0.06052105 0.9396268 0.3368069
vn -0.06052106 0.9396268 0.3368069
vn -0.06052106 0.9396268 0.3368069
vn -0.06052106 0.9396268 0.3368069
vn -0.3202441 0.8889533 0.3274227
vn -0.320244 0.8889533 0.3274226
vn -0.3202441 0.8889533 0.3274227
vn -0.320244 0.8889534 0.3274226
vn -0.9217099 -0.06172601 0.3829371
vn -0.9217099 -0.06172602 0.3829371
vn -0.9217099 -0.06172602 0.3829371
vn -0.9217099 -0.06172602 0.3829371
vn -0.3527494 -0.8271853 0.4374155
vn -0.3527494 -0.8271853 0.4374155
vn -0.3527494 -0.8271853 0.4374155
vn -0.3527494 -0.8271853 0.4374155
vn 0.01490702 0.08131113 0.9965772
vn 0.01490702 0.08131113 0.9965772
vn 0.01490702 0.08131114 0.9965772
vn 0.01490701 0.08131113 0.9965772
vn 0.7719924 -0.4830116 0.4131919
vn 0.7719924 -0.4830116 0.4131919
vn 0.7719924 -0.4830116 0.4131919
vn 0.7719924 -0.4830116 0.4131919
vn 0.7349839 0.5885247 0.3368047
vn 0.7349839 0.5885247 0.3368047
vn 0.7349839 0.5885247 0.3368046
vn 0.7349839 0.5885247 0.3368047
g Color_09_0
f 3/3/3 2/2/2 1/1/1
f 6/6/6 5/5/5 4/4/4
f 9/9/9 8/8/8 7/7/7
f 12/12/12 11/11/11 10/10/10
f 15/15/15 14/14/14 13/13/13
f 18/18/18 17/17/17 16/16/16
f 21/21/21 20/20/20 19/19/19
f 22/22/22 21/21/21 19/19/19
f 25/25/25 24/24/24 23/23/23
f 26/26/26 25/25/25 23/23/23
f 29/29/29 28/28/28 27/27/27
f 30/30/30 29/29/29 27/27/27
f 33/33/33 32/32/32 31/31/31
f 34/34/34 33/33/33 31/31/31
f 37/37/37 36/36/36 35/35/35
f 38/38/38 37/37/37 35/35/35
f 41/41/41 40/40/40 39/39/39
f 42/42/42 41/41/41 39/39/39
f 45/45/45 44/44/44 43/43/43
f 46/46/46 45/45/45 43/43/43
f 49/49/49 48/48/48 47/47/47
f 50/50/50 49/49/49 47/47/47
f 53/53/53 52/52/52 51/51/51
f 54/54/54 53/53/53 51/51/51
f 57/57/57 56/56/56 55/55/55
f 58/58/58 57/57/57 55/55/55
f 61/61/61 60/60/60 59/59/59
f 62/62/62 61/61/61 59/59/59
f 65/65/65 64/64/64 63/63/63
f 66/66/66 65/65/65 63/63/63
f 69/69/69 68/68/68 67/67/67
f 70/70/70 69/69/69 67/67/67
f 73/73/73 72/72/72 71/71/71
f 74/74/74 73/73/73 71/71/71
f 77/77/77 76/76/76 75/75/75
f 78/78/78 77/77/77 75/75/75
f 81/81/81 80/80/80 79/79/79
f 82/82/82 81/81/81 79/79/79
f 85/85/85 84/84/84 83/83/83
f 86/86/86 85/85/85 83/83/83
f 89/89/89 88/88/88 87/87/87
f 90/90/90 89/89/89 87/87/87
f 93/93/93 92/92/92 91/91/91
f 94/94/94 93/93/93 91/91/91
f 97/97/97 96/96/96 95/95/95
f 98/98/98 97/97/97 95/95/95
f 101/101/101 100/100/100 99/99/99
f 102/102/102 101/101/101 99/99/99
f 105/105/105 104/104/104 103/103/103
f 106/106/106 105/105/105 103/103/103
f 109/109/109 108/108/108 107/107/107
f 110/110/110 109/109/109 107/107/107
f 113/113/113 112/112/112 111/111/111
f 114/114/114 113/113/113 111/111/111
f 117/117/117 116/116/116 115/115/115
f 118/118/118 117/117/117 115/115/115
f 121/121/121 120/120/120 119/119/119
f 122/122/122 121/121/121 119/119/119
f 125/125/125 124/124/124 123/123/123
f 126/126/126 125/125/125 123/123/123
f 129/129/129 128/128/128 127/127/127
f 130/130/130 129/129/129 127/127/127
f 133/133/133 132/132/132 131/131/131
f 134/134/134 133/133/133 131/131/131
f 137/137/137 136/136/136 135/135/135
f 138/138/138 137/137/137 135/135/135
f 141/141/141 140/140/140 139/139/139
f 142/142/142 141/141/141 139/139/139
f 145/145/145 144/144/144 143/143/143
f 146/146/146 145/145/145 143/143/143
f 149/149/149 148/148/148 147/147/147
f 150/150/150 149/149/149 147/147/147
f 153/153/153 152/152/152 151/151/151
f 154/154/154 153/153/153 151/151/151
