g Color_Boss_51
v -0.691162 1.814104 -1.415223
v -1.148459E-07 -0.2066289 -0.8967653
v -1.009258E-07 1.703263 -1.635325
v -0.8799384 -0.07750904 -0.6542841
v -0.9774543 2.081749 -0.8828368
v -1.244348 0.2354591 -0.0648272
v -0.691162 2.350176 -0.3504114
v -0.8790224 0.5483768 0.5240004
v -1.036311E-07 2.461146 -0.1300231
v -1.361836E-07 0.6769636 0.7669547
v 0.691162 1.814104 -1.415223
v -1.009258E-07 1.703263 -1.635325
v -1.148459E-07 -0.2066289 -0.8967653
v 0.8799382 -0.07750904 -0.6542841
v 1.244348 0.2354591 -0.0648272
v 0.9774544 2.081749 -0.8828368
v 0.8790225 0.5483768 0.5240004
v 0.691162 2.50586 -0.3504114
v -1.361836E-07 0.6769636 0.7669547
v -1.036311E-07 2.461146 -0.1300231
v 0.691162 2.50586 -0.3504114
v 0.8790225 0.5483768 0.5240004
v -0.7451932 -2.036167 0.4158814
v -1.009499 -1.318478 0.6881945
v -1.053797 -1.785111 0.921653
v -0.7138458 -1.572146 0.1712343
v 2.026059E-07 -2.139611 0.2077552
v -0.9638048 -0.837143 0.4473813
v -1.513127E-07 -1.676894 -0.04201734
v -0.6815107 -1.093507 -0.08112216
v -5.163815E-07 -1.199597 -0.299657
v -1.513127E-07 -1.676894 -0.04201734
v 2.026059E-07 -2.139611 0.2077552
v 0.745185 -2.036167 0.4158814
v 0.7138414 -1.572146 0.1712343
v 1.053795 -1.785108 0.9216559
v 0.6815103 -1.093507 -0.08112216
v -5.163815E-07 -1.199597 -0.299657
v 1.009498 -1.318477 0.6881955
v 0.8249134 -1.59948 1.295462
v 0.963805 -0.8371411 0.4473813
v 0.7896725 -1.129973 1.072046
v 0.7533212 -0.645672 0.8415892
v 0.7896725 -1.129973 1.072046
v 0.8249134 -1.59948 1.295462
v 0.5975423 -1.513812 1.468051
v 0.5685062 -1.04335 1.248475
v 0.7533212 -0.645672 0.8415892
v 0.5385553 -0.5580655 1.021981
v -9.094454E-07 -1.4309 1.635325
v 0.5685062 -1.04335 1.248475
v 0.5975423 -1.513812 1.468051
v -5.573722E-07 -0.9599305 1.418528
v 0.5385553 -0.5580655 1.021981
v -0.7444115 -1.534192 1.426938
v -1.94207E-07 -0.4741269 1.194899
v -0.7134486 -1.064667 1.205006
v -1.053797 -1.785111 0.921653
v -0.6815103 -0.5803481 0.9760811
v -1.009499 -1.318478 0.6881945
v -0.9638048 -0.837143 0.4473813
v 1.053795 -1.785108 0.9216559
v 0.2501028 -1.737201 0.9215577
v 0.8249134 -1.59948 1.295462
v 0.745185 -2.036167 0.4158814
v 0.131506 -1.776423 0.834657
v 2.026059E-07 -2.139611 0.2077552
v 0.003411129 -1.801141 0.7870162
v -0.7451932 -2.036167 0.4158814
v -0.1079804 -1.769491 0.845834
v -1.053797 -1.785111 0.921653
v -0.1323487 -1.730618 0.9215443
v -0.7444115 -1.534192 1.426938
v -0.1113652 -1.693465 0.9995511
v -9.094454E-07 -1.4309 1.635325
v 0.003198764 -1.652864 1.092066
v 0.8249134 -1.59948 1.295462
v 0.5975423 -1.513812 1.468051
v -1.94207E-07 -0.4741269 1.194899
v -3.189846E-08 -0.7509423 0.6246264
v 0.5385553 -0.5580655 1.021981
v -0.6815103 -0.5803481 0.9760811
v -0.109155 -0.7951928 0.5334694
v -0.9638048 -0.837143 0.4473813
v -0.1367355 -0.8363038 0.4488204
v -0.6815107 -1.093507 -0.08112216
v 0.2265046 -0.8363953 0.4486639
v 0.5385553 -0.5580655 1.021981
v 0.7533212 -0.645672 0.8415892
v 0.963805 -0.8371411 0.4473813
v -0.1089182 -0.8772936 0.3643258
v -5.163815E-07 -1.199597 -0.299657
v 0.1131783 -0.8789024 0.3610117
v 0.6815103 -1.093507 -0.08112216
v -8.19753E-08 -0.9041977 0.308903
v 0.2423626 1.510666 0.01933801
v 0.2423633 -1.97026 1.620644
v -0.2424946 -1.705826 1.498999
v -0.2424953 1.510666 0.01933801
v -0.622502 -1.971454 1.442449
v -0.7315658 1.411665 -0.1486101
v 0.2423626 1.510666 0.01933801
v 0.7314329 1.411665 -0.1486101
v 0.6293794 -1.753993 1.340179
v 0.2423633 -1.97026 1.620644
v -0.9740503 1.183523 -0.5264803
v -0.7315658 1.411665 -0.1486101
v -0.622502 -1.971454 1.442449
v -0.833367 -2.21286 1.098134
v 0.7314329 1.411665 -0.1486101
v 0.9739176 1.183523 -0.5264803
v 0.8340839 -2.192346 1.088321
v 0.6293794 -1.753993 1.340179
v -0.5931504 -2.107063 0.5047619
v -0.9740503 1.183523 -0.5264803
v -0.833367 -2.21286 1.098134
v -0.6887744 0.9231747 -0.9721603
v -0.2424677 -2.505859 0.5745614
v -0.2424953 0.8532761 -1.091407
v 0.2423703 -2.126196 0.3863146
v 0.2423626 0.8532761 -1.091407
v 0.5912661 -2.162567 0.5318148
v 0.6886414 0.9231747 -0.9721603
v 0.8340839 -2.192346 1.088321
v 0.9739176 1.183523 -0.5264803
v -1.009258E-07 1.703263 -1.635325
v -1.143879E-07 2.082932 -0.8812265
v -0.691162 1.814104 -1.415223
v 0.691162 1.814104 -1.415223
v -0.9774543 2.081749 -0.8828368
v 0.9774544 2.081749 -0.8828368
v -0.691162 2.350176 -0.3504114
v 0.691162 2.50586 -0.3504114
v -1.036311E-07 2.461146 -0.1300231
v -0.622502 -1.971454 1.442449
v 0.02556256 -2.097793 1.002882
v -0.833367 -2.21286 1.098134
v -0.2424946 -1.705826 1.498999
v -0.5931504 -2.107063 0.5047619
v 0.2423633 -1.97026 1.620644
v -0.2424677 -2.505859 0.5745614
v 0.6293794 -1.753993 1.340179
v 0.2423703 -2.126196 0.3863146
v 0.8340839 -2.192346 1.088321
v 0.5912661 -2.162567 0.5318148
v -1.244348 0.2354591 -0.0648272
v -0.8786392 0.01564202 0.02818561
v -0.6189047 -0.2090512 -0.3941556
v -0.8799384 -0.07750904 -0.6542841
v -0.8790224 0.5483768 0.5240004
v -8.920627E-08 -0.3006965 -0.566168
v -0.6189047 0.2410019 0.4502203
v -1.148459E-07 -0.2066289 -0.8967653
v -1.361836E-07 0.6769636 0.7669547
v 0.6189047 -0.2090512 -0.3941556
v -8.920624E-08 0.3330153 0.6227267
v 0.8799382 -0.07750904 -0.6542841
v 0.8790225 0.5483768 0.5240004
v 0.8786393 0.01564202 0.02818561
v 0.6189047 0.2410019 0.4502203
v 1.244348 0.2354591 -0.0648272
vt 0.5267689 0.03550254
vt 0.5259031 0.03578074
vt 0.5267214 0.0353844
vt 0.5259584 0.03591089
vt 0.5268835 0.03578825
vt 0.5260925 0.03622721
vt 0.5269985 0.03607394
vt 0.5262265 0.03654321
vt 0.5270461 0.03619222
vt 0.5262817 0.03667359
vt 0.5267689 0.03550254
vt 0.5267214 0.0353844
vt 0.5259031 0.03578074
vt 0.5259584 0.03591089
vt 0.5260925 0.03622721
vt 0.5268835 0.03578825
vt 0.5262265 0.03654321
vt 0.5270652 0.03607394
vt 0.5292878 0.01276041
vt 0.5292878 0.01022695
vt 0.5248789 0.01016344
vt 0.5236804 0.012943
vt 0.5262085 0.03598496
vt 0.5265051 0.03613794
vt 0.526316 0.0362564
vt 0.5263964 0.03586081
vt 0.5261641 0.03587326
vt 0.5267221 0.03600189
vt 0.5263516 0.03574651
vt 0.5266123 0.03571826
vt 0.5265668 0.03560099
vt 0.5263516 0.03574651
vt 0.5261641 0.03587326
vt 0.5262085 0.03598496
vt 0.5263964 0.03586081
vt 0.526316 0.0362564
vt 0.5266123 0.03571826
vt 0.5265668 0.03560099
vt 0.5265051 0.03613794
vt 0.5263955 0.036457
vt 0.5267221 0.03600189
vt 0.5265857 0.0363436
vt 0.5268041 0.0362134
vt 0.5289331 0.01141526
vt 0.5296761 0.01061652
vt 0.5246071 0.01077063
vt 0.523995 0.01157097
vt 0.5280801 0.01233232
vt 0.5232921 0.01248991
vt 0.5760632 0.03530003
vt 0.5793033 0.03617592
vt 0.5794595 0.03509943
vt 0.5760632 0.03637771
vt 0.5791242 0.03741191
vt 0.5718321 0.03505011
vt 0.5760632 0.03761502
vt 0.5719985 0.03612448
vt 0.5700736 0.03444298
vt 0.5721896 0.037358
vt 0.5703117 0.03551073
vt 0.5705851 0.03673665
vt 0.5524963 0.03602922
vt 0.5497851 0.03610273
vt 0.5517242 0.03631398
vt 0.5514553 0.03564413
vt 0.5493851 0.03604254
vt 0.5489414 0.03548545
vt 0.5489529 0.03600465
vt 0.5464276 0.03564413
vt 0.5485772 0.03605317
vt 0.5453866 0.03602922
vt 0.5484949 0.0361128
vt 0.5464302 0.0364141
vt 0.5485657 0.0361698
vt 0.5489414 0.03657255
vt 0.5489522 0.03623207
vt 0.5511417 0.03637815
vt 0.5509572 0.03644538
vt 0.5489414 0.03658541
vt 0.5489414 0.0361608
vt 0.5507582 0.03645665
vt 0.5466424 0.03642248
vt 0.5485732 0.03609291
vt 0.5456901 0.03602854
vt 0.5484802 0.03602984
vt 0.5466424 0.03563531
vt 0.5497056 0.0360297
vt 0.5510066 0.03638256
vt 0.5514827 0.03632226
vt 0.5521927 0.03602854
vt 0.548574 0.03596697
vt 0.5489414 0.03547258
vt 0.5493233 0.0359645
vt 0.5512405 0.03563531
vt 0.5489414 0.03592571
vt 0.4649813 0.01331901
vt 0.4641752 0.01192337
vt 0.4641752 0.01192337
vt 0.4649813 0.01331892
vt 0.4642298 0.01189604
vt 0.4650475 0.01328813
vt 0.4649813 0.01331901
vt 0.4650475 0.01328813
vt 0.4642304 0.01189696
vt 0.4641752 0.01192337
vt 0.4665536 0.03612137
vt 0.4665766 0.03541949
vt 0.4626524 0.03565127
vt 0.4626461 0.03631082
vt 0.4627383 0.03501099
vt 0.4626569 0.03570664
vt 0.4664747 0.03671932
vt 0.4665658 0.03606871
vt 0.4629577 0.03493521
vt 0.4665329 0.03512922
vt 0.4630505 0.03435832
vt 0.4663897 0.03573793
vt 0.4629077 0.03518718
vt 0.4663212 0.03606224
vt 0.4628439 0.03554285
vt 0.4662576 0.03641731
vt 0.4628025 0.03579697
vt 0.4662086 0.03674662
vt 0.4626898 0.0363687
vt 0.4661305 0.03737199
vt 0.5489414 0.03360883
vt 0.5489414 0.03589856
vt 0.5468962 0.03427728
vt 0.5509866 0.03427728
vt 0.546049 0.03589142
vt 0.5518338 0.03589142
vt 0.5468962 0.03751025
vt 0.5509866 0.03844916
vt 0.5489414 0.03817949
vt 0.6834449 0.01305571
vt 0.6842546 0.01289068
vt 0.6831815 0.01292644
vt 0.6839197 0.01307694
vt 0.6834816 0.01270367
vt 0.6845255 0.01312261
vt 0.6839197 0.01272987
vt 0.685009 0.01301731
vt 0.6845255 0.0126592
vt 0.6852647 0.01292276
vt 0.6849614 0.01271383
vt 0.5431942 0.03632221
vt 0.5450547 0.03616868
vt 0.5460925 0.03457026
vt 0.5446615 0.03387402
vt 0.5450014 0.0386086
vt 0.5487781 0.03378996
vt 0.5463052 0.03766951
vt 0.5486926 0.03263259
vt 0.5491883 0.0394254
vt 0.5515577 0.03428803
vt 0.549097 0.0381723
vt 0.5528769 0.03345168
vt 0.5532256 0.0381916
vt 0.5528196 0.03577252
vt 0.5517958 0.03739184
vt 0.5546886 0.0357369
vn -0.6416144 -0.2296947 -0.7318274
vn 0 -0.7199209 -0.6940562
vn 0 -0.3527378 -0.9357222
vn -0.6197582 -0.6288059 -0.4695773
vn -0.9926443 0.1138177 -0.0412633
vn -0.9300582 -0.3282736 0.1650095
vn -0.6345984 0.3900849 0.6671722
vn -0.6082394 -0.03217587 0.7931012
vn -0.002000239 0.4477288 0.8941672
vn -0.01171168 0.06482467 0.9978279
vn 0.6416143 -0.2296948 -0.7318274
vn 0 -0.3527378 -0.9357222
vn 0 -0.7199209 -0.6940562
vn 0.6197582 -0.6288059 -0.4695774
vn 0.929715 -0.3328995 0.1575048
vn 0.9932379 0.1125994 -0.02828024
vn 0.6061968 -0.04106059 0.794254
vn 0.6240993 0.381198 0.6820471
vn -0.01171168 0.06482467 0.9978279
vn -0.002000239 0.4477288 0.8941672
vn 0.6240993 0.381198 0.6820471
vn 0.6061968 -0.04106059 0.794254
vn -0.6533327 -0.3164697 -0.6877523
vn -0.9977834 0.0597995 -0.02919695
vn -0.997794 0.06010852 -0.0281801
vn -0.6508765 -0.3182752 -0.6892464
vn 0 -0.4622053 -0.886773
vn -0.9977674 0.05846222 -0.03228416
vn 0 -0.4619097 -0.8869269
vn -0.6474752 -0.3205587 -0.6913885
vn 0 -0.4616168 -0.8870794
vn 0 -0.4619097 -0.8869269
vn 0 -0.4622053 -0.886773
vn 0.6533308 -0.3164741 -0.6877522
vn 0.6508762 -0.3182785 -0.6892452
vn 0.9976345 0.06217299 -0.02932263
vn 0.6474762 -0.320561 -0.6913865
vn 0 -0.4616168 -0.8870794
vn 0.9976243 0.06185264 -0.03032913
vn 0.7855632 0.3156781 0.5322011
vn 0.9976096 0.06049475 -0.03339756
vn 0.7893121 0.3135018 0.5279233
vn 0.793754 0.3110018 0.5227163
vn 0.7893121 0.3135018 0.5279233
vn 0.7855632 0.3156781 0.5322011
vn 0.4977753 0.390156 0.7745955
vn 0.5006366 0.3891936 0.7732343
vn 0.793754 0.3110018 0.5227163
vn 0.5039421 0.3881459 0.771612
vn -6.213837E-05 0.4300848 0.9027885
vn 0.5006366 0.3891936 0.7732343
vn 0.4977753 0.390156 0.7745955
vn -6.398714E-05 0.4303761 0.9026497
vn 0.5039421 0.3881459 0.771612
vn -0.6523345 0.3602895 0.6668215
vn -6.581337E-05 0.4306662 0.9025112
vn -0.6505426 0.360207 0.6686145
vn -0.997794 0.06010852 -0.0281801
vn -0.6501143 0.3597445 0.6692796
vn -0.9977834 0.0597995 -0.02919695
vn -0.9977674 0.05846222 -0.03228416
vn -0.05336174 -0.8942872 0.4443006
vn -0.04061002 -0.8989015 0.4362648
vn -0.0471785 -0.9113434 0.4089344
vn -0.03962718 -0.8741174 0.4840956
vn -0.02462898 -0.8846416 0.4656207
vn 5.098977E-05 -0.8634096 0.5045035
vn -0.004477226 -0.8770227 0.480428
vn 0.03943122 -0.8742758 0.4838253
vn 0.01745464 -0.8838598 0.4674262
vn 0.0529413 -0.8943098 0.4443054
vn 0.02501199 -0.8975512 0.4402003
vn 0.04156418 -0.9145285 0.4023805
vn 0.01753416 -0.9102806 0.4136204
vn 5.943248E-05 -0.9257128 0.3782272
vn -0.007074859 -0.9171088 0.3985743
vn -0.0471785 -0.9113434 0.4089344
vn -0.03389509 -0.9191387 0.3924731
vn 0 0.8996158 -0.4366824
vn 2.73675E-05 0.8996103 -0.4366936
vn 5.390343E-05 0.8995907 -0.4367339
vn -8.749219E-05 0.8995747 -0.4367668
vn -3.33916E-05 0.8995979 -0.4367193
vn -0.0001523013 0.899622 -0.4366696
vn -7.341847E-05 0.8996248 -0.4366637
vn -7.758322E-05 0.8996637 -0.4365836
vn 0.0001072213 0.8996326 -0.4366477
vn 5.390343E-05 0.8995907 -0.4367339
vn 0.0001155439 0.8995597 -0.4367979
vn 0.0001502634 0.899622 -0.4366695
vn -2.84603E-05 0.8996484 -0.4366151
vn 0 0.8996169 -0.4366801
vn 4.815334E-05 0.8996417 -0.436629
vn 7.64639E-05 0.8996636 -0.436584
vn 1.410809E-05 0.8996211 -0.4366714
vn 0.1908272 0.4095346 0.8921134
vn 0.1700038 -0.5262305 0.8331747
vn -0.1646761 -0.02702349 0.9859774
vn -0.19079 0.4094841 0.8921446
vn -0.3702718 -0.3254169 0.870059
vn -0.6622686 0.301092 0.6861078
vn 0.1908272 0.4095346 0.8921134
vn 0.6620863 0.3011969 0.6862376
vn 0.6106436 -0.07225228 0.7886025
vn 0.1700038 -0.5262305 0.8331747
vn -0.9990124 -0.01971837 0.03981686
vn -0.6622686 0.301092 0.6861078
vn -0.3702718 -0.3254169 0.870059
vn -0.662769 -0.7133144 0.2278595
vn 0.6620863 0.3011969 0.6862376
vn 0.9990019 -0.0195877 0.04014374
vn 0.6325518 -0.6839792 0.3633878
vn 0.6106436 -0.07225228 0.7886025
vn -0.6047461 -0.6313806 -0.4854284
vn -0.9990124 -0.01971837 0.03981686
vn -0.662769 -0.7133144 0.2278595
vn -0.6518545 -0.3494639 -0.6730236
vn -0.1836344 -0.9822519 -0.03820441
vn -0.1540358 -0.439445 -0.8849639
vn 0.2016384 -0.7566628 -0.6219351
vn 0.1538575 -0.4394881 -0.8849735
vn 0.4390058 -0.7773479 -0.4505598
vn 0.6517283 -0.3495321 -0.6731104
vn 0.6325518 -0.6839792 0.3633878
vn 0.9990019 -0.0195877 0.04014374
vn 0 0.8931826 -0.4496942
vn -0.02566787 0.8812029 -0.4720411
vn -0.000174505 0.8932899 -0.449481
vn 0.0001745168 0.8932899 -0.449481
vn -0.0003406823 0.8931939 -0.4496717
vn 0.0001275234 0.8411455 -0.540809
vn -0.0001940544 0.8930867 -0.4498847
vn -0.09097299 0.8332161 -0.5454125
vn -0.1028816 0.8884418 -0.4473103
vn -0.3702718 -0.3254169 0.870059
vn 0.05211116 -0.926477 0.3727262
vn -0.662769 -0.7133144 0.2278595
vn -0.1646761 -0.02702349 0.9859774
vn -0.6047461 -0.6313806 -0.4854284
vn 0.1700038 -0.5262305 0.8331747
vn -0.1836344 -0.9822519 -0.03820441
vn 0.6106436 -0.07225228 0.7886025
vn 0.2016384 -0.7566628 -0.6219351
vn 0.6325518 -0.6839792 0.3633878
vn 0.4390058 -0.7773479 -0.4505598
vn -0.9300582 -0.3282736 0.1650095
vn -0.5464515 -0.7454159 0.3817667
vn -0.3645549 -0.9255115 -0.1026061
vn -0.6197582 -0.6288059 -0.4695773
vn -0.6082394 -0.03217587 0.7931012
vn 0 -0.9623789 -0.2717112
vn -0.3496199 -0.4875133 0.8000605
vn 0 -0.7199209 -0.6940562
vn -0.01171168 0.06482467 0.9978279
vn 0.3645549 -0.9255115 -0.1026063
vn 0 -0.3878103 0.9217393
vn 0.6197582 -0.6288059 -0.4695774
vn 0.6061968 -0.04106059 0.794254
vn 0.5464516 -0.745416 0.3817666
vn 0.3496198 -0.4875133 0.8000605
vn 0.929715 -0.3328995 0.1575048
g Color_Boss_51_0
f 3/3/3 2/2/2 1/1/1
f 2/2/2 4/4/4 1/1/1
f 5/5/5 1/1/1 4/4/4
f 6/6/6 5/5/5 4/4/4
f 7/7/7 5/5/5 6/6/6
f 8/8/8 7/7/7 6/6/6
f 9/9/9 7/7/7 8/8/8
f 10/10/10 9/9/9 8/8/8
f 13/13/13 12/12/12 11/11/11
f 14/14/14 13/13/13 11/11/11
f 14/14/14 11/11/11 15/15/15
f 11/11/11 16/16/16 15/15/15
f 15/15/15 16/16/16 17/17/17
f 16/16/16 18/18/18 17/17/17
f 21/21/21 20/20/20 19/19/19
f 22/22/22 21/21/21 19/19/19
f 25/25/25 24/24/24 23/23/23
f 24/24/24 26/26/26 23/23/23
f 27/27/27 23/23/23 26/26/26
f 24/24/24 28/28/28 26/26/26
f 29/29/29 27/27/27 26/26/26
f 28/28/28 30/30/30 26/26/26
f 29/29/29 26/26/26 30/30/30
f 31/31/31 29/29/29 30/30/30
f 34/34/34 33/33/33 32/32/32
f 35/35/35 34/34/34 32/32/32
f 34/34/34 35/35/35 36/36/36
f 35/35/35 32/32/32 37/37/37
f 32/32/32 38/38/38 37/37/37
f 35/35/35 39/39/39 36/36/36
f 35/35/35 37/37/37 39/39/39
f 36/36/36 39/39/39 40/40/40
f 37/37/37 41/41/41 39/39/39
f 39/39/39 42/42/42 40/40/40
f 39/39/39 41/41/41 42/42/42
f 41/41/41 43/43/43 42/42/42
f 46/46/46 45/45/45 44/44/44
f 47/47/47 46/46/46 44/44/44
f 47/47/47 44/44/44 48/48/48
f 49/49/49 47/47/47 48/48/48
f 52/52/52 51/51/51 50/50/50
f 51/51/51 53/53/53 50/50/50
f 51/51/51 54/54/54 53/53/53
f 50/50/50 53/53/53 55/55/55
f 54/54/54 56/56/56 53/53/53
f 53/53/53 57/57/57 55/55/55
f 53/53/53 56/56/56 57/57/57
f 55/55/55 57/57/57 58/58/58
f 56/56/56 59/59/59 57/57/57
f 57/57/57 60/60/60 58/58/58
f 57/57/57 59/59/59 60/60/60
f 59/59/59 61/61/61 60/60/60
f 64/64/64 63/63/63 62/62/62
f 62/62/62 63/63/63 65/65/65
f 63/63/63 66/66/66 65/65/65
f 65/65/65 66/66/66 67/67/67
f 66/66/66 68/68/68 67/67/67
f 67/67/67 68/68/68 69/69/69
f 70/70/70 68/68/68 66/66/66
f 68/68/68 70/70/70 69/69/69
f 66/66/66 63/63/63 70/70/70
f 69/69/69 70/70/70 71/71/71
f 70/70/70 72/72/72 71/71/71
f 63/63/63 72/72/72 70/70/70
f 71/71/71 72/72/72 73/73/73
f 72/72/72 74/74/74 73/73/73
f 63/63/63 74/74/74 72/72/72
f 73/73/73 74/74/74 75/75/75
f 63/63/63 76/76/76 74/74/74
f 74/74/74 76/76/76 75/75/75
f 76/76/76 63/63/63 77/77/77
f 75/75/75 76/76/76 78/78/78
f 78/78/78 76/76/76 77/77/77
f 81/81/81 80/80/80 79/79/79
f 79/79/79 80/80/80 82/82/82
f 80/80/80 83/83/83 82/82/82
f 82/82/82 83/83/83 84/84/84
f 83/83/83 85/85/85 84/84/84
f 85/85/85 83/83/83 80/80/80
f 84/84/84 85/85/85 86/86/86
f 85/85/85 80/80/80 87/87/87
f 87/87/87 80/80/80 88/88/88
f 89/89/89 87/87/87 88/88/88
f 90/90/90 87/87/87 89/89/89
f 85/85/85 91/91/91 86/86/86
f 91/91/91 85/85/85 87/87/87
f 86/86/86 91/91/91 92/92/92
f 93/93/93 87/87/87 90/90/90
f 91/91/91 87/87/87 93/93/93
f 94/94/94 93/93/93 90/90/90
f 91/91/91 95/95/95 92/92/92
f 93/93/93 95/95/95 91/91/91
f 95/95/95 93/93/93 94/94/94
f 92/92/92 95/95/95 94/94/94
f 98/98/98 97/97/97 96/96/96
f 99/99/99 98/98/98 96/96/96
f 98/98/98 99/99/99 100/100/100
f 99/99/99 101/101/101 100/100/100
f 104/104/104 103/103/103 102/102/102
f 105/105/105 104/104/104 102/102/102
f 108/108/108 107/107/107 106/106/106
f 109/109/109 108/108/108 106/106/106
f 112/112/112 111/111/111 110/110/110
f 113/113/113 112/112/112 110/110/110
f 116/116/116 115/115/115 114/114/114
f 115/115/115 117/117/117 114/114/114
f 114/114/114 117/117/117 118/118/118
f 117/117/117 119/119/119 118/118/118
f 120/120/120 118/118/118 119/119/119
f 121/121/121 120/120/120 119/119/119
f 120/120/120 121/121/121 122/122/122
f 121/121/121 123/123/123 122/122/122
f 122/122/122 123/123/123 124/124/124
f 123/123/123 125/125/125 124/124/124
f 128/128/128 127/127/127 126/126/126
f 126/126/126 127/127/127 129/129/129
f 130/130/130 127/127/127 128/128/128
f 129/129/129 127/127/127 131/131/131
f 132/132/132 127/127/127 130/130/130
f 131/131/131 127/127/127 133/133/133
f 134/134/134 127/127/127 132/132/132
f 133/133/133 127/127/127 134/134/134
f 137/137/137 136/136/136 135/135/135
f 135/135/135 136/136/136 138/138/138
f 139/139/139 136/136/136 137/137/137
f 138/138/138 136/136/136 140/140/140
f 141/141/141 136/136/136 139/139/139
f 140/140/140 136/136/136 142/142/142
f 143/143/143 136/136/136 141/141/141
f 142/142/142 136/136/136 144/144/144
f 145/145/145 136/136/136 143/143/143
f 144/144/144 136/136/136 145/145/145
f 148/148/148 147/147/147 146/146/146
f 149/149/149 148/148/148 146/146/146
f 146/146/146 147/147/147 150/150/150
f 151/151/151 148/148/148 149/149/149
f 147/147/147 152/152/152 150/150/150
f 153/153/153 151/151/151 149/149/149
f 150/150/150 152/152/152 154/154/154
f 155/155/155 151/151/151 153/153/153
f 152/152/152 156/156/156 154/154/154
f 157/157/157 155/155/155 153/153/153
f 154/154/154 156/156/156 158/158/158
f 159/159/159 155/155/155 157/157/157
f 156/156/156 160/160/160 158/158/158
f 161/161/161 159/159/159 157/157/157
f 158/158/158 160/160/160 161/161/161
f 160/160/160 159/159/159 161/161/161
