g Color_Guns_011
v 2.328184 -0.6383777 1.541178
v 1.680576 -0.7108719 1.468683
v 1.680576 -0.5358548 1.541178
v 1.381815 -0.4560129 1.375662
v 1.680576 -0.5358548 1.541178
v 1.680576 -0.7108719 1.468683
v -2.328188 1.541178 0.638376
v -2.328188 1.541178 -0.6383774
v 1.381818 1.37405 -0.5698165
v 1.381817 1.374049 0.5698187
v 1.680575 1.541176 0.638378
v 1.680577 1.541177 -0.6383752
v 2.328184 1.541176 0.6383784
v 2.328185 1.541177 -0.6383747
v -2.328188 0.6383765 1.541176
v -2.328188 1.541178 0.638376
v 1.381817 1.374049 0.5698187
v 1.381817 0.5682045 1.375663
v 1.680578 0.6383753 1.541179
v 1.680575 1.541176 0.638378
v 2.328184 0.638375 1.541179
v 2.328184 1.541176 0.6383784
v -2.32819 -0.6383763 1.541175
v -2.328188 0.6383765 1.541176
v 1.381817 0.5682045 1.375663
v 1.381815 -0.4560129 1.375662
v 1.680576 -0.5358548 1.541178
v 1.680578 0.6383753 1.541179
v 2.328184 -0.6383777 1.541178
v 2.328184 0.638375 1.541179
v -2.328189 -1.541177 0.6383747
v -2.32819 -0.6383763 1.541175
v 1.381815 -0.4560129 1.375662
v 1.381817 -1.377274 0.5698179
v 1.680576 -1.541178 0.6383771
v 1.680576 -0.7108719 1.468683
v 2.328186 -1.541178 0.6383774
v 2.328184 -0.6383777 1.541178
v -2.32819 -1.541176 -0.638378
v -2.328189 -1.541177 0.6383747
v 1.381817 -1.377274 0.5698179
v 1.381816 -1.377274 -0.5698176
v 1.680578 -1.541177 -0.638376
v 1.680576 -1.541178 0.6383771
v 2.328185 -1.541177 -0.6383756
v 2.328186 -1.541178 0.6383774
v -2.328189 -0.638375 -1.541179
v -2.32819 -1.541176 -0.638378
v 1.381816 -1.377274 -0.5698176
v 1.381816 -0.5714293 -1.375662
v 1.680577 -0.638376 -1.541177
v 1.680578 -1.541177 -0.638376
v 2.328185 -0.6383764 -1.541176
v 2.328185 -1.541177 -0.6383756
v -2.328188 0.6383777 -1.541178
v -2.328189 -0.638375 -1.541179
v 1.381816 -0.5714293 -1.375662
v 1.381818 0.5682062 -1.375661
v -2.328188 1.541178 -0.6383774
v 1.381818 1.37405 -0.5698165
v 1.680577 1.541177 -0.6383752
v 1.680579 0.6383765 -1.541176
v 2.328185 1.541177 -0.6383747
v 1.680577 -0.638376 -1.541177
v 2.328187 0.6383764 -1.541175
v 2.328185 -0.6383764 -1.541176
v 2.328187 0.4095224 -0.9886739
v 1.005608 -6.263247E-07 1.109356E-06
v 2.328186 0.9886749 -0.4095213
v 2.328186 -0.4095229 -0.9886745
v 2.328185 0.9886746 0.4095244
v 2.328186 -0.9886758 -0.4095218
v 2.328185 0.4095216 0.988677
v 2.328186 -0.9886762 0.4095238
v 2.328185 -0.4095238 0.9886765
v 2.328187 0.6383764 -1.541175
v 2.328187 0.4095224 -0.9886739
v 2.328186 0.9886749 -0.4095213
v 2.328185 1.541177 -0.6383747
v 2.328185 -0.6383764 -1.541176
v 2.328185 0.9886746 0.4095244
v 2.328186 -0.4095229 -0.9886745
v 2.328184 1.541176 0.6383784
v 2.328185 -1.541177 -0.6383756
v 2.328185 0.4095216 0.988677
v 2.328186 -0.9886758 -0.4095218
v 2.328184 0.638375 1.541179
v 2.328186 -1.541178 0.6383774
v 2.328185 -0.4095238 0.9886765
v 2.328186 -0.9886762 0.4095238
v 2.328184 -0.6383777 1.541178
vt 0.5372712 0.07130031
vt 0.5372006 0.07140328
vt 0.5373522 0.07138802
vt 0.5372006 0.07161044
vt 0.5373522 0.07109316
vt 0.5372006 0.07109709
vt 0.5344875 0.09797213
vt 0.5344875 0.09898128
vt 0.5374038 0.09877228
vt 0.5374038 0.09797213
vt 0.5379172 0.09797213
vt 0.5379172 0.09898128
vt 0.5384712 0.09797213
vt 0.5384712 0.09898128
vt 0.5344876 0.09797215
vt 0.5344876 0.0989813
vt 0.5374039 0.0989813
vt 0.5374039 0.09818115
vt 0.5379172 0.09797215
vt 0.5379172 0.0989813
vt 0.5384712 0.09797215
vt 0.5384712 0.0989813
vt 0.5359749 0.1004686
vt 0.536984 0.1004686
vt 0.536775 0.09755226
vt 0.5360559 0.09755226
vt 0.5360559 0.09703892
vt 0.536984 0.09703892
vt 0.5359749 0.09695121
vt 0.536984 0.09648486
vt 0.5384712 0.0989813
vt 0.5384712 0.09797213
vt 0.5355549 0.09805316
vt 0.5355549 0.09877227
vt 0.5350416 0.0989813
vt 0.5350416 0.09805316
vt 0.5344876 0.0989813
vt 0.5349539 0.09797213
vt 0.5384712 0.09898128
vt 0.5384712 0.09797213
vt 0.5355549 0.09818115
vt 0.5355549 0.09898128
vt 0.5350416 0.09898128
vt 0.5350416 0.09797213
vt 0.5344875 0.09898128
vt 0.5344875 0.09797213
vt 0.5384712 0.09898128
vt 0.5384712 0.09797215
vt 0.5355549 0.09797213
vt 0.5355549 0.09877228
vt 0.5350416 0.09898128
vt 0.5350416 0.09797213
vt 0.5344875 0.09898128
vt 0.5344875 0.09797213
vt 0.5384712 0.0984767
vt 0.5384712 0.09746756
vt 0.5355549 0.09767657
vt 0.5355549 0.0984767
vt 0.5384712 0.09948587
vt 0.5355549 0.09927686
vt 0.5350416 0.09948587
vt 0.5350416 0.0984767
vt 0.5344875 0.09948587
vt 0.5350416 0.09746756
vt 0.5344875 0.0984767
vt 0.5344875 0.09746756
vt 0.5391282 0.1216553
vt 0.5378979 0.1220529
vt 0.5384075 0.1210932
vt 0.5391282 0.1224504
vt 0.5373884 0.1210932
vt 0.5384075 0.1230126
vt 0.5366678 0.1216553
vt 0.5373884 0.1230126
vt 0.5366678 0.1224504
vt 0.5369982 0.07225057
vt 0.5369982 0.07225057
vt 0.5372071 0.07204164
vt 0.5372071 0.07204164
vt 0.5369982 0.07254601
vt 0.5375025 0.07204164
vt 0.5369982 0.07254601
vt 0.5375025 0.07204164
vt 0.5372071 0.07275494
vt 0.5377114 0.07225057
vt 0.5372071 0.07275494
vt 0.5377114 0.07225057
vt 0.5375025 0.07275494
vt 0.5377114 0.07254601
vt 0.5375025 0.07275494
vt 0.5377114 0.07254601
vn -0.0604722 -0.3819838 0.9221885
vn -0.2647813 -0.3690256 0.8909046
vn -0.3146196 -0.3632506 0.8769627
vn -0.5233068 -0.3261021 0.7872785
vn -0.3146196 -0.3632506 0.8769627
vn -0.2647813 -0.3690256 0.8909046
vn 0.04863307 0.9228014 0.3821943
vn 0.04863339 0.9228016 -0.3821935
vn -0.2638544 0.8910356 -0.3693732
vn -0.2638552 0.8910352 0.3693735
vn -0.2530227 0.8938749 0.3700908
vn -0.2530214 0.8938754 -0.3700906
vn 0 0.9238794 0.3826838
vn 0 0.9238796 -0.3826833
vn 0.04839832 0.3823231 0.9227604
vn 0.04863307 0.9228014 0.3821943
vn -0.2638552 0.8910352 0.3693735
vn -0.2627818 0.3686266 0.8916615
vn -0.252102 0.3706629 0.893898
vn -0.2530227 0.8938749 0.3700908
vn 0 0.3826829 0.9238798
vn 0 0.9238794 0.3826838
vn 0.05352928 -0.3731149 0.9262397
vn 0.04839832 0.3823231 0.9227604
vn -0.2627818 0.3686266 0.8916615
vn -0.2533585 -0.3179232 0.9136379
vn -0.2186225 0 0.9758095
vn -0.252102 0.3706629 0.893898
vn 0 -0.3826841 0.9238793
vn 0 0.3826829 0.9238798
vn 0.05392781 -0.9162013 0.3970731
vn 0.05352928 -0.3731149 0.9262397
vn -0.2533585 -0.3179232 0.9136379
vn -0.2856849 -0.8807316 0.3777511
vn -0.272464 -0.8880991 0.3701936
vn -0.3035464 -0.6628456 0.6844671
vn 0 -0.9238797 0.3826831
vn 0 -0.3826841 0.9238793
vn 0.04783272 -0.9228067 -0.3822825
vn 0.05392781 -0.9162013 0.3970731
vn -0.2856849 -0.8807316 0.3777511
vn -0.2601857 -0.8921641 -0.3692517
vn -0.2498647 -0.8945158 -0.3706875
vn -0.272464 -0.8880991 0.3701936
vn 0 -0.9238794 -0.3826835
vn 0 -0.9238797 0.3826831
vn 0.04806753 -0.3821521 -0.9228484
vn 0.04783272 -0.9228067 -0.3822825
vn -0.2601857 -0.8921641 -0.3692517
vn -0.2612603 -0.3699994 -0.8915401
vn -0.2507933 -0.3701106 -0.8944948
vn -0.2498647 -0.8945158 -0.3706875
vn 0 -0.3826831 -0.9238796
vn 0 -0.9238794 -0.3826835
vn 0.04839916 0.382324 -0.9227599
vn 0.04806753 -0.3821521 -0.9228484
vn -0.2612603 -0.3699994 -0.8915401
vn -0.2627798 0.368628 -0.8916614
vn 0.04863339 0.9228016 -0.3821935
vn -0.2638544 0.8910356 -0.3693732
vn -0.2530214 0.8938754 -0.3700906
vn -0.2521004 0.3706639 -0.8938979
vn 0 0.9238796 -0.3826833
vn -0.2507933 -0.3701106 -0.8944948
vn 0 0.3826838 -0.9238794
vn 0 -0.3826831 -0.9238796
vn 0.6290118 -0.2974968 0.7182199
vn 1 0 0
vn 0.629012 -0.7182195 0.297497
vn 0.6290121 0.2974956 0.7182201
vn 0.6290123 -0.7182196 -0.2974961
vn 0.629012 0.7182198 0.2974967
vn 0.6290125 -0.2974959 -0.7182196
vn 0.6290121 0.7182201 -0.2974957
vn 0.6290125 0.297497 -0.7182192
vn 1 0 0
vn 1 0 0
vn 1 0 0
vn 1 0 0
vn 1 0 0
vn 1 0 0
vn 1 0 0
vn 1 0 0
vn 1 0 0
vn 1 0 0
vn 1 0 0
vn 1 0 0
vn 1 0 0
vn 1 0 0
vn 1 0 0
vn 1 0 0
g Color_Guns_011_0
f 3/3/3 2/2/2 1/1/1
f 6/6/6 5/5/5 4/4/4
f 9/9/9 8/8/8 7/7/7
f 10/10/10 9/9/9 7/7/7
f 9/9/9 10/10/10 11/11/11
f 12/12/12 9/9/9 11/11/11
f 12/12/12 11/11/11 13/13/13
f 14/14/14 12/12/12 13/13/13
f 17/17/17 16/16/16 15/15/15
f 18/18/18 17/17/17 15/15/15
f 17/17/17 18/18/18 19/19/19
f 20/20/20 17/17/17 19/19/19
f 20/20/20 19/19/19 21/21/21
f 22/22/22 20/20/20 21/21/21
f 25/25/25 24/24/24 23/23/23
f 26/26/26 25/25/25 23/23/23
f 25/25/25 26/26/26 27/27/27
f 28/28/28 25/25/25 27/27/27
f 27/27/27 29/29/29 28/28/28
f 29/29/29 30/30/30 28/28/28
f 33/33/33 32/32/32 31/31/31
f 34/34/34 33/33/33 31/31/31
f 33/33/33 34/34/34 35/35/35
f 36/36/36 33/33/33 35/35/35
f 36/36/36 35/35/35 37/37/37
f 38/38/38 36/36/36 37/37/37
f 41/41/41 40/40/40 39/39/39
f 42/42/42 41/41/41 39/39/39
f 41/41/41 42/42/42 43/43/43
f 44/44/44 41/41/41 43/43/43
f 44/44/44 43/43/43 45/45/45
f 46/46/46 44/44/44 45/45/45
f 49/49/49 48/48/48 47/47/47
f 50/50/50 49/49/49 47/47/47
f 49/49/49 50/50/50 51/51/51
f 52/52/52 49/49/49 51/51/51
f 52/52/52 51/51/51 53/53/53
f 54/54/54 52/52/52 53/53/53
f 57/57/57 56/56/56 55/55/55
f 58/58/58 57/57/57 55/55/55
f 58/58/58 55/55/55 59/59/59
f 60/60/60 58/58/58 59/59/59
f 58/58/58 60/60/60 61/61/61
f 57/57/57 58/58/58 62/62/62
f 62/62/62 58/58/58 61/61/61
f 62/62/62 61/61/61 63/63/63
f 64/64/64 57/57/57 62/62/62
f 65/65/65 62/62/62 63/63/63
f 64/64/64 62/62/62 65/65/65
f 66/66/66 64/64/64 65/65/65
f 69/69/69 68/68/68 67/67/67
f 67/67/67 68/68/68 70/70/70
f 71/71/71 68/68/68 69/69/69
f 70/70/70 68/68/68 72/72/72
f 73/73/73 68/68/68 71/71/71
f 72/72/72 68/68/68 74/74/74
f 75/75/75 68/68/68 73/73/73
f 74/74/74 68/68/68 75/75/75
f 78/78/78 77/77/77 76/76/76
f 79/79/79 78/78/78 76/76/76
f 76/76/76 77/77/77 80/80/80
f 81/81/81 78/78/78 79/79/79
f 77/77/77 82/82/82 80/80/80
f 83/83/83 81/81/81 79/79/79
f 80/80/80 82/82/82 84/84/84
f 85/85/85 81/81/81 83/83/83
f 82/82/82 86/86/86 84/84/84
f 87/87/87 85/85/85 83/83/83
f 84/84/84 86/86/86 88/88/88
f 89/89/89 85/85/85 87/87/87
f 86/86/86 90/90/90 88/88/88
f 91/91/91 89/89/89 87/87/87
f 88/88/88 90/90/90 91/91/91
f 90/90/90 89/89/89 91/91/91
