g Color_08
v 3.943902 3.943903 0.6020297
v 4.591996 1.230422 0.2032579
v 5.387473 1.443567 0.6020309
v 3.361574 3.361573 0.2032569
v 1.443567 5.387472 0.602029
v 1.23042 4.591995 0.2032563
v -1.44357 5.387471 0.602029
v 1.23042 4.591995 0.2032563
v 1.443567 5.387472 0.602029
v -1.230423 4.591994 0.2032563
v -3.943907 3.943905 0.6020297
v -3.361576 3.361573 0.2032569
v -5.387474 1.443569 0.6020309
v -3.361576 3.361573 0.2032569
v -3.943907 3.943905 0.6020297
v -4.591994 1.230421 0.2032579
v -5.387473 -1.44357 0.6020323
v -4.591996 -1.230422 0.2032591
v -3.943905 -3.943903 0.6020335
v -4.591996 -1.230422 0.2032591
v -5.387473 -1.44357 0.6020323
v -3.361574 -3.361574 0.2032601
v -1.44357 -5.387473 0.6020342
v -1.230423 -4.591994 0.2032607
v 1.443568 -5.387472 0.6020342
v -1.230423 -4.591994 0.2032607
v -1.44357 -5.387473 0.6020342
v 1.23042 -4.591995 0.2032607
v 3.943902 -3.943906 0.6020335
v 3.361572 -3.361575 0.2032601
v 5.387475 -1.443571 0.6020323
v 3.361572 -3.361575 0.2032601
v 3.943902 -3.943906 0.6020335
v 4.591995 -1.230424 0.2032591
v 5.387473 1.443567 0.6020309
v 4.591996 1.230422 0.2032579
v 4.076572 4.076573 1.375761
v 5.387473 1.443567 0.6020309
v 5.568703 1.49213 1.375762
v 3.943902 3.943903 0.6020297
v 1.492128 5.568705 1.37576
v 1.443567 5.387472 0.602029
v -1.492131 5.568704 1.37576
v 1.443567 5.387472 0.602029
v 1.492128 5.568705 1.37576
v -1.44357 5.387471 0.602029
v -4.076576 4.076573 1.375761
v -3.943907 3.943905 0.6020297
v -5.568705 1.49213 1.375762
v -3.943907 3.943905 0.6020297
v -4.076576 4.076573 1.375761
v -5.387474 1.443569 0.6020309
v -5.568704 -1.49213 1.375763
v -5.387473 -1.44357 0.6020323
v -4.076575 -4.076573 1.375764
v -5.387473 -1.44357 0.6020323
v -5.568704 -1.49213 1.375763
v -3.943905 -3.943903 0.6020335
v -1.492131 -5.568704 1.375765
v -1.44357 -5.387473 0.6020342
v 1.492128 -5.568704 1.375765
v -1.44357 -5.387473 0.6020342
v -1.492131 -5.568704 1.375765
v 1.443568 -5.387472 0.6020342
v 4.076573 -4.076576 1.375764
v 3.943902 -3.943906 0.6020335
v 5.568705 -1.492132 1.375759
v 3.943902 -3.943906 0.6020335
v 4.076573 -4.076576 1.375764
v 5.387475 -1.443571 0.6020323
v 5.568703 1.49213 1.375762
v 5.387473 1.443567 0.6020309
v -3.537714 3.537713 2.334024
v -4.076576 4.076573 1.375761
v -1.492131 5.568704 1.37576
v -1.294894 4.832604 2.334023
v 1.492128 5.568705 1.37576
v -0.9793755 3.655072 3.185148
v -2.675701 2.6757 3.185148
v 1.294891 4.832604 2.334024
v 4.076572 4.076573 1.375761
v -0.7384247 2.755835 3.556422
v -2.017415 2.017415 3.556421
v 0.7384248 2.755841 3.556421
v 0.9793738 3.655076 3.185148
v 2.017411 2.017411 3.556428
v 2.675699 2.675698 3.185152
v 2.755836 0.7384247 3.556428
v 3.655074 0.9793754 3.185153
v 3.537712 3.537713 2.334024
v 5.568703 1.49213 1.375762
v 4.832605 1.294893 2.334025
v -4.832605 -1.294893 2.334027
v -5.568704 -1.49213 1.375763
v -5.568705 1.49213 1.375762
v -4.832603 1.294894 2.334025
v -4.076576 4.076573 1.375761
v -3.537714 3.537713 2.334024
v -2.675701 2.6757 3.185148
v -3.655075 0.979375 3.185153
v -2.017415 2.017415 3.556421
v -3.655075 -0.9793733 3.185149
v -2.755838 0.7384251 3.556428
v -2.755839 -0.7384239 3.556422
v 3.53771 -3.537714 2.334027
v 4.076573 -4.076576 1.375764
v 1.492128 -5.568704 1.375765
v 1.294892 -4.832604 2.334028
v -1.492131 -5.568704 1.375765
v 0.9793741 -3.655072 3.185155
v 2.6757 -2.6757 3.185151
v -1.294894 -4.832602 2.334028
v -4.076575 -4.076573 1.375764
v 0.738424 -2.755837 3.55643
v 2.017412 -2.017413 3.556423
v -0.7384259 -2.755837 3.556424
v -0.9793757 -3.655074 3.185151
v -2.017414 -2.017412 3.556423
v -2.6757 -2.675698 3.18515
v -2.755839 -0.7384239 3.556422
v -3.655075 -0.9793733 3.185149
v -3.537712 -3.537711 2.334028
v -5.568704 -1.49213 1.375763
v -4.832605 -1.294893 2.334027
v 4.832605 1.294893 2.334025
v 5.568703 1.49213 1.375762
v 5.568705 -1.492132 1.375759
v 4.832606 -1.294894 2.334027
v 4.076573 -4.076576 1.375764
v 3.53771 -3.537714 2.334027
v 2.6757 -2.6757 3.185151
v 3.655074 0.9793754 3.185153
v 3.655074 -0.9793749 3.18515
v 2.017412 -2.017413 3.556423
v 2.75584 -0.7384252 3.556422
v 2.755836 0.7384247 3.556428
v 1.479231 1.479231 2.847914
v 2.020668 0.5414366 2.847914
v 5.645273E-13 -1.724841E-07 2.360335
v 0.5414368 2.020672 2.847908
v 2.020672 -0.5414374 2.847909
v -0.5414375 2.020667 2.847908
v 1.479231 -1.479233 2.847909
v -1.479235 1.479234 2.847908
v 0.5414375 -2.020669 2.847916
v -2.02067 0.5414371 2.847914
v -0.5414368 -2.020668 2.84791
v -2.02067 -0.5414363 2.847908
v -1.479233 -1.479232 2.847909
v 2.017411 2.017411 3.556428
v 2.755836 0.7384247 3.556428
v 2.020669 0.5414369 3.613807
v 1.479231 1.479232 3.613807
v 2.020671 -0.5414373 3.613802
v 0.7384248 2.755841 3.556421
v 2.75584 -0.7384252 3.556422
v 0.5414371 2.020673 3.613801
v 1.479231 -1.479233 3.613802
v -0.7384247 2.755835 3.556422
v 2.017412 -2.017413 3.556423
v -0.5414367 2.020667 3.613801
v 0.5414362 -2.020669 3.613809
v -2.017415 2.017415 3.556421
v 0.738424 -2.755837 3.55643
v -1.479234 1.479234 3.613801
v -0.5414381 -2.020669 3.613803
v -2.755838 0.7384251 3.556428
v -0.7384259 -2.755837 3.556424
v -2.02067 0.5414373 3.613807
v -1.479234 -1.479232 3.613802
v -2.755839 -0.7384239 3.556422
v -2.017414 -2.017412 3.556423
v -2.02067 -0.5414362 3.613801
v 2.020669 0.5414369 3.613807
v 2.020668 0.5414366 2.847914
v 1.479231 1.479231 2.847914
v 1.479231 1.479232 3.613807
v 2.020671 -0.5414373 3.613802
v 0.5414368 2.020672 2.847908
v 2.020672 -0.5414374 2.847909
v 0.5414371 2.020673 3.613801
v 1.479231 -1.479233 3.613802
v -0.5414375 2.020667 2.847908
v 1.479231 -1.479233 2.847909
v -0.5414367 2.020667 3.613801
v 0.5414362 -2.020669 3.613809
v -1.479235 1.479234 2.847908
v 0.5414375 -2.020669 2.847916
v -1.479234 1.479234 3.613801
v -0.5414381 -2.020669 3.613803
v -2.02067 0.5414371 2.847914
v -0.5414368 -2.020668 2.84791
v -2.02067 0.5414373 3.613807
v -1.479234 -1.479232 3.613802
v -2.02067 -0.5414363 2.847908
v -1.479233 -1.479232 2.847909
v -2.02067 -0.5414362 3.613801
vt 0.00925009 0.03667416
vt 0.009980574 0.03328583
vt 0.009980574 0.03667416
vt 0.00925009 0.03328583
vt 0.008564278 0.03667416
vt 0.008564278 0.03328583
vt 0.01212902 0.03667399
vt 0.0128905 0.03328949
vt 0.0128905 0.03667399
vt 0.01212902 0.03328949
vt 0.01142469 0.03667399
vt 0.01142469 0.03328949
vt 0.01070699 0.03667399
vt 0.01142469 0.03328949
vt 0.01142469 0.03667399
vt 0.01070699 0.03328949
vt 0.009986311 0.03667399
vt 0.009986311 0.03328949
vt 0.009256646 0.03667399
vt 0.009986311 0.03328949
vt 0.009986311 0.03667399
vt 0.009256646 0.03328949
vt 0.00856182 0.03667399
vt 0.00856182 0.03328949
vt 0.01212572 0.03667416
vt 0.01288804 0.03328583
vt 0.01288804 0.03667416
vt 0.01212572 0.03328583
vt 0.01142056 0.03667416
vt 0.01142056 0.03328583
vt 0.01070207 0.03667416
vt 0.01142056 0.03328583
vt 0.01142056 0.03667416
vt 0.01070207 0.03328583
vt 0.009980574 0.03667416
vt 0.009980574 0.03328583
vt 0.009319946 0.007933954
vt 0.01001586 0.007724928
vt 0.01001586 0.007933954
vt 0.009319946 0.007724928
vt 0.00866662 0.007933954
vt 0.00866662 0.007724928
vt 0.01206262 0.007933835
vt 0.01278804 0.007725047
vt 0.01278804 0.007933835
vt 0.01206262 0.007725047
vt 0.01139162 0.007933835
vt 0.01139162 0.007725047
vt 0.0107079 0.007933835
vt 0.01139162 0.007725047
vt 0.01139162 0.007933835
vt 0.0107079 0.007725047
vt 0.01002131 0.007933835
vt 0.01002131 0.007725047
vt 0.009326205 0.007933835
vt 0.01002131 0.007725047
vt 0.01002131 0.007933835
vt 0.009326205 0.007725047
vt 0.008664265 0.007933835
vt 0.008664265 0.007725047
vt 0.01205947 0.007933954
vt 0.01278572 0.007724928
vt 0.01278572 0.007933954
vt 0.01205947 0.007724928
vt 0.01138769 0.007933954
vt 0.01138769 0.007724928
vt 0.01070319 0.007933954
vt 0.01138769 0.007724928
vt 0.01138769 0.007933954
vt 0.01070319 0.007724928
vt 0.01001586 0.007933954
vt 0.01001586 0.007724928
vt 0.03225306 0.01296079
vt 0.03207012 0.01314372
vt 0.03269164 0.0135026
vt 0.03275861 0.01325271
vt 0.03340936 0.0135026
vt 0.03283808 0.01295619
vt 0.03247018 0.01274371
vt 0.03334239 0.01325271
vt 0.03403088 0.01314371
vt 0.03289007 0.01276198
vt 0.03261231 0.01260141
vt 0.03321093 0.01276199
vt 0.03326292 0.0129562
vt 0.03348871 0.01260141
vt 0.03363082 0.01274371
vt 0.03364901 0.01232363
vt 0.03384337 0.0123758
vt 0.03384794 0.01296079
vt 0.03438975 0.01252218
vt 0.03413987 0.01245523
vt 0.03196113 0.01187141
vt 0.03171124 0.01180446
vt 0.03171124 0.01252218
vt 0.03196113 0.01245523
vt 0.03207012 0.01314372
vt 0.03225306 0.01296079
vt 0.03247018 0.01274371
vt 0.03225763 0.0123758
vt 0.03261231 0.01260141
vt 0.03225763 0.01195084
vt 0.03245197 0.01232363
vt 0.03245197 0.012003
vt 0.03384794 0.01136585
vt 0.03403088 0.01118292
vt 0.03340936 0.01082404
vt 0.03334239 0.01107392
vt 0.03269164 0.01082404
vt 0.03326292 0.01137044
vt 0.03363083 0.01158292
vt 0.03275861 0.01107392
vt 0.03207012 0.01118292
vt 0.03321093 0.01156465
vt 0.03348871 0.01172523
vt 0.03289007 0.01156465
vt 0.03283808 0.01137044
vt 0.03261231 0.01172523
vt 0.03247018 0.01158292
vt 0.03245197 0.012003
vt 0.03225763 0.01195084
vt 0.03225306 0.01136586
vt 0.03171124 0.01180446
vt 0.03196113 0.01187141
vt 0.03413987 0.01245523
vt 0.03438975 0.01252218
vt 0.03438975 0.01180446
vt 0.03413987 0.01187141
vt 0.03403088 0.01118292
vt 0.03384794 0.01136585
vt 0.03363083 0.01158292
vt 0.03384337 0.0123758
vt 0.03384337 0.01195084
vt 0.03348871 0.01172523
vt 0.03364901 0.012003
vt 0.03364901 0.01232363
vt 0.06026329 0.03939319
vt 0.06039028 0.03917236
vt 0.05991484 0.0390451
vt 0.06004252 0.03952116
vt 0.06039028 0.03891784
vt 0.05978717 0.03952116
vt 0.06026329 0.03869701
vt 0.05956639 0.03939319
vt 0.06004255 0.03856904
vt 0.05943941 0.03917236
vt 0.05978717 0.03856904
vt 0.05943941 0.03891784
vt 0.05956639 0.03869701
vt 0.03348871 0.01260141
vt 0.03364901 0.01232363
vt 0.03350405 0.01228489
vt 0.03338259 0.01249554
vt 0.03350405 0.01204175
vt 0.03321093 0.01276199
vt 0.03364901 0.012003
vt 0.03317209 0.01261727
vt 0.03338259 0.0118311
vt 0.03289007 0.01276198
vt 0.03348871 0.01172523
vt 0.03292891 0.01261727
vt 0.03317209 0.01170937
vt 0.03261231 0.01260141
vt 0.03321093 0.01156465
vt 0.03271841 0.01249554
vt 0.03292891 0.01170937
vt 0.03245197 0.01232363
vt 0.03289007 0.01156465
vt 0.03259695 0.01228489
vt 0.03271841 0.0118311
vt 0.03245197 0.012003
vt 0.03261231 0.01172523
vt 0.03259695 0.01204175
vt 0.03484893 0.03454838
vt 0.03476413 0.03452569
vt 0.03471752 0.03460655
vt 0.03477962 0.03466859
vt 0.03484893 0.03440963
vt 0.03463675 0.03465328
vt 0.03476413 0.03443234
vt 0.03465949 0.03473806
vt 0.03477962 0.03428943
vt 0.03454347 0.03465328
vt 0.03471752 0.03435146
vt 0.03452073 0.03473805
vt 0.03465949 0.03421997
vt 0.03446271 0.03460655
vt 0.03463675 0.03430474
vt 0.0344006 0.03466859
vt 0.03452073 0.03421997
vt 0.03441609 0.03452569
vt 0.03454347 0.03430474
vt 0.03433131 0.03454838
vt 0.0344006 0.03428943
vt 0.03441609 0.03443234
vt 0.03446271 0.03435146
vt 0.03433131 0.03440963
vn 0.3081678 0.3081676 -0.9000363
vn 0.4209648 0.1127972 -0.9000363
vn 0.4209649 0.1127968 -0.9000363
vn 0.3081679 0.3081675 -0.9000363
vn 0.1127971 0.4209645 -0.9000366
vn 0.1127971 0.4209645 -0.9000366
vn -0.112797 0.4209642 -0.9000366
vn 0.1127971 0.4209645 -0.9000366
vn 0.1127971 0.4209645 -0.9000366
vn -0.112797 0.4209642 -0.9000366
vn -0.3081671 0.3081668 -0.9000369
vn -0.3081671 0.3081667 -0.9000369
vn -0.4209642 0.1127964 -0.9000368
vn -0.3081671 0.3081667 -0.9000369
vn -0.3081671 0.3081668 -0.9000369
vn -0.4209642 0.1127964 -0.9000366
vn -0.4209645 -0.1127975 -0.9000365
vn -0.4209644 -0.1127975 -0.9000366
vn -0.3081676 -0.3081679 -0.9000363
vn -0.4209644 -0.1127975 -0.9000366
vn -0.4209645 -0.1127975 -0.9000365
vn -0.3081674 -0.308168 -0.9000363
vn -0.1127971 -0.420965 -0.9000363
vn -0.1127972 -0.420965 -0.9000363
vn 0.112797 -0.420965 -0.9000363
vn -0.1127972 -0.420965 -0.9000363
vn -0.1127971 -0.420965 -0.9000363
vn 0.112797 -0.420965 -0.9000363
vn 0.308167 -0.308168 -0.9000365
vn 0.308167 -0.3081679 -0.9000365
vn 0.4209642 -0.1127976 -0.9000366
vn 0.308167 -0.3081679 -0.9000365
vn 0.308167 -0.308168 -0.9000365
vn 0.4209642 -0.1127976 -0.9000366
vn 0.4209649 0.1127968 -0.9000363
vn 0.4209648 0.1127972 -0.9000363
vn 0.6871911 0.6871909 -0.2356629
vn 0.9387203 0.2515295 -0.2356627
vn 0.9387203 0.2515303 -0.2356628
vn 0.687191 0.6871911 -0.2356629
vn 0.2515294 0.9387202 -0.235664
vn 0.2515294 0.9387202 -0.235664
vn -0.2515294 0.9387203 -0.2356634
vn 0.2515294 0.9387202 -0.235664
vn 0.2515294 0.9387202 -0.235664
vn -0.2515294 0.9387203 -0.2356635
vn -0.6871914 0.6871909 -0.2356621
vn -0.6871911 0.6871913 -0.2356621
vn -0.9387206 0.251529 -0.2356624
vn -0.6871911 0.6871913 -0.2356621
vn -0.6871914 0.6871909 -0.2356621
vn -0.9387206 0.251529 -0.2356624
vn -0.9387203 -0.2515297 -0.2356626
vn -0.9387203 -0.2515295 -0.2356626
vn -0.6871911 -0.6871911 -0.2356626
vn -0.9387203 -0.2515295 -0.2356626
vn -0.9387203 -0.2515297 -0.2356626
vn -0.6871911 -0.6871909 -0.2356627
vn -0.2515293 -0.9387203 -0.2356633
vn -0.2515293 -0.9387203 -0.2356633
vn 0.251529 -0.9387203 -0.2356633
vn -0.2515293 -0.9387203 -0.2356633
vn -0.2515293 -0.9387203 -0.2356633
vn 0.2515291 -0.9387203 -0.2356633
vn 0.6871903 -0.6871916 -0.2356633
vn 0.6871901 -0.6871917 -0.2356633
vn 0.9387203 -0.2515295 -0.2356632
vn 0.6871901 -0.6871917 -0.2356633
vn 0.6871903 -0.6871916 -0.2356633
vn 0.9387203 -0.2515296 -0.2356631
vn 0.9387203 0.2515303 -0.2356628
vn 0.9387203 0.2515295 -0.2356627
vn -0.4928685 0.492869 0.71705
vn -0.5534357 0.5534357 0.6224288
vn -0.2025715 0.7560073 0.622429
vn -0.1804024 0.6732711 0.7170502
vn 0.2025715 0.7560073 0.622429
vn -0.1265877 0.4724316 0.8722293
vn -0.3458435 0.3458449 0.872229
vn 0.1804022 0.6732714 0.71705
vn 0.5534359 0.5534365 0.6224282
vn -0.06446819 0.2405982 0.9684815
vn -0.1761293 0.1761323 0.9684812
vn 0.06446674 0.2405998 0.9684812
vn 0.1265871 0.4724325 0.8722289
vn 0.1761289 0.1761315 0.9684814
vn 0.3458441 0.3458452 0.8722288
vn 0.2405984 0.06446717 0.9684815
vn 0.4724322 0.126588 0.8722289
vn 0.4928689 0.4928696 0.7170494
vn 0.756008 0.2025721 0.6224279
vn 0.6732717 0.180403 0.7170494
vn -0.673271 -0.1804023 0.7170503
vn -0.756007 -0.2025713 0.6224293
vn -0.756007 0.2025715 0.6224292
vn -0.6732712 0.1804028 0.7170501
vn -0.5534357 0.5534357 0.6224288
vn -0.4928685 0.492869 0.71705
vn -0.3458435 0.3458449 0.872229
vn -0.4724319 0.126588 0.8722292
vn -0.1761293 0.1761323 0.9684812
vn -0.4724317 -0.1265881 0.8722292
vn -0.2405973 0.06446821 0.9684817
vn -0.2405983 -0.0644695 0.9684814
vn 0.4928686 -0.4928688 0.7170502
vn 0.5534359 -0.5534357 0.622429
vn 0.2025712 -0.7560068 0.6224295
vn 0.1804023 -0.6732709 0.7170504
vn -0.2025715 -0.7560065 0.6224299
vn 0.1265877 -0.4724315 0.8722293
vn 0.3458444 -0.3458435 0.8722292
vn -0.1804028 -0.6732705 0.7170506
vn -0.5534356 -0.5534351 0.6224295
vn 0.06446794 -0.2405971 0.9684817
vn 0.1761314 -0.1761289 0.9684815
vn -0.06447002 -0.2405978 0.9684814
vn -0.1265887 -0.4724316 0.8722292
vn -0.1761303 -0.1761295 0.9684815
vn -0.3458439 -0.3458434 0.8722295
vn -0.2405983 -0.0644695 0.9684814
vn -0.4724317 -0.1265881 0.8722292
vn -0.4928684 -0.4928682 0.7170507
vn -0.756007 -0.2025713 0.6224293
vn -0.673271 -0.1804023 0.7170503
vn 0.6732717 0.180403 0.7170494
vn 0.756008 0.2025721 0.6224279
vn 0.7560078 -0.2025715 0.6224283
vn 0.6732715 -0.1804025 0.7170499
vn 0.5534359 -0.5534357 0.622429
vn 0.4928686 -0.4928688 0.7170502
vn 0.3458444 -0.3458435 0.8722292
vn 0.4724322 0.126588 0.8722289
vn 0.4724316 -0.126588 0.8722292
vn 0.1761314 -0.1761289 0.9684815
vn 0.2405984 -0.0644694 0.9684814
vn 0.2405984 0.06446717 0.9684815
vn -0.1605087 -0.1605038 0.9738971
vn -0.219255 -0.05875211 0.9738971
vn 0 0 1
vn -0.05875115 -0.2192517 0.9738978
vn -0.2192536 0.05874627 0.9738976
vn 0.05874879 -0.219253 0.9738976
vn -0.1605022 0.1605071 0.9738975
vn 0.1605059 -0.160502 0.9738978
vn -0.05874921 0.2192563 0.973897
vn 0.2192555 -0.05874882 0.9738971
vn 0.05874604 0.2192545 0.9738975
vn 0.2192536 0.05874654 0.9738976
vn 0.1605041 0.1605052 0.9738975
vn 0.1761289 0.1761315 0.9684814
vn 0.2405984 0.06446717 0.9684815
vn 0.07261458 0.01945517 0.9971703
vn 0.05315557 0.05315924 0.9971703
vn 0.07261477 -0.01945904 0.9971703
vn 0.06446674 0.2405998 0.9684812
vn 0.2405984 -0.0644694 0.9684814
vn 0.0194551 0.07261634 0.9971702
vn 0.05315979 -0.053156 0.9971703
vn -0.06446819 0.2405982 0.9684815
vn 0.1761314 -0.1761289 0.9684815
vn -0.01945724 0.07261523 0.9971703
vn 0.01945683 -0.07261293 0.9971704
vn -0.1761293 0.1761323 0.9684812
vn 0.06446794 -0.2405971 0.9684817
vn -0.05315661 0.05316019 0.9971702
vn -0.01945956 -0.07261422 0.9971703
vn -0.2405973 0.06446821 0.9684817
vn -0.06447002 -0.2405978 0.9684814
vn -0.07261349 0.0194571 0.9971704
vn -0.05315805 -0.05315711 0.9971703
vn -0.2405983 -0.0644695 0.9684814
vn -0.1761303 -0.1761295 0.9684815
vn -0.07261489 -0.01945899 0.9971703
vn -0.9659252 -0.2588215 0
vn -0.9659254 -0.2588207 0
vn -0.7071075 -0.707106 0
vn -0.7071083 -0.7071053 0
vn -0.9659258 0.2588187 0
vn -0.2588184 -0.9659259 0
vn -0.9659257 0.2588195 0
vn -0.2588194 -0.9659257 0
vn -0.7071055 0.707108 0
vn 0.2588197 -0.9659256 0
vn -0.7071063 0.7071072 0
vn 0.2588194 -0.9659257 0
vn -0.2588187 0.9659259 0
vn 0.7071058 -0.7071077 0
vn -0.2588193 0.9659257 0
vn 0.7071064 -0.7071072 0
vn 0.2588191 0.9659257 0
vn 0.9659259 -0.2588184 0
vn 0.2588196 0.9659256 0
vn 0.9659259 -0.2588184 0
vn 0.7071066 0.7071069 0
vn 0.9659257 0.2588194 0
vn 0.7071065 0.707107 0
vn 0.9659259 0.2588186 0
g Color_08_0
f 3/3/3 2/2/2 1/1/1
f 2/2/2 4/4/4 1/1/1
f 1/1/1 4/4/4 5/5/5
f 4/4/4 6/6/6 5/5/5
f 9/9/9 8/8/8 7/7/7
f 8/8/8 10/10/10 7/7/7
f 7/7/7 10/10/10 11/11/11
f 10/10/10 12/12/12 11/11/11
f 15/15/15 14/14/14 13/13/13
f 14/14/14 16/16/16 13/13/13
f 13/13/13 16/16/16 17/17/17
f 16/16/16 18/18/18 17/17/17
f 21/21/21 20/20/20 19/19/19
f 20/20/20 22/22/22 19/19/19
f 19/19/19 22/22/22 23/23/23
f 22/22/22 24/24/24 23/23/23
f 27/27/27 26/26/26 25/25/25
f 26/26/26 28/28/28 25/25/25
f 25/25/25 28/28/28 29/29/29
f 28/28/28 30/30/30 29/29/29
f 33/33/33 32/32/32 31/31/31
f 32/32/32 34/34/34 31/31/31
f 31/31/31 34/34/34 35/35/35
f 34/34/34 36/36/36 35/35/35
f 39/39/39 38/38/38 37/37/37
f 38/38/38 40/40/40 37/37/37
f 37/37/37 40/40/40 41/41/41
f 40/40/40 42/42/42 41/41/41
f 45/45/45 44/44/44 43/43/43
f 44/44/44 46/46/46 43/43/43
f 43/43/43 46/46/46 47/47/47
f 46/46/46 48/48/48 47/47/47
f 51/51/51 50/50/50 49/49/49
f 50/50/50 52/52/52 49/49/49
f 49/49/49 52/52/52 53/53/53
f 52/52/52 54/54/54 53/53/53
f 57/57/57 56/56/56 55/55/55
f 56/56/56 58/58/58 55/55/55
f 55/55/55 58/58/58 59/59/59
f 58/58/58 60/60/60 59/59/59
f 63/63/63 62/62/62 61/61/61
f 62/62/62 64/64/64 61/61/61
f 61/61/61 64/64/64 65/65/65
f 64/64/64 66/66/66 65/65/65
f 69/69/69 68/68/68 67/67/67
f 68/68/68 70/70/70 67/67/67
f 67/67/67 70/70/70 71/71/71
f 70/70/70 72/72/72 71/71/71
f 75/75/75 74/74/74 73/73/73
f 76/76/76 75/75/75 73/73/73
f 77/77/77 75/75/75 76/76/76
f 78/78/78 76/76/76 73/73/73
f 79/79/79 78/78/78 73/73/73
f 80/80/80 77/77/77 76/76/76
f 81/81/81 77/77/77 80/80/80
f 82/82/82 78/78/78 79/79/79
f 83/83/83 82/82/82 79/79/79
f 82/82/82 84/84/84 78/78/78
f 78/78/78 85/85/85 76/76/76
f 84/84/84 85/85/85 78/78/78
f 85/85/85 80/80/80 76/76/76
f 84/84/84 86/86/86 85/85/85
f 86/86/86 87/87/87 85/85/85
f 85/85/85 87/87/87 80/80/80
f 86/86/86 88/88/88 87/87/87
f 88/88/88 89/89/89 87/87/87
f 90/90/90 81/81/81 80/80/80
f 87/87/87 90/90/90 80/80/80
f 87/87/87 89/89/89 90/90/90
f 91/91/91 81/81/81 90/90/90
f 89/89/89 92/92/92 90/90/90
f 92/92/92 91/91/91 90/90/90
f 95/95/95 94/94/94 93/93/93
f 96/96/96 95/95/95 93/93/93
f 97/97/97 95/95/95 96/96/96
f 98/98/98 97/97/97 96/96/96
f 99/99/99 98/98/98 96/96/96
f 100/100/100 96/96/96 93/93/93
f 100/100/100 99/99/99 96/96/96
f 101/101/101 99/99/99 100/100/100
f 102/102/102 100/100/100 93/93/93
f 103/103/103 101/101/101 100/100/100
f 103/103/103 100/100/100 102/102/102
f 104/104/104 103/103/103 102/102/102
f 107/107/107 106/106/106 105/105/105
f 108/108/108 107/107/107 105/105/105
f 109/109/109 107/107/107 108/108/108
f 110/110/110 108/108/108 105/105/105
f 111/111/111 110/110/110 105/105/105
f 112/112/112 109/109/109 108/108/108
f 113/113/113 109/109/109 112/112/112
f 114/114/114 110/110/110 111/111/111
f 115/115/115 114/114/114 111/111/111
f 114/114/114 116/116/116 110/110/110
f 110/110/110 117/117/117 108/108/108
f 116/116/116 117/117/117 110/110/110
f 117/117/117 112/112/112 108/108/108
f 116/116/116 118/118/118 117/117/117
f 118/118/118 119/119/119 117/117/117
f 117/117/117 119/119/119 112/112/112
f 118/118/118 120/120/120 119/119/119
f 120/120/120 121/121/121 119/119/119
f 122/122/122 113/113/113 112/112/112
f 119/119/119 122/122/122 112/112/112
f 119/119/119 121/121/121 122/122/122
f 123/123/123 113/113/113 122/122/122
f 121/121/121 124/124/124 122/122/122
f 124/124/124 123/123/123 122/122/122
f 127/127/127 126/126/126 125/125/125
f 128/128/128 127/127/127 125/125/125
f 129/129/129 127/127/127 128/128/128
f 130/130/130 129/129/129 128/128/128
f 131/131/131 130/130/130 128/128/128
f 125/125/125 132/132/132 128/128/128
f 133/133/133 131/131/131 128/128/128
f 132/132/132 133/133/133 128/128/128
f 134/134/134 131/131/131 133/133/133
f 135/135/135 134/134/134 133/133/133
f 135/135/135 133/133/133 132/132/132
f 136/136/136 135/135/135 132/132/132
f 139/139/139 138/138/138 137/137/137
f 139/139/139 137/137/137 140/140/140
f 139/139/139 141/141/141 138/138/138
f 139/139/139 140/140/140 142/142/142
f 139/139/139 143/143/143 141/141/141
f 139/139/139 142/142/142 144/144/144
f 139/139/139 145/145/145 143/143/143
f 139/139/139 144/144/144 146/146/146
f 139/139/139 147/147/147 145/145/145
f 139/139/139 146/146/146 148/148/148
f 139/139/139 149/149/149 147/147/147
f 139/139/139 148/148/148 149/149/149
f 152/152/152 151/151/151 150/150/150
f 153/153/153 152/152/152 150/150/150
f 152/152/152 154/154/154 151/151/151
f 153/153/153 150/150/150 155/155/155
f 154/154/154 156/156/156 151/151/151
f 157/157/157 153/153/153 155/155/155
f 154/154/154 158/158/158 156/156/156
f 157/157/157 155/155/155 159/159/159
f 158/158/158 160/160/160 156/156/156
f 161/161/161 157/157/157 159/159/159
f 158/158/158 162/162/162 160/160/160
f 161/161/161 159/159/159 163/163/163
f 162/162/162 164/164/164 160/160/160
f 165/165/165 161/161/161 163/163/163
f 162/162/162 166/166/166 164/164/164
f 165/165/165 163/163/163 167/167/167
f 166/166/166 168/168/168 164/164/164
f 169/169/169 165/165/165 167/167/167
f 166/166/166 170/170/170 168/168/168
f 169/169/169 167/167/167 171/171/171
f 170/170/170 172/172/172 168/168/168
f 173/173/173 169/169/169 171/171/171
f 173/173/173 171/171/171 172/172/172
f 170/170/170 173/173/173 172/172/172
f 176/176/176 175/175/175 174/174/174
f 177/177/177 176/176/176 174/174/174
f 174/174/174 175/175/175 178/178/178
f 179/179/179 176/176/176 177/177/177
f 175/175/175 180/180/180 178/178/178
f 181/181/181 179/179/179 177/177/177
f 178/178/178 180/180/180 182/182/182
f 183/183/183 179/179/179 181/181/181
f 180/180/180 184/184/184 182/182/182
f 185/185/185 183/183/183 181/181/181
f 182/182/182 184/184/184 186/186/186
f 187/187/187 183/183/183 185/185/185
f 184/184/184 188/188/188 186/186/186
f 189/189/189 187/187/187 185/185/185
f 186/186/186 188/188/188 190/190/190
f 191/191/191 187/187/187 189/189/189
f 188/188/188 192/192/192 190/190/190
f 193/193/193 191/191/191 189/189/189
f 190/190/190 192/192/192 194/194/194
f 195/195/195 191/191/191 193/193/193
f 192/192/192 196/196/196 194/194/194
f 197/197/197 195/195/195 193/193/193
f 194/194/194 196/196/196 197/197/197
f 196/196/196 195/195/195 197/197/197
