g Color_019
v 3.943901 3.943904 0.763323
v 4.591996 1.230422 0.2032585
v 5.387472 1.443566 0.763323
v 3.361573 3.361575 0.2032585
v 1.443566 5.387472 0.763323
v 1.23042 4.591996 0.2032585
v -1.44357 5.387471 0.763323
v 1.23042 4.591996 0.2032585
v 1.443566 5.387472 0.763323
v -1.230423 4.591994 0.2032585
v -3.943906 3.943907 0.763323
v -3.361576 3.361574 0.2032585
v -5.387474 1.443569 0.7633231
v -4.591995 1.23042 0.2032585
v -5.387473 -1.443569 0.763323
v -4.591996 -1.230423 0.2032585
v -3.943905 -3.943903 0.7633231
v -4.591996 -1.230423 0.2032585
v -5.387473 -1.443569 0.763323
v -3.361574 -3.361575 0.2032585
v -1.44357 -5.387474 0.763323
v -1.230423 -4.591995 0.2032585
v 1.443568 -5.387473 0.763323
v -1.230423 -4.591995 0.2032585
v -1.44357 -5.387474 0.763323
v 1.230421 -4.591996 0.2032585
v 3.943903 -3.943906 0.763323
v 3.361572 -3.361575 0.2032585
v 5.387475 -1.443571 0.763323
v 3.361572 -3.361575 0.2032585
v 3.943903 -3.943906 0.763323
v 4.591995 -1.230423 0.2032585
v 5.387472 1.443566 0.763323
v 4.591996 1.230422 0.2032585
v 4.076573 4.076573 1.850004
v 5.387472 1.443566 0.763323
v 5.568702 1.492128 1.850004
v 3.943901 3.943904 0.763323
v 1.492129 5.568705 1.850004
v 1.443566 5.387472 0.763323
v -1.492132 5.568703 1.850004
v 1.443566 5.387472 0.763323
v 1.492129 5.568705 1.850004
v -1.44357 5.387471 0.763323
v -4.076576 4.07657 1.850004
v -3.943906 3.943907 0.763323
v -5.568705 1.492128 1.850004
v -5.387474 1.443569 0.7633231
v -5.568704 -1.492131 1.850004
v -5.387473 -1.443569 0.763323
v -4.076575 -4.076574 1.850004
v -5.387473 -1.443569 0.763323
v -5.568704 -1.492131 1.850004
v -3.943905 -3.943903 0.7633231
v -1.492131 -5.568705 1.850004
v -1.44357 -5.387474 0.763323
v 1.492128 -5.568705 1.850004
v -1.44357 -5.387474 0.763323
v -1.492131 -5.568705 1.850004
v 1.443568 -5.387473 0.763323
v 4.076572 -4.076577 1.850004
v 3.943903 -3.943906 0.763323
v 5.568703 -1.492132 1.849999
v 3.943903 -3.943906 0.763323
v 4.076572 -4.076577 1.850004
v 5.387475 -1.443571 0.763323
v 5.568702 1.492128 1.850004
v 5.387472 1.443566 0.763323
v 1.29489 4.832605 3.195855
v 1.492129 5.568705 1.850004
v 4.076573 4.076573 1.850004
v 3.537712 3.537713 3.195855
v 5.568702 1.492128 1.850004
v 4.832605 1.294892 3.195855
v 3.655074 0.9793739 4.391237
v 2.675699 2.675698 4.391237
v 2.734047 0.732586 4.925317
v 0.9793733 3.655075 4.391232
v 2.00146 2.001459 4.925317
v 0.732586 2.734051 4.925309
v -4.832605 -1.294893 3.195855
v -5.568704 -1.492131 1.850004
v -5.568705 1.492128 1.850004
v -4.832603 1.294895 3.195855
v -4.076576 4.07657 1.850004
v -3.655075 0.979374 4.391236
v -3.655075 -0.9793748 4.391231
v -3.537714 3.537714 3.195855
v -1.492132 5.568703 1.850004
v -2.734049 0.7325855 4.925317
v -2.734049 -0.7325868 4.925308
v -2.001464 2.001463 4.925309
v -2.675701 2.675698 4.391231
v -0.7325875 2.734045 4.925309
v -0.979377 3.655071 4.391232
v 0.732586 2.734051 4.925309
v 0.9793733 3.655075 4.391232
v -1.294894 4.832604 3.195855
v 1.492129 5.568705 1.850004
v 1.29489 4.832605 3.195855
v 3.537709 -3.537715 3.195855
v 4.076572 -4.076577 1.850004
v 1.492128 -5.568705 1.850004
v 1.294893 -4.832605 3.195855
v -1.492131 -5.568705 1.850004
v 0.9793736 -3.655074 4.391238
v 2.675699 -2.675701 4.391232
v -1.294894 -4.832603 3.195856
v -4.076575 -4.076574 1.850004
v 0.7325858 -2.734049 4.925317
v 2.001461 -2.001464 4.925309
v -0.7325882 -2.73405 4.925309
v -0.9793766 -3.655075 4.391232
v -2.001464 -2.001463 4.925308
v -2.6757 -2.675699 4.391231
v -2.734049 -0.7325868 4.925308
v -3.655075 -0.9793748 4.391231
v -3.537712 -3.537712 3.195856
v -5.568704 -1.492131 1.850004
v -4.832605 -1.294893 3.195855
v 4.832605 1.294892 3.195855
v 5.568702 1.492128 1.850004
v 5.568703 -1.492132 1.849999
v 4.832606 -1.294896 3.195855
v 4.076572 -4.076577 1.850004
v 3.537709 -3.537715 3.195855
v 2.675699 -2.675701 4.391232
v 3.655074 0.9793739 4.391237
v 3.655074 -0.9793754 4.391232
v 2.001461 -2.001464 4.925309
v 2.734051 -0.7325882 4.925308
v 2.734047 0.732586 4.925317
v 1.485883 1.485883 4.230455
v 2.029757 0.5438719 4.230455
v 6.844539E-14 -3.91462E-07 3.542586
v 0.5438725 2.029759 4.230447
v 2.029758 -0.5438737 4.230447
v -0.5438732 2.029753 4.230447
v 1.485884 -1.485886 4.230448
v -1.485886 1.485886 4.230448
v 0.5438732 -2.029758 4.230455
v -2.029757 0.5438712 4.230455
v -0.5438725 -2.029757 4.230447
v -2.029757 -0.5438722 4.230447
v -1.485885 -1.485885 4.230447
v 2.00146 2.001459 4.925317
v 2.734047 0.732586 4.925317
v 2.029756 0.5438719 4.996348
v 1.485883 1.485883 4.996348
v 2.029759 -0.5438738 4.996341
v 0.732586 2.734051 4.925309
v 2.734051 -0.7325882 4.925308
v 0.5438716 2.029759 4.996341
v 1.485884 -1.485887 4.996341
v -0.7325875 2.734045 4.925309
v 2.001461 -2.001464 4.925309
v -0.5438725 2.029753 4.996341
v 0.5438716 -2.029758 4.996349
v -2.001464 2.001463 4.925309
v 0.7325858 -2.734049 4.925317
v -1.485887 1.485886 4.996341
v -0.5438735 -2.029758 4.996341
v -2.734049 0.7325855 4.925317
v -0.7325882 -2.73405 4.925309
v -2.029757 0.5438712 4.996348
v -1.485886 -1.485886 4.996341
v -2.734049 -0.7325868 4.925308
v -2.001464 -2.001463 4.925308
v -2.029757 -0.5438724 4.99634
v 2.029756 0.5438719 4.996348
v 2.029757 0.5438719 4.230455
v 1.485883 1.485883 4.230455
v 1.485883 1.485883 4.996348
v 2.029759 -0.5438738 4.996341
v 0.5438725 2.029759 4.230447
v 2.029758 -0.5438737 4.230447
v 0.5438716 2.029759 4.996341
v 1.485884 -1.485887 4.996341
v -0.5438732 2.029753 4.230447
v 1.485884 -1.485886 4.230448
v -0.5438725 2.029753 4.996341
v 0.5438716 -2.029758 4.996349
v -1.485886 1.485886 4.230448
v 0.5438732 -2.029758 4.230455
v -1.485887 1.485886 4.996341
v -0.5438735 -2.029758 4.996341
v -2.029757 0.5438712 4.230455
v -0.5438725 -2.029757 4.230447
v -2.029757 0.5438712 4.996348
v -1.485886 -1.485886 4.996341
v -2.029757 -0.5438722 4.230447
v -1.485885 -1.485885 4.230447
v -2.029757 -0.5438724 4.99634
vt 0.00925009 0.03667416
vt 0.009980574 0.03328583
vt 0.009980574 0.03667416
vt 0.00925009 0.03328583
vt 0.008564278 0.03667416
vt 0.008564278 0.03328583
vt 0.01212902 0.03667399
vt 0.0128905 0.03328949
vt 0.0128905 0.03667399
vt 0.01212902 0.03328949
vt 0.01142469 0.03667399
vt 0.01142469 0.03328949
vt 0.01070699 0.03667399
vt 0.01070699 0.03328949
vt 0.009986311 0.03667399
vt 0.009986311 0.03328949
vt 0.009256646 0.03667399
vt 0.009986311 0.03328949
vt 0.009986311 0.03667399
vt 0.009256646 0.03328949
vt 0.00856182 0.03667399
vt 0.00856182 0.03328949
vt 0.01212572 0.03667416
vt 0.01288804 0.03328583
vt 0.01288804 0.03667416
vt 0.01212572 0.03328583
vt 0.01142056 0.03667416
vt 0.01142056 0.03328583
vt 0.01070207 0.03667416
vt 0.01142056 0.03328583
vt 0.01142056 0.03667416
vt 0.01070207 0.03328583
vt 0.009980574 0.03667416
vt 0.009980574 0.03328583
vt 0.009319946 0.007933954
vt 0.01001586 0.007724928
vt 0.01001586 0.007933954
vt 0.009319946 0.007724928
vt 0.00866662 0.007933954
vt 0.00866662 0.007724928
vt 0.01206262 0.007933835
vt 0.01278804 0.007725047
vt 0.01278804 0.007933835
vt 0.01206262 0.007725047
vt 0.01139162 0.007933835
vt 0.01139162 0.007725047
vt 0.0107079 0.007933835
vt 0.0107079 0.007725047
vt 0.01002131 0.007933835
vt 0.01002131 0.007725047
vt 0.009326205 0.007933835
vt 0.01002131 0.007725047
vt 0.01002131 0.007933835
vt 0.009326205 0.007725047
vt 0.008664265 0.007933835
vt 0.008664265 0.007725047
vt 0.01205947 0.007933954
vt 0.01278572 0.007724928
vt 0.01278572 0.007933954
vt 0.01205947 0.007724928
vt 0.01138769 0.007933954
vt 0.01138769 0.007724928
vt 0.01070319 0.007933954
vt 0.01138769 0.007724928
vt 0.01138769 0.007933954
vt 0.01070319 0.007724928
vt 0.01001586 0.007933954
vt 0.01001586 0.007724928
vt 0.03333341 0.01322014
vt 0.03341278 0.01351572
vt 0.03403926 0.01315233
vt 0.03382237 0.01293594
vt 0.03439991 0.01252499
vt 0.03410372 0.0124458
vt 0.03378843 0.01236131
vt 0.03359212 0.01270563
vt 0.03359453 0.01231019
vt 0.03324941 0.01290655
vt 0.03344934 0.01256528
vt 0.03319676 0.01271361
vt 0.03199726 0.01188084
vt 0.03170107 0.01180164
vt 0.03170107 0.01252499
vt 0.03199726 0.0124458
vt 0.03206174 0.01315233
vt 0.03231256 0.01236131
vt 0.03231256 0.01196532
vt 0.03227861 0.01293594
vt 0.03268822 0.01351572
vt 0.03250645 0.01231019
vt 0.03250645 0.01201644
vt 0.03265166 0.01256528
vt 0.03250888 0.01270563
vt 0.03290424 0.01271361
vt 0.03285159 0.01290655
vt 0.03319676 0.01271361
vt 0.03324941 0.01290655
vt 0.03276759 0.01322014
vt 0.03341278 0.01351572
vt 0.03333341 0.01322014
vt 0.03382239 0.0113907
vt 0.03403926 0.01117431
vt 0.03341278 0.01081091
vt 0.03333341 0.01110649
vt 0.03268822 0.01081091
vt 0.03324941 0.01142008
vt 0.03359212 0.011621
vt 0.03276759 0.01110649
vt 0.03206174 0.0111743
vt 0.03319676 0.01161302
vt 0.03344934 0.01176135
vt 0.03290424 0.01161302
vt 0.03285159 0.01142008
vt 0.03265166 0.01176135
vt 0.03250888 0.011621
vt 0.03250645 0.01201644
vt 0.03231256 0.01196532
vt 0.03227861 0.01139069
vt 0.03170107 0.01180164
vt 0.03199726 0.01188084
vt 0.03410372 0.0124458
vt 0.03439991 0.01252499
vt 0.03439991 0.01180165
vt 0.03410372 0.01188084
vt 0.03403926 0.01117431
vt 0.03382239 0.0113907
vt 0.03359212 0.011621
vt 0.03378843 0.01236131
vt 0.03378843 0.01196532
vt 0.03344934 0.01176135
vt 0.03359453 0.01201644
vt 0.03359453 0.01231019
vt 0.06026484 0.03939475
vt 0.06039242 0.03917293
vt 0.05991484 0.0390451
vt 0.06004311 0.0395233
vt 0.06039242 0.03891727
vt 0.05978657 0.0395233
vt 0.06026484 0.03869545
vt 0.05956484 0.03939475
vt 0.06004311 0.0385669
vt 0.05943726 0.03917293
vt 0.05978657 0.0385669
vt 0.05943726 0.03891727
vt 0.05956484 0.03869545
vt 0.03344934 0.01256528
vt 0.03359453 0.01231019
vt 0.03346853 0.01227629
vt 0.03335722 0.01247271
vt 0.03346853 0.01205034
vt 0.03319676 0.01271361
vt 0.03359453 0.01201644
vt 0.03316304 0.01258701
vt 0.03335722 0.01185392
vt 0.03290424 0.01271361
vt 0.03344934 0.01176135
vt 0.03293796 0.01258701
vt 0.03316304 0.01173962
vt 0.03265166 0.01256528
vt 0.03319676 0.01161302
vt 0.03274377 0.01247272
vt 0.03293796 0.01173962
vt 0.03250645 0.01231019
vt 0.03290424 0.01161302
vt 0.03263247 0.01227629
vt 0.03274377 0.01185392
vt 0.03250645 0.01201644
vt 0.03265166 0.01176135
vt 0.03263247 0.01205034
vt 0.03482865 0.03454348
vt 0.03474857 0.03452228
vt 0.03470634 0.03459746
vt 0.03476514 0.03465556
vt 0.03482865 0.03441454
vt 0.03463274 0.03464117
vt 0.03474857 0.03443574
vt 0.03465433 0.03472079
vt 0.03476514 0.03430245
vt 0.03454748 0.03464117
vt 0.03470634 0.03436056
vt 0.03452589 0.03472079
vt 0.03465433 0.03423723
vt 0.03447388 0.03459746
vt 0.03463274 0.03431685
vt 0.03441508 0.03465556
vt 0.03452589 0.03423723
vt 0.03443165 0.03452228
vt 0.03454748 0.03431685
vt 0.03435157 0.03454348
vt 0.03441508 0.03430245
vt 0.03443165 0.03443574
vt 0.03447388 0.03436056
vt 0.03435157 0.03441454
vn 0.3976421 0.3976422 -0.8268986
vn 0.5431886 0.1455476 -0.8268991
vn 0.5431888 0.1455471 -0.8268991
vn 0.397642 0.3976422 -0.8268986
vn 0.1455468 0.543189 -0.8268989
vn 0.1455469 0.5431889 -0.826899
vn -0.1455466 0.5431885 -0.8268993
vn 0.1455469 0.5431889 -0.826899
vn 0.1455468 0.543189 -0.8268989
vn -0.1455466 0.5431885 -0.8268993
vn -0.3976407 0.397641 -0.8268999
vn -0.397641 0.3976408 -0.8268999
vn -0.5431879 0.1455466 -0.8268997
vn -0.5431879 0.1455463 -0.8268997
vn -0.5431883 -0.1455468 -0.8268995
vn -0.5431882 -0.145547 -0.8268995
vn -0.3976417 -0.3976414 -0.8268993
vn -0.5431882 -0.145547 -0.8268995
vn -0.5431883 -0.1455468 -0.8268995
vn -0.3976415 -0.3976415 -0.8268993
vn -0.1455468 -0.5431882 -0.8268995
vn -0.145547 -0.5431881 -0.8268995
vn 0.1455466 -0.5431881 -0.8268995
vn -0.145547 -0.5431881 -0.8268995
vn -0.1455468 -0.5431882 -0.8268995
vn 0.1455467 -0.543188 -0.8268996
vn 0.3976408 -0.3976413 -0.8268998
vn 0.3976407 -0.3976414 -0.8268997
vn 0.5431877 -0.1455466 -0.8268999
vn 0.3976407 -0.3976414 -0.8268997
vn 0.3976408 -0.3976413 -0.8268998
vn 0.5431877 -0.1455468 -0.8268999
vn 0.5431888 0.1455471 -0.8268991
vn 0.5431886 0.1455476 -0.8268991
vn 0.6976962 0.6976959 0.1626052
vn 0.9518424 0.2550456 -0.1701401
vn 0.9530703 0.2553747 0.1626056
vn 0.696797 0.696797 -0.1701413
vn 0.2553746 0.9530705 0.1626054
vn 0.255045 0.9518423 -0.1701415
vn -0.2553748 0.9530703 0.162606
vn 0.255045 0.9518423 -0.1701415
vn 0.2553746 0.9530705 0.1626054
vn -0.2550454 0.9518426 -0.1701397
vn -0.6976964 0.6976954 0.1626065
vn -0.6967968 0.6967978 -0.1701383
vn -0.9530705 0.2553738 0.1626064
vn -0.9518426 0.2550454 -0.1701396
vn -0.9530703 -0.2553747 0.1626061
vn -0.9518424 -0.2550452 -0.1701408
vn -0.6976961 -0.6976958 0.162606
vn -0.9518424 -0.2550452 -0.1701408
vn -0.9530703 -0.2553747 0.1626061
vn -0.6967973 -0.6967968 -0.170141
vn -0.2553746 -0.9530703 0.1626061
vn -0.2550454 -0.9518424 -0.170141
vn 0.2553742 -0.9530705 0.162606
vn -0.2550454 -0.9518424 -0.170141
vn -0.2553746 -0.9530703 0.1626061
vn 0.2550452 -0.9518424 -0.1701407
vn 0.6976956 -0.6976963 0.162606
vn 0.6967967 -0.6967974 -0.1701401
vn 0.9530705 -0.2553747 0.1626055
vn 0.6967967 -0.6967974 -0.1701401
vn 0.6976956 -0.6976963 0.162606
vn 0.9518427 -0.2550452 -0.1701395
vn 0.9530703 0.2553747 0.1626056
vn 0.9518424 0.2550456 -0.1701401
vn 0.2073622 0.7738881 0.5984132
vn 0.2553746 0.9530705 0.1626054
vn 0.6976962 0.6976959 0.1626052
vn 0.5665256 0.5665257 0.5984125
vn 0.9530703 0.2553747 0.1626056
vn 0.7738886 0.2073627 0.5984122
vn 0.5924467 0.1587452 0.7898144
vn 0.4337006 0.4337015 0.7898144
vn 0.3184241 0.08531974 0.944101
vn 0.1587446 0.5924465 0.7898147
vn 0.2331009 0.2331035 0.944101
vn 0.08531961 0.3184254 0.9441006
vn -0.7738878 -0.2073627 0.5984133
vn -0.9530703 -0.2553747 0.1626061
vn -0.9530705 0.2553738 0.1626064
vn -0.7738879 0.2073629 0.598413
vn -0.6976964 0.6976954 0.1626065
vn -0.5924465 0.1587453 0.7898146
vn -0.5924464 -0.1587465 0.7898144
vn -0.5665251 0.5665258 0.5984129
vn -0.2553748 0.9530703 0.162606
vn -0.3184233 0.08532095 0.9441012
vn -0.3184245 -0.08532394 0.9441004
vn -0.2331018 0.233105 0.9441004
vn -0.4337003 0.4337013 0.7898147
vn -0.08532173 0.3184237 0.944101
vn -0.1587459 0.5924456 0.7898152
vn 0.08531961 0.3184254 0.9441006
vn 0.1587446 0.5924465 0.7898147
vn -0.2073628 0.7738879 0.5984132
vn 0.2553746 0.9530705 0.1626054
vn 0.2073622 0.7738881 0.5984132
vn 0.5665252 -0.5665257 0.5984128
vn 0.6976956 -0.6976963 0.162606
vn 0.2553742 -0.9530705 0.162606
vn 0.2073626 -0.7738881 0.598413
vn -0.2553746 -0.9530703 0.1626061
vn 0.1587455 -0.5924464 0.7898147
vn 0.4337014 -0.4337007 0.7898144
vn -0.207363 -0.7738878 0.5984133
vn -0.6976961 -0.6976958 0.162606
vn 0.08532126 -0.318423 0.9441012
vn 0.2331046 -0.2331018 0.9441006
vn -0.08532412 -0.3184241 0.9441006
vn -0.1587468 -0.5924464 0.7898144
vn -0.2331031 -0.2331024 0.9441007
vn -0.4337008 -0.4337004 0.7898149
vn -0.3184245 -0.08532394 0.9441004
vn -0.5924464 -0.1587465 0.7898144
vn -0.566525 -0.5665251 0.5984135
vn -0.9530703 -0.2553747 0.1626061
vn -0.7738878 -0.2073627 0.5984133
vn 0.7738886 0.2073627 0.5984122
vn 0.9530703 0.2553747 0.1626056
vn 0.9530705 -0.2553747 0.1626055
vn 0.7738883 -0.2073633 0.5984125
vn 0.6976956 -0.6976963 0.162606
vn 0.5665252 -0.5665257 0.5984128
vn 0.4337014 -0.4337007 0.7898144
vn 0.5924467 0.1587452 0.7898144
vn 0.5924461 -0.1587465 0.7898147
vn 0.2331046 -0.2331018 0.9441006
vn 0.3184245 -0.08532382 0.9441004
vn 0.3184241 0.08531974 0.944101
vn -0.2199847 -0.2199792 0.9503767
vn -0.3004996 -0.08052282 0.9503769
vn 0 0 1
vn -0.08052134 -0.3004963 0.9503779
vn -0.3004982 0.08051497 0.9503779
vn 0.08051869 -0.3004978 0.9503778
vn -0.2199769 0.2199824 0.9503778
vn 0.2199818 -0.2199772 0.9503779
vn -0.0805192 0.3005005 0.9503769
vn 0.3005006 -0.08051915 0.9503769
vn 0.08051468 0.3004984 0.9503779
vn 0.3004984 0.08051463 0.9503779
vn 0.2199794 0.2199796 0.9503779
vn 0.2331009 0.2331035 0.944101
vn 0.3184241 0.08531974 0.944101
vn 0.09365627 0.02509215 0.9952883
vn 0.06855854 0.06856259 0.9952883
vn 0.09365686 -0.02509833 0.9952881
vn 0.08531961 0.3184254 0.9441006
vn 0.3184245 -0.08532382 0.9441004
vn 0.02509244 0.09365784 0.9952883
vn 0.0685644 -0.06855991 0.9952881
vn -0.08532173 0.3184237 0.944101
vn 0.2331046 -0.2331018 0.9441006
vn -0.0250953 0.09365682 0.9952883
vn 0.0250947 -0.09365489 0.9952884
vn -0.2331018 0.233105 0.9441004
vn 0.08532126 -0.318423 0.9441012
vn -0.06855977 0.06856415 0.9952881
vn -0.02509863 -0.0936565 0.9952881
vn -0.3184233 0.08532095 0.9441012
vn -0.08532412 -0.3184241 0.9441006
vn -0.09365516 0.02509438 0.9952884
vn -0.06856193 -0.06856143 0.9952883
vn -0.3184245 -0.08532394 0.9441004
vn -0.2331031 -0.2331024 0.9441007
vn -0.09365697 -0.02509851 0.9952881
vn -0.965925 -0.2588218 0
vn -0.9659254 -0.2588207 0
vn -0.7071073 -0.7071062 0
vn -0.707108 -0.7071055 0
vn -0.9659258 0.2588187 0
vn -0.2588185 -0.9659259 0
vn -0.9659256 0.2588198 0
vn -0.2588193 -0.9659257 0
vn -0.7071057 0.7071078 0
vn 0.2588201 -0.9659256 0
vn -0.7071067 0.7071068 0
vn 0.2588198 -0.9659256 0
vn -0.2588189 0.9659258 0
vn 0.7071055 -0.707108 0
vn -0.2588195 0.9659257 0
vn 0.7071066 -0.7071069 0
vn 0.2588193 0.9659257 0
vn 0.9659259 -0.2588184 0
vn 0.2588201 0.9659256 0
vn 0.9659259 -0.2588184 0
vn 0.7071071 0.7071064 0
vn 0.9659257 0.2588194 0
vn 0.707107 0.7071065 0
vn 0.9659261 0.2588182 0
g Color_019_0
f 3/3/3 2/2/2 1/1/1
f 2/2/2 4/4/4 1/1/1
f 1/1/1 4/4/4 5/5/5
f 4/4/4 6/6/6 5/5/5
f 9/9/9 8/8/8 7/7/7
f 8/8/8 10/10/10 7/7/7
f 7/7/7 10/10/10 11/11/11
f 10/10/10 12/12/12 11/11/11
f 11/11/11 12/12/12 13/13/13
f 12/12/12 14/14/14 13/13/13
f 13/13/13 14/14/14 15/15/15
f 14/14/14 16/16/16 15/15/15
f 19/19/19 18/18/18 17/17/17
f 18/18/18 20/20/20 17/17/17
f 17/17/17 20/20/20 21/21/21
f 20/20/20 22/22/22 21/21/21
f 25/25/25 24/24/24 23/23/23
f 24/24/24 26/26/26 23/23/23
f 23/23/23 26/26/26 27/27/27
f 26/26/26 28/28/28 27/27/27
f 31/31/31 30/30/30 29/29/29
f 30/30/30 32/32/32 29/29/29
f 29/29/29 32/32/32 33/33/33
f 32/32/32 34/34/34 33/33/33
f 37/37/37 36/36/36 35/35/35
f 36/36/36 38/38/38 35/35/35
f 35/35/35 38/38/38 39/39/39
f 38/38/38 40/40/40 39/39/39
f 43/43/43 42/42/42 41/41/41
f 42/42/42 44/44/44 41/41/41
f 41/41/41 44/44/44 45/45/45
f 44/44/44 46/46/46 45/45/45
f 45/45/45 46/46/46 47/47/47
f 46/46/46 48/48/48 47/47/47
f 47/47/47 48/48/48 49/49/49
f 48/48/48 50/50/50 49/49/49
f 53/53/53 52/52/52 51/51/51
f 52/52/52 54/54/54 51/51/51
f 51/51/51 54/54/54 55/55/55
f 54/54/54 56/56/56 55/55/55
f 59/59/59 58/58/58 57/57/57
f 58/58/58 60/60/60 57/57/57
f 57/57/57 60/60/60 61/61/61
f 60/60/60 62/62/62 61/61/61
f 65/65/65 64/64/64 63/63/63
f 64/64/64 66/66/66 63/63/63
f 63/63/63 66/66/66 67/67/67
f 66/66/66 68/68/68 67/67/67
f 71/71/71 70/70/70 69/69/69
f 72/72/72 71/71/71 69/69/69
f 73/73/73 71/71/71 72/72/72
f 74/74/74 73/73/73 72/72/72
f 75/75/75 74/74/74 72/72/72
f 76/76/76 72/72/72 69/69/69
f 76/76/76 75/75/75 72/72/72
f 77/77/77 75/75/75 76/76/76
f 78/78/78 76/76/76 69/69/69
f 79/79/79 77/77/77 76/76/76
f 79/79/79 76/76/76 78/78/78
f 80/80/80 79/79/79 78/78/78
f 83/83/83 82/82/82 81/81/81
f 84/84/84 83/83/83 81/81/81
f 85/85/85 83/83/83 84/84/84
f 86/86/86 84/84/84 81/81/81
f 87/87/87 86/86/86 81/81/81
f 88/88/88 85/85/85 84/84/84
f 89/89/89 85/85/85 88/88/88
f 90/90/90 86/86/86 87/87/87
f 91/91/91 90/90/90 87/87/87
f 90/90/90 92/92/92 86/86/86
f 86/86/86 93/93/93 84/84/84
f 92/92/92 93/93/93 86/86/86
f 93/93/93 88/88/88 84/84/84
f 92/92/92 94/94/94 93/93/93
f 94/94/94 95/95/95 93/93/93
f 93/93/93 95/95/95 88/88/88
f 94/94/94 96/96/96 95/95/95
f 96/96/96 97/97/97 95/95/95
f 98/98/98 89/89/89 88/88/88
f 95/95/95 98/98/98 88/88/88
f 95/95/95 97/97/97 98/98/98
f 99/99/99 89/89/89 98/98/98
f 97/97/97 100/100/100 98/98/98
f 100/100/100 99/99/99 98/98/98
f 103/103/103 102/102/102 101/101/101
f 104/104/104 103/103/103 101/101/101
f 105/105/105 103/103/103 104/104/104
f 106/106/106 104/104/104 101/101/101
f 107/107/107 106/106/106 101/101/101
f 108/108/108 105/105/105 104/104/104
f 109/109/109 105/105/105 108/108/108
f 110/110/110 106/106/106 107/107/107
f 111/111/111 110/110/110 107/107/107
f 110/110/110 112/112/112 106/106/106
f 106/106/106 113/113/113 104/104/104
f 112/112/112 113/113/113 106/106/106
f 113/113/113 108/108/108 104/104/104
f 112/112/112 114/114/114 113/113/113
f 114/114/114 115/115/115 113/113/113
f 113/113/113 115/115/115 108/108/108
f 114/114/114 116/116/116 115/115/115
f 116/116/116 117/117/117 115/115/115
f 118/118/118 109/109/109 108/108/108
f 115/115/115 118/118/118 108/108/108
f 115/115/115 117/117/117 118/118/118
f 119/119/119 109/109/109 118/118/118
f 117/117/117 120/120/120 118/118/118
f 120/120/120 119/119/119 118/118/118
f 123/123/123 122/122/122 121/121/121
f 124/124/124 123/123/123 121/121/121
f 125/125/125 123/123/123 124/124/124
f 126/126/126 125/125/125 124/124/124
f 127/127/127 126/126/126 124/124/124
f 121/121/121 128/128/128 124/124/124
f 129/129/129 127/127/127 124/124/124
f 128/128/128 129/129/129 124/124/124
f 130/130/130 127/127/127 129/129/129
f 131/131/131 130/130/130 129/129/129
f 131/131/131 129/129/129 128/128/128
f 132/132/132 131/131/131 128/128/128
f 135/135/135 134/134/134 133/133/133
f 135/135/135 133/133/133 136/136/136
f 135/135/135 137/137/137 134/134/134
f 135/135/135 136/136/136 138/138/138
f 135/135/135 139/139/139 137/137/137
f 135/135/135 138/138/138 140/140/140
f 135/135/135 141/141/141 139/139/139
f 135/135/135 140/140/140 142/142/142
f 135/135/135 143/143/143 141/141/141
f 135/135/135 142/142/142 144/144/144
f 135/135/135 145/145/145 143/143/143
f 135/135/135 144/144/144 145/145/145
f 148/148/148 147/147/147 146/146/146
f 149/149/149 148/148/148 146/146/146
f 148/148/148 150/150/150 147/147/147
f 149/149/149 146/146/146 151/151/151
f 150/150/150 152/152/152 147/147/147
f 153/153/153 149/149/149 151/151/151
f 150/150/150 154/154/154 152/152/152
f 153/153/153 151/151/151 155/155/155
f 154/154/154 156/156/156 152/152/152
f 157/157/157 153/153/153 155/155/155
f 154/154/154 158/158/158 156/156/156
f 157/157/157 155/155/155 159/159/159
f 158/158/158 160/160/160 156/156/156
f 161/161/161 157/157/157 159/159/159
f 158/158/158 162/162/162 160/160/160
f 161/161/161 159/159/159 163/163/163
f 162/162/162 164/164/164 160/160/160
f 165/165/165 161/161/161 163/163/163
f 162/162/162 166/166/166 164/164/164
f 165/165/165 163/163/163 167/167/167
f 166/166/166 168/168/168 164/164/164
f 169/169/169 165/165/165 167/167/167
f 169/169/169 167/167/167 168/168/168
f 166/166/166 169/169/169 168/168/168
f 172/172/172 171/171/171 170/170/170
f 173/173/173 172/172/172 170/170/170
f 170/170/170 171/171/171 174/174/174
f 175/175/175 172/172/172 173/173/173
f 171/171/171 176/176/176 174/174/174
f 177/177/177 175/175/175 173/173/173
f 174/174/174 176/176/176 178/178/178
f 179/179/179 175/175/175 177/177/177
f 176/176/176 180/180/180 178/178/178
f 181/181/181 179/179/179 177/177/177
f 178/178/178 180/180/180 182/182/182
f 183/183/183 179/179/179 181/181/181
f 180/180/180 184/184/184 182/182/182
f 185/185/185 183/183/183 181/181/181
f 182/182/182 184/184/184 186/186/186
f 187/187/187 183/183/183 185/185/185
f 184/184/184 188/188/188 186/186/186
f 189/189/189 187/187/187 185/185/185
f 186/186/186 188/188/188 190/190/190
f 191/191/191 187/187/187 189/189/189
f 188/188/188 192/192/192 190/190/190
f 193/193/193 191/191/191 189/189/189
f 190/190/190 192/192/192 193/193/193
f 192/192/192 191/191/191 193/193/193
