g Color_05
v -0.05252457 -0.9360695 -1.118511
v 3.2215 -0.9019279 4.868639
v 3.262043 -0.9388218 -1.118512
v -0.002117157 -0.8990479 4.923009
v -3.367085 -0.9333153 -1.11851
v 2.593945 -0.944355 6.031863
v -3.367081 -0.9333153 4.923005
v 1.431923 -0.9432373 7.178513
v -2.923019 -0.9336777 6.197947
v -0.05103302 -0.8581619 7.741911
v -1.709797 -0.9346809 7.402044
v -0.05092621 0.9855652 -1.118515
v -3.250793 0.9882278 4.618045
v -3.250805 0.9882298 -1.118514
v -0.01992416 1.019821 4.618049
v 3.148945 0.9829197 -1.118515
v -2.822086 0.987875 5.820639
v 3.148952 0.9829178 4.618043
v -1.650856 0.9869022 6.956411
v 2.720253 0.9832687 5.820637
v -0.05091858 0.9855652 7.372131
v 1.549015 0.9842529 6.95641
v -1.650856 0.9869022 6.956411
v -1.709797 -0.9346809 7.402044
v -2.923019 -0.9336777 6.197947
v -2.822086 0.987875 5.820639
v -3.367081 -0.9333153 4.923005
v -3.250793 0.9882278 4.618045
v -0.05091858 0.9855652 7.372131
v -1.709797 -0.9346809 7.402044
v -1.650856 0.9869022 6.956411
v -0.05103302 -0.8581619 7.741911
v 1.549015 0.9842529 6.95641
v 1.600368 -0.7856998 7.366854
v -3.250793 0.9882278 4.618045
v -3.367081 -0.9333153 4.923005
v -3.367085 -0.9333153 -1.11851
v -3.250805 0.9882298 -1.118514
v 3.148945 0.9829197 -1.118515
v 3.262043 -0.9388218 -1.118512
v 3.2215 -0.9019279 4.868639
v 3.148952 0.9829178 4.618043
v 3.2215 -0.9019279 4.868639
v 2.593945 -0.944355 6.031863
v 2.810493 -0.7911072 6.169015
v 1.600368 -0.7856998 7.366854
v 1.431923 -0.9432373 7.178513
v -0.05103302 -0.8581619 7.741911
v 3.148952 0.9829178 4.618043
v 3.2215 -0.9019279 4.868639
v 2.810493 -0.7911072 6.169015
v 2.720253 0.9832687 5.820637
v 1.600368 -0.7856998 7.366854
v 1.549015 0.9842529 6.95641
vt 0.487814 0.03173206
vt 0.4911002 0.03776161
vt 0.4911495 0.03173671
vt 0.4878559 0.0378123
vt 0.4844787 0.03172702
vt 0.4904675 0.03893194
vt 0.4844693 0.03780653
vt 0.4892969 0.04008407
vt 0.4849138 0.0390901
vt 0.487802 0.04064945
vt 0.4861322 0.04030394
vt 0.4437304 0.0311389
vt 0.4469753 0.03689805
vt 0.4469506 0.03112514
vt 0.4437239 0.03691194
vt 0.4405103 0.03115263
vt 0.4465491 0.03811014
vt 0.4405348 0.03692553
vt 0.4453753 0.03925822
vt 0.4409714 0.03813396
vt 0.4437669 0.03968351
vt 0.4421549 0.03927196
vt 0.4384794 0.01236076
vt 0.4403659 0.01298124
vt 0.4406773 0.01126847
vt 0.4387696 0.01076586
vt 0.4407823 0.009872682
vt 0.4388524 0.009524859
vt 0.4402705 0.008714579
vt 0.441958 0.01063148
vt 0.4419323 0.008645989
vt 0.4402528 0.01060656
vt 0.4386101 0.008617394
vt 0.438555 0.01044542
vt 0.4614732 0.03814169
vt 0.463403 0.0384895
vt 0.4634067 0.03238922
vt 0.4614695 0.03238922
vt 0.4634101 0.03257739
vt 0.4614776 0.03244235
vt 0.4610968 0.03845566
vt 0.4630078 0.03833627
vt 0.4640155 0.008155592
vt 0.4644371 0.00941781
vt 0.464726 0.009335078
vt 0.464875 0.0110421
vt 0.4645757 0.01105482
vt 0.4642012 0.01260907
vt 0.4403871 0.009719439
vt 0.4384761 0.009838827
vt 0.4385154 0.01121495
vt 0.4403248 0.01100243
vt 0.4385495 0.01292811
vt 0.4403564 0.01264394
vn 0.001968415 -0.9999876 0.004586639
vn 0.0328658 -0.9993913 0.01169932
vn -0.0008103411 -0.9999808 0.006145489
vn 0.0003185957 -1 0.0001249219
vn 0.004717808 -0.9999843 0.003044204
vn 0.2318413 -0.9595845 0.1595215
vn 0.006599386 -0.9999776 -0.001185144
vn 0.1372896 -0.9525926 0.2715124
vn 0.008991092 -0.9999381 -0.00656156
vn 0.009069648 -0.9988159 0.04779837
vn 0.02450371 -0.999694 0.003389415
vn 0.0008372324 0.9999952 -0.00298784
vn -0.006309049 0.9999795 0.001169677
vn -0.004498439 0.9999855 -0.002973389
vn 0.0009088505 0.9999955 0.002899287
vn 0.006209685 0.9999763 -0.003002306
vn -0.008624199 0.9999419 0.006467642
vn 0.00807095 0.9999667 0.001202612
vn -0.005736733 0.9999411 0.009219821
vn 0.0104508 0.9999237 0.006579631
vn 0.0008097584 0.9999223 0.01244641
vn 0.007449087 0.9999285 0.009354099
vn -0.4861742 0.2006114 0.8505232
vn -0.4650007 0.2020165 0.8619534
vn -0.8236111 0.1521478 0.546366
vn -0.8450621 0.1463282 0.5142549
vn -0.9790357 0.08964435 0.1829016
vn -0.9846542 0.08492494 0.1524591
vn 0.0005987344 0.2146593 0.9766888
vn -0.4650007 0.2020165 0.8619534
vn -0.4861742 0.2006114 0.8505232
vn -0.006159322 0.2146687 0.9766675
vn 0.4867356 0.1994988 0.8504639
vn 0.4588955 0.201332 0.8653788
vn -0.9846542 0.08492494 0.1524591
vn -0.9790357 0.08964435 0.1829016
vn -0.998174 0.06040521 0
vn -0.998174 0.06040521 0
vn 0.9987968 0.04892822 0.003299395
vn 0.9987968 0.04892822 0.003299395
vn 0.98301 0.07318343 0.1683318
vn 0.9864752 0.07028089 0.1480789
vn 0.0328658 -0.9993913 0.01169932
vn 0.2318413 -0.9595845 0.1595215
vn 0.4181586 -0.8569347 0.3013408
vn 0.282867 -0.8462425 0.4515084
vn 0.1372896 -0.9525926 0.2715124
vn 0.009069648 -0.9988159 0.04779837
vn 0.9864752 0.07028089 0.1480789
vn 0.98301 0.07318343 0.1683318
vn 0.8331809 0.1421397 0.5344211
vn 0.8516628 0.1359914 0.5061393
vn 0.4588955 0.201332 0.8653788
vn 0.4867356 0.1994988 0.8504639
g Color_05_0
f 3/3/3 2/2/2 1/1/1
f 2/2/2 4/4/4 1/1/1
f 1/1/1 4/4/4 5/5/5
f 2/2/2 6/6/6 4/4/4
f 4/4/4 7/7/7 5/5/5
f 6/6/6 8/8/8 4/4/4
f 9/9/9 7/7/7 4/4/4
f 10/10/10 4/4/4 8/8/8
f 11/11/11 9/9/9 4/4/4
f 11/11/11 4/4/4 10/10/10
f 14/14/14 13/13/13 12/12/12
f 13/13/13 15/15/15 12/12/12
f 12/12/12 15/15/15 16/16/16
f 13/13/13 17/17/17 15/15/15
f 15/15/15 18/18/18 16/16/16
f 17/17/17 19/19/19 15/15/15
f 20/20/20 18/18/18 15/15/15
f 15/15/15 19/19/19 21/21/21
f 22/22/22 20/20/20 15/15/15
f 15/15/15 21/21/21 22/22/22
f 25/25/25 24/24/24 23/23/23
f 26/26/26 25/25/25 23/23/23
f 27/27/27 25/25/25 26/26/26
f 28/28/28 27/27/27 26/26/26
f 31/31/31 30/30/30 29/29/29
f 30/30/30 32/32/32 29/29/29
f 29/29/29 32/32/32 33/33/33
f 32/32/32 34/34/34 33/33/33
f 37/37/37 36/36/36 35/35/35
f 38/38/38 37/37/37 35/35/35
f 41/41/41 40/40/40 39/39/39
f 42/42/42 41/41/41 39/39/39
f 45/45/45 44/44/44 43/43/43
f 45/45/45 46/46/46 44/44/44
f 46/46/46 47/47/47 44/44/44
f 46/46/46 48/48/48 47/47/47
f 51/51/51 50/50/50 49/49/49
f 52/52/52 51/51/51 49/49/49
f 53/53/53 51/51/51 52/52/52
f 54/54/54 53/53/53 52/52/52
