g Color_11
v 4.540428 4.54043 3.199996
v 1.590094 5.934319 6.399993
v 1.66191 6.20234 3.199995
v 4.344217 4.344223 6.399994
v 6.202343 1.661914 3.199997
v 1.4809 5.526803 9.599992
v 5.934314 1.590099 6.399995
v 4.045899 4.045902 9.599991
v 1.336395 4.987494 12.79999
v 5.526798 1.480906 9.599992
v 3.651096 3.651101 12.79999
v 1.160354 4.330508 15.99999
v 4.987489 1.3364 12.79999
v 3.170144 3.170152 15.99999
v 4.3305 1.160363 15.99999
v -4.540431 4.540428 3.199996
v -5.934313 1.590099 6.399996
v -6.202342 1.661917 3.199997
v -4.34422 4.344223 6.399996
v -1.661913 6.202341 3.199995
v -5.5268 1.480907 9.599996
v -1.590096 5.934317 6.399994
v 1.66191 6.20234 3.199995
v 1.590094 5.934319 6.399993
v -4.045898 4.045899 9.599991
v -4.987488 1.336403 12.79999
v -1.480903 5.526801 9.599989
v 1.4809 5.526803 9.599992
v -3.651097 3.651103 12.79999
v -4.330497 1.160363 15.99999
v -3.170145 3.170154 15.99999
v -1.336395 4.987492 12.79999
v 1.336395 4.987494 12.79999
v -1.160355 4.330504 15.99999
v 1.160354 4.330508 15.99999
v -6.202342 1.661917 3.199997
v -5.934312 -1.590089 6.399996
v -6.202341 -1.661909 3.199999
v -5.934313 1.590099 6.399996
v -5.526799 -1.480897 9.599998
v -5.5268 1.480907 9.599996
v -4.987487 -1.336387 12.8
v -4.987488 1.336403 12.79999
v -4.330497 -1.160345 16
v -4.330497 1.160363 15.99999
v -4.54043 -4.540425 3.2
v -1.590096 -5.934307 6.4
v -1.661912 -6.202338 3.200001
v -4.34422 -4.344213 6.399997
v -6.202341 -1.661909 3.199999
v -1.480902 -5.526793 9.599998
v -5.934312 -1.590089 6.399996
v -4.045897 -4.04589 9.599995
v -1.336395 -4.987479 12.79999
v -5.526799 -1.480897 9.599998
v -3.651095 -3.651087 12.8
v -1.160354 -4.330489 16
v -4.987487 -1.336387 12.8
v -3.170144 -3.170135 15.99999
v -4.330497 -1.160345 16
v 4.540429 -4.540428 3.2
v 5.934317 -1.590092 6.399998
v 6.202338 -1.661913 3.199998
v 4.344216 -4.344215 6.399999
v 1.661915 -6.202338 3.200001
v 5.526799 -1.480898 9.599994
v 1.590093 -5.934308 6.399997
v -1.661912 -6.202338 3.200001
v -1.590096 -5.934307 6.4
v 4.045897 -4.045894 9.599997
v 4.98749 -1.336388 12.79999
v 1.4809 -5.526792 9.599998
v -1.480902 -5.526793 9.599998
v 3.651096 -3.651088 12.8
v 4.330498 -1.160347 15.99999
v 3.170145 -3.170138 16
v 1.336394 -4.98748 12.8
v -1.336395 -4.987479 12.79999
v 1.160353 -4.33049 15.99999
v -1.160354 -4.330489 16
v 6.202338 -1.661913 3.199998
v 5.934314 1.590099 6.399995
v 6.202343 1.661914 3.199997
v 5.934317 -1.590092 6.399998
v 5.526798 1.480906 9.599992
v 5.526799 -1.480898 9.599994
v 4.987489 1.3364 12.79999
v 4.98749 -1.336388 12.79999
v 4.3305 1.160363 15.99999
v 4.330498 -1.160347 15.99999
vt 0.008785799 0.009573685
vt 0.009760901 0.01039324
vt 0.009760901 0.009573685
vt 0.008785799 0.01039324
vt 0.007826328 0.009573685
vt 0.009760901 0.01121941
vt 0.007826328 0.01039324
vt 0.008785799 0.01121941
vt 0.009760901 0.01205496
vt 0.007826328 0.01121941
vt 0.008785799 0.01205496
vt 0.009760901 0.01289595
vt 0.007826328 0.01205496
vt 0.008785799 0.01289595
vt 0.007826328 0.01289595
vt 0.01171605 0.009573685
vt 0.01267552 0.01039324
vt 0.01267552 0.009573685
vt 0.01171605 0.01039324
vt 0.01074137 0.009573685
vt 0.01267552 0.01121941
vt 0.01074137 0.01039324
vt 0.009760901 0.009573685
vt 0.009760901 0.01039324
vt 0.01171605 0.01121941
vt 0.01267552 0.01205496
vt 0.01074137 0.01121941
vt 0.009760901 0.01121941
vt 0.01171605 0.01205496
vt 0.01267552 0.01289595
vt 0.01171605 0.01289595
vt 0.01074137 0.01205496
vt 0.009760901 0.01205496
vt 0.01074137 0.01289595
vt 0.009760901 0.01289595
vt 0.01267552 0.009573685
vt 0.01362599 0.01039324
vt 0.01362599 0.009573685
vt 0.01267552 0.01039324
vt 0.01362599 0.01121941
vt 0.01267552 0.01121941
vt 0.01362599 0.01205496
vt 0.01267552 0.01205496
vt 0.01362599 0.01289595
vt 0.01267552 0.01289595
vt 0.008784652 0.009573596
vt 0.009758919 0.01039349
vt 0.009758919 0.009573596
vt 0.008784652 0.01039349
vt 0.007827893 0.009573596
vt 0.009758919 0.01121897
vt 0.007827893 0.01039349
vt 0.008784652 0.01121897
vt 0.009758919 0.01205487
vt 0.007827893 0.01121897
vt 0.008784652 0.01205487
vt 0.009758919 0.01289586
vt 0.007827893 0.01205487
vt 0.008784652 0.01289586
vt 0.007827893 0.01289586
vt 0.01171447 0.009573596
vt 0.01267396 0.01039349
vt 0.01267396 0.009573596
vt 0.01171447 0.01039349
vt 0.0107398 0.009573596
vt 0.01267396 0.01121897
vt 0.0107398 0.01039349
vt 0.009758919 0.009573596
vt 0.009758919 0.01039349
vt 0.01171447 0.01121897
vt 0.01267396 0.01205487
vt 0.0107398 0.01121897
vt 0.009758919 0.01121897
vt 0.01171447 0.01205487
vt 0.01267396 0.01289586
vt 0.01171447 0.01289586
vt 0.0107398 0.01205487
vt 0.009758919 0.01205487
vt 0.0107398 0.01289586
vt 0.009758919 0.01289586
vt 0.01267396 0.009573596
vt 0.01362443 0.01039349
vt 0.01362443 0.009573596
vt 0.01267396 0.01039349
vt 0.01362443 0.01121897
vt 0.01267396 0.01121897
vt 0.01362443 0.01205487
vt 0.01267396 0.01205487
vt 0.01362443 0.01289586
vt 0.01267396 0.01289586
vn 0.7044631 0.7044635 0.0863883
vn 0.2572999 0.9602571 0.1081814
vn 0.2578513 0.9623148 0.08638765
vn 0.7029566 0.7029571 0.1081815
vn 0.9623147 0.2578516 0.08638867
vn 0.255858 0.9548773 0.1508181
vn 0.9602569 0.2573005 0.1081818
vn 0.6990187 0.6990186 0.150818
vn 0.2541358 0.9484492 0.1893651
vn 0.954877 0.2558588 0.1508181
vn 0.6943129 0.6943129 0.1893653
vn 0.2531631 0.9448192 0.2079067
vn 0.948449 0.2541363 0.1893655
vn 0.6916554 0.6916556 0.2079069
vn 0.9448189 0.2531639 0.2079073
vn -0.7044633 0.7044633 0.08638864
vn -0.960257 0.2573001 0.108182
vn -0.9623146 0.2578515 0.08638939
vn -0.7029566 0.702957 0.1081819
vn -0.2578514 0.9623148 0.08638784
vn -0.9548771 0.2558587 0.1508181
vn -0.2573003 0.960257 0.1081816
vn 0.2578513 0.9623148 0.08638765
vn 0.2572999 0.9602571 0.1081814
vn -0.6990184 0.6990188 0.150818
vn -0.948449 0.2541363 0.1893658
vn -0.2558589 0.954877 0.1508181
vn 0.255858 0.9548773 0.1508181
vn -0.6943125 0.6943132 0.1893652
vn -0.9448189 0.2531633 0.2079075
vn -0.6916551 0.6916557 0.2079073
vn -0.2541362 0.9484491 0.1893649
vn 0.2541358 0.9484492 0.1893651
vn -0.2531635 0.944819 0.2079066
vn 0.2531631 0.9448192 0.2079067
vn -0.9623146 0.2578515 0.08638939
vn -0.960257 -0.2573001 0.1081821
vn -0.9623146 -0.2578514 0.08638959
vn -0.960257 0.2573001 0.108182
vn -0.954877 -0.2558588 0.1508183
vn -0.9548771 0.2558587 0.1508181
vn -0.948449 -0.2541362 0.1893661
vn -0.948449 0.2541363 0.1893658
vn -0.9448189 -0.2531633 0.2079078
vn -0.9448189 0.2531633 0.2079075
vn -0.7044634 -0.7044631 0.08638973
vn -0.2573003 -0.9602569 0.1081825
vn -0.2578514 -0.9623146 0.08638994
vn -0.702957 -0.7029567 0.1081823
vn -0.9623146 -0.2578514 0.08638959
vn -0.2558586 -0.954877 0.1508187
vn -0.960257 -0.2573001 0.1081821
vn -0.6990185 -0.6990185 0.1508185
vn -0.2541363 -0.9484488 0.1893661
vn -0.954877 -0.2558588 0.1508183
vn -0.6943128 -0.6943128 0.1893661
vn -0.2531636 -0.9448189 0.2079076
vn -0.948449 -0.2541362 0.1893661
vn -0.6916554 -0.6916554 0.2079079
vn -0.9448189 -0.2531633 0.2079078
vn 0.7044629 -0.7044634 0.08638983
vn 0.9602569 -0.2573003 0.108182
vn 0.9623146 -0.257852 0.08638879
vn 0.7029563 -0.7029573 0.1081823
vn 0.2578515 -0.9623146 0.08639028
vn 0.954877 -0.2558587 0.1508183
vn 0.2572998 -0.960257 0.1081826
vn -0.2578514 -0.9623146 0.08638994
vn -0.2573003 -0.9602569 0.1081825
vn 0.699018 -0.699019 0.1508183
vn 0.948449 -0.254136 0.1893657
vn 0.2558581 -0.9548771 0.1508185
vn -0.2558586 -0.954877 0.1508187
vn 0.6943126 -0.694313 0.189366
vn 0.9448189 -0.2531636 0.2079077
vn 0.691655 -0.6916556 0.2079078
vn 0.2541357 -0.948449 0.189366
vn -0.2541363 -0.9484488 0.1893661
vn 0.2531628 -0.944819 0.2079076
vn -0.2531636 -0.9448189 0.2079076
vn 0.9623146 -0.257852 0.08638879
vn 0.9602569 0.2573005 0.1081818
vn 0.9623147 0.2578516 0.08638867
vn 0.9602569 -0.2573003 0.108182
vn 0.954877 0.2558588 0.1508181
vn 0.954877 -0.2558587 0.1508183
vn 0.948449 0.2541363 0.1893655
vn 0.948449 -0.254136 0.1893657
vn 0.9448189 0.2531639 0.2079073
vn 0.9448189 -0.2531636 0.2079077
g Color_11_0
f 3/3/3 2/2/2 1/1/1
f 2/2/2 4/4/4 1/1/1
f 1/1/1 4/4/4 5/5/5
f 2/2/2 6/6/6 4/4/4
f 4/4/4 7/7/7 5/5/5
f 6/6/6 8/8/8 4/4/4
f 4/4/4 8/8/8 7/7/7
f 6/6/6 9/9/9 8/8/8
f 8/8/8 10/10/10 7/7/7
f 9/9/9 11/11/11 8/8/8
f 8/8/8 11/11/11 10/10/10
f 9/9/9 12/12/12 11/11/11
f 11/11/11 13/13/13 10/10/10
f 12/12/12 14/14/14 11/11/11
f 11/11/11 14/14/14 13/13/13
f 14/14/14 15/15/15 13/13/13
f 18/18/18 17/17/17 16/16/16
f 17/17/17 19/19/19 16/16/16
f 16/16/16 19/19/19 20/20/20
f 17/17/17 21/21/21 19/19/19
f 19/19/19 22/22/22 20/20/20
f 20/20/20 22/22/22 23/23/23
f 22/22/22 24/24/24 23/23/23
f 21/21/21 25/25/25 19/19/19
f 19/19/19 25/25/25 22/22/22
f 21/21/21 26/26/26 25/25/25
f 22/22/22 27/27/27 24/24/24
f 25/25/25 27/27/27 22/22/22
f 27/27/27 28/28/28 24/24/24
f 26/26/26 29/29/29 25/25/25
f 25/25/25 29/29/29 27/27/27
f 26/26/26 30/30/30 29/29/29
f 30/30/30 31/31/31 29/29/29
f 27/27/27 32/32/32 28/28/28
f 29/29/29 32/32/32 27/27/27
f 29/29/29 31/31/31 32/32/32
f 32/32/32 33/33/33 28/28/28
f 31/31/31 34/34/34 32/32/32
f 32/32/32 34/34/34 33/33/33
f 34/34/34 35/35/35 33/33/33
f 38/38/38 37/37/37 36/36/36
f 37/37/37 39/39/39 36/36/36
f 37/37/37 40/40/40 39/39/39
f 40/40/40 41/41/41 39/39/39
f 40/40/40 42/42/42 41/41/41
f 42/42/42 43/43/43 41/41/41
f 42/42/42 44/44/44 43/43/43
f 44/44/44 45/45/45 43/43/43
f 48/48/48 47/47/47 46/46/46
f 47/47/47 49/49/49 46/46/46
f 46/46/46 49/49/49 50/50/50
f 47/47/47 51/51/51 49/49/49
f 49/49/49 52/52/52 50/50/50
f 51/51/51 53/53/53 49/49/49
f 49/49/49 53/53/53 52/52/52
f 51/51/51 54/54/54 53/53/53
f 53/53/53 55/55/55 52/52/52
f 54/54/54 56/56/56 53/53/53
f 53/53/53 56/56/56 55/55/55
f 54/54/54 57/57/57 56/56/56
f 56/56/56 58/58/58 55/55/55
f 57/57/57 59/59/59 56/56/56
f 56/56/56 59/59/59 58/58/58
f 59/59/59 60/60/60 58/58/58
f 63/63/63 62/62/62 61/61/61
f 62/62/62 64/64/64 61/61/61
f 61/61/61 64/64/64 65/65/65
f 62/62/62 66/66/66 64/64/64
f 64/64/64 67/67/67 65/65/65
f 65/65/65 67/67/67 68/68/68
f 67/67/67 69/69/69 68/68/68
f 66/66/66 70/70/70 64/64/64
f 64/64/64 70/70/70 67/67/67
f 66/66/66 71/71/71 70/70/70
f 67/67/67 72/72/72 69/69/69
f 70/70/70 72/72/72 67/67/67
f 72/72/72 73/73/73 69/69/69
f 71/71/71 74/74/74 70/70/70
f 70/70/70 74/74/74 72/72/72
f 71/71/71 75/75/75 74/74/74
f 75/75/75 76/76/76 74/74/74
f 72/72/72 77/77/77 73/73/73
f 74/74/74 77/77/77 72/72/72
f 74/74/74 76/76/76 77/77/77
f 77/77/77 78/78/78 73/73/73
f 76/76/76 79/79/79 77/77/77
f 77/77/77 79/79/79 78/78/78
f 79/79/79 80/80/80 78/78/78
f 83/83/83 82/82/82 81/81/81
f 82/82/82 84/84/84 81/81/81
f 82/82/82 85/85/85 84/84/84
f 85/85/85 86/86/86 84/84/84
f 85/85/85 87/87/87 86/86/86
f 87/87/87 88/88/88 86/86/86
f 87/87/87 89/89/89 88/88/88
f 89/89/89 90/90/90 88/88/88
