g Color_030
v 3.943902 3.943903 0.3987731
v 4.591996 1.230422 1.311302E-06
v 5.387473 1.443567 0.3987743
v 3.361574 3.361573 2.831221E-07
v 1.443567 5.387472 0.3987724
v 1.23042 4.591994 -2.980232E-07
v -1.44357 5.387471 0.3987724
v 1.23042 4.591994 -2.980232E-07
v 1.443567 5.387472 0.3987724
v -1.230423 4.591993 -2.980232E-07
v -3.943907 3.943905 0.3987731
v -3.361576 3.361573 2.831221E-07
v -5.387474 1.443568 0.3987743
v -4.591994 1.23042 1.311302E-06
v -5.387473 -1.443569 0.3987757
v -4.591996 -1.230422 2.473593E-06
v -3.943905 -3.943903 0.3987769
v -4.591996 -1.230422 2.473593E-06
v -5.387473 -1.443569 0.3987757
v -3.361574 -3.361574 3.501773E-06
v -1.44357 -5.387473 0.3987775
v -1.230423 -4.591994 4.082918E-06
v 1.443568 -5.387472 0.3987776
v -1.230423 -4.591994 4.082918E-06
v -1.44357 -5.387473 0.3987775
v 1.23042 -4.591995 4.082918E-06
v 3.943902 -3.943906 0.3987769
v 3.361572 -3.361575 3.501773E-06
v 5.387475 -1.443571 0.3987757
v 3.361572 -3.361575 3.501773E-06
v 3.943902 -3.943906 0.3987769
v 4.591995 -1.230424 2.473593E-06
v 5.387473 1.443567 0.3987743
v 4.591996 1.230422 1.311302E-06
v 4.076572 4.076572 1.172504
v 5.387473 1.443567 0.3987743
v 5.568703 1.49213 1.172505
v 3.943902 3.943903 0.3987731
v 1.492128 5.568705 1.172503
v 1.443567 5.387472 0.3987724
v -1.492131 5.568704 1.172503
v 1.443567 5.387472 0.3987724
v 1.492128 5.568705 1.172503
v -1.44357 5.387471 0.3987724
v -4.076576 4.076572 1.172504
v -3.943907 3.943905 0.3987731
v -5.568705 1.49213 1.172505
v -5.387474 1.443568 0.3987743
v -5.568704 -1.49213 1.172507
v -5.387473 -1.443569 0.3987757
v -4.076575 -4.076573 1.172508
v -5.387473 -1.443569 0.3987757
v -5.568704 -1.49213 1.172507
v -3.943905 -3.943903 0.3987769
v -1.492131 -5.568704 1.172508
v -1.44357 -5.387473 0.3987775
v 1.492128 -5.568704 1.172509
v -1.44357 -5.387473 0.3987775
v -1.492131 -5.568704 1.172508
v 1.443568 -5.387472 0.3987776
v 4.076573 -4.076576 1.172508
v 3.943902 -3.943906 0.3987769
v 5.568705 -1.492131 1.172503
v 3.943902 -3.943906 0.3987769
v 4.076573 -4.076576 1.172508
v 5.387475 -1.443571 0.3987757
v 5.568703 1.49213 1.172505
v 5.387473 1.443567 0.3987743
v 1.294891 4.832603 2.130767
v 1.492128 5.568705 1.172503
v 4.076572 4.076572 1.172504
v 3.537712 3.537713 2.130767
v 5.568703 1.49213 1.172505
v 4.832605 1.294893 2.130768
v 3.655074 0.9793753 2.981896
v 2.675699 2.675698 2.981895
v 2.755836 0.7384247 3.353172
v 0.9793738 3.655076 2.981891
v 2.017411 2.017411 3.353171
v 0.7384248 2.755841 3.353164
v -4.832605 -1.294893 2.13077
v -5.568704 -1.49213 1.172507
v -5.568705 1.49213 1.172505
v -4.832603 1.294894 2.130769
v -4.076576 4.076572 1.172504
v -3.655075 0.9793749 2.981896
v -3.655075 -0.9793733 2.981893
v -3.537714 3.537713 2.130767
v -1.492131 5.568704 1.172503
v -2.755838 0.738425 3.353172
v -2.755839 -0.7384238 3.353166
v -2.017415 2.017415 3.353164
v -2.675701 2.6757 2.981891
v -0.7384247 2.755835 3.353165
v -0.9793755 3.655072 2.981891
v 0.7384248 2.755841 3.353164
v 0.9793738 3.655076 2.981891
v -1.294894 4.832603 2.130767
v 1.492128 5.568705 1.172503
v 1.294891 4.832603 2.130767
v 3.53771 -3.537714 2.13077
v 4.076573 -4.076576 1.172508
v 1.492128 -5.568704 1.172509
v 1.294892 -4.832604 2.130772
v -1.492131 -5.568704 1.172508
v 0.9793741 -3.655072 2.981898
v 2.6757 -2.6757 2.981894
v -1.294894 -4.832602 2.130772
v -4.076575 -4.076573 1.172508
v 0.738424 -2.755837 3.353173
v 2.017412 -2.017413 3.353167
v -0.7384259 -2.755837 3.353168
v -0.9793757 -3.655074 2.981894
v -2.017414 -2.017412 3.353167
v -2.6757 -2.675698 2.981893
v -2.755839 -0.7384238 3.353166
v -3.655075 -0.9793733 2.981893
v -3.537712 -3.537711 2.130771
v -5.568704 -1.49213 1.172507
v -4.832605 -1.294893 2.13077
v 4.832605 1.294893 2.130768
v 5.568703 1.49213 1.172505
v 5.568705 -1.492131 1.172503
v 4.832606 -1.294894 2.13077
v 4.076573 -4.076576 1.172508
v 3.53771 -3.537714 2.13077
v 2.6757 -2.6757 2.981894
v 3.655074 0.9793753 2.981896
v 3.655074 -0.9793748 2.981893
v 2.017412 -2.017413 3.353167
v 2.75584 -0.7384251 3.353166
v 2.755836 0.7384247 3.353172
v 1.479231 1.479231 2.644657
v 2.020668 0.5414366 2.644658
v 5.537925E-13 -1.724851E-07 2.157078
v 0.5414368 2.020672 2.644651
v 2.020672 -0.5414373 2.644652
v -0.5414375 2.020667 2.644651
v 1.479231 -1.479233 2.644652
v -1.479235 1.479234 2.644651
v 0.5414375 -2.020669 2.644659
v -2.02067 0.541437 2.644657
v -0.5414368 -2.020668 2.644653
v -2.02067 -0.5414363 2.644652
v -1.479233 -1.479232 2.644653
v 2.017411 2.017411 3.353171
v 2.755836 0.7384247 3.353172
v 2.020669 0.5414368 3.410551
v 1.479231 1.479231 3.41055
v 2.020671 -0.5414372 3.410545
v 0.7384248 2.755841 3.353164
v 2.75584 -0.7384251 3.353166
v 0.5414371 2.020672 3.410544
v 1.479231 -1.479233 3.410545
v -0.7384247 2.755835 3.353165
v 2.017412 -2.017413 3.353167
v -0.5414367 2.020667 3.410544
v 0.5414362 -2.020669 3.410552
v -2.017415 2.017415 3.353164
v 0.738424 -2.755837 3.353173
v -1.479234 1.479234 3.410544
v -0.5414381 -2.020668 3.410546
v -2.755838 0.738425 3.353172
v -0.7384259 -2.755837 3.353168
v -2.02067 0.5414373 3.41055
v -1.479234 -1.479232 3.410546
v -2.755839 -0.7384238 3.353166
v -2.017414 -2.017412 3.353167
v -2.02067 -0.5414361 3.410545
v 2.020669 0.5414368 3.410551
v 2.020668 0.5414366 2.644658
v 1.479231 1.479231 2.644657
v 1.479231 1.479231 3.41055
v 2.020671 -0.5414372 3.410545
v 0.5414368 2.020672 2.644651
v 2.020672 -0.5414373 2.644652
v 0.5414371 2.020672 3.410544
v 1.479231 -1.479233 3.410545
v -0.5414375 2.020667 2.644651
v 1.479231 -1.479233 2.644652
v -0.5414367 2.020667 3.410544
v 0.5414362 -2.020669 3.410552
v -1.479235 1.479234 2.644651
v 0.5414375 -2.020669 2.644659
v -1.479234 1.479234 3.410544
v -0.5414381 -2.020668 3.410546
v -2.02067 0.541437 2.644657
v -0.5414368 -2.020668 2.644653
v -2.02067 0.5414373 3.41055
v -1.479234 -1.479232 3.410546
v -2.02067 -0.5414363 2.644652
v -1.479233 -1.479232 2.644653
v -2.02067 -0.5414361 3.410545
vt 0.00925009 0.03667416
vt 0.009980574 0.03328583
vt 0.009980574 0.03667416
vt 0.00925009 0.03328583
vt 0.008564278 0.03667416
vt 0.008564278 0.03328583
vt 0.01212902 0.03667399
vt 0.0128905 0.03328949
vt 0.0128905 0.03667399
vt 0.01212902 0.03328949
vt 0.01142469 0.03667399
vt 0.01142469 0.03328949
vt 0.01070699 0.03667399
vt 0.01070699 0.03328949
vt 0.009986311 0.03667399
vt 0.009986311 0.03328949
vt 0.009256646 0.03667399
vt 0.009986311 0.03328949
vt 0.009986311 0.03667399
vt 0.009256646 0.03328949
vt 0.00856182 0.03667399
vt 0.00856182 0.03328949
vt 0.01212572 0.03667416
vt 0.01288804 0.03328583
vt 0.01288804 0.03667416
vt 0.01212572 0.03328583
vt 0.01142056 0.03667416
vt 0.01142056 0.03328583
vt 0.01070207 0.03667416
vt 0.01142056 0.03328583
vt 0.01142056 0.03667416
vt 0.01070207 0.03328583
vt 0.009980574 0.03667416
vt 0.009980574 0.03328583
vt 0.009319946 0.007933954
vt 0.01001586 0.007724928
vt 0.01001586 0.007933954
vt 0.009319946 0.007724928
vt 0.00866662 0.007933954
vt 0.00866662 0.007724928
vt 0.01206262 0.007933835
vt 0.01278804 0.007725047
vt 0.01278804 0.007933835
vt 0.01206262 0.007725047
vt 0.01139162 0.007933835
vt 0.01139162 0.007725047
vt 0.0107079 0.007933835
vt 0.0107079 0.007725047
vt 0.01002131 0.007933835
vt 0.01002131 0.007725047
vt 0.009326205 0.007933835
vt 0.01002131 0.007725047
vt 0.01002131 0.007933835
vt 0.009326205 0.007725047
vt 0.008664265 0.007933835
vt 0.008664265 0.007725047
vt 0.01205947 0.007933954
vt 0.01278572 0.007724928
vt 0.01278572 0.007933954
vt 0.01205947 0.007724928
vt 0.01138769 0.007933954
vt 0.01138769 0.007724928
vt 0.01070319 0.007933954
vt 0.01138769 0.007724928
vt 0.01138769 0.007933954
vt 0.01070319 0.007724928
vt 0.01001586 0.007933954
vt 0.01001586 0.007724928
vt 0.03334239 0.01325271
vt 0.03340936 0.0135026
vt 0.03403088 0.01314371
vt 0.03384794 0.01296079
vt 0.03438975 0.01252218
vt 0.03413987 0.01245523
vt 0.03384337 0.0123758
vt 0.03363082 0.01274371
vt 0.03364901 0.01232363
vt 0.03326292 0.0129562
vt 0.03348871 0.01260141
vt 0.03321093 0.01276199
vt 0.03196113 0.01187141
vt 0.03171124 0.01180446
vt 0.03171124 0.01252218
vt 0.03196113 0.01245523
vt 0.03207012 0.01314372
vt 0.03225763 0.0123758
vt 0.03225763 0.01195084
vt 0.03225306 0.01296079
vt 0.03269164 0.0135026
vt 0.03245197 0.01232363
vt 0.03245197 0.012003
vt 0.03261231 0.01260141
vt 0.03247018 0.01274371
vt 0.03289007 0.01276198
vt 0.03283808 0.01295619
vt 0.03321093 0.01276199
vt 0.03326292 0.0129562
vt 0.03275861 0.01325271
vt 0.03340936 0.0135026
vt 0.03334239 0.01325271
vt 0.03384794 0.01136585
vt 0.03403088 0.01118292
vt 0.03340936 0.01082404
vt 0.03334239 0.01107392
vt 0.03269164 0.01082404
vt 0.03326292 0.01137044
vt 0.03363083 0.01158292
vt 0.03275861 0.01107392
vt 0.03207012 0.01118292
vt 0.03321093 0.01156465
vt 0.03348871 0.01172523
vt 0.03289007 0.01156465
vt 0.03283808 0.01137044
vt 0.03261231 0.01172523
vt 0.03247018 0.01158292
vt 0.03245197 0.012003
vt 0.03225763 0.01195084
vt 0.03225306 0.01136586
vt 0.03171124 0.01180446
vt 0.03196113 0.01187141
vt 0.03413987 0.01245523
vt 0.03438975 0.01252218
vt 0.03438975 0.01180446
vt 0.03413987 0.01187141
vt 0.03403088 0.01118292
vt 0.03384794 0.01136585
vt 0.03363083 0.01158292
vt 0.03384337 0.0123758
vt 0.03384337 0.01195084
vt 0.03348871 0.01172523
vt 0.03364901 0.012003
vt 0.03364901 0.01232363
vt 0.06026329 0.03939319
vt 0.06039028 0.03917236
vt 0.05991484 0.0390451
vt 0.06004252 0.03952116
vt 0.06039028 0.03891784
vt 0.05978717 0.03952116
vt 0.06026329 0.03869701
vt 0.05956639 0.03939319
vt 0.06004255 0.03856904
vt 0.05943941 0.03917236
vt 0.05978717 0.03856904
vt 0.05943941 0.03891784
vt 0.05956639 0.03869701
vt 0.03348871 0.01260141
vt 0.03364901 0.01232363
vt 0.03350405 0.01228489
vt 0.03338259 0.01249554
vt 0.03350405 0.01204175
vt 0.03321093 0.01276199
vt 0.03364901 0.012003
vt 0.03317209 0.01261727
vt 0.03338259 0.0118311
vt 0.03289007 0.01276198
vt 0.03348871 0.01172523
vt 0.03292891 0.01261727
vt 0.03317209 0.01170937
vt 0.03261231 0.01260141
vt 0.03321093 0.01156465
vt 0.03271841 0.01249554
vt 0.03292891 0.01170937
vt 0.03245197 0.01232363
vt 0.03289007 0.01156465
vt 0.03259695 0.01228489
vt 0.03271841 0.0118311
vt 0.03245197 0.012003
vt 0.03261231 0.01172523
vt 0.03259695 0.01204175
vt 0.03484893 0.03454838
vt 0.03476413 0.03452569
vt 0.03471752 0.03460655
vt 0.03477962 0.03466859
vt 0.03484893 0.03440963
vt 0.03463675 0.03465328
vt 0.03476413 0.03443234
vt 0.03465949 0.03473806
vt 0.03477962 0.03428943
vt 0.03454347 0.03465328
vt 0.03471752 0.03435146
vt 0.03452073 0.03473805
vt 0.03465949 0.03421997
vt 0.03446271 0.03460655
vt 0.03463675 0.03430474
vt 0.0344006 0.03466859
vt 0.03452073 0.03421997
vt 0.03441609 0.03452569
vt 0.03454347 0.03430474
vt 0.03433131 0.03454838
vt 0.0344006 0.03428943
vt 0.03441609 0.03443234
vt 0.03446271 0.03435146
vt 0.03433131 0.03440963
vn 0.3081678 0.3081675 -0.9000363
vn 0.4209648 0.1127971 -0.9000363
vn 0.4209648 0.1127968 -0.9000363
vn 0.3081678 0.3081674 -0.9000363
vn 0.112797 0.4209643 -0.9000366
vn 0.1127971 0.4209642 -0.9000366
vn -0.112797 0.4209641 -0.9000366
vn 0.1127971 0.4209642 -0.9000366
vn 0.112797 0.4209643 -0.9000366
vn -0.112797 0.4209641 -0.9000368
vn -0.3081671 0.3081667 -0.9000369
vn -0.3081671 0.3081666 -0.9000369
vn -0.4209642 0.1127964 -0.9000368
vn -0.4209642 0.1127964 -0.9000368
vn -0.4209644 -0.1127975 -0.9000366
vn -0.4209644 -0.1127975 -0.9000366
vn -0.3081675 -0.3081678 -0.9000363
vn -0.4209644 -0.1127975 -0.9000366
vn -0.4209644 -0.1127975 -0.9000366
vn -0.3081673 -0.308168 -0.9000363
vn -0.112797 -0.4209648 -0.9000363
vn -0.1127971 -0.4209648 -0.9000363
vn 0.1127969 -0.4209648 -0.9000365
vn -0.1127971 -0.4209648 -0.9000363
vn -0.112797 -0.4209648 -0.9000363
vn 0.1127969 -0.4209647 -0.9000363
vn 0.308167 -0.3081679 -0.9000365
vn 0.308167 -0.3081679 -0.9000366
vn 0.4209642 -0.1127976 -0.9000366
vn 0.308167 -0.3081679 -0.9000366
vn 0.308167 -0.3081679 -0.9000365
vn 0.4209642 -0.1127976 -0.9000366
vn 0.4209648 0.1127968 -0.9000363
vn 0.4209648 0.1127971 -0.9000363
vn 0.6871911 0.687191 -0.2356628
vn 0.9387203 0.2515296 -0.2356627
vn 0.9387202 0.2515303 -0.2356628
vn 0.687191 0.6871911 -0.2356628
vn 0.2515295 0.9387202 -0.2356639
vn 0.2515294 0.9387202 -0.2356639
vn -0.2515295 0.9387203 -0.2356634
vn 0.2515294 0.9387202 -0.2356639
vn 0.2515295 0.9387202 -0.2356639
vn -0.2515294 0.9387203 -0.2356634
vn -0.6871915 0.687191 -0.235662
vn -0.6871911 0.6871913 -0.235662
vn -0.9387206 0.251529 -0.2356624
vn -0.9387206 0.251529 -0.2356624
vn -0.9387203 -0.2515297 -0.2356626
vn -0.9387203 -0.2515296 -0.2356626
vn -0.6871911 -0.6871911 -0.2356626
vn -0.9387203 -0.2515296 -0.2356626
vn -0.9387203 -0.2515297 -0.2356626
vn -0.6871912 -0.6871909 -0.2356626
vn -0.2515294 -0.9387203 -0.2356632
vn -0.2515293 -0.9387203 -0.2356632
vn 0.251529 -0.9387203 -0.2356633
vn -0.2515293 -0.9387203 -0.2356632
vn -0.2515294 -0.9387203 -0.2356632
vn 0.2515292 -0.9387203 -0.2356633
vn 0.6871904 -0.6871915 -0.2356632
vn 0.6871902 -0.6871917 -0.2356632
vn 0.9387203 -0.2515296 -0.2356631
vn 0.6871902 -0.6871917 -0.2356632
vn 0.6871904 -0.6871915 -0.2356632
vn 0.9387203 -0.2515296 -0.2356631
vn 0.9387202 0.2515303 -0.2356628
vn 0.9387203 0.2515296 -0.2356627
vn 0.1804022 0.6732712 0.7170501
vn 0.2025714 0.756007 0.6224292
vn 0.5534359 0.5534363 0.6224283
vn 0.4928689 0.4928694 0.7170494
vn 0.7560079 0.202572 0.6224279
vn 0.6732717 0.180403 0.7170494
vn 0.4724323 0.126588 0.8722289
vn 0.3458441 0.3458453 0.8722287
vn 0.2405984 0.06446717 0.9684815
vn 0.1265871 0.4724327 0.8722289
vn 0.1761289 0.1761315 0.9684814
vn 0.06446675 0.2405998 0.9684812
vn -0.6732709 -0.1804023 0.7170504
vn -0.7560069 -0.2025713 0.6224294
vn -0.756007 0.2025715 0.6224293
vn -0.6732711 0.1804028 0.7170501
vn -0.5534358 0.5534358 0.622429
vn -0.4724319 0.126588 0.872229
vn -0.4724318 -0.1265881 0.8722292
vn -0.4928685 0.4928691 0.7170501
vn -0.2025714 0.756007 0.6224291
vn -0.2405973 0.06446821 0.9684817
vn -0.2405983 -0.06446949 0.9684814
vn -0.1761293 0.1761322 0.9684812
vn -0.3458436 0.345845 0.872229
vn -0.0644682 0.2405982 0.9684815
vn -0.1265878 0.4724318 0.8722292
vn 0.06446675 0.2405998 0.9684812
vn 0.1265871 0.4724327 0.8722289
vn -0.1804024 0.673271 0.7170503
vn 0.2025714 0.756007 0.6224292
vn 0.1804022 0.6732712 0.7170501
vn 0.4928686 -0.4928687 0.7170502
vn 0.5534359 -0.5534356 0.6224289
vn 0.2025712 -0.7560067 0.6224298
vn 0.1804023 -0.6732708 0.7170505
vn -0.2025715 -0.7560064 0.6224301
vn 0.1265877 -0.4724316 0.8722293
vn 0.3458445 -0.3458436 0.8722292
vn -0.1804028 -0.6732704 0.7170507
vn -0.5534356 -0.5534351 0.6224297
vn 0.06446794 -0.2405971 0.9684817
vn 0.1761314 -0.1761289 0.9684815
vn -0.06447003 -0.2405979 0.9684814
vn -0.1265886 -0.4724317 0.872229
vn -0.1761303 -0.1761295 0.9684815
vn -0.3458439 -0.3458435 0.8722295
vn -0.2405983 -0.06446949 0.9684814
vn -0.4724318 -0.1265881 0.8722292
vn -0.4928684 -0.4928682 0.7170507
vn -0.7560069 -0.2025713 0.6224294
vn -0.6732709 -0.1804023 0.7170504
vn 0.6732717 0.180403 0.7170494
vn 0.7560079 0.202572 0.6224279
vn 0.7560078 -0.2025715 0.6224283
vn 0.6732714 -0.1804026 0.71705
vn 0.5534359 -0.5534356 0.6224289
vn 0.4928686 -0.4928687 0.7170502
vn 0.3458445 -0.3458436 0.8722292
vn 0.4724323 0.126588 0.8722289
vn 0.4724317 -0.126588 0.8722292
vn 0.1761314 -0.1761289 0.9684815
vn 0.2405983 -0.0644694 0.9684814
vn 0.2405984 0.06446717 0.9684815
vn -0.1605087 -0.1605038 0.9738971
vn -0.219255 -0.05875212 0.9738971
vn 0 0 1
vn -0.05875116 -0.2192518 0.9738978
vn -0.2192536 0.05874628 0.9738976
vn 0.05874878 -0.219253 0.9738976
vn -0.1605022 0.1605071 0.9738975
vn 0.1605059 -0.160502 0.9738978
vn -0.05874921 0.2192563 0.973897
vn 0.2192556 -0.05874883 0.9738971
vn 0.05874602 0.2192546 0.9738974
vn 0.2192535 0.05874654 0.9738976
vn 0.1605041 0.1605053 0.9738975
vn 0.1761289 0.1761315 0.9684814
vn 0.2405984 0.06446717 0.9684815
vn 0.07261429 0.01945509 0.9971704
vn 0.05315536 0.05315901 0.9971703
vn 0.07261446 -0.01945896 0.9971703
vn 0.06446675 0.2405998 0.9684812
vn 0.2405983 -0.0644694 0.9684814
vn 0.01945501 0.07261603 0.9971703
vn 0.05315956 -0.05315578 0.9971703
vn -0.0644682 0.2405982 0.9684815
vn 0.1761314 -0.1761289 0.9684815
vn -0.01945716 0.07261492 0.9971703
vn 0.01945675 -0.07261261 0.9971704
vn -0.1761293 0.1761322 0.9684812
vn 0.06446794 -0.2405971 0.9684817
vn -0.05315639 0.05315999 0.9971703
vn -0.01945949 -0.07261389 0.9971703
vn -0.2405973 0.06446821 0.9684817
vn -0.06447003 -0.2405979 0.9684814
vn -0.07261318 0.01945703 0.9971704
vn -0.05315784 -0.05315689 0.9971703
vn -0.2405983 -0.06446949 0.9684814
vn -0.1761303 -0.1761295 0.9684815
vn -0.0726146 -0.01945891 0.9971703
vn -0.9659252 -0.2588215 0
vn -0.9659254 -0.2588207 0
vn -0.7071075 -0.7071061 0
vn -0.7071082 -0.7071053 0
vn -0.9659258 0.2588187 0
vn -0.2588183 -0.9659261 0
vn -0.9659256 0.2588196 0
vn -0.2588193 -0.9659257 0
vn -0.7071055 0.707108 0
vn 0.2588197 -0.9659256 0
vn -0.7071062 0.7071072 0
vn 0.2588193 -0.9659257 0
vn -0.2588186 0.9659259 0
vn 0.7071058 -0.7071077 0
vn -0.2588193 0.9659257 0
vn 0.7071063 -0.7071072 0
vn 0.2588191 0.9659258 0
vn 0.9659259 -0.2588184 0
vn 0.2588196 0.9659256 0
vn 0.9659259 -0.2588184 0
vn 0.7071066 0.7071069 0
vn 0.9659257 0.2588194 0
vn 0.7071065 0.707107 0
vn 0.9659259 0.2588186 0
g Color_030_0
f 3/3/3 2/2/2 1/1/1
f 2/2/2 4/4/4 1/1/1
f 1/1/1 4/4/4 5/5/5
f 4/4/4 6/6/6 5/5/5
f 9/9/9 8/8/8 7/7/7
f 8/8/8 10/10/10 7/7/7
f 7/7/7 10/10/10 11/11/11
f 10/10/10 12/12/12 11/11/11
f 11/11/11 12/12/12 13/13/13
f 12/12/12 14/14/14 13/13/13
f 13/13/13 14/14/14 15/15/15
f 14/14/14 16/16/16 15/15/15
f 19/19/19 18/18/18 17/17/17
f 18/18/18 20/20/20 17/17/17
f 17/17/17 20/20/20 21/21/21
f 20/20/20 22/22/22 21/21/21
f 25/25/25 24/24/24 23/23/23
f 24/24/24 26/26/26 23/23/23
f 23/23/23 26/26/26 27/27/27
f 26/26/26 28/28/28 27/27/27
f 31/31/31 30/30/30 29/29/29
f 30/30/30 32/32/32 29/29/29
f 29/29/29 32/32/32 33/33/33
f 32/32/32 34/34/34 33/33/33
f 37/37/37 36/36/36 35/35/35
f 36/36/36 38/38/38 35/35/35
f 35/35/35 38/38/38 39/39/39
f 38/38/38 40/40/40 39/39/39
f 43/43/43 42/42/42 41/41/41
f 42/42/42 44/44/44 41/41/41
f 41/41/41 44/44/44 45/45/45
f 44/44/44 46/46/46 45/45/45
f 45/45/45 46/46/46 47/47/47
f 46/46/46 48/48/48 47/47/47
f 47/47/47 48/48/48 49/49/49
f 48/48/48 50/50/50 49/49/49
f 53/53/53 52/52/52 51/51/51
f 52/52/52 54/54/54 51/51/51
f 51/51/51 54/54/54 55/55/55
f 54/54/54 56/56/56 55/55/55
f 59/59/59 58/58/58 57/57/57
f 58/58/58 60/60/60 57/57/57
f 57/57/57 60/60/60 61/61/61
f 60/60/60 62/62/62 61/61/61
f 65/65/65 64/64/64 63/63/63
f 64/64/64 66/66/66 63/63/63
f 63/63/63 66/66/66 67/67/67
f 66/66/66 68/68/68 67/67/67
f 71/71/71 70/70/70 69/69/69
f 72/72/72 71/71/71 69/69/69
f 73/73/73 71/71/71 72/72/72
f 74/74/74 73/73/73 72/72/72
f 75/75/75 74/74/74 72/72/72
f 76/76/76 72/72/72 69/69/69
f 76/76/76 75/75/75 72/72/72
f 77/77/77 75/75/75 76/76/76
f 78/78/78 76/76/76 69/69/69
f 79/79/79 77/77/77 76/76/76
f 79/79/79 76/76/76 78/78/78
f 80/80/80 79/79/79 78/78/78
f 83/83/83 82/82/82 81/81/81
f 84/84/84 83/83/83 81/81/81
f 85/85/85 83/83/83 84/84/84
f 86/86/86 84/84/84 81/81/81
f 87/87/87 86/86/86 81/81/81
f 88/88/88 85/85/85 84/84/84
f 89/89/89 85/85/85 88/88/88
f 90/90/90 86/86/86 87/87/87
f 91/91/91 90/90/90 87/87/87
f 90/90/90 92/92/92 86/86/86
f 86/86/86 93/93/93 84/84/84
f 92/92/92 93/93/93 86/86/86
f 93/93/93 88/88/88 84/84/84
f 92/92/92 94/94/94 93/93/93
f 94/94/94 95/95/95 93/93/93
f 93/93/93 95/95/95 88/88/88
f 94/94/94 96/96/96 95/95/95
f 96/96/96 97/97/97 95/95/95
f 98/98/98 89/89/89 88/88/88
f 95/95/95 98/98/98 88/88/88
f 95/95/95 97/97/97 98/98/98
f 99/99/99 89/89/89 98/98/98
f 97/97/97 100/100/100 98/98/98
f 100/100/100 99/99/99 98/98/98
f 103/103/103 102/102/102 101/101/101
f 104/104/104 103/103/103 101/101/101
f 105/105/105 103/103/103 104/104/104
f 106/106/106 104/104/104 101/101/101
f 107/107/107 106/106/106 101/101/101
f 108/108/108 105/105/105 104/104/104
f 109/109/109 105/105/105 108/108/108
f 110/110/110 106/106/106 107/107/107
f 111/111/111 110/110/110 107/107/107
f 110/110/110 112/112/112 106/106/106
f 106/106/106 113/113/113 104/104/104
f 112/112/112 113/113/113 106/106/106
f 113/113/113 108/108/108 104/104/104
f 112/112/112 114/114/114 113/113/113
f 114/114/114 115/115/115 113/113/113
f 113/113/113 115/115/115 108/108/108
f 114/114/114 116/116/116 115/115/115
f 116/116/116 117/117/117 115/115/115
f 118/118/118 109/109/109 108/108/108
f 115/115/115 118/118/118 108/108/108
f 115/115/115 117/117/117 118/118/118
f 119/119/119 109/109/109 118/118/118
f 117/117/117 120/120/120 118/118/118
f 120/120/120 119/119/119 118/118/118
f 123/123/123 122/122/122 121/121/121
f 124/124/124 123/123/123 121/121/121
f 125/125/125 123/123/123 124/124/124
f 126/126/126 125/125/125 124/124/124
f 127/127/127 126/126/126 124/124/124
f 121/121/121 128/128/128 124/124/124
f 129/129/129 127/127/127 124/124/124
f 128/128/128 129/129/129 124/124/124
f 130/130/130 127/127/127 129/129/129
f 131/131/131 130/130/130 129/129/129
f 131/131/131 129/129/129 128/128/128
f 132/132/132 131/131/131 128/128/128
f 135/135/135 134/134/134 133/133/133
f 135/135/135 133/133/133 136/136/136
f 135/135/135 137/137/137 134/134/134
f 135/135/135 136/136/136 138/138/138
f 135/135/135 139/139/139 137/137/137
f 135/135/135 138/138/138 140/140/140
f 135/135/135 141/141/141 139/139/139
f 135/135/135 140/140/140 142/142/142
f 135/135/135 143/143/143 141/141/141
f 135/135/135 142/142/142 144/144/144
f 135/135/135 145/145/145 143/143/143
f 135/135/135 144/144/144 145/145/145
f 148/148/148 147/147/147 146/146/146
f 149/149/149 148/148/148 146/146/146
f 148/148/148 150/150/150 147/147/147
f 149/149/149 146/146/146 151/151/151
f 150/150/150 152/152/152 147/147/147
f 153/153/153 149/149/149 151/151/151
f 150/150/150 154/154/154 152/152/152
f 153/153/153 151/151/151 155/155/155
f 154/154/154 156/156/156 152/152/152
f 157/157/157 153/153/153 155/155/155
f 154/154/154 158/158/158 156/156/156
f 157/157/157 155/155/155 159/159/159
f 158/158/158 160/160/160 156/156/156
f 161/161/161 157/157/157 159/159/159
f 158/158/158 162/162/162 160/160/160
f 161/161/161 159/159/159 163/163/163
f 162/162/162 164/164/164 160/160/160
f 165/165/165 161/161/161 163/163/163
f 162/162/162 166/166/166 164/164/164
f 165/165/165 163/163/163 167/167/167
f 166/166/166 168/168/168 164/164/164
f 169/169/169 165/165/165 167/167/167
f 169/169/169 167/167/167 168/168/168
f 166/166/166 169/169/169 168/168/168
f 172/172/172 171/171/171 170/170/170
f 173/173/173 172/172/172 170/170/170
f 170/170/170 171/171/171 174/174/174
f 175/175/175 172/172/172 173/173/173
f 171/171/171 176/176/176 174/174/174
f 177/177/177 175/175/175 173/173/173
f 174/174/174 176/176/176 178/178/178
f 179/179/179 175/175/175 177/177/177
f 176/176/176 180/180/180 178/178/178
f 181/181/181 179/179/179 177/177/177
f 178/178/178 180/180/180 182/182/182
f 183/183/183 179/179/179 181/181/181
f 180/180/180 184/184/184 182/182/182
f 185/185/185 183/183/183 181/181/181
f 182/182/182 184/184/184 186/186/186
f 187/187/187 183/183/183 185/185/185
f 184/184/184 188/188/188 186/186/186
f 189/189/189 187/187/187 185/185/185
f 186/186/186 188/188/188 190/190/190
f 191/191/191 187/187/187 189/189/189
f 188/188/188 192/192/192 190/190/190
f 193/193/193 191/191/191 189/189/189
f 190/190/190 192/192/192 193/193/193
f 192/192/192 191/191/191 193/193/193
