g Color_Boss_37
v 0.3890042 0.395203 -1.031006
v 0.9520054 0.3925851 -1.024157
v 0.9519739 0.9460999 -0.4235108
v 0.3889718 0.9523112 -0.4263048
v 0.9519758 0.9460997 0.4234933
v 0.3889747 0.952311 0.4263214
v 0.9520082 0.3925847 1.02414
v 0.3890057 0.3952026 1.031018
v 0.3890057 0.3952026 1.031018
v 0.9520082 0.3925847 1.02414
v 0.9520092 -0.3925841 1.024141
v 0.3890076 -0.3951749 1.031019
v 0.3889928 -0.6828334 0.7188548
v 0.3890076 -0.3951749 1.031019
v 0.9520092 -0.3925841 1.024141
v 0.9519806 -0.9460984 0.4234945
v 0.3889794 -0.9524001 0.4263228
v 0.3889794 -0.9524001 0.4263228
v 0.9519806 -0.9460984 0.4234945
v 0.9519806 -0.9460992 -0.423495
v 0.388978 -0.9524006 -0.4262934
v 0.9520073 -0.3925843 -1.024159
v 0.3890042 -0.3951753 -1.031008
v 0.3890042 -0.3951753 -1.031008
v 0.9520073 -0.3925843 -1.024159
v 0.9520054 0.3925851 -1.024157
v 0.3890042 0.395203 -1.031006
v 1.451992 -0.4803796 1.265952
v 1.319664 -1.159739 0.5243679
v 1.258893 -0.4656507 1.227103
v 1.451992 0.4803457 1.265952
v 1.258893 0.465618 1.227139
v 1.319664 1.159739 0.5243682
v -1.825078 0.373289 0.9836395
v 0.3359675 0.8846807 0.4000288
v 0.3359675 0.3664986 0.9658
v -1.825078 0.9007891 0.4073642
v 0.3359675 0.8846809 -0.400012
v -1.825078 0.9007893 -0.4072577
v 0.3359675 0.366499 -0.9657877
v -1.825078 0.3732895 -0.9835509
v -1.825078 -0.3731925 0.9836395
v -1.825078 0.373289 0.9836395
v 0.3359675 0.3664986 0.9658
v 0.3359675 -0.3664722 0.9657996
v -1.825078 -0.9011146 0.407364
v -1.825078 -0.6408408 0.6914767
v 0.3359675 -0.636188 0.6713794
v 0.3359675 -0.8847716 0.4000286
v -1.825078 -0.9011145 -0.4072581
v 0.3359675 -0.8847715 -0.3999996
v -1.825078 -0.373192 -0.9835511
v 0.3359675 -0.3664717 -0.9657879
v -1.825078 0.3732895 -0.9835509
v -1.825078 -0.373192 -0.9835511
v 0.3359675 -0.3664717 -0.9657879
v 0.3359675 0.366499 -0.9657877
v 0.3359675 0.3664986 0.9658
v 0.3890076 -0.3951749 1.031019
v 0.3359675 -0.3664722 0.9657996
v 0.3890057 0.3952026 1.031018
v 0.3359675 0.8846807 0.4000288
v 0.3889747 0.952311 0.4263214
v 0.3359675 0.8846809 -0.400012
v 0.3889718 0.9523112 -0.4263048
v 0.3359675 0.366499 -0.9657877
v 0.3890042 0.395203 -1.031006
v 0.3359675 -0.3664717 -0.9657879
v 0.3890042 -0.3951753 -1.031008
v 0.3359675 -0.8847715 -0.3999996
v 0.388978 -0.9524006 -0.4262934
v 0.3359675 -0.8847716 0.4000286
v 0.3889794 -0.9524001 0.4263228
v 1.00349 -0.3638815 0.9589212
v 0.9520092 -0.3925841 1.024141
v 0.9520082 0.3925847 1.02414
v 1.00349 0.3638807 0.9589212
v 0.9519758 0.9460997 0.4234933
v 1.00349 0.8784694 0.3972007
v 0.9519739 0.9460999 -0.4235108
v 1.00349 0.8784695 -0.3972182
v 0.9520054 0.3925851 -1.024157
v 1.00349 0.3638811 -0.9589389
v 0.9520073 -0.3925843 -1.024159
v 1.00349 -0.3638811 -0.9589391
v 0.9519806 -0.9460992 -0.423495
v 1.00349 -0.8784698 -0.3972009
v 0.9519806 -0.9460984 0.4234945
v 1.00349 -0.8784699 0.3972005
v 0.3889928 -0.6828334 0.7188548
v 0.3889794 -0.9524001 0.4263228
v 0.3359675 -0.8847716 0.4000286
v 0.3359675 -0.636188 0.6713794
v 0.3359675 -0.3664722 0.9657996
v 0.3890076 -0.3951749 1.031019
v 0.9519806 -0.9460984 0.4234945
v 0.9520092 -0.3925841 1.024141
v 1.00349 -0.3638815 0.9589212
v 1.00349 -0.8784699 0.3972005
v 1.782977 0.471674 -0.2132151
v 1.794788 0.4686938 0.2242531
v 1.816361 0.5370306 -0.2427667
v 1.783813 0.1954978 -0.514673
v 1.8168 0.2214881 -0.5831776
v 1.783814 -0.1952577 -0.5146741
v 1.8168 -0.2212501 -0.5831729
v 1.783007 -0.4713757 -0.2131208
v 1.816508 -0.5359997 -0.2423413
v 1.783188 -0.4708029 0.2141588
v 1.816406 -0.5366606 0.2426559
v 1.795465 -0.2049692 0.5401212
v -1.825078 -0.6408408 0.6914767
v -1.825078 -0.3731925 0.9836395
v 0.3359675 -0.3664722 0.9657996
v 0.3359675 -0.636188 0.6713794
v 1.719486 -0.4803796 1.265952
v 1.719486 -1.159739 0.5243679
v 1.319664 -1.159739 0.5243679
v 1.719486 -1.159739 -0.5243689
v 1.451992 -0.4803796 1.265952
v 1.451992 0.4803457 1.265952
v 1.719486 0.4803457 1.265952
v 1.319664 1.159739 0.5243682
v 1.719486 1.159739 0.5243682
v 1.319664 -1.159739 -0.5243689
v 1.719486 -0.4803792 -1.265952
v 1.319664 1.159739 -0.5243684
v 1.719486 1.159739 -0.5243684
v 1.00349 -0.8784699 0.3972005
v 1.258893 -0.4656507 1.227103
v 1.00349 -0.3638815 0.9589212
v 1.00349 0.3638807 0.9589212
v 1.258893 0.465618 1.227139
v 1.00349 0.8784694 0.3972007
v 1.00349 0.8784695 -0.3972182
v 1.00349 -0.8784698 -0.3972009
v 1.00349 0.3638811 -0.9589389
v 1.319664 0.4803462 -1.265952
v 1.719486 0.4803462 -1.265952
v 1.00349 -0.3638811 -0.9589391
v 1.319664 -0.4803792 -1.265952
v 1.825078 0.1994666 0.5249351
v 0.9322586 -1.668076E-05 9.059906E-06
v 1.795465 -0.2049692 0.5401212
v 1.794788 0.4686938 0.2242531
v 1.783188 -0.4708029 0.2141588
v 1.782977 0.471674 -0.2132151
v 1.783007 -0.4713757 -0.2131208
v 1.783813 0.1954978 -0.514673
v 1.783814 -0.1952577 -0.5146741
v 1.719486 1.159739 0.5243682
v 1.794788 0.4686938 0.2242531
v 1.825078 0.1994666 0.5249351
v 1.719486 0.4803457 1.265952
v 1.719486 1.159739 -0.5243684
v 1.795465 -0.2049692 0.5401212
v 1.816361 0.5370306 -0.2427667
v 1.719486 -0.4803796 1.265952
v 1.719486 0.4803462 -1.265952
v 1.816406 -0.5366606 0.2426559
v 1.8168 0.2214881 -0.5831776
v 1.719486 -1.159739 0.5243679
v 1.719486 -0.4803792 -1.265952
v 1.816508 -0.5359997 -0.2423413
v 1.8168 -0.2212501 -0.5831729
v 1.719486 -1.159739 -0.5243689
vt 0.5255385 0.03531365
vt 0.5254989 0.03660364
vt 0.5273982 0.03665331
vt 0.5274457 0.03536534
vt 0.5292867 0.03670651
vt 0.5293416 0.03542498
vt 0.5311889 0.03677464
vt 0.5312504 0.03550877
vt 0.5312504 0.03550877
vt 0.5311889 0.03677464
vt 0.5330666 0.0369212
vt 0.5332304 0.03557459
vt 0.523949 0.03586655
vt 0.5238178 0.03864179
vt 0.5288972 0.03879216
vt 0.5291496 0.03345212
vt 0.5240719 0.03326584
vt 0.5198346 0.03515452
vt 0.5197379 0.03651105
vt 0.5216871 0.03651394
vt 0.521702 0.03525051
vt 0.5235884 0.03656234
vt 0.5236171 0.03527907
vt 0.5236171 0.03527907
vt 0.5235884 0.03656234
vt 0.5254989 0.03660364
vt 0.5255385 0.03531365
vt 0.6608863 0.03572813
vt 0.6604303 0.03530807
vt 0.6607395 0.03581131
vt 0.6612319 0.03621412
vt 0.6610745 0.03628238
vt 0.6614556 0.03674992
vt 0.661103 0.01208107
vt 0.6613221 0.01176786
vt 0.6611001 0.01207147
vt 0.6613289 0.0117718
vt 0.6613221 0.01133852
vt 0.6613289 0.01133464
vt 0.6611001 0.0110349
vt 0.661103 0.01102537
vt 0.6607832 0.01208107
vt 0.661103 0.01208107
vt 0.6611001 0.01207147
vt 0.660786 0.01207147
vt 0.660557 0.0117718
vt 0.6606685 0.01192426
vt 0.6606705 0.01191349
vt 0.660564 0.01176786
vt 0.660557 0.01133464
vt 0.660564 0.01133852
vt 0.6607832 0.01102537
vt 0.660786 0.0110349
vt 0.661103 0.01102537
vt 0.6607832 0.01102537
vt 0.660786 0.0110349
vt 0.6611001 0.0110349
vt 0.531262 0.03533843
vt 0.5332304 0.03557459
vt 0.5331498 0.0353948
vt 0.5312504 0.03550877
vt 0.5293618 0.03524177
vt 0.5293416 0.03542498
vt 0.5274464 0.03518423
vt 0.5274457 0.03536534
vt 0.5255369 0.0351399
vt 0.5255385 0.03531365
vt 0.5236353 0.03510864
vt 0.5236171 0.03527907
vt 0.521733 0.03506863
vt 0.521702 0.03525051
vt 0.5199236 0.03497204
vt 0.5198346 0.03515452
vt 0.5329633 0.03708595
vt 0.5330666 0.0369212
vt 0.5311889 0.03677464
vt 0.5311728 0.03694448
vt 0.5292867 0.03670651
vt 0.5292835 0.03688522
vt 0.5273982 0.03665331
vt 0.527379 0.03683507
vt 0.5254989 0.03660364
vt 0.525481 0.03677191
vt 0.5235884 0.03656234
vt 0.5235921 0.03673366
vt 0.5216871 0.03651394
vt 0.5217014 0.03669272
vt 0.5197379 0.03651105
vt 0.5198166 0.03669843
vt 0.523949 0.03586655
vt 0.5240719 0.03326584
vt 0.5233484 0.03345417
vt 0.5232409 0.03585967
vt 0.5231242 0.03846966
vt 0.5238178 0.03864179
vt 0.5291496 0.03345212
vt 0.5288972 0.03879216
vt 0.5295954 0.03866611
vt 0.529844 0.03368742
vt 0.6624302 0.0355454
vt 0.6624208 0.03664907
vt 0.6626364 0.03547085
vt 0.661559 0.03478485
vt 0.6616411 0.03461201
vt 0.6603264 0.03478485
vt 0.6602444 0.03461202
vt 0.6594554 0.03554562
vt 0.6592515 0.03547191
vt 0.6594571 0.03662362
vt 0.6592495 0.0366955
vt 0.6602958 0.03744598
vt 0.6609358 0.03503936
vt 0.6605694 0.03508868
vt 0.6609473 0.03701863
vt 0.6613165 0.03696892
vt 0.6607372 0.01223258
vt 0.660446 0.01183463
vt 0.660446 0.01183463
vt 0.660446 0.01127183
vt 0.6607372 0.01223258
vt 0.6611487 0.01223258
vt 0.6611487 0.01223258
vt 0.6614398 0.01183463
vt 0.6614398 0.01183463
vt 0.660446 0.01127183
vt 0.6607372 0.01087386
vt 0.6614398 0.01127183
vt 0.6614398 0.01127183
vt 0.6605666 0.01176638
vt 0.6607434 0.01221173
vt 0.660787 0.01206785
vt 0.6610988 0.01206785
vt 0.6611423 0.01221176
vt 0.6613193 0.01176638
vt 0.6613193 0.01134006
vt 0.6605666 0.01134007
vt 0.6610988 0.01103861
vt 0.6611487 0.01087386
vt 0.6611487 0.01087386
vt 0.660787 0.01103861
vt 0.6607372 0.01087386
vt 0.6843823 0.01304018
vt 0.6842225 0.01288678
vt 0.6838599 0.01301727
vt 0.6847845 0.01297141
vt 0.683571 0.01291959
vt 0.6848752 0.01285588
vt 0.6836604 0.01280688
vt 0.6845843 0.01276194
vt 0.6840803 0.01274164
vt 0.6614398 0.01183463
vt 0.6611555 0.01167356
vt 0.6610284 0.01183493
vt 0.6611487 0.01223258
vt 0.6614398 0.01127183
vt 0.6608551 0.01184306
vt 0.661173 0.01142294
vt 0.6607372 0.01223258
vt 0.6611487 0.01087386
vt 0.660713 0.01168345
vt 0.6610378 0.01124026
vt 0.660446 0.01183463
vt 0.6607372 0.01087386
vt 0.6607133 0.01142316
vt 0.6608481 0.01124026
vt 0.660446 0.01127183
vn 0.01156875 0.7353642 -0.6775734
vn 0.01156875 0.7353642 -0.6775734
vn 0.01213099 0.9314892 -0.3635667
vn 0.01213119 0.9313898 -0.3638213
vn 0.01215154 0.931493 0.3635562
vn 0.01215177 0.9313846 0.363834
vn 0.01160706 0.7353623 0.6775747
vn 0.01160706 0.7353623 0.6775748
vn 0.01221641 0 0.9999254
vn 0.01221641 0 0.9999254
vn 0.01221641 0 0.9999254
vn 0.01221641 0 0.9999254
vn 0.01164937 -0.7353271 0.6776123
vn 0.01166234 -0.7353328 0.6776058
vn 0.0116515 -0.735328 0.6776112
vn 0.01225751 -0.9314771 0.3635935
vn 0.01225768 -0.9313778 0.3638478
vn 0.01225768 -0.9313778 0.3638478
vn 0.01225751 -0.9314771 0.3635935
vn 0.01224074 -0.9314766 -0.3635954
vn 0.01224088 -0.9313853 -0.3638291
vn 0.01161274 -0.7353366 -0.6776026
vn 0.01161274 -0.7353365 -0.6776026
vn 0.01216412 0 -0.9999261
vn 0.01216412 0 -0.9999261
vn 0.01216412 0 -0.9999261
vn 0.01216412 0 -0.9999261
vn -0.0988186 -0.394855 0.9134136
vn -0.3507006 -0.872493 0.3402428
vn -0.4732044 -0.3497433 0.8085525
vn -0.09879063 0.3948499 0.9134189
vn -0.4731758 0.3497169 0.8085808
vn -0.3506975 0.8724914 0.3402498
vn 0.007840758 0.7375153 0.6752849
vn 0.008204449 0.9320852 0.3621462
vn 0.007840757 0.7375153 0.6752849
vn 0.008204564 0.9320077 0.3623455
vn 0.008190533 0.932084 -0.3621497
vn 0.008190629 0.932013 -0.3623324
vn 0.007814826 0.7375224 -0.6752775
vn 0.007814826 0.7375224 -0.6752775
vn 0.008254829 0 0.9999659
vn 0.008254828 0 0.9999659
vn 0.008254828 0 0.9999659
vn 0.008254827 0 0.9999659
vn 0.008278404 -0.9319639 0.3624565
vn 0.007869161 -0.7373417 0.6754742
vn 0.007869161 -0.7373417 0.6754742
vn 0.008278321 -0.9320346 0.3622745
vn 0.008265456 -0.9319696 -0.3624423
vn 0.008265386 -0.9320347 -0.3622745
vn 0.007845052 -0.7373519 -0.6754633
vn 0.007845053 -0.737352 -0.6754633
vn 0.008219444 0 -0.9999663
vn 0.008219444 0 -0.9999663
vn 0.008219444 0 -0.9999663
vn 0.008219444 0 -0.9999663
vn -0.8047314 0.2373843 0.5441104
vn -0.8035008 -0.2388687 0.5452781
vn -0.8034993 -0.2386516 0.5453752
vn -0.804734 0.237593 0.5440155
vn -0.8049952 0.55233 0.2165971
vn -0.8049977 0.5524004 0.2164083
vn -0.8050016 0.5523241 -0.2165884
vn -0.8050041 0.5523942 -0.2164005
vn -0.8047446 0.2373793 -0.544093
vn -0.8047472 0.2375867 -0.5439986
vn -0.8047312 -0.2373608 -0.5441207
vn -0.804734 -0.2375779 -0.5440221
vn -0.8049812 -0.5523404 -0.2166227
vn -0.8049836 -0.5524131 -0.216428
vn -0.8062739 -0.5509359 0.2153881
vn -0.8062751 -0.5510097 0.2151947
vn 0.8129801 -0.2328367 0.5337138
vn 0.8129827 -0.2330566 0.5336138
vn 0.8129754 0.2330701 0.533619
vn 0.8129727 0.2328438 0.5337219
vn 0.8130621 0.54207 0.2123443
vn 0.8130596 0.5419933 0.2125497
vn 0.8130557 0.5420766 -0.2123519
vn 0.8130531 0.5420002 -0.2125566
vn 0.8129624 0.2330775 -0.5336356
vn 0.8129597 0.2328511 -0.5337385
vn 0.8129755 -0.2330612 -0.5336229
vn 0.8129729 -0.2328411 -0.5337229
vn 0.8130799 -0.5420448 -0.2123407
vn 0.8130774 -0.541971 -0.2125384
vn 0.813082 -0.5420411 0.212342
vn 0.8130795 -0.541967 0.2125408
vn -0.7815474 -0.4593534 0.4221116
vn -0.8062751 -0.5510097 0.2151947
vn -0.8062739 -0.5509359 0.2153881
vn -0.7816848 -0.4592265 0.4219952
vn -0.8034993 -0.2386516 0.5453752
vn -0.8035008 -0.2388687 0.5452781
vn 0.813082 -0.5420411 0.212342
vn 0.8129827 -0.2330566 0.5336138
vn 0.8129801 -0.2328367 0.5337138
vn 0.8130795 -0.541967 0.2125408
vn 0.7776068 -0.5912105 0.2140042
vn 0.940906 -0.3094426 -0.1376273
vn 0.9970011 -0.06895793 0.03512046
vn 0.7967237 -0.2442761 0.5527754
vn 0.997366 -0.02554746 0.06788572
vn 0.7962016 0.2450974 0.5531639
vn 0.9973455 0.02592028 0.06804561
vn 0.7780769 0.5858139 0.2267563
vn 0.9966653 0.07454444 0.03318562
vn 0.7753875 0.5913442 -0.2215544
vn 0.9968283 0.07553695 -0.02505236
vn 0.9570325 0.1050993 -0.2702647
vn 0.007869161 -0.7373417 0.6754742
vn 0.007869192 -0.7373422 0.6754735
vn 0.007869193 -0.7373422 0.6754736
vn 0.007869161 -0.7373417 0.6754742
vn 0 -0.4028061 0.9152854
vn 0 -0.9320315 0.3623774
vn -0.3507006 -0.872493 0.3402428
vn 0 -0.9320312 -0.3623781
vn -0.0988186 -0.394855 0.9134136
vn -0.09879063 0.3948499 0.9134189
vn 0 0.4027947 0.9152903
vn -0.3506975 0.8724914 0.3402498
vn 0 0.9320269 0.3623893
vn -0.3495208 -0.8723317 -0.3418663
vn 0 -0.4028056 -0.9152856
vn -0.3495146 0.8723311 -0.3418744
vn 0 0.9320269 -0.3623891
vn -0.7030833 -0.6678927 0.2441176
vn -0.4732044 -0.3497433 0.8085525
vn -0.7396677 -0.2863626 0.6090058
vn -0.73967 0.2863644 0.6090022
vn -0.4731758 0.3497169 0.8085808
vn -0.7030835 0.6678923 0.244118
vn -0.6978043 0.6705093 -0.2519652
vn -0.6978129 -0.6705074 -0.2519463
vn -0.7196171 0.2880705 -0.6317964
vn -0.3590588 0.3735358 -0.8553057
vn 0 0.4027947 -0.9152903
vn -0.7196294 -0.288059 -0.6317875
vn -0.3590643 -0.3735486 -0.8552977
vn 0.951579 -0.126736 -0.2800632
vn 0.9999945 -0.003284934 0.0004931022
vn 0.9570325 0.1050993 -0.2702647
vn 0.940906 -0.3094426 -0.1376273
vn 0.7753875 0.5913442 -0.2215544
vn 0.7776068 -0.5912105 0.2140042
vn 0.7780769 0.5858139 0.2267563
vn 0.7967237 -0.2442761 0.5527754
vn 0.7962016 0.2450974 0.5531639
vn 0.991818 0.1190708 0.04603451
vn 0.940906 -0.3094426 -0.1376273
vn 0.951579 -0.126736 -0.2800632
vn 0.9943052 0.04167846 0.09808186
vn 0.9919813 0.1189959 -0.04258354
vn 0.9570325 0.1050993 -0.2702647
vn 0.9970011 -0.06895793 0.03512046
vn 0.992583 -0.04903561 0.1112401
vn 0.9912224 0.05208088 -0.1215145
vn 0.9968283 0.07553695 -0.02505236
vn 0.997366 -0.02554746 0.06788572
vn 0.991947 -0.1157294 0.05145751
vn 0.9912238 -0.05208311 -0.1215019
vn 0.9966653 0.07454444 0.03318562
vn 0.9973455 0.02592028 0.06804561
vn 0.9900841 -0.1304537 -0.05211007
g Color_Boss_37_0
f 3/3/3 2/2/2 1/1/1
f 4/4/4 3/3/3 1/1/1
f 5/5/5 3/3/3 4/4/4
f 6/6/6 5/5/5 4/4/4
f 7/7/7 5/5/5 6/6/6
f 8/8/8 7/7/7 6/6/6
f 11/11/11 10/10/10 9/9/9
f 12/12/12 11/11/11 9/9/9
f 15/15/15 14/14/14 13/13/13
f 16/16/16 15/15/15 13/13/13
f 17/17/17 16/16/16 13/13/13
f 20/20/20 19/19/19 18/18/18
f 21/21/21 20/20/20 18/18/18
f 22/22/22 20/20/20 21/21/21
f 23/23/23 22/22/22 21/21/21
f 26/26/26 25/25/25 24/24/24
f 27/27/27 26/26/26 24/24/24
f 30/30/30 29/29/29 28/28/28
f 30/30/30 28/28/28 31/31/31
f 32/32/32 30/30/30 31/31/31
f 33/33/33 32/32/32 31/31/31
f 36/36/36 35/35/35 34/34/34
f 35/35/35 37/37/37 34/34/34
f 35/35/35 38/38/38 37/37/37
f 38/38/38 39/39/39 37/37/37
f 38/38/38 40/40/40 39/39/39
f 40/40/40 41/41/41 39/39/39
f 44/44/44 43/43/43 42/42/42
f 45/45/45 44/44/44 42/42/42
f 48/48/48 47/47/47 46/46/46
f 49/49/49 48/48/48 46/46/46
f 49/49/49 46/46/46 50/50/50
f 51/51/51 49/49/49 50/50/50
f 51/51/51 50/50/50 52/52/52
f 53/53/53 51/51/51 52/52/52
f 56/56/56 55/55/55 54/54/54
f 57/57/57 56/56/56 54/54/54
f 60/60/60 59/59/59 58/58/58
f 59/59/59 61/61/61 58/58/58
f 58/58/58 61/61/61 62/62/62
f 61/61/61 63/63/63 62/62/62
f 62/62/62 63/63/63 64/64/64
f 63/63/63 65/65/65 64/64/64
f 64/64/64 65/65/65 66/66/66
f 65/65/65 67/67/67 66/66/66
f 66/66/66 67/67/67 68/68/68
f 67/67/67 69/69/69 68/68/68
f 68/68/68 69/69/69 70/70/70
f 69/69/69 71/71/71 70/70/70
f 70/70/70 71/71/71 72/72/72
f 71/71/71 73/73/73 72/72/72
f 76/76/76 75/75/75 74/74/74
f 77/77/77 76/76/76 74/74/74
f 78/78/78 76/76/76 77/77/77
f 79/79/79 78/78/78 77/77/77
f 80/80/80 78/78/78 79/79/79
f 81/81/81 80/80/80 79/79/79
f 82/82/82 80/80/80 81/81/81
f 83/83/83 82/82/82 81/81/81
f 84/84/84 82/82/82 83/83/83
f 85/85/85 84/84/84 83/83/83
f 86/86/86 84/84/84 85/85/85
f 87/87/87 86/86/86 85/85/85
f 88/88/88 86/86/86 87/87/87
f 89/89/89 88/88/88 87/87/87
f 92/92/92 91/91/91 90/90/90
f 93/93/93 92/92/92 90/90/90
f 93/93/93 90/90/90 94/94/94
f 90/90/90 95/95/95 94/94/94
f 98/98/98 97/97/97 96/96/96
f 99/99/99 98/98/98 96/96/96
f 102/102/102 101/101/101 100/100/100
f 102/102/102 100/100/100 103/103/103
f 104/104/104 102/102/102 103/103/103
f 103/103/103 105/105/105 104/104/104
f 105/105/105 106/106/106 104/104/104
f 106/106/106 105/105/105 107/107/107
f 108/108/108 106/106/106 107/107/107
f 108/108/108 107/107/107 109/109/109
f 110/110/110 108/108/108 109/109/109
f 110/110/110 109/109/109 111/111/111
f 114/114/114 113/113/113 112/112/112
f 115/115/115 114/114/114 112/112/112
f 118/118/118 117/117/117 116/116/116
f 117/117/117 118/118/118 119/119/119
f 120/120/120 118/118/118 116/116/116
f 121/121/121 120/120/120 116/116/116
f 122/122/122 121/121/121 116/116/116
f 123/123/123 121/121/121 122/122/122
f 124/124/124 123/123/123 122/122/122
f 118/118/118 125/125/125 119/119/119
f 119/119/119 125/125/125 126/126/126
f 127/127/127 123/123/123 124/124/124
f 128/128/128 127/127/127 124/124/124
f 118/118/118 129/129/129 125/125/125
f 118/118/118 130/130/130 129/129/129
f 130/130/130 131/131/131 129/129/129
f 132/132/132 131/131/131 130/130/130
f 133/133/133 132/132/132 130/130/130
f 132/132/132 133/133/133 123/123/123
f 134/134/134 132/132/132 123/123/123
f 135/135/135 134/134/134 123/123/123
f 127/127/127 135/135/135 123/123/123
f 129/129/129 136/136/136 125/125/125
f 137/137/137 135/135/135 127/127/127
f 138/138/138 127/127/127 128/128/128
f 138/138/138 137/137/137 127/127/127
f 139/139/139 138/138/138 128/128/128
f 140/140/140 137/137/137 138/138/138
f 125/125/125 136/136/136 141/141/141
f 136/136/136 140/140/140 141/141/141
f 141/141/141 140/140/140 138/138/138
f 141/141/141 138/138/138 139/139/139
f 125/125/125 141/141/141 126/126/126
f 126/126/126 141/141/141 139/139/139
f 144/144/144 143/143/143 142/142/142
f 142/142/142 143/143/143 145/145/145
f 146/146/146 143/143/143 144/144/144
f 145/145/145 143/143/143 147/147/147
f 148/148/148 143/143/143 146/146/146
f 147/147/147 143/143/143 149/149/149
f 150/150/150 143/143/143 148/148/148
f 149/149/149 143/143/143 150/150/150
f 153/153/153 152/152/152 151/151/151
f 154/154/154 153/153/153 151/151/151
f 151/151/151 152/152/152 155/155/155
f 156/156/156 153/153/153 154/154/154
f 152/152/152 157/157/157 155/155/155
f 158/158/158 156/156/156 154/154/154
f 155/155/155 157/157/157 159/159/159
f 160/160/160 156/156/156 158/158/158
f 157/157/157 161/161/161 159/159/159
f 162/162/162 160/160/160 158/158/158
f 159/159/159 161/161/161 163/163/163
f 164/164/164 160/160/160 162/162/162
f 161/161/161 165/165/165 163/163/163
f 166/166/166 164/164/164 162/162/162
f 163/163/163 165/165/165 166/166/166
f 165/165/165 164/164/164 166/166/166
