g Color_Boss_47
v 4.883416 1.704331 -0.1909421
v 4.709383 1.277668 -0.4867657
v 4.949465 1.292411 -0.4916221
v 5.002695 0.839033 -0.2954009
v 4.766703 0.7865633 -0.2734476
v 4.994049 0.7602299 0.2190688
v 4.403877 -0.8098544 -0.1451078
v 4.115412 -1.060326 -0.4916578
v 4.346876 -1.124569 -0.5050439
v 4.25234 -1.575291 -0.384573
v 4.014014 -1.544834 -0.3597306
v 4.237223 -1.663264 0.1221815
v -4.883416 1.704331 -0.1909421
v -4.949465 1.292411 -0.4916221
v -4.709383 1.277668 -0.4867657
v -5.002695 0.839033 -0.2954009
v -4.994049 0.7602299 0.2190688
v -4.766703 0.7865633 -0.2734476
v -4.403877 -0.8098544 -0.1451078
v -4.346876 -1.124569 -0.5050439
v -4.115412 -1.060326 -0.4916578
v -4.25234 -1.575291 -0.384573
v -4.237223 -1.663264 0.1221815
v -4.014014 -1.544834 -0.3597306
v 4.949465 1.292411 -0.4916221
v 4.709383 1.277668 -0.4867657
v 4.766703 0.7865633 -0.2734476
v 5.002695 0.839033 -0.2954009
v 5.21598 1.676393 -0.2315364
v 4.883416 1.704331 -0.1909421
v 4.949465 1.292411 -0.4916221
v 5.16892 1.305888 -0.4960614
v 5.16892 1.305888 -0.4960614
v 4.949465 1.292411 -0.4916221
v 5.002695 0.839033 -0.2954009
v 5.218411 0.8869942 -0.3154678
v 5.218411 0.8869942 -0.3154678
v 5.002695 0.839033 -0.2954009
v 4.994049 0.7602299 0.2190688
v 5.315302 0.8400367 0.1314763
v 5.315302 0.8400367 0.1314763
v 4.994049 0.7602299 0.2190688
v 5.048011 1.180134 0.5172739
v 5.362238 1.212906 0.3957859
v 5.362238 1.212906 0.3957859
v 5.048011 1.180134 0.5172739
v 4.99264 1.652003 0.3120125
v 5.31239 1.630409 0.2133002
v 5.31239 1.630409 0.2133002
v 4.99264 1.652003 0.3120125
v 4.883416 1.704331 -0.1909421
v 5.21598 1.676393 -0.2315364
v 4.346876 -1.124569 -0.5050439
v 4.115412 -1.060326 -0.4916578
v 4.014014 -1.544834 -0.3597306
v 4.25234 -1.575291 -0.384573
v 4.711387 -0.9309415 -0.20369
v 4.403877 -0.8098544 -0.1451078
v 4.346876 -1.124569 -0.5050439
v 4.558463 -1.183259 -0.5172737
v 4.558463 -1.183259 -0.5172737
v 4.346876 -1.124569 -0.5050439
v 4.25234 -1.575291 -0.384573
v 4.470382 -1.602589 -0.4071854
v 4.470382 -1.602589 -0.4071854
v 4.25234 -1.575291 -0.384573
v 4.237223 -1.663264 0.1221815
v 4.558943 -1.704331 0.02984154
v 4.558943 -1.704331 0.02984154
v 4.237223 -1.663264 0.1221815
v 4.396586 -1.418082 0.4687874
v 4.701838 -1.479749 0.3383195
v 4.701838 -1.479749 0.3383195
v 4.396586 -1.418082 0.4687874
v 4.465282 -1.032219 0.3276878
v 4.766349 -1.125211 0.2148931
v 4.766349 -1.125211 0.2148931
v 4.465282 -1.032219 0.3276878
v 4.403877 -0.8098544 -0.1451078
v 4.711387 -0.9309415 -0.20369
v -4.949465 1.292411 -0.4916221
v -5.002695 0.839033 -0.2954009
v -4.766703 0.7865633 -0.2734476
v -4.709383 1.277668 -0.4867657
v -5.21598 1.676393 -0.2315364
v -5.16892 1.305888 -0.4960614
v -4.949465 1.292411 -0.4916221
v -4.883416 1.704331 -0.1909421
v -5.16892 1.305888 -0.4960614
v -5.218411 0.8869942 -0.3154678
v -5.002695 0.839033 -0.2954009
v -4.949465 1.292411 -0.4916221
v -5.218411 0.8869942 -0.3154678
v -5.315302 0.8400367 0.1314763
v -4.994049 0.7602299 0.2190688
v -5.002695 0.839033 -0.2954009
v -5.315302 0.8400367 0.1314763
v -5.362238 1.212906 0.3957859
v -5.048011 1.180134 0.5172739
v -4.994049 0.7602299 0.2190688
v -5.362238 1.212906 0.3957859
v -5.31239 1.630409 0.2133002
v -4.99264 1.652003 0.3120125
v -5.048011 1.180134 0.5172739
v -5.31239 1.630409 0.2133002
v -5.21598 1.676393 -0.2315364
v -4.883416 1.704331 -0.1909421
v -4.99264 1.652003 0.3120125
v -4.346876 -1.124569 -0.5050439
v -4.25234 -1.575291 -0.384573
v -4.014014 -1.544834 -0.3597306
v -4.115412 -1.060326 -0.4916578
v -4.711387 -0.9309415 -0.20369
v -4.558463 -1.183259 -0.5172737
v -4.346876 -1.124569 -0.5050439
v -4.403877 -0.8098544 -0.1451078
v -4.558463 -1.183259 -0.5172737
v -4.470382 -1.602589 -0.4071854
v -4.25234 -1.575291 -0.384573
v -4.346876 -1.124569 -0.5050439
v -4.470382 -1.602589 -0.4071854
v -4.558943 -1.704331 0.02984154
v -4.237223 -1.663264 0.1221815
v -4.25234 -1.575291 -0.384573
v -4.558943 -1.704331 0.02984154
v -4.701838 -1.479749 0.3383195
v -4.396586 -1.418082 0.4687874
v -4.237223 -1.663264 0.1221815
v -4.701838 -1.479749 0.3383195
v -4.766349 -1.125211 0.2148931
v -4.465282 -1.032219 0.3276878
v -4.396586 -1.418082 0.4687874
v -4.766349 -1.125211 0.2148931
v -4.711387 -0.9309415 -0.20369
v -4.403877 -0.8098544 -0.1451078
v -4.465282 -1.032219 0.3276878
v 5.21598 1.676393 -0.2315364
v 5.469221 1.260075 -0.1052349
v 5.31239 1.630409 0.2133002
v 5.16892 1.305888 -0.4960614
v 5.362238 1.212906 0.3957859
v 5.218411 0.8869942 -0.3154678
v 5.315302 0.8400367 0.1314763
v 4.711387 -0.9309415 -0.20369
v 4.821244 -1.393628 -0.1539346
v 4.766349 -1.125211 0.2148931
v 4.558463 -1.183259 -0.5172737
v 4.701838 -1.479749 0.3383195
v 4.470382 -1.602589 -0.4071854
v 4.558943 -1.704331 0.02984154
v -5.21598 1.676393 -0.2315364
v -5.31239 1.630409 0.2133002
v -5.469221 1.260075 -0.1052349
v -5.16892 1.305888 -0.4960614
v -5.362238 1.212906 0.3957859
v -5.218411 0.8869942 -0.3154678
v -5.315302 0.8400367 0.1314763
v -4.711387 -0.9309415 -0.20369
v -4.766349 -1.125211 0.2148931
v -4.821244 -1.393628 -0.1539346
v -4.558463 -1.183259 -0.5172737
v -4.701838 -1.479749 0.3383195
v -4.470382 -1.602589 -0.4071854
v -4.558943 -1.704331 0.02984154
vt 0.7088739 0.03340624
vt 0.708601 0.03567404
vt 0.7097571 0.03541517
vt 0.7104982 0.03738827
vt 0.7094024 0.03781285
vt 0.711251 0.03946142
vt 0.7088739 0.03340624
vt 0.708601 0.03567404
vt 0.7097571 0.03541517
vt 0.7104982 0.03738827
vt 0.7094024 0.03781285
vt 0.711251 0.03946142
vt 0.7088739 0.03340624
vt 0.7097571 0.03541517
vt 0.708601 0.03567404
vt 0.7104982 0.03738827
vt 0.711251 0.03946142
vt 0.7094024 0.03781285
vt 0.7088739 0.03340624
vt 0.7097571 0.03541517
vt 0.708601 0.03567404
vt 0.7104982 0.03738827
vt 0.711251 0.03946142
vt 0.7094024 0.03781285
vt 0.7097571 0.03541517
vt 0.708601 0.03567404
vt 0.7094024 0.03781285
vt 0.7104982 0.03738827
vt 0.7100358 0.01155791
vt 0.7104051 0.01156048
vt 0.7099288 0.01165759
vt 0.7098275 0.01162507
vt 0.7098275 0.01162507
vt 0.7099288 0.01165759
vt 0.709179 0.01166133
vt 0.7092841 0.01163306
vt 0.7092841 0.01163306
vt 0.709179 0.01166133
vt 0.7086372 0.01157228
vt 0.7090118 0.01156273
vt 0.7090118 0.01156273
vt 0.7086372 0.01157228
vt 0.7090263 0.0114552
vt 0.7092631 0.01149816
vt 0.7092631 0.01149816
vt 0.7090263 0.0114552
vt 0.709939 0.01144511
vt 0.7097473 0.01150027
vt 0.7097473 0.01150027
vt 0.709939 0.01144511
vt 0.7104051 0.01156048
vt 0.7100358 0.01155791
vt 0.7097571 0.03541517
vt 0.708601 0.03567404
vt 0.7094024 0.03781285
vt 0.7104982 0.03738827
vt 0.7100358 0.01155791
vt 0.7104051 0.01156048
vt 0.7099288 0.01165759
vt 0.7098275 0.01162507
vt 0.7098275 0.01162507
vt 0.7099288 0.01165759
vt 0.709179 0.01166133
vt 0.7092841 0.01163306
vt 0.7092841 0.01163306
vt 0.709179 0.01166133
vt 0.7086372 0.01157228
vt 0.7090118 0.01156273
vt 0.7090118 0.01156273
vt 0.7086372 0.01157228
vt 0.7090263 0.0114552
vt 0.7092631 0.01149816
vt 0.7092631 0.01149816
vt 0.7090263 0.0114552
vt 0.709939 0.01144511
vt 0.7097473 0.01150027
vt 0.7097473 0.01150027
vt 0.709939 0.01144511
vt 0.7104051 0.01156048
vt 0.7100358 0.01155791
vt 0.7097571 0.03541517
vt 0.7104982 0.03738827
vt 0.7094024 0.03781285
vt 0.708601 0.03567404
vt 0.7100358 0.01155791
vt 0.7098275 0.01162507
vt 0.7099288 0.01165759
vt 0.7104051 0.01156048
vt 0.7098275 0.01162507
vt 0.7092841 0.01163306
vt 0.709179 0.01166133
vt 0.7099288 0.01165759
vt 0.7092841 0.01163306
vt 0.7090118 0.01156273
vt 0.7086372 0.01157228
vt 0.709179 0.01166133
vt 0.7090118 0.01156273
vt 0.7092631 0.01149816
vt 0.7090263 0.0114552
vt 0.7086372 0.01157228
vt 0.7092631 0.01149816
vt 0.7097473 0.01150027
vt 0.709939 0.01144511
vt 0.7090263 0.0114552
vt 0.7097473 0.01150027
vt 0.7100358 0.01155791
vt 0.7104051 0.01156048
vt 0.709939 0.01144511
vt 0.7097571 0.03541517
vt 0.7104982 0.03738827
vt 0.7094024 0.03781285
vt 0.708601 0.03567404
vt 0.7100358 0.01155791
vt 0.7098275 0.01162507
vt 0.7099288 0.01165759
vt 0.7104051 0.01156048
vt 0.7098275 0.01162507
vt 0.7092841 0.01163306
vt 0.709179 0.01166133
vt 0.7099288 0.01165759
vt 0.7092841 0.01163306
vt 0.7090118 0.01156273
vt 0.7086372 0.01157228
vt 0.709179 0.01166133
vt 0.7090118 0.01156273
vt 0.7092631 0.01149816
vt 0.7090263 0.0114552
vt 0.7086372 0.01157228
vt 0.7092631 0.01149816
vt 0.7097473 0.01150027
vt 0.709939 0.01144511
vt 0.7090263 0.0114552
vt 0.7097473 0.01150027
vt 0.7100358 0.01155791
vt 0.7104051 0.01156048
vt 0.709939 0.01144511
vt 0.6610482 0.03597178
vt 0.6609433 0.03601161
vt 0.6610366 0.03611208
vt 0.6609549 0.03588838
vt 0.6609315 0.03616961
vt 0.6608494 0.0359453
vt 0.6608376 0.03608627
vt 0.6610482 0.03597178
vt 0.6609433 0.03601161
vt 0.6610366 0.03611208
vt 0.6609549 0.03588838
vt 0.6609315 0.03616961
vt 0.6608494 0.0359453
vt 0.6608376 0.03608627
vt 0.6610482 0.03597178
vt 0.6610366 0.03611208
vt 0.6609433 0.03601161
vt 0.6609549 0.03588838
vt 0.6609315 0.03616961
vt 0.6608494 0.0359453
vt 0.6608376 0.03608627
vt 0.6610482 0.03597178
vt 0.6610366 0.03611208
vt 0.6609433 0.03601161
vt 0.6609549 0.03588838
vt 0.6609315 0.03616961
vt 0.6608494 0.0359453
vt 0.6608376 0.03608627
vn -0.05116012 0.5838255 -0.8102657
vn -0.052217 0.5833042 -0.8105736
vn -0.0514637 0.5836759 -0.8103542
vn 0.2016066 -0.96866 -0.1450956
vn 0.2018742 -0.9686223 -0.1449746
vn 0.2015135 -0.9686729 -0.1451376
vn 0.1625397 0.7294799 -0.6644095
vn 0.1640999 0.7295856 -0.6639097
vn 0.162963 0.7295088 -0.6642741
vn -0.1528147 -0.9720526 -0.1782175
vn -0.1426115 -0.9744674 -0.1734218
vn -0.1566981 -0.9710981 -0.180039
vn 0.05116011 0.5838255 -0.8102657
vn 0.0514637 0.5836759 -0.8103542
vn 0.052217 0.5833042 -0.8105736
vn -0.2016066 -0.96866 -0.1450956
vn -0.2015135 -0.9686729 -0.1451376
vn -0.2018742 -0.9686223 -0.1449746
vn -0.1625397 0.7294799 -0.6644095
vn -0.162963 0.7295088 -0.6642741
vn -0.1640999 0.7295856 -0.6639097
vn 0.1528147 -0.9720526 -0.1782175
vn 0.1566981 -0.9710981 -0.180039
vn 0.1426115 -0.9744674 -0.1734218
vn 0.004327457 -0.3967826 -0.9179025
vn 0.004427066 -0.3973828 -0.9176422
vn 0.004427066 -0.3973828 -0.9176422
vn 0.004333073 -0.3968164 -0.9178877
vn -0.0507929 0.5840065 -0.8101584
vn -0.05116012 0.5838255 -0.8102657
vn -0.0514637 0.5836759 -0.8103542
vn -0.05079289 0.5840065 -0.8101584
vn 0.004222235 -0.3961484 -0.9181768
vn 0.004327457 -0.3967826 -0.9179025
vn 0.004333073 -0.3968164 -0.9178877
vn 0.004222235 -0.3961484 -0.9181768
vn 0.2013824 -0.9686914 -0.1451968
vn 0.2016066 -0.96866 -0.1450956
vn 0.2015135 -0.9686729 -0.1451376
vn 0.2013824 -0.9686914 -0.1451968
vn 0.34603 -0.5718249 0.7438276
vn 0.34603 -0.5718248 0.7438276
vn 0.34603 -0.5718248 0.7438276
vn 0.34603 -0.5718249 0.7438276
vn 0.2926298 0.4110342 0.8633764
vn 0.2926298 0.4110342 0.8633764
vn 0.2926298 0.4110342 0.8633764
vn 0.2926298 0.4110342 0.8633764
vn 0.09301035 0.9922213 0.08274037
vn 0.09301035 0.9922213 0.08274037
vn 0.09301035 0.9922213 0.08274037
vn 0.09301036 0.9922213 0.08274037
vn -0.1249504 -0.2318623 -0.9646903
vn -0.1255994 -0.233881 -0.9641185
vn -0.1255995 -0.233881 -0.9641185
vn -0.1249745 -0.231937 -0.9646692
vn 0.1619649 0.7294405 -0.6645931
vn 0.1625397 0.7294799 -0.6644095
vn 0.162963 0.7295088 -0.6642741
vn 0.161965 0.7294405 -0.6645931
vn -0.1242601 -0.2297161 -0.9652927
vn -0.1249504 -0.2318623 -0.9646903
vn -0.1249745 -0.231937 -0.9646692
vn -0.1242601 -0.2297161 -0.9652927
vn -0.1616781 -0.9698457 -0.182372
vn -0.1528147 -0.9720526 -0.1782175
vn -0.1566981 -0.9710981 -0.180039
vn -0.1616781 -0.9698457 -0.182372
vn 0.0644714 -0.824807 0.5617267
vn 0.06447139 -0.824807 0.5617268
vn 0.06447139 -0.824807 0.5617268
vn 0.0644714 -0.824807 0.5617267
vn 0.4135208 0.2394473 0.8784449
vn 0.4135208 0.2394473 0.8784449
vn 0.4135208 0.2394473 0.8784449
vn 0.4135208 0.2394473 0.8784449
vn 0.3965173 0.8504367 0.3457328
vn 0.3965173 0.8504367 0.3457329
vn 0.3965173 0.8504367 0.3457329
vn 0.3965173 0.8504367 0.3457329
vn -0.004327458 -0.3967826 -0.9179025
vn -0.004333073 -0.3968164 -0.9178877
vn -0.004427066 -0.3973828 -0.9176423
vn -0.004427066 -0.3973828 -0.9176422
vn 0.05079288 0.5840064 -0.8101584
vn 0.05079288 0.5840065 -0.8101584
vn 0.0514637 0.5836759 -0.8103542
vn 0.05116011 0.5838255 -0.8102657
vn -0.004222235 -0.3961484 -0.9181768
vn -0.004222235 -0.3961484 -0.9181768
vn -0.004333073 -0.3968164 -0.9178877
vn -0.004327458 -0.3967826 -0.9179025
vn -0.2013824 -0.9686914 -0.1451968
vn -0.2013824 -0.9686914 -0.1451968
vn -0.2015135 -0.9686729 -0.1451376
vn -0.2016066 -0.96866 -0.1450956
vn -0.34603 -0.5718249 0.7438276
vn -0.34603 -0.5718249 0.7438276
vn -0.34603 -0.5718248 0.7438276
vn -0.34603 -0.5718248 0.7438276
vn -0.2926298 0.4110342 0.8633764
vn -0.2926298 0.4110342 0.8633764
vn -0.2926298 0.4110342 0.8633764
vn -0.2926298 0.4110342 0.8633764
vn -0.09301035 0.9922213 0.08274037
vn -0.09301036 0.9922213 0.08274037
vn -0.09301035 0.9922213 0.08274037
vn -0.09301035 0.9922213 0.08274037
vn 0.1249504 -0.2318623 -0.9646903
vn 0.1249745 -0.231937 -0.9646692
vn 0.1255995 -0.233881 -0.9641185
vn 0.1255995 -0.233881 -0.9641185
vn -0.161965 0.7294405 -0.664593
vn -0.161965 0.7294405 -0.664593
vn -0.162963 0.7295088 -0.6642741
vn -0.1625397 0.7294799 -0.6644095
vn 0.1242601 -0.2297161 -0.9652926
vn 0.1242601 -0.2297161 -0.9652927
vn 0.1249745 -0.231937 -0.9646692
vn 0.1249504 -0.2318623 -0.9646903
vn 0.1616781 -0.9698457 -0.182372
vn 0.1616781 -0.9698457 -0.182372
vn 0.1566981 -0.9710981 -0.180039
vn 0.1528147 -0.9720526 -0.1782175
vn -0.06447141 -0.824807 0.5617268
vn -0.0644714 -0.824807 0.5617267
vn -0.06447141 -0.824807 0.5617268
vn -0.0644714 -0.8248069 0.5617268
vn -0.4135208 0.2394473 0.8784449
vn -0.4135208 0.2394473 0.8784449
vn -0.4135208 0.2394473 0.8784449
vn -0.4135208 0.2394473 0.8784449
vn -0.3965173 0.8504367 0.3457328
vn -0.3965173 0.8504367 0.3457329
vn -0.3965173 0.8504367 0.3457329
vn -0.3965173 0.8504367 0.3457329
vn 0.8429547 0.4055024 -0.3535466
vn 0.9753146 0.02178818 -0.2197424
vn 0.9335221 0.3555191 0.04628887
vn 0.7949509 0.06779967 -0.6028734
vn 0.9781373 -0.01672231 0.2072868
vn 0.8417576 -0.3215049 -0.4336803
vn 0.9343353 -0.3556198 -0.02349677
vn 0.9352466 0.1899334 -0.2987291
vn 0.9328964 -0.2632779 -0.245742
vn 0.992527 0.05008523 0.1112728
vn 0.7818057 -0.08924348 -0.6171024
vn 0.9173375 -0.3651384 0.1586373
vn 0.6813511 -0.5212098 -0.5139076
vn 0.7323189 -0.6743263 -0.09483109
vn -0.8429547 0.4055024 -0.3535466
vn -0.9335221 0.3555191 0.04628887
vn -0.9753146 0.02178818 -0.2197424
vn -0.7949509 0.06779967 -0.6028734
vn -0.9781373 -0.01672231 0.2072868
vn -0.8417576 -0.3215049 -0.4336803
vn -0.9343353 -0.3556198 -0.02349677
vn -0.9352466 0.1899334 -0.2987291
vn -0.992527 0.05008523 0.1112728
vn -0.9328964 -0.2632779 -0.245742
vn -0.7818057 -0.08924348 -0.6171024
vn -0.9173375 -0.3651384 0.1586373
vn -0.6813511 -0.5212098 -0.5139076
vn -0.7323189 -0.6743263 -0.09483109
g Color_Boss_47_0
f 3/3/3 2/2/2 1/1/1
f 6/6/6 5/5/5 4/4/4
f 9/9/9 8/8/8 7/7/7
f 12/12/12 11/11/11 10/10/10
f 15/15/15 14/14/14 13/13/13
f 18/18/18 17/17/17 16/16/16
f 21/21/21 20/20/20 19/19/19
f 24/24/24 23/23/23 22/22/22
f 27/27/27 26/26/26 25/25/25
f 28/28/28 27/27/27 25/25/25
f 31/31/31 30/30/30 29/29/29
f 32/32/32 31/31/31 29/29/29
f 35/35/35 34/34/34 33/33/33
f 36/36/36 35/35/35 33/33/33
f 39/39/39 38/38/38 37/37/37
f 40/40/40 39/39/39 37/37/37
f 43/43/43 42/42/42 41/41/41
f 44/44/44 43/43/43 41/41/41
f 47/47/47 46/46/46 45/45/45
f 48/48/48 47/47/47 45/45/45
f 51/51/51 50/50/50 49/49/49
f 52/52/52 51/51/51 49/49/49
f 55/55/55 54/54/54 53/53/53
f 56/56/56 55/55/55 53/53/53
f 59/59/59 58/58/58 57/57/57
f 60/60/60 59/59/59 57/57/57
f 63/63/63 62/62/62 61/61/61
f 64/64/64 63/63/63 61/61/61
f 67/67/67 66/66/66 65/65/65
f 68/68/68 67/67/67 65/65/65
f 71/71/71 70/70/70 69/69/69
f 72/72/72 71/71/71 69/69/69
f 75/75/75 74/74/74 73/73/73
f 76/76/76 75/75/75 73/73/73
f 79/79/79 78/78/78 77/77/77
f 80/80/80 79/79/79 77/77/77
f 83/83/83 82/82/82 81/81/81
f 84/84/84 83/83/83 81/81/81
f 87/87/87 86/86/86 85/85/85
f 88/88/88 87/87/87 85/85/85
f 91/91/91 90/90/90 89/89/89
f 92/92/92 91/91/91 89/89/89
f 95/95/95 94/94/94 93/93/93
f 96/96/96 95/95/95 93/93/93
f 99/99/99 98/98/98 97/97/97
f 100/100/100 99/99/99 97/97/97
f 103/103/103 102/102/102 101/101/101
f 104/104/104 103/103/103 101/101/101
f 107/107/107 106/106/106 105/105/105
f 108/108/108 107/107/107 105/105/105
f 111/111/111 110/110/110 109/109/109
f 112/112/112 111/111/111 109/109/109
f 115/115/115 114/114/114 113/113/113
f 116/116/116 115/115/115 113/113/113
f 119/119/119 118/118/118 117/117/117
f 120/120/120 119/119/119 117/117/117
f 123/123/123 122/122/122 121/121/121
f 124/124/124 123/123/123 121/121/121
f 127/127/127 126/126/126 125/125/125
f 128/128/128 127/127/127 125/125/125
f 131/131/131 130/130/130 129/129/129
f 132/132/132 131/131/131 129/129/129
f 135/135/135 134/134/134 133/133/133
f 136/136/136 135/135/135 133/133/133
f 139/139/139 138/138/138 137/137/137
f 137/137/137 138/138/138 140/140/140
f 141/141/141 138/138/138 139/139/139
f 140/140/140 138/138/138 142/142/142
f 141/141/141 143/143/143 138/138/138
f 142/142/142 138/138/138 143/143/143
f 146/146/146 145/145/145 144/144/144
f 144/144/144 145/145/145 147/147/147
f 148/148/148 145/145/145 146/146/146
f 147/147/147 145/145/145 149/149/149
f 148/148/148 150/150/150 145/145/145
f 149/149/149 145/145/145 150/150/150
f 153/153/153 152/152/152 151/151/151
f 153/153/153 151/151/151 154/154/154
f 153/153/153 155/155/155 152/152/152
f 153/153/153 154/154/154 156/156/156
f 157/157/157 155/155/155 153/153/153
f 153/153/153 156/156/156 157/157/157
f 160/160/160 159/159/159 158/158/158
f 160/160/160 158/158/158 161/161/161
f 160/160/160 162/162/162 159/159/159
f 160/160/160 161/161/161 163/163/163
f 164/164/164 162/162/162 160/160/160
f 160/160/160 163/163/163 164/164/164
