g Color_022
v 4.540428 4.540429 3.199998
v 1.590094 5.934316 6.399996
v 1.66191 6.202339 3.199998
v 4.344217 4.344221 6.399996
v 6.202343 1.661913 3.199998
v 1.4809 5.526798 9.599995
v 5.934314 1.590096 6.399996
v 4.045899 4.045897 9.599993
v 1.336395 4.987488 12.79999
v 5.526798 1.480902 9.599993
v 3.651096 3.651095 12.79999
v 1.160354 4.330501 15.99999
v 4.987489 1.336394 12.79999
v 3.170144 3.170144 15.99999
v 4.3305 1.160355 15.99999
v -4.540431 4.540427 3.199998
v -5.934313 1.590096 6.399997
v -6.202342 1.661916 3.199998
v -4.34422 4.34422 6.399998
v -1.661913 6.20234 3.199998
v -5.5268 1.480902 9.599997
v -1.590096 5.934314 6.399997
v 1.66191 6.202339 3.199998
v 1.590094 5.934316 6.399996
v -4.045898 4.045895 9.599993
v -4.987488 1.336396 12.8
v -1.480903 5.526796 9.599992
v 1.4809 5.526798 9.599995
v -3.651097 3.651096 12.79999
v -4.330497 1.160355 16
v -3.170145 3.170146 15.99999
v -1.336395 4.987486 12.79999
v 1.336395 4.987488 12.79999
v -1.160355 4.330497 15.99999
v 1.160354 4.330501 15.99999
v -6.202342 1.661916 3.199998
v -5.934312 -1.590093 6.399995
v -6.202341 -1.66191 3.199998
v -5.934313 1.590096 6.399997
v -5.526799 -1.480902 9.599997
v -5.5268 1.480902 9.599997
v -4.987487 -1.336393 12.8
v -4.987488 1.336396 12.8
v -4.330497 -1.160353 16
v -4.330497 1.160355 16
v -4.54043 -4.540427 3.199997
v -1.590096 -5.93431 6.399997
v -1.661912 -6.202339 3.199998
v -4.34422 -4.344216 6.399995
v -6.202341 -1.66191 3.199998
v -1.480902 -5.526797 9.599995
v -5.934312 -1.590093 6.399995
v -4.045897 -4.045895 9.599993
v -1.336395 -4.987485 12.79999
v -5.526799 -1.480902 9.599997
v -3.651095 -3.651093 12.79999
v -1.160354 -4.330496 15.99999
v -4.987487 -1.336393 12.8
v -3.170144 -3.170143 15.99999
v -4.330497 -1.160353 16
v -1.661912 -6.202339 3.199998
v -1.590096 -5.93431 6.399997
v 1.590093 -5.93431 6.399994
v 1.661915 -6.202339 3.199998
v 4.344216 -4.344218 6.399997
v 4.540429 -4.540429 3.199998
v 5.934317 -1.590095 6.399997
v 6.202338 -1.661915 3.199997
v 6.202338 -1.661915 3.199997
v 5.934314 1.590096 6.399996
v 6.202343 1.661913 3.199998
v 5.934317 -1.590095 6.399997
v 5.526798 1.480902 9.599993
v 5.526799 -1.480903 9.599993
v 4.987489 1.336394 12.79999
v 4.98749 -1.336394 12.79999
v 4.3305 1.160355 15.99999
v 4.330498 -1.160355 15.99999
v 4.344216 -4.344218 6.399997
v 5.526799 -1.480903 9.599993
v 5.934317 -1.590095 6.399997
v 4.045897 -4.045898 9.599995
v 4.98749 -1.336394 12.79999
v 1.590093 -5.93431 6.399994
v 3.651096 -3.651094 12.8
v 1.4809 -5.526797 9.599995
v -1.590096 -5.93431 6.399997
v 1.336394 -4.987486 12.79999
v -1.480902 -5.526797 9.599995
v -1.336395 -4.987485 12.79999
v -1.336395 -4.987485 12.79999
v -1.160354 -4.330496 15.99999
v 1.160353 -4.330497 15.99999
v 1.336394 -4.987486 12.79999
v 3.170145 -3.170146 15.99999
v 3.651096 -3.651094 12.8
v 4.330498 -1.160355 15.99999
v 4.98749 -1.336394 12.79999
vt 0.008785799 0.009573685
vt 0.009760901 0.01039324
vt 0.009760901 0.009573685
vt 0.008785799 0.01039324
vt 0.007826328 0.009573685
vt 0.009760901 0.01121941
vt 0.007826328 0.01039324
vt 0.008785799 0.01121941
vt 0.009760901 0.01205496
vt 0.007826328 0.01121941
vt 0.008785799 0.01205496
vt 0.009760901 0.01289595
vt 0.007826328 0.01205496
vt 0.008785799 0.01289595
vt 0.007826328 0.01289595
vt 0.01171605 0.009573685
vt 0.01267552 0.01039324
vt 0.01267552 0.009573685
vt 0.01171605 0.01039324
vt 0.01074137 0.009573685
vt 0.01267552 0.01121941
vt 0.01074137 0.01039324
vt 0.009760901 0.009573685
vt 0.009760901 0.01039324
vt 0.01171605 0.01121941
vt 0.01267552 0.01205496
vt 0.01074137 0.01121941
vt 0.009760901 0.01121941
vt 0.01171605 0.01205496
vt 0.01267552 0.01289595
vt 0.01171605 0.01289595
vt 0.01074137 0.01205496
vt 0.009760901 0.01205496
vt 0.01074137 0.01289595
vt 0.009760901 0.01289595
vt 0.01267552 0.009573685
vt 0.01362599 0.01039324
vt 0.01362599 0.009573685
vt 0.01267552 0.01039324
vt 0.01362599 0.01121941
vt 0.01267552 0.01121941
vt 0.01362599 0.01205496
vt 0.01267552 0.01205496
vt 0.01362599 0.01289595
vt 0.01267552 0.01289595
vt 0.008784652 0.009573596
vt 0.009758919 0.01039349
vt 0.009758919 0.009573596
vt 0.008784652 0.01039349
vt 0.007827893 0.009573596
vt 0.009758919 0.01121879
vt 0.007827893 0.01039349
vt 0.008784652 0.01121879
vt 0.009758919 0.01205487
vt 0.007827893 0.01121879
vt 0.008784652 0.01205487
vt 0.009758919 0.01289586
vt 0.007827893 0.01205487
vt 0.008784652 0.01289586
vt 0.007827893 0.01289586
vt 0.009758919 0.009573596
vt 0.009758919 0.01039349
vt 0.0107398 0.01039349
vt 0.0107398 0.009573596
vt 0.01171447 0.01039349
vt 0.01171447 0.009573596
vt 0.01267396 0.01039349
vt 0.01267396 0.009573596
vt 0.01267396 0.009573596
vt 0.01362443 0.01039349
vt 0.01362443 0.009573596
vt 0.01267396 0.01039349
vt 0.01362443 0.01121879
vt 0.01267396 0.01121879
vt 0.01362443 0.01205487
vt 0.01267396 0.01205487
vt 0.01362443 0.01289586
vt 0.01267396 0.01289586
vt 0.01171447 0.01039349
vt 0.01267396 0.01121879
vt 0.01267396 0.01039349
vt 0.01171447 0.01121879
vt 0.01267396 0.01205487
vt 0.0107398 0.01039349
vt 0.01171447 0.01205487
vt 0.0107398 0.01121879
vt 0.009758919 0.01039349
vt 0.0107398 0.01205487
vt 0.009758919 0.01121879
vt 0.009758919 0.01205487
vt 0.009758919 0.01205487
vt 0.009758919 0.01289586
vt 0.0107398 0.01289586
vt 0.0107398 0.01205487
vt 0.01171447 0.01289586
vt 0.01171447 0.01205487
vt 0.01267396 0.01289586
vt 0.01267396 0.01205487
vn 0.7044631 0.7044635 0.08638863
vn 0.2572998 0.960257 0.1081819
vn 0.2578513 0.9623148 0.08638807
vn 0.7029566 0.702957 0.1081818
vn 0.9623147 0.2578515 0.08638879
vn 0.255858 0.9548771 0.1508186
vn 0.9602569 0.2573004 0.108182
vn 0.6990187 0.6990184 0.1508183
vn 0.2541358 0.9484491 0.1893656
vn 0.954877 0.2558587 0.1508183
vn 0.6943128 0.6943129 0.1893656
vn 0.2531631 0.944819 0.2079071
vn 0.948449 0.2541362 0.1893656
vn 0.6916555 0.6916555 0.2079073
vn 0.9448189 0.2531638 0.2079074
vn -0.7044632 0.7044632 0.08638895
vn -0.960257 0.2573 0.1081821
vn -0.9623146 0.2578515 0.0863895
vn -0.7029566 0.702957 0.1081823
vn -0.2578515 0.9623147 0.08638828
vn -0.9548771 0.2558586 0.1508182
vn -0.2573003 0.9602569 0.1081821
vn 0.2578513 0.9623148 0.08638807
vn 0.2572998 0.960257 0.1081819
vn -0.6990184 0.6990187 0.1508184
vn -0.948449 0.2541362 0.1893658
vn -0.2558589 0.9548769 0.1508186
vn 0.255858 0.9548771 0.1508186
vn -0.6943126 0.6943132 0.1893655
vn -0.9448189 0.2531632 0.2079076
vn -0.6916551 0.6916556 0.2079076
vn -0.2541362 0.948449 0.1893653
vn 0.2541358 0.9484491 0.1893656
vn -0.2531635 0.9448189 0.2079071
vn 0.2531631 0.944819 0.2079071
vn -0.9623146 0.2578515 0.0863895
vn -0.9602569 -0.2573002 0.1081819
vn -0.9623146 -0.2578514 0.08638948
vn -0.960257 0.2573 0.1081821
vn -0.954877 -0.2558588 0.1508182
vn -0.9548771 0.2558586 0.1508182
vn -0.9484488 -0.2541363 0.189366
vn -0.948449 0.2541362 0.1893658
vn -0.9448189 -0.2531634 0.2079077
vn -0.9448189 0.2531632 0.2079076
vn -0.7044633 -0.7044631 0.0863894
vn -0.2573003 -0.9602569 0.108182
vn -0.2578514 -0.9623146 0.08638952
vn -0.7029569 -0.7029567 0.1081819
vn -0.9623146 -0.2578514 0.08638948
vn -0.2558586 -0.9548771 0.1508182
vn -0.9602569 -0.2573002 0.1081819
vn -0.6990185 -0.6990187 0.1508181
vn -0.2541363 -0.948449 0.1893657
vn -0.954877 -0.2558588 0.1508182
vn -0.6943128 -0.6943129 0.1893658
vn -0.2531636 -0.9448189 0.2079072
vn -0.9484488 -0.2541363 0.189366
vn -0.6916553 -0.6916555 0.2079076
vn -0.9448189 -0.2531634 0.2079077
vn -0.2578514 -0.9623146 0.08638952
vn -0.2573003 -0.9602569 0.108182
vn 0.2572998 -0.960257 0.1081821
vn 0.2578515 -0.9623146 0.08638986
vn 0.7029563 -0.7029574 0.108182
vn 0.7044629 -0.7044635 0.0863895
vn 0.9602569 -0.2573003 0.1081819
vn 0.9623145 -0.257852 0.08638866
vn 0.9623145 -0.257852 0.08638866
vn 0.9602569 0.2573004 0.108182
vn 0.9623147 0.2578515 0.08638879
vn 0.9602569 -0.2573003 0.1081819
vn 0.954877 0.2558587 0.1508183
vn 0.954877 -0.2558587 0.1508182
vn 0.948449 0.2541362 0.1893656
vn 0.948449 -0.2541361 0.1893656
vn 0.9448189 0.2531638 0.2079074
vn 0.9448189 -0.2531637 0.2079076
vn 0.7029563 -0.7029574 0.108182
vn 0.954877 -0.2558587 0.1508182
vn 0.9602569 -0.2573003 0.1081819
vn 0.699018 -0.6990191 0.150818
vn 0.948449 -0.2541361 0.1893656
vn 0.2572998 -0.960257 0.1081821
vn 0.6943126 -0.6943131 0.1893657
vn 0.2558581 -0.9548773 0.150818
vn -0.2573003 -0.9602569 0.108182
vn 0.2541357 -0.9484491 0.1893656
vn -0.2558586 -0.9548771 0.1508182
vn -0.2541363 -0.948449 0.1893657
vn -0.2541363 -0.948449 0.1893657
vn -0.2531636 -0.9448189 0.2079072
vn 0.2531628 -0.9448192 0.2079072
vn 0.2541357 -0.9484491 0.1893656
vn 0.691655 -0.6916558 0.2079075
vn 0.6943126 -0.6943131 0.1893657
vn 0.9448189 -0.2531637 0.2079076
vn 0.948449 -0.2541361 0.1893656
g Color_022_0
f 3/3/3 2/2/2 1/1/1
f 2/2/2 4/4/4 1/1/1
f 1/1/1 4/4/4 5/5/5
f 2/2/2 6/6/6 4/4/4
f 4/4/4 7/7/7 5/5/5
f 6/6/6 8/8/8 4/4/4
f 4/4/4 8/8/8 7/7/7
f 6/6/6 9/9/9 8/8/8
f 8/8/8 10/10/10 7/7/7
f 9/9/9 11/11/11 8/8/8
f 8/8/8 11/11/11 10/10/10
f 9/9/9 12/12/12 11/11/11
f 11/11/11 13/13/13 10/10/10
f 12/12/12 14/14/14 11/11/11
f 11/11/11 14/14/14 13/13/13
f 14/14/14 15/15/15 13/13/13
f 18/18/18 17/17/17 16/16/16
f 17/17/17 19/19/19 16/16/16
f 16/16/16 19/19/19 20/20/20
f 17/17/17 21/21/21 19/19/19
f 19/19/19 22/22/22 20/20/20
f 20/20/20 22/22/22 23/23/23
f 22/22/22 24/24/24 23/23/23
f 21/21/21 25/25/25 19/19/19
f 19/19/19 25/25/25 22/22/22
f 21/21/21 26/26/26 25/25/25
f 22/22/22 27/27/27 24/24/24
f 25/25/25 27/27/27 22/22/22
f 27/27/27 28/28/28 24/24/24
f 26/26/26 29/29/29 25/25/25
f 25/25/25 29/29/29 27/27/27
f 26/26/26 30/30/30 29/29/29
f 30/30/30 31/31/31 29/29/29
f 27/27/27 32/32/32 28/28/28
f 29/29/29 32/32/32 27/27/27
f 29/29/29 31/31/31 32/32/32
f 32/32/32 33/33/33 28/28/28
f 31/31/31 34/34/34 32/32/32
f 32/32/32 34/34/34 33/33/33
f 34/34/34 35/35/35 33/33/33
f 38/38/38 37/37/37 36/36/36
f 37/37/37 39/39/39 36/36/36
f 37/37/37 40/40/40 39/39/39
f 40/40/40 41/41/41 39/39/39
f 40/40/40 42/42/42 41/41/41
f 42/42/42 43/43/43 41/41/41
f 42/42/42 44/44/44 43/43/43
f 44/44/44 45/45/45 43/43/43
f 48/48/48 47/47/47 46/46/46
f 47/47/47 49/49/49 46/46/46
f 46/46/46 49/49/49 50/50/50
f 47/47/47 51/51/51 49/49/49
f 49/49/49 52/52/52 50/50/50
f 51/51/51 53/53/53 49/49/49
f 49/49/49 53/53/53 52/52/52
f 51/51/51 54/54/54 53/53/53
f 53/53/53 55/55/55 52/52/52
f 54/54/54 56/56/56 53/53/53
f 53/53/53 56/56/56 55/55/55
f 54/54/54 57/57/57 56/56/56
f 56/56/56 58/58/58 55/55/55
f 57/57/57 59/59/59 56/56/56
f 56/56/56 59/59/59 58/58/58
f 59/59/59 60/60/60 58/58/58
f 63/63/63 62/62/62 61/61/61
f 64/64/64 63/63/63 61/61/61
f 65/65/65 63/63/63 64/64/64
f 66/66/66 65/65/65 64/64/64
f 67/67/67 65/65/65 66/66/66
f 68/68/68 67/67/67 66/66/66
f 71/71/71 70/70/70 69/69/69
f 70/70/70 72/72/72 69/69/69
f 70/70/70 73/73/73 72/72/72
f 73/73/73 74/74/74 72/72/72
f 73/73/73 75/75/75 74/74/74
f 75/75/75 76/76/76 74/74/74
f 75/75/75 77/77/77 76/76/76
f 77/77/77 78/78/78 76/76/76
f 81/81/81 80/80/80 79/79/79
f 80/80/80 82/82/82 79/79/79
f 80/80/80 83/83/83 82/82/82
f 79/79/79 82/82/82 84/84/84
f 83/83/83 85/85/85 82/82/82
f 82/82/82 86/86/86 84/84/84
f 82/82/82 85/85/85 86/86/86
f 84/84/84 86/86/86 87/87/87
f 85/85/85 88/88/88 86/86/86
f 86/86/86 89/89/89 87/87/87
f 86/86/86 88/88/88 89/89/89
f 88/88/88 90/90/90 89/89/89
f 93/93/93 92/92/92 91/91/91
f 94/94/94 93/93/93 91/91/91
f 95/95/95 93/93/93 94/94/94
f 96/96/96 95/95/95 94/94/94
f 97/97/97 95/95/95 96/96/96
f 98/98/98 97/97/97 96/96/96
