g Color_Boss_33
v 0.8224645 1.479552 0.6136281
v -0.7747827 1.463695 0.6070037
v -0.8224645 1.463695 -0.6070541
v 0.8224645 1.479552 -0.613598
v -0.8224645 0.6066014 -1.46574
v 0.8224645 0.6132871 -1.481783
v 0.8224645 0.6132865 1.481783
v -0.8224645 0.6066008 1.465672
v -0.7747827 1.463695 0.6070037
v 0.8224645 1.479552 0.6136281
v 0.8224645 -0.6125921 1.481783
v -0.8224645 -0.6059769 1.465671
v -0.8224645 0.6066008 1.465672
v 0.8224645 0.6132865 1.481783
v 0.8224645 -1.479553 0.6136277
v -0.7556 -1.463463 0.6070032
v -0.8224645 -0.6059769 1.465671
v 0.8224645 -0.6125921 1.481783
v 0.8224645 -1.479552 -0.6135986
v -0.7556 -1.463463 0.6070032
v 0.8224645 -1.479553 0.6136277
v -0.8224645 -1.463462 -0.6070436
v 0.8224645 -0.6125915 -1.481783
v -0.8224645 -0.6059763 -1.465741
v 0.8224645 0.6132871 -1.481783
v -0.8224645 0.6066014 -1.46574
v -0.8224645 -0.6059763 -1.465741
v 0.8224645 -0.6125915 -1.481783
v -0.8224645 0.7708714 -0.3197047
v -0.8224645 0.7708714 0.3196466
v -0.7399802 -0.0006233553 -0.007264972
v -0.8224645 0.3195032 -0.7719083
v -0.8224645 0.3195029 0.7718422
v -0.8224645 -0.3190649 -0.7719085
v -0.8224645 -0.3190655 0.771842
v -0.8224645 -0.7706406 -0.3196987
v -0.8224645 -0.7706411 0.3196464
v -0.8224645 1.463695 -0.6070541
v -0.8224645 0.7708714 0.3196466
v -0.8224645 0.7708714 -0.3197047
v -0.7747827 1.463695 0.6070037
v -0.8224645 0.6066014 -1.46574
v -0.8224645 0.3195029 0.7718422
v -0.8224645 0.3195032 -0.7719083
v -0.8224645 0.6066008 1.465672
v -0.8224645 -0.6059763 -1.465741
v -0.8224645 -0.3190655 0.771842
v -0.8224645 -0.3190649 -0.7719085
v -0.8224645 -0.6059769 1.465671
v -0.8224645 -1.463462 -0.6070436
v -0.8224645 -0.7706411 0.3196464
v -0.8224645 -0.7706406 -0.3196987
v -0.7556 -1.463463 0.6070032
vt 0.7085997 0.01110396
vt 0.7096727 0.01138165
vt 0.7102877 0.01150837
vt 0.710858 0.01119959
vt 0.7101095 0.01166224
vt 0.711996 0.01150189
vt 0.7061748 0.03552204
vt 0.7136772 0.03550787
vt 0.7136772 0.03732612
vt 0.7061748 0.03735979
vt 0.6588286 0.03425993
vt 0.6630572 0.034279
vt 0.6630572 0.03777874
vt 0.6588286 0.03779806
vt 0.7061748 0.03550722
vt 0.7136772 0.03554134
vt 0.7136772 0.03736044
vt 0.7061748 0.0373464
vt 0.7093042 0.01200248
vt 0.7076147 0.01159732
vt 0.7070464 0.01190822
vt 0.7082078 0.01172423
vt 0.7113528 0.01183419
vt 0.7092435 0.01175169
vt 0.7079896 0.03805405
vt 0.7118623 0.03803639
vt 0.7118623 0.03483107
vt 0.7079896 0.03481361
vt 0.7129393 0.03538964
vt 0.7129393 0.03747808
vt 0.7099235 0.03641358
vt 0.7111747 0.03391249
vt 0.7111747 0.03895517
vt 0.7086781 0.03391249
vt 0.7086781 0.03895517
vt 0.7069127 0.03538964
vt 0.7069127 0.03747808
vt 0.7102877 0.01150837
vt 0.7093965 0.01144877
vt 0.7097747 0.01152645
vt 0.7096727 0.01138165
vt 0.7101095 0.01166224
vt 0.7087567 0.01143342
vt 0.7096665 0.01162074
vt 0.7086366 0.01135635
vt 0.7092435 0.01175169
vt 0.7082306 0.01148711
vt 0.7091382 0.01167588
vt 0.7077814 0.01144495
vt 0.7082078 0.01172423
vt 0.7081352 0.01158148
vt 0.7085022 0.01165971
vt 0.7076147 0.01159732
vn -0.01063462 0.9240161 0.3822058
vn -0.01063462 0.9240217 0.382192
vn -0.0105403 0.9220508 -0.3869252
vn -0.01054101 0.92406 -0.3821018
vn -0.009699354 0.7077929 -0.7063534
vn -0.009699355 0.7077929 -0.7063534
vn -0.009874648 0.707918 0.7062255
vn -0.009874648 0.7079181 0.7062255
vn -0.01063462 0.9240217 0.382192
vn -0.01063462 0.9240161 0.3822058
vn -0.009794247 0 0.9999521
vn -0.009794247 0 0.9999521
vn -0.009794246 0 0.9999521
vn -0.009794248 0 0.9999521
vn -0.01079563 -0.9239593 0.3823384
vn -0.01079563 -0.9239545 0.38235
vn -0.009969026 -0.7077515 0.7063911
vn -0.009969025 -0.7077515 0.7063911
vn -0.01067165 -0.9240192 -0.382197
vn -0.01079563 -0.9239545 0.38235
vn -0.01079563 -0.9239593 0.3823384
vn -0.01066898 -0.9211705 -0.389013
vn -0.009736606 -0.707572 -0.7065742
vn -0.009736606 -0.707572 -0.7065741
vn -0.009752056 0 -0.9999524
vn -0.009752055 0 -0.9999524
vn -0.009752056 0 -0.9999524
vn -0.009752056 0 -0.9999524
vn -0.9994776 -0.02351843 0.02217057
vn -0.9999415 -0.00998073 -0.004190332
vn -0.9999995 9.940259E-05 0.0009412928
vn -0.9993086 -0.01426446 0.0343345
vn -0.9994903 -0.0006952681 -0.03191748
vn -0.9993074 0.01426215 0.03437049
vn -0.9995027 -0.004644271 -0.03119031
vn -0.999491 0.01925872 0.02543335
vn -0.9999999 0.0003917852 -0.0002260049
vn -0.9997699 0.01718251 0.01284606
vn -0.9999415 -0.00998073 -0.004190332
vn -0.9994776 -0.02351843 0.02217057
vn -0.9991341 0.03845122 0.01589146
vn -1 0 0
vn -0.9994903 -0.0006952681 -0.03191748
vn -0.9993086 -0.01426446 0.0343345
vn -0.9997696 0.02124913 0.00304584
vn -1 0 0
vn -0.9995027 -0.004644271 -0.03119031
vn -0.9993074 0.01426215 0.03437049
vn -0.9995474 -0.02977494 0.004278148
vn -0.9995477 -0.02408459 0.01800636
vn -0.9999999 0.0003917852 -0.0002260049
vn -0.999491 0.01925872 0.02543335
vn -0.9982994 -0.05387084 0.02227723
g Color_Boss_33_0
f 3/3/3 2/2/2 1/1/1
f 4/4/4 3/3/3 1/1/1
f 5/5/5 3/3/3 4/4/4
f 6/6/6 5/5/5 4/4/4
f 9/9/9 8/8/8 7/7/7
f 10/10/10 9/9/9 7/7/7
f 13/13/13 12/12/12 11/11/11
f 14/14/14 13/13/13 11/11/11
f 17/17/17 16/16/16 15/15/15
f 18/18/18 17/17/17 15/15/15
f 21/21/21 20/20/20 19/19/19
f 20/20/20 22/22/22 19/19/19
f 19/19/19 22/22/22 23/23/23
f 22/22/22 24/24/24 23/23/23
f 27/27/27 26/26/26 25/25/25
f 28/28/28 27/27/27 25/25/25
f 31/31/31 30/30/30 29/29/29
f 31/31/31 29/29/29 32/32/32
f 31/31/31 33/33/33 30/30/30
f 31/31/31 32/32/32 34/34/34
f 31/31/31 35/35/35 33/33/33
f 31/31/31 34/34/34 36/36/36
f 31/31/31 37/37/37 35/35/35
f 31/31/31 36/36/36 37/37/37
f 40/40/40 39/39/39 38/38/38
f 39/39/39 41/41/41 38/38/38
f 40/40/40 38/38/38 42/42/42
f 39/39/39 43/43/43 41/41/41
f 44/44/44 40/40/40 42/42/42
f 43/43/43 45/45/45 41/41/41
f 44/44/44 42/42/42 46/46/46
f 43/43/43 47/47/47 45/45/45
f 48/48/48 44/44/44 46/46/46
f 47/47/47 49/49/49 45/45/45
f 48/48/48 46/46/46 50/50/50
f 47/47/47 51/51/51 49/49/49
f 52/52/52 48/48/48 50/50/50
f 51/51/51 53/53/53 49/49/49
f 52/52/52 50/50/50 53/53/53
f 51/51/51 52/52/52 53/53/53
