g Color_Boss_46
v 5.300725 4.883194 0.7716509
v 5.296113 1.503643 0.781918
v 5.246078 4.874872 0.792837
v 4.198449 -4.925941 0.7819167
v 5.249594 -1.818088 0.7819173
v 4.761205 -1.117747 -1.10297
v 3.300287 -4.684084 -1.102971
v 2.372943 -6.478891 0.7819158
v 1.58522 -5.838005 -1.102971
v -0.002305635 -6.660625 -1.157191
v -0.002305635 -7.306465 0.8361351
v 5.249594 -1.818088 0.7819173
v 5.296113 1.503643 0.781918
v 4.812531 1.739586 -1.102969
v 4.761205 -1.117747 -1.10297
v 4.761205 -1.117747 -1.10297
v 4.812531 1.739586 -1.102969
v 3.876655 1.765278 -1.102967
v 3.868277 -0.95721 -1.102967
v 3.300287 -4.684084 -1.102971
v 2.600465 -4.188164 -1.102967
v 1.58522 -5.838005 -1.102971
v 1.083751 -5.092077 -1.102967
v -0.002305635 -6.660625 -1.157191
v -0.002305635 -5.570414 -1.102968
v 5.296113 1.503643 0.781918
v 4.356667 -1.65755 1.112217
v 4.360237 1.529335 1.058741
v 5.249594 -1.818088 0.7819173
v 3.498628 -4.430021 1.112217
v 4.198449 -4.925941 0.7819167
v 1.871474 -5.732965 1.112216
v 2.372943 -6.478891 0.7819158
v -0.002305635 -6.654002 1.112216
v -0.002305635 -7.306465 0.8361351
v 4.812531 1.739586 -1.102969
v 4.892493 5.833097 -1.102968
v 3.977525 5.376103 -1.102967
v 3.876655 1.765278 -1.102967
v 5.296113 1.503643 0.781918
v 4.360237 1.529335 1.058741
v 4.375862 4.694185 1.157192
v 5.246078 4.874872 0.792837
v 4.812531 1.739586 -1.102969
v 5.296113 1.503643 0.781918
v 5.300725 4.883194 0.7716509
v 4.989008 6.111839 -0.7521378
v 4.892493 5.833097 -1.102968
v 5.300725 4.883194 0.7716509
v 4.375862 4.694185 1.157192
v 4.081926 5.567485 -0.6029683
v 4.989008 6.111839 -0.7521378
v 4.081926 5.567485 -0.6029683
v 3.977525 5.376103 -1.102967
v 4.892493 5.833097 -1.102968
v 4.989008 6.111839 -0.7521378
v -4.20306 -4.925941 0.7819167
v -4.765816 -1.117747 -1.10297
v -5.254205 -1.818088 0.7819173
v -3.304898 -4.684084 -1.102971
v -2.377554 -6.478891 0.7819158
v -1.589832 -5.838005 -1.102971
v -0.002305635 -6.660625 -1.157191
v -0.002305635 -7.306465 0.8361351
v -5.254205 -1.818088 0.7819173
v -4.765816 -1.117747 -1.10297
v -4.817142 1.739586 -1.102969
v -5.300724 1.503643 0.781918
v -4.765816 -1.117747 -1.10297
v -3.881267 1.765278 -1.102967
v -4.817142 1.739586 -1.102969
v -3.872889 -0.95721 -1.102967
v -3.304898 -4.684084 -1.102971
v -2.605077 -4.188164 -1.102967
v -1.589832 -5.838005 -1.102971
v -1.088362 -5.092077 -1.102967
v -0.002305635 -6.660625 -1.157191
v -0.002305635 -5.570414 -1.102968
v -5.300724 1.503643 0.781918
v -4.364848 1.529335 1.058741
v -4.361278 -1.65755 1.112217
v -5.254205 -1.818088 0.7819173
v -3.503239 -4.430021 1.112217
v -4.20306 -4.925941 0.7819167
v -1.876085 -5.732965 1.112216
v -2.377554 -6.478891 0.7819158
v -0.002305635 -6.654002 1.112216
v -0.002305635 -7.306465 0.8361351
v -4.817142 1.739586 -1.102969
v -3.881267 1.765278 -1.102967
v -3.982136 6.480178 -1.102967
v -4.897104 7.126 -1.102968
v -5.300724 1.503643 0.781918
v -5.278012 6.204131 0.78697
v -4.380473 6.051476 1.036743
v -4.364848 1.529335 1.058741
v -4.817142 1.739586 -1.102969
v -5.278012 6.204131 0.78697
v -5.300724 1.503643 0.781918
v -4.993619 7.306465 -0.7521377
v -4.897104 7.126 -1.102968
v -5.278012 6.204131 0.78697
v -4.993619 7.306465 -0.7521377
v -4.086537 6.67156 -0.6029681
v -4.380473 6.051476 1.036743
v -4.086537 6.67156 -0.6029681
v -4.993619 7.306465 -0.7521377
v -4.897104 7.126 -1.102968
v -3.982136 6.480178 -1.102967
vt 0.6851414 0.03627974
vt 0.6851904 0.03577825
vt 0.6851107 0.03627823
vt 0.7133147 0.03609598
vt 0.712753 0.03512681
vt 0.7120417 0.035411
vt 0.7125842 0.03641632
vt 0.7135283 0.03686231
vt 0.7127309 0.03708377
vt 0.7128569 0.0376934
vt 0.7136772 0.03774085
vt 0.7092165 0.01144841
vt 0.7099352 0.01145018
vt 0.709978 0.01151241
vt 0.7093594 0.01151097
vt 0.7093594 0.01151097
vt 0.709978 0.01151241
vt 0.7099766 0.01154227
vt 0.7093875 0.01153961
vt 0.7085773 0.01155369
vt 0.7086794 0.01157653
vt 0.708315 0.01160712
vt 0.7084727 0.01162392
vt 0.7081252 0.01165685
vt 0.7083613 0.01165803
vt 0.6627933 0.03683381
vt 0.6621372 0.03593928
vt 0.6621397 0.03684106
vt 0.6627609 0.03589387
vt 0.6615378 0.03515477
vt 0.6620266 0.03501444
vt 0.6604013 0.03478611
vt 0.6607516 0.03457503
vt 0.6590925 0.03452548
vt 0.6590925 0.03421016
vt 0.709978 0.01151241
vt 0.7109171 0.01151447
vt 0.7109103 0.0115446
vt 0.7099766 0.01154227
vt 0.6627933 0.03683381
vt 0.6621397 0.03684106
vt 0.6621513 0.03779252
vt 0.6627399 0.03784783
vt 0.709978 0.01151241
vt 0.7099352 0.01145018
vt 0.7107124 0.01145272
vt 0.7108687 0.01149986
vt 0.7109171 0.01151447
vt 0.6626809 0.03698709
vt 0.660197 0.03748322
vt 0.659465 0.03533704
vt 0.6618437 0.0351451
vt 0.659465 0.03533704
vt 0.659205 0.03457477
vt 0.6615846 0.03457477
vt 0.6618437 0.0351451
vt 0.7133147 0.03609598
vt 0.7120417 0.035411
vt 0.712753 0.03512681
vt 0.7125842 0.03641632
vt 0.7135283 0.03686231
vt 0.7127309 0.03708377
vt 0.7128569 0.0376934
vt 0.7136772 0.03774085
vt 0.7092165 0.01144841
vt 0.7093594 0.01151097
vt 0.709978 0.01151241
vt 0.7099352 0.01145018
vt 0.7093594 0.01151097
vt 0.7099766 0.01154227
vt 0.709978 0.01151241
vt 0.7093875 0.01153961
vt 0.7085773 0.01155369
vt 0.7086794 0.01157653
vt 0.708315 0.01160712
vt 0.7084727 0.01162392
vt 0.7081252 0.01165685
vt 0.7083613 0.01165803
vt 0.6627933 0.03683381
vt 0.6621397 0.03684106
vt 0.6621372 0.03593928
vt 0.6627609 0.03589387
vt 0.6615378 0.03515477
vt 0.6620266 0.03501444
vt 0.6604013 0.03478611
vt 0.6607516 0.03457503
vt 0.6590925 0.03452548
vt 0.6590925 0.03421016
vt 0.709978 0.01151241
vt 0.7099766 0.01154227
vt 0.7109103 0.0115446
vt 0.7109171 0.01151447
vt 0.6627933 0.03683381
vt 0.6627399 0.03784783
vt 0.6621513 0.03779252
vt 0.6621397 0.03684106
vt 0.709978 0.01151241
vt 0.7107124 0.01145272
vt 0.7099352 0.01145018
vt 0.7108687 0.01149986
vt 0.7109171 0.01151447
vt 0.6626809 0.03698709
vt 0.6618437 0.0351451
vt 0.659465 0.03533704
vt 0.660197 0.03748322
vt 0.659465 0.03533704
vt 0.6618437 0.0351451
vt 0.6615846 0.03457477
vt 0.659205 0.03457477
vn 0.3611647 0.00234013 0.9324991
vn 0.3256299 -0.004108711 0.9454885
vn 0.3496604 -0.005034786 0.9368629
vn 0.7442496 -0.5202038 -0.418904
vn 0.9168637 -0.2022287 -0.3441868
vn 0.9371569 -0.1447967 -0.3174444
vn 0.7125072 -0.5614181 -0.4208837
vn 0.4693316 -0.7905269 -0.3934401
vn 0.4482042 -0.8057353 -0.3871739
vn 0 -0.9231758 -0.3843781
vn 0 -0.9231758 -0.3843781
vn 0.9168637 -0.2022287 -0.3441868
vn 0.9697834 -0.01402397 -0.2435639
vn 0.9700537 -0.01398118 -0.2424878
vn 0.9371569 -0.1447967 -0.3174444
vn 0 0 -1
vn 0 0 -1
vn 0 0 -1
vn 0 0 -1
vn 0 0 -1
vn 0 0 -1
vn 0.002508326 0.01489563 -0.9998859
vn 0.002790916 0.0165719 -0.9998587
vn 0 0.03094296 -0.9995211
vn 0 0.03094296 -0.9995211
vn 0.3256299 -0.004108711 0.9454885
vn 0.3289121 -0.0520648 0.9429243
vn 0.3257667 -0.004470067 0.9454396
vn 0.3291507 -0.05313674 0.9427812
vn 0.2867913 -0.1935811 0.9382309
vn 0.2854392 -0.1955521 0.9382344
vn 0.1909264 -0.3118773 0.9307414
vn 0.1933517 -0.3095787 0.931008
vn 0 -0.3502005 0.9366748
vn 0 -0.3502005 0.9366748
vn 0 0 -1
vn 0 0 -1
vn 0 0 -1
vn 0 0 -1
vn 0.3256299 -0.004108711 0.9454885
vn 0.3257667 -0.004470067 0.9454396
vn 0.3355852 -0.01399433 0.9419059
vn 0.3496604 -0.005034786 0.9368629
vn 0.9700537 -0.01398118 -0.2424878
vn 0.9697834 -0.01402397 -0.2435639
vn 0.9725655 -0.01251446 -0.232292
vn 0.9704186 -0.01542968 -0.2409347
vn 0.9677476 -0.01890372 -0.2512118
vn -0.1654168 0.8165091 0.5531276
vn -0.1654168 0.8165091 0.5531276
vn -0.1654168 0.8165091 0.5531276
vn -0.1654168 0.8165091 0.5531277
vn -0.4744717 0.813109 -0.3372394
vn -0.4744717 0.8131089 -0.3372394
vn -0.4744717 0.8131089 -0.3372394
vn -0.4744718 0.813109 -0.3372394
vn -0.7442496 -0.5202038 -0.4189041
vn -0.9371569 -0.1447967 -0.3174445
vn -0.9168636 -0.2022287 -0.3441869
vn -0.7125072 -0.5614181 -0.4208838
vn -0.4693317 -0.7905269 -0.3934401
vn -0.4482042 -0.8057353 -0.387174
vn 0 -0.9231758 -0.3843781
vn 0 -0.9231758 -0.3843781
vn -0.9168636 -0.2022287 -0.3441869
vn -0.9371569 -0.1447967 -0.3174445
vn -0.9714633 -0.01096691 -0.2369361
vn -0.9710617 -0.01144262 -0.2385541
vn 0 0 -1
vn 0 0 -1
vn 0 0 -1
vn 0 0 -1
vn 0 0 -1
vn 0 0 -1
vn -0.002508326 0.01489563 -0.9998859
vn -0.002790916 0.0165719 -0.9998587
vn 0 0.03094296 -0.9995211
vn 0 0.03094296 -0.9995211
vn -0.2960894 0.003697678 0.955153
vn -0.2955438 0.003651004 0.9553222
vn -0.3289121 -0.0520648 0.9429243
vn -0.3291507 -0.05313674 0.9427811
vn -0.2867913 -0.1935811 0.9382309
vn -0.2854392 -0.1955522 0.9382344
vn -0.1909264 -0.3118773 0.9307414
vn -0.1933517 -0.3095787 0.931008
vn 0 -0.3502005 0.9366748
vn 0 -0.3502005 0.9366748
vn 0 0 -1
vn 0 0 -1
vn 0 0 -1
vn 0 0 -1
vn -0.2960894 0.003697678 0.955153
vn -0.2759329 0.001978162 0.9611749
vn -0.2759329 0.001978162 0.9611749
vn -0.2955438 0.003651004 0.9553222
vn -0.9714633 -0.01096691 -0.2369361
vn -0.9751524 -0.006928892 -0.221427
vn -0.9710617 -0.01144262 -0.2385541
vn -0.9706934 -0.01066564 -0.2400848
vn -0.9659426 -0.01433944 -0.2583586
vn 0.2528383 0.8306489 0.4960799
vn 0.2528383 0.8306489 0.4960799
vn 0.2528383 0.8306489 0.4960799
vn 0.2528383 0.8306489 0.4960799
vn 0.5736476 0.7915931 -0.2104964
vn 0.5736477 0.7915931 -0.2104964
vn 0.5736477 0.7915931 -0.2104964
vn 0.5736476 0.7915931 -0.2104964
g Color_Boss_46_0
f 3/3/3 2/2/2 1/1/1
f 6/6/6 5/5/5 4/4/4
f 7/7/7 6/6/6 4/4/4
f 4/4/4 8/8/8 7/7/7
f 8/8/8 9/9/9 7/7/7
f 9/9/9 8/8/8 10/10/10
f 8/8/8 11/11/11 10/10/10
f 14/14/14 13/13/13 12/12/12
f 15/15/15 14/14/14 12/12/12
f 18/18/18 17/17/17 16/16/16
f 19/19/19 18/18/18 16/16/16
f 19/19/19 16/16/16 20/20/20
f 21/21/21 19/19/19 20/20/20
f 21/21/21 20/20/20 22/22/22
f 23/23/23 21/21/21 22/22/22
f 23/23/23 22/22/22 24/24/24
f 25/25/25 23/23/23 24/24/24
f 28/28/28 27/27/27 26/26/26
f 27/27/27 29/29/29 26/26/26
f 27/27/27 30/30/30 29/29/29
f 30/30/30 31/31/31 29/29/29
f 30/30/30 32/32/32 31/31/31
f 32/32/32 33/33/33 31/31/31
f 32/32/32 34/34/34 33/33/33
f 34/34/34 35/35/35 33/33/33
f 38/38/38 37/37/37 36/36/36
f 39/39/39 38/38/38 36/36/36
f 42/42/42 41/41/41 40/40/40
f 43/43/43 42/42/42 40/40/40
f 46/46/46 45/45/45 44/44/44
f 47/47/47 46/46/46 44/44/44
f 47/47/47 44/44/44 48/48/48
f 51/51/51 50/50/50 49/49/49
f 52/52/52 51/51/51 49/49/49
f 55/55/55 54/54/54 53/53/53
f 56/56/56 55/55/55 53/53/53
f 59/59/59 58/58/58 57/57/57
f 58/58/58 60/60/60 57/57/57
f 61/61/61 57/57/57 60/60/60
f 62/62/62 61/61/61 60/60/60
f 61/61/61 62/62/62 63/63/63
f 64/64/64 61/61/61 63/63/63
f 67/67/67 66/66/66 65/65/65
f 68/68/68 67/67/67 65/65/65
f 71/71/71 70/70/70 69/69/69
f 70/70/70 72/72/72 69/69/69
f 69/69/69 72/72/72 73/73/73
f 72/72/72 74/74/74 73/73/73
f 73/73/73 74/74/74 75/75/75
f 74/74/74 76/76/76 75/75/75
f 75/75/75 76/76/76 77/77/77
f 76/76/76 78/78/78 77/77/77
f 81/81/81 80/80/80 79/79/79
f 82/82/82 81/81/81 79/79/79
f 83/83/83 81/81/81 82/82/82
f 84/84/84 83/83/83 82/82/82
f 85/85/85 83/83/83 84/84/84
f 86/86/86 85/85/85 84/84/84
f 87/87/87 85/85/85 86/86/86
f 88/88/88 87/87/87 86/86/86
f 91/91/91 90/90/90 89/89/89
f 92/92/92 91/91/91 89/89/89
f 95/95/95 94/94/94 93/93/93
f 96/96/96 95/95/95 93/93/93
f 99/99/99 98/98/98 97/97/97
f 98/98/98 100/100/100 97/97/97
f 97/97/97 100/100/100 101/101/101
f 104/104/104 103/103/103 102/102/102
f 105/105/105 104/104/104 102/102/102
f 108/108/108 107/107/107 106/106/106
f 109/109/109 108/108/108 106/106/106
