g Color_Cloth_04
v 5.504736 1.148292 3.509389
v 8.16483 1.148293 3.509389
v 8.012085 0.5286459 2.750264
v 5.417073 0.3074756 2.863715
v 2.844609 1.148291 3.509389
v 2.806593 0.1310988 2.957875
v 0.08685273 1.14829 3.509389
v 0.08387775 0.06374267 2.996705
v -2.822708 1.148289 3.509389
v -2.781382 0.1281972 2.959395
v -5.404759 0.30479 2.864984
v -5.493784 1.148288 3.509389
v -8.012085 0.5286402 2.750264
v -8.16483 1.148287 3.509389
v 5.417073 0.3074756 2.863715
v 8.012085 0.5286459 2.750264
v 7.813559 0.226482 1.443183
v 5.30392 -0.2296299 1.637849
v 2.806593 0.1310988 2.957875
v 7.692611 0.08209863 0.2701068
v 2.759854 -0.5904926 1.793684
v 0.08387775 0.06374267 2.996705
v 5.24224 -0.4763024 0.4924407
v 7.586326 0.2016995 -0.9919226
v 0.08113661 -0.7295824 1.860179
v -2.781382 0.1281972 2.959395
v 2.740367 -0.9198022 0.6701007
v 5.193738 -0.4438054 -0.7494147
v -2.729136 -0.5940655 1.7947
v -5.404759 0.30479 2.864984
v 5.164229 -0.1112895 -1.998883
v 7.498168 0.6224543 -2.277556
v 0.08164616 -1.094777 0.7426906
v 2.732139 -0.9580893 -0.5579226
v 5.146287 0.3461226 -3.212691
v 7.423001 1.164981 -3.509387
v 2.757689 -0.3078395 -2.981732
v 2.740521 -0.6967031 -1.780358
v 0.08568776 -1.164982 -0.4859681
v 0.0936867 -0.9335395 -1.703204
v 0.1033473 -0.573239 -2.905973
v -2.704978 -0.9171722 0.6741614
v -2.694151 -0.9507141 -0.5605872
v -2.70108 -0.6863071 -1.787087
v -2.717382 -0.2955009 -2.991377
v -5.288885 -0.233286 1.638864
v -5.224484 -0.4754935 0.4959922
v -7.813557 0.2264767 1.443183
v -8.012085 0.5286402 2.750264
v -7.692609 0.08209339 0.2701068
v -5.174063 -0.4397626 -0.7509387
v -7.586324 0.2016942 -0.9919226
v -5.143439 -0.1054272 -2.003323
v -5.124756 0.3529003 -3.219164
v -7.498167 0.6224491 -2.277556
v -7.423 1.164976 -3.509387
vt 0.8060516 0.9809253
vt 0.9635989 0.9809251
vt 0.9635991 0.9035298
vt 0.8060516 0.9035298
vt 0.648504 0.9809253
vt 0.648504 0.9035298
vt 0.4909566 0.9809253
vt 0.4909566 0.9035298
vt 0.3373438 0.9809253
vt 0.3373438 0.9035298
vt 0.1807798 0.9035298
vt 0.1807798 0.9809253
vt 0.02421591 0.9035298
vt 0.02421591 0.9809251
vt 0.8060516 0.9035298
vt 0.9635991 0.9035298
vt 0.9635991 0.8261344
vt 0.8060516 0.8261344
vt 0.648504 0.9035298
vt 0.9635991 0.7487391
vt 0.648504 0.8261344
vt 0.4909566 0.9035298
vt 0.8060516 0.7487391
vt 0.9635991 0.6713437
vt 0.4909566 0.8261344
vt 0.3373438 0.9035298
vt 0.648504 0.7487391
vt 0.8060516 0.6713437
vt 0.3373438 0.8261344
vt 0.1807798 0.9035298
vt 0.8060516 0.5939483
vt 0.9635991 0.5939483
vt 0.4909566 0.7487391
vt 0.648504 0.6713437
vt 0.8060516 0.5165529
vt 0.9635989 0.5165529
vt 0.648504 0.5165529
vt 0.648504 0.5939483
vt 0.4909566 0.6713437
vt 0.4909566 0.5939483
vt 0.4909566 0.5165529
vt 0.3373438 0.7487391
vt 0.3373438 0.6713437
vt 0.3373438 0.5939483
vt 0.3373438 0.5165529
vt 0.1807798 0.8261344
vt 0.1807798 0.7487391
vt 0.02421591 0.8261344
vt 0.02421591 0.9035298
vt 0.02421591 0.7487391
vt 0.1807798 0.6713437
vt 0.02421591 0.6713437
vt 0.1807798 0.5939483
vt 0.1807798 0.5165529
vt 0.02421591 0.5939483
vt 0.02421591 0.5165529
vn 0.03557634 -0.6323003 0.7739061
vn 0 -0.7746846 0.6323479
vn 0.01996559 -0.7412143 0.6709716
vn 0.04875345 -0.594058 0.8029435
vn 0.030586 -0.4823284 0.8754564
vn 0.03686526 -0.4644031 0.8848563
vn 0.000555572 -0.4514006 0.8923212
vn 0.0005141444 -0.4513988 0.8923222
vn -0.03001409 -0.4808175 0.8763068
vn -0.03613507 -0.4629385 0.8856535
vn -0.04889166 -0.5921714 0.8043274
vn -0.03586141 -0.6305574 0.7753137
vn -0.0200236 -0.7409622 0.6712482
vn 0 -0.7746845 0.6323479
vn 0.1405196 -0.9096544 0.3908748
vn 0.09216291 -0.9731387 0.2109669
vn 0.1647133 -0.9642562 0.2075563
vn 0.1720879 -0.9355738 0.3083626
vn 0.0793545 -0.8607616 0.5027847
vn 0.2233236 -0.9740342 0.03720151
vn 0.09770045 -0.9160414 0.3890023
vn 0.001681893 -0.8355781 0.549369
vn 0.2014516 -0.9763172 0.07888064
vn 0.240442 -0.9513968 -0.1924367
vn 0.0016349 -0.904648 0.4261565
vn -0.07756429 -0.8608823 0.5028572
vn 0.1239079 -0.9814801 0.1460944
vn 0.2125366 -0.9670166 -0.1403819
vn -0.09552781 -0.9168411 0.3876557
vn -0.1405818 -0.9095791 0.3910276
vn 0.2213738 -0.9290748 -0.2963337
vn 0.2541401 -0.8998312 -0.3545654
vn 0.001207104 -0.9852454 0.1711433
vn 0.1337118 -0.9864676 -0.09488314
vn 0.2350746 -0.9044661 -0.3559228
vn 0.2629822 -0.876937 -0.4022708
vn 0.1477529 -0.9405614 -0.3057996
vn 0.1378761 -0.9569128 -0.2555541
vn 0.0006283994 -0.9971241 -0.07578222
vn 0.0006440459 -0.9691599 -0.2464317
vn 0.001167867 -0.9548236 -0.297171
vn -0.1215862 -0.9821942 0.143218
vn -0.1316346 -0.9865341 -0.09707049
vn -0.1357047 -0.9568869 -0.2568101
vn -0.145281 -0.940653 -0.3067008
vn -0.1714529 -0.9361403 0.306994
vn -0.1995248 -0.9769208 0.07625969
vn -0.1645799 -0.9644898 0.2065738
vn -0.09282232 -0.9730998 0.2108572
vn -0.2215515 -0.9744966 0.03565606
vn -0.2096525 -0.96739 -0.1421355
vn -0.2372709 -0.9520679 -0.1930525
vn -0.2181162 -0.9295942 -0.2971195
vn -0.2315843 -0.9052342 -0.3562581
vn -0.2505423 -0.9007854 -0.3547031
vn -0.2593816 -0.8779126 -0.4024806
g Color_Cloth_04_0
f 3/3/3 2/2/2 1/1/1
f 4/4/4 3/3/3 1/1/1
f 4/4/4 1/1/1 5/5/5
f 6/6/6 4/4/4 5/5/5
f 6/6/6 5/5/5 7/7/7
f 8/8/8 6/6/6 7/7/7
f 8/8/8 7/7/7 9/9/9
f 10/10/10 8/8/8 9/9/9
f 11/11/11 10/10/10 9/9/9
f 12/12/12 11/11/11 9/9/9
f 13/13/13 11/11/11 12/12/12
f 14/14/14 13/13/13 12/12/12
f 17/17/17 16/16/16 15/15/15
f 18/18/18 17/17/17 15/15/15
f 18/18/18 15/15/15 19/19/19
f 20/20/20 17/17/17 18/18/18
f 21/21/21 18/18/18 19/19/19
f 21/21/21 19/19/19 22/22/22
f 23/23/23 20/20/20 18/18/18
f 23/23/23 18/18/18 21/21/21
f 24/24/24 20/20/20 23/23/23
f 25/25/25 21/21/21 22/22/22
f 25/25/25 22/22/22 26/26/26
f 27/27/27 23/23/23 21/21/21
f 27/27/27 21/21/21 25/25/25
f 28/28/28 24/24/24 23/23/23
f 28/28/28 23/23/23 27/27/27
f 29/29/29 25/25/25 26/26/26
f 29/29/29 26/26/26 30/30/30
f 28/28/28 31/31/31 24/24/24
f 31/31/31 32/32/32 24/24/24
f 33/33/33 27/27/27 25/25/25
f 33/33/33 25/25/25 29/29/29
f 34/34/34 28/28/28 27/27/27
f 31/31/31 28/28/28 34/34/34
f 34/34/34 27/27/27 33/33/33
f 31/31/31 35/35/35 32/32/32
f 35/35/35 36/36/36 32/32/32
f 37/37/37 35/35/35 31/31/31
f 38/38/38 31/31/31 34/34/34
f 38/38/38 37/37/37 31/31/31
f 39/39/39 34/34/34 33/33/33
f 38/38/38 34/34/34 39/39/39
f 37/37/37 38/38/38 40/40/40
f 40/40/40 38/38/38 39/39/39
f 41/41/41 37/37/37 40/40/40
f 42/42/42 33/33/33 29/29/29
f 39/39/39 33/33/33 42/42/42
f 40/40/40 39/39/39 43/43/43
f 43/43/43 39/39/39 42/42/42
f 41/41/41 40/40/40 44/44/44
f 44/44/44 40/40/40 43/43/43
f 45/45/45 41/41/41 44/44/44
f 42/42/42 29/29/29 46/46/46
f 46/46/46 29/29/29 30/30/30
f 43/43/43 42/42/42 47/47/47
f 47/47/47 42/42/42 46/46/46
f 48/48/48 46/46/46 30/30/30
f 47/47/47 46/46/46 48/48/48
f 49/49/49 48/48/48 30/30/30
f 50/50/50 47/47/47 48/48/48
f 51/51/51 43/43/43 47/47/47
f 51/51/51 47/47/47 50/50/50
f 44/44/44 43/43/43 51/51/51
f 52/52/52 51/51/51 50/50/50
f 45/45/45 44/44/44 53/53/53
f 53/53/53 44/44/44 51/51/51
f 53/53/53 51/51/51 52/52/52
f 54/54/54 45/45/45 53/53/53
f 55/55/55 53/53/53 52/52/52
f 54/54/54 53/53/53 55/55/55
f 56/56/56 54/54/54 55/55/55
