g Color_10
v -7.557346 1.869035 -0.734426
v -7.508308 2.15212 0.08260918
v -5.856163 1.163936 0.4527245
v -7.296635 3.160501 0.1828408
v -7.508308 2.15212 0.08260918
v -7.557346 1.869035 -0.734426
v 19.44557 16.9404 -0.39533
v 19.02833 17.70648 -0.3945751
v 19.61293 18.34947 -0.3704352
v 5.264515 7.493578 -0.4401579
v 4.713463 7.765961 -0.4648046
v 4.77951 8.411215 -0.4667702
v 0.6255798 1.915391 -0.8393865
v 0.1646423 2.143229 -0.8600016
v 0.2198906 2.682969 -0.8616467
v 21.70309 14.58014 -0.8393869
v 21.24216 14.80798 -0.8600025
v 21.29741 15.34772 -0.8616476
v -5.051819 3.11271 -1.765358
v -4.991169 0.5391979 -1.582287
v -5.856163 1.163936 0.4527245
v -5.722855 2.426939 0.3719783
v -8.211391 4.317299 -1.797677
v -5.051819 3.11271 -1.765358
v -5.722855 2.426939 0.3719783
v -7.296635 3.160501 0.1828408
v -8.702377 1.533895 -1.816626
v -8.211391 4.317299 -1.797677
v -7.296635 3.160501 0.1828408
v -7.557346 1.869035 -0.734426
v -7.508308 2.15212 0.08260918
v -7.296635 3.160501 0.1828408
v -5.722855 2.426939 0.3719783
v -5.856163 1.163936 0.4527245
v -4.991169 0.5391979 -1.582287
v -8.702377 1.533895 -1.816626
v -7.557346 1.869035 -0.734426
v -5.856163 1.163936 0.4527245
v 18.63745 17.97107 -2.546366
v 20.23237 19.16745 -2.204564
v 19.61293 18.34947 -0.3704352
v 19.02833 17.70648 -0.3945751
v 19.36119 16.22071 -2.370739
v 18.63745 17.97107 -2.546366
v 19.02833 17.70648 -0.3945751
v 19.44557 16.9404 -0.39533
v 21.05108 16.19287 -2.037534
v 19.36119 16.22071 -2.370739
v 19.44557 16.9404 -0.39533
v 20.36309 17.00922 -0.5189319
v 20.36309 17.00922 -0.5189319
v 19.44557 16.9404 -0.39533
v 19.61293 18.34947 -0.3704352
v 20.46809 18.00711 -0.2383914
v 21.7672 17.97814 -1.729097
v 21.05108 16.19287 -2.037534
v 20.36309 17.00922 -0.5189319
v 20.46809 18.00711 -0.2383914
v 20.23237 19.16745 -2.204564
v 21.7672 17.97814 -1.729097
v 20.46809 18.00711 -0.2383914
v 19.61293 18.34947 -0.3704352
v 4.087723 7.567974 -1.755852
v 4.570427 8.967432 -1.77155
v 4.77951 8.411215 -0.4667702
v 4.713463 7.765961 -0.4648046
v 5.263927 6.825966 -1.717798
v 4.087723 7.567974 -1.755852
v 4.713463 7.765961 -0.4648046
v 5.264515 7.493578 -0.4401579
v 6.415977 7.547781 -1.59665
v 5.263927 6.825966 -1.717798
v 5.264515 7.493578 -0.4401579
v 5.813255 7.935352 -0.3784504
v 5.813255 7.935352 -0.3784504
v 5.264515 7.493578 -0.4401579
v 4.77951 8.411215 -0.4667702
v 5.440968 8.565258 -0.4931626
v 6.028595 8.920221 -1.662382
v 6.415977 7.547781 -1.59665
v 5.813255 7.935352 -0.3784504
v 5.440968 8.565258 -0.4931626
v 4.570427 8.967432 -1.77155
v 6.028595 8.920221 -1.662382
v 5.440968 8.565258 -0.4931626
v 4.77951 8.411215 -0.4667702
v 4.794891 6.249199 -2.185101
v 6.418331 5.03673 -2.130917
v 5.770554 4.824808 -0.7696433
v 5.024231 5.457237 -0.7940121
v 3.388599 4.806955 -2.126336
v 4.794891 6.249199 -2.185101
v 5.024231 5.457237 -0.7940121
v 4.264145 4.884312 -0.8793125
v 5.02623 3.614386 -2.193419
v 3.388599 4.806955 -2.126336
v 4.264145 4.884312 -0.8793125
v 4.779179 4.297718 -0.9910703
v 4.779179 4.297718 -0.9910703
v 4.264145 4.884312 -0.8793125
v 5.024231 5.457237 -0.7940121
v 5.770554 4.824808 -0.7696433
v 6.418331 5.03673 -2.130917
v 5.02623 3.614386 -2.193419
v 4.779179 4.297718 -0.9910703
v 5.770554 4.824808 -0.7696433
v -0.3587761 1.977621 -1.939927
v 0.04499054 3.148229 -1.953058
v 0.2198906 2.682969 -0.8616467
v 0.1646423 2.143229 -0.8600016
v 0.6250916 1.35695 -1.908096
v -0.3587761 1.977621 -1.939927
v 0.1646423 2.143229 -0.8600016
v 0.6255798 1.915391 -0.8393865
v 1.588737 1.96073 -1.806759
v 0.6250916 1.35695 -1.908096
v 0.6255798 1.915391 -0.8393865
v 1.084579 2.284921 -0.7877679
v 1.084579 2.284921 -0.7877679
v 0.6255798 1.915391 -0.8393865
v 0.2198906 2.682969 -0.8616467
v 0.7731705 2.811829 -0.8837228
v 1.264698 3.108744 -1.861742
v 1.588737 1.96073 -1.806759
v 1.084579 2.284921 -0.7877679
v 0.7731705 2.811829 -0.8837228
v 0.04499054 3.148229 -1.953058
v 1.264698 3.108744 -1.861742
v 0.7731705 2.811829 -0.8837228
v 0.2198906 2.682969 -0.8616467
v 20.71873 14.64237 -1.939927
v 21.12251 15.81297 -1.953058
v 21.29741 15.34772 -0.8616476
v 21.24216 14.80798 -0.8600025
v 21.70261 14.0217 -1.908097
v 20.71873 14.64237 -1.939927
v 21.24216 14.80798 -0.8600025
v 21.70309 14.58014 -0.8393869
v 22.66625 14.62548 -1.806759
v 21.70261 14.0217 -1.908097
v 21.70309 14.58014 -0.8393869
v 22.1621 14.94967 -0.7877693
v 22.1621 14.94967 -0.7877693
v 21.70309 14.58014 -0.8393869
v 21.29741 15.34772 -0.8616476
v 21.85069 15.47658 -0.8837233
v 22.34221 15.77349 -1.861743
v 22.66625 14.62548 -1.806759
v 22.1621 14.94967 -0.7877693
v 21.85069 15.47658 -0.8837233
v 21.12251 15.81297 -1.953058
v 22.34221 15.77349 -1.861743
v 21.85069 15.47658 -0.8837233
v 21.29741 15.34772 -0.8616476
vt 0.0155271 0.01301626
vt 0.0155271 0.01301626
vt 0.01522288 0.01276823
vt 0.0153452 0.01276823
vt 0.01522288 0.01337554
vt 0.01522288 0.01337553
vt 0.01650923 0.01486477
vt 0.01730429 0.01356902
vt 0.0161538 0.01356902
vt 0.01556034 0.01314687
vt 0.0157689 0.01291286
vt 0.01546705 0.01291286
vt 0.01556034 0.01314687
vt 0.0157689 0.01291286
vt 0.01546705 0.01291286
vt 0.01556034 0.01314687
vt 0.0157689 0.01291286
vt 0.01546705 0.01291286
vt 0.01529893 0.01276823
vt 0.01522288 0.01283036
vt 0.01522288 0.01283036
vt 0.01529893 0.01276823
vt 0.01597987 0.01472083
vt 0.01522288 0.01276823
vt 0.01522288 0.01276823
vt 0.01597987 0.01472083
vt 0.01522288 0.01337554
vt 0.0153452 0.01276823
vt 0.0153452 0.01276823
vt 0.01522288 0.01337553
vt 0.01605538 0.01375401
vt 0.01688804 0.01276823
vt 0.01605538 0.01276823
vt 0.01522288 0.01276823
vt 0.01522288 0.01276823
vt 0.0155271 0.01301626
vt 0.0155271 0.01301626
vt 0.01522288 0.01276823
vt 0.01632108 0.01455836
vt 0.01522288 0.01276823
vt 0.01522288 0.01276823
vt 0.01632108 0.01455836
vt 0.01522288 0.01406598
vt 0.01637927 0.01276823
vt 0.01637927 0.01276823
vt 0.01522288 0.01406598
vt 0.01547803 0.0128358
vt 0.01522288 0.01276823
vt 0.01522288 0.01276823
vt 0.01547803 0.0128358
vt 0.01522288 0.01436981
vt 0.01650923 0.01486477
vt 0.0161538 0.01356902
vt 0.01522288 0.01276823
vt 0.01547803 0.01305457
vt 0.01547803 0.0128358
vt 0.01547803 0.0128358
vt 0.01547803 0.01305457
vt 0.01701947 0.01276823
vt 0.01522288 0.01427383
vt 0.01522288 0.01427383
vt 0.01701947 0.01276823
vt 0.01533666 0.01289587
vt 0.01522288 0.01276823
vt 0.01522288 0.01276823
vt 0.01533666 0.01289587
vt 0.01522288 0.01289587
vt 0.0153366 0.01276823
vt 0.0153366 0.01276823
vt 0.01522288 0.01289587
vt 0.01522288 0.01287341
vt 0.01534554 0.01290596
vt 0.01534554 0.01290596
vt 0.01522288 0.01287341
vt 0.01522288 0.01305746
vt 0.01556034 0.01314687
vt 0.01546705 0.01291286
vt 0.01522288 0.01276823
vt 0.01522288 0.01276823
vt 0.01522288 0.01287341
vt 0.01522288 0.01287341
vt 0.01522288 0.01276823
vt 0.01552965 0.01276823
vt 0.01522288 0.01284946
vt 0.01522288 0.01284946
vt 0.01552965 0.01276823
vt 0.01529893 0.01276823
vt 0.01522288 0.01283036
vt 0.01522288 0.01283036
vt 0.01529893 0.01276823
vt 0.01597987 0.01472083
vt 0.01522288 0.01276823
vt 0.01522288 0.01276823
vt 0.01597987 0.01472083
vt 0.01522288 0.01337554
vt 0.0153452 0.01276823
vt 0.0153452 0.01276823
vt 0.01522288 0.01337554
vt 0.01605538 0.01375401
vt 0.01688804 0.01276823
vt 0.01605538 0.01276823
vt 0.01522288 0.01276823
vt 0.01522288 0.01276823
vt 0.0155271 0.01301626
vt 0.0155271 0.01301626
vt 0.01522288 0.01276823
vt 0.01533666 0.01289587
vt 0.01522288 0.01276823
vt 0.01522288 0.01276823
vt 0.01533666 0.01289587
vt 0.01522288 0.01289587
vt 0.0153366 0.01276823
vt 0.0153366 0.01276823
vt 0.01522288 0.01289587
vt 0.01522288 0.01287341
vt 0.01534554 0.01290596
vt 0.01534554 0.01290596
vt 0.01522288 0.01287341
vt 0.01522288 0.01305746
vt 0.01556034 0.01314687
vt 0.01546705 0.01291286
vt 0.01522288 0.01276823
vt 0.01522288 0.01276823
vt 0.01522288 0.01287341
vt 0.01522288 0.01287341
vt 0.01522288 0.01276823
vt 0.01552965 0.01276823
vt 0.01522288 0.01284946
vt 0.01522288 0.01284946
vt 0.01552965 0.01276823
vt 0.01533666 0.01289587
vt 0.01522288 0.01276823
vt 0.01522288 0.01276823
vt 0.01533666 0.01289587
vt 0.01522288 0.01289587
vt 0.0153366 0.01276823
vt 0.0153366 0.01276823
vt 0.01522288 0.01289587
vt 0.01522288 0.01287341
vt 0.01534554 0.01290596
vt 0.01534554 0.01290596
vt 0.01522288 0.01287341
vt 0.01522288 0.01305746
vt 0.01556034 0.01314687
vt 0.01546705 0.01291286
vt 0.01522288 0.01276823
vt 0.01522288 0.01276823
vt 0.01522288 0.01287341
vt 0.01522288 0.01287341
vt 0.01522288 0.01276823
vt 0.01552965 0.01276823
vt 0.01522288 0.01284946
vt 0.01522288 0.01284946
vt 0.01552965 0.01276823
vn -0.5382501 -0.7858244 0.3045764
vn -0.5382501 -0.7858244 0.3045764
vn -0.5382501 -0.7858244 0.3045764
vn -0.978331 0.206646 -0.01287953
vn -0.978331 0.206646 -0.01287953
vn -0.978331 0.206646 -0.01287953
vn -0.02513483 -0.01467448 0.9995764
vn -0.02513483 -0.01467448 0.9995764
vn -0.02513483 -0.01467448 0.9995764
vn -0.04110372 0.00725081 0.9991286
vn -0.04110371 0.007250809 0.9991286
vn -0.04110371 0.00725081 0.9991286
vn -0.04110052 0.007252363 0.9991288
vn -0.04110052 0.007252364 0.9991288
vn -0.04110052 0.007252364 0.9991288
vn -0.04110248 0.007252151 0.9991286
vn -0.04110248 0.007252151 0.9991286
vn -0.04110248 0.007252152 0.9991286
vn 0.9383819 0.005989865 0.3455485
vn 0.9383819 0.005989865 0.3455485
vn 0.9383819 0.005989865 0.3455485
vn 0.9383819 0.005989864 0.3455484
vn 0.3375928 0.8664877 0.3677365
vn 0.3375928 0.8664877 0.3677364
vn 0.3375928 0.8664877 0.3677365
vn 0.3375928 0.8664877 0.3677365
vn -0.826661 0.02332422 0.5622165
vn -0.826661 0.02332422 0.5622166
vn -0.826661 0.02332422 0.5622166
vn -0.826661 0.02332422 0.5622165
vn -0.1623912 0.0162006 0.9865934
vn -0.1623912 0.0162006 0.9865934
vn -0.1623912 0.0162006 0.9865934
vn -0.1623911 0.0162006 0.9865934
vn -0.3572115 -0.8831537 0.3040384
vn -0.3572115 -0.8831537 0.3040384
vn -0.3572115 -0.8831537 0.3040384
vn -0.3572115 -0.8831537 0.3040384
vn -0.6521604 0.740208 0.1636428
vn -0.6521604 0.740208 0.1636428
vn -0.6521604 0.740208 0.1636428
vn -0.6521605 0.740208 0.1636428
vn -0.9045246 -0.3998231 0.1482457
vn -0.9045246 -0.3998231 0.1482457
vn -0.9045246 -0.3998231 0.1482457
vn -0.9045246 -0.3998231 0.1482457
vn -0.01773372 -0.916425 0.3998133
vn -0.01773372 -0.916425 0.3998133
vn -0.01773372 -0.916425 0.3998133
vn -0.01773372 -0.916425 0.3998132
vn -0.02373691 -0.1232072 0.992097
vn -0.02373691 -0.1232072 0.992097
vn -0.02373691 -0.1232072 0.992097
vn -0.02373691 -0.1232072 0.992097
vn 0.7376041 -0.340957 0.5828281
vn 0.7376041 -0.340957 0.5828281
vn 0.7376041 -0.340957 0.5828281
vn 0.7376041 -0.340957 0.582828
vn 0.4084233 0.8067006 0.4271117
vn 0.4084233 0.8067006 0.4271117
vn 0.4084233 0.8067006 0.4271117
vn 0.4084234 0.8067007 0.4271117
vn -0.9118725 0.2475533 0.3274232
vn -0.9118725 0.2475533 0.3274232
vn -0.9118725 0.2475533 0.3274232
vn -0.9118725 0.2475533 0.3274232
vn -0.4781061 -0.7904268 0.3829363
vn -0.478106 -0.7904268 0.3829362
vn -0.478106 -0.7904268 0.3829362
vn -0.4781061 -0.7904268 0.3829363
vn 0.4752592 -0.763413 0.4374121
vn 0.4752592 -0.763413 0.4374121
vn 0.4752591 -0.763413 0.4374121
vn 0.4752591 -0.763413 0.4374121
vn -0.05805447 0.0588489 0.9965773
vn -0.05805447 0.05884889 0.9965773
vn -0.05805447 0.0588489 0.9965773
vn -0.05805447 0.0588489 0.9965773
vn 0.8384547 0.3553369 0.4131941
vn 0.8384547 0.3553368 0.4131941
vn 0.8384547 0.3553368 0.4131941
vn 0.8384547 0.3553369 0.4131941
vn -0.06051177 0.9396269 0.3368083
vn -0.06051177 0.9396269 0.3368083
vn -0.06051177 0.9396269 0.3368083
vn -0.06051177 0.9396269 0.3368083
vn 0.5664205 0.7427657 0.3570251
vn 0.5664205 0.7427658 0.3570251
vn 0.5664206 0.7427658 0.3570251
vn 0.5664205 0.7427658 0.3570251
vn -0.6158883 0.6563639 0.4357385
vn -0.6158883 0.6563639 0.4357385
vn -0.6158884 0.6563639 0.4357385
vn -0.6158883 0.6563639 0.4357385
vn -0.5723103 -0.7300065 0.3735658
vn -0.5723103 -0.7300065 0.3735658
vn -0.5723103 -0.7300065 0.3735658
vn -0.5723103 -0.7300065 0.3735658
vn -0.07771038 -0.1510549 0.9854661
vn -0.07771039 -0.1510549 0.9854661
vn -0.07771038 -0.1510549 0.9854661
vn -0.07771038 -0.1510549 0.9854661
vn 0.5716649 -0.7480427 0.3370925
vn 0.5716649 -0.7480427 0.3370925
vn 0.5716648 -0.7480427 0.3370925
vn 0.5716649 -0.7480427 0.3370925
vn -0.911871 0.2475524 0.3274278
vn -0.911871 0.2475524 0.3274277
vn -0.911871 0.2475524 0.3274277
vn -0.911871 0.2475524 0.3274277
vn -0.478105 -0.7904272 0.3829366
vn -0.478105 -0.7904271 0.3829366
vn -0.478105 -0.7904272 0.3829366
vn -0.478105 -0.7904271 0.3829366
vn 0.4752624 -0.7634107 0.4374125
vn 0.4752625 -0.7634107 0.4374125
vn 0.4752624 -0.7634107 0.4374125
vn 0.4752624 -0.7634107 0.4374124
vn -0.05805748 0.05884772 0.9965772
vn -0.05805748 0.05884771 0.9965772
vn -0.05805748 0.05884772 0.9965772
vn -0.05805748 0.05884772 0.9965772
vn 0.8384562 0.3553373 0.4131909
vn 0.8384562 0.3553373 0.4131909
vn 0.8384562 0.3553373 0.4131909
vn 0.8384562 0.3553373 0.4131909
vn -0.06051871 0.9396269 0.3368065
vn -0.06051872 0.9396269 0.3368065
vn -0.06051872 0.9396269 0.3368066
vn -0.06051872 0.9396269 0.3368066
vn -0.9118695 0.2475537 0.3274313
vn -0.9118695 0.2475537 0.3274313
vn -0.9118695 0.2475537 0.3274313
vn -0.9118695 0.2475537 0.3274313
vn -0.4781072 -0.7904248 0.3829389
vn -0.4781073 -0.7904248 0.3829389
vn -0.4781072 -0.7904248 0.3829389
vn -0.4781072 -0.7904248 0.3829389
vn 0.4752611 -0.7634112 0.437413
vn 0.4752611 -0.7634112 0.437413
vn 0.4752612 -0.7634113 0.4374131
vn 0.4752611 -0.7634112 0.437413
vn -0.0580569 0.05884781 0.9965773
vn -0.0580569 0.05884781 0.9965773
vn -0.0580569 0.05884781 0.9965773
vn -0.0580569 0.05884781 0.9965773
vn 0.8384569 0.3553363 0.4131901
vn 0.8384569 0.3553363 0.4131901
vn 0.8384569 0.3553363 0.4131901
vn 0.8384569 0.3553363 0.4131901
vn -0.06052195 0.9396269 0.3368061
vn -0.06052195 0.9396269 0.3368061
vn -0.06052195 0.9396269 0.3368061
vn -0.06052195 0.9396269 0.3368061
g Color_10_0
f 3/3/3 2/2/2 1/1/1
f 6/6/6 5/5/5 4/4/4
f 9/9/9 8/8/8 7/7/7
f 12/12/12 11/11/11 10/10/10
f 15/15/15 14/14/14 13/13/13
f 18/18/18 17/17/17 16/16/16
f 21/21/21 20/20/20 19/19/19
f 22/22/22 21/21/21 19/19/19
f 25/25/25 24/24/24 23/23/23
f 26/26/26 25/25/25 23/23/23
f 29/29/29 28/28/28 27/27/27
f 30/30/30 29/29/29 27/27/27
f 33/33/33 32/32/32 31/31/31
f 34/34/34 33/33/33 31/31/31
f 37/37/37 36/36/36 35/35/35
f 38/38/38 37/37/37 35/35/35
f 41/41/41 40/40/40 39/39/39
f 42/42/42 41/41/41 39/39/39
f 45/45/45 44/44/44 43/43/43
f 46/46/46 45/45/45 43/43/43
f 49/49/49 48/48/48 47/47/47
f 50/50/50 49/49/49 47/47/47
f 53/53/53 52/52/52 51/51/51
f 54/54/54 53/53/53 51/51/51
f 57/57/57 56/56/56 55/55/55
f 58/58/58 57/57/57 55/55/55
f 61/61/61 60/60/60 59/59/59
f 62/62/62 61/61/61 59/59/59
f 65/65/65 64/64/64 63/63/63
f 66/66/66 65/65/65 63/63/63
f 69/69/69 68/68/68 67/67/67
f 70/70/70 69/69/69 67/67/67
f 73/73/73 72/72/72 71/71/71
f 74/74/74 73/73/73 71/71/71
f 77/77/77 76/76/76 75/75/75
f 78/78/78 77/77/77 75/75/75
f 81/81/81 80/80/80 79/79/79
f 82/82/82 81/81/81 79/79/79
f 85/85/85 84/84/84 83/83/83
f 86/86/86 85/85/85 83/83/83
f 89/89/89 88/88/88 87/87/87
f 90/90/90 89/89/89 87/87/87
f 93/93/93 92/92/92 91/91/91
f 94/94/94 93/93/93 91/91/91
f 97/97/97 96/96/96 95/95/95
f 98/98/98 97/97/97 95/95/95
f 101/101/101 100/100/100 99/99/99
f 102/102/102 101/101/101 99/99/99
f 105/105/105 104/104/104 103/103/103
f 106/106/106 105/105/105 103/103/103
f 109/109/109 108/108/108 107/107/107
f 110/110/110 109/109/109 107/107/107
f 113/113/113 112/112/112 111/111/111
f 114/114/114 113/113/113 111/111/111
f 117/117/117 116/116/116 115/115/115
f 118/118/118 117/117/117 115/115/115
f 121/121/121 120/120/120 119/119/119
f 122/122/122 121/121/121 119/119/119
f 125/125/125 124/124/124 123/123/123
f 126/126/126 125/125/125 123/123/123
f 129/129/129 128/128/128 127/127/127
f 130/130/130 129/129/129 127/127/127
f 133/133/133 132/132/132 131/131/131
f 134/134/134 133/133/133 131/131/131
f 137/137/137 136/136/136 135/135/135
f 138/138/138 137/137/137 135/135/135
f 141/141/141 140/140/140 139/139/139
f 142/142/142 141/141/141 139/139/139
f 145/145/145 144/144/144 143/143/143
f 146/146/146 145/145/145 143/143/143
f 149/149/149 148/148/148 147/147/147
f 150/150/150 149/149/149 147/147/147
f 153/153/153 152/152/152 151/151/151
f 154/154/154 153/153/153 151/151/151
