g Color_Boss_31
v -0.3890047 0.395203 -1.031006
v -0.9519753 0.9460999 -0.4235108
v -0.9520059 0.3925851 -1.024157
v -0.3889718 0.9523112 -0.4263048
v -0.9519773 0.9460997 0.4234933
v -0.3889751 0.952311 0.4263214
v -0.9520097 0.3925847 1.02414
v -0.3890061 0.3952026 1.031018
v -0.3890061 0.3952026 1.031018
v -0.389008 -0.3951749 1.031019
v -0.9520087 -0.3925841 1.024141
v -0.9520097 0.3925847 1.02414
v -0.3889923 -0.6828334 0.7188548
v -0.9520087 -0.3925841 1.024141
v -0.389008 -0.3951749 1.031019
v -0.9519811 -0.9460984 0.4234945
v -0.3889799 -0.9524001 0.4263228
v -0.3889799 -0.9524001 0.4263228
v -0.9519811 -0.9460992 -0.423495
v -0.9519811 -0.9460984 0.4234945
v -0.3889775 -0.9524006 -0.4262934
v -0.9520087 -0.3925843 -1.024159
v -0.3890047 -0.3951753 -1.031008
v -0.3890047 -0.3951753 -1.031008
v -0.3890047 0.395203 -1.031006
v -0.9520059 0.3925851 -1.024157
v -0.9520087 -0.3925843 -1.024159
v -1.451992 -0.4803796 1.265952
v -1.258893 -0.4656507 1.227103
v -1.319665 -1.159739 0.5243679
v -1.451992 0.4803457 1.265952
v -1.258893 0.465618 1.227139
v -1.319665 1.159739 0.5243682
v 1.825078 0.373289 0.9836395
v -0.335968 0.3664986 0.9658
v -0.335968 0.8846807 0.4000288
v 1.825078 0.9007891 0.4073642
v -0.335968 0.8846809 -0.400012
v 1.825078 0.9007893 -0.4072577
v -0.335968 0.366499 -0.9657877
v 1.825078 0.3732895 -0.9835509
v 1.825078 -0.3731925 0.9836395
v -0.335968 -0.3664722 0.9657996
v -0.335968 0.3664986 0.9658
v 1.825078 0.373289 0.9836395
v 1.825078 -0.9011146 0.407364
v -0.335968 -0.636188 0.6713794
v 1.825078 -0.6408408 0.6914767
v -0.335968 -0.8847716 0.4000286
v 1.825078 -0.9011145 -0.4072581
v -0.335968 -0.8847715 -0.3999996
v 1.825078 -0.373192 -0.9835511
v -0.335968 -0.3664717 -0.9657879
v 1.825078 0.3732895 -0.9835509
v -0.335968 0.366499 -0.9657877
v -0.335968 -0.3664717 -0.9657879
v 1.825078 -0.373192 -0.9835511
v -0.335968 0.3664986 0.9658
v -0.335968 -0.3664722 0.9657996
v -0.389008 -0.3951749 1.031019
v -0.3890061 0.3952026 1.031018
v -0.335968 0.8846807 0.4000288
v -0.3889751 0.952311 0.4263214
v -0.335968 0.8846809 -0.400012
v -0.3889718 0.9523112 -0.4263048
v -0.335968 0.366499 -0.9657877
v -0.3890047 0.395203 -1.031006
v -0.335968 -0.3664717 -0.9657879
v -0.3890047 -0.3951753 -1.031008
v -0.335968 -0.8847715 -0.3999996
v -0.3889775 -0.9524006 -0.4262934
v -0.335968 -0.8847716 0.4000286
v -0.3889799 -0.9524001 0.4263228
v -1.003491 -0.3638815 0.9589212
v -0.9520097 0.3925847 1.02414
v -0.9520087 -0.3925841 1.024141
v -1.003491 0.3638807 0.9589212
v -0.9519773 0.9460997 0.4234933
v -1.003491 0.8784694 0.3972007
v -0.9519753 0.9460999 -0.4235108
v -1.003491 0.8784695 -0.3972182
v -0.9520059 0.3925851 -1.024157
v -1.003491 0.3638811 -0.9589389
v -0.9520087 -0.3925843 -1.024159
v -1.003491 -0.3638811 -0.9589391
v -0.9519811 -0.9460992 -0.423495
v -1.003491 -0.8784698 -0.3972009
v -0.9519811 -0.9460984 0.4234945
v -1.003491 -0.8784699 0.3972005
v -0.3889923 -0.6828334 0.7188548
v -0.335968 -0.8847716 0.4000286
v -0.3889799 -0.9524001 0.4263228
v -0.335968 -0.636188 0.6713794
v -0.335968 -0.3664722 0.9657996
v -0.389008 -0.3951749 1.031019
v -0.9519811 -0.9460984 0.4234945
v -1.003491 -0.8784699 0.3972005
v -1.003491 -0.3638815 0.9589212
v -0.9520087 -0.3925841 1.024141
v -1.782978 0.471674 -0.2132151
v -1.816362 0.5370306 -0.2427667
v -1.794789 0.4686938 0.2242531
v -1.783813 0.1954978 -0.514673
v -1.8168 0.2214881 -0.5831776
v -1.783815 -0.1952577 -0.5146741
v -1.816801 -0.2212501 -0.5831729
v -1.783008 -0.4713757 -0.2131208
v -1.816509 -0.5359997 -0.2423413
v -1.783187 -0.4708029 0.2141588
v -1.816406 -0.5366606 0.2426559
v -1.795466 -0.2049692 0.5401212
v 1.825078 -0.6408408 0.6914767
v -0.335968 -0.636188 0.6713794
v -0.335968 -0.3664722 0.9657996
v 1.825078 -0.3731925 0.9836395
v -1.719487 -0.4803796 1.265952
v -1.319665 -1.159739 0.5243679
v -1.719487 -1.159739 0.5243679
v -1.719487 -1.159739 -0.5243689
v -1.451992 -0.4803796 1.265952
v -1.451992 0.4803457 1.265952
v -1.719487 0.4803457 1.265952
v -1.319665 1.159739 0.5243682
v -1.719487 1.159739 0.5243682
v -1.319665 -1.159739 -0.5243689
v -1.719487 -0.4803792 -1.265952
v -1.319665 1.159739 -0.5243684
v -1.719487 1.159739 -0.5243684
v -1.003491 -0.8784699 0.3972005
v -1.258893 -0.4656507 1.227103
v -1.003491 -0.3638815 0.9589212
v -1.003491 0.3638807 0.9589212
v -1.258893 0.465618 1.227139
v -1.003491 0.8784694 0.3972007
v -1.003491 0.8784695 -0.3972182
v -1.003491 -0.8784698 -0.3972009
v -1.003491 0.3638811 -0.9589389
v -1.319665 0.4803462 -1.265952
v -1.719487 0.4803462 -1.265952
v -1.003491 -0.3638811 -0.9589391
v -1.319665 -0.4803792 -1.265952
v -1.825078 0.1994666 0.5249351
v -1.795466 -0.2049692 0.5401212
v -0.9322581 -1.668076E-05 9.059906E-06
v -1.794789 0.4686938 0.2242531
v -1.783187 -0.4708029 0.2141588
v -1.782978 0.471674 -0.2132151
v -1.783008 -0.4713757 -0.2131208
v -1.783813 0.1954978 -0.514673
v -1.783815 -0.1952577 -0.5146741
v -1.719487 1.159739 0.5243682
v -1.825078 0.1994666 0.5249351
v -1.794789 0.4686938 0.2242531
v -1.719487 0.4803457 1.265952
v -1.719487 1.159739 -0.5243684
v -1.795466 -0.2049692 0.5401212
v -1.816362 0.5370306 -0.2427667
v -1.719487 -0.4803796 1.265952
v -1.719487 0.4803462 -1.265952
v -1.816406 -0.5366606 0.2426559
v -1.8168 0.2214881 -0.5831776
v -1.719487 -1.159739 0.5243679
v -1.719487 -0.4803792 -1.265952
v -1.816509 -0.5359997 -0.2423413
v -1.816801 -0.2212501 -0.5831729
v -1.719487 -1.159739 -0.5243689
vt 0.5255385 0.03531365
vt 0.5273982 0.03665331
vt 0.5254989 0.03660364
vt 0.5274457 0.03536534
vt 0.5292867 0.03670651
vt 0.5293416 0.03542498
vt 0.5311889 0.03677464
vt 0.5312504 0.03550877
vt 0.5312504 0.03550877
vt 0.5332304 0.03557459
vt 0.5330666 0.0369212
vt 0.5311889 0.03677464
vt 0.523949 0.03586655
vt 0.5288972 0.03879216
vt 0.5238178 0.03864179
vt 0.5291496 0.03345212
vt 0.5240719 0.03326584
vt 0.5198346 0.03515452
vt 0.5216871 0.03651394
vt 0.5197379 0.03651105
vt 0.521702 0.03525051
vt 0.5235884 0.03656234
vt 0.5236171 0.03527907
vt 0.5236171 0.03527907
vt 0.5255385 0.03531365
vt 0.5254989 0.03660364
vt 0.5235884 0.03656234
vt 0.6608863 0.03572813
vt 0.6607395 0.03581131
vt 0.6604303 0.03530807
vt 0.6612319 0.03621412
vt 0.6610745 0.03628238
vt 0.6614556 0.03674992
vt 0.661103 0.01208107
vt 0.6611001 0.01207147
vt 0.6613221 0.01176786
vt 0.6613289 0.0117718
vt 0.6613221 0.01133852
vt 0.6613289 0.01133464
vt 0.6611001 0.0110349
vt 0.661103 0.01102537
vt 0.6607832 0.01208107
vt 0.660786 0.01207147
vt 0.6611001 0.01207147
vt 0.661103 0.01208107
vt 0.660557 0.0117718
vt 0.6606705 0.01191349
vt 0.6606685 0.01192426
vt 0.660564 0.01176786
vt 0.660557 0.01133464
vt 0.660564 0.01133852
vt 0.6607832 0.01102537
vt 0.660786 0.0110349
vt 0.661103 0.01102537
vt 0.6611001 0.0110349
vt 0.660786 0.0110349
vt 0.6607832 0.01102537
vt 0.531262 0.03533843
vt 0.5331498 0.0353948
vt 0.5332304 0.03557459
vt 0.5312504 0.03550877
vt 0.5293618 0.03524177
vt 0.5293416 0.03542498
vt 0.5274464 0.03518423
vt 0.5274457 0.03536534
vt 0.5255369 0.0351399
vt 0.5255385 0.03531365
vt 0.5236353 0.03510864
vt 0.5236171 0.03527907
vt 0.521733 0.03506863
vt 0.521702 0.03525051
vt 0.5199236 0.03497204
vt 0.5198346 0.03515452
vt 0.5329633 0.03708595
vt 0.5311889 0.03677464
vt 0.5330666 0.0369212
vt 0.5311728 0.03694448
vt 0.5292867 0.03670651
vt 0.5292835 0.03688522
vt 0.5273982 0.03665331
vt 0.527379 0.03683507
vt 0.5254989 0.03660364
vt 0.525481 0.03677191
vt 0.5235884 0.03656234
vt 0.5235921 0.03673366
vt 0.5216871 0.03651394
vt 0.5217014 0.03669272
vt 0.5197379 0.03651105
vt 0.5198166 0.03669843
vt 0.523949 0.03586655
vt 0.5233484 0.03345417
vt 0.5240719 0.03326584
vt 0.5232409 0.03585967
vt 0.5231242 0.03846966
vt 0.5238178 0.03864179
vt 0.5291496 0.03345212
vt 0.529844 0.03368742
vt 0.5295954 0.03866611
vt 0.5288972 0.03879216
vt 0.6624302 0.0355454
vt 0.6626364 0.03547085
vt 0.6624208 0.03664907
vt 0.661559 0.03478485
vt 0.6616411 0.03461201
vt 0.6603264 0.03478485
vt 0.6602444 0.03461202
vt 0.6594554 0.03554562
vt 0.6592515 0.03547191
vt 0.6594571 0.03662362
vt 0.6592495 0.0366955
vt 0.6602958 0.03744598
vt 0.6609358 0.03503936
vt 0.6613165 0.03696892
vt 0.6609473 0.03701863
vt 0.6605694 0.03508868
vt 0.6607372 0.01223258
vt 0.660446 0.01183463
vt 0.660446 0.01183463
vt 0.660446 0.01127183
vt 0.6607372 0.01223258
vt 0.6611487 0.01223258
vt 0.6611487 0.01223258
vt 0.6614398 0.01183463
vt 0.6614398 0.01183463
vt 0.660446 0.01127183
vt 0.6607372 0.01087386
vt 0.6614398 0.01127183
vt 0.6614398 0.01127183
vt 0.6605666 0.01176638
vt 0.6607434 0.01221173
vt 0.660787 0.01206785
vt 0.6610988 0.01206785
vt 0.6611423 0.01221176
vt 0.6613193 0.01176638
vt 0.6613193 0.01134006
vt 0.6605666 0.01134007
vt 0.6610988 0.01103861
vt 0.6611487 0.01087386
vt 0.6611487 0.01087386
vt 0.660787 0.01103861
vt 0.6607372 0.01087386
vt 0.6843823 0.01304018
vt 0.6838599 0.01301727
vt 0.6842225 0.01288678
vt 0.6847845 0.01297141
vt 0.683571 0.01291959
vt 0.6848752 0.01285588
vt 0.6836604 0.01280688
vt 0.6845843 0.01276194
vt 0.6840803 0.01274164
vt 0.6614398 0.01183463
vt 0.6610284 0.01183493
vt 0.6611555 0.01167356
vt 0.6611487 0.01223258
vt 0.6614398 0.01127183
vt 0.6608551 0.01184306
vt 0.661173 0.01142294
vt 0.6607372 0.01223258
vt 0.6611487 0.01087386
vt 0.660713 0.01168345
vt 0.6610378 0.01124026
vt 0.660446 0.01183463
vt 0.6607372 0.01087386
vt 0.6607133 0.01142316
vt 0.6608481 0.01124026
vt 0.660446 0.01127183
vn -0.01156875 0.7353642 -0.6775735
vn -0.01213097 0.9314892 -0.3635665
vn -0.01156875 0.7353642 -0.6775735
vn -0.01213117 0.9313898 -0.3638213
vn -0.01215151 0.931493 0.3635562
vn -0.01215175 0.9313846 0.363834
vn -0.01160704 0.7353623 0.6775747
vn -0.01160704 0.7353623 0.6775748
vn -0.01221641 0 0.9999254
vn -0.01221641 0 0.9999254
vn -0.01221641 0 0.9999254
vn -0.01221641 0 0.9999254
vn -0.01164937 -0.7353271 0.6776123
vn -0.0116515 -0.735328 0.6776112
vn -0.01166236 -0.7353329 0.6776057
vn -0.0122575 -0.9314771 0.3635935
vn -0.01225767 -0.9313777 0.3638479
vn -0.01225767 -0.9313777 0.3638479
vn -0.01224072 -0.9314765 -0.3635955
vn -0.0122575 -0.9314771 0.3635935
vn -0.01224087 -0.9313853 -0.3638291
vn -0.01161273 -0.7353365 -0.6776026
vn -0.01161273 -0.7353365 -0.6776026
vn -0.01216411 0 -0.9999261
vn -0.01216411 0 -0.9999261
vn -0.01216411 0 -0.9999261
vn -0.01216411 0 -0.9999261
vn 0.09881864 -0.394855 0.9134135
vn 0.4732049 -0.3497435 0.8085521
vn 0.3507001 -0.8724932 0.3402427
vn 0.09879068 0.39485 0.9134188
vn 0.4731763 0.3497171 0.8085803
vn 0.3506969 0.8724918 0.3402497
vn -0.007840756 0.7375153 0.6752848
vn -0.007840756 0.7375153 0.6752849
vn -0.008204449 0.9320852 0.3621462
vn -0.008204563 0.9320077 0.3623455
vn -0.008190531 0.9320839 -0.3621497
vn -0.008190629 0.932013 -0.3623324
vn -0.007814826 0.7375223 -0.6752776
vn -0.007814826 0.7375223 -0.6752776
vn -0.008254827 0 0.9999659
vn -0.008254826 0 0.9999659
vn -0.008254826 0 0.9999659
vn -0.008254827 0 0.9999659
vn -0.008278404 -0.9319639 0.3624565
vn -0.007869161 -0.7373417 0.6754742
vn -0.007869161 -0.7373417 0.6754742
vn -0.008278321 -0.9320346 0.3622745
vn -0.008265456 -0.9319696 -0.3624423
vn -0.008265385 -0.9320347 -0.3622746
vn -0.007845052 -0.7373519 -0.6754633
vn -0.007845052 -0.7373519 -0.6754633
vn -0.008219444 0 -0.9999663
vn -0.008219444 0 -0.9999663
vn -0.008219444 0 -0.9999663
vn -0.008219444 0 -0.9999663
vn 0.8047313 0.2373843 0.5441104
vn 0.8035006 -0.2386498 0.5453742
vn 0.803502 -0.2388667 0.5452771
vn 0.8047339 0.237593 0.5440155
vn 0.8049958 0.552329 0.2165972
vn 0.8049983 0.5523994 0.2164084
vn 0.8050029 0.5523224 -0.2165877
vn 0.8050053 0.5523925 -0.2163998
vn 0.8047453 0.2373785 -0.5440924
vn 0.8047478 0.2375859 -0.5439981
vn 0.8047325 -0.2373594 -0.5441196
vn 0.8047352 -0.2375763 -0.544021
vn 0.8049838 -0.5523371 -0.2166214
vn 0.8049862 -0.5524098 -0.2164267
vn 0.8062763 -0.5509329 0.2153866
vn 0.8062776 -0.5510067 0.2151932
vn -0.8129787 -0.2328385 0.5337152
vn -0.812978 0.2330667 0.5336165
vn -0.8129813 -0.2330584 0.5336152
vn -0.8129754 0.2328406 0.5337193
vn -0.8130673 0.5420633 0.2123418
vn -0.8130647 0.5419866 0.2125471
vn -0.8130596 0.5420713 -0.2123509
vn -0.8130569 0.5419949 -0.2125555
vn -0.8129649 0.2330761 -0.5336325
vn -0.8129622 0.2328498 -0.5337354
vn -0.8129781 -0.2330597 -0.5336195
vn -0.8129755 -0.2328396 -0.5337195
vn -0.8130811 -0.5420436 -0.2123392
vn -0.8130786 -0.5419697 -0.212537
vn -0.8130807 -0.5420424 0.2123435
vn -0.8130782 -0.5419682 0.2125422
vn 0.7815502 -0.4593508 0.4221092
vn 0.8062763 -0.5509329 0.2153866
vn 0.8062776 -0.5510067 0.2151932
vn 0.7816876 -0.4592239 0.4219928
vn 0.8035006 -0.2386498 0.5453742
vn 0.803502 -0.2388667 0.5452771
vn -0.8130807 -0.5420424 0.2123435
vn -0.8130782 -0.5419682 0.2125422
vn -0.8129787 -0.2328385 0.5337152
vn -0.8129813 -0.2330584 0.5336152
vn -0.7776076 -0.5912098 0.214003
vn -0.9970012 -0.06895753 0.03511954
vn -0.9409059 -0.3094428 -0.1376273
vn -0.7967257 -0.244275 0.5527729
vn -0.9973661 -0.0255467 0.06788394
vn -0.7962034 0.2450972 0.5531614
vn -0.9973456 0.0259201 0.06804387
vn -0.7780788 0.5858114 0.2267562
vn -0.9966654 0.07454267 0.03318541
vn -0.7753884 0.5913427 -0.2215548
vn -0.9968283 0.07553553 -0.02505265
vn -0.9570324 0.1050989 -0.270265
vn -0.007869161 -0.7373417 0.6754742
vn -0.007869161 -0.7373417 0.6754742
vn -0.007869192 -0.7373421 0.6754736
vn -0.007869192 -0.7373422 0.6754736
vn 0 -0.4028061 0.9152854
vn 0.3507001 -0.8724932 0.3402427
vn 0 -0.9320315 0.3623774
vn 0 -0.9320312 -0.3623781
vn 0.09881864 -0.394855 0.9134135
vn 0.09879068 0.39485 0.9134188
vn 0 0.4027947 0.9152903
vn 0.3506969 0.8724918 0.3402497
vn 0 0.9320269 0.3623893
vn 0.3495202 -0.8723319 -0.3418663
vn 0 -0.4028056 -0.9152856
vn 0.349514 0.8723313 -0.3418745
vn 0 0.9320269 -0.3623891
vn 0.7030826 -0.6678935 0.2441174
vn 0.4732049 -0.3497435 0.8085521
vn 0.7396684 -0.2863629 0.6090049
vn 0.7396707 0.2863648 0.6090013
vn 0.4731763 0.3497171 0.8085803
vn 0.7030829 0.6678931 0.2441177
vn 0.6978031 0.6705103 -0.2519656
vn 0.6978118 -0.6705085 -0.2519467
vn 0.719616 0.288071 -0.6317974
vn 0.3590582 0.3735359 -0.8553059
vn 0 0.4027947 -0.9152903
vn 0.7196284 -0.2880596 -0.6317885
vn 0.3590637 -0.3735487 -0.8552979
vn -0.951579 -0.1267355 -0.2800633
vn -0.9570324 0.1050989 -0.270265
vn -0.9999945 -0.003284449 0.0004933581
vn -0.9409059 -0.3094428 -0.1376273
vn -0.7753884 0.5913427 -0.2215548
vn -0.7776076 -0.5912098 0.214003
vn -0.7780788 0.5858114 0.2267562
vn -0.7967257 -0.244275 0.5527729
vn -0.7962034 0.2450972 0.5531614
vn -0.991818 0.1190708 0.04603451
vn -0.951579 -0.1267355 -0.2800633
vn -0.9409059 -0.3094428 -0.1376273
vn -0.9943052 0.04167883 0.09808221
vn -0.9919813 0.1189954 -0.04258353
vn -0.9570324 0.1050989 -0.270265
vn -0.9970012 -0.06895753 0.03511954
vn -0.992583 -0.0490357 0.11124
vn -0.9912224 0.05208075 -0.1215141
vn -0.9968283 0.07553553 -0.02505265
vn -0.9973661 -0.0255467 0.06788394
vn -0.991947 -0.1157296 0.05145734
vn -0.9912239 -0.05208275 -0.1215016
vn -0.9966654 0.07454267 0.03318541
vn -0.9973456 0.0259201 0.06804387
vn -0.9900841 -0.1304534 -0.05210976
g Color_Boss_31_0
f 3/3/3 2/2/2 1/1/1
f 2/2/2 4/4/4 1/1/1
f 2/2/2 5/5/5 4/4/4
f 5/5/5 6/6/6 4/4/4
f 5/5/5 7/7/7 6/6/6
f 7/7/7 8/8/8 6/6/6
f 11/11/11 10/10/10 9/9/9
f 12/12/12 11/11/11 9/9/9
f 15/15/15 14/14/14 13/13/13
f 14/14/14 16/16/16 13/13/13
f 16/16/16 17/17/17 13/13/13
f 20/20/20 19/19/19 18/18/18
f 19/19/19 21/21/21 18/18/18
f 19/19/19 22/22/22 21/21/21
f 22/22/22 23/23/23 21/21/21
f 26/26/26 25/25/25 24/24/24
f 27/27/27 26/26/26 24/24/24
f 30/30/30 29/29/29 28/28/28
f 28/28/28 29/29/29 31/31/31
f 29/29/29 32/32/32 31/31/31
f 32/32/32 33/33/33 31/31/31
f 36/36/36 35/35/35 34/34/34
f 37/37/37 36/36/36 34/34/34
f 38/38/38 36/36/36 37/37/37
f 39/39/39 38/38/38 37/37/37
f 40/40/40 38/38/38 39/39/39
f 41/41/41 40/40/40 39/39/39
f 44/44/44 43/43/43 42/42/42
f 45/45/45 44/44/44 42/42/42
f 48/48/48 47/47/47 46/46/46
f 47/47/47 49/49/49 46/46/46
f 46/46/46 49/49/49 50/50/50
f 49/49/49 51/51/51 50/50/50
f 50/50/50 51/51/51 52/52/52
f 51/51/51 53/53/53 52/52/52
f 56/56/56 55/55/55 54/54/54
f 57/57/57 56/56/56 54/54/54
f 60/60/60 59/59/59 58/58/58
f 61/61/61 60/60/60 58/58/58
f 61/61/61 58/58/58 62/62/62
f 63/63/63 61/61/61 62/62/62
f 63/63/63 62/62/62 64/64/64
f 65/65/65 63/63/63 64/64/64
f 65/65/65 64/64/64 66/66/66
f 67/67/67 65/65/65 66/66/66
f 67/67/67 66/66/66 68/68/68
f 69/69/69 67/67/67 68/68/68
f 69/69/69 68/68/68 70/70/70
f 71/71/71 69/69/69 70/70/70
f 71/71/71 70/70/70 72/72/72
f 73/73/73 71/71/71 72/72/72
f 76/76/76 75/75/75 74/74/74
f 75/75/75 77/77/77 74/74/74
f 75/75/75 78/78/78 77/77/77
f 78/78/78 79/79/79 77/77/77
f 78/78/78 80/80/80 79/79/79
f 80/80/80 81/81/81 79/79/79
f 80/80/80 82/82/82 81/81/81
f 82/82/82 83/83/83 81/81/81
f 82/82/82 84/84/84 83/83/83
f 84/84/84 85/85/85 83/83/83
f 84/84/84 86/86/86 85/85/85
f 86/86/86 87/87/87 85/85/85
f 86/86/86 88/88/88 87/87/87
f 88/88/88 89/89/89 87/87/87
f 92/92/92 91/91/91 90/90/90
f 91/91/91 93/93/93 90/90/90
f 90/90/90 93/93/93 94/94/94
f 95/95/95 90/90/90 94/94/94
f 98/98/98 97/97/97 96/96/96
f 99/99/99 98/98/98 96/96/96
f 102/102/102 101/101/101 100/100/100
f 100/100/100 101/101/101 103/103/103
f 101/101/101 104/104/104 103/103/103
f 105/105/105 103/103/103 104/104/104
f 106/106/106 105/105/105 104/104/104
f 105/105/105 106/106/106 107/107/107
f 106/106/106 108/108/108 107/107/107
f 107/107/107 108/108/108 109/109/109
f 108/108/108 110/110/110 109/109/109
f 109/109/109 110/110/110 111/111/111
f 114/114/114 113/113/113 112/112/112
f 115/115/115 114/114/114 112/112/112
f 118/118/118 117/117/117 116/116/116
f 117/117/117 118/118/118 119/119/119
f 117/117/117 120/120/120 116/116/116
f 120/120/120 121/121/121 116/116/116
f 121/121/121 122/122/122 116/116/116
f 121/121/121 123/123/123 122/122/122
f 123/123/123 124/124/124 122/122/122
f 125/125/125 117/117/117 119/119/119
f 125/125/125 119/119/119 126/126/126
f 123/123/123 127/127/127 124/124/124
f 127/127/127 128/128/128 124/124/124
f 129/129/129 117/117/117 125/125/125
f 130/130/130 117/117/117 129/129/129
f 131/131/131 130/130/130 129/129/129
f 131/131/131 132/132/132 130/130/130
f 132/132/132 133/133/133 130/130/130
f 133/133/133 132/132/132 123/123/123
f 132/132/132 134/134/134 123/123/123
f 134/134/134 135/135/135 123/123/123
f 135/135/135 127/127/127 123/123/123
f 136/136/136 129/129/129 125/125/125
f 135/135/135 137/137/137 127/127/127
f 127/127/127 138/138/138 128/128/128
f 137/137/137 138/138/138 127/127/127
f 138/138/138 139/139/139 128/128/128
f 137/137/137 140/140/140 138/138/138
f 136/136/136 125/125/125 141/141/141
f 140/140/140 136/136/136 141/141/141
f 140/140/140 141/141/141 138/138/138
f 138/138/138 141/141/141 139/139/139
f 141/141/141 125/125/125 126/126/126
f 141/141/141 126/126/126 139/139/139
f 144/144/144 143/143/143 142/142/142
f 144/144/144 142/142/142 145/145/145
f 144/144/144 146/146/146 143/143/143
f 144/144/144 145/145/145 147/147/147
f 144/144/144 148/148/148 146/146/146
f 144/144/144 147/147/147 149/149/149
f 144/144/144 150/150/150 148/148/148
f 144/144/144 149/149/149 150/150/150
f 153/153/153 152/152/152 151/151/151
f 152/152/152 154/154/154 151/151/151
f 153/153/153 151/151/151 155/155/155
f 152/152/152 156/156/156 154/154/154
f 157/157/157 153/153/153 155/155/155
f 156/156/156 158/158/158 154/154/154
f 157/157/157 155/155/155 159/159/159
f 156/156/156 160/160/160 158/158/158
f 161/161/161 157/157/157 159/159/159
f 160/160/160 162/162/162 158/158/158
f 161/161/161 159/159/159 163/163/163
f 160/160/160 164/164/164 162/162/162
f 165/165/165 161/161/161 163/163/163
f 164/164/164 166/166/166 162/162/162
f 165/165/165 163/163/163 166/166/166
f 164/164/164 165/165/165 166/166/166
