g Color_05
v -0.481149 -3.8894E-06 28.28454
v -0.1792976 -4.845339E-06 33.60095
v -0.08964545 -0.1552868 33.60095
v -0.2405722 -0.4166953 28.28454
v 0.08965876 -0.1552868 33.6111
v 0.2405817 -0.4166954 28.31177
v 0.1793108 -4.859894E-06 33.6111
v 0.4811586 -3.928457E-06 28.31177
v 0.4811586 -3.928457E-06 28.31177
v 0.1793108 -4.859894E-06 33.6111
v 0.08965874 0.1552771 33.60095
v 0.2405817 0.4166875 28.28454
v -0.08964542 0.1552771 33.60095
v -0.240572 0.4166875 28.28454
v -0.1792976 -4.845339E-06 33.60095
v -0.481149 -3.8894E-06 28.28454
vt 0.4882476 0.9747712
vt 0.4883292 0.9761523
vt 0.4883535 0.9761523
vt 0.4883126 0.9747712
vt 0.4884019 0.9761549
vt 0.4884427 0.9747783
vt 0.4884261 0.9761549
vt 0.4885078 0.9747783
vt 0.4885078 0.9747783
vt 0.4884261 0.9761549
vt 0.4884019 0.9761523
vt 0.4884427 0.9747712
vt 0.4883535 0.9761523
vt 0.4883126 0.9747712
vt 0.4883292 0.9761523
vt 0.4882476 0.9747712
vn -0.998392 0 0.05668601
vn -0.998392 0 0.05668601
vn -0.4917518 -0.8688884 0.0566836
vn -0.5096422 -0.8585174 0.05668154
vn 0.5069639 -0.8600895 0.05686519
vn 0.4889489 -0.8704571 0.05686354
vn 0.9983413 -0.008998821 0.05686516
vn 0.9983124 0.0117863 0.05686352
vn 0.9983124 0.0117863 0.05686352
vn 0.9983413 -0.008998821 0.05686516
vn 0.5066037 0.8603137 0.05668355
vn 0.4886769 0.8706217 0.05668149
vn -0.4991959 0.864633 0.056686
vn -0.499196 0.8646329 0.05668599
vn -0.998392 0 0.05668601
vn -0.998392 0 0.05668601
g Color_05_0
f 3/3/3 2/2/2 1/1/1
f 4/4/4 3/3/3 1/1/1
f 5/5/5 3/3/3 4/4/4
f 6/6/6 5/5/5 4/4/4
f 7/7/7 5/5/5 6/6/6
f 8/8/8 7/7/7 6/6/6
f 11/11/11 10/10/10 9/9/9
f 12/12/12 11/11/11 9/9/9
f 13/13/13 11/11/11 12/12/12
f 14/14/14 13/13/13 12/12/12
f 15/15/15 13/13/13 14/14/14
f 16/16/16 15/15/15 14/14/14
