g Color_Cloth_01
v 8.179293E-06 15.64522 6.861511
v 8.209095E-06 18.04905 7.491001
v 8.179292E-06 15.64522 7.491002
v 8.179291E-06 13.64847 6.338625
v 8.179291E-06 13.64847 7.491001
v 8.179291E-06 11.65172 6.338623
v 8.179291E-06 11.65172 7.491001
v 8.149489E-06 9.654976 7.491001
v 8.149489E-06 9.654976 6.338624
v 8.14949E-06 7.658227 7.490999
v 8.149489E-06 7.658226 6.338622
v 8.149489E-06 5.661479 7.491
v 8.149489E-06 5.661479 6.338623
v 8.149491E-06 5.661481 5.186247
v 8.149489E-06 7.658228 5.186247
v 8.149489E-06 9.654976 5.186246
v 8.179293E-06 11.65172 5.186246
v 8.179292E-06 13.64847 5.186245
v 8.179293E-06 15.64522 5.186245
v 8.179293E-06 15.64522 5.815738
v 8.209096E-06 18.04905 5.186245
v -8.042158 4.903047 3.871523
v -6.043771 3.514187 3.58981
v -7.898314 2.977638 1.318517
v -5.887656 1.620979 1.291592
v -5.886834 1.619727 1.290607
v -7.794848 1.624747 -1.393999
v -3.319273 2.520544 3.516486
v -5.78953 0.2306857 -1.245375
v -5.752491 -0.4776624 -4.086162
v -7.733362 0.9992376 -4.369805
v -5.76394 -0.3371106 -7.219218
v -7.697299 1.251966 -7.616097
v -5.802216 0.7479536 -10.51692
v -7.655877 2.473405 -11.01182
v -5.841517 2.751491 -13.74856
v -7.595715 4.663536 -14.32325
v -3.278116 1.229221 -13.41381
v -3.204575 -0.6082147 -10.20059
v 0.0005951375 0.6363049 -13.30973
v -3.149903 -1.549909 -6.94224
v 0.0005947649 -1.124416 -10.09221
v 3.279305 1.229228 -13.41381
v -3.125895 -1.565287 -3.863933
v 0.0005954951 -1.991677 -6.841495
v 3.205762 -0.6082098 -10.20059
v -3.142842 -0.7698587 -1.091623
v 5.803406 0.747965 -10.51692
v 5.842702 2.751504 -13.74856
v 0.0005960613 -1.931968 -3.778053
v 3.151093 -1.549902 -6.94224
v -3.206958 0.650882 1.353043
v 7.657062 2.473419 -11.01182
v 7.596903 4.66355 -14.32324
v 7.69849 1.251986 -7.616095
v 0.0005951077 -1.074523 -1.023932
v 0.0005940497 0.3569438 1.398896
v 0.0005942136 2.299048 3.535861
v 3.127084 -1.565279 -3.863935
v 5.765128 -0.3370994 -7.219217
v 5.753682 -0.4776509 -4.086157
v 7.73455 0.9992557 -4.369807
v 3.144027 -0.7698539 -1.091622
v 3.208145 0.6508875 1.353042
v 3.320459 2.52055 3.516488
v 5.790718 0.2306978 -1.245374
v 7.796035 1.624767 -1.393994
v 5.88802 1.619738 1.290609
v 6.044959 3.514198 3.58981
v 7.899501 2.977655 1.31852
v 8.043346 4.903068 3.871523
v 3.089873 -0.2331992 0.2531562
v 5.671435 0.2324451 0.2067032
v 5.577697 -0.9717805 -1.769397
v 3.028108 -1.456067 -1.65396
v -2.454906E-07 -0.3587306 0.2863059
v 5.542018 -1.489701 -3.981265
v 1.647558E-06 -1.592129 -1.605242
v -3.089872 -0.2331963 0.2531567
v 3.011786 -2.044035 -3.807025
v 5.553047 -1.393513 -6.451427
v -3.028107 -1.456064 -1.653963
v -5.671432 0.2324497 0.2067032
v -5.5777 -0.971774 -1.769396
v 5.115681E-07 -2.224442 -3.742073
v 3.034916 -2.060906 -6.219652
v 5.589921 -0.5193108 -9.091077
v 3.087577 -1.33644 -8.805827
v -3.011788 -2.044032 -3.807025
v -5.542021 -1.489696 -3.981266
v 6.388363E-07 -2.299573 -6.13724
v 1.184548E-06 -1.641513 -8.708087
v -3.034914 -2.060905 -6.219652
v -5.553051 -1.393506 -6.451427
v -3.087581 -1.336437 -8.805827
v -5.589918 -0.5193039 -9.091079
vt 0.1167949 0.3014202
vt 0.0406969 0.3657644
vt 0.1167949 0.3657646
vt 0.180006 0.2479728
vt 0.180006 0.3657646
vt 0.243217 0.247973
vt 0.243217 0.3657647
vt 0.306428 0.3657647
vt 0.306428 0.2479728
vt 0.369639 0.3657646
vt 0.3696391 0.2479727
vt 0.4328501 0.3657647
vt 0.4328501 0.2479727
vt 0.4328501 0.1301811
vt 0.3696391 0.1301811
vt 0.306428 0.1301811
vt 0.243217 0.1301812
vt 0.1800059 0.1301808
vt 0.1167949 0.1301806
vt 0.1167949 0.1945249
vt 0.0406969 0.1301806
vt 0.009999969 0.99
vt 0.1730697 0.99
vt 0.009999969 0.9096223
vt 0.1730075 0.9096529
vt 0.1730697 0.9096223
vt 0.009999969 0.8292446
vt 0.3361395 0.99
vt 0.1730697 0.8292446
vt 0.1730697 0.748867
vt 0.009999969 0.748867
vt 0.1730697 0.6684895
vt 0.009999969 0.6684895
vt 0.1730697 0.5881118
vt 0.009999969 0.5881118
vt 0.1730697 0.5077343
vt 0.009999969 0.5077343
vt 0.3361395 0.5077343
vt 0.3361395 0.5881118
vt 0.4999172 0.5077343
vt 0.3361395 0.6684895
vt 0.4999172 0.5881118
vt 0.6622896 0.5077343
vt 0.3361395 0.748867
vt 0.4999172 0.6684895
vt 0.6622896 0.5881118
vt 0.3361395 0.8292446
vt 0.8253592 0.5881118
vt 0.8253592 0.5077343
vt 0.4999172 0.748867
vt 0.6622896 0.6684895
vt 0.3361395 0.9096223
vt 0.988429 0.5881118
vt 0.988429 0.5077343
vt 0.988429 0.6684895
vt 0.4999172 0.8292446
vt 0.4999172 0.9096223
vt 0.4999172 0.99
vt 0.6622896 0.748867
vt 0.8253592 0.6684895
vt 0.8253592 0.748867
vt 0.988429 0.748867
vt 0.6622896 0.8292446
vt 0.6622896 0.9096223
vt 0.6622896 0.99
vt 0.8253592 0.8292446
vt 0.988429 0.8292446
vt 0.8253592 0.9096223
vt 0.8253592 0.99
vt 0.988429 0.9096223
vt 0.988429 0.99
vt 0.8792617 0.4946053
vt 0.9931784 0.4946053
vt 0.9931784 0.3721054
vt 0.8792617 0.3721054
vt 0.7559564 0.4946053
vt 0.9931784 0.2489207
vt 0.7559564 0.3721054
vt 0.6206748 0.4946053
vt 0.8792617 0.2489207
vt 0.9931784 0.1242762
vt 0.6206748 0.3721054
vt 0.5031782 0.4946053
vt 0.5031782 0.3721054
vt 0.7559564 0.2489207
vt 0.8792617 0.1242762
vt 0.9931784 0.004605315
vt 0.8792617 0.004605315
vt 0.6206748 0.2489207
vt 0.5031782 0.2489207
vt 0.7559564 0.1242762
vt 0.7559564 0.004605315
vt 0.6206748 0.1242762
vt 0.5031782 0.1242762
vt 0.6206748 0.004605315
vt 0.5031782 0.004605315
vn -1 0 0
vn -1 0 0
vn -1 0 0
vn -1 0 0
vn -1 0 0
vn -1 0 0
vn -1 0 0
vn -1 0 0
vn -1 0 0
vn -1 0 0
vn -1 0 0
vn -1 0 0
vn -1 0 0
vn -1 0 0
vn -1 0 0
vn -1 0 0
vn -1 0 0
vn -1 0 0
vn -1 0 0
vn -1 0 0
vn -1 0 0
vn -0.4337453 -0.7309647 0.5268355
vn -0.3766767 -0.7354633 0.5632126
vn -0.4796899 -0.7397921 0.4718105
vn -0.4699957 -0.7070665 0.5283567
vn -0.4017351 -0.7701142 0.4955131
vn -0.5614055 -0.7766658 0.2856817
vn -0.1792834 -0.749756 0.6369643
vn -0.460113 -0.8294882 0.3166152
vn -0.4947185 -0.8646919 0.08695649
vn -0.6033288 -0.7955036 0.05628795
vn -0.5022846 -0.8522678 -0.1461152
vn -0.6054354 -0.7769447 -0.1726411
vn -0.4892393 -0.7951318 -0.3583436
vn -0.5821239 -0.7165962 -0.3842157
vn -0.5138381 -0.7230589 -0.4616886
vn -0.5836831 -0.672336 -0.4552782
vn -0.2816094 -0.8312362 -0.4793147
vn -0.2620404 -0.8924368 -0.3672756
vn 0 -0.8733323 -0.487125
vn -0.2676989 -0.9541159 -0.1341643
vn 0 -0.9277354 -0.3732383
vn 0.2816112 -0.8312355 -0.4793149
vn -0.2533926 -0.9585058 0.130609
vn 0 -0.9919764 -0.1264229
vn 0.262042 -0.8924364 -0.3672755
vn -0.2253328 -0.899608 0.3740728
vn 0.4892412 -0.7951307 -0.3583436
vn 0.5138391 -0.723058 -0.4616887
vn 0 -0.9887826 0.1493617
vn 0.2677007 -0.9541155 -0.1341642
vn -0.1916399 -0.8037615 0.563242
vn 0.5821255 -0.7165949 -0.3842156
vn 0.5836831 -0.6723364 -0.4552777
vn 0.6054374 -0.7769433 -0.1726406
vn 0 -0.9178071 0.3970267
vn 0 -0.8115982 0.5842162
vn 0 -0.7491956 0.6623487
vn 0.2533943 -0.9585055 0.1306087
vn 0.5022863 -0.852267 -0.146115
vn 0.4947203 -0.864691 0.08695669
vn 0.6033309 -0.7955021 0.05628776
vn 0.2253342 -0.8996077 0.3740727
vn 0.1916413 -0.8037614 0.5632417
vn 0.1792847 -0.749756 0.6369639
vn 0.4601147 -0.8294873 0.3166151
vn 0.5614074 -0.7766645 0.2856816
vn 0.4005287 -0.7684434 0.4990706
vn 0.37668 -0.7354643 0.5632091
vn 0.4796915 -0.7397904 0.4718115
vn 0.4337477 -0.7309633 0.5268354
vn 0.1105406 -0.8406627 0.5301576
vn 0.1715482 -0.8384922 0.517206
vn 0.1911196 -0.9020879 0.3869248
vn 0.1201094 -0.9099744 0.3968883
vn 0 -0.8400608 0.5424923
vn 0.2229888 -0.9686403 0.1095991
vn 0 -0.9111164 0.4121492
vn -0.1105414 -0.8406628 0.5301571
vn 0.141835 -0.9810742 0.1318194
vn 0.2425725 -0.9568508 -0.1599842
vn -0.1201102 -0.9099744 0.396888
vn -0.1715487 -0.8384924 0.5172055
vn -0.1911203 -0.9020877 0.3869247
vn 0 -0.9888868 0.1486701
vn 0.1572465 -0.9788381 -0.1309561
vn 0.2456346 -0.9281271 -0.2797211
vn 0.1696878 -0.9476373 -0.2705354
vn -0.141836 -0.9810739 0.1318196
vn -0.2229898 -0.9686401 0.1095992
vn 0 -0.9930909 -0.1173484
vn 0 -0.9660922 -0.2581974
vn -0.1572474 -0.978838 -0.130956
vn -0.2425739 -0.9568505 -0.1599842
vn -0.1696891 -0.947637 -0.2705357
vn -0.2456362 -0.9281265 -0.2797213
g Color_Cloth_01_0
f 3/3/3 2/2/2 1/1/1
f 1/1/1 4/4/4 3/3/3
f 4/4/4 5/5/5 3/3/3
f 4/4/4 6/6/6 5/5/5
f 6/6/6 7/7/7 5/5/5
f 7/7/7 6/6/6 8/8/8
f 6/6/6 9/9/9 8/8/8
f 8/8/8 9/9/9 10/10/10
f 9/9/9 11/11/11 10/10/10
f 10/10/10 11/11/11 12/12/12
f 11/11/11 13/13/13 12/12/12
f 13/13/13 11/11/11 14/14/14
f 11/11/11 15/15/15 14/14/14
f 11/11/11 9/9/9 15/15/15
f 9/9/9 16/16/16 15/15/15
f 9/9/9 6/6/6 16/16/16
f 6/6/6 17/17/17 16/16/16
f 17/17/17 6/6/6 18/18/18
f 6/6/6 4/4/4 18/18/18
f 18/18/18 4/4/4 19/19/19
f 4/4/4 20/20/20 19/19/19
f 19/19/19 20/20/20 21/21/21
f 24/24/24 23/23/23 22/22/22
f 23/23/23 24/24/24 25/25/25
f 26/26/26 25/25/25 24/24/24
f 26/26/26 23/23/23 25/25/25
f 27/27/27 26/26/26 24/24/24
f 26/26/26 28/28/28 23/23/23
f 29/29/29 26/26/26 27/27/27
f 30/30/30 29/29/29 27/27/27
f 31/31/31 30/30/30 27/27/27
f 32/32/32 30/30/30 31/31/31
f 33/33/33 32/32/32 31/31/31
f 34/34/34 32/32/32 33/33/33
f 35/35/35 34/34/34 33/33/33
f 36/36/36 34/34/34 35/35/35
f 37/37/37 36/36/36 35/35/35
f 36/36/36 38/38/38 34/34/34
f 38/38/38 39/39/39 34/34/34
f 34/34/34 39/39/39 32/32/32
f 38/38/38 40/40/40 39/39/39
f 32/32/32 41/41/41 30/30/30
f 39/39/39 41/41/41 32/32/32
f 40/40/40 42/42/42 39/39/39
f 39/39/39 42/42/42 41/41/41
f 40/40/40 43/43/43 42/42/42
f 30/30/30 44/44/44 29/29/29
f 41/41/41 44/44/44 30/30/30
f 42/42/42 45/45/45 41/41/41
f 41/41/41 45/45/45 44/44/44
f 43/43/43 46/46/46 42/42/42
f 42/42/42 46/46/46 45/45/45
f 44/44/44 47/47/47 29/29/29
f 29/29/29 47/47/47 26/26/26
f 43/43/43 48/48/48 46/46/46
f 49/49/49 48/48/48 43/43/43
f 45/45/45 50/50/50 44/44/44
f 44/44/44 50/50/50 47/47/47
f 46/46/46 51/51/51 45/45/45
f 46/46/46 48/48/48 51/51/51
f 45/45/45 51/51/51 50/50/50
f 47/47/47 52/52/52 26/26/26
f 52/52/52 28/28/28 26/26/26
f 49/49/49 53/53/53 48/48/48
f 54/54/54 53/53/53 49/49/49
f 53/53/53 55/55/55 48/48/48
f 50/50/50 56/56/56 47/47/47
f 47/47/47 56/56/56 52/52/52
f 52/52/52 57/57/57 28/28/28
f 56/56/56 57/57/57 52/52/52
f 57/57/57 58/58/58 28/28/28
f 51/51/51 59/59/59 50/50/50
f 50/50/50 59/59/59 56/56/56
f 48/48/48 60/60/60 51/51/51
f 48/48/48 55/55/55 60/60/60
f 51/51/51 60/60/60 59/59/59
f 60/60/60 55/55/55 61/61/61
f 60/60/60 61/61/61 59/59/59
f 55/55/55 62/62/62 61/61/61
f 59/59/59 63/63/63 56/56/56
f 56/56/56 63/63/63 57/57/57
f 59/59/59 61/61/61 63/63/63
f 57/57/57 64/64/64 58/58/58
f 63/63/63 64/64/64 57/57/57
f 64/64/64 65/65/65 58/58/58
f 61/61/61 62/62/62 66/66/66
f 61/61/61 66/66/66 63/63/63
f 63/63/63 66/66/66 64/64/64
f 62/62/62 67/67/67 66/66/66
f 64/64/64 68/68/68 65/65/65
f 66/66/66 68/68/68 64/64/64
f 66/66/66 67/67/67 68/68/68
f 68/68/68 69/69/69 65/65/65
f 67/67/67 70/70/70 68/68/68
f 68/68/68 70/70/70 69/69/69
f 70/70/70 71/71/71 69/69/69
f 74/74/74 73/73/73 72/72/72
f 75/75/75 74/74/74 72/72/72
f 75/75/75 72/72/72 76/76/76
f 77/77/77 74/74/74 75/75/75
f 78/78/78 75/75/75 76/76/76
f 78/78/78 76/76/76 79/79/79
f 80/80/80 77/77/77 75/75/75
f 80/80/80 75/75/75 78/78/78
f 81/81/81 77/77/77 80/80/80
f 82/82/82 78/78/78 79/79/79
f 82/82/82 79/79/79 83/83/83
f 84/84/84 82/82/82 83/83/83
f 85/85/85 80/80/80 78/78/78
f 85/85/85 78/78/78 82/82/82
f 86/86/86 81/81/81 80/80/80
f 86/86/86 80/80/80 85/85/85
f 87/87/87 81/81/81 86/86/86
f 88/88/88 87/87/87 86/86/86
f 89/89/89 82/82/82 84/84/84
f 89/89/89 85/85/85 82/82/82
f 90/90/90 89/89/89 84/84/84
f 91/91/91 86/86/86 85/85/85
f 88/88/88 86/86/86 91/91/91
f 91/91/91 85/85/85 89/89/89
f 92/92/92 88/88/88 91/91/91
f 93/93/93 89/89/89 90/90/90
f 93/93/93 91/91/91 89/89/89
f 92/92/92 91/91/91 93/93/93
f 94/94/94 93/93/93 90/90/90
f 95/95/95 92/92/92 93/93/93
f 95/95/95 93/93/93 94/94/94
f 96/96/96 95/95/95 94/94/94
