g Color_04
v -2.306729 -8.582048 8.228067
v -2.306729 -4.164021 8.228068
v -2.017322 -8.457356 8.683544
v 2.30668 -8.582048 8.228065
v 1.106781 -8.167839 9.550257
v 2.30668 -4.164022 8.228066
v -0.03390838 -4.164022 10.41353
v -0.03390869 -7.936736 10.47124
v -0.390958 -7.947647 10.37269
v -0.390958 -4.164022 10.31498
v -2.306729 -8.582048 8.228067
v -2.017322 -8.457356 8.683544
v 2.30668 -8.582048 8.228065
v 1.106781 -8.167839 9.550257
v -0.390958 -7.947647 10.37269
v -0.03390869 -7.936736 10.47124
v -0.390958 -7.947647 10.37269
v -2.017322 -8.457356 8.683544
v -2.306729 -4.164021 8.228068
v -0.390958 -4.164022 10.31498
v -0.03390838 -4.164022 10.41353
v 1.106781 -8.167839 9.550257
v -0.03390869 -7.936736 10.47124
v 2.30668 -4.164022 8.228066
v -2.306729 -8.582048 8.228067
v -2.20029 -8.480118 7.967293
v -2.20029 -4.265952 7.967294
v -2.306729 -4.164021 8.228068
v 2.30668 -8.582048 8.228065
v 2.200242 -8.480118 7.967292
v -2.20029 -8.480118 7.967293
v -2.306729 -8.582048 8.228067
v 2.30668 -4.164022 8.228066
v 2.200242 -4.265952 7.967292
v 2.200242 -8.480118 7.967292
v 2.30668 -8.582048 8.228065
vt 0.456183 0.9853203
vt 0.456183 0.9853203
vt 0.4563725 0.9854598
vt 0.4570443 0.9850464
vt 0.4562583 0.9854515
vt 0.4570443 0.9850464
vt 0.4634999 0.951544
vt 0.4634999 0.9515488
vt 0.4634365 0.9515405
vt 0.4634365 0.9515358
vt 0.4785811 0.9824473
vt 0.4787533 0.982574
vt 0.4813262 0.9824473
vt 0.4806122 0.9828151
vt 0.479721 0.9830439
vt 0.4799335 0.9830714
vt 0.4569052 0.9857184
vt 0.4558398 0.9852011
vt 0.4556503 0.9850616
vt 0.4569052 0.9857008
vt 0.4555111 0.9857159
vt 0.4562583 0.9854515
vt 0.4555111 0.9857335
vt 0.4570443 0.9850553
vt 0.4310459 0.9654766
vt 0.4310648 0.965455
vt 0.4310648 0.965455
vt 0.4310459 0.9654766
vt 0.4324279 0.9655021
vt 0.4323646 0.9654295
vt 0.4297461 0.9654295
vt 0.4296828 0.9655021
vt 0.4310648 0.9654766
vt 0.4310459 0.965455
vt 0.4310459 0.965455
vt 0.4310648 0.9654766
vn -0.8440318 0 0.5362933
vn -0.7403621 0.0158646 0.6720209
vn -0.7941345 0.008113214 0.6076879
vn 0.7405232 0 0.6720309
vn 0.691261 0.01270324 0.7224934
vn 0.6981788 0.02701624 0.7154135
vn -0.2662421 0.01472015 0.9637938
vn -0.2662421 0.01472015 0.9637938
vn -0.2662421 0.01472015 0.9637938
vn -0.2662421 0.01472015 0.9637938
vn 0 -0.9645101 0.2640456
vn 0.002003656 -0.9626843 0.2706193
vn 0.003830219 -0.9546497 0.2977066
vn 0.005480035 -0.9562606 0.2924646
vn 0.007713969 -0.9623506 0.2717018
vn 0.007713969 -0.9623506 0.2717017
vn -0.730387 0.01721295 0.6828167
vn -0.7941345 0.008113214 0.6076879
vn -0.7403621 0.0158646 0.6720209
vn -0.730387 0.01721295 0.6828167
vn 0.670651 0.03127497 0.7411134
vn 0.691261 0.01270324 0.7224934
vn 0.6296063 0.01188172 0.7768235
vn 0.6981788 0.02701624 0.7154135
vn -0.9258474 0 -0.3778976
vn -0.9258474 0 -0.3778977
vn -0.9258474 0 -0.3778976
vn -0.9258474 0 -0.3778976
vn 0 -0.9313777 -0.3640544
vn 0 -0.9313777 -0.3640544
vn 0 -0.9313777 -0.3640545
vn 0 -0.9313777 -0.3640544
vn 0.925848 0 -0.3778961
vn 0.925848 0 -0.3778961
vn 0.925848 0 -0.3778961
vn 0.925848 0 -0.3778961
g Color_04_0
f 3/3/3 2/2/2 1/1/1
f 6/6/6 5/5/5 4/4/4
f 9/9/9 8/8/8 7/7/7
f 10/10/10 9/9/9 7/7/7
f 13/13/13 12/12/12 11/11/11
f 14/14/14 12/12/12 13/13/13
f 15/15/15 12/12/12 14/14/14
f 16/16/16 15/15/15 14/14/14
f 19/19/19 18/18/18 17/17/17
f 20/20/20 19/19/19 17/17/17
f 23/23/23 22/22/22 21/21/21
f 21/21/21 22/22/22 24/24/24
f 27/27/27 26/26/26 25/25/25
f 28/28/28 27/27/27 25/25/25
f 31/31/31 30/30/30 29/29/29
f 32/32/32 31/31/31 29/29/29
f 35/35/35 34/34/34 33/33/33
f 36/36/36 35/35/35 33/33/33
