g Color_Cloth_01
v 9.329902E-06 8.306081 5.061598
v 9.345202E-06 9.539982 5.384721
v 9.329902E-06 8.306081 5.38472
v 9.329903E-06 7.281134 4.793196
v 9.329903E-06 7.281134 5.38472
v 9.329903E-06 6.256188 4.793197
v 9.329903E-06 6.256187 5.384721
v 9.314605E-06 5.231242 5.38472
v 9.314605E-06 5.231242 4.793196
v 9.314605E-06 4.206296 5.38472
v 9.314605E-06 4.206295 4.793196
v 9.314605E-06 3.18135 5.38472
v 9.314605E-06 3.18135 4.793195
v 9.314606E-06 3.181351 4.201673
v 9.314605E-06 4.206297 4.201673
v 9.314605E-06 5.231242 4.201672
v 9.329903E-06 6.256188 4.201673
v 9.329903E-06 7.281135 4.201672
v 9.329902E-06 8.306082 4.201672
v 9.329903E-06 8.306082 4.524794
v 9.345201E-06 9.539985 4.201672
v -7.943013 2.445963 4.292211
v -5.969721 1.669496 4.077267
v -7.800973 1.45544 2.767841
v -5.815567 0.687113 2.698672
v -5.814755 0.6864422 2.698065
v -7.698804 0.7959436 1.175754
v -3.279443 1.108888 3.996208
v -5.718674 -0.0005695224 1.204659
v -5.682101 -0.2894326 -0.4345661
v -7.638093 0.5594246 -0.5367535
v -5.693405 -0.08525127 -2.205821
v -7.602484 0.8317232 -2.36777
v -5.731201 0.6611288 -4.032923
v -7.561579 1.659339 -4.245048
v -5.770007 1.925775 -5.786077
v -7.502175 3.032976 -6.036032
v -3.238803 1.049156 -5.656706
v -3.166185 -0.1205568 -3.907401
v -0.001271456 0.7087631 -5.621237
v -3.1122 -0.7840644 -2.096922
v -0.00127171 -0.4176142 -3.866448
v 3.23626 1.04916 -5.656706
v -3.088494 -0.915081 -0.3517452
v -0.001270995 -1.038606 -2.057337
v 3.163641 -0.1205548 -3.907401
v -3.105227 -0.5741123 1.252106
v 5.728659 0.6611342 -4.032922
v 5.767463 1.925781 -5.786073
v -0.001270398 -1.126448 -0.3176075
v 3.109658 -0.7840613 -2.096922
v -3.168538 0.1345045 2.694983
v 7.559033 1.659346 -4.245045
v 7.499632 3.032983 -6.03603
v 7.599942 0.8317329 -2.367768
v -0.001271486 -0.7495849 1.278391
v -0.001272634 -0.03401771 2.709311
v -0.001272619 0.9825026 3.998395
v 3.085951 -0.9150773 -0.3517453
v 5.690862 -0.08524579 -2.20582
v 5.679559 -0.2894273 -0.4345629
v 7.63555 0.5594341 -0.5367536
v 3.102682 -0.5741104 1.252107
v 3.165993 0.1345069 2.694983
v 3.276896 1.108891 3.996209
v 5.716131 -0.0005633235 1.20466
v 7.696263 0.7959538 1.175757
v 5.812213 0.6864475 2.698066
v 5.967177 1.669502 4.077267
v 7.798429 1.455449 2.767844
v 7.940464 2.445974 4.292212
v 2.315094 0.2709112 3.274286
v 4.249334 0.6448945 3.263253
v 4.179101 -0.3409413 1.610366
v 2.268816 -0.7336469 1.675376
v -3.121371E-07 0.1689382 3.293713
v 4.152368 -0.7981504 -0.1944577
v 1.117293E-06 -0.8448896 1.706632
v -2.315093 0.2709143 3.274287
v 2.256585 -1.25001 -0.08646013
v 4.160632 -0.584276 -2.159291
v -2.268815 -0.733645 1.675374
v -4.249332 0.6448981 3.263253
v -4.179103 -0.3409363 1.610366
v 2.790741E-07 -1.397527 -0.0447357
v 2.273916 -1.129524 -2.01172
v 4.188259 0.3777336 -4.207558
v 2.313373 -0.2899282 -4.025703
v -2.25659 -1.250007 -0.08645923
v -4.15237 -0.7981459 -0.1944585
v 3.959643E-07 -1.324483 -1.959326
v 8.473922E-07 -0.5387084 -3.964792
v -2.273917 -1.129522 -2.01172
v -4.160635 -0.5842705 -2.15929
v -2.313376 -0.2899257 -4.025703
v -4.188258 0.3777392 -4.207558
vt 0.1167949 0.3014202
vt 0.0406969 0.3657644
vt 0.1167949 0.3657646
vt 0.180006 0.2479728
vt 0.180006 0.3657646
vt 0.243217 0.247973
vt 0.243217 0.3657647
vt 0.306428 0.3657647
vt 0.306428 0.2479728
vt 0.369639 0.3657646
vt 0.3696391 0.2479727
vt 0.4328501 0.3657647
vt 0.4328501 0.2479727
vt 0.4328501 0.1301811
vt 0.3696391 0.1301811
vt 0.306428 0.1301811
vt 0.243217 0.1301812
vt 0.1800059 0.1301808
vt 0.1167949 0.1301806
vt 0.1167949 0.1945249
vt 0.0406969 0.1301806
vt 0.009999969 0.99
vt 0.1730697 0.99
vt 0.009999969 0.9096223
vt 0.1730075 0.9096529
vt 0.1730697 0.9096223
vt 0.009999969 0.8292446
vt 0.3361395 0.99
vt 0.1730697 0.8292446
vt 0.1730697 0.748867
vt 0.009999969 0.748867
vt 0.1730697 0.6684895
vt 0.009999969 0.6684895
vt 0.1730697 0.5881118
vt 0.009999969 0.5881118
vt 0.1730697 0.5077343
vt 0.009999969 0.5077343
vt 0.3361395 0.5077343
vt 0.3361395 0.5881118
vt 0.4999172 0.5077343
vt 0.3361395 0.6684895
vt 0.4999172 0.5881118
vt 0.6622896 0.5077343
vt 0.3361395 0.748867
vt 0.4999172 0.6684895
vt 0.6622896 0.5881118
vt 0.3361395 0.8292446
vt 0.8253592 0.5881118
vt 0.8253592 0.5077343
vt 0.4999172 0.748867
vt 0.6622896 0.6684895
vt 0.3361395 0.9096223
vt 0.988429 0.5881118
vt 0.988429 0.5077343
vt 0.988429 0.6684895
vt 0.4999172 0.8292446
vt 0.4999172 0.9096223
vt 0.4999172 0.99
vt 0.6622896 0.748867
vt 0.8253592 0.6684895
vt 0.8253592 0.748867
vt 0.988429 0.748867
vt 0.6622896 0.8292446
vt 0.6622896 0.9096223
vt 0.6622896 0.99
vt 0.8253592 0.8292446
vt 0.988429 0.8292446
vt 0.8253592 0.9096223
vt 0.8253592 0.99
vt 0.988429 0.9096223
vt 0.988429 0.99
vt 0.8792617 0.4946053
vt 0.9931784 0.4946053
vt 0.9931784 0.3721054
vt 0.8792617 0.3721054
vt 0.7559564 0.4946053
vt 0.9931784 0.2489207
vt 0.7559564 0.3721054
vt 0.6206748 0.4946053
vt 0.8792617 0.2489207
vt 0.9931784 0.1242762
vt 0.6206748 0.3721054
vt 0.5031782 0.4946053
vt 0.5031782 0.3721054
vt 0.7559564 0.2489207
vt 0.8792617 0.1242762
vt 0.9931784 0.004605315
vt 0.8792617 0.004605315
vt 0.6206748 0.2489207
vt 0.5031782 0.2489207
vt 0.7559564 0.1242762
vt 0.7559564 0.004605315
vt 0.6206748 0.1242762
vt 0.5031782 0.1242762
vt 0.6206748 0.004605315
vt 0.5031782 0.004605315
vn -1 0 0
vn -1 0 0
vn -1 0 0
vn -1 0 0
vn -1 0 0
vn -1 0 0
vn -1 0 0
vn -1 0 0
vn -1 0 0
vn -1 0 0
vn -1 0 0
vn -1 0 0
vn -1 0 0
vn -1 0 0
vn -1 0 0
vn -1 0 0
vn -1 0 0
vn -1 0 0
vn -1 0 0
vn -1 0 0
vn -1 0 0
vn -0.2670873 -0.8192427 0.5074503
vn -0.2283681 -0.8102347 0.539785
vn -0.2996286 -0.8425867 0.4475158
vn -0.2930645 -0.8039059 0.5175408
vn -0.2474755 -0.8492091 0.466476
vn -0.3625461 -0.8966131 0.2542547
vn -0.1053522 -0.7995386 0.5913028
vn -0.2898817 -0.9161894 0.276705
vn -0.3159637 -0.9483852 0.02706732
vn -0.3991731 -0.9168713 0.002785592
vn -0.321042 -0.919938 -0.2250469
vn -0.4038339 -0.878334 -0.2558273
vn -0.310465 -0.8373398 -0.4499705
vn -0.3863655 -0.7841685 -0.4855938
vn -0.3200254 -0.7635048 -0.5609316
vn -0.382411 -0.7270089 -0.5702806
vn -0.1630289 -0.8202372 -0.5482996
vn -0.1565952 -0.8840216 -0.4404357
vn 0 -0.8371568 -0.546963
vn -0.1607762 -0.9649993 -0.2071892
vn 0 -0.8981135 -0.4397637
vn 0.1630299 -0.8202368 -0.5482998
vn -0.1516809 -0.9863728 0.06373113
vn 0 -0.9803512 -0.1972604
vn 0.1565961 -0.8840215 -0.4404357
vn -0.1336856 -0.9393393 0.3158637
vn 0.3104663 -0.8373393 -0.4499707
vn 0.3200262 -0.7635043 -0.5609318
vn 0 -0.9968369 0.07947437
vn 0.1607772 -0.9649992 -0.207189
vn -0.112603 -0.8510072 0.5129398
vn 0.3863665 -0.7841682 -0.4855936
vn 0.3824109 -0.7270095 -0.5702799
vn 0.4038355 -0.8783333 -0.2558269
vn 0 -0.9431229 0.3324445
vn 0 -0.8498784 0.526979
vn 0 -0.7936496 0.6083751
vn 0.1516819 -0.9863726 0.06373106
vn 0.3210433 -0.9199377 -0.2250467
vn 0.3159649 -0.9483847 0.02706754
vn 0.3991748 -0.9168707 0.002785585
vn 0.1336864 -0.9393392 0.3158636
vn 0.1126037 -0.8510072 0.5129399
vn 0.1053527 -0.7995384 0.591303
vn 0.2898827 -0.9161892 0.2767047
vn 0.3625474 -0.8966125 0.2542547
vn 0.2467552 -0.8476809 0.4696263
vn 0.2283704 -0.8102365 0.5397812
vn 0.2996302 -0.8425861 0.4475157
vn 0.2670892 -0.8192411 0.5074517
vn 0.1151791 -0.8450251 0.5221746
vn 0.1780068 -0.8421154 0.5090728
vn 0.2002423 -0.8982658 0.3911798
vn 0.1264806 -0.9075777 0.4003817
vn 0 -0.845045 0.5346953
vn 0.2384333 -0.9674857 0.08438548
vn 0 -0.9093797 0.415967
vn -0.1151799 -0.8450252 0.5221744
vn 0.151585 -0.9826639 0.1067402
vn 0.2536316 -0.933656 -0.2528981
vn -0.1264814 -0.9075776 0.4003816
vn -0.1780073 -0.8421154 0.5090727
vn -0.2002429 -0.8982656 0.3911799
vn 0 -0.9923561 0.1234078
vn 0.1647882 -0.9609352 -0.2223698
vn 0.2517045 -0.8862343 -0.3888877
vn 0.174836 -0.9069741 -0.3831845
vn -0.1515862 -0.9826637 0.1067404
vn -0.2384344 -0.9674855 0.08438548
vn 0 -0.9775093 -0.2108928
vn 0 -0.9273453 -0.3742068
vn -0.1647893 -0.960935 -0.2223697
vn -0.2536331 -0.9336556 -0.2528981
vn -0.1748373 -0.9069738 -0.3831846
vn -0.2517063 -0.8862338 -0.3888877
g Color_Cloth_01_0
f 3/3/3 2/2/2 1/1/1
f 1/1/1 4/4/4 3/3/3
f 4/4/4 5/5/5 3/3/3
f 4/4/4 6/6/6 5/5/5
f 6/6/6 7/7/7 5/5/5
f 7/7/7 6/6/6 8/8/8
f 6/6/6 9/9/9 8/8/8
f 8/8/8 9/9/9 10/10/10
f 9/9/9 11/11/11 10/10/10
f 10/10/10 11/11/11 12/12/12
f 11/11/11 13/13/13 12/12/12
f 13/13/13 11/11/11 14/14/14
f 11/11/11 15/15/15 14/14/14
f 11/11/11 9/9/9 15/15/15
f 9/9/9 16/16/16 15/15/15
f 9/9/9 6/6/6 16/16/16
f 6/6/6 17/17/17 16/16/16
f 17/17/17 6/6/6 18/18/18
f 6/6/6 4/4/4 18/18/18
f 18/18/18 4/4/4 19/19/19
f 4/4/4 20/20/20 19/19/19
f 19/19/19 20/20/20 21/21/21
f 24/24/24 23/23/23 22/22/22
f 23/23/23 24/24/24 25/25/25
f 26/26/26 25/25/25 24/24/24
f 26/26/26 23/23/23 25/25/25
f 27/27/27 26/26/26 24/24/24
f 26/26/26 28/28/28 23/23/23
f 29/29/29 26/26/26 27/27/27
f 30/30/30 29/29/29 27/27/27
f 31/31/31 30/30/30 27/27/27
f 32/32/32 30/30/30 31/31/31
f 33/33/33 32/32/32 31/31/31
f 34/34/34 32/32/32 33/33/33
f 35/35/35 34/34/34 33/33/33
f 36/36/36 34/34/34 35/35/35
f 37/37/37 36/36/36 35/35/35
f 36/36/36 38/38/38 34/34/34
f 38/38/38 39/39/39 34/34/34
f 34/34/34 39/39/39 32/32/32
f 38/38/38 40/40/40 39/39/39
f 32/32/32 41/41/41 30/30/30
f 39/39/39 41/41/41 32/32/32
f 40/40/40 42/42/42 39/39/39
f 39/39/39 42/42/42 41/41/41
f 40/40/40 43/43/43 42/42/42
f 30/30/30 44/44/44 29/29/29
f 41/41/41 44/44/44 30/30/30
f 42/42/42 45/45/45 41/41/41
f 41/41/41 45/45/45 44/44/44
f 43/43/43 46/46/46 42/42/42
f 42/42/42 46/46/46 45/45/45
f 44/44/44 47/47/47 29/29/29
f 29/29/29 47/47/47 26/26/26
f 43/43/43 48/48/48 46/46/46
f 49/49/49 48/48/48 43/43/43
f 45/45/45 50/50/50 44/44/44
f 44/44/44 50/50/50 47/47/47
f 46/46/46 51/51/51 45/45/45
f 46/46/46 48/48/48 51/51/51
f 45/45/45 51/51/51 50/50/50
f 47/47/47 52/52/52 26/26/26
f 52/52/52 28/28/28 26/26/26
f 49/49/49 53/53/53 48/48/48
f 54/54/54 53/53/53 49/49/49
f 53/53/53 55/55/55 48/48/48
f 50/50/50 56/56/56 47/47/47
f 47/47/47 56/56/56 52/52/52
f 52/52/52 57/57/57 28/28/28
f 56/56/56 57/57/57 52/52/52
f 57/57/57 58/58/58 28/28/28
f 51/51/51 59/59/59 50/50/50
f 50/50/50 59/59/59 56/56/56
f 48/48/48 60/60/60 51/51/51
f 48/48/48 55/55/55 60/60/60
f 51/51/51 60/60/60 59/59/59
f 60/60/60 55/55/55 61/61/61
f 60/60/60 61/61/61 59/59/59
f 55/55/55 62/62/62 61/61/61
f 59/59/59 63/63/63 56/56/56
f 56/56/56 63/63/63 57/57/57
f 59/59/59 61/61/61 63/63/63
f 57/57/57 64/64/64 58/58/58
f 63/63/63 64/64/64 57/57/57
f 64/64/64 65/65/65 58/58/58
f 61/61/61 62/62/62 66/66/66
f 61/61/61 66/66/66 63/63/63
f 63/63/63 66/66/66 64/64/64
f 62/62/62 67/67/67 66/66/66
f 64/64/64 68/68/68 65/65/65
f 66/66/66 68/68/68 64/64/64
f 66/66/66 67/67/67 68/68/68
f 68/68/68 69/69/69 65/65/65
f 67/67/67 70/70/70 68/68/68
f 68/68/68 70/70/70 69/69/69
f 70/70/70 71/71/71 69/69/69
f 74/74/74 73/73/73 72/72/72
f 75/75/75 74/74/74 72/72/72
f 75/75/75 72/72/72 76/76/76
f 77/77/77 74/74/74 75/75/75
f 78/78/78 75/75/75 76/76/76
f 78/78/78 76/76/76 79/79/79
f 80/80/80 77/77/77 75/75/75
f 80/80/80 75/75/75 78/78/78
f 81/81/81 77/77/77 80/80/80
f 82/82/82 78/78/78 79/79/79
f 82/82/82 79/79/79 83/83/83
f 84/84/84 82/82/82 83/83/83
f 85/85/85 80/80/80 78/78/78
f 85/85/85 78/78/78 82/82/82
f 86/86/86 81/81/81 80/80/80
f 86/86/86 80/80/80 85/85/85
f 87/87/87 81/81/81 86/86/86
f 88/88/88 87/87/87 86/86/86
f 89/89/89 82/82/82 84/84/84
f 89/89/89 85/85/85 82/82/82
f 90/90/90 89/89/89 84/84/84
f 91/91/91 86/86/86 85/85/85
f 88/88/88 86/86/86 91/91/91
f 91/91/91 85/85/85 89/89/89
f 92/92/92 88/88/88 91/91/91
f 93/93/93 89/89/89 90/90/90
f 93/93/93 91/91/91 89/89/89
f 92/92/92 91/91/91 93/93/93
f 94/94/94 93/93/93 90/90/90
f 95/95/95 92/92/92 93/93/93
f 95/95/95 93/93/93 94/94/94
f 96/96/96 95/95/95 94/94/94
