g Color_Guns_008
v -1.680579 -0.5358544 1.541178
v -1.680579 -0.7108715 1.468683
v -2.328187 -0.6383775 1.541178
v -1.680579 -0.5358544 1.541178
v -1.353727 -0.553624 1.399307
v -1.680579 -0.7108715 1.468683
v 2.328185 1.541178 0.6383754
v -1.353729 1.398888 -0.5796112
v 2.328185 1.541178 -0.6383781
v -1.353729 1.398887 0.5796124
v -1.680577 1.541177 0.6383775
v -1.68058 1.541177 -0.6383758
v -2.328187 1.541176 0.6383779
v -2.328189 1.541177 -0.6383752
v 2.328185 0.6383769 1.541176
v -1.353729 1.398887 0.5796124
v 2.328185 1.541178 0.6383754
v -1.353729 0.5791923 1.399308
v -1.680582 0.6383755 1.541179
v -1.680577 1.541177 0.6383775
v -2.328187 0.6383755 1.541179
v -2.328187 1.541176 0.6383779
v 2.328186 -0.6383761 1.541176
v -1.353729 0.5791923 1.399308
v 2.328185 0.6383769 1.541176
v -1.353727 -0.553624 1.399307
v -1.680579 -0.5358544 1.541178
v -1.680582 0.6383755 1.541179
v -2.328187 -0.6383775 1.541178
v -2.328187 0.6383755 1.541179
v 2.328186 -1.541177 0.638375
v -1.353727 -0.553624 1.399307
v 2.328186 -0.6383761 1.541176
v -1.353729 -1.399725 0.5796124
v -1.680579 -1.541178 0.6383774
v -1.680579 -0.7108715 1.468683
v -2.328187 -0.6383775 1.541178
v -2.328189 -1.541178 0.6383778
v 2.328186 -1.541176 -0.6383778
v -1.353729 -1.399725 0.5796124
v 2.328186 -1.541177 0.638375
v -1.353729 -1.399726 -0.5796115
v -1.680582 -1.541178 -0.6383759
v -1.680579 -1.541178 0.6383774
v -2.328189 -1.541178 -0.6383753
v -2.328189 -1.541178 0.6383778
v 2.328186 -0.6383752 -1.541179
v -1.353729 -1.399726 -0.5796115
v 2.328186 -1.541176 -0.6383778
v -1.353729 -0.5800307 -1.399307
v -1.68058 -0.6383766 -1.541177
v -1.680582 -1.541178 -0.6383759
v -2.328189 -0.6383768 -1.541176
v -2.328189 -1.541178 -0.6383753
v 2.328185 0.6383771 -1.541178
v -1.353729 -0.5800307 -1.399307
v 2.328186 -0.6383752 -1.541179
v -1.353729 0.5791933 -1.399306
v 2.328185 1.541178 -0.6383781
v -1.353729 1.398888 -0.5796112
v -1.68058 1.541177 -0.6383758
v -1.680582 0.638376 -1.541176
v -2.328189 1.541177 -0.6383752
v -1.68058 -0.6383766 -1.541177
v -2.328189 0.6383759 -1.541176
v -2.328189 -0.6383768 -1.541176
v -2.328187 0.409522 -0.9886742
v -2.328187 0.9886748 -0.4095216
v -1.098384 -7.548256E-07 1.137302E-06
v -2.328187 -0.4095233 -0.9886746
v -2.328187 0.9886746 0.4095241
v -2.328187 -0.9886759 -0.4095216
v -2.328187 0.409522 0.9886768
v -2.328187 -0.9886764 0.4095241
v -2.328187 -0.4095238 0.9886763
v -2.328189 1.541177 -0.6383752
v -2.328187 0.9886748 -0.4095216
v -2.328187 0.409522 -0.9886742
v -2.328189 0.6383759 -1.541176
v -2.328187 1.541176 0.6383779
v -2.328187 -0.4095233 -0.9886746
v -2.328187 0.9886746 0.4095241
v -2.328189 -0.6383768 -1.541176
v -2.328187 0.6383755 1.541179
v -2.328187 -0.9886759 -0.4095216
v -2.328187 0.409522 0.9886768
v -2.328189 -1.541178 -0.6383753
v -2.328187 -0.6383775 1.541178
v -2.328187 -0.9886764 0.4095241
v -2.328187 -0.4095238 0.9886763
v -2.328189 -1.541178 0.6383778
vt 0.537317 0.07162882
vt 0.5372484 0.07149275
vt 0.5372359 0.07107477
vt 0.5372208 0.07114665
vt 0.5372208 0.07166
vt 0.5373321 0.0710436
vt 0.5344875 0.09797213
vt 0.5374038 0.09877228
vt 0.5344875 0.09898128
vt 0.5374038 0.09797213
vt 0.5379172 0.09797213
vt 0.5379172 0.09898128
vt 0.5384712 0.09797213
vt 0.5384712 0.09898128
vt 0.5344876 0.09797215
vt 0.5374039 0.0989813
vt 0.5344876 0.0989813
vt 0.5374039 0.09818115
vt 0.5379172 0.09797215
vt 0.5379172 0.0989813
vt 0.5384712 0.09797215
vt 0.5384712 0.0989813
vt 0.5359749 0.1004686
vt 0.536775 0.09755226
vt 0.536984 0.1004686
vt 0.5360559 0.09755226
vt 0.5360559 0.09703892
vt 0.536984 0.09703892
vt 0.5359749 0.09648486
vt 0.536984 0.09648486
vt 0.5384712 0.0989813
vt 0.535658 0.09816439
vt 0.5384712 0.09797213
vt 0.5355549 0.09877227
vt 0.5350416 0.0989813
vt 0.5350416 0.09805316
vt 0.5344876 0.09797213
vt 0.5344876 0.0989813
vt 0.5384712 0.09898128
vt 0.5355549 0.09818115
vt 0.5384712 0.09797213
vt 0.5355549 0.09898128
vt 0.5350416 0.09898128
vt 0.5350416 0.09797213
vt 0.5344875 0.09898128
vt 0.5344875 0.09797213
vt 0.5384712 0.09898128
vt 0.5355549 0.09797213
vt 0.5384712 0.09797215
vt 0.5355549 0.09877228
vt 0.5350416 0.09898128
vt 0.5350416 0.09797213
vt 0.5344875 0.09898128
vt 0.5344875 0.09797213
vt 0.5384712 0.0984767
vt 0.5355549 0.09767657
vt 0.5384712 0.09746756
vt 0.5355549 0.0984767
vt 0.5384712 0.09948587
vt 0.5355549 0.09927686
vt 0.5350416 0.09948587
vt 0.5350416 0.0984767
vt 0.5344875 0.09948587
vt 0.5350416 0.09746756
vt 0.5344875 0.0984767
vt 0.5344875 0.09746756
vt 0.5391282 0.1224504
vt 0.5384075 0.1230126
vt 0.5378979 0.1220529
vt 0.5391282 0.1216553
vt 0.5373884 0.1230126
vt 0.5384075 0.1210932
vt 0.5366678 0.1224504
vt 0.5373884 0.1210932
vt 0.5366678 0.1216553
vt 0.5372071 0.07275494
vt 0.5372071 0.07275494
vt 0.5369982 0.07254601
vt 0.5369982 0.07254601
vt 0.5375025 0.07275494
vt 0.5369982 0.07225057
vt 0.5375025 0.07275494
vt 0.5369982 0.07225057
vt 0.5377114 0.07254601
vt 0.5372071 0.07204164
vt 0.5377114 0.07254601
vt 0.5372071 0.07204164
vt 0.5377114 0.07225057
vt 0.5375025 0.07204164
vt 0.5377114 0.07225057
vt 0.5375025 0.07204164
vn 0.2074256 -0.3743606 0.9037858
vn 0.2001345 -0.3749413 0.9051879
vn 0.06047229 -0.3819833 0.9221886
vn 0.2074256 -0.3743606 0.9037858
vn 0.3553862 -0.3577019 0.8635682
vn 0.2001345 -0.3749413 0.9051879
vn -0.04177513 0.9230771 0.3823397
vn 0.2101881 0.9032149 -0.3741974
vn -0.04177545 0.923077 -0.3823397
vn 0.2101894 0.9032148 0.3741973
vn 0.207764 0.9037353 0.3742948
vn 0.2077625 0.9037355 -0.374295
vn 0 0.9238795 0.3826835
vn 0 0.9238795 -0.3826834
vn -0.04171326 0.3823735 0.9230658
vn 0.2101894 0.9032148 0.3741973
vn -0.04177513 0.9230771 0.3823397
vn 0.2099089 0.3740063 0.903359
vn 0.2075113 0.3744453 0.903731
vn 0.207764 0.9037353 0.3742948
vn 0 0.3826832 0.9238796
vn 0 0.9238795 0.3826835
vn -0.04292191 -0.3802664 0.9238805
vn 0.2099089 0.3740063 0.903359
vn -0.04171326 0.3823735 0.9230658
vn 0.1931046 -0.3629533 0.9115786
vn 0.1968164 0 0.9804404
vn 0.2075113 0.3744453 0.903731
vn 0 -0.3826839 0.9238793
vn 0 0.3826832 0.9238796
vn -0.04299076 -0.9215685 0.3858279
vn 0.1931046 -0.3629533 0.9115786
vn -0.04292191 -0.3802664 0.9238805
vn 0.2153448 -0.901015 0.3765618
vn 0.2126452 -0.9024214 0.3747233
vn 0.2147435 -0.6879863 0.6932244
vn 0 -0.3826839 0.9238793
vn 0 -0.9238795 0.3826834
vn -0.04156525 -0.9230771 -0.3823624
vn 0.2153448 -0.901015 0.3765618
vn -0.04299076 -0.9215685 0.3858279
vn 0.2092317 -0.9034564 -0.3741506
vn 0.2069023 -0.9038724 -0.3744412
vn 0.2126452 -0.9024214 0.3747233
vn 0 -0.9238795 -0.3826833
vn 0 -0.9238795 0.3826834
vn -0.04162704 -0.3823282 -0.9230885
vn 0.2092317 -0.9034564 -0.3741506
vn -0.04156525 -0.9230771 -0.3823624
vn 0.2095111 -0.3743412 -0.9033127
vn 0.2071541 -0.3742896 -0.9038774
vn 0.2069023 -0.9038724 -0.3744412
vn 0 -0.3826833 -0.9238795
vn 0 -0.9238795 -0.3826833
vn -0.04171413 0.3823737 -0.9230656
vn 0.2095111 -0.3743412 -0.9033127
vn -0.04162704 -0.3823282 -0.9230885
vn 0.2099069 0.3740071 -0.9033592
vn -0.04177545 0.923077 -0.3823397
vn 0.2101881 0.9032149 -0.3741974
vn 0.2077625 0.9037355 -0.374295
vn 0.2075098 0.374446 -0.903731
vn 0 0.9238795 -0.3826834
vn 0.2071541 -0.3742896 -0.9038774
vn 0 0.3826836 -0.9238794
vn 0 -0.3826833 -0.9238795
vn -0.6564375 -0.288689 0.6969566
vn -0.6564376 -0.6969566 0.2886888
vn -1 0 0
vn -0.6564376 0.2886888 0.6969566
vn -0.6564375 -0.6969566 -0.288689
vn -0.6564374 0.6969566 0.288689
vn -0.6564376 -0.2886887 -0.6969566
vn -0.6564376 0.6969566 -0.2886888
vn -0.6564375 0.288689 -0.6969566
vn -1 0 0
vn -1 0 0
vn -1 0 0
vn -1 0 0
vn -1 0 0
vn -1 0 0
vn -1 0 0
vn -1 0 0
vn -1 0 0
vn -1 0 0
vn -1 0 0
vn -1 0 0
vn -1 0 0
vn -1 0 0
vn -1 0 0
vn -1 0 0
g Color_Guns_008_0
f 3/3/3 2/2/2 1/1/1
f 6/6/6 5/5/5 4/4/4
f 9/9/9 8/8/8 7/7/7
f 8/8/8 10/10/10 7/7/7
f 10/10/10 8/8/8 11/11/11
f 8/8/8 12/12/12 11/11/11
f 11/11/11 12/12/12 13/13/13
f 12/12/12 14/14/14 13/13/13
f 17/17/17 16/16/16 15/15/15
f 16/16/16 18/18/18 15/15/15
f 18/18/18 16/16/16 19/19/19
f 16/16/16 20/20/20 19/19/19
f 19/19/19 20/20/20 21/21/21
f 20/20/20 22/22/22 21/21/21
f 25/25/25 24/24/24 23/23/23
f 24/24/24 26/26/26 23/23/23
f 26/26/26 24/24/24 27/27/27
f 24/24/24 28/28/28 27/27/27
f 27/27/27 28/28/28 29/29/29
f 28/28/28 30/30/30 29/29/29
f 33/33/33 32/32/32 31/31/31
f 32/32/32 34/34/34 31/31/31
f 34/34/34 32/32/32 35/35/35
f 32/32/32 36/36/36 35/35/35
f 36/36/36 37/37/37 35/35/35
f 37/37/37 38/38/38 35/35/35
f 41/41/41 40/40/40 39/39/39
f 40/40/40 42/42/42 39/39/39
f 42/42/42 40/40/40 43/43/43
f 40/40/40 44/44/44 43/43/43
f 43/43/43 44/44/44 45/45/45
f 44/44/44 46/46/46 45/45/45
f 49/49/49 48/48/48 47/47/47
f 48/48/48 50/50/50 47/47/47
f 50/50/50 48/48/48 51/51/51
f 48/48/48 52/52/52 51/51/51
f 51/51/51 52/52/52 53/53/53
f 52/52/52 54/54/54 53/53/53
f 57/57/57 56/56/56 55/55/55
f 56/56/56 58/58/58 55/55/55
f 55/55/55 58/58/58 59/59/59
f 58/58/58 60/60/60 59/59/59
f 60/60/60 58/58/58 61/61/61
f 58/58/58 56/56/56 62/62/62
f 58/58/58 62/62/62 61/61/61
f 61/61/61 62/62/62 63/63/63
f 56/56/56 64/64/64 62/62/62
f 62/62/62 65/65/65 63/63/63
f 62/62/62 64/64/64 65/65/65
f 64/64/64 66/66/66 65/65/65
f 69/69/69 68/68/68 67/67/67
f 69/69/69 67/67/67 70/70/70
f 69/69/69 71/71/71 68/68/68
f 69/69/69 70/70/70 72/72/72
f 69/69/69 73/73/73 71/71/71
f 69/69/69 72/72/72 74/74/74
f 69/69/69 75/75/75 73/73/73
f 69/69/69 74/74/74 75/75/75
f 78/78/78 77/77/77 76/76/76
f 79/79/79 78/78/78 76/76/76
f 76/76/76 77/77/77 80/80/80
f 81/81/81 78/78/78 79/79/79
f 77/77/77 82/82/82 80/80/80
f 83/83/83 81/81/81 79/79/79
f 80/80/80 82/82/82 84/84/84
f 85/85/85 81/81/81 83/83/83
f 82/82/82 86/86/86 84/84/84
f 87/87/87 85/85/85 83/83/83
f 84/84/84 86/86/86 88/88/88
f 89/89/89 85/85/85 87/87/87
f 86/86/86 90/90/90 88/88/88
f 91/91/91 89/89/89 87/87/87
f 88/88/88 90/90/90 91/91/91
f 90/90/90 89/89/89 91/91/91
