g Color_014
v -6.75102 2.288409 18.20312
v -6.402597 2.891894 17.06227
v -9.800397 5.658258 18.20312
v -6.75102 2.288409 18.20312
v -9.800397 5.658258 18.20312
v -6.402597 2.891894 19.34397
v -6.402597 2.891894 19.34397
v -9.800397 5.658258 18.20312
v -5.705754 4.098862 19.34397
v -5.705754 4.098862 19.34397
v -9.800397 5.658258 18.20312
v -5.357332 4.702346 18.20312
v -5.357332 4.702346 18.20312
v -9.800397 5.658258 18.20312
v -5.705754 4.098863 17.06228
v -5.705754 4.098863 17.06228
v -9.800397 5.658258 18.20312
v -6.402597 2.891894 17.06227
vt 0.32324 0.0347541
vt 0.3209303 0.0306806
vt 0.3187608 0.0347541
vt 0.296584 0.008419259
vt 0.2921048 0.008419259
vt 0.2942743 0.01249277
vt 0.3178793 0.01201104
vt 0.3157098 0.007937523
vt 0.3135402 0.01201104
vt 0.2899352 0.01249277
vt 0.2921048 0.008419259
vt 0.2876255 0.008419259
vt 0.3142815 0.0347541
vt 0.3187608 0.0347541
vt 0.3165911 0.0306806
vt 0.3165911 0.0306806
vt 0.3187608 0.0347541
vt 0.3209303 0.0306806
vn -0.6410222 -0.580061 -0.5026129
vn -0.6410223 -0.580061 -0.5026129
vn -0.6410222 -0.580061 -0.5026129
vn -0.6410223 -0.5800611 0.5026128
vn -0.6410223 -0.580061 0.5026128
vn -0.6410223 -0.5800611 0.5026128
vn -0.2208484 0.1275068 0.9669375
vn -0.2208484 0.1275068 0.9669375
vn -0.2208484 0.1275068 0.9669375
vn 0.1818364 0.8451725 0.5026119
vn 0.1818364 0.8451725 0.5026121
vn 0.1818364 0.8451725 0.5026121
vn 0.1818363 0.8451724 -0.5026124
vn 0.1818363 0.8451724 -0.5026124
vn 0.1818363 0.8451724 -0.5026124
vn -0.2208475 0.1275078 -0.9669375
vn -0.2208475 0.1275078 -0.9669375
vn -0.2208475 0.1275078 -0.9669375
g Color_014_0
f 3/3/3 2/2/2 1/1/1
f 6/6/6 5/5/5 4/4/4
f 9/9/9 8/8/8 7/7/7
f 12/12/12 11/11/11 10/10/10
f 15/15/15 14/14/14 13/13/13
f 18/18/18 17/17/17 16/16/16
