g Color_Boss_58
v 0.3135732 -3.016925E-06 6.643248
v -0.02518102 0.004487404 5.597668
v 0.2359467 0.2359437 5.621919
v 0.2358603 -0.2358633 5.628129
v -0.02518102 0.004487404 5.597668
v 0.3135732 -3.016925E-06 6.643248
v 0.4090562 -2.327861E-06 1.788057
v 0.3070039 0.3070039 -6.643246
v 0.4341692 4.248694E-07 -6.643246
v 0.2892464 0.2892442 1.788057
v 0.2359467 0.2359437 5.621919
v 0.3135732 -3.016925E-06 6.643248
v 0.2892464 0.2892442 1.788057
v -8.630134E-09 0.4341692 -6.643246
v 0.3070039 0.3070039 -6.643246
v -8.629978E-09 0.4090538 1.788057
v -8.629891E-09 0.3167008 6.484209
v 0.2359467 0.2359437 5.621919
v -8.629978E-09 0.4090538 1.788057
v -0.3070039 0.3070039 -6.643246
v -8.630134E-09 0.4341692 -6.643246
v -0.2892464 0.2892442 1.788057
v -0.4341692 4.248694E-07 -6.643246
v -0.2313413 0.2313379 5.952772
v -8.629891E-09 0.3167008 6.484209
v -0.3153054 -3.489916E-06 6.555255
v -0.4090562 -2.327861E-06 1.788057
v -0.3070039 -0.307004 -6.643247
v -0.2334186 -0.2334219 5.803539
v -0.2892464 -0.2892489 1.788057
v -8.630134E-09 -0.4341693 -6.643247
v -8.629897E-09 -0.3232204 6.153402
v -8.629978E-09 -0.4090585 1.788057
v -8.629978E-09 -0.4090585 1.788057
v 0.3070039 -0.307004 -6.643247
v -8.630134E-09 -0.4341693 -6.643247
v 0.2892464 -0.2892489 1.788057
v 0.4341692 4.248694E-07 -6.643246
v 0.4090562 -2.327861E-06 1.788057
v 0.3135732 -3.016925E-06 6.643248
v 0.2358603 -0.2358633 5.628129
v -8.629897E-09 -0.3232204 6.153402
v 0.2359467 0.2359437 5.621919
v -0.02518102 0.004487404 5.597668
v -8.629891E-09 0.3167008 6.484209
v -0.2313413 0.2313379 5.952772
v -8.629897E-09 -0.3232204 6.153402
v -0.02518102 0.004487404 5.597668
v 0.2358603 -0.2358633 5.628129
v -0.2334186 -0.2334219 5.803539
v -0.3153054 -3.489916E-06 6.555255
v -0.02518102 0.004487404 5.597668
v -0.2334186 -0.2334219 5.803539
v -0.2313413 0.2313379 5.952772
vt 0.6847564 0.01289211
vt 0.6841819 0.01289378
vt 0.6846248 0.0129796
vt 0.6846246 0.01280466
vt 0.6841819 0.01289378
vt 0.6847564 0.01289211
vt 0.4650846 0.122221
vt 0.4650748 0.1239641
vt 0.4651568 0.1239618
vt 0.4650073 0.1222232
vt 0.4649826 0.1214323
vt 0.4650353 0.1212196
vt 0.465153 0.1231995
vt 0.4651946 0.120161
vt 0.465158 0.120161
vt 0.4651874 0.1231995
vt 0.4651608 0.124963
vt 0.4651376 0.1246388
vt 0.4651874 0.1231995
vt 0.465158 0.120161
vt 0.4651946 0.120161
vt 0.465153 0.1231995
vt 0.4650698 0.120161
vt 0.4651363 0.1247632
vt 0.4651608 0.124963
vt 0.4650698 0.1249897
vt 0.4650698 0.1231995
vt 0.4649814 0.120161
vt 0.4650025 0.1247071
vt 0.4649865 0.1231995
vt 0.4649448 0.120161
vt 0.4649768 0.1248387
vt 0.4649521 0.1231995
vt 0.4649521 0.1231995
vt 0.4649814 0.120161
vt 0.4649448 0.120161
vt 0.4649865 0.1231995
vt 0.4650698 0.120161
vt 0.4650698 0.1231995
vt 0.4650698 0.1250227
vt 0.4650019 0.1246412
vt 0.4649768 0.1248387
vt 0.6846248 0.0129796
vt 0.6841819 0.01289378
vt 0.6842245 0.01300954
vt 0.6838322 0.01297789
vt 0.6842245 0.01277227
vt 0.6841819 0.01289378
vt 0.6846246 0.01280466
vt 0.6838287 0.01280557
vt 0.6836898 0.01289211
vt 0.6841819 0.01289378
vt 0.6838287 0.01280557
vt 0.6838322 0.01297789
vn -0.6587595 0.7205228 0.2165239
vn -0.6587596 0.7205228 0.2165239
vn -0.6587596 0.7205228 0.2165239
vn -0.6749146 -0.7056861 0.2156328
vn -0.6749145 -0.705686 0.2156327
vn -0.6749145 -0.705686 0.2156327
vn 0.9999362 0 0.01129668
vn 0.7071035 0.7071038 0.002978719
vn 0.9999956 0 0.002978522
vn 0.7070625 0.7070608 0.01129691
vn 0.709151 0.7047824 0.0196602
vn 0.9998061 -0.001142054 0.01965978
vn 0.7070625 0.7070608 0.01129691
vn 0 0.9999956 0.002978794
vn 0.7071035 0.7071038 0.002978719
vn 0 0.9999362 0.01129694
vn -0.08653159 0.9960566 0.01958643
vn 0.709151 0.7047824 0.0196602
vn 0 0.9999362 0.01129694
vn -0.7071035 0.7071037 0.002978719
vn 0 0.9999956 0.002978794
vn -0.7070621 0.7070612 0.01129723
vn -0.9999956 0 0.002978522
vn -0.7094629 0.7044685 0.01966078
vn -0.08653159 0.9960566 0.01958643
vn -0.9989972 0.04023497 0.01964439
vn -0.9999362 0 0.0112969
vn -0.7071037 -0.7071035 0.002978328
vn -0.7233297 -0.690223 0.01965436
vn -0.7070643 -0.707059 0.01129645
vn 0 -0.9999956 0.002978256
vn -0.06653246 -0.9975915 0.01961503
vn 0 -0.9999362 0.01129589
vn 0 -0.9999362 0.01129589
vn 0.7071037 -0.7071035 0.002978328
vn 0 -0.9999956 0.002978256
vn 0.7070649 -0.7070584 0.01129632
vn 0.9999956 0 0.002978522
vn 0.9999362 0 0.01129668
vn 0.9998061 -0.001142054 0.01965978
vn 0.7176925 -0.6960827 0.01965721
vn -0.06653246 -0.9975915 0.01961503
vn 0.6309786 -0.7371904 0.2416946
vn 0.369057 -0.8798682 0.299381
vn 0.1047115 -0.9389612 0.3277002
vn -0.4043602 -0.8590083 0.3140027
vn 0.09914071 0.8591033 0.5021081
vn 0.2411542 0.8407074 0.4848255
vn 0.6000827 0.7006585 0.3859772
vn -0.4151785 0.7752836 0.4759853
vn 0.9560344 -0.04719177 0.2894325
vn 0.9442375 -0.1643601 0.2853089
vn 0.8250602 -0.5079122 0.2475901
vn 0.8841956 0.3814082 0.2696773
g Color_Boss_58_0
f 3/3/3 2/2/2 1/1/1
f 6/6/6 5/5/5 4/4/4
f 9/9/9 8/8/8 7/7/7
f 8/8/8 10/10/10 7/7/7
f 10/10/10 11/11/11 7/7/7
f 11/11/11 12/12/12 7/7/7
f 15/15/15 14/14/14 13/13/13
f 14/14/14 16/16/16 13/13/13
f 13/13/13 16/16/16 17/17/17
f 18/18/18 13/13/13 17/17/17
f 21/21/21 20/20/20 19/19/19
f 20/20/20 22/22/22 19/19/19
f 20/20/20 23/23/23 22/22/22
f 19/19/19 22/22/22 24/24/24
f 25/25/25 19/19/19 24/24/24
f 24/24/24 22/22/22 26/26/26
f 23/23/23 27/27/27 22/22/22
f 22/22/22 27/27/27 26/26/26
f 23/23/23 28/28/28 27/27/27
f 26/26/26 27/27/27 29/29/29
f 28/28/28 30/30/30 27/27/27
f 27/27/27 30/30/30 29/29/29
f 28/28/28 31/31/31 30/30/30
f 29/29/29 30/30/30 32/32/32
f 31/31/31 33/33/33 30/30/30
f 30/30/30 33/33/33 32/32/32
f 36/36/36 35/35/35 34/34/34
f 35/35/35 37/37/37 34/34/34
f 35/35/35 38/38/38 37/37/37
f 38/38/38 39/39/39 37/37/37
f 37/37/37 39/39/39 40/40/40
f 41/41/41 37/37/37 40/40/40
f 34/34/34 37/37/37 41/41/41
f 42/42/42 34/34/34 41/41/41
f 45/45/45 44/44/44 43/43/43
f 46/46/46 44/44/44 45/45/45
f 49/49/49 48/48/48 47/47/47
f 47/47/47 48/48/48 50/50/50
f 53/53/53 52/52/52 51/51/51
f 51/51/51 52/52/52 54/54/54
