g Color_BookCover_03
v 13.16779 -3.861194 0.7623281
v 13.17099 -8.587025 0.7623448
v -11.88427 -8.587027 0.7623844
v -16.84542 -5.122274E-07 0.7623706
v 13.16779 -5.122274E-07 0.7623234
v 13.16779 3.861192 0.7623296
v -11.88427 8.587027 0.7623882
v 13.17099 8.587025 0.7623477
v 14.24267 -3.861193 1.840418
v 13.16779 -3.861194 0.7623281
v 13.16779 -5.122274E-07 0.7623234
v 14.24267 -4.693866E-07 1.840416
v 15.76733 -3.861193 1.840415
v 14.24267 3.861192 1.840421
v 13.16779 3.861192 0.7623296
v 15.76733 3.861192 1.840418
v 15.76733 -4.693866E-07 1.840412
v 16.84542 -5.122274E-07 0.7623196
v 16.84542 -3.861193 0.7623181
v 16.84542 3.861192 0.7623186
v 16.84541 -5.718321E-07 -0.7623343
v 16.84541 -3.861193 -0.7623358
v 16.84541 3.861192 -0.7623343
v 15.76732 -6.146729E-07 -1.840424
v 15.76732 -3.861194 -1.840424
v 15.76732 3.861193 -1.840424
v 14.24268 -6.146729E-07 -1.840421
v 14.24268 -3.861194 -1.840424
v 14.24268 3.861193 -1.840421
v 13.16779 -5.718321E-07 -0.7623286
v 13.16779 -3.861194 -0.762325
v 13.16779 3.861192 -0.7623236
v -16.84542 -5.718321E-07 -0.7622807
v -11.88427 -8.587027 -0.7622654
v 13.17098 -8.587025 -0.7623069
v 13.16779 -3.861194 -0.762325
v 13.16779 -5.718321E-07 -0.7623286
v 13.16779 3.861192 -0.7623236
v 13.17098 8.587025 -0.7623019
v -11.88427 8.587027 -0.7622631
v -11.88427 -8.587027 0.7623844
v 13.17099 -8.587025 0.7623448
v 13.17098 -8.587025 -0.7623069
v -11.88427 -8.587027 -0.7622654
v -16.84542 -5.122274E-07 0.7623706
v -11.88427 -8.587027 0.7623844
v -11.88427 -8.587027 -0.7622654
v -16.84542 -5.718321E-07 -0.7622807
v 13.17099 -8.587025 0.7623448
v 13.16779 -3.861194 0.7623281
v 13.16779 -3.861194 -0.762325
v 13.17098 -8.587025 -0.7623069
v -11.88427 8.587027 0.7623882
v -11.88427 8.587027 -0.7622631
v 13.17098 8.587025 -0.7623019
v 13.17099 8.587025 0.7623477
v -16.84542 -5.122274E-07 0.7623706
v -16.84542 -5.718321E-07 -0.7622807
v -11.88427 8.587027 -0.7622631
v -11.88427 8.587027 0.7623882
v 13.17099 8.587025 0.7623477
v 13.17098 8.587025 -0.7623019
v 13.16779 3.861192 -0.7623236
v 13.16779 3.861192 0.7623296
v 16.84542 -3.861193 0.7623181
v 16.84541 -3.861193 -0.7623358
v 15.005 -3.861193 -4.291534E-06
v 15.76733 -3.861193 1.840415
v 15.76732 -3.861194 -1.840424
v 14.24267 -3.861193 1.840418
v 14.24268 -3.861194 -1.840424
v 13.16779 -3.861194 0.7623281
v 13.16779 -3.861194 -0.762325
v 16.84542 3.861192 0.7623186
v 15.005 3.861192 -3.576279E-06
v 16.84541 3.861192 -0.7623343
v 15.76733 3.861192 1.840418
v 15.76732 3.861193 -1.840424
v 14.24267 3.861192 1.840421
v 14.24268 3.861193 -1.840421
v 13.16779 3.861192 0.7623296
v 13.16779 3.861192 -0.7623236
vt 0.7221151 0.07935394
vt 0.6905167 0.07933274
vt 0.6905167 0.2468598
vt 0.7479322 0.2800317
vt 0.7479322 0.07935394
vt 0.7737494 0.07935394
vt 0.8053478 0.2468598
vt 0.8053478 0.07933274
vt 0.7221151 0.06917494
vt 0.7221151 0.07935394
vt 0.7479322 0.07935394
vt 0.7479322 0.06917494
vt 0.7221151 0.05898052
vt 0.7737494 0.06917494
vt 0.7737494 0.07935394
vt 0.7737494 0.05898052
vt 0.7479322 0.05898052
vt 0.7479322 0.04878631
vt 0.7221151 0.04878631
vt 0.7737494 0.04878631
vt 0.7479322 0.03859228
vt 0.7221151 0.03859228
vt 0.7737494 0.03859228
vt 0.7479322 0.02839845
vt 0.7221151 0.02839807
vt 0.7737494 0.02839845
vt 0.7479323 0.01820416
vt 0.7221151 0.01820416
vt 0.7737494 0.01820416
vt 0.7479323 0.008025029
vt 0.7221151 0.008025029
vt 0.7737494 0.008025029
vt 0.7479304 0.2800317
vt 0.8053478 0.2468588
vt 0.8053478 0.07932637
vt 0.7737484 0.07934757
vt 0.7479304 0.07934757
vt 0.7221125 0.07934757
vt 0.690513 0.07932637
vt 0.690513 0.2468588
vt 0.6815589 0.2013592
vt 0.6815591 0.008025029
vt 0.6653858 0.008025029
vt 0.6653858 0.2013592
vt 0.6815589 0.2778701
vt 0.6815589 0.2013592
vt 0.6653858 0.2013592
vt 0.6653858 0.2778701
vt 0.7085286 0.07812622
vt 0.7085286 0.0387033
vt 0.6958101 0.0387033
vt 0.6958101 0.07812622
vt 0.6653858 0.2013592
vt 0.6815589 0.2013592
vt 0.6815591 0.008025029
vt 0.6653858 0.008025029
vt 0.6653858 0.2778701
vt 0.6815589 0.2778701
vt 0.6815589 0.2013592
vt 0.6653858 0.2013592
vt 0.6958101 0.07812622
vt 0.7085286 0.07812622
vt 0.7085286 0.0387033
vt 0.6958101 0.0387033
vt 0.7085389 0.008025029
vt 0.6958207 0.008025029
vt 0.7021753 0.02337578
vt 0.7175295 0.01702114
vt 0.6868246 0.01701555
vt 0.7175295 0.02973947
vt 0.6868246 0.02973365
vt 0.7085286 0.0387033
vt 0.6958101 0.0387033
vt 0.6958207 0.008025029
vt 0.7021787 0.0233794
vt 0.7085389 0.008025029
vt 0.6868246 0.01701555
vt 0.7175295 0.01702114
vt 0.6868246 0.02973365
vt 0.7175295 0.02973947
vt 0.6958101 0.0387033
vt 0.7085286 0.0387033
vn 0 0 1
vn 0 0 1
vn 0 0 1
vn 0 0 1
vn 0 0 1
vn 0 0 1
vn 0 0 1
vn 0 0 1
vn -0.383372 0 0.9235941
vn -0.7081618 0 0.7060502
vn -0.708162 0 0.70605
vn -0.3833724 0 0.9235939
vn 0.3826848 0 0.9238789
vn -0.3833723 0 0.9235939
vn -0.7081622 0 0.7060497
vn 0.3826852 0 0.9238788
vn 0.3826853 0 0.9238788
vn 0.9238811 0 0.3826798
vn 0.9238812 0 0.3826797
vn 0.9238812 0 0.3826796
vn 0.9238782 0 -0.3826866
vn 0.9238781 0 -0.382687
vn 0.9238783 0 -0.3826865
vn 0.3826825 0 -0.9238799
vn 0.3826826 0 -0.9238799
vn 0.3826824 0 -0.92388
vn -0.3833729 0 -0.9235937
vn -0.3833726 0 -0.9235938
vn -0.3833729 0 -0.9235936
vn -0.7081603 0 -0.7060517
vn -0.7081604 0 -0.7060516
vn -0.7081602 0 -0.7060518
vn 0 0 -1
vn 0 0 -1
vn 0 0 -1
vn 0 0 -1
vn 0 0 -1
vn 0 0 -1
vn 0 0 -1
vn 0 0 -1
vn 0 -1 0
vn 0 -1 0
vn 0 -1 0
vn 0 -1 0
vn -1 0 0
vn -0.8658757 -0.5002593 0
vn -0.8658756 -0.5002593 0
vn -1 0 0
vn 0.9999998 0.0006757283 0
vn 0.9999998 0.0006757284 0
vn 0.9999998 0.0006757283 0
vn 0.9999998 0.0006757283 0
vn 0 1 0
vn 0 1 0
vn 0 1 0
vn 0 1 0
vn -1 0 0
vn -1 0 0
vn -0.8658757 0.5002592 0
vn -0.8658757 0.5002592 0
vn 0.9999998 -0.000675829 0
vn 0.9999998 -0.000675829 0
vn 0.9999998 -0.000675829 0
vn 0.9999998 -0.000675829 0
vn 0 -1 0
vn 0 -1 0
vn 0 -1 0
vn 0 -1 0
vn 0 -1 0
vn 0 -1 0
vn 0 -1 0
vn 0 -1 0
vn 0 -1 0
vn 0 1 0
vn 0 1 0
vn 0 1 0
vn 0 1 0
vn 0 1 0
vn 0 1 0
vn 0 1 0
vn 0 1 0
vn 0 1 0
g Color_BookCover_03_0
f 3/3/3 2/2/2 1/1/1
f 4/4/4 3/3/3 1/1/1
f 4/4/4 1/1/1 5/5/5
f 6/6/6 4/4/4 5/5/5
f 4/4/4 6/6/6 7/7/7
f 6/6/6 8/8/8 7/7/7
f 11/11/11 10/10/10 9/9/9
f 12/12/12 11/11/11 9/9/9
f 12/12/12 9/9/9 13/13/13
f 12/12/12 14/14/14 11/11/11
f 14/14/14 15/15/15 11/11/11
f 16/16/16 14/14/14 12/12/12
f 17/17/17 12/12/12 13/13/13
f 17/17/17 16/16/16 12/12/12
f 17/17/17 13/13/13 18/18/18
f 17/17/17 18/18/18 16/16/16
f 13/13/13 19/19/19 18/18/18
f 18/18/18 20/20/20 16/16/16
f 18/18/18 19/19/19 21/21/21
f 18/18/18 21/21/21 20/20/20
f 19/19/19 22/22/22 21/21/21
f 21/21/21 23/23/23 20/20/20
f 21/21/21 22/22/22 24/24/24
f 21/21/21 24/24/24 23/23/23
f 22/22/22 25/25/25 24/24/24
f 24/24/24 26/26/26 23/23/23
f 24/24/24 25/25/25 27/27/27
f 24/24/24 27/27/27 26/26/26
f 25/25/25 28/28/28 27/27/27
f 27/27/27 29/29/29 26/26/26
f 27/27/27 28/28/28 30/30/30
f 27/27/27 30/30/30 29/29/29
f 28/28/28 31/31/31 30/30/30
f 30/30/30 32/32/32 29/29/29
f 35/35/35 34/34/34 33/33/33
f 36/36/36 35/35/35 33/33/33
f 37/37/37 36/36/36 33/33/33
f 38/38/38 37/37/37 33/33/33
f 39/39/39 38/38/38 33/33/33
f 40/40/40 39/39/39 33/33/33
f 43/43/43 42/42/42 41/41/41
f 44/44/44 43/43/43 41/41/41
f 47/47/47 46/46/46 45/45/45
f 48/48/48 47/47/47 45/45/45
f 51/51/51 50/50/50 49/49/49
f 52/52/52 51/51/51 49/49/49
f 55/55/55 54/54/54 53/53/53
f 56/56/56 55/55/55 53/53/53
f 59/59/59 58/58/58 57/57/57
f 60/60/60 59/59/59 57/57/57
f 63/63/63 62/62/62 61/61/61
f 64/64/64 63/63/63 61/61/61
f 67/67/67 66/66/66 65/65/65
f 67/67/67 65/65/65 68/68/68
f 67/67/67 69/69/69 66/66/66
f 67/67/67 68/68/68 70/70/70
f 67/67/67 71/71/71 69/69/69
f 67/67/67 70/70/70 72/72/72
f 67/67/67 73/73/73 71/71/71
f 67/67/67 72/72/72 73/73/73
f 76/76/76 75/75/75 74/74/74
f 74/74/74 75/75/75 77/77/77
f 78/78/78 75/75/75 76/76/76
f 77/77/77 75/75/75 79/79/79
f 80/80/80 75/75/75 78/78/78
f 79/79/79 75/75/75 81/81/81
f 82/82/82 75/75/75 80/80/80
f 81/81/81 75/75/75 82/82/82
