g Color_Cloth_02
v 5.078805 1.877149 -0.6003665
v 4.310287 0 0.01342283
v 4.204529 1.419578 2.212953
v 5.077618 2.957675 1.559581
v 4.543777 3.759346 3.933131
v 4.990304 3.686928 -1.467123
v 4.963237 4.977215 3.255383
v 4.538936 6.138614 5.2747
v 5.053038 4.359563 0.8949695
v 4.881995 6.721585 4.580563
v 4.37849 10.27896 6.837519
v 4.286632 7.646652 3.730882
v 4.605712 6.710488 2.31577
v 4.853215 5.967483 2.700954
v 4.587482 5.72363 0.2128041
v 4.40016 5.139605 -2.537518
vt 0.347482 0.6686971
vt 0.2363703 0.7070685
vt 0.3735472 0.8155361
vt 0.4531759 0.7628518
vt 0.5411879 0.8788024
vt 0.4476992 0.6120977
vt 0.5957096 0.8315206
vt 0.711648 0.9086922
vt 0.5180717 0.7081066
vt 0.730393 0.8655609
vt 0.9610471 0.8828584
vt 0.7673684 0.80819
vt 0.6830232 0.7493699
vt 0.6467278 0.7859339
vt 0.5809556 0.646783
vt 0.5078977 0.5160642
vn 0.9784089 -0.1745821 0.1106219
vn 0.9236378 -0.3002585 0.2381973
vn 0.9084375 -0.333485 0.2520496
vn 0.9729708 -0.177301 0.1479594
vn 0.9221682 -0.2449242 0.2993627
vn 0.9809381 0.1774071 -0.07929187
vn 0.9855086 -0.07493147 0.1521773
vn 0.9338981 -0.143392 0.3275258
vn 0.9886484 0.1417125 -0.04991999
vn 0.9925767 0.08232399 0.08952235
vn 0.9866549 0.159722 -0.0316383
vn 0.9152811 0.3491448 -0.2008938
vn 0.9389534 0.3221512 -0.1207687
vn 0.9744346 0.2118073 -0.07493306
vn 0.9550855 0.2712165 -0.1193867
vn 0.9480428 0.291889 -0.1265525
g Color_Cloth_02_0
f 3/3/3 2/2/2 1/1/1
f 4/4/4 3/3/3 1/1/1
f 5/5/5 3/3/3 4/4/4
f 4/4/4 1/1/1 6/6/6
f 7/7/7 5/5/5 4/4/4
f 8/8/8 5/5/5 7/7/7
f 9/9/9 4/4/4 6/6/6
f 7/7/7 4/4/4 9/9/9
f 10/10/10 8/8/8 7/7/7
f 11/11/11 8/8/8 10/10/10
f 11/11/11 10/10/10 12/12/12
f 12/12/12 10/10/10 13/13/13
f 10/10/10 7/7/7 14/14/14
f 10/10/10 14/14/14 13/13/13
f 14/14/14 7/7/7 9/9/9
f 13/13/13 14/14/14 15/15/15
f 14/14/14 9/9/9 15/15/15
f 9/9/9 6/6/6 15/15/15
f 15/15/15 6/6/6 16/16/16
