g Connect
v -0.6666666 -1.333333 1.333333
v -1.154701 -1.154701 1.154701
v -1.333333 -0.6666666 1.333333
v -0.8164966 -0.8164966 1.632993
v 0 -1.414214 1.414214
v -1.414214 0 1.414214
v 0 -0.8944272 1.788854
v 0.6666666 -1.333333 1.333333
v -0.8944272 0 1.788854
v -1.333333 0.6666666 1.333333
v 0.8164966 -0.8164966 1.632993
v 1.154701 -1.154701 1.154701
v 1.333333 -0.6666666 1.333333
v 0 0 2
v -0.8164966 0.8164966 1.632993
v -1.154701 1.154701 1.154701
v -0.6666666 1.333333 1.333333
v 0.8944272 0 1.788854
v 1.414214 0 1.414214
v 0 0.8944272 1.788854
v 0 1.414214 1.414214
v 0.8164966 0.8164966 1.632993
v 1.333333 0.6666666 1.333333
v 0.6666666 1.333333 1.333333
v 1.154701 1.154701 1.154701
v 1.333333 -1.333333 0.6666666
v 1.154701 -1.154701 1.154701
v 1.333333 -0.6666666 1.333333
v 1.632993 -0.8164966 0.8164966
v 1.414214 -1.414214 0
v 1.414214 0 1.414214
v 1.788854 -0.8944272 0
v 1.333333 -1.333333 -0.6666666
v 1.788854 0 0.8944272
v 1.333333 0.6666666 1.333333
v 1.632993 -0.8164966 -0.8164966
v 1.154701 -1.154701 -1.154701
v 1.333333 -0.6666666 -1.333333
v 2 0 0
v 1.632993 0.8164966 0.8164966
v 1.154701 1.154701 1.154701
v 1.333333 1.333333 0.6666666
v 1.788854 0 -0.8944272
v 1.414214 0 -1.414214
v 1.788854 0.8944272 0
v 1.414214 1.414214 0
v 1.632993 0.8164966 -0.8164966
v 1.333333 0.6666666 -1.333333
v 1.333333 1.333333 -0.6666666
v 1.154701 1.154701 -1.154701
v 0.6666666 -1.333333 -1.333333
v 1.154701 -1.154701 -1.154701
v 1.333333 -0.6666666 -1.333333
v 0.8164966 -0.8164966 -1.632993
v 0 -1.414214 -1.414214
v 1.414214 0 -1.414214
v 0 -0.8944272 -1.788854
v -0.6666666 -1.333333 -1.333333
v 0.8944272 0 -1.788854
v 1.333333 0.6666666 -1.333333
v -0.8164966 -0.8164966 -1.632993
v -1.154701 -1.154701 -1.154701
v -1.333333 -0.6666666 -1.333333
v 0 0 -2
v 0.8164966 0.8164966 -1.632993
v 1.154701 1.154701 -1.154701
v 0.6666666 1.333333 -1.333333
v -0.8944272 0 -1.788854
v -1.414214 0 -1.414214
v 0 0.8944272 -1.788854
v 0 1.414214 -1.414214
v -0.8164966 0.8164966 -1.632993
v -1.333333 0.6666666 -1.333333
v -0.6666666 1.333333 -1.333333
v -1.154701 1.154701 -1.154701
v -1.333333 -1.333333 -0.6666666
v -1.154701 -1.154701 -1.154701
v -1.333333 -0.6666666 -1.333333
v -1.632993 -0.8164966 -0.8164966
v -1.414214 -1.414214 0
v -1.414214 0 -1.414214
v -1.788854 -0.8944272 0
v -1.333333 -1.333333 0.6666666
v -1.788854 0 -0.8944272
v -1.333333 0.6666666 -1.333333
v -1.632993 -0.8164966 0.8164966
v -1.154701 -1.154701 1.154701
v -1.333333 -0.6666666 1.333333
v -2 0 0
v -1.632993 0.8164966 -0.8164966
v -1.154701 1.154701 -1.154701
v -1.333333 1.333333 -0.6666666
v -1.788854 0 0.8944272
v -1.414214 0 1.414214
v -1.788854 0.8944272 0
v -1.414214 1.414214 0
v -1.632993 0.8164966 0.8164966
v -1.333333 0.6666666 1.333333
v -1.333333 1.333333 0.6666666
v -1.154701 1.154701 1.154701
v -0.6666666 1.333333 1.333333
v -1.154701 1.154701 1.154701
v -1.333333 1.333333 0.6666666
v -0.8164966 1.632993 0.8164966
v 0 1.414214 1.414214
v -1.414214 1.414214 0
v 0 1.788854 0.8944272
v 0.6666666 1.333333 1.333333
v -0.8944272 1.788854 0
v -1.333333 1.333333 -0.6666666
v 0.8164966 1.632993 0.8164966
v 1.154701 1.154701 1.154701
v 1.333333 1.333333 0.6666666
v 0 2 0
v -0.8164966 1.632993 -0.8164966
v -1.154701 1.154701 -1.154701
v -0.6666666 1.333333 -1.333333
v 0.8944272 1.788854 0
v 1.414214 1.414214 0
v 0 1.788854 -0.8944272
v 0 1.414214 -1.414214
v 0.8164966 1.632993 -0.8164966
v 1.333333 1.333333 -0.6666666
v 0.6666666 1.333333 -1.333333
v 1.154701 1.154701 -1.154701
v -0.6666666 -1.333333 -1.333333
v -1.154701 -1.154701 -1.154701
v -1.333333 -1.333333 -0.6666666
v -0.8164966 -1.632993 -0.8164966
v 0 -1.414214 -1.414214
v -1.414214 -1.414214 0
v 0 -1.788854 -0.8944272
v 0.6666666 -1.333333 -1.333333
v -0.8944272 -1.788854 0
v -1.333333 -1.333333 0.6666666
v 0.8164966 -1.632993 -0.8164966
v 1.154701 -1.154701 -1.154701
v 1.333333 -1.333333 -0.6666666
v 0 -2 0
v -0.8164966 -1.632993 0.8164966
v -1.154701 -1.154701 1.154701
v -0.6666666 -1.333333 1.333333
v 0.8944272 -1.788854 0
v 1.414214 -1.414214 0
v 0 -1.788854 0.8944272
v 0 -1.414214 1.414214
v 0.8164966 -1.632993 0.8164966
v 1.333333 -1.333333 0.6666666
v 0.6666666 -1.333333 1.333333
v 1.154701 -1.154701 1.154701
vt 0.25 0
vt 0 0
vt 0 0.25
vt 0.25 0.25
vt 0.5 0
vt 0 0.5
vt 0.5 0.25
vt 0.75 0
vt 0.25 0.5
vt 0 0.75
vt 0.75 0.25
vt 1 0
vt 1 0.25
vt 0.5 0.5
vt 0.25 0.75
vt 0 1
vt 0.25 1
vt 0.75 0.5
vt 1 0.5
vt 0.5 0.75
vt 0.5 1
vt 0.75 0.75
vt 1 0.75
vt 0.75 1
vt 1 1
vt 0.25 0
vt 0 0
vt 0 0.25
vt 0.25 0.25
vt 0.5 0
vt 0 0.5
vt 0.5 0.25
vt 0.75 0
vt 0.25 0.5
vt 0 0.75
vt 0.75 0.25
vt 1 0
vt 1 0.25
vt 0.5 0.5
vt 0.25 0.75
vt 0 1
vt 0.25 1
vt 0.75 0.5
vt 1 0.5
vt 0.5 0.75
vt 0.5 1
vt 0.75 0.75
vt 1 0.75
vt 0.75 1
vt 1 1
vt 0.25 0
vt 0 0
vt 0 0.25
vt 0.25 0.25
vt 0.5 0
vt 0 0.5
vt 0.5 0.25
vt 0.75 0
vt 0.25 0.5
vt 0 0.75
vt 0.75 0.25
vt 1 0
vt 1 0.25
vt 0.5 0.5
vt 0.25 0.75
vt 0 1
vt 0.25 1
vt 0.75 0.5
vt 1 0.5
vt 0.5 0.75
vt 0.5 1
vt 0.75 0.75
vt 1 0.75
vt 0.75 1
vt 1 1
vt 0.25 0
vt 0 0
vt 0 0.25
vt 0.25 0.25
vt 0.5 0
vt 0 0.5
vt 0.5 0.25
vt 0.75 0
vt 0.25 0.5
vt 0 0.75
vt 0.75 0.25
vt 1 0
vt 1 0.25
vt 0.5 0.5
vt 0.25 0.75
vt 0 1
vt 0.25 1
vt 0.75 0.5
vt 1 0.5
vt 0.5 0.75
vt 0.5 1
vt 0.75 0.75
vt 1 0.75
vt 0.75 1
vt 1 1
vt 0.25 0
vt 0 0
vt 0 0.25
vt 0.25 0.25
vt 0.5 0
vt 0 0.5
vt 0.5 0.25
vt 0.75 0
vt 0.25 0.5
vt 0 0.75
vt 0.75 0.25
vt 1 0
vt 1 0.25
vt 0.5 0.5
vt 0.25 0.75
vt 0 1
vt 0.25 1
vt 0.75 0.5
vt 1 0.5
vt 0.5 0.75
vt 0.5 1
vt 0.75 0.75
vt 1 0.75
vt 0.75 1
vt 1 1
vt 0.25 0
vt 0 0
vt 0 0.25
vt 0.25 0.25
vt 0.5 0
vt 0 0.5
vt 0.5 0.25
vt 0.75 0
vt 0.25 0.5
vt 0 0.75
vt 0.75 0.25
vt 1 0
vt 1 0.25
vt 0.5 0.5
vt 0.25 0.75
vt 0 1
vt 0.25 1
vt 0.75 0.5
vt 1 0.5
vt 0.5 0.75
vt 0.5 1
vt 0.75 0.75
vt 1 0.75
vt 0.75 1
vt 1 1
vn -0.3541479 -0.6612788 0.6612788
vn -0.5773503 -0.5773503 0.5773503
vn -0.6612788 -0.3541479 0.6612788
vn -0.37613 -0.3761302 0.8467894
vn 0 -0.7071068 0.7071068
vn -0.7071068 0 0.7071068
vn 0 -0.3995704 0.9167025
vn 0.3541479 -0.6612788 0.6612788
vn -0.3995704 0 0.9167025
vn -0.6612788 0.3541479 0.6612788
vn 0.3761301 -0.3761302 0.8467894
vn 0.5773503 -0.5773503 0.5773503
vn 0.6612788 -0.3541479 0.6612788
vn 0 0 1
vn -0.3761301 0.3761301 0.8467894
vn -0.5773503 0.5773503 0.5773503
vn -0.3541479 0.6612788 0.6612788
vn 0.3995704 0 0.9167025
vn 0.7071068 0 0.7071068
vn 0 0.3995704 0.9167025
vn 0 0.7071068 0.7071068
vn 0.3761301 0.3761301 0.8467894
vn 0.6612788 0.3541479 0.6612788
vn 0.3541479 0.6612788 0.6612788
vn 0.5773503 0.5773503 0.5773503
vn 0.6612788 -0.6612788 0.3541479
vn 0.5773503 -0.5773503 0.5773503
vn 0.6612788 -0.3541479 0.6612788
vn 0.8467894 -0.3761302 0.37613
vn 0.7071068 -0.7071068 0
vn 0.7071068 0 0.7071068
vn 0.9167025 -0.3995704 0
vn 0.6612788 -0.6612788 -0.3541479
vn 0.9167025 0 0.3995704
vn 0.6612788 0.3541479 0.6612788
vn 0.8467894 -0.3761302 -0.3761301
vn 0.5773503 -0.5773503 -0.5773503
vn 0.6612788 -0.3541479 -0.6612788
vn 1 0 0
vn 0.8467894 0.3761301 0.3761301
vn 0.5773503 0.5773503 0.5773503
vn 0.6612788 0.6612788 0.3541479
vn 0.9167025 0 -0.3995704
vn 0.7071068 0 -0.7071068
vn 0.9167025 0.3995704 0
vn 0.7071068 0.7071068 0
vn 0.8467894 0.3761301 -0.3761301
vn 0.6612788 0.3541479 -0.6612788
vn 0.6612788 0.6612788 -0.3541479
vn 0.5773503 0.5773503 -0.5773503
vn 0.3541479 -0.6612788 -0.6612788
vn 0.5773503 -0.5773503 -0.5773503
vn 0.6612788 -0.3541479 -0.6612788
vn 0.37613 -0.3761302 -0.8467894
vn 0 -0.7071068 -0.7071068
vn 0.7071068 0 -0.7071068
vn 0 -0.3995704 -0.9167025
vn -0.3541479 -0.6612788 -0.6612788
vn 0.3995704 0 -0.9167025
vn 0.6612788 0.3541479 -0.6612788
vn -0.3761301 -0.3761302 -0.8467894
vn -0.5773503 -0.5773503 -0.5773503
vn -0.6612788 -0.3541479 -0.6612788
vn 0 0 -1
vn 0.3761301 0.3761301 -0.8467894
vn 0.5773503 0.5773503 -0.5773503
vn 0.3541479 0.6612788 -0.6612788
vn -0.3995704 0 -0.9167025
vn -0.7071068 0 -0.7071068
vn 0 0.3995704 -0.9167025
vn 0 0.7071068 -0.7071068
vn -0.3761301 0.3761301 -0.8467894
vn -0.6612788 0.3541479 -0.6612788
vn -0.3541479 0.6612788 -0.6612788
vn -0.5773503 0.5773503 -0.5773503
vn -0.6612788 -0.6612788 -0.3541479
vn -0.5773503 -0.5773503 -0.5773503
vn -0.6612788 -0.3541479 -0.6612788
vn -0.8467894 -0.3761302 -0.37613
vn -0.7071068 -0.7071068 0
vn -0.7071068 0 -0.7071068
vn -0.9167025 -0.3995704 0
vn -0.6612788 -0.6612788 0.3541479
vn -0.9167025 0 -0.3995704
vn -0.6612788 0.3541479 -0.6612788
vn -0.8467894 -0.3761302 0.3761301
vn -0.5773503 -0.5773503 0.5773503
vn -0.6612788 -0.3541479 0.6612788
vn -1 0 0
vn -0.8467894 0.3761301 -0.3761301
vn -0.5773503 0.5773503 -0.5773503
vn -0.6612788 0.6612788 -0.3541479
vn -0.9167025 0 0.3995704
vn -0.7071068 0 0.7071068
vn -0.9167025 0.3995704 0
vn -0.7071068 0.7071068 0
vn -0.8467894 0.3761301 0.3761301
vn -0.6612788 0.3541479 0.6612788
vn -0.6612788 0.6612788 0.3541479
vn -0.5773503 0.5773503 0.5773503
vn -0.3541479 0.6612788 0.6612788
vn -0.5773503 0.5773503 0.5773503
vn -0.6612788 0.6612788 0.3541479
vn -0.37613 0.8467894 0.3761302
vn 0 0.7071068 0.7071068
vn -0.7071068 0.7071068 0
vn 0 0.9167025 0.3995704
vn 0.3541479 0.6612788 0.6612788
vn -0.3995704 0.9167025 0
vn -0.6612788 0.6612788 -0.3541479
vn 0.3761301 0.8467894 0.3761302
vn 0.5773503 0.5773503 0.5773503
vn 0.6612788 0.6612788 0.3541479
vn 0 1 0
vn -0.3761301 0.8467894 -0.3761301
vn -0.5773503 0.5773503 -0.5773503
vn -0.3541479 0.6612788 -0.6612788
vn 0.3995704 0.9167025 0
vn 0.7071068 0.7071068 0
vn 0 0.9167025 -0.3995704
vn 0 0.7071068 -0.7071068
vn 0.3761301 0.8467894 -0.3761301
vn 0.6612788 0.6612788 -0.3541479
vn 0.3541479 0.6612788 -0.6612788
vn 0.5773503 0.5773503 -0.5773503
vn -0.3541479 -0.6612788 -0.6612788
vn -0.5773503 -0.5773503 -0.5773503
vn -0.6612788 -0.6612788 -0.3541479
vn -0.37613 -0.8467894 -0.3761302
vn 0 -0.7071068 -0.7071068
vn -0.7071068 -0.7071068 0
vn 0 -0.9167025 -0.3995704
vn 0.3541479 -0.6612788 -0.6612788
vn -0.3995704 -0.9167025 0
vn -0.6612788 -0.6612788 0.3541479
vn 0.3761301 -0.8467894 -0.3761302
vn 0.5773503 -0.5773503 -0.5773503
vn 0.6612788 -0.6612788 -0.3541479
vn 0 -1 0
vn -0.3761301 -0.8467894 0.3761301
vn -0.5773503 -0.5773503 0.5773503
vn -0.3541479 -0.6612788 0.6612788
vn 0.3995704 -0.9167025 0
vn 0.7071068 -0.7071068 0
vn 0 -0.9167025 0.3995704
vn 0 -0.7071068 0.7071068
vn 0.3761301 -0.8467894 0.3761301
vn 0.6612788 -0.6612788 0.3541479
vn 0.3541479 -0.6612788 0.6612788
vn 0.5773503 -0.5773503 0.5773503
g Connect_0
f 3/3/3 2/2/2 1/1/1
f 4/4/4 3/3/3 1/1/1
f 4/4/4 1/1/1 5/5/5
f 6/6/6 3/3/3 4/4/4
f 7/7/7 4/4/4 5/5/5
f 7/7/7 5/5/5 8/8/8
f 9/9/9 6/6/6 4/4/4
f 9/9/9 4/4/4 7/7/7
f 10/10/10 6/6/6 9/9/9
f 11/11/11 7/7/7 8/8/8
f 11/11/11 8/8/8 12/12/12
f 13/13/13 11/11/11 12/12/12
f 14/14/14 9/9/9 7/7/7
f 14/14/14 7/7/7 11/11/11
f 15/15/15 10/10/10 9/9/9
f 15/15/15 9/9/9 14/14/14
f 16/16/16 10/10/10 15/15/15
f 17/17/17 16/16/16 15/15/15
f 18/18/18 11/11/11 13/13/13
f 18/18/18 14/14/14 11/11/11
f 19/19/19 18/18/18 13/13/13
f 20/20/20 15/15/15 14/14/14
f 17/17/17 15/15/15 20/20/20
f 20/20/20 14/14/14 18/18/18
f 21/21/21 17/17/17 20/20/20
f 22/22/22 18/18/18 19/19/19
f 22/22/22 20/20/20 18/18/18
f 21/21/21 20/20/20 22/22/22
f 23/23/23 22/22/22 19/19/19
f 24/24/24 21/21/21 22/22/22
f 24/24/24 22/22/22 23/23/23
f 25/25/25 24/24/24 23/23/23
f 28/28/28 27/27/27 26/26/26
f 29/29/29 28/28/28 26/26/26
f 29/29/29 26/26/26 30/30/30
f 31/31/31 28/28/28 29/29/29
f 32/32/32 29/29/29 30/30/30
f 32/32/32 30/30/30 33/33/33
f 34/34/34 31/31/31 29/29/29
f 34/34/34 29/29/29 32/32/32
f 35/35/35 31/31/31 34/34/34
f 36/36/36 32/32/32 33/33/33
f 36/36/36 33/33/33 37/37/37
f 38/38/38 36/36/36 37/37/37
f 39/39/39 34/34/34 32/32/32
f 39/39/39 32/32/32 36/36/36
f 40/40/40 35/35/35 34/34/34
f 40/40/40 34/34/34 39/39/39
f 41/41/41 35/35/35 40/40/40
f 42/42/42 41/41/41 40/40/40
f 43/43/43 36/36/36 38/38/38
f 43/43/43 39/39/39 36/36/36
f 44/44/44 43/43/43 38/38/38
f 45/45/45 40/40/40 39/39/39
f 42/42/42 40/40/40 45/45/45
f 45/45/45 39/39/39 43/43/43
f 46/46/46 42/42/42 45/45/45
f 47/47/47 43/43/43 44/44/44
f 47/47/47 45/45/45 43/43/43
f 46/46/46 45/45/45 47/47/47
f 48/48/48 47/47/47 44/44/44
f 49/49/49 46/46/46 47/47/47
f 49/49/49 47/47/47 48/48/48
f 50/50/50 49/49/49 48/48/48
f 53/53/53 52/52/52 51/51/51
f 54/54/54 53/53/53 51/51/51
f 54/54/54 51/51/51 55/55/55
f 56/56/56 53/53/53 54/54/54
f 57/57/57 54/54/54 55/55/55
f 57/57/57 55/55/55 58/58/58
f 59/59/59 56/56/56 54/54/54
f 59/59/59 54/54/54 57/57/57
f 60/60/60 56/56/56 59/59/59
f 61/61/61 57/57/57 58/58/58
f 61/61/61 58/58/58 62/62/62
f 63/63/63 61/61/61 62/62/62
f 64/64/64 59/59/59 57/57/57
f 64/64/64 57/57/57 61/61/61
f 65/65/65 60/60/60 59/59/59
f 65/65/65 59/59/59 64/64/64
f 66/66/66 60/60/60 65/65/65
f 67/67/67 66/66/66 65/65/65
f 68/68/68 61/61/61 63/63/63
f 68/68/68 64/64/64 61/61/61
f 69/69/69 68/68/68 63/63/63
f 70/70/70 65/65/65 64/64/64
f 67/67/67 65/65/65 70/70/70
f 70/70/70 64/64/64 68/68/68
f 71/71/71 67/67/67 70/70/70
f 72/72/72 68/68/68 69/69/69
f 72/72/72 70/70/70 68/68/68
f 71/71/71 70/70/70 72/72/72
f 73/73/73 72/72/72 69/69/69
f 74/74/74 71/71/71 72/72/72
f 74/74/74 72/72/72 73/73/73
f 75/75/75 74/74/74 73/73/73
f 78/78/78 77/77/77 76/76/76
f 79/79/79 78/78/78 76/76/76
f 79/79/79 76/76/76 80/80/80
f 81/81/81 78/78/78 79/79/79
f 82/82/82 79/79/79 80/80/80
f 82/82/82 80/80/80 83/83/83
f 84/84/84 81/81/81 79/79/79
f 84/84/84 79/79/79 82/82/82
f 85/85/85 81/81/81 84/84/84
f 86/86/86 82/82/82 83/83/83
f 86/86/86 83/83/83 87/87/87
f 88/88/88 86/86/86 87/87/87
f 89/89/89 84/84/84 82/82/82
f 89/89/89 82/82/82 86/86/86
f 90/90/90 85/85/85 84/84/84
f 90/90/90 84/84/84 89/89/89
f 91/91/91 85/85/85 90/90/90
f 92/92/92 91/91/91 90/90/90
f 93/93/93 86/86/86 88/88/88
f 93/93/93 89/89/89 86/86/86
f 94/94/94 93/93/93 88/88/88
f 95/95/95 90/90/90 89/89/89
f 92/92/92 90/90/90 95/95/95
f 95/95/95 89/89/89 93/93/93
f 96/96/96 92/92/92 95/95/95
f 97/97/97 93/93/93 94/94/94
f 97/97/97 95/95/95 93/93/93
f 96/96/96 95/95/95 97/97/97
f 98/98/98 97/97/97 94/94/94
f 99/99/99 96/96/96 97/97/97
f 99/99/99 97/97/97 98/98/98
f 100/100/100 99/99/99 98/98/98
f 103/103/103 102/102/102 101/101/101
f 104/104/104 103/103/103 101/101/101
f 104/104/104 101/101/101 105/105/105
f 106/106/106 103/103/103 104/104/104
f 107/107/107 104/104/104 105/105/105
f 107/107/107 105/105/105 108/108/108
f 109/109/109 106/106/106 104/104/104
f 109/109/109 104/104/104 107/107/107
f 110/110/110 106/106/106 109/109/109
f 111/111/111 107/107/107 108/108/108
f 111/111/111 108/108/108 112/112/112
f 113/113/113 111/111/111 112/112/112
f 114/114/114 109/109/109 107/107/107
f 114/114/114 107/107/107 111/111/111
f 115/115/115 110/110/110 109/109/109
f 115/115/115 109/109/109 114/114/114
f 116/116/116 110/110/110 115/115/115
f 117/117/117 116/116/116 115/115/115
f 118/118/118 111/111/111 113/113/113
f 118/118/118 114/114/114 111/111/111
f 119/119/119 118/118/118 113/113/113
f 120/120/120 115/115/115 114/114/114
f 117/117/117 115/115/115 120/120/120
f 120/120/120 114/114/114 118/118/118
f 121/121/121 117/117/117 120/120/120
f 122/122/122 118/118/118 119/119/119
f 122/122/122 120/120/120 118/118/118
f 121/121/121 120/120/120 122/122/122
f 123/123/123 122/122/122 119/119/119
f 124/124/124 121/121/121 122/122/122
f 124/124/124 122/122/122 123/123/123
f 125/125/125 124/124/124 123/123/123
f 128/128/128 127/127/127 126/126/126
f 129/129/129 128/128/128 126/126/126
f 129/129/129 126/126/126 130/130/130
f 131/131/131 128/128/128 129/129/129
f 132/132/132 129/129/129 130/130/130
f 132/132/132 130/130/130 133/133/133
f 134/134/134 131/131/131 129/129/129
f 134/134/134 129/129/129 132/132/132
f 135/135/135 131/131/131 134/134/134
f 136/136/136 132/132/132 133/133/133
f 136/136/136 133/133/133 137/137/137
f 138/138/138 136/136/136 137/137/137
f 139/139/139 134/134/134 132/132/132
f 139/139/139 132/132/132 136/136/136
f 140/140/140 135/135/135 134/134/134
f 140/140/140 134/134/134 139/139/139
f 141/141/141 135/135/135 140/140/140
f 142/142/142 141/141/141 140/140/140
f 143/143/143 136/136/136 138/138/138
f 143/143/143 139/139/139 136/136/136
f 144/144/144 143/143/143 138/138/138
f 145/145/145 140/140/140 139/139/139
f 142/142/142 140/140/140 145/145/145
f 145/145/145 139/139/139 143/143/143
f 146/146/146 142/142/142 145/145/145
f 147/147/147 143/143/143 144/144/144
f 147/147/147 145/145/145 143/143/143
f 146/146/146 145/145/145 147/147/147
f 148/148/148 147/147/147 144/144/144
f 149/149/149 146/146/146 147/147/147
f 149/149/149 147/147/147 148/148/148
f 150/150/150 149/149/149 148/148/148
