g Cylinder030
v 2.373183 3.824366 -8.051948
v 0.2359195 1.113792 -9.418778
v 3.773867 1.373702 -10.72264
v 0.2359195 1.113792 -9.418778
v 2.373183 3.824366 -8.051948
v -0.7643479 2.890169 -7.26769
v 2.37317 -3.824356 -8.051953
v 0.2359061 -1.113764 -9.418787
v -0.7643609 -2.890149 -7.267698
v 0.2359061 -1.113764 -9.418787
v 2.37317 -3.824356 -8.051953
v 3.77386 -1.373677 -10.72265
v 1.542447 3.841156 -0.6948147
v -0.7643479 2.890169 -7.26769
v 2.373183 3.824366 -8.051948
v -0.7643479 2.890169 -7.26769
v 1.542447 3.841156 -0.6948147
v -1.596025 2.87522 -0.5905987
v -1.596038 -2.875197 -0.5906062
v 2.37317 -3.824356 -8.051953
v -0.7643609 -2.890149 -7.267698
v 2.37317 -3.824356 -8.051953
v -1.596038 -2.875197 -0.5906062
v 1.542434 -3.841145 -0.6948209
v 0.2359195 1.113792 -9.418778
v 3.77386 -1.373677 -10.72265
v 3.773867 1.373702 -10.72264
v 0.2359061 -1.113764 -9.418787
v -0.7643479 2.890169 -7.26769
v 0.2359061 -1.113764 -9.418787
v 0.2359195 1.113792 -9.418778
v -0.7643609 -2.890149 -7.267698
v 3.77386 -1.373677 -10.72265
v 2.373183 3.824366 -8.051948
v 3.773867 1.373702 -10.72264
v 2.37317 -3.824356 -8.051953
v -1.596025 2.87522 -0.5905987
v -0.7643609 -2.890149 -7.267698
v -0.7643479 2.890169 -7.26769
v -1.596038 -2.875197 -0.5906062
v 1.542434 -3.841145 -0.6948209
v 2.373183 3.824366 -8.051948
v 2.37317 -3.824356 -8.051953
v 1.542447 3.841156 -0.6948147
v -1.596025 2.87522 -0.5905987
v -0.9819165 -3.051975 0.6121271
v -1.596038 -2.875197 -0.5906062
v -0.9819093 3.051995 0.6121347
v -1.596038 -2.875197 -0.5906062
v 0.9819257 -3.655244 0.6121297
v 1.542434 -3.841145 -0.6948209
v -0.9819165 -3.051975 0.6121271
v 0.004507507 -3.35499 0.9988348
v 1.542434 -3.841145 -0.6948209
v 0.9819327 3.655277 0.6121361
v 1.542447 3.841156 -0.6948147
v 0.9819257 -3.655244 0.6121297
v 1.542447 3.841156 -0.6948147
v -0.9819093 3.051995 0.6121347
v -1.596025 2.87522 -0.5905987
v 0.9819327 3.655277 0.6121361
v 0.00450887 3.35503 0.9988419
v -0.9819093 3.051995 0.6121347
v 0.004507507 -3.35499 0.9988348
v -0.9819165 -3.051975 0.6121271
v 0.00450887 3.35503 0.9988419
v 0.9819257 -3.655244 0.6121297
v 0.00450887 3.35503 0.9988419
v 0.9819327 3.655277 0.6121361
v 0.004507507 -3.35499 0.9988348
vt 0.3174027 0.2492073
vt 0.3457487 0.251393
vt 0.3397675 0.2225548
vt 0.3457487 0.251393
vt 0.3174027 0.2492073
vt 0.3351681 0.2657878
vt 0.3887524 0.2481258
vt 0.3602656 0.2510602
vt 0.3713123 0.2656423
vt 0.3602656 0.2510602
vt 0.3887524 0.2481258
vt 0.3657809 0.2220306
vt 0.3085322 0.3061134
vt 0.3351681 0.2657878
vt 0.3174027 0.2492073
vt 0.3351681 0.2657878
vt 0.3085322 0.3061134
vt 0.3325429 0.3122553
vt 0.3737433 0.3122141
vt 0.3887524 0.2481258
vt 0.3713123 0.2656423
vt 0.3887524 0.2481258
vt 0.3737433 0.3122141
vt 0.3972862 0.3048105
vt 0.3457487 0.251393
vt 0.3657809 0.2220306
vt 0.3397675 0.2225548
vt 0.3602656 0.2510602
vt 0.3351681 0.2657878
vt 0.3602656 0.2510602
vt 0.3457487 0.251393
vt 0.3713123 0.2656423
vt 0.01942015 0.9718227
vt 0.01250529 0.9738726
vt 0.01481024 0.9718227
vt 0.02172512 0.9738726
vt 0.3325429 0.3122553
vt 0.3713123 0.2656423
vt 0.3351681 0.2657878
vt 0.3737433 0.3122141
vt 0.02174534 0.9798288
vt 0.01250529 0.9738726
vt 0.02172512 0.9738726
vt 0.01248504 0.9798288
vt 0.01746885 0.9745446
vt 0.0229045 0.9776095
vt 0.02312617 0.9762291
vt 0.01689933 0.9758214
vt 0.02191071 0.9798207
vt 0.02247177 0.9827961
vt 0.02391963 0.9825295
vt 0.02126996 0.9810632
vt 0.02154742 0.9821599
vt 0.02264605 0.9813163
vt 0.01568751 0.9777212
vt 0.01508807 0.9790658
vt 0.0228797 0.9798627
vt 0.01347558 0.9793385
vt 0.01639543 0.9801417
vt 0.01680557 0.9788051
vt 0.01432477 0.9805411
vt 0.01543055 0.9807321
vt 0.01689933 0.9758214
vt 0.02289222 0.9787406
vt 0.0229045 0.9776095
vt 0.01629083 0.976775
vt 0.0228797 0.9798627
vt 0.01629083 0.976775
vt 0.01568751 0.9777212
vt 0.02289222 0.9787406
vn -0.3125615 0.6125484 -0.7260094
vn -0.3125614 0.6125485 -0.7260094
vn -0.3125614 0.6125484 -0.7260094
vn -0.3596587 0.630455 -0.6878751
vn -0.3596587 0.630455 -0.6878751
vn -0.3596587 0.6304549 -0.6878752
vn -0.3596599 -0.630453 -0.6878762
vn -0.35966 -0.630453 -0.6878762
vn -0.3596599 -0.630453 -0.6878762
vn -0.312561 -0.612546 -0.7260116
vn -0.312561 -0.6125461 -0.7260116
vn -0.312561 -0.6125461 -0.7260116
vn -0.2932844 0.9553735 -0.03529666
vn -0.2932844 0.9553735 -0.03529666
vn -0.2932844 0.9553735 -0.03529666
vn -0.2950296 0.9548612 -0.03461007
vn -0.2950295 0.9548612 -0.03461007
vn -0.2950295 0.9548612 -0.03461007
vn -0.2930831 -0.9554691 -0.0343659
vn -0.2930831 -0.9554691 -0.0343659
vn -0.2930831 -0.9554691 -0.03436591
vn -0.2950503 -0.9548221 -0.03549474
vn -0.2950504 -0.9548221 -0.03549474
vn -0.2950504 -0.9548221 -0.03549475
vn -0.3458015 0 -0.9383077
vn -0.3458015 0 -0.9383077
vn -0.3458015 0 -0.9383077
vn -0.3457992 0 -0.9383085
vn -0.9067574 0 -0.4216526
vn -0.9067574 0 -0.4216526
vn -0.9067574 0 -0.4216526
vn -0.9067606 0 -0.421646
vn 0.8855923 0 0.4644634
vn 0.8855923 0 0.4644634
vn 0.8855923 0 0.4644634
vn 0.8855928 0 0.4644625
vn -0.9923319 0 -0.1236016
vn -0.9923319 0 -0.1236016
vn -0.9923319 0 -0.1236016
vn -0.9923319 0 -0.1236016
vn 0.9936853 0 0.1122027
vn 0.9936853 0 0.1122027
vn 0.9936853 0 0.1122027
vn 0.9936853 0 0.1122027
vn -0.8906174 0 0.4547534
vn -0.8906174 0 0.4547534
vn -0.8906174 0 0.4547534
vn -0.8906192 0 0.45475
vn -0.2938434 -0.9558019 0.009933672
vn -0.2938434 -0.9558019 0.009933672
vn -0.2938434 -0.9558019 0.009933673
vn -0.2936326 -0.9558718 0.009436404
vn -0.2936457 -0.9559143 0
vn 0.9190453 0 0.394152
vn 0.9190453 0 0.394152
vn 0.9190453 0 0.3941519
vn 0.9190465 0 0.3941492
vn -0.2938527 0.9558029 0.009559291
vn -0.2938527 0.9558029 0.009559291
vn -0.2938527 0.9558029 0.009559292
vn -0.2936369 0.9558647 0.01001335
vn -0.2936516 0.9559125 -3.031275E-05
vn -0.3649853 0 0.9310133
vn -0.3649853 0 0.9310133
vn -0.3649853 0 0.9310133
vn -0.3649864 0 0.9310129
vn 0.3678916 0 0.9298687
vn 0.3678915 0 0.9298687
vn 0.3678916 0 0.9298687
vn 0.3678922 0 0.9298685
g Cylinder030_0
f 3/3/3 2/2/2 1/1/1
f 6/6/6 5/5/5 4/4/4
f 9/9/9 8/8/8 7/7/7
f 12/12/12 11/11/11 10/10/10
f 15/15/15 14/14/14 13/13/13
f 18/18/18 17/17/17 16/16/16
f 21/21/21 20/20/20 19/19/19
f 24/24/24 23/23/23 22/22/22
f 27/27/27 26/26/26 25/25/25
f 28/28/28 25/25/25 26/26/26
f 31/31/31 30/30/30 29/29/29
f 32/32/32 29/29/29 30/30/30
f 35/35/35 34/34/34 33/33/33
f 36/36/36 33/33/33 34/34/34
f 39/39/39 38/38/38 37/37/37
f 40/40/40 37/37/37 38/38/38
f 43/43/43 42/42/42 41/41/41
f 44/44/44 41/41/41 42/42/42
f 47/47/47 46/46/46 45/45/45
f 48/48/48 45/45/45 46/46/46
f 51/51/51 50/50/50 49/49/49
f 52/52/52 49/49/49 50/50/50
f 50/50/50 53/53/53 52/52/52
f 56/56/56 55/55/55 54/54/54
f 57/57/57 54/54/54 55/55/55
f 60/60/60 59/59/59 58/58/58
f 61/61/61 58/58/58 59/59/59
f 59/59/59 62/62/62 61/61/61
f 65/65/65 64/64/64 63/63/63
f 66/66/66 63/63/63 64/64/64
f 69/69/69 68/68/68 67/67/67
f 70/70/70 67/67/67 68/68/68
