g Cylinder025
v -13.13472 -27.56542 12.96363
v 13.1347 -24.51736 -4.322977
v -13.13471 -24.5173 -4.32309
v 13.1347 -27.56548 12.96374
v -13.13472 -23.44134 31.56621
v 13.1347 -23.4414 31.56632
v -13.13472 -7.37117 41.80403
v 13.1347 -7.371231 41.80415
v -13.13472 11.23139 37.67995
v 13.1347 11.23133 37.68006
v -13.13471 21.46922 21.60977
v 13.1347 21.46916 21.60988
v -13.13471 24.51734 4.323047
v 13.13471 24.51728 4.32316
v -13.13471 -24.5173 -4.32309
v -13.13471 2.042432E-05 -2.222549E-05
v -13.13472 -27.56542 12.96363
v -13.13472 -23.44134 31.56621
v -13.13472 -7.37117 41.80403
v -13.13472 11.23139 37.67995
v -13.13471 21.46922 21.60977
v -13.13471 24.51734 4.323047
v 13.1347 -27.56548 12.96374
v 13.13471 -4.035917E-05 9.127161E-05
v 13.1347 -24.51736 -4.322977
v 13.1347 -23.4414 31.56632
v 13.1347 -7.371231 41.80415
v 13.1347 11.23133 37.68006
v 13.1347 21.46916 21.60988
v 13.13471 24.51728 4.32316
vt 0.8252516 0.812562
vt 0.8983023 0.8025353
vt 0.8252513 0.8025366
vt 0.8983023 0.8125606
vt 0.8252518 0.8234442
vt 0.8983027 0.8234433
vt 0.8252518 0.834326
vt 0.8983029 0.834326
vt 0.8252516 0.8452084
vt 0.8983029 0.8452086
vt 0.8252513 0.8560907
vt 0.898303 0.8560914
vt 0.8252513 0.8661162
vt 0.898303 0.8661169
vt 0.83005 0.9259386
vt 0.8595035 0.9259386
vt 0.83005 0.9051715
vt 0.8386768 0.8843449
vt 0.8595035 0.875718
vt 0.8803304 0.8843449
vt 0.8889573 0.9051715
vt 0.8889573 0.9259386
vt 0.8889573 0.905171
vt 0.8595037 0.9259386
vt 0.8889573 0.9259386
vt 0.8803306 0.8843442
vt 0.8595037 0.8757178
vt 0.838677 0.8843442
vt 0.8300503 0.905171
vt 0.8300503 0.9259386
vn 0 -0.999762 0.02181452
vn 0 -0.9848077 -0.1736484
vn 0 -0.9848077 -0.1736484
vn 0 -0.999762 0.02181456
vn 0 -0.8191522 0.5735762
vn 0 -0.8191522 0.5735762
vn 0 -0.1736484 0.9848077
vn 0 -0.1736483 0.9848077
vn 0 0.5735763 0.8191521
vn 0 0.5735766 0.819152
vn 0 0.9320078 0.3624381
vn 0 0.9320078 0.362438
vn 0 0.9848077 0.1736483
vn 0 0.9848077 0.1736483
vn -1 0 0
vn -1 0 0
vn -1 0 0
vn -1 0 0
vn -1 0 0
vn -1 0 0
vn -1 0 0
vn -1 0 0
vn 1 0 0
vn 1 0 0
vn 1 0 0
vn 1 0 0
vn 1 0 0
vn 1 0 0
vn 1 0 0
vn 1 0 0
g Cylinder025_0
f 3/3/3 2/2/2 1/1/1
f 4/4/4 1/1/1 2/2/2
f 1/1/1 4/4/4 5/5/5
f 6/6/6 5/5/5 4/4/4
f 5/5/5 6/6/6 7/7/7
f 8/8/8 7/7/7 6/6/6
f 7/7/7 8/8/8 9/9/9
f 10/10/10 9/9/9 8/8/8
f 9/9/9 10/10/10 11/11/11
f 12/12/12 11/11/11 10/10/10
f 11/11/11 12/12/12 13/13/13
f 14/14/14 13/13/13 12/12/12
f 17/17/17 16/16/16 15/15/15
f 18/18/18 16/16/16 17/17/17
f 19/19/19 16/16/16 18/18/18
f 20/20/20 16/16/16 19/19/19
f 21/21/21 16/16/16 20/20/20
f 22/22/22 16/16/16 21/21/21
f 25/25/25 24/24/24 23/23/23
f 23/23/23 24/24/24 26/26/26
f 26/26/26 24/24/24 27/27/27
f 27/27/27 24/24/24 28/28/28
f 28/28/28 24/24/24 29/29/29
f 29/29/29 24/24/24 30/30/30
