g Cylinder029
v 0.5795729 5.015056 4.845375
v 3.832803 2.576526 8.707496
v 0.9310182 2.576535 7.505755
v 3.832803 2.576526 8.707496
v 0.5795729 5.015056 4.845375
v 3.514644 5.911737 5.023741
v 0.5795729 5.015056 4.845375
v 5.525947E-06 -2.905491 1.249015E-06
v 1.80918E-05 2.905512 8.440315E-06
v 0.5795585 -5.015034 4.845366
v 0.9310182 2.576535 7.505755
v 0.9310113 -2.576513 7.505753
v 0.9310182 2.576535 7.505755
v 5.525947E-06 -2.905491 1.249015E-06
v 0.5795729 5.015056 4.845375
v 0.5795729 5.015056 4.845375
v 3.14022 3.843629 9.651482E-06
v 3.514644 5.911737 5.023741
v 3.14022 3.843629 9.651482E-06
v 0.5795729 5.015056 4.845375
v 1.80918E-05 2.905512 8.440315E-06
v 0.5795585 -5.015034 4.845366
v 3.140207 -3.843618 3.368556E-06
v 5.525947E-06 -2.905491 1.249015E-06
v 3.140207 -3.843618 3.368556E-06
v 0.5795585 -5.015034 4.845366
v 3.514629 -5.911732 5.023733
v 0.5795585 -5.015034 4.845366
v 3.832798 -2.576521 8.707494
v 3.514629 -5.911732 5.023733
v 3.832798 -2.576521 8.707494
v 0.5795585 -5.015034 4.845366
v 0.9310113 -2.576513 7.505753
v 3.514629 -5.911732 5.023733
v 3.14022 3.843629 9.651482E-06
v 3.140207 -3.843618 3.368556E-06
v 3.832798 -2.576521 8.707494
v 3.514644 5.911737 5.023741
v 3.832803 2.576526 8.707496
v 3.140207 -3.843618 3.368556E-06
v 1.80918E-05 2.905512 8.440315E-06
v 5.525947E-06 -2.905491 1.249015E-06
v 3.14022 3.843629 9.651482E-06
v 0.9310182 2.576535 7.505755
v 3.832798 -2.576521 8.707494
v 0.9310113 -2.576513 7.505753
v 3.832803 2.576526 8.707496
vt 0.3231779 0.3448481
vt 0.3323783 0.3779658
vt 0.3365647 0.3592048
vt 0.3323783 0.3779658
vt 0.3231779 0.3448481
vt 0.3060857 0.3521116
vt 0.3231779 0.3448481
vt 0.3697457 0.315503
vt 0.3321182 0.3152764
vt 0.3791788 0.3450134
vt 0.3365647 0.3592048
vt 0.3659016 0.3593095
vt 0.3365647 0.3592048
vt 0.3697457 0.315503
vt 0.3231779 0.3448481
vt 0.3231779 0.3448481
vt 0.3099681 0.3153293
vt 0.3060857 0.3521116
vt 0.3099681 0.3153293
vt 0.3231779 0.3448481
vt 0.3321182 0.3152764
vt 0.3791788 0.3450134
vt 0.3919702 0.3152881
vt 0.3697457 0.315503
vt 0.3919702 0.3152881
vt 0.3791788 0.3450134
vt 0.3962702 0.3521124
vt 0.3791788 0.3450134
vt 0.3700703 0.3780112
vt 0.3962702 0.3521124
vt 0.3700703 0.3780112
vt 0.3791788 0.3450134
vt 0.3659016 0.3593095
vt 0.0242413 0.983921
vt 0.01248206 0.9798288
vt 0.02174833 0.9798288
vt 0.02022104 0.9869221
vt 0.009989187 0.9839211
vt 0.01400952 0.9869221
vt 0.2216491 0.9734086
vt 0.2077653 0.9861085
vt 0.217436 0.9851855
vt 0.2037503 0.9737492
vt 0.3365647 0.3592048
vt 0.3700703 0.3780112
vt 0.3659016 0.3593095
vt 0.3323783 0.3779658
vn -0.2770102 0.6898212 0.6688886
vn -0.2770102 0.6898212 0.6688886
vn -0.2770102 0.6898212 0.6688886
vn -0.2557179 0.7055677 0.6608953
vn -0.2557179 0.7055677 0.6608953
vn -0.255718 0.7055677 0.6608953
vn -0.9929227 0 0.1187627
vn -0.9929227 0 0.1187627
vn -0.9929227 0 0.1187627
vn -0.9913867 0 0.1309669
vn -0.9913867 0 0.1309669
vn -0.9913867 0 0.1309669
vn -0.9919436 -0.004856517 0.1265876
vn -0.9919436 -0.004856518 0.1265876
vn -0.9919436 -0.004856517 0.1265876
vn -0.253851 0.9009329 -0.3519652
vn -0.253851 0.9009329 -0.3519652
vn -0.253851 0.9009329 -0.3519652
vn -0.267316 0.8947993 -0.3575982
vn -0.267316 0.8947993 -0.3575982
vn -0.267316 0.8947993 -0.3575982
vn -0.2673184 -0.8947988 -0.3575976
vn -0.2673184 -0.8947988 -0.3575976
vn -0.2673184 -0.8947988 -0.3575976
vn -0.2538557 -0.9009315 -0.3519655
vn -0.2538557 -0.9009315 -0.3519655
vn -0.2538557 -0.9009315 -0.3519655
vn -0.255722 -0.705567 0.6608945
vn -0.255722 -0.705567 0.6608946
vn -0.255722 -0.705567 0.6608945
vn -0.277014 -0.6898207 0.6688877
vn -0.277014 -0.6898206 0.6688877
vn -0.277014 -0.6898207 0.6688877
vn 0.997234 0 -0.07432517
vn 0.997234 0 -0.07432517
vn 0.997234 0 -0.07432517
vn 0.9962909 0 -0.08604872
vn 0.9962909 0 -0.08604872
vn 0.9962909 0 -0.08604872
vn 0 0 -1
vn 0 0 -1
vn 0 0 -1
vn 0 0 -1
vn -0.3826242 0 0.9239041
vn -0.3826242 0 0.9239041
vn -0.3826241 0 0.9239041
vn -0.3826241 0 0.9239041
g Cylinder029_0
f 3/3/3 2/2/2 1/1/1
f 6/6/6 5/5/5 4/4/4
f 9/9/9 8/8/8 7/7/7
f 11/11/11 8/8/8 10/10/10
f 12/12/12 11/11/11 10/10/10
f 15/15/15 14/14/14 13/13/13
f 18/18/18 17/17/17 16/16/16
f 21/21/21 20/20/20 19/19/19
f 24/24/24 23/23/23 22/22/22
f 27/27/27 26/26/26 25/25/25
f 30/30/30 29/29/29 28/28/28
f 33/33/33 32/32/32 31/31/31
f 36/36/36 35/35/35 34/34/34
f 35/35/35 37/37/37 34/34/34
f 38/38/38 37/37/37 35/35/35
f 39/39/39 37/37/37 38/38/38
f 42/42/42 41/41/41 40/40/40
f 43/43/43 40/40/40 41/41/41
f 46/46/46 45/45/45 44/44/44
f 47/47/47 44/44/44 45/45/45
