g Cylinder016
v 34.16488 8.377137E-05 -25.31073
v -33.77884 -22.40069 -12.33389
v 34.29936 -22.40054 -12.33378
v -34.03913 -2.605454E-05 -25.31084
v 34.03039 22.40071 -12.9769
v -34.2993 22.40059 -12.97701
v 34.29936 -22.40054 -12.33378
v -33.77897 -22.4007 12.92961
v 34.29934 -22.40058 12.92972
v -33.77884 -22.40069 -12.33389
v -34.03915 -5.170141E-05 25.31068
v 34.29934 -22.40058 12.92972
v -33.77897 -22.4007 12.92961
v 34.16481 7.750309E-05 25.31083
v -34.29936 22.40057 12.38102
v 34.03033 22.4007 12.38113
v 34.03033 22.4007 12.38113
v -34.2993 22.40059 -12.97701
v 34.03039 22.40071 -12.9769
v -34.29936 22.40057 12.38102
v 34.29936 -22.40054 -12.33378
v 34.16487 7.735965E-05 -12.65534
v 34.16488 8.377137E-05 -25.31073
v 34.23213 -11.20022 -6.172793
v 34.29934 -22.40058 12.92972
v 34.09764 11.2004 -6.482531
v 34.03039 22.40071 -12.9769
v 34.23212 -11.20024 6.470814
v 34.16481 7.750309E-05 25.31083
v 34.16486 7.094794E-05 1.362562E-05
v 34.09764 11.20038 6.184642
v 34.03033 22.4007 12.38113
v 34.16486 6.45362E-05 12.65544
v -34.03913 -2.605454E-05 -25.31084
v -33.90905 -11.20037 -6.172903
v -33.77884 -22.40069 -12.33389
v -34.03913 -3.246626E-05 -12.65545
v -34.2993 22.40059 -12.97701
v -33.90905 -11.20037 6.470704
v -33.77897 -22.4007 12.92961
v -34.16919 11.20027 -6.482641
v -34.29936 22.40057 12.38102
v -34.03914 -3.887799E-05 -5.783319E-05
v -34.03915 -4.528969E-05 12.65529
v -34.03915 -5.170141E-05 25.31068
v -34.16919 11.20027 6.18457
vt 0.2190748 0.9823906
vt 0.2194793 0.9822572
vt 0.219074 0.9822572
vt 0.2194809 0.9823906
vt 0.2190756 0.9825239
vt 0.2194824 0.9825239
vt 0.2128997 0.9864331
vt 0.213305 0.9862828
vt 0.2128997 0.9862828
vt 0.213305 0.9864331
vt 0.2133065 0.9843883
vt 0.2128997 0.9845216
vt 0.213305 0.9845216
vt 0.2129005 0.9843883
vt 0.2133081 0.9842549
vt 0.2129013 0.9842549
vt 0.2195023 0.9836213
vt 0.2190955 0.9837723
vt 0.2195023 0.9837723
vt 0.2190955 0.9836213
vt 0.2119221 0.9851565
vt 0.2119202 0.9850232
vt 0.2118449 0.9850232
vt 0.2119588 0.9850898
vt 0.2120725 0.9851565
vt 0.2119569 0.9849564
vt 0.2119183 0.9848897
vt 0.2120341 0.9850898
vt 0.2121462 0.9850232
vt 0.2119955 0.9850232
vt 0.2120323 0.9849564
vt 0.2120692 0.9848897
vt 0.2120709 0.9850232
vt 0.2162891 0.9861032
vt 0.216403 0.9860366
vt 0.2163663 0.98597
vt 0.2163644 0.9861032
vt 0.2163625 0.9862366
vt 0.2164783 0.9860366
vt 0.2165167 0.98597
vt 0.2164011 0.98617
vt 0.2165134 0.9862366
vt 0.2164397 0.9861032
vt 0.2165151 0.9861032
vt 0.2165904 0.9861032
vt 0.2164766 0.98617
vn 0 -0.01276052 -0.9999186
vn 0 -0.8654732 -0.5009552
vn 0 -0.8668687 -0.4985365
vn 0 -0.007244769 -0.9999738
vn 0 0.860405 -0.5096109
vn 0 0.8618828 -0.5071075
vn 0 -0.8668687 -0.4985365
vn 0 -0.8603505 0.5097029
vn 0 -0.8618206 0.5072133
vn 0 -0.8654732 -0.5009552
vn 0 0.01291816 0.9999166
vn 0 -0.8618206 0.5072133
vn 0 -0.8603505 0.5097029
vn 0 0.007402854 0.9999726
vn 0 0.8669234 0.4984414
vn 0 0.8655203 0.5008738
vn 0 0.8655203 0.5008738
vn 0 0.8618828 -0.5071075
vn 0 0.860405 -0.5096109
vn 0 0.8669234 0.4984414
vn 0.999982 0.006002637 0
vn 0.999982 0.006003018 0
vn 0.999982 0.006003333 0
vn 0.999982 0.006003556 0
vn 0.999982 0.006002718 0
vn 0.999982 0.006003615 0
vn 0.999982 0.00600545 0
vn 0.999982 0.006003607 0
vn 0.999982 0.006004468 0
vn 0.999982 0.006003604 0
vn 0.999982 0.00600479 0
vn 0.999982 0.006006603 0
vn 0.999982 0.006004196 0
vn -0.9999325 -0.01161568 0
vn -0.9999325 -0.01161917 0
vn -0.9999325 -0.01162083 0
vn -0.9999325 -0.01161324 0
vn -0.9999325 -0.01161578 0
vn -0.9999325 -0.01161526 0
vn -0.9999325 -0.01161493 0
vn -0.9999325 -0.01161434 0
vn -0.9999325 -0.0116187 0
vn -0.9999326 -0.01161225 0
vn -0.9999326 -0.01161211 0
vn -0.9999325 -0.01161397 0
vn -0.9999325 -0.01161584 0
g Cylinder016_0
f 3/3/3 2/2/2 1/1/1
f 4/4/4 1/1/1 2/2/2
f 1/1/1 4/4/4 5/5/5
f 6/6/6 5/5/5 4/4/4
f 9/9/9 8/8/8 7/7/7
f 10/10/10 7/7/7 8/8/8
f 13/13/13 12/12/12 11/11/11
f 14/14/14 11/11/11 12/12/12
f 11/11/11 14/14/14 15/15/15
f 16/16/16 15/15/15 14/14/14
f 19/19/19 18/18/18 17/17/17
f 20/20/20 17/17/17 18/18/18
f 23/23/23 22/22/22 21/21/21
f 24/24/24 21/21/21 22/22/22
f 21/21/21 24/24/24 25/25/25
f 22/22/22 23/23/23 26/26/26
f 27/27/27 26/26/26 23/23/23
f 28/28/28 25/25/25 24/24/24
f 25/25/25 28/28/28 29/29/29
f 22/22/22 30/30/30 24/24/24
f 26/26/26 30/30/30 22/22/22
f 24/24/24 30/30/30 28/28/28
f 26/26/26 27/27/27 31/31/31
f 31/31/31 30/30/30 26/26/26
f 32/32/32 31/31/31 27/27/27
f 33/33/33 29/29/29 28/28/28
f 28/28/28 30/30/30 33/33/33
f 33/33/33 30/30/30 31/31/31
f 29/29/29 33/33/33 32/32/32
f 31/31/31 32/32/32 33/33/33
f 36/36/36 35/35/35 34/34/34
f 37/37/37 34/34/34 35/35/35
f 34/34/34 37/37/37 38/38/38
f 35/35/35 36/36/36 39/39/39
f 40/40/40 39/39/39 36/36/36
f 41/41/41 38/38/38 37/37/37
f 38/38/38 41/41/41 42/42/42
f 35/35/35 43/43/43 37/37/37
f 39/39/39 43/43/43 35/35/35
f 37/37/37 43/43/43 41/41/41
f 39/39/39 40/40/40 44/44/44
f 44/44/44 43/43/43 39/39/39
f 45/45/45 44/44/44 40/40/40
f 42/42/42 46/46/46 45/45/45
f 46/46/46 42/42/42 41/41/41
f 41/41/41 43/43/43 46/46/46
f 44/44/44 45/45/45 46/46/46
f 46/46/46 43/43/43 44/44/44
