g Door
v 0.8650924 0.3865418 6.879492
v 0.03237675 0.4241983 7.284619
v 0.02106193 -1.047907 7.309119
v 0.8536779 -1.082479 6.90371
v 1.395868 0.3392451 5.925137
v 1.384534 -1.122519 5.94869
v 1.589884 0.2948948 4.743887
v 1.578753 -1.157891 4.766617
v 1.434377 0.1567289 -0.2894292
v 1.424252 -1.260703 -0.2894292
v -1.554068 0.3848102 4.743887
v -1.450824 0.2392443 -0.2894292
v -1.460201 -1.178209 -0.2894292
v -1.564462 -1.067996 4.766617
v -1.346633 0.4176793 5.925137
v -1.357338 -1.044103 5.94869
v -0.804972 0.4343049 6.879492
v -0.816011 -1.034727 6.90371
v 0.03237675 0.4241983 7.284619
v 0.02106193 -1.047907 7.309119
v -1.564462 -1.067996 4.766617
v -1.460201 -1.178209 -0.2894292
v -1.778257 -1.433674 -0.2894292
v -1.916198 -1.329769 4.818156
v -1.357338 -1.044103 5.94869
v -1.700161 -1.305493 6.121448
v -0.816011 -1.034727 6.90371
v -1.078014 -1.296219 7.239542
v 0.02106193 -1.047907 7.309119
v 0.01528475 -1.314466 7.766165
v -1.916198 -1.329769 4.818156
v -1.778257 -1.433674 -0.2894292
v -2.156778 -1.158287 -0.2894292
v -2.334916 -1.043988 4.84618
v -1.700161 -1.305493 6.121448
v -2.103813 -1.01447 6.2699
v -1.078014 -1.296219 7.239542
v -1.377073 -1.001388 7.553046
v 0.01528475 -1.314466 7.766165
v 0.0259926 -1.023865 8.203809
v -2.334916 -1.043988 4.84618
v -2.156778 -1.158287 -0.2894292
v -2.132507 0.4060026 -0.2894292
v -2.30751 0.4060026 4.855427
v 0.8536779 -1.082479 6.90371
v 0.02106193 -1.047907 7.309119
v 0.01528475 -1.314466 7.766165
v 1.102947 -1.358593 7.239542
v 1.384534 -1.122519 5.94869
v 1.713143 -1.403112 6.121448
v 1.578753 -1.157891 4.766617
v 1.915302 -1.439349 4.818156
v 1.424252 -1.260703 -0.2894292
v 1.727764 -1.533944 -0.2894292
v 1.102947 -1.358593 7.239542
v 0.01528475 -1.314466 7.766165
v 0.0259926 -1.023865 8.203809
v 1.421882 -1.081437 7.553046
v 1.713143 -1.403112 6.121448
v 2.134526 -1.135684 6.2699
v 1.915302 -1.439349 4.818156
v 2.350074 -1.177976 4.84618
v 1.727764 -1.533944 -0.2894292
v 2.120828 -1.280624 -0.2894292
v 1.421882 -1.081437 7.553046
v 0.0259926 -1.023865 8.203809
v 0.06090707 0.406003 8.206045
v 1.459386 0.4060033 7.556642
v 2.134526 -1.135684 6.2699
v 2.17286 0.4060034 6.276174
v 2.350074 -1.177976 4.84618
v 2.388123 0.4060034 4.855427
v 2.120828 -1.280624 -0.2894292
v 2.350074 -1.177976 4.84618
v 2.388123 0.4060034 4.855427
v 2.155847 0.4060034 -0.2894292
v 0.0259926 -1.023865 8.203809
v -1.345596 0.4060028 7.556641
v 0.06090707 0.406003 8.206045
v -1.377073 -1.001388 7.553046
v -2.074837 0.4060026 6.276174
v -2.103813 -1.01447 6.2699
v -2.30751 0.4060026 4.855427
v -2.334916 -1.043988 4.84618
v -1.869857 -0.02075612 4.258543
v 1.71577 -0.2502789 -0.2894292
v -1.732217 -0.151668 -0.2894292
v 1.900177 -0.1285774 4.258543
v 1.40621 -0.0343182 6.69022
v -1.348251 0.04445814 6.69022
v 0.03394146 0.0346005 7.557911
v 4.360216 -3.872778 -2.45837
v -4.408667 -3.886827 -2.487206
v -4.349688 -3.869726 -0.9611181
v 4.423786 -3.891208 -0.9170168
v 4.358755 1.537793 -2.450052
v 4.360216 -3.872778 -2.45837
v 4.423786 -3.891208 -0.9170168
v 4.324744 -1.762046 -0.9598563
v 4.356257 -1.761634 0.0166322
v 4.404638 1.556463 0.07535677
v -4.425914 -1.774143 -0.9350259
v 4.324744 -1.762046 -0.9598563
v 4.423786 -3.891208 -0.9170168
v -4.349688 -3.869726 -0.9611181
v -4.408667 -3.886827 -2.487206
v -4.425914 -1.774143 -0.9350259
v -4.349688 -3.869726 -0.9611181
v -4.404614 1.556451 -2.505711
v -4.346394 -1.757622 0.004660418
v -4.378741 1.545923 0.04392163
v 4.356257 -1.761634 0.0166322
v -4.346394 -1.757622 0.004660418
v -4.378741 1.545923 0.04392163
v 4.404638 1.556463 0.07535677
v 4.324744 -1.762046 -0.9598563
v -4.425914 -1.774143 -0.9350259
v -4.346394 -1.757622 0.004660418
v 4.356257 -1.761634 0.0166322
vt 0.03644388 0.04038949
vt 0.03641285 0.04066212
vt 0.03673728 0.04067861
vt 0.03676577 0.04040578
vt 0.03648285 0.03974724
vt 0.03679876 0.03976309
vt 0.0365194 0.0389523
vt 0.03682791 0.0389676
vt 0.03663325 0.03582102
vt 0.03691263 0.03583413
vt 0.0364453 0.0389523
vt 0.03656526 0.03582102
vt 0.03684466 0.03583413
vt 0.03675384 0.0389676
vt 0.03641822 0.03974724
vt 0.03673415 0.03976309
vt 0.03640452 0.04038949
vt 0.03672642 0.04040578
vt 0.03641285 0.04066212
vt 0.03673728 0.04067861
vt 0.06028498 0.03880725
vt 0.06034243 0.03567378
vt 0.0604756 0.03567487
vt 0.06042144 0.03884194
vt 0.06027253 0.03960274
vt 0.06040878 0.039719
vt 0.06026764 0.04024544
vt 0.06040395 0.04047144
vt 0.06027452 0.04051827
vt 0.06041346 0.04082584
vt 0.01370489 0.01467785
vt 0.01375033 0.01299697
vt 0.01362989 0.01299639
vt 0.0135799 0.01468786
vt 0.01369427 0.01514335
vt 0.01356699 0.01519637
vt 0.01369022 0.01554269
vt 0.01356127 0.01565466
vt 0.0136982 0.01573079
vt 0.0135711 0.0158871
vt 0.0606614 0.03984021
vt 0.06072098 0.0366532
vt 0.0601903 0.03666608
vt 0.06007453 0.03984642
vt 0.06029253 0.04024544
vt 0.06027452 0.04051827
vt 0.06041346 0.04082584
vt 0.06043646 0.04047144
vt 0.06031341 0.03960274
vt 0.06045966 0.039719
vt 0.06033185 0.03880725
vt 0.06047855 0.03884194
vt 0.06038543 0.03567378
vt 0.06052786 0.03567487
vt 0.01371749 0.01554269
vt 0.0136982 0.01573079
vt 0.0135711 0.0158871
vt 0.01359628 0.01565466
vt 0.01373697 0.01514335
vt 0.01362 0.01519637
vt 0.01375281 0.01467785
vt 0.0136385 0.01468786
vt 0.01379418 0.01299697
vt 0.0136834 0.01299639
vt 0.06070295 0.0389409
vt 0.06067294 0.03937884
vt 0.06004628 0.03938035
vt 0.06008406 0.03894332
vt 0.06073122 0.0380774
vt 0.06012759 0.03808161
vt 0.06075326 0.03711928
vt 0.06016654 0.0371255
vt 0.06071787 0.0366532
vt 0.06066436 0.03984021
vt 0.06007764 0.03984642
vt 0.06018735 0.03666607
vt 0.06067294 0.03937884
vt 0.06004224 0.03894332
vt 0.06004628 0.03938035
vt 0.06066122 0.0389409
vt 0.06006427 0.03808162
vt 0.06066803 0.0380774
vt 0.06009654 0.0371255
vt 0.06068343 0.03711928
vt 0.01361003 0.03854196
vt 0.01379916 0.0357373
vt 0.0137179 0.0357373
vt 0.01369887 0.03854196
vt 0.0136212 0.0401784
vt 0.01355629 0.0401784
vt 0.01356441 0.04076232
vt 0.06039505 0.03753288
vt 0.06039999 0.03750554
vt 0.06039398 0.03895228
vt 0.06040153 0.03899409
vt 0.03442939 0.03740285
vt 0.03888796 0.03739726
vt 0.03890315 0.03843453
vt 0.03714861 0.0384057
vt 0.03714827 0.03906284
vt 0.03441401 0.03910236
vt 0.03580277 0.01444443
vt 0.03579293 0.01442794
vt 0.03752422 0.01445638
vt 0.03750675 0.0144271
vt 0.03890134 0.03740436
vt 0.03716039 0.03844891
vt 0.03888724 0.03843135
vt 0.03441582 0.0373919
vt 0.03714677 0.03908129
vt 0.03442449 0.03910772
vt 0.03800761 0.01442622
vt 0.03800435 0.01441827
vt 0.03531812 0.01444434
vt 0.03530955 0.01446521
vt 0.06039641 0.03778695
vt 0.06040066 0.03781049
vt 0.06039485 0.03870133
vt 0.06039626 0.03871267
vn -0.6839978 -0.006715589 -0.7294532
vn 0.004413151 -0.01656492 -0.999853
vn -0.01962389 -0.5737247 -0.8188131
vn -0.6110371 -0.5131899 -0.6027186
vn -0.9435176 0.001930327 -0.3313168
vn -0.8452392 -0.4606807 -0.2708208
vn -0.997721 0.006352461 -0.0671737
vn -0.9014481 -0.4304388 -0.04597704
vn -0.9995047 0.00764371 0.03052847
vn -0.9103882 -0.4120958 0.03701897
vn 0.9969903 -0.008348671 -0.07707573
vn 0.9997625 -0.006722446 0.0207322
vn 0.8948113 -0.4455067 0.02892247
vn 0.884837 -0.4625975 -0.05538133
vn 0.9408144 -0.01237453 -0.3386964
vn 0.8243821 -0.4905799 -0.2823571
vn 0.6840879 -0.0171268 -0.7291985
vn 0.5816107 -0.5339582 -0.6136918
vn 0.004413151 -0.01656492 -0.999853
vn -0.01962389 -0.5737247 -0.8188131
vn 0.884837 -0.4625975 -0.05538133
vn 0.8948113 -0.4455067 0.02892247
vn 0.03286402 -0.9992701 0.01947191
vn -0.01622177 -0.9997067 0.01798171
vn 0.8243821 -0.4905799 -0.2823571
vn -0.05330275 -0.9981635 0.02878331
vn 0.5816107 -0.5339582 -0.6136918
vn -0.08971684 -0.9917297 0.09177735
vn -0.01962389 -0.5737247 -0.8188131
vn -0.02877428 -0.9849437 0.1704641
vn -0.01622177 -0.9997067 0.01798171
vn 0.03286402 -0.9992701 0.01947191
vn -0.8864626 -0.4623959 -0.01934269
vn -0.8933038 -0.444619 0.06574406
vn -0.05330275 -0.9981635 0.02878331
vn -0.8465137 -0.4373087 0.3036047
vn -0.08971684 -0.9917297 0.09177735
vn -0.6164654 -0.4242958 0.6632823
vn -0.02877428 -0.9849437 0.1704641
vn -0.0105188 -0.4295568 0.9029786
vn -0.8933038 -0.444619 0.06574406
vn -0.8864626 -0.4623959 -0.01934269
vn -0.9992555 0.01723718 -0.03451676
vn -0.9977967 0.01796497 0.06386843
vn -0.6110371 -0.5131899 -0.6027186
vn -0.01962389 -0.5737247 -0.8188131
vn -0.02877428 -0.9849437 0.1704641
vn 0.0332982 -0.995221 0.09179593
vn -0.8452392 -0.4606807 -0.2708208
vn -0.003636282 -0.999597 0.02815327
vn -0.9014481 -0.4304388 -0.04597704
vn -0.04092115 -0.9990047 0.01775366
vn -0.9103882 -0.4120958 0.03701897
vn -0.09278326 -0.9954834 0.02010236
vn 0.0332982 -0.995221 0.09179593
vn -0.02877428 -0.9849437 0.1704641
vn -0.0105188 -0.4295568 0.9029786
vn 0.5960065 -0.4565339 0.6605703
vn -0.003636282 -0.999597 0.02815327
vn 0.825196 -0.4806398 0.2967102
vn -0.04092115 -0.9990047 0.01775366
vn 0.8707159 -0.4884289 0.05736668
vn -0.09278326 -0.9954834 0.02010236
vn 0.8622763 -0.5056747 -0.02779741
vn 0.5960065 -0.4565339 0.6605703
vn -0.0105188 -0.4295568 0.9029786
vn 0.007483448 -0.002537564 0.9999688
vn 0.6831731 -0.01884224 0.7300133
vn 0.825196 -0.4806398 0.2967102
vn 0.9461078 -0.02456827 0.3229188
vn 0.8707159 -0.4884289 0.05736668
vn 0.9983005 -0.02365918 0.05325932
vn 0.8622763 -0.5056747 -0.02779741
vn 0.8707159 -0.4884289 0.05736668
vn 0.9983005 -0.02365918 0.05325932
vn 0.9987578 -0.02218688 -0.04461579
vn -0.0105188 -0.4295568 0.9029786
vn -0.6744602 0.01298389 0.738197
vn 0.007483448 -0.002537564 0.9999688
vn -0.6164654 -0.4242958 0.6632823
vn -0.9425462 0.01796553 0.3335921
vn -0.8465137 -0.4373087 0.3036047
vn -0.9977967 0.01796497 0.06386843
vn -0.8933038 -0.444619 0.06574406
vn -0.02857477 -0.9991338 0.03025419
vn -0.02857673 -0.9992023 0.02789687
vn -0.02857673 -0.9992023 0.02789687
vn -0.02857476 -0.9991333 0.0302696
vn -0.02857208 -0.9990395 0.03322152
vn -0.02857208 -0.9990396 0.03321927
vn -0.02857117 -0.9990079 0.0341631
vn 0.704024 -0.7101693 0.00312632
vn -0.7115769 -0.7026075 0.001076742
vn -0.5720165 -0.5820485 0.5779417
vn 0.5826545 -0.5688485 0.5804526
vn 0.9998507 -0.008970838 -0.014762
vn 0.704024 -0.7101693 0.00312632
vn 0.5826545 -0.5688485 0.5804526
vn 0.9024127 -0.3039355 0.3054089
vn 0.5797592 -0.5806125 0.5716366
vn 0.7115726 -0.02289642 0.7022394
vn -0.9047573 -0.2897621 0.3121734
vn 0.9024127 -0.3039355 0.3054089
vn 0.5826545 -0.5688485 0.5804526
vn -0.5720165 -0.5820485 0.5779417
vn -0.7115769 -0.7026075 0.001076742
vn -0.9047573 -0.2897621 0.3121734
vn -0.5720165 -0.5820485 0.5779417
vn -0.9997512 0.001141341 0.02227905
vn -0.5641478 -0.5886966 0.5789419
vn -0.6974586 -0.006598046 0.7165947
vn 0.5797592 -0.5806125 0.5716366
vn -0.5641478 -0.5886966 0.5789419
vn -0.6974586 -0.006598046 0.7165947
vn 0.7115726 -0.02289642 0.7022394
vn 0.9024127 -0.3039355 0.3054089
vn -0.9047573 -0.2897621 0.3121734
vn -0.5641478 -0.5886966 0.5789419
vn 0.5797592 -0.5806125 0.5716366
g Door_0
f 3/3/3 2/2/2 1/1/1
f 4/4/4 3/3/3 1/1/1
f 4/4/4 1/1/1 5/5/5
f 6/6/6 4/4/4 5/5/5
f 6/6/6 5/5/5 7/7/7
f 8/8/8 6/6/6 7/7/7
f 8/8/8 7/7/7 9/9/9
f 10/10/10 8/8/8 9/9/9
f 13/13/13 12/12/12 11/11/11
f 14/14/14 13/13/13 11/11/11
f 14/14/14 11/11/11 15/15/15
f 16/16/16 14/14/14 15/15/15
f 16/16/16 15/15/15 17/17/17
f 18/18/18 16/16/16 17/17/17
f 18/18/18 17/17/17 19/19/19
f 20/20/20 18/18/18 19/19/19
f 23/23/23 22/22/22 21/21/21
f 24/24/24 23/23/23 21/21/21
f 24/24/24 21/21/21 25/25/25
f 26/26/26 24/24/24 25/25/25
f 26/26/26 25/25/25 27/27/27
f 28/28/28 26/26/26 27/27/27
f 28/28/28 27/27/27 29/29/29
f 30/30/30 28/28/28 29/29/29
f 33/33/33 32/32/32 31/31/31
f 34/34/34 33/33/33 31/31/31
f 34/34/34 31/31/31 35/35/35
f 36/36/36 34/34/34 35/35/35
f 36/36/36 35/35/35 37/37/37
f 38/38/38 36/36/36 37/37/37
f 38/38/38 37/37/37 39/39/39
f 40/40/40 38/38/38 39/39/39
f 43/43/43 42/42/42 41/41/41
f 44/44/44 43/43/43 41/41/41
f 47/47/47 46/46/46 45/45/45
f 48/48/48 47/47/47 45/45/45
f 48/48/48 45/45/45 49/49/49
f 50/50/50 48/48/48 49/49/49
f 50/50/50 49/49/49 51/51/51
f 52/52/52 50/50/50 51/51/51
f 52/52/52 51/51/51 53/53/53
f 54/54/54 52/52/52 53/53/53
f 57/57/57 56/56/56 55/55/55
f 58/58/58 57/57/57 55/55/55
f 58/58/58 55/55/55 59/59/59
f 60/60/60 58/58/58 59/59/59
f 60/60/60 59/59/59 61/61/61
f 62/62/62 60/60/60 61/61/61
f 62/62/62 61/61/61 63/63/63
f 64/64/64 62/62/62 63/63/63
f 67/67/67 66/66/66 65/65/65
f 68/68/68 67/67/67 65/65/65
f 68/68/68 65/65/65 69/69/69
f 70/70/70 68/68/68 69/69/69
f 70/70/70 69/69/69 71/71/71
f 72/72/72 70/70/70 71/71/71
f 75/75/75 74/74/74 73/73/73
f 76/76/76 75/75/75 73/73/73
f 79/79/79 78/78/78 77/77/77
f 78/78/78 80/80/80 77/77/77
f 78/78/78 81/81/81 80/80/80
f 81/81/81 82/82/82 80/80/80
f 81/81/81 83/83/83 82/82/82
f 83/83/83 84/84/84 82/82/82
f 87/87/87 86/86/86 85/85/85
f 86/86/86 88/88/88 85/85/85
f 88/88/88 89/89/89 85/85/85
f 89/89/89 90/90/90 85/85/85
f 90/90/90 89/89/89 91/91/91
f 94/94/94 93/93/93 92/92/92
f 95/95/95 94/94/94 92/92/92
f 98/98/98 97/97/97 96/96/96
f 99/99/99 98/98/98 96/96/96
f 100/100/100 99/99/99 96/96/96
f 101/101/101 100/100/100 96/96/96
f 104/104/104 103/103/103 102/102/102
f 105/105/105 104/104/104 102/102/102
f 108/108/108 107/107/107 106/106/106
f 107/107/107 109/109/109 106/106/106
f 107/107/107 110/110/110 109/109/109
f 110/110/110 111/111/111 109/109/109
f 114/114/114 113/113/113 112/112/112
f 115/115/115 114/114/114 112/112/112
f 118/118/118 117/117/117 116/116/116
f 119/119/119 118/118/118 116/116/116
