g FeatherMDL
v -0.07200564 0.2944747 -0.2375733
v -0.1621571 0.1346928 -0.150985
v -0.1868002 0.1291443 -0.2050798
v -0.1098482 0.3040613 -0.3189276
v -0.1621571 0.1346928 -0.150985
v -0.2118684 -0.0803596 -0.1744853
v -0.2440662 -0.06300893 -0.2536259
v -0.1868002 0.1291443 -0.2050798
v -0.2118684 -0.0803596 -0.1744853
v -0.2293247 -0.1853295 -0.1285865
v -0.2641754 -0.2406124 -0.1856841
v -0.2440662 -0.06300893 -0.2536259
v -0.2293247 -0.1853295 -0.1285865
v -0.2062546 -0.2283945 0.01608105
v -0.2375993 -0.3040612 0.02436067
v -0.2641754 -0.2406124 -0.1856841
v -0.2062546 -0.2283945 0.01608105
v -0.1621571 -0.2008644 0.1835179
v -0.1868002 -0.2695189 0.2079187
v -0.2375993 -0.3040612 0.02436067
v -0.1621571 -0.2008644 0.1835179
v -0.08775878 -0.08581486 0.285731
v -0.1010955 -0.09588232 0.3189276
v -0.1868002 -0.2695189 0.2079187
v -0.1098482 0.3040613 -0.3189276
v -0.1868002 0.1291443 -0.2050798
v 0.1868002 0.1291443 -0.2050798
v 0.1098482 0.3040613 -0.3189276
v -0.1868002 0.1291443 -0.2050798
v 0.2440662 -0.06300893 -0.2536259
v 0.1868002 0.1291443 -0.2050798
v -0.2440662 -0.06300893 -0.2536259
v 0.2641754 -0.2406124 -0.1856841
v -0.2641754 -0.2406124 -0.1856841
v 0.2375993 -0.3040612 0.02436067
v -0.2375993 -0.3040612 0.02436067
v 0.1868002 -0.2695189 0.2079187
v -0.1868002 -0.2695189 0.2079187
v 0.1010955 -0.09588232 0.3189276
v -0.1010955 -0.09588232 0.3189276
v -0.1621571 0.1346928 -0.150985
v -0.07200564 0.2944747 -0.2375733
v 0 0.1517166 -0.1491406
v 0.07200564 0.2944747 -0.2375733
v 0.1621571 0.1346928 -0.150985
v -0.1298607 0.06350408 -0.1584035
v 0 0.1517166 -0.1491406
v 0.1298607 0.06350408 -0.1584035
v -0.2118684 -0.0803596 -0.1744853
v 0.2118684 -0.0803596 -0.1744853
v -0.2293247 -0.1853295 -0.1285865
v -0.2118684 -0.0803596 -0.1744853
v 0.2118684 -0.0803596 -0.1744853
v 0.2293247 -0.1853295 -0.1285865
v -0.2062546 -0.2283945 0.01608105
v 0.2062546 -0.2283945 0.01608105
v -0.1621571 -0.2008644 0.1835179
v 0.1621571 -0.2008644 0.1835179
v -0.08775878 -0.08581486 0.285731
v 0.08775878 -0.08581486 0.285731
v 0.07200564 0.2944747 -0.2375733
v 0.1098482 0.3040613 -0.3189276
v 0.1868002 0.1291443 -0.2050798
v 0.1621571 0.1346928 -0.150985
v -0.07200564 0.2944747 -0.2375733
v -0.1098482 0.3040613 -0.3189276
v 0.1098482 0.3040613 -0.3189276
v 0.07200564 0.2944747 -0.2375733
v 0.1621571 0.1346928 -0.150985
v 0.1868002 0.1291443 -0.2050798
v 0.2440662 -0.06300893 -0.2536259
v 0.2118684 -0.0803596 -0.1744853
v 0.2118684 -0.0803596 -0.1744853
v 0.2440662 -0.06300893 -0.2536259
v 0.2641754 -0.2406124 -0.1856841
v 0.2293247 -0.1853295 -0.1285865
v 0.2293247 -0.1853295 -0.1285865
v 0.2641754 -0.2406124 -0.1856841
v 0.2375993 -0.3040612 0.02436067
v 0.2062546 -0.2283945 0.01608105
v 0.2062546 -0.2283945 0.01608105
v 0.2375993 -0.3040612 0.02436067
v 0.1868002 -0.2695189 0.2079187
v 0.1621571 -0.2008644 0.1835179
v 0.1621571 -0.2008644 0.1835179
v 0.1868002 -0.2695189 0.2079187
v 0.1010955 -0.09588232 0.3189276
v 0.08775878 -0.08581486 0.285731
v -0.2118684 -0.0803596 -0.1744853
v -0.1621571 0.1346928 -0.150985
v -0.1298607 0.06350408 -0.1584035
v 0 0.1517166 -0.1491406
v 0.1621571 0.1346928 -0.150985
v 0.1298607 0.06350408 -0.1584035
v 0.2118684 -0.0803596 -0.1744853
vt 0.09016087 0.3239265
vt 0.09016087 0.3368024
vt 0.09016087 0.3368024
vt 0.09016087 0.3239265
vt 0.09016087 0.3368024
vt 0.09016087 0.3496784
vt 0.09016087 0.3496784
vt 0.09016087 0.3368024
vt 0.09016087 0.3496784
vt 0.09016087 0.3625543
vt 0.09016087 0.3625543
vt 0.09016087 0.3496784
vt 0.09016087 0.3625543
vt 0.09016087 0.3754303
vt 0.09016087 0.3754303
vt 0.09016087 0.3625543
vt 0.09016087 0.3754303
vt 0.09016087 0.3883063
vt 0.09016087 0.3883063
vt 0.09016087 0.3754303
vt 0.09016087 0.3883063
vt 0.09016087 0.4011823
vt 0.09016087 0.4011823
vt 0.09016087 0.3883063
vt 0.09016087 0.4732384
vt 0.09016087 0.4861144
vt 0.09016087 0.4861144
vt 0.09016087 0.4732384
vt 0.09016087 0.4861144
vt 0.09016087 0.4989903
vt 0.09016087 0.4861144
vt 0.09016087 0.4989903
vt 0.09016087 0.5118662
vt 0.09016087 0.5118662
vt 0.09016087 0.5247422
vt 0.09016087 0.5247422
vt 0.09016087 0.5376182
vt 0.09016087 0.5376182
vt 0.09016087 0.5504942
vt 0.09016087 0.5504942
vt 0.1673212 0.7125371
vt 0.1544453 0.7125371
vt 0.1673212 0.7125371
vt 0.1544453 0.7125371
vt 0.1673212 0.7125371
vt 0.2309892 0.2312565
vt 0.2309892 0.2248185
vt 0.2309892 0.2312565
vt 0.2309892 0.2376945
vt 0.2309892 0.2376945
vt 0.2157186 0.2132424
vt 0.2157186 0.2003665
vt 0.2157186 0.2003665
vt 0.2157186 0.2132424
vt 0.2157186 0.2261184
vt 0.2157186 0.2261184
vt 0.2157186 0.2389944
vt 0.2157186 0.2389944
vt 0.2157186 0.2518704
vt 0.2157186 0.2518704
vt 0.09016087 0.3239265
vt 0.09016087 0.3239265
vt 0.09016087 0.3368024
vt 0.09016087 0.3368024
vt 0.3412763 0.7092015
vt 0.3412763 0.7092015
vt 0.3412763 0.7092015
vt 0.3412763 0.7092015
vt 0.09016087 0.3368024
vt 0.09016087 0.3368024
vt 0.09016087 0.3496784
vt 0.09016087 0.3496784
vt 0.09016087 0.3496784
vt 0.09016087 0.3496784
vt 0.09016087 0.3625543
vt 0.09016087 0.3625543
vt 0.09016087 0.3625543
vt 0.09016087 0.3625543
vt 0.09016087 0.3754303
vt 0.09016087 0.3754303
vt 0.09016087 0.3754303
vt 0.09016087 0.3754303
vt 0.09016087 0.3883063
vt 0.09016087 0.3883063
vt 0.09016087 0.3883063
vt 0.09016087 0.3883063
vt 0.09016087 0.4011823
vt 0.09016087 0.4011823
vt 0.1673212 0.7125371
vt 0.1801972 0.7125371
vt 0.1737592 0.7125371
vt 0.1801972 0.7125371
vt 0.1801972 0.7125371
vt 0.1737592 0.7125371
vt 0.1673212 0.7125371
vn -0.7335114 0.5791999 0.3556521
vn -0.7335114 0.5791999 0.3556521
vn -0.7335114 0.5791999 0.3556521
vn -0.7335114 0.5791999 0.3556521
vn -0.9016011 0.1662013 0.3993654
vn -0.9016011 0.1662013 0.3993654
vn -0.9016011 0.1662013 0.3993654
vn -0.9016011 0.1662013 0.3993654
vn -0.8922336 0.2657128 0.3651244
vn -0.8922337 0.2657128 0.3651244
vn -0.8922337 0.2657128 0.3651244
vn -0.8922337 0.2657128 0.3651244
vn -0.8998234 0.3668452 0.2360984
vn -0.8998234 0.3668452 0.2360984
vn -0.8998234 0.3668452 0.2360984
vn -0.8998234 0.3668452 0.2360984
vn -0.9038247 0.3903319 0.1753334
vn -0.9038249 0.3903319 0.1753334
vn -0.9038247 0.3903319 0.1753334
vn -0.9038247 0.3903319 0.1753334
vn -0.8869733 0.4597659 0.04351685
vn -0.8869733 0.4597659 0.04351684
vn -0.8869733 0.4597659 0.04351686
vn -0.8869733 0.4597659 0.04351685
vn 0 -0.5454996 -0.8381111
vn 0 -0.5454996 -0.8381111
vn 0 -0.5454996 -0.8381111
vn 0 -0.5454996 -0.8381111
vn 0 0.2449464 -0.9695366
vn 0 -0.1189146 -0.9929045
vn 0 0.2449464 -0.9695366
vn 0 -0.1189146 -0.9929045
vn 0 -0.7517912 -0.6594012
vn 0 -0.7517912 -0.6594012
vn 0 -0.9923996 -0.1230568
vn 0 -0.9923996 -0.1230568
vn 0 -0.9034161 0.428765
vn 0 -0.9034161 0.428765
vn 0 -0.5386457 0.8425324
vn 0 -0.5386457 0.8425324
vn -0.0625701 0.5025782 0.8622645
vn -0.02912245 0.5157267 0.856258
vn 0 0.5086067 0.860999
vn 0.02912244 0.5157267 0.8562581
vn 0.0625701 0.5025783 0.8622645
vn -0.0006829558 -0.1098977 0.9939427
vn 0 -0.1043056 0.9945453
vn 0.0006829558 -0.1098977 0.9939427
vn -8.243226E-05 0.2121615 0.9772346
vn 8.243226E-05 0.2121615 0.9772346
vn 0 0.7878876 0.6158191
vn -8.243226E-05 0.2121615 0.9772346
vn 8.243226E-05 0.2121615 0.9772346
vn 0 0.7878876 0.6158191
vn 0 0.9950464 0.09941177
vn 0 0.9950464 0.09941177
vn 0 0.9411109 -0.338098
vn 0 0.9411109 -0.338098
vn 0 0.6641714 -0.7475803
vn 0 0.6641714 -0.7475803
vn 0.7335115 0.5792 0.3556518
vn 0.7335114 0.5792001 0.3556517
vn 0.7335114 0.5792001 0.3556517
vn 0.7335114 0.5792001 0.3556517
vn 0 0.9931288 0.1170264
vn 0 0.9931288 0.1170265
vn 0 0.9931288 0.1170265
vn 0 0.9931288 0.1170264
vn 0.9016011 0.1662012 0.3993654
vn 0.9016011 0.1662012 0.3993655
vn 0.9016011 0.1662012 0.3993655
vn 0.9016011 0.1662012 0.3993654
vn 0.8922338 0.2657125 0.365124
vn 0.8922338 0.2657125 0.365124
vn 0.892234 0.2657125 0.365124
vn 0.892234 0.2657125 0.365124
vn 0.8998234 0.3668453 0.2360985
vn 0.8998234 0.3668453 0.2360985
vn 0.8998234 0.3668453 0.2360985
vn 0.8998234 0.3668453 0.2360985
vn 0.9038249 0.3903319 0.1753334
vn 0.9038249 0.3903319 0.1753334
vn 0.9038249 0.3903318 0.1753334
vn 0.9038249 0.3903319 0.1753334
vn 0.8869733 0.4597659 0.04351645
vn 0.8869733 0.4597659 0.04351645
vn 0.8869733 0.4597659 0.04351645
vn 0.8869733 0.4597659 0.04351645
vn -8.243226E-05 0.2121615 0.9772346
vn -0.002567709 -0.1047996 0.99449
vn -0.0006829558 -0.1098977 0.9939427
vn 0 -0.1043056 0.9945453
vn 0.002567709 -0.1047996 0.99449
vn 0.0006829558 -0.1098977 0.9939427
vn 8.243226E-05 0.2121615 0.9772346
g FeatherMDL_0
f 3/3/3 2/2/2 1/1/1
f 4/4/4 3/3/3 1/1/1
f 7/7/7 6/6/6 5/5/5
f 8/8/8 7/7/7 5/5/5
f 11/11/11 10/10/10 9/9/9
f 12/12/12 11/11/11 9/9/9
f 15/15/15 14/14/14 13/13/13
f 16/16/16 15/15/15 13/13/13
f 19/19/19 18/18/18 17/17/17
f 20/20/20 19/19/19 17/17/17
f 23/23/23 22/22/22 21/21/21
f 24/24/24 23/23/23 21/21/21
f 27/27/27 26/26/26 25/25/25
f 28/28/28 27/27/27 25/25/25
f 31/31/31 30/30/30 29/29/29
f 30/30/30 32/32/32 29/29/29
f 30/30/30 33/33/33 32/32/32
f 33/33/33 34/34/34 32/32/32
f 33/33/33 35/35/35 34/34/34
f 35/35/35 36/36/36 34/34/34
f 35/35/35 37/37/37 36/36/36
f 37/37/37 38/38/38 36/36/36
f 37/37/37 39/39/39 38/38/38
f 39/39/39 40/40/40 38/38/38
f 43/43/43 42/42/42 41/41/41
f 43/43/43 44/44/44 42/42/42
f 43/43/43 45/45/45 44/44/44
f 48/48/48 47/47/47 46/46/46
f 48/48/48 46/46/46 49/49/49
f 50/50/50 48/48/48 49/49/49
f 53/53/53 52/52/52 51/51/51
f 54/54/54 53/53/53 51/51/51
f 54/54/54 51/51/51 55/55/55
f 56/56/56 54/54/54 55/55/55
f 56/56/56 55/55/55 57/57/57
f 58/58/58 56/56/56 57/57/57
f 58/58/58 57/57/57 59/59/59
f 60/60/60 58/58/58 59/59/59
f 63/63/63 62/62/62 61/61/61
f 64/64/64 63/63/63 61/61/61
f 67/67/67 66/66/66 65/65/65
f 68/68/68 67/67/67 65/65/65
f 71/71/71 70/70/70 69/69/69
f 72/72/72 71/71/71 69/69/69
f 75/75/75 74/74/74 73/73/73
f 76/76/76 75/75/75 73/73/73
f 79/79/79 78/78/78 77/77/77
f 80/80/80 79/79/79 77/77/77
f 83/83/83 82/82/82 81/81/81
f 84/84/84 83/83/83 81/81/81
f 87/87/87 86/86/86 85/85/85
f 88/88/88 87/87/87 85/85/85
f 91/91/91 90/90/90 89/89/89
f 91/91/91 92/92/92 90/90/90
f 94/94/94 93/93/93 92/92/92
f 94/94/94 95/95/95 93/93/93
