g GemPiece_02
v 0.1612673 0.04204583 -0.08150294
v 0.1370504 -0.03365815 -0.08287563
v -4.138664E-09 -4.916929E-09 -0.08150306
v 0.1370504 -0.03365815 -0.08287563
v -0.0006234245 -0.1520576 -0.08150306
v -4.138664E-09 -4.916929E-09 -0.08150306
v -0.03269628 -0.2156987 0.0008105257
v -0.01108138 -0.1593409 -0.08191776
v -0.0006234245 -0.1520576 -0.08150306
v -0.03269628 -0.2156987 0.0008105257
v -0.0006234245 -0.1520576 -0.08150306
v 0.09033578 -0.195948 0.0008105853
v 0.1613274 0.04500723 0.08312404
v 5.228815E-11 -4.916929E-09 0.08312413
v 0.1384594 -0.03368295 0.0831241
v 0.1384594 -0.03368295 0.0831241
v 5.228815E-11 -4.916929E-09 0.08312413
v -0.0006229777 -0.1520579 0.08312413
v -0.03269628 -0.2156987 0.0008105257
v -0.0006229777 -0.1520579 0.08312413
v -0.01108133 -0.1593409 0.08353883
v -0.03269628 -0.2156987 0.0008105257
v 0.09033578 -0.195948 0.0008105853
v -0.0006229777 -0.1520579 0.08312413
v 0.1493937 -0.04827738 -0.07939982
v 0.2006094 -0.1131866 0.0008105257
v 0.2123771 -0.0689962 0.0008105257
v 0.1690812 0.05016291 -0.09380995
v 0.1103553 0.03165459 -0.09381001
v 0.1272435 -0.03381145 -0.0938101
v 0.1425549 -0.0379119 -0.09381001
v 0.1272435 -0.03381145 -0.0938101
v 0.04424958 -0.1280123 -0.0938101
v 0.1690812 0.05016291 -0.09380995
v 0.1272435 -0.03381145 -0.0938101
v 0.1425549 -0.0379119 -0.09381001
v 0.1690812 0.05016291 -0.09380995
v 0.1425549 -0.0379119 -0.09381001
v 0.1577879 -0.03818226 -0.07896914
v 0.1425549 -0.0379119 -0.09381001
v 0.1493937 -0.04827738 -0.07939982
v 0.1577879 -0.03818226 -0.07896914
v 0.1493937 -0.04827738 -0.07939982
v 0.1425549 -0.0379119 -0.09381001
v 0.04424958 -0.1280123 -0.0938101
v 0.04424958 -0.1280123 -0.0938101
v 5.228815E-11 -4.916929E-09 -0.0938101
v -0.0001411363 -0.1524004 -0.0938101
v 0.10291 -0.2085354 0.0008105257
v 0.04424958 -0.1280123 -0.0938101
v 0.003677464 -0.1665065 -0.09272318
v -0.009963453 -0.1662207 -0.0938101
v 0.003677464 -0.1665065 -0.09272318
v -0.0001411363 -0.1524004 -0.0938101
v 0.04424958 -0.1280123 -0.0938101
v -0.0001411363 -0.1524004 -0.0938101
v 0.003677464 -0.1665065 -0.09272318
v -0.02345326 -0.2290233 0.0008105257
v 0.10291 -0.2085354 0.0008105257
v 0.003677464 -0.1665065 -0.09272318
v 0.1493937 -0.04827738 0.08102097
v 0.2123771 -0.0689962 0.0008105257
v 0.2006094 -0.1131866 0.0008105257
v 0.1103553 0.03165459 0.09543115
v 0.1272435 -0.03381145 0.09543117
v 5.228815E-11 -4.916929E-09 0.09543117
v 0.1272435 -0.03381145 0.09543117
v 0.04424958 -0.1280123 0.09543117
v 5.228815E-11 -4.916929E-09 0.09543117
v 0.1690812 0.05016291 0.09543107
v 0.1272435 -0.03381145 0.09543117
v 0.1103553 0.03165459 0.09543115
v 0.1425549 -0.0379119 0.09543112
v 0.04424958 -0.1280123 0.09543117
v 0.1272435 -0.03381145 0.09543117
v 0.1690812 0.05016291 0.09543107
v 0.1425549 -0.0379119 0.09543112
v 0.1272435 -0.03381145 0.09543117
v 0.1690812 0.05016291 0.09543107
v 0.1577879 -0.03818226 0.08059026
v 0.1425549 -0.0379119 0.09543112
v 0.1425549 -0.0379119 0.09543112
v 0.1577879 -0.03818226 0.08059026
v 0.1493937 -0.04827738 0.08102097
v 0.1493937 -0.04827738 0.08102097
v 0.04424958 -0.1280123 0.09543117
v 0.1425549 -0.0379119 0.09543112
v 0.04424958 -0.1280123 0.09543117
v -0.0001411363 -0.1524004 0.09543117
v 5.228815E-11 -4.916929E-09 0.09543117
v 0.10291 -0.2085354 0.0008105257
v 0.003677464 -0.1665065 0.09434434
v 0.04424958 -0.1280123 0.09543117
v -0.009963453 -0.1662207 0.09543117
v -0.0001411363 -0.1524004 0.09543117
v 0.003677464 -0.1665065 0.09434434
v 0.04424958 -0.1280123 0.09543117
v 0.003677464 -0.1665065 0.09434434
v -0.0001411363 -0.1524004 0.09543117
v -0.02345326 -0.2290233 0.0008105257
v 0.003677464 -0.1665065 0.09434434
v 0.10291 -0.2085354 0.0008105257
v 0.1103553 0.03165459 -0.09381001
v 0.1690812 0.05016291 -0.09380995
v 0.1612673 0.04204583 -0.08150294
v 0.1690812 0.05016291 0.09543107
v 0.1103553 0.03165459 0.09543115
v 0.1613274 0.04500723 0.08312404
v 0.1370504 -0.03365815 -0.08287563
v 0.09033578 -0.195948 0.0008105853
v -0.0006234245 -0.1520576 -0.08150306
v 0.1998024 -0.04817891 0.0008105555
v 0.2025576 0.07290982 0.0008105555
v 0.1998024 -0.04817891 0.0008105555
v 0.1612673 0.04204583 -0.08150294
v 0.1370504 -0.03365815 -0.08287563
v 0.1384594 -0.03368295 0.0831241
v -0.0006229777 -0.1520579 0.08312413
v 0.09033578 -0.195948 0.0008105853
v 0.1998024 -0.04817891 0.0008105555
v 0.2025576 0.07290982 0.0008105555
v 0.1613274 0.04500723 0.08312404
v 0.1998024 -0.04817891 0.0008105555
v 0.1384594 -0.03368295 0.0831241
v 0.1493937 -0.04827738 -0.07939982
v 0.04424958 -0.1280123 -0.0938101
v 0.10291 -0.2085354 0.0008105257
v 0.2006094 -0.1131866 0.0008105257
v 0.1103553 0.03165459 -0.09381001
v 5.228815E-11 -4.916929E-09 -0.0938101
v 0.1272435 -0.03381145 -0.0938101
v 0.04424958 -0.1280123 -0.0938101
v 0.2162811 0.07263159 0.0008105257
v 0.1690812 0.05016291 -0.09380995
v 0.2136835 -0.05548585 0.0008105257
v 0.1577879 -0.03818226 -0.07896914
v 0.2136835 -0.05548585 0.0008105257
v 0.1577879 -0.03818226 -0.07896914
v 0.1493937 -0.04827738 -0.07939982
v 0.2123771 -0.0689962 0.0008105257
v -0.02345326 -0.2290233 0.0008105257
v 0.003677464 -0.1665065 -0.09272318
v -0.009963453 -0.1662207 -0.0938101
v -0.03152883 -0.2303326 0.0008105257
v 0.1493937 -0.04827738 0.08102097
v 0.10291 -0.2085354 0.0008105257
v 0.04424958 -0.1280123 0.09543117
v 0.2006094 -0.1131866 0.0008105257
v 0.2162811 0.07263159 0.0008105257
v 0.2136835 -0.05548585 0.0008105257
v 0.1690812 0.05016291 0.09543107
v 0.1577879 -0.03818226 0.08059026
v 0.2136835 -0.05548585 0.0008105257
v 0.2123771 -0.0689962 0.0008105257
v 0.1493937 -0.04827738 0.08102097
v 0.1577879 -0.03818226 0.08059026
v -0.02345326 -0.2290233 0.0008105257
v -0.03152883 -0.2303326 0.0008105257
v -0.009963453 -0.1662207 0.09543117
v 0.003677464 -0.1665065 0.09434434
v 0.03137625 -0.002342706 -0.09543117
v 0.08268968 -0.04694868 -0.09543117
v 0.06990966 -0.009832744 -0.09543117
v 0.04415627 -0.03945852 -0.09543117
v 0.01840316 -0.06908429 -0.09543117
v 0.005623149 -0.03196848 -0.09543117
v 0.05693628 -0.07657457 -0.09543117
v 5.228815E-11 -4.916929E-09 -0.0938101
v 0.1103553 0.03165459 -0.09381001
v 0.1612673 0.04204583 -0.08150294
v -4.138664E-09 -4.916929E-09 -0.08150306
v 0.1690812 0.05016291 -0.09380995
v 0.2162811 0.07263159 0.0008105257
v 0.2025576 0.07290982 0.0008105555
v 0.1612673 0.04204583 -0.08150294
v -0.0001411363 -0.1524004 -0.0938101
v 5.228815E-11 -4.916929E-09 -0.0938101
v -4.138664E-09 -4.916929E-09 -0.08150306
v -0.0006234245 -0.1520576 -0.08150306
v -0.009963453 -0.1662207 -0.0938101
v -0.0001411363 -0.1524004 -0.0938101
v -0.0006234245 -0.1520576 -0.08150306
v -0.01108138 -0.1593409 -0.08191776
v -0.03152883 -0.2303326 0.0008105257
v -0.009963453 -0.1662207 -0.0938101
v -0.01108138 -0.1593409 -0.08191776
v -0.03269628 -0.2156987 0.0008105257
v 0.1103553 0.03165459 0.09543115
v 5.228815E-11 -4.916929E-09 0.09543117
v 5.228815E-11 -4.916929E-09 0.08312413
v 0.1613274 0.04500723 0.08312404
v 0.2162811 0.07263159 0.0008105257
v 0.1690812 0.05016291 0.09543107
v 0.1613274 0.04500723 0.08312404
v 0.2025576 0.07290982 0.0008105555
v 5.228815E-11 -4.916929E-09 0.09543117
v -0.0001411363 -0.1524004 0.09543117
v -0.0006229777 -0.1520579 0.08312413
v 5.228815E-11 -4.916929E-09 0.08312413
v -0.0001411363 -0.1524004 0.09543117
v -0.009963453 -0.1662207 0.09543117
v -0.01108133 -0.1593409 0.08353883
v -0.0006229777 -0.1520579 0.08312413
v -0.009963453 -0.1662207 0.09543117
v -0.03152883 -0.2303326 0.0008105257
v -0.03269628 -0.2156987 0.0008105257
v -0.01108133 -0.1593409 0.08353883
vt 0.03837518 0.02254853
vt 0.05728584 0.02082747
vt 0.05727481 0.04370749
vt 0.0370089 0.03270599
vt 0.0735033 0.01877818
vt 0.0735082 0.0418919
vt 0.04026362 0.01860267
vt 0.04026885 0.0365451
vt 0.07789896 0.02676132
vt 0.09198646 0.03484568
vt 0.0803543 0.0225288
vt 0.02116173 0.0343985
vt 0.03762846 0.02277264
vt 0.0573443 0.04369476
vt 0.05735154 0.02048373
vt 0.04923466 0.01858163
vt 0.04923001 0.04185733
vt 0.08660262 0.03306809
vt 0.04341897 0.0157533
vt 0.07973514 0.03256261
vt 0.03263756 0.0325636
vt 0.09198681 0.03481397
vt 0.02116899 0.03436661
vt 0.07861684 0.02253267
vt 0.07457043 0.03971899
vt 0.05462083 0.0278796
vt 0.05266202 0.0384331
vt 0.04521327 0.3999797
vt 0.05328011 0.3976151
vt 0.04872986 0.3926935
vt 0.03311937 0.4009914
vt 0.03316123 0.4026957
vt 0.08467764 0.3997476
vt 0.04741551 0.4137505
vt 0.07035602 0.3958821
vt 0.06781107 0.3955939
vt 0.04741551 0.4137505
vt 0.06781107 0.3955939
vt 0.06225125 0.3977104
vt 0.06781107 0.3955939
vt 0.06792818 0.3934383
vt 0.06225125 0.3977104
vt 0.03308862 0.3997397
vt 0.03311937 0.4009914
vt 0.08467764 0.3997476
vt 0.04063861 0.2243049
vt 0.05372835 0.2323208
vt 0.0738766 0.1997992
vt 0.06407037 0.07868746
vt 0.08340186 0.09110948
vt 0.08263171 0.1003076
vt 0.05896911 0.4233536
vt 0.05402861 0.3967571
vt 0.0738766 0.4203568
vt 0.04063861 0.4145645
vt 0.0738766 0.3900588
vt 0.04817386 0.4142268
vt 0.09482956 0.1637257
vt 0.03001945 0.1664307
vt 0.0852595 0.1523543
vt 0.07457043 0.09681556
vt 0.05266202 0.09552968
vt 0.05462083 0.08497617
vt 0.02653844 0.2347882
vt 0.01745458 0.2249379
vt 0.05372835 0.2303375
vt 0.01745626 0.1681863
vt 0.04063861 0.1527483
vt 0.05372835 0.1735894
vt 0.04521327 0.3999797
vt 0.04872986 0.3926935
vt 0.05328011 0.3976151
vt 0.03311937 0.4009914
vt 0.08467764 0.3997476
vt 0.03316123 0.4026957
vt 0.04741551 0.4137505
vt 0.06781107 0.3955939
vt 0.07035602 0.3958821
vt 0.04741551 0.4137505
vt 0.06225125 0.3977104
vt 0.06781107 0.3955939
vt 0.06781107 0.3955939
vt 0.06225125 0.3977104
vt 0.06792818 0.3934383
vt 0.03308862 0.3997397
vt 0.08467764 0.3997476
vt 0.03311937 0.4009914
vt 0.04063861 0.2243049
vt 0.0738766 0.1997992
vt 0.05372835 0.2323208
vt 0.06407037 0.1421281
vt 0.08263171 0.1637483
vt 0.08340186 0.1545501
vt 0.05896911 0.4233536
vt 0.0738766 0.4203568
vt 0.05402861 0.3967571
vt 0.04063861 0.4145645
vt 0.04817386 0.4142268
vt 0.0738766 0.3900588
vt 0.09482956 0.1034571
vt 0.0852595 0.09208575
vt 0.03001945 0.1061621
vt 0.0665644 0.1039495
vt 0.05751569 0.1039495
vt 0.05789044 0.1038397
vt 0.05753107 0.1039506
vt 0.06657977 0.1039506
vt 0.05787105 0.1038947
vt 0.03661617 0.04011413
vt 0.09309431 0.02213824
vt 0.08632196 0.04270202
vt 0.02273796 0.02240664
vt 0.02938886 0.0227049
vt 0.08085291 0.02257273
vt 0.04294762 0.03406152
vt 0.07337619 0.03657511
vt 0.0368331 0.0390802
vt 0.084194 0.04443005
vt 0.09318633 0.02323359
vt 0.02290709 0.02323565
vt 0.02999399 0.0230417
vt 0.04289279 0.03435504
vt 0.08139598 0.02290425
vt 0.07314198 0.0363723
vt 0.04592032 0.1115561
vt 0.08340186 0.09110948
vt 0.06407037 0.07868746
vt 0.02578002 0.09960356
vt 0.02653844 0.2347882
vt 0.05372835 0.2303375
vt 0.01745458 0.2249379
vt 0.04063861 0.2094963
vt 0.04697357 0.1781441
vt 0.067998 0.1719815
vt 0.05246231 0.1485723
vt 0.07191543 0.1539424
vt 0.05246231 0.3462951
vt 0.06225125 0.3393898
vt 0.06792818 0.3351177
vt 0.05266202 0.345219
vt 0.09092105 0.2739349
vt 0.09340797 0.2613761
vt 0.04753605 0.2884627
vt 0.03199297 0.2678996
vt 0.04592032 0.1749968
vt 0.06407037 0.1421281
vt 0.08340186 0.1545501
vt 0.02578002 0.1630442
vt 0.04697357 0.2306254
vt 0.05246231 0.2010536
vt 0.067998 0.2244628
vt 0.07191543 0.2064237
vt 0.05246231 0.3462951
vt 0.05266202 0.345219
vt 0.06792818 0.3351177
vt 0.06225125 0.3393898
vt 0.09092105 0.2739349
vt 0.03199297 0.2678996
vt 0.04753605 0.2884627
vt 0.09340797 0.2613761
vt 0.03274266 0.2881402
vt 0.06137383 0.2595358
vt 0.03274266 0.2690706
vt 0.06137383 0.2786053
vt 0.09000517 0.2881402
vt 0.06137383 0.2976749
vt 0.09000517 0.2690706
vt 0.08250151 0.1031217
vt 0.05424933 0.1035846
vt 0.04123603 0.1031176
vt 0.08250151 0.1031217
vt 0.07361487 0.1037828
vt 0.05003198 0.1036941
vt 0.05003198 0.1036941
vt 0.07393544 0.1035008
vt 0.09196138 0.1038032
vt 0.03208742 0.1037641
vt 0.03208742 0.1037641
vt 0.09076942 0.103577
vt 0.05237607 0.1059848
vt 0.06761581 0.1083615
vt 0.06753805 0.1004841
vt 0.05237607 0.1059848
vt 0.06245574 0.09193268
vt 0.06277039 0.1143645
vt 0.06277039 0.1143645
vt 0.06845899 0.0967246
vt 0.0542032 0.1032566
vt 0.08246526 0.1030875
vt 0.08246526 0.1030875
vt 0.04118088 0.10309
vt 0.05013206 0.1035909
vt 0.07371549 0.1035908
vt 0.07360712 0.1036018
vt 0.05013206 0.1035909
vt 0.03207136 0.1037312
vt 0.09194532 0.1037703
vt 0.0909471 0.1035836
vt 0.03207136 0.1037312
vt 0.06304751 0.1105222
vt 0.0525834 0.1037039
vt 0.0525834 0.1037039
vt 0.07187739 0.1037055
vt 0.0627756 0.1144041
vt 0.06246096 0.09197226
vt 0.06778183 0.09671447
vt 0.0627756 0.1144041
vn 0.005155917 -0.01977793 0.9997911
vn 0.005155916 -0.01977793 0.9997911
vn 0.005155916 -0.01977793 0.9997911
vn 0.01000428 -4.101701E-05 0.9999499
vn 0.01000428 -4.101701E-05 0.9999499
vn 0.01000428 -4.101701E-05 0.9999499
vn -0.1331954 0.8085132 0.5732062
vn -0.5402023 0.7544457 0.3728178
vn -0.1629151 0.8102579 0.5629751
vn -0.1331954 0.8085132 0.5732062
vn -0.1629151 0.8102579 0.5629751
vn -0.1297526 0.80826 0.5743519
vn 0 0 -1
vn 0 0 -1
vn 0 0 -1
vn 0 0 -1
vn 0 0 -1
vn 0 0 -1
vn -0.1331951 0.8085144 -0.5732048
vn -0.1629132 0.8102588 -0.562974
vn -0.5401719 0.7544585 -0.3728359
vn -0.1331951 0.8085144 -0.5732048
vn -0.1297524 0.8082611 -0.5743503
vn -0.1629132 0.8102588 -0.562974
vn 0.7387544 -0.257122 -0.623001
vn 0.745303 -0.1984712 -0.6365003
vn 0.7422858 -0.2286435 -0.6298683
vn 0 0 -1
vn 0 0 -1
vn 0 0 -1
vn 0 0 -1
vn 0 0 -1
vn 0 0 -1
vn 0 0 -1
vn 0 0 -1
vn 0 0 -1
vn 0.6811178 -0.2051373 -0.7028494
vn 0.6811178 -0.2051373 -0.7028494
vn 0.6811177 -0.2051372 -0.7028495
vn 0.6082729 -0.4787792 -0.6330676
vn 0.6082729 -0.4787792 -0.6330676
vn 0.6082729 -0.4787792 -0.6330676
vn 0.5145843 -0.5614411 -0.6480638
vn 0.5145843 -0.5614412 -0.6480638
vn 0.5145842 -0.5614411 -0.6480638
vn 0.0005709345 -0.001039264 -0.9999993
vn 0 0 -1
vn 0.007045226 -0.01112765 -0.9999133
vn 0.4651929 -0.5107186 -0.7230229
vn 0.465193 -0.5107186 -0.7230229
vn 0.465193 -0.5107186 -0.7230229
vn 0.06831744 -0.8157947 -0.5742925
vn 0.1212405 -0.8160243 -0.5651594
vn 0.007045226 -0.01112765 -0.9999133
vn 0.0005709345 -0.001039264 -0.9999993
vn 0.007045226 -0.01112765 -0.9999133
vn 0.1212405 -0.8160243 -0.5651594
vn 0.1217489 -0.8406039 -0.52779
vn 0.1364274 -0.8414438 -0.5228384
vn 0.1212405 -0.8160243 -0.5651594
vn 0.7387545 -0.2571213 0.623001
vn 0.7422861 -0.228643 0.629868
vn 0.7453036 -0.1984711 0.6364997
vn 0 0 1
vn 0 0 1
vn 0 0 1
vn 0 0 1
vn 0 0 1
vn 0 0 1
vn 0 0 1
vn 0 0 1
vn 0 0 1
vn 0 0 1
vn 0 0 1
vn 0 0 1
vn 0 0 1
vn 0 0 1
vn 0 0 1
vn 0.6811162 -0.2051377 0.7028509
vn 0.6811162 -0.2051377 0.7028509
vn 0.6811162 -0.2051377 0.7028509
vn 0.608273 -0.4787779 0.6330684
vn 0.608273 -0.4787779 0.6330684
vn 0.608273 -0.4787779 0.6330684
vn 0.514581 -0.5614408 0.6480669
vn 0.514581 -0.5614408 0.6480668
vn 0.514581 -0.5614407 0.6480668
vn 0.0005711846 -0.001039176 0.9999993
vn 0.007045191 -0.01112674 0.9999133
vn 0 0 1
vn 0.4651938 -0.5107179 0.7230228
vn 0.4651938 -0.5107179 0.7230227
vn 0.4651938 -0.5107179 0.7230228
vn 0.06831499 -0.8157951 0.5742922
vn 0.007045191 -0.01112674 0.9999133
vn 0.12124 -0.8160241 0.5651597
vn 0.0005711846 -0.001039176 0.9999993
vn 0.12124 -0.8160241 0.5651597
vn 0.007045191 -0.01112674 0.9999133
vn 0.1217484 -0.8406039 0.5277901
vn 0.12124 -0.8160241 0.5651597
vn 0.1364274 -0.8414435 0.5228387
vn -0.2600657 0.9555935 0.1385888
vn -0.3699942 0.9289978 0.008208768
vn -0.3535302 0.9342389 0.0470551
vn -0.2917886 0.9545606 0.0606085
vn -0.2718191 0.9613788 -0.04318639
vn -0.2901083 0.9561572 0.04000885
vn -0.6217765 0.4392978 0.6483914
vn -0.5003209 0.5062307 0.7024313
vn -0.4298462 0.5084709 0.7461164
vn -0.7444959 0.3545181 0.5657232
vn -0.8967056 0.02040307 0.4421571
vn -0.7444959 0.3545181 0.5657232
vn -0.8512189 0.1054682 0.514104
vn -0.6217765 0.4392978 0.6483914
vn -0.6250694 0.4347482 -0.6482918
vn -0.4311875 0.5066153 -0.7466045
vn -0.4991951 0.5051695 -0.7039943
vn -0.7455699 0.3529509 -0.5652885
vn -0.8966737 0.02040219 -0.4422215
vn -0.8529832 0.1002692 -0.5122166
vn -0.7455699 0.3529509 -0.5652885
vn -0.6250694 0.4347482 -0.6482918
vn 0.4825711 -0.4999214 -0.7191688
vn 0.47817 -0.5000637 -0.7220039
vn 0.4821819 -0.4999345 -0.7194207
vn 0.4877138 -0.4997369 -0.71582
vn 0 0 -1
vn 0 0 -1
vn 0 0 -1
vn 0 0 -1
vn 0.8964133 -0.01817554 -0.4428462
vn 0.8670401 -0.07508954 -0.4925474
vn 0.8640726 -0.08026448 -0.4969268
vn 0.7817519 -0.1991985 -0.5909178
vn 0.7337772 -0.2903349 -0.6142287
vn 0.7337772 -0.2903349 -0.6142287
vn 0.7387544 -0.257122 -0.623001
vn 0.7422858 -0.2286435 -0.6298683
vn 0.1217489 -0.8406039 -0.52779
vn 0.1212405 -0.8160243 -0.5651594
vn 0.06831744 -0.8157947 -0.5742925
vn 0.06666771 -0.8356774 -0.5451594
vn 0.4825711 -0.4999216 0.7191687
vn 0.4821818 -0.4999347 0.7194206
vn 0.4781698 -0.5000638 0.722004
vn 0.487714 -0.4997374 0.7158196
vn 0.8964132 -0.01817553 0.4428464
vn 0.8640726 -0.08026443 0.4969266
vn 0.8670401 -0.07508954 0.4925474
vn 0.7817523 -0.1991984 0.5909173
vn 0.733777 -0.2903338 0.6142293
vn 0.7422861 -0.228643 0.629868
vn 0.7387545 -0.2571213 0.623001
vn 0.7337771 -0.2903338 0.6142292
vn 0.1217484 -0.8406039 0.5277901
vn 0.06666534 -0.8356777 0.5451592
vn 0.06831499 -0.8157951 0.5742922
vn 0.12124 -0.8160241 0.5651597
vn 0 0 -1
vn 0 0 -1
vn 0 0 -1
vn 0 0 -1
vn 0 0 -1
vn 0 0 -1
vn 0 0 -1
vn -0.259539 0.9565285 0.133014
vn -0.2600657 0.9555935 0.1385888
vn -0.3535302 0.9342389 0.0470551
vn -0.259539 0.9565285 0.133014
vn -0.3699942 0.9289978 0.008208768
vn -0.338873 0.9406444 0.01879067
vn -0.3388196 0.9406613 0.01890897
vn -0.3535302 0.9342389 0.0470551
vn -0.9998043 0.002510714 -0.01962528
vn -0.9998043 0.002510714 -0.01962528
vn -0.9998043 0.002510714 -0.01962528
vn -0.9998043 0.002510714 -0.01962529
vn -0.6962231 0.673923 -0.2471866
vn -0.6962231 0.673923 -0.2471866
vn -0.6962231 0.673923 -0.2471866
vn -0.6962231 0.6739229 -0.2471866
vn -0.9997875 0.0206145 0
vn -0.9744708 0.02009155 -0.2236135
vn -0.9744708 0.02009155 -0.2236135
vn -0.9997875 0.0206145 0
vn -0.2718191 0.9613788 -0.04318639
vn -0.2713494 0.9616386 -0.04025929
vn -0.2713494 0.9616386 -0.04025929
vn -0.2901083 0.9561572 0.04000885
vn -0.338873 0.9406444 0.01879067
vn -0.2917886 0.9545606 0.0606085
vn -0.2901083 0.9561572 0.04000885
vn -0.3388196 0.9406613 0.01890897
vn -0.9998047 0.002509259 0.01960693
vn -0.9998047 0.002509259 0.01960693
vn -0.9998047 0.002509259 0.01960693
vn -0.9998047 0.002509259 0.01960693
vn -0.6962167 0.6739352 0.2471713
vn -0.6962167 0.6739352 0.2471712
vn -0.6962166 0.6739352 0.2471712
vn -0.6962167 0.6739352 0.2471713
vn -0.9744712 0.02009345 0.223612
vn -0.9997875 0.0206145 0
vn -0.9997875 0.0206145 0
vn -0.9744712 0.02009345 0.223612
g GemPiece_02_0
f 3/3/3 2/2/2 1/1/1
f 6/6/6 5/5/5 4/4/4
f 9/9/9 8/8/8 7/7/7
f 12/12/12 11/11/11 10/10/10
f 15/15/15 14/14/14 13/13/13
f 18/18/18 17/17/17 16/16/16
f 21/21/21 20/20/20 19/19/19
f 24/24/24 23/23/23 22/22/22
f 27/27/27 26/26/26 25/25/25
f 30/30/30 29/29/29 28/28/28
f 33/33/33 32/32/32 31/31/31
f 36/36/36 35/35/35 34/34/34
f 39/39/39 38/38/38 37/37/37
f 42/42/42 41/41/41 40/40/40
f 45/45/45 44/44/44 43/43/43
f 48/48/48 47/47/47 46/46/46
f 51/51/51 50/50/50 49/49/49
f 54/54/54 53/53/53 52/52/52
f 57/57/57 56/56/56 55/55/55
f 60/60/60 59/59/59 58/58/58
f 63/63/63 62/62/62 61/61/61
f 66/66/66 65/65/65 64/64/64
f 69/69/69 68/68/68 67/67/67
f 72/72/72 71/71/71 70/70/70
f 75/75/75 74/74/74 73/73/73
f 78/78/78 77/77/77 76/76/76
f 81/81/81 80/80/80 79/79/79
f 84/84/84 83/83/83 82/82/82
f 87/87/87 86/86/86 85/85/85
f 90/90/90 89/89/89 88/88/88
f 93/93/93 92/92/92 91/91/91
f 96/96/96 95/95/95 94/94/94
f 99/99/99 98/98/98 97/97/97
f 102/102/102 101/101/101 100/100/100
f 105/105/105 104/104/104 103/103/103
f 108/108/108 107/107/107 106/106/106
f 111/111/111 110/110/110 109/109/109
f 109/109/109 110/110/110 112/112/112
f 115/115/115 114/114/114 113/113/113
f 116/116/116 114/114/114 115/115/115
f 119/119/119 118/118/118 117/117/117
f 119/119/119 117/117/117 120/120/120
f 123/123/123 122/122/122 121/121/121
f 123/123/123 124/124/124 122/122/122
f 127/127/127 126/126/126 125/125/125
f 127/127/127 125/125/125 128/128/128
f 131/131/131 130/130/130 129/129/129
f 132/132/132 130/130/130 131/131/131
f 135/135/135 134/134/134 133/133/133
f 135/135/135 136/136/136 134/134/134
f 139/139/139 138/138/138 137/137/137
f 140/140/140 139/139/139 137/137/137
f 143/143/143 142/142/142 141/141/141
f 144/144/144 143/143/143 141/141/141
f 147/147/147 146/146/146 145/145/145
f 145/145/145 146/146/146 148/148/148
f 151/151/151 150/150/150 149/149/149
f 152/152/152 150/150/150 151/151/151
f 155/155/155 154/154/154 153/153/153
f 156/156/156 155/155/155 153/153/153
f 159/159/159 158/158/158 157/157/157
f 160/160/160 159/159/159 157/157/157
f 163/163/163 162/162/162 161/161/161
f 162/162/162 164/164/164 161/161/161
f 161/161/161 164/164/164 165/165/165
f 165/165/165 164/164/164 162/162/162
f 166/166/166 161/161/161 165/165/165
f 167/167/167 165/165/165 162/162/162
f 170/170/170 169/169/169 168/168/168
f 171/171/171 170/170/170 168/168/168
f 174/174/174 173/173/173 172/172/172
f 175/175/175 174/174/174 172/172/172
f 178/178/178 177/177/177 176/176/176
f 179/179/179 178/178/178 176/176/176
f 182/182/182 181/181/181 180/180/180
f 183/183/183 182/182/182 180/180/180
f 186/186/186 185/185/185 184/184/184
f 187/187/187 186/186/186 184/184/184
f 190/190/190 189/189/189 188/188/188
f 191/191/191 190/190/190 188/188/188
f 194/194/194 193/193/193 192/192/192
f 195/195/195 194/194/194 192/192/192
f 198/198/198 197/197/197 196/196/196
f 199/199/199 198/198/198 196/196/196
f 202/202/202 201/201/201 200/200/200
f 203/203/203 202/202/202 200/200/200
f 206/206/206 205/205/205 204/204/204
f 207/207/207 206/206/206 204/204/204
