g GemPiece_02
v 0.3075632 0.08018833 -0.1569853
v 0.2613777 -0.06419129 -0.1596032
v -4.272871E-08 2.906393E-07 -0.1569855
v 0.2613777 -0.06419129 -0.1596032
v -0.001189009 -0.2899991 -0.1569855
v -4.272871E-08 2.906393E-07 -0.1569855
v -0.06235724 -0.4113728 3.284067E-08
v -0.02113405 -0.3038891 -0.1577764
v -0.001189009 -0.2899991 -0.1569855
v -0.06235724 -0.4113728 3.284067E-08
v -0.001189009 -0.2899991 -0.1569855
v 0.1722852 -0.373705 1.5205E-07
v 0.3076778 0.08583658 0.1569854
v -3.434681E-08 2.906393E-07 0.1569856
v 0.2640647 -0.06423885 0.1569856
v 0.2640647 -0.06423885 0.1569856
v -3.434681E-08 2.906393E-07 0.1569856
v -0.001188156 -0.2899994 0.1569856
v -0.06235724 -0.4113728 3.284067E-08
v -0.001188156 -0.2899994 0.1569856
v -0.02113395 -0.3038893 0.1577765
v -0.06235724 -0.4113728 3.284067E-08
v 0.1722852 -0.373705 1.5205E-07
v -0.001188156 -0.2899994 0.1569856
v 0.2849183 -0.09207303 -0.1529743
v 0.3825952 -0.2158654 3.284067E-08
v 0.4050381 -0.1315871 3.284067E-08
v 0.3224656 0.0956692 -0.1804567
v 0.2104657 0.06037062 -0.180457
v 0.2426744 -0.06448371 -0.180457
v 0.2718756 -0.07230408 -0.180457
v 0.2426744 -0.06448371 -0.180457
v 0.08439119 -0.2441402 -0.180457
v 0.3224656 0.0956692 -0.1804567
v 0.2426744 -0.06448371 -0.180457
v 0.2718756 -0.07230408 -0.180457
v 0.3224656 0.0956692 -0.1804567
v 0.2718756 -0.07230408 -0.180457
v 0.3009275 -0.07281954 -0.1521529
v 0.2718756 -0.07230408 -0.180457
v 0.2849183 -0.09207303 -0.1529743
v 0.3009275 -0.07281954 -0.1521529
v 0.2849183 -0.09207303 -0.1529743
v 0.2718756 -0.07230408 -0.180457
v 0.08439119 -0.2441402 -0.180457
v 0.08439119 -0.2441402 -0.180457
v -3.434681E-08 2.906393E-07 -0.180457
v -0.0002692043 -0.2906526 -0.180457
v 0.1962663 -0.3977112 3.284067E-08
v 0.08439119 -0.2441402 -0.180457
v 0.007013495 -0.3175551 -0.1783842
v -0.01900198 -0.31701 -0.180457
v 0.007013495 -0.3175551 -0.1783842
v -0.0002692043 -0.2906526 -0.180457
v 0.08439119 -0.2441402 -0.180457
v -0.0002692043 -0.2906526 -0.180457
v 0.007013495 -0.3175551 -0.1783842
v -0.04472926 -0.436785 3.284067E-08
v 0.1962663 -0.3977112 3.284067E-08
v 0.007013495 -0.3175551 -0.1783842
v 0.2849183 -0.09207303 0.1529745
v 0.4050381 -0.1315871 3.284067E-08
v 0.3825952 -0.2158654 3.284067E-08
v 0.2104657 0.06037062 0.1804571
v 0.2426744 -0.06448371 0.1804572
v -3.434681E-08 2.906393E-07 0.1804572
v 0.2426744 -0.06448371 0.1804572
v 0.08439119 -0.2441402 0.1804572
v -3.434681E-08 2.906393E-07 0.1804572
v 0.3224656 0.0956692 0.180457
v 0.2426744 -0.06448371 0.1804572
v 0.2104657 0.06037062 0.1804571
v 0.2718756 -0.07230408 0.1804571
v 0.08439119 -0.2441402 0.1804572
v 0.2426744 -0.06448371 0.1804572
v 0.3224656 0.0956692 0.180457
v 0.2718756 -0.07230408 0.1804571
v 0.2426744 -0.06448371 0.1804572
v 0.3224656 0.0956692 0.180457
v 0.3009275 -0.07281954 0.1521531
v 0.2718756 -0.07230408 0.1804571
v 0.2718756 -0.07230408 0.1804571
v 0.3009275 -0.07281954 0.1521531
v 0.2849183 -0.09207303 0.1529745
v 0.2849183 -0.09207303 0.1529745
v 0.08439119 -0.2441402 0.1804572
v 0.2718756 -0.07230408 0.1804571
v 0.08439119 -0.2441402 0.1804572
v -0.0002692043 -0.2906526 0.1804572
v -3.434681E-08 2.906393E-07 0.1804572
v 0.1962663 -0.3977112 3.284067E-08
v 0.007013495 -0.3175551 0.1783844
v 0.08439119 -0.2441402 0.1804572
v -0.01900198 -0.31701 0.1804572
v -0.0002692043 -0.2906526 0.1804572
v 0.007013495 -0.3175551 0.1783844
v 0.08439119 -0.2441402 0.1804572
v 0.007013495 -0.3175551 0.1783844
v -0.0002692043 -0.2906526 0.1804572
v -0.04472926 -0.436785 3.284067E-08
v 0.007013495 -0.3175551 0.1783844
v 0.1962663 -0.3977112 3.284067E-08
v 0.2104657 0.06037062 -0.180457
v 0.3224656 0.0956692 -0.1804567
v 0.3075632 0.08018833 -0.1569853
v 0.3224656 0.0956692 0.180457
v 0.2104657 0.06037062 0.1804571
v 0.3076778 0.08583658 0.1569854
v 0.2613777 -0.06419129 -0.1596032
v 0.1722852 -0.373705 1.5205E-07
v -0.001189009 -0.2899991 -0.1569855
v 0.3810561 -0.09188504 9.244532E-08
v 0.3863106 0.1390514 9.244532E-08
v 0.3810561 -0.09188504 9.244532E-08
v 0.3075632 0.08018833 -0.1569853
v 0.2613777 -0.06419129 -0.1596032
v 0.2640647 -0.06423885 0.1569856
v -0.001188156 -0.2899994 0.1569856
v 0.1722852 -0.373705 1.5205E-07
v 0.3810561 -0.09188504 9.244532E-08
v 0.3863106 0.1390514 9.244532E-08
v 0.3076778 0.08583658 0.1569854
v 0.3810561 -0.09188504 9.244532E-08
v 0.2640647 -0.06423885 0.1569856
v 0.2849183 -0.09207303 -0.1529743
v 0.08439119 -0.2441402 -0.180457
v 0.1962663 -0.3977112 3.284067E-08
v 0.3825952 -0.2158654 3.284067E-08
v 0.2104657 0.06037062 -0.180457
v -3.434681E-08 2.906393E-07 -0.180457
v 0.2426744 -0.06448371 -0.180457
v 0.08439119 -0.2441402 -0.180457
v 0.4124837 0.1385207 3.284067E-08
v 0.3224656 0.0956692 -0.1804567
v 0.4075295 -0.1058206 3.284067E-08
v 0.3009275 -0.07281954 -0.1521529
v 0.4075295 -0.1058206 3.284067E-08
v 0.3009275 -0.07281954 -0.1521529
v 0.2849183 -0.09207303 -0.1529743
v 0.4050381 -0.1315871 3.284067E-08
v -0.04472926 -0.436785 3.284067E-08
v 0.007013495 -0.3175551 -0.1783842
v -0.01900198 -0.31701 -0.180457
v -0.06013071 -0.4392822 3.284067E-08
v 0.2849183 -0.09207303 0.1529745
v 0.1962663 -0.3977112 3.284067E-08
v 0.08439119 -0.2441402 0.1804572
v 0.3825952 -0.2158654 3.284067E-08
v 0.4124837 0.1385207 3.284067E-08
v 0.4075295 -0.1058206 3.284067E-08
v 0.3224656 0.0956692 0.180457
v 0.3009275 -0.07281954 0.1521531
v 0.4075295 -0.1058206 3.284067E-08
v 0.4050381 -0.1315871 3.284067E-08
v 0.2849183 -0.09207303 0.1529745
v 0.3009275 -0.07281954 0.1521531
v -0.04472926 -0.436785 3.284067E-08
v -0.06013071 -0.4392822 3.284067E-08
v -0.01900198 -0.31701 0.1804572
v 0.007013495 -0.3175551 0.1783844
v 0.05983963 -0.004467793 -0.1835488
v 0.1577028 -0.08953888 -0.1835488
v 0.1333292 -0.01875252 -0.1835488
v 0.08421323 -0.07525403 -0.1835488
v 0.03509783 -0.1317549 -0.1835488
v 0.01072423 -0.06096894 -0.1835488
v 0.1085868 -0.14604 -0.1835488
v -3.434681E-08 2.906393E-07 -0.180457
v 0.2104657 0.06037062 -0.180457
v 0.3075632 0.08018833 -0.1569853
v -4.272871E-08 2.906393E-07 -0.1569855
v 0.3224656 0.0956692 -0.1804567
v 0.4124837 0.1385207 3.284067E-08
v 0.3863106 0.1390514 9.244532E-08
v 0.3075632 0.08018833 -0.1569853
v -0.0002692043 -0.2906526 -0.180457
v -3.434681E-08 2.906393E-07 -0.180457
v -4.272871E-08 2.906393E-07 -0.1569855
v -0.001189009 -0.2899991 -0.1569855
v -0.01900198 -0.31701 -0.180457
v -0.0002692043 -0.2906526 -0.180457
v -0.001189009 -0.2899991 -0.1569855
v -0.02113405 -0.3038891 -0.1577764
v -0.06013071 -0.4392822 3.284067E-08
v -0.01900198 -0.31701 -0.180457
v -0.02113405 -0.3038891 -0.1577764
v -0.06235724 -0.4113728 3.284067E-08
v 0.2104657 0.06037062 0.1804571
v -3.434681E-08 2.906393E-07 0.1804572
v -3.434681E-08 2.906393E-07 0.1569856
v 0.3076778 0.08583658 0.1569854
v 0.4124837 0.1385207 3.284067E-08
v 0.3224656 0.0956692 0.180457
v 0.3076778 0.08583658 0.1569854
v 0.3863106 0.1390514 9.244532E-08
v -3.434681E-08 2.906393E-07 0.1804572
v -0.0002692043 -0.2906526 0.1804572
v -0.001188156 -0.2899994 0.1569856
v -3.434681E-08 2.906393E-07 0.1569856
v -0.0002692043 -0.2906526 0.1804572
v -0.01900198 -0.31701 0.1804572
v -0.02113395 -0.3038893 0.1577765
v -0.001188156 -0.2899994 0.1569856
v -0.01900198 -0.31701 0.1804572
v -0.06013071 -0.4392822 3.284067E-08
v -0.06235724 -0.4113728 3.284067E-08
v -0.02113395 -0.3038893 0.1577765
vt 0.03837518 0.02254853
vt 0.05728584 0.02082747
vt 0.05727481 0.04370749
vt 0.0370089 0.03270599
vt 0.0735033 0.01877818
vt 0.0735082 0.0418919
vt 0.04026362 0.01860267
vt 0.04026885 0.0365451
vt 0.07789896 0.02676132
vt 0.09198646 0.03484568
vt 0.0803543 0.0225288
vt 0.02116173 0.0343985
vt 0.03762846 0.02277264
vt 0.0573443 0.04369476
vt 0.05735154 0.02048373
vt 0.04923466 0.01858163
vt 0.04923001 0.04185733
vt 0.08660262 0.03306809
vt 0.04341897 0.0157533
vt 0.07973514 0.03256261
vt 0.03263756 0.0325636
vt 0.09198682 0.03481397
vt 0.02116899 0.03436661
vt 0.07861684 0.02253267
vt 0.07457043 0.03971899
vt 0.05462083 0.0278796
vt 0.05266202 0.0384331
vt 0.04521327 0.3999797
vt 0.05328011 0.3976151
vt 0.04872986 0.3926935
vt 0.03311937 0.4009914
vt 0.03316123 0.4026957
vt 0.08467764 0.3997476
vt 0.04741551 0.4137505
vt 0.07035602 0.3958821
vt 0.06781107 0.3955939
vt 0.04741551 0.4137505
vt 0.06781107 0.3955939
vt 0.06225125 0.3977104
vt 0.06781107 0.3955939
vt 0.06792818 0.3934383
vt 0.06225125 0.3977104
vt 0.03308862 0.3997397
vt 0.03311937 0.4009914
vt 0.08467764 0.3997476
vt 0.04063861 0.2243049
vt 0.05372835 0.2323208
vt 0.0738766 0.1997992
vt 0.06407037 0.07868746
vt 0.08340186 0.09110948
vt 0.08263171 0.1003076
vt 0.05896911 0.4233536
vt 0.05402861 0.3967571
vt 0.0738766 0.4203568
vt 0.04063861 0.4145645
vt 0.0738766 0.3900588
vt 0.04817386 0.4142268
vt 0.09482956 0.1637257
vt 0.03001945 0.1664307
vt 0.0852595 0.1523543
vt 0.07457043 0.09681556
vt 0.05266202 0.09552968
vt 0.05462083 0.08497617
vt 0.02653844 0.2347882
vt 0.01745458 0.2249379
vt 0.05372835 0.2303375
vt 0.01745626 0.1681863
vt 0.04063861 0.1527483
vt 0.05372835 0.1735894
vt 0.04521327 0.3999797
vt 0.04872986 0.3926935
vt 0.05328011 0.3976151
vt 0.03311937 0.4009914
vt 0.08467764 0.3997476
vt 0.03316123 0.4026957
vt 0.04741551 0.4137505
vt 0.06781107 0.3955939
vt 0.07035602 0.3958821
vt 0.04741551 0.4137505
vt 0.06225125 0.3977104
vt 0.06781107 0.3955939
vt 0.06781107 0.3955939
vt 0.06225125 0.3977104
vt 0.06792818 0.3934383
vt 0.03308862 0.3997397
vt 0.08467764 0.3997476
vt 0.03311937 0.4009914
vt 0.04063861 0.2243049
vt 0.0738766 0.1997992
vt 0.05372835 0.2323208
vt 0.06407037 0.1421281
vt 0.08263171 0.1637483
vt 0.08340186 0.1545501
vt 0.05896911 0.4233536
vt 0.0738766 0.4203568
vt 0.05402861 0.3967571
vt 0.04063861 0.4145645
vt 0.04817386 0.4142268
vt 0.0738766 0.3900588
vt 0.09482956 0.1034571
vt 0.0852595 0.09208575
vt 0.03001945 0.1061621
vt 0.0665644 0.1039495
vt 0.05751569 0.1039495
vt 0.05789044 0.1038397
vt 0.05753107 0.1039506
vt 0.06657977 0.1039506
vt 0.05787105 0.1038947
vt 0.03661617 0.04011413
vt 0.0930943 0.02213824
vt 0.08632196 0.04270202
vt 0.02273796 0.02240664
vt 0.02938886 0.0227049
vt 0.08085291 0.02257273
vt 0.04294762 0.03406152
vt 0.07337619 0.03657511
vt 0.0368331 0.0390802
vt 0.084194 0.04443005
vt 0.09318633 0.02323359
vt 0.02290709 0.02323565
vt 0.02999399 0.0230417
vt 0.04289279 0.03435504
vt 0.08139598 0.02290425
vt 0.07314198 0.0363723
vt 0.04592032 0.1115561
vt 0.08340186 0.09110948
vt 0.06407037 0.07868746
vt 0.02578002 0.09960356
vt 0.02653844 0.2347882
vt 0.05372835 0.2303375
vt 0.01745458 0.2249379
vt 0.04063861 0.2094963
vt 0.04697357 0.1781441
vt 0.067998 0.1719815
vt 0.05246231 0.1485723
vt 0.07191543 0.1539424
vt 0.05246231 0.3462951
vt 0.06225125 0.3393898
vt 0.06792818 0.3351177
vt 0.05266202 0.345219
vt 0.09092105 0.2739349
vt 0.09340797 0.2613761
vt 0.04753605 0.2884627
vt 0.03199297 0.2678996
vt 0.04592032 0.1749968
vt 0.06407037 0.1421281
vt 0.08340186 0.1545501
vt 0.02578002 0.1630442
vt 0.04697357 0.2306254
vt 0.05246231 0.2010536
vt 0.067998 0.2244628
vt 0.07191543 0.2064237
vt 0.05246231 0.3462951
vt 0.05266202 0.345219
vt 0.06792818 0.3351177
vt 0.06225125 0.3393898
vt 0.09092105 0.2739349
vt 0.03199297 0.2678996
vt 0.04753605 0.2884627
vt 0.09340797 0.2613761
vt 0.03274266 0.2881402
vt 0.06137383 0.2595358
vt 0.03274266 0.2690706
vt 0.06137383 0.2786053
vt 0.09000517 0.2881402
vt 0.06137383 0.2976749
vt 0.09000517 0.2690706
vt 0.08250151 0.1031217
vt 0.05424933 0.1035846
vt 0.04123603 0.1031176
vt 0.08250151 0.1031217
vt 0.07361487 0.1037828
vt 0.05003198 0.1036941
vt 0.05003198 0.1036941
vt 0.07393544 0.1035008
vt 0.09196138 0.1038032
vt 0.03208742 0.1037641
vt 0.03208742 0.1037641
vt 0.09076942 0.103577
vt 0.05237607 0.1059848
vt 0.06761581 0.1083615
vt 0.06753805 0.1004841
vt 0.05237607 0.1059848
vt 0.06245574 0.09193268
vt 0.06277039 0.1143645
vt 0.06277039 0.1143645
vt 0.06845899 0.0967246
vt 0.0542032 0.1032566
vt 0.08246526 0.1030875
vt 0.08246526 0.1030875
vt 0.04118088 0.10309
vt 0.05013206 0.1035909
vt 0.07371549 0.1035908
vt 0.07360712 0.1036018
vt 0.05013206 0.1035909
vt 0.03207136 0.1037312
vt 0.09194532 0.1037703
vt 0.0909471 0.1035836
vt 0.03207136 0.1037312
vt 0.06304751 0.1105222
vt 0.0525834 0.1037039
vt 0.0525834 0.1037039
vt 0.07187739 0.1037055
vt 0.0627756 0.1144041
vt 0.06246096 0.09197226
vt 0.06778183 0.09671447
vt 0.0627756 0.1144041
vn 0.005155814 -0.0197779 0.9997911
vn 0.005155815 -0.0197779 0.9997911
vn 0.005155815 -0.0197779 0.9997911
vn 0.01000453 -4.101715E-05 0.9999499
vn 0.01000454 -4.101716E-05 0.9999499
vn 0.01000453 -4.101716E-05 0.9999499
vn -0.1331952 0.8085136 0.5732056
vn -0.540194 0.7544492 0.3728226
vn -0.1629143 0.8102583 0.5629746
vn -0.1331952 0.8085136 0.5732056
vn -0.1629143 0.8102583 0.5629746
vn -0.1297525 0.8082604 0.5743511
vn 0 0 -1
vn 0 0 -1
vn 0 0 -1
vn 0 0 -1
vn 0 0 -1
vn 0 0 -1
vn -0.1331951 0.8085151 -0.5732036
vn -0.1629136 0.8102598 -0.5629726
vn -0.5401763 0.7544582 -0.3728301
vn -0.1331951 0.8085151 -0.5732036
vn -0.1297523 0.8082619 -0.5743492
vn -0.1629136 0.8102598 -0.5629726
vn 0.7387558 -0.2571214 -0.6229995
vn 0.7453033 -0.1984707 -0.6365002
vn 0.7422866 -0.228643 -0.6298674
vn 0 0 -1
vn 0 0 -1
vn 0 0 -1
vn 0 0 -1
vn 0 0 -1
vn 0 0 -1
vn 0 0 -1
vn 0 0 -1
vn 0 0 -1
vn 0.6811177 -0.2051369 -0.7028497
vn 0.6811177 -0.2051369 -0.7028497
vn 0.6811175 -0.2051369 -0.7028497
vn 0.6082764 -0.4787728 -0.633069
vn 0.6082764 -0.4787728 -0.633069
vn 0.6082764 -0.4787728 -0.633069
vn 0.514581 -0.5614408 -0.6480669
vn 0.514581 -0.5614408 -0.6480668
vn 0.514581 -0.5614408 -0.6480668
vn 0.0005709457 -0.001039187 -0.9999993
vn 0 0 -1
vn 0.007045365 -0.01112698 -0.9999133
vn 0.4651923 -0.5107165 -0.7230248
vn 0.4651923 -0.5107165 -0.7230248
vn 0.4651923 -0.5107164 -0.7230248
vn 0.06831943 -0.8157943 -0.5742926
vn 0.1212412 -0.8160243 -0.5651593
vn 0.007045365 -0.01112698 -0.9999133
vn 0.0005709457 -0.001039187 -0.9999993
vn 0.007045365 -0.01112698 -0.9999133
vn 0.1212412 -0.8160243 -0.5651593
vn 0.1217495 -0.8406039 -0.5277898
vn 0.1364277 -0.841444 -0.5228379
vn 0.1212412 -0.8160243 -0.5651593
vn 0.7387558 -0.2571213 0.6229996
vn 0.7422867 -0.228643 0.6298671
vn 0.7453036 -0.198471 0.6364996
vn 0 0 1
vn 0 0 1
vn 0 0 1
vn 0 0 1
vn 0 0 1
vn 0 0 1
vn 0 0 1
vn 0 0 1
vn 0 0 1
vn 0 0 1
vn 0 0 1
vn 0 0 1
vn 0 0 1
vn 0 0 1
vn 0 0 1
vn 0.6811171 -0.2051373 0.7028501
vn 0.681117 -0.2051374 0.7028502
vn 0.681117 -0.2051373 0.7028502
vn 0.6082785 -0.4787713 0.6330682
vn 0.6082784 -0.4787713 0.6330683
vn 0.6082784 -0.4787713 0.6330683
vn 0.5145794 -0.5614392 0.6480695
vn 0.5145793 -0.5614393 0.6480695
vn 0.5145793 -0.5614392 0.6480695
vn 0.0005708903 -0.001039165 0.9999993
vn 0.007045042 -0.01112674 0.9999133
vn 0 0 1
vn 0.4651928 -0.5107166 0.7230244
vn 0.4651928 -0.5107166 0.7230244
vn 0.4651927 -0.5107165 0.7230244
vn 0.0683186 -0.8157945 0.5742925
vn 0.007045042 -0.01112674 0.9999133
vn 0.121241 -0.8160244 0.565159
vn 0.0005708903 -0.001039165 0.9999993
vn 0.121241 -0.8160244 0.565159
vn 0.007045042 -0.01112674 0.9999133
vn 0.1217494 -0.8406041 0.5277895
vn 0.121241 -0.8160244 0.565159
vn 0.1364277 -0.8414442 0.5228376
vn -0.2600648 0.9555938 0.138588
vn -0.3699964 0.928997 0.008204487
vn -0.353532 0.9342384 0.04705116
vn -0.2917862 0.9545606 0.06062031
vn -0.2718192 0.9613793 -0.043176
vn -0.2901063 0.9561573 0.04002107
vn -0.6217765 0.4392979 0.6483914
vn -0.5003217 0.5062306 0.7024307
vn -0.4298477 0.5084713 0.7461153
vn -0.7444953 0.354518 0.5657241
vn -0.8967054 0.02040304 0.4421571
vn -0.7444953 0.354518 0.5657241
vn -0.8512189 0.1054684 0.5141038
vn -0.6217765 0.4392979 0.6483914
vn -0.6250695 0.4347479 -0.648292
vn -0.4311875 0.5066149 -0.7466048
vn -0.4991949 0.505169 -0.7039948
vn -0.7455696 0.3529507 -0.5652891
vn -0.8966739 0.02040232 -0.4422215
vn -0.8529835 0.1002693 -0.5122158
vn -0.7455696 0.3529507 -0.5652891
vn -0.6250695 0.4347479 -0.648292
vn 0.4825708 -0.499922 -0.7191685
vn 0.4781697 -0.5000644 -0.7220037
vn 0.4821816 -0.4999351 -0.7194204
vn 0.4877135 -0.4997375 -0.7158198
vn 0 0 -1
vn 0 0 -1
vn 0 0 -1
vn 0 0 -1
vn 0.8964133 -0.01817526 -0.4428462
vn 0.8670399 -0.0750894 -0.4925476
vn 0.8640724 -0.0802644 -0.4969269
vn 0.7817515 -0.1991986 -0.5909183
vn 0.7337793 -0.2903336 -0.6142265
vn 0.7337793 -0.2903337 -0.6142266
vn 0.7387558 -0.2571214 -0.6229995
vn 0.7422866 -0.228643 -0.6298674
vn 0.1217495 -0.8406039 -0.5277898
vn 0.1212412 -0.8160243 -0.5651593
vn 0.06831943 -0.8157943 -0.5742926
vn 0.06666987 -0.8356768 -0.5451599
vn 0.482571 -0.4999221 0.7191683
vn 0.4821818 -0.4999354 0.7194201
vn 0.4781697 -0.5000647 0.7220035
vn 0.4877139 -0.4997377 0.7158194
vn 0.8964135 -0.01817525 0.442846
vn 0.8640726 -0.08026437 0.4969266
vn 0.8670401 -0.07508944 0.4925474
vn 0.7817518 -0.1991987 0.5909181
vn 0.7337791 -0.2903332 0.6142271
vn 0.7422867 -0.228643 0.6298671
vn 0.7387558 -0.2571213 0.6229996
vn 0.733779 -0.2903332 0.6142271
vn 0.1217494 -0.8406041 0.5277895
vn 0.06666908 -0.8356768 0.5451599
vn 0.0683186 -0.8157945 0.5742925
vn 0.121241 -0.8160244 0.565159
vn 0 0 -1
vn 0 0 -1
vn 0 0 -1
vn 0 0 -1
vn 0 0 -1
vn 0 0 -1
vn 0 0 -1
vn -0.259538 0.9565288 0.1330134
vn -0.2600648 0.9555938 0.138588
vn -0.353532 0.9342384 0.04705116
vn -0.259538 0.9565288 0.1330134
vn -0.3699964 0.928997 0.008204487
vn -0.3388728 0.9406446 0.01879376
vn -0.3388194 0.9406613 0.01891209
vn -0.353532 0.9342384 0.04705116
vn -0.9998043 0.002510709 -0.01962538
vn -0.9998043 0.002510708 -0.01962538
vn -0.9998043 0.002510708 -0.01962538
vn -0.9998043 0.002510709 -0.01962538
vn -0.6962227 0.6739264 -0.2471786
vn -0.6962227 0.6739264 -0.2471786
vn -0.6962226 0.6739264 -0.2471786
vn -0.6962227 0.6739264 -0.2471786
vn -0.9997875 0.02061429 0
vn -0.9744707 0.02009125 -0.2236143
vn -0.9744707 0.02009125 -0.2236143
vn -0.9997875 0.02061429 0
vn -0.2718192 0.9613793 -0.043176
vn -0.2713495 0.9616389 -0.04024918
vn -0.2713495 0.9616389 -0.04024918
vn -0.2901063 0.9561573 0.04002107
vn -0.3388728 0.9406446 0.01879376
vn -0.2917862 0.9545606 0.06062031
vn -0.2901063 0.9561573 0.04002107
vn -0.3388194 0.9406613 0.01891209
vn -0.9998047 0.002509257 0.01960694
vn -0.9998047 0.002509257 0.01960694
vn -0.9998047 0.002509257 0.01960694
vn -0.9998047 0.002509257 0.01960694
vn -0.6962188 0.6739389 0.2471552
vn -0.6962188 0.6739389 0.2471552
vn -0.6962188 0.6739389 0.2471552
vn -0.6962188 0.6739389 0.2471552
vn -0.9744712 0.02009333 0.2236122
vn -0.9997875 0.02061429 0
vn -0.9997875 0.02061429 0
vn -0.9744712 0.02009334 0.2236122
g GemPiece_02_0
f 3/3/3 2/2/2 1/1/1
f 6/6/6 5/5/5 4/4/4
f 9/9/9 8/8/8 7/7/7
f 12/12/12 11/11/11 10/10/10
f 15/15/15 14/14/14 13/13/13
f 18/18/18 17/17/17 16/16/16
f 21/21/21 20/20/20 19/19/19
f 24/24/24 23/23/23 22/22/22
f 27/27/27 26/26/26 25/25/25
f 30/30/30 29/29/29 28/28/28
f 33/33/33 32/32/32 31/31/31
f 36/36/36 35/35/35 34/34/34
f 39/39/39 38/38/38 37/37/37
f 42/42/42 41/41/41 40/40/40
f 45/45/45 44/44/44 43/43/43
f 48/48/48 47/47/47 46/46/46
f 51/51/51 50/50/50 49/49/49
f 54/54/54 53/53/53 52/52/52
f 57/57/57 56/56/56 55/55/55
f 60/60/60 59/59/59 58/58/58
f 63/63/63 62/62/62 61/61/61
f 66/66/66 65/65/65 64/64/64
f 69/69/69 68/68/68 67/67/67
f 72/72/72 71/71/71 70/70/70
f 75/75/75 74/74/74 73/73/73
f 78/78/78 77/77/77 76/76/76
f 81/81/81 80/80/80 79/79/79
f 84/84/84 83/83/83 82/82/82
f 87/87/87 86/86/86 85/85/85
f 90/90/90 89/89/89 88/88/88
f 93/93/93 92/92/92 91/91/91
f 96/96/96 95/95/95 94/94/94
f 99/99/99 98/98/98 97/97/97
f 102/102/102 101/101/101 100/100/100
f 105/105/105 104/104/104 103/103/103
f 108/108/108 107/107/107 106/106/106
f 111/111/111 110/110/110 109/109/109
f 109/109/109 110/110/110 112/112/112
f 115/115/115 114/114/114 113/113/113
f 116/116/116 114/114/114 115/115/115
f 119/119/119 118/118/118 117/117/117
f 119/119/119 117/117/117 120/120/120
f 123/123/123 122/122/122 121/121/121
f 123/123/123 124/124/124 122/122/122
f 127/127/127 126/126/126 125/125/125
f 127/127/127 125/125/125 128/128/128
f 131/131/131 130/130/130 129/129/129
f 132/132/132 130/130/130 131/131/131
f 135/135/135 134/134/134 133/133/133
f 135/135/135 136/136/136 134/134/134
f 139/139/139 138/138/138 137/137/137
f 140/140/140 139/139/139 137/137/137
f 143/143/143 142/142/142 141/141/141
f 144/144/144 143/143/143 141/141/141
f 147/147/147 146/146/146 145/145/145
f 145/145/145 146/146/146 148/148/148
f 151/151/151 150/150/150 149/149/149
f 152/152/152 150/150/150 151/151/151
f 155/155/155 154/154/154 153/153/153
f 156/156/156 155/155/155 153/153/153
f 159/159/159 158/158/158 157/157/157
f 160/160/160 159/159/159 157/157/157
f 163/163/163 162/162/162 161/161/161
f 162/162/162 164/164/164 161/161/161
f 161/161/161 164/164/164 165/165/165
f 165/165/165 164/164/164 162/162/162
f 166/166/166 161/161/161 165/165/165
f 167/167/167 165/165/165 162/162/162
f 170/170/170 169/169/169 168/168/168
f 171/171/171 170/170/170 168/168/168
f 174/174/174 173/173/173 172/172/172
f 175/175/175 174/174/174 172/172/172
f 178/178/178 177/177/177 176/176/176
f 179/179/179 178/178/178 176/176/176
f 182/182/182 181/181/181 180/180/180
f 183/183/183 182/182/182 180/180/180
f 186/186/186 185/185/185 184/184/184
f 187/187/187 186/186/186 184/184/184
f 190/190/190 189/189/189 188/188/188
f 191/191/191 190/190/190 188/188/188
f 194/194/194 193/193/193 192/192/192
f 195/195/195 194/194/194 192/192/192
f 198/198/198 197/197/197 196/196/196
f 199/199/199 198/198/198 196/196/196
f 202/202/202 201/201/201 200/200/200
f 203/203/203 202/202/202 200/200/200
f 206/206/206 205/205/205 204/204/204
f 207/207/207 206/206/206 204/204/204
