g GemPiece_04
v -0.3170174 0.1308286 -0.1569855
v -0.1096203 0.2328203 -0.1569855
v -4.6454E-08 2.906393E-07 -0.1569855
v -0.2918235 -0.08509678 -0.1569855
v -0.3170174 0.1308286 -0.1569855
v -4.6454E-08 2.906393E-07 -0.1569855
v -0.3170176 0.1308288 0.1569856
v -3.434681E-08 2.906393E-07 0.1569856
v -0.1094039 0.2322719 0.1569856
v -0.291824 -0.08509476 0.1569856
v -3.434681E-08 2.906393E-07 0.1569856
v -0.3170176 0.1308288 0.1569856
v -0.3431503 0.1445748 -0.1673885
v -0.3266308 0.1358296 -0.180457
v -0.1134728 0.2406544 -0.180457
v -0.3061173 0.1306154 -0.180457
v -3.434681E-08 2.906393E-07 -0.180457
v -0.1134728 0.2406544 -0.180457
v -0.2948105 -0.07732875 -0.180457
v -3.434681E-08 2.906393E-07 -0.180457
v -0.3061173 0.1306154 -0.180457
v -0.3431503 0.1445748 -0.1673885
v -0.2948105 -0.07732875 -0.180457
v -0.3266308 0.1358296 -0.180457
v -0.3266308 0.1358296 -0.180457
v -0.3061173 0.1306154 -0.180457
v -0.1134728 0.2406544 -0.180457
v -0.2948105 -0.07732875 -0.180457
v -0.3061173 0.1306154 -0.180457
v -0.3266308 0.1358296 -0.180457
v -0.4146858 -0.2158654 3.284067E-08
v -0.4154009 0.1690795 -0.0165703
v -0.4266406 0.1728918 3.284067E-08
v -0.3431503 0.1445748 0.1673888
v -0.1134728 0.2406544 0.1804572
v -0.3266308 0.1358296 0.1804572
v -0.3061173 0.1306154 0.1804572
v -0.1134728 0.2406544 0.1804572
v -3.434681E-08 2.906393E-07 0.1804572
v -0.2948105 -0.07732875 0.1804572
v -0.3061173 0.1306154 0.1804572
v -3.434681E-08 2.906393E-07 0.1804572
v -0.3431503 0.1445748 0.1673888
v -0.3266308 0.1358296 0.1804572
v -0.2948105 -0.07732875 0.1804572
v -0.3266308 0.1358296 0.1804572
v -0.1134728 0.2406544 0.1804572
v -0.3061173 0.1306154 0.1804572
v -0.2948105 -0.07732875 0.1804572
v -0.3266308 0.1358296 0.1804572
v -0.3061173 0.1306154 0.1804572
v -0.4146858 -0.2158654 3.284067E-08
v -0.4266406 0.1728918 3.284067E-08
v -0.4154009 0.1690795 0.01657048
v -0.1805353 0.4025587 3.284067E-08
v -0.1790937 0.3914512 -0.02559128
v -0.165976 0.3783827 -2.857739E-05
v -0.1790937 0.3914512 0.02559144
v -0.1805353 0.4025587 3.284067E-08
v -0.165976 0.3783827 -2.857739E-05
v -0.3942435 -0.2119177 3.284067E-08
v -0.39599 0.1618046 1.105724E-06
v -0.3170174 0.1308286 -0.1569855
v -0.2918235 -0.08509678 -0.1569855
v -0.39599 0.1618046 1.105724E-06
v -0.165976 0.3783827 -2.857739E-05
v -0.3170174 0.1308286 -0.1569855
v -0.1096203 0.2328203 -0.1569855
v -0.3942435 -0.2119177 3.284067E-08
v -0.3170176 0.1308288 0.1569856
v -0.39599 0.1618046 1.105724E-06
v -0.291824 -0.08509476 0.1569856
v -0.39599 0.1618046 1.105724E-06
v -0.3170176 0.1308288 0.1569856
v -0.165976 0.3783827 -2.857739E-05
v -0.1094039 0.2322719 0.1569856
v -0.4266406 0.1728918 3.284067E-08
v -0.4154009 0.1690795 -0.0165703
v -0.1790937 0.3914512 -0.02559128
v -0.1805353 0.4025587 3.284067E-08
v -0.4146858 -0.2158654 3.284067E-08
v -0.3431503 0.1445748 -0.1673885
v -0.4154009 0.1690795 -0.0165703
v -0.2948105 -0.07732875 -0.180457
v -0.4154009 0.1690795 -0.0165703
v -0.3431503 0.1445748 -0.1673885
v -0.1790937 0.3914512 -0.02559128
v -0.1134728 0.2406544 -0.180457
v -0.4266406 0.1728918 3.284067E-08
v -0.1805353 0.4025587 3.284067E-08
v -0.1790937 0.3914512 0.02559144
v -0.4154009 0.1690795 0.01657048
v -0.4146858 -0.2158654 3.284067E-08
v -0.4154009 0.1690795 0.01657048
v -0.3431503 0.1445748 0.1673888
v -0.2948105 -0.07732875 0.1804572
v -0.4154009 0.1690795 0.01657048
v -0.1790937 0.3914512 0.02559144
v -0.3431503 0.1445748 0.1673888
v -0.1134728 0.2406544 0.1804572
v -0.1107794 0.1845879 -0.1835488
v -0.07838278 0.0008572862 -0.1835488
v -0.0415423 0.1020744 -0.1835488
v -0.1476193 0.08337038 -0.1835488
v -0.2536964 0.0646662 -0.1835488
v -0.2168565 0.1658835 -0.1835488
v -0.1844598 -0.01784713 -0.1835488
v -0.1134728 0.2406544 -0.180457
v -3.434681E-08 2.906393E-07 -0.180457
v -4.6454E-08 2.906393E-07 -0.1569855
v -0.1096203 0.2328203 -0.1569855
v -3.434681E-08 2.906393E-07 -0.180457
v -0.2948105 -0.07732875 -0.180457
v -0.2918235 -0.08509678 -0.1569855
v -4.6454E-08 2.906393E-07 -0.1569855
v -0.1790937 0.3914512 -0.02559128
v -0.1134728 0.2406544 -0.180457
v -0.1096203 0.2328203 -0.1569855
v -0.165976 0.3783827 -2.857739E-05
v -0.2948105 -0.07732875 -0.180457
v -0.4146858 -0.2158654 3.284067E-08
v -0.3942435 -0.2119177 3.284067E-08
v -0.2918235 -0.08509678 -0.1569855
v -3.434681E-08 2.906393E-07 0.1804572
v -0.1134728 0.2406544 0.1804572
v -0.1094039 0.2322719 0.1569856
v -3.434681E-08 2.906393E-07 0.1569856
v -0.2948105 -0.07732875 0.1804572
v -3.434681E-08 2.906393E-07 0.1804572
v -3.434681E-08 2.906393E-07 0.1569856
v -0.291824 -0.08509476 0.1569856
v -0.1134728 0.2406544 0.1804572
v -0.1790937 0.3914512 0.02559144
v -0.165976 0.3783827 -2.857739E-05
v -0.1094039 0.2322719 0.1569856
v -0.4146858 -0.2158654 3.284067E-08
v -0.2948105 -0.07732875 0.1804572
v -0.291824 -0.08509476 0.1569856
v -0.3942435 -0.2119177 3.284067E-08
vt 0.0830489 0.02599236
vt 0.0685085 0.04002771
vt 0.06850234 0.0183199
vt 0.08992623 0.02791974
vt 0.07227744 0.03485736
vt 0.05587502 0.02792293
vt 0.08302628 0.02602834
vt 0.06851698 0.01832175
vt 0.06852315 0.04002956
vt 0.08992274 0.02793095
vt 0.05587152 0.02793413
vt 0.07231434 0.03484792
vt 0.08497145 0.4268407
vt 0.07861599 0.414386
vt 0.067968 0.4053621
vt 0.07527517 0.1557238
vt 0.05735167 0.1513647
vt 0.07098264 0.1715986
vt 0.09027699 0.1463559
vt 0.05735167 0.1513647
vt 0.07527517 0.1557238
vt 0.08497145 0.4268407
vt 0.05611968 0.3871772
vt 0.07861599 0.414386
vt 0.07861599 0.414386
vt 0.07226053 0.4019313
vt 0.067968 0.4053621
vt 0.05611968 0.3871772
vt 0.07226053 0.4019313
vt 0.07861599 0.414386
vt 0.0756971 0.3762676
vt 0.0732436 0.4227504
vt 0.07582814 0.4236565
vt 0.08497145 0.4268407
vt 0.067968 0.4053621
vt 0.07861599 0.414386
vt 0.07527517 0.1058026
vt 0.07098264 0.1216774
vt 0.05735167 0.1014435
vt 0.09027699 0.09643462
vt 0.07527517 0.1058026
vt 0.05735167 0.1014435
vt 0.08497145 0.4268407
vt 0.07861599 0.414386
vt 0.05611968 0.3871772
vt 0.07861599 0.414386
vt 0.067968 0.4053621
vt 0.07226053 0.4019313
vt 0.05611968 0.3871772
vt 0.07861599 0.414386
vt 0.07226053 0.4019313
vt 0.0756971 0.3762676
vt 0.07582814 0.4236565
vt 0.0732436 0.4227504
vt 0.07026474 0.1014839
vt 0.07026129 0.08466241
vt 0.07026302 0.09307316
vt 0.07026129 0.08466241
vt 0.07026474 0.1014839
vt 0.07026302 0.09307316
vt 0.08215482 0.00695011
vt 0.08214355 0.05345443
vt 0.07051796 0.05125412
vt 0.06071972 0.02670631
vt 0.09259527 0.03171518
vt 0.04694003 0.03171629
vt 0.09119415 0.02738157
vt 0.05590618 0.02065992
vt 0.08215205 0.006947458
vt 0.07152438 0.05091149
vt 0.08214077 0.05345178
vt 0.06071695 0.02670366
vt 0.09260429 0.03170028
vt 0.09137014 0.02743372
vt 0.04694904 0.03170139
vt 0.05591518 0.02064502
vt 0.07397264 0.4066349
vt 0.09586059 0.3967173
vt 0.05024905 0.3978693
vt 0.06168057 0.4133446
vt 0.07977571 0.06741938
vt 0.0739049 0.111522
vt 0.0816194 0.1139115
vt 0.05913433 0.0874548
vt 0.09219321 0.210965
vt 0.08798607 0.2085994
vt 0.05647319 0.2273658
vt 0.05155116 0.2154944
vt 0.07397264 0.4066349
vt 0.06168057 0.4133446
vt 0.05024905 0.3978693
vt 0.09586059 0.3967173
vt 0.07977571 0.005036086
vt 0.0816194 0.05152825
vt 0.0739049 0.04913872
vt 0.05913433 0.02507153
vt 0.09219321 0.2733483
vt 0.05647319 0.2897491
vt 0.08798607 0.2709827
vt 0.05155116 0.2778777
vt 0.03274266 0.2252258
vt 0.0613739 0.1966216
vt 0.03274266 0.2061563
vt 0.0613739 0.2156911
vt 0.09000516 0.2252258
vt 0.0613739 0.2347606
vt 0.09000516 0.2061563
vt 0.07026609 0.1039271
vt 0.07025995 0.08221924
vt 0.07025995 0.08221924
vt 0.07026609 0.1039271
vt 0.05323742 0.09307471
vt 0.08728863 0.09307158
vt 0.08728863 0.09307158
vt 0.05323742 0.09307471
vt 0.07026347 0.09917626
vt 0.07026256 0.08697006
vt 0.07026256 0.08697006
vt 0.07026347 0.09917626
vt 0.05006031 0.0930725
vt 0.09046571 0.09307379
vt 0.09046571 0.09307379
vt 0.05006031 0.0930725
vt 0.07025995 0.08221924
vt 0.07026609 0.1039271
vt 0.07026609 0.1039271
vt 0.07025995 0.08221924
vt 0.08728863 0.09307158
vt 0.05323742 0.09307471
vt 0.05323742 0.09307471
vt 0.08728863 0.09307158
vt 0.07026255 0.08697006
vt 0.07026348 0.09917623
vt 0.07026348 0.09917623
vt 0.07026255 0.08697006
vt 0.09046571 0.09307379
vt 0.05006031 0.0930725
vt 0.05006031 0.0930725
vt 0.09046571 0.09307379
vn 0 0 1
vn 0 0 1
vn 0 0 1
vn 0.06746819 -0.2436747 0.9675075
vn 0 0 1
vn 0.1304948 -0.4713076 0.8722616
vn 0 0 -1
vn 0 0 -1
vn 0 0 -1
vn 0.06746731 -0.2436748 -0.9675075
vn 0.1304928 -0.4713068 -0.8722624
vn 0 0 -1
vn -0.2883787 0.5864086 -0.756943
vn -0.2883787 0.5864086 -0.756943
vn -0.2883787 0.5864086 -0.756943
vn 0 0 -1
vn 0 0 -1
vn 0 0 -1
vn 0 0 -1
vn 0 0 -1
vn 0 0 -1
vn -0.6485327 -0.09681292 -0.7550049
vn -0.6485327 -0.09681293 -0.7550049
vn -0.6485328 -0.09681292 -0.7550049
vn 0 0 -1
vn 0 0 -1
vn 0 0 -1
vn 0 0 -1
vn 0 0 -1
vn 0 0 -1
vn -0.8441092 -0.07831851 -0.5304205
vn -0.8949721 -0.02084536 -0.4456349
vn -0.8300276 -0.0255246 -0.557138
vn -0.2883791 0.58641 0.7569419
vn -0.288379 0.58641 0.7569419
vn -0.288379 0.58641 0.7569419
vn 0 0 1
vn 0 0 1
vn 0 0 1
vn 0 0 1
vn 0 0 1
vn 0 0 1
vn -0.6485303 -0.09681276 0.7550071
vn -0.6485303 -0.09681276 0.7550071
vn -0.6485304 -0.09681278 0.7550071
vn 0 0 1
vn 0 0 1
vn 0 0 1
vn 0 0 1
vn 0 0 1
vn 0 0 1
vn -0.8441094 -0.0783185 0.5304201
vn -0.8300298 -0.02552455 0.5571344
vn -0.8949724 -0.02084554 0.4456342
vn 0.8436328 0.5082598 -0.1730769
vn 0.8758255 0.4709239 -0.1056431
vn 0.8755927 0.4712348 -0.1061841
vn 0.8764164 0.4700239 0.1047463
vn 0.8438346 0.5079713 0.1729397
vn 0.8761833 0.4703372 0.1052883
vn 0.9119333 -0.2168741 0.3483438
vn 0.8936564 0.004174792 0.4487325
vn 0.8760775 0.02319524 0.4816121
vn 0.8633539 -0.08738202 0.4969752
vn 0.6159829 -0.6541365 0.4389425
vn 0.455126 -0.6580306 0.5998801
vn 0.5173593 -0.6605877 0.544025
vn 0.3135031 -0.6374986 0.7037836
vn 0.9119331 -0.2168722 -0.3483455
vn 0.876076 0.02319728 -0.4816146
vn 0.8936546 0.004177417 -0.448736
vn 0.8633541 -0.08737864 -0.4969755
vn 0.6159267 -0.6541969 -0.4389314
vn 0.5163326 -0.6606546 -0.5449184
vn 0.4538264 -0.6580135 -0.6008826
vn 0.3113191 -0.637147 -0.7050702
vn -0.6244855 0.6580505 -0.4206987
vn -0.6307729 0.6568572 -0.4131153
vn -0.487962 0.6556236 -0.5762386
vn -0.6244855 0.6580505 -0.4206987
vn -0.8441092 -0.07831851 -0.5304205
vn -0.8711905 -0.05372338 -0.4879969
vn -0.8949721 -0.02084536 -0.4456349
vn -0.7756494 -0.132628 -0.6170719
vn -0.6307729 0.6568572 -0.4131153
vn -0.518706 0.6581342 -0.5457136
vn -0.487962 0.6556236 -0.5762386
vn -0.2995197 0.6170174 -0.7277207
vn -0.6244851 0.6580511 0.4206982
vn -0.6244852 0.6580511 0.4206983
vn -0.487962 0.6556239 0.576238
vn -0.6307729 0.6568574 0.4131148
vn -0.8441094 -0.0783185 0.5304201
vn -0.8949724 -0.02084554 0.4456342
vn -0.8711906 -0.05372349 0.4879965
vn -0.7756496 -0.1326278 0.6170718
vn -0.6307729 0.6568574 0.4131148
vn -0.487962 0.6556239 0.576238
vn -0.5187062 0.6581345 0.5457132
vn -0.2995197 0.617018 0.7277204
vn 0 0 -1
vn 0 0 -1
vn 0 0 -1
vn 0 0 -1
vn 0 0 -1
vn 0 0 -1
vn 0 0 -1
vn 0.892549 0.447967 -0.05178614
vn 0.9046069 0.4262354 -0.003105155
vn 0.9046069 0.4262354 -0.003105155
vn 0.8920236 0.4487891 -0.05368551
vn 0.2627789 -0.9490778 -0.1737778
vn 0.2627789 -0.9490778 -0.1737778
vn 0.06746819 -0.2436747 0.9675075
vn 0.1304948 -0.4713076 0.8722616
vn 0.8758255 0.4709239 -0.1056431
vn 0.892549 0.447967 -0.05178614
vn 0.8920236 0.4487891 -0.05368551
vn 0.8755927 0.4712348 -0.1061841
vn 0.3145565 -0.8357838 -0.4500217
vn 0.3145565 -0.8357838 -0.4500217
vn 0.9119333 -0.2168741 0.3483438
vn 0.8633539 -0.08738202 0.4969752
vn 0.9045779 0.4263021 0.002280481
vn 0.8924861 0.4480549 0.05210884
vn 0.8923776 0.4482243 0.05250918
vn 0.9045779 0.4263021 0.002280481
vn 0.2627775 -0.9490856 0.1737372
vn 0.2627775 -0.9490855 0.1737372
vn 0.1304928 -0.4713068 -0.8722624
vn 0.06746731 -0.2436748 -0.9675075
vn 0.8924861 0.4480549 0.05210884
vn 0.8764164 0.4700239 0.1047463
vn 0.8761833 0.4703372 0.1052883
vn 0.8923776 0.4482243 0.05250918
vn 0.3146053 -0.8357808 0.4499933
vn 0.3146054 -0.8357808 0.4499934
vn 0.8633541 -0.08737864 -0.4969755
vn 0.9119331 -0.2168722 -0.3483455
g GemPiece_04_0
f 3/3/3 2/2/2 1/1/1
f 6/6/6 5/5/5 4/4/4
f 9/9/9 8/8/8 7/7/7
f 12/12/12 11/11/11 10/10/10
f 15/15/15 14/14/14 13/13/13
f 18/18/18 17/17/17 16/16/16
f 21/21/21 20/20/20 19/19/19
f 24/24/24 23/23/23 22/22/22
f 27/27/27 26/26/26 25/25/25
f 30/30/30 29/29/29 28/28/28
f 33/33/33 32/32/32 31/31/31
f 36/36/36 35/35/35 34/34/34
f 39/39/39 38/38/38 37/37/37
f 42/42/42 41/41/41 40/40/40
f 45/45/45 44/44/44 43/43/43
f 48/48/48 47/47/47 46/46/46
f 51/51/51 50/50/50 49/49/49
f 54/54/54 53/53/53 52/52/52
f 57/57/57 56/56/56 55/55/55
f 60/60/60 59/59/59 58/58/58
f 63/63/63 62/62/62 61/61/61
f 64/64/64 63/63/63 61/61/61
f 67/67/67 66/66/66 65/65/65
f 68/68/68 66/66/66 67/67/67
f 71/71/71 70/70/70 69/69/69
f 70/70/70 72/72/72 69/69/69
f 75/75/75 74/74/74 73/73/73
f 75/75/75 76/76/76 74/74/74
f 79/79/79 78/78/78 77/77/77
f 80/80/80 79/79/79 77/77/77
f 83/83/83 82/82/82 81/81/81
f 82/82/82 84/84/84 81/81/81
f 87/87/87 86/86/86 85/85/85
f 87/87/87 88/88/88 86/86/86
f 91/91/91 90/90/90 89/89/89
f 92/92/92 91/91/91 89/89/89
f 95/95/95 94/94/94 93/93/93
f 96/96/96 95/95/95 93/93/93
f 99/99/99 98/98/98 97/97/97
f 100/100/100 98/98/98 99/99/99
f 103/103/103 102/102/102 101/101/101
f 102/102/102 104/104/104 101/101/101
f 101/101/101 104/104/104 105/105/105
f 105/105/105 104/104/104 102/102/102
f 106/106/106 101/101/101 105/105/105
f 107/107/107 105/105/105 102/102/102
f 110/110/110 109/109/109 108/108/108
f 111/111/111 110/110/110 108/108/108
f 114/114/114 113/113/113 112/112/112
f 115/115/115 114/114/114 112/112/112
f 118/118/118 117/117/117 116/116/116
f 119/119/119 118/118/118 116/116/116
f 122/122/122 121/121/121 120/120/120
f 123/123/123 122/122/122 120/120/120
f 126/126/126 125/125/125 124/124/124
f 127/127/127 126/126/126 124/124/124
f 130/130/130 129/129/129 128/128/128
f 131/131/131 130/130/130 128/128/128
f 134/134/134 133/133/133 132/132/132
f 135/135/135 134/134/134 132/132/132
f 138/138/138 137/137/137 136/136/136
f 139/139/139 138/138/138 136/136/136
