g GemPiece_01
v -0.05739968 0.121324 -0.08150309
v 0.02287929 0.1590138 -0.08150309
v -9.206221E-09 -0.0004493814 -0.08150309
v 0.02287929 0.1590138 -0.08150309
v 0.1599876 0.05223016 -0.08150291
v -9.206221E-09 -0.0004493814 -0.08150309
v -0.09461907 0.1972106 0.0008106896
v 0.0742179 0.198819 0.0008106598
v 0.02287929 0.1590138 -0.08150309
v -0.09461907 0.1972106 0.0008106896
v 0.02287929 0.1590138 -0.08150309
v -0.05739968 0.121324 -0.08150309
v -0.05739971 0.121324 0.08312414
v 3.832295E-09 -0.0004493814 0.08312414
v 0.02166225 0.1574038 0.08442885
v 0.02166225 0.1574038 0.08442885
v 3.832295E-09 -0.0004493814 0.08312414
v 0.1599877 0.05222968 0.08312405
v -0.09461907 0.1972106 0.0008106896
v 0.02166225 0.1574038 0.08442885
v 0.0742179 0.198819 0.0008106598
v -0.09461907 0.1972106 0.0008106896
v -0.05739971 0.121324 0.08312414
v 0.02166225 0.1574038 0.08442885
v 0.0540757 0.2063811 -0.05999666
v 0.07940276 0.2111795 0.0008105108
v 0.05589932 0.2111049 0.0008105108
v -0.05949816 0.1257349 -0.09381007
v 1.070048E-10 -0.0004493814 -0.09381007
v 0.02185088 0.1644361 -0.09381007
v 0.02185088 0.1644361 -0.09381007
v 1.070048E-10 -0.0004493814 -0.09381007
v 0.1103553 0.0312051 -0.09381001
v 0.1964522 0.1054597 0.0008105108
v 0.1723798 0.145859 0.0008105108
v 0.1761409 0.1150519 -0.05737584
v 0.1690812 0.04971353 -0.0938099
v 0.02185088 0.1644361 -0.09381007
v 0.1103553 0.0312051 -0.09381001
v -0.09466161 0.2106276 0.0008105108
v -0.09390576 0.2048035 -0.01260799
v 0.05589932 0.2111049 0.0008105108
v -0.09390576 0.2048035 -0.01260799
v 0.0540757 0.2063811 -0.05999666
v 0.05589932 0.2111049 0.0008105108
v -0.09390576 0.2048035 -0.01260799
v 0.02185088 0.1644361 -0.09381007
v 0.0540757 0.2063811 -0.05999666
v -0.09390576 0.2048035 -0.01260799
v -0.05949816 0.1257349 -0.09381007
v 0.02185088 0.1644361 -0.09381007
v 0.0540757 0.2063811 0.0616178
v 0.05589932 0.2111049 0.0008105108
v 0.07940276 0.2111795 0.0008105108
v -0.05949816 0.1257349 0.09543116
v 0.02185088 0.1644361 0.09543116
v 1.070048E-10 -0.0004493814 0.09543116
v 0.02185088 0.1644361 0.09543116
v 0.1103553 0.0312051 0.09543116
v 1.070048E-10 -0.0004493814 0.09543116
v 0.1964522 0.1054597 0.0008105108
v 0.1761409 0.1150519 0.05899698
v 0.1723798 0.145859 0.0008105108
v 0.1690812 0.04971353 0.09543107
v 0.1103553 0.0312051 0.09543116
v 0.02185088 0.1644361 0.09543116
v -0.09466161 0.2106276 0.0008105108
v 0.05589932 0.2111049 0.0008105108
v -0.09390576 0.2048035 0.01422913
v -0.09390576 0.2048035 0.01422913
v 0.05589932 0.2111049 0.0008105108
v 0.0540757 0.2063811 0.0616178
v -0.09390576 0.2048035 0.01422913
v 0.0540757 0.2063811 0.0616178
v 0.02185088 0.1644361 0.09543116
v -0.09390576 0.2048035 0.01422913
v 0.02185088 0.1644361 0.09543116
v -0.05949816 0.1257349 0.09543116
v 0.1690812 0.04971353 -0.0938099
v 0.1103553 0.0312051 -0.09381001
v 0.1599876 0.05223016 -0.08150291
v -0.09390576 0.2048035 -0.01260799
v -0.09466161 0.2106276 0.0008105108
v -0.09461907 0.1972106 0.0008106896
v 0.1103553 0.0312051 0.09543116
v 0.1690812 0.04971353 0.09543107
v 0.1599877 0.05222968 0.08312405
v -0.09466161 0.2106276 0.0008105108
v -0.09390576 0.2048035 0.01422913
v -0.09461907 0.1972106 0.0008106896
v 0.0742179 0.198819 0.0008106598
v 0.2033751 0.06828324 0.0008105704
v 0.1599876 0.05223016 -0.08150291
v 0.02287929 0.1590138 -0.08150309
v 0.0742179 0.198819 0.0008106598
v 0.02166225 0.1574038 0.08442885
v 0.1599877 0.05222968 0.08312405
v 0.2033751 0.06828324 0.0008105704
v 0.1690812 0.04971353 -0.0938099
v 0.2162811 0.07218222 0.0008105108
v 0.1964522 0.1054597 0.0008105108
v 0.1761409 0.1150519 -0.05737584
v 0.1723798 0.145859 0.0008105108
v 0.07940276 0.2111795 0.0008105108
v 0.0540757 0.2063811 -0.05999666
v 0.1761409 0.1150519 -0.05737584
v 0.0540757 0.2063811 -0.05999666
v 0.02185088 0.1644361 -0.09381007
v 0.1690812 0.04971353 -0.0938099
v 0.1761409 0.1150519 -0.05737584
v 0.1690812 0.04971353 0.09543107
v 0.1761409 0.1150519 0.05899698
v 0.1964522 0.1054597 0.0008105108
v 0.2162811 0.07218222 0.0008105108
v 0.1723798 0.145859 0.0008105108
v 0.1761409 0.1150519 0.05899698
v 0.0540757 0.2063811 0.0616178
v 0.07940276 0.2111795 0.0008105108
v 0.0540757 0.2063811 0.0616178
v 0.1761409 0.1150519 0.05899698
v 0.1690812 0.04971353 0.09543107
v 0.02185088 0.1644361 0.09543116
v -0.02352869 0.0867658 -0.09543114
v 0.01487357 0.09777764 -0.09543114
v -0.007506352 0.1033576 -0.09543114
v -0.001148767 0.08118609 -0.09543114
v 0.005208817 0.05901448 -0.09543114
v -0.0171711 0.06459454 -0.09543114
v 0.02123115 0.07560591 -0.09543114
v 0.04782227 0.02646545 -0.09543114
v 0.04233644 0.05468825 -0.09543114
v 0.03693219 0.03899316 -0.09543114
v 0.05322653 0.04216055 -0.09543114
v 0.06952086 0.0453277 -0.09543114
v 0.0641166 0.02963284 -0.09543114
v 0.05863078 0.0578554 -0.09543114
v 0.2162811 0.07218222 0.0008105108
v 0.1690812 0.04971353 -0.0938099
v 0.1599876 0.05223016 -0.08150291
v 0.2033751 0.06828324 0.0008105704
v 1.070048E-10 -0.0004493814 -0.09381007
v -0.05949816 0.1257349 -0.09381007
v -0.05739968 0.121324 -0.08150309
v -9.206221E-09 -0.0004493814 -0.08150309
v 0.1103553 0.0312051 -0.09381001
v 1.070048E-10 -0.0004493814 -0.09381007
v -9.206221E-09 -0.0004493814 -0.08150309
v 0.1599876 0.05223016 -0.08150291
v -0.05949816 0.1257349 -0.09381007
v -0.09390576 0.2048035 -0.01260799
v -0.09461907 0.1972106 0.0008106896
v -0.05739968 0.121324 -0.08150309
v 0.1690812 0.04971353 0.09543107
v 0.2162811 0.07218222 0.0008105108
v 0.2033751 0.06828324 0.0008105704
v 0.1599877 0.05222968 0.08312405
v -0.05949816 0.1257349 0.09543116
v 1.070048E-10 -0.0004493814 0.09543116
v 3.832295E-09 -0.0004493814 0.08312414
v -0.05739971 0.121324 0.08312414
v 1.070048E-10 -0.0004493814 0.09543116
v 0.1103553 0.0312051 0.09543116
v 0.1599877 0.05222968 0.08312405
v 3.832295E-09 -0.0004493814 0.08312414
v -0.09390576 0.2048035 0.01422913
v -0.05949816 0.1257349 0.09543116
v -0.05739971 0.121324 0.08312414
v -0.09461907 0.1972106 0.0008106896
vt 0.04951368 0.03438818
vt 0.02999556 0.03441429
vt 0.04951837 0.01718438
vt 0.03834085 0.036452
vt 0.03834532 0.01607999
vt 0.0661971 0.02358705
vt 0.06402713 0.03037703
vt 0.02438839 0.03040379
vt 0.0368577 0.02291924
vt 0.05441414 0.03490791
vt 0.03139327 0.02358389
vt 0.05442008 0.02156851
vt 0.04951368 0.03438818
vt 0.04951837 0.01718438
vt 0.02999556 0.03441429
vt 0.03834849 0.03645417
vt 0.06620476 0.02358922
vt 0.03833539 0.01608393
vt 0.06468407 0.03035712
vt 0.03534186 0.02315438
vt 0.02394316 0.03047869
vt 0.05302655 0.03578243
vt 0.05477244 0.02214214
vt 0.03148207 0.0221456
vt 0.02287068 0.3422973
vt 0.01685078 0.3455425
vt 0.02289034 0.3455288
vt 0.07019266 0.1668924
vt 0.05735167 0.1513647
vt 0.05259692 0.1717646
vt 0.05259692 0.1717646
vt 0.05735167 0.1513647
vt 0.03719179 0.1546647
vt 0.0489106 0.3467201
vt 0.06694403 0.3649009
vt 0.06302578 0.3434701
vt 0.04521327 0.3999797
vt 0.06370747 0.4091896
vt 0.05328011 0.3976151
vt 0.06168057 0.4133446
vt 0.05647319 0.4121372
vt 0.04083585 0.4133859
vt 0.05647319 0.2851675
vt 0.02287068 0.2832092
vt 0.02527178 0.2864385
vt 0.05647319 0.2914725
vt 0.03053015 0.2853853
vt 0.02287068 0.2895141
vt 0.05647319 0.2273658
vt 0.05155116 0.2154944
vt 0.03053015 0.2212786
vt 0.02287068 0.3296092
vt 0.02289034 0.3328407
vt 0.01685078 0.3328543
vt 0.07019266 0.1668924
vt 0.05259692 0.1717646
vt 0.05735167 0.1513647
vt 0.05259692 0.1717646
vt 0.03719179 0.1546647
vt 0.05735167 0.1513647
vt 0.0489106 0.2822221
vt 0.06302578 0.2789721
vt 0.06694403 0.3004029
vt 0.04521327 0.3999797
vt 0.05328011 0.3976151
vt 0.06370747 0.4091896
vt 0.06168057 0.4133446
vt 0.04083585 0.4133859
vt 0.05647319 0.4121372
vt 0.05647319 0.40359
vt 0.02527178 0.404861
vt 0.02287068 0.4016317
vt 0.05647319 0.409895
vt 0.02287068 0.4079366
vt 0.03053015 0.4038078
vt 0.05647319 0.2897491
vt 0.03053015 0.2836619
vt 0.05155116 0.2778777
vt 0.05037284 0.09819302
vt 0.05942154 0.09819302
vt 0.05073019 0.09819302
vt 0.05489683 0.0965744
vt 0.05489749 0.09981164
vt 0.05489737 0.09919527
vt 0.05942154 0.09819302
vt 0.05037284 0.09819302
vt 0.0507302 0.09819302
vt 0.05489749 0.09981164
vt 0.05489683 0.0965744
vt 0.05489739 0.0992865
vt 0.03947634 0.03369251
vt 0.03948461 0.01883864
vt 0.04852019 0.01990455
vt 0.04993667 0.03397301
vt 0.03954771 0.03368351
vt 0.04990521 0.03394806
vt 0.04831497 0.01988232
vt 0.03955019 0.01880959
vt 0.07560937 0.3319038
vt 0.034185 0.3440461
vt 0.0489106 0.3588921
vt 0.06302578 0.3556421
vt 0.04368921 0.407924
vt 0.05634166 0.4131603
vt 0.05958314 0.4114129
vt 0.04300008 0.4041548
vt 0.05958314 0.4114129
vt 0.06370747 0.4091896
vt 0.04521327 0.3999797
vt 0.04300008 0.4041548
vt 0.07560937 0.2674058
vt 0.06302578 0.2911441
vt 0.0489106 0.2943941
vt 0.034185 0.2795481
vt 0.04368921 0.3455407
vt 0.04300008 0.3417715
vt 0.05958314 0.3490296
vt 0.05634166 0.350777
vt 0.05958314 0.3490296
vt 0.04300008 0.3417715
vt 0.04521327 0.3375964
vt 0.06370747 0.3468063
vt 0.03274266 0.2252258
vt 0.0613739 0.1966216
vt 0.03274266 0.2061563
vt 0.0613739 0.2156911
vt 0.09000516 0.2252258
vt 0.0613739 0.2347606
vt 0.09000516 0.2061563
vt 0.03274266 0.2252258
vt 0.0613739 0.1966216
vt 0.03274266 0.2061563
vt 0.0613739 0.2156911
vt 0.09000516 0.2252258
vt 0.0613739 0.2347606
vt 0.09000516 0.2061563
vt 0.031664 0.09819311
vt 0.07813036 0.09819299
vt 0.07662749 0.09819299
vt 0.03300387 0.09819311
vt 0.05489953 0.08959118
vt 0.05489483 0.1067949
vt 0.05489483 0.1067949
vt 0.05489953 0.08959118
vt 0.04441922 0.09819314
vt 0.06537516 0.09819296
vt 0.06537516 0.09819296
vt 0.03471063 0.0981932
vt 0.05489672 0.09208995
vt 0.05489764 0.1042961
vt 0.05489768 0.1049297
vt 0.05489672 0.09208995
vt 0.07813036 0.09819299
vt 0.031664 0.09819311
vt 0.03300389 0.09819311
vt 0.07662746 0.09819299
vt 0.05489483 0.1067949
vt 0.05489953 0.08959118
vt 0.05489953 0.08959118
vt 0.05489483 0.1067949
vt 0.06537516 0.09819296
vt 0.04441922 0.09819314
vt 0.03471063 0.0981932
vt 0.06537516 0.09819296
vt 0.05489764 0.1042961
vt 0.05489672 0.09208998
vt 0.05489672 0.09208998
vt 0.05489768 0.1048248
vn 0 0 1
vn 0 0 1
vn 0 0 1
vn 0 0 1
vn 0 0 1
vn 0 0 1
vn 0.008595681 -0.9023189 0.4309835
vn 0.00859568 -0.9023189 0.4309835
vn 0.008595681 -0.9023189 0.4309835
vn 0.2965241 -0.6315939 0.7163537
vn 0.2965241 -0.6315939 0.7163537
vn 0.2965241 -0.6315939 0.7163537
vn 0.01357939 0.006400916 -0.9998873
vn 0.01357939 0.006400915 -0.9998873
vn 0.01357939 0.006400915 -0.9998873
vn -0.002850848 0.008656252 -0.9999585
vn -0.002850848 0.008656252 -0.9999585
vn -0.002850848 0.008656252 -0.9999585
vn 0.008556365 -0.8982044 -0.4394946
vn 0.008556365 -0.8982044 -0.4394947
vn 0.008556365 -0.8982044 -0.4394947
vn 0.299412 -0.6301988 -0.7163811
vn 0.299412 -0.6301989 -0.7163811
vn 0.299412 -0.6301989 -0.7163811
vn -0.03372447 0.9965066 -0.07640149
vn -0.00316547 0.9969987 -0.07735512
vn -0.03000172 0.9962657 -0.08095967
vn 0 0 -1
vn 0 0 -1
vn 0 0 -1
vn 0 0 -1
vn 0 0 -1
vn 0 0 -1
vn 0.8397807 0.5003925 -0.2106559
vn 0.8397806 0.5003925 -0.2106559
vn 0.8397807 0.5003924 -0.2106559
vn 0 0 -1
vn 0 0 -1
vn 0 0 -1
vn -0.002907972 0.9172577 -0.3982836
vn -0.01994414 0.9720724 -0.2338322
vn -0.03000172 0.9962657 -0.08095967
vn -0.01994414 0.9720724 -0.2338322
vn -0.03372447 0.9965066 -0.07640149
vn -0.03000172 0.9962657 -0.08095967
vn -0.2217535 0.7095516 -0.6688512
vn -0.2217535 0.7095516 -0.6688512
vn -0.2217535 0.7095516 -0.6688512
vn -0.2946081 0.6192582 -0.7278222
vn -0.2946081 0.6192582 -0.7278222
vn -0.2946081 0.6192582 -0.7278222
vn -0.03372443 0.9965066 0.07640135
vn -0.03000168 0.9962657 0.08095957
vn -0.003165544 0.9969987 0.07735496
vn 0 0 1
vn 0 0 1
vn 0 0 1
vn 0 0 1
vn 0 0 1
vn 0 0 1
vn 0.8397809 0.5003927 0.2106541
vn 0.8397809 0.5003927 0.2106541
vn 0.8397809 0.5003927 0.2106541
vn 0 0 1
vn 0 0 1
vn 0 0 1
vn -0.002907867 0.9172601 0.3982783
vn -0.03000168 0.9962657 0.08095957
vn -0.01994403 0.972073 0.2338296
vn -0.01994403 0.972073 0.2338296
vn -0.03000168 0.9962657 0.08095957
vn -0.03372443 0.9965066 0.07640135
vn -0.2217536 0.7095512 0.6688517
vn -0.2217536 0.7095512 0.6688517
vn -0.2217536 0.7095512 0.6688517
vn -0.2946083 0.6192581 0.7278222
vn -0.2946083 0.6192582 0.7278222
vn -0.2946083 0.6192582 0.7278222
vn 0.1742618 -0.9641022 0.2003488
vn 0.2909783 -0.9325929 0.2135465
vn 0.1865392 -0.9619355 0.1997078
vn -0.9426047 -0.3183483 -0.1007502
vn -0.9984884 -0.003167513 -0.05487041
vn -0.9445384 -0.3128068 -0.09999532
vn 0.2909773 -0.9325953 -0.2135376
vn 0.1742755 -0.9641024 -0.2003359
vn 0.1865514 -0.9619356 -0.199696
vn -0.9984884 -0.003164943 0.05487063
vn -0.9984884 -0.003164943 0.05487062
vn -0.9984884 -0.003164943 0.05487064
vn -0.5613977 -0.6298718 0.5367439
vn -0.5613977 -0.6298718 0.5367439
vn -0.5613977 -0.6298718 0.536744
vn -0.5613977 -0.6298718 0.5367439
vn -0.5576854 -0.6298666 -0.5406061
vn -0.5576854 -0.6298667 -0.5406061
vn -0.5576855 -0.6298667 -0.5406061
vn -0.5576854 -0.6298667 -0.5406061
vn 0.8738337 0.2640004 -0.4083118
vn 0.8738337 0.2640004 -0.4083118
vn 0.8738337 0.2640005 -0.4083119
vn 0.8738337 0.2640004 -0.4083118
vn 0.5586262 0.7613539 -0.3290549
vn 0.5586261 0.7613539 -0.3290549
vn 0.5586262 0.7613539 -0.3290549
vn 0.5586262 0.7613539 -0.3290549
vn 0.3350426 0.4271956 -0.8397918
vn 0.3350427 0.4271957 -0.8397918
vn 0.3350426 0.4271957 -0.8397918
vn 0.3350426 0.4271956 -0.8397918
vn 0.8738339 0.2640006 0.408311
vn 0.8738339 0.2640006 0.408311
vn 0.873834 0.2640006 0.408311
vn 0.873834 0.2640006 0.4083111
vn 0.5586261 0.7613534 0.3290562
vn 0.5586261 0.7613534 0.3290562
vn 0.5586261 0.7613534 0.3290562
vn 0.5586261 0.7613534 0.3290562
vn 0.3350425 0.4271955 0.8397919
vn 0.3350425 0.4271955 0.839792
vn 0.3350425 0.4271955 0.839792
vn 0.3350425 0.4271955 0.8397919
vn 0 0 -1
vn 0 0 -1
vn 0 0 -1
vn 0 0 -1
vn 0 0 -1
vn 0 0 -1
vn 0 0 -1
vn 0 0 -1
vn 0 0 -1
vn 0 0 -1
vn 0 0 -1
vn 0 0 -1
vn 0 0 -1
vn 0 0 -1
vn 0.1420771 -0.9898556 0
vn 0.1742618 -0.9641022 0.2003488
vn 0.1865392 -0.9619355 0.1997078
vn 0.1420771 -0.9898556 0
vn -0.9045208 -0.4264291 0.0006934392
vn -0.9240019 -0.3792215 -0.04910656
vn -0.924076 -0.3790135 -0.04932108
vn -0.9045208 -0.4264291 0.0006934392
vn 0.2909783 -0.9325929 0.2135465
vn 0.2911486 -0.9333118 0.2101465
vn 0.2911486 -0.9333118 0.2101465
vn 0.1865392 -0.9619355 0.1997078
vn -0.9240019 -0.3792215 -0.04910656
vn -0.9426047 -0.3183483 -0.1007502
vn -0.9445384 -0.3128068 -0.09999532
vn -0.924076 -0.3790135 -0.04932108
vn 0.1742755 -0.9641024 -0.2003359
vn 0.1420771 -0.9898556 0
vn 0.1420771 -0.9898556 0
vn 0.1865514 -0.9619356 -0.199696
vn -0.9240019 -0.3792214 0.04910661
vn -0.9045205 -0.4264297 -0.0006934381
vn -0.9045205 -0.4264297 -0.0006934382
vn -0.924076 -0.3790133 0.0493212
vn 0.2911476 -0.933314 -0.2101381
vn 0.2909773 -0.9325953 -0.2135376
vn 0.1865514 -0.9619356 -0.199696
vn 0.2911476 -0.933314 -0.2101381
vn -0.9395865 -0.3267935 0.1018976
vn -0.9240019 -0.3792214 0.04910661
vn -0.924076 -0.3790133 0.0493212
vn -0.9395865 -0.3267935 0.1018976
g GemPiece_01_0
f 3/3/3 2/2/2 1/1/1
f 6/6/6 5/5/5 4/4/4
f 9/9/9 8/8/8 7/7/7
f 12/12/12 11/11/11 10/10/10
f 15/15/15 14/14/14 13/13/13
f 18/18/18 17/17/17 16/16/16
f 21/21/21 20/20/20 19/19/19
f 24/24/24 23/23/23 22/22/22
f 27/27/27 26/26/26 25/25/25
f 30/30/30 29/29/29 28/28/28
f 33/33/33 32/32/32 31/31/31
f 36/36/36 35/35/35 34/34/34
f 39/39/39 38/38/38 37/37/37
f 42/42/42 41/41/41 40/40/40
f 45/45/45 44/44/44 43/43/43
f 48/48/48 47/47/47 46/46/46
f 51/51/51 50/50/50 49/49/49
f 54/54/54 53/53/53 52/52/52
f 57/57/57 56/56/56 55/55/55
f 60/60/60 59/59/59 58/58/58
f 63/63/63 62/62/62 61/61/61
f 66/66/66 65/65/65 64/64/64
f 69/69/69 68/68/68 67/67/67
f 72/72/72 71/71/71 70/70/70
f 75/75/75 74/74/74 73/73/73
f 78/78/78 77/77/77 76/76/76
f 81/81/81 80/80/80 79/79/79
f 84/84/84 83/83/83 82/82/82
f 87/87/87 86/86/86 85/85/85
f 90/90/90 89/89/89 88/88/88
f 93/93/93 92/92/92 91/91/91
f 94/94/94 93/93/93 91/91/91
f 97/97/97 96/96/96 95/95/95
f 98/98/98 97/97/97 95/95/95
f 101/101/101 100/100/100 99/99/99
f 102/102/102 101/101/101 99/99/99
f 105/105/105 104/104/104 103/103/103
f 106/106/106 105/105/105 103/103/103
f 109/109/109 108/108/108 107/107/107
f 110/110/110 109/109/109 107/107/107
f 113/113/113 112/112/112 111/111/111
f 114/114/114 113/113/113 111/111/111
f 117/117/117 116/116/116 115/115/115
f 118/118/118 117/117/117 115/115/115
f 121/121/121 120/120/120 119/119/119
f 122/122/122 121/121/121 119/119/119
f 125/125/125 124/124/124 123/123/123
f 124/124/124 126/126/126 123/123/123
f 123/123/123 126/126/126 127/127/127
f 127/127/127 126/126/126 124/124/124
f 128/128/128 123/123/123 127/127/127
f 129/129/129 127/127/127 124/124/124
f 132/132/132 131/131/131 130/130/130
f 131/131/131 133/133/133 130/130/130
f 130/130/130 133/133/133 134/134/134
f 134/134/134 133/133/133 131/131/131
f 135/135/135 130/130/130 134/134/134
f 136/136/136 134/134/134 131/131/131
f 139/139/139 138/138/138 137/137/137
f 140/140/140 139/139/139 137/137/137
f 143/143/143 142/142/142 141/141/141
f 144/144/144 143/143/143 141/141/141
f 147/147/147 146/146/146 145/145/145
f 148/148/148 147/147/147 145/145/145
f 151/151/151 150/150/150 149/149/149
f 152/152/152 151/151/151 149/149/149
f 155/155/155 154/154/154 153/153/153
f 156/156/156 155/155/155 153/153/153
f 159/159/159 158/158/158 157/157/157
f 160/160/160 159/159/159 157/157/157
f 163/163/163 162/162/162 161/161/161
f 164/164/164 163/163/163 161/161/161
f 167/167/167 166/166/166 165/165/165
f 168/168/168 167/167/167 165/165/165
