g GoldenJackpotSliceMDL
v -0.2035618 0.8370507 -0.2777213
v -0.1726408 1.320023 -0.2777213
v -0.5620545 2.33413 -0.2777213
v 0.3951567 2.266448 -0.2814168
v 0.4255408 2.306972 -0.2814168
v 0.3951567 2.297406 -0.2814168
v 0.4255408 2.256883 -0.2814168
v 0.4443192 2.281927 -0.2814168
v -0.4989623 2.285277 -0.2814169
v -0.5082116 2.324362 -0.2814169
v -0.51824 2.301564 -0.2814169
v -0.4770197 2.298009 -0.2814169
v -0.482736 2.322165 -0.2814169
v -0.4173299 2.215855 -0.2814169
v -0.4286811 2.263823 -0.2814169
v -0.4409886 2.235843 -0.2814169
v -0.3904004 2.231481 -0.2814169
v -0.3974158 2.261127 -0.2814169
v 0.2279267 1.306988 -0.2814168
v 0.2164054 1.355675 -0.2814168
v 0.2039136 1.327276 -0.2814168
v 0.2552595 1.322849 -0.2814168
v 0.248139 1.352939 -0.2814168
v 0.3399288 2.219262 -0.2777213
v 0.3213737 2.398989 -0.2777213
v 0.2559929 2.404777 -0.2777213
v 0.462952 1.906048 -0.2777213
v 0.5626271 2.33413 -0.2777213
v 0.4059858 2.618741 2.980232E-08
v 0.3384301 2.491283 -0.2777213
v 0.6273303 2.422567 -0.2777213
v 0.7560713 2.541652 2.980232E-08
v 0.1620346 2.637723 2.980232E-08
v 0.1484503 2.506181 -0.2777213
v 0.3384301 2.491283 -0.2777213
v 0.4059858 2.618741 2.980232E-08
v -0.526274 2.446604 -0.2777213
v -0.3384299 2.491283 -0.2777213
v -0.4059856 2.618741 2.980232E-08
v -0.6273302 2.422568 -0.2777213
v -0.756071 2.542449 2.980232E-08
v -3.426358E-07 -5.364418E-07 2.980232E-08
v -2.89239E-07 -5.364418E-07 -0.2777213
v -0.6533132 2.372755 -0.2777213
v -0.7814232 2.4922 2.980232E-08
v -0.3384299 2.491283 -0.2777213
v -0.1227861 2.508489 -0.2777213
v -0.1092686 2.641075 2.980232E-08
v -0.4059856 2.618741 2.980232E-08
v 0.7560713 2.541652 2.980232E-08
v 0.6273303 2.422567 -0.2777213
v 0.6533132 2.372012 -0.2777213
v 0.7814236 2.49142 2.980232E-08
v -0.7814232 2.4922 2.980232E-08
v -0.6533132 2.372755 -0.2777213
v -0.6273302 2.422568 -0.2777213
v -0.756071 2.542449 2.980232E-08
v 0.3213737 2.398989 -0.2777213
v 0.6273303 2.422567 -0.2777213
v 0.3384301 2.491283 -0.2777213
v 0.5626271 2.33413 -0.2777213
v 0.6533132 2.372012 -0.2777213
v 0.462952 1.906048 -0.2777213
v 0.5232136 1.899654 -0.2777213
v 0.4076608 1.68366 -0.2777213
v 0.4537905 1.647596 -0.2777213
v 0.3640257 1.321684 -0.2777212
v 0.3123194 1.133952 -0.2777212
v -2.89239E-07 -5.364418E-07 -0.2777213
v 0.198209 0.8168523 -0.2777213
v -0.2035618 0.8370507 -0.2777213
v -0.6533132 2.372755 -0.2777213
v -0.5620545 2.33413 -0.2777213
v -0.6273302 2.422568 -0.2777213
v -0.526274 2.446604 -0.2777213
v -0.5620545 2.33413 -0.2777213
v -0.3384299 2.491283 -0.2777213
v -0.526274 2.446604 -0.2777213
v -0.321881 2.398989 -0.2777213
v -0.1227861 2.508489 -0.2777213
v -0.1024412 2.416507 -0.2777213
v -6.612544E-05 2.424321 -0.2777213
v 7.535056E-08 2.517821 -0.2777213
v 0.1957016 2.409379 -0.2777213
v 0.05208904 2.513737 -0.2777212
v 0.1484503 2.506181 -0.2777213
v 0.2559929 2.404777 -0.2777213
v 0.3213737 2.398989 -0.2777213
v 0.3384301 2.491283 -0.2777213
v 7.535056E-08 2.517821 -0.2777213
v 0.05173123 2.513889 -0.2777213
v 0.04938016 2.645395 2.980232E-08
v 1.119182E-07 2.649787 2.980232E-08
v -0.1227861 2.508489 -0.2777213
v -0.1092686 2.641075 2.980232E-08
v 0.3123194 1.133952 -0.2777212
v -2.89239E-07 -5.364418E-07 -0.2777213
v -3.426358E-07 -5.364418E-07 2.980232E-08
v 0.332373 1.059708 2.980232E-08
v 0.05173123 2.513889 -0.2777213
v 0.1484503 2.506181 -0.2777213
v 0.1620346 2.637723 2.980232E-08
v 0.04938016 2.645395 2.980232E-08
v -6.612544E-05 2.424321 -0.2777213
v -0.1024412 2.416507 -0.2777213
v -0.1049498 2.377324 -0.2777212
v 0.004511795 2.355489 -0.2777213
v -6.612544E-05 2.424321 -0.2777213
v 0.004511795 2.355489 -0.2777213
v 0.2085741 2.303542 -0.2777213
v 0.1957016 2.409379 -0.2777213
v 0.3399288 2.219262 -0.2777213
v 0.2559929 2.404777 -0.2777213
v 0.1957016 2.409379 -0.2777213
v 0.2085741 2.303542 -0.2777213
v 0.3399288 2.219262 -0.2777213
v 0.4076608 1.68366 -0.2777213
v 0.462952 1.906048 -0.2777213
v 0.2600892 1.879989 -0.2777213
v 0.2085741 2.303542 -0.2777213
v 0.05173123 2.513889 -0.2777213
v 7.535056E-08 2.517821 -0.2777213
v 0.05208904 2.513737 -0.2777212
v 0.1484503 2.506181 -0.2777213
v 0.4076608 1.68366 -0.2777213
v 0.2600892 1.879989 -0.2777213
v 0.198209 0.8168523 -0.2777213
v 0.02568828 2.161433 -0.2777213
v -0.1049498 2.377324 -0.2777212
v -0.1024412 2.416507 -0.2777213
v -0.321881 2.398989 -0.2777213
v -0.1726408 1.320023 -0.2777213
v -0.5620545 2.33413 -0.2777213
v 0.004511795 2.355489 -0.2777213
v 0.2600892 1.879989 -0.2777213
v 0.2085741 2.303542 -0.2777213
v 0.02568828 2.161433 -0.2777213
v 0.198209 0.8168523 -0.2777213
v -2.89239E-07 -5.364418E-07 -0.2777213
v -0.2035618 0.8370507 -0.2777213
v -0.1049498 2.377324 -0.2777212
v -0.1726408 1.320023 -0.2777213
v 0.7814236 2.49142 2.980232E-08
v 0.6533132 2.372012 -0.2777213
v 0.5232136 1.899654 -0.2777213
v 0.6114295 1.949427 2.980232E-08
v 0.5232136 1.899654 -0.2777213
v 0.4537905 1.647596 -0.2777213
v 0.523353 1.668612 2.980232E-08
v 0.6114295 1.949427 2.980232E-08
v 0.4537905 1.647596 -0.2777213
v 0.3640257 1.321684 -0.2777212
v 0.4070665 1.297854 2.980232E-08
v 0.523353 1.668612 2.980232E-08
v 0.3640257 1.321684 -0.2777212
v 0.3123194 1.133952 -0.2777212
v 0.332373 1.059708 2.980232E-08
v 0.4070665 1.297854 2.980232E-08
vt 0.171287 0.1656203
vt 0.1687973 0.1693559
vt 0.1711437 0.1780716
vt 0.1376801 0.2402021
vt 0.1434093 0.2322965
vt 0.1376801 0.2341781
vt 0.1434093 0.2420636
vt 0.1469501 0.2371901
vt 0.1376801 0.2096201
vt 0.1434093 0.2017145
vt 0.1376801 0.2035961
vt 0.1434093 0.2114816
vt 0.1469501 0.2066081
vt 0.1376801 0.2104815
vt 0.1434093 0.2025759
vt 0.1376801 0.2044575
vt 0.1434093 0.212343
vt 0.1469501 0.2074695
vt 0.1371632 0.3052504
vt 0.1412054 0.2996725
vt 0.1371632 0.3010001
vt 0.1412055 0.3065638
vt 0.1437037 0.3031252
vt 0.1656125 0.03817724
vt 0.1631348 0.04540642
vt 0.1675616 0.04669313
vt 0.162902 0.003236447
vt 0.1474331 0.03765712
vt 0.1494735 0.0534697
vt 0.1519696 0.04597615
vt 0.1446326 0.0444467
vt 0.1406029 0.05169106
vt 0.1742444 0.3007686
vt 0.1723365 0.2947901
vt 0.1686454 0.2960113
vt 0.1695054 0.3023379
vt 0.1618015 0.04548924
vt 0.1582864 0.04678013
vt 0.1618439 0.05382146
vt 0.1653166 0.04419834
vt 0.170355 0.05078762
vt 0.149063 0.06904134
vt 0.1654152 0.07389811
vt 0.167597 0.1147739
vt 0.1381646 0.1126425
vt 0.1614073 0.04534782
vt 0.1560974 0.04633126
vt 0.1569119 0.05400489
vt 0.1642149 0.0526574
vt 0.1312736 0.3040065
vt 0.1338958 0.3005422
vt 0.1336412 0.2996224
vt 0.1310235 0.3030944
vt 0.1490558 0.3031253
vt 0.1464439 0.2996378
vt 0.1461893 0.300544
vt 0.1488042 0.3040363
vt 0.1368936 0.3001136
vt 0.1338958 0.3005422
vt 0.1367264 0.3017927
vt 0.1345298 0.2989334
vt 0.1336412 0.2996224
vt 0.1355068 0.2911457
vt 0.1349163 0.2910293
vt 0.1360487 0.2871
vt 0.1355968 0.2864438
vt 0.1364765 0.2805148
vt 0.1369833 0.2770996
vt 0.1400444 0.2564708
vt 0.1381016 0.271331
vt 0.1420383 0.2716991
vt 0.1464439 0.2996378
vt 0.1455497 0.298935
vt 0.1461893 0.300544
vt 0.1447733 0.3011663
vt 0.182793 0.2633646
vt 0.1772797 0.2683052
vt 0.1817605 0.2672207
vt 0.1770505 0.2650227
vt 0.1721943 0.2683537
vt 0.1718756 0.2650724
vt 0.1694619 0.265083
vt 0.1692995 0.268365
vt 0.1648979 0.2640542
vt 0.1680853 0.2680875
vt 0.1658392 0.267574
vt 0.1634922 0.2637374
vt 0.1619694 0.2633658
vt 0.1614107 0.2665617
vt 0.172908 0.2962896
vt 0.1717924 0.2966615
vt 0.174268 0.3031715
vt 0.1753354 0.3028204
vt 0.1754905 0.2952309
vt 0.1776333 0.3018758
vt 0.1474575 0.09357578
vt 0.153477 0.07406328
vt 0.1712813 0.06934372
vt 0.1711311 0.08790722
vt 0.1546869 0.04598443
vt 0.1522025 0.04607558
vt 0.1524123 0.05395439
vt 0.155303 0.05383402
vt 0.1719387 0.1403601
vt 0.1742957 0.1399621
vt 0.1743494 0.1386879
vt 0.1718987 0.1387929
vt 0.1754703 0.1422869
vt 0.1755657 0.1399394
vt 0.1705268 0.1390104
vt 0.1703909 0.1412382
vt 0.1371114 0.1771217
vt 0.1388263 0.1807095
vt 0.1405594 0.1806975
vt 0.1401447 0.1786944
vt 0.141479 0.1473807
vt 0.1371458 0.130624
vt 0.1360957 0.1371077
vt 0.1418281 0.1358807
vt 0.1445123 0.1489534
vt 0.1395356 0.3022044
vt 0.1400424 0.3022565
vt 0.139532 0.3021889
vt 0.1385879 0.302064
vt 0.1301404 0.3491835
vt 0.1375933 0.356839
vt 0.1437032 0.3169482
vt 0.1491505 0.3696306
vt 0.1673121 0.2339364
vt 0.1668397 0.2361781
vt 0.1726434 0.2372714
vt 0.1755576 0.1948099
vt 0.1791766 0.2371704
vt 0.1740853 0.3673141
vt 0.1666548 0.3584175
vt 0.1681885 0.3648096
vt 0.1732459 0.3638229
vt 0.1665223 0.3284693
vt 0.170359 0.3170279
vt 0.1770586 0.336955
vt 0.1770165 0.3680319
vt 0.1770454 0.3465153
vt 0.1709281 0.1129873
vt 0.1408854 0.1148797
vt 0.1433929 0.1067516
vt 0.171005 0.1034929
vt 0.1331626 0.1732532
vt 0.1339648 0.170653
vt 0.1497402 0.1683505
vt 0.1497164 0.1712996
vt 0.1447309 0.1024143
vt 0.146461 0.09680618
vt 0.1710973 0.09207895
vt 0.1710448 0.0985737
vt 0.1340564 0.1809096
vt 0.1346539 0.178973
vt 0.1488464 0.1755746
vt 0.1488262 0.1780756
vn 0 0 -1
vn 0 0 -1
vn 0 0 -1
vn 0 0 -1
vn 0 0 -1
vn 0 0 -1
vn 0 0 -1
vn 0 0 -1
vn 0 0 -1
vn 0 0 -1
vn 0 0 -1
vn 0 0 -1
vn 0 0 -1
vn 0 0 -1
vn 0 0 -1
vn 0 0 -1
vn 0 0 -1
vn 0 0 -1
vn 0 0 -1
vn 0 0 -1
vn 0 0 -1
vn 0 0 -1
vn 0 0 -1
vn 0 0 -1
vn 0 0 -1
vn 0 0 -1
vn 0 0 -1
vn 0 0 -1
vn 0.153802 0.881023 -0.4473738
vn 0.1419785 0.8841512 -0.4451052
vn 0.1980683 0.8680333 -0.4552878
vn 0.1980684 0.8680333 -0.4552879
vn 0.06896826 0.9004791 -0.4293959
vn 0.06894179 0.9004867 -0.4293842
vn 0.1419785 0.8841512 -0.4451052
vn 0.153802 0.881023 -0.4473738
vn -0.1954261 0.867663 -0.457132
vn -0.1025827 0.894921 -0.4342733
vn -0.1292172 0.8871455 -0.4430304
vn -0.1928763 0.8672969 -0.4589062
vn -0.1928763 0.8672969 -0.4589062
vn -0.947054 -0.2792979 -0.1583715
vn -0.947054 -0.2792979 -0.1583715
vn -0.947054 -0.2792979 -0.1583715
vn -0.947054 -0.2792979 -0.1583715
vn -0.1025827 0.894921 -0.4342733
vn -0.06968415 0.9009746 -0.4282393
vn -0.06970797 0.900992 -0.4281988
vn -0.1292172 0.8871455 -0.4430304
vn 0.76175 0.3879888 -0.5188465
vn 0.76175 0.3879888 -0.5188464
vn 0.76175 0.3879888 -0.5188464
vn 0.76175 0.3879887 -0.5188464
vn -0.7602084 0.3900147 -0.5195881
vn -0.7602084 0.3900148 -0.5195881
vn -0.7602084 0.3900146 -0.5195881
vn -0.7602084 0.3900146 -0.5195881
vn 0 0 -1
vn 0 0 -1
vn 0 0 -1
vn 0 0 -1
vn 0 0 -1
vn 0 0 -1
vn 0 0 -1
vn 0 0 -1
vn 0 0 -1
vn 0 0 -1
vn 0 0 -1
vn 0 0 -1
vn 0 0 -1
vn 0 0 -1
vn 0 0 -1
vn 0 0 -1
vn 0 0 -1
vn 0 0 -1
vn 0 0 -1
vn 0 0 -1
vn 0 0 -1
vn 0 0 -1
vn 0 0 -1
vn 0 0 -1
vn 0 0 -1
vn 0 0 -1
vn 0 0 -1
vn 0 0 -1
vn 0 0 -1
vn 0 0 -1
vn 0 0 -1
vn 0 0 -1
vn -0.02635388 0.9032173 -0.4283736
vn 0.06871538 0.9012365 -0.4278444
vn 0.06889812 0.9012337 -0.427821
vn -0.02643172 0.9032153 -0.4283728
vn -0.06968415 0.9009746 -0.4282393
vn -0.06970797 0.900992 -0.4281988
vn 0.9553785 -0.2813512 -0.08996316
vn 0.9569252 -0.2812298 -0.07213918
vn 0.9569252 -0.2812298 -0.07213918
vn 0.9560151 -0.2813148 -0.08304887
vn 0.06871538 0.9012365 -0.4278444
vn 0.06894179 0.9004867 -0.4293842
vn 0.06896826 0.9004791 -0.4293959
vn 0.06889812 0.9012337 -0.427821
vn 0 0 -1
vn 0 0 -1
vn 0 0 -1
vn 0 0 -1
vn 0 0 -1
vn 0 0 -1
vn 0 0 -1
vn 0 0 -1
vn 0 0 -1
vn 0 0 -1
vn 0 0 -1
vn 0 0 -1
vn 0 0 -1
vn 0 0 -1
vn 0 0 -1
vn 0 0 -1
vn 0 0 -1
vn -6.333106E-05 -0.0002376686 -1
vn 0 0 -1
vn 0 0 -1
vn 0 0 -1
vn 0 0 -1
vn 0 0 -1
vn 0 0 -1
vn 0 0 -1
vn 0 0 -1
vn 0 0 -1
vn 0 0 -1
vn 0 0 -1
vn 0 0 -1
vn 0 0 -1
vn 0 0 -1
vn 0 0 -1
vn 0 0 -1
vn 0 0 -1
vn 0 0 -1
vn 0 0 -1
vn 0 0 -1
vn 0 0 -1
vn 0.9216927 -0.2726806 -0.275913
vn 0.9216927 -0.2726806 -0.275913
vn 0.9267598 -0.2740711 -0.2569072
vn 0.9250626 -0.2736062 -0.2634366
vn 0.9267598 -0.2740711 -0.2569072
vn 0.9381689 -0.2774054 -0.2070876
vn 0.9374993 -0.2771913 -0.2103807
vn 0.9250626 -0.2736062 -0.2634366
vn 0.9381689 -0.2774054 -0.2070876
vn 0.9432814 -0.279348 -0.1794018
vn 0.943414 -0.2794093 -0.1786071
vn 0.9374993 -0.2771913 -0.2103807
vn 0.9432814 -0.279348 -0.1794018
vn 0.9553785 -0.2813512 -0.08996316
vn 0.9560151 -0.2813148 -0.08304887
vn 0.943414 -0.2794093 -0.1786071
g GoldenJackpotSliceMDL_0
f 3/3/3 2/2/2 1/1/1
f 6/6/6 5/5/5 4/4/4
f 4/4/4 5/5/5 7/7/7
f 7/7/7 5/5/5 8/8/8
f 11/11/11 10/10/10 9/9/9
f 9/9/9 10/10/10 12/12/12
f 12/12/12 10/10/10 13/13/13
f 16/16/16 15/15/15 14/14/14
f 14/14/14 15/15/15 17/17/17
f 17/17/17 15/15/15 18/18/18
f 21/21/21 20/20/20 19/19/19
f 19/19/19 20/20/20 22/22/22
f 22/22/22 20/20/20 23/23/23
f 26/26/26 25/25/25 24/24/24
f 27/27/27 24/24/24 25/25/25
f 28/28/28 27/27/27 25/25/25
f 31/31/31 30/30/30 29/29/29
f 32/32/32 31/31/31 29/29/29
f 35/35/35 34/34/34 33/33/33
f 36/36/36 35/35/35 33/33/33
f 39/39/39 38/38/38 37/37/37
f 39/39/39 37/37/37 40/40/40
f 41/41/41 39/39/39 40/40/40
f 44/44/44 43/43/43 42/42/42
f 45/45/45 44/44/44 42/42/42
f 48/48/48 47/47/47 46/46/46
f 49/49/49 48/48/48 46/46/46
f 52/52/52 51/51/51 50/50/50
f 53/53/53 52/52/52 50/50/50
f 56/56/56 55/55/55 54/54/54
f 57/57/57 56/56/56 54/54/54
f 60/60/60 59/59/59 58/58/58
f 59/59/59 61/61/61 58/58/58
f 61/61/61 59/59/59 62/62/62
f 63/63/63 61/61/61 62/62/62
f 64/64/64 63/63/63 62/62/62
f 63/63/63 64/64/64 65/65/65
f 64/64/64 66/66/66 65/65/65
f 66/66/66 67/67/67 65/65/65
f 67/67/67 68/68/68 65/65/65
f 68/68/68 69/69/69 65/65/65
f 69/69/69 70/70/70 65/65/65
f 72/72/72 71/71/71 69/69/69
f 72/72/72 73/73/73 71/71/71
f 73/73/73 72/72/72 74/74/74
f 75/75/75 73/73/73 74/74/74
f 78/78/78 77/77/77 76/76/76
f 77/77/77 79/79/79 76/76/76
f 77/77/77 80/80/80 79/79/79
f 80/80/80 81/81/81 79/79/79
f 81/81/81 80/80/80 82/82/82
f 80/80/80 83/83/83 82/82/82
f 84/84/84 82/82/82 83/83/83
f 85/85/85 84/84/84 83/83/83
f 85/85/85 86/86/86 84/84/84
f 86/86/86 87/87/87 84/84/84
f 88/88/88 87/87/87 86/86/86
f 89/89/89 88/88/88 86/86/86
f 92/92/92 91/91/91 90/90/90
f 93/93/93 92/92/92 90/90/90
f 93/93/93 90/90/90 94/94/94
f 95/95/95 93/93/93 94/94/94
f 98/98/98 97/97/97 96/96/96
f 99/99/99 98/98/98 96/96/96
f 102/102/102 101/101/101 100/100/100
f 103/103/103 102/102/102 100/100/100
f 106/106/106 105/105/105 104/104/104
f 107/107/107 106/106/106 104/104/104
f 110/110/110 109/109/109 108/108/108
f 111/111/111 110/110/110 108/108/108
f 114/114/114 113/113/113 112/112/112
f 115/115/115 114/114/114 112/112/112
f 118/118/118 117/117/117 116/116/116
f 117/117/117 119/119/119 116/116/116
f 120/120/120 116/116/116 119/119/119
f 123/123/123 122/122/122 121/121/121
f 124/124/124 123/123/123 121/121/121
f 127/127/127 126/126/126 125/125/125
f 126/126/126 127/127/127 128/128/128
f 131/131/131 130/130/130 129/129/129
f 131/131/131 129/129/129 132/132/132
f 131/131/131 132/132/132 133/133/133
f 136/136/136 135/135/135 134/134/134
f 135/135/135 137/137/137 134/134/134
f 137/137/137 138/138/138 134/134/134
f 138/138/138 139/139/139 134/134/134
f 140/140/140 134/134/134 139/139/139
f 134/134/134 140/140/140 141/141/141
f 140/140/140 142/142/142 141/141/141
f 145/145/145 144/144/144 143/143/143
f 146/146/146 145/145/145 143/143/143
f 149/149/149 148/148/148 147/147/147
f 150/150/150 149/149/149 147/147/147
f 153/153/153 152/152/152 151/151/151
f 154/154/154 153/153/153 151/151/151
f 157/157/157 156/156/156 155/155/155
f 158/158/158 157/157/157 155/155/155
