g HandLMDL
v -0.06488385 0.2739197 0.1305624
v -0.06301203 0.2763218 0.1128075
v 0.08333168 0.08333166 0.1305623
v -1.053467 0.6773876 0.06047126
v -1.046317 0.7329692 0.06047126
v -1.017902 0.725297 0.1305627
v -0.08434322 -0.08434315 0.1305623
v -0.2769308 0.06222155 0.1128082
v -0.274329 0.06429608 0.1305624
v -0.6772194 1.053179 -0.1305628
v -0.7331383 1.043696 -0.1305627
v -0.06273022 0.2760768 -0.1305627
v -0.7663356 0.9997746 -0.1305628
v -0.1698129 0.1688094 -0.1305627
v -0.9052889 1.05647 -0.1305628
v -1.00672 1.00576 -0.1305628
v -0.1698129 0.1688094 -0.1305627
v -1.057715 0.9037915 -0.1305628
v -0.06273022 0.2760768 -0.1305627
v -0.0005141735 -0.0005143412 -0.1305627
v 0.08339296 0.08339275 -0.1305627
v -1.000854 0.7648671 -0.1305627
v -0.2765251 0.06210001 -0.1305627
v -0.1698129 0.1688094 -0.1305627
v -1.044717 0.7316004 -0.1305627
v -1.051867 0.6760191 -0.1305627
v -0.2765251 0.06210001 -0.1305627
v -0.08406308 -0.08406301 -0.1305627
v -0.0005141735 -0.0005143412 -0.1305627
v -0.7331383 1.043696 -0.1305627
v -0.7663356 0.9997746 -0.1305628
v -0.06273022 0.2760768 -0.1305627
v -1.000854 0.7648671 -0.1305627
v -1.044717 0.7316004 -0.1305627
v -0.2765251 0.06210001 -0.1305627
v -0.2765251 0.06210001 -0.1305627
v -1.051867 0.6760191 -0.1305627
v -0.9867008 0.5681461 -0.1305626
v -0.6772194 1.053179 -0.1305628
v -0.06273022 0.2760768 -0.1305627
v -0.5676922 0.986485 -0.1305628
v -1.017902 0.725297 0.1305627
v -1.024892 0.671707 0.1305627
v -1.053467 0.6773876 0.06047126
v -0.7347381 1.045064 0.06047126
v -0.7271463 1.016535 0.1305627
v -0.766251 0.9713111 0.1305627
v -0.7679359 1.001143 0.06047126
v -1.017902 0.725297 0.1305627
v -1.046317 0.7329692 0.06047126
v -1.002454 0.7662355 0.0604712
v -0.9727459 0.7644736 0.1305627
v -0.9727459 0.7644736 0.1305627
v -1.002454 0.7662355 0.0604712
v -1.059315 0.90516 0.0604712
v -1.015459 0.8935037 0.1305626
v -1.008204 1.007244 0.06047126
v -1.015459 0.8935037 0.1305626
v -1.059315 0.90516 0.0604712
v -0.9713961 0.970436 0.1305627
v -0.9068893 1.057839 0.06047126
v -0.8962808 1.012881 0.1305627
v -0.8962808 1.012881 0.1305627
v -0.7679359 1.001143 0.06047126
v -0.766251 0.9713111 0.1305627
v 0.08333168 0.08333166 0.1305623
v -0.1698141 0.1688079 0.1305623
v -0.06488385 0.2739197 0.1305624
v -0.0005141735 -0.0005142816 0.1305623
v -0.274329 0.06429608 0.1305624
v -0.08434322 -0.08434315 0.1305623
v -0.9713961 0.970436 0.1305627
v -1.015459 0.8935037 0.1305626
v -0.8962808 1.012881 0.1305627
v -0.9727459 0.7644736 0.1305627
v -0.06488385 0.2739197 0.1305624
v -0.274329 0.06429608 0.1305624
v -1.017902 0.725297 0.1305627
v -1.024892 0.671707 0.1305627
v -0.972676 0.5841982 0.1305627
v -0.766251 0.9713111 0.1305627
v -0.7271463 1.016535 0.1305627
v -0.6712888 1.025392 0.1305627
v -0.5814433 0.9750705 0.1305627
v -0.7331383 1.043696 -0.1305627
v -0.6772194 1.053179 -0.1305628
v -0.6789355 1.053832 0.06047126
v -0.7347381 1.045064 0.06047126
v -1.044717 0.7316004 -0.1305627
v -1.000854 0.7648671 -0.1305627
v -1.002454 0.7662355 0.0604712
v -1.046317 0.7329692 0.06047126
v -1.00672 1.00576 -0.1305628
v -0.9052889 1.05647 -0.1305628
v -0.9068893 1.057839 0.06047126
v -1.008204 1.007244 0.06047126
v -0.9052889 1.05647 -0.1305628
v -0.7663356 0.9997746 -0.1305628
v -0.7679359 1.001143 0.06047126
v -0.9068893 1.057839 0.06047126
v -1.000854 0.7648671 -0.1305627
v -1.057715 0.9037915 -0.1305628
v -1.059315 0.90516 0.0604712
v -1.002454 0.7662355 0.0604712
v -0.7663356 0.9997746 -0.1305628
v -0.7331383 1.043696 -0.1305627
v -0.7347381 1.045064 0.06047126
v -0.7679359 1.001143 0.06047126
v -1.051867 0.6760191 -0.1305627
v -1.044717 0.7316004 -0.1305627
v -1.046317 0.7329692 0.06047126
v -1.053467 0.6773876 0.06047126
v -1.057715 0.9037915 -0.1305628
v -1.00672 1.00576 -0.1305628
v -1.008204 1.007244 0.06047126
v -1.059315 0.90516 0.0604712
v -0.6789355 1.053832 0.06047126
v -0.5694346 0.9871483 0.058665
v -0.5814433 0.9750705 0.1305627
v -0.6712888 1.025392 0.1305627
v -0.6789355 1.053832 0.06047126
v -0.7271463 1.016535 0.1305627
v -0.7347381 1.045064 0.06047126
v -1.024892 0.671707 0.1305627
v -0.972676 0.5841982 0.1305627
v -0.9883478 0.5695549 0.06047143
v -1.053467 0.6773876 0.06047126
v -1.053467 0.6773876 0.06047126
v -0.9883478 0.5695549 0.06047143
v -0.9867008 0.5681461 -0.1305626
v -1.051867 0.6760191 -0.1305627
v -0.08406308 -0.08406301 -0.1305627
v -0.2769308 0.06222155 0.1128082
v -0.08434322 -0.08434315 0.1305623
v -0.2765251 0.06210001 -0.1305627
v -0.9867008 0.5681461 -0.1305626
v -0.9883478 0.5695549 0.06047143
v -0.6772194 1.053179 -0.1305628
v -0.5676922 0.986485 -0.1305628
v -0.5694346 0.9871483 0.058665
v -0.6789355 1.053832 0.06047126
v 0.08333168 0.08333166 0.1305623
v -0.06301203 0.2763218 0.1128075
v -0.06273022 0.2760768 -0.1305627
v 0.08339296 0.08339275 -0.1305627
v -0.5814433 0.9750705 0.1305627
v -0.5694346 0.9871483 0.058665
v -0.06301203 0.2763218 0.1128075
v -0.06488385 0.2739197 0.1305624
v -0.06273022 0.2760768 -0.1305627
v -0.06301203 0.2763218 0.1128075
v -0.5694346 0.9871483 0.058665
v -0.5676922 0.986485 -0.1305628
v -0.274329 0.06429608 0.1305624
v -0.2769308 0.06222155 0.1128082
v -0.9883478 0.5695549 0.06047143
v -0.972676 0.5841982 0.1305627
vt 0.3455838 0.7139101
vt 0.349928 0.7139101
vt 0.3170553 0.7139101
vt 0.3516127 0.7139101
vt 0.3567642 0.7139101
vt 0.3565324 0.7139101
vt 0.3538701 0.08833617
vt 0.3574863 0.09653789
vt 0.3570566 0.096515
vt 0.1833645 0.6911179
vt 0.1899563 0.6949322
vt 0.1944102 0.622871
vt 0.1965451 0.6944463
vt 0.209147 0.6269189
vt 0.202817 0.7040157
vt 0.2090826 0.7065226
vt 0.209147 0.6269189
vt 0.215345 0.7040775
vt 0.1944102 0.622871
vt 0.2091626 0.6083252
vt 0.1980675 0.6082706
vt 0.2216034 0.6945698
vt 0.2238234 0.6230192
vt 0.209147 0.6269189
vt 0.228193 0.6951205
vt 0.2347794 0.6913712
vt 0.2238234 0.6230192
vt 0.2202577 0.60838
vt 0.2091626 0.6083252
vt 0.1899563 0.6949322
vt 0.1965451 0.6944463
vt 0.1944102 0.622871
vt 0.2216034 0.6945698
vt 0.228193 0.6951205
vt 0.2238234 0.6230192
vt 0.2238234 0.6230192
vt 0.2347794 0.6913712
vt 0.2387726 0.6843946
vt 0.1833645 0.6911179
vt 0.1944102 0.622871
vt 0.1790769 0.684083
vt 0.3565324 0.0867371
vt 0.3368856 0.1196612
vt 0.3516127 0.0867371
vt 0.3866583 0.7139101
vt 0.3860672 0.7139101
vt 0.3818308 0.7139101
vt 0.3815068 0.7139101
vt 0.3573553 0.7139101
vt 0.3567642 0.7139101
vt 0.3619157 0.7139101
vt 0.3615916 0.7139101
vt 0.363261 0.71391
vt 0.3619157 0.7139101
vt 0.366814 0.7139101
vt 0.3670354 0.7139101
vt 0.3717112 0.7139101
vt 0.3685568 0.7139101
vt 0.366814 0.7139101
vt 0.3717112 0.7139101
vt 0.3766085 0.7139101
vt 0.3748656 0.7139101
vt 0.376387 0.7139101
vt 0.3815068 0.7139101
vt 0.3801614 0.7139101
vt 0.196512 0.6218489
vt 0.2088314 0.6290085
vt 0.1921303 0.6267527
vt 0.2088296 0.6242385
vt 0.2254234 0.6267644
vt 0.2211482 0.6218381
vt 0.2088315 0.7137092
vt 0.2135786 0.7118478
vt 0.2040824 0.711848
vt 0.2215441 0.7045026
vt 0.1921303 0.6267527
vt 0.2254234 0.6267644
vt 0.2298188 0.7051481
vt 0.2353474 0.7008371
vt 0.240876 0.6965261
vt 0.1961049 0.7045025
vt 0.1878308 0.7051481
vt 0.1820028 0.7008084
vt 0.1761748 0.6964689
vt 0.114219 0.6950943
vt 0.114219 0.7039728
vt 0.114219 0.7039728
vt 0.114219 0.6950942
vt 0.1162824 0.7012846
vt 0.1162824 0.7101631
vt 0.1162824 0.7101631
vt 0.1162824 0.7012846
vt 0.114219 0.6953133
vt 0.114219 0.7037538
vt 0.114219 0.7037538
vt 0.114219 0.6953133
vt 0.2321281 0.2340559
vt 0.2321281 0.242498
vt 0.2321281 0.242498
vt 0.2321281 0.234056
vt 0.2321281 0.26707
vt 0.2321281 0.2755122
vt 0.2321281 0.2755122
vt 0.2321281 0.26707
vt 0.1162824 0.7012845
vt 0.1162824 0.7101631
vt 0.1162824 0.7101631
vt 0.1162824 0.7012845
vt 0.1142189 0.6950943
vt 0.1142189 0.7039728
vt 0.1142189 0.7039728
vt 0.114219 0.6950943
vt 0.114219 0.6953133
vt 0.114219 0.7037537
vt 0.114219 0.7037538
vt 0.114219 0.6953133
vt 0.3516949 0.7139101
vt 0.3481327 0.7139101
vt 0.3918097 0.7139101
vt 0.3893499 0.7139101
vt 0.3918098 0.7139101
vt 0.3868901 0.7139101
vt 0.3866583 0.7139101
vt 0.3553025 0.1196612
vt 0.3196988 0.1115631
vt 0.3196988 0.1115631
vt 0.3516127 0.0867371
vt 0.2337296 0.2581559
vt 0.1844335 0.2617758
vt 0.2329518 0.2581562
vt 0.2337296 0.2581559
vt 0.3757576 0.341514
vt 0.3830503 0.3549772
vt 0.3936571 0.3420825
vt 0.3663748 0.3544147
vt 0.3317528 0.3992192
vt 0.3447773 0.3997754
vt 0.2232981 0.2600244
vt 0.2197359 0.2600242
vt 0.2197359 0.2600242
vt 0.2232981 0.2600244
vt 0.1793561 0.2793416
vt 0.2122289 0.2793424
vt 0.2037198 0.2793422
vt 0.1793561 0.2793416
vt 0.3827723 0.7139101
vt 0.3827723 0.7139101
vt 0.349928 0.7139101
vt 0.3455838 0.7139101
vt 0.2037198 0.2793422
vt 0.2122289 0.2793424
vt 0.2450732 0.2793432
vt 0.2450732 0.2793432
vt 0.3434233 0.09634894
vt 0.3434189 0.09634894
vt 0.365889 0.09634632
vt 0.365889 0.09634632
vn 0.05811866 0.04519693 0.9972861
vn 0.7786993 0.6055773 0.1640227
vn 0.002314028 0.001798886 0.9999957
vn -0.8739725 -0.3623017 0.3238975
vn -0.9157333 0.1178038 0.3841285
vn -0.9158607 0.1187857 0.3835219
vn -0.6061971 -0.7748221 0.1793761
vn -0.6061971 -0.7748221 0.1793761
vn -0.606197 -0.7748221 0.1793761
vn 0 0 -1
vn 0 0 -1
vn 0 0 -1
vn 0 0 -1
vn 0 0 -1
vn 0 0 -1
vn 0 0 -1
vn 0 0 -1
vn 0 0 -1
vn 0 0 -1
vn 0 0 -1
vn 0 0 -1
vn 0 0 -1
vn 0 0 -1
vn 0 0 -1
vn 0 0 -1
vn 0 0 -1
vn 0 0 -1
vn 0 0 -1
vn 0 0 -1
vn 0 0 -1
vn 0 0 -1
vn 0 0 -1
vn 0 0 -1
vn 0 0 -1
vn 0 0 -1
vn 0 0 -1
vn 0 0 -1
vn 0 0 -1
vn 0 0 -1
vn 0 0 -1
vn 0 0 -1
vn -0.9158607 0.1187857 0.3835219
vn -0.8611086 -0.3988755 0.3152626
vn -0.8739725 -0.3623017 0.3238975
vn -0.7410612 0.6010521 0.2992737
vn -0.7410612 0.6010521 0.2992737
vn -0.7410611 0.6010521 0.2992737
vn -0.7410612 0.6010521 0.2992737
vn -0.6022231 0.7400193 0.2994978
vn -0.6022231 0.7400193 0.2994978
vn -0.602223 0.7400193 0.2994978
vn -0.6022231 0.7400193 0.2994978
vn -0.852056 -0.3166279 0.4168302
vn -0.852056 -0.3166279 0.4168302
vn -0.8541284 0.02285361 0.5195598
vn -0.8604124 -0.02516774 0.5089765
vn -0.5789582 0.5779176 0.5751684
vn -0.8604124 -0.02516774 0.5089765
vn -0.8541284 0.02285361 0.5195598
vn -0.578745 0.5781296 0.5751699
vn -0.01727135 0.8521093 0.5230789
vn 0.02357831 0.8572773 0.5143147
vn 0.02357831 0.8572773 0.5143147
vn 0.3104262 0.8497372 0.4261248
vn 0.3104262 0.8497372 0.4261248
vn 0.002314028 0.001798886 0.9999957
vn 0 0 1
vn 0.05811866 0.04519693 0.9972861
vn 0 0 1
vn 0 0 1
vn 0 0 1
vn 0 0 1
vn 0 0 1
vn 0 0 1
vn 0 0 1
vn 0 0 1
vn 0 0 1
vn 0 0 1
vn 0 0 1
vn 0 0 1
vn 0 0 1
vn 0 0 1
vn 0 0 1
vn 0 0 1
vn -0.1612256 0.9868954 -0.006620291
vn -0.1612256 0.9868954 -0.006620291
vn -0.1612256 0.9868954 -0.006620291
vn -0.1612256 0.9868954 -0.006620292
vn -0.6042535 0.7967193 -0.01076872
vn -0.6042535 0.7967194 -0.01076872
vn -0.6042535 0.7967194 -0.01076872
vn -0.6042535 0.7967193 -0.01076872
vn -0.4469482 0.8945007 -0.01028638
vn -0.4469481 0.8945007 -0.01028638
vn -0.4469481 0.8945007 -0.01028638
vn -0.4469481 0.8945007 -0.01028638
vn 0.3777802 0.9258888 -0.003467291
vn 0.3777802 0.9258888 -0.003467291
vn 0.3777802 0.9258888 -0.003467291
vn 0.3777802 0.9258888 -0.003467291
vn -0.9254709 -0.3787851 -0.005037285
vn -0.9254709 -0.3787851 -0.005037284
vn -0.925471 -0.3787851 -0.005037285
vn -0.9254709 -0.3787851 -0.005037285
vn -0.7977086 0.6029428 -0.011
vn -0.7977086 0.6029428 -0.011
vn -0.7977086 0.6029428 -0.011
vn -0.7977086 0.6029428 -0.011
vn -0.991785 0.1275828 -0.009221454
vn -0.991785 0.1275828 -0.009221454
vn -0.991785 0.1275828 -0.009221455
vn -0.991785 0.1275828 -0.009221456
vn -0.8942396 0.4474638 -0.0105594
vn -0.8942396 0.4474638 -0.0105594
vn -0.8942396 0.4474638 -0.0105594
vn -0.8942396 0.4474638 -0.0105594
vn 0.2600559 0.9107198 0.3208745
vn 0.7426237 0.630961 0.2244959
vn 0.7428046 0.6307602 0.2244617
vn 0.318154 0.8972379 0.3061736
vn 0.2600559 0.9107198 0.3208745
vn -0.143839 0.9112336 0.385958
vn -0.143839 0.9112337 0.3859579
vn -0.8611086 -0.3988755 0.3152626
vn -0.6233659 -0.7324797 0.2736575
vn -0.6246189 -0.7313496 0.2738226
vn -0.8739725 -0.3623017 0.3238975
vn -0.8559753 -0.517005 -0.003516623
vn -0.6158386 -0.7878723 -0.0002784491
vn -0.6161374 -0.7876386 -0.0002819184
vn -0.8559752 -0.517005 -0.003516622
vn -0.6051695 -0.7960959 -0.001073136
vn -0.6051695 -0.7960959 -0.001073136
vn -0.6051695 -0.7960959 -0.001073136
vn -0.6051696 -0.7960959 -0.001073136
vn -0.6161374 -0.7876386 -0.0002819184
vn -0.6158386 -0.7878723 -0.0002784491
vn 0.520119 0.854092 0.001773913
vn 0.7877754 0.6159574 0.00252258
vn 0.7879544 0.6157284 0.002523063
vn 0.5201191 0.854092 0.001773913
vn 0.7967971 0.6042469 0.0003217055
vn 0.7967971 0.6042468 0.0003217055
vn 0.7967971 0.6042469 0.0003217055
vn 0.7967971 0.6042469 0.0003217055
vn 0.7428046 0.6307602 0.2244617
vn 0.7426237 0.630961 0.2244959
vn 0.7868815 0.5783513 0.2152376
vn 0.7868815 0.5783513 0.2152376
vn 0.8147085 0.579865 0.002594976
vn 0.8147085 0.579865 0.002594976
vn 0.7879544 0.6157284 0.002523063
vn 0.7877754 0.6159574 0.00252258
vn -0.5740165 -0.7741806 0.2667388
vn -0.5740165 -0.7741805 0.2667388
vn -0.6246189 -0.7313496 0.2738226
vn -0.6233659 -0.7324797 0.2736575
g HandLMDL_0
f 3/3/3 2/2/2 1/1/1
f 6/6/6 5/5/5 4/4/4
f 9/9/9 8/8/8 7/7/7
f 12/12/12 11/11/11 10/10/10
f 12/12/12 14/14/14 13/13/13
f 14/14/14 15/15/15 13/13/13
f 17/17/17 16/16/16 15/15/15
f 17/17/17 18/18/18 16/16/16
f 20/20/20 14/14/14 19/19/19
f 21/21/21 20/20/20 19/19/19
f 23/23/23 22/22/22 18/18/18
f 24/24/24 23/23/23 18/18/18
f 23/23/23 26/26/26 25/25/25
f 28/28/28 27/27/27 24/24/24
f 29/29/29 28/28/28 24/24/24
f 32/32/32 31/31/31 30/30/30
f 35/35/35 34/34/34 33/33/33
f 38/38/38 37/37/37 36/36/36
f 41/41/41 40/40/40 39/39/39
f 44/44/44 43/43/43 42/42/42
f 47/47/47 46/46/46 45/45/45
f 48/48/48 47/47/47 45/45/45
f 51/51/51 50/50/50 49/49/49
f 52/52/52 51/51/51 49/49/49
f 55/55/55 54/54/54 53/53/53
f 56/56/56 55/55/55 53/53/53
f 59/59/59 58/58/58 57/57/57
f 58/58/58 60/60/60 57/57/57
f 61/61/61 57/57/57 60/60/60
f 62/62/62 61/61/61 60/60/60
f 64/64/64 61/61/61 63/63/63
f 65/65/65 64/64/64 63/63/63
f 68/68/68 67/67/67 66/66/66
f 67/67/67 69/69/69 66/66/66
f 67/67/67 70/70/70 69/69/69
f 70/70/70 71/71/71 69/69/69
f 73/73/73 67/67/67 72/72/72
f 74/74/74 72/72/72 67/67/67
f 73/73/73 75/75/75 67/67/67
f 74/74/74 67/67/67 76/76/76
f 75/75/75 77/77/77 67/67/67
f 75/75/75 78/78/78 77/77/77
f 79/79/79 77/77/77 78/78/78
f 80/80/80 77/77/77 79/79/79
f 81/81/81 74/74/74 76/76/76
f 82/82/82 81/81/81 76/76/76
f 83/83/83 82/82/82 76/76/76
f 84/84/84 83/83/83 76/76/76
f 87/87/87 86/86/86 85/85/85
f 88/88/88 87/87/87 85/85/85
f 91/91/91 90/90/90 89/89/89
f 92/92/92 91/91/91 89/89/89
f 95/95/95 94/94/94 93/93/93
f 96/96/96 95/95/95 93/93/93
f 99/99/99 98/98/98 97/97/97
f 100/100/100 99/99/99 97/97/97
f 103/103/103 102/102/102 101/101/101
f 104/104/104 103/103/103 101/101/101
f 107/107/107 106/106/106 105/105/105
f 108/108/108 107/107/107 105/105/105
f 111/111/111 110/110/110 109/109/109
f 112/112/112 111/111/111 109/109/109
f 115/115/115 114/114/114 113/113/113
f 116/116/116 115/115/115 113/113/113
f 119/119/119 118/118/118 117/117/117
f 120/120/120 119/119/119 117/117/117
f 122/122/122 120/120/120 121/121/121
f 123/123/123 122/122/122 121/121/121
f 126/126/126 125/125/125 124/124/124
f 127/127/127 126/126/126 124/124/124
f 130/130/130 129/129/129 128/128/128
f 131/131/131 130/130/130 128/128/128
f 134/134/134 133/133/133 132/132/132
f 133/133/133 135/135/135 132/132/132
f 136/136/136 135/135/135 133/133/133
f 137/137/137 136/136/136 133/133/133
f 140/140/140 139/139/139 138/138/138
f 141/141/141 140/140/140 138/138/138
f 144/144/144 143/143/143 142/142/142
f 145/145/145 144/144/144 142/142/142
f 148/148/148 147/147/147 146/146/146
f 149/149/149 148/148/148 146/146/146
f 152/152/152 151/151/151 150/150/150
f 153/153/153 152/152/152 150/150/150
f 156/156/156 155/155/155 154/154/154
f 157/157/157 156/156/156 154/154/154
