g HighlightMDL_02
v 0.6565392 -0.2474604 -1.027747
v 0.5913617 -0.2468027 -1.068442
v 0.5859867 -0.3106892 -1.049173
v 0.5053155 0.7028344 -0.9034241
v 0.5570187 0.4841208 -1.006796
v 0.8264458 0.4841208 -0.8264459
v 0.7437816 0.7028344 -0.7437817
v 0.4321363 0.8945385 -0.766702
v 0.5053155 0.7028344 -0.9034241
v 0.7437816 0.7028344 -0.7437817
v 0.6325342 0.8945385 -0.6325343
v 0.4969789 1.051866 -0.496979
v 0.3378964 1.051866 -0.6034787
v 0.4321363 0.8945385 -0.766702
v 0.6325342 0.8945385 -0.6325343
v 0.5570187 0.4841208 -1.006796
v 0.5887535 0.2468027 -1.070522
v 0.8468552 0.2468027 -0.897762
v 0.8264458 0.4841208 -0.8264459
v 0.5887535 0.2468027 -1.070522
v 0.6001289 -3.209238E-17 -1.091497
v 0.7950142 -3.209238E-17 -0.9611198
v 0.8468552 0.2468027 -0.897762
v 0.6001289 -3.209238E-17 -1.091497
v 0.5913617 -0.2468027 -1.068442
v 0.6565392 -0.2474604 -1.027747
v 0.7950142 -3.209238E-17 -0.9611198
vt 0.1181206 0.6017053
vt 0.1681205 0.6017053
vt 0.1681205 0.6267052
vt 0.14089 0.6250224
vt 0.1412894 0.6130692
vt 0.1347268 0.6130692
vt 0.1349264 0.6250224
vt 0.1401877 0.6250224
vt 0.14089 0.6130694
vt 0.1349264 0.6130694
vt 0.1352776 0.6250224
vt 0.1355859 0.6256865
vt 0.1389072 0.6256865
vt 0.1403301 0.6124052
vt 0.1348744 0.6124052
vt 0.1425256 0.6250224
vt 0.1420339 0.6135299
vt 0.1342924 0.6143934
vt 0.1360801 0.6250224
vt 0.125254 0.6316223
vt 0.1525591 0.631934
vt 0.1525591 0.6063635
vt 0.125254 0.6008215
vt 0.1470103 0.6227342
vt 0.1681205 0.6017053
vt 0.1181206 0.6017053
vt 0.1470103 0.6218818
vn 0.546478 -0.09428567 -0.8321489
vn 0.545381 -0.1012115 -0.8320551
vn 0.5051017 -0.2878909 -0.8136283
vn 0.4685487 0.5390647 -0.6999081
vn 0.5163549 0.3719528 -0.7713811
vn 0.5157404 0.3746998 -0.7704621
vn 0.4694353 0.536565 -0.7012336
vn 0.402273 0.6907454 -0.600872
vn 0.4685487 0.5390647 -0.6999081
vn 0.4694353 0.536565 -0.7012336
vn 0.4042001 0.6871006 -0.6037506
vn 0.3569685 0.7669905 -0.5331969
vn 0.3569685 0.7669905 -0.5331969
vn 0.402273 0.6907454 -0.600872
vn 0.4042001 0.6871006 -0.6037506
vn 0.5163549 0.3719528 -0.7713811
vn 0.5452792 0.1972398 -0.814719
vn 0.5436558 0.211288 -0.8122781
vn 0.5157404 0.3746998 -0.7704621
vn 0.5452792 0.1972398 -0.814719
vn 0.5534857 0.02891178 -0.8323568
vn 0.553804 0.05206497 -0.8310177
vn 0.5436558 0.211288 -0.8122781
vn 0.5534857 0.02891178 -0.8323568
vn 0.545381 -0.1012115 -0.8320551
vn 0.546478 -0.09428567 -0.8321489
vn 0.553804 0.05206497 -0.8310177
g HighlightMDL_02_0
f 3/3/3 2/2/2 1/1/1
f 6/6/6 5/5/5 4/4/4
f 7/7/7 6/6/6 4/4/4
f 10/10/10 9/9/9 8/8/8
f 11/11/11 10/10/10 8/8/8
f 14/14/14 13/13/13 12/12/12
f 15/15/15 14/14/14 12/12/12
f 18/18/18 17/17/17 16/16/16
f 19/19/19 18/18/18 16/16/16
f 22/22/22 21/21/21 20/20/20
f 23/23/23 22/22/22 20/20/20
f 26/26/26 25/25/25 24/24/24
f 27/27/27 26/26/26 24/24/24
