g HighlightMDL_01
v -0.8945388 -3.209238E-17 -0.8945383
v -0.8923526 0.03139013 -0.8923522
v -0.9078 0.03338629 -0.8700683
v -0.5500483 0.4841208 -1.011129
v -0.493412 0.7028344 -0.9110733
v -0.7437818 0.7028344 -0.7437814
v -0.8264461 0.4841208 -0.8264456
v -0.7437818 0.7028344 -0.7437814
v -0.493412 0.7028344 -0.9110733
v -0.4170214 0.8945385 -0.7765354
v -0.6325344 0.8945385 -0.6325341
v -0.6325344 0.8945385 -0.6325341
v -0.4170214 0.8945385 -0.7765354
v -0.3209154 1.051866 -0.6146209
v -0.4969791 1.051866 -0.4969788
v -0.5739552 0.2468027 -1.080072
v -0.8773504 0.2468027 -0.87735
v -0.8837851 0.1544084 -0.8837847
v -0.5756387 0.1324209 -1.092236
v -0.7437818 0.7028344 -0.7437814
v -0.8447142 0.7028344 -0.5927253
v -0.9125777 0.4841208 -0.6975402
v -0.8264461 0.4841208 -0.8264456
v -0.8773504 0.2468027 -0.87735
v -0.9331533 0.2498172 -0.7970547
v -0.708703 0.8945385 -0.5185397
v -0.8447142 0.7028344 -0.5927253
v -0.7437818 0.7028344 -0.7437814
v -0.6325344 0.8945385 -0.6325341
v -0.5313799 1.051866 -0.4454944
v -0.708703 0.8945385 -0.5185397
v -0.6325344 0.8945385 -0.6325341
v -0.4969791 1.051866 -0.4969788
v -0.5308707 -0.2461158 -1.10903
v -0.6477618 -0.331776 -1.000349
v -0.478935 -0.4191891 -1.081879
v -0.7435376 -0.2467209 -0.966781
v -0.5768244 1.862645E-09 -1.106828
v -0.8945388 -3.209238E-17 -0.8945383
v -0.8923526 0.03139013 -0.8923522
v -0.5739552 0.2468027 -1.080072
v -0.5500483 0.4841208 -1.011129
v -0.8264461 0.4841208 -0.8264456
v -0.8773504 0.2468027 -0.87735
v -0.8773504 0.2468027 -0.87735
v -0.9331533 0.2498172 -0.7970547
v -0.9249522 0.1702545 -0.8317666
v -0.8837851 0.1544084 -0.8837847
vt 0.1083418 0.6065751
vt 0.1833418 0.6065751
vt 0.1458418 0.6815752
vt 0.1596655 0.6048883
vt 0.136428 0.6532056
vt 0.1244749 0.6532056
vt 0.1100325 0.6021408
vt 0.1244749 0.6412525
vt 0.136428 0.6412525
vt 0.136428 0.6532055
vt 0.1244749 0.6532055
vt 0.1238109 0.6405884
vt 0.1370922 0.6405884
vt 0.1370922 0.6538696
vt 0.1238109 0.6538696
vt 0.1373126 0.6412525
vt 0.1218537 0.6264938
vt 0.1275749 0.6264805
vt 0.144104 0.6762264
vt 0.136428 0.6532056
vt 0.1298772 0.6532056
vt 0.163629 0.6741766
vt 0.1519175 0.6743532
vt 0.07570472 0.6873517
vt 0.2126596 0.6873627
vt 0.129057 0.6532055
vt 0.1298772 0.6412525
vt 0.136428 0.6412525
vt 0.136428 0.6532055
vt 0.1284372 0.6538696
vt 0.1289021 0.6405884
vt 0.1370922 0.6405884
vt 0.1370922 0.6538696
vt 0.1202953 0.647229
vt 0.1353201 0.6568307
vt 0.1202953 0.6664324
vt 0.1359249 0.647229
vt 0.1202953 0.6280257
vt 0.1368957 0.6318149
vt 0.1371344 0.6280257
vt 0.1373126 0.6412525
vt 0.1596655 0.6548884
vt 0.1100512 0.651868
vt 0.1234929 0.6463422
vt 0.07515942 0.5498626
vt 0.2126596 0.5498626
vt 0.2126596 0.6873627
vt 0.02846833 0.7092029
vn -0.8139324 0.09658189 -0.5728753
vn -0.8139324 0.09658189 -0.5728753
vn -0.8139324 0.0965819 -0.5728753
vn -0.4920548 0.4643065 -0.7364113
vn -0.4672425 0.5410135 -0.6992773
vn -0.5572605 0.5451859 -0.6262851
vn -0.4920548 0.4643065 -0.7364113
vn -0.5572605 0.5451859 -0.6262851
vn -0.4672425 0.5410135 -0.6992773
vn -0.4009767 0.6921655 -0.6001037
vn -0.477756 0.6908358 -0.5426741
vn -0.477756 0.6908358 -0.5426741
vn -0.4009767 0.6921655 -0.6001037
vn -0.3565278 0.7669284 -0.5335811
vn -0.4118279 0.7719985 -0.4841654
vn -0.5413414 0.2248737 -0.8101737
vn -0.5411893 0.2260562 -0.8099461
vn -0.5529963 0.09615152 -0.827617
vn -0.5529963 0.09615151 -0.827617
vn -0.5572605 0.5451859 -0.6262851
vn -0.6944754 0.5498883 -0.4640332
vn -0.7581655 0.4051077 -0.5109529
vn -0.7636999 0.3881159 -0.5158765
vn -0.7895321 0.2918502 -0.5398727
vn -0.7895321 0.2918501 -0.5398727
vn -0.6102764 0.6791787 -0.4077733
vn -0.6944754 0.5498883 -0.4640332
vn -0.5572605 0.5451859 -0.6262851
vn -0.477756 0.6908358 -0.5426741
vn -0.533581 0.7669286 -0.3565273
vn -0.6102764 0.6791787 -0.4077733
vn -0.477756 0.6908358 -0.5426741
vn -0.4118279 0.7719985 -0.4841654
vn -0.5508698 -0.1303985 -0.8243414
vn -0.5323932 -0.2848543 -0.7971295
vn -0.5324181 -0.2848163 -0.7971265
vn -0.5525742 -0.1049701 -0.8268272
vn -0.5531246 -0.09533679 -0.8276255
vn -0.5540616 -0.07548344 -0.8290465
vn -0.5529968 0.09615248 -0.8276166
vn -0.5413414 0.2248737 -0.8101737
vn -0.5325027 0.2851647 -0.7969455
vn -0.5325027 0.2851647 -0.7969455
vn -0.5411893 0.2260562 -0.8099461
vn -0.7899184 0.1350164 -0.5981634
vn -0.7899184 0.1350164 -0.5981635
vn -0.7899184 0.1350164 -0.5981634
vn -0.7899184 0.1350164 -0.5981634
g HighlightMDL_01_0
f 3/3/3 2/2/2 1/1/1
f 6/6/6 5/5/5 4/4/4
f 7/7/7 6/6/6 4/4/4
f 10/10/10 9/9/9 8/8/8
f 11/11/11 10/10/10 8/8/8
f 14/14/14 13/13/13 12/12/12
f 15/15/15 14/14/14 12/12/12
f 18/18/18 17/17/17 16/16/16
f 19/19/19 18/18/18 16/16/16
f 22/22/22 21/21/21 20/20/20
f 23/23/23 22/22/22 20/20/20
f 22/22/22 23/23/23 24/24/24
f 25/25/25 22/22/22 24/24/24
f 28/28/28 27/27/27 26/26/26
f 29/29/29 28/28/28 26/26/26
f 32/32/32 31/31/31 30/30/30
f 33/33/33 32/32/32 30/30/30
f 36/36/36 35/35/35 34/34/34
f 35/35/35 37/37/37 34/34/34
f 34/34/34 37/37/37 38/38/38
f 37/37/37 39/39/39 38/38/38
f 38/38/38 39/39/39 40/40/40
f 43/43/43 42/42/42 41/41/41
f 44/44/44 43/43/43 41/41/41
f 47/47/47 46/46/46 45/45/45
f 48/48/48 47/47/47 45/45/45
