g icon_bottle__cork_3
v 0.01766037 -0.02925221 -0.03058866
v 0.03939819 0.02925221 -0.02274656
v 0.02274656 0.02925221 -0.03939819
v 0.03058866 -0.02925221 -0.01766037
v 0.04549311 0.02925221 3.39395E-18
v 0.03532074 -0.02925221 3.900432E-18
v 0.03939819 0.02925221 0.02274656
v 0.03058866 -0.02925221 0.01766037
v 0.02274656 0.02925221 0.03939819
v 0.01766037 -0.02925221 0.03058866
v -9.091741E-17 0.02925221 0.04549311
v -9.204678E-17 -0.02925221 0.03532074
v -0.02274656 0.02925221 0.03939819
v -0.01766037 -0.02925221 0.03058866
v -0.03939819 0.02925221 0.02274656
v -0.03058866 -0.02925221 0.01766037
v -0.04549311 0.02925221 2.352851E-18
v -0.03532074 -0.02925221 3.092126E-18
v -0.03939819 0.02925221 -0.02274656
v -0.03058866 -0.02925221 -0.01766037
v -0.02274656 0.02925221 -0.03939819
v -0.01766037 -0.02925221 -0.03058866
v -9.544762E-17 0.02925221 -0.04549311
v -9.556402E-17 -0.02925221 -0.03532074
v 0.02274656 0.02925221 -0.03939819
v 0.01766037 -0.02925221 -0.03058866
v 0.01766037 -0.02925221 0.03058866
v -9.596816E-17 -0.02925221 5.659051E-18
v -9.204678E-17 -0.02925221 0.03532074
v 0.03058866 -0.02925221 0.01766037
v -0.01766037 -0.02925221 0.03058866
v 0.03532074 -0.02925221 3.900432E-18
v -0.03058866 -0.02925221 0.01766037
v 0.03058866 -0.02925221 -0.01766037
v -0.03532074 -0.02925221 3.092126E-18
v 0.01766037 -0.02925221 -0.03058866
v -0.03058866 -0.02925221 -0.01766037
v -9.556402E-17 -0.02925221 -0.03532074
v -0.01766037 -0.02925221 -0.03058866
v 0.02274656 0.02925221 0.03939819
v -9.091741E-17 0.02925221 0.04549311
v -9.596816E-17 0.02925221 5.659051E-18
v 0.03939819 0.02925221 0.02274656
v -0.02274656 0.02925221 0.03939819
v 0.04549311 0.02925221 3.39395E-18
v -0.03939819 0.02925221 0.02274656
v 0.03939819 0.02925221 -0.02274656
v -0.04549311 0.02925221 2.352851E-18
v 0.02274656 0.02925221 -0.03939819
v -0.03939819 0.02925221 -0.02274656
v -9.544762E-17 0.02925221 -0.04549311
v -0.02274656 0.02925221 -0.03939819
vt 0.4104831 0.1009927
vt 0.41097 0.1904567
vt 0.4273431 0.1904567
vt 0.3985847 0.1009927
vt 0.3886039 0.1904567
vt 0.3823311 0.1009927
vt 0.3662379 0.1904567
vt 0.3596831 0.1009927
vt 0.3498648 0.1904567
vt 0.3413903 0.1009927
vt 0.3274988 0.1904567
vt 0.3251367 0.1009927
vt 0.3051327 0.1904567
vt 0.3088831 0.1009927
vt 0.2887597 0.1904567
vt 0.2905902 0.1009927
vt 0.2663936 0.1904567
vt 0.2679422 0.1009927
vt 0.2440277 0.1904567
vt 0.2452943 0.1009927
vt 0.2276544 0.1904567
vt 0.2270013 0.1009927
vt 0.2052885 0.1904567
vt 0.2107477 0.1009927
vt 0.1829224 0.1904567
vt 0.1944941 0.1009927
vt 0.979394 0.0525825
vt 0.892139 0.1029592
vt 0.9931281 0.1029592
vt 0.9426336 0.01550007
vt 0.9795981 0.1534537
vt 0.892139 0.002205849
vt 0.9426336 0.1904182
vt 0.8416445 0.01550007
vt 0.892139 0.2039483
vt 0.8046798 0.0524646
vt 0.8416445 0.1904182
vt 0.79115 0.1029592
vt 0.8046798 0.1534537
vt 0.9795981 0.1534537
vt 0.9931281 0.1029592
vt 0.892139 0.1029592
vt 0.9426336 0.1904182
vt 0.9798023 0.05234683
vt 0.892139 0.2039483
vt 0.9426336 0.01550007
vt 0.8416445 0.1904182
vt 0.892139 0.001734257
vt 0.8046798 0.1534537
vt 0.8416445 0.01550007
vt 0.79115 0.1029592
vt 0.8046798 0.0524646
vn 0.4926092 -0.1713035 -0.853224
vn 0.853224 -0.1713035 -0.4926092
vn 0.4926092 -0.1713035 -0.853224
vn 0.853224 -0.1713035 -0.4926092
vn 0.9852183 -0.1713035 0
vn 0.9852183 -0.1713035 0
vn 0.853224 -0.1713035 0.4926092
vn 0.853224 -0.1713035 0.4926092
vn 0.4926092 -0.1713035 0.853224
vn 0.4926092 -0.1713035 0.853224
vn 0 -0.1713035 0.9852183
vn 0 -0.1713035 0.9852183
vn -0.4926092 -0.1713035 0.853224
vn -0.4926092 -0.1713035 0.853224
vn -0.853224 -0.1713035 0.4926092
vn -0.853224 -0.1713035 0.4926092
vn -0.9852183 -0.1713035 0
vn -0.9852183 -0.1713035 0
vn -0.853224 -0.1713035 -0.4926092
vn -0.853224 -0.1713035 -0.4926092
vn -0.4926092 -0.1713035 -0.853224
vn -0.4926092 -0.1713035 -0.853224
vn 0 -0.1713035 -0.9852183
vn 0 -0.1713035 -0.9852183
vn 0.4926092 -0.1713035 -0.853224
vn 0.4926092 -0.1713035 -0.853224
vn 0 -1 0
vn 0 -1 0
vn 0 -1 0
vn 0 -1 0
vn 0 -1 0
vn 0 -1 0
vn 0 -1 0
vn 0 -1 0
vn 0 -1 0
vn 0 -1 0
vn 0 -1 0
vn 0 -1 0
vn 0 -1 0
vn 0 1 0
vn 0 1 0
vn 0 1 0
vn 0 1 0
vn 0 1 0
vn 0 1 0
vn 0 1 0
vn 0 1 0
vn 0 1 0
vn 0 1 0
vn 0 1 0
vn 0 1 0
vn 0 1 0
g icon_bottle__cork_3_0
f 3/3/3 2/2/2 1/1/1
f 2/2/2 4/4/4 1/1/1
f 2/2/2 5/5/5 4/4/4
f 5/5/5 6/6/6 4/4/4
f 5/5/5 7/7/7 6/6/6
f 7/7/7 8/8/8 6/6/6
f 7/7/7 9/9/9 8/8/8
f 9/9/9 10/10/10 8/8/8
f 9/9/9 11/11/11 10/10/10
f 11/11/11 12/12/12 10/10/10
f 11/11/11 13/13/13 12/12/12
f 13/13/13 14/14/14 12/12/12
f 13/13/13 15/15/15 14/14/14
f 15/15/15 16/16/16 14/14/14
f 15/15/15 17/17/17 16/16/16
f 17/17/17 18/18/18 16/16/16
f 17/17/17 19/19/19 18/18/18
f 19/19/19 20/20/20 18/18/18
f 19/19/19 21/21/21 20/20/20
f 21/21/21 22/22/22 20/20/20
f 21/21/21 23/23/23 22/22/22
f 23/23/23 24/24/24 22/22/22
f 23/23/23 25/25/25 24/24/24
f 25/25/25 26/26/26 24/24/24
f 29/29/29 28/28/28 27/27/27
f 27/27/27 28/28/28 30/30/30
f 31/31/31 28/28/28 29/29/29
f 30/30/30 28/28/28 32/32/32
f 33/33/33 28/28/28 31/31/31
f 32/32/32 28/28/28 34/34/34
f 35/35/35 28/28/28 33/33/33
f 34/34/34 28/28/28 36/36/36
f 37/37/37 28/28/28 35/35/35
f 36/36/36 28/28/28 38/38/38
f 39/39/39 28/28/28 37/37/37
f 38/38/38 28/28/28 39/39/39
f 42/42/42 41/41/41 40/40/40
f 42/42/42 40/40/40 43/43/43
f 42/42/42 44/44/44 41/41/41
f 42/42/42 43/43/43 45/45/45
f 42/42/42 46/46/46 44/44/44
f 42/42/42 45/45/45 47/47/47
f 42/42/42 48/48/48 46/46/46
f 42/42/42 47/47/47 49/49/49
f 42/42/42 50/50/50 48/48/48
f 42/42/42 49/49/49 51/51/51
f 42/42/42 52/52/52 50/50/50
f 42/42/42 51/51/51 52/52/52
