g Island_Color_09
v 21.7318 -3.090911 3.806045
v 23.76882 -5.06183 -2.153398E-06
v 16.12357 -5.422348 5.867031E-06
v 13.52542 -4.474877 3.806054
v 18.75875 -0.4429217 6.787442
v 13.6789 -8.599255 9.146925E-06
v 12.42897 -4.422778 6.787448
v 17.18113 0.2984333 7.410093
v 10.11642 -4.613625 7.410101
v 10.98786 -6.857749 6.787451
v 11.62071 -7.552584 3.806057
v 6.165024 -13.99228 6.787456
v 4.86068 -12.8291 7.410109
v 10.4777 -15.78236 3.806058
v 13.51391 -17.97268 9.320011E-06
v 6.298222 -22.80844 1.712822E-05
v 4.149747 -20.68797 3.806065
v 0.6800938 -17.73421 6.787463
v -0.8402256 -15.23862 7.410115
v 18.75875 -0.4429217 6.787442
v 17.18113 0.2984333 7.410093
v 18.48181 6.166615 7.410091
v 20.6126 6.21326 6.78744
v 21.7318 -3.090911 3.806045
v 12.66291 13.83663 7.4101
v 23.63541 7.075095 3.806042
v 23.76882 -5.06183 -2.153398E-06
v 26.83756 8.022061 -5.372731E-06
v 17.02349 19.63875 4.684529E-06
v 13.31811 15.30408 6.787448
v 2.078281 18.04086 7.41011
v 2.070966 19.6454 6.787458
v 15.21585 17.99825 3.806051
v 1.107887 24.98239 2.087597E-05
v 2.161624 22.09451 3.806066
v 12.66291 13.83663 7.4101
v 2.299125 16.0101 8.063807
v 2.078281 18.04086 7.41011
v 11.7828 11.79164 8.063798
v 18.48181 6.166615 7.410091
v -4.033096 5.205475 8.063814
v 14.93058 5.956553 8.063796
v 17.18113 0.2984333 7.410093
v 2.083924 2.95515 8.063807
v -4.907642 -0.3299915 8.063816
v 14.72994 1.520918 8.063797
v 10.11642 -4.613625 7.410101
v 3.939704 -0.9072925 8.063808
v -3.503702 -6.365382 8.063814
v 8.134762 -2.975434 8.063801
v 4.86068 -12.8291 7.410109
v 3.057867 -11.24509 8.063808
v -2.897439 -12.62787 8.063813
v -0.8402256 -15.23862 7.410115
v 4.149747 -20.68797 3.806065
v 6.298222 -22.80844 1.712822E-05
v -9.864772 -24.54893 3.408438E-05
v -9.492109 -21.90937 3.806077
v -21.93386 -16.09451 4.722257E-05
v -8.458607 -18.83785 6.787472
v 0.6800938 -17.73421 6.787463
v -20.09892 -15.09278 3.806089
v -21.84556 -3.890033 4.5461E-05
v -19.5347 -3.712935 3.806088
v -16.95194 -3.552693 6.787479
v -18.56182 -12.8587 6.787482
v -15.4823 -3.4993 7.410128
v -17.09911 -11.8222 7.410131
v -7.836005 -16.62645 7.410119
v -0.8402256 -15.23862 7.410115
v -16.95194 -3.552693 6.787479
v -17.30656 4.20207 7.41013
v -15.4823 -3.4993 7.410128
v -19.61098 4.698535 6.787482
v -19.5347 -3.712935 3.806088
v -17.28961 10.65356 6.787479
v -14.41207 9.434403 7.410126
v -23.36503 4.324471 3.806091
v -21.84556 -3.890033 4.5461E-05
v -26.8375 3.710201 4.974424E-05
v -22.79877 13.43472 4.421215E-05
v -20.53282 12.1891 3.806086
v -12.02085 18.27677 3.806082
v -10.16338 16.27787 6.787473
v -8.373775 13.94984 7.41012
v 2.078281 18.04086 7.41011
v 2.070966 19.6454 6.787458
v 2.161624 22.09451 3.806066
v 1.107887 24.98239 2.087597E-05
v -13.85079 20.31423 3.929498E-05
v -26.8375 3.710201 4.974424E-05
v -29.19325 17.66403 -18.04606
v -13.85079 20.31423 3.929498E-05
v -35.16337 5.406226 -18.04605
v -21.84556 -3.890033 4.5461E-05
v -28.72251 -4.399977 -18.04606
v -18.40728 26.82957 -18.04607
v 0.8931514 32.85267 -18.04609
v 1.107887 24.98239 2.087597E-05
v -8.373775 13.94984 7.41012
v 2.078281 18.04086 7.41011
v 2.299125 16.0101 8.063807
v -7.641475 11.6155 8.063817
v -14.41207 9.434403 7.410126
v -4.033096 5.205475 8.063814
v -11.47417 8.110257 8.063821
v -8.839286 7.037982 8.063818
v -15.17851 3.360333 8.063828
v -17.30656 4.20207 7.41013
v -15.4823 -3.4993 7.410128
v -10.42656 0.9721141 8.06382
v -4.907642 -0.3299915 8.063816
v -12.04204 -2.763975 8.063823
v -17.09911 -11.8222 7.410131
v -8.883284 -4.976906 8.063819
v -3.503702 -6.365382 8.063814
v -15.03513 -10.29832 8.063826
v -7.836005 -16.62645 7.410119
v -6.956554 -14.52472 8.063817
v -2.897439 -12.62787 8.063813
v -0.8402256 -15.23862 7.410115
v 26.83756 8.022061 -5.372731E-06
v 30.13144 -5.911889 -18.04612
v 23.76882 -5.06183 -2.153398E-06
v 34.09087 10.9696 -18.04613
v 17.02349 19.63875 4.684529E-06
v 21.42828 25.95803 -18.04611
v 1.107887 24.98239 2.087597E-05
v 0.8931514 32.85267 -18.04609
v 13.51391 -17.97268 9.320011E-06
v 7.589985 -28.80945 -18.0461
v 6.298222 -22.80844 1.712822E-05
v 16.90004 -22.57012 -18.0461
v 13.6789 -8.599255 9.146925E-06
v 17.11291 -10.47605 -18.0461
v 16.12357 -5.422348 5.867031E-06
v 20.26714 -6.377047 -18.04611
v 23.76882 -5.06183 -2.153398E-06
v 30.13144 -5.911889 -18.04612
v 6.298222 -22.80844 1.712822E-05
v 7.589985 -28.80945 -18.0461
v -13.26432 -31.05511 -18.04608
v -9.864772 -24.54893 3.408438E-05
v -28.83646 -20.14681 -18.04606
v -21.93386 -16.09451 4.722257E-05
v -28.72251 -4.399977 -18.04606
v -21.84556 -3.890033 4.5461E-05
vt 1 0.3185106
vt 1 0.2166558
vt 0.7819083 0.2166558
vt 0.7613701 0.3185106
vt 1 0.4171273
vt 0.6106445 0.2166558
vt 0.7222883 0.4171273
vt 1 0.482982
vt 0.6697115 0.482982
vt 0.6250237 0.4171506
vt 0.6105826 0.3185106
vt 0.3302887 0.4173039
vt 0.3302887 0.482982
vt 0.3302887 0.3185106
vt 0.3302887 0.2166558
vt -3.72529E-09 0.2166558
vt -3.72529E-09 0.3185106
vt -3.72529E-09 0.4173039
vt -3.72529E-09 0.482982
vt -3.72529E-09 0.4171273
vt -3.72529E-09 0.482982
vt 0.3302887 0.482982
vt 0.3302887 0.4171273
vt -3.72529E-09 0.3185106
vt 0.6697115 0.482982
vt 0.3302887 0.3185106
vt -3.72529E-09 0.2166558
vt 0.3302887 0.2166558
vt 0.6697115 0.2166558
vt 0.6697115 0.4173039
vt 1 0.482982
vt 1 0.4173039
vt 0.6697115 0.3185106
vt 1 0.2166558
vt 1 0.3185106
vt 0.0756493 0.7480484
vt 0.1227652 0.5030488
vt 0.009999991 0.5030499
vt 0.1733063 0.6916652
vt 0.2550019 0.927399
vt 0.3194109 0.5030473
vt 0.311384 0.8297412
vt 0.5000008 0.9930451
vt 0.4057775 0.691663
vt 0.4999999 0.5030463
vt 0.5000005 0.8802799
vt 0.7449998 0.9273976
vt 0.5939649 0.6916624
vt 0.6805892 0.5030463
vt 0.6886171 0.8297402
vt 0.9243515 0.7480464
vt 0.8266944 0.6916635
vt 0.8772349 0.5030472
vt 0.99 0.5030478
vt 1 0.3185106
vt 1 0.2166558
vt 0.6697113 0.2166558
vt 0.6697113 0.3185106
vt 0.3302885 0.2166558
vt 0.6697113 0.4173039
vt 1 0.4173039
vt 0.3302885 0.3185106
vt 0 0.2166558
vt 0 0.3185106
vt 0 0.4171273
vt 0.3302885 0.4171273
vt 0 0.482982
vt 0.3302885 0.482982
vt 0.6697113 0.482982
vt 1 0.482982
vt 1 0.4171273
vt 0.6697113 0.482982
vt 1 0.482982
vt 0.6697113 0.4171273
vt 1 0.3185106
vt 0.5119381 0.4172094
vt 0.5115336 0.482982
vt 0.6697113 0.3185106
vt 1 0.2166558
vt 0.6697113 0.2166558
vt 0.4999999 0.2166558
vt 0.4939537 0.3185106
vt 0.3302885 0.3185106
vt 0.3302885 0.4173039
vt 0.3302885 0.482982
vt 0 0.482982
vt 0 0.4173039
vt 0 0.3185106
vt 0 0.2166558
vt 0.3302885 0.2166558
vt 0.6697113 0.2166558
vt 0.4999999 0.1970161
vt 0.3302885 0.2166558
vt 0.6697113 0.1970161
vt 1 0.2166558
vt 1 0.1970161
vt 0.3302885 0.1970161
vt 0 0.1970161
vt 0 0.2166558
vt 0.9243507 0.7480484
vt 0.99 0.5030499
vt 0.8772348 0.5030488
vt 0.8266937 0.6916652
vt 0.8285799 0.8438181
vt 0.6805891 0.5030473
vt 0.7642334 0.7541247
vt 0.7267122 0.6916642
vt 0.688616 0.8297412
vt 0.7449981 0.927399
vt 0.4999992 0.9930451
vt 0.5942225 0.691663
vt 0.5000001 0.5030463
vt 0.4999995 0.8802799
vt 0.2550002 0.9273976
vt 0.4060351 0.6916624
vt 0.3194108 0.5030463
vt 0.3113829 0.8297402
vt 0.07564855 0.7480464
vt 0.1733056 0.6916635
vt 0.1227651 0.5030472
vt 0.00999999 0.5030478
vt 0.3302887 0.2166558
vt -3.72529E-09 0.1970161
vt -3.72529E-09 0.2166558
vt 0.3302887 0.1970161
vt 0.6697115 0.2166558
vt 0.6697115 0.1970161
vt 1 0.2166558
vt 1 0.1970161
vt 0.3302887 0.2166558
vt -3.72529E-09 0.1970161
vt -3.72529E-09 0.2166558
vt 0.3302887 0.1970161
vt 0.6106445 0.2166558
vt 0.6106445 0.1970161
vt 0.7819083 0.2166558
vt 0.7819083 0.1970161
vt 1 0.2166558
vt 1 0.1970161
vt 1 0.2166558
vt 1 0.1970161
vt 0.6697113 0.1970161
vt 0.6697113 0.2166558
vt 0.3302885 0.1970161
vt 0.3302885 0.2166558
vt 0 0.1970161
vt 0 0.2166558
vn 0.5273893 -0.579866 0.6209797
vn 0.267853 -0.390718 0.8806782
vn 0.2291022 -0.5523536 0.8015097
vn 0.5216911 -0.6937026 0.4966036
vn 0.4365711 -0.3804214 0.8152823
vn 0.4698434 -0.2592573 0.8438203
vn 0.4439636 -0.4912784 0.749361
vn 0.2374108 -0.1855061 0.9535322
vn 0.2173398 -0.1904355 0.9573389
vn 0.5579545 -0.3038917 0.7722283
vn 0.7679421 -0.3362037 0.5451899
vn 0.3670125 -0.3132554 0.875884
vn 0.1773569 -0.1950997 0.9646142
vn 0.6224614 -0.3569857 0.6964933
vn 0.3326651 -0.296053 0.8953695
vn 0.1830143 -0.4751197 0.8606783
vn 0.2485337 -0.6754466 0.6942644
vn 0.1416723 -0.460231 0.8764225
vn 0.07568416 -0.2401204 0.9677883
vn 0.4365711 -0.3804214 0.8152823
vn 0.2374108 -0.1855061 0.9535322
vn 0.2681069 0.07381056 0.9605575
vn 0.5249816 0.1089867 0.8441067
vn 0.5273893 -0.579866 0.6209797
vn 0.1968077 0.2593368 0.9455216
vn 0.7166052 0.1667955 0.6772416
vn 0.267853 -0.390718 0.8806782
vn 0.3997479 -0.03682802 0.915885
vn 0.2973146 0.2424466 0.9234845
vn 0.3247114 0.4642352 0.8240438
vn 0.0135292 0.2955591 0.9552287
vn 0.02042356 0.5778829 0.8158641
vn 0.4314401 0.6444312 0.6313223
vn 0.02521246 0.3208628 0.94679
vn 0.03851648 0.7903202 0.6114822
vn 0.1968077 0.2593368 0.9455216
vn 0.007158109 0.1756774 0.9844217
vn 0.0135292 0.2955591 0.9552287
vn 0.1063721 0.1225709 0.9867429
vn 0.2681069 0.07381056 0.9605575
vn 0 0 1
vn 0.1243706 0.03732106 0.9915337
vn 0.2374108 -0.1855061 0.9535322
vn 0 0 1
vn 0 0 1
vn 0.1151844 -0.08074234 0.9900572
vn 0.2173398 -0.1904355 0.9573389
vn 0 0 1
vn 0 0 1
vn 0.08062562 -0.07576738 0.9938606
vn 0.1773569 -0.1950997 0.9646142
vn 0.08742611 -0.1195644 0.9889697
vn 0.03518507 -0.1143761 0.9928142
vn 0.07568416 -0.2401204 0.9677883
vn 0.2485337 -0.6754466 0.6942644
vn 0.1830143 -0.4751197 0.8606783
vn -0.06523891 -0.5251679 0.8484943
vn -0.1988308 -0.7536592 0.6264696
vn -0.3366799 -0.3208104 0.8852838
vn -0.1136124 -0.5119051 0.851496
vn 0.1416723 -0.460231 0.8764225
vn -0.6981667 -0.382076 0.6054595
vn -0.4476274 -0.2334447 0.8632109
vn -0.7876275 -0.1366293 0.6008123
vn -0.5565419 -0.04425985 0.8296398
vn -0.5668651 -0.1966641 0.7999919
vn -0.3005865 -0.0008391099 0.9537542
vn -0.2632447 -0.09553818 0.9599869
vn -0.04820661 -0.2544493 0.9658839
vn 0.07568416 -0.2401204 0.9677883
vn -0.5565419 -0.04425985 0.8296398
vn -0.2447205 0.01607564 0.9694604
vn -0.3005865 -0.0008391099 0.9537542
vn -0.4996212 0.004670076 0.8662314
vn -0.7876275 -0.1366293 0.6008123
vn -0.3839787 0.3040298 0.8718521
vn -0.1691357 0.1455112 0.9747921
vn -0.7290284 -0.03366803 0.683655
vn -0.4476274 -0.2334447 0.8632109
vn -0.3367253 -0.1641464 0.927185
vn -0.6915661 0.5285516 0.4923106
vn -0.5962638 0.4542068 0.6619409
vn -0.344505 0.7000162 0.6255347
vn -0.229736 0.4909694 0.8403394
vn -0.1174052 0.2264839 0.9669132
vn 0.0135292 0.2955591 0.9552287
vn 0.02042356 0.5778829 0.8158641
vn 0.03851648 0.7903202 0.6114822
vn 0.02521246 0.3208628 0.94679
vn -0.1832962 0.2914883 0.9388489
vn -0.5180801 -0.1894286 0.8340923
vn -0.7258146 0.5562016 0.4047627
vn -0.246234 0.4038935 0.8810442
vn -0.9127421 -0.04252539 0.4063171
vn -0.484895 -0.275856 0.8299279
vn -0.8946741 -0.2790681 0.3488257
vn -0.4389546 0.8074371 0.3941627
vn 0.00737175 0.9166283 0.3996727
vn 0.04349198 0.4721647 0.8804368
vn -0.1174052 0.2264839 0.9669132
vn 0.0135292 0.2955591 0.9552287
vn 0.007158109 0.1756774 0.9844217
vn -0.07546677 0.1230916 0.9895217
vn -0.1691357 0.1455112 0.9747921
vn 0 0 1
vn -0.09094192 0.08802302 0.9919585
vn 0 0 1
vn -0.1467938 0.006957273 0.9891426
vn -0.2447205 0.01607564 0.9694604
vn -0.3005865 -0.0008391099 0.9537542
vn 0 0 1
vn 0 0 1
vn -0.08945524 -0.005283532 0.9959769
vn -0.2632447 -0.09553818 0.9599869
vn 0 0 1
vn 0 0 1
vn -0.149184 -0.0486549 0.9876117
vn -0.04820661 -0.2544493 0.9658839
vn -0.005628329 -0.1606864 0.9869894
vn 0.03518507 -0.1143761 0.9928142
vn 0.07568416 -0.2401204 0.9677883
vn 0.5736415 -0.002068093 0.819104
vn 0.6707749 -0.6911373 0.2690544
vn 0.3366849 -0.5759537 0.74493
vn 0.890108 0.2274802 0.3949181
vn 0.3649234 0.3627013 0.857484
vn 0.5173124 0.7604511 0.3925585
vn 0.04349198 0.4721647 0.8804368
vn 0.00737175 0.9166283 0.3996727
vn 0.5414857 -0.3719701 0.7539439
vn 0.3183219 -0.8924931 0.3195735
vn 0.223655 -0.6314881 0.7424293
vn 0.8271267 -0.4876282 0.2794281
vn 0.5754024 -0.3226337 0.7515448
vn 0.9253443 -0.3163293 0.2089826
vn 0.3155841 -0.6134347 0.7239506
vn 0.4137492 -0.8991582 0.1425695
vn 0.3366849 -0.5759537 0.74493
vn 0.6707749 -0.6911373 0.2690544
vn 0.223655 -0.6314881 0.7424293
vn 0.3183219 -0.8924931 0.3195735
vn -0.2469972 -0.8958045 0.3694952
vn -0.09128839 -0.6376401 0.7649062
vn -0.8102065 -0.4236829 0.4050412
vn -0.4517312 -0.3634793 0.8147526
vn -0.8946741 -0.2790681 0.3488257
vn -0.484895 -0.275856 0.8299279
g Island_Color_09_0
f 3/3/3 2/2/2 1/1/1
f 4/4/4 3/3/3 1/1/1
f 1/1/1 5/5/5 4/4/4
f 6/6/6 3/3/3 4/4/4
f 5/5/5 7/7/7 4/4/4
f 5/5/5 8/8/8 7/7/7
f 8/8/8 9/9/9 7/7/7
f 7/7/7 10/10/10 4/4/4
f 7/7/7 9/9/9 10/10/10
f 11/11/11 6/6/6 4/4/4
f 10/10/10 11/11/11 4/4/4
f 10/10/10 9/9/9 12/12/12
f 10/10/10 12/12/12 11/11/11
f 9/9/9 13/13/13 12/12/12
f 11/11/11 14/14/14 6/6/6
f 12/12/12 14/14/14 11/11/11
f 14/14/14 15/15/15 6/6/6
f 16/16/16 15/15/15 14/14/14
f 17/17/17 16/16/16 14/14/14
f 14/14/14 12/12/12 17/17/17
f 12/12/12 18/18/18 17/17/17
f 12/12/12 13/13/13 18/18/18
f 13/13/13 19/19/19 18/18/18
f 22/22/22 21/21/21 20/20/20
f 23/23/23 22/22/22 20/20/20
f 23/23/23 20/20/20 24/24/24
f 25/25/25 22/22/22 23/23/23
f 26/26/26 23/23/23 24/24/24
f 24/24/24 27/27/27 26/26/26
f 27/27/27 28/28/28 26/26/26
f 26/26/26 28/28/28 29/29/29
f 30/30/30 25/25/25 23/23/23
f 30/30/30 23/23/23 26/26/26
f 31/31/31 25/25/25 30/30/30
f 32/32/32 31/31/31 30/30/30
f 33/33/33 26/26/26 29/29/29
f 33/33/33 30/30/30 26/26/26
f 32/32/32 30/30/30 33/33/33
f 33/33/33 29/29/29 34/34/34
f 35/35/35 32/32/32 33/33/33
f 35/35/35 33/33/33 34/34/34
f 38/38/38 37/37/37 36/36/36
f 37/37/37 39/39/39 36/36/36
f 36/36/36 39/39/39 40/40/40
f 37/37/37 41/41/41 39/39/39
f 39/39/39 42/42/42 40/40/40
f 40/40/40 42/42/42 43/43/43
f 41/41/41 44/44/44 39/39/39
f 39/39/39 44/44/44 42/42/42
f 44/44/44 41/41/41 45/45/45
f 42/42/42 46/46/46 43/43/43
f 42/42/42 44/44/44 46/46/46
f 43/43/43 46/46/46 47/47/47
f 48/48/48 44/44/44 45/45/45
f 44/44/44 48/48/48 46/46/46
f 49/49/49 48/48/48 45/45/45
f 46/46/46 50/50/50 47/47/47
f 46/46/46 48/48/48 50/50/50
f 47/47/47 50/50/50 51/51/51
f 48/48/48 49/49/49 52/52/52
f 50/50/50 48/48/48 52/52/52
f 50/50/50 52/52/52 51/51/51
f 52/52/52 49/49/49 53/53/53
f 51/51/51 52/52/52 54/54/54
f 52/52/52 53/53/53 54/54/54
f 57/57/57 56/56/56 55/55/55
f 58/58/58 57/57/57 55/55/55
f 59/59/59 57/57/57 58/58/58
f 60/60/60 58/58/58 55/55/55
f 61/61/61 60/60/60 55/55/55
f 62/62/62 59/59/59 58/58/58
f 63/63/63 59/59/59 62/62/62
f 64/64/64 63/63/63 62/62/62
f 65/65/65 64/64/64 62/62/62
f 66/66/66 62/62/62 58/58/58
f 66/66/66 65/65/65 62/62/62
f 60/60/60 66/66/66 58/58/58
f 67/67/67 65/65/65 66/66/66
f 68/68/68 67/67/67 66/66/66
f 68/68/68 66/66/66 60/60/60
f 69/69/69 68/68/68 60/60/60
f 69/69/69 60/60/60 61/61/61
f 70/70/70 69/69/69 61/61/61
f 73/73/73 72/72/72 71/71/71
f 72/72/72 74/74/74 71/71/71
f 71/71/71 74/74/74 75/75/75
f 76/76/76 74/74/74 72/72/72
f 77/77/77 76/76/76 72/72/72
f 74/74/74 78/78/78 75/75/75
f 75/75/75 78/78/78 79/79/79
f 78/78/78 80/80/80 79/79/79
f 81/81/81 80/80/80 78/78/78
f 82/82/82 78/78/78 74/74/74
f 76/76/76 82/82/82 74/74/74
f 82/82/82 81/81/81 78/78/78
f 83/83/83 82/82/82 76/76/76
f 81/81/81 82/82/82 83/83/83
f 84/84/84 76/76/76 77/77/77
f 84/84/84 83/83/83 76/76/76
f 85/85/85 84/84/84 77/77/77
f 85/85/85 86/86/86 84/84/84
f 86/86/86 87/87/87 84/84/84
f 84/84/84 87/87/87 83/83/83
f 87/87/87 88/88/88 83/83/83
f 88/88/88 89/89/89 83/83/83
f 89/89/89 90/90/90 83/83/83
f 90/90/90 81/81/81 83/83/83
f 81/81/81 92/92/92 91/91/91
f 92/92/92 81/81/81 93/93/93
f 92/92/92 94/94/94 91/91/91
f 91/91/91 94/94/94 95/95/95
f 94/94/94 96/96/96 95/95/95
f 97/97/97 92/92/92 93/93/93
f 98/98/98 97/97/97 93/93/93
f 99/99/99 98/98/98 93/93/93
f 102/102/102 101/101/101 100/100/100
f 103/103/103 102/102/102 100/100/100
f 100/100/100 104/104/104 103/103/103
f 105/105/105 102/102/102 103/103/103
f 104/104/104 106/106/106 103/103/103
f 103/103/103 107/107/107 105/105/105
f 103/103/103 106/106/106 107/107/107
f 106/106/106 104/104/104 108/108/108
f 107/107/107 106/106/106 108/108/108
f 104/104/104 109/109/109 108/108/108
f 108/108/108 109/109/109 110/110/110
f 111/111/111 105/105/105 107/107/107
f 111/111/111 107/107/107 108/108/108
f 105/105/105 111/111/111 112/112/112
f 113/113/113 108/108/108 110/110/110
f 111/111/111 108/108/108 113/113/113
f 113/113/113 110/110/110 114/114/114
f 111/111/111 115/115/115 112/112/112
f 115/115/115 111/111/111 113/113/113
f 115/115/115 116/116/116 112/112/112
f 117/117/117 113/113/113 114/114/114
f 115/115/115 113/113/113 117/117/117
f 117/117/117 114/114/114 118/118/118
f 116/116/116 115/115/115 119/119/119
f 115/115/115 117/117/117 119/119/119
f 119/119/119 117/117/117 118/118/118
f 116/116/116 119/119/119 120/120/120
f 119/119/119 118/118/118 121/121/121
f 120/120/120 119/119/119 121/121/121
f 124/124/124 123/123/123 122/122/122
f 123/123/123 125/125/125 122/122/122
f 122/122/122 125/125/125 126/126/126
f 125/125/125 127/127/127 126/126/126
f 126/126/126 127/127/127 128/128/128
f 127/127/127 129/129/129 128/128/128
f 132/132/132 131/131/131 130/130/130
f 131/131/131 133/133/133 130/130/130
f 130/130/130 133/133/133 134/134/134
f 133/133/133 135/135/135 134/134/134
f 134/134/134 135/135/135 136/136/136
f 135/135/135 137/137/137 136/136/136
f 136/136/136 137/137/137 138/138/138
f 137/137/137 139/139/139 138/138/138
f 142/142/142 141/141/141 140/140/140
f 143/143/143 142/142/142 140/140/140
f 144/144/144 142/142/142 143/143/143
f 145/145/145 144/144/144 143/143/143
f 146/146/146 144/144/144 145/145/145
f 147/147/147 146/146/146 145/145/145
