g Island_Color_05
v -3.131047 -4.83939 5.361716
v -2.112998 -3.60321 6.15691
v -0.1564112 -3.9734 6.449465
v -0.2969124 -5.55996 5.916347
v -3.885003 -5.210776 2.031087E-06
v 1.801434 -3.312195 7.070424
v -0.8394604 -6.938316 2.85634E-06
v -6.281576 -8.27546 -18.04611
v -1.49753 -10.98912 -18.04611
v 2.409981 -4.044317 6.43881
v 3.922373 -1.032411 7.641443
v 5.315969 -1.261985 7.077738
v 2.557106 -5.893797 1.913194E-06
v 3.837849 -9.348368 -18.04611
v 5.338675 -3.691137 2.50266E-06
v 8.207232 -5.888372 -18.04611
v -0.9516096 1.995295 7.276596
v -0.05560303 1.238508 7.699763
v -0.5572973 0.3787335 7.381387
v -1.696649 0.6350132 6.902294
v -2.066645 2.482698 1.7953E-06
v -2.833584 -1.857602 6.503838
v -3.186298 0.6322426 1.7953E-06
v -3.425251 3.809641 -18.04611
v -5.184041 0.9028999 -18.04611
v -4.439472 -1.805464 5.762324
v -2.112998 -3.60321 6.15691
v -3.131047 -4.83939 5.361716
v -5.661114 -1.13503 2.620553E-06
v -9.071507 -1.873175 -18.04611
v -3.885003 -5.210776 2.031087E-06
v -6.281576 -8.27546 -18.04611
v -0.05560303 1.238508 7.699763
v 1.400823 -0.1622196 7.400334
v -0.5572973 0.3787335 7.381387
v -2.833584 -1.857602 6.503838
v -2.112998 -3.60321 6.15691
v -0.1564112 -3.9734 6.449465
v 1.801434 -3.312195 7.070424
v 3.922373 -1.032411 7.641443
v 3.388303 5.652849 8.464217
v 4.132745 3.523113 8.444598
v 2.763816 4.626575 8.876991
v 5.082015 4.133246 8.190861
v 4.738772 1.812539 8.044345
v 4.007793 6.663643 2.266873E-06
v 5.661062 1.684052 7.520277
v 3.922373 -1.032411 7.641443
v 5.315969 -1.261985 7.077738
v 5.378458 3.159907 2.031087E-06
v 5.379872 0.4356512 2.031087E-06
v 5.338675 -3.691137 2.50266E-06
v 8.207232 -5.888372 -18.04611
v 8.271949 0.5940908 -18.04611
v 8.269695 4.87342 -18.04611
v 6.116619 10.37717 -18.04611
v -0.9516096 1.995295 7.276596
v 0.03396934 3.538583 8.572467
v -0.05560303 1.238508 7.699763
v -0.9071854 4.16073 7.475274
v 1.53904 4.921067 8.915937
v -2.066645 2.482698 1.7953E-06
v 0.446522 5.667909 8.246494
v 2.763816 4.626575 8.876991
v 3.388303 5.652849 8.464217
v -2.623901 4.453783 2.031087E-06
v -0.6385642 6.938317 2.620553E-06
v 4.007793 6.663643 2.266873E-06
v 6.116619 10.37717 -18.04611
v -1.181955 10.80864 -18.04611
v -4.300595 6.905871 -18.04611
v -3.425251 3.809641 -18.04611
v -0.05560303 1.238508 7.699763
v 0.03396934 3.538583 8.572467
v 1.400823 -0.1622196 7.400334
v 1.53904 4.921067 8.915937
v 2.763816 4.626575 8.876991
v 4.132745 3.523113 8.444598
v 4.738772 1.812539 8.044345
v 3.922373 -1.032411 7.641443
vt -3.72529E-09 0.4171273
vt -3.72529E-09 0.482982
vt 0.3302887 0.482982
vt 0.3302887 0.4171273
vt -3.72529E-09 0.2166558
vt 0.6697115 0.482982
vt 0.3302887 0.2166558
vt -3.72529E-09 0.1970161
vt 0.3302887 0.1970161
vt 0.6697115 0.4173039
vt 1 0.482982
vt 1 0.4173039
vt 0.6697115 0.2166558
vt 0.6697115 0.1970161
vt 1 0.2166558
vt 1 0.1970161
vt -3.72529E-09 0.4173039
vt -3.72529E-09 0.482982
vt 0.3302887 0.482982
vt 0.3302887 0.4173039
vt -3.72529E-09 0.2166558
vt 0.6697115 0.482982
vt 0.3302887 0.2166558
vt -3.72529E-09 0.1970161
vt 0.3302887 0.1970161
vt 0.6697115 0.4171273
vt 1 0.482982
vt 1 0.4171273
vt 0.6697115 0.2166558
vt 0.6697115 0.1970161
vt 1 0.2166558
vt 1 0.1970161
vt 0.99 0.5030478
vt 0.4999999 0.5030463
vt 0.9243515 0.7480464
vt 0.7449998 0.9273976
vt 0.5000008 0.9930451
vt 0.2550019 0.927399
vt 0.0756493 0.7480484
vt 0.009999991 0.5030499
vt 1 0.4171273
vt 0.6697113 0.482982
vt 1 0.482982
vt 0.6697113 0.4171273
vt 0.3302885 0.482982
vt 1 0.2166558
vt 0.3302885 0.4173039
vt 0 0.482982
vt 0 0.4173039
vt 0.6697113 0.2166558
vt 0.3302885 0.2166558
vt 0 0.2166558
vt 0 0.1970161
vt 0.3302885 0.1970161
vt 0.6697113 0.1970161
vt 1 0.1970161
vt 1 0.4173039
vt 0.6697113 0.482982
vt 1 0.482982
vt 0.6697113 0.4173039
vt 0.3302885 0.482982
vt 1 0.2166558
vt 0.3302885 0.4171273
vt 0 0.482982
vt 0 0.4171273
vt 0.6697113 0.2166558
vt 0.3302885 0.2166558
vt 0 0.2166558
vt 0 0.1970161
vt 0.3302885 0.1970161
vt 0.6697113 0.1970161
vt 1 0.1970161
vt 0.00999999 0.5030478
vt 0.07564855 0.7480464
vt 0.5000001 0.5030463
vt 0.2550002 0.9273976
vt 0.4999992 0.9930451
vt 0.7449981 0.927399
vt 0.9243507 0.7480484
vt 0.99 0.5030499
vn -0.5939698 -0.6170946 0.5161338
vn -0.2534906 -0.2807656 0.9256961
vn -0.1505694 -0.3020328 0.9413315
vn -0.04105401 -0.8021862 0.5956609
vn -0.7178194 -0.6687155 0.1937913
vn -0.01855191 -0.3296006 0.9439382
vn -0.07014124 -0.9727341 0.2210624
vn -0.722444 -0.6594241 0.2079289
vn -0.1085199 -0.9691051 0.2214921
vn 0.3673483 -0.7129219 0.5973253
vn 0.1325526 -0.263072 0.9556271
vn 0.7649471 -0.3781005 0.5214366
vn 0.4735886 -0.853624 0.2168871
vn 0.4535708 -0.8688307 0.1985108
vn 0.8702587 -0.4607182 0.174323
vn 0.876864 -0.440299 0.192993
vn -0.8193794 0.006927236 0.5732098
vn -0.3138819 -0.2327654 0.9204881
vn -0.2460199 -0.168578 0.9544924
vn -0.6775755 0.3183404 0.6629862
vn -0.9768487 0.163046 0.138501
vn -0.3069679 -0.1572232 0.9386435
vn -0.7449977 0.6530866 0.1358542
vn -0.9896151 0.1172682 0.08312627
vn -0.7247679 0.6830267 0.09047711
vn -0.8268206 0.1081064 0.5519788
vn -0.2534906 -0.2807656 0.9256961
vn -0.5939698 -0.6170946 0.5161338
vn -0.9453787 0.2699202 0.1827625
vn -0.9574937 0.2319629 0.1714618
vn -0.7178194 -0.6687155 0.1937913
vn -0.722444 -0.6594241 0.2079289
vn -0.3138819 -0.2327654 0.9204881
vn -0.1079996 -0.213485 0.9709584
vn -0.2460199 -0.168578 0.9544924
vn -0.3069679 -0.1572232 0.9386435
vn -0.2534906 -0.2807656 0.9256961
vn -0.1505694 -0.3020328 0.9413315
vn -0.01855191 -0.3296006 0.9439382
vn 0.1325526 -0.263072 0.9556271
vn 0.4029938 0.6970965 0.5930029
vn 0.2185546 -0.1244962 0.9678505
vn 0.08592904 0.06113179 0.994424
vn 0.8044917 0.2293274 0.5479069
vn 0.2153051 -0.1804907 0.9597223
vn 0.5444983 0.82143 0.1696301
vn 0.8661424 -0.06462459 0.4956016
vn 0.1325526 -0.263072 0.9556271
vn 0.7649471 -0.3781005 0.5214366
vn 0.9656682 0.2418513 0.09483136
vn 0.997148 0.008081461 0.07503703
vn 0.8702587 -0.4607182 0.174323
vn 0.876864 -0.440299 0.192993
vn 0.9873963 -0.004638923 0.1581994
vn 0.9664945 0.1897541 0.1728636
vn 0.5660142 0.7919211 0.2291047
vn -0.8193794 0.006927236 0.5732098
vn -0.3963332 -0.09669728 0.9130003
vn -0.3138819 -0.2327654 0.9204881
vn -0.8550068 0.2124587 0.4731012
vn -0.1326908 0.1856008 0.9736249
vn -0.9768487 0.163046 0.138501
vn -0.4147926 0.7183143 0.5585442
vn 0.08592904 0.06113179 0.994424
vn 0.4029938 0.6970965 0.5930029
vn -0.9652282 0.2084873 0.1576948
vn -0.4205118 0.886054 0.1951365
vn 0.5444983 0.82143 0.1696301
vn 0.5660142 0.7919211 0.2291047
vn -0.3839374 0.9003908 0.2046665
vn -0.9663792 0.2270618 0.1206407
vn -0.9896151 0.1172682 0.08312627
vn -0.3138819 -0.2327654 0.9204881
vn -0.3963332 -0.09669728 0.9130003
vn -0.1079996 -0.213485 0.9709584
vn -0.1326908 0.1856008 0.9736249
vn 0.08592904 0.06113179 0.994424
vn 0.2185546 -0.1244962 0.9678505
vn 0.2153051 -0.1804907 0.9597223
vn 0.1325526 -0.263072 0.9556271
g Island_Color_05_0
f 3/3/3 2/2/2 1/1/1
f 4/4/4 3/3/3 1/1/1
f 4/4/4 1/1/1 5/5/5
f 6/6/6 3/3/3 4/4/4
f 7/7/7 4/4/4 5/5/5
f 5/5/5 8/8/8 7/7/7
f 8/8/8 9/9/9 7/7/7
f 10/10/10 6/6/6 4/4/4
f 10/10/10 4/4/4 7/7/7
f 11/11/11 6/6/6 10/10/10
f 12/12/12 11/11/11 10/10/10
f 7/7/7 9/9/9 13/13/13
f 13/13/13 10/10/10 7/7/7
f 12/12/12 10/10/10 13/13/13
f 9/9/9 14/14/14 13/13/13
f 15/15/15 12/12/12 13/13/13
f 13/13/13 14/14/14 15/15/15
f 14/14/14 16/16/16 15/15/15
f 19/19/19 18/18/18 17/17/17
f 20/20/20 19/19/19 17/17/17
f 20/20/20 17/17/17 21/21/21
f 22/22/22 19/19/19 20/20/20
f 23/23/23 20/20/20 21/21/21
f 21/21/21 24/24/24 23/23/23
f 24/24/24 25/25/25 23/23/23
f 26/26/26 22/22/22 20/20/20
f 26/26/26 20/20/20 23/23/23
f 27/27/27 22/22/22 26/26/26
f 28/28/28 27/27/27 26/26/26
f 23/23/23 25/25/25 29/29/29
f 29/29/29 26/26/26 23/23/23
f 28/28/28 26/26/26 29/29/29
f 25/25/25 30/30/30 29/29/29
f 31/31/31 28/28/28 29/29/29
f 29/29/29 30/30/30 31/31/31
f 30/30/30 32/32/32 31/31/31
f 35/35/35 34/34/34 33/33/33
f 36/36/36 34/34/34 35/35/35
f 37/37/37 34/34/34 36/36/36
f 38/38/38 34/34/34 37/37/37
f 39/39/39 34/34/34 38/38/38
f 40/40/40 34/34/34 39/39/39
f 43/43/43 42/42/42 41/41/41
f 42/42/42 44/44/44 41/41/41
f 42/42/42 45/45/45 44/44/44
f 41/41/41 44/44/44 46/46/46
f 45/45/45 47/47/47 44/44/44
f 45/45/45 48/48/48 47/47/47
f 48/48/48 49/49/49 47/47/47
f 44/44/44 50/50/50 46/46/46
f 44/44/44 47/47/47 50/50/50
f 47/47/47 49/49/49 51/51/51
f 47/47/47 51/51/51 50/50/50
f 49/49/49 52/52/52 51/51/51
f 52/52/52 53/53/53 51/51/51
f 53/53/53 54/54/54 51/51/51
f 51/51/51 54/54/54 50/50/50
f 54/54/54 55/55/55 50/50/50
f 50/50/50 55/55/55 46/46/46
f 55/55/55 56/56/56 46/46/46
f 59/59/59 58/58/58 57/57/57
f 58/58/58 60/60/60 57/57/57
f 58/58/58 61/61/61 60/60/60
f 57/57/57 60/60/60 62/62/62
f 61/61/61 63/63/63 60/60/60
f 61/61/61 64/64/64 63/63/63
f 64/64/64 65/65/65 63/63/63
f 60/60/60 66/66/66 62/62/62
f 60/60/60 63/63/63 66/66/66
f 63/63/63 65/65/65 67/67/67
f 63/63/63 67/67/67 66/66/66
f 65/65/65 68/68/68 67/67/67
f 68/68/68 69/69/69 67/67/67
f 69/69/69 70/70/70 67/67/67
f 67/67/67 70/70/70 66/66/66
f 70/70/70 71/71/71 66/66/66
f 66/66/66 71/71/71 62/62/62
f 71/71/71 72/72/72 62/62/62
f 75/75/75 74/74/74 73/73/73
f 76/76/76 74/74/74 75/75/75
f 75/75/75 77/77/77 76/76/76
f 75/75/75 78/78/78 77/77/77
f 75/75/75 79/79/79 78/78/78
f 80/80/80 79/79/79 75/75/75
