g Island_Color_08
v -0.1258321 -6.315729 5.152934
v -0.1405621 -4.714371 6.143172
v 1.596224 -3.740284 6.507485
v 2.508414 -5.045972 5.843603
v -0.3833237 -7.084861 7.152555E-07
v 2.671006 -1.975294 7.280751
v 3.060138 -6.450598 1.430511E-06
v -0.1924331 -12.62055 -18.04611
v 6.049566 -11.47082 -18.04611
v 3.607779 -2.144965 6.494216
v 2.830324 1.134435 7.991831
v 4.045446 1.854357 7.289859
v 4.990656 -3.467179 4.76837E-07
v 9.549005 -6.06278 -18.04611
v 5.705619 0.008112893 1.192093E-06
v 10.84502 0.2368803 -18.04611
v -2.849535 0.3208588 7.537495
v -1.676701 0.3170683 8.064454
v -1.508369 -0.6640404 7.66799
v -2.545896 -1.200079 7.071382
v -3.935648 -0.0224995 2.384185E-07
v -1.814618 -3.84034 6.575194
v -3.603903 -2.159729 2.384184E-07
v -6.631701 0.18139 -18.04611
v -6.030381 -3.692765 -18.04611
v -3.078314 -4.832645 5.651801
v -0.1405621 -4.714371 6.143172
v -0.1258321 -6.315729 5.152934
v -4.363741 -5.104319 1.430511E-06
v -7.407719 -9.030424 -18.04611
v -0.3833237 -7.084861 7.152555E-07
v -0.1924331 -12.62055 -18.04611
v -1.676701 0.3170683 8.064454
v 0.3393559 0.1802205 7.691583
v -1.508369 -0.6640404 7.66799
v -1.814618 -3.84034 6.575194
v -0.1405621 -4.714371 6.143172
v 1.596224 -3.740284 6.507485
v 2.671006 -1.975294 7.280751
v 2.830324 1.134435 7.991831
v -1.875997 5.912348 9.016415
v 0.06324553 4.759394 8.991983
v -1.694707 4.724765 9.530434
v 0.398243 5.836962 8.676008
v 1.627025 3.838564 8.493555
v -1.969815 7.084862 7.152559E-07
v 2.416129 4.332973 7.840943
v 2.830324 1.134435 7.991831
v 4.045446 1.854357 7.289859
v 1.332331 5.28189 7.152559E-07
v 3.084532 3.195898 7.152558E-07
v 5.705619 0.008112893 1.192093E-06
v 10.84502 0.2368803 -18.04611
v 6.093766 6.01538 -18.04611
v 2.917558 9.796659 -18.04611
v -3.068258 13.06491 -18.04611
v -2.849535 0.3208588 7.537495
v -3.086544 2.136604 9.151217
v -1.676701 0.3170683 8.064454
v -4.207418 2.008234 7.784904
v -2.822236 4.163088 9.578932
v -3.935648 -0.0224995 2.384185E-07
v -4.139213 4.032946 8.745288
v -1.694707 4.724765 9.530434
v -1.875997 5.912348 9.016415
v -5.629519 1.129242 7.152557E-07
v -5.705689 4.308655 1.430511E-06
v -1.969815 7.084862 7.152559E-07
v -3.068258 13.06491 -18.04611
v -9.84027 8.032475 -18.04611
v -9.702193 2.269154 -18.04611
v -6.631701 0.18139 -18.04611
v -1.676701 0.3170683 8.064454
v -3.086544 2.136604 9.151217
v 0.3393559 0.1802205 7.691583
v -2.822236 4.163088 9.578932
v -1.694707 4.724765 9.530434
v 0.06324553 4.759394 8.991983
v 1.627025 3.838564 8.493555
v 2.830324 1.134435 7.991831
vt -3.72529E-09 0.4171273
vt -3.72529E-09 0.482982
vt 0.3302887 0.482982
vt 0.3302887 0.4171273
vt -3.72529E-09 0.2166558
vt 0.6697115 0.482982
vt 0.3302887 0.2166558
vt -3.72529E-09 0.1970161
vt 0.3302887 0.1970161
vt 0.6697115 0.4173039
vt 1 0.482982
vt 1 0.4173039
vt 0.6697115 0.2166558
vt 0.6697115 0.1970161
vt 1 0.2166558
vt 1 0.1970161
vt -3.72529E-09 0.4173039
vt -3.72529E-09 0.482982
vt 0.3302887 0.482982
vt 0.3302887 0.4173039
vt -3.72529E-09 0.2166558
vt 0.6697115 0.482982
vt 0.3302887 0.2166558
vt -3.72529E-09 0.1970161
vt 0.3302887 0.1970161
vt 0.6697115 0.4171273
vt 1 0.482982
vt 1 0.4171273
vt 0.6697115 0.2166558
vt 0.6697115 0.1970161
vt 1 0.2166558
vt 1 0.1970161
vt 0.99 0.5030478
vt 0.4999999 0.5030463
vt 0.9243515 0.7480464
vt 0.7449998 0.9273976
vt 0.5000008 0.9930451
vt 0.2550019 0.927399
vt 0.0756493 0.7480484
vt 0.009999991 0.5030499
vt 1 0.4171273
vt 0.6697113 0.482982
vt 1 0.482982
vt 0.6697113 0.4171273
vt 0.3302885 0.482982
vt 1 0.2166558
vt 0.3302885 0.4173039
vt 0 0.482982
vt 0 0.4173039
vt 0.6697113 0.2166558
vt 0.3302885 0.2166558
vt 0 0.2166558
vt 0 0.1970161
vt 0.3302885 0.1970161
vt 0.6697113 0.1970161
vt 1 0.1970161
vt 1 0.4173039
vt 0.6697113 0.482982
vt 1 0.482982
vt 0.6697113 0.4173039
vt 0.3302885 0.482982
vt 1 0.2166558
vt 0.3302885 0.4171273
vt 0 0.482982
vt 0 0.4171273
vt 0.6697113 0.2166558
vt 0.3302885 0.2166558
vt 0 0.2166558
vt 0 0.1970161
vt 0.3302885 0.1970161
vt 0.6697113 0.1970161
vt 1 0.1970161
vt 0.00999999 0.5030478
vt 0.07564855 0.7480464
vt 0.5000001 0.5030463
vt 0.2550002 0.9273976
vt 0.4999992 0.9930451
vt 0.7449981 0.927399
vt 0.9243507 0.7480484
vt 0.99 0.5030499
vn -0.06213447 -0.8739319 0.4820605
vn -0.01588338 -0.4521883 0.8917812
vn 0.09445106 -0.3951005 0.9137694
vn 0.484478 -0.6617991 0.5721039
vn -0.1198178 -0.9636703 0.238712
vn 0.2315103 -0.3181647 0.9193336
vn 0.5633217 -0.78004 0.2724084
vn -0.1243858 -0.9489747 0.2897847
vn 0.5259413 -0.792909 0.3077029
vn 0.7556867 -0.3311069 0.5650715
vn 0.3181102 -0.1402939 0.9376159
vn 0.8500364 0.1954674 0.4891121
vn 0.9005071 -0.3471456 0.2618722
vn 0.8877202 -0.3676434 0.2771121
vn 0.9536464 0.206375 0.2190161
vn 0.9377143 0.2188258 0.2698283
vn -0.6496211 -0.552707 0.5220224
vn -0.105273 -0.4552965 0.8840942
vn -0.09522218 -0.349672 0.9320204
vn -0.751155 -0.2238253 0.621022
vn -0.8533511 -0.4999774 0.147698
vn -0.1605616 -0.3798025 0.9110269
vn -0.9888921 0.01764183 0.1475839
vn -0.8266876 -0.5503008 0.1172884
vn -0.9899244 0.06064598 0.1279527
vn -0.7157385 -0.4670682 0.5191972
vn -0.01588338 -0.4521883 0.8917812
vn -0.06213447 -0.8739319 0.4820605
vn -0.8951917 -0.391466 0.2130404
vn -0.8643678 -0.4409465 0.2417321
vn -0.1198178 -0.9636703 0.238712
vn -0.1243858 -0.9489747 0.2897847
vn -0.105273 -0.4552965 0.8840942
vn 0.0659135 -0.2854809 0.9561151
vn -0.09522218 -0.349672 0.9320204
vn -0.1605616 -0.3798025 0.9110269
vn -0.01588338 -0.4521883 0.8917812
vn 0.09445106 -0.3951005 0.9137694
vn 0.2315103 -0.3181647 0.9193336
vn 0.3181102 -0.1402939 0.9376159
vn -0.1416121 0.8110267 0.5676106
vn 0.3009058 0.05330654 0.9521629
vn 0.03740642 0.11998 0.9920713
vn 0.4855987 0.6995845 0.5241901
vn 0.3381699 -0.003758815 0.9410775
vn -0.1062684 0.9708344 0.214913
vn 0.727875 0.5075443 0.4610822
vn 0.3181102 -0.1402939 0.9376159
vn 0.8500364 0.1954674 0.4891121
vn 0.5831265 0.8014143 0.1330368
vn 0.7562108 0.6447018 0.1118241
vn 0.9536464 0.206375 0.2190161
vn 0.9377143 0.2188258 0.2698283
vn 0.7497899 0.6231822 0.222394
vn 0.6070167 0.7567397 0.2426429
vn -0.07598746 0.9451047 0.31781
vn -0.6496211 -0.552707 0.5220224
vn -0.2667173 -0.3792914 0.8860022
vn -0.105273 -0.4552965 0.8840942
vn -0.8136782 -0.4022045 0.4197135
vn -0.2571301 0.05968665 0.9645319
vn -0.8533511 -0.4999774 0.147698
vn -0.8066679 0.2819042 0.519439
vn 0.03740642 0.11998 0.9920713
vn -0.1416121 0.8110267 0.5676106
vn -0.8668759 -0.46788 0.1720887
vn -0.8867218 0.4012609 0.2295958
vn -0.1062684 0.9708344 0.214913
vn -0.07598746 0.9451047 0.31781
vn -0.8521817 0.4383619 0.2857012
vn -0.8846524 -0.4332537 0.1722825
vn -0.8266876 -0.5503008 0.1172884
vn -0.105273 -0.4552965 0.8840942
vn -0.2667173 -0.3792914 0.8860022
vn 0.0659135 -0.2854809 0.9561151
vn -0.2571301 0.05968665 0.9645319
vn 0.03740642 0.11998 0.9920713
vn 0.3009058 0.05330654 0.9521629
vn 0.3381699 -0.003758815 0.9410775
vn 0.3181102 -0.1402939 0.9376159
g Island_Color_08_0
f 3/3/3 2/2/2 1/1/1
f 4/4/4 3/3/3 1/1/1
f 4/4/4 1/1/1 5/5/5
f 6/6/6 3/3/3 4/4/4
f 7/7/7 4/4/4 5/5/5
f 5/5/5 8/8/8 7/7/7
f 8/8/8 9/9/9 7/7/7
f 10/10/10 6/6/6 4/4/4
f 10/10/10 4/4/4 7/7/7
f 11/11/11 6/6/6 10/10/10
f 12/12/12 11/11/11 10/10/10
f 7/7/7 9/9/9 13/13/13
f 13/13/13 10/10/10 7/7/7
f 12/12/12 10/10/10 13/13/13
f 9/9/9 14/14/14 13/13/13
f 15/15/15 12/12/12 13/13/13
f 13/13/13 14/14/14 15/15/15
f 14/14/14 16/16/16 15/15/15
f 19/19/19 18/18/18 17/17/17
f 20/20/20 19/19/19 17/17/17
f 20/20/20 17/17/17 21/21/21
f 22/22/22 19/19/19 20/20/20
f 23/23/23 20/20/20 21/21/21
f 21/21/21 24/24/24 23/23/23
f 24/24/24 25/25/25 23/23/23
f 26/26/26 22/22/22 20/20/20
f 26/26/26 20/20/20 23/23/23
f 27/27/27 22/22/22 26/26/26
f 28/28/28 27/27/27 26/26/26
f 23/23/23 25/25/25 29/29/29
f 29/29/29 26/26/26 23/23/23
f 28/28/28 26/26/26 29/29/29
f 25/25/25 30/30/30 29/29/29
f 31/31/31 28/28/28 29/29/29
f 29/29/29 30/30/30 31/31/31
f 30/30/30 32/32/32 31/31/31
f 35/35/35 34/34/34 33/33/33
f 36/36/36 34/34/34 35/35/35
f 37/37/37 34/34/34 36/36/36
f 38/38/38 34/34/34 37/37/37
f 39/39/39 34/34/34 38/38/38
f 40/40/40 34/34/34 39/39/39
f 43/43/43 42/42/42 41/41/41
f 42/42/42 44/44/44 41/41/41
f 42/42/42 45/45/45 44/44/44
f 41/41/41 44/44/44 46/46/46
f 45/45/45 47/47/47 44/44/44
f 45/45/45 48/48/48 47/47/47
f 48/48/48 49/49/49 47/47/47
f 44/44/44 50/50/50 46/46/46
f 44/44/44 47/47/47 50/50/50
f 47/47/47 49/49/49 51/51/51
f 47/47/47 51/51/51 50/50/50
f 49/49/49 52/52/52 51/51/51
f 52/52/52 53/53/53 51/51/51
f 53/53/53 54/54/54 51/51/51
f 51/51/51 54/54/54 50/50/50
f 54/54/54 55/55/55 50/50/50
f 50/50/50 55/55/55 46/46/46
f 55/55/55 56/56/56 46/46/46
f 59/59/59 58/58/58 57/57/57
f 58/58/58 60/60/60 57/57/57
f 58/58/58 61/61/61 60/60/60
f 57/57/57 60/60/60 62/62/62
f 61/61/61 63/63/63 60/60/60
f 61/61/61 64/64/64 63/63/63
f 64/64/64 65/65/65 63/63/63
f 60/60/60 66/66/66 62/62/62
f 60/60/60 63/63/63 66/66/66
f 63/63/63 65/65/65 67/67/67
f 63/63/63 67/67/67 66/66/66
f 65/65/65 68/68/68 67/67/67
f 68/68/68 69/69/69 67/67/67
f 69/69/69 70/70/70 67/67/67
f 67/67/67 70/70/70 66/66/66
f 70/70/70 71/71/71 66/66/66
f 66/66/66 71/71/71 62/62/62
f 71/71/71 72/72/72 62/62/62
f 75/75/75 74/74/74 73/73/73
f 76/76/76 74/74/74 75/75/75
f 75/75/75 77/77/77 76/76/76
f 75/75/75 78/78/78 77/77/77
f 75/75/75 79/79/79 78/78/78
f 80/80/80 79/79/79 75/75/75
