g Island_Color_03
v -2.58181 4.017116 7.930245
v 0.396805 0.9572285 7.976414
v -3.184387 1.219273 8.008618
v 0.396805 0.9572285 7.976414
v 1.403412 1.378081 7.942135
v 1.230568 0.8959053 7.757859
v 2.273834 -1.72342 5.888929
v -1.922424 -4.26887 5.920929
v -1.99926 -4.139308 6.134732
v 1.768822 -0.5588314 6.825029
v -3.100494 -1.574071 7.194536
v 1.660225 -0.3340485 6.992112
v -2.58181 4.017116 7.930245
v -1.074836 6.455569 9.163479
v -2.599571 4.010022 9.19501
v -3.159332 1.206757 6.835393
v -3.184387 1.219273 8.008618
v -3.072357 -1.693094 5.890066
v -3.100494 -1.574071 7.194536
v -3.031518 -1.676805 0.1103272
v -3.276185 1.20633 0.04787207
v -3.276199 1.206338 -17.99824
v -3.03154 -1.67678 -17.93579
v 1.791488 -0.5478546 5.706131
v -3.072357 -1.693094 5.890066
v -3.100494 -1.574071 7.194536
v 1.768822 -0.5588314 6.825029
v 1.670036 0.8130997 6.783888
v 0.396805 0.9572285 7.976414
v 1.230568 0.8959053 7.757859
v -3.159332 1.206757 6.835393
v -3.184387 1.219273 8.008618
v 1.985077 2.153126 7.913467
v 1.670036 0.8130997 6.783888
v 1.230568 0.8959053 7.757859
v 1.403412 1.378081 7.942135
v -1.906731 -4.332221 4.669711
v -1.99926 -4.139308 6.134732
v -1.922424 -4.26887 5.920929
v -3.072357 -1.693094 5.890066
v -1.937799 -4.352513 0.1121564
v -3.031518 -1.676805 0.1103272
v -3.03154 -1.67678 -17.93579
v -1.93782 -4.352469 -17.93396
v -0.1065533 -6.473166 0.1121521
v -0.1035999 -6.462235 4.644793
v -0.1065521 -6.473136 -17.93396
v -0.1035999 -6.462235 4.644793
v 3.208725 -2.927711 4.649919
v 3.276175 -2.908305 0.1121469
v -0.1065533 -6.473166 0.1121521
v -0.1065521 -6.473136 -17.93396
v 3.276154 -2.908256 -17.93397
v 2.30323 -1.818151 4.602522
v 3.208725 -2.927711 4.649919
v -0.1035999 -6.462235 4.644793
v -1.906731 -4.332221 4.669711
v 1.791488 -0.5478546 5.706131
v 2.273834 -1.72342 5.888929
v -1.99926 -4.139308 6.134732
v -3.072357 -1.693094 5.890066
v 1.670036 0.8130997 6.783888
v 1.660225 -0.3340485 6.992112
v -3.100494 -1.574071 7.194536
v -3.159332 1.206757 6.835393
v 0.396805 0.9572285 7.976414
v -2.58181 4.017116 7.930245
v 1.985077 2.153126 7.913467
v 1.403412 1.378081 7.942135
v 2.770989 3.355868 9.173011
v 1.985383 2.149342 9.161136
v -2.599571 4.010022 9.19501
v -1.074836 6.455569 9.163479
v 1.985077 2.153126 7.913467
v -2.58181 4.017116 7.930245
v -2.599571 4.010022 9.19501
v 1.985383 2.149342 9.161136
v -1.074836 6.455569 9.163479
v -2.58181 4.017116 7.930245
v -2.531274 4.001872 0.002755165
v -1.0682 6.473166 9.536743E-07
v -1.068207 6.473184 -18.04612
v -2.531296 4.001901 -18.04336
v -3.276185 1.20633 0.04787207
v -3.276199 1.206338 -17.99824
v -2.58181 4.017116 7.930245
v -3.159332 1.206757 6.835393
v 2.30323 -1.818151 4.602522
v -1.906731 -4.332221 4.669711
v -1.922424 -4.26887 5.920929
v 2.273834 -1.72342 5.888929
vt 0.1568798 0.02423316
vt 0.1502117 0.02397215
vt 0.1551438 0.02847772
vt 0.2069498 0.03409217
vt 0.2052182 0.02417496
vt 0.2069498 0.02417496
vt 0.206084 0.03409217
vt 0.2060716 0.02417496
vt 0.2060834 0.02417496
vt 0.2060716 0.03409217
vt 0.2060775 0.02417496
vt 0.2060963 0.03409217
vt 0.1520989 0.07624462
vt 0.1507387 0.07624462
vt 0.1507387 0.07624462
vt 0.1507387 0.07624462
vt 0.1520989 0.07624462
vt 0.1520981 0.07624462
vt 0.1507909 0.07624462
vt 0.1520981 0.07624462
vt 0.1507395 0.07624462
vt 0.1507395 0.07624462
vt 0.1520981 0.07624462
vt 0.2063965 0.07437097
vt 0.2063965 0.08116736
vt 0.2063965 0.08116736
vt 0.2063965 0.07437097
vt 0.2029983 0.07437097
vt 0.2033771 0.07474979
vt 0.2029983 0.07437097
vt 0.2097947 0.08116736
vt 0.2097947 0.08116736
vt 0.2029983 0.07437098
vt 0.2029983 0.08116736
vt 0.2097947 0.08116736
vt 0.2097947 0.07437098
vt 0.1514196 0.07964281
vt 0.1500594 0.07964281
vt 0.1501638 0.07964281
vt 0.1500594 0.07964281
vt 0.1514196 0.07284643
vt 0.1500594 0.07284643
vt 0.1500594 0.07284643
vt 0.1514196 0.07284643
vt 0.1527782 0.07284643
vt 0.1527782 0.07964281
vt 0.1527782 0.07284643
vt 0.2029983 0.08116736
vt 0.2097947 0.08116736
vt 0.2097947 0.07437097
vt 0.2029983 0.07437097
vt 0.2029983 0.07437097
vt 0.2097947 0.07437097
vt 0.1542259 0.02282674
vt 0.1528657 0.02282674
vt 0.1528657 0.02962313
vt 0.1542259 0.02962313
vt 0.154202 0.02282674
vt 0.1529402 0.02282674
vt 0.1528895 0.02962313
vt 0.154202 0.02962313
vt 0.1542027 0.02282674
vt 0.1529395 0.02282674
vt 0.1528888 0.02962313
vt 0.1542027 0.02962313
vt 0.1502773 0.02723984
vt 0.1569439 0.02750085
vt 0.1508023 0.02494903
vt 0.1501476 0.0265702
vt 0.1542258 0.022826
vt 0.1528657 0.022826
vt 0.1528657 0.02962388
vt 0.1542258 0.02962388
vt 0.2063965 0.07437097
vt 0.2063965 0.08116736
vt 0.2063965 0.08116736
vt 0.2063965 0.07437097
vt 0.1514181 0.07284643
vt 0.1527782 0.07284643
vt 0.1514181 0.07284643
vt 0.1500594 0.07284643
vt 0.1500594 0.07284643
vt 0.1514181 0.07284643
vt 0.1527782 0.07284643
vt 0.1527782 0.07284643
vt 0.1527782 0.07964281
vt 0.1514181 0.07964281
vt 0.2063965 0.07437097
vt 0.2063965 0.08116736
vt 0.2063965 0.08116736
vt 0.2063965 0.07437097
vn -0.9560313 0.1136599 0.2703432
vn -0.01574873 -0.6848094 0.728552
vn -0.6582813 -0.477107 0.5822669
vn -0.01574873 -0.6848094 0.728552
vn 0.4214648 -0.3083585 0.8528087
vn 0.3285604 -0.8000795 0.5019173
vn 0.357457 -0.5052543 0.785457
vn -0.2325155 -0.9356011 0.2656822
vn -0.3978007 -0.5496999 0.7345642
vn 0.2223805 -0.8698754 0.4402995
vn -0.5185301 -0.587234 0.6215165
vn 0.09831959 -0.199904 0.9748701
vn -0.9560313 0.1136599 0.2703432
vn -0.628737 0.3873323 0.6742874
vn -0.7824321 -0.2547166 0.56826
vn -0.9461266 -0.1509639 0.2864516
vn -0.6582813 -0.477107 0.5822669
vn -0.8483646 -0.4422486 0.2910218
vn -0.5185301 -0.587234 0.6215165
vn -0.972971 -0.2309232 0.001351806
vn -0.9962251 0.08677059 0.002547671
vn -0.9959579 0.08982155 0
vn -0.9724509 -0.2331081 0
vn 0.1502495 -0.5739805 0.8049667
vn -0.8483646 -0.4422486 0.2910218
vn -0.5185301 -0.587234 0.6215165
vn 0.2223805 -0.8698754 0.4402995
vn 0.2620147 -0.5362807 0.8023411
vn -0.01574873 -0.6848094 0.728552
vn 0.3285604 -0.8000795 0.5019173
vn -0.9461266 -0.1509639 0.2864516
vn -0.6582813 -0.477107 0.5822669
vn 0.01727662 -0.7425008 0.6696225
vn 0.2620147 -0.5362807 0.8023411
vn 0.3285604 -0.8000795 0.5019173
vn 0.4214648 -0.3083585 0.8528087
vn -0.6381762 -0.7094142 0.2991028
vn -0.3978007 -0.5496999 0.7345642
vn -0.2325155 -0.9356011 0.2656822
vn -0.8483646 -0.4422486 0.2910218
vn -0.8512658 -0.5247337 0.001102757
vn -0.972971 -0.2309232 0.001351806
vn -0.9724509 -0.2331081 0
vn -0.8524548 -0.522801 0
vn -0.02402837 -0.9997048 0.003584137
vn -0.02118651 -0.8183606 0.5743145
vn -0.02344115 -0.9997252 0
vn -0.02118651 -0.8183606 0.5743145
vn 0.4963167 -0.4608868 0.7356989
vn 0.7264523 -0.6872132 0.002255441
vn -0.02402837 -0.9997048 0.003584137
vn -0.02344115 -0.9997252 0
vn 0.7253966 -0.6883311 0
vn 0.3401585 -0.5565218 0.7580077
vn 0.4963167 -0.4608868 0.7356989
vn -0.02118651 -0.8183606 0.5743145
vn -0.6381762 -0.7094142 0.2991028
vn 0.1502495 -0.5739805 0.8049667
vn 0.357457 -0.5052543 0.785457
vn -0.3978007 -0.5496999 0.7345642
vn -0.8483646 -0.4422486 0.2910218
vn 0.2620147 -0.5362807 0.8023411
vn 0.09831959 -0.199904 0.9748701
vn -0.5185301 -0.587234 0.6215165
vn -0.9461266 -0.1509639 0.2864516
vn -0.01574873 -0.6848094 0.728552
vn -0.9560313 0.1136599 0.2703432
vn 0.01727662 -0.7425008 0.6696225
vn 0.4214648 -0.3083585 0.8528087
vn 0.004411943 0.002591216 0.9999869
vn -0.2493591 -0.6188188 0.744905
vn -0.7824321 -0.2547166 0.56826
vn -0.628737 0.3873323 0.6742874
vn 0.01727662 -0.7425008 0.6696225
vn -0.9560313 0.1136599 0.2703432
vn -0.7824321 -0.2547166 0.56826
vn -0.2493591 -0.6188188 0.744905
vn -0.628737 0.3873323 0.6742874
vn -0.9560313 0.1136599 0.2703432
vn -0.9238642 0.3827202 0.000331259
vn -0.8579234 0.5137757 -0.001392506
vn -0.8605031 0.5094452 0
vn -0.9217583 0.3877651 0
vn -0.9962251 0.08677059 0.002547671
vn -0.9959579 0.08982155 0
vn -0.9560313 0.1136599 0.2703432
vn -0.9461266 -0.1509639 0.2864516
vn 0.3401585 -0.5565218 0.7580077
vn -0.6381762 -0.7094142 0.2991028
vn -0.2325155 -0.9356011 0.2656822
vn 0.357457 -0.5052543 0.785457
g Island_Color_03_0
f 3/3/3 2/2/2 1/1/1
f 6/6/6 5/5/5 4/4/4
f 9/9/9 8/8/8 7/7/7
f 12/12/12 11/11/11 10/10/10
f 15/15/15 14/14/14 13/13/13
f 17/17/17 13/13/13 16/16/16
f 19/19/19 16/16/16 18/18/18
f 20/20/20 18/18/18 16/16/16
f 21/21/21 20/20/20 16/16/16
f 21/21/21 22/22/22 20/20/20
f 22/22/22 23/23/23 20/20/20
f 26/26/26 25/25/25 24/24/24
f 27/27/27 26/26/26 24/24/24
f 30/30/30 29/29/29 28/28/28
f 31/31/31 28/28/28 29/29/29
f 32/32/32 31/31/31 29/29/29
f 35/35/35 34/34/34 33/33/33
f 36/36/36 35/35/35 33/33/33
f 39/39/39 38/38/38 37/37/37
f 38/38/38 40/40/40 37/37/37
f 41/41/41 37/37/37 40/40/40
f 42/42/42 41/41/41 40/40/40
f 42/42/42 43/43/43 41/41/41
f 43/43/43 44/44/44 41/41/41
f 41/41/41 45/45/45 37/37/37
f 41/41/41 44/44/44 45/45/45
f 45/45/45 46/46/46 37/37/37
f 44/44/44 47/47/47 45/45/45
f 50/50/50 49/49/49 48/48/48
f 51/51/51 50/50/50 48/48/48
f 51/51/51 52/52/52 50/50/50
f 52/52/52 53/53/53 50/50/50
f 56/56/56 55/55/55 54/54/54
f 57/57/57 56/56/56 54/54/54
f 60/60/60 59/59/59 58/58/58
f 61/61/61 60/60/60 58/58/58
f 64/64/64 63/63/63 62/62/62
f 65/65/65 64/64/64 62/62/62
f 68/68/68 67/67/67 66/66/66
f 69/69/69 68/68/68 66/66/66
f 72/72/72 71/71/71 70/70/70
f 73/73/73 72/72/72 70/70/70
f 76/76/76 75/75/75 74/74/74
f 77/77/77 76/76/76 74/74/74
f 80/80/80 79/79/79 78/78/78
f 81/81/81 80/80/80 78/78/78
f 81/81/81 82/82/82 80/80/80
f 82/82/82 83/83/83 80/80/80
f 80/80/80 83/83/83 84/84/84
f 83/83/83 85/85/85 84/84/84
f 80/80/80 84/84/84 86/86/86
f 84/84/84 87/87/87 86/86/86
f 90/90/90 89/89/89 88/88/88
f 91/91/91 90/90/90 88/88/88
