g Island_Color_013
v -0.04454327 -6.315729 3.481324
v -0.05927324 -4.714371 4.471562
v 1.677513 -3.740284 4.835876
v 2.589703 -5.045972 4.171994
v -0.3833847 -7.084861 7.152553E-07
v 2.752295 -1.975294 5.609142
v 3.060077 -6.450598 1.430511E-06
v -0.2038437 -12.29105 -18.04611
v 5.871542 -11.172 -18.04611
v 3.689068 -2.144965 4.822607
v 2.911613 1.134435 6.320222
v 4.126735 1.854357 5.61825
v 4.990595 -3.467179 4.768368E-07
v 9.277603 -5.908281 -18.04612
v 5.705558 0.008112893 1.192093E-06
v 10.53903 0.2232634 -18.04611
v -2.768246 0.3208588 5.865885
v -1.595412 0.3170683 6.392845
v -1.42708 -0.6640404 5.99638
v -2.464607 -1.200079 5.399773
v -3.935709 -0.0224995 2.384186E-07
v -1.733329 -3.84034 4.903584
v -3.603964 -2.159729 2.384184E-07
v -6.471298 0.1692532 -18.04612
v -5.885992 -3.601515 -18.04612
v -2.997025 -4.832645 3.980192
v -0.05927324 -4.714371 4.471562
v -0.04454327 -6.315729 3.481324
v -4.363802 -5.104319 1.430511E-06
v -7.226593 -8.796727 -18.04611
v -0.3833847 -7.084861 7.152553E-07
v -0.2038437 -12.29105 -18.04611
v -1.595412 0.3170683 6.392845
v 0.4206448 0.1802204 6.019973
v -1.42708 -0.6640404 5.99638
v -1.733329 -3.84034 4.903584
v -0.05927324 -4.714371 4.471562
v 1.677513 -3.740284 4.835876
v 2.752295 -1.975294 5.609142
v 2.911613 1.134435 6.320222
v -1.794708 5.912348 7.344805
v 0.1445343 4.759394 7.320374
v -1.613418 4.724765 7.858824
v 0.4795318 5.836962 7.004399
v 1.708313 3.838564 6.821946
v -1.969876 7.084862 7.152561E-07
v 2.497418 4.332973 6.169334
v 2.911613 1.134435 6.320222
v 4.126735 1.854357 5.61825
v 1.33227 5.28189 7.15256E-07
v 3.084471 3.195898 7.152559E-07
v 5.705558 0.008112893 1.192093E-06
v 10.53903 0.2232634 -18.04611
v 5.91458 5.847553 -18.04612
v 2.823128 9.527921 -18.04612
v -3.00293 12.70895 -18.04612
v -2.768246 0.3208588 5.865885
v -3.005255 2.136604 7.479607
v -1.595412 0.3170683 6.392845
v -4.126129 2.008234 6.113295
v -2.740947 4.163088 7.907322
v -3.935709 -0.0224995 2.384186E-07
v -4.057924 4.032946 7.073679
v -1.613418 4.724765 7.858824
v -1.794708 5.912348 7.344805
v -5.62958 1.129242 7.152559E-07
v -5.70575 4.308655 1.430512E-06
v -1.969876 7.084862 7.152561E-07
v -3.00293 12.70895 -18.04612
v -9.594226 7.810816 -18.04611
v -9.459836 2.2013 -18.04612
v -6.471298 0.1692532 -18.04612
v -1.595412 0.3170683 6.392845
v -3.005255 2.136604 7.479607
v 0.4206448 0.1802204 6.019973
v -2.740947 4.163088 7.907322
v -1.613418 4.724765 7.858824
v 0.1445343 4.759394 7.320374
v 1.708313 3.838564 6.821946
v 2.911613 1.134435 6.320222
vt -3.72529E-09 0.4171273
vt -3.72529E-09 0.482982
vt 0.3302887 0.482982
vt 0.3302887 0.4171273
vt -3.72529E-09 0.2166558
vt 0.6697115 0.482982
vt 0.3302887 0.2166558
vt -3.72529E-09 0.1970161
vt 0.3302887 0.1970161
vt 0.6697115 0.4173039
vt 1 0.482982
vt 1 0.4173039
vt 0.6697115 0.2166558
vt 0.6697115 0.1970161
vt 1 0.2166558
vt 1 0.1970161
vt -3.72529E-09 0.4173039
vt -3.72529E-09 0.482982
vt 0.3302887 0.482982
vt 0.3302887 0.4173039
vt -3.72529E-09 0.2166558
vt 0.6697115 0.482982
vt 0.3302887 0.2166558
vt -3.72529E-09 0.1970161
vt 0.3302887 0.1970161
vt 0.6697115 0.4171273
vt 1 0.482982
vt 1 0.4171273
vt 0.6697115 0.2166558
vt 0.6697115 0.1970161
vt 1 0.2166558
vt 1 0.1970161
vt 0.99 0.5030478
vt 0.4999999 0.5030463
vt 0.9243515 0.7480464
vt 0.7449998 0.9273976
vt 0.5000008 0.9930451
vt 0.2550019 0.927399
vt 0.0756493 0.7480484
vt 0.009999991 0.5030499
vt 1 0.4171273
vt 0.6697113 0.482982
vt 1 0.482982
vt 0.6697113 0.4171273
vt 0.3302885 0.482982
vt 1 0.2166558
vt 0.3302885 0.4173039
vt 0 0.482982
vt 0 0.4173039
vt 0.6697113 0.2166558
vt 0.3302885 0.2166558
vt 0 0.2166558
vt 0 0.1970161
vt 0.3302885 0.1970161
vt 0.6697113 0.1970161
vt 1 0.1970161
vt 1 0.4173039
vt 0.6697113 0.482982
vt 1 0.482982
vt 0.6697113 0.4173039
vt 0.3302885 0.482982
vt 1 0.2166558
vt 0.3302885 0.4171273
vt 0 0.482982
vt 0 0.4171273
vt 0.6697113 0.2166558
vt 0.3302885 0.2166558
vt 0 0.2166558
vt 0 0.1970161
vt 0.3302885 0.1970161
vt 0.6697113 0.1970161
vt 1 0.1970161
vt 0.00999999 0.5030478
vt 0.07564855 0.7480464
vt 0.5000001 0.5030463
vt 0.2550002 0.9273976
vt 0.4999992 0.9930451
vt 0.7449981 0.927399
vt 0.9243507 0.7480484
vt 0.99 0.5030499
vn -0.05731988 -0.8508664 0.5222458
vn -0.01588334 -0.4521884 0.891781
vn 0.09445106 -0.3951006 0.9137694
vn 0.4710079 -0.6420121 0.6049562
vn -0.124075 -0.9559098 0.2661609
vn 0.2315103 -0.3181648 0.9193336
vn 0.5516718 -0.7789027 0.2982762
vn -0.1254509 -0.9535565 0.2738467
vn 0.5289837 -0.7971869 0.29098
vn 0.7366765 -0.3253404 0.5928417
vn 0.3181103 -0.140294 0.9376159
vn 0.8447338 0.2059103 0.4939896
vn 0.892179 -0.3499544 0.2855672
vn 0.891764 -0.3690955 0.2617737
vn 0.9527249 0.1964618 0.2317713
vn 0.941542 0.2203872 0.2548102
vn -0.6372614 -0.5454922 0.5443678
vn -0.1052729 -0.4552965 0.8840942
vn -0.09522231 -0.3496722 0.9320204
vn -0.7297865 -0.2275187 0.6447068
vn -0.8467986 -0.5020867 0.1756163
vn -0.1605615 -0.3798025 0.911027
vn -0.9837078 0.01354208 0.1792634
vn -0.8281207 -0.5495472 0.1105167
vn -0.9908974 0.05999689 0.1205109
vn -0.6856639 -0.4663166 0.5589401
vn -0.01588334 -0.4521884 0.891781
vn -0.05731988 -0.8508664 0.5222458
vn -0.8877902 -0.3888112 0.246281
vn -0.8682923 -0.4406041 0.2278956
vn -0.124075 -0.9559098 0.2661609
vn -0.1254509 -0.9535565 0.2738467
vn -0.1052729 -0.4552965 0.8840942
vn 0.06591343 -0.2854809 0.9561151
vn -0.09522231 -0.3496722 0.9320204
vn -0.1605615 -0.3798025 0.911027
vn -0.01588334 -0.4521884 0.891781
vn 0.09445106 -0.3951006 0.9137694
vn 0.2315103 -0.3181648 0.9193336
vn 0.3181103 -0.140294 0.9376159
vn -0.1394068 0.8051854 0.5764047
vn 0.3009055 0.0533065 0.952163
vn 0.0374063 0.1199799 0.9920713
vn 0.4838108 0.6999889 0.5253025
vn 0.3381699 -0.003758856 0.9410775
vn -0.1075853 0.9702314 0.2169708
vn 0.7287961 0.5103188 0.4565425
vn 0.3181103 -0.140294 0.9376159
vn 0.8447338 0.2059103 0.4939896
vn 0.5843825 0.8018684 0.1245164
vn 0.7573848 0.6452132 0.1003399
vn 0.9527249 0.1964618 0.2317713
vn 0.941542 0.2203872 0.2548102
vn 0.7519424 0.624968 0.2097558
vn 0.609503 0.759008 0.2289386
vn -0.07596297 0.9507085 0.3006375
vn -0.6372614 -0.5454922 0.5443678
vn -0.2667171 -0.3792915 0.8860022
vn -0.1052729 -0.4552965 0.8840942
vn -0.7987475 -0.4000587 0.4493947
vn -0.2571299 0.05968662 0.9645319
vn -0.8467986 -0.5020867 0.1756163
vn -0.7953704 0.2783102 0.5384508
vn 0.0374063 0.1199799 0.9920713
vn -0.1394068 0.8051854 0.5764047
vn -0.8620022 -0.4678097 0.1952082
vn -0.8847326 0.3965475 0.2449454
vn -0.1075853 0.9702314 0.2169708
vn -0.07596297 0.9507085 0.3006375
vn -0.8567042 0.4395576 0.2699016
vn -0.8852128 -0.4360746 0.1619792
vn -0.8281207 -0.5495472 0.1105167
vn -0.1052729 -0.4552965 0.8840942
vn -0.2667171 -0.3792915 0.8860022
vn 0.06591343 -0.2854809 0.9561151
vn -0.2571299 0.05968662 0.9645319
vn 0.0374063 0.1199799 0.9920713
vn 0.3009055 0.0533065 0.952163
vn 0.3381699 -0.003758856 0.9410775
vn 0.3181103 -0.140294 0.9376159
g Island_Color_013_0
f 3/3/3 2/2/2 1/1/1
f 4/4/4 3/3/3 1/1/1
f 4/4/4 1/1/1 5/5/5
f 6/6/6 3/3/3 4/4/4
f 7/7/7 4/4/4 5/5/5
f 5/5/5 8/8/8 7/7/7
f 8/8/8 9/9/9 7/7/7
f 10/10/10 6/6/6 4/4/4
f 10/10/10 4/4/4 7/7/7
f 11/11/11 6/6/6 10/10/10
f 12/12/12 11/11/11 10/10/10
f 7/7/7 9/9/9 13/13/13
f 13/13/13 10/10/10 7/7/7
f 12/12/12 10/10/10 13/13/13
f 9/9/9 14/14/14 13/13/13
f 15/15/15 12/12/12 13/13/13
f 13/13/13 14/14/14 15/15/15
f 14/14/14 16/16/16 15/15/15
f 19/19/19 18/18/18 17/17/17
f 20/20/20 19/19/19 17/17/17
f 20/20/20 17/17/17 21/21/21
f 22/22/22 19/19/19 20/20/20
f 23/23/23 20/20/20 21/21/21
f 21/21/21 24/24/24 23/23/23
f 24/24/24 25/25/25 23/23/23
f 26/26/26 22/22/22 20/20/20
f 26/26/26 20/20/20 23/23/23
f 27/27/27 22/22/22 26/26/26
f 28/28/28 27/27/27 26/26/26
f 23/23/23 25/25/25 29/29/29
f 29/29/29 26/26/26 23/23/23
f 28/28/28 26/26/26 29/29/29
f 25/25/25 30/30/30 29/29/29
f 31/31/31 28/28/28 29/29/29
f 29/29/29 30/30/30 31/31/31
f 30/30/30 32/32/32 31/31/31
f 35/35/35 34/34/34 33/33/33
f 36/36/36 34/34/34 35/35/35
f 37/37/37 34/34/34 36/36/36
f 38/38/38 34/34/34 37/37/37
f 39/39/39 34/34/34 38/38/38
f 40/40/40 34/34/34 39/39/39
f 43/43/43 42/42/42 41/41/41
f 42/42/42 44/44/44 41/41/41
f 42/42/42 45/45/45 44/44/44
f 41/41/41 44/44/44 46/46/46
f 45/45/45 47/47/47 44/44/44
f 45/45/45 48/48/48 47/47/47
f 48/48/48 49/49/49 47/47/47
f 44/44/44 50/50/50 46/46/46
f 44/44/44 47/47/47 50/50/50
f 47/47/47 49/49/49 51/51/51
f 47/47/47 51/51/51 50/50/50
f 49/49/49 52/52/52 51/51/51
f 52/52/52 53/53/53 51/51/51
f 53/53/53 54/54/54 51/51/51
f 51/51/51 54/54/54 50/50/50
f 54/54/54 55/55/55 50/50/50
f 50/50/50 55/55/55 46/46/46
f 55/55/55 56/56/56 46/46/46
f 59/59/59 58/58/58 57/57/57
f 58/58/58 60/60/60 57/57/57
f 58/58/58 61/61/61 60/60/60
f 57/57/57 60/60/60 62/62/62
f 61/61/61 63/63/63 60/60/60
f 61/61/61 64/64/64 63/63/63
f 64/64/64 65/65/65 63/63/63
f 60/60/60 66/66/66 62/62/62
f 60/60/60 63/63/63 66/66/66
f 63/63/63 65/65/65 67/67/67
f 63/63/63 67/67/67 66/66/66
f 65/65/65 68/68/68 67/67/67
f 68/68/68 69/69/69 67/67/67
f 69/69/69 70/70/70 67/67/67
f 67/67/67 70/70/70 66/66/66
f 70/70/70 71/71/71 66/66/66
f 66/66/66 71/71/71 62/62/62
f 71/71/71 72/72/72 62/62/62
f 75/75/75 74/74/74 73/73/73
f 76/76/76 74/74/74 75/75/75
f 75/75/75 77/77/77 76/76/76
f 75/75/75 78/78/78 77/77/77
f 75/75/75 79/79/79 78/78/78
f 80/80/80 79/79/79 75/75/75
