g LegLMDL
v -0.1731977 0.1216016 0.527089
v -0.1731976 0.1491608 0.5349422
v -0.1731974 0.01113594 0.6355019
v 0.2000554 -0.08562768 0.6172808
v -0.1731973 -0.08638679 0.6182555
v -0.1731974 0.01113594 0.6355019
v 0.2000554 0.03106437 0.638358
v 0.200056 -0.03810665 0.1117423
v -0.173198 -0.03810665 0.1117423
v -0.1731975 -0.0001962199 0.4923817
v 0.2000555 -0.0001962199 0.4923817
v 0.200056 0.1206761 0.1569886
v 0.200056 -0.03810665 0.1117423
v 0.2000555 -0.0001962199 0.4923817
v 0.2000555 0.1491608 0.5349422
v 0.2000554 -0.08562768 0.6172808
v 0.2000554 0.03106437 0.638358
v -0.1731973 -0.08638679 0.6182555
v 0.2000554 -0.08562768 0.6172808
v 0.2000555 -0.0001962199 0.4923817
v -0.1731975 -0.0001962199 0.4923817
v -0.1731976 0.1491608 0.5349422
v -0.1731977 0.1216016 0.527089
v -0.173198 0.093465 0.1492346
v -0.1731978 0.1206761 0.1569886
v 0.2000555 0.1491608 0.5349422
v -0.1731978 0.1206761 0.1569886
v 0.200056 0.1206761 0.1569886
v -0.1731976 0.1491608 0.5349422
v -0.1731974 0.01113594 0.6355019
v 0.2000554 0.03106437 0.638358
v -0.1731975 -0.0001962199 0.4923817
v -0.173198 -0.03810665 0.1117423
v -0.173198 0.093465 0.1492346
v -0.1731977 0.1216016 0.527089
v -0.1731973 -0.08638679 0.6182555
v -0.1731974 0.01113594 0.6355019
v 0.2000565 -0.1076401 -0.06986589
v 0.200056 -0.03810665 0.1117423
v 0.200056 0.1206761 0.1569886
v 0.2000565 0.05429861 -0.0237201
v 0.2000565 -0.1076401 -0.06986589
v -0.1731978 -0.1076399 -0.06986666
v -0.173198 -0.03810665 0.1117423
v 0.200056 -0.03810665 0.1117423
v -0.173198 0.093465 0.1492346
v -0.173198 -0.03810665 0.1117423
v -0.1731978 -0.1076399 -0.06986666
v -0.1731978 0.02718852 -0.03144534
v -0.1731978 0.1206761 0.1569886
v -0.173198 0.093465 0.1492346
v -0.1731978 0.02718852 -0.03144534
v -0.1731978 0.05429861 -0.0237201
v 0.200056 0.1206761 0.1569886
v -0.1731978 0.1206761 0.1569886
v -0.1731978 0.05429861 -0.0237201
v 0.2000565 0.05429861 -0.0237201
vt 0.0959008 0.3808601
vt 0.09453946 0.3808601
vt 0.09506947 0.3835968
vt 0.3563061 0.3481471
vt 0.3805905 0.3481471
vt 0.3794664 0.3663611
vt 0.3563061 0.3724315
vt 0.1924049 0.3801389
vt 0.2166893 0.3801389
vt 0.2166893 0.3922811
vt 0.1924049 0.3922811
vt 0.3394265 0.4079614
vt 0.3394265 0.3836769
vt 0.3515687 0.3836769
vt 0.3515687 0.4079614
vt 0.3515687 0.3836769
vt 0.3515687 0.4079614
vt 0.2166893 0.38621
vt 0.1924049 0.38621
vt 0.1924049 0.38621
vt 0.2166893 0.38621
vt 0.09439507 0.3666852
vt 0.09575644 0.3669271
vt 0.09575644 0.3809811
vt 0.09438878 0.3788274
vt 0.203833 0.2139891
vt 0.2267498 0.2261313
vt 0.203833 0.2261313
vt 0.2267561 0.2139891
vt 0.2258692 0.2139891
vt 0.203833 0.2139891
vt 0.3758532 0.3836769
vt 0.3879954 0.3836769
vt 0.3879954 0.4037983
vt 0.3758532 0.4037006
vt 0.3758532 0.3836769
vt 0.374729 0.4018909
vt 0.3272843 0.3836769
vt 0.3394265 0.3836769
vt 0.3394265 0.4079614
vt 0.3272843 0.4079614
vt 0.1924049 0.3801389
vt 0.2166893 0.3801389
vt 0.2166893 0.3922811
vt 0.1924049 0.3922811
vt 0.3879954 0.4037983
vt 0.3879954 0.3836769
vt 0.4001376 0.3836769
vt 0.4001376 0.403896
vt 0.09438878 0.3788274
vt 0.09575644 0.3809811
vt 0.09575644 0.3950351
vt 0.09438249 0.3909696
vt 0.203833 0.2261313
vt 0.2267498 0.2261313
vt 0.2267435 0.2382735
vt 0.203833 0.2382735
vn -1 0 0
vn -1 0 0
vn -1 0 0
vn 0.002399397 -0.1761058 0.9843684
vn 0.002399396 -0.1761058 0.9843684
vn 0.002399396 -0.1761058 0.9843684
vn 0.002399396 -0.1761058 0.9843684
vn 0 -0.9950768 0.09910636
vn 0 -0.9950768 0.09910636
vn 3.043286E-05 -0.9955497 -0.09423861
vn 3.043286E-05 -0.9955497 -0.09423862
vn 1 0 0
vn 1 0 0
vn 1 0 0
vn 1 0 0
vn 1 0 0
vn 1 0 0
vn 0.0001018089 -0.8252451 -0.5647747
vn 0.0001018089 -0.8252451 -0.5647747
vn 3.043286E-05 -0.9955497 -0.09423862
vn 3.043286E-05 -0.9955497 -0.09423861
vn -1 0 0
vn -1 0 0
vn -1 0 0
vn -1 0 0
vn -0.006553914 0.9791269 0.203144
vn 0 0.9971721 -0.07515255
vn 0 0.9971721 -0.07515256
vn -0.006553916 0.9791269 0.2031441
vn -0.01961965 0.6228574 0.7820892
vn -0.01961966 0.6228574 0.7820894
vn -1 0 0
vn -1 0 0
vn -1 0 0
vn -1 0 0
vn -1 0 0
vn -1 0 0
vn 1 0 0
vn 1 0 0
vn 1 0 0
vn 1 0 0
vn 0 -0.9338892 0.3575625
vn 0 -0.9338892 0.3575626
vn 0 -0.9338892 0.3575626
vn 0 -0.9338892 0.3575626
vn -1 0 0
vn -1 0 0
vn -1 0 0
vn -1 0 0
vn -1 0 0
vn -1 0 0
vn -1 0 0
vn -1 0 0
vn 0 0.9386787 -0.3447933
vn 0 0.9386787 -0.3447933
vn 0 0.9386787 -0.3447933
vn 0 0.9386787 -0.3447933
g LegLMDL_0
f 3/3/3 2/2/2 1/1/1
f 6/6/6 5/5/5 4/4/4
f 7/7/7 6/6/6 4/4/4
f 10/10/10 9/9/9 8/8/8
f 11/11/11 10/10/10 8/8/8
f 14/14/14 13/13/13 12/12/12
f 15/15/15 14/14/14 12/12/12
f 16/16/16 14/14/14 15/15/15
f 17/17/17 16/16/16 15/15/15
f 20/20/20 19/19/19 18/18/18
f 21/21/21 20/20/20 18/18/18
f 24/24/24 23/23/23 22/22/22
f 25/25/25 24/24/24 22/22/22
f 28/28/28 27/27/27 26/26/26
f 27/27/27 29/29/29 26/26/26
f 26/26/26 29/29/29 30/30/30
f 31/31/31 26/26/26 30/30/30
f 34/34/34 33/33/33 32/32/32
f 35/35/35 34/34/34 32/32/32
f 35/35/35 32/32/32 36/36/36
f 37/37/37 35/35/35 36/36/36
f 40/40/40 39/39/39 38/38/38
f 41/41/41 40/40/40 38/38/38
f 44/44/44 43/43/43 42/42/42
f 45/45/45 44/44/44 42/42/42
f 48/48/48 47/47/47 46/46/46
f 49/49/49 48/48/48 46/46/46
f 52/52/52 51/51/51 50/50/50
f 53/53/53 52/52/52 50/50/50
f 56/56/56 55/55/55 54/54/54
f 57/57/57 56/56/56 54/54/54
