g LobbyIslandMDL
v 0.7814509 2.588191E-13 -0.5677573
v 0.9913177 -0.04994669 -0.7202345
v 1.165364 -0.04994669 -0.3786496
v 0.9186506 2.588191E-13 -0.2984877
v 0 1E-12 0
v 0.5677573 2.588191E-13 -0.7814509
v 0.9913177 -0.04994669 -0.7202345
v 0.7202344 -0.04994666 -0.9913175
v 1.272806 -0.1031641 -0.9247481
v 0.9247478 -0.103164 -1.272806
v 0.2984876 2.588191E-13 -0.9186505
v 0.7202344 -0.04994666 -0.9913175
v 0.3786495 -0.04994663 -1.165363
v 0 2.588191E-13 -0.9659263
v 0.9659258 2.588191E-13 0
v 0.3786495 -0.04994663 -1.165363
v 1.748066E-08 -0.04994668 -1.225336
v 1.225335 -0.04994665 3.829909E-08
v 1.165364 -0.04994669 -0.3786496
v -0.2984876 2.588191E-13 -0.9186504
v 1.748066E-08 -0.04994668 -1.225336
v -0.3786495 -0.04994664 -1.165363
v -0.5677572 2.588191E-13 -0.7814507
v -0.3786495 -0.04994664 -1.165363
v -0.7202342 -0.04994665 -0.9913172
v -0.7814506 2.588191E-13 -0.5677571
v -0.7202342 -0.04994665 -0.9913172
v -0.9913172 -0.04994665 -0.720234
v -0.9186503 2.588191E-13 -0.2984875
v -0.9913172 -0.04994665 -0.720234
v -1.165363 -0.04994663 -0.3786494
v -0.9659261 2.588191E-13 0
v -1.165363 -0.04994663 -0.3786494
v -1.225335 -0.04994665 3.829909E-08
v -0.9186503 2.588191E-13 0.2984875
v -1.225335 -0.04994665 3.829909E-08
v -1.165363 -0.04994663 0.3786494
v -0.7814506 2.588191E-13 0.5677571
v -0.5677571 2.588191E-13 0.7814505
v -1.165363 -0.04994663 0.3786494
v -0.9913175 -0.04994673 0.7202344
v -0.9913175 -0.04994673 0.7202344
v -0.720234 -0.04994664 0.9913172
v -1.272805 -0.1031641 0.9247478
v -0.9247474 -0.103164 1.272806
v -0.2984875 2.588191E-13 0.9186502
v -0.720234 -0.04994664 0.9913172
v -0.3786494 -0.04994663 1.165363
v -2.878683E-08 2.588191E-13 0.9659259
v -0.3786494 -0.04994663 1.165363
v -1.76296E-08 -0.04994665 1.225335
v 0.2984875 2.588191E-13 0.9186501
v -1.76296E-08 -0.04994665 1.225335
v 0.3786493 -0.04994661 1.165363
v 0.567757 2.588191E-13 0.7814505
v 0.3786493 -0.04994661 1.165363
v 0.720234 -0.04994666 0.991317
v 0.7814504 2.588191E-13 0.567757
v 0.720234 -0.04994666 0.991317
v 0.9913172 -0.0499467 0.7202342
v 0.9186501 2.588191E-13 0.2984875
v 0.9913172 -0.0499467 0.7202342
v 1.165363 -0.04994665 0.3786494
v 1.165363 -0.04994665 0.3786494
v 1.225335 -0.04994665 3.829909E-08
v 0.9913177 -0.04994669 -0.7202345
v 1.272806 -0.1031641 -0.9247481
v 1.496274 -0.103164 -0.4861687
v 1.165364 -0.04994669 -0.3786496
v 1.272806 -0.1031641 -0.9247481
v 1.72367 -0.1383124 -0.5600541
v 1.466241 -0.1383124 -1.065287
v 1.812372 -0.1383124 1.641253E-07
v 1.573273 -0.1031639 1.119917E-07
v 1.065287 -0.1383124 -1.466241
v 1.723668 -0.1383124 0.5600541
v 0.4861687 -0.103164 -1.496273
v 1.496272 -0.103164 0.4861685
v 0.5600542 -0.1383124 -1.723669
v 1.46624 -0.1383124 1.065286
v 4.972296E-08 -0.103164 -1.573275
v 7.589151E-08 -0.1383124 -1.812373
v -0.4861688 -0.1031641 -1.496273
v -0.5600542 -0.1383124 -1.723669
v 1.272806 -0.1031641 0.924748
v -0.9247481 -0.1031641 -1.272806
v 1.065286 -0.1383124 1.466241
v -1.065286 -0.1383124 -1.466241
v 0.9247472 -0.103164 1.272805
v 0.560054 -0.1383124 1.723669
v 0.4861685 -0.103164 1.496272
v 2.553894E-08 -0.1383124 1.812373
v 5.983551E-09 -0.103164 1.573274
v -0.560054 -0.1383124 1.723669
v -0.4861686 -0.103164 1.496272
v -1.065286 -0.1383124 1.466241
v -1.46624 -0.1383124 1.065286
v -1.272805 -0.1031641 0.9247478
v -1.723669 -0.1383124 0.5600542
v -1.496272 -0.103164 0.4861685
v -1.812372 -0.1383124 1.641253E-07
v -1.573274 -0.103164 1.119918E-07
v -1.723669 -0.1383124 -0.5600537
v -1.496272 -0.103164 -0.4861681
v -1.466241 -0.1383124 -1.065286
v -1.272806 -0.103164 -0.9247473
v -0.9913172 -0.04994665 -0.720234
v -0.7202342 -0.04994665 -0.9913172
v -1.165363 -0.04994663 -0.3786494
v -0.4861688 -0.1031641 -1.496273
v -1.496272 -0.103164 -0.4861681
v -1.225335 -0.04994665 3.829909E-08
v -1.573274 -0.103164 1.119918E-07
v -0.3786495 -0.04994664 -1.165363
v 4.972296E-08 -0.103164 -1.573275
v 1.748066E-08 -0.04994668 -1.225336
v 0.4861687 -0.103164 -1.496273
v 0.3786495 -0.04994663 -1.165363
v 0.4861687 -0.103164 -1.496273
v 0.9247478 -0.103164 -1.272806
v 0.7202344 -0.04994666 -0.9913175
v -1.165363 -0.04994663 0.3786494
v -1.496272 -0.103164 0.4861685
v -1.573274 -0.103164 1.119918E-07
v -1.225335 -0.04994665 3.829909E-08
v -0.9913175 -0.04994673 0.7202344
v -1.272805 -0.1031641 0.9247478
v -1.496272 -0.103164 0.4861685
v -1.165363 -0.04994663 0.3786494
v -0.3786494 -0.04994663 1.165363
v -0.4861686 -0.103164 1.496272
v -0.9247474 -0.103164 1.272806
v -0.720234 -0.04994664 0.9913172
v -1.76296E-08 -0.04994665 1.225335
v -0.4861686 -0.103164 1.496272
v 5.983551E-09 -0.103164 1.573274
v 0.3786493 -0.04994661 1.165363
v 0.4861685 -0.103164 1.496272
v 0.720234 -0.04994666 0.991317
v 0.9913172 -0.0499467 0.7202342
v 1.165363 -0.04994665 0.3786494
v 1.496272 -0.103164 0.4861685
v 1.225335 -0.04994665 3.829909E-08
v 1.573273 -0.1031639 1.119917E-07
v 1.165364 -0.04994669 -0.3786496
v 1.496274 -0.103164 -0.4861687
v 1.573273 -0.1031639 1.119917E-07
v 1.225335 -0.04994665 3.829909E-08
vt 0.5155708 0.764834
vt 0.5208898 0.8549557
vt 0.6295547 0.8311276
vt 0.596647 0.7470604
vt 0.5 0.4999999
vt 0.4329705 0.7566837
vt 0.5208898 0.8549557
vt 0.41018 0.8440382
vt 0.525489 0.9328085
vt 0.3904964 0.9195017
vt 0.3569315 0.7234074
vt 0.41018 0.8440382
vt 0.3082625 0.7994438
vt 0.294897 0.6682625
vt 0.6682625 0.7051027
vt 0.3082625 0.7994438
vt 0.2251135 0.7255378
vt 0.7255378 0.7748863
vt 0.6295547 0.8311276
vt 0.2529395 0.5966468
vt 0.2251135 0.7255378
vt 0.1688724 0.6295546
vt 0.235166 0.5155707
vt 0.1688724 0.6295546
vt 0.1450443 0.5208896
vt 0.2433163 0.4329704
vt 0.1450443 0.5208896
vt 0.1559618 0.4101799
vt 0.2765925 0.3569314
vt 0.1559618 0.4101799
vt 0.2005562 0.3082624
vt 0.3317375 0.294897
vt 0.2005562 0.3082624
vt 0.2744622 0.2251135
vt 0.4033531 0.2529395
vt 0.2744622 0.2251135
vt 0.3704453 0.1688723
vt 0.4844292 0.2351659
vt 0.5670295 0.2433162
vt 0.3704453 0.1688723
vt 0.4791103 0.1450442
vt 0.4791103 0.1450442
vt 0.58982 0.1559617
vt 0.4745111 0.0671915
vt 0.6095036 0.08049816
vt 0.6430684 0.2765924
vt 0.58982 0.1559617
vt 0.6917375 0.2005561
vt 0.7051029 0.3317373
vt 0.6917375 0.2005561
vt 0.7748865 0.274462
vt 0.7470604 0.403353
vt 0.7748865 0.274462
vt 0.8311275 0.3704453
vt 0.7648339 0.4844291
vt 0.8311275 0.3704453
vt 0.8549556 0.4791102
vt 0.7566837 0.5670294
vt 0.8549556 0.4791102
vt 0.8440382 0.5898198
vt 0.7234074 0.6430683
vt 0.8440382 0.5898198
vt 0.7994438 0.6917374
vt 0.7994438 0.6917374
vt 0.7255378 0.7748863
vt 0.5208898 0.8549557
vt 0.525489 0.9328085
vt 0.6579868 0.9037488
vt 0.6295547 0.8311276
vt 0.525489 0.9328085
vt 0.6822082 0.9656182
vt 0.5294062 0.9991345
vt 0.817174 0.8865234
vt 0.7750192 0.8351669
vt 0.373726 0.9837922
vt 0.9210927 0.7695935
vt 0.2662227 0.8651313
vt 0.8651313 0.7337771
vt 0.2304063 0.9210927
vt 0.9837922 0.6262738
vt 0.1648327 0.7750194
vt 0.1134762 0.817174
vt 0.09625122 0.6579865
vt 0.03438196 0.6822078
vt 0.9195019 0.6095034
vt 0.0671915 0.5254888
vt 0.9991345 0.4705937
vt 0.0008654352 0.5294061
vt 0.9328083 0.4745109
vt 0.965618 0.3177919
vt 0.9037485 0.3420134
vt 0.8865237 0.1828259
vt 0.8351672 0.2249805
vt 0.7695937 0.07890715
vt 0.7337772 0.1348686
vt 0.626274 0.0162077
vt 0.4705938 0.0008653746
vt 0.4745111 0.0671915
vt 0.3177921 0.0343819
vt 0.3420135 0.09625137
vt 0.1828261 0.1134763
vt 0.2249807 0.1648328
vt 0.07890733 0.2304062
vt 0.1348688 0.2662226
vt 0.01620785 0.3737259
vt 0.08049829 0.3904962
vt 0.1559618 0.4101799
vt 0.1450443 0.5208896
vt 0.2005562 0.3082624
vt 0.09625122 0.6579865
vt 0.1348688 0.2662226
vt 0.2744622 0.2251135
vt 0.2249807 0.1648328
vt 0.1688724 0.6295546
vt 0.1648327 0.7750194
vt 0.2251135 0.7255378
vt 0.2662227 0.8651313
vt 0.3082625 0.7994438
vt 0.2662227 0.8651313
vt 0.3904964 0.9195017
vt 0.41018 0.8440382
vt 0.3704453 0.1688723
vt 0.3420135 0.09625137
vt 0.2249807 0.1648328
vt 0.2744622 0.2251135
vt 0.4791103 0.1450442
vt 0.4745111 0.0671915
vt 0.3420135 0.09625137
vt 0.3704453 0.1688723
vt 0.6917375 0.2005561
vt 0.7337772 0.1348686
vt 0.6095036 0.08049816
vt 0.58982 0.1559617
vt 0.7748865 0.274462
vt 0.7337772 0.1348686
vt 0.8351672 0.2249805
vt 0.8311275 0.3704453
vt 0.9037485 0.3420134
vt 0.8549556 0.4791102
vt 0.8440382 0.5898198
vt 0.7994438 0.6917374
vt 0.8651313 0.7337771
vt 0.7255378 0.7748863
vt 0.7750192 0.8351669
vt 0.6295547 0.8311276
vt 0.6579868 0.9037488
vt 0.7750192 0.8351669
vt 0.7255378 0.7748863
vn 0.06619816 0.9966466 -0.04809578
vn 0.1704835 0.9815242 -0.08686572
vn 0.1704835 0.9815242 -0.08686572
vn 0.07782066 0.9966466 -0.02528538
vn 0 1 0
vn 0.04809575 0.9966466 -0.06619815
vn 0.1352965 0.9815242 -0.1352966
vn 0.1352965 0.9815242 -0.1352966
vn 0.1082105 0.9882211 -0.1082106
vn 0.1040962 0.9891046 -0.1040962
vn 0.02528542 0.9966466 -0.07782055
vn 0.08686569 0.9815242 -0.1704837
vn 0.08686569 0.9815242 -0.1704837
vn 0 0.9966466 -0.08182539
vn 0.08182537 0.9966466 0
vn 0.02993194 0.9815242 -0.1889825
vn 0.02993193 0.9815242 -0.1889825
vn 0.1889826 0.9815242 -0.02993147
vn 0.1889826 0.9815242 -0.02993147
vn -0.02528546 0.9966466 -0.07782058
vn -0.02993197 0.9815242 -0.1889826
vn -0.02993197 0.9815242 -0.1889826
vn -0.04809577 0.9966466 -0.06619813
vn -0.08686578 0.9815242 -0.1704836
vn -0.08686578 0.9815242 -0.1704836
vn -0.06619815 0.9966466 -0.04809575
vn -0.1352966 0.9815242 -0.1352966
vn -0.1352966 0.9815242 -0.1352966
vn -0.07782058 0.9966466 -0.02528543
vn -0.1704836 0.9815242 -0.08686571
vn -0.1704836 0.9815242 -0.08686571
vn -0.08182541 0.9966466 0
vn -0.1889826 0.9815242 -0.02993191
vn -0.1889827 0.9815242 -0.02993191
vn -0.07782059 0.9966466 0.02528545
vn -0.1889826 0.9815242 0.02993193
vn -0.1889826 0.9815242 0.02993193
vn -0.06619819 0.9966466 0.04809578
vn -0.04809575 0.9966466 0.06619815
vn -0.1704837 0.9815242 0.08686574
vn -0.1704837 0.9815242 0.08686575
vn -0.1352965 0.9815242 0.1352965
vn -0.1352965 0.9815242 0.1352965
vn -0.1082106 0.9882211 0.1082106
vn -0.1040961 0.9891046 0.1040962
vn -0.02528543 0.9966466 0.07782058
vn -0.08686567 0.9815242 0.1704837
vn -0.08686566 0.9815242 0.1704837
vn 0 0.9966466 0.08182541
vn -0.02993195 0.9815242 0.1889825
vn -0.02993195 0.9815242 0.1889825
vn 0.02528543 0.9966466 0.07782058
vn 0.02993196 0.9815242 0.1889826
vn 0.02993196 0.9815242 0.1889826
vn 0.04809577 0.9966466 0.06619818
vn 0.08686567 0.9815242 0.1704837
vn 0.08686567 0.9815242 0.1704836
vn 0.06619819 0.9966466 0.04809578
vn 0.1352966 0.9815242 0.1352966
vn 0.1352966 0.9815242 0.1352966
vn 0.07782063 0.9966466 0.02528545
vn 0.1704837 0.9815242 0.0868657
vn 0.1704837 0.9815242 0.08686572
vn 0.1889826 0.9815242 0.02993193
vn 0.1889826 0.9815242 0.02993193
vn 0.1363532 0.9882211 -0.06947551
vn 0.1363532 0.9882211 -0.06947551
vn 0.1311689 0.9891046 -0.06683402
vn 0.1363532 0.9882211 -0.06947551
vn 0.1311689 0.9891046 -0.06683402
vn 0.1311689 0.9891046 -0.06683402
vn 0.1311689 0.9891046 -0.06683402
vn 0.1454021 0.9891046 0.02302936
vn 0.1454021 0.9891046 0.02302936
vn 0.1040962 0.9891046 -0.1040962
vn 0.131169 0.9891046 0.06683382
vn 0.06683376 0.9891046 -0.131169
vn 0.131169 0.9891046 0.06683382
vn 0.06683376 0.9891046 -0.1311689
vn 0.1040961 0.9891046 0.1040961
vn 0.02302951 0.9891046 -0.145402
vn 0.02302951 0.9891046 -0.145402
vn -0.0230295 0.9891046 -0.145402
vn -0.0230295 0.9891046 -0.145402
vn 0.1040961 0.9891046 0.1040961
vn -0.06683389 0.9891046 -0.1311691
vn 0.0668338 0.9891046 0.131169
vn -0.06683388 0.9891046 -0.1311691
vn 0.0668338 0.9891046 0.131169
vn 0.0230295 0.9891046 0.145402
vn 0.0230295 0.9891046 0.145402
vn -0.02302952 0.9891046 0.1454019
vn -0.02302951 0.9891046 0.1454019
vn -0.06683378 0.9891046 0.131169
vn -0.06683378 0.9891046 0.131169
vn -0.1040962 0.9891046 0.1040962
vn -0.131169 0.9891046 0.06683388
vn -0.131169 0.9891046 0.06683387
vn -0.1454021 0.9891046 0.02302937
vn -0.1454021 0.9891046 0.02302937
vn -0.145402 0.9891046 -0.02302937
vn -0.145402 0.9891046 -0.02302937
vn -0.131169 0.9891046 -0.06683381
vn -0.131169 0.9891046 -0.06683381
vn -0.1040963 0.9891046 -0.1040961
vn -0.1040963 0.9891046 -0.1040961
vn -0.1082107 0.9882211 -0.1082105
vn -0.06947542 0.9882211 -0.1363533
vn -0.1363534 0.988221 -0.06947544
vn -0.02393973 0.9882211 -0.1511488
vn -0.1363534 0.988221 -0.06947543
vn -0.151149 0.988221 -0.02393963
vn -0.151149 0.988221 -0.02393963
vn -0.02393973 0.9882211 -0.1511488
vn 0.0239397 0.9882211 -0.1511488
vn 0.02393971 0.9882211 -0.1511488
vn 0.02393971 0.9882211 -0.1511488
vn 0.06947547 0.988221 -0.1363534
vn 0.06947548 0.988221 -0.1363534
vn 0.06947548 0.988221 -0.1363534
vn 0.06947548 0.988221 -0.1363533
vn -0.1511489 0.988221 0.02393961
vn -0.1511489 0.988221 0.02393961
vn -0.1511489 0.988221 0.02393961
vn -0.1511489 0.988221 0.02393961
vn -0.1363533 0.9882211 0.06947546
vn -0.1363533 0.9882211 0.06947548
vn -0.1363533 0.9882211 0.06947547
vn -0.1363533 0.9882211 0.06947546
vn -0.06947546 0.988221 0.1363534
vn -0.06947546 0.988221 0.1363534
vn -0.06947546 0.988221 0.1363534
vn -0.06947546 0.988221 0.1363534
vn -0.02393975 0.988221 0.1511488
vn -0.02393975 0.988221 0.1511488
vn -0.02393975 0.9882211 0.1511488
vn 0.02393971 0.9882211 0.1511488
vn 0.02393971 0.9882211 0.1511488
vn 0.06947553 0.988221 0.1363533
vn 0.1082106 0.9882211 0.1082106
vn 0.1363534 0.988221 0.06947546
vn 0.1363534 0.988221 0.06947545
vn 0.1511489 0.988221 0.02393961
vn 0.1511489 0.988221 0.02393961
vn 0.1511488 0.9882211 -0.02393915
vn 0.1511488 0.9882211 -0.02393916
vn 0.1511488 0.9882211 -0.02393916
vn 0.1511488 0.9882211 -0.02393915
g LobbyIslandMDL_0
f 3/3/3 2/2/2 1/1/1
f 4/4/4 3/3/3 1/1/1
f 5/5/5 4/4/4 1/1/1
f 5/5/5 1/1/1 6/6/6
f 1/1/1 7/7/7 6/6/6
f 7/7/7 8/8/8 6/6/6
f 7/7/7 9/9/9 8/8/8
f 9/9/9 10/10/10 8/8/8
f 5/5/5 6/6/6 11/11/11
f 6/6/6 12/12/12 11/11/11
f 12/12/12 13/13/13 11/11/11
f 5/5/5 11/11/11 14/14/14
f 5/5/5 15/15/15 4/4/4
f 11/11/11 16/16/16 14/14/14
f 16/16/16 17/17/17 14/14/14
f 15/15/15 18/18/18 4/4/4
f 18/18/18 19/19/19 4/4/4
f 5/5/5 14/14/14 20/20/20
f 14/14/14 21/21/21 20/20/20
f 21/21/21 22/22/22 20/20/20
f 5/5/5 20/20/20 23/23/23
f 20/20/20 24/24/24 23/23/23
f 24/24/24 25/25/25 23/23/23
f 5/5/5 23/23/23 26/26/26
f 23/23/23 27/27/27 26/26/26
f 27/27/27 28/28/28 26/26/26
f 5/5/5 26/26/26 29/29/29
f 26/26/26 30/30/30 29/29/29
f 30/30/30 31/31/31 29/29/29
f 5/5/5 29/29/29 32/32/32
f 29/29/29 33/33/33 32/32/32
f 33/33/33 34/34/34 32/32/32
f 5/5/5 32/32/32 35/35/35
f 32/32/32 36/36/36 35/35/35
f 36/36/36 37/37/37 35/35/35
f 5/5/5 35/35/35 38/38/38
f 5/5/5 38/38/38 39/39/39
f 35/35/35 40/40/40 38/38/38
f 40/40/40 41/41/41 38/38/38
f 38/38/38 42/42/42 39/39/39
f 42/42/42 43/43/43 39/39/39
f 42/42/42 44/44/44 43/43/43
f 44/44/44 45/45/45 43/43/43
f 5/5/5 39/39/39 46/46/46
f 39/39/39 47/47/47 46/46/46
f 47/47/47 48/48/48 46/46/46
f 5/5/5 46/46/46 49/49/49
f 46/46/46 50/50/50 49/49/49
f 50/50/50 51/51/51 49/49/49
f 5/5/5 49/49/49 52/52/52
f 49/49/49 53/53/53 52/52/52
f 53/53/53 54/54/54 52/52/52
f 5/5/5 52/52/52 55/55/55
f 52/52/52 56/56/56 55/55/55
f 56/56/56 57/57/57 55/55/55
f 5/5/5 55/55/55 58/58/58
f 55/55/55 59/59/59 58/58/58
f 59/59/59 60/60/60 58/58/58
f 5/5/5 58/58/58 61/61/61
f 58/58/58 62/62/62 61/61/61
f 62/62/62 63/63/63 61/61/61
f 5/5/5 61/61/61 15/15/15
f 61/61/61 64/64/64 15/15/15
f 64/64/64 65/65/65 15/15/15
f 68/68/68 67/67/67 66/66/66
f 69/69/69 68/68/68 66/66/66
f 68/68/68 71/71/71 70/70/70
f 71/71/71 72/72/72 70/70/70
f 73/73/73 71/71/71 68/68/68
f 70/70/70 72/72/72 10/10/10
f 74/74/74 73/73/73 68/68/68
f 72/72/72 75/75/75 10/10/10
f 76/76/76 73/73/73 74/74/74
f 10/10/10 75/75/75 77/77/77
f 78/78/78 76/76/76 74/74/74
f 75/75/75 79/79/79 77/77/77
f 80/80/80 76/76/76 78/78/78
f 77/77/77 79/79/79 81/81/81
f 79/79/79 82/82/82 81/81/81
f 81/81/81 82/82/82 83/83/83
f 82/82/82 84/84/84 83/83/83
f 85/85/85 80/80/80 78/78/78
f 83/83/83 84/84/84 86/86/86
f 87/87/87 80/80/80 85/85/85
f 84/84/84 88/88/88 86/86/86
f 89/89/89 87/87/87 85/85/85
f 90/90/90 87/87/87 89/89/89
f 91/91/91 90/90/90 89/89/89
f 92/92/92 90/90/90 91/91/91
f 93/93/93 92/92/92 91/91/91
f 94/94/94 92/92/92 93/93/93
f 95/95/95 94/94/94 93/93/93
f 96/96/96 94/94/94 95/95/95
f 45/45/45 96/96/96 95/95/95
f 97/97/97 96/96/96 45/45/45
f 98/98/98 97/97/97 45/45/45
f 99/99/99 97/97/97 98/98/98
f 100/100/100 99/99/99 98/98/98
f 101/101/101 99/99/99 100/100/100
f 102/102/102 101/101/101 100/100/100
f 103/103/103 101/101/101 102/102/102
f 104/104/104 103/103/103 102/102/102
f 105/105/105 103/103/103 104/104/104
f 106/106/106 105/105/105 104/104/104
f 88/88/88 105/105/105 106/106/106
f 86/86/86 88/88/88 106/106/106
f 86/86/86 106/106/106 107/107/107
f 108/108/108 86/86/86 107/107/107
f 107/107/107 106/106/106 109/109/109
f 110/110/110 86/86/86 108/108/108
f 106/106/106 111/111/111 109/109/109
f 109/109/109 111/111/111 112/112/112
f 111/111/111 113/113/113 112/112/112
f 114/114/114 110/110/110 108/108/108
f 115/115/115 110/110/110 114/114/114
f 116/116/116 115/115/115 114/114/114
f 117/117/117 115/115/115 116/116/116
f 118/118/118 117/117/117 116/116/116
f 120/120/120 119/119/119 118/118/118
f 121/121/121 120/120/120 118/118/118
f 124/124/124 123/123/123 122/122/122
f 125/125/125 124/124/124 122/122/122
f 128/128/128 127/127/127 126/126/126
f 129/129/129 128/128/128 126/126/126
f 132/132/132 131/131/131 130/130/130
f 133/133/133 132/132/132 130/130/130
f 130/130/130 135/135/135 134/134/134
f 135/135/135 136/136/136 134/134/134
f 134/134/134 136/136/136 137/137/137
f 136/136/136 138/138/138 137/137/137
f 137/137/137 138/138/138 139/139/139
f 138/138/138 89/89/89 139/139/139
f 139/139/139 89/89/89 140/140/140
f 89/89/89 85/85/85 140/140/140
f 140/140/140 85/85/85 141/141/141
f 85/85/85 142/142/142 141/141/141
f 141/141/141 142/142/142 143/143/143
f 142/142/142 144/144/144 143/143/143
f 147/147/147 146/146/146 145/145/145
f 148/148/148 147/147/147 145/145/145
