g lock002
v 4.139766 4.438962 -0.1493328
v 3.376025 -3.737479 -0.9491631
v 4.118949 -3.21066 -0.1493328
v 3.572102 4.156706 -1.035477
v 2.338627 -3.540614 -0.9491631
v 2.506706 6.278721 -0.1493328
v 2.433133 3.57875 -1.035477
v 1.646045 -2.893193 -0.1493328
v 1.861828 3.28305 -0.1493328
v 1.239209 4.463888 -0.1493328
v 1.556083 4.917596 -1.025529
v 0.09143922 4.822812 -0.1493328
v 0.1054383 5.401748 -1.025529
v 2.189832 5.825013 -1.025529
v 0.1334363 6.559619 -1.025529
v 0.1474353 7.138555 -0.1493328
v 0.1054383 5.401748 0.7268638
v 1.239209 4.463888 -0.1493328
v 0.09143922 4.822812 -0.1493328
v 1.556083 4.917596 0.7268638
v 0.1334363 6.559619 0.7268638
v 1.861828 3.28305 -0.1493328
v 2.189832 5.825013 0.7268638
v 0.1474353 7.138555 -0.1493328
v 2.506706 6.278721 -0.1493328
v 4.139766 4.438962 -0.1493328
v 2.433133 3.57875 0.7368114
v 3.572102 4.156706 0.7368114
v 4.118949 -3.21066 -0.1493328
v 3.376025 -3.737479 0.6504975
v 2.338627 -3.540614 0.6504975
v 1.646045 -2.893193 -0.1493328
v -2.250636 6.393756 -0.1493328
v 0.1334363 6.559619 -1.025529
v 0.1474353 7.138555 -0.1493328
v -1.956061 5.925263 -1.025529
v -1.366911 4.988276 -1.025529
v 0.1054383 5.401748 -1.025529
v -3.417349 4.325717 -1.035477
v -3.970706 4.635083 -0.1493328
v -4.319646 -3.006609 -0.1493328
v -3.603052 -3.568721 -0.9491631
v -2.307648 3.693383 -1.035477
v -2.557351 -3.422227 -0.9491631
v -1.751304 3.370414 -0.1493328
v -1.834287 -2.809036 -0.1493328
v -1.072336 4.519783 -0.1493328
v 0.09143922 4.822812 -0.1493328
v -3.603052 -3.568721 -0.9491631
v -1.834287 -2.809036 -0.1493328
v -2.557351 -3.422227 -0.9491631
v -4.319646 -3.006609 -0.1493328
v -2.557351 -3.422227 0.6504975
v -3.603052 -3.568721 0.6504975
v 2.338627 -3.540614 -0.9491631
v 4.118949 -3.21066 -0.1493328
v 3.376025 -3.737479 -0.9491631
v 1.646045 -2.893193 -0.1493328
v 3.376025 -3.737479 0.6504975
v 2.338627 -3.540614 0.6504975
v 4.973598 1.392799 1.747068
v -4.974395 -5.064353 1.747068
v -4.812535 1.629433 1.747068
v 4.811738 -5.300988 1.747068
v -3.14078 -6.988841 1.747068
v 2.88725 -7.134603 1.747068
v 4.973598 1.392799 -1.760361
v 4.811738 -5.300988 1.747068
v 4.973598 1.392799 1.747068
v 4.811738 -5.300988 -1.760361
v 4.811738 -5.300988 -1.760361
v -3.14078 -6.988841 -1.760361
v 2.88725 -7.134603 -1.760361
v -4.974395 -5.064353 -1.760361
v 4.973598 1.392799 -1.760361
v -4.812535 1.629433 -1.760361
v -4.812535 1.629433 1.747068
v -4.974395 -5.064353 -1.760361
v -4.812535 1.629433 -1.760361
v -4.974395 -5.064353 1.747068
v 4.973598 1.392799 -1.760361
v -4.812535 1.629433 1.747068
v -4.812535 1.629433 -1.760361
v 4.973598 1.392799 1.747068
v -4.319646 -3.006609 -0.1493328
v -3.970706 4.635083 -0.1493328
v -3.603052 -3.568721 0.6504975
v -3.417349 4.325717 0.7368114
v -2.557351 -3.422227 0.6504975
v -1.956061 5.925263 0.7268638
v -2.250636 6.393756 -0.1493328
v 0.1474353 7.138555 -0.1493328
v 0.1334363 6.559619 0.7268638
v 0.1054383 5.401748 0.7268638
v -1.366911 4.988276 0.7268638
v 0.09143922 4.822812 -0.1493328
v -1.072336 4.519783 -0.1493328
v -2.307648 3.693383 0.7368114
v -1.834287 -2.809036 -0.1493328
v -1.751304 3.370414 -0.1493328
v -4.974395 -5.064353 -1.760361
v -4.974395 -5.064353 1.747068
v -3.14078 -6.988841 -1.760361
v -3.14078 -6.988841 1.747068
v 2.88725 -7.134603 1.747068
v 2.88725 -7.134603 -1.760361
v 4.811738 -5.300988 -1.760361
v 4.811738 -5.300988 1.747068
vt 0.7980474 0.2407305
vt 0.8540178 0.2687458
vt 0.8540178 0.2400152
vt 0.7997437 0.269411
vt 0.8540178 0.2974766
vt 0.7590349 0.2411636
vt 0.8014403 0.2980917
vt 0.8540178 0.3262072
vt 0.8031366 0.3267719
vt 0.7687877 0.3268867
vt 0.7655368 0.2983125
vt 0.74063 0.3273682
vt 0.7343171 0.2994427
vt 0.7622858 0.2697379
vt 0.7280043 0.2708017
vt 0.7188306 0.2407305
vt 0.7343171 0.2994427
vt 0.7687877 0.3268867
vt 0.74063 0.3273682
vt 0.7655368 0.2983125
vt 0.7280043 0.270802
vt 0.8031366 0.3267719
vt 0.762286 0.2697381
vt 0.7188306 0.2407305
vt 0.7590349 0.2411636
vt 0.7980474 0.2407305
vt 0.8014403 0.2980915
vt 0.7997437 0.2694111
vt 0.8540178 0.2400152
vt 0.8540178 0.268746
vt 0.8540178 0.2974765
vt 0.8540178 0.3262072
vt 0.7590349 0.2411636
vt 0.7280043 0.2708017
vt 0.7188306 0.2407305
vt 0.7622858 0.2697379
vt 0.7655368 0.2983125
vt 0.7343171 0.2994427
vt 0.7997437 0.269411
vt 0.7980474 0.2407306
vt 0.8540178 0.2400152
vt 0.8540178 0.2687458
vt 0.8014403 0.2980917
vt 0.8540178 0.2974766
vt 0.8031366 0.326772
vt 0.8540178 0.3262075
vt 0.7687877 0.3268867
vt 0.74063 0.3273682
vt 0.4626852 0.1809023
vt 0.49282 0.1608125
vt 0.482775 0.1809023
vt 0.4526404 0.1608125
vt 0.482775 0.1407227
vt 0.4626852 0.1407227
vt 0.4626852 0.1809023
vt 0.49282 0.1608125
vt 0.482775 0.1809023
vt 0.4526404 0.1608125
vt 0.482775 0.1407227
vt 0.4626852 0.1407227
vt 0.5342212 0.2022754
vt 0.4250417 0.127596
vt 0.4250417 0.2022754
vt 0.5342212 0.127596
vt 0.4459115 0.1066102
vt 0.5132349 0.1066102
vt 0.4250417 0.2022754
vt 0.3859227 0.127596
vt 0.3859227 0.2022753
vt 0.4250417 0.127596
vt 0.4249254 0.127596
vt 0.5132349 0.1066102
vt 0.4459115 0.1066102
vt 0.5342212 0.127596
vt 0.4250417 0.2022754
vt 0.5342212 0.2022754
vt 0.4250417 0.2022754
vt 0.3859227 0.127596
vt 0.3859227 0.2022753
vt 0.4250417 0.127596
vt 0.4241088 0.2136658
vt 0.5332881 0.252785
vt 0.5332881 0.2136658
vt 0.4241088 0.252785
vt 0.8540178 0.2400152
vt 0.7980474 0.2407306
vt 0.8540178 0.268746
vt 0.7997437 0.2694111
vt 0.8540178 0.2974766
vt 0.762286 0.2697381
vt 0.7590349 0.2411636
vt 0.7188306 0.2407305
vt 0.7280043 0.270802
vt 0.7343171 0.2994427
vt 0.7655368 0.2983125
vt 0.74063 0.3273682
vt 0.7687877 0.3268867
vt 0.8014403 0.2980917
vt 0.8540178 0.3262075
vt 0.8031366 0.326772
vt 0.5350173 0.3049893
vt 0.5350173 0.2658703
vt 0.5140539 0.3049893
vt 0.5140539 0.2658703
vt 0.446802 0.2658703
vt 0.446802 0.3049893
vt 0.4258383 0.3049893
vt 0.4258383 0.2658703
vn 0.9350686 0.3544039 -0.006681895
vn 0.3600945 -0.00900294 -0.9328724
vn 0.9997771 -0.01761825 -0.01163493
vn 0.5081683 0.1694777 -0.8444182
vn -0.3086515 -0.006673376 -0.9511518
vn 0.566303 0.8241858 -0.004312159
vn -0.3745995 -0.1065703 -0.9210418
vn -0.9997168 0.02002722 0.0128495
vn -0.9758194 -0.2185403 -0.004070301
vn -0.6390132 -0.7690925 -0.01260896
vn -0.2403588 -0.3132775 -0.9187409
vn -0.02417352 -0.9997078 0
vn -0.0114617 -0.3999636 -0.9164593
vn 0.3090362 0.4442188 -0.8409318
vn 0.01311836 0.5425156 -0.8399432
vn 0.0241735 0.9997067 -0.001422112
vn -0.00788317 -0.4000502 0.9164593
vn -0.6390132 -0.7690925 -0.01260896
vn -0.02417352 -0.9997078 0
vn -0.2448052 -0.3012729 0.9215775
vn 0.01308655 0.5411974 0.8407937
vn -0.9758194 -0.2185403 -0.004070301
vn 0.3020702 0.4444703 0.8433266
vn 0.0241735 0.9997067 -0.001422112
vn 0.566303 0.8241858 -0.004312159
vn 0.9350686 0.3544039 -0.006681895
vn -0.3646126 -0.117336 0.923737
vn 0.5021527 0.1693411 0.8480367
vn 0.9997771 -0.01761825 -0.01163493
vn 0.3564202 -0.01972821 0.9341174
vn -0.3120188 0.001072385 0.9500754
vn -0.9997168 0.02002722 0.0128495
vn -0.5258056 0.8505938 -0.004312233
vn 0.01311836 0.5425156 -0.8399432
vn 0.0241735 0.9997067 -0.001422112
vn -0.2871316 0.4588904 -0.8408182
vn 0.2299576 -0.3127528 -0.9215776
vn -0.0114617 -0.3999636 -0.9164593
vn -0.4932891 0.2009044 -0.846347
vn -0.9168664 0.3991938 -0.0004984098
vn -0.9994602 0.03072478 0.01163494
vn -0.3569572 -0.002478241 -0.9341174
vn 0.3585154 -0.1348218 -0.9237369
vn 0.311706 -0.01400956 -0.9500753
vn 0.9641165 -0.2654485 0.004070214
vn 0.9995164 -0.0283152 -0.01284969
vn 0.6010939 -0.799079 0.01260897
vn -0.02417352 -0.9997078 0
vn 0.07490957 -0.8004866 0.594651
vn 0.0927791 -0.9956712 0.005571237
vn 0.1171824 -0.8364669 0.5353423
vn 0.09313902 -0.9956344 0.006103768
vn 0.0753839 -0.8071481 -0.5855162
vn 0.1072658 -0.7656801 -0.6342145
vn -0.1143076 -0.8025613 0.5855162
vn -0.1411521 -0.9899691 -0.00610371
vn -0.1441479 -0.7596008 0.6342145
vn -0.1407944 -0.9900232 -0.005571296
vn -0.1135119 -0.7959304 -0.5946511
vn -0.1574744 -0.8298255 -0.5353423
vn 0 0 1
vn 0 0 1
vn 0 0 1
vn 0 0 1
vn 0 0 1
vn 0 0 1
vn 0.9997078 -0.02417351 0
vn 0.9143587 -0.404905 0
vn 0.9997078 -0.02417352 0
vn 0.9143587 -0.404905 0
vn 0 0 -1
vn 0 0 -1
vn 0 0 -1
vn 0 0 -1
vn 0 0 -1
vn 0 0 -1
vn -0.9997078 0.02417356 0
vn -0.9328604 -0.3602382 0
vn -0.9997078 0.02417356 0
vn -0.9328604 -0.3602381 0
vn 0.02417356 0.9997078 0
vn 0.02417356 0.9997078 0
vn 0.02417356 0.9997078 0
vn 0.02417356 0.9997078 0
vn -0.9994602 0.03072478 0.01163494
vn -0.9168664 0.3991938 -0.0004984098
vn -0.3601086 0.008412124 0.9328724
vn -0.4994287 0.1863301 0.8460805
vn 0.3079682 -0.02158358 0.9511518
vn -0.2803062 0.4582981 0.8434402
vn -0.5258056 0.8505938 -0.004312233
vn 0.0241735 0.9997067 -0.001422112
vn 0.01308655 0.5411974 0.8407937
vn -0.00788317 -0.4000502 0.9164593
vn 0.2249362 -0.3245285 0.9187409
vn -0.02417352 -0.9997078 0
vn 0.6010939 -0.799079 0.01260897
vn 0.369011 -0.1245514 0.9210418
vn 0.9995164 -0.0283152 -0.01284969
vn 0.9641165 -0.2654485 0.004070214
vn -0.9328604 -0.3602382 0
vn -0.9328604 -0.3602381 0
vn -0.4049051 -0.9143587 0
vn -0.4049051 -0.9143587 0
vn 0.3602381 -0.9328604 0
vn 0.3602382 -0.9328604 0
vn 0.9143587 -0.404905 0
vn 0.9143587 -0.404905 0
g lock002_0
f 3/3/3 2/2/2 1/1/1
f 1/1/1 2/2/2 4/4/4
f 5/5/5 4/4/4 2/2/2
f 1/1/1 4/4/4 6/6/6
f 7/7/7 4/4/4 5/5/5
f 8/8/8 7/7/7 5/5/5
f 9/9/9 7/7/7 8/8/8
f 9/9/9 10/10/10 7/7/7
f 7/7/7 10/10/10 11/11/11
f 7/7/7 11/11/11 4/4/4
f 12/12/12 11/11/11 10/10/10
f 13/13/13 11/11/11 12/12/12
f 4/4/4 11/11/11 14/14/14
f 13/13/13 14/14/14 11/11/11
f 6/6/6 4/4/4 14/14/14
f 15/15/15 14/14/14 13/13/13
f 15/15/15 6/6/6 14/14/14
f 16/16/16 6/6/6 15/15/15
f 19/19/19 18/18/18 17/17/17
f 17/17/17 18/18/18 20/20/20
f 17/17/17 20/20/20 21/21/21
f 22/22/22 20/20/20 18/18/18
f 21/21/21 20/20/20 23/23/23
f 21/21/21 23/23/23 24/24/24
f 24/24/24 23/23/23 25/25/25
f 23/23/23 26/26/26 25/25/25
f 27/27/27 20/20/20 22/22/22
f 27/27/27 23/23/23 20/20/20
f 28/28/28 26/26/26 23/23/23
f 28/28/28 23/23/23 27/27/27
f 28/28/28 29/29/29 26/26/26
f 30/30/30 29/29/29 28/28/28
f 28/28/28 27/27/27 30/30/30
f 30/30/30 27/27/27 31/31/31
f 27/27/27 22/22/22 31/31/31
f 31/31/31 22/22/22 32/32/32
f 35/35/35 34/34/34 33/33/33
f 33/33/33 34/34/34 36/36/36
f 34/34/34 37/37/37 36/36/36
f 38/38/38 37/37/37 34/34/34
f 39/39/39 33/33/33 36/36/36
f 40/40/40 33/33/33 39/39/39
f 40/40/40 39/39/39 41/41/41
f 41/41/41 39/39/39 42/42/42
f 39/39/39 36/36/36 43/43/43
f 43/43/43 42/42/42 39/39/39
f 43/43/43 36/36/36 37/37/37
f 44/44/44 42/42/42 43/43/43
f 45/45/45 44/44/44 43/43/43
f 43/43/43 37/37/37 45/45/45
f 46/46/46 44/44/44 45/45/45
f 45/45/45 37/37/37 47/47/47
f 38/38/38 47/47/47 37/37/37
f 48/48/48 47/47/47 38/38/38
f 51/51/51 50/50/50 49/49/49
f 49/49/49 50/50/50 52/52/52
f 53/53/53 52/52/52 50/50/50
f 54/54/54 52/52/52 53/53/53
f 57/57/57 56/56/56 55/55/55
f 55/55/55 56/56/56 58/58/58
f 56/56/56 59/59/59 58/58/58
f 58/58/58 59/59/59 60/60/60
f 63/63/63 62/62/62 61/61/61
f 61/61/61 62/62/62 64/64/64
f 65/65/65 64/64/64 62/62/62
f 66/66/66 64/64/64 65/65/65
f 69/69/69 68/68/68 67/67/67
f 67/67/67 68/68/68 70/70/70
f 73/73/73 72/72/72 71/71/71
f 71/71/71 72/72/72 74/74/74
f 71/71/71 74/74/74 75/75/75
f 75/75/75 74/74/74 76/76/76
f 79/79/79 78/78/78 77/77/77
f 77/77/77 78/78/78 80/80/80
f 83/83/83 82/82/82 81/81/81
f 81/81/81 82/82/82 84/84/84
f 87/87/87 86/86/86 85/85/85
f 88/88/88 86/86/86 87/87/87
f 87/87/87 89/89/89 88/88/88
f 88/88/88 90/90/90 86/86/86
f 86/86/86 90/90/90 91/91/91
f 90/90/90 92/92/92 91/91/91
f 93/93/93 92/92/92 90/90/90
f 93/93/93 90/90/90 94/94/94
f 94/94/94 90/90/90 95/95/95
f 88/88/88 95/95/95 90/90/90
f 94/94/94 95/95/95 96/96/96
f 96/96/96 95/95/95 97/97/97
f 88/88/88 89/89/89 98/98/98
f 98/98/98 95/95/95 88/88/88
f 98/98/98 97/97/97 95/95/95
f 89/89/89 99/99/99 98/98/98
f 100/100/100 97/97/97 98/98/98
f 98/98/98 99/99/99 100/100/100
f 103/103/103 102/102/102 101/101/101
f 104/104/104 102/102/102 103/103/103
f 104/104/104 103/103/103 105/105/105
f 105/105/105 103/103/103 106/106/106
f 106/106/106 107/107/107 105/105/105
f 105/105/105 107/107/107 108/108/108
