g middle_clouds_2
v -236.8416 102.0666 -21.64884
v -228.808 102.0666 42.95455
v -228.808 127.9029 42.95455
v -236.8416 127.9029 -21.64884
v -68.26341 94.07342 -217.6551
v -132.3288 94.07342 -173.2215
v -132.3288 119.9097 -173.2215
v -68.26341 119.9097 -217.6551
v 142.2563 20.20307 201.225
v 85.83988 51.67969 223.3998
v 85.83988 20.20307 223.3998
v 142.2563 51.67969 201.225
v 179.4038 51.67969 153.323
v 179.4038 20.20307 153.323
v 186.0882 71.65968 156.1828
v 212.331 71.65968 104.9568
v 212.331 97.49593 104.9568
v 186.0882 97.49593 156.1828
v -11.08858 135.5581 246.5883
v 51.58471 135.5581 245.2276
v 51.58471 161.3943 245.2276
v -11.08858 161.3943 246.5883
v -84.83968 115.4711 214.6735
v -51.81024 115.4711 221.7421
v -51.81024 129.6035 221.7421
v -84.83968 129.6035 214.6735
v -168.31 96.49276 157.6296
v -128.1467 96.49276 198.664
v -128.1467 122.329 198.664
v -168.31 122.329 157.6296
v 190.6679 67.10004 144.9623
v 220.3932 67.10004 78.05515
v 220.3932 97.69017 78.05515
v 190.6679 97.69017 144.9623
v -46.93037 39.04271 235.4595
v 15.09215 39.04271 240.3128
v 15.09215 60.59518 240.3128
v -46.93037 60.59518 235.4595
v -163.1398 83.02653 -149.0376
v -197.997 83.02653 -88.67457
v -197.997 108.8628 -88.67457
v -163.1398 108.8628 -149.0376
v 47.93134 90.35245 236.6053
v 110.5539 90.35245 218.8134
v 110.5539 116.1887 218.8134
v 47.93134 116.1887 236.6053
v -235.144 25.99359 16.65503
v -193.2477 25.99359 128.1772
v -193.2477 65.47138 128.1772
v -235.144 65.47138 16.65503
v -239.9942 76.5676 -57.60698
v -241.9335 76.5676 -3.996075
v -241.9335 102.4039 -3.996075
v -239.9942 102.4039 -57.60698
v 187.0656 88.0737 -143.0112
v 132.7245 88.0737 -186.6664
v 132.7245 113.91 -186.6664
v 187.0656 113.91 -143.0112
v -86.48772 41.11073 -221.3909
v -130.0853 41.11073 -198.6342
v -130.0853 60.98804 -198.6342
v -86.48772 60.98804 -221.3909
v 200.9866 94.81749 -143.5601
v 152.6932 94.81749 -181.3013
v 152.6932 120.6537 -181.3013
v 200.9866 120.6537 -143.5601
v 75.49434 84.49319 224.0329
v 121.7208 84.49319 207.2478
v 121.7208 104.3705 207.2478
v 75.49434 104.3705 224.0329
v -126.2865 23.11426 186.1897
v -66.64471 23.11426 222.2671
v -66.64471 48.95051 222.2671
v -126.2865 48.95051 186.1897
v 244.1012 53.34616 -23.92225
v 227.5863 53.34616 -86.89362
v 227.5863 79.18241 -86.89362
v 244.1012 79.18241 -23.92225
v -219.2436 38.13126 -60.60913
v -225.3098 38.13126 0.8423757
v -225.3098 63.96751 0.8423757
v -219.2436 63.96751 -60.60913
v -154.3439 28.6817 -167.1516
v -185.2107 28.6817 -118.5715
v -185.2107 54.51795 -118.5715
v -154.3439 54.51795 -167.1516
v 8.9801 57.05781 -239.2185
v -53.33995 57.05781 -232.4358
v -53.33995 82.89407 -232.4358
v 8.9801 82.89407 -239.2185
v -220.3628 80.52386 87.32217
v -202.6414 80.52386 133.1978
v -202.6414 100.4012 133.1978
v -220.3628 100.4012 87.32217
v -126.7277 142.5949 -191.7809
v -159.3651 142.5949 -158.5103
v -159.3651 159.6831 -158.5103
v -126.7277 159.6831 -191.7809
v 91.17523 110.302 -216.5198
v 45.74638 110.302 -230.6066
v 45.74638 136.1383 -230.6066
v 91.17523 136.1383 -216.5198
v 160.1033 128.6564 178.7887
v 202.6446 128.6564 123.5713
v 202.6446 154.4927 123.5713
v 160.1033 154.4927 178.7887
v -28.41261 135.9823 -231.7241
v -90.82819 135.9823 -213.2192
v -90.82819 161.8186 -213.2192
v -28.41261 161.8186 -231.7241
v 241.8334 116.638 -40.7866
v 206.3535 116.638 -110.2121
v 206.3535 142.4742 -110.2121
v 241.8334 142.4742 -40.7866
v 221.6749 124.2231 65.22472
v 222.4963 124.2231 4.006866
v 222.4963 150.0593 4.006866
v 221.6749 150.0593 65.22472
v -196.3257 58.34539 150.0647
v -153.0238 58.34539 195.1947
v -153.0238 84.44463 195.1947
v -196.3257 84.44463 150.0647
v -220.3425 160.1928 -52.37423
v -232.7081 160.1928 9.082145
v -232.7081 186.0291 9.082145
v -220.3425 186.0291 -52.37423
vt 0.8574424 0.5954716
vt 0.8567002 0.2492162
vt 0.989993 0.2492162
vt 0.9907352 0.5954716
vt 0.3587012 0.08632195
vt 0.01243482 0.08632195
vt 0.01243482 0.2266089
vt 0.3587012 0.2266089
vt 0.6220537 0.02514195
vt 0.3804193 0.1632724
vt 0.3804193 0.02514195
vt 0.6220537 0.1632724
vt 0.8479384 0.1632724
vt 0.8479384 0.02514195
vt 0.8479384 0.02514195
vt 0.3804193 0.02514195
vt 0.3804193 0.1632724
vt 0.8479384 0.1632724
vt 0.3587012 0.08632195
vt 0.01243482 0.08632195
vt 0.01243482 0.2266089
vt 0.3587012 0.2266089
vt 0.8574424 0.5954716
vt 0.8567002 0.2492162
vt 0.989993 0.2492162
vt 0.9907352 0.5954716
vt 0.3587012 0.08632195
vt 0.01243482 0.08632195
vt 0.01243482 0.2266089
vt 0.3587012 0.2266089
vt 0.3587012 0.08632195
vt 0.01243482 0.08632195
vt 0.01243482 0.2266089
vt 0.3587012 0.2266089
vt 0.3804193 0.02514195
vt 0.8479384 0.02514195
vt 0.8479384 0.1632724
vt 0.3804193 0.1632724
vt 0.8479384 0.02514195
vt 0.3804193 0.02514195
vt 0.3804193 0.1632724
vt 0.8479384 0.1632724
vt 0.8479384 0.02514195
vt 0.3804193 0.02514195
vt 0.3804193 0.1632724
vt 0.8479384 0.1632724
vt 0.01243482 0.08632195
vt 0.3587012 0.08632195
vt 0.3587012 0.2266089
vt 0.01243482 0.2266089
vt 0.8479384 0.02514195
vt 0.3804193 0.02514195
vt 0.3804193 0.1632724
vt 0.8479384 0.1632724
vt 0.3587012 0.08632195
vt 0.01243482 0.08632195
vt 0.01243482 0.2266089
vt 0.3587012 0.2266089
vt 0.8574424 0.5954716
vt 0.8567002 0.2492162
vt 0.989993 0.2492162
vt 0.9907352 0.5954716
vt 0.8409789 0.6171061
vt 0.840979 0.9983737
vt 0.9820031 0.9983737
vt 0.9820031 0.6171061
vt 0.8574424 0.5954716
vt 0.8567002 0.2492162
vt 0.989993 0.2492162
vt 0.9907352 0.5954716
vt 0.8479384 0.02514195
vt 0.3804193 0.02514195
vt 0.3804193 0.1632724
vt 0.8479384 0.1632724
vt 0.3587012 0.08632195
vt 0.01243482 0.08632195
vt 0.01243482 0.2266089
vt 0.3587012 0.2266089
vt 0.8574424 0.5954716
vt 0.8567002 0.2492162
vt 0.989993 0.2492162
vt 0.9907352 0.5954716
vt 0.8479384 0.02514195
vt 0.3804193 0.02514195
vt 0.3804193 0.1632724
vt 0.8479384 0.1632724
vt 0.8479384 0.02514195
vt 0.3804193 0.02514195
vt 0.3804193 0.1632724
vt 0.8479384 0.1632724
vt 0.8567002 0.2492162
vt 0.8574424 0.5954716
vt 0.9907352 0.5954716
vt 0.989993 0.2492162
vt 0.01243482 0.08632195
vt 0.3587012 0.08632195
vt 0.3587012 0.2266089
vt 0.01243482 0.2266089
vt 0.3587012 0.08632195
vt 0.01243482 0.08632195
vt 0.01243482 0.2266089
vt 0.3587012 0.2266089
vt 0.8479384 0.02514195
vt 0.3804193 0.02514195
vt 0.3804193 0.1632724
vt 0.8479384 0.1632724
vt 0.8574424 0.5954716
vt 0.8567002 0.2492162
vt 0.989993 0.2492162
vt 0.9907352 0.5954716
vt 0.8479384 0.02514195
vt 0.3804193 0.02514195
vt 0.3804193 0.1632724
vt 0.8479384 0.1632724
vt 0.8574424 0.5954716
vt 0.8567002 0.2492162
vt 0.989993 0.2492162
vt 0.9907352 0.5954716
vt 0.8479384 0.02514195
vt 0.3804193 0.02514195
vt 0.3804193 0.1632724
vt 0.8479384 0.1632724
vt 0.3587012 0.08632195
vt 0.01243482 0.08632195
vt 0.01243482 0.2266089
vt 0.3587012 0.2266089
vn 0.9923569 0 -0.1234013
vn 0.9923569 0 -0.1234013
vn 0.9923569 0 -0.1234013
vn 0.9923569 0 -0.1234013
vn 0.5699081 0 0.8217084
vn 0.5699081 0 0.8217084
vn 0.5699081 0 0.8217084
vn 0.5699081 0 0.8217084
vn -0.5994732 0 -0.8003948
vn -0.3658128 0 -0.9306885
vn -0.3658128 0 -0.9306885
vn -0.5994732 0 -0.8003948
vn -0.7902272 0 -0.612814
vn -0.7902272 0 -0.612814
vn -0.8900069 0 -0.455947
vn -0.8900069 0 -0.455947
vn -0.8900069 0 -0.455947
vn -0.8900069 0 -0.455947
vn -0.02170656 0 -0.9997644
vn -0.02170656 0 -0.9997644
vn -0.02170656 0 -0.9997644
vn -0.02170656 0 -0.9997644
vn 0.2092719 0 -0.9778575
vn 0.2092719 0 -0.9778575
vn 0.2092719 0 -0.9778575
vn 0.2092719 0 -0.9778575
vn 0.7146512 0 -0.699481
vn 0.7146512 0 -0.699481
vn 0.7146512 0 -0.699481
vn 0.7146512 0 -0.699481
vn -0.9138687 0 -0.40601
vn -0.9138687 0 -0.40601
vn -0.9138687 0 -0.40601
vn -0.9138687 0 -0.40601
vn 0.07801169 0 -0.9969524
vn 0.07801169 0 -0.9969524
vn 0.07801169 0 -0.9969524
vn 0.07801169 0 -0.9969524
vn 0.865984 0 0.5000716
vn 0.865984 0 0.5000716
vn 0.865984 0 0.5000716
vn 0.865984 0 0.5000716
vn -0.273297 0 -0.9619297
vn -0.273297 0 -0.9619297
vn -0.273297 0 -0.9619297
vn -0.273297 0 -0.9619297
vn 0.9361209 0 -0.3516786
vn 0.9361209 0 -0.3516786
vn 0.9361209 0 -0.3516786
vn 0.9361209 0 -0.3516786
vn 0.9993463 0 0.03615009
vn 0.9993463 0 0.03615009
vn 0.9993463 0 0.03615009
vn 0.9993463 0 0.03615009
vn -0.6262887 0 0.7795912
vn -0.6262887 0 0.7795912
vn -0.6262887 0 0.7795912
vn -0.6262887 0 0.7795912
vn 0.4627282 0 0.8865002
vn 0.4627282 0 0.8865002
vn 0.4627282 0 0.8865002
vn 0.4627282 0 0.8865002
vn -0.6157658 0 0.7879292
vn -0.6157658 0 0.7879292
vn -0.6157658 0 0.7879292
vn -0.6157658 0 0.7879292
vn -0.3413021 0 -0.9399537
vn -0.3413021 0 -0.9399537
vn -0.3413021 0 -0.9399537
vn -0.3413021 0 -0.9399537
vn 0.517576 0 -0.8556372
vn 0.517576 0 -0.8556372
vn 0.517576 0 -0.8556372
vn 0.517576 0 -0.8556372
vn -0.9672877 0 0.2536819
vn -0.9672877 0 0.2536819
vn -0.9672877 0 0.2536819
vn -0.9672877 0 0.2536819
vn 0.995163 0 0.09823754
vn 0.995163 0 0.09823754
vn 0.995163 0 0.09823754
vn 0.995163 0 0.09823754
vn 0.8440381 0 0.5362832
vn 0.8440381 0 0.5362832
vn 0.8440381 0 0.5362832
vn 0.8440381 0 0.5362832
vn 0.1081971 0 0.9941295
vn 0.1081971 0 0.9941295
vn 0.1081971 0 0.9941295
vn 0.1081971 0 0.9941295
vn 0.9328199 0 -0.3603429
vn 0.9328199 0 -0.3603429
vn 0.9328199 0 -0.3603429
vn 0.9328199 0 -0.3603429
vn 0.7138667 0 0.7002815
vn 0.7138667 0 0.7002815
vn 0.7138667 0 0.7002815
vn 0.7138667 0 0.7002815
vn -0.2961716 0 0.9551347
vn -0.2961716 0 0.9551347
vn -0.2961716 0 0.9551347
vn -0.2961716 0 0.9551347
vn -0.792164 0 -0.6103082
vn -0.792164 0 -0.6103082
vn -0.792164 0 -0.6103082
vn -0.792164 0 -0.6103082
vn 0.2842493 0 0.9587504
vn 0.2842493 0 0.9587504
vn 0.2842493 0 0.9587504
vn 0.2842493 0 0.9587504
vn -0.8904571 0 0.4550673
vn -0.8904571 0 0.4550673
vn -0.8904571 0 0.4550673
vn -0.8904571 0 0.4550673
vn -0.99991 0 -0.01341583
vn -0.99991 0 -0.01341583
vn -0.99991 0 -0.01341583
vn -0.99991 0 -0.01341583
vn 0.72157 0 -0.6923415
vn 0.72157 0 -0.6923415
vn 0.72157 0 -0.6923415
vn 0.72157 0 -0.6923415
vn 0.9803522 0 0.1972553
vn 0.9803522 0 0.1972553
vn 0.9803522 0 0.1972553
vn 0.9803522 0 0.1972553
g middle_clouds_2_0
f 3/3/3 2/2/2 1/1/1
f 4/4/4 3/3/3 1/1/1
f 7/7/7 6/6/6 5/5/5
f 8/8/8 7/7/7 5/5/5
f 11/11/11 10/10/10 9/9/9
f 10/10/10 12/12/12 9/9/9
f 12/12/12 13/13/13 9/9/9
f 13/13/13 14/14/14 9/9/9
f 17/17/17 16/16/16 15/15/15
f 18/18/18 17/17/17 15/15/15
f 21/21/21 20/20/20 19/19/19
f 22/22/22 21/21/21 19/19/19
f 25/25/25 24/24/24 23/23/23
f 26/26/26 25/25/25 23/23/23
f 29/29/29 28/28/28 27/27/27
f 30/30/30 29/29/29 27/27/27
f 33/33/33 32/32/32 31/31/31
f 34/34/34 33/33/33 31/31/31
f 37/37/37 36/36/36 35/35/35
f 38/38/38 37/37/37 35/35/35
f 41/41/41 40/40/40 39/39/39
f 42/42/42 41/41/41 39/39/39
f 45/45/45 44/44/44 43/43/43
f 46/46/46 45/45/45 43/43/43
f 49/49/49 48/48/48 47/47/47
f 50/50/50 49/49/49 47/47/47
f 53/53/53 52/52/52 51/51/51
f 54/54/54 53/53/53 51/51/51
f 57/57/57 56/56/56 55/55/55
f 58/58/58 57/57/57 55/55/55
f 61/61/61 60/60/60 59/59/59
f 62/62/62 61/61/61 59/59/59
f 65/65/65 64/64/64 63/63/63
f 66/66/66 65/65/65 63/63/63
f 69/69/69 68/68/68 67/67/67
f 70/70/70 69/69/69 67/67/67
f 73/73/73 72/72/72 71/71/71
f 74/74/74 73/73/73 71/71/71
f 77/77/77 76/76/76 75/75/75
f 78/78/78 77/77/77 75/75/75
f 81/81/81 80/80/80 79/79/79
f 82/82/82 81/81/81 79/79/79
f 85/85/85 84/84/84 83/83/83
f 86/86/86 85/85/85 83/83/83
f 89/89/89 88/88/88 87/87/87
f 90/90/90 89/89/89 87/87/87
f 93/93/93 92/92/92 91/91/91
f 94/94/94 93/93/93 91/91/91
f 97/97/97 96/96/96 95/95/95
f 98/98/98 97/97/97 95/95/95
f 101/101/101 100/100/100 99/99/99
f 102/102/102 101/101/101 99/99/99
f 105/105/105 104/104/104 103/103/103
f 106/106/106 105/105/105 103/103/103
f 109/109/109 108/108/108 107/107/107
f 110/110/110 109/109/109 107/107/107
f 113/113/113 112/112/112 111/111/111
f 114/114/114 113/113/113 111/111/111
f 117/117/117 116/116/116 115/115/115
f 118/118/118 117/117/117 115/115/115
f 121/121/121 120/120/120 119/119/119
f 122/122/122 121/121/121 119/119/119
f 125/125/125 124/124/124 123/123/123
f 126/126/126 125/125/125 123/123/123
