g middle_clouds_2
v 524.7286 237.7451 102.0666
v 468.4604 237.7451 102.0667
v 468.4604 237.7451 127.9029
v 524.7286 237.7451 127.9029
v -73.23083 249.4873 20.20317
v -11.23343 249.4873 51.67982
v -11.23334 249.4873 20.2032
v -73.23084 249.4873 51.67979
v -157.2502 249.4873 51.67974
v -157.2502 249.4873 20.20313
v -156.798 229.339 71.65974
v -228.3647 229.339 71.65971
v -228.3647 229.339 97.49596
v -156.7981 229.339 97.49599
v 119.6652 249.4873 135.5583
v 34.13433 249.4873 135.5582
v 34.13443 249.4873 161.3945
v 119.6653 249.4873 161.3945
v 235.125 249.4873 115.4713
v 192.4079 249.4873 115.4713
v 192.4079 249.4873 129.6037
v 235.125 249.4873 129.6037
v 352.7214 249.4873 96.49287
v 290.4831 249.4873 96.4929
v 290.4832 249.4873 122.3292
v 352.7214 249.4873 122.3291
v -172.9191 246.577 67.1001
v -259.2679 246.577 67.10004
v -259.2679 246.577 97.69016
v -172.9191 246.577 97.69022
v 174.8404 262.325 39.04287
v 90.64884 262.325 39.04286
v 90.64883 262.325 60.59534
v 174.8404 262.325 60.59534
v 670.7094 249.4873 83.02636
v 592.238 249.4873 83.02642
v 592.238 249.4873 108.8627
v 670.7093 249.4873 108.8626
v 48.86613 249.4873 90.35259
v -30.28814 249.4873 90.35256
v -30.28819 249.4873 116.1888
v 48.86613 249.4873 116.1888
v 491.2346 249.4873 25.99358
v 389.7081 249.4873 25.99367
v 389.7082 249.4873 65.47147
v 491.2346 249.4873 65.47139
v 558.7949 249.4873 76.56754
v 509.7413 249.4873 76.56757
v 509.7413 249.4873 102.4038
v 558.795 249.4873 102.4038
v -434.2745 232.4779 88.07351
v -485.2429 232.4779 88.07351
v -485.2429 232.4779 113.9097
v -434.2745 232.4779 113.9098
v -430.313 254.2212 94.8173
v -471.2924 254.2212 94.81728
v -471.2924 254.2212 120.6535
v -430.313 254.2212 120.6536
v 23.79056 237.7451 84.49332
v -53.93328 237.7451 84.49329
v -53.9333 237.7451 104.3706
v 23.79057 237.7451 104.3706
v 297.8755 249.4873 23.11438
v 208.9623 249.4873 23.11441
v 208.9623 249.4873 48.95066
v 297.8755 249.4873 48.95063
v -351.5208 252.6055 53.34607
v -392.4299 252.6055 53.34601
v -392.4299 252.6055 79.18227
v -351.5207 252.6055 79.18231
v 561.626 232.9437 38.13117
v 502.9262 232.9437 38.13124
v 502.9263 232.9437 63.96748
v 561.6261 232.9437 63.96743
v 697.3344 262.325 28.6815
v 628.8003 262.325 28.68155
v 628.8004 262.325 54.5178
v 697.3345 262.325 54.51776
v -620.0173 249.4873 57.05759
v -678.2851 249.4873 57.05762
v -678.2851 249.4873 82.89386
v -620.0173 249.4873 82.89385
v 432.2364 249.4873 80.52393
v 391.8793 249.4873 80.52396
v 391.8793 249.4873 100.4013
v 432.2365 249.4873 100.4012
v 737.9575 249.4873 142.5947
v 684.3726 249.4873 142.5947
v 684.3725 249.4873 159.6829
v 737.9575 249.4873 159.6828
v -532.0338 249.4873 110.3018
v -578.903 249.4873 110.3018
v -578.9029 249.4873 136.138
v -532.0336 249.4873 136.138
v -114.2554 249.4873 128.6565
v -203.6334 249.4873 128.6565
v -203.6334 249.4873 154.4927
v -114.2555 249.4873 154.4928
v -362.89 249.4873 116.6379
v -409.5445 249.4873 116.6378
v -409.5445 249.4873 142.474
v -362.8901 249.4873 142.4741
v -272.2528 262.325 124.2231
v -327.1385 262.325 124.223
v -327.1385 262.325 150.0592
v -272.2528 262.325 150.0593
v 377.0663 262.325 58.3455
v 315.1895 262.325 58.34554
v 315.1894 262.325 84.44478
v 377.0662 262.325 84.44473
v 553.1762 262.325 160.1927
v 497.1175 262.325 160.1928
v 497.1175 262.325 186.029
v 553.1762 262.325 186.029
v 950.7004 232.4777 88.0733
v 899.7321 232.4777 88.0733
v 899.7321 232.4777 113.9095
v 950.7004 232.4777 113.9095
v 764.9575 249.4871 57.05739
v 706.6898 249.4871 57.05741
v 706.6898 249.4871 82.89365
v 764.9575 249.4871 82.89365
v 852.941 249.4871 110.3016
v 806.0718 249.4871 110.3016
v 806.072 249.4871 136.1378
v 852.9412 249.4871 136.1378
vt 0.8574424 0.5954716
vt 0.8567002 0.2492162
vt 0.989993 0.2492162
vt 0.9907352 0.5954716
vt 0.6220537 0.02514195
vt 0.3804193 0.1632724
vt 0.3804193 0.02514195
vt 0.6220537 0.1632724
vt 0.8479384 0.1632724
vt 0.8479384 0.02514195
vt 0.8479384 0.02514195
vt 0.3804193 0.02514195
vt 0.3804193 0.1632724
vt 0.8479384 0.1632724
vt 0.3587012 0.08632195
vt 0.01243482 0.08632195
vt 0.01243482 0.2266089
vt 0.3587012 0.2266089
vt 0.8574424 0.5954716
vt 0.8567002 0.2492162
vt 0.989993 0.2492162
vt 0.9907352 0.5954716
vt 0.3587012 0.08632195
vt 0.01243482 0.08632195
vt 0.01243482 0.2266089
vt 0.3587012 0.2266089
vt 0.3587012 0.08632195
vt 0.01243482 0.08632195
vt 0.01243482 0.2266089
vt 0.3587012 0.2266089
vt 0.3804193 0.02514195
vt 0.8479384 0.02514195
vt 0.8479384 0.1632724
vt 0.3804193 0.1632724
vt 0.8479384 0.02514195
vt 0.3804193 0.02514195
vt 0.3804193 0.1632724
vt 0.8479384 0.1632724
vt 0.8479384 0.02514195
vt 0.3804193 0.02514195
vt 0.3804193 0.1632724
vt 0.8479384 0.1632724
vt 0.01243482 0.08632195
vt 0.3587012 0.08632195
vt 0.3587012 0.2266089
vt 0.01243482 0.2266089
vt 0.8479384 0.02514195
vt 0.3804193 0.02514195
vt 0.3804193 0.1632724
vt 0.8479384 0.1632724
vt 0.3587012 0.08632195
vt 0.01243482 0.08632195
vt 0.01243482 0.2266089
vt 0.3587012 0.2266089
vt 0.8409789 0.6171061
vt 0.840979 0.9983737
vt 0.9820031 0.9983737
vt 0.9820031 0.6171061
vt 0.8574424 0.5954716
vt 0.8567002 0.2492162
vt 0.989993 0.2492162
vt 0.9907352 0.5954716
vt 0.8479384 0.02514195
vt 0.3804193 0.02514195
vt 0.3804193 0.1632724
vt 0.8479384 0.1632724
vt 0.3587012 0.08632195
vt 0.01243482 0.08632195
vt 0.01243482 0.2266089
vt 0.3587012 0.2266089
vt 0.8574424 0.5954716
vt 0.8567002 0.2492162
vt 0.989993 0.2492162
vt 0.9907352 0.5954716
vt 0.8479384 0.02514195
vt 0.3804193 0.02514195
vt 0.3804193 0.1632724
vt 0.8479384 0.1632724
vt 0.8479384 0.02514195
vt 0.3804193 0.02514195
vt 0.3804193 0.1632724
vt 0.8479384 0.1632724
vt 0.8567002 0.2492162
vt 0.8574424 0.5954716
vt 0.9907352 0.5954716
vt 0.989993 0.2492162
vt 0.01243482 0.08632195
vt 0.3587012 0.08632195
vt 0.3587012 0.2266089
vt 0.01243482 0.2266089
vt 0.3587012 0.08632195
vt 0.01243482 0.08632195
vt 0.01243482 0.2266089
vt 0.3587012 0.2266089
vt 0.8479384 0.02514195
vt 0.3804193 0.02514195
vt 0.3804193 0.1632724
vt 0.8479384 0.1632724
vt 0.8479384 0.02514195
vt 0.3804193 0.02514195
vt 0.3804193 0.1632724
vt 0.8479384 0.1632724
vt 0.8574424 0.5954716
vt 0.8567002 0.2492162
vt 0.989993 0.2492162
vt 0.9907352 0.5954716
vt 0.8479384 0.02514195
vt 0.3804193 0.02514195
vt 0.3804193 0.1632724
vt 0.8479384 0.1632724
vt 0.3587012 0.08632195
vt 0.01243482 0.08632195
vt 0.01243482 0.2266089
vt 0.3587012 0.2266089
vt 0.3587012 0.08632195
vt 0.01243482 0.08632195
vt 0.01243482 0.2266089
vt 0.3587012 0.2266089
vt 0.8479384 0.02514195
vt 0.3804193 0.02514195
vt 0.3804193 0.1632724
vt 0.8479384 0.1632724
vt 0.3587012 0.08632195
vt 0.01243482 0.08632195
vt 0.01243482 0.2266089
vt 0.3587012 0.2266089
vn 0 -1 0
vn 0 -1 0
vn 0 -1 0
vn 0 -1 0
vn 0 -1 0
vn 0 -1 0
vn 0 -1 0
vn 0 -1 0
vn 0 -1 0
vn 0 -1 0
vn 0 -1 0
vn 0 -1 0
vn 0 -1 0
vn 0 -1 0
vn 0 -1 0
vn 0 -1 0
vn 0 -1 0
vn 0 -1 0
vn 0 -1 0
vn 0 -1 0
vn 0 -1 0
vn 0 -1 0
vn 0 -1 0
vn 0 -1 0
vn 0 -1 0
vn 0 -1 0
vn 0 -1 0
vn 0 -1 0
vn 0 -1 0
vn 0 -1 0
vn 0 -1 0
vn 0 -1 0
vn 0 -1 0
vn 0 -1 0
vn 0 -1 0
vn 0 -1 0
vn 0 -1 0
vn 0 -1 0
vn 0 -1 0
vn 0 -1 0
vn 0 -1 0
vn 0 -1 0
vn 0 -1 0
vn 0 -1 0
vn 0 -1 0
vn 0 -1 0
vn 0 -1 0
vn 0 -1 0
vn 0 -1 0
vn 0 -1 0
vn 0 -1 0
vn 0 -1 0
vn 0 -1 0
vn 0 -1 0
vn 0 -1 0
vn 0 -1 0
vn 0 -1 0
vn 0 -1 0
vn 0 -1 0
vn 0 -1 0
vn 0 -1 0
vn 0 -1 0
vn 0 -1 0
vn 0 -1 0
vn 0 -1 0
vn 0 -1 0
vn 0 -1 0
vn 0 -1 0
vn 0 -1 0
vn 0 -1 0
vn 0 -1 0
vn 0 -1 0
vn 0 -1 0
vn 0 -1 0
vn 0 -1 0
vn 0 -1 0
vn 0 -1 0
vn 0 -1 0
vn 0 -1 0
vn 0 -1 0
vn 0 -1 0
vn 0 -1 0
vn 0 -1 0
vn 0 -1 0
vn 0 -1 0
vn 0 -1 0
vn 0 -1 0
vn 0 -1 0
vn 0 -1 0
vn 0 -1 0
vn 0 -1 0
vn 0 -1 0
vn 0 -1 0
vn 0 -1 0
vn 0 -1 0
vn 0 -1 0
vn 0 -1 0
vn 0 -1 0
vn 0 -1 0
vn 0 -1 0
vn 0 -1 0
vn 0 -1 0
vn 0 -1 0
vn 0 -1 0
vn 0 -1 0
vn 0 -1 0
vn 0 -1 0
vn 0 -1 0
vn 0 -1 0
vn 0 -1 0
vn 0 -1 0
vn 0 -1 0
vn 0 -1 0
vn 0 -1 0
vn 0 -1 0
vn 0 -1 0
vn 0 -1 0
vn 0 -1 0
vn 0 -1 0
vn 0 -1 0
vn 0 -1 0
vn 0 -1 0
vn 0 -1 0
vn 0 -1 0
vn 0 -1 0
vn 0 -1 0
g middle_clouds_2_0
f 3/3/3 2/2/2 1/1/1
f 4/4/4 3/3/3 1/1/1
f 7/7/7 6/6/6 5/5/5
f 6/6/6 8/8/8 5/5/5
f 8/8/8 9/9/9 5/5/5
f 9/9/9 10/10/10 5/5/5
f 13/13/13 12/12/12 11/11/11
f 14/14/14 13/13/13 11/11/11
f 17/17/17 16/16/16 15/15/15
f 18/18/18 17/17/17 15/15/15
f 21/21/21 20/20/20 19/19/19
f 22/22/22 21/21/21 19/19/19
f 25/25/25 24/24/24 23/23/23
f 26/26/26 25/25/25 23/23/23
f 29/29/29 28/28/28 27/27/27
f 30/30/30 29/29/29 27/27/27
f 33/33/33 32/32/32 31/31/31
f 34/34/34 33/33/33 31/31/31
f 37/37/37 36/36/36 35/35/35
f 38/38/38 37/37/37 35/35/35
f 41/41/41 40/40/40 39/39/39
f 42/42/42 41/41/41 39/39/39
f 45/45/45 44/44/44 43/43/43
f 46/46/46 45/45/45 43/43/43
f 49/49/49 48/48/48 47/47/47
f 50/50/50 49/49/49 47/47/47
f 53/53/53 52/52/52 51/51/51
f 54/54/54 53/53/53 51/51/51
f 57/57/57 56/56/56 55/55/55
f 58/58/58 57/57/57 55/55/55
f 61/61/61 60/60/60 59/59/59
f 62/62/62 61/61/61 59/59/59
f 65/65/65 64/64/64 63/63/63
f 66/66/66 65/65/65 63/63/63
f 69/69/69 68/68/68 67/67/67
f 70/70/70 69/69/69 67/67/67
f 73/73/73 72/72/72 71/71/71
f 74/74/74 73/73/73 71/71/71
f 77/77/77 76/76/76 75/75/75
f 78/78/78 77/77/77 75/75/75
f 81/81/81 80/80/80 79/79/79
f 82/82/82 81/81/81 79/79/79
f 85/85/85 84/84/84 83/83/83
f 86/86/86 85/85/85 83/83/83
f 89/89/89 88/88/88 87/87/87
f 90/90/90 89/89/89 87/87/87
f 93/93/93 92/92/92 91/91/91
f 94/94/94 93/93/93 91/91/91
f 97/97/97 96/96/96 95/95/95
f 98/98/98 97/97/97 95/95/95
f 101/101/101 100/100/100 99/99/99
f 102/102/102 101/101/101 99/99/99
f 105/105/105 104/104/104 103/103/103
f 106/106/106 105/105/105 103/103/103
f 109/109/109 108/108/108 107/107/107
f 110/110/110 109/109/109 107/107/107
f 113/113/113 112/112/112 111/111/111
f 114/114/114 113/113/113 111/111/111
f 117/117/117 116/116/116 115/115/115
f 118/118/118 117/117/117 115/115/115
f 121/121/121 120/120/120 119/119/119
f 122/122/122 121/121/121 119/119/119
f 125/125/125 124/124/124 123/123/123
f 126/126/126 125/125/125 123/123/123
