g Object008
v -0.000123681 -26.32968 -110.9935
v -0.0001761232 40.42182 -40.79607
v -39.29626 31.32323 -35.47939
v -0.000121463 -26.32988 110.9935
v -0.0001761232 40.42166 40.79621
v 39.2962 31.32317 35.47953
v -0.0001761232 40.42182 -40.79607
v 39.2962 31.32317 35.47953
v -0.0001761232 40.42166 40.79621
v 39.2962 31.32317 35.47953
v -0.0001761232 40.42182 -40.79607
v 39.29616 31.32324 -35.47939
v -0.000123681 -26.32968 -110.9935
v 39.29616 31.32324 -35.47939
v -0.0001761232 40.42182 -40.79607
v -0.000121463 -26.32988 110.9935
v -39.29626 31.32316 35.47952
v -0.0001761232 40.42166 40.79621
v -39.29626 31.32323 -35.47939
v -0.0001761232 40.42166 40.79621
v -39.29626 31.32316 35.47952
v -0.0001761232 40.42166 40.79621
v -39.29626 31.32323 -35.47939
v -0.0001761232 40.42182 -40.79607
v 43.87576 15.27047 -33.99926
v 39.2962 31.32317 35.47953
v 39.29616 31.32324 -35.47939
v 39.2962 31.32317 35.47953
v 43.87576 15.27047 -33.99926
v 43.87591 15.27041 33.99939
v 43.87591 15.27041 33.99939
v -0.000121463 -26.32988 110.9935
v 39.2962 31.32317 35.47953
v -0.000121463 -26.32988 110.9935
v 43.87591 15.27041 33.99939
v -0.0001194423 -40.42181 106.1355
v -0.0001194423 -40.42181 106.1355
v -39.29626 31.32316 35.47952
v -0.000121463 -26.32988 110.9935
v -39.29626 31.32316 35.47952
v -0.0001194423 -40.42181 106.1355
v -43.87595 15.27046 33.99939
v -43.87595 15.27046 33.99939
v -39.29626 31.32323 -35.47939
v -39.29626 31.32316 35.47952
v -39.29626 31.32323 -35.47939
v -43.87595 15.27046 33.99939
v -43.87595 15.27055 -33.99927
v -43.87595 15.27055 -33.99927
v -0.000123681 -26.32968 -110.9935
v -39.29626 31.32323 -35.47939
v -0.000123681 -26.32968 -110.9935
v -43.87595 15.27055 -33.99927
v -0.0001203216 -40.42161 -106.1355
v -0.0001203216 -40.42161 -106.1355
v 39.29616 31.32324 -35.47939
v -0.000123681 -26.32968 -110.9935
v 39.29616 31.32324 -35.47939
v -0.0001203216 -40.42161 -106.1355
v 43.87576 15.27047 -33.99926
vt 0.8610234 0.7555711
vt 0.8608949 0.6995521
vt 0.8867176 0.6995521
vt 0.8607929 0.7554955
vt 0.8609219 0.6995521
vt 0.8350992 0.6995521
vt 0.8606832 0.6390731
vt 0.8350992 0.6995521
vt 0.8609219 0.6995521
vt 0.8350992 0.6995521
vt 0.8606832 0.6390731
vt 0.8348875 0.6390731
vt 0.8610234 0.7555711
vt 0.8350992 0.6995521
vt 0.8608949 0.6995521
vt 0.8607929 0.7554955
vt 0.8867176 0.6995521
vt 0.8609219 0.6995521
vt 0.8865056 0.6390731
vt 0.8609219 0.6995521
vt 0.8867176 0.6995521
vt 0.8609219 0.6995521
vt 0.8865056 0.6390731
vt 0.8606832 0.6390731
vt 0.8246617 0.6390731
vt 0.8350992 0.6995521
vt 0.8348875 0.6390731
vt 0.8350992 0.6995521
vt 0.8246617 0.6390731
vt 0.8246627 0.6995521
vt 0.8246627 0.6995521
vt 0.8607929 0.7554955
vt 0.8350992 0.6995521
vt 0.8607929 0.7554955
vt 0.8246627 0.6995521
vt 0.8608022 0.7749698
vt 0.8608022 0.7749698
vt 0.8867176 0.6995521
vt 0.8607929 0.7554955
vt 0.8867176 0.6995521
vt 0.8608022 0.7749698
vt 0.8969433 0.6995521
vt 0.8969433 0.6995521
vt 0.8865056 0.6390731
vt 0.8867176 0.6995521
vt 0.8865056 0.6390731
vt 0.8969433 0.6995521
vt 0.8969424 0.6390731
vt 0.8971541 0.6995521
vt 0.8610234 0.7555711
vt 0.8867176 0.6995521
vt 0.8610234 0.7555711
vt 0.8971541 0.6995521
vt 0.8610141 0.7750454
vt 0.8610141 0.7750454
vt 0.8350992 0.6995521
vt 0.8610234 0.7555711
vt 0.8350992 0.6995521
vt 0.8610141 0.7750454
vt 0.8248734 0.6995521
vn -0.2718201 0.7546456 -0.5971798
vn -0.2718201 0.7546456 -0.5971799
vn -0.2718201 0.7546456 -0.5971799
vn 0.2718164 0.7546459 0.5971812
vn 0.2718164 0.7546459 0.5971812
vn 0.2718164 0.7546459 0.5971812
vn 0.2255681 0.9742274 0
vn 0.2255681 0.9742274 0
vn 0.2255681 0.9742274 0
vn 0.22557 0.9742269 0
vn 0.22557 0.9742269 0
vn 0.22557 0.9742269 0
vn 0.2718184 0.7546462 -0.5971799
vn 0.2718184 0.7546462 -0.5971799
vn 0.2718184 0.7546462 -0.5971799
vn -0.2718186 0.7546453 0.597181
vn -0.2718186 0.7546453 0.597181
vn -0.2718186 0.7546453 0.597181
vn -0.2255698 0.974227 0
vn -0.2255697 0.974227 0
vn -0.2255697 0.974227 0
vn -0.2255715 0.9742267 0
vn -0.2255715 0.9742267 0
vn -0.2255715 0.9742267 0
vn 0.9616332 0.2743388 0
vn 0.9616332 0.2743388 0
vn 0.9616332 0.2743388 0
vn 0.9616313 0.2743451 0
vn 0.9616313 0.2743452 0
vn 0.9616313 0.2743451 0
vn 0.8517089 0.1888258 0.4888115
vn 0.8517089 0.1888258 0.4888115
vn 0.8517089 0.1888258 0.4888115
vn 0.9177626 -0.1519864 0.366895
vn 0.9177626 -0.1519865 0.366895
vn 0.9177626 -0.1519864 0.366895
vn -0.9375327 -0.1331447 0.3214105
vn -0.9375327 -0.1331447 0.3214105
vn -0.9375327 -0.1331447 0.3214105
vn -0.8275877 0.1770839 0.5326722
vn -0.8275878 0.1770839 0.5326722
vn -0.8275878 0.1770839 0.5326722
vn -0.9616315 0.2743444 0
vn -0.9616315 0.2743444 0
vn -0.9616315 0.2743444 0
vn -0.9616312 0.2743454 0
vn -0.9616312 0.2743454 0
vn -0.9616312 0.2743454 0
vn -0.8517097 0.1888269 -0.4888097
vn -0.8517097 0.1888269 -0.4888097
vn -0.8517097 0.1888269 -0.4888097
vn -0.9177634 -0.1519865 -0.3668929
vn -0.9177634 -0.1519865 -0.3668929
vn -0.9177634 -0.1519865 -0.3668929
vn 0.9375325 -0.1331452 -0.3214112
vn 0.9375325 -0.1331452 -0.3214113
vn 0.9375325 -0.1331452 -0.3214112
vn 0.8275898 0.1770802 -0.5326704
vn 0.8275898 0.1770801 -0.5326703
vn 0.8275898 0.1770802 -0.5326704
g Object008_0
f 3/3/3 2/2/2 1/1/1
f 6/6/6 5/5/5 4/4/4
f 9/9/9 8/8/8 7/7/7
f 12/12/12 11/11/11 10/10/10
f 15/15/15 14/14/14 13/13/13
f 18/18/18 17/17/17 16/16/16
f 21/21/21 20/20/20 19/19/19
f 24/24/24 23/23/23 22/22/22
f 27/27/27 26/26/26 25/25/25
f 30/30/30 29/29/29 28/28/28
f 33/33/33 32/32/32 31/31/31
f 36/36/36 35/35/35 34/34/34
f 39/39/39 38/38/38 37/37/37
f 42/42/42 41/41/41 40/40/40
f 45/45/45 44/44/44 43/43/43
f 48/48/48 47/47/47 46/46/46
f 51/51/51 50/50/50 49/49/49
f 54/54/54 53/53/53 52/52/52
f 57/57/57 56/56/56 55/55/55
f 60/60/60 59/59/59 58/58/58
