g Piece_FrontSmall
v -2.331802 0.07844849 1.189959
v -2.046201 -0.3492363 1.900229
v -2.022334 -0.3286904 1.215509
v -2.702367 1.171212 -0.3911066
v -1.770046 -0.03220597 -0.3169735
v -2.174285 1.42922 -1.690338
v -1.386359 0.3648891 -1.547052
v -0.3155762 -0.4165321 -1.690338
v -0.5624344 -0.9594032 -0.3905697
v -0.741491 -1.349345 1.171967
v 0.9919571 -0.959208 -1.948297
v 0.8583622 -1.619486 -0.5319638
v 0.7553337 -2.033817 1.04726
v 2.431052 -2.022465 -0.6585507
v -1.214199 0.2861885 1.948297
v -1.516824 0.7097519 1.378561
v -1.258431 0.3643948 1.400954
v -1.934538 1.787367 -0.0318058
v -1.070106 0.6702622 0.02203407
v -1.430983 2.033817 -1.265758
v -0.7123306 1.04299 -1.117903
v 0.2005573 0.3858356 -1.256614
v -0.02903366 -0.1283081 -0.03975868
v -0.1967926 -0.4965546 1.444651
v 1.370184 -0.08761101 -1.506067
v 1.215321 -0.7018844 -0.1729494
v 1.142728 -1.098425 1.317946
v 2.702367 -1.078188 -0.2938122
v -2.022334 -0.3286904 1.215509
v -1.258431 0.3643948 1.400954
v -0.1967926 -0.4965546 1.444651
v -0.741491 -1.349345 1.171967
v 1.142728 -1.098425 1.317946
v 0.7553337 -2.033817 1.04726
v 0.9919571 -0.959208 -1.948297
v 1.370184 -0.08761101 -1.506067
v 0.2005573 0.3858356 -1.256614
v -0.3155762 -0.4165321 -1.690338
v -0.7123306 1.04299 -1.117903
v -1.386359 0.3648891 -1.547052
v -1.430983 2.033817 -1.265758
v -2.174285 1.42922 -1.690338
v 2.431052 -2.022465 -0.6585507
v 2.702367 -1.078188 -0.2938122
v 1.370184 -0.08761101 -1.506067
v 0.9919571 -0.959208 -1.948297
v 0.7553337 -2.033817 1.04726
v 1.142728 -1.098425 1.317946
v 2.702367 -1.078188 -0.2938122
v 2.431052 -2.022465 -0.6585507
v -2.174285 1.42922 -1.690338
v -1.430983 2.033817 -1.265758
v -1.934538 1.787367 -0.0318058
v -2.702367 1.171212 -0.3911066
v -1.516824 0.7097519 1.378561
v -2.331802 0.07844849 1.189959
v -1.214199 0.2861885 1.948297
v -2.046201 -0.3492363 1.900229
v -2.046201 -0.3492363 1.900229
v -1.214199 0.2861885 1.948297
v -1.258431 0.3643948 1.400954
v -2.022334 -0.3286904 1.215509
vt 0.3727058 0.6837431
vt 0.3833077 0.6977396
vt 0.3817791 0.6831771
vt 0.3484011 0.6518581
vt 0.3774775 0.6492296
vt 0.3454756 0.620998
vt 0.3741273 0.6194199
vt 0.4024638 0.6147812
vt 0.4064364 0.6458678
vt 0.4105712 0.6802937
vt 0.4331877 0.6107244
vt 0.4366633 0.6431664
vt 0.4397948 0.6772341
vt 0.4682938 0.6415251
vt 0.6574399 0.4131934
vt 0.6572772 0.4127202
vt 0.6574165 0.4127011
vt 0.656904 0.4116423
vt 0.6573505 0.4115534
vt 0.6568591 0.410599
vt 0.657299 0.4105456
vt 0.6577341 0.4103888
vt 0.6577951 0.4114397
vt 0.6578586 0.4126036
vt 0.6582059 0.4102516
vt 0.6582593 0.4113484
vt 0.6583073 0.4125001
vt 0.6587449 0.4112929
vt 0.6575762 0.4106293
vt 0.6585035 0.4122912
vt 0.6581479 0.4123696
vt 0.6580619 0.4105222
vt 0.6589939 0.4121746
vt 0.6585549 0.4104086
vt 0.6584435 0.4079383
vt 0.6587122 0.405987
vt 0.6578018 0.4062516
vt 0.6579251 0.408089
vt 0.6573555 0.4064125
vt 0.6574472 0.4082613
vt 0.6560413 0.4065718
vt 0.6569638 0.4083199
vt 0.6590357 0.4090823
vt 0.6601971 0.4088553
vt 0.6587122 0.405987
vt 0.6584435 0.4079383
vt 0.6585549 0.4104086
vt 0.6589939 0.4121746
vt 0.6601971 0.4088553
vt 0.6590357 0.4090823
vt 0.6569638 0.4083199
vt 0.6560413 0.4065718
vt 0.6561962 0.4101698
vt 0.6570132 0.4094661
vt 0.6567516 0.4117739
vt 0.6574232 0.4106503
vt 0.6587567 0.4176024
vt 0.657602 0.4111702
vt 0.657602 0.4111702
vt 0.6587567 0.4176024
vt 0.6585035 0.4122912
vt 0.6575762 0.4106293
vn -0.7739898 -0.6056962 -0.1845862
vn -0.7938958 -0.6063215 -0.0458665
vn -0.7283169 -0.6618044 -0.1776772
vn -0.731742 -0.5885456 -0.3437555
vn -0.669363 -0.6683961 -0.3243452
vn -0.7092914 -0.5768862 -0.4051025
vn -0.6440853 -0.6470664 -0.4079941
vn -0.4923463 -0.7657946 -0.4137073
vn -0.5081421 -0.7939286 -0.3338699
vn -0.5176837 -0.8159274 -0.2574221
vn -0.3608985 -0.8316813 -0.4219698
vn -0.3406547 -0.8755393 -0.3426153
vn -0.3724683 -0.8905095 -0.2612666
vn -0.2588883 -0.9010271 -0.348033
vn 0.7998623 0.5998138 0.02106401
vn 0.7774345 0.6023785 0.1809302
vn 0.731668 0.6615613 0.1643126
vn 0.7337508 0.5850642 0.3454121
vn 0.6709598 0.6665309 0.324884
vn 0.7110757 0.5730147 0.4074621
vn 0.6447092 0.6447483 0.4106697
vn 0.4908958 0.7650127 0.4168653
vn 0.5063977 0.7946286 0.3348534
vn 0.5135485 0.8187215 0.2568327
vn 0.3580741 0.8315797 0.424568
vn 0.3397296 0.8757548 0.3429832
vn 0.3697252 0.8922437 0.259238
vn 0.2564696 0.9016813 0.3481298
vn -0.1382432 -0.1720244 0.9753442
vn -0.1382432 -0.1720244 0.9753442
vn -0.08820602 -0.2229495 0.9708312
vn -0.08858033 -0.2225744 0.9708831
vn -0.03823745 -0.272229 0.9614725
vn -0.03823745 -0.272229 0.9614725
vn 0.007143007 0.4606286 -0.8875642
vn 0.007143008 0.4606287 -0.8875642
vn 0.08418535 0.4306023 -0.898607
vn 0.08356369 0.4308576 -0.8985426
vn 0.2824858 0.2842136 -0.9162011
vn 0.2824001 0.2842987 -0.9162011
vn 0.3967444 0.1628679 -0.9033647
vn 0.3967444 0.1628679 -0.9033647
vn 0.6960817 0.06861002 -0.7146769
vn 0.6960817 0.06861001 -0.7146768
vn 0.6960817 0.06861001 -0.7146768
vn 0.6960817 0.06861001 -0.7146769
vn 0.6457537 -0.4377767 0.6255828
vn 0.6457537 -0.4377767 0.6255828
vn 0.6457537 -0.4377767 0.6255828
vn 0.6457536 -0.4377767 0.6255828
vn -0.5989453 0.7962277 -0.0853591
vn -0.5989453 0.7962277 -0.08535908
vn -0.6517342 0.7143158 0.2549422
vn -0.651561 0.7160617 0.2504475
vn -0.5770673 0.5603952 0.5940964
vn -0.5790061 0.5598214 0.5927493
vn -0.5304447 0.5729426 0.6247922
vn -0.5304447 0.5729426 0.6247922
vn 0.6443117 -0.7613966 -0.07167747
vn 0.6443117 -0.7613966 -0.07167747
vn 0.6443117 -0.7613966 -0.07167747
vn 0.6443117 -0.7613966 -0.07167747
g Piece_FrontSmall_0
f 3/3/3 2/2/2 1/1/1
f 3/3/3 1/1/1 4/4/4
f 5/5/5 3/3/3 4/4/4
f 5/5/5 4/4/4 6/6/6
f 7/7/7 5/5/5 6/6/6
f 7/7/7 8/8/8 5/5/5
f 3/3/3 5/5/5 9/9/9
f 8/8/8 9/9/9 5/5/5
f 10/10/10 3/3/3 9/9/9
f 8/8/8 11/11/11 9/9/9
f 9/9/9 12/12/12 10/10/10
f 11/11/11 12/12/12 9/9/9
f 12/12/12 13/13/13 10/10/10
f 12/12/12 11/11/11 14/14/14
f 13/13/13 12/12/12 14/14/14
f 17/17/17 16/16/16 15/15/15
f 18/18/18 16/16/16 17/17/17
f 19/19/19 18/18/18 17/17/17
f 20/20/20 18/18/18 19/19/19
f 21/21/21 20/20/20 19/19/19
f 21/21/21 19/19/19 22/22/22
f 23/23/23 19/19/19 17/17/17
f 19/19/19 23/23/23 22/22/22
f 24/24/24 23/23/23 17/17/17
f 22/22/22 23/23/23 25/25/25
f 23/23/23 24/24/24 26/26/26
f 23/23/23 26/26/26 25/25/25
f 24/24/24 27/27/27 26/26/26
f 26/26/26 28/28/28 25/25/25
f 27/27/27 28/28/28 26/26/26
f 31/31/31 30/30/30 29/29/29
f 32/32/32 31/31/31 29/29/29
f 33/33/33 31/31/31 32/32/32
f 34/34/34 33/33/33 32/32/32
f 37/37/37 36/36/36 35/35/35
f 38/38/38 37/37/37 35/35/35
f 39/39/39 37/37/37 38/38/38
f 40/40/40 39/39/39 38/38/38
f 41/41/41 39/39/39 40/40/40
f 42/42/42 41/41/41 40/40/40
f 45/45/45 44/44/44 43/43/43
f 46/46/46 45/45/45 43/43/43
f 49/49/49 48/48/48 47/47/47
f 50/50/50 49/49/49 47/47/47
f 53/53/53 52/52/52 51/51/51
f 54/54/54 53/53/53 51/51/51
f 55/55/55 53/53/53 54/54/54
f 56/56/56 55/55/55 54/54/54
f 57/57/57 55/55/55 56/56/56
f 58/58/58 57/57/57 56/56/56
f 61/61/61 60/60/60 59/59/59
f 62/62/62 61/61/61 59/59/59
