g PiggyCrownMDL
v 0.1734672 0.2051083 -0.09357598
v 0.1396379 0.1926213 -0.08017524
v 0.1677727 0.2051083 -0.1034391
v 0.005694441 0.2051083 -0.1970148
v -9.685755E-08 0.1923805 -0.1608066
v -0.005694516 0.2051083 -0.1970149
v -0.1677729 0.2051083 -0.1034389
v -0.139638 0.1926213 -0.08017554
v -0.1734672 0.2051083 -0.09357592
v -0.1734672 0.2051083 0.09357611
v -0.1396379 0.1931082 0.0810859
v -0.1677727 0.2051083 0.1034392
v -0.005694501 0.2051083 0.1970149
v 6.705523E-08 0.193349 0.1617157
v 0.005694486 0.2051083 0.1970149
v 0.1677729 0.2051083 0.1034395
v 0.139638 0.1931082 0.08108435
v 0.1734672 0.2051083 0.09357557
v 2.141364E-08 -0.05635753 -0.1270672
v 0.005694441 0.2051083 -0.1970148
v -0.005694516 0.2051083 -0.1970149
v 0.0642342 -0.05635777 -0.111226
v 0.07711429 0.08560404 -0.1335659
v 0.1100706 -0.05635753 -0.06352063
v 0.1677727 0.2051083 -0.1034391
v 0.1734672 0.2051083 -0.09357598
v 0.1284683 -0.05635777 2.572972E-05
v 0.1542287 0.08560404 3.381403E-07
v 0.1100706 -0.05635777 0.0635725
v 0.1734672 0.2051083 0.09357557
v 0.1677729 0.2051083 0.1034395
v 0.06423414 -0.05635777 0.111278
v 0.0771144 0.08560404 0.1335661
v 4.690537E-10 -0.05635777 0.127119
v 0.005694486 0.2051083 0.1970149
v -0.005694501 0.2051083 0.1970149
v -0.06423419 -0.05635777 0.111278
v -0.07711438 0.08560404 0.1335662
v -0.1100706 -0.05635777 0.06357256
v -0.1677727 0.2051083 0.1034392
v -0.1734672 0.2051083 0.09357611
v -0.1284683 -0.05635777 2.590853E-05
v -0.1542287 0.08560404 9.972173E-08
v -0.1100706 -0.05635753 -0.06352063
v -0.1734672 0.2051083 -0.09357592
v -0.1677729 0.2051083 -0.1034389
v -0.06423414 -0.05635777 -0.1112261
v -0.07711437 0.08560404 -0.133566
v 2.141364E-08 -0.05635753 -0.1270672
v -0.005694516 0.2051083 -0.1970149
v 0.09500722 -0.05635777 -0.0002472596
v 0.1284683 -0.05635777 2.572972E-05
v 0.1100706 -0.05635753 -0.06352063
v 0.08117651 -0.05635753 -0.04711695
v 0.1100706 -0.05635753 -0.06352063
v 0.0642342 -0.05635777 -0.111226
v 0.04750369 -0.05635777 -0.08253177
v 0.08117651 -0.05635753 -0.04711695
v 0.04750369 -0.05635777 -0.08253177
v 0.0642342 -0.05635777 -0.111226
v 2.141364E-08 -0.05635753 -0.1270672
v -1.601061E-07 -0.05635777 -0.0939885
v 2.141364E-08 -0.05635753 -0.1270672
v -0.06423414 -0.05635777 -0.1112261
v -0.04750346 -0.05635777 -0.08253171
v -1.601061E-07 -0.05635777 -0.0939885
v -0.04750346 -0.05635777 -0.08253171
v -0.06423414 -0.05635777 -0.1112261
v -0.1100706 -0.05635753 -0.06352063
v -0.08117659 -0.05635753 -0.04711695
v -0.1100706 -0.05635753 -0.06352063
v -0.1284683 -0.05635777 2.590853E-05
v -0.09500722 -0.05635777 -0.0002465443
v -0.08117659 -0.05635753 -0.04711695
v -0.09500722 -0.05635777 -0.0002465443
v -0.1284683 -0.05635777 2.590853E-05
v -0.1100706 -0.05635777 0.06357256
v -0.0811765 -0.05635753 0.04662327
v -0.04750366 -0.05635777 0.08203766
v -0.06423419 -0.05635777 0.111278
v 4.690537E-10 -0.05635777 0.127119
v 1.680257E-07 -0.05635777 0.09349374
v 0.04750344 -0.05635777 0.08203772
v 0.06423414 -0.05635777 0.111278
v 0.1100706 -0.05635777 0.0635725
v 0.08117656 -0.05635753 0.04662321
v 0.09500722 -0.05635777 -0.0002472596
v 0.1284683 -0.05635777 2.572972E-05
v 0.1542287 0.08560404 3.381403E-07
v 0.1140579 0.09262714 6.835046E-06
v 0.1396379 0.1926213 -0.08017524
v 0.1734672 0.2051083 -0.09357598
v 0.1677727 0.2051083 -0.1034391
v 0.1396379 0.1926213 -0.08017524
v 0.05702898 0.09233102 -0.09878393
v 0.07711429 0.08560404 -0.1335659
v 0.07711429 0.08560404 -0.1335659
v 0.05702898 0.09233102 -0.09878393
v -9.685755E-08 0.1923805 -0.1608066
v 0.005694441 0.2051083 -0.1970148
v -0.005694516 0.2051083 -0.1970149
v -9.685755E-08 0.1923805 -0.1608066
v -0.05702886 0.09233102 -0.09878316
v -0.07711437 0.08560404 -0.133566
v -0.07711437 0.08560404 -0.133566
v -0.05702886 0.09233102 -0.09878316
v -0.139638 0.1926213 -0.08017554
v -0.1677729 0.2051083 -0.1034389
v -0.1734672 0.2051083 -0.09357592
v -0.139638 0.1926213 -0.08017554
v -0.1140579 0.09262714 6.835046E-06
v -0.1542287 0.08560404 9.972173E-08
v -0.1542287 0.08560404 9.972173E-08
v -0.1140579 0.09262714 6.835046E-06
v -0.1396379 0.1931082 0.0810859
v -0.1734672 0.2051083 0.09357611
v -0.1677727 0.2051083 0.1034392
v -0.1396379 0.1931082 0.0810859
v -0.05702889 0.09292492 0.09879724
v -0.07711438 0.08560404 0.1335662
v -0.07711438 0.08560404 0.1335662
v -0.05702889 0.09292492 0.09879724
v 6.705523E-08 0.193349 0.1617157
v -0.005694501 0.2051083 0.1970149
v 0.005694486 0.2051083 0.1970149
v 6.705523E-08 0.193349 0.1617157
v 0.05702884 0.09292492 0.09879688
v 0.0771144 0.08560404 0.1335661
v 0.0771144 0.08560404 0.1335661
v 0.05702884 0.09292492 0.09879688
v 0.139638 0.1931082 0.08108435
v 0.1677729 0.2051083 0.1034395
v 0.1734672 0.2051083 0.09357557
v 0.139638 0.1931082 0.08108435
v 0.1140579 0.09262714 6.835046E-06
v 0.1542287 0.08560404 3.381403E-07
v 0.1396379 0.1926213 -0.08017524
v 0.1140579 0.09262714 6.835046E-06
v 0.09500722 -0.05635777 -0.0002472596
v 0.08117651 -0.05635753 -0.04711695
v 0.05702898 0.09233102 -0.09878393
v 0.04750369 -0.05635777 -0.08253177
v -9.685755E-08 0.1923805 -0.1608066
v 0.05702898 0.09233102 -0.09878393
v 0.04750369 -0.05635777 -0.08253177
v -1.601061E-07 -0.05635777 -0.0939885
v -0.05702886 0.09233102 -0.09878316
v -9.685755E-08 0.1923805 -0.1608066
v -1.601061E-07 -0.05635777 -0.0939885
v -0.04750346 -0.05635777 -0.08253171
v -0.139638 0.1926213 -0.08017554
v -0.05702886 0.09233102 -0.09878316
v -0.04750346 -0.05635777 -0.08253171
v -0.08117659 -0.05635753 -0.04711695
v -0.1140579 0.09262714 6.835046E-06
v -0.09500722 -0.05635777 -0.0002465443
v -0.1396379 0.1931082 0.0810859
v -0.1140579 0.09262714 6.835046E-06
v -0.09500722 -0.05635777 -0.0002465443
v -0.0811765 -0.05635753 0.04662327
v -0.05702889 0.09292492 0.09879724
v -0.04750366 -0.05635777 0.08203766
v 6.705523E-08 0.193349 0.1617157
v -0.05702889 0.09292492 0.09879724
v -0.04750366 -0.05635777 0.08203766
v 1.680257E-07 -0.05635777 0.09349374
v 0.05702884 0.09292492 0.09879688
v 0.04750344 -0.05635777 0.08203772
v 0.139638 0.1931082 0.08108435
v 0.05702884 0.09292492 0.09879688
v 0.04750344 -0.05635777 0.08203772
v 0.08117656 -0.05635753 0.04662321
v 0.1140579 0.09262714 6.835046E-06
v 0.09500722 -0.05635777 -0.0002472596
vt 0.2019523 0.3626653
vt 0.2020297 0.3622273
vt 0.202121 0.3626653
vt 0.2050092 0.3626653
vt 0.2050936 0.3622189
vt 0.2051779 0.3626653
vt 0.1897244 0.3626653
vt 0.1898157 0.3622273
vt 0.1898931 0.3626653
vt 0.1927814 0.3626653
vt 0.192873 0.3622444
vt 0.19295 0.3626653
vt 0.1958383 0.3626653
vt 0.1959227 0.3622528
vt 0.196007 0.3626653
vt 0.1988953 0.3626653
vt 0.1989723 0.3622444
vt 0.199064 0.3626653
vt 0.2354566 0.3534088
vt 0.2353722 0.3625797
vt 0.2355409 0.3625797
vt 0.2339277 0.3534087
vt 0.2339281 0.3583881
vt 0.232399 0.3534088
vt 0.2324839 0.3625797
vt 0.2323152 0.3625797
vt 0.2308704 0.3534087
vt 0.230871 0.3583881
vt 0.2293421 0.3534087
vt 0.2294269 0.3625797
vt 0.2292582 0.3625797
vt 0.2278138 0.3534087
vt 0.2278141 0.3583881
vt 0.2262856 0.3534087
vt 0.2263699 0.3625797
vt 0.2262012 0.3625797
vt 0.2247573 0.3534087
vt 0.2247571 0.3583881
vt 0.2232291 0.3534087
vt 0.223313 0.3625797
vt 0.2231443 0.3625797
vt 0.2217007 0.3534087
vt 0.2217001 0.3583881
vt 0.2201722 0.3534088
vt 0.220256 0.3625797
vt 0.2200873 0.3625797
vt 0.2186434 0.3534087
vt 0.2186431 0.3583881
vt 0.2171146 0.3534088
vt 0.217199 0.3625797
vt 0.2005157 0.3534943
vt 0.2005075 0.3534943
vt 0.2020361 0.3534943
vt 0.2020434 0.3534943
vt 0.2020361 0.3534943
vt 0.2035648 0.3534943
vt 0.2035691 0.3534943
vt 0.2020434 0.3534943
vt 0.2035691 0.3534943
vt 0.2035648 0.3534943
vt 0.2050936 0.3534943
vt 0.2050936 0.3534943
vt 0.1867517 0.3534943
vt 0.1882805 0.3534943
vt 0.1882764 0.3534943
vt 0.1867517 0.3534943
vt 0.1882764 0.3534943
vt 0.1882805 0.3534943
vt 0.1898093 0.3534943
vt 0.189802 0.3534943
vt 0.1898093 0.3534943
vt 0.1913378 0.3534943
vt 0.1913296 0.3534943
vt 0.189802 0.3534943
vt 0.1913296 0.3534943
vt 0.1913378 0.3534943
vt 0.1928662 0.3534943
vt 0.1928591 0.3534943
vt 0.1943905 0.3534943
vt 0.1943944 0.3534943
vt 0.1959227 0.3534943
vt 0.1959227 0.3534943
vt 0.1974549 0.3534943
vt 0.1974509 0.3534943
vt 0.1989792 0.3534943
vt 0.1989862 0.3534943
vt 0.2005157 0.3534943
vt 0.2005075 0.3534943
vt 0.2005081 0.3584735
vt 0.2005079 0.3587199
vt 0.2020297 0.3622273
vt 0.2019523 0.3626653
vt 0.202121 0.3626653
vt 0.2020297 0.3622273
vt 0.2035652 0.3587096
vt 0.2035651 0.3584735
vt 0.2035651 0.3584735
vt 0.2035652 0.3587096
vt 0.2050936 0.3622189
vt 0.2050092 0.3626653
vt 0.1868361 0.3626653
vt 0.1867517 0.3622189
vt 0.1882802 0.3587096
vt 0.1882802 0.3584735
vt 0.1882802 0.3584735
vt 0.1882802 0.3587096
vt 0.1898157 0.3622273
vt 0.1897244 0.3626653
vt 0.1898931 0.3626653
vt 0.1898157 0.3622273
vt 0.1913374 0.3587199
vt 0.1913372 0.3584735
vt 0.1913372 0.3584735
vt 0.1913374 0.3587199
vt 0.192873 0.3622444
vt 0.1927814 0.3626653
vt 0.19295 0.3626653
vt 0.192873 0.3622444
vt 0.1943945 0.3587304
vt 0.1943942 0.3584735
vt 0.1943942 0.3584735
vt 0.1943945 0.3587304
vt 0.1959227 0.3622528
vt 0.1958383 0.3626653
vt 0.196007 0.3626653
vt 0.1959227 0.3622528
vt 0.1974509 0.3587304
vt 0.1974512 0.3584735
vt 0.1974512 0.3584735
vt 0.1974509 0.3587304
vt 0.1989723 0.3622444
vt 0.1988953 0.3626653
vt 0.199064 0.3626653
vt 0.1989723 0.3622444
vt 0.2005079 0.3587199
vt 0.2005081 0.3584735
vt 0.2636072 0.3622273
vt 0.2620854 0.3587199
vt 0.2620932 0.3534943
vt 0.2636209 0.3534943
vt 0.2651428 0.3587096
vt 0.2651466 0.3534943
vt 0.2666712 0.3622189
vt 0.2651428 0.3587096
vt 0.2651466 0.3534943
vt 0.2666712 0.3534943
vt 0.2498577 0.3587096
vt 0.2483292 0.3622189
vt 0.2483292 0.3534943
vt 0.2498538 0.3534943
vt 0.2513932 0.3622273
vt 0.2498577 0.3587096
vt 0.2498538 0.3534943
vt 0.2513795 0.3534943
vt 0.2529149 0.3587199
vt 0.2529071 0.3534943
vt 0.2544505 0.3622444
vt 0.2529149 0.3587199
vt 0.2529071 0.3534943
vt 0.2544366 0.3534943
vt 0.255972 0.3587304
vt 0.255968 0.3534943
vt 0.2575002 0.3622528
vt 0.255972 0.3587304
vt 0.255968 0.3534943
vt 0.2575002 0.3534943
vt 0.2590284 0.3587304
vt 0.2590324 0.3534943
vt 0.2605498 0.3622444
vt 0.2590284 0.3587304
vt 0.2590324 0.3534943
vt 0.2605637 0.3534943
vt 0.2620854 0.3587199
vt 0.2620932 0.3534943
vn -0.2838203 0.9447716 0.1638681
vn -0.2838203 0.9447716 0.1638681
vn -0.2838203 0.9447715 0.1638681
vn 0 0.9434114 0.3316249
vn 0 0.9434114 0.3316249
vn 0 0.9434114 0.3316249
vn 0.2838239 0.9447701 0.1638702
vn 0.2838239 0.9447701 0.1638702
vn 0.2838239 0.9447701 0.1638702
vn 0.2770323 0.9474539 -0.1599509
vn 0.2770323 0.9474539 -0.1599509
vn 0.2770323 0.9474539 -0.1599509
vn 0 0.9487407 -0.3160554
vn 0 0.9487407 -0.3160554
vn 0 0.9487407 -0.3160554
vn -0.2770322 0.947456 -0.1599383
vn -0.2770322 0.947456 -0.1599383
vn -0.2770322 0.947456 -0.1599383
vn 0 -0.3321258 -0.9432352
vn 0.2659812 -0.2343791 -0.935051
vn -0.2659772 -0.2343795 -0.935052
vn 0.4745323 -0.315079 -0.821915
vn 0.4868354 -0.2278224 -0.8432604
vn 0.8167717 -0.3324547 -0.4715483
vn 0.6767558 -0.2343401 -0.6979157
vn 0.9428065 -0.2342786 -0.2371271
vn 0.9488991 -0.3155794 1.727296E-05
vn 0.9737322 -0.2276967 -1.162168E-05
vn 0.8165583 -0.3330934 0.4714673
vn 0.9428368 -0.2342224 0.2370623
vn 0.6767243 -0.2341803 0.6979999
vn 0.4743517 -0.3160689 0.8216392
vn 0.4868708 -0.2276053 0.8432987
vn 0 -0.3334014 0.9427849
vn 0.2661475 -0.23416 0.9350586
vn -0.2661436 -0.2341605 0.9350597
vn -0.4743523 -0.3160688 0.8216388
vn -0.4868714 -0.2276051 0.8432984
vn -0.8165597 -0.333092 0.4714658
vn -0.676716 -0.2341782 0.6980086
vn -0.9428355 -0.234222 0.2370683
vn -0.9488992 -0.3155792 1.732766E-05
vn -0.9737322 -0.2276966 -1.203694E-05
vn -0.8167709 -0.3324555 -0.4715493
vn -0.942807 -0.2342787 -0.2371257
vn -0.6767568 -0.2343404 -0.6979145
vn -0.474532 -0.3150791 -0.8219151
vn -0.4868353 -0.2278227 -0.8432604
vn 0 -0.3321258 -0.9432352
vn -0.2659772 -0.2343795 -0.935052
vn 0 -1 0
vn 0.9488991 -0.3155794 1.727296E-05
vn 0.8167717 -0.3324547 -0.4715483
vn 0 -1 0
vn 0.8167717 -0.3324547 -0.4715483
vn 0.4745323 -0.315079 -0.821915
vn 0 -1 0
vn 0 -1 0
vn 0 -1 0
vn 0.4745323 -0.315079 -0.821915
vn 0 -0.3321258 -0.9432352
vn 0 -1 0
vn 0 -0.3321258 -0.9432352
vn -0.474532 -0.3150791 -0.8219151
vn 0 -1 0
vn 0 -1 0
vn 0 -1 0
vn -0.474532 -0.3150791 -0.8219151
vn -0.8167709 -0.3324555 -0.4715493
vn 0 -1 0
vn -0.8167709 -0.3324555 -0.4715493
vn -0.9488992 -0.3155792 1.732766E-05
vn 0 -1 0
vn 0 -1 0
vn 0 -1 0
vn -0.9488992 -0.3155792 1.732766E-05
vn -0.8165597 -0.333092 0.4714658
vn 0 -1 0
vn 0 -1 0
vn -0.4743523 -0.3160688 0.8216388
vn 0 -0.3334014 0.9427849
vn 0 -1 0
vn 0 -1 0
vn 0.4743517 -0.3160689 0.8216392
vn 0.8165583 -0.3330934 0.4714673
vn 0 -1 0
vn 0 -1 0
vn 0.9488991 -0.3155794 1.727296E-05
vn 0.09843287 0.6052315 0.7899404
vn 0.09843287 0.6052316 0.7899404
vn 0.09843288 0.6052315 0.7899404
vn 0.09843287 0.6052315 0.7899404
vn -0.6391857 0.6082336 -0.4706309
vn -0.6391857 0.6082336 -0.4706308
vn -0.6391858 0.6082336 -0.4706308
vn -0.6391857 0.6082336 -0.4706309
vn 0.7290277 0.60714 0.3160688
vn 0.7290278 0.6071401 0.3160688
vn 0.7290277 0.60714 0.3160688
vn 0.7290278 0.6071401 0.3160688
vn -0.7290295 0.6071401 0.3160648
vn -0.7290295 0.6071401 0.3160648
vn -0.7290296 0.6071401 0.3160648
vn -0.7290295 0.6071401 0.3160647
vn 0.6391867 0.6082337 -0.4706295
vn 0.6391868 0.6082337 -0.4706294
vn 0.6391867 0.6082337 -0.4706294
vn 0.6391867 0.6082337 -0.4706294
vn -0.09843076 0.6052316 0.7899405
vn -0.09843077 0.6052316 0.7899405
vn -0.09843078 0.6052316 0.7899405
vn -0.09843078 0.6052316 0.7899405
vn -0.09222149 0.6075554 -0.7889053
vn -0.09222151 0.6075554 -0.7889053
vn -0.0922215 0.6075554 -0.7889053
vn -0.09222149 0.6075554 -0.7889053
vn 0.632517 0.6043565 0.4844331
vn 0.632517 0.6043565 0.4844331
vn 0.632517 0.6043565 0.4844331
vn 0.632517 0.6043566 0.4844331
vn -0.7336228 0.6056055 -0.3082847
vn -0.733623 0.6056055 -0.3082847
vn -0.7336229 0.6056055 -0.3082847
vn -0.7336229 0.6056055 -0.3082847
vn 0.7336243 0.605606 -0.3082802
vn 0.7336243 0.605606 -0.3082802
vn 0.7336243 0.605606 -0.3082802
vn 0.7336243 0.605606 -0.3082802
vn -0.6325215 0.6043601 0.4844227
vn -0.6325215 0.6043601 0.4844228
vn -0.6325215 0.6043602 0.4844228
vn -0.6325215 0.6043602 0.4844228
vn 0.09223875 0.607548 -0.788909
vn 0.09223875 0.6075481 -0.788909
vn 0.09223874 0.607548 -0.788909
vn 0.09223874 0.607548 -0.788909
vn -0.8460075 0.2165135 0.48723
vn -0.9785678 0.1958434 0.06364247
vn -0.9785678 0.1958434 0.06364247
vn -0.8454413 0.2165115 0.4882129
vn -0.5462131 0.1944137 0.8147727
vn -0.5462132 0.1944137 0.8147727
vn 0 0.2156085 0.9764799
vn -0.4327588 0.194374 0.8803059
vn -0.4327588 0.194374 0.8803059
vn 0 0.2156085 0.9764799
vn 0.4327674 0.1943714 0.8803023
vn 0 0.2156085 0.9764799
vn 0 0.2156085 0.9764799
vn 0.4327674 0.1943714 0.8803023
vn 0.8460075 0.2165135 0.4872302
vn 0.5462058 0.1944124 0.8147779
vn 0.5462058 0.1944124 0.8147779
vn 0.8454406 0.2165114 0.488214
vn 0.9785679 0.1958436 0.06364119
vn 0.9785679 0.1958436 0.06364119
vn 0.8446434 0.2183815 -0.4887608
vn 0.9785253 0.1959341 -0.06401559
vn 0.9785253 0.1959341 -0.06401559
vn 0.84522 0.2183793 -0.4877638
vn 0.5429944 0.197427 -0.8161983
vn 0.5429944 0.197427 -0.8161983
vn 0 0.219346 -0.9756471
vn 0.4352475 0.1974801 -0.8783856
vn 0.4352475 0.1974801 -0.8783856
vn 0 0.219346 -0.9756471
vn -0.435253 0.1974785 -0.8783832
vn -0.4352529 0.1974785 -0.8783832
vn -0.8446419 0.2183795 -0.4887642
vn -0.5429969 0.1974239 -0.8161975
vn -0.5429969 0.1974239 -0.8161975
vn -0.8452192 0.2183774 -0.4877661
vn -0.9785255 0.1959338 -0.06401473
vn -0.9785255 0.1959338 -0.06401473
g PiggyCrownMDL_0
f 3/3/3 2/2/2 1/1/1
f 6/6/6 5/5/5 4/4/4
f 9/9/9 8/8/8 7/7/7
f 12/12/12 11/11/11 10/10/10
f 15/15/15 14/14/14 13/13/13
f 18/18/18 17/17/17 16/16/16
f 21/21/21 20/20/20 19/19/19
f 19/19/19 20/20/20 22/22/22
f 20/20/20 23/23/23 22/22/22
f 22/22/22 23/23/23 24/24/24
f 23/23/23 25/25/25 24/24/24
f 25/25/25 26/26/26 24/24/24
f 24/24/24 26/26/26 27/27/27
f 26/26/26 28/28/28 27/27/27
f 27/27/27 28/28/28 29/29/29
f 28/28/28 30/30/30 29/29/29
f 30/30/30 31/31/31 29/29/29
f 29/29/29 31/31/31 32/32/32
f 31/31/31 33/33/33 32/32/32
f 32/32/32 33/33/33 34/34/34
f 33/33/33 35/35/35 34/34/34
f 35/35/35 36/36/36 34/34/34
f 34/34/34 36/36/36 37/37/37
f 36/36/36 38/38/38 37/37/37
f 37/37/37 38/38/38 39/39/39
f 38/38/38 40/40/40 39/39/39
f 40/40/40 41/41/41 39/39/39
f 39/39/39 41/41/41 42/42/42
f 41/41/41 43/43/43 42/42/42
f 42/42/42 43/43/43 44/44/44
f 43/43/43 45/45/45 44/44/44
f 45/45/45 46/46/46 44/44/44
f 44/44/44 46/46/46 47/47/47
f 46/46/46 48/48/48 47/47/47
f 47/47/47 48/48/48 49/49/49
f 48/48/48 50/50/50 49/49/49
f 53/53/53 52/52/52 51/51/51
f 54/54/54 53/53/53 51/51/51
f 57/57/57 56/56/56 55/55/55
f 58/58/58 57/57/57 55/55/55
f 61/61/61 60/60/60 59/59/59
f 62/62/62 61/61/61 59/59/59
f 65/65/65 64/64/64 63/63/63
f 66/66/66 65/65/65 63/63/63
f 69/69/69 68/68/68 67/67/67
f 70/70/70 69/69/69 67/67/67
f 73/73/73 72/72/72 71/71/71
f 74/74/74 73/73/73 71/71/71
f 77/77/77 76/76/76 75/75/75
f 78/78/78 77/77/77 75/75/75
f 78/78/78 79/79/79 77/77/77
f 79/79/79 80/80/80 77/77/77
f 81/81/81 80/80/80 79/79/79
f 82/82/82 81/81/81 79/79/79
f 82/82/82 83/83/83 81/81/81
f 83/83/83 84/84/84 81/81/81
f 85/85/85 84/84/84 83/83/83
f 86/86/86 85/85/85 83/83/83
f 86/86/86 87/87/87 85/85/85
f 87/87/87 88/88/88 85/85/85
f 91/91/91 90/90/90 89/89/89
f 92/92/92 91/91/91 89/89/89
f 95/95/95 94/94/94 93/93/93
f 96/96/96 95/95/95 93/93/93
f 99/99/99 98/98/98 97/97/97
f 100/100/100 99/99/99 97/97/97
f 103/103/103 102/102/102 101/101/101
f 104/104/104 103/103/103 101/101/101
f 107/107/107 106/106/106 105/105/105
f 108/108/108 107/107/107 105/105/105
f 111/111/111 110/110/110 109/109/109
f 112/112/112 111/111/111 109/109/109
f 115/115/115 114/114/114 113/113/113
f 116/116/116 115/115/115 113/113/113
f 119/119/119 118/118/118 117/117/117
f 120/120/120 119/119/119 117/117/117
f 123/123/123 122/122/122 121/121/121
f 124/124/124 123/123/123 121/121/121
f 127/127/127 126/126/126 125/125/125
f 128/128/128 127/127/127 125/125/125
f 131/131/131 130/130/130 129/129/129
f 132/132/132 131/131/131 129/129/129
f 135/135/135 134/134/134 133/133/133
f 136/136/136 135/135/135 133/133/133
f 139/139/139 138/138/138 137/137/137
f 140/140/140 139/139/139 137/137/137
f 140/140/140 137/137/137 141/141/141
f 142/142/142 140/140/140 141/141/141
f 145/145/145 144/144/144 143/143/143
f 146/146/146 145/145/145 143/143/143
f 149/149/149 148/148/148 147/147/147
f 150/150/150 149/149/149 147/147/147
f 153/153/153 152/152/152 151/151/151
f 154/154/154 153/153/153 151/151/151
f 154/154/154 151/151/151 155/155/155
f 156/156/156 154/154/154 155/155/155
f 159/159/159 158/158/158 157/157/157
f 160/160/160 159/159/159 157/157/157
f 160/160/160 157/157/157 161/161/161
f 162/162/162 160/160/160 161/161/161
f 165/165/165 164/164/164 163/163/163
f 166/166/166 165/165/165 163/163/163
f 166/166/166 163/163/163 167/167/167
f 168/168/168 166/166/166 167/167/167
f 171/171/171 170/170/170 169/169/169
f 172/172/172 171/171/171 169/169/169
f 172/172/172 169/169/169 173/173/173
f 174/174/174 172/172/172 173/173/173
