g Piggy_Color_06
v 13.00525 -12.87288 0.4088104
v 13.00525 -12.87288 -0.5088105
v 11.15441 -12.87288 -0.5088105
v 11.15441 -12.87288 0.4088104
v 7.602674 -11.83 -0.5088105
v 7.602674 -11.83 0.4088104
v 4.488622 -9.828712 -0.5088105
v 4.488622 -9.828712 0.4088104
v 2.064539 -7.031168 -0.508812
v 2.064539 -7.031168 0.4088104
v 0.5268059 -3.664001 -0.508812
v 0.5268059 -3.664001 0.4088104
v 3.051758E-06 9.594064E-07 -0.508812
v 4.577637E-06 9.594067E-07 0.4088104
v 0.5268059 3.664002 -0.508812
v 0.5268059 3.664002 0.4088104
v 2.064539 7.03117 -0.508812
v 2.064539 7.03117 0.4088104
v 4.488622 9.828714 -0.5088105
v 4.488622 9.828714 0.4088104
v 7.602674 11.83 -0.5088105
v 7.602674 11.83 0.4088104
v 11.15441 12.87288 -0.5088105
v 11.15441 12.87288 0.4088104
v 13.00525 12.87288 -0.5088105
v 13.00525 12.87288 0.4088104
v 13.00525 12.87288 0.4088104
v 13.00525 12.87288 -0.5088105
v 13.00526 9.594067E-07 -0.5088105
v 13.00526 9.594067E-07 0.4088104
v 13.00525 -12.87288 -0.5088105
v 13.00525 -12.87288 0.4088104
v 11.1746 -12.77494 0.5088105
v 12.93454 -12.80217 0.5088105
v 13.00525 -12.87288 0.4088104
v 11.15441 -12.87288 0.4088104
v 7.644216 -11.73903 0.5088105
v 7.602674 -11.83 0.4088104
v 4.554109 -9.753138 0.5088105
v 4.488622 -9.828712 0.4088104
v 2.148664 -6.977104 0.5088105
v 2.064539 -7.031168 0.4088104
v 0.6227555 -3.635828 0.5088105
v 0.5268059 -3.664001 0.4088104
v 0.1000046 9.59407E-07 0.5088105
v 4.577637E-06 9.594067E-07 0.4088104
v 0.6227555 3.635829 0.5088105
v 0.5268059 3.664002 0.4088104
v 2.148664 6.977106 0.5088105
v 2.064539 7.03117 0.4088104
v 4.554109 9.753139 0.5088105
v 4.488622 9.828714 0.4088104
v 7.644216 11.73903 0.5088105
v 7.602674 11.83 0.4088104
v 11.1746 12.77494 0.5088105
v 11.15441 12.87288 0.4088104
v 12.93454 12.80217 0.5088105
v 13.00525 12.87288 0.4088104
v 12.90526 9.594067E-07 0.5088105
v 12.93454 12.80217 0.5088105
v 13.00525 12.87288 0.4088104
v 13.00526 9.594067E-07 0.4088104
v 12.93454 -12.80217 0.5088105
v 13.00525 -12.87288 0.4088104
v 12.90526 9.594067E-07 0.5088105
v 11.4707 11.33832 0.5088105
v 12.93454 12.80217 0.5088105
v 11.1746 12.77494 0.5088105
v 11.4707 9.594067E-07 0.5088105
v 12.93454 -12.80217 0.5088105
v 8.246711 10.41976 0.5088105
v 7.644216 11.73903 0.5088105
v 11.4707 -11.33832 0.5088105
v 5.503881 8.657044 0.5088105
v 3.36877 6.192993 0.5088105
v 4.554109 9.753139 0.5088105
v 11.1746 -12.77494 0.5088105
v 2.148664 6.977106 0.5088105
v 7.644216 -11.73903 0.5088105
v 2.014349 3.227221 0.5088105
v 0.6227555 3.635829 0.5088105
v 8.246711 -10.41975 0.5088105
v 4.554109 -9.753138 0.5088105
v 1.550345 9.59407E-07 0.5088105
v 0.1000046 9.59407E-07 0.5088105
v 5.503881 -8.657043 0.5088105
v 2.148664 -6.977104 0.5088105
v 2.014349 -3.227219 0.5088105
v 0.6227555 -3.635828 0.5088105
v 3.36877 -6.192991 0.5088105
vt 0.9764532 0.640017
vt 0.9764532 0.6275742
vt 0.9485282 0.6298193
vt 0.9509919 0.6413345
vt 0.8995661 0.6442332
vt 0.9046018 0.6548573
vt 0.8562431 0.6722318
vt 0.8640162 0.6810647
vt 0.8224954 0.7114153
vt 0.8324193 0.7177272
vt 0.8010839 0.7585457
vt 0.8123724 0.7618327
vt 0.7937481 0.8098122
vt 0.805504 0.8098122
vt 0.8010838 0.8610786
vt 0.8123721 0.8577916
vt 0.8224954 0.9082093
vt 0.8324193 0.9018973
vt 0.8562428 0.9473926
vt 0.8640161 0.9385598
vt 0.8995659 0.9753914
vt 0.9046015 0.9647674
vt 0.9485281 0.9898051
vt 0.9509916 0.97829
vt 0.9764531 0.99205
vt 0.9764531 0.9796072
vt 0.9764531 0.9796072
vt 0.9885172 0.9794173
vt 0.9885172 0.8098122
vt 0.9764532 0.8098122
vt 0.9885172 0.6402069
vt 0.9764532 0.640017
vt 0.9516525 0.6426167
vt 0.9746215 0.6414023
vt 0.9764532 0.640017
vt 0.9509919 0.6413345
vt 0.9054856 0.6561183
vt 0.9046018 0.6548573
vt 0.8651244 0.6821278
vt 0.8640162 0.6810647
vt 0.8337312 0.7184826
vt 0.8324193 0.7177272
vt 0.8138211 0.7622239
vt 0.8123724 0.7618327
vt 0.8070003 0.8098122
vt 0.805504 0.8098122
vt 0.8138207 0.8574004
vt 0.8123721 0.8577916
vt 0.8337311 0.9011418
vt 0.8324193 0.9018973
vt 0.8651242 0.9374965
vt 0.8640161 0.9385598
vt 0.9054854 0.9635062
vt 0.9046015 0.9647674
vt 0.9516523 0.9770077
vt 0.9509916 0.97829
vt 0.9746213 0.9782218
vt 0.9764531 0.9796072
vt 0.9746271 0.8098122
vt 0.9746213 0.9782218
vt 0.9764531 0.9796072
vt 0.9764532 0.8098122
vt 0.9746215 0.6414023
vt 0.9764532 0.640017
vt 0.9746271 0.8098122
vt 0.9560706 0.9586191
vt 0.9746213 0.9782218
vt 0.9516523 0.9770077
vt 0.9560706 0.8098122
vt 0.9746215 0.6414023
vt 0.9135271 0.9465014
vt 0.9054854 0.9635062
vt 0.9560707 0.6610054
vt 0.8775779 0.9233674
vt 0.8496161 0.8910412
vt 0.8651242 0.9374965
vt 0.9516525 0.6426167
vt 0.8337311 0.9011418
vt 0.9054856 0.6561183
vt 0.8318846 0.8521394
vt 0.8138207 0.8574004
vt 0.9135273 0.6731229
vt 0.8651244 0.6821278
vt 0.8258106 0.8098122
vt 0.8070003 0.8098122
vt 0.8775781 0.6962569
vt 0.8337312 0.7184826
vt 0.8318846 0.7674849
vt 0.8138211 0.7622239
vt 0.8496162 0.7285832
vn 0 -1 0
vn 0 -1 0
vn -0.1423151 -0.9898214 0
vn -0.1423152 -0.9898214 0
vn -0.4154156 -0.9096317 0
vn -0.4154156 -0.9096317 0
vn -0.6548613 -0.7557492 0
vn -0.6548612 -0.7557492 0
vn -0.8412538 -0.5406405 0
vn -0.8412538 -0.5406405 0
vn -0.959493 -0.2817322 0
vn -0.959493 -0.2817322 0
vn -1 0 0
vn -1 0 0
vn -0.959493 0.2817322 0
vn -0.959493 0.2817322 0
vn -0.8412538 0.5406405 0
vn -0.8412538 0.5406405 0
vn -0.6548613 0.7557492 0
vn -0.6548612 0.7557492 0
vn -0.4154156 0.9096317 0
vn -0.4154156 0.9096317 0
vn -0.1423151 0.9898214 0
vn -0.1423152 0.9898214 0
vn 0 1 0
vn 0 1 0
vn 1 0 0
vn 1 0 0
vn 1 0 0
vn 1 0 0
vn 1 0 0
vn 1 0 0
vn -0.1012507 -0.7283517 0.6776814
vn -0.005770633 -0.7651806 0.6437898
vn -0.005770633 -0.7651806 0.6437898
vn -0.1062522 -0.7261751 0.6792498
vn -0.2935359 -0.6426332 0.707714
vn -0.2935396 -0.6426315 0.707714
vn -0.4630565 -0.534395 0.7071073
vn -0.4630563 -0.534395 0.7071074
vn -0.5948557 -0.3822902 0.7071074
vn -0.5948557 -0.3822901 0.7071074
vn -0.6784635 -0.1992147 0.7071073
vn -0.6784636 -0.1992145 0.7071072
vn -0.7071064 0 0.7071072
vn -0.7071064 0 0.7071072
vn -0.6784635 0.1992146 0.7071073
vn -0.6784636 0.1992144 0.7071073
vn -0.5948557 0.3822902 0.7071074
vn -0.5948555 0.3822902 0.7071075
vn -0.4630564 0.5343949 0.7071073
vn -0.4630564 0.534395 0.7071073
vn -0.2935359 0.6426332 0.7077141
vn -0.2935396 0.6426315 0.7077141
vn -0.1012507 0.7283517 0.6776814
vn -0.1062522 0.7261751 0.6792498
vn -0.005770633 0.7651806 0.6437898
vn -0.005770633 0.7651807 0.6437897
vn 0.7607559 0 0.6490381
vn 0.7607556 -0.0008671872 0.6490379
vn 0.7607556 -0.0008671872 0.6490379
vn 0.7607559 0 0.6490381
vn 0.7607555 0.0008671872 0.6490379
vn 0.7607555 0.0008671872 0.6490379
vn 0 0 1
vn 0 0 1
vn 0 0 1
vn 0 0 1
vn 0 0 1
vn 0 0 1
vn 0 0 1
vn 0 0 1
vn 0 0 1
vn 0 0 1
vn 0 0 1
vn 0 0 1
vn 0 0 1
vn 0 0 1
vn 0 0 1
vn 0 0 1
vn 0 0 1
vn 0 0 1
vn 0 0 1
vn 0 0 1
vn 0 0 1
vn 0 0 1
vn 0 0 1
vn 0 0 1
vn 0 0 1
vn 0 0 1
g Piggy_Color_06_0
f 3/3/3 2/2/2 1/1/1
f 4/4/4 3/3/3 1/1/1
f 5/5/5 3/3/3 4/4/4
f 6/6/6 5/5/5 4/4/4
f 7/7/7 5/5/5 6/6/6
f 8/8/8 7/7/7 6/6/6
f 9/9/9 7/7/7 8/8/8
f 10/10/10 9/9/9 8/8/8
f 11/11/11 9/9/9 10/10/10
f 12/12/12 11/11/11 10/10/10
f 13/13/13 11/11/11 12/12/12
f 14/14/14 13/13/13 12/12/12
f 15/15/15 13/13/13 14/14/14
f 16/16/16 15/15/15 14/14/14
f 17/17/17 15/15/15 16/16/16
f 18/18/18 17/17/17 16/16/16
f 19/19/19 17/17/17 18/18/18
f 20/20/20 19/19/19 18/18/18
f 21/21/21 19/19/19 20/20/20
f 22/22/22 21/21/21 20/20/20
f 23/23/23 21/21/21 22/22/22
f 24/24/24 23/23/23 22/22/22
f 25/25/25 23/23/23 24/24/24
f 26/26/26 25/25/25 24/24/24
f 29/29/29 28/28/28 27/27/27
f 30/30/30 29/29/29 27/27/27
f 31/31/31 29/29/29 30/30/30
f 32/32/32 31/31/31 30/30/30
f 35/35/35 34/34/34 33/33/33
f 36/36/36 35/35/35 33/33/33
f 36/36/36 33/33/33 37/37/37
f 38/38/38 36/36/36 37/37/37
f 38/38/38 37/37/37 39/39/39
f 40/40/40 38/38/38 39/39/39
f 40/40/40 39/39/39 41/41/41
f 42/42/42 40/40/40 41/41/41
f 42/42/42 41/41/41 43/43/43
f 44/44/44 42/42/42 43/43/43
f 44/44/44 43/43/43 45/45/45
f 46/46/46 44/44/44 45/45/45
f 46/46/46 45/45/45 47/47/47
f 48/48/48 46/46/46 47/47/47
f 48/48/48 47/47/47 49/49/49
f 50/50/50 48/48/48 49/49/49
f 50/50/50 49/49/49 51/51/51
f 52/52/52 50/50/50 51/51/51
f 52/52/52 51/51/51 53/53/53
f 54/54/54 52/52/52 53/53/53
f 54/54/54 53/53/53 55/55/55
f 56/56/56 54/54/54 55/55/55
f 56/56/56 55/55/55 57/57/57
f 58/58/58 56/56/56 57/57/57
f 61/61/61 60/60/60 59/59/59
f 62/62/62 61/61/61 59/59/59
f 62/62/62 59/59/59 63/63/63
f 64/64/64 62/62/62 63/63/63
f 67/67/67 66/66/66 65/65/65
f 68/68/68 66/66/66 67/67/67
f 66/66/66 69/69/69 65/65/65
f 65/65/65 69/69/69 70/70/70
f 71/71/71 66/66/66 68/68/68
f 71/71/71 69/69/69 66/66/66
f 72/72/72 71/71/71 68/68/68
f 69/69/69 73/73/73 70/70/70
f 74/74/74 69/69/69 71/71/71
f 74/74/74 71/71/71 72/72/72
f 75/75/75 69/69/69 74/74/74
f 76/76/76 74/74/74 72/72/72
f 75/75/75 74/74/74 76/76/76
f 70/70/70 73/73/73 77/77/77
f 78/78/78 75/75/75 76/76/76
f 77/77/77 73/73/73 79/79/79
f 80/80/80 75/75/75 78/78/78
f 80/80/80 69/69/69 75/75/75
f 81/81/81 80/80/80 78/78/78
f 73/73/73 82/82/82 79/79/79
f 82/82/82 73/73/73 69/69/69
f 79/79/79 82/82/82 83/83/83
f 84/84/84 80/80/80 81/81/81
f 84/84/84 69/69/69 80/80/80
f 85/85/85 84/84/84 81/81/81
f 82/82/82 86/86/86 83/83/83
f 86/86/86 82/82/82 69/69/69
f 83/83/83 86/86/86 87/87/87
f 88/88/88 84/84/84 85/85/85
f 84/84/84 88/88/88 69/69/69
f 89/89/89 88/88/88 85/85/85
f 87/87/87 90/90/90 89/89/89
f 86/86/86 90/90/90 87/87/87
f 90/90/90 86/86/86 69/69/69
f 88/88/88 90/90/90 69/69/69
f 90/90/90 88/88/88 89/89/89
