g Piggy_Color_Tail
v 0.1929361 0 0.03837738
v 0.1817418 0.07527993 0
v 0.1967159 0 0
v 0.1782497 0.07383344 0.03837738
v 0.1390992 0.1390992 0
v 0.1782497 -0.07383335 0.03837738
v 0.1817418 -0.07527983 0
v 0.1364264 0.1364264 0.03837738
v 0.07527992 0.1817418 0
v 0.1364264 -0.1364264 0.03837738
v 0.1390992 -0.1390991 0
v 0.07383344 0.1782497 0.03837738
v -8.598726E-09 0.1967159 0
v 0.07383347 -0.1782497 0.03837738
v 0.07527996 -0.1817418 0
v -8.433504E-09 0.1929361 0.03837738
v -0.07527994 0.1817418 0
v 2.30074E-09 -0.1929361 0.03837738
v 2.345814E-09 -0.1967159 0
v -0.07383346 0.1782497 0.03837738
v -0.1390992 0.1390992 0
v -0.07383347 -0.1782497 0.03837738
v -0.07527995 -0.1817418 0
v -0.1364264 0.1364264 0.03837738
v -0.1817418 0.07527994 0
v -0.1364264 -0.1364264 0.03837738
v -0.1390992 -0.1390991 0
v -0.1782497 0.07383345 0.03837738
v -0.1967159 2.970328E-08 0
v -0.1782497 -0.0738334 0.03837738
v -0.1817418 -0.07527988 0
v -0.1929361 2.913254E-08 0.03837738
v -0.06954961 -0.1679075 0.07527991
v -0.1285109 -0.1285108 0.07527991
v -0.1679076 -0.06954954 0.07527991
v -0.1817418 2.744225E-08 0.07527991
v -0.1679075 0.06954958 0.07527991
v -0.1285109 0.1285109 0.07527991
v 2.167249E-09 -0.1817418 0.07527991
v -0.06954959 0.1679075 0.07527991
v 0.06954961 -0.1679075 0.07527991
v -7.944187E-09 0.1817418 0.07527991
v 0.1285109 -0.1285108 0.07527991
v 0.06954958 0.1679075 0.07527991
v 0.1679076 -0.06954949 0.07527991
v 0.1285109 0.1285109 0.07527991
v 0.1817418 0 0.07527991
v 0.1679075 0.06954958 0.07527991
v 0.062593 -0.1511128 0.1092895
v 0.1156568 -0.1156567 0.1092895
v 0.1511128 -0.06259289 0.1092895
v 0.1635633 0 0.1092895
v 0.1511128 0.06259298 0.1092895
v 0.1156567 0.1156567 0.1092895
v 1.950473E-09 -0.1635633 0.1092895
v 0.06259297 0.1511128 0.1092895
v -0.062593 -0.1511128 0.1092895
v -7.149579E-09 0.1635633 0.1092895
v -0.1156568 -0.1156567 0.1092895
v -0.06259298 0.1511128 0.1092895
v -0.1511128 -0.06259294 0.1092895
v -0.1156567 0.1156567 0.1092895
v -0.1635633 2.469737E-08 0.1092895
v -0.1511128 0.06259298 0.1092895
v -0.09835799 -0.09835793 0.1390991
v -0.1285109 -0.05323091 0.1390991
v -0.1390992 2.100339E-08 0.1390991
v -0.1285109 0.05323095 0.1390991
v -0.09835796 0.09835796 0.1390991
v -0.05323095 0.1285109 0.1390991
v -0.05323097 -0.1285109 0.1390991
v -6.080217E-09 0.1390992 0.1390991
v 1.658741E-09 -0.1390992 0.1390991
v 0.05323094 0.1285109 0.1390991
v 0.05323097 -0.1285109 0.1390991
v 0.09835796 0.09835796 0.1390991
v 0.09835799 -0.09835792 0.1390991
v 0.1285109 0.05323095 0.1390991
v 0.1285109 -0.05323088 0.1390991
v 0.1390992 0 0.1390991
v 1.303264E-09 -0.1092895 0.1635634
v 0.04182331 -0.1009703 0.1635634
v 0.07727938 -0.07727933 0.1635634
v 0.1009704 -0.04182324 0.1635634
v 0.1092895 0 0.1635634
v 0.1009703 0.04182329 0.1635634
v -0.04182331 -0.1009703 0.1635634
v 0.07727935 0.07727935 0.1635634
v -0.07727938 -0.07727934 0.1635634
v 0.04182329 0.1009703 0.1635634
v -0.1009704 -0.04182326 0.1635634
v -4.777197E-09 0.1092895 0.1635634
v -0.1092895 1.650226E-08 0.1635634
v -0.04182329 0.1009703 0.1635634
v -0.1009703 0.04182329 0.1635634
v -0.07727935 0.07727935 0.1635634
v -0.06954959 -0.02880836 0.1817418
v -0.07527993 1.136695E-08 0.1817418
v -0.06954958 0.02880839 0.1817418
v -0.05323095 0.05323095 0.1817418
v -0.02880839 0.06954958 0.1817418
v -3.29059E-09 0.07527993 0.1817418
v -0.03691672 0.007343196 0.192936
v -0.02091164 0.03129648 0.192936
v 0 0 0.1967159
v 0.007343191 0.03691672 0.192936
v 0.02880838 0.06954958 0.1817418
v -0.03129649 -0.02091163 0.192936
v 0.03129648 0.02091164 0.192936
v 0.05323095 0.05323095 0.1817418
v 0.06954958 0.02880838 0.1817418
v 0.03691673 -0.007343184 0.192936
v 0.07527993 0 0.1817418
v 0.06954961 -0.02880835 0.1817418
v 0.02091165 -0.03129648 0.192936
v 0.05323097 -0.05323093 0.1817418
v 0.02880839 -0.06954958 0.1817418
v -0.007343195 -0.03691672 0.192936
v 8.977041E-10 -0.07527993 0.1817418
v -0.02880839 -0.06954958 0.1817418
v -0.05323097 -0.05323094 0.1817418
vt 0.02962285 0.4616784
vt 0.02644902 0.4416561
vt 0.02246111 0.4616778
vt 0.03306573 0.4443989
vt 0.03779608 0.4246863
vt 0.03306263 0.4789586
vt 0.02644533 0.4817001
vt 0.04285949 0.4297528
vt 0.05477291 0.413351
vt 0.04285378 0.4936062
vt 0.03778942 0.4986719
vt 0.05751246 0.4199696
vt 0.07479399 0.4093734
vt 0.05750471 0.5033923
vt 0.05476388 0.5100104
vt 0.07479328 0.4165373
vt 0.09481436 0.4133547
vt 0.07478493 0.5068279
vt 0.07478425 0.5139918
vt 0.0920735 0.4199727
vt 0.1117889 0.4246933
vt 0.09206575 0.5033956
vt 0.09480533 0.5100142
vt 0.1067245 0.4297588
vt 0.1231329 0.4416651
vt 0.1067187 0.4936125
vt 0.1117822 0.4986789
vt 0.1165157 0.4444065
vt 0.127117 0.4616875
vt 0.1165125 0.4789664
vt 0.1231292 0.4817091
vt 0.1199554 0.4616868
vt 0.08965832 0.4975797
vt 0.1022695 0.4891606
vt 0.1106983 0.4765565
vt 0.1136644 0.4616862
vt 0.1107012 0.4468153
vt 0.1022744 0.43421
vt 0.07478541 0.5005314
vt 0.08966511 0.4257882
vt 0.05991321 0.4975769
vt 0.0747928 0.4228338
vt 0.04730397 0.4891551
vt 0.05991989 0.4257856
vt 0.0388772 0.4765498
vt 0.04730874 0.4342046
vt 0.03591376 0.461679
vt 0.03887981 0.4468087
vt 0.06222623 0.4919902
vt 0.0515787 0.4848782
vt 0.04446345 0.474235
vt 0.04195553 0.4616796
vt 0.04446572 0.4491245
vt 0.05158239 0.438482
vt 0.07478589 0.4944811
vt 0.06223219 0.4313726
vt 0.08734614 0.4919927
vt 0.07479233 0.4288842
vt 0.09799582 0.4848833
vt 0.08735198 0.4313749
vt 0.1051124 0.4742407
vt 0.09799951 0.438487
vt 0.1076227 0.4616856
vt 0.1051148 0.4491301
vt 0.09364611 0.4805262
vt 0.09942275 0.4718811
vt 0.1014733 0.461685
vt 0.09942478 0.4514885
vt 0.09364837 0.4428441
vt 0.08499831 0.4370622
vt 0.0849933 0.486305
vt 0.07479197 0.4350463
vt 0.07478637 0.4883189
vt 0.06458503 0.4370603
vt 0.0645799 0.4863029
vt 0.0559321 0.4428391
vt 0.05592984 0.4805211
vt 0.05015534 0.4514841
vt 0.05015355 0.4718767
vt 0.04810494 0.4616803
vt 0.07478577 0.4818886
vt 0.06703025 0.4803464
vt 0.06047648 0.4759551
vt 0.0561015 0.4693978
vt 0.05455345 0.4616805
vt 0.05610364 0.4539643
vt 0.08254319 0.4803484
vt 0.06047648 0.447404
vt 0.08910173 0.4759612
vt 0.06703502 0.4430168
vt 0.09347457 0.469401
vt 0.07479244 0.4414767
vt 0.09502476 0.4616847
vt 0.08254796 0.4430189
vt 0.09347683 0.4539674
vt 0.08910173 0.4474101
vt 0.08721143 0.4667695
vt 0.08821303 0.4616927
vt 0.08720964 0.4565792
vt 0.08434004 0.4522366
vt 0.07996672 0.4492656
vt 0.07479984 0.4482189
vt 0.08098119 0.4604354
vt 0.07829851 0.4563583
vt 0.07478911 0.4616826
vt 0.07355577 0.4553982
vt 0.06959158 0.4492773
vt 0.08004004 0.465239
vt 0.06953818 0.4581263
vt 0.06524628 0.4522143
vt 0.06236678 0.4565957
vt 0.06859702 0.4629299
vt 0.06136518 0.4616725
vt 0.06236857 0.4667861
vt 0.07127959 0.4670068
vt 0.0652383 0.4711286
vt 0.06961149 0.4740997
vt 0.07602233 0.4679669
vt 0.07477838 0.4751463
vt 0.07998663 0.4740879
vt 0.08433193 0.471151
vn 0.9812381 0 0.1928002
vn 0.9194308 0.3808408 0.09801717
vn 0.9951847 0 0.09801709
vn 0.9065457 0.3755036 0.1928003
vn 0.7037019 0.7037019 0.09801722
vn 0.9065459 -0.3755033 0.1928002
vn 0.9194309 -0.3808404 0.09801713
vn 0.69384 0.6938401 0.1928002
vn 0.3808407 0.9194308 0.09801716
vn 0.6938403 -0.6938398 0.1928002
vn 0.7037022 -0.7037017 0.0980172
vn 0.3755035 0.9065458 0.1928002
vn 0 0.9951847 0.09801711
vn 0.3755038 -0.9065457 0.1928002
vn 0.3808409 -0.9194307 0.09801716
vn 0 0.9812381 0.1928002
vn -0.3808408 0.9194308 0.09801717
vn 0 -0.9812381 0.1928002
vn 0 -0.9951847 0.0980171
vn -0.3755036 0.9065457 0.1928002
vn -0.7037019 0.7037019 0.09801722
vn -0.3755037 -0.9065457 0.1928002
vn -0.3808408 -0.9194308 0.09801716
vn -0.6938401 0.69384 0.1928003
vn -0.9194308 0.3808408 0.09801717
vn -0.6938402 -0.6938398 0.1928002
vn -0.703702 -0.7037017 0.0980172
vn -0.9065457 0.3755036 0.1928003
vn -0.9951847 0 0.09801709
vn -0.9065459 -0.3755033 0.1928002
vn -0.9194309 -0.3808405 0.09801713
vn -0.9812381 0 0.1928002
vn -0.3542216 -0.8551663 0.3784412
vn -0.6545162 -0.6545157 0.3784412
vn -0.8551664 -0.3542212 0.3784412
vn -0.9256253 0 0.3784413
vn -0.8551663 0.3542216 0.3784412
vn -0.654516 0.6545159 0.3784413
vn 0 -0.9256253 0.3784412
vn -0.3542216 0.8551663 0.3784412
vn 0.3542217 -0.8551663 0.3784412
vn 0 0.9256253 0.3784412
vn 0.6545162 -0.6545157 0.3784412
vn 0.3542215 0.8551663 0.3784412
vn 0.8551664 -0.3542212 0.3784412
vn 0.6545159 0.654516 0.3784412
vn 0.9256253 0 0.3784413
vn 0.8551663 0.3542215 0.3784412
vn 0.3196022 -0.7715876 0.5500064
vn 0.5905479 -0.5905474 0.5500064
vn 0.7715878 -0.3196018 0.5500064
vn 0.8351604 0 0.5500064
vn 0.7715876 0.3196021 0.5500064
vn 0.5905476 0.5905476 0.5500064
vn 0 -0.8351604 0.5500064
vn 0.319602 0.7715877 0.5500063
vn -0.3196021 -0.7715876 0.5500064
vn 0 0.8351604 0.5500064
vn -0.5905477 -0.5905474 0.5500064
vn -0.3196021 0.7715876 0.5500064
vn -0.7715878 -0.3196018 0.5500064
vn -0.5905476 0.5905476 0.5500064
vn -0.8351604 0 0.5500064
vn -0.7715876 0.3196021 0.5500064
vn -0.5042452 -0.504245 0.701052
vn -0.658828 -0.2728953 0.7010519
vn -0.7131102 0 0.7010518
vn -0.6588279 0.2728955 0.7010519
vn -0.504245 0.5042451 0.7010519
vn -0.2728955 0.658828 0.7010519
vn -0.2728955 -0.6588279 0.7010519
vn 0 0.7131102 0.7010518
vn 0 -0.7131102 0.7010518
vn 0.2728955 0.658828 0.7010519
vn 0.2728956 -0.658828 0.7010519
vn 0.504245 0.5042451 0.7010519
vn 0.5042453 -0.5042449 0.7010519
vn 0.6588279 0.2728955 0.7010519
vn 0.658828 -0.2728952 0.7010519
vn 0.7131102 0 0.7010518
vn 0 -0.5639113 0.8258353
vn 0.2157996 -0.5209861 0.8258353
vn 0.3987457 -0.3987454 0.8258354
vn 0.5209862 -0.2157994 0.8258354
vn 0.5639113 0 0.8258353
vn 0.5209861 0.2157995 0.8258353
vn -0.2157995 -0.5209861 0.8258353
vn 0.3987455 0.3987455 0.8258354
vn -0.3987457 -0.3987454 0.8258354
vn 0.2157995 0.5209861 0.8258353
vn -0.5209861 -0.2157994 0.8258354
vn 0 0.5639114 0.8258353
vn -0.5639113 0 0.8258353
vn -0.2157995 0.5209861 0.8258353
vn -0.5209861 0.2157995 0.8258353
vn -0.3987455 0.3987455 0.8258354
vn -0.3596819 -0.1463966 0.9215188
vn -0.3883262 -0.002391353 0.9215189
vn -0.3578516 0.1508154 0.9215188
vn -0.2762792 0.2728972 0.9215188
vn -0.1463967 0.3596818 0.9215188
vn -0.002391402 0.3883263 0.9215188
vn -0.1984254 0.03946928 0.979321
vn -0.112399 0.1682169 0.979321
vn 0 0 1
vn 0.03946926 0.1984254 0.979321
vn 0.1508154 0.3578516 0.9215188
vn -0.1682169 -0.1123989 0.979321
vn 0.1682169 0.112399 0.979321
vn 0.2728972 0.2762792 0.9215188
vn 0.3596819 0.1463967 0.9215188
vn 0.1984254 -0.03946922 0.979321
vn 0.3883263 0.002391469 0.9215188
vn 0.3578516 -0.1508153 0.9215188
vn 0.112399 -0.1682169 0.979321
vn 0.2762792 -0.2728971 0.9215188
vn 0.1463968 -0.3596818 0.9215189
vn -0.03946926 -0.1984254 0.979321
vn 0.002391426 -0.3883263 0.9215188
vn -0.1508154 -0.3578515 0.9215189
vn -0.2728972 -0.276279 0.9215189
g Piggy_Color_Tail_0
f 3/3/3 2/2/2 1/1/1
f 2/2/2 4/4/4 1/1/1
f 2/2/2 5/5/5 4/4/4
f 3/3/3 1/1/1 6/6/6
f 7/7/7 3/3/3 6/6/6
f 5/5/5 8/8/8 4/4/4
f 5/5/5 9/9/9 8/8/8
f 7/7/7 6/6/6 10/10/10
f 11/11/11 7/7/7 10/10/10
f 9/9/9 12/12/12 8/8/8
f 9/9/9 13/13/13 12/12/12
f 11/11/11 10/10/10 14/14/14
f 15/15/15 11/11/11 14/14/14
f 13/13/13 16/16/16 12/12/12
f 13/13/13 17/17/17 16/16/16
f 15/15/15 14/14/14 18/18/18
f 19/19/19 15/15/15 18/18/18
f 17/17/17 20/20/20 16/16/16
f 17/17/17 21/21/21 20/20/20
f 19/19/19 18/18/18 22/22/22
f 23/23/23 19/19/19 22/22/22
f 21/21/21 24/24/24 20/20/20
f 21/21/21 25/25/25 24/24/24
f 23/23/23 22/22/22 26/26/26
f 27/27/27 23/23/23 26/26/26
f 25/25/25 28/28/28 24/24/24
f 25/25/25 29/29/29 28/28/28
f 27/27/27 26/26/26 30/30/30
f 31/31/31 27/27/27 30/30/30
f 29/29/29 31/31/31 32/32/32
f 29/29/29 32/32/32 28/28/28
f 31/31/31 30/30/30 32/32/32
f 22/22/22 18/18/18 33/33/33
f 26/26/26 22/22/22 34/34/34
f 22/22/22 33/33/33 34/34/34
f 30/30/30 26/26/26 35/35/35
f 26/26/26 34/34/34 35/35/35
f 32/32/32 30/30/30 36/36/36
f 30/30/30 35/35/35 36/36/36
f 28/28/28 32/32/32 37/37/37
f 32/32/32 36/36/36 37/37/37
f 24/24/24 28/28/28 38/38/38
f 28/28/28 37/37/37 38/38/38
f 18/18/18 39/39/39 33/33/33
f 18/18/18 14/14/14 39/39/39
f 24/24/24 38/38/38 40/40/40
f 20/20/20 24/24/24 40/40/40
f 14/14/14 41/41/41 39/39/39
f 14/14/14 10/10/10 41/41/41
f 20/20/20 40/40/40 42/42/42
f 16/16/16 20/20/20 42/42/42
f 10/10/10 43/43/43 41/41/41
f 10/10/10 6/6/6 43/43/43
f 16/16/16 42/42/42 44/44/44
f 12/12/12 16/16/16 44/44/44
f 6/6/6 45/45/45 43/43/43
f 6/6/6 1/1/1 45/45/45
f 12/12/12 44/44/44 46/46/46
f 8/8/8 12/12/12 46/46/46
f 1/1/1 47/47/47 45/45/45
f 1/1/1 4/4/4 47/47/47
f 4/4/4 8/8/8 48/48/48
f 8/8/8 46/46/46 48/48/48
f 4/4/4 48/48/48 47/47/47
f 41/41/41 43/43/43 49/49/49
f 43/43/43 45/45/45 50/50/50
f 43/43/43 50/50/50 49/49/49
f 45/45/45 47/47/47 51/51/51
f 45/45/45 51/51/51 50/50/50
f 47/47/47 48/48/48 52/52/52
f 47/47/47 52/52/52 51/51/51
f 48/48/48 46/46/46 53/53/53
f 48/48/48 53/53/53 52/52/52
f 46/46/46 44/44/44 54/54/54
f 46/46/46 54/54/54 53/53/53
f 41/41/41 49/49/49 55/55/55
f 39/39/39 41/41/41 55/55/55
f 44/44/44 56/56/56 54/54/54
f 44/44/44 42/42/42 56/56/56
f 39/39/39 55/55/55 57/57/57
f 33/33/33 39/39/39 57/57/57
f 42/42/42 58/58/58 56/56/56
f 42/42/42 40/40/40 58/58/58
f 33/33/33 57/57/57 59/59/59
f 34/34/34 33/33/33 59/59/59
f 40/40/40 60/60/60 58/58/58
f 40/40/40 38/38/38 60/60/60
f 34/34/34 59/59/59 61/61/61
f 35/35/35 34/34/34 61/61/61
f 38/38/38 62/62/62 60/60/60
f 38/38/38 37/37/37 62/62/62
f 35/35/35 61/61/61 63/63/63
f 36/36/36 35/35/35 63/63/63
f 37/37/37 36/36/36 64/64/64
f 37/37/37 64/64/64 62/62/62
f 36/36/36 63/63/63 64/64/64
f 59/59/59 57/57/57 65/65/65
f 61/61/61 59/59/59 66/66/66
f 59/59/59 65/65/65 66/66/66
f 63/63/63 61/61/61 67/67/67
f 61/61/61 66/66/66 67/67/67
f 64/64/64 63/63/63 68/68/68
f 63/63/63 67/67/67 68/68/68
f 62/62/62 64/64/64 69/69/69
f 64/64/64 68/68/68 69/69/69
f 60/60/60 62/62/62 70/70/70
f 62/62/62 69/69/69 70/70/70
f 57/57/57 71/71/71 65/65/65
f 57/57/57 55/55/55 71/71/71
f 60/60/60 70/70/70 72/72/72
f 58/58/58 60/60/60 72/72/72
f 55/55/55 73/73/73 71/71/71
f 55/55/55 49/49/49 73/73/73
f 58/58/58 72/72/72 74/74/74
f 56/56/56 58/58/58 74/74/74
f 49/49/49 75/75/75 73/73/73
f 49/49/49 50/50/50 75/75/75
f 56/56/56 74/74/74 76/76/76
f 54/54/54 56/56/56 76/76/76
f 50/50/50 77/77/77 75/75/75
f 50/50/50 51/51/51 77/77/77
f 54/54/54 76/76/76 78/78/78
f 53/53/53 54/54/54 78/78/78
f 51/51/51 79/79/79 77/77/77
f 51/51/51 52/52/52 79/79/79
f 52/52/52 53/53/53 80/80/80
f 53/53/53 78/78/78 80/80/80
f 52/52/52 80/80/80 79/79/79
f 73/73/73 75/75/75 81/81/81
f 75/75/75 77/77/77 82/82/82
f 75/75/75 82/82/82 81/81/81
f 77/77/77 79/79/79 83/83/83
f 77/77/77 83/83/83 82/82/82
f 79/79/79 80/80/80 84/84/84
f 79/79/79 84/84/84 83/83/83
f 80/80/80 78/78/78 85/85/85
f 80/80/80 85/85/85 84/84/84
f 78/78/78 76/76/76 86/86/86
f 78/78/78 86/86/86 85/85/85
f 73/73/73 81/81/81 87/87/87
f 71/71/71 73/73/73 87/87/87
f 76/76/76 88/88/88 86/86/86
f 76/76/76 74/74/74 88/88/88
f 71/71/71 87/87/87 89/89/89
f 65/65/65 71/71/71 89/89/89
f 74/74/74 90/90/90 88/88/88
f 74/74/74 72/72/72 90/90/90
f 65/65/65 89/89/89 91/91/91
f 66/66/66 65/65/65 91/91/91
f 72/72/72 92/92/92 90/90/90
f 72/72/72 70/70/70 92/92/92
f 66/66/66 91/91/91 93/93/93
f 67/67/67 66/66/66 93/93/93
f 70/70/70 94/94/94 92/92/92
f 70/70/70 69/69/69 94/94/94
f 67/67/67 93/93/93 95/95/95
f 68/68/68 67/67/67 95/95/95
f 69/69/69 68/68/68 96/96/96
f 69/69/69 96/96/96 94/94/94
f 68/68/68 95/95/95 96/96/96
f 91/91/91 89/89/89 97/97/97
f 93/93/93 91/91/91 98/98/98
f 91/91/91 97/97/97 98/98/98
f 95/95/95 93/93/93 99/99/99
f 93/93/93 98/98/98 99/99/99
f 96/96/96 95/95/95 100/100/100
f 95/95/95 99/99/99 100/100/100
f 94/94/94 96/96/96 101/101/101
f 96/96/96 100/100/100 101/101/101
f 92/92/92 94/94/94 102/102/102
f 94/94/94 101/101/101 102/102/102
f 99/99/99 98/98/98 103/103/103
f 98/98/98 97/97/97 103/103/103
f 100/100/100 99/99/99 104/104/104
f 101/101/101 100/100/100 104/104/104
f 99/99/99 103/103/103 104/104/104
f 104/104/104 103/103/103 105/105/105
f 101/101/101 104/104/104 106/106/106
f 102/102/102 101/101/101 106/106/106
f 106/106/106 104/104/104 105/105/105
f 92/92/92 102/102/102 107/107/107
f 107/107/107 102/102/102 106/106/106
f 90/90/90 92/92/92 107/107/107
f 97/97/97 108/108/108 103/103/103
f 103/103/103 108/108/108 105/105/105
f 107/107/107 106/106/106 109/109/109
f 109/109/109 106/106/106 105/105/105
f 90/90/90 107/107/107 110/110/110
f 110/110/110 107/107/107 109/109/109
f 88/88/88 90/90/90 110/110/110
f 88/88/88 110/110/110 111/111/111
f 111/111/111 110/110/110 109/109/109
f 86/86/86 88/88/88 111/111/111
f 111/111/111 109/109/109 112/112/112
f 112/112/112 109/109/109 105/105/105
f 86/86/86 111/111/111 113/113/113
f 113/113/113 111/111/111 112/112/112
f 85/85/85 86/86/86 113/113/113
f 85/85/85 113/113/113 114/114/114
f 114/114/114 113/113/113 112/112/112
f 84/84/84 85/85/85 114/114/114
f 115/115/115 112/112/112 105/105/105
f 114/114/114 112/112/112 115/115/115
f 84/84/84 114/114/114 116/116/116
f 116/116/116 114/114/114 115/115/115
f 83/83/83 84/84/84 116/116/116
f 83/83/83 116/116/116 117/117/117
f 117/117/117 116/116/116 115/115/115
f 82/82/82 83/83/83 117/117/117
f 118/118/118 115/115/115 105/105/105
f 117/117/117 115/115/115 118/118/118
f 108/108/108 118/118/118 105/105/105
f 82/82/82 117/117/117 119/119/119
f 119/119/119 117/117/117 118/118/118
f 81/81/81 82/82/82 119/119/119
f 120/120/120 119/119/119 118/118/118
f 81/81/81 119/119/119 120/120/120
f 120/120/120 118/118/118 108/108/108
f 87/87/87 81/81/81 120/120/120
f 121/121/121 120/120/120 108/108/108
f 87/87/87 120/120/120 121/121/121
f 97/97/97 121/121/121 108/108/108
f 89/89/89 87/87/87 121/121/121
f 89/89/89 121/121/121 97/97/97
