g Piggy_Color_05
v 13.00525 -12.87288 0.4088104
v 13.00525 -12.87288 -0.5088105
v 11.15441 -12.87288 -0.5088105
v 11.15441 -12.87288 0.4088104
v 7.60267 -11.83 -0.5088105
v 7.60267 -11.83 0.4088104
v 4.488619 -9.828712 -0.5088105
v 4.488619 -9.828712 0.4088104
v 2.064536 -7.031168 -0.5088105
v 2.064536 -7.031168 0.4088104
v 0.5268028 -3.664001 -0.5088105
v 0.5268028 -3.664001 0.4088104
v 0 7.247033E-07 -0.5088105
v 0 7.247033E-07 0.4088104
v 0.5268028 3.664002 -0.5088105
v 0.5268028 3.664002 0.4088104
v 2.064536 7.03117 -0.5088105
v 2.064536 7.03117 0.4088104
v 4.488619 9.828714 -0.5088105
v 4.488619 9.828714 0.4088104
v 7.60267 11.83 -0.5088105
v 7.60267 11.83 0.4088104
v 11.15441 12.87288 -0.5088105
v 11.15441 12.87288 0.4088104
v 13.00525 12.87288 -0.5088105
v 13.00525 12.87288 0.4088104
v 13.00525 12.87288 0.4088104
v 13.00525 12.87288 -0.5088105
v 13.00526 7.247033E-07 -0.5088105
v 13.00526 7.247033E-07 0.4088104
v 13.00525 -12.87288 -0.5088105
v 13.00525 -12.87288 0.4088104
v 11.17459 -12.77494 0.5088105
v 12.93454 -12.80217 0.5088105
v 13.00525 -12.87288 0.4088104
v 11.15441 -12.87288 0.4088104
v 7.644212 -11.73903 0.5088105
v 7.60267 -11.83 0.4088104
v 4.554105 -9.753138 0.5088105
v 4.488619 -9.828712 0.4088104
v 2.148661 -6.977104 0.5088105
v 2.064536 -7.031168 0.4088104
v 0.6227524 -3.635828 0.5088105
v 0.5268028 -3.664001 0.4088104
v 0.1 7.247033E-07 0.5088105
v 0 7.247033E-07 0.4088104
v 0.6227524 3.635829 0.5088105
v 0.5268028 3.664002 0.4088104
v 2.148661 6.977106 0.5088105
v 2.064536 7.03117 0.4088104
v 4.554105 9.753139 0.5088105
v 4.488619 9.828714 0.4088104
v 7.644212 11.73903 0.5088105
v 7.60267 11.83 0.4088104
v 11.17459 12.77494 0.5088105
v 11.15441 12.87288 0.4088104
v 12.93454 12.80217 0.5088105
v 13.00525 12.87288 0.4088104
v 12.90526 7.247033E-07 0.5088105
v 12.93454 12.80217 0.5088105
v 13.00525 12.87288 0.4088104
v 13.00526 7.247033E-07 0.4088104
v 12.93454 -12.80217 0.5088105
v 13.00525 -12.87288 0.4088104
v 12.90526 7.247033E-07 0.5088105
v 11.4707 11.33832 0.5088105
v 12.93454 12.80217 0.5088105
v 11.17459 12.77494 0.5088105
v 11.4707 7.247033E-07 0.5088105
v 12.93454 -12.80217 0.5088105
v 8.246707 10.41976 0.5088105
v 7.644212 11.73903 0.5088105
v 11.4707 -11.33832 0.5088105
v 5.503878 8.657044 0.5088105
v 3.368767 6.192993 0.5088105
v 4.554105 9.753139 0.5088105
v 11.17459 -12.77494 0.5088105
v 2.148661 6.977106 0.5088105
v 7.644212 -11.73903 0.5088105
v 2.014346 3.227221 0.5088105
v 0.6227524 3.635829 0.5088105
v 8.246707 -10.41975 0.5088105
v 4.554105 -9.753138 0.5088105
v 1.550342 7.247033E-07 0.5088105
v 0.1 7.247033E-07 0.5088105
v 5.503878 -8.657043 0.5088105
v 2.148661 -6.977104 0.5088105
v 2.014346 -3.227219 0.5088105
v 0.6227524 -3.635828 0.5088105
v 3.368767 -6.192991 0.5088105
vt 0.9764531 0.6400167
vt 0.9764531 0.627574
vt 0.9485282 0.6298189
vt 0.9509918 0.6413339
vt 0.8995662 0.6442327
vt 0.9046018 0.6548567
vt 0.8562432 0.6722313
vt 0.8640163 0.6810644
vt 0.8224956 0.7114148
vt 0.8324196 0.7177268
vt 0.8010842 0.7585455
vt 0.8123727 0.7618325
vt 0.7937483 0.8098119
vt 0.8055043 0.8098119
vt 0.8010839 0.8610783
vt 0.8123724 0.8577914
vt 0.8224954 0.908209
vt 0.8324193 0.9018971
vt 0.8562431 0.9473923
vt 0.8640162 0.9385594
vt 0.8995662 0.975391
vt 0.9046018 0.9647671
vt 0.9485282 0.9898049
vt 0.9509919 0.9782899
vt 0.9764532 0.9920501
vt 0.9764532 0.979607
vt 0.9764532 0.979607
vt 0.9885172 0.9794172
vt 0.9885172 0.8098119
vt 0.9764532 0.8098119
vt 0.9885172 0.6402066
vt 0.9764531 0.6400167
vt 0.9516527 0.6426163
vt 0.9746215 0.6414022
vt 0.9764531 0.6400167
vt 0.9509918 0.6413339
vt 0.9054857 0.6561178
vt 0.9046018 0.6548567
vt 0.8651245 0.6821274
vt 0.8640163 0.6810644
vt 0.8337313 0.7184822
vt 0.8324196 0.7177268
vt 0.8138211 0.7622237
vt 0.8123727 0.7618325
vt 0.8070005 0.8098119
vt 0.8055043 0.8098119
vt 0.8138211 0.8574002
vt 0.8123724 0.8577914
vt 0.8337312 0.9011417
vt 0.8324193 0.9018971
vt 0.8651244 0.9374963
vt 0.8640162 0.9385594
vt 0.9054856 0.9635058
vt 0.9046018 0.9647671
vt 0.9516525 0.9770074
vt 0.9509919 0.9782899
vt 0.9746216 0.9782218
vt 0.9764532 0.979607
vt 0.9746271 0.8098119
vt 0.9746216 0.9782218
vt 0.9764532 0.979607
vt 0.9764532 0.8098119
vt 0.9746215 0.6414022
vt 0.9764531 0.6400167
vt 0.9746271 0.8098119
vt 0.9560707 0.9586188
vt 0.9746216 0.9782218
vt 0.9516525 0.9770074
vt 0.9560706 0.8098119
vt 0.9746215 0.6414022
vt 0.9135274 0.9465014
vt 0.9054856 0.9635058
vt 0.9560706 0.6610051
vt 0.8775781 0.9233672
vt 0.8496163 0.891041
vt 0.8651244 0.9374963
vt 0.9516527 0.6426163
vt 0.8337312 0.9011417
vt 0.9054857 0.6561178
vt 0.8318848 0.8521391
vt 0.8138211 0.8574002
vt 0.9135275 0.6731226
vt 0.8651245 0.6821274
vt 0.8258108 0.8098119
vt 0.8070005 0.8098119
vt 0.8775781 0.6962568
vt 0.8337313 0.7184822
vt 0.8318848 0.7674847
vt 0.8138211 0.7622237
vt 0.8496163 0.7285829
vn 0 -1 0
vn 0 -1 0
vn -0.1423151 -0.9898214 0
vn -0.1423152 -0.9898214 0
vn -0.4154156 -0.9096317 0
vn -0.4154156 -0.9096317 0
vn -0.6548612 -0.7557492 0
vn -0.6548612 -0.7557492 0
vn -0.8412538 -0.5406405 0
vn -0.8412538 -0.5406405 0
vn -0.959493 -0.2817323 0
vn -0.959493 -0.2817323 0
vn -1 0 0
vn -1 0 0
vn -0.959493 0.2817323 0
vn -0.959493 0.2817323 0
vn -0.8412538 0.5406405 0
vn -0.8412538 0.5406405 0
vn -0.6548612 0.7557492 0
vn -0.6548612 0.7557492 0
vn -0.4154156 0.9096317 0
vn -0.4154156 0.9096317 0
vn -0.1423151 0.9898214 0
vn -0.1423152 0.9898214 0
vn 0 1 0
vn 0 1 0
vn 1 0 0
vn 1 0 0
vn 1 0 0
vn 1 0 0
vn 1 0 0
vn 1 0 0
vn -0.1012507 -0.7283518 0.6776813
vn -0.005770633 -0.7651806 0.6437898
vn -0.005770633 -0.7651806 0.6437897
vn -0.1062522 -0.7261752 0.6792497
vn -0.2935362 -0.6426334 0.7077138
vn -0.2935396 -0.6426318 0.7077138
vn -0.4630566 -0.5343951 0.7071071
vn -0.4630564 -0.5343952 0.7071071
vn -0.5948557 -0.3822902 0.7071074
vn -0.5948557 -0.3822901 0.7071074
vn -0.6784635 -0.1992148 0.7071072
vn -0.6784636 -0.1992146 0.7071073
vn -0.7071063 0 0.7071072
vn -0.7071063 0 0.7071072
vn -0.6784635 0.1992148 0.7071073
vn -0.6784635 0.1992145 0.7071073
vn -0.5948557 0.3822902 0.7071074
vn -0.5948555 0.3822902 0.7071075
vn -0.4630566 0.5343951 0.7071071
vn -0.4630564 0.5343952 0.7071071
vn -0.2935362 0.6426334 0.7077138
vn -0.2935396 0.6426318 0.7077138
vn -0.1012507 0.7283518 0.6776814
vn -0.1062522 0.7261751 0.6792497
vn -0.005770633 0.7651806 0.6437898
vn -0.005770633 0.7651806 0.6437898
vn 0.7607559 0 0.6490381
vn 0.7607557 -0.0008671873 0.6490378
vn 0.7607557 -0.0008671873 0.6490378
vn 0.7607559 0 0.6490381
vn 0.7607555 0.0008671874 0.6490379
vn 0.7607555 0.0008671874 0.6490379
vn 0 0 1
vn 0 0 1
vn 0 0 1
vn 0 0 1
vn 0 0 1
vn 0 0 1
vn 0 0 1
vn 0 0 1
vn 0 0 1
vn 0 0 1
vn 0 0 1
vn 0 0 1
vn 0 0 1
vn 0 0 1
vn 0 0 1
vn 0 0 1
vn 0 0 1
vn 0 0 1
vn 0 0 1
vn 0 0 1
vn 0 0 1
vn 0 0 1
vn 0 0 1
vn 0 0 1
vn 0 0 1
vn 0 0 1
g Piggy_Color_05_0
f 3/3/3 2/2/2 1/1/1
f 4/4/4 3/3/3 1/1/1
f 5/5/5 3/3/3 4/4/4
f 6/6/6 5/5/5 4/4/4
f 7/7/7 5/5/5 6/6/6
f 8/8/8 7/7/7 6/6/6
f 9/9/9 7/7/7 8/8/8
f 10/10/10 9/9/9 8/8/8
f 11/11/11 9/9/9 10/10/10
f 12/12/12 11/11/11 10/10/10
f 13/13/13 11/11/11 12/12/12
f 14/14/14 13/13/13 12/12/12
f 15/15/15 13/13/13 14/14/14
f 16/16/16 15/15/15 14/14/14
f 17/17/17 15/15/15 16/16/16
f 18/18/18 17/17/17 16/16/16
f 19/19/19 17/17/17 18/18/18
f 20/20/20 19/19/19 18/18/18
f 21/21/21 19/19/19 20/20/20
f 22/22/22 21/21/21 20/20/20
f 23/23/23 21/21/21 22/22/22
f 24/24/24 23/23/23 22/22/22
f 25/25/25 23/23/23 24/24/24
f 26/26/26 25/25/25 24/24/24
f 29/29/29 28/28/28 27/27/27
f 30/30/30 29/29/29 27/27/27
f 31/31/31 29/29/29 30/30/30
f 32/32/32 31/31/31 30/30/30
f 35/35/35 34/34/34 33/33/33
f 36/36/36 35/35/35 33/33/33
f 36/36/36 33/33/33 37/37/37
f 38/38/38 36/36/36 37/37/37
f 38/38/38 37/37/37 39/39/39
f 40/40/40 38/38/38 39/39/39
f 40/40/40 39/39/39 41/41/41
f 42/42/42 40/40/40 41/41/41
f 42/42/42 41/41/41 43/43/43
f 44/44/44 42/42/42 43/43/43
f 44/44/44 43/43/43 45/45/45
f 46/46/46 44/44/44 45/45/45
f 46/46/46 45/45/45 47/47/47
f 48/48/48 46/46/46 47/47/47
f 48/48/48 47/47/47 49/49/49
f 50/50/50 48/48/48 49/49/49
f 50/50/50 49/49/49 51/51/51
f 52/52/52 50/50/50 51/51/51
f 52/52/52 51/51/51 53/53/53
f 54/54/54 52/52/52 53/53/53
f 54/54/54 53/53/53 55/55/55
f 56/56/56 54/54/54 55/55/55
f 56/56/56 55/55/55 57/57/57
f 58/58/58 56/56/56 57/57/57
f 61/61/61 60/60/60 59/59/59
f 62/62/62 61/61/61 59/59/59
f 62/62/62 59/59/59 63/63/63
f 64/64/64 62/62/62 63/63/63
f 67/67/67 66/66/66 65/65/65
f 68/68/68 66/66/66 67/67/67
f 66/66/66 69/69/69 65/65/65
f 65/65/65 69/69/69 70/70/70
f 71/71/71 66/66/66 68/68/68
f 71/71/71 69/69/69 66/66/66
f 72/72/72 71/71/71 68/68/68
f 69/69/69 73/73/73 70/70/70
f 74/74/74 69/69/69 71/71/71
f 74/74/74 71/71/71 72/72/72
f 75/75/75 69/69/69 74/74/74
f 76/76/76 74/74/74 72/72/72
f 75/75/75 74/74/74 76/76/76
f 70/70/70 73/73/73 77/77/77
f 78/78/78 75/75/75 76/76/76
f 77/77/77 73/73/73 79/79/79
f 80/80/80 75/75/75 78/78/78
f 80/80/80 69/69/69 75/75/75
f 81/81/81 80/80/80 78/78/78
f 73/73/73 82/82/82 79/79/79
f 82/82/82 73/73/73 69/69/69
f 79/79/79 82/82/82 83/83/83
f 84/84/84 80/80/80 81/81/81
f 84/84/84 69/69/69 80/80/80
f 85/85/85 84/84/84 81/81/81
f 82/82/82 86/86/86 83/83/83
f 86/86/86 82/82/82 69/69/69
f 83/83/83 86/86/86 87/87/87
f 88/88/88 84/84/84 85/85/85
f 84/84/84 88/88/88 69/69/69
f 89/89/89 88/88/88 85/85/85
f 87/87/87 90/90/90 89/89/89
f 86/86/86 90/90/90 87/87/87
f 90/90/90 86/86/86 69/69/69
f 88/88/88 90/90/90 69/69/69
f 90/90/90 88/88/88 89/89/89
