g Red_Color_05
v 5.963801 2.82866 -0.4277062
v 6.373904 8.441103 1.216727
v 6.188492 8.441114 -0.4029262
v 6.237907 2.806405 1.183071
v 5.417321 -1.10101 -0.436851
v 5.706377 -1.178416 1.169978
v 4.494364 -3.779642 -0.4441805
v 4.773156 -3.929935 1.159199
v 2.626781 -6.482368 -0.4533544
v 2.864527 -6.733379 1.145327
v 0.09239197 -7.986801 -0.4727471
v 0.09239197 -8.441113 1.114483
v 4.714345 8.441114 -0.3451262
v 4.594762 8.441103 1.286486
v 4.466804 2.950191 1.317079
v 4.316267 2.967767 -1.502704
v 3.827657 -0.5513148 -1.491992
v 3.980516 -0.716258 1.32849
v 3.067851 -2.81829 -1.483136
v 3.20595 -3.085079 1.337691
v 1.532581 -5.040587 -1.471692
v 1.621097 -5.420575 1.349277
v 0.08869233 -5.890409 -1.446061
v 0.09239197 -6.381044 1.374064
v 4.466804 2.950191 1.317079
v 4.594762 8.441103 1.286486
v 4.750346 8.441102 1.432909
v 4.630078 2.936936 1.45768
v 3.980516 -0.716258 1.32849
v 4.141678 -0.7594147 1.466816
v 3.20595 -3.085079 1.337691
v 3.353825 -3.164796 1.474142
v 1.621097 -5.420575 1.349277
v 1.739974 -5.546085 1.483311
v 0.09239197 -6.381044 1.374064
v 0.09239197 -6.58366 1.502704
v 4.630078 2.936936 1.45768
v 4.750346 8.441102 1.432909
v 6.224493 8.441102 1.375109
v 6.097564 2.817799 1.346645
v 4.141678 -0.7594147 1.466816
v 5.571676 -1.142345 1.335479
v 3.353825 -3.164796 1.474142
v 4.652368 -3.86482 1.326249
v 1.739974 -5.546085 1.483311
v 2.770244 -6.633836 1.314324
v 0.09239197 -6.58366 1.502704
v 0.09239197 -8.290574 1.287622
v 6.097564 2.817799 1.346645
v 6.224493 8.441102 1.375109
v 6.373904 8.441103 1.216727
v 6.237907 2.806405 1.183071
v 5.571676 -1.142345 1.335479
v 5.706377 -1.178416 1.169978
v 4.652368 -3.86482 1.326249
v 4.773156 -3.929935 1.159199
v 2.770244 -6.633836 1.314324
v 2.864527 -6.733379 1.145327
v 0.09239197 -8.290574 1.287622
v 0.09239197 -8.441113 1.114483
v 6.188492 8.441114 -0.4029262
v 4.714345 8.441114 -0.3451262
v 4.316267 2.967767 -1.502704
v 5.963801 2.82866 -0.4277062
v 3.827657 -0.5513148 -1.491992
v 5.417321 -1.10101 -0.436851
v 3.067851 -2.81829 -1.483136
v 4.494364 -3.779642 -0.4441805
v 1.532581 -5.040587 -1.471692
v 2.626781 -6.482368 -0.4533544
v 0.08869233 -5.890409 -1.446061
v 0.09239197 -7.986801 -0.4727471
v -2.441997 -6.482368 -0.4533544
v -1.355196 -5.040587 -1.471692
v -4.30958 -3.779642 -0.4441805
v -2.890466 -2.81829 -1.483136
v -5.417319 -1.10101 -0.436851
v -3.827655 -0.5513148 -1.491992
v -5.963799 2.82866 -0.4277062
v -4.316265 2.967767 -1.502704
v -6.188489 8.441114 -0.4029262
v -4.714343 8.441114 -0.3451262
v -4.59476 8.441103 1.286486
v -4.714343 8.441114 -0.3451262
v -4.316265 2.967767 -1.502704
v -4.466801 2.950191 1.317079
v -3.980514 -0.716258 1.32849
v -3.827655 -0.5513148 -1.491992
v -3.021166 -3.085079 1.337691
v -2.890466 -2.81829 -1.483136
v -1.436313 -5.420575 1.349277
v -1.355196 -5.040587 -1.471692
v 0.09239197 -6.381044 1.374064
v 0.08869233 -5.890409 -1.446061
v -4.466801 2.950191 1.317079
v -4.750343 8.441102 1.432909
v -4.59476 8.441103 1.286486
v -4.630075 2.936936 1.45768
v -3.980514 -0.716258 1.32849
v -4.141675 -0.7594147 1.466816
v -3.021166 -3.085079 1.337691
v -3.169041 -3.164796 1.474142
v -1.436313 -5.420575 1.349277
v -1.55519 -5.546085 1.483311
v 0.09239197 -6.381044 1.374064
v 0.09239197 -6.58366 1.502704
v -4.630075 2.936936 1.45768
v -6.22449 8.441102 1.375109
v -4.750343 8.441102 1.432909
v -6.097561 2.817799 1.346645
v -4.141675 -0.7594147 1.466816
v -5.571673 -1.142345 1.335479
v -3.169041 -3.164796 1.474142
v -4.467584 -3.86482 1.326249
v -1.55519 -5.546085 1.483311
v -2.58546 -6.633836 1.314324
v 0.09239197 -6.58366 1.502704
v 0.09239197 -8.290574 1.287622
v -6.097561 2.817799 1.346645
v -6.373902 8.441103 1.216727
v -6.22449 8.441102 1.375109
v -6.237905 2.806405 1.183071
v -5.571673 -1.142345 1.335479
v -5.706374 -1.178416 1.169978
v -4.467584 -3.86482 1.326249
v -4.588372 -3.929935 1.159199
v -2.58546 -6.633836 1.314324
v -2.679743 -6.733379 1.145327
v 0.09239197 -8.290574 1.287622
v 0.09239197 -8.441113 1.114483
v -6.237905 2.806405 1.183071
v -6.188489 8.441114 -0.4029262
v -6.373902 8.441103 1.216727
v -5.963799 2.82866 -0.4277062
v -5.706374 -1.178416 1.169978
v -5.417319 -1.10101 -0.436851
v -4.588372 -3.929935 1.159199
v -4.30958 -3.779642 -0.4441805
v -2.679743 -6.733379 1.145327
v -2.441997 -6.482368 -0.4533544
v 0.09239197 -7.986801 -0.4727471
v 0.09239197 -8.441113 1.114483
vt 0.3439911 0.09933124
vt 0.3448948 0.09898551
vt 0.344679 0.09896751
vt 0.3441336 0.09957294
vt 0.343421 0.09956639
vt 0.3435185 0.09981039
vt 0.343005 0.09969841
vt 0.34308 0.09995009
vt 0.3425197 0.09980497
vt 0.3425688 0.1000665
vt 0.3421112 0.09985463
vt 0.3420739 0.1001126
vt 0.3448228 0.1250736
vt 0.3448901 0.1248612
vt 0.3440219 0.1251299
vt 0.3441091 0.1253716
vt 0.3435591 0.125609
vt 0.343475 0.1253618
vt 0.3431634 0.1257397
vt 0.3431023 0.1254881
vt 0.3426909 0.1258383
vt 0.3426715 0.125578
vt 0.3423691 0.1258482
vt 0.3424074 0.1255691
vt 0.3419176 0.07233309
vt 0.3419386 0.07290552
vt 0.3419642 0.07290552
vt 0.3419445 0.0723317
vt 0.3418374 0.07195086
vt 0.3418639 0.07194636
vt 0.3417097 0.07170392
vt 0.3417341 0.0716956
vt 0.3414484 0.07146043
vt 0.341468 0.07144735
vt 0.3411964 0.07136031
vt 0.3411964 0.0713392
vt 0.343143 0.0985268
vt 0.3410631 0.09902541
vt 0.3428605 0.1007158
vt 0.3435007 0.0985268
vt 0.343143 0.09824488
vt 0.3435007 0.09824488
vt 0.343143 0.09804372
vt 0.3435007 0.09804372
vt 0.343143 0.09781808
vt 0.3435007 0.09781808
vt 0.343143 0.09763885
vt 0.3435007 0.09763885
vt 0.3425118 0.07232801
vt 0.3429328 0.07293833
vt 0.3429566 0.07292231
vt 0.3425346 0.07231089
vt 0.342182 0.07191756
vt 0.3422026 0.07189784
vt 0.3419099 0.071654
vt 0.3419274 0.07163148
vt 0.3415452 0.07140555
vt 0.3415579 0.07137986
vt 0.3411537 0.07126772
vt 0.3411531 0.07123747
vt 0.3443214 0.1267925
vt 0.3438998 0.1267925
vt 0.3438374 0.1256088
vt 0.3442572 0.1255831
vt 0.3436918 0.1248189
vt 0.3441009 0.1247364
vt 0.3434655 0.1243101
vt 0.3438368 0.1241592
vt 0.3430081 0.1238113
vt 0.3433027 0.1235769
vt 0.3425779 0.1236205
vt 0.3425779 0.1232527
vt 0.3418531 0.1235769
vt 0.3421478 0.1238113
vt 0.341319 0.1241592
vt 0.3416904 0.1243101
vt 0.3410022 0.1247364
vt 0.3414111 0.1248189
vt 0.3408459 0.1255831
vt 0.3412656 0.1256088
vt 0.3407816 0.1267925
vt 0.3412032 0.1267925
vt 0.340213 0.124197
vt 0.3402177 0.1244197
vt 0.3408183 0.1249071
vt 0.3409697 0.1246998
vt 0.3414291 0.1250751
vt 0.3412811 0.1252908
vt 0.3417623 0.1253002
vt 0.3416362 0.1255257
vt 0.3421515 0.1255051
vt 0.3420624 0.1257503
vt 0.3424074 0.1255691
vt 0.3423691 0.1258482
vt 0.3404447 0.07233309
vt 0.340398 0.07290552
vt 0.3404236 0.07290552
vt 0.3404178 0.0723317
vt 0.3405249 0.07195086
vt 0.3404983 0.07194636
vt 0.340683 0.07170392
vt 0.3406587 0.0716956
vt 0.3409443 0.07146043
vt 0.3409247 0.07144735
vt 0.3411964 0.07136031
vt 0.3411964 0.0713392
vt 0.343143 0.0985268
vt 0.3428605 0.1007158
vt 0.3410631 0.09902541
vt 0.3435007 0.0985268
vt 0.343143 0.09824488
vt 0.3435007 0.09824488
vt 0.343143 0.09804372
vt 0.3435007 0.09804372
vt 0.343143 0.09781808
vt 0.3435007 0.09781808
vt 0.343143 0.09763885
vt 0.3435007 0.09763885
vt 0.3398249 0.07237967
vt 0.3394056 0.07299226
vt 0.3394301 0.07300725
vt 0.3398015 0.07236353
vt 0.3401371 0.07195564
vt 0.3401156 0.07193684
vt 0.3404141 0.07168513
vt 0.3403957 0.07166334
vt 0.3407682 0.07142172
vt 0.3407544 0.07139657
vt 0.3411537 0.07126772
vt 0.3411531 0.07123747
vt 0.3402329 0.0990199
vt 0.3398811 0.09828572
vt 0.339669 0.09824203
vt 0.3404385 0.09882884
vt 0.3407547 0.09942146
vt 0.3409159 0.09921624
vt 0.3411531 0.09967752
vt 0.3412954 0.09945478
vt 0.3416117 0.09993099
vt 0.3417324 0.09969388
vt 0.3421112 0.09985463
vt 0.3420739 0.1001126
vn 0.9839992 -0.08196925 -0.1581978
vn 0.9895282 -0.03100099 -0.1409711
vn 0.9895282 -0.03100099 -0.1409711
vn 0.9840381 -0.08168572 -0.1581031
vn 0.9571004 -0.2256819 -0.1817317
vn 0.9570295 -0.2259673 -0.1817504
vn 0.8769848 -0.4391271 -0.1951029
vn 0.876801 -0.4394853 -0.1951224
vn 0.6712787 -0.7091278 -0.2156911
vn 0.6724419 -0.7080513 -0.2156047
vn 0.5064294 -0.8331495 -0.2222414
vn 0.5064294 -0.8331495 -0.2222414
vn -0.9988605 0.04718969 0.007132166
vn -0.9988605 0.04718969 0.007132166
vn -0.9953128 0.09108661 0.0324916
vn -0.994993 0.09393401 0.03413836
vn -0.9728011 0.2222634 0.06524604
vn -0.9715015 0.2277429 0.06571285
vn -0.8952854 0.4372154 0.08547824
vn -0.8899488 0.4477776 0.08652359
vn -0.689978 0.7138205 0.1199609
vn -0.674548 0.7280723 0.1220473
vn -0.513355 0.8468301 0.1390882
vn -0.513355 0.8468301 0.1390882
vn -0.6551192 0.05281495 0.7536773
vn -0.6684806 0.01883546 0.7434911
vn -0.6684806 0.01883546 0.7434911
vn -0.6550216 0.05305438 0.7537453
vn -0.6243946 0.1430076 0.7679065
vn -0.6236925 0.1452544 0.7680553
vn -0.5643136 0.2771136 0.777662
vn -0.5625193 0.2802505 0.7778378
vn -0.4211896 0.4404707 0.7928334
vn -0.4195526 0.4418232 0.7929488
vn -0.3163106 0.5203769 0.7931932
vn -0.3163106 0.5203769 0.7931932
vn 0.06931863 -0.006317135 0.9975746
vn 0.05723614 -0.001602892 0.9983594
vn 0.05723614 -0.001602892 0.9983594
vn 0.06938125 -0.006341584 0.99757
vn 0.08556377 -0.02045477 0.9961228
vn 0.08575195 -0.02088536 0.9960976
vn 0.08928569 -0.04517017 0.9949813
vn 0.08925878 -0.04585989 0.9949521
vn 0.07825102 -0.08591357 0.9932248
vn 0.07814603 -0.0861665 0.9932112
vn 0 -0.11157 0.9937567
vn 0 -0.11157 0.9937567
vn 0.7500024 -0.06172964 0.6585483
vn 0.7427652 -0.02103967 0.6692212
vn 0.7427652 -0.02103967 0.6692212
vn 0.7500468 -0.06200549 0.6584717
vn 0.7451311 -0.1753867 0.6434431
vn 0.7447432 -0.1775686 0.6432939
vn 0.6907169 -0.3452806 0.6353671
vn 0.6894096 -0.3481452 0.6352238
vn 0.5353476 -0.5662382 0.6267194
vn 0.5341308 -0.5674914 0.6266242
vn 0.4120002 -0.6778004 0.6089684
vn 0.4120002 -0.6778004 0.6089684
vn 0.3120948 0.08340397 -0.9463829
vn 0.3120948 0.08340397 -0.9463829
vn 0.4346259 0.0005476133 -0.9006108
vn 0.4287919 0.004659068 -0.9033912
vn 0.5213808 -0.1206051 -0.8447582
vn 0.519514 -0.1258332 -0.8451456
vn 0.4662102 -0.2282337 -0.8547265
vn 0.4606184 -0.2366214 -0.8554771
vn 0.340238 -0.3531773 -0.8714952
vn 0.3300897 -0.3603252 -0.8724716
vn -0.000395151 -0.4301479 -0.9027584
vn 0.0001560226 -0.4301471 -0.9027588
vn -0.3306519 -0.3611746 -0.8719072
vn -0.3411609 -0.3538082 -0.8708783
vn -0.4549457 -0.2504759 -0.8545678
vn -0.4584405 -0.245673 -0.8540943
vn -0.5132304 -0.141379 -0.8465262
vn -0.5150021 -0.1366773 -0.8462223
vn -0.4287919 0.004659072 -0.9033912
vn -0.4346259 0.0005476156 -0.9006108
vn -0.3120949 0.08340397 -0.9463829
vn -0.3120949 0.08340397 -0.9463829
vn 0.9988605 0.04718969 0.007132166
vn 0.9988605 0.04718969 0.007132166
vn 0.994993 0.093934 0.03413838
vn 0.9953128 0.0910866 0.03249162
vn 0.9627892 0.2617578 0.06722905
vn 0.9647226 0.2546759 0.06671304
vn 0.874805 0.4767422 0.08621576
vn 0.879002 0.46911 0.08538853
vn 0.6745184 0.728386 0.1203274
vn 0.6903234 0.7137887 0.1181491
vn 0.5134674 0.846978 0.1377659
vn 0.5134674 0.846978 0.1377659
vn 0.6551197 0.05281495 0.7536769
vn 0.6684811 0.01883544 0.7434905
vn 0.6684811 0.01883545 0.7434906
vn 0.655022 0.05305438 0.753745
vn 0.6172374 0.164417 0.7694057
vn 0.6170845 0.1648778 0.7694297
vn 0.5548061 0.2982359 0.7766889
vn 0.5545557 0.298628 0.776717
vn 0.4211896 0.4404707 0.7928334
vn 0.4195526 0.4418232 0.7929488
vn 0.3163106 0.520377 0.7931932
vn 0.3163106 0.520377 0.7931932
vn -0.06931862 -0.006317134 0.9975746
vn -0.05723612 -0.001602889 0.9983594
vn -0.05723612 -0.001602889 0.9983594
vn -0.06938124 -0.006341582 0.99757
vn -0.08454707 -0.02343486 0.9961438
vn -0.08456057 -0.02348894 0.9961415
vn -0.0881611 -0.04826448 0.9949362
vn -0.08816364 -0.04832602 0.9949331
vn -0.07825102 -0.08591357 0.9932248
vn -0.07814603 -0.0861665 0.9932112
vn 0 -0.11157 0.9937567
vn 0 -0.11157 0.9937567
vn -0.7500027 -0.06172969 0.658548
vn -0.7427652 -0.02103967 0.6692212
vn -0.7427652 -0.02103967 0.6692213
vn -0.7500471 -0.06200555 0.6584714
vn -0.7382347 -0.1979614 0.6448418
vn -0.7381207 -0.1984692 0.6448159
vn -0.6805138 -0.3670778 0.6341568
vn -0.6803035 -0.3675185 0.6341273
vn -0.5353476 -0.5662382 0.6267194
vn -0.5341308 -0.5674914 0.6266242
vn -0.4120002 -0.6778004 0.6089684
vn -0.4120002 -0.6778004 0.6089684
vn -0.9840381 -0.08168575 -0.158103
vn -0.9895282 -0.03100099 -0.1409711
vn -0.9895282 -0.03100099 -0.1409711
vn -0.9839992 -0.08196928 -0.1581977
vn -0.9498527 -0.2539581 -0.1824422
vn -0.9497254 -0.2544169 -0.1824659
vn -0.8635917 -0.4651479 -0.1945432
vn -0.8633768 -0.4655351 -0.19457
vn -0.6724418 -0.7080513 -0.2156046
vn -0.6712786 -0.7091279 -0.2156911
vn -0.5064294 -0.8331495 -0.2222414
vn -0.5064294 -0.8331495 -0.2222414
g Red_Color_05_0
f 3/3/3 2/2/2 1/1/1
f 2/2/2 4/4/4 1/1/1
f 1/1/1 4/4/4 5/5/5
f 4/4/4 6/6/6 5/5/5
f 5/5/5 6/6/6 7/7/7
f 6/6/6 8/8/8 7/7/7
f 7/7/7 8/8/8 9/9/9
f 8/8/8 10/10/10 9/9/9
f 9/9/9 10/10/10 11/11/11
f 10/10/10 12/12/12 11/11/11
f 15/15/15 14/14/14 13/13/13
f 16/16/16 15/15/15 13/13/13
f 16/16/16 17/17/17 15/15/15
f 17/17/17 18/18/18 15/15/15
f 17/17/17 19/19/19 18/18/18
f 19/19/19 20/20/20 18/18/18
f 19/19/19 21/21/21 20/20/20
f 21/21/21 22/22/22 20/20/20
f 21/21/21 23/23/23 22/22/22
f 23/23/23 24/24/24 22/22/22
f 27/27/27 26/26/26 25/25/25
f 28/28/28 27/27/27 25/25/25
f 28/28/28 25/25/25 29/29/29
f 30/30/30 28/28/28 29/29/29
f 30/30/30 29/29/29 31/31/31
f 32/32/32 30/30/30 31/31/31
f 32/32/32 31/31/31 33/33/33
f 34/34/34 32/32/32 33/33/33
f 34/34/34 33/33/33 35/35/35
f 36/36/36 34/34/34 35/35/35
f 39/39/39 38/38/38 37/37/37
f 40/40/40 39/39/39 37/37/37
f 40/40/40 37/37/37 41/41/41
f 42/42/42 40/40/40 41/41/41
f 42/42/42 41/41/41 43/43/43
f 44/44/44 42/42/42 43/43/43
f 44/44/44 43/43/43 45/45/45
f 46/46/46 44/44/44 45/45/45
f 46/46/46 45/45/45 47/47/47
f 48/48/48 46/46/46 47/47/47
f 51/51/51 50/50/50 49/49/49
f 52/52/52 51/51/51 49/49/49
f 52/52/52 49/49/49 53/53/53
f 54/54/54 52/52/52 53/53/53
f 54/54/54 53/53/53 55/55/55
f 56/56/56 54/54/54 55/55/55
f 56/56/56 55/55/55 57/57/57
f 58/58/58 56/56/56 57/57/57
f 58/58/58 57/57/57 59/59/59
f 60/60/60 58/58/58 59/59/59
f 63/63/63 62/62/62 61/61/61
f 64/64/64 63/63/63 61/61/61
f 65/65/65 63/63/63 64/64/64
f 66/66/66 65/65/65 64/64/64
f 67/67/67 65/65/65 66/66/66
f 68/68/68 67/67/67 66/66/66
f 69/69/69 67/67/67 68/68/68
f 70/70/70 69/69/69 68/68/68
f 71/71/71 69/69/69 70/70/70
f 72/72/72 71/71/71 70/70/70
f 71/71/71 72/72/72 73/73/73
f 74/74/74 71/71/71 73/73/73
f 74/74/74 73/73/73 75/75/75
f 76/76/76 74/74/74 75/75/75
f 76/76/76 75/75/75 77/77/77
f 78/78/78 76/76/76 77/77/77
f 78/78/78 77/77/77 79/79/79
f 80/80/80 78/78/78 79/79/79
f 80/80/80 79/79/79 81/81/81
f 82/82/82 80/80/80 81/81/81
f 85/85/85 84/84/84 83/83/83
f 86/86/86 85/85/85 83/83/83
f 86/86/86 87/87/87 85/85/85
f 87/87/87 88/88/88 85/85/85
f 87/87/87 89/89/89 88/88/88
f 89/89/89 90/90/90 88/88/88
f 89/89/89 91/91/91 90/90/90
f 91/91/91 92/92/92 90/90/90
f 91/91/91 93/93/93 92/92/92
f 93/93/93 94/94/94 92/92/92
f 97/97/97 96/96/96 95/95/95
f 96/96/96 98/98/98 95/95/95
f 95/95/95 98/98/98 99/99/99
f 98/98/98 100/100/100 99/99/99
f 99/99/99 100/100/100 101/101/101
f 100/100/100 102/102/102 101/101/101
f 101/101/101 102/102/102 103/103/103
f 102/102/102 104/104/104 103/103/103
f 103/103/103 104/104/104 105/105/105
f 104/104/104 106/106/106 105/105/105
f 109/109/109 108/108/108 107/107/107
f 108/108/108 110/110/110 107/107/107
f 107/107/107 110/110/110 111/111/111
f 110/110/110 112/112/112 111/111/111
f 111/111/111 112/112/112 113/113/113
f 112/112/112 114/114/114 113/113/113
f 113/113/113 114/114/114 115/115/115
f 114/114/114 116/116/116 115/115/115
f 115/115/115 116/116/116 117/117/117
f 116/116/116 118/118/118 117/117/117
f 121/121/121 120/120/120 119/119/119
f 120/120/120 122/122/122 119/119/119
f 119/119/119 122/122/122 123/123/123
f 122/122/122 124/124/124 123/123/123
f 123/123/123 124/124/124 125/125/125
f 124/124/124 126/126/126 125/125/125
f 125/125/125 126/126/126 127/127/127
f 126/126/126 128/128/128 127/127/127
f 127/127/127 128/128/128 129/129/129
f 128/128/128 130/130/130 129/129/129
f 133/133/133 132/132/132 131/131/131
f 132/132/132 134/134/134 131/131/131
f 131/131/131 134/134/134 135/135/135
f 134/134/134 136/136/136 135/135/135
f 135/135/135 136/136/136 137/137/137
f 136/136/136 138/138/138 137/137/137
f 137/137/137 138/138/138 139/139/139
f 138/138/138 140/140/140 139/139/139
f 139/139/139 140/140/140 141/141/141
f 142/142/142 139/139/139 141/141/141
