g Red_Color_Cloth_03
v 7.368045 -0.5688949 2.40473
v 7.236268 -1.561257 1.203457
v 5.537302 -1.435992 2.346733
v 5.393531 -2.386306 1.226606
v 3.041365 -2.152614 2.367586
v 7.141481 -2.321188 -0.1137238
v 2.938472 -3.065785 1.283442
v 4.122246E-06 -3.339236 1.313156
v 4.030473E-06 -2.44314 2.389599
v -2.938464 -3.065787 1.283443
v -3.041357 -2.152616 2.367586
v -5.393524 -2.386309 1.226606
v -5.537295 -1.435995 2.346733
v -7.23626 -1.561261 1.203463
v -7.368037 -0.5688996 2.404734
v -7.141473 -2.321192 -0.1137218
v -5.304383 -3.142764 -0.02805901
v -7.085146 -2.757662 -1.549398
v -2.879726 -3.819842 0.05643845
v -5.270453 -3.60931 -1.407602
v -7.052109 -2.79297 -3.079952
v 4.1472E-06 -4.091732 0.09242249
v -2.864203 -4.316001 -1.296906
v -5.280941 -3.702566 -2.877857
v 2.879734 -3.81984 0.05643463
v -5.316006 -3.385006 -4.385324
v -7.01416 -2.395804 -4.66123
v 4.077209E-06 -4.60085 -1.254253
v -2.886197 -4.467847 -2.736851
v 5.304391 -3.142761 -0.02806091
v -5.352008 -2.683726 -5.871038
v -6.959046 -1.597927 -6.242783
v -3.003655 -3.637666 -5.637625
v 2.864211 -4.315999 -1.296907
v 5.27046 -3.609307 -1.407602
v 7.085154 -2.757658 -1.5494
v 3.891098E-06 -4.77947 -2.68569
v -2.936282 -4.234029 -4.205027
v 3.584008E-06 -4.585542 -4.142246
v 3.171882E-06 -4.041539 -5.558865
v 2.886204 -4.467845 -2.736851
v 5.280949 -3.702563 -2.877859
v 7.052117 -2.792966 -3.079954
v 2.936289 -4.234027 -4.205029
v 3.003661 -3.637665 -5.637627
v 5.316012 -3.385003 -4.385324
v 7.014166 -2.3958 -4.661232
v 5.352014 -2.683723 -5.87104
v 6.959052 -1.597923 -6.242785
v -0.02192035 4.311825 5.108652
v 0.2052577 4.05104 4.751188
v -0.2131521 3.46177 4.701811
v -0.1086128 3.634113 5.115
v -0.4399863 4.458684 5.473722
v 0.4933207 2.798613 4.763102
v -0.3154182 3.669934 5.494633
v -0.2579722 4.889679 5.825933
v -0.625183 3.521738 5.86236
v 0.2881217 3.048595 5.153849
v 0.6251887 2.246105 4.739094
v 0.1164713 3.058331 5.532606
v 0.06910338 2.871925 5.907801
v 0.4533317 2.504469 5.168552
v 0.350144 1.717539 4.70162
v 0.3199136 2.489463 5.570141
v 0.2593659 2.272981 5.97407
v 0.2812562 1.984886 5.162699
v 0.2079745 1.920184 5.59342
v 0.1423005 1.621917 6.056065
v -0.07572557 1.586638 5.1588
v -0.1001727 0.3265879 4.555704
v -0.1044235 1.400716 5.583174
v -0.120864 0.1124713 6.242788
v 2.412376 -2.965 1.756077
v 4.363171 -2.64852 1.633434
v 4.292336 -3.638844 0.2592163
v 2.3657 -3.934858 0.3868122
v 0.07746512 -3.048452 1.806019
v 4.265374 -4.251738 -1.433128
v 0.07746529 -4.009951 0.4344025
v -2.25745 -2.965002 1.756077
v 2.353363 -4.579006 -1.296827
v 4.273709 -4.341413 -3.325758
v -2.210775 -3.93486 0.3868122
v -4.208242 -2.648521 1.633434
v -4.137411 -3.638844 0.2592163
v 0.07746541 -4.677325 -1.246235
v 2.370842 -4.749833 -3.184406
v 4.301571 -3.819227 -5.223503
v 2.410637 -4.352216 -5.089687
v -2.198442 -4.579007 -1.296827
v -4.110452 -4.25174 -1.433128
v 0.07746544 -4.889684 -3.133223
v 0.07746539 -4.547189 -5.044319
v -2.215917 -4.749834 -3.184406
v -4.118787 -4.341414 -3.325758
v -2.255716 -4.352217 -5.089687
v -4.146646 -3.819228 -5.223503
vt 0.9862067 0.99
vt 0.9862067 0.9101186
vt 0.8235053 0.99
vt 0.8235053 0.9101186
vt 0.6608046 0.99
vt 0.9862067 0.8302372
vt 0.6608046 0.9101186
vt 0.4981035 0.9101186
vt 0.4981035 0.99
vt 0.3354024 0.9101186
vt 0.3354024 0.99
vt 0.1727011 0.9101186
vt 0.1727011 0.99
vt 0.00999999 0.9101186
vt 0.00999999 0.99
vt 0.00999999 0.8302372
vt 0.1727011 0.8302372
vt 0.00999999 0.7503557
vt 0.3354024 0.8302372
vt 0.1727011 0.7503557
vt 0.00999999 0.6704741
vt 0.4981035 0.8302372
vt 0.3354024 0.7503557
vt 0.1727011 0.6704741
vt 0.6608046 0.8302372
vt 0.1727011 0.5905926
vt 0.00999999 0.5905926
vt 0.4981035 0.7503557
vt 0.3354024 0.6704741
vt 0.8235053 0.8302372
vt 0.1727011 0.5107112
vt 0.00999999 0.5107112
vt 0.3354024 0.5107112
vt 0.6608046 0.7503557
vt 0.8235053 0.7503557
vt 0.9862067 0.7503557
vt 0.4981035 0.6704741
vt 0.3354024 0.5905926
vt 0.4981035 0.5905926
vt 0.4981035 0.5107112
vt 0.6608046 0.6704741
vt 0.8235053 0.6704741
vt 0.9862067 0.6704741
vt 0.6608046 0.5905926
vt 0.6608046 0.5107112
vt 0.8235053 0.5905926
vt 0.9862067 0.5905926
vt 0.8235053 0.5107112
vt 0.9862067 0.5107112
vt 0.439172 0.2017401
vt 0.4348752 0.1236572
vt 0.3462827 0.1210377
vt 0.3533965 0.2069806
vt 0.4353923 0.2966684
vt 0.2572241 0.1187016
vt 0.3489161 0.2935897
vt 0.4345815 0.3666656
vt 0.3459287 0.3746244
vt 0.2600463 0.2010003
vt 0.1846404 0.1186244
vt 0.2600081 0.2909977
vt 0.2568104 0.3770237
vt 0.1896999 0.1915003
vt 0.1200723 0.114713
vt 0.1877441 0.2816408
vt 0.1784098 0.381566
vt 0.1206119 0.1921887
vt 0.119162 0.2891787
vt 0.1118853 0.3866849
vt 0.05215929 0.2174876
vt 0.04789323 0.1141061
vt 0.05076817 0.3125128
vt 0.04806148 0.3924197
vt 0.8792617 0.4946053
vt 0.9931784 0.4946053
vt 0.9931784 0.3721054
vt 0.8792617 0.3721054
vt 0.7559564 0.4946053
vt 0.9931784 0.2489207
vt 0.7559564 0.3721054
vt 0.6206748 0.4946053
vt 0.8792617 0.2489207
vt 0.9931784 0.1242762
vt 0.6206748 0.3721054
vt 0.5031782 0.4946053
vt 0.5031782 0.3721054
vt 0.7559564 0.2489207
vt 0.8792617 0.1242762
vt 0.9931784 0.004605315
vt 0.8792617 0.004605315
vt 0.6206748 0.2489207
vt 0.5031782 0.2489207
vt 0.7559564 0.1242762
vt 0.7559564 0.004605315
vt 0.6206748 0.1242762
vt 0.5031782 0.1242762
vt 0.6206748 0.004605315
vt 0.5031782 0.004605315
vn 0.3342083 -0.7443037 0.5782013
vn 0.3511258 -0.7745692 0.5260733
vn 0.2916061 -0.7487283 0.5952913
vn 0.2969804 -0.7897389 0.5367635
vn 0.1591855 -0.7627372 0.6268109
vn 0.3947573 -0.8415127 0.368813
vn 0.1583981 -0.8073082 0.5684747
vn 0 -0.8138574 0.5810646
vn 0 -0.7685127 0.6398345
vn -0.1583975 -0.8073081 0.5684751
vn -0.159185 -0.762737 0.6268113
vn -0.2969796 -0.789739 0.5367637
vn -0.2916047 -0.7487284 0.5952919
vn -0.3511242 -0.7745697 0.5260736
vn -0.3342065 -0.7443038 0.5782022
vn -0.3947566 -0.8415131 0.3688128
vn -0.3295332 -0.8620978 0.3849615
vn -0.4320012 -0.8887724 0.153162
vn -0.1751577 -0.889856 0.4212789
vn -0.3577673 -0.9167666 0.1775995
vn -0.450633 -0.8875772 -0.09558696
vn 0 -0.8999665 0.4359589
vn -0.192332 -0.9569386 0.2174328
vn -0.3710915 -0.9270076 -0.05429677
vn 0.1751583 -0.889856 0.4212787
vn -0.3711837 -0.8848489 -0.2815408
vn -0.4460712 -0.8319582 -0.3299485
vn 0 -0.9725198 0.23282
vn -0.2042266 -0.9785873 -0.02565929
vn 0.3295336 -0.8620977 0.3849612
vn -0.3831192 -0.8334165 -0.3982922
vn -0.4408675 -0.7950968 -0.4164816
vn -0.215164 -0.9032503 -0.3712727
vn 0.1923326 -0.9569385 0.2174327
vn 0.3577676 -0.9167664 0.1775996
vn 0.4320015 -0.8887723 0.153162
vn 0 -0.9999224 -0.01245576
vn -0.2043401 -0.9444242 -0.2575036
vn 0 -0.9671363 -0.254259
vn 0 -0.92929 -0.3693509
vn 0.2042271 -0.9785872 -0.02565922
vn 0.3710917 -0.9270074 -0.05429685
vn 0.4506331 -0.887577 -0.09558725
vn 0.2043407 -0.944424 -0.2575036
vn 0.2151646 -0.9032502 -0.3712726
vn 0.371184 -0.8848487 -0.2815408
vn 0.4460715 -0.8319579 -0.3299488
vn 0.3831196 -0.8334164 -0.3982918
vn 0.440868 -0.7950965 -0.4164814
vn 0.8336496 -0.1235827 0.5382897
vn 0.8696311 -0.3582301 0.3397249
vn 0.9565906 0.2911568 -0.0127357
vn 0.9172401 0.216501 0.3343621
vn 0.9271058 -0.05841465 0.3702196
vn 0.9155346 0.3822552 0.1252092
vn 0.8429906 0.2549472 0.4736758
vn 0.9715177 -0.1036371 0.2131025
vn 0.845838 0.3009299 0.4404536
vn 0.8589737 0.4937821 0.1354382
vn 0.8990554 -0.1713349 0.4029189
vn 0.7819755 0.4714173 0.4077744
vn 0.8046828 0.4355051 0.4035108
vn 0.9455827 0.03628598 0.3233523
vn 0.7548189 -0.4139501 0.5088161
vn 0.9626253 0.09200546 0.2547303
vn 0.9921651 -0.01698862 0.1237739
vn 0.8519627 -0.4425901 0.2797742
vn 0.9289742 -0.3701322 0.003031299
vn 0.9269654 -0.3107817 -0.2101191
vn 0.8016824 -0.5254948 0.2848872
vn 0.7390994 -0.302422 0.6018912
vn 0.8772079 -0.4159143 -0.239837
vn 0.9038258 -0.204101 -0.3760874
vn 0.1042418 -0.8129258 0.5729618
vn 0.1640201 -0.8059464 0.5688125
vn 0.170019 -0.8704165 0.4620268
vn 0.1053375 -0.8783958 0.4661811
vn 0 -0.8177652 0.575552
vn 0.1856091 -0.9610515 0.2047662
vn 0 -0.881087 0.4729542
vn -0.1042416 -0.8129258 0.5729619
vn 0.1163816 -0.9680147 0.2222676
vn 0.2095855 -0.9737411 -0.08889415
vn -0.1053373 -0.8783958 0.4661811
vn -0.1640205 -0.8059464 0.5688124
vn -0.1700192 -0.8704163 0.4620268
vn 0 -0.9719331 0.2352574
vn 0.1338018 -0.9892475 -0.05904613
vn 0.2191759 -0.949226 -0.2256812
vn 0.1482074 -0.9665626 -0.209264
vn -0.1163813 -0.9680147 0.2222677
vn -0.1856089 -0.9610516 0.2047663
vn 0 -0.999101 -0.04239142
vn 0 -0.9818403 -0.1897091
vn -0.1338011 -0.9892476 -0.05904613
vn -0.2095852 -0.9737412 -0.08889417
vn -0.148207 -0.9665627 -0.209264
vn -0.2191758 -0.949226 -0.2256813
g Red_Color_Cloth_03_0
f 3/3/3 2/2/2 1/1/1
f 4/4/4 2/2/2 3/3/3
f 5/5/5 4/4/4 3/3/3
f 4/4/4 6/6/6 2/2/2
f 7/7/7 4/4/4 5/5/5
f 8/8/8 7/7/7 5/5/5
f 9/9/9 8/8/8 5/5/5
f 10/10/10 8/8/8 9/9/9
f 11/11/11 10/10/10 9/9/9
f 12/12/12 10/10/10 11/11/11
f 13/13/13 12/12/12 11/11/11
f 14/14/14 12/12/12 13/13/13
f 15/15/15 14/14/14 13/13/13
f 14/14/14 16/16/16 12/12/12
f 16/16/16 17/17/17 12/12/12
f 12/12/12 17/17/17 10/10/10
f 16/16/16 18/18/18 17/17/17
f 10/10/10 19/19/19 8/8/8
f 17/17/17 19/19/19 10/10/10
f 18/18/18 20/20/20 17/17/17
f 17/17/17 20/20/20 19/19/19
f 18/18/18 21/21/21 20/20/20
f 8/8/8 22/22/22 7/7/7
f 19/19/19 22/22/22 8/8/8
f 20/20/20 23/23/23 19/19/19
f 19/19/19 23/23/23 22/22/22
f 21/21/21 24/24/24 20/20/20
f 20/20/20 24/24/24 23/23/23
f 22/22/22 25/25/25 7/7/7
f 7/7/7 25/25/25 4/4/4
f 21/21/21 26/26/26 24/24/24
f 27/27/27 26/26/26 21/21/21
f 23/23/23 28/28/28 22/22/22
f 22/22/22 28/28/28 25/25/25
f 24/24/24 29/29/29 23/23/23
f 24/24/24 26/26/26 29/29/29
f 23/23/23 29/29/29 28/28/28
f 25/25/25 30/30/30 4/4/4
f 30/30/30 6/6/6 4/4/4
f 27/27/27 31/31/31 26/26/26
f 32/32/32 31/31/31 27/27/27
f 31/31/31 33/33/33 26/26/26
f 28/28/28 34/34/34 25/25/25
f 25/25/25 34/34/34 30/30/30
f 30/30/30 35/35/35 6/6/6
f 34/34/34 35/35/35 30/30/30
f 35/35/35 36/36/36 6/6/6
f 29/29/29 37/37/37 28/28/28
f 28/28/28 37/37/37 34/34/34
f 26/26/26 38/38/38 29/29/29
f 26/26/26 33/33/33 38/38/38
f 29/29/29 38/38/38 37/37/37
f 38/38/38 33/33/33 39/39/39
f 38/38/38 39/39/39 37/37/37
f 33/33/33 40/40/40 39/39/39
f 37/37/37 41/41/41 34/34/34
f 34/34/34 41/41/41 35/35/35
f 37/37/37 39/39/39 41/41/41
f 35/35/35 42/42/42 36/36/36
f 41/41/41 42/42/42 35/35/35
f 42/42/42 43/43/43 36/36/36
f 39/39/39 40/40/40 44/44/44
f 39/39/39 44/44/44 41/41/41
f 41/41/41 44/44/44 42/42/42
f 40/40/40 45/45/45 44/44/44
f 42/42/42 46/46/46 43/43/43
f 44/44/44 46/46/46 42/42/42
f 44/44/44 45/45/45 46/46/46
f 46/46/46 47/47/47 43/43/43
f 45/45/45 48/48/48 46/46/46
f 46/46/46 48/48/48 47/47/47
f 48/48/48 49/49/49 47/47/47
f 52/52/52 51/51/51 50/50/50
f 53/53/53 52/52/52 50/50/50
f 53/53/53 50/50/50 54/54/54
f 55/55/55 52/52/52 53/53/53
f 56/56/56 53/53/53 54/54/54
f 56/56/56 54/54/54 57/57/57
f 58/58/58 56/56/56 57/57/57
f 59/59/59 55/55/55 53/53/53
f 59/59/59 53/53/53 56/56/56
f 60/60/60 55/55/55 59/59/59
f 61/61/61 56/56/56 58/58/58
f 61/61/61 59/59/59 56/56/56
f 62/62/62 61/61/61 58/58/58
f 63/63/63 60/60/60 59/59/59
f 63/63/63 59/59/59 61/61/61
f 64/64/64 60/60/60 63/63/63
f 65/65/65 61/61/61 62/62/62
f 65/65/65 63/63/63 61/61/61
f 66/66/66 65/65/65 62/62/62
f 67/67/67 64/64/64 63/63/63
f 67/67/67 63/63/63 65/65/65
f 68/68/68 65/65/65 66/66/66
f 68/68/68 67/67/67 65/65/65
f 69/69/69 68/68/68 66/66/66
f 70/70/70 64/64/64 67/67/67
f 70/70/70 67/67/67 68/68/68
f 71/71/71 64/64/64 70/70/70
f 72/72/72 70/70/70 68/68/68
f 72/72/72 68/68/68 69/69/69
f 73/73/73 72/72/72 69/69/69
f 76/76/76 75/75/75 74/74/74
f 77/77/77 76/76/76 74/74/74
f 77/77/77 74/74/74 78/78/78
f 79/79/79 76/76/76 77/77/77
f 80/80/80 77/77/77 78/78/78
f 80/80/80 78/78/78 81/81/81
f 82/82/82 79/79/79 77/77/77
f 82/82/82 77/77/77 80/80/80
f 83/83/83 79/79/79 82/82/82
f 84/84/84 80/80/80 81/81/81
f 84/84/84 81/81/81 85/85/85
f 86/86/86 84/84/84 85/85/85
f 87/87/87 82/82/82 80/80/80
f 87/87/87 80/80/80 84/84/84
f 88/88/88 83/83/83 82/82/82
f 88/88/88 82/82/82 87/87/87
f 89/89/89 83/83/83 88/88/88
f 90/90/90 89/89/89 88/88/88
f 91/91/91 84/84/84 86/86/86
f 91/91/91 87/87/87 84/84/84
f 92/92/92 91/91/91 86/86/86
f 93/93/93 88/88/88 87/87/87
f 90/90/90 88/88/88 93/93/93
f 93/93/93 87/87/87 91/91/91
f 94/94/94 90/90/90 93/93/93
f 95/95/95 91/91/91 92/92/92
f 95/95/95 93/93/93 91/91/91
f 94/94/94 93/93/93 95/95/95
f 96/96/96 95/95/95 92/92/92
f 97/97/97 94/94/94 95/95/95
f 97/97/97 95/95/95 96/96/96
f 98/98/98 97/97/97 96/96/96
