g Red_Color_04
v 6.449466 -4.845038 0.829567
v 6.424116 -4.845029 -1.025959
v 4.242547 -4.845029 -1.025961
v -6.294289 4.845036 -1.025958
v -6.599217 4.523719 -1.025958
v -4.311774 2.221669 -1.02596
v -4.318469 2.221574 1.025962
v -6.34454 4.388446 1.025961
v -6.146576 4.59143 1.025961
v -4.242547 -4.845029 -1.025961
v -6.424117 -4.845029 -1.025959
v -6.449467 -4.845038 0.829567
v 6.294288 4.845036 -1.025958
v 4.311773 2.221669 -1.02596
v 6.599216 4.523719 -1.025958
v -4.311774 2.221669 -1.02596
v -6.294289 4.845036 -1.025958
v 4.311773 2.221669 -1.02596
v -4.311774 2.221669 -1.02596
v -4.318469 2.221574 1.025962
v 4.318468 2.221574 1.025962
v 4.242547 -4.845029 -1.025961
v 6.424116 -4.845029 -1.025959
v 6.599216 4.523719 -1.025958
v 4.311773 2.221669 -1.02596
v 4.242547 -4.845029 -1.025961
v 4.311773 2.221669 -1.02596
v 4.318468 2.221574 1.025962
v 4.348269 -4.84504 1.025961
v -4.348269 -4.84504 1.025961
v -4.242547 -4.845029 -1.025961
v -6.255732 -4.845039 1.025958
v -6.449467 -4.845038 0.829567
v -4.242547 -4.845029 -1.025961
v -4.311774 2.221669 -1.02596
v -6.599217 4.523719 -1.025958
v -6.424117 -4.845029 -1.025959
v -4.242547 -4.845029 -1.025961
v -4.348269 -4.84504 1.025961
v -4.318469 2.221574 1.025962
v -4.311774 2.221669 -1.02596
v 6.543267 4.471324 0.8343992
v 6.449466 -4.845038 0.829567
v 6.255732 -4.845039 1.025958
v 6.344539 4.388446 1.025961
v 6.344539 4.388446 1.025961
v 6.146576 4.59143 1.025961
v 6.23385 4.789414 0.8345652
v 6.543267 4.471324 0.8343992
v 6.146576 4.59143 1.025961
v -6.146576 4.59143 1.025961
v -6.23385 4.789414 0.8345652
v 6.23385 4.789414 0.8345652
v -6.34454 4.388446 1.025961
v -6.255732 -4.845039 1.025958
v -6.449467 -4.845038 0.829567
v -6.543267 4.471324 0.8343992
v -6.543267 4.471324 0.8343992
v -6.23385 4.789414 0.8345652
v -6.146576 4.59143 1.025961
v -6.34454 4.388446 1.025961
v 6.599216 4.523719 -1.025958
v 6.543267 4.471324 0.8343992
v 6.23385 4.789414 0.8345652
v 6.294288 4.845036 -1.025958
v 4.318468 2.221574 1.025962
v 6.146576 4.59143 1.025961
v 6.344539 4.388446 1.025961
v -6.146576 4.59143 1.025961
v -4.318469 2.221574 1.025962
v 6.23385 4.789414 0.8345652
v -6.23385 4.789414 0.8345652
v -6.294289 4.845036 -1.025958
v 6.294288 4.845036 -1.025958
v 6.255732 -4.845039 1.025958
v 4.348269 -4.84504 1.025961
v 4.318468 2.221574 1.025962
v 6.344539 4.388446 1.025961
v 6.543267 4.471324 0.8343992
v 6.599216 4.523719 -1.025958
v 6.424116 -4.845029 -1.025959
v 6.449466 -4.845038 0.829567
v -6.599217 4.523719 -1.025958
v -6.294289 4.845036 -1.025958
v -6.23385 4.789414 0.8345652
v -6.543267 4.471324 0.8343992
v -6.34454 4.388446 1.025961
v -4.318469 2.221574 1.025962
v -4.348269 -4.84504 1.025961
v -6.255732 -4.845039 1.025958
v -6.449467 -4.845038 0.829567
v -6.424117 -4.845029 -1.025959
v -6.599217 4.523719 -1.025958
v -6.543267 4.471324 0.8343992
v 4.348269 -4.84504 1.025961
v 6.255732 -4.845039 1.025958
v 4.242547 -4.845029 -1.025961
v 6.449466 -4.845038 0.829567
vt 0.3442438 0.09651694
vt 0.3419712 0.09858183
vt 0.3406869 0.1018377
vt 0.3414799 0.09955984
vt 0.3410769 0.09957176
vt 0.3427702 0.09965407
vt 0.3419127 0.09975213
vt 0.3425816 0.1002857
vt 0.3425681 0.1003329
vt 0.3406869 0.1018377
vt 0.3419712 0.09858183
vt 0.3442438 0.09651694
vt 0.3414799 0.09955984
vt 0.3427702 0.09965407
vt 0.3410769 0.09957176
vt 0.3427702 0.09965407
vt 0.3414799 0.09955984
vt 0.3422877 0.1250112
vt 0.3422877 0.1250112
vt 0.3428153 0.125034
vt 0.3428153 0.125034
vt 0.3422025 0.1008053
vt 0.3434869 0.09754937
vt 0.3415443 0.09950685
vt 0.3427702 0.09965407
vt 0.3423262 0.1240568
vt 0.3422481 0.1259657
vt 0.3427761 0.1259884
vt 0.3428549 0.1240793
vt 0.34032 0.100198
vt 0.3406869 0.1018377
vt 0.3440956 0.09666244
vt 0.3442438 0.09651694
vt 0.3422025 0.1008053
vt 0.3427702 0.09965407
vt 0.3415443 0.09950685
vt 0.3434869 0.09754937
vt 0.3423262 0.1240568
vt 0.3428549 0.1240793
vt 0.3427761 0.1259884
vt 0.3422481 0.1259657
vt 0.3412324 0.07326222
vt 0.3412004 0.07098249
vt 0.3411298 0.07098249
vt 0.3411626 0.0732149
vt 0.3409402 0.07207174
vt 0.3409398 0.07217336
vt 0.3409846 0.07220218
vt 0.3409854 0.07204253
vt 0.3411611 0.07209904
vt 0.3411611 0.07209904
vt 0.3412011 0.07214568
vt 0.3412011 0.07214568
vt 0.3411626 0.0732149
vt 0.3411298 0.07098249
vt 0.3412004 0.07098249
vt 0.3412324 0.07326222
vt 0.3409854 0.07204253
vt 0.3409846 0.07220218
vt 0.3409398 0.07217336
vt 0.3409402 0.07207174
vt 0.3414224 0.07204253
vt 0.3409854 0.07204253
vt 0.3409846 0.07220218
vt 0.3414214 0.07219986
vt 0.3419127 0.09975213
vt 0.3425681 0.1003329
vt 0.3425816 0.1002857
vt 0.3425681 0.1003329
vt 0.3419127 0.09975213
vt 0.3420635 0.09917851
vt 0.3420635 0.09917851
vt 0.3425003 0.09917617
vt 0.3425003 0.09917617
vt 0.3426183 0.09802182
vt 0.3419235 0.09802182
vt 0.3419127 0.09975213
vt 0.3426511 0.1002542
vt 0.3435118 0.0977583
vt 0.3429945 0.09782455
vt 0.341052 0.1005964
vt 0.3433245 0.09853149
vt 0.3414224 0.07204253
vt 0.3414214 0.07219986
vt 0.3409846 0.07220218
vt 0.3409854 0.07204253
vt 0.3426511 0.1002542
vt 0.3419127 0.09975213
vt 0.3419235 0.09802182
vt 0.3426183 0.09802182
vt 0.3433245 0.09853149
vt 0.341052 0.1005964
vt 0.3429945 0.09782455
vt 0.3435118 0.0977583
vt 0.34032 0.100198
vt 0.3440956 0.09666244
vt 0.3406869 0.1018377
vt 0.3442438 0.09651694
vn 0 -1 0
vn 0 -1 0
vn 0 -1 0
vn 0 0 -1
vn 0 0 -1
vn 0 0 -1
vn 0 0 1
vn 0 0 1
vn 0 0 1
vn 0 -1 0
vn 0 -1 0
vn 0 -1 0
vn 0 0 -1
vn 0 0 -1
vn 0 0 -1
vn 0 0 -1
vn 0 0 -1
vn 0 -1 -4.647713E-05
vn 0 -1 -4.647713E-05
vn 0 -1 -4.647713E-05
vn 0 -1 -4.647713E-05
vn 0 0 -1
vn 0 0 -1
vn 0 0 -1
vn 0 0 -1
vn -0.9996212 0.002788576 0.02738261
vn -0.9996212 0.002788576 0.02738262
vn -0.9996212 0.002788576 0.02738261
vn -0.9996212 0.002788576 0.02738261
vn 0 -1 0
vn 0 -1 0
vn 0 -1 0
vn 0 -1 0
vn 0 0 -1
vn 0 0 -1
vn 0 0 -1
vn 0 0 -1
vn 0.9996212 0.002788644 0.02738261
vn 0.9996212 0.002788644 0.02738261
vn 0.9996212 0.002788644 0.02738261
vn 0.9996212 0.002788643 0.02738262
vn 0.6209232 0.2481869 0.743544
vn 0.7037503 -0.007113039 0.7104118
vn 0.7037503 -0.007113039 0.7104117
vn 0.6223367 0.2448779 0.7434593
vn 0.6223367 0.2448779 0.7434593
vn 0.255416 0.6117228 0.748704
vn 0.2593192 0.6100405 0.7487351
vn 0.6209232 0.2481869 0.743544
vn 0.255416 0.6117228 0.748704
vn -0.255416 0.6117231 0.7487038
vn -0.2593191 0.6100406 0.7487349
vn 0.2593192 0.6100405 0.7487351
vn -0.6223369 0.2448782 0.7434592
vn -0.7037503 -0.007113039 0.7104117
vn -0.7037503 -0.007113039 0.7104118
vn -0.6209233 0.2481872 0.7435439
vn -0.6209233 0.2481872 0.7435439
vn -0.2593191 0.6100406 0.7487349
vn -0.255416 0.6117231 0.7487038
vn -0.6223369 0.2448782 0.7434592
vn 0.7204474 0.6921982 0.04262955
vn 0.7204474 0.6921983 0.04262955
vn 0.7204473 0.6921983 0.04262955
vn 0.7204474 0.6921983 0.04262955
vn 0 0 1
vn 0 0 1
vn 0 0 1
vn 0 0 1
vn 0 0 1
vn 0 0.9995534 0.02988208
vn 0 0.9995534 0.02988208
vn 0 0.9995534 0.02988208
vn 0 0.9995534 0.02988208
vn 0 0 1
vn 0 0 1
vn 0 0 1
vn 0 0 1
vn 0.9998642 -0.01439133 0.008030862
vn 0.9998642 -0.01439133 0.008030863
vn 0.9998642 -0.01439133 0.008030863
vn 0.9998642 -0.01439133 0.008030863
vn -0.7204473 0.6921983 0.04262974
vn -0.7204473 0.6921983 0.04262974
vn -0.7204473 0.6921983 0.04262973
vn -0.7204474 0.6921983 0.04262974
vn 0 0 1
vn 0 0 1
vn 0 0 1
vn 0 0 1
vn -0.9998642 -0.01439131 0.008030991
vn -0.9998642 -0.01439131 0.008030991
vn -0.9998642 -0.01439131 0.00803099
vn -0.9998642 -0.01439131 0.008030991
vn 0 -1 0
vn 0 -1 0
vn 0 -1 0
vn 0 -1 0
g Red_Color_04_0
f 3/3/3 2/2/2 1/1/1
f 6/6/6 5/5/5 4/4/4
f 9/9/9 8/8/8 7/7/7
f 12/12/12 11/11/11 10/10/10
f 15/15/15 14/14/14 13/13/13
f 14/14/14 16/16/16 13/13/13
f 16/16/16 17/17/17 13/13/13
f 20/20/20 19/19/19 18/18/18
f 21/21/21 20/20/20 18/18/18
f 24/24/24 23/23/23 22/22/22
f 25/25/25 24/24/24 22/22/22
f 28/28/28 27/27/27 26/26/26
f 29/29/29 28/28/28 26/26/26
f 32/32/32 31/31/31 30/30/30
f 32/32/32 33/33/33 31/31/31
f 36/36/36 35/35/35 34/34/34
f 37/37/37 36/36/36 34/34/34
f 40/40/40 39/39/39 38/38/38
f 41/41/41 40/40/40 38/38/38
f 44/44/44 43/43/43 42/42/42
f 45/45/45 44/44/44 42/42/42
f 48/48/48 47/47/47 46/46/46
f 49/49/49 48/48/48 46/46/46
f 52/52/52 51/51/51 50/50/50
f 53/53/53 52/52/52 50/50/50
f 56/56/56 55/55/55 54/54/54
f 57/57/57 56/56/56 54/54/54
f 60/60/60 59/59/59 58/58/58
f 61/61/61 60/60/60 58/58/58
f 64/64/64 63/63/63 62/62/62
f 65/65/65 64/64/64 62/62/62
f 68/68/68 67/67/67 66/66/66
f 67/67/67 69/69/69 66/66/66
f 69/69/69 70/70/70 66/66/66
f 73/73/73 72/72/72 71/71/71
f 74/74/74 73/73/73 71/71/71
f 77/77/77 76/76/76 75/75/75
f 78/78/78 77/77/77 75/75/75
f 81/81/81 80/80/80 79/79/79
f 82/82/82 81/81/81 79/79/79
f 85/85/85 84/84/84 83/83/83
f 86/86/86 85/85/85 83/83/83
f 89/89/89 88/88/88 87/87/87
f 90/90/90 89/89/89 87/87/87
f 93/93/93 92/92/92 91/91/91
f 94/94/94 93/93/93 91/91/91
f 97/97/97 96/96/96 95/95/95
f 97/97/97 98/98/98 96/96/96
