g Red_Color_Cloth_02
v -6.540182 6.176933 6.480113
v -5.119085 5.612133 6.395885
v -6.668909 5.438562 5.727275
v -5.102202 4.881977 5.722219
v -6.805137 4.891033 4.908875
v -2.925609 5.216948 6.349585
v -5.14143 4.318913 4.961207
v -5.22721 4.006235 4.122607
v -6.957144 4.626003 4.019051
v -5.351735 4.026215 3.223653
v -7.123625 4.727203 3.064583
v -5.502499 4.418602 2.290969
v -7.294862 5.233467 2.06296
v -5.65753 5.151602 1.358433
v -7.476181 6.209578 1.036279
v -3.160268 4.397102 1.557738
v -3.047908 3.816011 2.433022
v -1.609325E-06 4.065617 1.640888
v -2.953569 3.546507 3.319883
v -1.609325E-06 3.623568 2.472291
v 3.160265 4.397102 1.557738
v -2.887363 3.605618 4.18194
v -1.579523E-06 3.536318 3.314837
v 3.047905 3.816011 2.433022
v -2.857426 3.952917 4.987134
v 5.502497 4.418602 2.290969
v 5.657527 5.151602 1.358433
v -1.579523E-06 3.669851 4.151937
v 2.953565 3.546507 3.319883
v -2.869264 4.516052 5.713253
v 7.294859 5.233467 2.062961
v 7.476179 6.209576 1.03628
v 7.123623 4.727203 3.064583
v -1.609325E-06 3.967686 4.935699
v -1.639128E-06 4.509726 5.640044
v -1.698732E-06 5.20369 6.252932
v 2.88736 3.605616 4.181941
v 5.351732 4.026215 3.223653
v 5.227207 4.006235 4.122607
v 6.957142 4.626003 4.019051
v 2.857422 3.952917 4.987134
v 2.869261 4.516052 5.713253
v 2.925606 5.216948 6.349583
v 5.141428 4.318913 4.961207
v 6.805134 4.891033 4.908876
v 5.1022 4.881977 5.722219
v 5.119081 5.612133 6.395885
v 6.668906 5.438562 5.727275
v 6.540178 6.176933 6.480113
v -7.468583 -2.752104 2.297374
v -5.612864 -3.453439 2.23597
v -7.335007 -3.596168 1.072031
v -5.467131 -4.212944 1.090344
v -7.238926 -4.240634 -0.270273
v -3.082875 -3.956164 2.254107
v -5.376774 -4.822568 -0.1907895
v -5.342381 -5.230898 -1.594953
v -7.181832 -4.633115 -1.729957
v -5.353012 -5.374299 -3.085961
v -7.148344 -4.713282 -3.281831
v -5.388555 -5.199393 -4.610036
v -7.109877 -4.435543 -4.881593
v -5.425048 -4.691052 -6.109461
v -7.054011 -3.791223 -6.480113
v -3.044657 -5.414177 -5.881537
v -2.976366 -5.78637 -4.437393
v -2.112985E-05 -5.69655 -5.806472
v -2.925598 -5.856241 -2.953795
v -2.110004E-05 -6.003951 -4.379075
v 3.044615 -5.414176 -5.881537
v -2.903304 -5.645171 -1.493183
v -2.110004E-05 -6.021776 -2.907624
v 2.976323 -5.786371 -4.437393
v -2.919039 -5.217049 -0.1138828
v 5.388514 -5.199392 -4.610036
v 5.425006 -4.691052 -6.109461
v -2.110004E-05 -5.771015 -1.455752
v 2.925555 -5.856242 -2.953795
v -2.978578 -4.639248 1.14208
v 7.10966 -4.43554 -4.881592
v 7.053969 -3.791221 -6.480113
v 7.148303 -4.71328 -3.281831
v -2.112985E-05 -5.322041 -0.08249593
v -2.115965E-05 -4.760641 1.170134
v -2.121925E-05 -4.070559 2.277296
v 2.903261 -5.645171 -1.493183
v 5.352972 -5.374299 -3.085961
v 5.34234 -5.230898 -1.594953
v 7.181791 -4.633113 -1.729957
v 2.918996 -5.217049 -0.1138818
v 2.978535 -4.639248 1.14208
v 3.082832 -3.956164 2.254107
v 5.376733 -4.822567 -0.1907895
v 7.238886 -4.240633 -0.2702727
v 5.46709 -4.212944 1.090344
v 5.612822 -3.453438 2.23597
v 7.334965 -3.596166 1.072031
v 7.468541 -2.752103 2.297373
v 2.334896 -4.544801 1.791846
v 4.285694 -4.211217 1.726338
v 4.21486 -4.998313 0.1763394
v 2.288225 -5.30592 0.2729895
v -1.332164E-05 -4.636074 1.826559
v 4.187899 -5.516608 -1.543823
v -1.326203E-05 -5.385664 0.3120105
v -2.334925 -4.544801 1.791846
v 2.275889 -5.845735 -1.41525
v 4.196231 -5.678633 -3.394727
v -2.288251 -5.30592 0.2729876
v -4.28572 -4.211218 1.726338
v -4.214889 -4.998313 0.1763408
v -1.323223E-05 -5.944971 -1.368178
v 2.293366 -6.07404 -3.226146
v 4.224095 -5.420617 -5.31269
v 2.333163 -5.920642 -5.090114
v -2.275918 -5.845735 -1.41525
v -4.187927 -5.516608 -1.543823
v -1.323223E-05 -6.209577 -3.167317
v -1.326203E-05 -6.104821 -5.014857
v -2.293396 -6.07404 -3.226146
v -4.196262 -5.678634 -3.394727
v -2.333192 -5.920642 -5.090114
v -4.224122 -5.420617 -5.31269
v 1.627159 4.803556 6.135095
v 2.986632 4.78125 6.117693
v 2.937271 4.021368 5.3038
v 1.594632 4.050356 5.346101
v -1.549721E-06 4.818958 6.146908
v 2.918479 3.520412 4.195216
v -1.490116E-06 4.063564 5.364933
v -1.627157 4.803556 6.135095
v 1.586036 3.539213 4.265093
v 2.924289 3.426384 2.910773
v -1.594632 4.050356 5.346102
v -2.986632 4.78125 6.117695
v -2.937272 4.02137 5.3038
v -1.460314E-06 3.546759 4.291633
v 1.598216 3.4172 3.007079
v 2.943705 3.803999 1.653917
v 1.62595 3.746922 1.769447
v -1.586036 3.539213 4.265093
v -2.918483 3.520412 4.195216
v -1.460314E-06 3.4146 3.040867
v -1.490116E-06 3.728889 1.808253
v -1.598217 3.4172 3.007079
v -2.924289 3.426384 2.910772
v -1.625951 3.746922 1.769447
v -2.943706 3.803999 1.653917
vt 0.009999949 0.9899999
vt 0.1730714 0.9899999
vt 0.009999949 0.9096224
vt 0.1730714 0.9096224
vt 0.009999949 0.8292447
vt 0.3361431 0.9899999
vt 0.1730714 0.8292447
vt 0.1730714 0.748867
vt 0.009999949 0.748867
vt 0.1730714 0.6684893
vt 0.009999949 0.6684893
vt 0.1730714 0.5881119
vt 0.009999949 0.5881119
vt 0.1730714 0.5077343
vt 0.009999949 0.5077343
vt 0.3361431 0.5077343
vt 0.3361431 0.5881119
vt 0.4992145 0.5077343
vt 0.3361431 0.6684893
vt 0.4992145 0.5881119
vt 0.6622858 0.5077343
vt 0.3361431 0.748867
vt 0.4992145 0.6684893
vt 0.6622858 0.5881119
vt 0.3361431 0.8292447
vt 0.8253574 0.5881119
vt 0.8253574 0.5077343
vt 0.4992145 0.748867
vt 0.6622858 0.6684893
vt 0.3361431 0.9096224
vt 0.988429 0.5881119
vt 0.988429 0.5077343
vt 0.988429 0.6684893
vt 0.4992145 0.8292447
vt 0.4992145 0.9096224
vt 0.4992145 0.9899999
vt 0.6622858 0.748867
vt 0.8253574 0.6684893
vt 0.8253574 0.748867
vt 0.988429 0.748867
vt 0.6622858 0.8292447
vt 0.6622858 0.9096224
vt 0.6622858 0.9899999
vt 0.8253574 0.8292447
vt 0.988429 0.8292447
vt 0.8253574 0.9096224
vt 0.8253574 0.9899999
vt 0.988429 0.9096224
vt 0.988429 0.9899999
vt 0.009999969 0.99
vt 0.1730697 0.99
vt 0.009999969 0.9096223
vt 0.1730697 0.9096223
vt 0.009999969 0.8292446
vt 0.3361395 0.99
vt 0.1730697 0.8292446
vt 0.1730697 0.748867
vt 0.009999969 0.748867
vt 0.1730697 0.6684895
vt 0.009999969 0.6684895
vt 0.1730697 0.5881118
vt 0.009999969 0.5881118
vt 0.1730697 0.5077343
vt 0.009999969 0.5077343
vt 0.3361395 0.5077343
vt 0.3361395 0.5881118
vt 0.4999172 0.5077343
vt 0.3361395 0.6684895
vt 0.4999172 0.5881118
vt 0.6622896 0.5077343
vt 0.3361395 0.748867
vt 0.4999172 0.6684895
vt 0.6622896 0.5881118
vt 0.3361395 0.8292446
vt 0.8253592 0.5881118
vt 0.8253592 0.5077343
vt 0.4999172 0.748867
vt 0.6622896 0.6684895
vt 0.3361395 0.9096223
vt 0.988429 0.5881118
vt 0.988429 0.5077343
vt 0.988429 0.6684895
vt 0.4999172 0.8292446
vt 0.4999172 0.9096223
vt 0.4999172 0.99
vt 0.6622896 0.748867
vt 0.8253592 0.6684895
vt 0.8253592 0.748867
vt 0.988429 0.748867
vt 0.6622896 0.8292446
vt 0.6622896 0.9096223
vt 0.6622896 0.99
vt 0.8253592 0.8292446
vt 0.988429 0.8292446
vt 0.8253592 0.9096223
vt 0.8253592 0.99
vt 0.988429 0.9096223
vt 0.988429 0.99
vt 0.8792617 0.4946053
vt 0.9931784 0.4946053
vt 0.9931784 0.3721054
vt 0.8792617 0.3721054
vt 0.7559564 0.4946053
vt 0.9931784 0.2489207
vt 0.7559564 0.3721054
vt 0.6206748 0.4946053
vt 0.8792617 0.2489207
vt 0.9931784 0.1242762
vt 0.6206748 0.3721054
vt 0.5031782 0.4946053
vt 0.5031782 0.3721054
vt 0.7559564 0.2489207
vt 0.8792617 0.1242762
vt 0.9931784 0.004605315
vt 0.8792617 0.004605315
vt 0.6206748 0.2489207
vt 0.5031782 0.2489207
vt 0.7559564 0.1242762
vt 0.7559564 0.004605315
vt 0.6206748 0.1242762
vt 0.5031782 0.1242762
vt 0.6206748 0.004605315
vt 0.5031782 0.004605315
vt 0.8792617 0.4946053
vt 0.9931784 0.4946053
vt 0.9931784 0.3721054
vt 0.8792617 0.3721054
vt 0.7559564 0.4946053
vt 0.9931784 0.2489207
vt 0.7559564 0.3721054
vt 0.6206748 0.4946053
vt 0.8792617 0.2489207
vt 0.9931784 0.1242762
vt 0.6206748 0.3721054
vt 0.5031782 0.4946053
vt 0.5031782 0.3721054
vt 0.7559564 0.2489207
vt 0.8792617 0.1242762
vt 0.9931784 0.004605315
vt 0.8792617 0.004605315
vt 0.6206748 0.2489207
vt 0.5031782 0.2489207
vt 0.7559564 0.1242762
vt 0.7559564 0.004605315
vt 0.6206748 0.1242762
vt 0.5031782 0.1242762
vt 0.6206748 0.004605315
vt 0.5031782 0.004605315
vn -0.2269453 -0.6756247 0.7014465
vn -0.1782142 -0.6719756 0.7188105
vn -0.2515157 -0.7242225 0.6420605
vn -0.1875891 -0.7306904 0.6564311
vn -0.3041231 -0.8360137 0.4567168
vn -0.04948131 -0.6717918 0.7390855
vn -0.2240199 -0.8492106 0.4781804
vn -0.2561456 -0.9471964 0.1928946
vn -0.3457978 -0.9262264 0.1500952
vn -0.2665371 -0.9521634 -0.1494756
vn -0.3491493 -0.9100051 -0.2235742
vn -0.2525163 -0.8570807 -0.4490527
vn -0.3169627 -0.7863071 -0.5303356
vn -0.2545462 -0.7686145 -0.5868884
vn -0.3056742 -0.7164165 -0.6271448
vn -0.1293478 -0.8376768 -0.5306286
vn -0.1170105 -0.91294 -0.3909594
vn 0 -0.8594941 -0.5111456
vn -0.1000672 -0.9912201 -0.08642606
vn 0 -0.9338598 -0.3576396
vn 0.1293478 -0.8376768 -0.5306286
vn -0.07773622 -0.9698498 0.230973
vn 0 -0.9989988 -0.04473656
vn 0.1170105 -0.91294 -0.3909594
vn -0.06337411 -0.8664887 0.4951576
vn 0.2525163 -0.8570806 -0.4490528
vn 0.2545461 -0.7686144 -0.5868885
vn 0 -0.9692687 0.2460041
vn 0.1000671 -0.9912199 -0.0864266
vn -0.05048186 -0.7363921 0.674669
vn 0.3169625 -0.7863073 -0.5303354
vn 0.3056739 -0.7164175 -0.627144
vn 0.3491493 -0.9100051 -0.2235743
vn 0 -0.8675711 0.4973132
vn 0 -0.7328575 0.6803822
vn 0 -0.6667072 0.7453197
vn 0.07773621 -0.9698498 0.2309731
vn 0.2665371 -0.9521633 -0.1494758
vn 0.2561458 -0.9471964 0.1928945
vn 0.3457977 -0.9262264 0.1500952
vn 0.06337409 -0.8664885 0.4951581
vn 0.05048186 -0.7363917 0.6746694
vn 0.04948126 -0.6717911 0.7390862
vn 0.2240199 -0.8492106 0.4781806
vn 0.304123 -0.8360137 0.456717
vn 0.1875889 -0.7306904 0.6564313
vn 0.1782139 -0.6719756 0.7188107
vn 0.2515157 -0.7242223 0.6420608
vn 0.2269453 -0.6756247 0.7014465
vn -0.2863313 -0.8033441 0.5221615
vn -0.2335181 -0.8211817 0.5207013
vn -0.2866147 -0.8370612 0.4660264
vn -0.2226258 -0.8597671 0.4596069
vn -0.2992024 -0.8960814 0.3278963
vn -0.1039536 -0.8480994 0.5195392
vn -0.2304563 -0.9138568 0.3342986
vn -0.2476552 -0.9519234 0.1803022
vn -0.3208651 -0.9338533 0.1579992
vn -0.2659903 -0.9639642 0.004705122
vn -0.3483702 -0.9363928 -0.04250446
vn -0.2893109 -0.9374419 -0.1936539
vn -0.3753215 -0.8896742 -0.2600261
vn -0.3192711 -0.8934442 -0.3159485
vn -0.3884311 -0.8498753 -0.3561364
vn -0.1585248 -0.9562731 -0.2457874
vn -0.1411885 -0.9799829 -0.1403544
vn 0 -0.9735212 -0.2285967
vn -0.1277134 -0.9907836 0.04513543
vn 0 -0.9918472 -0.1274327
vn 0.1585248 -0.9562731 -0.2457877
vn -0.1108502 -0.9699866 0.2164213
vn 0 -0.9978724 0.06519885
vn 0.1411885 -0.9799829 -0.1403546
vn -0.1011801 -0.9302508 0.3526982
vn 0.2893212 -0.937438 -0.1936578
vn 0.319286 -0.8934428 -0.3159373
vn 0 -0.9729626 0.2309629
vn 0.1277134 -0.9907836 0.04513556
vn -0.09750021 -0.8801041 0.4646618
vn 0.3753442 -0.8896638 -0.2600288
vn 0.388446 -0.8498848 -0.3560976
vn 0.3483784 -0.9363895 -0.0425128
vn 0 -0.9335038 0.3585675
vn 0 -0.883 0.4693729
vn 0 -0.8511596 0.524907
vn 0.1108501 -0.9699866 0.2164214
vn 0.2659908 -0.963964 0.004705093
vn 0.2476555 -0.9519232 0.1803024
vn 0.3208659 -0.933853 0.1579993
vn 0.1011801 -0.9302508 0.3526982
vn 0.09750023 -0.8801041 0.4646618
vn 0.1039536 -0.8480994 0.5195392
vn 0.2304567 -0.9138568 0.3342985
vn 0.299203 -0.8960812 0.3278963
vn 0.2226261 -0.859767 0.4596068
vn 0.2335185 -0.8211815 0.5207015
vn 0.2866154 -0.8370609 0.4660264
vn 0.2863318 -0.8033441 0.5221613
vn 0.1045505 -0.8904675 0.4428734
vn 0.1644179 -0.8831838 0.4392643
vn 0.1692144 -0.914389 0.3677761
vn 0.1050396 -0.9220418 0.3725664
vn 0 -0.8953803 0.4453023
vn 0.1843043 -0.9629145 0.197047
vn 0 -0.9254761 0.3788062
vn -0.1045504 -0.8904677 0.4428731
vn 0.1158056 -0.9703321 0.2122367
vn 0.2079381 -0.9781309 -0.004661671
vn -0.1050395 -0.9220418 0.3725664
vn -0.1644175 -0.883184 0.4392639
vn -0.1692141 -0.9143891 0.3677762
vn 0 -0.9745246 0.2242806
vn 0.1330624 -0.990908 0.01989589
vn 0.2185825 -0.9705081 -0.1016655
vn 0.1481729 -0.9851752 -0.08645631
vn -0.1158055 -0.9703321 0.2122369
vn -0.184304 -0.9629145 0.1970473
vn 0 -0.9993821 0.035147
vn 0 -0.9976392 -0.06867278
vn -0.1330622 -0.990908 0.01989588
vn -0.2079378 -0.978131 -0.004661702
vn -0.1481727 -0.9851752 -0.08645646
vn -0.2185822 -0.9705081 -0.1016658
vn 0.0007773368 -0.724283 0.6895023
vn 0.001361225 -0.7272182 0.6864049
vn 0.001387846 -0.8287375 0.5596358
vn 0.0008002797 -0.824648 0.5656457
vn 0 -0.7212825 0.692641
vn 0.001561836 -0.9680299 0.2508301
vn 0 -0.821569 0.5701091
vn -0.0007773563 -0.7242832 0.6895021
vn 0.0009296333 -0.9642851 0.264865
vn 0.002020406 -0.9944745 -0.1049593
vn -0.0008004608 -0.824648 0.5656457
vn -0.001361469 -0.7272189 0.6864043
vn -0.001388388 -0.8287377 0.5596356
vn 0 -0.9624291 0.2715331
vn 0.001215091 -0.9965263 -0.08326994
vn 0.002257089 -0.9620783 -0.272764
vn 0.001429495 -0.9647791 -0.2630573
vn -0.0009298226 -0.9642851 0.2648651
vn -0.001562256 -0.9680297 0.2508304
vn 0 -0.9972159 -0.07456813
vn 0 -0.9676571 -0.2522692
vn -0.001215073 -0.9965263 -0.08326995
vn -0.002020361 -0.9944745 -0.1049593
vn -0.001429438 -0.9647791 -0.2630574
vn -0.002256981 -0.9620783 -0.2727641
g Red_Color_Cloth_02_0
f 3/3/3 2/2/2 1/1/1
f 4/4/4 2/2/2 3/3/3
f 5/5/5 4/4/4 3/3/3
f 4/4/4 6/6/6 2/2/2
f 7/7/7 4/4/4 5/5/5
f 8/8/8 7/7/7 5/5/5
f 9/9/9 8/8/8 5/5/5
f 10/10/10 8/8/8 9/9/9
f 11/11/11 10/10/10 9/9/9
f 12/12/12 10/10/10 11/11/11
f 13/13/13 12/12/12 11/11/11
f 14/14/14 12/12/12 13/13/13
f 15/15/15 14/14/14 13/13/13
f 14/14/14 16/16/16 12/12/12
f 16/16/16 17/17/17 12/12/12
f 12/12/12 17/17/17 10/10/10
f 16/16/16 18/18/18 17/17/17
f 10/10/10 19/19/19 8/8/8
f 17/17/17 19/19/19 10/10/10
f 18/18/18 20/20/20 17/17/17
f 17/17/17 20/20/20 19/19/19
f 18/18/18 21/21/21 20/20/20
f 8/8/8 22/22/22 7/7/7
f 19/19/19 22/22/22 8/8/8
f 20/20/20 23/23/23 19/19/19
f 19/19/19 23/23/23 22/22/22
f 21/21/21 24/24/24 20/20/20
f 20/20/20 24/24/24 23/23/23
f 22/22/22 25/25/25 7/7/7
f 7/7/7 25/25/25 4/4/4
f 21/21/21 26/26/26 24/24/24
f 27/27/27 26/26/26 21/21/21
f 23/23/23 28/28/28 22/22/22
f 22/22/22 28/28/28 25/25/25
f 24/24/24 29/29/29 23/23/23
f 24/24/24 26/26/26 29/29/29
f 23/23/23 29/29/29 28/28/28
f 25/25/25 30/30/30 4/4/4
f 30/30/30 6/6/6 4/4/4
f 27/27/27 31/31/31 26/26/26
f 32/32/32 31/31/31 27/27/27
f 31/31/31 33/33/33 26/26/26
f 28/28/28 34/34/34 25/25/25
f 25/25/25 34/34/34 30/30/30
f 30/30/30 35/35/35 6/6/6
f 34/34/34 35/35/35 30/30/30
f 35/35/35 36/36/36 6/6/6
f 29/29/29 37/37/37 28/28/28
f 28/28/28 37/37/37 34/34/34
f 26/26/26 38/38/38 29/29/29
f 26/26/26 33/33/33 38/38/38
f 29/29/29 38/38/38 37/37/37
f 38/38/38 33/33/33 39/39/39
f 38/38/38 39/39/39 37/37/37
f 33/33/33 40/40/40 39/39/39
f 37/37/37 41/41/41 34/34/34
f 34/34/34 41/41/41 35/35/35
f 37/37/37 39/39/39 41/41/41
f 35/35/35 42/42/42 36/36/36
f 41/41/41 42/42/42 35/35/35
f 42/42/42 43/43/43 36/36/36
f 39/39/39 40/40/40 44/44/44
f 39/39/39 44/44/44 41/41/41
f 41/41/41 44/44/44 42/42/42
f 40/40/40 45/45/45 44/44/44
f 42/42/42 46/46/46 43/43/43
f 44/44/44 46/46/46 42/42/42
f 44/44/44 45/45/45 46/46/46
f 46/46/46 47/47/47 43/43/43
f 45/45/45 48/48/48 46/46/46
f 46/46/46 48/48/48 47/47/47
f 48/48/48 49/49/49 47/47/47
f 52/52/52 51/51/51 50/50/50
f 53/53/53 51/51/51 52/52/52
f 54/54/54 53/53/53 52/52/52
f 53/53/53 55/55/55 51/51/51
f 56/56/56 53/53/53 54/54/54
f 57/57/57 56/56/56 54/54/54
f 58/58/58 57/57/57 54/54/54
f 59/59/59 57/57/57 58/58/58
f 60/60/60 59/59/59 58/58/58
f 61/61/61 59/59/59 60/60/60
f 62/62/62 61/61/61 60/60/60
f 63/63/63 61/61/61 62/62/62
f 64/64/64 63/63/63 62/62/62
f 63/63/63 65/65/65 61/61/61
f 65/65/65 66/66/66 61/61/61
f 61/61/61 66/66/66 59/59/59
f 65/65/65 67/67/67 66/66/66
f 59/59/59 68/68/68 57/57/57
f 66/66/66 68/68/68 59/59/59
f 67/67/67 69/69/69 66/66/66
f 66/66/66 69/69/69 68/68/68
f 67/67/67 70/70/70 69/69/69
f 57/57/57 71/71/71 56/56/56
f 68/68/68 71/71/71 57/57/57
f 69/69/69 72/72/72 68/68/68
f 68/68/68 72/72/72 71/71/71
f 70/70/70 73/73/73 69/69/69
f 69/69/69 73/73/73 72/72/72
f 71/71/71 74/74/74 56/56/56
f 56/56/56 74/74/74 53/53/53
f 70/70/70 75/75/75 73/73/73
f 76/76/76 75/75/75 70/70/70
f 72/72/72 77/77/77 71/71/71
f 71/71/71 77/77/77 74/74/74
f 73/73/73 78/78/78 72/72/72
f 73/73/73 75/75/75 78/78/78
f 72/72/72 78/78/78 77/77/77
f 74/74/74 79/79/79 53/53/53
f 79/79/79 55/55/55 53/53/53
f 76/76/76 80/80/80 75/75/75
f 81/81/81 80/80/80 76/76/76
f 80/80/80 82/82/82 75/75/75
f 77/77/77 83/83/83 74/74/74
f 74/74/74 83/83/83 79/79/79
f 79/79/79 84/84/84 55/55/55
f 83/83/83 84/84/84 79/79/79
f 84/84/84 85/85/85 55/55/55
f 78/78/78 86/86/86 77/77/77
f 77/77/77 86/86/86 83/83/83
f 75/75/75 87/87/87 78/78/78
f 75/75/75 82/82/82 87/87/87
f 78/78/78 87/87/87 86/86/86
f 87/87/87 82/82/82 88/88/88
f 87/87/87 88/88/88 86/86/86
f 82/82/82 89/89/89 88/88/88
f 86/86/86 90/90/90 83/83/83
f 83/83/83 90/90/90 84/84/84
f 86/86/86 88/88/88 90/90/90
f 84/84/84 91/91/91 85/85/85
f 90/90/90 91/91/91 84/84/84
f 91/91/91 92/92/92 85/85/85
f 88/88/88 89/89/89 93/93/93
f 88/88/88 93/93/93 90/90/90
f 90/90/90 93/93/93 91/91/91
f 89/89/89 94/94/94 93/93/93
f 91/91/91 95/95/95 92/92/92
f 93/93/93 95/95/95 91/91/91
f 93/93/93 94/94/94 95/95/95
f 95/95/95 96/96/96 92/92/92
f 94/94/94 97/97/97 95/95/95
f 95/95/95 97/97/97 96/96/96
f 97/97/97 98/98/98 96/96/96
f 101/101/101 100/100/100 99/99/99
f 102/102/102 101/101/101 99/99/99
f 102/102/102 99/99/99 103/103/103
f 104/104/104 101/101/101 102/102/102
f 105/105/105 102/102/102 103/103/103
f 105/105/105 103/103/103 106/106/106
f 107/107/107 104/104/104 102/102/102
f 107/107/107 102/102/102 105/105/105
f 108/108/108 104/104/104 107/107/107
f 109/109/109 105/105/105 106/106/106
f 109/109/109 106/106/106 110/110/110
f 111/111/111 109/109/109 110/110/110
f 112/112/112 107/107/107 105/105/105
f 112/112/112 105/105/105 109/109/109
f 113/113/113 108/108/108 107/107/107
f 113/113/113 107/107/107 112/112/112
f 114/114/114 108/108/108 113/113/113
f 115/115/115 114/114/114 113/113/113
f 116/116/116 109/109/109 111/111/111
f 116/116/116 112/112/112 109/109/109
f 117/117/117 116/116/116 111/111/111
f 118/118/118 113/113/113 112/112/112
f 115/115/115 113/113/113 118/118/118
f 118/118/118 112/112/112 116/116/116
f 119/119/119 115/115/115 118/118/118
f 120/120/120 116/116/116 117/117/117
f 120/120/120 118/118/118 116/116/116
f 119/119/119 118/118/118 120/120/120
f 121/121/121 120/120/120 117/117/117
f 122/122/122 119/119/119 120/120/120
f 122/122/122 120/120/120 121/121/121
f 123/123/123 122/122/122 121/121/121
f 126/126/126 125/125/125 124/124/124
f 127/127/127 126/126/126 124/124/124
f 127/127/127 124/124/124 128/128/128
f 129/129/129 126/126/126 127/127/127
f 130/130/130 127/127/127 128/128/128
f 130/130/130 128/128/128 131/131/131
f 132/132/132 129/129/129 127/127/127
f 132/132/132 127/127/127 130/130/130
f 133/133/133 129/129/129 132/132/132
f 134/134/134 130/130/130 131/131/131
f 134/134/134 131/131/131 135/135/135
f 136/136/136 134/134/134 135/135/135
f 137/137/137 132/132/132 130/130/130
f 137/137/137 130/130/130 134/134/134
f 138/138/138 133/133/133 132/132/132
f 138/138/138 132/132/132 137/137/137
f 139/139/139 133/133/133 138/138/138
f 140/140/140 139/139/139 138/138/138
f 141/141/141 134/134/134 136/136/136
f 141/141/141 137/137/137 134/134/134
f 142/142/142 141/141/141 136/136/136
f 143/143/143 138/138/138 137/137/137
f 140/140/140 138/138/138 143/143/143
f 143/143/143 137/137/137 141/141/141
f 144/144/144 140/140/140 143/143/143
f 145/145/145 141/141/141 142/142/142
f 145/145/145 143/143/143 141/141/141
f 144/144/144 143/143/143 145/145/145
f 146/146/146 145/145/145 142/142/142
f 147/147/147 144/144/144 145/145/145
f 147/147/147 145/145/145 146/146/146
f 148/148/148 147/147/147 146/146/146
