g Red_Color_Cloth_04
v 0.1082964 3.264381 6.015619
v 0.3550937 2.981075 5.536654
v -0.09945007 2.340915 5.470495
v 0.01411714 2.528142 6.024122
v -0.3458737 3.423923 6.50477
v 0.6680335 1.620489 5.552614
v -0.210548 2.567057 6.532785
v -0.1481408 3.892141 6.976698
v -0.5470642 2.406064 7.025507
v 0.4451135 1.892059 6.076174
v 0.8112895 1.020266 5.520447
v 0.2586393 1.902637 6.583673
v 0.2071806 1.700132 7.086391
v 0.624591 1.300942 6.095875
v 0.5124919 0.446053 5.470236
v 0.4796508 1.284641 6.633963
v 0.4138741 1.049462 7.175184
v 0.437655 0.7364874 6.088034
v 0.3580445 0.6661978 6.665154
v 0.2866988 0.3421721 7.285049
v 0.04984422 0.3038473 6.082809
v 0.02328582 -1.065021 5.274727
v 0.01866779 0.1018696 6.651426
v 0.0008071661 -1.297628 7.535236
v 6.092727 -2.089543 3.043272
v 5.229071 -2.738536 1.417388
v 4.293291 -2.713111 2.859594
v 3.616719 -3.192163 1.333843
v 2.227504 -3.152249 2.748983
v 4.651927 -3.110858 -0.2670612
v 1.851789 -3.494785 1.283714
v -1.432002E-05 -3.601443 1.267023
v -1.442432E-05 -3.311821 2.712137
v -1.851817 -3.494785 1.283714
v -2.227534 -3.15225 2.748983
v -3.616748 -3.192165 1.333843
v -4.29332 -2.713112 2.859594
v -5.229099 -2.738538 1.417388
v -6.092757 -2.089545 3.043272
v -4.651955 -3.11086 -0.2670612
v -3.186385 -3.467467 -0.3003864
v -4.497061 -3.176754 -2.029855
v -1.620746 -3.698684 -0.3204508
v -3.071872 -3.511803 -2.034802
v -4.823189 -2.899683 -3.852436
v -1.421571E-05 -3.778923 -0.3271494
v -1.559668 -3.727141 -2.037981
v -3.306694 -3.293255 -3.830799
v 1.620717 -3.698683 -0.3204508
v -3.879242 -2.77921 -5.632058
v -5.594988 -2.229811 -5.697402
v -1.41412E-05 -3.80152 -2.039081
v -1.682955 -3.548347 -3.818361
v 3.186357 -3.467466 -0.3003864
v -4.724193 -1.94506 -7.384285
v -6.669394 -1.124008 -7.535238
v -2.460284 -2.521195 -7.297949
v 1.559639 -3.72714 -2.037981
v 3.071844 -3.511802 -2.034801
v 4.497033 -3.176752 -2.029854
v -1.40965E-05 -3.636864 -3.814321
v -1.989509 -3.145284 -5.594387
v -1.40816E-05 -3.274271 -5.582149
v -1.41114E-05 -2.730385 -7.27018
v 1.682927 -3.548347 -3.818361
v 3.306666 -3.293254 -3.830799
v 4.823161 -2.899682 -3.852436
v 1.989481 -3.145283 -5.594387
v 2.460255 -2.521194 -7.297949
v 3.879214 -2.779208 -5.632057
v 5.594959 -2.229809 -5.697402
v 4.724164 -1.945059 -7.384285
v 6.669365 -1.124006 -7.535238
v 2.244746 -3.51373 1.376019
v 4.067663 -3.081931 1.391408
v 4.125653 -3.220223 0.02820492
v 2.276748 -3.658178 0.01259708
v -3.173947E-06 -3.698534 1.369432
v 4.15724 -3.26196 -1.656964
v -2.995133E-06 -3.845617 0.005917549
v -2.244758 -3.513734 1.376019
v 2.294179 -3.703268 -1.672692
v 4.140354 -3.140374 -3.54169
v -2.276759 -3.658182 0.01259708
v -4.067681 -3.081935 1.391407
v -4.12567 -3.220228 0.02820492
v -2.905726E-06 -3.892142 -1.679423
v 2.284861 -3.579889 -3.557354
v 4.067663 -2.83922 -5.418948
v 2.244746 -3.27102 -5.434338
v -2.294191 -3.703272 -1.672692
v -4.157258 -3.261964 -1.656964
v -2.980232E-06 -3.767996 -3.564057
v -3.218651E-06 -3.455824 -5.440924
v -2.284872 -3.579893 -3.557354
v -4.140371 -3.140378 -3.54169
v -2.244758 -3.271023 -5.434338
v -4.067681 -2.839225 -5.418949
vt 0.4455317 0.3014069
vt 0.4455317 0.3933164
vt 0.3651608 0.3933164
vt 0.3651608 0.3014069
vt 0.4455317 0.2094972
vt 0.2847897 0.3933164
vt 0.3651608 0.2094972
vt 0.4455317 0.1175874
vt 0.3651608 0.1175874
vt 0.2847897 0.3014069
vt 0.2044186 0.3933164
vt 0.2847897 0.2094972
vt 0.2847897 0.1175874
vt 0.2044186 0.3014069
vt 0.1240476 0.3933164
vt 0.2044186 0.2094972
vt 0.2044186 0.1175874
vt 0.1240476 0.3014069
vt 0.1240476 0.2094972
vt 0.1240476 0.1175874
vt 0.04367651 0.3014069
vt 0.04367651 0.3933164
vt 0.04367651 0.2094972
vt 0.04367651 0.1175874
vt 0.9862067 0.99
vt 0.9862067 0.9101185
vt 0.8235055 0.99
vt 0.8235055 0.9101185
vt 0.6608047 0.99
vt 0.9862067 0.830237
vt 0.6608047 0.9101185
vt 0.4981034 0.9101185
vt 0.4981034 0.99
vt 0.3354023 0.9101185
vt 0.3354023 0.99
vt 0.1727011 0.9101185
vt 0.1727011 0.99
vt 0.01000002 0.9101185
vt 0.01000002 0.99
vt 0.01000002 0.830237
vt 0.1727011 0.830237
vt 0.01000002 0.7503554
vt 0.3354023 0.830237
vt 0.1727011 0.7503554
vt 0.01000002 0.670474
vt 0.4981034 0.830237
vt 0.3354023 0.7503554
vt 0.1727011 0.670474
vt 0.6608047 0.830237
vt 0.1727011 0.5905925
vt 0.01000002 0.5905925
vt 0.4981034 0.7503554
vt 0.3354023 0.670474
vt 0.8235055 0.830237
vt 0.1727011 0.5107112
vt 0.01000002 0.5107112
vt 0.3354023 0.5107112
vt 0.6608047 0.7503554
vt 0.8235055 0.7503554
vt 0.9862067 0.7503554
vt 0.4981034 0.670474
vt 0.3354023 0.5905925
vt 0.4981034 0.5905925
vt 0.4981034 0.5107112
vt 0.6608047 0.670474
vt 0.8235055 0.670474
vt 0.9862067 0.670474
vt 0.6608047 0.5905925
vt 0.6608047 0.5107112
vt 0.8235055 0.5905925
vt 0.9862067 0.5905925
vt 0.8235055 0.5107112
vt 0.9862067 0.5107112
vt 0.8792617 0.4946053
vt 0.9931784 0.4946053
vt 0.9931784 0.3721054
vt 0.8792617 0.3721054
vt 0.7559564 0.4946053
vt 0.9931784 0.2489207
vt 0.7559564 0.3721054
vt 0.6206748 0.4946053
vt 0.8792617 0.2489207
vt 0.9931784 0.1242762
vt 0.6206748 0.3721054
vt 0.5031782 0.4946053
vt 0.5031782 0.3721054
vt 0.7559564 0.2489207
vt 0.8792617 0.1242762
vt 0.9931784 0.004605315
vt 0.8792617 0.004605315
vt 0.6206748 0.2489207
vt 0.5031782 0.2489207
vt 0.7559564 0.1242762
vt 0.7559564 0.004605315
vt 0.6206748 0.1242762
vt 0.5031782 0.1242762
vt 0.6206748 0.004605315
vt 0.5031782 0.004605315
vn 0.8785547 -0.1310508 0.4593119
vn 0.8873529 -0.3655303 0.281056
vn 0.9636001 0.2673438 0.001462486
vn 0.9343247 0.2230956 0.2779673
vn 0.9458156 -0.05549411 0.3199269
vn 0.9136741 0.3967359 0.08831976
vn 0.8746083 0.2707936 0.4021582
vn 0.9791656 -0.1044531 0.1741383
vn 0.8721537 0.3176329 0.3720984
vn 0.8637461 0.4895507 0.1195104
vn 0.9277979 -0.1659382 0.3341491
vn 0.8064841 0.4832911 0.340607
vn 0.823332 0.4535794 0.3411601
vn 0.9626918 0.02882723 0.2690601
vn 0.794939 -0.4216101 0.4362534
vn 0.9743644 0.08879548 0.2067111
vn 0.9944823 -0.007625004 0.1046281
vn 0.8611239 -0.4532279 0.2303263
vn 0.9279702 -0.3726537 0.0008052636
vn 0.93929 -0.2959603 -0.1736143
vn 0.8093036 -0.5358803 0.240541
vn 0.7897373 -0.3231408 0.5214356
vn 0.8817573 -0.4321037 -0.1891836
vn 0.9265563 -0.2092337 -0.3125934
vn 0.3006822 -0.9299788 0.2114937
vn 0.2738321 -0.9463857 0.1713765
vn 0.2512142 -0.9461266 0.2042936
vn 0.2093097 -0.9655617 0.154532
vn 0.1292897 -0.9709029 0.2015731
vn 0.2413125 -0.9679754 0.069223
vn 0.1058415 -0.982205 0.1551481
vn 0 -0.9872262 0.1593249
vn 0 -0.9788231 0.204708
vn -0.1058411 -0.9822051 0.155148
vn -0.1292893 -0.970903 0.201573
vn -0.2093093 -0.9655618 0.154532
vn -0.251214 -0.9461267 0.2042936
vn -0.2738319 -0.9463859 0.1713765
vn -0.3006819 -0.9299789 0.2114936
vn -0.2413121 -0.9679756 0.06922292
vn -0.1888726 -0.9801165 0.06081822
vn -0.2361109 -0.9707743 -0.0430005
vn -0.09815416 -0.9931203 0.06385719
vn -0.18787 -0.98134 -0.0409487
vn -0.2546665 -0.9535374 -0.1609697
vn 0 -0.9979382 0.064181
vn -0.09580016 -0.9945804 -0.04039993
vn -0.1978358 -0.9689788 -0.1481259
vn 0.09815451 -0.9931203 0.06385721
vn -0.2300474 -0.9383278 -0.2581067
vn -0.3041798 -0.9101806 -0.2811509
vn 0 -0.9991907 -0.04022164
vn -0.103585 -0.9831901 -0.1503579
vn 0.1888731 -0.9801164 0.06081831
vn -0.2877159 -0.9024861 -0.3205281
vn -0.3458422 -0.879473 -0.3269868
vn -0.1473909 -0.9376083 -0.3149076
vn 0.09580047 -0.9945803 -0.04039992
vn 0.1878704 -0.9813399 -0.04094863
vn 0.2361114 -0.9707742 -0.04300041
vn 0 -0.9886377 -0.1503183
vn -0.1160267 -0.9594285 -0.2569723
vn 0 -0.9652434 -0.2613528
vn 0 -0.9484246 -0.3170027
vn 0.1035853 -0.9831901 -0.150358
vn 0.1978361 -0.9689786 -0.1481259
vn 0.2546669 -0.9535373 -0.1609697
vn 0.1160271 -0.9594284 -0.2569723
vn 0.1473912 -0.9376082 -0.3149074
vn 0.2300476 -0.9383278 -0.2581066
vn 0.3041801 -0.9101806 -0.2811508
vn 0.2877162 -0.9024861 -0.3205279
vn 0.3458428 -0.8794729 -0.3269866
vn 0.1551624 -0.9820029 0.1076806
vn 0.2282873 -0.9675994 0.1078709
vn 0.2294172 -0.9709489 0.06801451
vn 0.1559934 -0.9854342 0.06771558
vn 0 -0.9942322 0.1072482
vn 0.2306019 -0.9728779 -0.01820023
vn 0 -0.9977354 0.06726173
vn -0.1551609 -0.9820031 0.1076806
vn 0.1568052 -0.9874528 -0.01868492
vn 0.2299081 -0.966544 -0.1137319
vn -0.1559919 -0.9854345 0.06771555
vn -0.2282862 -0.9675997 0.1078709
vn -0.2294161 -0.9709492 0.0680145
vn 0 -0.9998171 -0.01912855
vn 0.156332 -0.9810554 -0.1144144
vn 0.2287201 -0.9597786 -0.1628259
vn 0.1554623 -0.974195 -0.1636325
vn -0.1568037 -0.987453 -0.01868492
vn -0.2306008 -0.9728782 -0.01820024
vn 0 -0.9933842 -0.1148385
vn 0 -0.9864483 -0.1640723
vn -0.1563304 -0.9810556 -0.1144144
vn -0.2299069 -0.9665443 -0.1137319
vn -0.1554608 -0.9741952 -0.1636326
vn -0.2287187 -0.9597788 -0.1628259
g Red_Color_Cloth_04_0
f 3/3/3 2/2/2 1/1/1
f 4/4/4 3/3/3 1/1/1
f 4/4/4 1/1/1 5/5/5
f 6/6/6 3/3/3 4/4/4
f 7/7/7 4/4/4 5/5/5
f 7/7/7 5/5/5 8/8/8
f 9/9/9 7/7/7 8/8/8
f 10/10/10 6/6/6 4/4/4
f 10/10/10 4/4/4 7/7/7
f 11/11/11 6/6/6 10/10/10
f 12/12/12 7/7/7 9/9/9
f 12/12/12 10/10/10 7/7/7
f 13/13/13 12/12/12 9/9/9
f 14/14/14 11/11/11 10/10/10
f 14/14/14 10/10/10 12/12/12
f 15/15/15 11/11/11 14/14/14
f 16/16/16 12/12/12 13/13/13
f 16/16/16 14/14/14 12/12/12
f 17/17/17 16/16/16 13/13/13
f 18/18/18 15/15/15 14/14/14
f 18/18/18 14/14/14 16/16/16
f 19/19/19 16/16/16 17/17/17
f 19/19/19 18/18/18 16/16/16
f 20/20/20 19/19/19 17/17/17
f 21/21/21 15/15/15 18/18/18
f 21/21/21 18/18/18 19/19/19
f 22/22/22 15/15/15 21/21/21
f 23/23/23 21/21/21 19/19/19
f 23/23/23 19/19/19 20/20/20
f 24/24/24 23/23/23 20/20/20
f 27/27/27 26/26/26 25/25/25
f 28/28/28 26/26/26 27/27/27
f 29/29/29 28/28/28 27/27/27
f 28/28/28 30/30/30 26/26/26
f 31/31/31 28/28/28 29/29/29
f 32/32/32 31/31/31 29/29/29
f 33/33/33 32/32/32 29/29/29
f 34/34/34 32/32/32 33/33/33
f 35/35/35 34/34/34 33/33/33
f 36/36/36 34/34/34 35/35/35
f 37/37/37 36/36/36 35/35/35
f 38/38/38 36/36/36 37/37/37
f 39/39/39 38/38/38 37/37/37
f 38/38/38 40/40/40 36/36/36
f 40/40/40 41/41/41 36/36/36
f 36/36/36 41/41/41 34/34/34
f 40/40/40 42/42/42 41/41/41
f 34/34/34 43/43/43 32/32/32
f 41/41/41 43/43/43 34/34/34
f 42/42/42 44/44/44 41/41/41
f 41/41/41 44/44/44 43/43/43
f 42/42/42 45/45/45 44/44/44
f 32/32/32 46/46/46 31/31/31
f 43/43/43 46/46/46 32/32/32
f 44/44/44 47/47/47 43/43/43
f 43/43/43 47/47/47 46/46/46
f 45/45/45 48/48/48 44/44/44
f 44/44/44 48/48/48 47/47/47
f 46/46/46 49/49/49 31/31/31
f 31/31/31 49/49/49 28/28/28
f 45/45/45 50/50/50 48/48/48
f 51/51/51 50/50/50 45/45/45
f 47/47/47 52/52/52 46/46/46
f 46/46/46 52/52/52 49/49/49
f 48/48/48 53/53/53 47/47/47
f 48/48/48 50/50/50 53/53/53
f 47/47/47 53/53/53 52/52/52
f 49/49/49 54/54/54 28/28/28
f 54/54/54 30/30/30 28/28/28
f 51/51/51 55/55/55 50/50/50
f 56/56/56 55/55/55 51/51/51
f 55/55/55 57/57/57 50/50/50
f 52/52/52 58/58/58 49/49/49
f 49/49/49 58/58/58 54/54/54
f 54/54/54 59/59/59 30/30/30
f 58/58/58 59/59/59 54/54/54
f 59/59/59 60/60/60 30/30/30
f 53/53/53 61/61/61 52/52/52
f 52/52/52 61/61/61 58/58/58
f 50/50/50 62/62/62 53/53/53
f 50/50/50 57/57/57 62/62/62
f 53/53/53 62/62/62 61/61/61
f 62/62/62 57/57/57 63/63/63
f 62/62/62 63/63/63 61/61/61
f 57/57/57 64/64/64 63/63/63
f 61/61/61 65/65/65 58/58/58
f 58/58/58 65/65/65 59/59/59
f 61/61/61 63/63/63 65/65/65
f 59/59/59 66/66/66 60/60/60
f 65/65/65 66/66/66 59/59/59
f 66/66/66 67/67/67 60/60/60
f 63/63/63 64/64/64 68/68/68
f 63/63/63 68/68/68 65/65/65
f 65/65/65 68/68/68 66/66/66
f 64/64/64 69/69/69 68/68/68
f 66/66/66 70/70/70 67/67/67
f 68/68/68 70/70/70 66/66/66
f 68/68/68 69/69/69 70/70/70
f 70/70/70 71/71/71 67/67/67
f 69/69/69 72/72/72 70/70/70
f 70/70/70 72/72/72 71/71/71
f 72/72/72 73/73/73 71/71/71
f 76/76/76 75/75/75 74/74/74
f 77/77/77 76/76/76 74/74/74
f 77/77/77 74/74/74 78/78/78
f 79/79/79 76/76/76 77/77/77
f 80/80/80 77/77/77 78/78/78
f 80/80/80 78/78/78 81/81/81
f 82/82/82 79/79/79 77/77/77
f 82/82/82 77/77/77 80/80/80
f 83/83/83 79/79/79 82/82/82
f 84/84/84 80/80/80 81/81/81
f 84/84/84 81/81/81 85/85/85
f 86/86/86 84/84/84 85/85/85
f 87/87/87 82/82/82 80/80/80
f 87/87/87 80/80/80 84/84/84
f 88/88/88 83/83/83 82/82/82
f 88/88/88 82/82/82 87/87/87
f 89/89/89 83/83/83 88/88/88
f 90/90/90 89/89/89 88/88/88
f 91/91/91 84/84/84 86/86/86
f 91/91/91 87/87/87 84/84/84
f 92/92/92 91/91/91 86/86/86
f 93/93/93 88/88/88 87/87/87
f 90/90/90 88/88/88 93/93/93
f 93/93/93 87/87/87 91/91/91
f 94/94/94 90/90/90 93/93/93
f 95/95/95 91/91/91 92/92/92
f 95/95/95 93/93/93 91/91/91
f 94/94/94 93/93/93 95/95/95
f 96/96/96 95/95/95 92/92/92
f 97/97/97 94/94/94 95/95/95
f 97/97/97 95/95/95 96/96/96
f 98/98/98 97/97/97 96/96/96
