g SailsMDL_01
v 0.4542698 -9.677643 7.237643
v 0.2932991 -8.762333 8.210463
v 2.225096 -11.01663 8.145948
v 0.6152395 -10.59295 6.264823
v 0.4542698 -9.677643 7.237643
v 2.225096 -11.01663 8.145948
v 1.644732 3.923347 7.449443
v 1.693466 4.462235 8.424106
v 2.820674 2.938795 8.633493
v 1.598926 3.416823 6.533315
v 1.644732 3.923347 7.449443
v 2.820674 2.938795 8.633493
v 0.7524594 4.800565 6.354285
v 1.644732 3.923347 7.449443
v 0.7276314 3.712562 3.649476
v 0.05658758 5.011352 3.519723
v -0.2546364 6.327321 3.410779
v -0.1656476 5.069621 -6.400002E-16
v 0.3448294 3.835943 -5.774848E-16
v -0.2664033 6.319833 -6.523392E-16
v -0.1121966 7.561963 -6.334543E-16
v 0.05658758 5.01135 -3.519723
v 0.7276314 3.712562 -3.649476
v -0.1863757 7.606483 -3.334326
v 0.2146853 8.80127 -3.299754
v -0.2546364 6.327321 -3.410779
v 0.7524594 4.800565 -6.354285
v 1.598926 3.416823 -6.533315
v 0.6373395 8.762797 -5.937323
v 1.287564 9.892026 -5.892022
v 0.2762583 7.518441 -6.03638
v 0.2993306 6.184529 -6.180182
v 1.693466 4.462234 -8.424106
v 2.820674 2.938794 -8.633493
v 1.108832 5.948491 -8.226362
v 0.9919676 7.364779 -8.034109
v 1.298025 8.685147 -7.858571
v 1.930309 9.899529 -7.701255
v 2.040723 10.44604 -6.715369
v 2.782979 11.01663 -7.552601
v 2.668726 1.965761 -8.624695
v 1.583446 1.783347 -6.48171
v 1.277932 0.9613059 -7.430984
v 0.01832664 0.006569624 -6.313418
v 0.8331474 1.743542 -3.56008
v -0.6095086 0.02602267 -3.439637
v -1.750987 -1.888249 -3.370882
v -0.7842227 0.05105567 -1E-06
v 0.6709198 1.762382 -5.375503E-16
v -1.905145 -1.85617 -8.530273E-16
v -2.645564 -3.925089 -9.437025E-16
v -0.6095086 0.02602267 3.439637
v 0.8331474 1.743544 3.560079
v -1.750987 -1.888247 3.37088
v -2.453984 -3.96326 3.35271
v -2.559964 -6.128621 3.378457
v 0.01832759 0.00656867 6.313419
v 1.583447 1.783349 6.48171
v -1.165719 -1.948736 6.209074
v 0.9433917 0.06116652 8.470442
v 2.668726 1.965761 8.624695
v -0.2972013 -1.988256 8.359488
v -0.9119974 -4.176199 8.293556
v -1.823381 -4.057522 6.169356
v -0.7495657 -6.457843 8.254881
v -1.79991 -6.258435 6.181633
v -0.9885656 -8.465734 6.222678
v 0.2932991 -8.762333 8.210463
v 0.4542698 -9.677643 7.237643
v 0.2932991 -8.762333 -8.210462
v 0.6152395 -10.59295 -6.264821
v 2.225096 -11.01663 -8.145947
v -0.9885656 -8.465734 -6.222679
v -0.6218516 -10.35483 -3.515945
v -0.7495657 -6.457842 -8.254884
v -1.951357 -8.290545 -3.437083
v -1.094481 -10.28225 -7.537494E-16
v -1.79991 -6.258435 -6.181634
v -0.9119974 -4.176199 -8.293556
v -2.304816 -8.233916 -1E-06
v -0.6218516 -10.35483 3.515944
v -1.823381 -4.057522 -6.169357
v -0.2972013 -1.988255 -8.359488
v -2.559964 -6.128621 -3.378456
v -1.951358 -8.290545 3.437081
v -2.820674 -6.082899 -1E-06
v -2.453984 -3.96326 -3.352712
v -1.165719 -1.948735 -6.209075
v -0.9885656 -8.465734 6.222678
v 0.6152395 -10.59295 6.264823
v 0.4542698 -9.677643 7.237643
v -2.559964 -6.128621 3.378457
v -2.645564 -3.925089 -9.437025E-16
v -1.750987 -1.888249 -3.370882
v 0.01832664 0.006569624 -6.313418
v 0.9433926 0.06116652 -8.470442
v 1.277932 0.9613059 -7.430984
v 2.668726 1.965761 -8.624695
v 2.782979 11.01663 -7.552601
v 2.130751 10.89164 -5.911518
v 2.040723 10.44604 -6.715369
v 1.287564 9.892026 -5.892022
v 1.674389 10.82294 -3.378492
v 0.8649944 9.878722 -3.313425
v 0.2146853 8.80127 -3.299754
v 0.8576893 9.770091 -5.146776E-16
v 1.659078 10.67952 -4.165358E-16
v 0.2317404 8.72495 -5.913342E-16
v -0.1121966 7.561963 -6.334543E-16
v 0.8649944 9.878724 3.313424
v 1.674389 10.82294 3.378491
v 0.2146853 8.80127 3.299754
v -0.1863757 7.606483 3.334326
v -0.2546364 6.327321 3.410779
v 1.287564 9.892026 5.892022
v 2.130751 10.89164 5.911518
v 0.6373395 8.762797 5.937323
v 1.930309 9.899529 7.701255
v 2.782979 11.01663 7.5526
v 1.298025 8.685147 7.858571
v 0.9919676 7.364779 8.03411
v 0.2762583 7.518441 6.03638
v 1.108832 5.948491 8.226362
v 0.2993306 6.184529 6.180182
v 0.7524594 4.800565 6.354285
v 1.693466 4.462235 8.424106
v 1.644732 3.923347 7.449443
vt 0.1062705 0.05018905
vt 0.1102189 0.05372338
vt 0.1115286 0.04733751
vt 0.08737683 0.6348248
vt 0.09037447 0.6376893
vt 0.09250194 0.6329423
vt 0.106938 0.06001556
vt 0.1100587 0.06359595
vt 0.1133963 0.05993116
vt 0.08653927 0.6476693
vt 0.08910066 0.6495183
vt 0.0926767 0.6464714
vt 0.08573645 0.652155
vt 0.08910066 0.6495183
vt 0.07796878 0.6478893
vt 0.07728726 0.652063
vt 0.07653272 0.6561496
vt 0.06664795 0.6510687
vt 0.06696641 0.6471118
vt 0.06617558 0.6549088
vt 0.06561494 0.6586202
vt 0.05589637 0.6495391
vt 0.05578932 0.6452723
vt 0.05549139 0.6575903
vt 0.05496636 0.6610698
vt 0.05580392 0.6537038
vt 0.04711866 0.6475984
vt 0.0468334 0.6429843
vt 0.0468154 0.6598347
vt 0.04626009 0.6630171
vt 0.04715025 0.6561654
vt 0.04724759 0.6520511
vt 0.04062864 0.6454445
vt 0.04020715 0.6402804
vt 0.04083496 0.65027
vt 0.04088506 0.6546902
vt 0.04077142 0.6586405
vt 0.04052836 0.6621291
vt 0.04326224 0.6640982
vt 0.04021943 0.6652291
vt 0.03605402 0.1016076
vt 0.04479325 0.09921315
vt 0.04065827 0.09535882
vt 0.0449964 0.0895136
vt 0.05708495 0.09791306
vt 0.05713806 0.08864319
vt 0.05718154 0.07901633
vt 0.07200307 0.08848026
vt 0.07248273 0.09774336
vt 0.0717577 0.07891363
vt 0.07176611 0.06925461
vt 0.08708048 0.08863872
vt 0.08807582 0.09790847
vt 0.08652544 0.07901201
vt 0.08647764 0.06938437
vt 0.08698481 0.060286
vt 0.09995538 0.08950537
vt 0.1012173 0.09920475
vt 0.09922957 0.07964498
vt 0.1098666 0.09112734
vt 0.111133 0.1015964
vt 0.1090991 0.08079293
vt 0.1089182 0.07083251
vt 0.09912127 0.06994642
vt 0.1093245 0.0616598
vt 0.09965205 0.06089696
vt 0.1007644 0.05301177
vt 0.1102189 0.05372338
vt 0.1062705 0.05018905
vt 0.04312736 0.6405488
vt 0.04903859 0.6348209
vt 0.04265195 0.6329374
vt 0.04971382 0.6419238
vt 0.05793861 0.6360008
vt 0.04330221 0.6479915
vt 0.05861819 0.6428112
vt 0.06888437 0.6363959
vt 0.0500612 0.6489846
vt 0.04313958 0.6550445
vt 0.06927526 0.6431141
vt 0.07945478 0.6360029
vt 0.05000222 0.6557397
vt 0.0425837 0.6615283
vt 0.05893958 0.6496592
vt 0.07965177 0.6428133
vt 0.06938022 0.6498951
vt 0.05887109 0.6562585
vt 0.04951298 0.6619653
vt 0.08779413 0.6419277
vt 0.08737683 0.6348248
vt 0.09037447 0.6376893
vt 0.0796144 0.6496613
vt 0.0692054 0.656446
vt 0.05843112 0.662364
vt 0.04862049 0.6675293
vt 0.04164362 0.6673601
vt 0.0446454 0.6699983
vt 0.04038185 0.6725723
vt 0.03418639 0.06654185
vt 0.04108335 0.06745243
vt 0.03851014 0.06441456
vt 0.04275019 0.06231207
vt 0.05154327 0.07022113
vt 0.05330819 0.06541407
vt 0.0550814 0.06028068
vt 0.06703609 0.06991804
vt 0.06559315 0.07467651
vt 0.06870204 0.06492674
vt 0.07056496 0.05994302
vt 0.08041471 0.07527286
vt 0.07918215 0.08027345
vt 0.08207613 0.07009876
vt 0.08413017 0.06495297
vt 0.08649987 0.06008661
vt 0.0909518 0.07984322
vt 0.08944452 0.08504158
vt 0.09293771 0.07455993
vt 0.0983569 0.08360302
vt 0.0959729 0.08901393
vt 0.1009385 0.07819134
vt 0.1037737 0.07293081
vt 0.09533632 0.06938601
vt 0.1068426 0.06801414
vt 0.09807205 0.06455916
vt 0.1010234 0.06028247
vt 0.1100587 0.06359595
vt 0.106938 0.06001556
vn -0.674095 -0.5903631 0.4439225
vn -0.7500609 -0.496315 0.4371269
vn -0.6740949 -0.590363 0.443923
vn -0.727334 -0.573669 0.376682
vn -0.674095 -0.5903631 0.4439225
vn -0.6740949 -0.590363 0.443923
vn -0.779403 -0.5309824 0.3325486
vn -0.8351735 -0.4362537 0.3349148
vn -0.7794033 -0.5309823 0.3325481
vn -0.825226 -0.493741 0.274266
vn -0.779403 -0.5309824 0.3325486
vn -0.7794033 -0.5309823 0.3325481
vn -0.8924349 -0.36681 0.262698
vn -0.8303643 -0.4690292 0.3008434
vn -0.8877108 -0.4394589 0.137279
vn -0.9409973 -0.3161061 0.120835
vn -0.992582 -0.068157 0.100676
vn -0.9574299 -0.288666 0
vn -0.9075143 -0.4200211 0
vn -0.9993801 -0.035204 0
vn -0.9808244 0.1948941 0
vn -0.9409973 -0.3161061 -0.120835
vn -0.8877108 -0.4394589 -0.137279
vn -0.9797579 0.183992 -0.078876
vn -0.9101759 0.4088179 -0.06669099
vn -0.992582 -0.068157 -0.100676
vn -0.8924349 -0.36681 -0.262698
vn -0.825226 -0.493741 -0.274266
vn -0.8889508 0.3933219 -0.2346579
vn -0.801019 0.5624049 -0.205108
vn -0.9536884 0.1535469 -0.2586538
vn -0.9562026 -0.117849 -0.2679329
vn -0.8351735 -0.4362537 -0.3349148
vn -0.7794033 -0.5309823 -0.3325481
vn -0.9199169 -0.173474 -0.351653
vn -0.9301211 0.119724 -0.34719
vn -0.8717477 0.3732879 -0.3173519
vn -0.7905653 0.5472742 -0.2747681
vn -0.7525654 0.6080646 -0.2527896
vn -0.7525657 0.6080648 -0.2527889
vn -0.7169801 0.6243941 -0.309954
vn -0.733828 0.629142 -0.256275
vn -0.7169797 0.6243948 -0.3099537
vn -0.7918605 0.5565057 -0.2515118
vn -0.7604658 0.6391668 -0.114706
vn -0.8132519 0.571228 -0.110995
vn -0.9033348 0.4108199 -0.123342
vn -0.8162234 0.5777364 0
vn -0.7644811 0.6446461 0
vn -0.9074064 0.4202542 0
vn -0.9800403 0.1987991 0
vn -0.8132519 0.571228 0.110996
vn -0.7604658 0.6391668 0.114706
vn -0.9033348 0.4108199 0.123342
vn -0.9731302 0.180768 0.14262
vn -0.9797223 -0.113202 0.1653161
vn -0.7918605 0.5565057 0.2515118
vn -0.733828 0.629142 0.256275
vn -0.8802202 0.3836801 0.2792881
vn -0.7628167 0.5628508 0.3182918
vn -0.7169801 0.6243941 0.309954
vn -0.8534163 0.3781921 0.3586801
vn -0.9079825 0.1091261 0.4045482
vn -0.939613 0.136348 0.313905
vn -0.8764361 -0.209205 0.433697
vn -0.929098 -0.154167 0.336169
vn -0.8311079 -0.433883 0.347858
vn -0.7500609 -0.496315 0.4371269
vn -0.7376714 -0.5483593 0.3938818
vn -0.7500609 -0.496315 -0.4371269
vn -0.727334 -0.573669 -0.376682
vn -0.6740949 -0.590363 -0.443923
vn -0.8311079 -0.433883 -0.347858
vn -0.8216884 -0.5359772 -0.1937951
vn -0.8764361 -0.209205 -0.433697
vn -0.9013516 -0.3964998 -0.1742219
vn -0.8516092 -0.5241771 0
vn -0.929098 -0.154167 -0.336169
vn -0.9079825 0.1091261 -0.4045482
vn -0.921958 -0.38729 0
vn -0.8216881 -0.5359781 0.193794
vn -0.939613 0.136348 -0.313905
vn -0.8534163 0.3781921 -0.3586801
vn -0.9797223 -0.113202 -0.1653161
vn -0.9013516 -0.3964998 0.1742219
vn -0.9957494 -0.09210403 0
vn -0.9731302 0.180768 -0.14262
vn -0.8802199 0.383681 -0.279288
vn -0.8311079 -0.433883 0.347858
vn -0.727334 -0.573669 0.376682
vn -0.7376714 -0.5483593 0.3938818
vn -0.9797223 -0.113202 0.1653161
vn -0.9800403 0.1987991 0
vn -0.9033348 0.4108199 -0.123342
vn -0.7918605 0.5565057 -0.2515118
vn -0.7628163 0.5628512 -0.3182921
vn -0.7169797 0.6243948 -0.3099537
vn -0.7169801 0.6243941 -0.309954
vn -0.7525657 0.6080648 -0.2527889
vn -0.7534658 0.6267678 -0.1986239
vn -0.7525654 0.6080646 -0.2527896
vn -0.801019 0.5624049 -0.205108
vn -0.7584516 0.6493727 -0.05537398
vn -0.8115537 0.5816468 -0.05538598
vn -0.9101759 0.4088179 -0.06669099
vn -0.8096883 0.5868602 0
vn -0.7544391 0.65637 0
vn -0.9121933 0.4097601 0
vn -0.9808244 0.1948941 0
vn -0.8115537 0.5816468 0.05538598
vn -0.7584512 0.6493732 0.05537402
vn -0.9101759 0.4088179 0.06669099
vn -0.9797579 0.183992 0.078876
vn -0.992582 -0.068157 0.100676
vn -0.801019 0.5624049 0.205108
vn -0.7534658 0.6267678 0.1986239
vn -0.8889508 0.3933219 0.2346579
vn -0.7905653 0.5472742 0.2747681
vn -0.7525657 0.6080648 0.2527889
vn -0.8717477 0.3732879 0.3173519
vn -0.9301211 0.119724 0.34719
vn -0.9536884 0.1535469 0.2586538
vn -0.9199169 -0.173474 0.351653
vn -0.9562026 -0.117849 0.2679329
vn -0.8924349 -0.36681 0.262698
vn -0.8351735 -0.4362537 0.3349148
vn -0.8303643 -0.4690292 0.3008434
g SailsMDL_01_0
f 3/3/3 2/2/2 1/1/1
f 6/6/6 5/5/5 4/4/4
f 9/9/9 8/8/8 7/7/7
f 12/12/12 11/11/11 10/10/10
f 10/10/10 14/14/14 13/13/13
f 10/10/10 13/13/13 15/15/15
f 15/15/15 13/13/13 16/16/16
f 16/16/16 13/13/13 17/17/17
f 15/15/15 16/16/16 18/18/18
f 19/19/19 15/15/15 18/18/18
f 16/16/16 17/17/17 20/20/20
f 18/18/18 16/16/16 20/20/20
f 20/20/20 17/17/17 21/21/21
f 19/19/19 18/18/18 22/22/22
f 23/23/23 19/19/19 22/22/22
f 20/20/20 21/21/21 24/24/24
f 24/24/24 21/21/21 25/25/25
f 18/18/18 20/20/20 26/26/26
f 22/22/22 18/18/18 26/26/26
f 26/26/26 20/20/20 24/24/24
f 23/23/23 22/22/22 27/27/27
f 28/28/28 23/23/23 27/27/27
f 24/24/24 25/25/25 29/29/29
f 29/29/29 25/25/25 30/30/30
f 26/26/26 24/24/24 31/31/31
f 31/31/31 24/24/24 29/29/29
f 22/22/22 26/26/26 32/32/32
f 27/27/27 22/22/22 32/32/32
f 32/32/32 26/26/26 31/31/31
f 27/27/27 33/33/33 28/28/28
f 34/34/34 28/28/28 33/33/33
f 33/33/33 27/27/27 35/35/35
f 32/32/32 35/35/35 27/27/27
f 35/35/35 32/32/32 36/36/36
f 32/32/32 31/31/31 36/36/36
f 36/36/36 31/31/31 37/37/37
f 31/31/31 29/29/29 37/37/37
f 29/29/29 30/30/30 37/37/37
f 37/37/37 30/30/30 38/38/38
f 30/30/30 39/39/39 38/38/38
f 38/38/38 39/39/39 40/40/40
f 43/43/43 42/42/42 41/41/41
f 44/44/44 42/42/42 43/43/43
f 44/44/44 45/45/45 42/42/42
f 46/46/46 45/45/45 44/44/44
f 47/47/47 46/46/46 44/44/44
f 46/46/46 48/48/48 45/45/45
f 48/48/48 49/49/49 45/45/45
f 47/47/47 50/50/50 46/46/46
f 50/50/50 48/48/48 46/46/46
f 51/51/51 50/50/50 47/47/47
f 48/48/48 52/52/52 49/49/49
f 52/52/52 53/53/53 49/49/49
f 50/50/50 54/54/54 48/48/48
f 54/54/54 52/52/52 48/48/48
f 51/51/51 55/55/55 50/50/50
f 55/55/55 54/54/54 50/50/50
f 56/56/56 55/55/55 51/51/51
f 52/52/52 57/57/57 53/53/53
f 57/57/57 58/58/58 53/53/53
f 54/54/54 59/59/59 52/52/52
f 59/59/59 57/57/57 52/52/52
f 57/57/57 60/60/60 58/58/58
f 60/60/60 61/61/61 58/58/58
f 60/60/60 57/57/57 62/62/62
f 59/59/59 62/62/62 57/57/57
f 63/63/63 62/62/62 59/59/59
f 64/64/64 59/59/59 54/54/54
f 64/64/64 63/63/63 59/59/59
f 55/55/55 64/64/64 54/54/54
f 65/65/65 63/63/63 64/64/64
f 56/56/56 66/66/66 55/55/55
f 66/66/66 64/64/64 55/55/55
f 66/66/66 65/65/65 64/64/64
f 67/67/67 66/66/66 56/56/56
f 67/67/67 65/65/65 66/66/66
f 68/68/68 65/65/65 67/67/67
f 69/69/69 68/68/68 67/67/67
f 72/72/72 71/71/71 70/70/70
f 73/73/73 70/70/70 71/71/71
f 71/71/71 74/74/74 73/73/73
f 70/70/70 73/73/73 75/75/75
f 76/76/76 73/73/73 74/74/74
f 74/74/74 77/77/77 76/76/76
f 78/78/78 75/75/75 73/73/73
f 73/73/73 76/76/76 78/78/78
f 75/75/75 78/78/78 79/79/79
f 77/77/77 80/80/80 76/76/76
f 77/77/77 81/81/81 80/80/80
f 78/78/78 82/82/82 79/79/79
f 79/79/79 82/82/82 83/83/83
f 76/76/76 84/84/84 78/78/78
f 76/76/76 80/80/80 84/84/84
f 78/78/78 84/84/84 82/82/82
f 81/81/81 85/85/85 80/80/80
f 80/80/80 86/86/86 84/84/84
f 80/80/80 85/85/85 86/86/86
f 84/84/84 87/87/87 82/82/82
f 84/84/84 86/86/86 87/87/87
f 82/82/82 88/88/88 83/83/83
f 82/82/82 87/87/87 88/88/88
f 81/81/81 89/89/89 85/85/85
f 90/90/90 89/89/89 81/81/81
f 90/90/90 91/91/91 89/89/89
f 85/85/85 89/89/89 92/92/92
f 85/85/85 92/92/92 86/86/86
f 86/86/86 92/92/92 93/93/93
f 86/86/86 93/93/93 87/87/87
f 87/87/87 93/93/93 94/94/94
f 87/87/87 94/94/94 88/88/88
f 88/88/88 94/94/94 95/95/95
f 88/88/88 95/95/95 83/83/83
f 83/83/83 95/95/95 96/96/96
f 95/95/95 97/97/97 96/96/96
f 96/96/96 97/97/97 98/98/98
f 101/101/101 100/100/100 99/99/99
f 102/102/102 100/100/100 101/101/101
f 102/102/102 103/103/103 100/100/100
f 104/104/104 103/103/103 102/102/102
f 105/105/105 104/104/104 102/102/102
f 104/104/104 106/106/106 103/103/103
f 106/106/106 107/107/107 103/103/103
f 105/105/105 108/108/108 104/104/104
f 108/108/108 106/106/106 104/104/104
f 109/109/109 108/108/108 105/105/105
f 106/106/106 110/110/110 107/107/107
f 110/110/110 111/111/111 107/107/107
f 108/108/108 112/112/112 106/106/106
f 112/112/112 110/110/110 106/106/106
f 109/109/109 113/113/113 108/108/108
f 113/113/113 112/112/112 108/108/108
f 114/114/114 113/113/113 109/109/109
f 110/110/110 115/115/115 111/111/111
f 116/116/116 111/111/111 115/115/115
f 112/112/112 117/117/117 110/110/110
f 117/117/117 115/115/115 110/110/110
f 115/115/115 118/118/118 116/116/116
f 119/119/119 116/116/116 118/118/118
f 118/118/118 115/115/115 120/120/120
f 117/117/117 120/120/120 115/115/115
f 121/121/121 120/120/120 117/117/117
f 122/122/122 117/117/117 112/112/112
f 122/122/122 121/121/121 117/117/117
f 113/113/113 122/122/122 112/112/112
f 123/123/123 121/121/121 122/122/122
f 114/114/114 124/124/124 113/113/113
f 124/124/124 122/122/122 113/113/113
f 124/124/124 123/123/123 122/122/122
f 125/125/125 124/124/124 114/114/114
f 125/125/125 123/123/123 124/124/124
f 126/126/126 123/123/123 125/125/125
f 127/127/127 126/126/126 125/125/125
