g SailsMDL_02
v -0.866334 -0.504715 -8.960043
v -1.881835 -0.4715672 -6.67184
v -1.950597 -1.077724 -7.681875
v -1.881835 -0.4715672 -6.67184
v -2.988639 -1.621872 -6.471414
v -2.721937 -0.3300481 -3.621144
v -3.785286 -1.457056 -3.48923
v -4.661818 -2.725766 -3.406119
v -4.106874 -1.301851 3.305109E-15
v -3.063607 -0.1709814 4.199452E-15
v -4.981287 -2.591889 2.555516E-15
v -5.57008 -4.030464 2.050771E-15
v -3.785286 -1.457055 3.48923
v -2.721937 -0.3300481 3.621144
v -4.661818 -2.725766 3.406119
v -5.1621 -4.1267 3.3728
v -5.243349 -5.619988 3.382895
v -2.988639 -1.621872 6.471415
v -1.881835 -0.4715672 6.67184
v -3.787229 -2.905262 6.329634
v -2.022293 -1.709743 8.735001
v -0.866334 -0.5047159 8.960043
v -2.790439 -3.044625 8.559971
v -3.165548 -4.509123 8.433433
v -4.216384 -4.320862 6.252639
v -3.060575 -6.077749 8.335909
v -4.201324 -5.834958 6.228259
v -3.701754 -7.391782 6.232442
v -2.436807 -7.702145 8.232497
v -2.609016 -8.362792 7.220309
v -2.609016 -8.362792 7.220309
v -2.436807 -7.702145 8.232497
v -1.331187 -9.391532 8.145947
v -0.866334 -0.504715 -8.960043
v -1.950597 -1.077724 -7.681875
v -2.022292 -1.709743 -8.735001
v -2.022292 -1.709743 -8.735001
v -2.988639 -1.621872 -6.471414
v -2.790439 -3.044625 -8.559971
v -3.787229 -2.905262 -6.329634
v -4.661818 -2.725766 -3.406119
v -4.216384 -4.320862 -6.252639
v -3.165548 -4.509123 -8.433433
v -5.1621 -4.1267 -3.3728
v -5.57008 -4.030464 2.050771E-15
v -4.201324 -5.834959 -6.228259
v -3.060575 -6.077749 -8.335909
v -5.771652 -5.561466 1.877973E-15
v -5.243349 -5.619988 3.382895
v -5.243349 -5.619988 -3.382894
v -3.701754 -7.391782 -6.232441
v -2.436807 -7.702146 -8.232497
v -4.87644 -7.192686 3.437083
v -3.701754 -7.391782 6.232442
v -4.87644 -7.192686 -3.437082
v -5.50913 -7.121562 2.10302E-15
v -2.77158 -8.986432 -6.264822
v -1.331187 -9.391531 -8.145947
v -4.102334 -8.729628 -3.515946
v -4.822167 -8.640884 2.691921E-15
v -4.102334 -8.729628 3.515946
v -2.77158 -8.986431 6.264822
v -2.609016 -8.362792 7.220309
v -2.609016 -8.362792 7.220309
v -1.331187 -9.391532 8.145947
v -0.8433781 6.260871 -7.552601
v -1.495607 6.163604 -5.911518
v -1.58572 5.816487 -6.71613
v -1.980932 0.7465181 7.463298
v -1.932893 1.159944 8.424106
v -0.8056831 -0.02566719 8.633493
v -2.027431 0.3463564 6.533315
v -1.980932 0.7465181 7.463298
v -0.8056831 -0.02566719 8.633493
v -2.873899 1.423247 6.354285
v -1.980932 0.7465181 7.463298
v -2.898726 0.5765123 3.649476
v -3.569771 1.587291 3.519723
v -3.880995 2.61144 3.410779
v -3.792006 1.632639 3.57503E-15
v -3.281528 0.672534 4.012639E-15
v -3.892761 2.605611 3.488657E-15
v -3.738555 3.572294 3.620851E-15
v -3.569771 1.587291 -3.519723
v -2.898726 0.5765142 -3.649476
v -3.812734 3.606941 -3.334326
v -3.411673 4.53678 -3.299754
v -3.880995 2.611438 -3.410779
v -2.873899 1.423247 -6.354285
v -2.027431 0.3463545 -6.533315
v -2.989018 4.506839 -5.937323
v -2.338795 5.385655 -5.892022
v -3.3501 3.538423 -6.03638
v -3.327027 2.500311 -6.180182
v -1.932893 1.159944 -8.424106
v -0.8056831 -0.02566719 -8.633493
v -2.517527 2.316617 -8.226362
v -2.634391 3.418838 -8.034109
v -2.328334 4.446406 -7.858571
v -1.696049 5.391494 -7.701255
v -1.58572 5.816487 -6.71613
v -0.8433781 6.260871 -7.552601
v -2.873899 1.423247 6.354285
v -1.932893 1.159944 8.424106
v -1.980932 0.7465181 7.463298
v -2.517527 2.316617 8.226362
v -3.327027 2.500311 6.180182
v -3.880995 2.61144 3.410779
v -3.3501 3.538423 6.03638
v -2.634392 3.418838 8.03411
v -3.812734 3.606941 3.334326
v -3.738555 3.572294 3.620851E-15
v -2.989018 4.506839 5.937323
v -2.328334 4.446406 7.858571
v -3.394618 4.477384 3.915692E-15
v -3.411673 4.53678 -3.299754
v -3.411673 4.53678 3.299754
v -2.338795 5.385655 5.892022
v -1.696049 5.391494 7.701255
v -2.761364 5.375302 -3.313425
v -2.338795 5.385655 -5.892022
v -2.768668 5.290759 4.452289E-15
v -2.761364 5.375302 3.313424
v -1.495607 6.163604 5.911518
v -0.8433781 6.260871 7.5526
v -1.951968 6.110135 3.378491
v -1.96728 5.998523 5.139281E-15
v -1.951968 6.110135 -3.378492
v -1.495607 6.163604 -5.911518
v -1.58572 5.816487 -6.71613
v 5.771652 8.903579 -0.301973
v 5.267147 8.491296 -0.515031
v 4.170401 8.946219 -0.731814
v 4.322906 8.293582 -0.248179
v 3.409758 8.99941 0.080886
v 5.09524 8.063962 -0.025662
v 3.622257 8.338546 0.236796
v 2.70866 9.07698 0.303598
v 4.100203 7.587733 -0.249509
v 4.789976 7.64553 0.240263
v 3.32394 7.659474 0.577456
v 2.970848 8.369117 0.45256
v 1.946554 9.172963 0.166567
v 2.6772 7.631371 0.731814
v 2.333561 8.379317 0.286332
v 1.687628 8.619416 -0.122237
v 0.1796665 9.391532 -0.141482
v 1.905258 8.122664 -0.088645
v 0.4302998 7.416709 -0.117262
vt 0.03716724 0.09522028
vt 0.04719789 0.09522028
vt 0.04228731 0.0927882
vt 0.04719789 0.09522028
vt 0.04719789 0.09025235
vt 0.05722859 0.09522028
vt 0.05722859 0.09025235
vt 0.05722859 0.08528434
vt 0.06725925 0.09025235
vt 0.06725925 0.09522028
vt 0.06725925 0.08528434
vt 0.06725925 0.08031643
vt 0.07728988 0.09025235
vt 0.07728988 0.09522028
vt 0.07728988 0.08528434
vt 0.07728988 0.08031643
vt 0.07728988 0.07534847
vt 0.08732056 0.09025235
vt 0.08732056 0.09522028
vt 0.08732056 0.08528434
vt 0.09735124 0.09025235
vt 0.09735124 0.09522028
vt 0.09735124 0.08528434
vt 0.09735124 0.08031643
vt 0.08732056 0.08031643
vt 0.09735124 0.07534847
vt 0.08732056 0.07534847
vt 0.08732056 0.07038056
vt 0.09735124 0.07038056
vt 0.09219137 0.06782504
vt 0.09219137 0.06782504
vt 0.09735124 0.07038056
vt 0.09735124 0.06541267
vt 0.02520996 0.6601764
vt 0.03315082 0.6576432
vt 0.02746478 0.6541886
vt 0.02746478 0.6541886
vt 0.04068002 0.6552424
vt 0.02914873 0.6472558
vt 0.04220065 0.6486122
vt 0.0589678 0.6501199
vt 0.04308385 0.6410346
vt 0.03026602 0.6393763
vt 0.05966559 0.642665
vt 0.07854369 0.64344
vt 0.0433346 0.6326525
vt 0.03085288 0.6306401
vt 0.07883301 0.6350911
vt 0.09703934 0.6344626
vt 0.05980095 0.6344543
vt 0.04304865 0.6237507
vt 0.03106666 0.6212921
vt 0.09718096 0.6255507
vt 0.1116546 0.6237662
vt 0.05934605 0.6255422
vt 0.07875767 0.6263098
vt 0.04227027 0.6143879
vt 0.03081217 0.611303
vt 0.05843031 0.6165897
vt 0.07834354 0.6175058
vt 0.0971334 0.6165985
vt 0.1112327 0.6144035
vt 0.1163101 0.6177585
vt 0.1163101 0.6177585
vt 0.1204818 0.6113231
vt 0.03716724 0.09522028
vt 0.04719789 0.09522028
vt 0.04268841 0.09298685
vt 0.09225414 0.06785613
vt 0.09735124 0.07038056
vt 0.09735124 0.06541267
vt 0.1088659 0.633948
vt 0.1135147 0.6368895
vt 0.1197912 0.6328556
vt 0.1074656 0.6402575
vt 0.1135147 0.6368895
vt 0.09357059 0.6333535
vt 0.09237909 0.639222
vt 0.09103972 0.6449292
vt 0.07335159 0.6366237
vt 0.07390085 0.6310332
vt 0.07250729 0.6419975
vt 0.07149276 0.6471585
vt 0.05410224 0.6332199
vt 0.05388263 0.6271302
vt 0.05338106 0.6445563
vt 0.05241865 0.6493731
vt 0.05394757 0.6391128
vt 0.03836277 0.6294218
vt 0.0378162 0.6228068
vt 0.03781307 0.6466652
vt 0.03678483 0.6510386
vt 0.03843349 0.6415551
vt 0.03861073 0.635758
vt 0.02670553 0.625563
vt 0.02590206 0.6181331
vt 0.02709809 0.6324455
vt 0.02718887 0.6386989
vt 0.02696675 0.6442351
vt 0.02649775 0.6490779
vt 0.03137892 0.6521571
vt 0.02590045 0.6533463
vt 0.08732056 0.07038056
vt 0.09735124 0.07038056
vt 0.09225414 0.06785613
vt 0.09735124 0.07534847
vt 0.08732056 0.07534847
vt 0.07728993 0.07534847
vt 0.08732056 0.08031643
vt 0.09735124 0.08031643
vt 0.07728993 0.08031643
vt 0.06725925 0.08031643
vt 0.08732056 0.08528434
vt 0.09735124 0.08528434
vt 0.06725925 0.08528434
vt 0.05722859 0.08528434
vt 0.07728993 0.08528434
vt 0.08732056 0.09025235
vt 0.09735124 0.09025235
vt 0.05722859 0.09025235
vt 0.04719789 0.09025235
vt 0.06725925 0.09025235
vt 0.07728993 0.09025235
vt 0.08732056 0.09522028
vt 0.09735124 0.09522028
vt 0.07728993 0.09522028
vt 0.06725925 0.09522028
vt 0.05722859 0.09522028
vt 0.04719789 0.09522028
vt 0.04268841 0.09298685
vt 0.06361192 0.05608078
vt 0.06137275 0.05311733
vt 0.0565135 0.05592504
vt 0.05745938 0.05001263
vt 0.05241882 0.05302756
vt 0.06118856 0.0489138
vt 0.0537406 0.04859618
vt 0.04926335 0.05288143
vt 0.05740444 0.04464483
vt 0.0609938 0.04495502
vt 0.05276221 0.04323289
vt 0.05075814 0.04796749
vt 0.04588351 0.05340602
vt 0.04718137 0.04171756
vt 0.04784884 0.04785425
vt 0.04446086 0.04950331
vt 0.03818015 0.05608903
vt 0.04534381 0.04614609
vt 0.04002641 0.03908516
vn -0.7120563 0.6223615 -0.3250261
vn -0.7120563 0.6223619 -0.3250254
vn -0.7120563 0.6223616 -0.3250258
vn -0.715296 0.6367701 -0.287881
vn -0.7715507 0.5601727 -0.3015229
vn -0.7269571 0.665095 -0.170827
vn -0.779402 0.6022469 -0.172717
vn -0.8805442 0.4321011 -0.1947571
vn -0.783246 0.621712 0
vn -0.7340377 0.6791087 0
vn -0.8867319 0.462284 0
vn -0.9738271 0.22729 0
vn -0.7794015 0.6022476 0.1727169
vn -0.7269571 0.665095 0.170827
vn -0.8805442 0.4321011 0.1947571
vn -0.956077 0.192346 0.221178
vn -0.9669069 -0.07866799 0.242698
vn -0.7715507 0.5601727 0.3015229
vn -0.715296 0.6367701 0.287881
vn -0.8618467 0.3714359 0.3453339
vn -0.7618105 0.5481176 0.3452708
vn -0.712056 0.622362 0.325026
vn -0.8507924 0.3413378 0.3995507
vn -0.8934782 0.08463302 0.4410601
vn -0.9177278 0.120608 0.3784569
vn -0.8676869 -0.19875 0.455651
vn -0.9105554 -0.137399 0.3898852
vn -0.8463708 -0.3621999 0.3904709
vn -0.7826324 -0.4273722 0.4525922
vn -0.7849348 -0.4491962 0.4267321
vn -0.7346965 -0.5040805 0.4540087
vn -0.7826324 -0.4273722 0.4525922
vn -0.7346959 -0.504082 0.454008
vn -0.7120563 0.6223615 -0.3250261
vn -0.7120563 0.6223616 -0.3250258
vn -0.7120565 0.6223613 -0.3250264
vn -0.7618105 0.5481176 -0.3452708
vn -0.7715507 0.5601727 -0.3015229
vn -0.8507924 0.3413378 -0.3995507
vn -0.8618467 0.3714359 -0.3453339
vn -0.8805442 0.4321011 -0.1947571
vn -0.9177278 0.120608 -0.3784569
vn -0.8934782 0.08463302 -0.4410601
vn -0.956077 0.192346 -0.221178
vn -0.9738271 0.22729 0
vn -0.9105554 -0.137399 -0.3898852
vn -0.8676869 -0.19875 -0.455651
vn -0.9988095 -0.04878103 0
vn -0.9669069 -0.07866799 0.242698
vn -0.9669069 -0.07866799 -0.242698
vn -0.8463708 -0.3621999 -0.3904709
vn -0.7826324 -0.4273722 -0.4525922
vn -0.9146292 -0.3186611 0.2488141
vn -0.8463708 -0.3621999 0.3904709
vn -0.9146292 -0.3186611 -0.2488141
vn -0.9514045 -0.3079441 0
vn -0.7834231 -0.47114 -0.405309
vn -0.7346959 -0.504082 -0.454008
vn -0.8646698 -0.4280829 -0.262852
vn -0.9038658 -0.4278159 0
vn -0.8646698 -0.4280829 0.262852
vn -0.7834231 -0.47114 0.405309
vn -0.7849348 -0.4491962 0.4267321
vn -0.7346965 -0.5040805 0.4540087
vn -0.7346959 -0.504082 0.454008
vn -0.6756253 0.7014463 -0.2269441
vn -0.6719751 0.718811 -0.178214
vn -0.6756245 0.7014465 -0.2269456
vn -0.7164178 -0.6271435 0.3056738
vn -0.786307 -0.5303361 0.316962
vn -0.7164172 -0.6271442 0.305674
vn -0.7686149 -0.586888 0.254546
vn -0.7164178 -0.6271435 0.3056738
vn -0.7164172 -0.6271442 0.305674
vn -0.8570806 -0.4490528 0.2525159
vn -0.776608 -0.5636602 0.2813664
vn -0.8376766 -0.5306287 0.1293479
vn -0.91294 -0.390959 0.117011
vn -0.9912201 -0.086426 0.100067
vn -0.9338599 -0.357639 0
vn -0.8594944 -0.5111453 0
vn -0.9989988 -0.04473599 0
vn -0.9692689 0.246004 0
vn -0.91294 -0.390959 -0.117011
vn -0.8376766 -0.5306287 -0.1293479
vn -0.9698498 0.2309729 -0.07773598
vn -0.8664891 0.495157 -0.063374
vn -0.9912201 -0.086426 -0.100067
vn -0.8570806 -0.4490528 -0.2525159
vn -0.7686149 -0.586888 -0.254546
vn -0.8492108 0.4781799 -0.22402
vn -0.7306903 0.6564313 -0.1875891
vn -0.9471962 0.192895 -0.256146
vn -0.9521634 -0.1494751 -0.2665371
vn -0.7863073 -0.5303352 -0.3169631
vn -0.7164172 -0.6271442 -0.305674
vn -0.9100053 -0.2235741 -0.3491491
vn -0.9262261 0.150096 -0.345798
vn -0.8360141 0.4567161 -0.304123
vn -0.7242229 0.6420599 -0.251516
vn -0.6756245 0.7014465 -0.2269456
vn -0.6756253 0.7014463 -0.2269441
vn -0.8570806 -0.4490528 0.2525159
vn -0.786307 -0.5303361 0.316962
vn -0.776608 -0.5636602 0.2813664
vn -0.9100053 -0.2235741 0.3491491
vn -0.9521634 -0.1494751 0.2665371
vn -0.9912201 -0.086426 0.100067
vn -0.9471962 0.192895 0.256146
vn -0.9262261 0.150096 0.345798
vn -0.9698498 0.2309729 0.07773598
vn -0.9692689 0.246004 0
vn -0.8492108 0.4781799 0.22402
vn -0.8360137 0.4567168 0.3041229
vn -0.8675712 0.4973131 0
vn -0.8664891 0.495157 -0.063374
vn -0.8664891 0.495157 0.063374
vn -0.7306903 0.6564313 0.1875891
vn -0.7242229 0.6420599 0.251516
vn -0.7363911 0.67467 -0.05048201
vn -0.7306903 0.6564313 -0.1875891
vn -0.7328569 0.6803829 0
vn -0.7363911 0.67467 0.05048201
vn -0.6719745 0.7188115 0.1782139
vn -0.6756253 0.7014463 0.2269441
vn -0.6717901 0.7390871 0.04948101
vn -0.6667069 0.74532 0
vn -0.6717901 0.7390871 -0.04948101
vn -0.6719751 0.718811 -0.178214
vn -0.6623421 0.7120473 -0.2330057
vn -0.2596419 -0.173236 0.9500397
vn -0.131617 0.2441451 0.9607654
vn 0.345651 0.528292 0.775521
vn 0.2603159 0.3577768 0.8967894
vn 0.4472419 0.3832599 0.8081378
vn -0.1868369 0.6167208 0.7646878
vn 0.5142921 0.207769 0.8320671
vn 0.01697501 0.2132441 0.9768514
vn 0.25539 0.110174 0.9605402
vn -0.4565871 0.6900162 0.5616101
vn 0.4309039 0.208165 0.8780599
vn 0.09533001 0.296458 0.9502761
vn -0.332397 -0.169875 0.9277148
vn -0.1813691 0.3934612 0.9012734
vn -0.4660729 0.06699999 0.8822058
vn -0.4289762 -0.2633631 0.8640714
vn -0.2041011 -0.3760861 0.9038263
vn -0.5294679 0.273073 0.803178
vn -0.3229191 0.6466651 0.6910481
g SailsMDL_02_0
f 3/3/3 2/2/2 1/1/1
f 5/5/5 4/4/4 3/3/3
f 5/5/5 6/6/6 4/4/4
f 7/7/7 6/6/6 5/5/5
f 8/8/8 7/7/7 5/5/5
f 7/7/7 9/9/9 6/6/6
f 9/9/9 10/10/10 6/6/6
f 8/8/8 11/11/11 7/7/7
f 11/11/11 9/9/9 7/7/7
f 12/12/12 11/11/11 8/8/8
f 9/9/9 13/13/13 10/10/10
f 13/13/13 14/14/14 10/10/10
f 11/11/11 15/15/15 9/9/9
f 15/15/15 13/13/13 9/9/9
f 12/12/12 16/16/16 11/11/11
f 16/16/16 15/15/15 11/11/11
f 17/17/17 16/16/16 12/12/12
f 13/13/13 18/18/18 14/14/14
f 19/19/19 14/14/14 18/18/18
f 15/15/15 20/20/20 13/13/13
f 20/20/20 18/18/18 13/13/13
f 18/18/18 21/21/21 19/19/19
f 22/22/22 19/19/19 21/21/21
f 21/21/21 18/18/18 23/23/23
f 20/20/20 23/23/23 18/18/18
f 24/24/24 23/23/23 20/20/20
f 25/25/25 20/20/20 15/15/15
f 25/25/25 24/24/24 20/20/20
f 16/16/16 25/25/25 15/15/15
f 26/26/26 24/24/24 25/25/25
f 17/17/17 27/27/27 16/16/16
f 27/27/27 25/25/25 16/16/16
f 27/27/27 26/26/26 25/25/25
f 28/28/28 27/27/27 17/17/17
f 28/28/28 26/26/26 27/27/27
f 29/29/29 26/26/26 28/28/28
f 30/30/30 29/29/29 28/28/28
f 33/33/33 32/32/32 31/31/31
f 36/36/36 35/35/35 34/34/34
f 38/38/38 35/35/35 37/37/37
f 39/39/39 38/38/38 37/37/37
f 40/40/40 38/38/38 39/39/39
f 40/40/40 41/41/41 38/38/38
f 42/42/42 40/40/40 39/39/39
f 43/43/43 42/42/42 39/39/39
f 44/44/44 41/41/41 40/40/40
f 42/42/42 44/44/44 40/40/40
f 44/44/44 45/45/45 41/41/41
f 46/46/46 42/42/42 43/43/43
f 47/47/47 46/46/46 43/43/43
f 48/48/48 45/45/45 44/44/44
f 48/48/48 49/49/49 45/45/45
f 50/50/50 44/44/44 42/42/42
f 46/46/46 50/50/50 42/42/42
f 50/50/50 48/48/48 44/44/44
f 46/46/46 47/47/47 51/51/51
f 52/52/52 51/51/51 47/47/47
f 53/53/53 49/49/49 48/48/48
f 53/53/53 54/54/54 49/49/49
f 55/55/55 50/50/50 46/46/46
f 51/51/51 55/55/55 46/46/46
f 56/56/56 48/48/48 50/50/50
f 56/56/56 53/53/53 48/48/48
f 55/55/55 56/56/56 50/50/50
f 51/51/51 52/52/52 57/57/57
f 58/58/58 57/57/57 52/52/52
f 57/57/57 59/59/59 51/51/51
f 55/55/55 51/51/51 59/59/59
f 59/59/59 60/60/60 55/55/55
f 60/60/60 56/56/56 55/55/55
f 60/60/60 61/61/61 56/56/56
f 61/61/61 53/53/53 56/56/56
f 61/61/61 54/54/54 53/53/53
f 62/62/62 54/54/54 61/61/61
f 62/62/62 63/63/63 54/54/54
f 65/65/65 64/64/64 62/62/62
f 68/68/68 67/67/67 66/66/66
f 71/71/71 70/70/70 69/69/69
f 74/74/74 73/73/73 72/72/72
f 72/72/72 76/76/76 75/75/75
f 72/72/72 75/75/75 77/77/77
f 77/77/77 75/75/75 78/78/78
f 78/78/78 75/75/75 79/79/79
f 77/77/77 78/78/78 80/80/80
f 81/81/81 77/77/77 80/80/80
f 78/78/78 79/79/79 82/82/82
f 80/80/80 78/78/78 82/82/82
f 82/82/82 79/79/79 83/83/83
f 81/81/81 80/80/80 84/84/84
f 85/85/85 81/81/81 84/84/84
f 82/82/82 83/83/83 86/86/86
f 86/86/86 83/83/83 87/87/87
f 80/80/80 82/82/82 88/88/88
f 84/84/84 80/80/80 88/88/88
f 88/88/88 82/82/82 86/86/86
f 84/84/84 89/89/89 85/85/85
f 90/90/90 85/85/85 89/89/89
f 86/86/86 87/87/87 91/91/91
f 91/91/91 87/87/87 92/92/92
f 88/88/88 86/86/86 93/93/93
f 93/93/93 86/86/86 91/91/91
f 84/84/84 88/88/88 94/94/94
f 89/89/89 84/84/84 94/94/94
f 94/94/94 88/88/88 93/93/93
f 89/89/89 95/95/95 90/90/90
f 96/96/96 90/90/90 95/95/95
f 95/95/95 89/89/89 97/97/97
f 94/94/94 97/97/97 89/89/89
f 97/97/97 94/94/94 98/98/98
f 94/94/94 93/93/93 98/98/98
f 98/98/98 93/93/93 99/99/99
f 93/93/93 91/91/91 99/99/99
f 91/91/91 92/92/92 99/99/99
f 99/99/99 92/92/92 100/100/100
f 92/92/92 101/101/101 100/100/100
f 100/100/100 101/101/101 102/102/102
f 105/105/105 104/104/104 103/103/103
f 104/104/104 106/106/106 103/103/103
f 103/103/103 106/106/106 107/107/107
f 103/103/103 107/107/107 108/108/108
f 107/107/107 106/106/106 109/109/109
f 106/106/106 110/110/110 109/109/109
f 108/108/108 107/107/107 111/111/111
f 107/107/107 109/109/109 111/111/111
f 108/108/108 111/111/111 112/112/112
f 109/109/109 110/110/110 113/113/113
f 110/110/110 114/114/114 113/113/113
f 112/112/112 111/111/111 115/115/115
f 112/112/112 115/115/115 116/116/116
f 111/111/111 109/109/109 117/117/117
f 109/109/109 113/113/113 117/117/117
f 111/111/111 117/117/117 115/115/115
f 113/113/113 114/114/114 118/118/118
f 119/119/119 118/118/118 114/114/114
f 116/116/116 115/115/115 120/120/120
f 116/116/116 120/120/120 121/121/121
f 115/115/115 117/117/117 122/122/122
f 115/115/115 122/122/122 120/120/120
f 117/117/117 113/113/113 123/123/123
f 113/113/113 118/118/118 123/123/123
f 117/117/117 123/123/123 122/122/122
f 118/118/118 119/119/119 124/124/124
f 125/125/125 124/124/124 119/119/119
f 124/124/124 126/126/126 118/118/118
f 123/123/123 118/118/118 126/126/126
f 123/123/123 126/126/126 127/127/127
f 122/122/122 123/123/123 127/127/127
f 122/122/122 127/127/127 128/128/128
f 120/120/120 122/122/122 128/128/128
f 120/120/120 128/128/128 121/121/121
f 121/121/121 128/128/128 129/129/129
f 121/121/121 129/129/129 130/130/130
f 133/133/133 132/132/132 131/131/131
f 134/134/134 132/132/132 133/133/133
f 135/135/135 134/134/134 133/133/133
f 134/134/134 136/136/136 132/132/132
f 137/137/137 134/134/134 135/135/135
f 138/138/138 137/137/137 135/135/135
f 134/134/134 139/139/139 136/136/136
f 137/137/137 139/139/139 134/134/134
f 139/139/139 140/140/140 136/136/136
f 141/141/141 139/139/139 137/137/137
f 142/142/142 137/137/137 138/138/138
f 142/142/142 141/141/141 137/137/137
f 143/143/143 142/142/142 138/138/138
f 144/144/144 141/141/141 142/142/142
f 145/145/145 142/142/142 143/143/143
f 145/145/145 144/144/144 142/142/142
f 146/146/146 145/145/145 143/143/143
f 147/147/147 146/146/146 143/143/143
f 148/148/148 145/145/145 146/146/146
f 148/148/148 144/144/144 145/145/145
f 149/149/149 144/144/144 148/148/148
