g SailsMDL_03
v -7.308876 -5.161559 0.5024897
v -11.44529 -5.648839 -0.3190598
v -7.071133 -0.582787 -0.3738727
v -4.608974 -1.186268 0.4550785
v -2.230503 3.134203 -0.1002646
v -0.4380834 2.345054 0.302923
v 3.602849 5.907699 -0.1797294
v 4.250113 4.980717 0.1178559
v 11.44529 7.47416 -0.5024897
v -4.096815 -5.778419 0.4227124
v -7.308876 -5.161559 0.5024897
v -4.608974 -1.186268 0.4550785
v -2.439586 -2.143494 0.4403915
v -0.4380834 2.345054 0.302923
v -0.3479879 -3.29376 0.01141764
v -1.771216 -7.47416 -0.09887995
v 1.263713 1.513695 0.2065863
v 2.479575 0.810683 -0.02055864
v 4.250113 4.980717 0.1178559
v 5.36122 3.841709 -0.3704028
v 11.44529 7.47416 -0.5024897
vt 0.05787021 0.6255917
vt 0.04083437 0.6234952
vt 0.05790448 0.6444777
vt 0.06833974 0.6418951
vt 0.07715341 0.6599522
vt 0.08463576 0.6568791
vt 0.1001834 0.6722614
vt 0.1030336 0.6684844
vt 0.1311429 0.6804966
vt 0.06442242 0.07160692
vt 0.05800626 0.07523057
vt 0.06477308 0.08125859
vt 0.0689279 0.07775366
vt 0.07389852 0.085655
vt 0.07295391 0.07382756
vt 0.06827652 0.06545857
vt 0.07716484 0.08273637
vt 0.07948853 0.08039548
vt 0.08252129 0.08783432
vt 0.08488854 0.08416125
vt 0.09728841 0.08894171
vn -0.1695709 0.109502 0.9794157
vn -0.254538 0.185597 0.949086
vn -0.2783729 0.192064 0.9410738
vn -0.1380569 0.1099859 0.9842983
vn -0.2143369 0.2308679 0.9490836
vn -0.07479196 0.1290039 0.9888195
vn -0.109956 0.282741 0.9528731
vn 0.05197099 0.09045298 0.9945438
vn 0.1163079 -0.04582497 0.9921555
vn 0.110033 -0.05040001 0.9926493
vn -0.1695709 0.109502 0.9794157
vn -0.1380569 0.1099859 0.9842983
vn 0.09754499 -0.035242 0.9946069
vn -0.07479196 0.1290039 0.9888195
vn 0.183545 -0.081235 0.979649
vn 0.190963 -0.08036301 0.9783021
vn 0.137544 -0.055205 0.988956
vn 0.221318 -0.09093399 0.9709528
vn 0.05197099 0.09045298 0.9945438
vn 0.2344729 -0.1910999 0.9531544
vn 0.1163079 -0.04582497 0.9921555
g SailsMDL_03_0
f 3/3/3 2/2/2 1/1/1
f 4/4/4 3/3/3 1/1/1
f 5/5/5 3/3/3 4/4/4
f 6/6/6 5/5/5 4/4/4
f 7/7/7 5/5/5 6/6/6
f 8/8/8 7/7/7 6/6/6
f 9/9/9 7/7/7 8/8/8
f 12/12/12 11/11/11 10/10/10
f 13/13/13 12/12/12 10/10/10
f 14/14/14 12/12/12 13/13/13
f 13/13/13 10/10/10 15/15/15
f 15/15/15 10/10/10 16/16/16
f 17/17/17 14/14/14 13/13/13
f 17/17/17 13/13/13 15/15/15
f 18/18/18 17/17/17 15/15/15
f 19/19/19 14/14/14 17/17/17
f 19/19/19 17/17/17 18/18/18
f 20/20/20 19/19/19 18/18/18
f 21/21/21 19/19/19 20/20/20
