g Shield_Skull_Eyes
v 0.9814941 0.4506038 0.4374441
v 1.142461 0.6240689 0.3861713
v 1.24148 0.4970267 0.3910191
v 1.310811 0.6185198 0.3589592
v 1.348591 0.3314167 0.3968838
v 1.24148 0.4970267 0.3910191
v 1.142461 0.6240689 0.3861713
v 1.19288 0.7694029 0.3520816
v 0.9219588 0.8305392 0.3796234
v 0.9140719 0.6755687 0.409203
v 0.7045583 0.6964353 0.4286026
v 0.7306656 0.5626208 0.4488889
v 0.6322154 0.4595726 0.4742703
v 1.142461 0.6240689 0.3861713
v 0.9814941 0.4506038 0.4374441
v 0.9140719 0.6755687 0.409203
v 0.7306656 0.5626208 0.4488889
v 0.6322154 0.4595726 0.4742703
v 0.7026988 0.1713911 0.5074319
v 1.016528 0.05951077 0.4841254
v 1.252692 0.1150096 0.4416669
v 1.348591 0.3314167 0.3968838
v 1.24148 0.4970267 0.3910191
v -1.309089 0.6185198 0.3633785
v -1.239651 0.4970268 0.3952044
v -1.346742 0.3314167 0.4014304
v -1.191182 0.7694029 0.3561031
v -1.140649 0.6240689 0.3900225
v -0.9201702 0.8305392 0.3827308
v -0.9121835 0.6755687 0.4122836
v -0.7026056 0.6964353 0.4309763
v -0.7286443 0.5626208 0.4513505
v -0.6301091 0.4595726 0.4763997
v -0.7004802 0.1713911 0.5097988
v -0.97951 0.4506038 0.440752
v -0.6301091 0.4595726 0.4763997
v -1.014386 0.05951077 0.4875513
v -0.7286443 0.5626208 0.4513505
v -1.250692 0.1150096 0.4458897
v -0.9121835 0.6755687 0.4122836
v -1.346742 0.3314167 0.4014304
v -1.140649 0.6240689 0.3900225
v -1.239651 0.4970268 0.3952044
vt 0.1321108 0.8134746
vt 0.1828805 0.9014814
vt 0.1823474 0.901857
vt 0.209397 0.9735472
vt 0.2156373 0.8817083
vt 0.1941586 0.9137252
vt 0.1740578 0.914007
vt 0.185468 0.9979833
vt 0.129084 1.008015
vt 0.1266947 0.914007
vt 0.0831328 0.9863005
vt 0.08809519 0.9140071
vt 0.0673672 0.8838164
vt 0.1828805 0.9014814
vt 0.1321108 0.8134746
vt 0.1587206 0.9014814
vt 0.1128881 0.9014814
vt 0.07768914 0.8620377
vt 0.06691542 0.780545
vt 0.09313741 0.7805447
vt 0.1489175 0.7805447
vt 0.1863311 0.8592311
vt 0.1823474 0.901857
vt 0.2111318 0.9522521
vt 0.1958951 0.8369912
vt 0.2174323 0.7956722
vt 0.1873901 0.9766304
vt 0.1759516 0.8353354
vt 0.1307801 0.9878915
vt 0.1283987 0.8353354
vt 0.08483365 0.9647771
vt 0.08980286 0.8353354
vt 0.06912419 0.8101884
vt 0.08326912 0.6568308
vt 0.1182584 0.7170706
vt 0.0534949 0.7706465
vt 0.130316 0.6530052
vt 0.08905318 0.8041261
vt 0.1873765 0.657933
vt 0.115698 0.8041261
vt 0.1993203 0.7513201
vt 0.1416935 0.8041262
vt 0.1494885 0.8019218
vn 0.1285126 0.1399178 0.9817879
vn 0.1467946 0.1693885 0.9745557
vn 0.1597209 0.148122 0.9759863
vn 0.1656551 0.1656591 0.9721705
vn 0.1538455 0.1357945 0.9787193
vn 0.1597209 0.148122 0.9759863
vn 0.1467946 0.1693885 0.9745557
vn 0.1459489 0.1761697 0.9734799
vn 0.1286634 0.1782403 0.9755388
vn 0.1239629 0.1724114 0.9771937
vn 0.1064472 0.1751127 0.9787771
vn 0.1051756 0.1590125 0.9816583
vn 0.1062403 0.1406818 0.9843382
vn 0.1467946 0.1693885 0.9745557
vn 0.1285126 0.1399178 0.9817879
vn 0.1239629 0.1724114 0.9771937
vn 0.1051756 0.1590125 0.9816583
vn 0.1062403 0.1406818 0.9843382
vn 0.1138741 0.1330825 0.9845414
vn 0.1321286 0.1291423 0.982784
vn 0.148817 0.1325913 0.9799352
vn 0.1538455 0.1357945 0.9787193
vn 0.1597209 0.148122 0.9759863
vn -0.1623742 0.1656591 0.9727238
vn -0.1564273 0.148122 0.9765195
vn -0.1505429 0.1357944 0.9792327
vn -0.1426638 0.1761698 0.9739667
vn -0.1435059 0.1693886 0.9750454
vn -0.1253715 0.1782404 0.9759673
vn -0.1206655 0.1724115 0.9776063
vn -0.1031447 0.1751126 0.9791306
vn -0.1018633 0.1590126 0.9820076
vn -0.1029191 0.1406819 0.984691
vn -0.1105521 0.1330825 0.9849199
vn -0.1251997 0.1399178 0.9822159
vn -0.1029191 0.1406819 0.984691
vn -0.1288121 0.1291423 0.9832242
vn -0.1018633 0.1590126 0.9820076
vn -0.14551 0.1325912 0.9804317
vn -0.1206655 0.1724115 0.9776063
vn -0.1505429 0.1357944 0.9792327
vn -0.1435059 0.1693886 0.9750454
vn -0.1564273 0.148122 0.9765195
g Shield_Skull_Eyes_0
f 3/3/3 2/2/2 1/1/1
f 6/6/6 5/5/5 4/4/4
f 6/6/6 4/4/4 7/7/7
f 4/4/4 8/8/8 7/7/7
f 7/7/7 8/8/8 9/9/9
f 10/10/10 7/7/7 9/9/9
f 10/10/10 9/9/9 11/11/11
f 12/12/12 10/10/10 11/11/11
f 12/12/12 11/11/11 13/13/13
f 16/16/16 15/15/15 14/14/14
f 17/17/17 15/15/15 16/16/16
f 15/15/15 17/17/17 18/18/18
f 15/15/15 18/18/18 19/19/19
f 15/15/15 19/19/19 20/20/20
f 15/15/15 20/20/20 21/21/21
f 15/15/15 21/21/21 22/22/22
f 23/23/23 15/15/15 22/22/22
f 26/26/26 25/25/25 24/24/24
f 27/27/27 24/24/24 25/25/25
f 28/28/28 27/27/27 25/25/25
f 27/27/27 28/28/28 29/29/29
f 28/28/28 30/30/30 29/29/29
f 29/29/29 30/30/30 31/31/31
f 30/30/30 32/32/32 31/31/31
f 31/31/31 32/32/32 33/33/33
f 36/36/36 35/35/35 34/34/34
f 34/34/34 35/35/35 37/37/37
f 38/38/38 35/35/35 36/36/36
f 37/37/37 35/35/35 39/39/39
f 40/40/40 35/35/35 38/38/38
f 39/39/39 35/35/35 41/41/41
f 42/42/42 35/35/35 40/40/40
f 41/41/41 35/35/35 43/43/43
f 42/42/42 43/43/43 35/35/35
