g shield
v 16.67098 0 -4.466975
v 16.67098 -4.466975 0
v 17.25907 0 0
v 16.10293 -4.466975 -4.314766
v 16.10293 -4.466975 4.314766
v 14.94679 0 -8.629533
v 14.43749 -4.466975 -8.335489
v 16.67098 0 4.466975
v 14.43749 -4.466975 8.335489
v 12.204 0 -12.204
v 11.78816 -4.466975 -11.78816
v 14.94679 0 8.629533
v 11.78816 -4.466975 11.78816
v 8.629533 0 -14.94679
v 8.335489 -4.466975 -14.43749
v 12.204 0 12.204
v 8.335489 -4.466975 14.43749
v 4.466975 0 -16.67098
v 4.314766 -4.466975 -16.10293
v 8.629533 0 14.94679
v 4.314766 -4.466975 16.10293
v 1.056813E-15 0 -17.25907
v 1.020803E-15 -4.466975 -16.67098
v 4.466975 0 16.67098
v -3.062409E-15 -4.466975 16.67098
v -4.466975 0 -16.67098
v -4.314766 -4.466975 -16.10293
v -3.170439E-15 0 17.25907
v -4.314766 -4.466975 16.10293
v -8.629533 0 -14.94679
v -8.335489 -4.466975 -14.43749
v -4.466975 0 16.67098
v -8.335489 -4.466975 14.43749
v -12.204 0 -12.204
v -11.78816 -4.466975 -11.78816
v -8.629533 0 14.94679
v -11.78816 -4.466975 11.78816
v -14.94679 0 -8.629533
v -14.43749 -4.466975 -8.335489
v -12.204 0 12.204
v -14.43749 -4.466975 8.335489
v -16.67098 0 -4.466975
v -16.10293 -4.466975 -4.314766
v -14.94679 0 8.629533
v -16.10293 -4.466975 4.314766
v -17.25907 0 -2.113626E-15
v -16.67098 -4.466975 -2.041606E-15
v -16.67098 0 4.466975
v -14.43749 4.466975 -8.335489
v -16.10293 4.466975 -4.314766
v -16.67098 4.466975 -2.041606E-15
v -16.10293 4.466975 4.314766
v -14.43749 4.466975 8.335489
v -11.78816 4.466975 11.78816
v -11.78816 4.466975 -11.78816
v -8.335489 4.466975 14.43749
v -8.335489 4.466975 -14.43749
v -4.314766 4.466975 16.10293
v -4.314766 4.466975 -16.10293
v -3.062409E-15 4.466975 16.67098
v 1.020803E-15 4.466975 -16.67098
v 4.314766 4.466975 16.10293
v 4.314766 4.466975 -16.10293
v 8.335489 4.466975 14.43749
v 8.335489 4.466975 -14.43749
v 11.78816 4.466975 11.78816
v 11.78816 4.466975 -11.78816
v 14.43749 4.466975 8.335489
v 14.43749 4.466975 -8.335489
v 16.10293 4.466975 4.314766
v 16.10293 4.466975 -4.314766
v 16.67098 4.466975 0
v 7.473395 8.629533 -12.9443
v 10.56898 8.629533 -10.56898
v 12.9443 8.629533 -7.473395
v 14.43749 8.629533 -3.868514
v 14.94679 8.629533 0
v 14.43749 8.629533 3.868514
v 3.868514 8.629533 -14.43749
v 12.9443 8.629533 7.473395
v 9.152269E-16 8.629533 -14.94679
v 10.56898 8.629533 10.56898
v -3.868514 8.629533 -14.43749
v 7.473395 8.629533 12.9443
v -7.473395 8.629533 -12.9443
v 3.868514 8.629533 14.43749
v -10.56898 8.629533 -10.56898
v -2.745681E-15 8.629533 14.94679
v -12.9443 8.629533 -7.473395
v -3.868514 8.629533 14.43749
v -14.43749 8.629533 -3.868514
v -7.473395 8.629533 12.9443
v -14.94679 8.629533 -1.830454E-15
v -10.56898 8.629533 10.56898
v -14.43749 8.629533 3.868514
v -12.9443 8.629533 7.473395
v -11.78816 12.204 -3.158628
v -12.204 12.204 -1.494559E-15
v -11.78816 12.204 3.158628
v -10.56898 12.204 6.102001
v -8.629533 12.204 8.629533
v -6.102001 12.204 10.56898
v -10.56898 12.204 -6.102001
v -3.158628 12.204 11.78816
v -8.629533 12.204 -8.629533
v -2.241839E-15 12.204 12.204
v -6.102001 12.204 -10.56898
v 3.158628 12.204 11.78816
v -3.158628 12.204 -11.78816
v 6.102001 12.204 10.56898
v 7.472797E-16 12.204 -12.204
v 8.629533 12.204 8.629533
v 3.158628 12.204 -11.78816
v 10.56898 12.204 6.102001
v 6.102001 12.204 -10.56898
v 11.78816 12.204 3.158628
v 8.629533 12.204 -8.629533
v 12.204 12.204 0
v 10.56898 12.204 -6.102001
v 11.78816 12.204 -3.158628
v 2.233488 14.94679 -8.335489
v 4.314766 14.94679 -7.473395
v 6.102001 14.94679 -6.102001
v 7.473395 14.94679 -4.314766
v 8.335489 14.94679 -2.233488
v 8.629533 14.94679 0
v 5.284065E-16 14.94679 -8.629533
v 8.335489 14.94679 2.233488
v -2.233488 14.94679 -8.335489
v 7.473395 14.94679 4.314766
v -4.314766 14.94679 -7.473395
v 6.102001 14.94679 6.102001
v -6.102001 14.94679 -6.102001
v 4.314766 14.94679 7.473395
v -7.473395 14.94679 -4.314766
v 2.233488 14.94679 8.335489
v -8.335489 14.94679 -2.233488
v -1.58522E-15 14.94679 8.629533
v -8.629533 14.94679 -1.056813E-15
v -2.233488 14.94679 8.335489
v -8.335489 14.94679 2.233488
v -4.314766 14.94679 7.473395
v -7.473395 14.94679 4.314766
v -6.102001 14.94679 6.102001
v -4.466975 16.67098 -5.470466E-16
v -4.314766 16.67098 1.156138
v 0 17.25907 0
v -4.314766 16.67098 -1.156138
v -3.868514 16.67098 2.233488
v -3.868514 16.67098 -2.233488
v -3.158628 16.67098 3.158628
v -3.158628 16.67098 -3.158628
v -2.233488 16.67098 3.868514
v -2.233488 16.67098 -3.868514
v -1.156138 16.67098 4.314766
v -1.156138 16.67098 -4.314766
v -8.205699E-16 16.67098 4.466975
v 2.735233E-16 16.67098 -4.466975
v 1.156138 16.67098 4.314766
v 1.156138 16.67098 -4.314766
v 2.233488 16.67098 3.868514
v 2.233488 16.67098 -3.868514
v 3.158628 16.67098 3.158628
v 3.158628 16.67098 -3.158628
v 3.868514 16.67098 2.233488
v 3.868514 16.67098 -2.233488
v 4.314766 16.67098 1.156138
v 4.314766 16.67098 -1.156138
v 4.466975 16.67098 0
vn 0.9659258 0 -0.258819
vn 0.9905078 -0.1304027 -0.04346754
vn 1 0 0
vn 0.9455068 -0.1304028 -0.2983488
vn 0.9680073 -0.1304027 0.2143758
vn 0.8660254 0 -0.5
vn 0.8360711 -0.1304028 -0.5328979
vn 0.9659258 0 0.258819
vn 0.8795387 -0.1304028 0.4576098
vn 0.7071068 0 -0.7071068
vn 0.6696585 -0.1304027 -0.731131
vn 0.8660254 0 0.5000001
vn 0.731131 -0.1304027 0.6696585
vn 0.5000001 0 -0.8660254
vn 0.4576098 -0.1304028 -0.8795387
vn 0.7071068 0 0.7071068
vn 0.5328979 -0.1304028 0.8360711
vn 0.258819 0 -0.9659258
vn 0.2143758 -0.1304027 -0.9680073
vn 0.5 0 0.8660254
vn 0.2983488 -0.1304028 0.9455068
vn 0 0 -1
vn -0.04346753 -0.1304027 -0.9905078
vn 0.258819 0 0.9659258
vn 0.04346753 -0.1304027 0.9905078
vn -0.258819 0 -0.9659258
vn -0.2983488 -0.1304028 -0.9455068
vn 0 0 1
vn -0.2143758 -0.1304027 0.9680073
vn -0.5 0 -0.8660254
vn -0.5328979 -0.1304028 -0.8360711
vn -0.258819 0 0.9659258
vn -0.4576098 -0.1304028 0.8795387
vn -0.7071068 0 -0.7071068
vn -0.731131 -0.1304027 -0.6696585
vn -0.5000001 0 0.8660254
vn -0.6696585 -0.1304027 0.731131
vn -0.8660254 0 -0.5000001
vn -0.8795387 -0.1304028 -0.4576098
vn -0.7071068 0 0.7071068
vn -0.8360711 -0.1304028 0.5328979
vn -0.9659258 0 -0.258819
vn -0.9680073 -0.1304027 -0.2143758
vn -0.8660254 0 0.5
vn -0.9455068 -0.1304028 0.2983488
vn -1 0 0
vn -0.9905078 -0.1304027 0.04346754
vn -0.9659258 0 0.258819
vn -0.8357632 0.258889 -0.4842277
vn -0.9326125 0.258889 -0.2514167
vn -0.9659059 0.2588889 -0.00147186
vn -0.9333745 0.258889 0.2485731
vn -0.837235 0.258889 0.4816782
vn -0.6840395 0.258889 0.6819579
vn -0.6819578 0.258889 -0.6840395
vn -0.4842277 0.258889 0.8357632
vn -0.4816782 0.258889 -0.837235
vn -0.2514167 0.2588891 0.9326125
vn -0.2485731 0.258889 -0.9333745
vn -0.001471858 0.2588889 0.9659059
vn 0.001471858 0.2588889 -0.9659059
vn 0.2485731 0.258889 0.9333745
vn 0.2514167 0.2588891 -0.9326125
vn 0.4816782 0.258889 0.837235
vn 0.4842277 0.258889 -0.8357632
vn 0.6819578 0.258889 0.6840395
vn 0.6840395 0.258889 -0.6819579
vn 0.8357632 0.258889 0.4842277
vn 0.837235 0.258889 -0.4816782
vn 0.9326125 0.258889 0.2514167
vn 0.9333745 0.258889 -0.2485731
vn 0.9659059 0.258889 0.00147186
vn 0.4354495 0.5001073 -0.7485161
vn 0.6143422 0.5001073 -0.6103084
vn 0.7513684 0.5001073 -0.4305092
vn 0.8371901 0.5001074 -0.2213716
vn 0.8659588 0.5001073 0.002852282
vn 0.8357137 0.5001073 0.2268817
vn 0.2268817 0.5001073 -0.8357137
vn 0.7485161 0.5001073 0.4354495
vn 0.002852278 0.5001073 -0.8659588
vn 0.6103084 0.5001073 0.6143422
vn -0.2213716 0.5001073 -0.8371902
vn 0.4305093 0.5001073 0.7513684
vn -0.4305093 0.5001073 -0.7513684
vn 0.2213716 0.5001073 0.8371902
vn -0.6103084 0.5001073 -0.6143422
vn -0.002852278 0.5001073 0.8659588
vn -0.7485161 0.5001073 -0.4354495
vn -0.2268817 0.5001073 0.8357137
vn -0.8357137 0.5001073 -0.2268817
vn -0.4354495 0.5001073 0.7485161
vn -0.8659588 0.5001073 -0.002852282
vn -0.6143422 0.5001073 0.6103084
vn -0.8371901 0.5001074 0.2213716
vn -0.7513684 0.5001073 0.4305092
vn -0.6818588 0.7072044 -0.1868971
vn -0.7069976 0.7072045 -0.004050793
vn -0.6839556 0.7072044 0.1790718
vn -0.6143032 0.7072045 0.3499908
vn -0.5027871 0.7072045 0.4970584
vn -0.3570068 0.7072045 0.6102525
vn -0.6102525 0.7072045 -0.3570068
vn -0.1868971 0.7072044 0.6818588
vn -0.4970584 0.7072045 -0.5027871
vn -0.004050792 0.7072045 0.7069976
vn -0.3499907 0.7072044 -0.6143032
vn 0.1790718 0.7072044 0.6839556
vn -0.1790718 0.7072044 -0.6839556
vn 0.3499907 0.7072044 0.6143032
vn 0.004050792 0.7072045 -0.7069976
vn 0.4970584 0.7072045 0.5027871
vn 0.1868971 0.7072044 -0.6818588
vn 0.6102525 0.7072045 0.3570068
vn 0.3570068 0.7072045 -0.6102525
vn 0.6818588 0.7072044 0.1868971
vn 0.5027871 0.7072045 -0.4970584
vn 0.7069975 0.7072045 0.004050792
vn 0.6143032 0.7072045 -0.3499908
vn 0.6839556 0.7072044 -0.1790718
vn 0.1341918 0.8660783 -0.481561
vn 0.2542565 0.8660783 -0.4304208
vn 0.356994 0.8660783 -0.3499482
vn 0.435403 0.8660783 -0.2456272
vn 0.48414 0.8660783 -0.124567
vn 0.4998836 0.8660783 0.004982129
vn 0.004982132 0.8660783 -0.4998837
vn 0.481561 0.8660783 0.1341918
vn -0.124567 0.8660783 -0.48414
vn 0.4304208 0.8660783 0.2542565
vn -0.2456272 0.8660783 -0.435403
vn 0.3499482 0.8660783 0.356994
vn -0.3499482 0.8660783 -0.356994
vn 0.2456272 0.8660783 0.435403
vn -0.4304208 0.8660783 -0.2542565
vn 0.124567 0.8660783 0.48414
vn -0.481561 0.8660783 -0.1341918
vn -0.004982132 0.8660783 0.4998837
vn -0.4998836 0.8660783 -0.004982131
vn -0.1341918 0.8660783 0.481561
vn -0.48414 0.8660783 0.124567
vn -0.2542565 0.8660783 0.4304208
vn -0.435403 0.8660783 0.2456272
vn -0.356994 0.8660783 0.3499482
vn -0.2840714 0.9587494 -0.01015457
vn -0.2770201 0.9587494 0.06371445
vn 0 1 0
vn -0.2717637 0.9587494 -0.08333167
vn -0.2510903 0.9587494 0.1332415
vn -0.2409357 0.9587494 -0.1508298
vn -0.2080491 0.9587494 0.1936884
vn -0.1936884 0.9587494 -0.2080491
vn -0.1508298 0.9587494 0.2409357
vn -0.1332415 0.9587494 -0.2510903
vn -0.08333167 0.9587494 0.2717637
vn -0.06371445 0.9587494 -0.2770201
vn -0.01015458 0.9587494 0.2840714
vn 0.01015458 0.9587494 -0.2840714
vn 0.06371445 0.9587494 0.2770201
vn 0.08333167 0.9587494 -0.2717637
vn 0.1332415 0.9587494 0.2510903
vn 0.1508298 0.9587494 -0.2409357
vn 0.1936884 0.9587494 0.2080491
vn 0.2080491 0.9587494 -0.1936884
vn 0.2409357 0.9587494 0.1508298
vn 0.2510903 0.9587494 -0.1332415
vn 0.2717637 0.9587494 0.08333167
vn 0.2770201 0.9587494 -0.06371445
vn 0.2840714 0.9587494 0.01015457
g shield_0
f 3/3/3 2/2/2 1/1/1
f 1/1/1 2/2/2 4/4/4
f 3/3/3 5/5/5 2/2/2
f 1/1/1 4/4/4 6/6/6
f 6/6/6 4/4/4 7/7/7
f 8/8/8 5/5/5 3/3/3
f 8/8/8 9/9/9 5/5/5
f 6/6/6 7/7/7 10/10/10
f 10/10/10 7/7/7 11/11/11
f 12/12/12 9/9/9 8/8/8
f 12/12/12 13/13/13 9/9/9
f 10/10/10 11/11/11 14/14/14
f 14/14/14 11/11/11 15/15/15
f 16/16/16 13/13/13 12/12/12
f 16/16/16 17/17/17 13/13/13
f 14/14/14 15/15/15 18/18/18
f 18/18/18 15/15/15 19/19/19
f 20/20/20 17/17/17 16/16/16
f 20/20/20 21/21/21 17/17/17
f 18/18/18 19/19/19 22/22/22
f 22/22/22 19/19/19 23/23/23
f 24/24/24 21/21/21 20/20/20
f 24/24/24 25/25/25 21/21/21
f 22/22/22 23/23/23 26/26/26
f 26/26/26 23/23/23 27/27/27
f 28/28/28 25/25/25 24/24/24
f 28/28/28 29/29/29 25/25/25
f 26/26/26 27/27/27 30/30/30
f 30/30/30 27/27/27 31/31/31
f 32/32/32 29/29/29 28/28/28
f 32/32/32 33/33/33 29/29/29
f 30/30/30 31/31/31 34/34/34
f 34/34/34 31/31/31 35/35/35
f 36/36/36 33/33/33 32/32/32
f 36/36/36 37/37/37 33/33/33
f 34/34/34 35/35/35 38/38/38
f 38/38/38 35/35/35 39/39/39
f 40/40/40 37/37/37 36/36/36
f 40/40/40 41/41/41 37/37/37
f 38/38/38 39/39/39 42/42/42
f 42/42/42 39/39/39 43/43/43
f 44/44/44 41/41/41 40/40/40
f 44/44/44 45/45/45 41/41/41
f 42/42/42 43/43/43 46/46/46
f 46/46/46 43/43/43 47/47/47
f 48/48/48 47/47/47 45/45/45
f 48/48/48 45/45/45 44/44/44
f 46/46/46 47/47/47 48/48/48
f 49/49/49 34/34/34 38/38/38
f 50/50/50 38/38/38 42/42/42
f 49/49/49 38/38/38 50/50/50
f 51/51/51 42/42/42 46/46/46
f 50/50/50 42/42/42 51/51/51
f 52/52/52 46/46/46 48/48/48
f 51/51/51 46/46/46 52/52/52
f 53/53/53 48/48/48 44/44/44
f 52/52/52 48/48/48 53/53/53
f 54/54/54 44/44/44 40/40/40
f 53/53/53 44/44/44 54/54/54
f 55/55/55 34/34/34 49/49/49
f 55/55/55 30/30/30 34/34/34
f 54/54/54 40/40/40 56/56/56
f 56/56/56 40/40/40 36/36/36
f 57/57/57 30/30/30 55/55/55
f 57/57/57 26/26/26 30/30/30
f 56/56/56 36/36/36 58/58/58
f 58/58/58 36/36/36 32/32/32
f 59/59/59 26/26/26 57/57/57
f 59/59/59 22/22/22 26/26/26
f 58/58/58 32/32/32 60/60/60
f 60/60/60 32/32/32 28/28/28
f 61/61/61 22/22/22 59/59/59
f 61/61/61 18/18/18 22/22/22
f 60/60/60 28/28/28 62/62/62
f 62/62/62 28/28/28 24/24/24
f 63/63/63 18/18/18 61/61/61
f 63/63/63 14/14/14 18/18/18
f 62/62/62 24/24/24 64/64/64
f 64/64/64 24/24/24 20/20/20
f 65/65/65 14/14/14 63/63/63
f 65/65/65 10/10/10 14/14/14
f 64/64/64 20/20/20 66/66/66
f 66/66/66 20/20/20 16/16/16
f 67/67/67 10/10/10 65/65/65
f 67/67/67 6/6/6 10/10/10
f 66/66/66 16/16/16 68/68/68
f 68/68/68 16/16/16 12/12/12
f 69/69/69 6/6/6 67/67/67
f 69/69/69 1/1/1 6/6/6
f 68/68/68 12/12/12 70/70/70
f 70/70/70 12/12/12 8/8/8
f 71/71/71 1/1/1 69/69/69
f 71/71/71 3/3/3 1/1/1
f 72/72/72 8/8/8 3/3/3
f 70/70/70 8/8/8 72/72/72
f 72/72/72 3/3/3 71/71/71
f 73/73/73 67/67/67 65/65/65
f 74/74/74 69/69/69 67/67/67
f 74/74/74 67/67/67 73/73/73
f 75/75/75 71/71/71 69/69/69
f 75/75/75 69/69/69 74/74/74
f 76/76/76 72/72/72 71/71/71
f 76/76/76 71/71/71 75/75/75
f 77/77/77 70/70/70 72/72/72
f 77/77/77 72/72/72 76/76/76
f 78/78/78 68/68/68 70/70/70
f 78/78/78 70/70/70 77/77/77
f 73/73/73 65/65/65 79/79/79
f 79/79/79 65/65/65 63/63/63
f 80/80/80 68/68/68 78/78/78
f 80/80/80 66/66/66 68/68/68
f 79/79/79 63/63/63 81/81/81
f 81/81/81 63/63/63 61/61/61
f 82/82/82 66/66/66 80/80/80
f 82/82/82 64/64/64 66/66/66
f 81/81/81 61/61/61 83/83/83
f 83/83/83 61/61/61 59/59/59
f 84/84/84 64/64/64 82/82/82
f 84/84/84 62/62/62 64/64/64
f 83/83/83 59/59/59 85/85/85
f 85/85/85 59/59/59 57/57/57
f 86/86/86 62/62/62 84/84/84
f 86/86/86 60/60/60 62/62/62
f 85/85/85 57/57/57 87/87/87
f 87/87/87 57/57/57 55/55/55
f 88/88/88 60/60/60 86/86/86
f 88/88/88 58/58/58 60/60/60
f 87/87/87 55/55/55 89/89/89
f 89/89/89 55/55/55 49/49/49
f 90/90/90 58/58/58 88/88/88
f 90/90/90 56/56/56 58/58/58
f 89/89/89 49/49/49 91/91/91
f 91/91/91 49/49/49 50/50/50
f 92/92/92 56/56/56 90/90/90
f 92/92/92 54/54/54 56/56/56
f 91/91/91 50/50/50 93/93/93
f 93/93/93 50/50/50 51/51/51
f 94/94/94 54/54/54 92/92/92
f 94/94/94 53/53/53 54/54/54
f 93/93/93 51/51/51 95/95/95
f 95/95/95 51/51/51 52/52/52
f 96/96/96 52/52/52 53/53/53
f 96/96/96 53/53/53 94/94/94
f 95/95/95 52/52/52 96/96/96
f 97/97/97 89/89/89 91/91/91
f 98/98/98 91/91/91 93/93/93
f 97/97/97 91/91/91 98/98/98
f 99/99/99 93/93/93 95/95/95
f 98/98/98 93/93/93 99/99/99
f 100/100/100 95/95/95 96/96/96
f 99/99/99 95/95/95 100/100/100
f 101/101/101 96/96/96 94/94/94
f 100/100/100 96/96/96 101/101/101
f 102/102/102 94/94/94 92/92/92
f 101/101/101 94/94/94 102/102/102
f 103/103/103 89/89/89 97/97/97
f 103/103/103 87/87/87 89/89/89
f 102/102/102 92/92/92 104/104/104
f 104/104/104 92/92/92 90/90/90
f 105/105/105 87/87/87 103/103/103
f 105/105/105 85/85/85 87/87/87
f 104/104/104 90/90/90 106/106/106
f 106/106/106 90/90/90 88/88/88
f 107/107/107 85/85/85 105/105/105
f 107/107/107 83/83/83 85/85/85
f 106/106/106 88/88/88 108/108/108
f 108/108/108 88/88/88 86/86/86
f 109/109/109 83/83/83 107/107/107
f 109/109/109 81/81/81 83/83/83
f 108/108/108 86/86/86 110/110/110
f 110/110/110 86/86/86 84/84/84
f 111/111/111 81/81/81 109/109/109
f 111/111/111 79/79/79 81/81/81
f 110/110/110 84/84/84 112/112/112
f 112/112/112 84/84/84 82/82/82
f 113/113/113 79/79/79 111/111/111
f 113/113/113 73/73/73 79/79/79
f 112/112/112 82/82/82 114/114/114
f 114/114/114 82/82/82 80/80/80
f 115/115/115 73/73/73 113/113/113
f 115/115/115 74/74/74 73/73/73
f 114/114/114 80/80/80 116/116/116
f 116/116/116 80/80/80 78/78/78
f 117/117/117 74/74/74 115/115/115
f 117/117/117 75/75/75 74/74/74
f 116/116/116 78/78/78 118/118/118
f 118/118/118 78/78/78 77/77/77
f 119/119/119 75/75/75 117/117/117
f 119/119/119 76/76/76 75/75/75
f 120/120/120 77/77/77 76/76/76
f 118/118/118 77/77/77 120/120/120
f 120/120/120 76/76/76 119/119/119
f 121/121/121 115/115/115 113/113/113
f 122/122/122 117/117/117 115/115/115
f 122/122/122 115/115/115 121/121/121
f 123/123/123 119/119/119 117/117/117
f 123/123/123 117/117/117 122/122/122
f 124/124/124 120/120/120 119/119/119
f 124/124/124 119/119/119 123/123/123
f 125/125/125 118/118/118 120/120/120
f 125/125/125 120/120/120 124/124/124
f 126/126/126 116/116/116 118/118/118
f 126/126/126 118/118/118 125/125/125
f 121/121/121 113/113/113 127/127/127
f 127/127/127 113/113/113 111/111/111
f 128/128/128 116/116/116 126/126/126
f 128/128/128 114/114/114 116/116/116
f 127/127/127 111/111/111 129/129/129
f 129/129/129 111/111/111 109/109/109
f 130/130/130 114/114/114 128/128/128
f 130/130/130 112/112/112 114/114/114
f 129/129/129 109/109/109 131/131/131
f 131/131/131 109/109/109 107/107/107
f 132/132/132 112/112/112 130/130/130
f 132/132/132 110/110/110 112/112/112
f 131/131/131 107/107/107 133/133/133
f 133/133/133 107/107/107 105/105/105
f 134/134/134 110/110/110 132/132/132
f 134/134/134 108/108/108 110/110/110
f 133/133/133 105/105/105 135/135/135
f 135/135/135 105/105/105 103/103/103
f 136/136/136 108/108/108 134/134/134
f 136/136/136 106/106/106 108/108/108
f 135/135/135 103/103/103 137/137/137
f 137/137/137 103/103/103 97/97/97
f 138/138/138 106/106/106 136/136/136
f 138/138/138 104/104/104 106/106/106
f 137/137/137 97/97/97 139/139/139
f 139/139/139 97/97/97 98/98/98
f 140/140/140 104/104/104 138/138/138
f 140/140/140 102/102/102 104/104/104
f 139/139/139 98/98/98 141/141/141
f 141/141/141 98/98/98 99/99/99
f 142/142/142 102/102/102 140/140/140
f 142/142/142 101/101/101 102/102/102
f 141/141/141 99/99/99 143/143/143
f 143/143/143 99/99/99 100/100/100
f 144/144/144 100/100/100 101/101/101
f 144/144/144 101/101/101 142/142/142
f 143/143/143 100/100/100 144/144/144
f 145/145/145 137/137/137 139/139/139
f 146/146/146 139/139/139 141/141/141
f 145/145/145 139/139/139 146/146/146
f 145/145/145 146/146/146 147/147/147
f 148/148/148 137/137/137 145/145/145
f 148/148/148 145/145/145 147/147/147
f 148/148/148 135/135/135 137/137/137
f 146/146/146 141/141/141 149/149/149
f 149/149/149 141/141/141 143/143/143
f 146/146/146 149/149/149 147/147/147
f 150/150/150 135/135/135 148/148/148
f 150/150/150 148/148/148 147/147/147
f 150/150/150 133/133/133 135/135/135
f 149/149/149 143/143/143 151/151/151
f 151/151/151 143/143/143 144/144/144
f 149/149/149 151/151/151 147/147/147
f 152/152/152 133/133/133 150/150/150
f 152/152/152 150/150/150 147/147/147
f 152/152/152 131/131/131 133/133/133
f 151/151/151 144/144/144 153/153/153
f 151/151/151 153/153/153 147/147/147
f 154/154/154 152/152/152 147/147/147
f 154/154/154 131/131/131 152/152/152
f 153/153/153 155/155/155 147/147/147
f 153/153/153 144/144/144 142/142/142
f 153/153/153 142/142/142 155/155/155
f 154/154/154 129/129/129 131/131/131
f 155/155/155 142/142/142 140/140/140
f 156/156/156 129/129/129 154/154/154
f 156/156/156 154/154/154 147/147/147
f 156/156/156 127/127/127 129/129/129
f 155/155/155 140/140/140 157/157/157
f 155/155/155 157/157/157 147/147/147
f 157/157/157 140/140/140 138/138/138
f 158/158/158 127/127/127 156/156/156
f 158/158/158 156/156/156 147/147/147
f 158/158/158 121/121/121 127/127/127
f 157/157/157 138/138/138 159/159/159
f 157/157/157 159/159/159 147/147/147
f 159/159/159 138/138/138 136/136/136
f 160/160/160 121/121/121 158/158/158
f 160/160/160 158/158/158 147/147/147
f 160/160/160 122/122/122 121/121/121
f 159/159/159 136/136/136 161/161/161
f 159/159/159 161/161/161 147/147/147
f 162/162/162 160/160/160 147/147/147
f 162/162/162 122/122/122 160/160/160
f 161/161/161 163/163/163 147/147/147
f 161/161/161 136/136/136 134/134/134
f 161/161/161 134/134/134 163/163/163
f 162/162/162 123/123/123 122/122/122
f 163/163/163 134/134/134 132/132/132
f 164/164/164 123/123/123 162/162/162
f 164/164/164 162/162/162 147/147/147
f 164/164/164 124/124/124 123/123/123
f 163/163/163 132/132/132 165/165/165
f 163/163/163 165/165/165 147/147/147
f 165/165/165 132/132/132 130/130/130
f 166/166/166 124/124/124 164/164/164
f 166/166/166 164/164/164 147/147/147
f 166/166/166 125/125/125 124/124/124
f 165/165/165 130/130/130 167/167/167
f 165/165/165 167/167/167 147/147/147
f 167/167/167 130/130/130 128/128/128
f 168/168/168 125/125/125 166/166/166
f 168/168/168 166/166/166 147/147/147
f 168/168/168 126/126/126 125/125/125
f 167/167/167 128/128/128 169/169/169
f 167/167/167 169/169/169 147/147/147
f 169/169/169 128/128/128 126/126/126
f 169/169/169 126/126/126 168/168/168
f 169/169/169 168/168/168 147/147/147
