g WoodMDL_19
v -0.01074886 -0.0134227 -0.8586813
v -0.0107488 -0.0134227 0.8516914
v -0.02248394 -0.0280768 0.8491076
v -0.02248389 -0.0280768 -0.8586814
v 0.02248394 0.0280768 -0.8586808
v 0.02248389 0.0280768 0.8586814
v -0.0107488 -0.0134227 0.8516914
v -0.01074886 -0.0134227 -0.8586813
vt 0.8973026 0.369704
vt 0.9438822 0.369704
vt 0.9438822 0.369704
vt 0.8973026 0.369704
vt 0.9016675 0.07679802
vt 0.9561756 0.07679802
vt 0.9561756 0.104052
vt 0.9016675 0.104052
vn -0.7805614 0.6250791 0
vn -0.7805614 0.6250792 0
vn -0.7805614 0.6250792 0
vn -0.7805614 0.6250792 0
vn -0.7805638 0.6250759 0
vn -0.7805638 0.6250759 0
vn -0.7805639 0.6250759 0
vn -0.7805638 0.625076 0
g WoodMDL_19_0
f 3/3/3 2/2/2 1/1/1
f 4/4/4 3/3/3 1/1/1
f 7/7/7 6/6/6 5/5/5
f 8/8/8 7/7/7 5/5/5
