g body
v 0.7035771 0.256464 0
v 0.6956388 0.5422439 0
v 1.06874 -0.07297675 0
v 0.7750221 0.01831406 0
v 0.8444825 0.6771955 0
v 1.44978 -0.005500931 0
v 0.9933262 0.8121471 0
v 1.697853 0.2465411 0
v 1.757048 0.3143229 0
v 1.985476 0.5758855 0
v 1.030119 0.9018308 0
v 2.040954 0.8382949 0
v 1.059585 0.9736567 0
v 1.9403 1.015393 0
v 1.076679 1.015322 0
vt 0.6718885 0.6255437
vt 0.6699491 0.765093
vt 0.7611002 0.4646745
vt 0.6893429 0.5092528
vt 0.7063125 0.8309912
vt 0.8541907 0.4976237
vt 0.742676 0.8968894
vt 0.9147965 0.6206983
vt 0.9292582 0.6537969
vt 0.9850646 0.7815205
vt 0.7516648 0.9406828
vt 0.9986181 0.9096576
vt 0.7588636 0.975756
vt 0.9740279 0.9961362
vt 0.7630396 0.9961016
vn 0 0 1
vn 0 0 1
vn 0 0 1
vn 0 0 1
vn 0 0 1
vn 0 0 1
vn 0 0 1
vn 0 0 1
vn 0 0 1
vn 0 0 1
vn 0 0 1
vn 0 0 1
vn 0 0 1
vn 0 0 1
vn 0 0 1
g body_0
f 3/3/3 2/2/2 1/1/1
f 4/4/4 3/3/3 1/1/1
f 5/5/5 2/2/2 3/3/3
f 6/6/6 5/5/5 3/3/3
f 7/7/7 5/5/5 6/6/6
f 7/7/7 6/6/6 8/8/8
f 8/8/8 9/9/9 7/7/7
f 9/9/9 10/10/10 7/7/7
f 10/10/10 11/11/11 7/7/7
f 10/10/10 12/12/12 11/11/11
f 12/12/12 13/13/13 11/11/11
f 12/12/12 14/14/14 13/13/13
f 14/14/14 15/15/15 13/13/13
