g body
v 0.7180833 0.4664093 0
v 0.4719717 0.2997712 0
v 0.4668443 1.281654 0
v 0.7257743 0.9765782 0
v 0.07973117 1.322673 0
v 0.08229482 0.2972075 0
v -0.3099455 1.340618 0
v -0.3560914 0.3792447 0
v -0.6278399 1.091943 0
v -0.5637482 0.6766296 0
vt 0.4974667 0.3707502
vt 0.4373809 0.2893839
vt 0.4361291 0.768819
vt 0.4993445 0.6198561
vt 0.341619 0.7888476
vt 0.3422449 0.2881321
vt 0.2464831 0.79761
vt 0.235217 0.3281894
vt 0.1688722 0.6761866
vt 0.1845195 0.4733968
vn 0 0 1
vn 0 0 1
vn 0 0 1
vn 0 0 1
vn 0 0 1
vn 0 0 1
vn 0 0 1
vn 0 0 1
vn 0 0 1
vn 0 0 1
g body_0
f 3/3/3 2/2/2 1/1/1
f 4/4/4 3/3/3 1/1/1
f 3/3/3 5/5/5 2/2/2
f 5/5/5 6/6/6 2/2/2
f 5/5/5 7/7/7 6/6/6
f 7/7/7 8/8/8 6/6/6
f 7/7/7 9/9/9 8/8/8
f 9/9/9 10/10/10 8/8/8
