g body
v 0.5470086 0.6210968 0
v 1.105528 0.02929973 0
v 0.8175698 -0.1618039 0
v 0.3784066 0.3566231 0
v 0.5142382 -0.1315424 0
v 0.3712925 0.04498295 0
v 0.6605417 0.799188 0
v 1.291834 0.196932 0
v 1.453742 0.3462792 0
v 0.7872552 0.9979542 0
v 1.638824 0.6322947 0
v 1.223552 0.9729304 0
v 1.364453 0.9618794 0
v 1.637019 0.7654718 0
vt 0.6336377 0.8047581
vt 0.7700876 0.5174853
vt 0.6997375 0.4247188
vt 0.5924472 0.6763761
vt 0.6256317 0.4394085
vt 0.5907092 0.5250982
vt 0.6613746 0.8912079
vt 0.8156034 0.5988581
vt 0.8551586 0.6713549
vt 0.6923316 0.987694
vt 0.9003752 0.8101938
vt 0.7989217 0.9755468
vt 0.8333447 0.9701824
vt 0.8999343 0.8748412
vn 0 0 1
vn 0 0 1
vn 0 0 1
vn 0 0 1
vn 0 0 1
vn 0 0 1
vn 0 0 1
vn 0 0 1
vn 0 0 1
vn 0 0 1
vn 0 0 1
vn 0 0 1
vn 0 0 1
vn 0 0 1
g body_0
f 3/3/3 2/2/2 1/1/1
f 4/4/4 3/3/3 1/1/1
f 5/5/5 3/3/3 4/4/4
f 6/6/6 5/5/5 4/4/4
f 1/1/1 2/2/2 7/7/7
f 2/2/2 8/8/8 7/7/7
f 8/8/8 9/9/9 7/7/7
f 9/9/9 10/10/10 7/7/7
f 10/10/10 9/9/9 11/11/11
f 12/12/12 10/10/10 11/11/11
f 13/13/13 12/12/12 11/11/11
f 14/14/14 13/13/13 11/11/11
