g earR
v 0.02512825 1.672781 0.384
v 0.1731907 1.70446 0.384
v 0.1967944 1.599629 0.384
v 0.168512 1.584814 0.384
v -0.01637936 1.763752 0.384
v 0.1616356 1.78282 0.384
v 0.001526117 1.878058 0.384
v 0.1513575 1.87883 0.384
v 0.08770525 1.969993 0.384
v 0.1430781 1.953449 0.384
vt 0.909606 0.7660377
vt 0.9457541 0.7815059
vt 0.9515167 0.7303187
vt 0.9446118 0.7230849
vt 0.8994724 0.8104568
vt 0.9429331 0.8197672
vt 0.9038438 0.8662705
vt 0.9404237 0.8666474
vt 0.9248836 0.9111605
vt 0.9384024 0.9030823
vn 0 0 1
vn 0 0 1
vn 0 0 1
vn 0 0 1
vn 0 0 1
vn 0 0 1
vn 0 0 1
vn 0 0 1
vn 0 0 1
vn 0 0 1
g earR_0
f 3/3/3 2/2/2 1/1/1
f 4/4/4 3/3/3 1/1/1
f 1/1/1 2/2/2 5/5/5
f 2/2/2 6/6/6 5/5/5
f 5/5/5 6/6/6 7/7/7
f 6/6/6 8/8/8 7/7/7
f 7/7/7 8/8/8 9/9/9
f 8/8/8 10/10/10 9/9/9
