g eyeLidR
v -1.737049 -0.2340308 0
v -1.791115 -0.2420414 0
v -1.835503 -0.0731261 0
v -1.785964 -0.05896284 0
v -1.839028 0.1186612 0
v -1.879329 0.1001085 0
v -1.884965 -0.08450707 0
v -1.921467 0.07448155 0
v -1.932848 -0.09615462 0
v -1.960128 0.02788221 0
v -1.848685 -0.2460791 0
v -1.899207 -0.2441577 0
v -1.992279 -0.1081843 0
v -1.988956 -0.02614434 0
v -1.959973 -0.2397793 0
v -1.736459 -0.04422435 0
v -1.789692 0.1213564 0
v -1.694704 -0.02982609 0
v -1.744999 0.1170476 0
v -1.638999 -0.1895143 0
v -1.682552 -0.214132 0
v -1.659066 -0.01589597 0
v -1.701758 0.1008004 0
v -1.617261 0.0005384455 0
v -1.570322 -0.1283666 0
v -1.607943 -0.1659514 0
v -1.650997 0.07123245 0
vt 0.07562768 0.3856496
vt 0.06241906 0.3817354
vt 0.05157477 0.4642696
vt 0.06367743 0.47119
vt 0.05071354 0.5579793
vt 0.04086792 0.5489143
vt 0.03949076 0.4587088
vt 0.03057313 0.5363927
vt 0.02779275 0.4530177
vt 0.02112806 0.5136236
vt 0.04835427 0.3797626
vt 0.03601146 0.3807014
vt 0.01327336 0.4471397
vt 0.01408523 0.4872255
vt 0.02116585 0.3828408
vt 0.07577181 0.4783914
vt 0.06276679 0.5592963
vt 0.08597296 0.4854266
vt 0.07368553 0.557191
vt 0.09958196 0.4074009
vt 0.08894157 0.3953723
vt 0.09467936 0.492233
vt 0.08424956 0.5492524
vt 0.1048928 0.5002631
vt 0.1163601 0.4372784
vt 0.1071692 0.418914
vt 0.09665066 0.5348051
vn 0 0 1
vn 0 0 1
vn 0 0 1
vn 0 0 1
vn 0 0 1
vn 0 0 1
vn 0 0 1
vn 0 0 1
vn 0 0 1
vn 0 0 1
vn 0 0 1
vn 0 0 1
vn 0 0 1
vn 0 0 1
vn 0 0 1
vn 0 0 1
vn 0 0 1
vn 0 0 1
vn 0 0 1
vn 0 0 1
vn 0 0 1
vn 0 0 1
vn 0 0 1
vn 0 0 1
vn 0 0 1
vn 0 0 1
vn 0 0 1
g eyeLidR_0
f 3/3/3 2/2/2 1/1/1
f 4/4/4 3/3/3 1/1/1
f 4/4/4 5/5/5 3/3/3
f 5/5/5 6/6/6 3/3/3
f 3/3/3 6/6/6 7/7/7
f 3/3/3 7/7/7 2/2/2
f 6/6/6 8/8/8 7/7/7
f 7/7/7 8/8/8 9/9/9
f 8/8/8 10/10/10 9/9/9
f 7/7/7 9/9/9 11/11/11
f 7/7/7 11/11/11 2/2/2
f 9/9/9 12/12/12 11/11/11
f 9/9/9 10/10/10 13/13/13
f 9/9/9 13/13/13 12/12/12
f 10/10/10 14/14/14 13/13/13
f 13/13/13 15/15/15 12/12/12
f 5/5/5 4/4/4 16/16/16
f 17/17/17 5/5/5 16/16/16
f 17/17/17 16/16/16 18/18/18
f 19/19/19 17/17/17 18/18/18
f 18/18/18 16/16/16 20/20/20
f 16/16/16 21/21/21 20/20/20
f 16/16/16 4/4/4 21/21/21
f 4/4/4 1/1/1 21/21/21
f 19/19/19 18/18/18 22/22/22
f 23/23/23 19/19/19 22/22/22
f 23/23/23 22/22/22 24/24/24
f 24/24/24 22/22/22 25/25/25
f 22/22/22 26/26/26 25/25/25
f 18/18/18 20/20/20 26/26/26
f 22/22/22 18/18/18 26/26/26
f 27/27/27 23/23/23 24/24/24
