g eyeLidR
v 0.6065554 1.452643 0.576
v 0.638756 1.471132 0.576
v 0.6210605 1.417464 0.576
v 0.5512061 1.590369 0.576
v 0.5923732 1.598987 0.576
v 0.5376445 1.624991 0.576
v 0.5117092 1.580081 0.576
v 0.4879262 1.639304 0.576
v 0.5743548 1.434155 0.576
v 0.5950142 1.378829 0.576
v 0.5162321 1.412052 0.576
v 0.5380306 1.358565 0.576
v 0.454662 1.565318 0.576
v 0.4336852 1.619623 0.576
v 0.4026253 1.540533 0.576
v 0.3794441 1.599942 0.576
v 0.3533645 1.553374 0.576
v 0.3657902 1.518659 0.576
v 0.4597795 1.398299 0.576
v 0.414314 1.388243 0.576
v 0.4793767 1.349992 0.576
v 0.4249479 1.355738 0.576
v 0.3339657 1.490104 0.576
v 0.3688486 1.378186 0.576
vt 0.2911249 0.8795178
vt 0.2989917 0.8885515
vt 0.2946686 0.862329
vt 0.2776027 0.9468125
vt 0.2876601 0.9510232
vt 0.2742895 0.9637291
vt 0.2679533 0.9417857
vt 0.262143 0.9707227
vt 0.2832581 0.8704841
vt 0.2883053 0.8434509
vt 0.2690583 0.8596842
vt 0.2743838 0.8335497
vt 0.2540163 0.934572
vt 0.2488916 0.9611062
vt 0.2413034 0.9224619
vt 0.2356401 0.9514897
vt 0.2292687 0.928736
vt 0.2323043 0.9117738
vt 0.2552665 0.8529645
vt 0.244159 0.8480508
vt 0.2600543 0.8293611
vt 0.2467569 0.8321687
vt 0.2245294 0.8978214
vt 0.2330515 0.843137
vn 0 0 1
vn 0 0 1
vn 0 0 1
vn 0 0 1
vn 0 0 1
vn 0 0 1
vn 0 0 1
vn 0 0 1
vn 0 0 1
vn 0 0 1
vn 0 0 1
vn 0 0 1
vn 0 0 1
vn 0 0 1
vn 0 0 1
vn 0 0 1
vn 0 0 1
vn 0 0 1
vn 0 0 1
vn 0 0 1
vn 0 0 1
vn 0 0 1
vn 0 0 1
vn 0 0 1
g eyeLidR_0
f 3/3/3 2/2/2 1/1/1
f 1/1/1 2/2/2 4/4/4
f 2/2/2 5/5/5 4/4/4
f 4/4/4 5/5/5 6/6/6
f 4/4/4 6/6/6 7/7/7
f 6/6/6 8/8/8 7/7/7
f 4/4/4 7/7/7 9/9/9
f 1/1/1 4/4/4 9/9/9
f 1/1/1 9/9/9 3/3/3
f 9/9/9 10/10/10 3/3/3
f 10/10/10 9/9/9 11/11/11
f 12/12/12 10/10/10 11/11/11
f 9/9/9 7/7/7 13/13/13
f 11/11/11 9/9/9 13/13/13
f 7/7/7 8/8/8 14/14/14
f 13/13/13 7/7/7 14/14/14
f 13/13/13 14/14/14 15/15/15
f 14/14/14 16/16/16 15/15/15
f 15/15/15 16/16/16 17/17/17
f 18/18/18 15/15/15 17/17/17
f 19/19/19 15/15/15 18/18/18
f 13/13/13 15/15/15 19/19/19
f 11/11/11 13/13/13 19/19/19
f 20/20/20 19/19/19 18/18/18
f 19/19/19 20/20/20 21/21/21
f 11/11/11 19/19/19 21/21/21
f 12/12/12 11/11/11 21/21/21
f 20/20/20 22/22/22 21/21/21
f 17/17/17 23/23/23 18/18/18
f 18/18/18 23/23/23 20/20/20
f 23/23/23 24/24/24 20/20/20
f 20/20/20 24/24/24 22/22/22
