g eyeLidL
v -1.852157 -0.599363 5.551115E-17
v -1.8877 -0.5973009 5.551115E-17
v -1.897297 -0.4490968 5.551115E-17
v -1.862193 -0.4466938 5.551115E-17
v -1.875436 -0.2866169 5.551115E-17
v -1.907755 -0.2976062 5.551115E-17
v -1.929997 -0.4518176 5.551115E-17
v -1.937859 -0.3179438 5.551115E-17
v -1.960595 -0.4545206 5.551115E-17
v -1.963955 -0.3421884 5.551115E-17
v -1.922189 -0.5926505 5.551115E-17
v -1.952734 -0.5816308 5.551115E-17
v -1.824631 -0.4444434 5.551115E-17
v -1.836073 -0.3004004 5.551115E-17
v -1.791308 -0.4424469 5.551115E-17
v -1.801151 -0.3197623 5.551115E-17
v -1.780911 -0.5813388 5.551115E-17
v -1.813694 -0.5941253 5.551115E-17
v -1.759668 -0.4413688 5.551115E-17
v -1.770386 -0.3442265 5.551115E-17
v -1.726519 -0.4404793 5.551115E-17
v -1.728463 -0.531204 5.551115E-17
v -1.751472 -0.5618854 5.551115E-17
v -1.744256 -0.375319 5.551115E-17
v -1.99715 -0.4591978 5.551115E-17
v -1.987049 -0.3783706 5.551115E-17
v -1.984225 -0.5595229 5.551115E-17
vt 0.04750615 0.2071435
vt 0.03882277 0.2081511
vt 0.03647798 0.2805656
vt 0.04505432 0.2817397
vt 0.0418188 0.3599553
vt 0.03392321 0.3545858
vt 0.02848923 0.2792361
vt 0.02656853 0.3446486
vt 0.02101392 0.2779154
vt 0.02019298 0.3328024
vt 0.03039682 0.2104234
vt 0.02293444 0.2158077
vt 0.05423087 0.2828393
vt 0.05143559 0.3532205
vt 0.06237197 0.2838148
vt 0.05996722 0.34376
vt 0.06491202 0.2159504
vt 0.05690277 0.2097027
vt 0.07010174 0.2843416
vt 0.06748331 0.3318065
vt 0.07820022 0.2847762
vt 0.07772541 0.2404469
vt 0.07210398 0.2254556
vt 0.07386708 0.3166143
vt 0.01208341 0.2756301
vt 0.01455116 0.3151233
vt 0.01524091 0.2266099
vn 0 0 1
vn 0 0 1
vn 0 0 1
vn 0 0 1
vn 0 0 1
vn 0 0 1
vn 0 0 1
vn 0 0 1
vn 0 0 1
vn 0 0 1
vn 0 0 1
vn 0 0 1
vn 0 0 1
vn 0 0 1
vn 0 0 1
vn 0 0 1
vn 0 0 1
vn 0 0 1
vn 0 0 1
vn 0 0 1
vn 0 0 1
vn 0 0 1
vn 0 0 1
vn 0 0 1
vn 0 0 1
vn 0 0 1
vn 0 0 1
g eyeLidL_0
f 3/3/3 2/2/2 1/1/1
f 4/4/4 3/3/3 1/1/1
f 4/4/4 5/5/5 3/3/3
f 5/5/5 6/6/6 3/3/3
f 3/3/3 6/6/6 7/7/7
f 3/3/3 7/7/7 2/2/2
f 6/6/6 8/8/8 7/7/7
f 7/7/7 8/8/8 9/9/9
f 8/8/8 10/10/10 9/9/9
f 7/7/7 9/9/9 11/11/11
f 7/7/7 11/11/11 2/2/2
f 9/9/9 12/12/12 11/11/11
f 5/5/5 4/4/4 13/13/13
f 14/14/14 5/5/5 13/13/13
f 14/14/14 13/13/13 15/15/15
f 16/16/16 14/14/14 15/15/15
f 15/15/15 13/13/13 17/17/17
f 13/13/13 18/18/18 17/17/17
f 13/13/13 4/4/4 18/18/18
f 4/4/4 1/1/1 18/18/18
f 16/16/16 15/15/15 19/19/19
f 20/20/20 16/16/16 19/19/19
f 20/20/20 19/19/19 21/21/21
f 21/21/21 19/19/19 22/22/22
f 19/19/19 23/23/23 22/22/22
f 15/15/15 17/17/17 23/23/23
f 19/19/19 15/15/15 23/23/23
f 24/24/24 20/20/20 21/21/21
f 10/10/10 26/26/26 25/25/25
f 9/9/9 10/10/10 25/25/25
f 9/9/9 25/25/25 12/12/12
f 25/25/25 27/27/27 12/12/12
