g eyeLidL
v -0.9701314 0.09000806 0
v -0.9122881 0.01398546 0
v -1.09811 -0.007251283 0
v -1.060945 0.08831406 0
v -1.005199 0.1360967 0
v -0.9096335 -0.1665269 0
v -1.09811 -0.1691815 0
vt 0.2629907 0.543979
vt 0.2771221 0.5068334
vt 0.2317247 0.4964569
vt 0.2408042 0.5431514
vt 0.2544234 0.5664986
vt 0.2777706 0.4186329
vt 0.2317247 0.4173357
vn 0 0 1
vn 0 0 1
vn 0 0 1
vn 0 0 1
vn 0 0 1
vn 0 0 1
vn 0 0 1
g eyeLidL_0
f 3/3/3 2/2/2 1/1/1
f 4/4/4 3/3/3 1/1/1
f 4/4/4 1/1/1 5/5/5
f 6/6/6 2/2/2 3/3/3
f 7/7/7 6/6/6 3/3/3
