g eyeR
v 0.5314458 1.640494 0.384
v 0.6195168 1.540403 0.384
v 0.3300733 1.517115 0.384
v 0.4011001 1.626621 0.384
v 0.6274732 1.432512 0.384
v 0.3469276 1.415282 0.384
v 0.5659396 1.361988 0.384
v 0.4229447 1.354095 0.384
vt 0.8026547 0.9885863
vt 0.8241565 0.9397138
vt 0.7534915 0.9283425
vt 0.7708321 0.9818122
vt 0.8260989 0.8870326
vt 0.7576064 0.8786196
vt 0.811076 0.852597
vt 0.7761652 0.848743
vn 0 0 1
vn 0 0 1
vn 0 0 1
vn 0 0 1
vn 0 0 1
vn 0 0 1
vn 0 0 1
vn 0 0 1
g eyeR_0
f 3/3/3 2/2/2 1/1/1
f 4/4/4 3/3/3 1/1/1
f 5/5/5 2/2/2 3/3/3
f 6/6/6 5/5/5 3/3/3
f 7/7/7 5/5/5 6/6/6
f 8/8/8 7/7/7 6/6/6
