g HammerFlashEffect
v 0.8701199 -0.5707203 8.225633E-08
v 0.3987942 -0.2615724 3.385168E-08
v 0.3963251 -0.1690707 3.385168E-08
v 0.8647356 -0.3688936 8.225633E-08
v 0.5422373 -3.815339E-14 3.385168E-08
v 1.183091 -4.621961E-14 8.225633E-08
v 0.3937087 0.1543586 3.385168E-08
v 0.8590223 0.3367896 8.225633E-08
v 0.3846512 0.2686262 3.385168E-08
v 0.8392534 0.5861085 8.225633E-08
v 0.2454009 0.2888114 3.385168E-08
v 0.5354337 0.6301492 8.225633E-08
v 0.1286346 0.3021007 3.385168E-08
v 0.2806646 0.659143 8.225633E-08
v -8.855508E-10 0.3088417 3.385171E-08
v 0 0.6738515 8.225633E-08
v -0.1286346 0.3021007 3.385171E-08
v -0.2806646 0.659143 8.225633E-08
v -0.2454009 0.2888114 3.385171E-08
v -0.5354337 0.6301492 8.225633E-08
v -0.3846512 0.2686262 3.385171E-08
v -0.8392534 0.5861085 8.225633E-08
v -0.3937087 0.1543586 3.385171E-08
v -0.8590223 0.3367896 8.225633E-08
v -0.5422373 0 3.385171E-08
v -1.183091 1.348846E-16 8.225633E-08
v -0.3963251 -0.1690707 3.385171E-08
v -0.8647356 -0.3688936 8.225633E-08
v -0.3987942 -0.2615724 3.385171E-08
v -0.8701199 -0.5707203 8.225633E-08
v -0.5204827 -0.593389 8.225633E-08
v -0.238549 -0.2719653 3.385171E-08
v -0.182409 -0.6051734 8.225633E-08
v -0.1043313 -0.3763008 3.385171E-08
v -0.1153181 -0.3957906 3.385171E-08
v -0.08029008 -0.3622098 3.385171E-08
v -0.1153181 -0.3957906 3.385171E-08
v -0.1284969 -0.800108 3.385171E-08
v -0.1751826 -0.790296 8.225633E-08
v -0.2276385 -0.8210354 8.225633E-08
v -0.251609 -0.863569 8.225633E-08
v -0.2803639 -1.74573 8.225633E-08
v -0.06961536 -0.810647 3.385171E-08
v -0.1518914 -1.768736 8.225633E-08
v -1.77756E-09 -0.8162174 3.385171E-08
v 0 -1.780884 8.225633E-08
v 0.1518914 -1.768736 8.225633E-08
v 0.06961536 -0.810647 3.385168E-08
v 0.2803639 -1.74573 8.225633E-08
v 0.1284969 -0.800108 3.385168E-08
v 0.251609 -0.863569 8.225633E-08
v 0.2276385 -0.8210354 8.225633E-08
v 0.1751826 -0.790296 8.225633E-08
v 0.182409 -0.6051734 8.225633E-08
v 0.1153181 -0.3957906 3.385168E-08
v 0.238549 -0.2719653 3.385168E-08
v 0.5204827 -0.593389 8.225633E-08
v 0.182409 -0.6051734 8.225633E-08
v 0.1153181 -0.3957906 3.385168E-08
v 0.238549 -0.2719653 3.385168E-08
v 0.1153181 -0.3957906 3.385168E-08
v 0.1043313 -0.3763003 3.385168E-08
v 0.238549 -0.2719653 3.385168E-08
v 0.08029008 -0.3622098 3.385168E-08
v 0.238549 -0.2719653 3.385168E-08
v 0.08360183 -0.2773635 3.385168E-08
v -0.1153181 -0.3957906 3.385171E-08
v -0.182409 -0.6051734 8.225633E-08
v -0.238549 -0.2719653 3.385171E-08
v -0.238549 -0.2719653 3.385171E-08
v -0.08360183 -0.2773635 3.385171E-08
vt 1 0.6666667
vt 1 0.6666667
vt 1 0.7248216
vt 1 0.7248216
vt 1 0.827335
vt 1 0.827335
vt 1 0.9261018
vt 1 0.9261018
vt 1 1
vt 1 1
vt 0.6666667 1
vt 0.6666667 1
vt 0.5867835 1
vt 0.5867835 1
vt 0.5069003 1
vt 0.5069003 1
vt 0.5867835 1
vt 0.5867835 1
vt 0.6666667 1
vt 0.6666667 1
vt 1 1
vt 1 1
vt 1 0.9261018
vt 1 0.9261018
vt 1 0.827335
vt 1 0.827335
vt 1 0.7248216
vt 1 0.7248216
vt 1 0.6666667
vt 1 0.6666667
vt 0.8333334 0.6666667
vt 0.8333334 0.6666667
vt 0.6666667 0.6666667
vt 0.6666667 0.3116843
vt 0.6666667 0.2930279
vt 0.6666667 0.3333333
vt 0.6666667 0.2930279
vt 0.6666667 0
vt 0.6666667 0.3333333
vt 0.6666667 0.3116843
vt 0.6666667 0.2930279
vt 0.6666667 0
vt 0.5867836 1.746583E-08
vt 0.5867836 1.746583E-08
vt 0.5069003 0
vt 0.5069003 0
vt 0.5867836 1.746583E-08
vt 0.5867836 1.746583E-08
vt 0.6666667 0
vt 0.6666667 0
vt 0.6666667 0.2930279
vt 0.6666667 0.3116843
vt 0.6666667 0.3333333
vt 0.6666667 0.6666667
vt 0.6666667 0.2930279
vt 0.8333334 0.6666667
vt 0.8333334 0.6666667
vt 0.6666667 0.6666667
vt 0.6666667 0.2930279
vt 0.8333334 0.6666667
vt 0.6666667 0.2930279
vt 0.6666667 0.3116843
vt 0.8333334 0.6666667
vt 0.6666667 0.3333333
vt 0.8333334 0.6666667
vt 0.6666667 0.6666667
vt 0.6666667 0.2930279
vt 0.6666667 0.6666667
vt 0.8333334 0.6666667
vt 0.8333334 0.6666667
vt 0.6666667 0.6666667
vn 0 0 1
vn 0 0 1
vn 0 0 1
vn 0 0 1
vn 0 0 1
vn 0 0 1
vn 0 0 1
vn 0 0 1
vn 0 0 1
vn 0 0 1
vn 0 0 1
vn 0 0 1
vn 0 0 1
vn 0 0 1
vn 0 0 1
vn 0 0 1
vn 0 0 1
vn 0 0 1
vn 0 0 1
vn 0 0 1
vn 0 0 1
vn 0 0 1
vn 0 0 1
vn 0 0 1
vn 0 0 1
vn 0 0 1
vn 0 0 1
vn 0 0 1
vn 0 0 1
vn 0 0 1
vn 0 0 1
vn 0 0 1
vn 0 0 1
vn 0 0 1
vn 0 0 1
vn 0 0 1
vn 0 0 1
vn 0 0 1
vn 0 0 1
vn 0 0 1
vn 0 0 1
vn 0 0 1
vn 0 0 1
vn 0 0 1
vn 0 0 1
vn 0 0 1
vn 0 0 1
vn 0 0 1
vn 0 0 1
vn 0 0 1
vn 0 0 1
vn 0 0 1
vn 0 0 1
vn 0 0 1
vn 0 0 1
vn 0 0 1
vn 0 0 1
vn 0 0 1
vn 0 0 1
vn 0 0 1
vn 0 0 1
vn 0 0 1
vn 0 0 1
vn 0 0 1
vn 0 0 1
vn 0 0 1
vn 0 0 1
vn 0 0 1
vn 0 0 1
vn 0 0 1
vn 0 0 1
g HammerFlashEffect_0
f 3/3/3 2/2/2 1/1/1
f 4/4/4 3/3/3 1/1/1
f 5/5/5 3/3/3 4/4/4
f 6/6/6 5/5/5 4/4/4
f 7/7/7 5/5/5 6/6/6
f 8/8/8 7/7/7 6/6/6
f 9/9/9 7/7/7 8/8/8
f 10/10/10 9/9/9 8/8/8
f 11/11/11 9/9/9 10/10/10
f 12/12/12 11/11/11 10/10/10
f 13/13/13 11/11/11 12/12/12
f 14/14/14 13/13/13 12/12/12
f 15/15/15 13/13/13 14/14/14
f 16/16/16 15/15/15 14/14/14
f 17/17/17 15/15/15 16/16/16
f 18/18/18 17/17/17 16/16/16
f 19/19/19 17/17/17 18/18/18
f 20/20/20 19/19/19 18/18/18
f 21/21/21 19/19/19 20/20/20
f 22/22/22 21/21/21 20/20/20
f 23/23/23 21/21/21 22/22/22
f 24/24/24 23/23/23 22/22/22
f 25/25/25 23/23/23 24/24/24
f 26/26/26 25/25/25 24/24/24
f 27/27/27 25/25/25 26/26/26
f 28/28/28 27/27/27 26/26/26
f 29/29/29 27/27/27 28/28/28
f 30/30/30 29/29/29 28/28/28
f 30/30/30 31/31/31 29/29/29
f 31/31/31 32/32/32 29/29/29
f 32/32/32 31/31/31 33/33/33
f 35/35/35 34/34/34 32/32/32
f 32/32/32 34/34/34 36/36/36
f 38/38/38 37/37/37 33/33/33
f 39/39/39 38/38/38 33/33/33
f 38/38/38 39/39/39 40/40/40
f 41/41/41 38/38/38 40/40/40
f 41/41/41 42/42/42 38/38/38
f 43/43/43 38/38/38 42/42/42
f 44/44/44 43/43/43 42/42/42
f 45/45/45 43/43/43 44/44/44
f 46/46/46 45/45/45 44/44/44
f 46/46/46 47/47/47 45/45/45
f 47/47/47 48/48/48 45/45/45
f 47/47/47 49/49/49 48/48/48
f 49/49/49 50/50/50 48/48/48
f 50/50/50 49/49/49 51/51/51
f 51/51/51 52/52/52 50/50/50
f 52/52/52 53/53/53 50/50/50
f 50/50/50 53/53/53 54/54/54
f 55/55/55 50/50/50 54/54/54
f 54/54/54 57/57/57 56/56/56
f 2/2/2 56/56/56 57/57/57
f 1/1/1 2/2/2 57/57/57
f 60/60/60 59/59/59 58/58/58
f 63/63/63 62/62/62 61/61/61
f 64/64/64 62/62/62 63/63/63
f 66/66/66 64/64/64 65/65/65
f 69/69/69 68/68/68 67/67/67
f 71/71/71 70/70/70 36/36/36
