g head
v 1.605309 1.047628 0.32
v 1.314367 0.7234234 0.32
v 1.164365 0.7449175 0.32
v 1.302324 1.112612 0.32
v 1.59874 1.478423 0.32
v 1.364924 1.517608 0.32
v 1.557266 1.708143 0.32
v 1.342351 1.710238 0.32
v 1.244037 1.921269 0.32
v 1.305957 1.947347 0.32
v 1.195779 1.900945 0.32
v 1.127437 1.712333 0.32
v 1.074514 1.566278 0.32
v 1.028282 1.171387 0.32
v 0.9394144 1.57437 0.32
v 0.8937446 1.187145 0.32
v 0.9790747 0.7714678 0.32
v 0.8539125 0.8494164 0.32
v 0.7728524 1.584346 0.32
v 0.7338942 1.205867 0.32
v 0.6889675 1.537553 0.32
v 0.6439508 1.675164 0.32
v 0.5852151 1.639203 0.32
v 0.4596833 1.426727 0.32
v 0.4626936 1.564187 0.32
v 0.3365832 1.4958 0.32
v 0.3418006 1.374812 0.32
v 0.4547171 1.199949 0.32
v 0.7061007 0.9414707 0.32
v 0.4553012 1.041255 0.32
v 0.06725091 1.190743 0.32
v 0.1892096 0.896104 0.32
v 0.3161186 1.484703 0.32
v 0.3411282 1.55574 0.32
v 0.3040424 1.553163 0.32
v 0.3684059 1.623822 0.32
v 0.3121759 1.639763 0.32
v 0.459827 1.685548 0.32
v 0.5273666 1.695879 0.32
v 0.4587084 1.732901 0.32
v 0.4899679 1.747265 0.32
v 0.4580759 1.759683 0.32
v 0.4783568 1.768969 0.32
v 0.1848951 1.544884 0.32
v 0.26 1.654554 0.32
v 0.09681669 1.365781 0.32
v 0.4125562 1.662697 0.32
v 0.3797744 1.699167 0.32
v 0.3640692 1.716639 0.32
v 0.5610695 1.733559 0.32
v 0.5212275 1.76163 0.32
v 0.1918871 1.673864 0.32
v 0.3370338 1.746716 0.32
v 0.1263824 1.540818 0.32
v 0.4571435 1.799161 0.32
v 0.4622282 1.799116 0.32
v 0.4980273 1.777976 0.32
v 0.4680944 1.799065 0.32
vt 0.9974761 0.173568
vt 0.9263971 0.01515722
vt 0.8897507 0.02565944
vt 0.9234549 0.2053195
vt 0.9958713 0.3840598
vt 0.9387485 0.4032061
vt 0.9857389 0.496304
vt 0.9332338 0.4973275
vt 0.909215 0.6004399
vt 0.9243425 0.6131818
vt 0.8974253 0.5905094
vt 0.8807287 0.498351
vt 0.8677995 0.4269866
vt 0.8565047 0.234038
vt 0.8347938 0.4309404
vt 0.8236363 0.2417375
vt 0.844483 0.03863233
vt 0.8139051 0.07671899
vt 0.7941016 0.4358151
vt 0.7845838 0.2508855
vt 0.773608 0.4129513
vt 0.7626101 0.4801901
vt 0.7482605 0.4626186
vt 0.7175924 0.3588002
vt 0.7183278 0.4259651
vt 0.6875181 0.3925505
vt 0.6887928 0.3334339
vt 0.716379 0.2479938
vt 0.7777936 0.1216979
vt 0.7165217 0.1704538
vt 0.6217185 0.2434956
vt 0.6515138 0.09953117
vt 0.6825185 0.3871281
vt 0.6886286 0.4218377
vt 0.6795683 0.4205785
vt 0.6952927 0.4551035
vt 0.6815553 0.4628924
vt 0.7176274 0.4852637
vt 0.7341278 0.4903113
vt 0.7173542 0.5084009
vt 0.7249911 0.5154196
vt 0.7171996 0.5214868
vt 0.7221544 0.5260241
vt 0.6504598 0.4165333
vt 0.6688085 0.4701197
vt 0.6289417 0.3290211
vt 0.7060789 0.4740984
vt 0.69807 0.491918
vt 0.6942332 0.500455
vt 0.7423617 0.5087223
vt 0.732628 0.5224382
vt 0.6521679 0.4795545
vt 0.6876283 0.515151
vt 0.6361648 0.4145467
vt 0.7169719 0.5407763
vt 0.718214 0.5407544
vt 0.7269599 0.5304248
vt 0.7196472 0.5407294
vn 0 0 1
vn 0 0 1
vn 0 0 1
vn 0 0 1
vn 0 0 1
vn 0 0 1
vn 0 0 1
vn 0 0 1
vn 0 0 1
vn 0 0 1
vn 0 0 1
vn 0 0 1
vn 0 0 1
vn 0 0 1
vn 0 0 1
vn 0 0 1
vn 0 0 1
vn 0 0 1
vn 0 0 1
vn 0 0 1
vn 0 0 1
vn 0 0 1
vn 0 0 1
vn 0 0 1
vn 0 0 1
vn 0 0 1
vn 0 0 1
vn 0 0 1
vn 0 0 1
vn 0 0 1
vn 0 0 1
vn 0 0 1
vn 0 0 1
vn 0 0 1
vn 0 0 1
vn 0 0 1
vn 0 0 1
vn 0 0 1
vn 0 0 1
vn 0 0 1
vn 0 0 1
vn 0 0 1
vn 0 0 1
vn 0 0 1
vn 0 0 1
vn 0 0 1
vn 0 0 1
vn 0 0 1
vn 0 0 1
vn 0 0 1
vn 0 0 1
vn 0 0 1
vn 0 0 1
vn 0 0 1
vn 0 0 1
vn 0 0 1
vn 0 0 1
vn 0 0 1
g head_0
f 3/3/3 2/2/2 1/1/1
f 4/4/4 3/3/3 1/1/1
f 4/4/4 1/1/1 5/5/5
f 6/6/6 4/4/4 5/5/5
f 6/6/6 5/5/5 7/7/7
f 8/8/8 6/6/6 7/7/7
f 9/9/9 8/8/8 7/7/7
f 10/10/10 9/9/9 7/7/7
f 9/9/9 11/11/11 8/8/8
f 11/11/11 12/12/12 8/8/8
f 8/8/8 12/12/12 6/6/6
f 12/12/12 13/13/13 6/6/6
f 6/6/6 13/13/13 4/4/4
f 13/13/13 14/14/14 4/4/4
f 4/4/4 14/14/14 3/3/3
f 13/13/13 15/15/15 14/14/14
f 15/15/15 16/16/16 14/14/14
f 14/14/14 16/16/16 17/17/17
f 14/14/14 17/17/17 3/3/3
f 16/16/16 18/18/18 17/17/17
f 15/15/15 19/19/19 16/16/16
f 19/19/19 20/20/20 16/16/16
f 16/16/16 20/20/20 18/18/18
f 19/19/19 21/21/21 20/20/20
f 19/19/19 22/22/22 21/21/21
f 22/22/22 23/23/23 21/21/21
f 21/21/21 23/23/23 24/24/24
f 21/21/21 24/24/24 20/20/20
f 23/23/23 25/25/25 24/24/24
f 25/25/25 26/26/26 24/24/24
f 26/26/26 27/27/27 24/24/24
f 28/28/28 24/24/24 27/27/27
f 24/24/24 28/28/28 20/20/20
f 20/20/20 28/28/28 29/29/29
f 20/20/20 29/29/29 18/18/18
f 28/28/28 30/30/30 29/29/29
f 28/28/28 31/31/31 30/30/30
f 31/31/31 28/28/28 27/27/27
f 31/31/31 32/32/32 30/30/30
f 27/27/27 26/26/26 33/33/33
f 27/27/27 33/33/33 31/31/31
f 33/33/33 26/26/26 34/34/34
f 34/34/34 26/26/26 25/25/25
f 35/35/35 33/33/33 34/34/34
f 34/34/34 36/36/36 35/35/35
f 36/36/36 34/34/34 25/25/25
f 36/36/36 37/37/37 35/35/35
f 38/38/38 25/25/25 23/23/23
f 36/36/36 25/25/25 38/38/38
f 39/39/39 38/38/38 23/23/23
f 40/40/40 38/38/38 39/39/39
f 41/41/41 40/40/40 39/39/39
f 42/42/42 40/40/40 41/41/41
f 43/43/43 42/42/42 41/41/41
f 35/35/35 37/37/37 44/44/44
f 35/35/35 44/44/44 33/33/33
f 37/37/37 45/45/45 44/44/44
f 44/44/44 46/46/46 33/33/33
f 33/33/33 46/46/46 31/31/31
f 47/47/47 36/36/36 38/38/38
f 36/36/36 47/47/47 37/37/37
f 38/38/38 40/40/40 48/48/48
f 47/47/47 38/38/38 48/48/48
f 47/47/47 48/48/48 37/37/37
f 37/37/37 48/48/48 45/45/45
f 40/40/40 42/42/42 49/49/49
f 48/48/48 40/40/40 49/49/49
f 48/48/48 49/49/49 45/45/45
f 41/41/41 39/39/39 50/50/50
f 50/50/50 39/39/39 22/22/22
f 39/39/39 23/23/23 22/22/22
f 51/51/51 41/41/41 50/50/50
f 43/43/43 41/41/41 51/51/51
f 45/45/45 49/49/49 52/52/52
f 49/49/49 53/53/53 52/52/52
f 49/49/49 42/42/42 53/53/53
f 45/45/45 52/52/52 54/54/54
f 44/44/44 45/45/45 54/54/54
f 44/44/44 54/54/54 46/46/46
f 42/42/42 55/55/55 53/53/53
f 55/55/55 42/42/42 43/43/43
f 56/56/56 55/55/55 43/43/43
f 57/57/57 43/43/43 51/51/51
f 56/56/56 43/43/43 57/57/57
f 58/58/58 56/56/56 57/57/57
