g head
v 1.211523 -0.03382837 0
v 1.838947 -0.117058 0
v 1.954188 -0.4051607 0
v 0.9938457 -0.3923562 0
v 2.043667 -0.5789017 0
v 0.9234206 -0.6740566 0
v 1.968177 -0.8600861 0
v 1.153903 -0.8917341 0
v 1.596358 -1.018595 0
vt 0.795983 0.4868413
vt 0.9492667 0.4464396
vt 0.9774208 0.3065874
vt 0.7428029 0.312803
vt 0.9992812 0.2222493
vt 0.7255976 0.1760587
vt 0.9808383 0.08575535
vt 0.7819059 0.07039267
vt 0.8900006 0.008811116
vn 0 0 1
vn 0 0 1
vn 0 0 1
vn 0 0 1
vn 0 0 1
vn 0 0 1
vn 0 0 1
vn 0 0 1
vn 0 0 1
g head_0
f 3/3/3 2/2/2 1/1/1
f 4/4/4 3/3/3 1/1/1
f 5/5/5 3/3/3 4/4/4
f 6/6/6 5/5/5 4/4/4
f 7/7/7 5/5/5 6/6/6
f 8/8/8 7/7/7 6/6/6
f 9/9/9 7/7/7 8/8/8
