g jaw
v 0.5291054 1.017469 0.256
v 0.7303479 0.8874571 0.256
v 0.402461 0.7068512 0.256
v 0.2446589 0.8636776 0.256
v 0.4860882 1.09565 0.256
v 0.7827007 1.175671 0.256
v 0.8400801 1.119825 0.256
v 0.7481997 1.210943 0.256
v 0.4753771 1.154773 0.256
v 0.1158298 1.068577 0.256
v 0.4624573 1.220386 0.256
v 0.09485087 1.152361 0.256
v 0.1567012 0.9510915 0.256
v 0.7120492 1.2479 0.256
v 0.9385774 1.023959 0.256
v 0.9540687 0.7097011 0.256
v 1.107947 0.8859544 0.256
v 0.6851983 0.5987167 0.256
v 0.9161407 0.5103916 0.256
v 1.222056 0.5953594 0.256
v 1.234634 0.7827282 0.256
vt 0.7158641 0.7444378
vt 0.7649956 0.6809554
vt 0.684945 0.5927689
vt 0.6464191 0.6693444
vt 0.7053618 0.782612
vt 0.777777 0.821685
vt 0.7917856 0.7944161
vt 0.7693539 0.8389072
vt 0.7027467 0.8114805
vt 0.6149666 0.769393
vt 0.6995926 0.8435184
vt 0.6098449 0.810303
vt 0.624945 0.712027
vt 0.7605281 0.856953
vt 0.8158329 0.7476065
vt 0.8196149 0.5941604
vt 0.8571828 0.6802217
vt 0.7539726 0.5399688
vt 0.8103551 0.4968414
vt 0.8850416 0.5383296
vt 0.8881123 0.6298182
vn 0 0 1
vn 0 0 1
vn 0 0 1
vn 0 0 1
vn 0 0 1
vn 0 0 1
vn 0 0 1
vn 0 0 1
vn 0 0 1
vn 0 0 1
vn 0 0 1
vn 0 0 1
vn 0 0 1
vn 0 0 1
vn 0 0 1
vn 0 0 1
vn 0 0 1
vn 0 0 1
vn 0 0 1
vn 0 0 1
vn 0 0 1
g jaw_0
f 3/3/3 2/2/2 1/1/1
f 4/4/4 3/3/3 1/1/1
f 4/4/4 1/1/1 5/5/5
f 6/6/6 5/5/5 1/1/1
f 7/7/7 6/6/6 1/1/1
f 7/7/7 1/1/1 2/2/2
f 6/6/6 8/8/8 5/5/5
f 8/8/8 9/9/9 5/5/5
f 5/5/5 9/9/9 10/10/10
f 10/10/10 9/9/9 11/11/11
f 12/12/12 10/10/10 11/11/11
f 13/13/13 5/5/5 10/10/10
f 13/13/13 4/4/4 5/5/5
f 14/14/14 11/11/11 9/9/9
f 8/8/8 14/14/14 9/9/9
f 15/15/15 7/7/7 2/2/2
f 15/15/15 2/2/2 16/16/16
f 17/17/17 15/15/15 16/16/16
f 18/18/18 16/16/16 2/2/2
f 18/18/18 19/19/19 16/16/16
f 19/19/19 20/20/20 16/16/16
f 17/17/17 16/16/16 20/20/20
f 21/21/21 17/17/17 20/20/20
f 3/3/3 18/18/18 2/2/2
