g legBR
v -1.927244 0.002791197 0.2
v -1.719195 -0.08726005 0.2
v -1.600673 -0.2145614 0.2
v -2.035927 -0.2083635 0.2
v -2.038394 -0.3162263 0.2
v -1.544693 -0.3210439 0.2
v -2.041103 -0.4347162 0.2
v -1.483199 -0.4380175 0.2
v -1.495619 -0.6244623 0.2
v -2.017296 -0.5934102 0.2
v -1.56016 -0.7517762 0.2
v -1.93656 -0.7083032 0.2
v -1.566627 -0.8237223 0.2
v -1.918567 -0.7697193 0.2
v -1.548408 -0.8542483 0.2
v -1.916234 -0.8035787 0.2
v -1.560829 -0.9629309 0.2
v -1.546223 -0.9668783 0.2
v -1.445936 -0.993983 0.2
v -1.433515 -0.87909 0.2
v -1.349674 -1.01572 0.2
v -1.349674 -0.87909 0.2
v -1.265833 -0.9132473 0.2
v -1.240992 -1.018825 0.2
v -1.914824 -0.851143 0.2
vt 0.02916175 0.5046173
vt 0.07998955 0.4609042
vt 0.1089453 0.399109
vt 0.002609849 0.4021176
vt 0.002007246 0.3497583
vt 0.1226214 0.3474197
vt 0.001345277 0.2922404
vt 0.137645 0.2906379
vt 0.1346105 0.200133
vt 0.007161617 0.2152064
vt 0.1188427 0.1383317
vt 0.02688587 0.1594346
vt 0.1172628 0.1034073
vt 0.03128171 0.1296216
vt 0.1217139 0.08858919
vt 0.03185165 0.1131855
vt 0.1186794 0.03583205
vt 0.1222476 0.03391582
vt 0.1467485 0.02075851
vt 0.149783 0.07653046
vt 0.1702659 0.01020706
vt 0.1702659 0.07653046
vt 0.1907487 0.05994964
vt 0.1968176 0.008699775
vt 0.03219628 0.09009659
vn 0 0 1
vn 0 0 1
vn 0 0 1
vn 0 0 1
vn 0 0 1
vn 0 0 1
vn 0 0 1
vn 0 0 1
vn 0 0 1
vn 0 0 1
vn 0 0 1
vn 0 0 1
vn 0 0 1
vn 0 0 1
vn 0 0 1
vn 0 0 1
vn 0 0 1
vn 0 0 1
vn 0 0 1
vn 0 0 1
vn 0 0 1
vn 0 0 1
vn 0 0 1
vn 0 0 1
vn 0 0 1
g legBR_0
f 3/3/3 2/2/2 1/1/1
f 4/4/4 3/3/3 1/1/1
f 3/3/3 4/4/4 5/5/5
f 6/6/6 3/3/3 5/5/5
f 6/6/6 5/5/5 7/7/7
f 8/8/8 6/6/6 7/7/7
f 9/9/9 8/8/8 7/7/7
f 10/10/10 9/9/9 7/7/7
f 11/11/11 9/9/9 10/10/10
f 12/12/12 11/11/11 10/10/10
f 13/13/13 11/11/11 12/12/12
f 14/14/14 13/13/13 12/12/12
f 15/15/15 13/13/13 14/14/14
f 16/16/16 15/15/15 14/14/14
f 15/15/15 16/16/16 17/17/17
f 17/17/17 18/18/18 15/15/15
f 15/15/15 18/18/18 19/19/19
f 20/20/20 15/15/15 19/19/19
f 20/20/20 19/19/19 21/21/21
f 22/22/22 20/20/20 21/21/21
f 23/23/23 22/22/22 21/21/21
f 21/21/21 24/24/24 23/23/23
f 16/16/16 25/25/25 17/17/17
