g legFR
v 0.04440829 0.5063316 0.128
v 0.2157982 0.5016036 0.128
v 0.2352363 0.1357554 0.128
v 0.02951962 0.1577627 0.128
v 0.4373047 0.1635105 0.128
v 0.3757704 0.4971906 0.128
v 0.4603249 0.03785414 0.128
v 0.2487358 -0.03495914 0.128
v 0.02384102 0.03556883 0.128
vt 0.4163724 0.2759202
vt 0.4582156 0.2736115
vt 0.4629613 0.0949747
vt 0.4127374 0.1057205
vt 0.5122943 0.108527
vt 0.4972714 0.2714567
vt 0.5179145 0.04717135
vt 0.466257 0.01161802
vt 0.4113511 0.0460555
vn 0 0 1
vn 0 0 1
vn 0 0 1
vn 0 0 1
vn 0 0 1
vn 0 0 1
vn 0 0 1
vn 0 0 1
vn 0 0 1
g legFR_0
f 3/3/3 2/2/2 1/1/1
f 4/4/4 3/3/3 1/1/1
f 3/3/3 5/5/5 2/2/2
f 5/5/5 6/6/6 2/2/2
f 7/7/7 5/5/5 3/3/3
f 8/8/8 7/7/7 3/3/3
f 8/8/8 3/3/3 4/4/4
f 9/9/9 8/8/8 4/4/4
