g legFR_lower
v 0.03030429 -0.988386 0
v 0.03901114 -0.8890386 0
v 0.2052419 -0.8720021 0
v 0.2277288 -0.9899719 0
v 0.1596907 -0.832217 0
v 0.05221384 -0.8458816 0
v 0.08657933 -0.4030024 0
v -0.05751095 -0.4256048 0
vt 0.5074035 0.01706195
vt 0.5095307 0.06560433
vt 0.5501419 0.07392859
vt 0.5556356 0.01628709
vt 0.5390135 0.09336817
vt 0.5127562 0.08669144
vt 0.5211519 0.3030878
vt 0.4859497 0.292044
vn 0 0 1
vn 0 0 1
vn 0 0 1
vn 0 0 1
vn 0 0 1
vn 0 0 1
vn 0 0 1
vn 0 0 1
g legFR_lower_0
f 3/3/3 2/2/2 1/1/1
f 4/4/4 3/3/3 1/1/1
f 3/3/3 5/5/5 2/2/2
f 5/5/5 6/6/6 2/2/2
f 5/5/5 7/7/7 6/6/6
f 7/7/7 8/8/8 6/6/6
