g legFLlower
v 0.2830434 -0.9603538 0
v 0.08722462 -0.9686278 0
v 0.05424122 -0.8363678 0
v 0.2065621 -0.8281707 0
v 0.1662742 -0.5209752 0
v -0.01502145 -0.4756513 0
v -0.09807971 -0.8445649 0
v -0.1484752 -0.5511912 0
v -0.07451199 -0.9754617 0
vt 0.5691494 0.03135949
vt 0.5213096 0.02731923
vt 0.5132515 0.09190309
vt 0.5504645 0.09590584
vt 0.5406219 0.2459124
vt 0.4963301 0.2680446
vt 0.4760385 0.08790034
vt 0.4637265 0.2311577
vt 0.4817963 0.02398217
vn 0 0 1
vn 0 0 1
vn 0 0 1
vn 0 0 1
vn 0 0 1
vn 0 0 1
vn 0 0 1
vn 0 0 1
vn 0 0 1
g legFLlower_0
f 3/3/3 2/2/2 1/1/1
f 4/4/4 3/3/3 1/1/1
f 4/4/4 5/5/5 3/3/3
f 5/5/5 6/6/6 3/3/3
f 3/3/3 6/6/6 7/7/7
f 3/3/3 7/7/7 2/2/2
f 6/6/6 8/8/8 7/7/7
f 7/7/7 9/9/9 2/2/2
