g mouth
v -0.8772404 -0.6012173 0
v -0.9556509 -0.5855351 0
v -0.9948562 -0.5188863 0
v -0.8739176 -0.5200499 0
v -0.7647604 -0.5211126 0
v -0.7929491 -0.5835749 0
v -0.7439426 -0.4463565 0
v -0.8710123 -0.4490795 0
v -0.7439426 -0.3718666 0
v -0.8679217 -0.3735852 0
v -1.016419 -0.4522373 0
v -1.01082 -0.3755661 0
v -0.7439426 -0.3150189 0
v -0.8654867 -0.3141051 0
v -1.004658 -0.3130587 0
vt 0.2856845 0.2062376
vt 0.2665283 0.2139
vt 0.2569502 0.2464656
vt 0.2864963 0.2458969
vt 0.3131641 0.2453777
vt 0.3062774 0.2148578
vt 0.31825 0.2819045
vt 0.2872061 0.280574
vt 0.31825 0.3183012
vt 0.2879611 0.3174615
vt 0.2516823 0.279031
vt 0.2530501 0.3164936
vt 0.31825 0.3460777
vt 0.288556 0.3465242
vt 0.2545557 0.3470355
vn 0 0 1
vn 0 0 1
vn 0 0 1
vn 0 0 1
vn 0 0 1
vn 0 0 1
vn 0 0 1
vn 0 0 1
vn 0 0 1
vn 0 0 1
vn 0 0 1
vn 0 0 1
vn 0 0 1
vn 0 0 1
vn 0 0 1
g mouth_0
f 3/3/3 2/2/2 1/1/1
f 4/4/4 3/3/3 1/1/1
f 5/5/5 4/4/4 1/1/1
f 6/6/6 5/5/5 1/1/1
f 5/5/5 7/7/7 4/4/4
f 7/7/7 8/8/8 4/4/4
f 4/4/4 8/8/8 3/3/3
f 7/7/7 9/9/9 8/8/8
f 9/9/9 10/10/10 8/8/8
f 8/8/8 10/10/10 11/11/11
f 8/8/8 11/11/11 3/3/3
f 10/10/10 12/12/12 11/11/11
f 9/9/9 13/13/13 10/10/10
f 13/13/13 14/14/14 10/10/10
f 10/10/10 14/14/14 12/12/12
f 14/14/14 15/15/15 12/12/12
