g mouthOpen
v -1.525108 0.2907536 0
v -1.139914 0.2768727 0
v -1.209319 0.1241834 0
v -1.507757 0.1380642 0
v -1.205848 0.07560042 0
v -1.479995 0.07386531 0
v -1.132974 0.02354723 0
v -1.452234 0.009666381 0
v -1.212789 -0.1152613 0
v -1.348127 -0.1117911 0
vt 0.1274062 0.6420659
vt 0.2215115 0.6352836
vt 0.2045556 0.5606776
vt 0.1316452 0.5674599
vt 0.2054034 0.5369394
vt 0.1384276 0.5360916
vt 0.2232071 0.5115055
vt 0.14521 0.5047231
vt 0.2037078 0.4436819
vt 0.1706438 0.4453775
vn 0 0 1
vn 0 0 1
vn 0 0 1
vn 0 0 1
vn 0 0 1
vn 0 0 1
vn 0 0 1
vn 0 0 1
vn 0 0 1
vn 0 0 1
g mouthOpen_0
f 3/3/3 2/2/2 1/1/1
f 4/4/4 3/3/3 1/1/1
f 5/5/5 3/3/3 4/4/4
f 6/6/6 5/5/5 4/4/4
f 7/7/7 5/5/5 6/6/6
f 8/8/8 7/7/7 6/6/6
f 9/9/9 7/7/7 8/8/8
f 10/10/10 9/9/9 8/8/8
