g nose
v 1.020293 -0.7894024 0
v 0.9693264 -0.9207399 0
v 0.8125055 -1.006992 0
v 0.786042 -0.8344885 0
v 0.5537509 -0.9305413 0
v 0.7595784 -0.6619854 0
v 0.5831548 -0.7854819 0
vt 0.7492642 0.1142879
vt 0.7368127 0.05011463
vt 0.6985004 0.007971048
vt 0.6920352 0.09225827
vt 0.6352849 0.04532564
vt 0.6855699 0.1765455
vt 0.6424685 0.1162035
vn 0 0 1
vn 0 0 1
vn 0 0 1
vn 0 0 1
vn 0 0 1
vn 0 0 1
vn 0 0 1
g nose_0
f 3/3/3 2/2/2 1/1/1
f 4/4/4 3/3/3 1/1/1
f 5/5/5 3/3/3 4/4/4
f 5/5/5 4/4/4 6/6/6
f 6/6/6 4/4/4 1/1/1
f 7/7/7 5/5/5 6/6/6
