g pigFlashEffect
v 0.445583 0.1316666 0
v 0.9169813 0.2689867 0
v 0.952769 0.1275043 0
v 0.4629382 0.06302627 0
v 0.4078571 0.2141103 0
v 0.8402731 0.4349916 0
v 0.9169813 0.2689867 0
v 0.445583 0.1316666 0
v 0.06911389 0.4369699 0
v 0.1422594 0.8974028 0
v 0.2925371 0.8549811 0
v 0.1414031 0.4204908 0
v -0.005000412 0.4425085 0
v -0.009421376 0.898605 0
v 0.1422594 0.8974028 0
v 0.06911389 0.4369699 0
v 0.06911372 -0.4516623 0
v 0.142259 -0.9323549 0
v -0.009421373 -0.9335576 0
v -0.005000412 -0.4572007 0
v 0.1414029 -0.435183 0
v 0.2909575 -0.8984553 0
v 0.142259 -0.9323549 0
v 0.06911372 -0.4516623 0
v 0.2100872 -0.4081695 0
v 0.4322596 -0.8428797 0
v 0.2909575 -0.8984553 0
v 0.1414029 -0.435183 0
v 0.2734753 -0.3712863 0
v 0.562691 -0.7669849 0
v 0.4322596 -0.8428797 0
v 0.2100872 -0.4081695 0
v 0.3300064 -0.3254413 0
v 0.6790397 -0.6726269 0
v 0.562691 -0.7669849 0
v 0.2734753 -0.3712863 0
v 0.3782886 -0.271764 0
v 0.7784352 -0.5621219 0
v 0.6790397 -0.6726269 0
v 0.3300064 -0.3254413 0
v 0.4171328 -0.2115757 0
v 0.8584218 -0.4381812 0
v 0.7784352 -0.5621219 0
v 0.3782886 -0.271764 0
v 0.4455827 -0.1463591 0
v 0.9170182 -0.3038559 0
v 0.8584218 -0.4381812 0
v 0.4171328 -0.2115757 0
v 0.462938 -0.07771879 0
v 0.9527683 -0.1624568 0
v 0.9170182 -0.3038559 0
v 0.4455827 -0.1463591 0
v 0.4687708 -0.00734626 0
v 0.9647853 -0.01747628 0
v 0.9527683 -0.1624568 0
v 0.462938 -0.07771879 0
v 0.4629382 0.06302627 0
v 0.952769 0.1275043 0
v 0.9647853 -0.01747628 0
v 0.4687708 -0.00734626 0
v 0.4194036 0.3068228 0
v 0.8642461 0.6218623 0
v 0.8402731 0.4349916 0
v 0.4078571 0.2141103 0
v 0.1414031 0.4204908 0
v 0.2925371 0.8549811 0
v 0.3980516 0.9540579 0
v 0.1946834 0.4692517 0
v 0.3648985 0.5005533 0
v 0.7481366 1.013847 0
v 0.8573514 0.7915806 0
v 0.4162278 0.3888081 0
v 0.2513414 0.4912575 0
v 0.5103974 0.9975477 0
v 0.7481366 1.013847 0
v 0.3648985 0.5005533 0
v 0.4162278 0.3888081 0
v 0.8573514 0.7915806 0
v 0.8642461 0.6218623 0
v 0.4194036 0.3068228 0
v 0.1946834 0.4692517 0
v 0.3980516 0.9540579 0
v 0.5103974 0.9975477 0
v 0.2513414 0.4912575 0
v -0.4729391 0.06302627 0
v -0.9530455 0.1241562 0
v -0.9181501 0.2622309 0
v -0.4555839 0.1316666 0
v -0.4555839 0.1316666 0
v -0.9181501 0.2622309 0
v -0.8412082 0.4320019 0
v -0.4178579 0.2141103 0
v -0.151404 0.4204908 0
v -0.3037334 0.8525569 0
v -0.1595926 0.8772511 0
v -0.07911471 0.4369699 0
v -0.07911471 0.4369699 0
v -0.1595926 0.8772511 0
v -0.009421376 0.898605 0
v -0.005000412 0.4425085 0
v -0.005000412 -0.4572007 0
v -0.009421373 -0.9335576 0
v -0.1595922 -0.9122023 0
v -0.07911454 -0.4516623 0
v -0.07911454 -0.4516623 0
v -0.1595922 -0.9122023 0
v -0.3053122 -0.878985 0
v -0.1514037 -0.435183 0
v -0.1514037 -0.435183 0
v -0.3053122 -0.878985 0
v -0.4437467 -0.8245398 0
v -0.220088 -0.4081695 0
v -0.220088 -0.4081695 0
v -0.4437467 -0.8245398 0
v -0.571482 -0.7502179 0
v -0.2834761 -0.3712863 0
v -0.2834761 -0.3712863 0
v -0.571482 -0.7502179 0
v -0.6853724 -0.6578586 0
v -0.3400072 -0.3254413 0
v -0.3400072 -0.3254413 0
v -0.6853724 -0.6578586 0
v -0.7826192 -0.5497483 0
v -0.3882894 -0.271764 0
v -0.3882894 -0.271764 0
v -0.7826192 -0.5497483 0
v -0.8608376 -0.4285552 0
v -0.4271336 -0.2115757 0
v -0.4271336 -0.2115757 0
v -0.8608376 -0.4285552 0
v -0.9181122 -0.2972657 0
v -0.4555836 -0.1463591 0
v -0.4555836 -0.1463591 0
v -0.9181122 -0.2972657 0
v -0.953045 -0.1591088 0
v -0.4729388 -0.07771879 0
v -0.4729388 -0.07771879 0
v -0.953045 -0.1591088 0
v -0.9647853 -0.01747628 0
v -0.4787716 -0.00734626 0
v -0.4787716 -0.00734626 0
v -0.9647853 -0.01747628 0
v -0.9530455 0.1241562 0
v -0.4729391 0.06302627 0
v -0.4178579 0.2141103 0
v -0.8412082 0.4320019 0
v -0.8642619 0.6227295 0
v -0.4294044 0.3068228 0
v -0.2046842 0.4692517 0
v -0.4152181 0.9520719 0
v -0.3037334 0.8525569 0
v -0.151404 0.4204908 0
v -0.4262286 0.3888081 0
v -0.8582217 0.7869194 0
v -0.7583834 1.019767 0
v -0.3748993 0.5005533 0
v -0.3748993 0.5005533 0
v -0.7583834 1.019767 0
v -0.5336285 0.9982076 0
v -0.2613422 0.4912575 0
v -0.4294044 0.3068228 0
v -0.8642619 0.6227295 0
v -0.8582217 0.7869194 0
v -0.4262286 0.3888081 0
v -0.2613422 0.4912575 0
v -0.5336285 0.9982076 0
v -0.4152181 0.9520719 0
v -0.2046842 0.4692517 0
vt 0 0
vt 0 1
vt 1 1
vt 1 0
vt 0 0
vt 0 1
vt 1 1
vt 1 0
vt 0 0
vt 0 1
vt 1 1
vt 1 0
vt 0 0
vt 0 1
vt 1 1
vt 1 0
vt 0 0
vt 0 1
vt 1 1
vt 1 0
vt 0 0
vt 0 1
vt 1 1
vt 1 0
vt 0 0
vt 0 1
vt 1 1
vt 1 0
vt 0 0
vt 0 1
vt 1 1
vt 1 0
vt 0 0
vt 0 1
vt 1 1
vt 1 0
vt 0 0
vt 0 1
vt 1 1
vt 1 0
vt 0 0
vt 0 1
vt 1 1
vt 1 0
vt 0 0
vt 0 1
vt 1 1
vt 1 0
vt 0 0
vt 0 1
vt 1 1
vt 1 0
vt 0 0
vt 0 1
vt 1 1
vt 1 0
vt 0 0
vt 0 1
vt 1 1
vt 1 0
vt 0 0
vt 0 1
vt 1 1
vt 1 0
vt 0 0
vt 0 1
vt 1 1
vt 1 0
vt 0 0
vt 0 1
vt 1 1
vt 1 0
vt 0 0
vt 0 1
vt 1 1
vt 1 0
vt 0 0
vt 0 1
vt 1 1
vt 1 0
vt 0 0
vt 0 1
vt 1 1
vt 1 0
vt 0 0
vt 0 1
vt 1 1
vt 1 0
vt 0 0
vt 0 1
vt 1 1
vt 1 0
vt 0 0
vt 0 1
vt 1 1
vt 1 0
vt 0 0
vt 0 1
vt 1 1
vt 1 0
vt 0 0
vt 0 1
vt 1 1
vt 1 0
vt 0 0
vt 0 1
vt 1 1
vt 1 0
vt 0 0
vt 0 1
vt 1 1
vt 1 0
vt 0 0
vt 0 1
vt 1 1
vt 1 0
vt 0 0
vt 0 1
vt 1 1
vt 1 0
vt 0 0
vt 0 1
vt 1 1
vt 1 0
vt 0 0
vt 0 1
vt 1 1
vt 1 0
vt 0 0
vt 0 1
vt 1 1
vt 1 0
vt 0 0
vt 0 1
vt 1 1
vt 1 0
vt 0 0
vt 0 1
vt 1 1
vt 1 0
vt 0 0
vt 0 1
vt 1 1
vt 1 0
vt 0 0
vt 0 1
vt 1 1
vt 1 0
vt 0 0
vt 0 1
vt 1 1
vt 1 0
vt 0 0
vt 0 1
vt 1 1
vt 1 0
vt 0 0
vt 0 1
vt 1 1
vt 1 0
vt 0 0
vt 0 1
vt 1 1
vt 1 0
vt 0 0
vt 0 1
vt 1 1
vt 1 0
vn 0 0 1
vn 0 0 1
vn 0 0 1
vn 0 0 1
vn 0 0 1
vn 0 0 1
vn 0 0 1
vn 0 0 1
vn 0 0 1
vn 0 0 1
vn 0 0 1
vn 0 0 1
vn 0 0 1
vn 0 0 1
vn 0 0 1
vn 0 0 1
vn 0 0 1
vn 0 0 1
vn 0 0 1
vn 0 0 1
vn 0 0 1
vn 0 0 1
vn 0 0 1
vn 0 0 1
vn 0 0 1
vn 0 0 1
vn 0 0 1
vn 0 0 1
vn 0 0 1
vn 0 0 1
vn 0 0 1
vn 0 0 1
vn 0 0 1
vn 0 0 1
vn 0 0 1
vn 0 0 1
vn 0 0 1
vn 0 0 1
vn 0 0 1
vn 0 0 1
vn 0 0 1
vn 0 0 1
vn 0 0 1
vn 0 0 1
vn 0 0 1
vn 0 0 1
vn 0 0 1
vn 0 0 1
vn 0 0 1
vn 0 0 1
vn 0 0 1
vn 0 0 1
vn 0 0 1
vn 0 0 1
vn 0 0 1
vn 0 0 1
vn 0 0 1
vn 0 0 1
vn 0 0 1
vn 0 0 1
vn 0 0 1
vn 0 0 1
vn 0 0 1
vn 0 0 1
vn 0 0 1
vn 0 0 1
vn 0 0 1
vn 0 0 1
vn 0 0 1
vn 0 0 1
vn 0 0 1
vn 0 0 1
vn 0 0 1
vn 0 0 1
vn 0 0 1
vn 0 0 1
vn 0 0 1
vn 0 0 1
vn 0 0 1
vn 0 0 1
vn 0 0 1
vn 0 0 1
vn 0 0 1
vn 0 0 1
vn 0 0 1
vn 0 0 1
vn 0 0 1
vn 0 0 1
vn 0 0 1
vn 0 0 1
vn 0 0 1
vn 0 0 1
vn 0 0 1
vn 0 0 1
vn 0 0 1
vn 0 0 1
vn 0 0 1
vn 0 0 1
vn 0 0 1
vn 0 0 1
vn 0 0 1
vn 0 0 1
vn 0 0 1
vn 0 0 1
vn 0 0 1
vn 0 0 1
vn 0 0 1
vn 0 0 1
vn 0 0 1
vn 0 0 1
vn 0 0 1
vn 0 0 1
vn 0 0 1
vn 0 0 1
vn 0 0 1
vn 0 0 1
vn 0 0 1
vn 0 0 1
vn 0 0 1
vn 0 0 1
vn 0 0 1
vn 0 0 1
vn 0 0 1
vn 0 0 1
vn 0 0 1
vn 0 0 1
vn 0 0 1
vn 0 0 1
vn 0 0 1
vn 0 0 1
vn 0 0 1
vn 0 0 1
vn 0 0 1
vn 0 0 1
vn 0 0 1
vn 0 0 1
vn 0 0 1
vn 0 0 1
vn 0 0 1
vn 0 0 1
vn 0 0 1
vn 0 0 1
vn 0 0 1
vn 0 0 1
vn 0 0 1
vn 0 0 1
vn 0 0 1
vn 0 0 1
vn 0 0 1
vn 0 0 1
vn 0 0 1
vn 0 0 1
vn 0 0 1
vn 0 0 1
vn 0 0 1
vn 0 0 1
vn 0 0 1
vn 0 0 1
vn 0 0 1
vn 0 0 1
vn 0 0 1
vn 0 0 1
vn 0 0 1
vn 0 0 1
vn 0 0 1
vn 0 0 1
vn 0 0 1
vn 0 0 1
g pigFlashEffect_0
f 3/3/3 2/2/2 1/1/1
f 4/4/4 3/3/3 1/1/1
f 7/7/7 6/6/6 5/5/5
f 8/8/8 7/7/7 5/5/5
f 11/11/11 10/10/10 9/9/9
f 12/12/12 11/11/11 9/9/9
f 15/15/15 14/14/14 13/13/13
f 16/16/16 15/15/15 13/13/13
f 19/19/19 18/18/18 17/17/17
f 20/20/20 19/19/19 17/17/17
f 23/23/23 22/22/22 21/21/21
f 24/24/24 23/23/23 21/21/21
f 27/27/27 26/26/26 25/25/25
f 28/28/28 27/27/27 25/25/25
f 31/31/31 30/30/30 29/29/29
f 32/32/32 31/31/31 29/29/29
f 35/35/35 34/34/34 33/33/33
f 36/36/36 35/35/35 33/33/33
f 39/39/39 38/38/38 37/37/37
f 40/40/40 39/39/39 37/37/37
f 43/43/43 42/42/42 41/41/41
f 44/44/44 43/43/43 41/41/41
f 47/47/47 46/46/46 45/45/45
f 48/48/48 47/47/47 45/45/45
f 51/51/51 50/50/50 49/49/49
f 52/52/52 51/51/51 49/49/49
f 55/55/55 54/54/54 53/53/53
f 56/56/56 55/55/55 53/53/53
f 59/59/59 58/58/58 57/57/57
f 60/60/60 59/59/59 57/57/57
f 63/63/63 62/62/62 61/61/61
f 64/64/64 63/63/63 61/61/61
f 67/67/67 66/66/66 65/65/65
f 68/68/68 67/67/67 65/65/65
f 71/71/71 70/70/70 69/69/69
f 72/72/72 71/71/71 69/69/69
f 75/75/75 74/74/74 73/73/73
f 76/76/76 75/75/75 73/73/73
f 79/79/79 78/78/78 77/77/77
f 80/80/80 79/79/79 77/77/77
f 83/83/83 82/82/82 81/81/81
f 84/84/84 83/83/83 81/81/81
f 87/87/87 86/86/86 85/85/85
f 88/88/88 87/87/87 85/85/85
f 91/91/91 90/90/90 89/89/89
f 92/92/92 91/91/91 89/89/89
f 95/95/95 94/94/94 93/93/93
f 96/96/96 95/95/95 93/93/93
f 99/99/99 98/98/98 97/97/97
f 100/100/100 99/99/99 97/97/97
f 103/103/103 102/102/102 101/101/101
f 104/104/104 103/103/103 101/101/101
f 107/107/107 106/106/106 105/105/105
f 108/108/108 107/107/107 105/105/105
f 111/111/111 110/110/110 109/109/109
f 112/112/112 111/111/111 109/109/109
f 115/115/115 114/114/114 113/113/113
f 116/116/116 115/115/115 113/113/113
f 119/119/119 118/118/118 117/117/117
f 120/120/120 119/119/119 117/117/117
f 123/123/123 122/122/122 121/121/121
f 124/124/124 123/123/123 121/121/121
f 127/127/127 126/126/126 125/125/125
f 128/128/128 127/127/127 125/125/125
f 131/131/131 130/130/130 129/129/129
f 132/132/132 131/131/131 129/129/129
f 135/135/135 134/134/134 133/133/133
f 136/136/136 135/135/135 133/133/133
f 139/139/139 138/138/138 137/137/137
f 140/140/140 139/139/139 137/137/137
f 143/143/143 142/142/142 141/141/141
f 144/144/144 143/143/143 141/141/141
f 147/147/147 146/146/146 145/145/145
f 148/148/148 147/147/147 145/145/145
f 151/151/151 150/150/150 149/149/149
f 152/152/152 151/151/151 149/149/149
f 155/155/155 154/154/154 153/153/153
f 156/156/156 155/155/155 153/153/153
f 159/159/159 158/158/158 157/157/157
f 160/160/160 159/159/159 157/157/157
f 163/163/163 162/162/162 161/161/161
f 164/164/164 163/163/163 161/161/161
f 167/167/167 166/166/166 165/165/165
f 168/168/168 167/167/167 165/165/165
