g Plane
v 4.365592 1.507578 0
v 4.208408 2.973125 0
v 4.559315 2.644042 0
v 4.78002 1.358541 0
v 4.506905 0.09259316 0
v 4.854484 0.09259316 0
v 4.590045 -1.443939 0
v 4.921435 -1.204248 0
v 4.617617 -3.044174 0
v 4.932518 -2.370296 0
v 4.048332 -3.374787 0
v 4.016249 -1.642035 0
v 3.949863 0.09259316 0
v 3.861509 1.615528 0
v 3.795428 3.181324 0
v 3.475364 1.679031 0
v 3.422124 3.232556 0
v 1.476796 1.679031 0
v 1.465679 3.376096 0
v 1.487743 0.09259316 0
v 3.485388 0.09259316 0
v 1.514945 -1.746231 0
v 3.498871 -1.660107 0
v 1.546566 -3.418138 0
v 3.514544 -3.418138 0
v -1.327531 -3.418138 0
v -1.382442 -1.746231 0
v -3.422932 -3.418138 0
v -3.494824 -1.645754 0
v -3.967574 -3.403629 0
v -4.017909 -1.608495 0
v -3.55667 0.09259316 0
v -4.000768 0.09259316 0
v -3.56995 1.679031 0
v -3.971667 1.632202 0
v -3.482958 3.218202 0
v -3.951224 3.099352 0
v -1.441978 1.679031 0
v -1.429681 0.09259316 0
v -1.454464 3.376096 0
v -4.554428 -3.197754 0
v -4.471249 -1.514961 0
v -5.00524 -2.628668 0
v -4.971232 -1.165836 0
v -4.428715 0.09259316 0
v -4.898915 0.09259316 0
v -4.391591 1.484441 0
v -4.802658 1.301565 0
v -4.295811 2.897785 0
v -4.603328 2.52921 0
vt 0.9428787 0.4956575
vt 0.9270644 0.6431055
vt 0.962369 0.6099966
vt 0.9845743 0.480663
vt 0.9570962 0.3532964
vt 0.9920661 0.3532964
vt 0.9654611 0.1987064
vt 0.9988021 0.2228217
vt 0.9682351 0.03770715
vt 0.9999173 0.1055058
vt 0.9109596 0.00444429
vt 0.9077317 0.178776
vt 0.9010525 0.3532963
vt 0.8921632 0.5065182
vt 0.8855147 0.6640522
vt 0.8533133 0.5129072
vt 0.8479567 0.6692066
vt 0.652238 0.5129071
vt 0.6511196 0.6836481
vt 0.6533395 0.3532962
vt 0.8543218 0.3532963
vt 0.6560764 0.1682927
vt 0.8556785 0.1769577
vt 0.6592577 8.269518E-05
vt 0.8572553 8.269518E-05
vt 0.3700958 8.267119E-05
vt 0.3645712 0.1682927
vt 0.1592782 8.271916E-05
vt 0.1520452 0.1784018
vt 0.1044819 0.001542509
vt 0.09941776 0.1821503
vt 0.1458229 0.3532962
vt 0.1011424 0.3532962
vt 0.1444868 0.5129071
vt 0.1040703 0.5081957
vt 0.1532391 0.6677625
vt 0.1061271 0.6558051
vt 0.3585813 0.5129071
vt 0.3598185 0.3532962
vt 0.3573251 0.6836481
vt 0.04543866 0.02225554
vt 0.05380737 0.1915607
vt 8.267119E-05 0.07951108
vt 0.003504208 0.2266861
vt 0.05808678 0.3532962
vt 0.01078011 0.3532962
vt 0.06182193 0.4933295
vt 0.02046451 0.4749305
vt 0.07145831 0.6355255
vt 0.04051912 0.5984434
vn 0 0 1
vn 0 0 1
vn 0 0 1
vn 0 0 1
vn 0 0 1
vn 0 0 1
vn 0 0 1
vn 0 0 1
vn 0 0 1
vn 0 0 1
vn 0 0 1
vn 0 0 1
vn 0 0 1
vn 0 0 1
vn 0 0 1
vn 0 0 1
vn 0 0 1
vn 0 0 1
vn 0 0 1
vn 0 0 1
vn 0 0 1
vn 0 0 1
vn 0 0 1
vn 0 0 1
vn 0 0 1
vn 0 0 1
vn 0 0 1
vn 0 0 1
vn 0 0 1
vn 0 0 1
vn 0 0 1
vn 0 0 1
vn 0 0 1
vn 0 0 1
vn 0 0 1
vn 0 0 1
vn 0 0 1
vn 0 0 1
vn 0 0 1
vn 0 0 1
vn 0 0 1
vn 0 0 1
vn 0 0 1
vn 0 0 1
vn 0 0 1
vn 0 0 1
vn 0 0 1
vn 0 0 1
vn 0 0 1
vn 0 0 1
g Plane_0
f 3/3/3 2/2/2 1/1/1
f 4/4/4 3/3/3 1/1/1
f 4/4/4 1/1/1 5/5/5
f 6/6/6 4/4/4 5/5/5
f 6/6/6 5/5/5 7/7/7
f 8/8/8 6/6/6 7/7/7
f 8/8/8 7/7/7 9/9/9
f 10/10/10 8/8/8 9/9/9
f 9/9/9 7/7/7 11/11/11
f 7/7/7 12/12/12 11/11/11
f 7/7/7 5/5/5 12/12/12
f 5/5/5 1/1/1 13/13/13
f 5/5/5 13/13/13 12/12/12
f 1/1/1 14/14/14 13/13/13
f 1/1/1 2/2/2 14/14/14
f 2/2/2 15/15/15 14/14/14
f 14/14/14 15/15/15 16/16/16
f 15/15/15 17/17/17 16/16/16
f 16/16/16 17/17/17 18/18/18
f 17/17/17 19/19/19 18/18/18
f 16/16/16 18/18/18 20/20/20
f 21/21/21 16/16/16 20/20/20
f 14/14/14 16/16/16 21/21/21
f 13/13/13 14/14/14 21/21/21
f 21/21/21 20/20/20 22/22/22
f 23/23/23 21/21/21 22/22/22
f 13/13/13 21/21/21 23/23/23
f 12/12/12 13/13/13 23/23/23
f 23/23/23 22/22/22 24/24/24
f 25/25/25 23/23/23 24/24/24
f 12/12/12 23/23/23 25/25/25
f 11/11/11 12/12/12 25/25/25
f 24/24/24 22/22/22 26/26/26
f 22/22/22 27/27/27 26/26/26
f 22/22/22 20/20/20 27/27/27
f 26/26/26 27/27/27 28/28/28
f 27/27/27 29/29/29 28/28/28
f 28/28/28 29/29/29 30/30/30
f 29/29/29 31/31/31 30/30/30
f 29/29/29 32/32/32 31/31/31
f 32/32/32 33/33/33 31/31/31
f 32/32/32 34/34/34 33/33/33
f 34/34/34 35/35/35 33/33/33
f 34/34/34 36/36/36 35/35/35
f 36/36/36 37/37/37 35/35/35
f 38/38/38 34/34/34 32/32/32
f 39/39/39 38/38/38 32/32/32
f 39/39/39 32/32/32 29/29/29
f 27/27/27 39/39/39 29/29/29
f 40/40/40 36/36/36 34/34/34
f 38/38/38 40/40/40 34/34/34
f 18/18/18 38/38/38 39/39/39
f 20/20/20 18/18/18 39/39/39
f 20/20/20 39/39/39 27/27/27
f 19/19/19 40/40/40 38/38/38
f 18/18/18 19/19/19 38/38/38
f 30/30/30 31/31/31 41/41/41
f 31/31/31 42/42/42 41/41/41
f 31/31/31 33/33/33 42/42/42
f 41/41/41 42/42/42 43/43/43
f 42/42/42 44/44/44 43/43/43
f 42/42/42 45/45/45 44/44/44
f 33/33/33 35/35/35 45/45/45
f 33/33/33 45/45/45 42/42/42
f 45/45/45 46/46/46 44/44/44
f 45/45/45 47/47/47 46/46/46
f 35/35/35 47/47/47 45/45/45
f 35/35/35 37/37/37 47/47/47
f 47/47/47 48/48/48 46/46/46
f 47/47/47 49/49/49 48/48/48
f 37/37/37 49/49/49 47/47/47
f 49/49/49 50/50/50 48/48/48
