g polySurface1
v 0.006124088 0.001989837 0.0002231919
v 0.005813659 0.001888972 0.0004282749
v 0.004945393 0.003593039 0.0004282749
v 0.00520946 0.003784894 0.0002231919
v 0.003593039 0.004945393 0.0004282749
v 0.003784894 0.005209459 0.0002231919
v 0.001888972 0.005813658 0.0004282749
v 0.001989837 0.006124086 0.0002231919
v 5.198268E-12 0.006112841 0.0004282749
v 1.809477E-12 0.006439246 0.0002231919
v -0.001888972 0.005813658 0.0004282749
v -0.001989837 0.006124086 0.0002231919
v -0.003593038 0.004945393 0.0004282749
v -0.003784893 0.005209459 0.0002231919
v -0.004945392 0.003593037 0.0004282749
v -0.005209458 0.003784892 0.0002231919
v -0.005813657 0.001888972 0.0004282749
v -0.006124085 0.001989836 0.0002231919
v -0.00611284 -6.497839E-12 0.0004282749
v -0.006439243 -3.077992E-12 0.0002231919
v -0.005813657 -0.001888972 0.0004282749
v -0.006124085 -0.001989836 0.0002231919
v -0.004945392 -0.003593037 0.0004282749
v -0.005209457 -0.003784892 0.000223192
v -0.003593037 -0.004945391 0.0004282749
v -0.003784892 -0.005209457 0.0002231919
v -0.001888972 -0.005813656 0.0004282749
v -0.001989836 -0.006124083 0.000223192
v -1.769785E-10 -0.00611284 0.0004282749
v -1.900949E-10 -0.006439243 0.0002231919
v 0.001888971 -0.005813656 0.0004282749
v 0.001989835 -0.006124083 0.000223192
v 0.003593037 -0.004945391 0.0004282749
v 0.003784892 -0.005209457 0.0002231919
v 0.004945391 -0.003593037 0.0004282749
v 0.005209456 -0.003784892 0.000223192
v 0.005813655 -0.001888971 0.0004282749
v 0.006124083 -0.001989835 0.0002231919
v 0.006112839 -6.497839E-12 0.0004282749
v 0.006439242 -3.077993E-12 0.000223192
v -1.661643E-10 -0.005653389 0.0005684129
v 0.001746993 -0.005376692 0.0005684129
v 0.003322978 -0.004573687 0.0005684129
v 0.004573687 -0.003322979 0.0005684129
v 0.005376692 -0.001746993 0.0005684129
v 0.005653388 -2.899684E-12 0.0005684129
v 0.005376695 0.001746994 0.0005684129
v 0.00457369 0.00332298 0.0005684129
v 0.00332298 0.004573689 0.0005684129
v 0.001746994 0.005376694 0.0005684129
v 2.319745E-12 0.005653391 0.0005684129
v -0.001746994 0.005376693 0.0005684129
v -0.003322979 0.004573688 0.0005684129
v -0.004573688 0.003322979 0.0005684129
v -0.005376693 0.001746993 0.0005684129
v -0.00565339 -2.899684E-12 0.0005684129
v -0.005376693 -0.001746993 0.0005684129
v -0.004573688 -0.003322979 0.0005684129
v -0.003322979 -0.004573687 0.0005684129
v -0.001746993 -0.005376692 0.0005684129
v -0.003037593 0.00220694 0.000823146
v -0.00220694 0.003037593 0.000823146
v -0.001160257 0.003570904 0.000823146
v 3.033076E-12 0.003754671 0.000823146
v 0.001160257 0.003570905 0.000823146
v 0.00220694 0.003037594 0.000823146
v 0.003037594 0.00220694 0.000823146
v 0.003570905 0.001160257 0.000823146
v -0.001194606 0.002063099 0.0009463146
v -0.002072283 0.001201094 0.0009463146
v -0.003570904 0.001160257 0.000823146
v -0.00375467 1.278171E-10 0.000823146
v -0.003570904 -0.001160257 0.000823146
v -0.003037593 -0.002206939 0.000823146
v -0.00220694 -0.003037592 0.000823146
v -0.001160257 -0.003570904 0.000823146
v -1.088648E-10 -0.003754669 0.000823146
v 0.001160256 -0.003570904 0.000823146
v 0.002206939 -0.003037592 0.000823146
v 0.003037592 -0.002206939 0.000823146
v 0.003570904 -0.001160256 0.000823146
v 0.003754669 1.278171E-10 0.000823146
v 0.002182127 -0.0007658454 0.0009463146
v 0.002384148 7.660451E-11 0.0009463146
v 0.002168673 0.0007658455 0.0009463146
v 0.002072282 -0.001160731 0.0009463145
v 0.001214548 -0.002085737 0.0009463146
v 0.0007658454 -0.002182127 0.0009463146
v -8.743457E-11 -0.002411057 0.0009463146
v -0.0007658455 -0.002168672 0.0009463146
v -0.001201094 -0.002085737 0.0009463146
v -0.002072283 -0.00118764 0.0009463145
v -0.002195581 -0.0007658454 0.0009463146
v -0.002397604 7.660451E-11 0.0009463146
v -0.002182127 0.0007658455 0.0009463146
v 0.006124088 0.001989837 0.0002231919
v 0.00520946 0.003784894 0.0002231919
v 0.005237199 0.003805048 0.0002192412
v 0.006156696 0.002000432 0.0002192412
v 0.006439242 -3.077993E-12 0.000223192
v 0.006473529 -2.76546E-12 0.0002192412
v 0.003805048 0.005237198 0.0002192412
v 0.003784894 0.005209459 0.0002231919
v 0.002000432 0.006156696 0.0002192412
v 0.001989837 0.006124086 0.0002231919
v 1.561804E-12 0.006473533 0.0002192412
v 1.809477E-12 0.006439246 0.0002231919
v -0.002000432 0.006156696 0.0002192412
v -0.001989837 0.006124086 0.0002231919
v -0.003805047 0.005237197 0.0002192412
v -0.003784893 0.005209459 0.0002231919
v -0.005237197 0.003805046 0.0002192412
v -0.005209458 0.003784892 0.0002231919
v -0.006156694 0.002000431 0.0002192412
v -0.006124085 0.001989836 0.0002231919
v -0.006473531 -2.76546E-12 0.0002192412
v -0.006439243 -3.077992E-12 0.0002231919
v -0.006156694 -0.002000431 0.0002192412
v -0.006124085 -0.001989836 0.0002231919
v -0.005237196 -0.003805046 0.0002192412
v -0.005209457 -0.003784892 0.000223192
v -0.003805046 -0.005237196 0.0002192412
v -0.003784892 -0.005209457 0.0002231919
v -0.002000431 -0.006156692 0.0002192411
v -0.001989836 -0.006124083 0.000223192
v -1.913644E-10 -0.006473531 0.0002192412
v -1.900949E-10 -0.006439243 0.0002231919
v 0.00200043 -0.006156692 0.0002192412
v 0.001989835 -0.006124083 0.000223192
v 0.003805046 -0.005237195 0.0002192412
v 0.003784892 -0.005209457 0.0002231919
v 0.005237195 -0.003805046 0.0002192412
v 0.005209456 -0.003784892 0.000223192
v 0.006156692 -0.002000431 0.0002192412
v 0.006124083 -0.001989835 0.0002231919
v -0.0007658455 0.002195581 0.0009463146
v -1.357467E-11 0.002370696 0.0009463146
v 0.0007658455 0.002182127 0.0009463146
v 0.00118764 0.002072284 0.0009463146
v 0.002072283 0.001201095 0.0009463147
vt 0.9980669 0.4275612
vt 0.9683297 0.4319418
vt 0.9664117 0.5800325
vt 0.9960525 0.5850682
vt 0.9188284 0.7202872
vt 0.9454597 0.7342366
vt 0.8302308 0.8389626
vt 0.8512464 0.8604583
vt 0.7093015 0.9244439
vt 0.7226445 0.9513806
vt 0.5678816 0.968368
vt 0.5722471 0.9981084
vt 0.4198143 0.966441
vt 0.4147762 0.9960738
vt 0.2795961 0.918855
vt 0.2656482 0.9454796
vt 0.1609474 0.8302713
vt 0.1394556 0.8512825
vt 0.07547811 0.709362
vt 0.04854569 0.7227041
vt 0.03155234 0.56796
vt 0.001815051 0.5723267
vt 0.03347036 0.419903
vt 0.003838927 0.4148671
vt 0.08104539 0.2796873
vt 0.05442095 0.2657413
vt 0.1696208 0.1610368
vt 0.1486089 0.1395463
vt 0.2905234 0.0755645
vt 0.2771809 0.04863328
vt 0.4319188 0.0316366
vt 0.4275516 0.001900703
vt 0.5799672 0.03355137
vt 0.5850023 0.003921866
vt 0.720174 0.08112004
vt 0.7341179 0.0544979
vt 0.8388135 0.169682
vt 0.8602995 0.1486729
vt 0.9242721 0.2905763
vt 0.9512008 0.277223
vt 0.3070407 0.1089533
vt 0.4373099 0.06849498
vt 0.5737052 0.07027099
vt 0.7028724 0.1141064
vt 0.8121698 0.1957051
vt 0.8908938 0.3070558
vt 0.9314291 0.4373108
vt 0.9296762 0.57377
vt 0.8858312 0.7029794
vt 0.8041996 0.8123055
vt 0.6927832 0.8910487
vt 0.5624924 0.9315041
vt 0.4260797 0.9297175
vt 0.296903 0.8858662
vt 0.1876006 0.8042451
vt 0.1088686 0.6928455
vt 0.0684129 0.5625696
vt 0.07019207 0.4261661
vt 0.1140342 0.2969916
vt 0.1956474 0.1876878
vt 0.3656312 0.755461
vt 0.4511402 0.7844546
vt 0.5414398 0.7855952
vt 0.6276696 0.7587863
vt 0.7013921 0.7066364
vt 0.7554064 0.6342506
vt 0.7843882 0.5487242
vt 0.7855123 0.4584162
vt 0.4877843 0.6825298
vt 0.398122 0.6530336
vt 0.2932612 0.7014551
vt 0.2411179 0.6277398
vt 0.2143106 0.5415156
vt 0.2154481 0.4512196
vt 0.2444363 0.3657105
vt 0.2984388 0.293338
vt 0.3721498 0.2411928
vt 0.4583684 0.2143833
vt 0.548657 0.21552
vt 0.6341632 0.2444986
vt 0.706534 0.2984969
vt 0.7586836 0.3721977
vt 0.6240369 0.3731483
vt 0.6639567 0.4189795
vt 0.6751525 0.4789985
vt 0.6030588 0.3497069
vt 0.5126381 0.3152013
vt 0.4784799 0.3238118
vt 0.4180055 0.3340759
vt 0.3735402 0.3767698
vt 0.3464025 0.3972719
vt 0.3169793 0.4886524
vt 0.3228235 0.5218708
vt 0.3349335 0.5814331
vt 0.3757713 0.6268139
vt 0.9980669 0.4275612
vt 0.9960525 0.5850682
vt 0.9987938 0.5855373
vt 1.000819 0.4271591
vt 0.9512008 0.277223
vt 0.9536928 0.2759908
vt 0.9479216 0.7355301
vt 0.9454597 0.7342366
vt 0.8531879 0.8624493
vt 0.8512464 0.8604583
vt 0.7238759 0.953874
vt 0.7226445 0.9513806
vt 0.5726476 1.00086
vt 0.5722471 0.9981084
vt 0.4143068 0.9988145
vt 0.4147762 0.9960738
vt 0.2643549 0.9479409
vt 0.2656482 0.9454796
vt 0.137465 0.8532239
vt 0.1394556 0.8512825
vt 0.04605258 0.7239354
vt 0.04854569 0.7227041
vt -0.0009362996 0.5727274
vt 0.001815051 0.5723267
vt 0.001098216 0.414398
vt 0.003838927 0.4148671
vt 0.05195943 0.2644483
vt 0.05442095 0.2657413
vt 0.1466676 0.137556
vt 0.1486089 0.1395463
vt 0.2759494 0.04614043
vt 0.2771809 0.04863328
vt 0.4271508 -0.0008505583
vt 0.4275516 0.001900703
vt 0.5854714 0.001181483
vt 0.5850023 0.003921866
vt 0.7354107 0.0520367
vt 0.7341179 0.0544979
vt 0.8622894 0.1467318
vt 0.8602995 0.1486729
vt 0.5217918 0.6770822
vt 0.5804412 0.6631185
vt 0.6267359 0.6241248
vt 0.6520317 0.6022295
vt 0.6833088 0.5122367
vn 0.505975 0.1644005 0.8467359
vn 0.3967062 0.1288961 0.9088509
vn 0.3374574 0.2451782 0.908851
vn 0.4304078 0.3127096 0.8467361
vn 0.245177 0.3374585 0.9088509
vn 0.3127095 0.4304079 0.846736
vn 0.1288968 0.3967058 0.908851
vn 0.1644011 0.5059745 0.8467361
vn -6.980263E-07 0.4171207 0.908851
vn 0 0.5320127 0.8467363
vn -0.1288982 0.3967053 0.908851
vn -0.1644013 0.5059745 0.8467361
vn -0.2451783 0.3374576 0.908851
vn -0.3127099 0.4304078 0.8467359
vn -0.3374586 0.245177 0.9088508
vn -0.4304082 0.3127097 0.8467358
vn -0.3967062 0.1288969 0.9088508
vn -0.5059752 0.1644013 0.8467357
vn -0.4171213 -6.918563E-07 0.9088508
vn -0.5320137 0 0.8467358
vn -0.3967057 -0.1288983 0.9088508
vn -0.5059751 -0.1644013 0.8467357
vn -0.3374579 -0.2451785 0.9088507
vn -0.4304083 -0.3127101 0.8467355
vn -0.2451772 -0.3374589 0.9088507
vn -0.31271 -0.4304087 0.8467354
vn -0.128897 -0.3967064 0.9088507
vn -0.1644015 -0.5059757 0.8467353
vn 6.866175E-07 -0.4171214 0.9088508
vn 0 -0.5320141 0.8467355
vn 0.1288983 -0.3967058 0.9088508
vn 0.1644014 -0.5059752 0.8467356
vn 0.2451784 -0.337458 0.9088507
vn 0.31271 -0.4304085 0.8467355
vn 0.3374588 -0.2451773 0.9088507
vn 0.4304085 -0.3127101 0.8467354
vn 0.3967064 -0.1288969 0.9088507
vn 0.5059754 -0.1644013 0.8467356
vn 0.4171214 2.284068E-07 0.9088508
vn 0.532014 -5.199758E-07 0.8467355
vn -4.255679E-06 -0.1742097 0.9847086
vn 0.05382979 -0.1656848 0.9847085
vn 0.1023945 -0.1409414 0.9847085
vn 0.1409363 -0.1024015 0.9847085
vn 0.1656822 -0.05383792 0.9847085
vn 0.1742099 -4.51319E-06 0.9847085
vn 0.1656847 0.05382925 0.9847086
vn 0.1409412 0.1023945 0.9847086
vn 0.1024014 0.1409362 0.9847085
vn 0.05383791 0.1656822 0.9847085
vn 4.251954E-06 0.17421 0.9847085
vn -0.05382971 0.1656847 0.9847085
vn -0.1023945 0.1409411 0.9847086
vn -0.1409362 0.1024014 0.9847085
vn -0.1656821 0.05383791 0.9847085
vn -0.17421 4.27058E-06 0.9847085
vn -0.1656848 -0.05382974 0.9847085
vn -0.1409412 -0.1023946 0.9847085
vn -0.1024014 -0.1409362 0.9847085
vn -0.05383785 -0.165682 0.9847086
vn -0.08909642 0.03926969 0.9952486
vn -0.0722132 0.06523864 0.9952533
vn -0.04846431 0.08488383 0.9952115
vn -0.02020205 0.0947725 0.995294
vn 0.009697413 0.09740039 0.995198
vn 0.03920665 0.0891551 0.9952458
vn 0.06523408 0.07198749 0.99527
vn 0.1222475 0.0565755 0.9908859
vn -0.05115752 0.07966907 0.9955078
vn -0.07993589 0.05055109 0.9955174
vn -0.09761866 0.009964409 0.995174
vn -0.09506968 -0.02019748 0.9952657
vn -0.08510461 -0.04873114 0.9951797
vn -0.06539159 -0.07221785 0.995243
vn -0.03917927 -0.08922949 0.9952402
vn -0.009961995 -0.09773579 0.9951625
vn 0.02019628 -0.09499659 0.9952727
vn 0.04865198 -0.08536036 0.9951616
vn 0.0722616 -0.06520552 0.995252
vn 0.08923814 -0.03908502 0.9952431
vn 0.09733366 -0.009936281 0.9952022
vn 0.1344825 -0.01390412 0.9908184
vn 0.09081402 -0.02864533 0.9954558
vn 0.0931668 0.0003848879 0.9956505
vn 0.08845702 0.0319074 0.9955688
vn 0.08024792 -0.04995147 0.9955226
vn 0.05059558 -0.08018193 0.9954953
vn 0.02855732 -0.09216212 0.9953344
vn -0.0003857857 -0.09382467 0.9955887
vn -0.02849276 -0.09174938 0.9953744
vn -0.0496801 -0.080628 0.9955054
vn -0.08018509 -0.05087729 0.9954807
vn -0.09153691 -0.02898297 0.9953799
vn -0.09398366 0.0003883971 0.9955736
vn -0.09146022 0.02864645 0.9953966
vn 0.1088665 0.03537271 0.9934269
vn 0.09260674 0.06728303 0.9934269
vn 0.09260671 0.06728307 0.9934269
vn 0.1088665 0.03537272 0.9934269
vn 0.1144698 -1.219072E-07 0.9934267
vn 0.1144698 0 0.9934267
vn 0.06728321 0.09260759 0.9934268
vn 0.06728315 0.09260762 0.9934268
vn 0.03537307 0.1088671 0.9934267
vn 0.03537308 0.1088671 0.9934267
vn 0 0.114469 0.9934268
vn 0 0.114469 0.9934269
vn -0.03537257 0.1088659 0.9934269
vn -0.03537258 0.1088659 0.9934269
vn -0.06728305 0.09260712 0.9934269
vn -0.06728301 0.09260713 0.9934269
vn -0.09260724 0.06728323 0.9934269
vn -0.09260727 0.06728318 0.9934269
vn -0.1088664 0.03537286 0.9934269
vn -0.1088664 0.03537286 0.9934269
vn -0.1144692 0 0.9934268
vn -0.1144692 0 0.9934268
vn -0.1088667 -0.0353729 0.9934268
vn -0.1088667 -0.03537291 0.9934268
vn -0.09260721 -0.06728287 0.9934269
vn -0.09260722 -0.06728285 0.9934269
vn -0.0672833 -0.09260754 0.9934268
vn -0.06728324 -0.09260757 0.9934268
vn -0.03537317 -0.1088663 0.9934269
vn -0.03537319 -0.1088663 0.9934268
vn 0 -0.1144675 0.993427
vn 0 -0.1144675 0.993427
vn 0.0353727 -0.1088657 0.9934269
vn 0.03537272 -0.1088657 0.9934269
vn 0.06728276 -0.09260698 0.9934269
vn 0.06728271 -0.092607 0.9934269
vn 0.09260698 -0.06728286 0.9934269
vn 0.09260702 -0.06728282 0.9934269
vn 0.108867 -0.03537287 0.9934268
vn 0.108867 -0.03537288 0.9934268
vn -0.02829073 0.09108288 0.9954414
vn 0.0003877755 0.09332314 0.9956358
vn 0.02790638 0.0910202 0.9954579
vn 0.05033071 0.08007561 0.9955173
vn 0.08008744 0.04992467 0.9955368
g polySurface1_0
f 3/3/3 2/2/2 1/1/1
f 4/4/4 3/3/3 1/1/1
f 5/5/5 3/3/3 4/4/4
f 6/6/6 5/5/5 4/4/4
f 7/7/7 5/5/5 6/6/6
f 8/8/8 7/7/7 6/6/6
f 9/9/9 7/7/7 8/8/8
f 10/10/10 9/9/9 8/8/8
f 11/11/11 9/9/9 10/10/10
f 12/12/12 11/11/11 10/10/10
f 13/13/13 11/11/11 12/12/12
f 14/14/14 13/13/13 12/12/12
f 15/15/15 13/13/13 14/14/14
f 16/16/16 15/15/15 14/14/14
f 17/17/17 15/15/15 16/16/16
f 18/18/18 17/17/17 16/16/16
f 19/19/19 17/17/17 18/18/18
f 20/20/20 19/19/19 18/18/18
f 21/21/21 19/19/19 20/20/20
f 22/22/22 21/21/21 20/20/20
f 23/23/23 21/21/21 22/22/22
f 24/24/24 23/23/23 22/22/22
f 25/25/25 23/23/23 24/24/24
f 26/26/26 25/25/25 24/24/24
f 27/27/27 25/25/25 26/26/26
f 28/28/28 27/27/27 26/26/26
f 29/29/29 27/27/27 28/28/28
f 30/30/30 29/29/29 28/28/28
f 31/31/31 29/29/29 30/30/30
f 32/32/32 31/31/31 30/30/30
f 33/33/33 31/31/31 32/32/32
f 34/34/34 33/33/33 32/32/32
f 35/35/35 33/33/33 34/34/34
f 36/36/36 35/35/35 34/34/34
f 37/37/37 35/35/35 36/36/36
f 38/38/38 37/37/37 36/36/36
f 39/39/39 37/37/37 38/38/38
f 40/40/40 39/39/39 38/38/38
f 2/2/2 39/39/39 40/40/40
f 1/1/1 2/2/2 40/40/40
f 29/29/29 41/41/41 27/27/27
f 42/42/42 41/41/41 29/29/29
f 31/31/31 42/42/42 29/29/29
f 43/43/43 42/42/42 31/31/31
f 33/33/33 43/43/43 31/31/31
f 44/44/44 43/43/43 33/33/33
f 35/35/35 44/44/44 33/33/33
f 45/45/45 44/44/44 35/35/35
f 37/37/37 45/45/45 35/35/35
f 46/46/46 45/45/45 37/37/37
f 39/39/39 46/46/46 37/37/37
f 47/47/47 46/46/46 39/39/39
f 2/2/2 47/47/47 39/39/39
f 48/48/48 47/47/47 2/2/2
f 3/3/3 48/48/48 2/2/2
f 49/49/49 48/48/48 3/3/3
f 5/5/5 49/49/49 3/3/3
f 50/50/50 49/49/49 5/5/5
f 7/7/7 50/50/50 5/5/5
f 51/51/51 50/50/50 7/7/7
f 9/9/9 51/51/51 7/7/7
f 52/52/52 51/51/51 9/9/9
f 11/11/11 52/52/52 9/9/9
f 53/53/53 52/52/52 11/11/11
f 13/13/13 53/53/53 11/11/11
f 54/54/54 53/53/53 13/13/13
f 15/15/15 54/54/54 13/13/13
f 55/55/55 54/54/54 15/15/15
f 17/17/17 55/55/55 15/15/15
f 56/56/56 55/55/55 17/17/17
f 19/19/19 56/56/56 17/17/17
f 57/57/57 56/56/56 19/19/19
f 21/21/21 57/57/57 19/19/19
f 58/58/58 57/57/57 21/21/21
f 23/23/23 58/58/58 21/21/21
f 59/59/59 58/58/58 23/23/23
f 25/25/25 59/59/59 23/23/23
f 60/60/60 59/59/59 25/25/25
f 27/27/27 60/60/60 25/25/25
f 41/41/41 60/60/60 27/27/27
f 54/54/54 55/55/55 61/61/61
f 54/54/54 61/61/61 62/62/62
f 53/53/53 54/54/54 62/62/62
f 53/53/53 62/62/62 63/63/63
f 52/52/52 53/53/53 63/63/63
f 52/52/52 63/63/63 64/64/64
f 51/51/51 52/52/52 64/64/64
f 51/51/51 64/64/64 65/65/65
f 50/50/50 51/51/51 65/65/65
f 50/50/50 65/65/65 66/66/66
f 49/49/49 50/50/50 66/66/66
f 49/49/49 66/66/66 67/67/67
f 48/48/48 49/49/49 67/67/67
f 48/48/48 67/67/67 68/68/68
f 47/47/47 48/48/48 68/68/68
f 62/62/62 61/61/61 69/69/69
f 61/61/61 70/70/70 69/69/69
f 61/61/61 71/71/71 70/70/70
f 55/55/55 71/71/71 61/61/61
f 55/55/55 56/56/56 71/71/71
f 56/56/56 72/72/72 71/71/71
f 56/56/56 57/57/57 72/72/72
f 57/57/57 73/73/73 72/72/72
f 57/57/57 58/58/58 73/73/73
f 58/58/58 74/74/74 73/73/73
f 58/58/58 59/59/59 74/74/74
f 59/59/59 75/75/75 74/74/74
f 59/59/59 60/60/60 75/75/75
f 60/60/60 76/76/76 75/75/75
f 60/60/60 41/41/41 76/76/76
f 41/41/41 77/77/77 76/76/76
f 41/41/41 42/42/42 77/77/77
f 42/42/42 78/78/78 77/77/77
f 42/42/42 43/43/43 78/78/78
f 43/43/43 79/79/79 78/78/78
f 43/43/43 44/44/44 79/79/79
f 44/44/44 80/80/80 79/79/79
f 44/44/44 45/45/45 80/80/80
f 45/45/45 81/81/81 80/80/80
f 45/45/45 46/46/46 81/81/81
f 46/46/46 82/82/82 81/81/81
f 81/81/81 82/82/82 83/83/83
f 82/82/82 84/84/84 83/83/83
f 84/84/84 82/82/82 68/68/68
f 85/85/85 84/84/84 68/68/68
f 81/81/81 83/83/83 86/86/86
f 80/80/80 81/81/81 86/86/86
f 80/80/80 86/86/86 87/87/87
f 79/79/79 80/80/80 87/87/87
f 79/79/79 87/87/87 88/88/88
f 78/78/78 79/79/79 88/88/88
f 78/78/78 88/88/88 89/89/89
f 77/77/77 78/78/78 89/89/89
f 77/77/77 89/89/89 90/90/90
f 76/76/76 77/77/77 90/90/90
f 76/76/76 90/90/90 91/91/91
f 75/75/75 76/76/76 91/91/91
f 75/75/75 91/91/91 92/92/92
f 74/74/74 75/75/75 92/92/92
f 74/74/74 92/92/92 93/93/93
f 73/73/73 74/74/74 93/93/93
f 73/73/73 93/93/93 94/94/94
f 72/72/72 73/73/73 94/94/94
f 72/72/72 94/94/94 95/95/95
f 71/71/71 72/72/72 95/95/95
f 71/71/71 95/95/95 70/70/70
f 98/98/98 97/97/97 96/96/96
f 99/99/99 98/98/98 96/96/96
f 96/96/96 100/100/100 99/99/99
f 100/100/100 101/101/101 99/99/99
f 98/98/98 102/102/102 97/97/97
f 102/102/102 103/103/103 97/97/97
f 102/102/102 104/104/104 103/103/103
f 104/104/104 105/105/105 103/103/103
f 104/104/104 106/106/106 105/105/105
f 106/106/106 107/107/107 105/105/105
f 106/106/106 108/108/108 107/107/107
f 108/108/108 109/109/109 107/107/107
f 108/108/108 110/110/110 109/109/109
f 110/110/110 111/111/111 109/109/109
f 110/110/110 112/112/112 111/111/111
f 112/112/112 113/113/113 111/111/111
f 112/112/112 114/114/114 113/113/113
f 114/114/114 115/115/115 113/113/113
f 114/114/114 116/116/116 115/115/115
f 116/116/116 117/117/117 115/115/115
f 116/116/116 118/118/118 117/117/117
f 118/118/118 119/119/119 117/117/117
f 118/118/118 120/120/120 119/119/119
f 120/120/120 121/121/121 119/119/119
f 120/120/120 122/122/122 121/121/121
f 122/122/122 123/123/123 121/121/121
f 122/122/122 124/124/124 123/123/123
f 124/124/124 125/125/125 123/123/123
f 124/124/124 126/126/126 125/125/125
f 126/126/126 127/127/127 125/125/125
f 126/126/126 128/128/128 127/127/127
f 128/128/128 129/129/129 127/127/127
f 128/128/128 130/130/130 129/129/129
f 130/130/130 131/131/131 129/129/129
f 130/130/130 132/132/132 131/131/131
f 132/132/132 133/133/133 131/131/131
f 132/132/132 134/134/134 133/133/133
f 134/134/134 135/135/135 133/133/133
f 134/134/134 101/101/101 135/135/135
f 101/101/101 100/100/100 135/135/135
f 62/62/62 69/69/69 136/136/136
f 63/63/63 62/62/62 136/136/136
f 63/63/63 136/136/136 137/137/137
f 64/64/64 63/63/63 137/137/137
f 64/64/64 137/137/137 138/138/138
f 65/65/65 64/64/64 138/138/138
f 65/65/65 138/138/138 139/139/139
f 66/66/66 65/65/65 139/139/139
f 66/66/66 139/139/139 140/140/140
f 67/67/67 66/66/66 140/140/140
f 67/67/67 140/140/140 85/85/85
f 68/68/68 67/67/67 85/85/85
f 68/68/68 82/82/82 47/47/47
f 82/82/82 46/46/46 47/47/47
