g polySurface1
v 0.005237199 0.003805048 0.0002192412
v 0.005519265 0.00400998 0.0003803613
v 0.006488285 0.002108172 0.0003803613
v 0.006156696 0.002000432 0.0002192412
v 0.003805048 0.005237198 0.0002192412
v 0.00400998 0.005519265 0.0003803613
v 0.002000432 0.006156696 0.0002192412
v 0.002108171 0.006488284 0.0003803613
v 1.561804E-12 0.006473533 0.0002192412
v 0 0.006822186 0.0003803613
v -0.002000432 0.006156696 0.0002192412
v -0.002108171 0.006488284 0.0003803613
v -0.003805047 0.005237197 0.0002192412
v -0.00400998 0.005519263 0.0003803613
v -0.005237197 0.003805046 0.0002192412
v -0.005519263 0.004009979 0.0003803613
v -0.006156694 0.002000431 0.0002192412
v -0.006488283 0.002108171 0.0003803613
v -0.006473531 -2.76546E-12 0.0002192412
v -0.006822184 -5.281912E-20 0.0003803613
v -0.006156694 -0.002000431 0.0002192412
v -0.006488283 -0.002108171 0.0003803613
v -0.005237196 -0.003805046 0.0002192412
v -0.005519263 -0.004009979 0.0003803613
v -0.003805046 -0.005237196 0.0002192412
v -0.004009979 -0.005519263 0.0003803613
v -0.002000431 -0.006156692 0.0002192411
v -0.002108171 -0.006488282 0.0003803613
v -1.913644E-10 -0.006473531 0.0002192412
v -2.033169E-10 -0.006822183 0.0003803613
v 0.00200043 -0.006156692 0.0002192412
v 0.00210817 -0.006488281 0.0003803613
v 0.003805046 -0.005237195 0.0002192412
v 0.004009978 -0.005519262 0.0003803613
v 0.005237195 -0.003805046 0.0002192412
v 0.005519262 -0.004009979 0.0003803613
v 0.006156692 -0.002000431 0.0002192412
v 0.006488281 -0.00210817 0.0003803613
v 0.006473529 -2.76546E-12 0.0002192412
v 0.006822182 -5.281912E-20 0.0003803613
v -0.00234853 -0.00722803 0.0004542003
v -0.004467169 -0.00614853 0.0004542003
v -2.264976E-10 -0.007600001 0.0004542003
v 0.002348529 -0.00722803 0.0004542003
v 0.004467168 -0.00614853 0.0004542003
v 0.006148529 -0.004467168 0.0004542003
v 0.007228029 -0.002348529 0.0004542003
v 0.0076 -7.572021E-20 0.0004542003
v 0.007228034 0.002348531 0.0004542003
v 0.006148533 0.00446717 0.0004542003
v 0.00446717 0.006148532 0.0004542003
v 0.00234853 0.007228033 0.0004542003
v 0 0.007600003 0.0004542003
v -0.00234853 0.007228033 0.0004542003
v -0.00446717 0.006148531 0.0004542003
v -0.006148531 0.004467169 0.0004542003
v -0.007228031 0.00234853 0.0004542003
v -0.007600002 -7.572021E-20 0.0004542003
v -0.007228031 -0.00234853 0.0004542003
v -0.00614853 -0.004467169 0.0004542003
v -0.002588889 0.007967781 0.0003803613
v 0 0.008377821 0.0003803613
v 0.002588889 0.007967782 0.0003803613
v 0.00492436 0.0067778 0.0003803613
v 0.006777801 0.00492436 0.0003803613
v 0.007967782 0.00258889 0.0003803613
v -0.006777798 -0.004924358 0.0003803613
v -0.007967779 -0.002588888 0.0003803613
v -0.008377819 -5.281912E-20 0.0003803613
v -0.007967779 0.002588888 0.0003803613
v -0.006777798 0.004924359 0.0003803613
v -0.004924359 0.006777799 0.0003803613
v 0.008377817 -5.281912E-20 0.0003803613
v 0.007967778 -0.002588888 0.0003803613
v 0.006777796 -0.004924358 0.0003803613
v 0.004924357 -0.006777797 0.0003803613
v 0.002588888 -0.007967778 0.0003803613
v -2.496784E-10 -0.008377818 0.0003803613
v -0.002588888 -0.007967778 0.0003803613
v -0.004924358 -0.006777797 0.0003803613
v -0.007036095 -0.005112023 0.0001908657
v -0.008271426 -0.002687549 0.0001908657
v -0.008697093 -8.003673E-12 0.0001908657
v -0.008271426 0.002687549 0.0001908657
v -0.007036095 0.005112023 0.0001908657
v -0.005112024 0.007036095 0.0001908657
v -0.00268755 0.008271428 0.0001908657
v 4.802199E-12 0.008697093 0.0001908657
v 0.00268755 0.008271428 0.0001908657
v 0.005112024 0.007036097 0.0001908657
v 0.007036098 0.005112024 0.0001908657
v 0.00827143 0.002687551 0.0001908657
v 0.00869709 -8.003673E-12 0.0001908657
v 0.008271425 -0.002687549 0.0001908657
v 0.007036093 -0.005112022 0.0001908657
v 0.005112022 -0.007036095 0.0001908657
v 0.002687548 -0.008271425 0.0001908657
v -2.543913E-10 -0.008697092 0.0001908657
v -0.002687549 -0.008271426 0.0001908657
v -0.005112023 -0.007036095 0.0001908657
v -0.007161617 -0.00520322 0.0002730801
v -0.008418987 -0.002735495 0.0002730801
v -0.008852247 -7.196195E-12 0.0002730801
v -0.008418987 0.002735495 0.0002730801
v -0.007161618 0.00520322 0.0002730801
v -0.005203221 0.007161619 0.0002730801
v -0.002735495 0.008418989 0.0002730801
v 4.317718E-12 0.008852249 0.0002730801
v 0.002735495 0.008418989 0.0002730801
v 0.005203222 0.007161621 0.0002730801
v 0.007161621 0.005203222 0.0002730801
v 0.00841899 0.002735496 0.0002730801
v 0.008852245 -7.196195E-12 0.0002730801
v 0.008418985 -0.002735494 0.0002730801
v 0.007161615 -0.005203219 0.0002730801
v 0.005203219 -0.007161616 0.0002730801
v 0.002735494 -0.008418986 0.0002730801
v -2.594997E-10 -0.008852246 0.0002730801
v -0.002735495 -0.008418986 0.0002730801
v -0.00520322 -0.007161617 0.0002730801
v -0.007289693 -0.005296272 0.0001834569
v -0.008569549 -0.002784415 0.0001834569
v -0.009010556 2.55692E-21 0.0001834569
v -0.008569549 0.002784415 0.0001834569
v -0.007289694 0.005296273 0.0001834569
v -0.005296273 0.007289694 0.0001834569
v -0.002784416 0.008569551 0.0001834569
v 0 0.009010559 0.0001834569
v 0.002784416 0.008569551 0.0001834569
v 0.005296274 0.007289696 0.0001834569
v 0.007289696 0.005296274 0.0001834569
v 0.008569552 0.002784416 0.0001834569
v 0.009010554 2.55692E-21 0.0001834569
v 0.008569547 -0.002784414 0.0001834569
v 0.007289691 -0.005296271 0.0001834569
v 0.005296271 -0.007289692 0.0001834569
v 0.002784414 -0.008569547 0.0001834569
v -2.685354E-10 -0.009010555 0.0001834569
v -0.002784415 -0.008569547 0.0001834569
v -0.005296272 -0.007289693 0.0001834569
vt 0.8524928 0.5557897
vt 0.8735191 0.5590624
vt 0.873309 0.4406823
vt 0.8523016 0.444082
vt 0.8180866 0.662006
vt 0.8370579 0.6716305
vt 0.7524859 0.7523164
vt 0.7675418 0.7673416
vt 0.6621458 0.8178768
vt 0.6718121 0.8368258
vt 0.5559331 0.8522704
vt 0.5592643 0.8732843
vt 0.4442595 0.8521324
vt 0.4409305 0.8731525
vt 0.3380631 0.8174785
vt 0.3284 0.8364465
vt 0.2477398 0.7517009
vt 0.2326887 0.7667606
vt 0.1821277 0.6612355
vt 0.1631609 0.6709139
vt 0.1476448 0.5549314
vt 0.1266174 0.558282
vt 0.1476626 0.4431873
vt 0.1266311 0.4398829
vt 0.1821762 0.3369351
vt 0.1631986 0.3272992
vt 0.2478041 0.2465729
vt 0.2327375 0.2315491
vt 0.3381153 0.1809467
vt 0.3284353 0.1620067
vt 0.4442572 0.1464844
vt 0.4409126 0.1254847
vt 0.5558206 0.1465631
vt 0.5591406 0.1255632
vt 0.6618635 0.1811797
vt 0.6715257 0.1622399
vt 0.7520032 0.2469832
vt 0.7670639 0.2319556
vt 0.8174363 0.3377057
vt 0.8364575 0.3280057
vt 0.2021751 0.2009421
vt 0.1246632 0.3076289
vt 0.3088395 0.1234613
vt 0.4342043 0.08277908
vt 0.5659786 0.08288682
vt 0.6912384 0.1237812
vt 0.7977149 0.2014681
vt 0.8750629 0.3083454
vt 0.9160723 0.4338428
vt 0.9162676 0.5658134
vt 0.8755944 0.6912812
vt 0.7980929 0.7979542
vt 0.6913886 0.8753915
vt 0.5659522 0.9160203
vt 0.4340779 0.9158711
vt 0.3086796 0.8749657
vt 0.2020315 0.7973113
vt 0.1245664 0.690508
vt 0.08386078 0.5650035
vt 0.08389455 0.4330752
vt 0.5727377 0.9589416
vt 0.7111152 0.9141062
vt 0.8288329 0.8286654
vt 0.9143405 0.7109708
vt 0.9592291 0.57254
vt 0.9590839 0.4269667
vt 0.04095811 0.4262994
vt 0.04092503 0.5718182
vt 0.08583128 0.7102472
vt 0.1712855 0.8280451
vt 0.2889316 0.9136885
vt 0.4272619 0.9587942
vt 0.913759 0.2886285
vt 0.8284476 0.1707912
vt 0.7109838 0.08511055
vt 0.5727856 0.03999978
vt 0.4274033 0.03988442
vt 0.2890988 0.08476648
vt 0.1714306 0.1702397
vt 0.08592677 0.2879255
vt 0.02041939 0.4230781
vt 0.02039319 0.5750973
vt 0.06731459 0.7197061
vt 0.1565953 0.842759
vt 0.279505 0.9322186
vt 0.4240224 0.9793276
vt 0.5760038 0.9794685
vt 0.7205691 0.9326158
vt 0.8435512 0.8433427
vt 0.9328838 0.7203734
vt 0.9797795 0.5757415
vt 0.979609 0.4236462
vt 0.9322731 0.2791523
vt 0.8431368 0.1561014
vt 0.7204125 0.0666016
vt 0.5760227 0.01948056
vt 0.424131 0.01936868
vt 0.2796391 0.06626624
vt 0.1567116 0.1555679
vt 0.0673905 0.2785186
vt 0.01069617 0.4215384
vt 0.01066875 0.5766358
vt 0.05854011 0.7241724
vt 0.149629 0.8497163
vt 0.2750288 0.9409864
vt 0.4224744 0.9890487
vt 0.5775365 0.9891908
vt 0.7250333 0.9413875
vt 0.850511 0.8503034
vt 0.9416586 0.7248392
vt 0.989509 0.5772722
vt 0.989333 0.4220874
vt 0.9410398 0.2746792
vt 0.8501029 0.1491553
vt 0.7248905 0.05784312
vt 0.57757 0.009765625
vt 0.4225955 0.009651154
vt 0.2751724 0.05749902
vt 0.1497518 0.14861
vt 0.05861971 0.2740514
vt 0.0005877018 0.4199404
vt 0.0005604029 0.5782378
vt 0.04941994 0.7288176
vt 0.1423894 0.8569504
vt 0.2703778 0.9501023
vt 0.4208679 0.9991547
vt 0.5791323 0.9992975
vt 0.7296765 0.9505051
vt 0.8577479 0.8575377
vt 0.9507816 0.7294797
vt 0.9996241 0.5788611
vt 0.9994418 0.420464
vt 0.95015 0.2700275
vt 0.8573424 0.1419325
vt 0.7295434 0.0487363
vt 0.5791758 -0.0003342032
vt 0.4209968 -0.0004508197
vt 0.2705267 0.04838607
vt 0.1425149 0.1413786
vt 0.04950082 0.2694097
vn -0.3393779 -0.2465725 0.9077581
vn -0.1498139 -0.1088389 0.9827054
vn -0.1761141 -0.0572181 0.9827054
vn -0.3989628 -0.1296304 0.9077581
vn -0.2465724 -0.339378 0.907758
vn -0.1088484 -0.1498071 0.9827054
vn -0.1296309 -0.3989629 0.9077579
vn -0.05722812 -0.1761111 0.9827054
vn 0 -0.4194946 0.9077579
vn -2.92683E-05 -0.1851761 0.9827054
vn 0.1296311 -0.3989634 0.9077577
vn 0.05721706 -0.1761149 0.9827054
vn 0.2465729 -0.3393783 0.9077578
vn 0.1088202 -0.1498279 0.9827054
vn 0.3393783 -0.2465726 0.9077579
vn 0.1498003 -0.108858 0.9827054
vn 0.3989629 -0.1296309 0.9077579
vn 0.1761111 -0.0572281 0.9827054
vn 0.4194944 0 0.9077579
vn 0.1851761 -5.863984E-06 0.9827054
vn 0.3989629 0.1296309 0.9077579
vn 0.1761147 0.05721696 0.9827054
vn 0.339378 0.2465726 0.9077579
vn 0.149814 0.108839 0.9827054
vn 0.2465724 0.3393779 0.9077581
vn 0.1088674 0.1497932 0.9827054
vn 0.1296308 0.3989626 0.9077581
vn 0.05722808 0.1761109 0.9827054
vn 0 0.4194945 0.9077579
vn 5.827013E-06 0.1851761 0.9827054
vn -0.1296308 0.3989628 0.907758
vn -0.05721693 0.1761146 0.9827054
vn -0.2465726 0.3393779 0.907758
vn -0.108839 0.1498139 0.9827054
vn -0.339378 0.2465727 0.9077579
vn -0.1498071 0.1088485 0.9827054
vn -0.3989625 0.1296307 0.9077581
vn -0.1761073 0.05723922 0.9827054
vn -0.4194942 5.186387E-07 0.9077581
vn -0.1851761 -2.904637E-05 0.9827054
vn -0.004399652 -0.01354518 0.9998986
vn -0.008370751 -0.01152216 0.9998986
vn 4.664348E-07 -0.01424181 0.9998986
vn 0.004401393 -0.01354463 0.9998986
vn 0.008370009 -0.01152267 0.9998986
vn 0.01152212 -0.008370739 0.9998986
vn 0.01354487 -0.004400506 0.9998986
vn 0.01424172 4.40087E-07 0.9998986
vn 0.01354484 0.004400859 0.9998986
vn 0.01152105 0.008372238 0.9998986
vn 0.008370728 0.01152211 0.9998986
vn 0.004400488 0.01354482 0.9998986
vn -4.618153E-07 0.01424172 0.9998986
vn -0.004398775 0.01354546 0.9998986
vn -0.008371498 0.01152159 0.9998986
vn -0.01152212 0.00837073 0.9998986
vn -0.01354404 0.00440315 0.9998986
vn -0.0142418 -4.597318E-07 0.9998986
vn -0.01354462 -0.004401404 0.9998986
vn -0.01152159 -0.00837149 0.9998986
vn -0.07984085 0.245725 0.9660459
vn 0 0.2583708 0.9660458
vn 0.07984075 0.245725 0.9660459
vn 0.151866 0.2090258 0.966046
vn 0.2090259 0.1518662 0.966046
vn 0.2457267 0.07983533 0.9660459
vn -0.2090259 -0.1518662 0.966046
vn -0.2457247 -0.07984079 0.966046
vn -0.2583702 0 0.966046
vn -0.2457247 0.07984079 0.966046
vn -0.209026 0.1518662 0.966046
vn -0.1518662 0.2090259 0.966046
vn 0.2583703 -3.173608E-07 0.966046
vn 0.2457249 -0.07984085 0.9660459
vn 0.209026 -0.1518662 0.966046
vn 0.1518661 -0.2090259 0.966046
vn 0.07984088 -0.2457249 0.9660459
vn 0 -0.2583704 0.9660459
vn -0.07984079 -0.2457247 0.966046
vn -0.1518661 -0.2090259 0.966046
vn -0.1391448 -0.101118 0.9850959
vn -0.1635823 -0.05317065 0.9850957
vn -0.172007 -1.883884E-05 0.9850957
vn -0.1635941 0.05313498 0.9850957
vn -0.1391671 0.1010879 0.9850958
vn -0.1011186 0.1391451 0.9850957
vn -0.05317101 0.1635833 0.9850956
vn 5.642237E-05 0.1720086 0.9850954
vn 0.05313541 0.1635949 0.9850956
vn 0.1010885 0.1391681 0.9850956
vn 0.1391465 0.1011192 0.9850955
vn 0.1635929 0.05314186 0.9850956
vn 0.1720081 1.896401E-05 0.9850956
vn 0.1635595 -0.05324237 0.9850957
vn 0.1391668 -0.1010877 0.9850959
vn 0.1011179 -0.139144 0.985096
vn 0.05317073 -0.1635827 0.9850957
vn 1.887746E-05 -0.1720078 0.9850956
vn -0.05320684 -0.1635716 0.9850956
vn -0.1010879 -0.1391677 0.9850957
vn -0.06165217 -0.0447947 0.997092
vn -0.07247787 -0.02355081 0.9970919
vn -0.07620908 -1.387343E-06 0.9970919
vn -0.07247906 0.02354836 0.9970919
vn -0.06165432 0.04479275 0.9970919
vn -0.04479525 0.06165292 0.9970919
vn -0.02355116 0.072479 0.9970919
vn -1.461347E-06 0.07620954 0.9970918
vn 0.02354861 0.07247969 0.9970919
vn 0.04479236 0.06165804 0.9970918
vn 0.06165538 0.04479716 0.9970917
vn 0.07248033 0.02355136 0.9970918
vn 0.07620946 -4.175942E-06 0.9970918
vn 0.07247892 -0.0235483 0.9970919
vn 0.06165374 -0.04479245 0.997092
vn 0.04479694 -0.06165047 0.997092
vn 0.02355097 -0.0724786 0.9970919
vn 1.49439E-06 -0.07621012 0.9970918
vn -0.02354614 -0.07248092 0.9970918
vn -0.04479312 -0.06165507 0.9970919
vn -0.3985659 -0.2895752 0.8702249
vn -0.4685429 -0.1522388 0.8702246
vn -0.4926561 0 0.8702241
vn -0.4685434 0.152239 0.8702244
vn -0.3985665 0.2895753 0.8702246
vn -0.2895757 0.3985663 0.8702246
vn -0.1522392 0.4685436 0.8702242
vn -1.224488E-07 0.4926559 0.8702242
vn 0.1522391 0.4685436 0.8702242
vn 0.289577 0.3985686 0.870223
vn 0.398569 0.2895773 0.8702228
vn 0.4685448 0.1522391 0.8702235
vn 0.4926565 -3.360826E-07 0.8702239
vn 0.4685429 -0.1522386 0.8702246
vn 0.398566 -0.2895752 0.8702249
vn 0.2895753 -0.3985664 0.8702247
vn 0.1522391 -0.4685441 0.8702239
vn 1.51107E-07 -0.492657 0.8702236
vn -0.1522393 -0.4685442 0.8702239
vn -0.2895758 -0.3985669 0.8702242
g polySurface1_0
f 3/3/3 2/2/2 1/1/1
f 4/4/4 3/3/3 1/1/1
f 1/1/1 2/2/2 5/5/5
f 2/2/2 6/6/6 5/5/5
f 5/5/5 6/6/6 7/7/7
f 6/6/6 8/8/8 7/7/7
f 7/7/7 8/8/8 9/9/9
f 8/8/8 10/10/10 9/9/9
f 9/9/9 10/10/10 11/11/11
f 10/10/10 12/12/12 11/11/11
f 11/11/11 12/12/12 13/13/13
f 12/12/12 14/14/14 13/13/13
f 13/13/13 14/14/14 15/15/15
f 14/14/14 16/16/16 15/15/15
f 15/15/15 16/16/16 17/17/17
f 16/16/16 18/18/18 17/17/17
f 17/17/17 18/18/18 19/19/19
f 18/18/18 20/20/20 19/19/19
f 19/19/19 20/20/20 21/21/21
f 20/20/20 22/22/22 21/21/21
f 21/21/21 22/22/22 23/23/23
f 22/22/22 24/24/24 23/23/23
f 23/23/23 24/24/24 25/25/25
f 24/24/24 26/26/26 25/25/25
f 25/25/25 26/26/26 27/27/27
f 26/26/26 28/28/28 27/27/27
f 27/27/27 28/28/28 29/29/29
f 28/28/28 30/30/30 29/29/29
f 29/29/29 30/30/30 31/31/31
f 30/30/30 32/32/32 31/31/31
f 31/31/31 32/32/32 33/33/33
f 32/32/32 34/34/34 33/33/33
f 33/33/33 34/34/34 35/35/35
f 34/34/34 36/36/36 35/35/35
f 35/35/35 36/36/36 37/37/37
f 36/36/36 38/38/38 37/37/37
f 37/37/37 38/38/38 39/39/39
f 38/38/38 40/40/40 39/39/39
f 39/39/39 40/40/40 4/4/4
f 40/40/40 3/3/3 4/4/4
f 28/28/28 41/41/41 30/30/30
f 42/42/42 41/41/41 28/28/28
f 41/41/41 43/43/43 30/30/30
f 30/30/30 43/43/43 32/32/32
f 43/43/43 44/44/44 32/32/32
f 32/32/32 44/44/44 34/34/34
f 44/44/44 45/45/45 34/34/34
f 34/34/34 45/45/45 36/36/36
f 45/45/45 46/46/46 36/36/36
f 36/36/36 46/46/46 38/38/38
f 46/46/46 47/47/47 38/38/38
f 38/38/38 47/47/47 40/40/40
f 47/47/47 48/48/48 40/40/40
f 40/40/40 48/48/48 3/3/3
f 48/48/48 49/49/49 3/3/3
f 3/3/3 49/49/49 2/2/2
f 49/49/49 50/50/50 2/2/2
f 2/2/2 50/50/50 6/6/6
f 50/50/50 51/51/51 6/6/6
f 6/6/6 51/51/51 8/8/8
f 51/51/51 52/52/52 8/8/8
f 8/8/8 52/52/52 10/10/10
f 52/52/52 53/53/53 10/10/10
f 10/10/10 53/53/53 12/12/12
f 53/53/53 54/54/54 12/12/12
f 12/12/12 54/54/54 14/14/14
f 54/54/54 55/55/55 14/14/14
f 14/14/14 55/55/55 16/16/16
f 55/55/55 56/56/56 16/16/16
f 16/16/16 56/56/56 18/18/18
f 56/56/56 57/57/57 18/18/18
f 18/18/18 57/57/57 20/20/20
f 57/57/57 58/58/58 20/20/20
f 20/20/20 58/58/58 22/22/22
f 58/58/58 59/59/59 22/22/22
f 22/22/22 59/59/59 24/24/24
f 59/59/59 60/60/60 24/24/24
f 24/24/24 60/60/60 26/26/26
f 60/60/60 42/42/42 26/26/26
f 26/26/26 42/42/42 28/28/28
f 54/54/54 61/61/61 55/55/55
f 62/62/62 61/61/61 54/54/54
f 53/53/53 62/62/62 54/54/54
f 63/63/63 62/62/62 53/53/53
f 52/52/52 63/63/63 53/53/53
f 64/64/64 63/63/63 52/52/52
f 51/51/51 64/64/64 52/52/52
f 65/65/65 64/64/64 51/51/51
f 50/50/50 65/65/65 51/51/51
f 66/66/66 65/65/65 50/50/50
f 49/49/49 66/66/66 50/50/50
f 60/60/60 67/67/67 42/42/42
f 68/68/68 67/67/67 60/60/60
f 59/59/59 68/68/68 60/60/60
f 69/69/69 68/68/68 59/59/59
f 58/58/58 69/69/69 59/59/59
f 70/70/70 69/69/69 58/58/58
f 57/57/57 70/70/70 58/58/58
f 71/71/71 70/70/70 57/57/57
f 56/56/56 71/71/71 57/57/57
f 72/72/72 71/71/71 56/56/56
f 55/55/55 72/72/72 56/56/56
f 61/61/61 72/72/72 55/55/55
f 73/73/73 66/66/66 49/49/49
f 48/48/48 73/73/73 49/49/49
f 74/74/74 73/73/73 48/48/48
f 47/47/47 74/74/74 48/48/48
f 75/75/75 74/74/74 47/47/47
f 46/46/46 75/75/75 47/47/47
f 76/76/76 75/75/75 46/46/46
f 45/45/45 76/76/76 46/46/46
f 77/77/77 76/76/76 45/45/45
f 44/44/44 77/77/77 45/45/45
f 78/78/78 77/77/77 44/44/44
f 43/43/43 78/78/78 44/44/44
f 79/79/79 78/78/78 43/43/43
f 41/41/41 79/79/79 43/43/43
f 80/80/80 79/79/79 41/41/41
f 42/42/42 80/80/80 41/41/41
f 67/67/67 80/80/80 42/42/42
f 67/67/67 81/81/81 80/80/80
f 82/82/82 81/81/81 67/67/67
f 68/68/68 82/82/82 67/67/67
f 83/83/83 82/82/82 68/68/68
f 69/69/69 83/83/83 68/68/68
f 84/84/84 83/83/83 69/69/69
f 70/70/70 84/84/84 69/69/69
f 85/85/85 84/84/84 70/70/70
f 71/71/71 85/85/85 70/70/70
f 86/86/86 85/85/85 71/71/71
f 72/72/72 86/86/86 71/71/71
f 87/87/87 86/86/86 72/72/72
f 61/61/61 87/87/87 72/72/72
f 88/88/88 87/87/87 61/61/61
f 62/62/62 88/88/88 61/61/61
f 89/89/89 88/88/88 62/62/62
f 63/63/63 89/89/89 62/62/62
f 90/90/90 89/89/89 63/63/63
f 64/64/64 90/90/90 63/63/63
f 91/91/91 90/90/90 64/64/64
f 65/65/65 91/91/91 64/64/64
f 92/92/92 91/91/91 65/65/65
f 66/66/66 92/92/92 65/65/65
f 93/93/93 92/92/92 66/66/66
f 73/73/73 93/93/93 66/66/66
f 94/94/94 93/93/93 73/73/73
f 74/74/74 94/94/94 73/73/73
f 95/95/95 94/94/94 74/74/74
f 75/75/75 95/95/95 74/74/74
f 96/96/96 95/95/95 75/75/75
f 76/76/76 96/96/96 75/75/75
f 97/97/97 96/96/96 76/76/76
f 77/77/77 97/97/97 76/76/76
f 98/98/98 97/97/97 77/77/77
f 78/78/78 98/98/98 77/77/77
f 99/99/99 98/98/98 78/78/78
f 79/79/79 99/99/99 78/78/78
f 100/100/100 99/99/99 79/79/79
f 80/80/80 100/100/100 79/79/79
f 81/81/81 100/100/100 80/80/80
f 81/81/81 101/101/101 100/100/100
f 102/102/102 101/101/101 81/81/81
f 82/82/82 102/102/102 81/81/81
f 103/103/103 102/102/102 82/82/82
f 83/83/83 103/103/103 82/82/82
f 104/104/104 103/103/103 83/83/83
f 84/84/84 104/104/104 83/83/83
f 105/105/105 104/104/104 84/84/84
f 85/85/85 105/105/105 84/84/84
f 106/106/106 105/105/105 85/85/85
f 86/86/86 106/106/106 85/85/85
f 107/107/107 106/106/106 86/86/86
f 87/87/87 107/107/107 86/86/86
f 108/108/108 107/107/107 87/87/87
f 88/88/88 108/108/108 87/87/87
f 109/109/109 108/108/108 88/88/88
f 89/89/89 109/109/109 88/88/88
f 110/110/110 109/109/109 89/89/89
f 90/90/90 110/110/110 89/89/89
f 111/111/111 110/110/110 90/90/90
f 91/91/91 111/111/111 90/90/90
f 112/112/112 111/111/111 91/91/91
f 92/92/92 112/112/112 91/91/91
f 113/113/113 112/112/112 92/92/92
f 93/93/93 113/113/113 92/92/92
f 114/114/114 113/113/113 93/93/93
f 94/94/94 114/114/114 93/93/93
f 115/115/115 114/114/114 94/94/94
f 95/95/95 115/115/115 94/94/94
f 116/116/116 115/115/115 95/95/95
f 96/96/96 116/116/116 95/95/95
f 117/117/117 116/116/116 96/96/96
f 97/97/97 117/117/117 96/96/96
f 118/118/118 117/117/117 97/97/97
f 98/98/98 118/118/118 97/97/97
f 119/119/119 118/118/118 98/98/98
f 99/99/99 119/119/119 98/98/98
f 120/120/120 119/119/119 99/99/99
f 100/100/100 120/120/120 99/99/99
f 101/101/101 120/120/120 100/100/100
f 101/101/101 121/121/121 120/120/120
f 122/122/122 121/121/121 101/101/101
f 102/102/102 122/122/122 101/101/101
f 123/123/123 122/122/122 102/102/102
f 103/103/103 123/123/123 102/102/102
f 124/124/124 123/123/123 103/103/103
f 104/104/104 124/124/124 103/103/103
f 125/125/125 124/124/124 104/104/104
f 105/105/105 125/125/125 104/104/104
f 126/126/126 125/125/125 105/105/105
f 106/106/106 126/126/126 105/105/105
f 127/127/127 126/126/126 106/106/106
f 107/107/107 127/127/127 106/106/106
f 128/128/128 127/127/127 107/107/107
f 108/108/108 128/128/128 107/107/107
f 129/129/129 128/128/128 108/108/108
f 109/109/109 129/129/129 108/108/108
f 130/130/130 129/129/129 109/109/109
f 110/110/110 130/130/130 109/109/109
f 131/131/131 130/130/130 110/110/110
f 111/111/111 131/131/131 110/110/110
f 132/132/132 131/131/131 111/111/111
f 112/112/112 132/132/132 111/111/111
f 133/133/133 132/132/132 112/112/112
f 113/113/113 133/133/133 112/112/112
f 134/134/134 133/133/133 113/113/113
f 114/114/114 134/134/134 113/113/113
f 135/135/135 134/134/134 114/114/114
f 115/115/115 135/135/135 114/114/114
f 136/136/136 135/135/135 115/115/115
f 116/116/116 136/136/136 115/115/115
f 137/137/137 136/136/136 116/116/116
f 117/117/117 137/137/137 116/116/116
f 138/138/138 137/137/137 117/117/117
f 118/118/118 138/138/138 117/117/117
f 139/139/139 138/138/138 118/118/118
f 119/119/119 139/139/139 118/118/118
f 140/140/140 139/139/139 119/119/119
f 120/120/120 140/140/140 119/119/119
f 121/121/121 140/140/140 120/120/120
