g tail
v -1.043014 1.001927 0
v -1.043686 0.1725753 0
v -1.179956 0.1733187 0
v -1.180227 1.0098 0
v -0.9017198 0.979489 0
v -0.9033615 0.1862805 0
v -0.7728645 0.9307951 0
v -0.7739974 0.2049332 0
v -0.6467475 0.8711442 0
v -0.6519738 0.222661 0
v -0.5166866 0.2467921 0
v -0.5111853 0.8160713 0
v -1.3079 0.1881661 0
v -1.31267 0.9955797 0
v -1.425699 0.2130438 0
v -1.434612 0.9644054 0
v -1.544278 0.2479514 0
v -1.552381 0.9150079 0
v -1.657322 0.2857171 0
v -1.664653 0.867916 0
v -1.765831 0.3334182 0
v -1.77472 0.8039277 0
v -1.863885 0.3859375 0
v -1.874183 0.746104 0
v -1.960353 0.4536945 0
v -1.967284 0.6892594 0
v -2.034661 0.513138 0
v -2.038998 0.6454729 0
v 0.2720489 0.584503 0
v 0.278535 0.3774833 0
v 0.1766416 0.362976 0
v 0.1711534 0.60454 0
v 0.06793511 0.3443948 0
v 0.06931349 0.6259983 0
v -0.04329116 0.3254907 0
v -0.04649081 0.6580662 0
v 0.381176 0.5628313 0
v 0.3887414 0.3931742 0
v -0.1398879 0.3106622 0
v -0.1385939 0.6896868 0
v -0.2447513 0.7273111 0
v -0.249589 0.2898415 0
v -0.3789596 0.7710322 0
v -0.3846655 0.2664997 0
vt 0.2451849 0.9896226
vt 0.2450208 0.5870347
vt 0.2117292 0.5873955
vt 0.211663 0.9934443
vt 0.279704 0.9787304
vt 0.279303 0.5936875
vt 0.3111842 0.9550934
vt 0.3109074 0.6027421
vt 0.3419954 0.9261373
vt 0.3407186 0.6113476
vt 0.3737701 0.6230614
vt 0.3751141 0.8994036
vt 0.1804717 0.5946028
vt 0.1793064 0.9865413
vt 0.1516925 0.6066791
vt 0.1495152 0.9714086
vt 0.122723 0.6236241
vt 0.1207434 0.9474299
vt 0.09510553 0.6419566
vt 0.09331441 0.9245703
vt 0.06859612 0.6651118
vt 0.06642437 0.8935087
vt 0.04464078 0.690606
vt 0.04212487 0.8654397
vt 0.02107298 0.7234969
vt 0.01937979 0.8378459
vt 0.002919197 0.7523522
vt 0.001859546 0.8165909
vt 0.5664634 0.7869946
vt 0.5680479 0.6865021
vt 0.5431547 0.6794599
vt 0.5418139 0.796721
vt 0.516597 0.6704402
vt 0.5169337 0.8071375
vt 0.4894237 0.6612636
vt 0.488642 0.822704
vt 0.5931238 0.7764746
vt 0.594972 0.6941189
vt 0.4658245 0.6540655
vt 0.4661406 0.8380535
vt 0.4402057 0.8563172
vt 0.4390238 0.6439586
vt 0.4074177 0.8775405
vt 0.4060237 0.632628
vn 0 0 1
vn 0 0 1
vn 0 0 1
vn 0 0 1
vn 0 0 1
vn 0 0 1
vn 0 0 1
vn 0 0 1
vn 0 0 1
vn 0 0 1
vn 0 0 1
vn 0 0 1
vn 0 0 1
vn 0 0 1
vn 0 0 1
vn 0 0 1
vn 0 0 1
vn 0 0 1
vn 0 0 1
vn 0 0 1
vn 0 0 1
vn 0 0 1
vn 0 0 1
vn 0 0 1
vn 0 0 1
vn 0 0 1
vn 0 0 1
vn 0 0 1
vn 0 0 1
vn 0 0 1
vn 0 0 1
vn 0 0 1
vn 0 0 1
vn 0 0 1
vn 0 0 1
vn 0 0 1
vn 0 0 1
vn 0 0 1
vn 0 0 1
vn 0 0 1
vn 0 0 1
vn 0 0 1
vn 0 0 1
vn 0 0 1
g tail_0
f 3/3/3 2/2/2 1/1/1
f 4/4/4 3/3/3 1/1/1
f 1/1/1 2/2/2 5/5/5
f 2/2/2 6/6/6 5/5/5
f 5/5/5 6/6/6 7/7/7
f 6/6/6 8/8/8 7/7/7
f 7/7/7 8/8/8 9/9/9
f 8/8/8 10/10/10 9/9/9
f 9/9/9 10/10/10 11/11/11
f 12/12/12 9/9/9 11/11/11
f 13/13/13 3/3/3 4/4/4
f 14/14/14 13/13/13 4/4/4
f 15/15/15 13/13/13 14/14/14
f 16/16/16 15/15/15 14/14/14
f 17/17/17 15/15/15 16/16/16
f 18/18/18 17/17/17 16/16/16
f 19/19/19 17/17/17 18/18/18
f 20/20/20 19/19/19 18/18/18
f 21/21/21 19/19/19 20/20/20
f 22/22/22 21/21/21 20/20/20
f 23/23/23 21/21/21 22/22/22
f 24/24/24 23/23/23 22/22/22
f 25/25/25 23/23/23 24/24/24
f 26/26/26 25/25/25 24/24/24
f 27/27/27 25/25/25 26/26/26
f 28/28/28 27/27/27 26/26/26
f 31/31/31 30/30/30 29/29/29
f 32/32/32 31/31/31 29/29/29
f 33/33/33 31/31/31 32/32/32
f 34/34/34 33/33/33 32/32/32
f 35/35/35 33/33/33 34/34/34
f 36/36/36 35/35/35 34/34/34
f 29/29/29 30/30/30 37/37/37
f 30/30/30 38/38/38 37/37/37
f 39/39/39 35/35/35 36/36/36
f 40/40/40 39/39/39 36/36/36
f 40/40/40 41/41/41 39/39/39
f 41/41/41 42/42/42 39/39/39
f 41/41/41 43/43/43 42/42/42
f 43/43/43 44/44/44 42/42/42
f 43/43/43 12/12/12 44/44/44
f 12/12/12 11/11/11 44/44/44
