g tail
v -0.6221384 1.047603 -0.128
v -0.5923 1.046954 -0.128
v -0.5923 1.005919 -0.128
v -0.6221486 1.006082 -0.128
v -0.6519769 1.048252 -0.128
v -0.6519971 1.006244 -0.128
v -0.6818153 1.048901 -0.128
v -0.6818457 1.006406 -0.128
v -0.7116538 1.049549 -0.128
v -0.7116942 1.006568 -0.128
v -0.7414923 1.050198 -0.128
v -0.7415428 1.00673 -0.128
v -0.7713308 1.050847 -0.128
v -0.7713914 1.006893 -0.128
v -0.8011693 1.051496 -0.128
v -0.80124 1.007055 -0.128
v -0.8310077 1.052144 -0.128
v -0.8310885 1.007217 -0.128
v -0.8608462 1.052793 -0.128
v -0.8609371 1.007379 -0.128
v -0.8906847 1.053442 -0.128
v -0.8907856 1.007541 -0.128
v -0.9205232 1.064714 -0.128
v -0.9206342 1.000648 -0.128
v -1.004432 1.159354 -0.128
v -0.9536459 0.9792578 -0.128
v -1.122185 1.143297 -0.128
v -1.001569 0.9449911 -0.128
v -1.170356 1.016624 -0.128
v -1.065093 0.8970879 -0.128
v -1.193318 0.848782 -0.128
v -1.173924 0.8150182 -0.128
vt 0.6392062 0.6409634
vt 0.6464909 0.6406466
vt 0.6464909 0.62061
vt 0.6392037 0.6206893
vt 0.6319214 0.6412802
vt 0.6319164 0.6207684
vt 0.6246367 0.641597
vt 0.6246293 0.6208477
vt 0.6173518 0.6419138
vt 0.617342 0.6209269
vt 0.610067 0.6422305
vt 0.6100547 0.621006
vt 0.6027822 0.6425474
vt 0.6027675 0.6210853
vt 0.5954975 0.6428641
vt 0.5954802 0.6211644
vt 0.5882127 0.6431808
vt 0.5881929 0.6212436
vt 0.5809278 0.6434977
vt 0.5809057 0.6213229
vt 0.5736431 0.6438144
vt 0.5736184 0.621402
vt 0.5663583 0.6493185
vt 0.5663313 0.6180363
vt 0.5458727 0.6955293
vt 0.5582716 0.6075917
vt 0.5171245 0.6876889
vt 0.5465717 0.5908599
vt 0.5053639 0.625837
vt 0.5310631 0.5674697
vt 0.4997581 0.5438828
vt 0.5044928 0.5273966
vn 0 0 1
vn 0 0 1
vn 0 0 1
vn 0 0 1
vn 0 0 1
vn 0 0 1
vn 0 0 1
vn 0 0 1
vn 0 0 1
vn 0 0 1
vn 0 0 1
vn 0 0 1
vn 0 0 1
vn 0 0 1
vn 0 0 1
vn 0 0 1
vn 0 0 1
vn 0 0 1
vn 0 0 1
vn 0 0 1
vn 0 0 1
vn 0 0 1
vn 0 0 1
vn 0 0 1
vn 0 0 1
vn 0 0 1
vn 0 0 1
vn 0 0 1
vn 0 0 1
vn 0 0 1
vn 0 0 1
vn 0 0 1
g tail_0
f 3/3/3 2/2/2 1/1/1
f 4/4/4 3/3/3 1/1/1
f 4/4/4 1/1/1 5/5/5
f 6/6/6 4/4/4 5/5/5
f 6/6/6 5/5/5 7/7/7
f 8/8/8 6/6/6 7/7/7
f 8/8/8 7/7/7 9/9/9
f 10/10/10 8/8/8 9/9/9
f 10/10/10 9/9/9 11/11/11
f 12/12/12 10/10/10 11/11/11
f 12/12/12 11/11/11 13/13/13
f 14/14/14 12/12/12 13/13/13
f 14/14/14 13/13/13 15/15/15
f 16/16/16 14/14/14 15/15/15
f 16/16/16 15/15/15 17/17/17
f 18/18/18 16/16/16 17/17/17
f 18/18/18 17/17/17 19/19/19
f 20/20/20 18/18/18 19/19/19
f 20/20/20 19/19/19 21/21/21
f 22/22/22 20/20/20 21/21/21
f 22/22/22 21/21/21 23/23/23
f 24/24/24 22/22/22 23/23/23
f 24/24/24 23/23/23 25/25/25
f 26/26/26 24/24/24 25/25/25
f 26/26/26 25/25/25 27/27/27
f 28/28/28 26/26/26 27/27/27
f 28/28/28 27/27/27 29/29/29
f 30/30/30 28/28/28 29/29/29
f 30/30/30 29/29/29 31/31/31
f 32/32/32 30/30/30 31/31/31
